<?xml version="1.0" encoding="UTF-8"?>
<!-- Generated from: AZ_Movie_Robin.png -->
<!-- Dimensions: 37x37 pixels (545 merged rects) -->
<!-- Rect size: 1 -->
<svg xmlns="http://www.w3.org/2000/svg" viewBox="0 0 37 37">
  <style>
    rect { shape-rendering: crispEdges; }
    svg { image-rendering: pixelated; image-rendering: -moz-crisp-edges; image-rendering: crisp-edges; }
  </style>
  <g id="pixels">
    <rect x="0.00" y="0.00" width="37.00" height="1" fill="rgba(41,107,136,1.00)"/>
    <rect x="0.00" y="1.00" width="37.00" height="1" fill="rgba(42,109,137,1.00)"/>
    <rect x="0.00" y="2.00" width="37.00" height="1" fill="rgba(44,110,138,1.00)"/>
    <rect x="0.00" y="3.00" width="15.00" height="1" fill="rgba(45,112,140,1.00)"/>
    <rect x="15.00" y="3.00" width="1.00" height="1" fill="rgba(4,3,1,1.00)"/>
    <rect x="16.00" y="3.00" width="5.00" height="1" fill="rgba(22,22,22,1.00)"/>
    <rect x="21.00" y="3.00" width="16.00" height="1" fill="rgba(45,112,140,1.00)"/>
    <rect x="0.00" y="4.00" width="13.00" height="1" fill="rgba(47,114,141,1.00)"/>
    <rect x="13.00" y="4.00" width="1.00" height="1" fill="rgba(22,22,22,1.00)"/>
    <rect x="14.00" y="4.00" width="2.00" height="1" fill="rgba(10,10,10,1.00)"/>
    <rect x="16.00" y="4.00" width="1.00" height="1" fill="rgba(33,33,33,1.00)"/>
    <rect x="17.00" y="4.00" width="1.00" height="1" fill="rgba(22,22,22,1.00)"/>
    <rect x="18.00" y="4.00" width="1.00" height="1" fill="rgba(10,10,10,1.00)"/>
    <rect x="19.00" y="4.00" width="1.00" height="1" fill="rgba(22,22,22,1.00)"/>
    <rect x="20.00" y="4.00" width="1.00" height="1" fill="rgba(10,10,10,1.00)"/>
    <rect x="21.00" y="4.00" width="1.00" height="1" fill="rgba(22,22,22,1.00)"/>
    <rect x="22.00" y="4.00" width="15.00" height="1" fill="rgba(47,114,141,1.00)"/>
    <rect x="0.00" y="5.00" width="12.00" height="1" fill="rgba(48,116,142,1.00)"/>
    <rect x="12.00" y="5.00" width="1.00" height="1" fill="rgba(22,22,22,1.00)"/>
    <rect x="13.00" y="5.00" width="1.00" height="1" fill="rgba(10,10,10,1.00)"/>
    <rect x="14.00" y="5.00" width="1.00" height="1" fill="rgba(33,33,33,1.00)"/>
    <rect x="15.00" y="5.00" width="1.00" height="1" fill="rgba(22,22,22,1.00)"/>
    <rect x="16.00" y="5.00" width="1.00" height="1" fill="rgba(10,10,10,1.00)"/>
    <rect x="17.00" y="5.00" width="1.00" height="1" fill="rgba(33,33,33,1.00)"/>
    <rect x="18.00" y="5.00" width="3.00" height="1" fill="rgba(22,22,22,1.00)"/>
    <rect x="21.00" y="5.00" width="1.00" height="1" fill="rgba(10,10,10,1.00)"/>
    <rect x="22.00" y="5.00" width="15.00" height="1" fill="rgba(48,116,142,1.00)"/>
    <rect x="0.00" y="6.00" width="12.00" height="1" fill="rgba(50,118,143,1.00)"/>
    <rect x="12.00" y="6.00" width="3.00" height="1" fill="rgba(10,10,10,1.00)"/>
    <rect x="15.00" y="6.00" width="2.00" height="1" fill="rgba(33,33,33,1.00)"/>
    <rect x="17.00" y="6.00" width="1.00" height="1" fill="rgba(10,10,10,1.00)"/>
    <rect x="18.00" y="6.00" width="2.00" height="1" fill="rgba(4,3,1,1.00)"/>
    <rect x="20.00" y="6.00" width="3.00" height="1" fill="rgba(22,22,22,1.00)"/>
    <rect x="23.00" y="6.00" width="1.00" height="1" fill="rgba(10,10,10,1.00)"/>
    <rect x="24.00" y="6.00" width="1.00" height="1" fill="rgba(22,22,22,1.00)"/>
    <rect x="25.00" y="6.00" width="12.00" height="1" fill="rgba(50,118,143,1.00)"/>
    <rect x="0.00" y="7.00" width="11.00" height="1" fill="rgba(51,119,144,1.00)"/>
    <rect x="11.00" y="7.00" width="1.00" height="1" fill="rgba(22,22,22,1.00)"/>
    <rect x="12.00" y="7.00" width="2.00" height="1" fill="rgba(10,10,10,1.00)"/>
    <rect x="14.00" y="7.00" width="1.00" height="1" fill="rgba(33,33,33,1.00)"/>
    <rect x="15.00" y="7.00" width="1.00" height="1" fill="rgba(10,10,10,1.00)"/>
    <rect x="16.00" y="7.00" width="1.00" height="1" fill="rgba(22,22,22,1.00)"/>
    <rect x="17.00" y="7.00" width="2.00" height="1" fill="rgba(33,33,33,1.00)"/>
    <rect x="19.00" y="7.00" width="3.00" height="1" fill="rgba(4,3,1,1.00)"/>
    <rect x="22.00" y="7.00" width="2.00" height="1" fill="rgba(22,22,22,1.00)"/>
    <rect x="24.00" y="7.00" width="1.00" height="1" fill="rgba(10,10,10,1.00)"/>
    <rect x="25.00" y="7.00" width="1.00" height="1" fill="rgba(22,22,22,1.00)"/>
    <rect x="26.00" y="7.00" width="11.00" height="1" fill="rgba(51,119,144,1.00)"/>
    <rect x="0.00" y="8.00" width="11.00" height="1" fill="rgba(53,121,145,1.00)"/>
    <rect x="11.00" y="8.00" width="2.00" height="1" fill="rgba(10,10,10,1.00)"/>
    <rect x="13.00" y="8.00" width="1.00" height="1" fill="rgba(22,22,22,1.00)"/>
    <rect x="14.00" y="8.00" width="2.00" height="1" fill="rgba(10,10,10,1.00)"/>
    <rect x="16.00" y="8.00" width="1.00" height="1" fill="rgba(22,22,22,1.00)"/>
    <rect x="17.00" y="8.00" width="1.00" height="1" fill="rgba(10,10,10,1.00)"/>
    <rect x="18.00" y="8.00" width="2.00" height="1" fill="rgba(22,22,22,1.00)"/>
    <rect x="20.00" y="8.00" width="1.00" height="1" fill="rgba(33,33,33,1.00)"/>
    <rect x="21.00" y="8.00" width="2.00" height="1" fill="rgba(4,3,1,1.00)"/>
    <rect x="23.00" y="8.00" width="1.00" height="1" fill="rgba(22,22,22,1.00)"/>
    <rect x="24.00" y="8.00" width="1.00" height="1" fill="rgba(10,10,10,1.00)"/>
    <rect x="25.00" y="8.00" width="1.00" height="1" fill="rgba(33,33,33,1.00)"/>
    <rect x="26.00" y="8.00" width="1.00" height="1" fill="rgba(10,10,10,1.00)"/>
    <rect x="27.00" y="8.00" width="10.00" height="1" fill="rgba(53,121,145,1.00)"/>
    <rect x="0.00" y="9.00" width="11.00" height="1" fill="rgba(55,123,147,1.00)"/>
    <rect x="11.00" y="9.00" width="2.00" height="1" fill="rgba(22,22,22,1.00)"/>
    <rect x="13.00" y="9.00" width="2.00" height="1" fill="rgba(10,10,10,1.00)"/>
    <rect x="15.00" y="9.00" width="1.00" height="1" fill="rgba(33,33,33,1.00)"/>
    <rect x="16.00" y="9.00" width="4.00" height="1" fill="rgba(22,22,22,1.00)"/>
    <rect x="20.00" y="9.00" width="1.00" height="1" fill="rgba(255,229,193,1.00)"/>
    <rect x="21.00" y="9.00" width="1.00" height="1" fill="rgba(255,228,188,1.00)"/>
    <rect x="22.00" y="9.00" width="1.00" height="1" fill="rgba(4,3,1,1.00)"/>
    <rect x="23.00" y="9.00" width="2.00" height="1" fill="rgba(22,22,22,1.00)"/>
    <rect x="25.00" y="9.00" width="1.00" height="1" fill="rgba(4,4,4,1.00)"/>
    <rect x="26.00" y="9.00" width="1.00" height="1" fill="rgba(22,22,22,1.00)"/>
    <rect x="27.00" y="9.00" width="10.00" height="1" fill="rgba(55,123,147,1.00)"/>
    <rect x="0.00" y="10.00" width="11.00" height="1" fill="rgba(57,125,148,1.00)"/>
    <rect x="11.00" y="10.00" width="2.00" height="1" fill="rgba(10,10,10,1.00)"/>
    <rect x="13.00" y="10.00" width="1.00" height="1" fill="rgba(22,22,22,1.00)"/>
    <rect x="14.00" y="10.00" width="1.00" height="1" fill="rgba(10,10,10,1.00)"/>
    <rect x="15.00" y="10.00" width="4.00" height="1" fill="rgba(22,22,22,1.00)"/>
    <rect x="19.00" y="10.00" width="1.00" height="1" fill="rgba(255,233,191,1.00)"/>
    <rect x="20.00" y="10.00" width="1.00" height="1" fill="rgba(255,231,189,1.00)"/>
    <rect x="21.00" y="10.00" width="1.00" height="1" fill="rgba(255,220,177,1.00)"/>
    <rect x="22.00" y="10.00" width="1.00" height="1" fill="rgba(255,221,178,1.00)"/>
    <rect x="23.00" y="10.00" width="1.00" height="1" fill="rgba(10,10,10,1.00)"/>
    <rect x="24.00" y="10.00" width="1.00" height="1" fill="rgba(22,22,22,1.00)"/>
    <rect x="25.00" y="10.00" width="1.00" height="1" fill="rgba(4,4,4,1.00)"/>
    <rect x="26.00" y="10.00" width="1.00" height="1" fill="rgba(4,3,1,1.00)"/>
    <rect x="27.00" y="10.00" width="10.00" height="1" fill="rgba(57,125,148,1.00)"/>
    <rect x="0.00" y="11.00" width="12.00" height="1" fill="rgba(59,128,149,1.00)"/>
    <rect x="12.00" y="11.00" width="2.00" height="1" fill="rgba(22,22,22,1.00)"/>
    <rect x="14.00" y="11.00" width="1.00" height="1" fill="rgba(10,10,10,1.00)"/>
    <rect x="15.00" y="11.00" width="1.00" height="1" fill="rgba(22,22,22,1.00)"/>
    <rect x="16.00" y="11.00" width="1.00" height="1" fill="rgba(33,33,33,1.00)"/>
    <rect x="17.00" y="11.00" width="1.00" height="1" fill="rgba(22,22,22,1.00)"/>
    <rect x="18.00" y="11.00" width="2.00" height="1" fill="rgba(255,238,197,1.00)"/>
    <rect x="20.00" y="11.00" width="1.00" height="1" fill="rgba(255,233,191,1.00)"/>
    <rect x="21.00" y="11.00" width="1.00" height="1" fill="rgba(255,223,179,1.00)"/>
    <rect x="22.00" y="11.00" width="1.00" height="1" fill="rgba(255,230,186,1.00)"/>
    <rect x="23.00" y="11.00" width="1.00" height="1" fill="rgba(244,192,139,1.00)"/>
    <rect x="24.00" y="11.00" width="1.00" height="1" fill="rgba(10,10,10,1.00)"/>
    <rect x="25.00" y="11.00" width="1.00" height="1" fill="rgba(4,4,4,1.00)"/>
    <rect x="26.00" y="11.00" width="11.00" height="1" fill="rgba(59,128,149,1.00)"/>
    <rect x="0.00" y="12.00" width="12.00" height="1" fill="rgba(60,130,151,1.00)"/>
    <rect x="12.00" y="12.00" width="1.00" height="1" fill="rgba(22,22,22,1.00)"/>
    <rect x="13.00" y="12.00" width="1.00" height="1" fill="rgba(10,10,10,1.00)"/>
    <rect x="14.00" y="12.00" width="2.00" height="1" fill="rgba(22,22,22,1.00)"/>
    <rect x="16.00" y="12.00" width="6.00" height="1" fill="rgba(0,0,0,1.00)"/>
    <rect x="22.00" y="12.00" width="2.00" height="1" fill="rgba(26,26,26,1.00)"/>
    <rect x="24.00" y="12.00" width="1.00" height="1" fill="rgba(10,10,10,1.00)"/>
    <rect x="25.00" y="12.00" width="1.00" height="1" fill="rgba(1,1,1,1.00)"/>
    <rect x="26.00" y="12.00" width="11.00" height="1" fill="rgba(60,130,151,1.00)"/>
    <rect x="0.00" y="13.00" width="11.00" height="1" fill="rgba(62,132,152,1.00)"/>
    <rect x="11.00" y="13.00" width="1.00" height="1" fill="rgba(63,132,152,1.00)"/>
    <rect x="12.00" y="13.00" width="1.00" height="1" fill="rgba(0,0,0,1.00)"/>
    <rect x="13.00" y="13.00" width="2.00" height="1" fill="rgba(26,26,26,1.00)"/>
    <rect x="15.00" y="13.00" width="1.00" height="1" fill="rgba(0,0,0,1.00)"/>
    <rect x="16.00" y="13.00" width="1.00" height="1" fill="rgba(26,26,26,1.00)"/>
    <rect x="17.00" y="13.00" width="1.00" height="1" fill="rgba(127,72,39,1.00)"/>
    <rect x="18.00" y="13.00" width="1.00" height="1" fill="rgba(133,76,46,1.00)"/>
    <rect x="19.00" y="13.00" width="2.00" height="1" fill="rgba(0,0,0,1.00)"/>
    <rect x="21.00" y="13.00" width="1.00" height="1" fill="rgba(49,49,49,1.00)"/>
    <rect x="22.00" y="13.00" width="1.00" height="1" fill="rgba(127,72,39,1.00)"/>
    <rect x="23.00" y="13.00" width="1.00" height="1" fill="rgba(133,76,46,1.00)"/>
    <rect x="24.00" y="13.00" width="1.00" height="1" fill="rgba(0,0,0,1.00)"/>
    <rect x="25.00" y="13.00" width="12.00" height="1" fill="rgba(62,132,152,1.00)"/>
    <rect x="0.00" y="14.00" width="11.00" height="1" fill="rgba(64,134,153,1.00)"/>
    <rect x="11.00" y="14.00" width="1.00" height="1" fill="rgba(0,0,0,1.00)"/>
    <rect x="12.00" y="14.00" width="1.00" height="1" fill="rgba(166,106,68,1.00)"/>
    <rect x="13.00" y="14.00" width="3.00" height="1" fill="rgba(0,0,0,1.00)"/>
    <rect x="16.00" y="14.00" width="1.00" height="1" fill="rgba(26,26,26,1.00)"/>
    <rect x="17.00" y="14.00" width="1.00" height="1" fill="rgba(0,0,0,1.00)"/>
    <rect x="18.00" y="14.00" width="1.00" height="1" fill="rgba(255,255,255,1.00)"/>
    <rect x="19.00" y="14.00" width="2.00" height="1" fill="rgba(0,0,0,1.00)"/>
    <rect x="21.00" y="14.00" width="1.00" height="1" fill="rgba(26,26,26,1.00)"/>
    <rect x="22.00" y="14.00" width="1.00" height="1" fill="rgba(0,0,0,1.00)"/>
    <rect x="23.00" y="14.00" width="1.00" height="1" fill="rgba(255,255,255,1.00)"/>
    <rect x="24.00" y="14.00" width="1.00" height="1" fill="rgba(0,0,0,1.00)"/>
    <rect x="25.00" y="14.00" width="12.00" height="1" fill="rgba(64,134,153,1.00)"/>
    <rect x="0.00" y="15.00" width="11.00" height="1" fill="rgba(66,136,155,1.00)"/>
    <rect x="11.00" y="15.00" width="1.00" height="1" fill="rgba(0,0,0,1.00)"/>
    <rect x="12.00" y="15.00" width="1.00" height="1" fill="rgba(201,134,94,1.00)"/>
    <rect x="13.00" y="15.00" width="1.00" height="1" fill="rgba(185,118,82,1.00)"/>
    <rect x="14.00" y="15.00" width="1.00" height="1" fill="rgba(219,148,107,1.00)"/>
    <rect x="15.00" y="15.00" width="2.00" height="1" fill="rgba(0,0,0,1.00)"/>
    <rect x="17.00" y="15.00" width="1.00" height="1" fill="rgba(49,49,49,1.00)"/>
    <rect x="18.00" y="15.00" width="1.00" height="1" fill="rgba(26,26,26,1.00)"/>
    <rect x="19.00" y="15.00" width="1.00" height="1" fill="rgba(0,0,0,1.00)"/>
    <rect x="20.00" y="15.00" width="1.00" height="1" fill="rgba(245,198,150,1.00)"/>
    <rect x="21.00" y="15.00" width="1.00" height="1" fill="rgba(0,0,0,1.00)"/>
    <rect x="22.00" y="15.00" width="2.00" height="1" fill="rgba(26,26,26,1.00)"/>
    <rect x="24.00" y="15.00" width="1.00" height="1" fill="rgba(0,0,0,1.00)"/>
    <rect x="25.00" y="15.00" width="12.00" height="1" fill="rgba(66,136,155,1.00)"/>
    <rect x="0.00" y="16.00" width="11.00" height="1" fill="rgba(68,138,156,1.00)"/>
    <rect x="11.00" y="16.00" width="1.00" height="1" fill="rgba(0,0,0,1.00)"/>
    <rect x="12.00" y="16.00" width="1.00" height="1" fill="rgba(169,105,66,1.00)"/>
    <rect x="13.00" y="16.00" width="1.00" height="1" fill="rgba(183,114,80,1.00)"/>
    <rect x="14.00" y="16.00" width="1.00" height="1" fill="rgba(203,133,95,1.00)"/>
    <rect x="15.00" y="16.00" width="1.00" height="1" fill="rgba(222,158,115,1.00)"/>
    <rect x="16.00" y="16.00" width="1.00" height="1" fill="rgba(250,194,146,1.00)"/>
    <rect x="17.00" y="16.00" width="1.00" height="1" fill="rgba(255,233,193,1.00)"/>
    <rect x="18.00" y="16.00" width="1.00" height="1" fill="rgba(255,239,197,1.00)"/>
    <rect x="19.00" y="16.00" width="1.00" height="1" fill="rgba(250,214,164,1.00)"/>
    <rect x="20.00" y="16.00" width="1.00" height="1" fill="rgba(0,0,0,1.00)"/>
    <rect x="21.00" y="16.00" width="1.00" height="1" fill="rgba(249,198,151,1.00)"/>
    <rect x="22.00" y="16.00" width="1.00" height="1" fill="rgba(239,186,137,1.00)"/>
    <rect x="23.00" y="16.00" width="1.00" height="1" fill="rgba(226,174,124,1.00)"/>
    <rect x="24.00" y="16.00" width="1.00" height="1" fill="rgba(0,0,0,1.00)"/>
    <rect x="25.00" y="16.00" width="12.00" height="1" fill="rgba(68,138,156,1.00)"/>
    <rect x="0.00" y="17.00" width="12.00" height="1" fill="rgba(70,141,158,1.00)"/>
    <rect x="12.00" y="17.00" width="2.00" height="1" fill="rgba(0,0,0,1.00)"/>
    <rect x="14.00" y="17.00" width="1.00" height="1" fill="rgba(195,126,89,1.00)"/>
    <rect x="15.00" y="17.00" width="1.00" height="1" fill="rgba(200,129,91,1.00)"/>
    <rect x="16.00" y="17.00" width="1.00" height="1" fill="rgba(231,168,122,1.00)"/>
    <rect x="17.00" y="17.00" width="1.00" height="1" fill="rgba(251,199,150,1.00)"/>
    <rect x="18.00" y="17.00" width="1.00" height="1" fill="rgba(255,231,186,1.00)"/>
    <rect x="19.00" y="17.00" width="1.00" height="1" fill="rgba(252,227,180,1.00)"/>
    <rect x="20.00" y="17.00" width="2.00" height="1" fill="rgba(0,0,0,1.00)"/>
    <rect x="22.00" y="17.00" width="1.00" height="1" fill="rgba(202,145,102,1.00)"/>
    <rect x="23.00" y="17.00" width="1.00" height="1" fill="rgba(227,167,119,1.00)"/>
    <rect x="24.00" y="17.00" width="1.00" height="1" fill="rgba(0,0,0,1.00)"/>
    <rect x="25.00" y="17.00" width="12.00" height="1" fill="rgba(70,141,158,1.00)"/>
    <rect x="0.00" y="18.00" width="13.00" height="1" fill="rgba(72,143,159,1.00)"/>
    <rect x="13.00" y="18.00" width="1.00" height="1" fill="rgba(0,0,0,1.00)"/>
    <rect x="14.00" y="18.00" width="1.00" height="1" fill="rgba(161,94,64,1.00)"/>
    <rect x="15.00" y="18.00" width="1.00" height="1" fill="rgba(203,131,95,1.00)"/>
    <rect x="16.00" y="18.00" width="1.00" height="1" fill="rgba(219,148,107,1.00)"/>
    <rect x="17.00" y="18.00" width="1.00" height="1" fill="rgba(244,184,134,1.00)"/>
    <rect x="18.00" y="18.00" width="1.00" height="1" fill="rgba(255,216,169,1.00)"/>
    <rect x="19.00" y="18.00" width="1.00" height="1" fill="rgba(255,239,196,1.00)"/>
    <rect x="20.00" y="18.00" width="1.00" height="1" fill="rgba(250,212,160,1.00)"/>
    <rect x="21.00" y="18.00" width="1.00" height="1" fill="rgba(242,189,136,1.00)"/>
    <rect x="22.00" y="18.00" width="1.00" height="1" fill="rgba(254,215,166,1.00)"/>
    <rect x="23.00" y="18.00" width="1.00" height="1" fill="rgba(237,177,127,1.00)"/>
    <rect x="24.00" y="18.00" width="1.00" height="1" fill="rgba(0,0,0,1.00)"/>
    <rect x="25.00" y="18.00" width="12.00" height="1" fill="rgba(72,143,159,1.00)"/>
    <rect x="0.00" y="19.00" width="13.00" height="1" fill="rgba(74,145,160,1.00)"/>
    <rect x="13.00" y="19.00" width="1.00" height="1" fill="rgba(0,0,0,1.00)"/>
    <rect x="14.00" y="19.00" width="1.00" height="1" fill="rgba(120,55,31,1.00)"/>
    <rect x="15.00" y="19.00" width="1.00" height="1" fill="rgba(199,131,92,1.00)"/>
    <rect x="16.00" y="19.00" width="1.00" height="1" fill="rgba(215,147,104,1.00)"/>
    <rect x="17.00" y="19.00" width="1.00" height="1" fill="rgba(244,176,128,1.00)"/>
    <rect x="18.00" y="19.00" width="1.00" height="1" fill="rgba(244,192,140,1.00)"/>
    <rect x="19.00" y="19.00" width="1.00" height="1" fill="rgba(255,216,169,1.00)"/>
    <rect x="20.00" y="19.00" width="1.00" height="1" fill="rgba(255,230,185,1.00)"/>
    <rect x="21.00" y="19.00" width="1.00" height="1" fill="rgba(251,217,167,1.00)"/>
    <rect x="22.00" y="19.00" width="1.00" height="1" fill="rgba(245,192,140,1.00)"/>
    <rect x="23.00" y="19.00" width="1.00" height="1" fill="rgba(225,167,117,1.00)"/>
    <rect x="24.00" y="19.00" width="1.00" height="1" fill="rgba(0,0,0,1.00)"/>
    <rect x="25.00" y="19.00" width="12.00" height="1" fill="rgba(74,145,160,1.00)"/>
    <rect x="0.00" y="20.00" width="5.00" height="1" fill="rgba(30,59,65,1.00)"/>
    <rect x="5.00" y="20.00" width="8.00" height="1" fill="rgba(76,147,162,1.00)"/>
    <rect x="13.00" y="20.00" width="1.00" height="1" fill="rgba(0,0,0,1.00)"/>
    <rect x="14.00" y="20.00" width="1.00" height="1" fill="rgba(95,33,18,1.00)"/>
    <rect x="15.00" y="20.00" width="1.00" height="1" fill="rgba(180,112,76,1.00)"/>
    <rect x="16.00" y="20.00" width="1.00" height="1" fill="rgba(219,150,106,1.00)"/>
    <rect x="17.00" y="20.00" width="1.00" height="1" fill="rgba(234,167,120,1.00)"/>
    <rect x="18.00" y="20.00" width="1.00" height="1" fill="rgba(231,171,123,1.00)"/>
    <rect x="19.00" y="20.00" width="4.00" height="1" fill="rgba(0,0,0,1.00)"/>
    <rect x="23.00" y="20.00" width="1.00" height="1" fill="rgba(220,159,111,1.00)"/>
    <rect x="24.00" y="20.00" width="1.00" height="1" fill="rgba(0,0,0,1.00)"/>
    <rect x="25.00" y="20.00" width="12.00" height="1" fill="rgba(76,147,162,1.00)"/>
    <rect x="0.00" y="21.00" width="6.00" height="1" fill="rgba(31,60,65,1.00)"/>
    <rect x="6.00" y="21.00" width="7.00" height="1" fill="rgba(78,150,163,1.00)"/>
    <rect x="13.00" y="21.00" width="1.00" height="1" fill="rgba(0,0,0,1.00)"/>
    <rect x="14.00" y="21.00" width="1.00" height="1" fill="rgba(102,42,15,1.00)"/>
    <rect x="15.00" y="21.00" width="1.00" height="1" fill="rgba(149,85,56,1.00)"/>
    <rect x="16.00" y="21.00" width="1.00" height="1" fill="rgba(196,129,90,1.00)"/>
    <rect x="17.00" y="21.00" width="1.00" height="1" fill="rgba(231,161,116,1.00)"/>
    <rect x="18.00" y="21.00" width="1.00" height="1" fill="rgba(250,191,141,1.00)"/>
    <rect x="19.00" y="21.00" width="1.00" height="1" fill="rgba(253,218,169,1.00)"/>
    <rect x="20.00" y="21.00" width="1.00" height="1" fill="rgba(253,223,174,1.00)"/>
    <rect x="21.00" y="21.00" width="1.00" height="1" fill="rgba(253,214,166,1.00)"/>
    <rect x="22.00" y="21.00" width="1.00" height="1" fill="rgba(253,203,153,1.00)"/>
    <rect x="23.00" y="21.00" width="1.00" height="1" fill="rgba(219,158,110,1.00)"/>
    <rect x="24.00" y="21.00" width="1.00" height="1" fill="rgba(0,0,0,1.00)"/>
    <rect x="25.00" y="21.00" width="12.00" height="1" fill="rgba(78,150,163,1.00)"/>
    <rect x="0.00" y="22.00" width="1.00" height="1" fill="rgba(32,61,66,1.00)"/>
    <rect x="1.00" y="22.00" width="1.00" height="1" fill="rgba(185,214,66,1.00)"/>
    <rect x="2.00" y="22.00" width="1.00" height="1" fill="rgba(32,61,66,1.00)"/>
    <rect x="3.00" y="22.00" width="1.00" height="1" fill="rgba(185,214,66,1.00)"/>
    <rect x="4.00" y="22.00" width="2.00" height="1" fill="rgba(32,61,66,1.00)"/>
    <rect x="6.00" y="22.00" width="7.00" height="1" fill="rgba(80,152,165,1.00)"/>
    <rect x="13.00" y="22.00" width="1.00" height="1" fill="rgba(0,0,0,1.00)"/>
    <rect x="14.00" y="22.00" width="1.00" height="1" fill="rgba(132,69,38,1.00)"/>
    <rect x="15.00" y="22.00" width="1.00" height="1" fill="rgba(103,44,19,1.00)"/>
    <rect x="16.00" y="22.00" width="1.00" height="1" fill="rgba(152,90,59,1.00)"/>
    <rect x="17.00" y="22.00" width="1.00" height="1" fill="rgba(208,139,98,1.00)"/>
    <rect x="18.00" y="22.00" width="1.00" height="1" fill="rgba(248,180,132,1.00)"/>
    <rect x="19.00" y="22.00" width="1.00" height="1" fill="rgba(253,207,159,1.00)"/>
    <rect x="20.00" y="22.00" width="1.00" height="1" fill="rgba(255,236,189,1.00)"/>
    <rect x="21.00" y="22.00" width="1.00" height="1" fill="rgba(255,238,194,1.00)"/>
    <rect x="22.00" y="22.00" width="1.00" height="1" fill="rgba(255,219,172,1.00)"/>
    <rect x="23.00" y="22.00" width="1.00" height="1" fill="rgba(189,131,89,1.00)"/>
    <rect x="24.00" y="22.00" width="1.00" height="1" fill="rgba(0,0,0,1.00)"/>
    <rect x="25.00" y="22.00" width="12.00" height="1" fill="rgba(80,152,165,1.00)"/>
    <rect x="0.00" y="23.00" width="6.00" height="1" fill="rgba(32,62,66,1.00)"/>
    <rect x="6.00" y="23.00" width="7.00" height="1" fill="rgba(81,154,166,1.00)"/>
    <rect x="13.00" y="23.00" width="1.00" height="1" fill="rgba(0,0,0,1.00)"/>
    <rect x="14.00" y="23.00" width="1.00" height="1" fill="rgba(150,86,53,1.00)"/>
    <rect x="15.00" y="23.00" width="1.00" height="1" fill="rgba(0,0,0,1.00)"/>
    <rect x="16.00" y="23.00" width="1.00" height="1" fill="rgba(119,59,32,1.00)"/>
    <rect x="17.00" y="23.00" width="1.00" height="1" fill="rgba(153,92,59,1.00)"/>
    <rect x="18.00" y="23.00" width="1.00" height="1" fill="rgba(190,131,89,1.00)"/>
    <rect x="19.00" y="23.00" width="1.00" height="1" fill="rgba(205,157,108,1.00)"/>
    <rect x="20.00" y="23.00" width="2.00" height="1" fill="rgba(235,196,142,1.00)"/>
    <rect x="22.00" y="23.00" width="1.00" height="1" fill="rgba(200,153,106,1.00)"/>
    <rect x="23.00" y="23.00" width="1.00" height="1" fill="rgba(0,0,0,1.00)"/>
    <rect x="24.00" y="23.00" width="13.00" height="1" fill="rgba(81,154,166,1.00)"/>
    <rect x="0.00" y="24.00" width="1.00" height="1" fill="rgba(94,124,128,1.00)"/>
    <rect x="1.00" y="24.00" width="5.00" height="1" fill="rgba(33,62,67,1.00)"/>
    <rect x="6.00" y="24.00" width="7.00" height="1" fill="rgba(83,156,167,1.00)"/>
    <rect x="13.00" y="24.00" width="1.00" height="1" fill="rgba(0,0,0,1.00)"/>
    <rect x="14.00" y="24.00" width="1.00" height="1" fill="rgba(157,94,58,1.00)"/>
    <rect x="15.00" y="24.00" width="1.00" height="1" fill="rgba(238,169,123,1.00)"/>
    <rect x="16.00" y="24.00" width="7.00" height="1" fill="rgba(0,0,0,1.00)"/>
    <rect x="23.00" y="24.00" width="14.00" height="1" fill="rgba(83,156,167,1.00)"/>
    <rect x="0.00" y="25.00" width="1.00" height="1" fill="rgba(34,64,68,1.00)"/>
    <rect x="1.00" y="25.00" width="1.00" height="1" fill="rgba(187,217,68,1.00)"/>
    <rect x="2.00" y="25.00" width="1.00" height="1" fill="rgba(34,64,68,1.00)"/>
    <rect x="3.00" y="25.00" width="1.00" height="1" fill="rgba(187,217,221,1.00)"/>
    <rect x="4.00" y="25.00" width="1.00" height="1" fill="rgba(187,217,68,1.00)"/>
    <rect x="5.00" y="25.00" width="1.00" height="1" fill="rgba(34,64,68,1.00)"/>
    <rect x="6.00" y="25.00" width="7.00" height="1" fill="rgba(85,159,169,1.00)"/>
    <rect x="13.00" y="25.00" width="1.00" height="1" fill="rgba(0,0,0,1.00)"/>
    <rect x="14.00" y="25.00" width="1.00" height="1" fill="rgba(155,92,57,1.00)"/>
    <rect x="15.00" y="25.00" width="1.00" height="1" fill="rgba(251,185,136,1.00)"/>
    <rect x="16.00" y="25.00" width="1.00" height="1" fill="rgba(236,169,122,1.00)"/>
    <rect x="17.00" y="25.00" width="1.00" height="1" fill="rgba(170,104,70,1.00)"/>
    <rect x="18.00" y="25.00" width="1.00" height="1" fill="rgba(0,0,0,1.00)"/>
    <rect x="19.00" y="25.00" width="18.00" height="1" fill="rgba(85,159,169,1.00)"/>
    <rect x="0.00" y="26.00" width="6.00" height="1" fill="rgba(35,64,68,1.00)"/>
    <rect x="6.00" y="26.00" width="7.00" height="1" fill="rgba(87,161,170,1.00)"/>
    <rect x="13.00" y="26.00" width="1.00" height="1" fill="rgba(0,0,0,1.00)"/>
    <rect x="14.00" y="26.00" width="1.00" height="1" fill="rgba(157,95,59,1.00)"/>
    <rect x="15.00" y="26.00" width="1.00" height="1" fill="rgba(250,186,136,1.00)"/>
    <rect x="16.00" y="26.00" width="1.00" height="1" fill="rgba(252,200,150,1.00)"/>
    <rect x="17.00" y="26.00" width="1.00" height="1" fill="rgba(237,176,128,1.00)"/>
    <rect x="18.00" y="26.00" width="1.00" height="1" fill="rgba(0,0,0,1.00)"/>
    <rect x="19.00" y="26.00" width="18.00" height="1" fill="rgba(87,161,170,1.00)"/>
    <rect x="0.00" y="27.00" width="1.00" height="1" fill="rgba(189,218,68,1.00)"/>
    <rect x="1.00" y="27.00" width="5.00" height="1" fill="rgba(36,65,68,1.00)"/>
    <rect x="6.00" y="27.00" width="2.00" height="1" fill="rgba(89,163,171,1.00)"/>
    <rect x="8.00" y="27.00" width="1.00" height="1" fill="rgba(36,65,68,1.00)"/>
    <rect x="9.00" y="27.00" width="3.00" height="1" fill="rgba(89,163,171,1.00)"/>
    <rect x="12.00" y="27.00" width="1.00" height="1" fill="rgba(164,146,0,1.00)"/>
    <rect x="13.00" y="27.00" width="1.00" height="1" fill="rgba(0,0,0,1.00)"/>
    <rect x="14.00" y="27.00" width="1.00" height="1" fill="rgba(197,132,89,1.00)"/>
    <rect x="15.00" y="27.00" width="1.00" height="1" fill="rgba(236,176,123,1.00)"/>
    <rect x="16.00" y="27.00" width="1.00" height="1" fill="rgba(251,197,141,1.00)"/>
    <rect x="17.00" y="27.00" width="1.00" height="1" fill="rgba(247,185,131,1.00)"/>
    <rect x="18.00" y="27.00" width="1.00" height="1" fill="rgba(0,0,0,1.00)"/>
    <rect x="19.00" y="27.00" width="2.00" height="1" fill="rgba(133,115,0,1.00)"/>
    <rect x="21.00" y="27.00" width="16.00" height="1" fill="rgba(89,163,171,1.00)"/>
    <rect x="0.00" y="28.00" width="1.00" height="1" fill="rgba(36,66,69,1.00)"/>
    <rect x="1.00" y="28.00" width="1.00" height="1" fill="rgba(189,219,69,1.00)"/>
    <rect x="2.00" y="28.00" width="3.00" height="1" fill="rgba(36,66,69,1.00)"/>
    <rect x="5.00" y="28.00" width="1.00" height="1" fill="rgba(189,219,69,1.00)"/>
    <rect x="6.00" y="28.00" width="2.00" height="1" fill="rgba(91,165,173,1.00)"/>
    <rect x="8.00" y="28.00" width="1.00" height="1" fill="rgba(36,66,69,1.00)"/>
    <rect x="9.00" y="28.00" width="2.00" height="1" fill="rgba(91,165,173,1.00)"/>
    <rect x="11.00" y="28.00" width="1.00" height="1" fill="rgba(159,141,0,1.00)"/>
    <rect x="12.00" y="28.00" width="1.00" height="1" fill="rgba(227,209,0,1.00)"/>
    <rect x="13.00" y="28.00" width="1.00" height="1" fill="rgba(245,227,0,1.00)"/>
    <rect x="14.00" y="28.00" width="1.00" height="1" fill="rgba(210,192,0,1.00)"/>
    <rect x="15.00" y="28.00" width="1.00" height="1" fill="rgba(164,146,0,1.00)"/>
    <rect x="16.00" y="28.00" width="1.00" height="1" fill="rgba(133,115,0,1.00)"/>
    <rect x="17.00" y="28.00" width="1.00" height="1" fill="rgba(245,186,131,1.00)"/>
    <rect x="18.00" y="28.00" width="1.00" height="1" fill="rgba(121,103,0,1.00)"/>
    <rect x="19.00" y="28.00" width="2.00" height="1" fill="rgba(250,232,0,1.00)"/>
    <rect x="21.00" y="28.00" width="1.00" height="1" fill="rgba(133,115,0,1.00)"/>
    <rect x="22.00" y="28.00" width="10.00" height="1" fill="rgba(91,165,173,1.00)"/>
    <rect x="32.00" y="28.00" width="1.00" height="1" fill="rgba(36,66,69,1.00)"/>
    <rect x="33.00" y="28.00" width="2.00" height="1" fill="rgba(91,165,173,1.00)"/>
    <rect x="35.00" y="28.00" width="1.00" height="1" fill="rgba(36,66,69,1.00)"/>
    <rect x="36.00" y="28.00" width="1.00" height="1" fill="rgba(91,165,173,1.00)"/>
    <rect x="0.00" y="29.00" width="6.00" height="1" fill="rgba(37,67,70,1.00)"/>
    <rect x="6.00" y="29.00" width="2.00" height="1" fill="rgba(93,167,174,1.00)"/>
    <rect x="8.00" y="29.00" width="1.00" height="1" fill="rgba(37,67,70,1.00)"/>
    <rect x="9.00" y="29.00" width="1.00" height="1" fill="rgba(145,127,0,1.00)"/>
    <rect x="10.00" y="29.00" width="1.00" height="1" fill="rgba(121,103,0,1.00)"/>
    <rect x="11.00" y="29.00" width="1.00" height="1" fill="rgba(213,195,0,1.00)"/>
    <rect x="12.00" y="29.00" width="1.00" height="1" fill="rgba(133,115,0,1.00)"/>
    <rect x="13.00" y="29.00" width="1.00" height="1" fill="rgba(250,232,0,1.00)"/>
    <rect x="14.00" y="29.00" width="2.00" height="1" fill="rgba(133,115,0,1.00)"/>
    <rect x="16.00" y="29.00" width="1.00" height="1" fill="rgba(245,227,0,1.00)"/>
    <rect x="17.00" y="29.00" width="1.00" height="1" fill="rgba(172,154,0,1.00)"/>
    <rect x="18.00" y="29.00" width="1.00" height="1" fill="rgba(250,232,0,1.00)"/>
    <rect x="19.00" y="29.00" width="1.00" height="1" fill="rgba(167,149,0,1.00)"/>
    <rect x="20.00" y="29.00" width="1.00" height="1" fill="rgba(250,232,0,1.00)"/>
    <rect x="21.00" y="29.00" width="1.00" height="1" fill="rgba(167,149,0,1.00)"/>
    <rect x="22.00" y="29.00" width="1.00" height="1" fill="rgba(121,103,0,1.00)"/>
    <rect x="23.00" y="29.00" width="1.00" height="1" fill="rgba(133,115,0,1.00)"/>
    <rect x="24.00" y="29.00" width="6.00" height="1" fill="rgba(93,167,174,1.00)"/>
    <rect x="30.00" y="29.00" width="7.00" height="1" fill="rgba(37,67,70,1.00)"/>
    <rect x="0.00" y="30.00" width="1.00" height="1" fill="rgba(38,68,70,1.00)"/>
    <rect x="1.00" y="30.00" width="1.00" height="1" fill="rgba(67,97,70,1.00)"/>
    <rect x="2.00" y="30.00" width="1.00" height="1" fill="rgba(38,68,70,1.00)"/>
    <rect x="3.00" y="30.00" width="1.00" height="1" fill="rgba(191,221,70,1.00)"/>
    <rect x="4.00" y="30.00" width="2.00" height="1" fill="rgba(38,68,70,1.00)"/>
    <rect x="6.00" y="30.00" width="1.00" height="1" fill="rgba(94,169,175,1.00)"/>
    <rect x="7.00" y="30.00" width="1.00" height="1" fill="rgba(155,137,0,1.00)"/>
    <rect x="8.00" y="30.00" width="1.00" height="1" fill="rgba(139,121,0,1.00)"/>
    <rect x="9.00" y="30.00" width="1.00" height="1" fill="rgba(235,217,0,1.00)"/>
    <rect x="10.00" y="30.00" width="1.00" height="1" fill="rgba(238,220,0,1.00)"/>
    <rect x="11.00" y="30.00" width="2.00" height="1" fill="rgba(230,212,0,1.00)"/>
    <rect x="13.00" y="30.00" width="1.00" height="1" fill="rgba(133,115,0,1.00)"/>
    <rect x="14.00" y="30.00" width="1.00" height="1" fill="rgba(250,232,0,1.00)"/>
    <rect x="15.00" y="30.00" width="2.00" height="1" fill="rgba(245,227,0,1.00)"/>
    <rect x="17.00" y="30.00" width="1.00" height="1" fill="rgba(172,154,0,1.00)"/>
    <rect x="18.00" y="30.00" width="1.00" height="1" fill="rgba(133,115,0,1.00)"/>
    <rect x="19.00" y="30.00" width="1.00" height="1" fill="rgba(245,227,0,1.00)"/>
    <rect x="20.00" y="30.00" width="1.00" height="1" fill="rgba(167,149,0,1.00)"/>
    <rect x="21.00" y="30.00" width="1.00" height="1" fill="rgba(243,225,0,1.00)"/>
    <rect x="22.00" y="30.00" width="1.00" height="1" fill="rgba(233,215,0,1.00)"/>
    <rect x="23.00" y="30.00" width="1.00" height="1" fill="rgba(222,204,0,1.00)"/>
    <rect x="24.00" y="30.00" width="1.00" height="1" fill="rgba(128,110,0,1.00)"/>
    <rect x="25.00" y="30.00" width="1.00" height="1" fill="rgba(133,115,0,1.00)"/>
    <rect x="26.00" y="30.00" width="3.00" height="1" fill="rgba(94,169,175,1.00)"/>
    <rect x="29.00" y="30.00" width="8.00" height="1" fill="rgba(38,68,70,1.00)"/>
    <rect x="0.00" y="31.00" width="6.00" height="1" fill="rgba(38,68,70,1.00)"/>
    <rect x="6.00" y="31.00" width="1.00" height="1" fill="rgba(159,141,0,1.00)"/>
    <rect x="7.00" y="31.00" width="1.00" height="1" fill="rgba(187,169,0,1.00)"/>
    <rect x="8.00" y="31.00" width="1.00" height="1" fill="rgba(243,225,0,1.00)"/>
    <rect x="9.00" y="31.00" width="1.00" height="1" fill="rgba(252,234,0,1.00)"/>
    <rect x="10.00" y="31.00" width="1.00" height="1" fill="rgba(245,227,0,1.00)"/>
    <rect x="11.00" y="31.00" width="2.00" height="1" fill="rgba(248,230,0,1.00)"/>
    <rect x="13.00" y="31.00" width="2.00" height="1" fill="rgba(245,227,0,1.00)"/>
    <rect x="15.00" y="31.00" width="1.00" height="1" fill="rgba(248,230,0,1.00)"/>
    <rect x="16.00" y="31.00" width="1.00" height="1" fill="rgba(245,227,0,1.00)"/>
    <rect x="17.00" y="31.00" width="1.00" height="1" fill="rgba(172,154,0,1.00)"/>
    <rect x="18.00" y="31.00" width="3.00" height="1" fill="rgba(250,232,0,1.00)"/>
    <rect x="21.00" y="31.00" width="1.00" height="1" fill="rgba(248,230,0,1.00)"/>
    <rect x="22.00" y="31.00" width="1.00" height="1" fill="rgba(243,225,0,1.00)"/>
    <rect x="23.00" y="31.00" width="1.00" height="1" fill="rgba(238,220,0,1.00)"/>
    <rect x="24.00" y="31.00" width="1.00" height="1" fill="rgba(250,232,0,1.00)"/>
    <rect x="25.00" y="31.00" width="1.00" height="1" fill="rgba(235,217,0,1.00)"/>
    <rect x="26.00" y="31.00" width="1.00" height="1" fill="rgba(128,110,0,1.00)"/>
    <rect x="27.00" y="31.00" width="2.00" height="1" fill="rgba(96,171,176,1.00)"/>
    <rect x="29.00" y="31.00" width="8.00" height="1" fill="rgba(38,68,70,1.00)"/>
    <rect x="0.00" y="32.00" width="1.00" height="1" fill="rgba(192,222,71,1.00)"/>
    <rect x="1.00" y="32.00" width="2.00" height="1" fill="rgba(39,69,71,1.00)"/>
    <rect x="3.00" y="32.00" width="1.00" height="1" fill="rgba(192,222,224,1.00)"/>
    <rect x="4.00" y="32.00" width="1.00" height="1" fill="rgba(39,69,71,1.00)"/>
    <rect x="5.00" y="32.00" width="1.00" height="1" fill="rgba(139,121,0,1.00)"/>
    <rect x="6.00" y="32.00" width="1.00" height="1" fill="rgba(230,212,0,1.00)"/>
    <rect x="7.00" y="32.00" width="1.00" height="1" fill="rgba(222,204,0,1.00)"/>
    <rect x="8.00" y="32.00" width="1.00" height="1" fill="rgba(46,134,42,1.00)"/>
    <rect x="9.00" y="32.00" width="1.00" height="1" fill="rgba(49,143,44,1.00)"/>
    <rect x="10.00" y="32.00" width="1.00" height="1" fill="rgba(185,5,15,1.00)"/>
    <rect x="11.00" y="32.00" width="1.00" height="1" fill="rgba(177,5,15,1.00)"/>
    <rect x="12.00" y="32.00" width="1.00" height="1" fill="rgba(189,5,16,1.00)"/>
    <rect x="13.00" y="32.00" width="1.00" height="1" fill="rgba(192,5,16,1.00)"/>
    <rect x="14.00" y="32.00" width="3.00" height="1" fill="rgba(191,5,16,1.00)"/>
    <rect x="17.00" y="32.00" width="2.00" height="1" fill="rgba(182,5,15,1.00)"/>
    <rect x="19.00" y="32.00" width="1.00" height="1" fill="rgba(188,5,16,1.00)"/>
    <rect x="20.00" y="32.00" width="2.00" height="1" fill="rgba(191,5,16,1.00)"/>
    <rect x="22.00" y="32.00" width="1.00" height="1" fill="rgba(182,5,15,1.00)"/>
    <rect x="23.00" y="32.00" width="1.00" height="1" fill="rgba(177,5,15,1.00)"/>
    <rect x="24.00" y="32.00" width="1.00" height="1" fill="rgba(44,130,41,1.00)"/>
    <rect x="25.00" y="32.00" width="1.00" height="1" fill="rgba(252,234,0,1.00)"/>
    <rect x="26.00" y="32.00" width="1.00" height="1" fill="rgba(233,215,0,1.00)"/>
    <rect x="27.00" y="32.00" width="1.00" height="1" fill="rgba(133,115,0,1.00)"/>
    <rect x="28.00" y="32.00" width="1.00" height="1" fill="rgba(98,173,177,1.00)"/>
    <rect x="29.00" y="32.00" width="1.00" height="1" fill="rgba(39,69,71,1.00)"/>
    <rect x="30.00" y="32.00" width="1.00" height="1" fill="rgba(192,222,71,1.00)"/>
    <rect x="31.00" y="32.00" width="1.00" height="1" fill="rgba(39,69,71,1.00)"/>
    <rect x="32.00" y="32.00" width="1.00" height="1" fill="rgba(100,130,132,1.00)"/>
    <rect x="33.00" y="32.00" width="1.00" height="1" fill="rgba(192,222,71,1.00)"/>
    <rect x="34.00" y="32.00" width="1.00" height="1" fill="rgba(39,69,71,1.00)"/>
    <rect x="35.00" y="32.00" width="1.00" height="1" fill="rgba(192,222,169,1.00)"/>
    <rect x="36.00" y="32.00" width="1.00" height="1" fill="rgba(39,69,71,1.00)"/>
    <rect x="0.00" y="33.00" width="1.00" height="1" fill="rgba(40,70,72,1.00)"/>
    <rect x="1.00" y="33.00" width="1.00" height="1" fill="rgba(101,131,133,1.00)"/>
    <rect x="2.00" y="33.00" width="3.00" height="1" fill="rgba(40,70,72,1.00)"/>
    <rect x="5.00" y="33.00" width="1.00" height="1" fill="rgba(155,137,0,1.00)"/>
    <rect x="6.00" y="33.00" width="1.00" height="1" fill="rgba(230,212,0,1.00)"/>
    <rect x="7.00" y="33.00" width="1.00" height="1" fill="rgba(37,109,34,1.00)"/>
    <rect x="8.00" y="33.00" width="1.00" height="1" fill="rgba(46,135,42,1.00)"/>
    <rect x="9.00" y="33.00" width="1.00" height="1" fill="rgba(43,127,39,1.00)"/>
    <rect x="10.00" y="33.00" width="1.00" height="1" fill="rgba(34,99,31,1.00)"/>
    <rect x="11.00" y="33.00" width="1.00" height="1" fill="rgba(165,4,14,1.00)"/>
    <rect x="12.00" y="33.00" width="1.00" height="1" fill="rgba(187,5,16,1.00)"/>
    <rect x="13.00" y="33.00" width="1.00" height="1" fill="rgba(197,5,16,1.00)"/>
    <rect x="14.00" y="33.00" width="1.00" height="1" fill="rgba(194,5,16,1.00)"/>
    <rect x="15.00" y="33.00" width="1.00" height="1" fill="rgba(191,5,16,1.00)"/>
    <rect x="16.00" y="33.00" width="1.00" height="1" fill="rgba(193,5,16,1.00)"/>
    <rect x="17.00" y="33.00" width="1.00" height="1" fill="rgba(182,5,15,1.00)"/>
    <rect x="18.00" y="33.00" width="1.00" height="1" fill="rgba(174,5,15,1.00)"/>
    <rect x="19.00" y="33.00" width="1.00" height="1" fill="rgba(188,5,16,1.00)"/>
    <rect x="20.00" y="33.00" width="1.00" height="1" fill="rgba(192,5,16,1.00)"/>
    <rect x="21.00" y="33.00" width="1.00" height="1" fill="rgba(191,5,16,1.00)"/>
    <rect x="22.00" y="33.00" width="1.00" height="1" fill="rgba(188,5,16,1.00)"/>
    <rect x="23.00" y="33.00" width="1.00" height="1" fill="rgba(170,4,14,1.00)"/>
    <rect x="24.00" y="33.00" width="1.00" height="1" fill="rgba(33,95,30,1.00)"/>
    <rect x="25.00" y="33.00" width="1.00" height="1" fill="rgba(43,126,39,1.00)"/>
    <rect x="26.00" y="33.00" width="1.00" height="1" fill="rgba(233,215,0,1.00)"/>
    <rect x="27.00" y="33.00" width="1.00" height="1" fill="rgba(121,103,0,1.00)"/>
    <rect x="28.00" y="33.00" width="1.00" height="1" fill="rgba(99,175,179,1.00)"/>
    <rect x="29.00" y="33.00" width="8.00" height="1" fill="rgba(40,70,72,1.00)"/>
    <rect x="0.00" y="34.00" width="1.00" height="1" fill="rgba(40,71,72,1.00)"/>
    <rect x="1.00" y="34.00" width="1.00" height="1" fill="rgba(56,86,72,1.00)"/>
    <rect x="2.00" y="34.00" width="3.00" height="1" fill="rgba(40,71,72,1.00)"/>
    <rect x="5.00" y="34.00" width="1.00" height="1" fill="rgba(155,137,0,1.00)"/>
    <rect x="6.00" y="34.00" width="1.00" height="1" fill="rgba(18,54,17,1.00)"/>
    <rect x="7.00" y="34.00" width="1.00" height="1" fill="rgba(37,109,34,1.00)"/>
    <rect x="8.00" y="34.00" width="1.00" height="1" fill="rgba(45,131,41,1.00)"/>
    <rect x="9.00" y="34.00" width="1.00" height="1" fill="rgba(36,106,33,1.00)"/>
    <rect x="10.00" y="34.00" width="1.00" height="1" fill="rgba(0,0,0,1.00)"/>
    <rect x="11.00" y="34.00" width="1.00" height="1" fill="rgba(134,4,11,1.00)"/>
    <rect x="12.00" y="34.00" width="1.00" height="1" fill="rgba(177,5,15,1.00)"/>
    <rect x="13.00" y="34.00" width="1.00" height="1" fill="rgba(175,5,15,1.00)"/>
    <rect x="14.00" y="34.00" width="1.00" height="1" fill="rgba(184,5,15,1.00)"/>
    <rect x="15.00" y="34.00" width="1.00" height="1" fill="rgba(196,5,16,1.00)"/>
    <rect x="16.00" y="34.00" width="1.00" height="1" fill="rgba(191,5,16,1.00)"/>
    <rect x="17.00" y="34.00" width="1.00" height="1" fill="rgba(222,204,0,1.00)"/>
    <rect x="18.00" y="34.00" width="1.00" height="1" fill="rgba(250,232,0,1.00)"/>
    <rect x="19.00" y="34.00" width="1.00" height="1" fill="rgba(179,5,15,1.00)"/>
    <rect x="20.00" y="34.00" width="1.00" height="1" fill="rgba(193,5,16,1.00)"/>
    <rect x="21.00" y="34.00" width="1.00" height="1" fill="rgba(167,149,0,1.00)"/>
    <rect x="22.00" y="34.00" width="1.00" height="1" fill="rgba(222,204,0,1.00)"/>
    <rect x="23.00" y="34.00" width="1.00" height="1" fill="rgba(146,4,12,1.00)"/>
    <rect x="24.00" y="34.00" width="1.00" height="1" fill="rgba(0,0,0,1.00)"/>
    <rect x="25.00" y="34.00" width="1.00" height="1" fill="rgba(42,123,38,1.00)"/>
    <rect x="26.00" y="34.00" width="1.00" height="1" fill="rgba(25,73,23,1.00)"/>
    <rect x="27.00" y="34.00" width="1.00" height="1" fill="rgba(108,90,0,1.00)"/>
    <rect x="28.00" y="34.00" width="1.00" height="1" fill="rgba(101,177,180,1.00)"/>
    <rect x="29.00" y="34.00" width="8.00" height="1" fill="rgba(40,71,72,1.00)"/>
    <rect x="0.00" y="35.00" width="5.00" height="1" fill="rgba(41,72,72,1.00)"/>
    <rect x="5.00" y="35.00" width="1.00" height="1" fill="rgba(164,146,0,1.00)"/>
    <rect x="6.00" y="35.00" width="1.00" height="1" fill="rgba(129,65,34,1.00)"/>
    <rect x="7.00" y="35.00" width="1.00" height="1" fill="rgba(217,150,104,1.00)"/>
    <rect x="8.00" y="35.00" width="1.00" height="1" fill="rgba(243,178,126,1.00)"/>
    <rect x="9.00" y="35.00" width="1.00" height="1" fill="rgba(200,140,94,1.00)"/>
    <rect x="10.00" y="35.00" width="1.00" height="1" fill="rgba(0,0,0,1.00)"/>
    <rect x="11.00" y="35.00" width="1.00" height="1" fill="rgba(97,3,8,1.00)"/>
    <rect x="12.00" y="35.00" width="1.00" height="1" fill="rgba(152,4,13,1.00)"/>
    <rect x="13.00" y="35.00" width="1.00" height="1" fill="rgba(146,4,12,1.00)"/>
    <rect x="14.00" y="35.00" width="1.00" height="1" fill="rgba(161,4,13,1.00)"/>
    <rect x="15.00" y="35.00" width="1.00" height="1" fill="rgba(182,5,15,1.00)"/>
    <rect x="16.00" y="35.00" width="1.00" height="1" fill="rgba(176,5,15,1.00)"/>
    <rect x="17.00" y="35.00" width="1.00" height="1" fill="rgba(147,4,12,1.00)"/>
    <rect x="18.00" y="35.00" width="1.00" height="1" fill="rgba(0,0,0,1.00)"/>
    <rect x="19.00" y="35.00" width="1.00" height="1" fill="rgba(165,4,14,1.00)"/>
    <rect x="20.00" y="35.00" width="1.00" height="1" fill="rgba(167,149,0,1.00)"/>
    <rect x="21.00" y="35.00" width="2.00" height="1" fill="rgba(0,0,0,1.00)"/>
    <rect x="23.00" y="35.00" width="1.00" height="1" fill="rgba(222,204,0,1.00)"/>
    <rect x="24.00" y="35.00" width="1.00" height="1" fill="rgba(0,0,0,1.00)"/>
    <rect x="25.00" y="35.00" width="1.00" height="1" fill="rgba(245,183,130,1.00)"/>
    <rect x="26.00" y="35.00" width="1.00" height="1" fill="rgba(153,98,55,1.00)"/>
    <rect x="27.00" y="35.00" width="1.00" height="1" fill="rgba(139,121,0,1.00)"/>
    <rect x="28.00" y="35.00" width="1.00" height="1" fill="rgba(103,179,181,1.00)"/>
    <rect x="29.00" y="35.00" width="3.00" height="1" fill="rgba(41,72,72,1.00)"/>
    <rect x="32.00" y="35.00" width="1.00" height="1" fill="rgba(194,225,72,1.00)"/>
    <rect x="33.00" y="35.00" width="1.00" height="1" fill="rgba(41,72,72,1.00)"/>
    <rect x="34.00" y="35.00" width="1.00" height="1" fill="rgba(102,133,134,1.00)"/>
    <rect x="35.00" y="35.00" width="2.00" height="1" fill="rgba(41,72,72,1.00)"/>
    <rect x="0.00" y="36.00" width="1.00" height="1" fill="rgba(195,225,73,1.00)"/>
    <rect x="1.00" y="36.00" width="1.00" height="1" fill="rgba(42,72,73,1.00)"/>
    <rect x="2.00" y="36.00" width="1.00" height="1" fill="rgba(195,225,73,1.00)"/>
    <rect x="3.00" y="36.00" width="2.00" height="1" fill="rgba(42,72,73,1.00)"/>
    <rect x="5.00" y="36.00" width="1.00" height="1" fill="rgba(0,0,0,1.00)"/>
    <rect x="6.00" y="36.00" width="1.00" height="1" fill="rgba(131,68,36,1.00)"/>
    <rect x="7.00" y="36.00" width="1.00" height="1" fill="rgba(219,153,108,1.00)"/>
    <rect x="8.00" y="36.00" width="1.00" height="1" fill="rgba(246,187,132,1.00)"/>
    <rect x="9.00" y="36.00" width="1.00" height="1" fill="rgba(207,148,102,1.00)"/>
    <rect x="10.00" y="36.00" width="1.00" height="1" fill="rgba(0,0,0,1.00)"/>
    <rect x="11.00" y="36.00" width="1.00" height="1" fill="rgba(100,3,8,1.00)"/>
    <rect x="12.00" y="36.00" width="1.00" height="1" fill="rgba(124,3,10,1.00)"/>
    <rect x="13.00" y="36.00" width="2.00" height="1" fill="rgba(143,4,12,1.00)"/>
    <rect x="15.00" y="36.00" width="1.00" height="1" fill="rgba(145,4,12,1.00)"/>
    <rect x="16.00" y="36.00" width="1.00" height="1" fill="rgba(153,4,13,1.00)"/>
    <rect x="17.00" y="36.00" width="1.00" height="1" fill="rgba(222,204,0,1.00)"/>
    <rect x="18.00" y="36.00" width="1.00" height="1" fill="rgba(250,232,0,1.00)"/>
    <rect x="19.00" y="36.00" width="1.00" height="1" fill="rgba(152,4,13,1.00)"/>
    <rect x="20.00" y="36.00" width="1.00" height="1" fill="rgba(222,204,0,1.00)"/>
    <rect x="21.00" y="36.00" width="1.00" height="1" fill="rgba(0,0,0,1.00)"/>
    <rect x="22.00" y="36.00" width="1.00" height="1" fill="rgba(250,232,0,1.00)"/>
    <rect x="23.00" y="36.00" width="2.00" height="1" fill="rgba(0,0,0,1.00)"/>
    <rect x="25.00" y="36.00" width="1.00" height="1" fill="rgba(245,183,130,1.00)"/>
    <rect x="26.00" y="36.00" width="1.00" height="1" fill="rgba(157,102,59,1.00)"/>
    <rect x="27.00" y="36.00" width="1.00" height="1" fill="rgba(0,0,0,1.00)"/>
    <rect x="28.00" y="36.00" width="1.00" height="1" fill="rgba(104,180,182,1.00)"/>
    <rect x="29.00" y="36.00" width="2.00" height="1" fill="rgba(42,72,73,1.00)"/>
    <rect x="31.00" y="36.00" width="1.00" height="1" fill="rgba(103,133,73,1.00)"/>
    <rect x="32.00" y="36.00" width="5.00" height="1" fill="rgba(42,72,73,1.00)"/>
  </g>
</svg>