<?xml version="1.0" encoding="UTF-8"?>
<!-- Generated from: 1179_birthday_fren_74.png -->
<!-- Dimensions: 74x74 pixels (horizontal-merged rects) -->
<svg xmlns="http://www.w3.org/2000/svg" width="74" height="74" viewBox="0 0 74 74">
  <style>
    rect { shape-rendering: crispEdges; }
    svg { image-rendering: pixelated; image-rendering: -moz-crisp-edges; image-rendering: crisp-edges; }
  </style>
  <g id="pixels">
    <rect x="32" y="0" width="3" height="1" fill="rgba(0,0,0,1.00)"/>
    <rect x="31" y="1" width="1" height="1" fill="rgba(0,0,0,1.00)"/>
    <rect x="32" y="1" width="4" height="1" fill="rgba(25,226,24,1.00)"/>
    <rect x="36" y="1" width="1" height="1" fill="rgba(0,0,0,1.00)"/>
    <rect x="30" y="2" width="1" height="1" fill="rgba(0,0,0,1.00)"/>
    <rect x="31" y="2" width="5" height="1" fill="rgba(25,226,24,1.00)"/>
    <rect x="36" y="2" width="1" height="1" fill="rgba(0,0,0,1.00)"/>
    <rect x="31" y="3" width="1" height="1" fill="rgba(0,0,0,1.00)"/>
    <rect x="32" y="3" width="3" height="1" fill="rgba(25,226,24,1.00)"/>
    <rect x="35" y="3" width="1" height="1" fill="rgba(0,0,0,1.00)"/>
    <rect x="33" y="4" width="1" height="1" fill="rgba(0,0,0,1.00)"/>
    <rect x="34" y="4" width="3" height="1" fill="rgba(231,19,189,1.00)"/>
    <rect x="33" y="5" width="1" height="1" fill="rgba(0,0,0,1.00)"/>
    <rect x="34" y="5" width="3" height="1" fill="rgba(231,19,189,1.00)"/>
    <rect x="37" y="5" width="1" height="1" fill="rgba(0,0,0,1.00)"/>
    <rect x="32" y="6" width="1" height="1" fill="rgba(0,0,0,1.00)"/>
    <rect x="33" y="6" width="5" height="1" fill="rgba(231,19,189,1.00)"/>
    <rect x="38" y="6" width="1" height="1" fill="rgba(0,0,0,1.00)"/>
    <rect x="32" y="7" width="1" height="1" fill="rgba(0,0,0,1.00)"/>
    <rect x="33" y="7" width="5" height="1" fill="rgba(231,19,189,1.00)"/>
    <rect x="38" y="7" width="1" height="1" fill="rgba(1,165,236,1.00)"/>
    <rect x="39" y="7" width="1" height="1" fill="rgba(0,0,0,1.00)"/>
    <rect x="31" y="8" width="1" height="1" fill="rgba(0,0,0,1.00)"/>
    <rect x="32" y="8" width="3" height="1" fill="rgba(231,19,189,1.00)"/>
    <rect x="35" y="8" width="5" height="1" fill="rgba(1,165,236,1.00)"/>
    <rect x="40" y="8" width="1" height="1" fill="rgba(0,0,0,1.00)"/>
    <rect x="30" y="9" width="1" height="1" fill="rgba(0,0,0,1.00)"/>
    <rect x="31" y="9" width="3" height="1" fill="rgba(231,19,189,1.00)"/>
    <rect x="34" y="9" width="4" height="1" fill="rgba(1,165,236,1.00)"/>
    <rect x="38" y="9" width="3" height="1" fill="rgba(231,19,189,1.00)"/>
    <rect x="41" y="9" width="1" height="1" fill="rgba(0,0,0,1.00)"/>
    <rect x="30" y="10" width="1" height="1" fill="rgba(0,0,0,1.00)"/>
    <rect x="31" y="10" width="4" height="1" fill="rgba(1,165,236,1.00)"/>
    <rect x="35" y="10" width="6" height="1" fill="rgba(231,19,189,1.00)"/>
    <rect x="41" y="10" width="1" height="1" fill="rgba(1,165,236,1.00)"/>
    <rect x="42" y="10" width="1" height="1" fill="rgba(0,0,0,1.00)"/>
    <rect x="29" y="11" width="1" height="1" fill="rgba(0,0,0,1.00)"/>
    <rect x="30" y="11" width="3" height="1" fill="rgba(1,165,236,1.00)"/>
    <rect x="33" y="11" width="6" height="1" fill="rgba(231,19,189,1.00)"/>
    <rect x="39" y="11" width="2" height="1" fill="rgba(1,165,236,1.00)"/>
    <rect x="41" y="11" width="2" height="1" fill="rgba(231,19,189,1.00)"/>
    <rect x="43" y="11" width="1" height="1" fill="rgba(0,0,0,1.00)"/>
    <rect x="29" y="12" width="1" height="1" fill="rgba(0,0,0,1.00)"/>
    <rect x="30" y="12" width="1" height="1" fill="rgba(1,165,236,1.00)"/>
    <rect x="31" y="12" width="5" height="1" fill="rgba(231,19,189,1.00)"/>
    <rect x="36" y="12" width="3" height="1" fill="rgba(1,165,236,1.00)"/>
    <rect x="39" y="12" width="5" height="1" fill="rgba(231,19,189,1.00)"/>
    <rect x="44" y="12" width="1" height="1" fill="rgba(0,0,0,1.00)"/>
    <rect x="28" y="13" width="1" height="1" fill="rgba(0,0,0,1.00)"/>
    <rect x="29" y="13" width="5" height="1" fill="rgba(231,19,189,1.00)"/>
    <rect x="34" y="13" width="3" height="1" fill="rgba(1,165,236,1.00)"/>
    <rect x="37" y="13" width="6" height="1" fill="rgba(231,19,189,1.00)"/>
    <rect x="43" y="13" width="2" height="1" fill="rgba(1,165,236,1.00)"/>
    <rect x="45" y="13" width="1" height="1" fill="rgba(0,0,0,1.00)"/>
    <rect x="27" y="14" width="2" height="1" fill="rgba(0,0,0,1.00)"/>
    <rect x="29" y="14" width="3" height="1" fill="rgba(231,19,189,1.00)"/>
    <rect x="32" y="14" width="3" height="1" fill="rgba(1,165,236,1.00)"/>
    <rect x="35" y="14" width="5" height="1" fill="rgba(231,19,189,1.00)"/>
    <rect x="40" y="14" width="3" height="1" fill="rgba(1,165,236,1.00)"/>
    <rect x="43" y="14" width="3" height="1" fill="rgba(231,19,189,1.00)"/>
    <rect x="46" y="14" width="1" height="1" fill="rgba(0,0,0,1.00)"/>
    <rect x="27" y="15" width="1" height="1" fill="rgba(0,0,0,1.00)"/>
    <rect x="28" y="15" width="1" height="1" fill="rgba(231,19,189,1.00)"/>
    <rect x="29" y="15" width="4" height="1" fill="rgba(1,165,236,1.00)"/>
    <rect x="33" y="15" width="5" height="1" fill="rgba(231,19,189,1.00)"/>
    <rect x="38" y="15" width="3" height="1" fill="rgba(1,165,236,1.00)"/>
    <rect x="41" y="15" width="4" height="1" fill="rgba(231,19,189,1.00)"/>
    <rect x="45" y="15" width="2" height="1" fill="rgba(1,165,236,1.00)"/>
    <rect x="26" y="16" width="1" height="1" fill="rgba(0,0,0,1.00)"/>
    <rect x="27" y="16" width="4" height="1" fill="rgba(1,165,236,1.00)"/>
    <rect x="31" y="16" width="5" height="1" fill="rgba(231,19,189,1.00)"/>
    <rect x="36" y="16" width="3" height="1" fill="rgba(1,165,236,1.00)"/>
    <rect x="39" y="16" width="3" height="1" fill="rgba(231,19,189,1.00)"/>
    <rect x="42" y="16" width="3" height="1" fill="rgba(1,165,236,1.00)"/>
    <rect x="45" y="16" width="3" height="1" fill="rgba(231,19,189,1.00)"/>
    <rect x="25" y="17" width="2" height="1" fill="rgba(0,0,0,1.00)"/>
    <rect x="27" y="17" width="2" height="1" fill="rgba(1,165,236,1.00)"/>
    <rect x="29" y="17" width="6" height="1" fill="rgba(231,19,189,1.00)"/>
    <rect x="35" y="17" width="2" height="1" fill="rgba(1,165,236,1.00)"/>
    <rect x="37" y="17" width="3" height="1" fill="rgba(231,19,189,1.00)"/>
    <rect x="40" y="17" width="3" height="1" fill="rgba(1,165,236,1.00)"/>
    <rect x="43" y="17" width="5" height="1" fill="rgba(231,19,189,1.00)"/>
    <rect x="48" y="17" width="1" height="1" fill="rgba(0,0,0,1.00)"/>
    <rect x="25" y="18" width="1" height="1" fill="rgba(0,0,0,1.00)"/>
    <rect x="26" y="18" width="1" height="1" fill="rgba(1,165,236,1.00)"/>
    <rect x="27" y="18" width="6" height="1" fill="rgba(231,19,189,1.00)"/>
    <rect x="33" y="18" width="3" height="1" fill="rgba(1,165,236,1.00)"/>
    <rect x="36" y="18" width="3" height="1" fill="rgba(231,19,189,1.00)"/>
    <rect x="39" y="18" width="1" height="1" fill="rgba(1,165,236,1.00)"/>
    <rect x="40" y="18" width="6" height="1" fill="rgba(231,19,189,1.00)"/>
    <rect x="46" y="18" width="2" height="1" fill="rgba(1,165,236,1.00)"/>
    <rect x="48" y="18" width="1" height="1" fill="rgba(231,19,189,1.00)"/>
    <rect x="49" y="18" width="1" height="1" fill="rgba(0,0,0,1.00)"/>
    <rect x="24" y="19" width="2" height="1" fill="rgba(0,0,0,1.00)"/>
    <rect x="26" y="19" width="1" height="1" fill="rgba(1,165,236,1.00)"/>
    <rect x="27" y="19" width="5" height="1" fill="rgba(231,19,189,1.00)"/>
    <rect x="32" y="19" width="2" height="1" fill="rgba(1,165,236,1.00)"/>
    <rect x="34" y="19" width="3" height="1" fill="rgba(231,19,189,1.00)"/>
    <rect x="37" y="19" width="2" height="1" fill="rgba(1,165,236,1.00)"/>
    <rect x="39" y="19" width="4" height="1" fill="rgba(231,19,189,1.00)"/>
    <rect x="43" y="19" width="3" height="1" fill="rgba(1,165,236,1.00)"/>
    <rect x="46" y="19" width="3" height="1" fill="rgba(231,19,189,1.00)"/>
    <rect x="49" y="19" width="1" height="1" fill="rgba(0,0,0,1.00)"/>
    <rect x="24" y="20" width="4" height="1" fill="rgba(0,0,0,1.00)"/>
    <rect x="28" y="20" width="3" height="1" fill="rgba(231,19,189,1.00)"/>
    <rect x="31" y="20" width="2" height="1" fill="rgba(1,165,236,1.00)"/>
    <rect x="33" y="20" width="2" height="1" fill="rgba(231,19,189,1.00)"/>
    <rect x="35" y="20" width="2" height="1" fill="rgba(1,165,236,1.00)"/>
    <rect x="37" y="20" width="4" height="1" fill="rgba(231,19,189,1.00)"/>
    <rect x="41" y="20" width="4" height="1" fill="rgba(1,165,236,1.00)"/>
    <rect x="45" y="20" width="3" height="1" fill="rgba(231,19,189,1.00)"/>
    <rect x="48" y="20" width="2" height="1" fill="rgba(0,0,0,1.00)"/>
    <rect x="28" y="21" width="18" height="1" fill="rgba(0,0,0,1.00)"/>
  </g>
</svg>