<?xml version="1.0" encoding="UTF-8"?>
<!-- Generated from: 1179_birthday_fren.png -->
<!-- Dimensions: 37x37 pixels (40 merged rects) -->
<!-- Rect size: 1 -->
<svg xmlns="http://www.w3.org/2000/svg" viewBox="0 0 37 37">
  <style>
    rect { shape-rendering: crispEdges; }
    svg { image-rendering: pixelated; image-rendering: -moz-crisp-edges; image-rendering: crisp-edges; }
  </style>
  <g id="pixels">
    <rect x="15.00" y="0.00" width="3.00" height="1" fill="rgba(25,226,24,1.00)"/>
    <rect x="15.00" y="1.00" width="3.00" height="1" fill="rgba(25,226,24,1.00)"/>
    <rect x="17.00" y="2.00" width="1.00" height="1" fill="rgba(0,0,0,1.00)"/>
    <rect x="18.00" y="2.00" width="1.00" height="1" fill="rgba(1,165,236,1.00)"/>
    <rect x="19.00" y="2.00" width="1.00" height="1" fill="rgba(0,0,0,1.00)"/>
    <rect x="16.00" y="3.00" width="1.00" height="1" fill="rgba(0,0,0,1.00)"/>
    <rect x="17.00" y="3.00" width="2.00" height="1" fill="rgba(1,165,236,1.00)"/>
    <rect x="19.00" y="3.00" width="1.00" height="1" fill="rgba(231,19,189,1.00)"/>
    <rect x="20.00" y="3.00" width="1.00" height="1" fill="rgba(0,0,0,1.00)"/>
    <rect x="16.00" y="4.00" width="1.00" height="1" fill="rgba(0,0,0,1.00)"/>
    <rect x="17.00" y="4.00" width="1.00" height="1" fill="rgba(1,165,236,1.00)"/>
    <rect x="18.00" y="4.00" width="2.00" height="1" fill="rgba(231,19,189,1.00)"/>
    <rect x="20.00" y="4.00" width="1.00" height="1" fill="rgba(0,0,0,1.00)"/>
    <rect x="15.00" y="5.00" width="1.00" height="1" fill="rgba(0,0,0,1.00)"/>
    <rect x="16.00" y="5.00" width="1.00" height="1" fill="rgba(1,165,236,1.00)"/>
    <rect x="17.00" y="5.00" width="2.00" height="1" fill="rgba(231,19,189,1.00)"/>
    <rect x="19.00" y="5.00" width="2.00" height="1" fill="rgba(1,165,236,1.00)"/>
    <rect x="21.00" y="5.00" width="1.00" height="1" fill="rgba(0,0,0,1.00)"/>
    <rect x="14.00" y="6.00" width="1.00" height="1" fill="rgba(0,0,0,1.00)"/>
    <rect x="15.00" y="6.00" width="1.00" height="1" fill="rgba(1,165,236,1.00)"/>
    <rect x="16.00" y="6.00" width="2.00" height="1" fill="rgba(231,19,189,1.00)"/>
    <rect x="18.00" y="6.00" width="2.00" height="1" fill="rgba(1,165,236,1.00)"/>
    <rect x="20.00" y="6.00" width="2.00" height="1" fill="rgba(231,19,189,1.00)"/>
    <rect x="22.00" y="6.00" width="1.00" height="1" fill="rgba(0,0,0,1.00)"/>
    <rect x="13.00" y="7.00" width="1.00" height="1" fill="rgba(0,0,0,1.00)"/>
    <rect x="14.00" y="7.00" width="1.00" height="1" fill="rgba(1,165,236,1.00)"/>
    <rect x="15.00" y="7.00" width="2.00" height="1" fill="rgba(231,19,189,1.00)"/>
    <rect x="17.00" y="7.00" width="2.00" height="1" fill="rgba(1,165,236,1.00)"/>
    <rect x="19.00" y="7.00" width="2.00" height="1" fill="rgba(231,19,189,1.00)"/>
    <rect x="21.00" y="7.00" width="2.00" height="1" fill="rgba(1,165,236,1.00)"/>
    <rect x="23.00" y="7.00" width="1.00" height="1" fill="rgba(0,0,0,1.00)"/>
    <rect x="12.00" y="8.00" width="1.00" height="1" fill="rgba(0,0,0,1.00)"/>
    <rect x="13.00" y="8.00" width="1.00" height="1" fill="rgba(1,165,236,1.00)"/>
    <rect x="14.00" y="8.00" width="2.00" height="1" fill="rgba(231,19,189,1.00)"/>
    <rect x="16.00" y="8.00" width="2.00" height="1" fill="rgba(1,165,236,1.00)"/>
    <rect x="18.00" y="8.00" width="2.00" height="1" fill="rgba(231,19,189,1.00)"/>
    <rect x="20.00" y="8.00" width="2.00" height="1" fill="rgba(1,165,236,1.00)"/>
    <rect x="22.00" y="8.00" width="2.00" height="1" fill="rgba(231,19,189,1.00)"/>
    <rect x="24.00" y="8.00" width="1.00" height="1" fill="rgba(0,0,0,1.00)"/>
    <rect x="12.00" y="9.00" width="13.00" height="1" fill="rgba(0,0,0,1.00)"/>
  </g>
</svg>