<svg shape-rendering="crispEdges" xmlns="http://www.w3.org/2000/svg" version="1.1" width="37" height="37"><style>rect { image-rendering: pixelated; }</style><rect x="10" y="6" width="1.025" height="1.025" fill="rgba(84,0,0,1.000)" /><rect x="14" y="6" width="1.025" height="1.025" fill="rgba(0,0,0,1.000)" /><rect x="15" y="6" width="1.025" height="1.025" fill="rgba(0,0,0,1.000)" /><rect x="16" y="6" width="1.025" height="1.025" fill="rgba(0,0,0,1.000)" /><rect x="17" y="6" width="1.025" height="1.025" fill="rgba(0,0,0,1.000)" /><rect x="18" y="6" width="1.025" height="1.025" fill="rgba(0,0,0,1.000)" /><rect x="19" y="6" width="1.025" height="1.025" fill="rgba(0,0,0,1.000)" /><rect x="20" y="6" width="1.025" height="1.025" fill="rgba(0,0,0,1.000)" /><rect x="21" y="6" width="1.025" height="1.025" fill="rgba(0,0,0,1.000)" /><rect x="22" y="6" width="1.025" height="1.025" fill="rgba(0,0,0,1.000)" /><rect x="27" y="6" width="1.025" height="1.025" fill="rgba(84,0,0,1.000)" /><rect x="10" y="7" width="1.025" height="1.025" fill="rgba(84,0,0,1.000)" /><rect x="11" y="7" width="1.025" height="1.025" fill="rgba(208,0,0,1.000)" /><rect x="13" y="7" width="1.025" height="1.025" fill="rgba(0,0,0,1.000)" /><rect x="14" y="7" width="1.025" height="1.025" fill="rgba(117,0,0,1.000)" /><rect x="15" y="7" width="1.025" height="1.025" fill="rgba(209,0,0,1.000)" /><rect x="16" y="7" width="1.025" height="1.025" fill="rgba(226,0,0,1.000)" /><rect x="17" y="7" width="1.025" height="1.025" fill="rgba(229,0,0,1.000)" /><rect x="18" y="7" width="1.025" height="1.025" fill="rgba(228,0,0,1.000)" /><rect x="19" y="7" width="1.025" height="1.025" fill="rgba(226,0,0,1.000)" /><rect x="20" y="7" width="1.025" height="1.025" fill="rgba(226,0,0,1.000)" /><rect x="21" y="7" width="1.025" height="1.025" fill="rgba(228,0,0,1.000)" /><rect x="22" y="7" width="1.025" height="1.025" fill="rgba(200,0,0,1.000)" /><rect x="23" y="7" width="1.025" height="1.025" fill="rgba(0,0,0,1.000)" /><rect x="26" y="7" width="1.025" height="1.025" fill="rgba(208,0,0,1.000)" /><rect x="27" y="7" width="1.025" height="1.025" fill="rgba(84,0,0,1.000)" /><rect x="10" y="8" width="1.025" height="1.025" fill="rgba(84,0,0,1.000)" /><rect x="11" y="8" width="1.025" height="1.025" fill="rgba(153,0,0,1.000)" /><rect x="12" y="8" width="1.025" height="1.025" fill="rgba(208,0,0,1.000)" /><rect x="13" y="8" width="1.025" height="1.025" fill="rgba(208,0,0,1.000)" /><rect x="14" y="8" width="1.025" height="1.025" fill="rgba(84,0,0,1.000)" /><rect x="15" y="8" width="1.025" height="1.025" fill="rgba(244,0,0,1.000)" /><rect x="16" y="8" width="1.025" height="1.025" fill="rgba(244,0,0,1.000)" /><rect x="17" y="8" width="1.025" height="1.025" fill="rgba(251,0,0,1.000)" /><rect x="18" y="8" width="1.025" height="1.025" fill="rgba(244,0,0,1.000)" /><rect x="19" y="8" width="1.025" height="1.025" fill="rgba(244,0,0,1.000)" /><rect x="20" y="8" width="1.025" height="1.025" fill="rgba(248,0,0,1.000)" /><rect x="21" y="8" width="1.025" height="1.025" fill="rgba(248,0,0,1.000)" /><rect x="22" y="8" width="1.025" height="1.025" fill="rgba(248,0,0,1.000)" /><rect x="23" y="8" width="1.025" height="1.025" fill="rgba(219,0,0,1.000)" /><rect x="24" y="8" width="1.025" height="1.025" fill="rgba(0,0,0,1.000)" /><rect x="25" y="8" width="1.025" height="1.025" fill="rgba(208,0,0,1.000)" /><rect x="26" y="8" width="1.025" height="1.025" fill="rgba(153,0,0,1.000)" /><rect x="27" y="8" width="1.025" height="1.025" fill="rgba(84,0,0,1.000)" /><rect x="11" y="9" width="1.025" height="1.025" fill="rgba(84,0,0,1.000)" /><rect x="12" y="9" width="1.025" height="1.025" fill="rgba(153,0,0,1.000)" /><rect x="13" y="9" width="1.025" height="1.025" fill="rgba(208,0,0,1.000)" /><rect x="14" y="9" width="1.025" height="1.025" fill="rgba(84,0,0,1.000)" /><rect x="15" y="9" width="1.025" height="1.025" fill="rgba(243,0,0,1.000)" /><rect x="16" y="9" width="1.025" height="1.025" fill="rgba(255,0,0,1.000)" /><rect x="17" y="9" width="1.025" height="1.025" fill="rgba(255,0,0,1.000)" /><rect x="18" y="9" width="1.025" height="1.025" fill="rgba(255,0,0,1.000)" /><rect x="19" y="9" width="1.025" height="1.025" fill="rgba(255,0,0,1.000)" /><rect x="20" y="9" width="1.025" height="1.025" fill="rgba(255,0,0,1.000)" /><rect x="21" y="9" width="1.025" height="1.025" fill="rgba(255,0,0,1.000)" /><rect x="22" y="9" width="1.025" height="1.025" fill="rgba(255,0,0,1.000)" /><rect x="23" y="9" width="1.025" height="1.025" fill="rgba(234,0,0,1.000)" /><rect x="24" y="9" width="1.025" height="1.025" fill="rgba(0,0,0,1.000)" /><rect x="25" y="9" width="1.025" height="1.025" fill="rgba(153,0,0,1.000)" /><rect x="26" y="9" width="1.025" height="1.025" fill="rgba(84,0,0,1.000)" /><rect x="12" y="10" width="1.025" height="1.025" fill="rgba(84,0,0,1.000)" /><rect x="13" y="10" width="1.025" height="1.025" fill="rgba(153,0,0,1.000)" /><rect x="14" y="10" width="1.025" height="1.025" fill="rgba(84,0,0,1.000)" /><rect x="15" y="10" width="1.025" height="1.025" fill="rgba(244,0,0,1.000)" /><rect x="16" y="10" width="1.025" height="1.025" fill="rgba(253,0,0,1.000)" /><rect x="17" y="10" width="1.025" height="1.025" fill="rgba(255,0,0,1.000)" /><rect x="18" y="10" width="1.025" height="1.025" fill="rgba(255,0,0,1.000)" /><rect x="19" y="10" width="1.025" height="1.025" fill="rgba(255,0,0,1.000)" /><rect x="20" y="10" width="1.025" height="1.025" fill="rgba(255,0,0,1.000)" /><rect x="21" y="10" width="1.025" height="1.025" fill="rgba(255,0,0,1.000)" /><rect x="22" y="10" width="1.025" height="1.025" fill="rgba(255,0,0,1.000)" /><rect x="23" y="10" width="1.025" height="1.025" fill="rgba(224,0,0,1.000)" /><rect x="24" y="10" width="1.025" height="1.025" fill="rgba(0,0,0,1.000)" /><rect x="25" y="10" width="1.025" height="1.025" fill="rgba(84,0,0,1.000)" /><rect x="12" y="11" width="1.025" height="1.025" fill="rgba(0,0,0,1.000)" /><rect x="13" y="11" width="1.025" height="1.025" fill="rgba(97,0,0,1.000)" /><rect x="14" y="11" width="1.025" height="1.025" fill="rgba(206,0,0,1.000)" /><rect x="15" y="11" width="1.025" height="1.025" fill="rgba(240,0,0,1.000)" /><rect x="16" y="11" width="1.025" height="1.025" fill="rgba(253,0,0,1.000)" /><rect x="17" y="11" width="1.025" height="1.025" fill="rgba(255,0,0,1.000)" /><rect x="18" y="11" width="1.025" height="1.025" fill="rgba(255,0,0,1.000)" /><rect x="19" y="11" width="1.025" height="1.025" fill="rgba(255,0,0,1.000)" /><rect x="20" y="11" width="1.025" height="1.025" fill="rgba(255,0,0,1.000)" /><rect x="21" y="11" width="1.025" height="1.025" fill="rgba(255,0,0,1.000)" /><rect x="22" y="11" width="1.025" height="1.025" fill="rgba(255,0,0,1.000)" /><rect x="23" y="11" width="1.025" height="1.025" fill="rgba(231,0,0,1.000)" /><rect x="24" y="11" width="1.025" height="1.025" fill="rgba(0,0,0,1.000)" /><rect x="12" y="12" width="1.025" height="1.025" fill="rgba(0,0,0,1.000)" /><rect x="13" y="12" width="1.025" height="1.025" fill="rgba(84,0,0,1.000)" /><rect x="14" y="12" width="1.025" height="1.025" fill="rgba(201,0,0,1.000)" /><rect x="15" y="12" width="1.025" height="1.025" fill="rgba(238,0,0,1.000)" /><rect x="16" y="12" width="1.025" height="1.025" fill="rgba(243,0,0,1.000)" /><rect x="17" y="12" width="1.025" height="1.025" fill="rgba(224,0,0,1.000)" /><rect x="18" y="12" width="1.025" height="1.025" fill="rgba(229,0,0,1.000)" /><rect x="19" y="12" width="1.025" height="1.025" fill="rgba(228,0,0,1.000)" /><rect x="20" y="12" width="1.025" height="1.025" fill="rgba(246,0,0,1.000)" /><rect x="21" y="12" width="1.025" height="1.025" fill="rgba(248,0,0,1.000)" /><rect x="22" y="12" width="1.025" height="1.025" fill="rgba(240,0,0,1.000)" /><rect x="23" y="12" width="1.025" height="1.025" fill="rgba(234,0,0,1.000)" /><rect x="24" y="12" width="1.025" height="1.025" fill="rgba(0,0,0,1.000)" /><rect x="12" y="13" width="1.025" height="1.025" fill="rgba(0,0,0,1.000)" /><rect x="13" y="13" width="1.025" height="1.025" fill="rgba(0,0,0,1.000)" /><rect x="14" y="13" width="1.025" height="1.025" fill="rgba(195,0,0,1.000)" /><rect x="15" y="13" width="1.025" height="1.025" fill="rgba(244,0,0,1.000)" /><rect x="16" y="13" width="1.025" height="1.025" fill="rgba(184,0,0,1.000)" /><rect x="17" y="13" width="1.025" height="1.025" fill="rgba(44,0,0,1.000)" /><rect x="18" y="13" width="1.025" height="1.025" fill="rgba(255,237,0,1.000)" /><rect x="19" y="13" width="1.025" height="1.025" fill="rgba(100,0,0,1.000)" /><rect x="20" y="13" width="1.025" height="1.025" fill="rgba(170,0,0,1.000)" /><rect x="21" y="13" width="1.025" height="1.025" fill="rgba(179,0,0,1.000)" /><rect x="22" y="13" width="1.025" height="1.025" fill="rgba(44,0,0,1.000)" /><rect x="23" y="13" width="1.025" height="1.025" fill="rgba(255,237,0,1.000)" /><rect x="24" y="13" width="1.025" height="1.025" fill="rgba(0,0,0,1.000)" /><rect x="11" y="14" width="1.025" height="1.025" fill="rgba(0,0,0,1.000)" /><rect x="12" y="14" width="1.025" height="1.025" fill="rgba(94,0,0,1.000)" /><rect x="13" y="14" width="1.025" height="1.025" fill="rgba(143,0,0,1.000)" /><rect x="14" y="14" width="1.025" height="1.025" fill="rgba(193,0,0,1.000)" /><rect x="15" y="14" width="1.025" height="1.025" fill="rgba(243,0,0,1.000)" /><rect x="16" y="14" width="1.025" height="1.025" fill="rgba(211,0,0,1.000)" /><rect x="17" y="14" width="1.025" height="1.025" fill="rgba(0,0,0,1.000)" /><rect x="18" y="14" width="1.025" height="1.025" fill="rgba(255,237,0,1.000)" /><rect x="19" y="14" width="1.025" height="1.025" fill="rgba(195,0,0,1.000)" /><rect x="20" y="14" width="1.025" height="1.025" fill="rgba(218,0,0,1.000)" /><rect x="21" y="14" width="1.025" height="1.025" fill="rgba(198,0,0,1.000)" /><rect x="22" y="14" width="1.025" height="1.025" fill="rgba(0,0,0,1.000)" /><rect x="23" y="14" width="1.025" height="1.025" fill="rgba(255,237,0,1.000)" /><rect x="24" y="14" width="1.025" height="1.025" fill="rgba(0,0,0,1.000)" /><rect x="11" y="15" width="1.025" height="1.025" fill="rgba(0,0,0,1.000)" /><rect x="12" y="15" width="1.025" height="1.025" fill="rgba(149,0,0,1.000)" /><rect x="13" y="15" width="1.025" height="1.025" fill="rgba(124,0,0,1.000)" /><rect x="14" y="15" width="1.025" height="1.025" fill="rgba(182,0,0,1.000)" /><rect x="15" y="15" width="1.025" height="1.025" fill="rgba(226,0,0,1.000)" /><rect x="16" y="15" width="1.025" height="1.025" fill="rgba(255,0,0,1.000)" /><rect x="17" y="15" width="1.025" height="1.025" fill="rgba(253,0,0,1.000)" /><rect x="18" y="15" width="1.025" height="1.025" fill="rgba(246,0,0,1.000)" /><rect x="19" y="15" width="1.025" height="1.025" fill="rgba(255,0,0,1.000)" /><rect x="20" y="15" width="1.025" height="1.025" fill="rgba(234,0,0,1.000)" /><rect x="21" y="15" width="1.025" height="1.025" fill="rgba(243,0,0,1.000)" /><rect x="22" y="15" width="1.025" height="1.025" fill="rgba(253,0,0,1.000)" /><rect x="23" y="15" width="1.025" height="1.025" fill="rgba(238,0,0,1.000)" /><rect x="24" y="15" width="1.025" height="1.025" fill="rgba(0,0,0,1.000)" /><rect x="11" y="16" width="1.025" height="1.025" fill="rgba(0,0,0,1.000)" /><rect x="12" y="16" width="1.025" height="1.025" fill="rgba(99,0,0,1.000)" /><rect x="13" y="16" width="1.025" height="1.025" fill="rgba(120,0,0,1.000)" /><rect x="14" y="16" width="1.025" height="1.025" fill="rgba(153,0,0,1.000)" /><rect x="15" y="16" width="1.025" height="1.025" fill="rgba(188,0,0,1.000)" /><rect x="16" y="16" width="1.025" height="1.025" fill="rgba(244,0,0,1.000)" /><rect x="17" y="16" width="1.025" height="1.025" fill="rgba(255,0,0,1.000)" /><rect x="18" y="16" width="1.025" height="1.025" fill="rgba(255,0,0,1.000)" /><rect x="19" y="16" width="1.025" height="1.025" fill="rgba(244,0,0,1.000)" /><rect x="20" y="16" width="1.025" height="1.025" fill="rgba(0,0,0,1.000)" /><rect x="21" y="16" width="1.025" height="1.025" fill="rgba(243,0,0,1.000)" /><rect x="22" y="16" width="1.025" height="1.025" fill="rgba(221,0,0,1.000)" /><rect x="23" y="16" width="1.025" height="1.025" fill="rgba(195,0,0,1.000)" /><rect x="24" y="16" width="1.025" height="1.025" fill="rgba(0,0,0,1.000)" /><rect x="12" y="17" width="1.025" height="1.025" fill="rgba(0,0,0,1.000)" /><rect x="13" y="17" width="1.025" height="1.025" fill="rgba(0,0,0,1.000)" /><rect x="14" y="17" width="1.025" height="1.025" fill="rgba(139,0,0,1.000)" /><rect x="15" y="17" width="1.025" height="1.025" fill="rgba(148,0,0,1.000)" /><rect x="16" y="17" width="1.025" height="1.025" fill="rgba(206,0,0,1.000)" /><rect x="17" y="17" width="1.025" height="1.025" fill="rgba(246,0,0,1.000)" /><rect x="18" y="17" width="1.025" height="1.025" fill="rgba(255,0,0,1.000)" /><rect x="19" y="17" width="1.025" height="1.025" fill="rgba(248,0,0,1.000)" /><rect x="20" y="17" width="1.025" height="1.025" fill="rgba(0,0,0,1.000)" /><rect x="21" y="17" width="1.025" height="1.025" fill="rgba(0,0,0,1.000)" /><rect x="22" y="17" width="1.025" height="1.025" fill="rgba(152,0,0,1.000)" /><rect x="23" y="17" width="1.025" height="1.025" fill="rgba(198,0,0,1.000)" /><rect x="24" y="17" width="1.025" height="1.025" fill="rgba(0,0,0,1.000)" /><rect x="13" y="18" width="1.025" height="1.025" fill="rgba(0,0,0,1.000)" /><rect x="14" y="18" width="1.025" height="1.025" fill="rgba(86,0,0,1.000)" /><rect x="15" y="18" width="1.025" height="1.025" fill="rgba(153,0,0,1.000)" /><rect x="16" y="18" width="1.025" height="1.025" fill="rgba(182,0,0,1.000)" /><rect x="17" y="18" width="1.025" height="1.025" fill="rgba(231,0,0,1.000)" /><rect x="18" y="18" width="1.025" height="1.025" fill="rgba(255,0,0,1.000)" /><rect x="19" y="18" width="1.025" height="1.025" fill="rgba(255,0,0,1.000)" /><rect x="20" y="18" width="1.025" height="1.025" fill="rgba(244,0,0,1.000)" /><rect x="21" y="18" width="1.025" height="1.025" fill="rgba(228,0,0,1.000)" /><rect x="22" y="18" width="1.025" height="1.025" fill="rgba(253,0,0,1.000)" /><rect x="23" y="18" width="1.025" height="1.025" fill="rgba(218,0,0,1.000)" /><rect x="24" y="18" width="1.025" height="1.025" fill="rgba(0,0,0,1.000)" /><rect x="13" y="19" width="1.025" height="1.025" fill="rgba(0,0,0,1.000)" /><rect x="14" y="19" width="1.025" height="1.025" fill="rgba(36,0,0,1.000)" /><rect x="15" y="19" width="1.025" height="1.025" fill="rgba(146,0,0,1.000)" /><rect x="16" y="19" width="1.025" height="1.025" fill="rgba(175,0,0,1.000)" /><rect x="17" y="19" width="1.025" height="1.025" fill="rgba(231,0,0,1.000)" /><rect x="18" y="19" width="1.025" height="1.025" fill="rgba(231,0,0,1.000)" /><rect x="19" y="19" width="1.025" height="1.025" fill="rgba(255,0,0,1.000)" /><rect x="20" y="19" width="1.025" height="1.025" fill="rgba(255,0,0,1.000)" /><rect x="21" y="19" width="1.025" height="1.025" fill="rgba(246,0,0,1.000)" /><rect x="22" y="19" width="1.025" height="1.025" fill="rgba(234,0,0,1.000)" /><rect x="23" y="19" width="1.025" height="1.025" fill="rgba(193,0,0,1.000)" /><rect x="24" y="19" width="1.025" height="1.025" fill="rgba(0,0,0,1.000)" /><rect x="13" y="20" width="1.025" height="1.025" fill="rgba(0,0,0,1.000)" /><rect x="14" y="20" width="1.025" height="1.025" fill="rgba(11,0,0,1.000)" /><rect x="15" y="20" width="1.025" height="1.025" fill="rgba(116,0,0,1.000)" /><rect x="16" y="20" width="1.025" height="1.025" fill="rgba(182,0,0,1.000)" /><rect x="17" y="20" width="1.025" height="1.025" fill="rgba(211,0,0,1.000)" /><rect x="18" y="20" width="1.025" height="1.025" fill="rgba(206,0,0,1.000)" /><rect x="19" y="20" width="1.025" height="1.025" fill="rgba(0,0,0,1.000)" /><rect x="20" y="20" width="1.025" height="1.025" fill="rgba(0,0,0,1.000)" /><rect x="21" y="20" width="1.025" height="1.025" fill="rgba(0,0,0,1.000)" /><rect x="22" y="20" width="1.025" height="1.025" fill="rgba(0,0,0,1.000)" /><rect x="23" y="20" width="1.025" height="1.025" fill="rgba(184,0,0,1.000)" /><rect x="24" y="20" width="1.025" height="1.025" fill="rgba(0,0,0,1.000)" /><rect x="13" y="21" width="1.025" height="1.025" fill="rgba(0,0,0,1.000)" /><rect x="14" y="21" width="1.025" height="1.025" fill="rgba(18,0,0,1.000)" /><rect x="15" y="21" width="1.025" height="1.025" fill="rgba(71,0,0,1.000)" /><rect x="16" y="21" width="1.025" height="1.025" fill="rgba(142,0,0,1.000)" /><rect x="17" y="21" width="1.025" height="1.025" fill="rgba(206,0,0,1.000)" /><rect x="18" y="21" width="1.025" height="1.025" fill="rgba(244,0,0,1.000)" /><rect x="19" y="21" width="1.025" height="1.025" fill="rgba(251,0,0,1.000)" /><rect x="20" y="21" width="1.025" height="1.025" fill="rgba(251,0,0,1.000)" /><rect x="21" y="21" width="1.025" height="1.025" fill="rgba(251,0,0,1.000)" /><rect x="22" y="21" width="1.025" height="1.025" fill="rgba(251,0,0,1.000)" /><rect x="23" y="21" width="1.025" height="1.025" fill="rgba(182,0,0,1.000)" /><rect x="24" y="21" width="1.025" height="1.025" fill="rgba(0,0,0,1.000)" /><rect x="14" y="22" width="1.025" height="1.025" fill="rgba(49,0,0,1.000)" /><rect x="15" y="22" width="1.025" height="1.025" fill="rgba(19,0,0,1.000)" /><rect x="16" y="22" width="1.025" height="1.025" fill="rgba(74,0,0,1.000)" /><rect x="17" y="22" width="1.025" height="1.025" fill="rgba(162,0,0,1.000)" /><rect x="18" y="22" width="1.025" height="1.025" fill="rgba(240,0,0,1.000)" /><rect x="19" y="22" width="1.025" height="1.025" fill="rgba(251,0,0,1.000)" /><rect x="20" y="22" width="1.025" height="1.025" fill="rgba(255,0,0,1.000)" /><rect x="21" y="22" width="1.025" height="1.025" fill="rgba(255,0,0,1.000)" /><rect x="22" y="22" width="1.025" height="1.025" fill="rgba(255,0,0,1.000)" /><rect x="23" y="22" width="1.025" height="1.025" fill="rgba(129,0,0,1.000)" /><rect x="24" y="22" width="1.025" height="1.025" fill="rgba(0,0,0,1.000)" /><rect x="15" y="23" width="1.025" height="1.025" fill="rgba(0,0,0,1.000)" /><rect x="16" y="23" width="1.025" height="1.025" fill="rgba(35,0,0,1.000)" /><rect x="17" y="23" width="1.025" height="1.025" fill="rgba(75,0,0,1.000)" /><rect x="18" y="23" width="1.025" height="1.025" fill="rgba(131,0,0,1.000)" /><rect x="19" y="23" width="1.025" height="1.025" fill="rgba(157,0,0,1.000)" /><rect x="20" y="23" width="1.025" height="1.025" fill="rgba(213,0,0,1.000)" /><rect x="21" y="23" width="1.025" height="1.025" fill="rgba(213,0,0,1.000)" /><rect x="22" y="23" width="1.025" height="1.025" fill="rgba(148,0,0,1.000)" /><rect x="23" y="23" width="1.025" height="1.025" fill="rgba(0,0,0,1.000)" /><rect x="16" y="24" width="1.025" height="1.025" fill="rgba(0,0,0,1.000)" /><rect x="17" y="24" width="1.025" height="1.025" fill="rgba(0,0,0,1.000)" /><rect x="18" y="24" width="1.025" height="1.025" fill="rgba(0,0,0,1.000)" /><rect x="19" y="24" width="1.025" height="1.025" fill="rgba(0,0,0,1.000)" /><rect x="20" y="24" width="1.025" height="1.025" fill="rgba(0,0,0,1.000)" /><rect x="21" y="24" width="1.025" height="1.025" fill="rgba(0,0,0,1.000)" /><rect x="22" y="24" width="1.025" height="1.025" fill="rgba(0,0,0,1.000)" /></svg>