
      <svg width="768" height="1024" xmlns="http://www.w3.org/2000/svg">
        <!-- Fondo principal -->
        <rect width="768" height="1024" fill="#ffffff"/>
        
        <!-- Contenedor de imagen con fondo dinámico -->
        <rect x="84" y="120" width="600" height="600" fill="#a9a9a920"/>
        
        <!-- Tag de rareza con guías -->
        <rect x="84" y="120" width="160" height="60" fill="#a9a9a9" stroke="#ff0000" stroke-width="2"/>
        <circle cx="164" cy="150" r="3" fill="#ff0000"/>
        <g transform="translate(164, 150)"><path d="M-27.70 1.85L-27.70 1.85L-26.20 1.85Q-26.32 2.93-26.82 3.78Q-27.32 4.63-28.23 5.13Q-29.15 5.63-30.52 5.63L-30.52 5.63Q-31.52 5.63-32.33 5.25Q-33.15 4.88-33.73 4.18Q-34.32 3.49-34.64 2.52Q-34.95 1.55-34.95 0.35L-34.95 0.35L-34.95-0.78Q-34.95-1.98-34.64-2.95Q-34.32-3.92-33.72-4.62Q-33.13-5.31-32.28-5.69Q-31.44-6.06-30.38-6.06L-30.38-6.06Q-29.09-6.06-28.20-5.58Q-27.31-5.09-26.82-4.24Q-26.32-3.38-26.20-2.26L-26.20-2.26L-27.70-2.26Q-27.81-3.05-28.11-3.63Q-28.41-4.20-28.95-4.52Q-29.50-4.83-30.38-4.83L-30.38-4.83Q-31.14-4.83-31.71-4.54Q-32.29-4.25-32.68-3.72Q-33.06-3.19-33.26-2.45Q-33.45-1.70-33.45-0.80L-33.45-0.80L-33.45 0.35Q-33.45 1.19-33.28 1.92Q-33.10 2.66-32.74 3.21Q-32.38 3.77-31.83 4.08Q-31.27 4.40-30.52 4.40L-30.52 4.40Q-29.55 4.40-28.98 4.09Q-28.41 3.79-28.12 3.22Q-27.83 2.65-27.70 1.85ZM-15.40-0.58L-15.40-0.58L-15.40 0.14Q-15.40 1.42-15.72 2.44Q-16.04 3.45-16.64 4.16Q-17.24 4.88-18.08 5.25Q-18.92 5.63-19.96 5.63L-19.96 5.63Q-20.97 5.63-21.81 5.25Q-22.65 4.88-23.26 4.16Q-23.88 3.45-24.21 2.44Q-24.55 1.42-24.55 0.14L-24.55 0.14L-24.55-0.58Q-24.55-1.86-24.21-2.87Q-23.88-3.88-23.27-4.60Q-22.66-5.31-21.82-5.69Q-20.98-6.06-19.98-6.06L-19.98-6.06Q-18.94-6.06-18.10-5.69Q-17.26-5.31-16.65-4.60Q-16.05-3.88-15.72-2.87Q-15.40-1.86-15.40-0.58ZM-16.89 0.14L-16.89 0.14L-16.89-0.59Q-16.89-1.61-17.10-2.39Q-17.30-3.17-17.70-3.70Q-18.10-4.23-18.68-4.51Q-19.25-4.78-19.98-4.78L-19.98-4.78Q-20.68-4.78-21.25-4.51Q-21.81-4.23-22.21-3.70Q-22.62-3.17-22.84-2.39Q-23.05-1.61-23.05-0.59L-23.05-0.59L-23.05 0.14Q-23.05 1.16-22.84 1.95Q-22.62 2.73-22.21 3.27Q-21.80 3.80-21.23 4.08Q-20.66 4.35-19.96 4.35L-19.96 4.35Q-19.23 4.35-18.66 4.08Q-18.09 3.80-17.69 3.27Q-17.30 2.73-17.09 1.95Q-16.89 1.16-16.89 0.14ZM-8.06 5.47L-12.67-5.91L-11.21-5.91L-7.48 3.37L-3.77-5.91L-2.30-5.91L-6.92 5.47L-8.06 5.47ZM-13.15 5.47L-13.15-5.91L-11.86-5.91L-11.65 1.03L-11.65 5.47L-13.15 5.47ZM-3.33 1.03L-3.12-5.91L-1.83-5.91L-1.83 5.47L-3.33 5.47L-3.33 1.03ZM5.91 5.47L1.30-5.91L2.76-5.91L6.48 3.37L10.20-5.91L11.67-5.91L7.05 5.47L5.91 5.47ZM0.82 5.47L0.82-5.91L2.11-5.91L2.32 1.03L2.32 5.47L0.82 5.47ZM10.64 1.03L10.85-5.91L12.14-5.91L12.14 5.47L10.64 5.47L10.64 1.03ZM23.55-0.58L23.55-0.58L23.55 0.14Q23.55 1.42 23.23 2.44Q22.91 3.45 22.30 4.16Q21.70 4.88 20.86 5.25Q20.02 5.63 18.98 5.63L18.98 5.63Q17.98 5.63 17.14 5.25Q16.30 4.88 15.68 4.16Q15.07 3.45 14.73 2.44Q14.40 1.42 14.40 0.14L14.40 0.14L14.40-0.58Q14.40-1.86 14.73-2.87Q15.06-3.88 15.67-4.60Q16.28-5.31 17.12-5.69Q17.96-6.06 18.97-6.06L18.97-6.06Q20.01-6.06 20.85-5.69Q21.69-5.31 22.29-4.60Q22.90-3.88 23.22-2.87Q23.55-1.86 23.55-0.58ZM22.05 0.14L22.05 0.14L22.05-0.59Q22.05-1.61 21.85-2.39Q21.64-3.17 21.24-3.70Q20.84-4.23 20.27-4.51Q19.70-4.78 18.97-4.78L18.97-4.78Q18.27-4.78 17.70-4.51Q17.13-4.23 16.73-3.70Q16.33-3.17 16.11-2.39Q15.89-1.61 15.89-0.59L15.89-0.59L15.89 0.14Q15.89 1.16 16.11 1.95Q16.33 2.73 16.74 3.27Q17.15 3.80 17.71 4.08Q18.28 4.35 18.98 4.35L18.98 4.35Q19.72 4.35 20.29 4.08Q20.86 3.80 21.25 3.27Q21.65 2.73 21.85 1.95Q22.05 1.16 22.05 0.14ZM33.05-5.91L34.55-5.91L34.55 5.47L33.03 5.47L27.30-3.30L27.30 5.47L25.80 5.47L25.80-5.91L27.30-5.91L33.05 2.89L33.05-5.91Z" fill="#ffffff"/></g>
        
        <!-- Nombre del trait con guías -->
        <rect x="84" y="760" width="600" height="80" fill="#0f4e6d" stroke="#ff0000" stroke-width="2"/>
        <circle cx="384" cy="800" r="3" fill="#ff0000"/>
        <g transform="translate(384, 800)"><path d="M-140.98-17.72L-136.45-17.72L-136.45 16.41L-140.98 16.41L-140.98-17.72ZM-137.44-2.37L-122.16-2.37L-122.16 1.34L-137.44 1.34L-137.44-2.37ZM-137.44-17.72L-119.84-17.72L-119.84-14.02L-137.44-14.02L-137.44-17.72ZM-110.81 12.73L-93.75 12.73L-93.75 16.41L-110.81 16.41L-110.81 12.73ZM-114.45-17.72L-109.92-17.72L-109.92 16.41L-114.45 16.41L-114.45-17.72ZM-62.32-1.73L-62.32-1.73L-62.32 0.42Q-62.32 4.27-63.28 7.31Q-64.24 10.36-66.05 12.49Q-67.85 14.63-70.37 15.75Q-72.89 16.88-76.01 16.88L-76.01 16.88Q-79.03 16.88-81.55 15.75Q-84.07 14.63-85.91 12.49Q-87.75 10.36-88.76 7.31Q-89.77 4.27-89.77 0.42L-89.77 0.42L-89.77-1.73Q-89.77-5.58-88.77-8.61Q-87.77-11.65-85.95-13.79Q-84.12-15.94-81.60-17.06Q-79.08-18.19-76.05-18.19L-76.05-18.19Q-72.94-18.19-70.42-17.06Q-67.90-15.94-66.08-13.79Q-64.27-11.65-63.29-8.61Q-62.32-5.58-62.32-1.73ZM-66.80 0.42L-66.80 0.42L-66.80-1.78Q-66.80-4.83-67.42-7.17Q-68.04-9.52-69.23-11.11Q-70.43-12.70-72.15-13.52Q-73.88-14.34-76.05-14.34L-76.05-14.34Q-78.16-14.34-79.86-13.52Q-81.56-12.70-82.77-11.11Q-83.98-9.52-84.63-7.17Q-85.29-4.83-85.29-1.78L-85.29-1.78L-85.29 0.42Q-85.29 3.49-84.63 5.85Q-83.98 8.20-82.75 9.81Q-81.52 11.41-79.82 12.23Q-78.12 13.05-76.01 13.05L-76.01 13.05Q-73.80 13.05-72.09 12.23Q-70.38 11.41-69.20 9.81Q-68.02 8.20-67.41 5.85Q-66.80 3.49-66.80 0.42ZM-42.98 3.02L-42.98 3.02L-52.10 3.02L-52.10-0.66L-42.98-0.66Q-40.34-0.66-38.70-1.50Q-37.05-2.34-36.29-3.84Q-35.53-5.34-35.53-7.27L-35.53-7.27Q-35.53-9.02-36.29-10.57Q-37.05-12.12-38.70-13.07Q-40.34-14.02-42.98-14.02L-42.98-14.02L-51.05-14.02L-51.05 16.41L-55.57 16.41L-55.57-17.72L-42.98-17.72Q-39.12-17.72-36.45-16.38Q-33.77-15.05-32.39-12.69Q-31.01-10.34-31.01-7.31L-31.01-7.31Q-31.01-4.03-32.39-1.71Q-33.77 0.61-36.45 1.82Q-39.12 3.02-42.98 3.02ZM-12.70 3.02L-12.70 3.02L-21.82 3.02L-21.82-0.66L-12.70-0.66Q-10.05-0.66-8.41-1.50Q-6.77-2.34-6.01-3.84Q-5.25-5.34-5.25-7.27L-5.25-7.27Q-5.25-9.02-6.01-10.57Q-6.77-12.12-8.41-13.07Q-10.05-14.02-12.70-14.02L-12.70-14.02L-20.77-14.02L-20.77 16.41L-25.29 16.41L-25.29-17.72L-12.70-17.72Q-8.84-17.72-6.16-16.38Q-3.49-15.05-2.11-12.69Q-0.73-10.34-0.73-7.31L-0.73-7.31Q-0.73-4.03-2.11-1.71Q-3.49 0.61-6.16 1.82Q-8.84 3.02-12.70 3.02ZM1.38-17.72L6.56-17.72L15.42-0.59L24.30-17.72L29.44-17.72L17.67 3.66L17.67 16.41L13.15 16.41L13.15 3.66L1.38-17.72ZM54.96 16.41L54.96 16.41L47.84 16.41L47.88 12.73L54.96 12.73Q58.62 12.73 61.05 11.19Q63.49 9.66 64.72 6.88Q65.95 4.10 65.95 0.38L65.95 0.38L65.95-1.71Q65.95-4.64 65.25-6.93Q64.55-9.21 63.19-10.79Q61.83-12.38 59.87-13.20Q57.91-14.02 55.38-14.02L55.38-14.02L47.70-14.02L47.70-17.72L55.38-17.72Q58.73-17.72 61.50-16.61Q64.27-15.49 66.27-13.39Q68.27-11.30 69.35-8.33Q70.43-5.37 70.43-1.66L70.43-1.66L70.43 0.38Q70.43 4.08 69.35 7.04Q68.27 10.01 66.25 12.09Q64.22 14.18 61.37 15.29Q58.52 16.41 54.96 16.41ZM45.73-17.72L50.25-17.72L50.25 16.41L45.73 16.41L45.73-17.72ZM77.55-17.72L82.08-17.72L82.08 16.41L77.55 16.41L77.55-17.72ZM108.47 7.78L108.47 7.78Q108.47 6.59 108.11 5.66Q107.74 4.73 106.84 3.98Q105.94 3.23 104.36 2.55Q102.77 1.88 100.36 1.17L100.36 1.17Q97.83 0.42 95.79-0.50Q93.75-1.43 92.30-2.63Q90.84-3.82 90.07-5.37Q89.30-6.91 89.30-8.91L89.30-8.91Q89.30-10.90 90.12-12.59Q90.94-14.27 92.47-15.53Q94.01-16.78 96.14-17.48Q98.27-18.19 100.90-18.19L100.90-18.19Q104.74-18.19 107.43-16.72Q110.11-15.26 111.52-12.90Q112.92-10.55 112.92-7.88L112.92-7.88L108.42-7.88Q108.42-9.80 107.60-11.29Q106.78-12.77 105.12-13.63Q103.45-14.48 100.90-14.48L100.90-14.48Q98.48-14.48 96.91-13.76Q95.34-13.03 94.58-11.79Q93.82-10.55 93.82-8.95L93.82-8.95Q93.82-7.88 94.28-7.00Q94.73-6.12 95.71-5.37Q96.68-4.62 98.19-3.98Q99.70-3.35 101.81-2.77L101.81-2.77Q104.72-1.95 106.83-0.94Q108.94 0.07 110.31 1.32Q111.68 2.58 112.35 4.16Q113.02 5.74 113.02 7.73L113.02 7.73Q113.02 9.82 112.17 11.51Q111.33 13.20 109.76 14.39Q108.19 15.59 106.00 16.23Q103.80 16.88 101.11 16.88L101.11 16.88Q98.74 16.88 96.46 16.22Q94.17 15.56 92.31 14.25Q90.45 12.94 89.33 11.00Q88.22 9.07 88.22 6.52L88.22 6.52L92.72 6.52Q92.72 8.27 93.40 9.53Q94.08 10.78 95.26 11.60Q96.45 12.42 97.96 12.81Q99.47 13.20 101.11 13.20L101.11 13.20Q103.48 13.20 105.12 12.54Q106.76 11.88 107.61 10.66Q108.47 9.45 108.47 7.78ZM118.78-17.72L123.30-17.72L123.30 16.41L118.78 16.41L118.78-17.72ZM138.47-17.72L143.91-17.72L129.73-1.80L121.76 6.47L121.01 1.64L127.01-4.97L138.47-17.72ZM144.94 16.41L139.55 16.41L126.91-0.23L129.61-3.82L144.94 16.41Z" fill="#ffffff"/></g>
        
        <!-- Líneas de datos con guías -->
        <rect x="84" y="880" width="600" height="24" fill="none" stroke="#00ff00" stroke-width="1"/>
        <line x1="84" y1="880" x2="90" y2="880" stroke="#00ff00" stroke-width="2"/>
        <g transform="translate(84, 880)"><path d="M6.06-8.86L8.29-8.86L8.29 8.20L6.06 8.20L6.06-8.86ZM0.59-8.86L13.77-8.86L13.77-7.01L0.59-7.01L0.59-8.86ZM16.30 8.20L16.30-8.86L21.95-8.86Q23.87-8.86 25.20-8.27Q26.53-7.69 27.23-6.54Q27.93-5.40 27.93-3.74L27.93-3.74Q27.93-2.57 27.45-1.60Q26.98-0.63 26.09 0.04Q25.21 0.71 23.98 1.04L23.98 1.04L23.34 1.29L18.04 1.29L18.01-0.55L22.02-0.55Q23.24-0.55 24.05-0.98Q24.86-1.41 25.27-2.13Q25.68-2.86 25.68-3.74L25.68-3.74Q25.68-4.72 25.29-5.46Q24.90-6.20 24.08-6.60Q23.25-7.01 21.95-7.01L21.95-7.01L18.56-7.01L18.56 8.20L16.30 8.20ZM28.69 8.20L26.27 8.20L22.13 0.47L24.48 0.46L28.69 8.06L28.69 8.20ZM37.44-8.86L37.41-7.35L31.76 8.20L29.45 8.20L35.95-8.86L37.44-8.86ZM44.46 8.20L42.14 8.20L36.48-7.35L36.45-8.86L37.93-8.86L44.46 8.20ZM32.26 1.89L41.85 1.89L41.85 3.74L32.26 3.74L32.26 1.89ZM46.91-8.86L49.17-8.86L49.17 8.20L46.91 8.20L46.91-8.86ZM57.35-8.86L59.58-8.86L59.58 8.20L57.35 8.20L57.35-8.86ZM51.88-8.86L65.06-8.86L65.06-7.01L51.88-7.01L51.88-8.86ZM67.17 7.05L67.17 7.05Q67.17 6.50 67.52 6.12Q67.86 5.74 68.52 5.74L68.52 5.74Q69.18 5.74 69.52 6.12Q69.87 6.50 69.87 7.05L69.87 7.05Q69.87 7.59 69.52 7.97Q69.18 8.34 68.52 8.34L68.52 8.34Q67.86 8.34 67.52 7.97Q67.17 7.59 67.17 7.05ZM67.18-3.29L67.18-3.29Q67.18-3.84 67.53-4.22Q67.88-4.61 68.53-4.61L68.53-4.61Q69.19-4.61 69.53-4.22Q69.88-3.84 69.88-3.29L69.88-3.29Q69.88-2.75 69.53-2.38Q69.19-2.00 68.53-2.00L68.53-2.00Q67.88-2.00 67.53-2.38Q67.18-2.75 67.18-3.29ZM86.25-0.33L85.44 0.22L81.12 0.22L81.09-1.59L85.02-1.59Q85.99-1.59 86.72-1.92Q87.45-2.25 87.85-2.87Q88.25-3.48 88.25-4.34L88.25-4.34Q88.25-5.27 87.90-5.87Q87.54-6.46 86.81-6.73Q86.07-7.01 84.95-7.01L84.95-7.01L81.62-7.01L81.62 8.20L79.36 8.20L79.36-8.86L84.95-8.86Q86.26-8.86 87.29-8.60Q88.32-8.33 89.04-7.78Q89.77-7.22 90.14-6.36Q90.52-5.51 90.52-4.31L90.52-4.31Q90.52-3.26 89.98-2.41Q89.44-1.56 88.48-1.02Q87.53-0.48 86.25-0.33L86.25-0.33ZM85.34 8.20L85.34 8.20L80.23 8.20L81.50 6.36L85.34 6.36Q86.41 6.36 87.17 5.99Q87.93 5.61 88.32 4.93Q88.72 4.24 88.72 3.30L88.72 3.30Q88.72 2.36 88.38 1.66Q88.04 0.97 87.32 0.60Q86.59 0.22 85.44 0.22L85.44 0.22L82.22 0.22L82.24-1.59L86.65-1.59L87.13-0.94Q88.36-0.83 89.21-0.24Q90.07 0.35 90.52 1.27Q90.97 2.18 90.97 3.28L90.97 3.28Q90.97 4.88 90.28 5.97Q89.58 7.07 88.31 7.63Q87.05 8.20 85.34 8.20ZM107.45-0.87L107.45-0.87L107.45 0.21Q107.45 2.13 106.97 3.66Q106.49 5.18 105.59 6.25Q104.68 7.31 103.42 7.88Q102.16 8.44 100.61 8.44L100.61 8.44Q99.09 8.44 97.83 7.88Q96.57 7.31 95.65 6.25Q94.73 5.18 94.23 3.66Q93.73 2.13 93.73 0.21L93.73 0.21L93.73-0.87Q93.73-2.79 94.22-4.31Q94.72-5.82 95.64-6.90Q96.55-7.97 97.81-8.53Q99.07-9.09 100.58-9.09L100.58-9.09Q102.14-9.09 103.40-8.53Q104.66-7.97 105.57-6.90Q106.48-5.82 106.96-4.31Q107.45-2.79 107.45-0.87ZM105.21 0.21L105.21 0.21L105.21-0.89Q105.21-2.41 104.90-3.59Q104.59-4.76 103.99-5.55Q103.39-6.35 102.53-6.76Q101.67-7.17 100.58-7.17L100.58-7.17Q99.53-7.17 98.68-6.76Q97.83-6.35 97.22-5.55Q96.62-4.76 96.29-3.59Q95.96-2.41 95.96-0.89L95.96-0.89L95.96 0.21Q95.96 1.75 96.29 2.92Q96.62 4.10 97.24 4.90Q97.85 5.71 98.70 6.12Q99.55 6.53 100.61 6.53L100.61 6.53Q101.71 6.53 102.56 6.12Q103.42 5.71 104.01 4.90Q104.60 4.10 104.91 2.92Q105.21 1.75 105.21 0.21ZM115.44 8.20L115.44 8.20L111.88 8.20L111.90 6.36L115.44 6.36Q117.27 6.36 118.49 5.60Q119.71 4.83 120.32 3.44Q120.94 2.05 120.94 0.19L120.94 0.19L120.94-0.86Q120.94-2.32 120.59-3.46Q120.23-4.61 119.55-5.40Q118.88-6.19 117.90-6.60Q116.92-7.01 115.65-7.01L115.65-7.01L111.81-7.01L111.81-8.86L115.65-8.86Q117.33-8.86 118.71-8.30Q120.09-7.75 121.10-6.70Q122.10-5.65 122.64-4.17Q123.18-2.68 123.18-0.83L123.18-0.83L123.18 0.19Q123.18 2.04 122.64 3.52Q122.10 5.00 121.08 6.05Q120.07 7.09 118.65 7.65Q117.22 8.20 115.44 8.20ZM110.82-8.86L113.09-8.86L113.09 8.20L110.82 8.20L110.82-8.86ZM124.77-8.86L127.36-8.86L131.79-0.29L136.23-8.86L138.80-8.86L132.91 1.83L132.91 8.20L130.65 8.20L130.65 1.83L124.77-8.86Z" fill="#333333"/></g>
        
        <rect x="84" y="915" width="600" height="24" fill="none" stroke="#00ff00" stroke-width="1"/>
        <line x1="84" y1="915" x2="90" y2="915" stroke="#00ff00" stroke-width="2"/>
        <g transform="translate(84, 915)"><path d="M11.07 3.89L11.07 3.89Q11.07 3.29 10.89 2.83Q10.71 2.37 10.26 1.99Q9.81 1.62 9.02 1.28Q8.23 0.94 7.02 0.59L7.02 0.59Q5.75 0.21 4.73-0.25Q3.71-0.71 2.99-1.31Q2.26-1.91 1.88-2.68Q1.49-3.46 1.49-4.45L1.49-4.45Q1.49-5.45 1.90-6.29Q2.31-7.14 3.08-7.76Q3.84-8.39 4.91-8.74Q5.98-9.09 7.29-9.09L7.29-9.09Q9.21-9.09 10.55-8.36Q11.89-7.63 12.60-6.45Q13.30-5.27 13.30-3.94L13.30-3.94L11.05-3.94Q11.05-4.90 10.64-5.64Q10.23-6.39 9.40-6.81Q8.57-7.24 7.29-7.24L7.29-7.24Q6.08-7.24 5.30-6.88Q4.51-6.52 4.13-5.89Q3.75-5.27 3.75-4.48L3.75-4.48Q3.75-3.94 3.98-3.50Q4.21-3.06 4.69-2.68Q5.18-2.31 5.94-1.99Q6.69-1.68 7.75-1.38L7.75-1.38Q9.20-0.97 10.25-0.47Q11.31 0.04 11.99 0.66Q12.68 1.29 13.01 2.08Q13.35 2.87 13.35 3.87L13.35 3.87Q13.35 4.91 12.93 5.75Q12.50 6.60 11.72 7.20Q10.93 7.79 9.84 8.12Q8.74 8.44 7.39 8.44L7.39 8.44Q6.21 8.44 5.07 8.11Q3.93 7.78 2.99 7.13Q2.06 6.47 1.51 5.50Q0.95 4.54 0.95 3.26L0.95 3.26L3.20 3.26Q3.20 4.14 3.54 4.76Q3.88 5.39 4.47 5.80Q5.06 6.21 5.82 6.40Q6.57 6.60 7.39 6.60L7.39 6.60Q8.58 6.60 9.40 6.27Q10.22 5.94 10.65 5.33Q11.07 4.72 11.07 3.89ZM18.04 6.36L27.07 6.36L27.07 8.20L18.04 8.20L18.04 6.36ZM16.23-8.86L18.49-8.86L18.49 8.20L16.23 8.20L16.23-8.86ZM18.04-1.52L25.88-1.52L25.88 0.32L18.04 0.32L18.04-1.52ZM18.04-8.86L26.95-8.86L26.95-7.01L18.04-7.01L18.04-8.86ZM29.87 8.20L29.87-8.86L35.52-8.86Q37.44-8.86 38.77-8.27Q40.10-7.69 40.80-6.54Q41.50-5.40 41.50-3.74L41.50-3.74Q41.50-2.57 41.02-1.60Q40.55-0.63 39.66 0.04Q38.78 0.71 37.55 1.04L37.55 1.04L36.91 1.29L31.61 1.29L31.58-0.55L35.59-0.55Q36.81-0.55 37.62-0.98Q38.43-1.41 38.84-2.13Q39.25-2.86 39.25-3.74L39.25-3.74Q39.25-4.72 38.86-5.46Q38.47-6.20 37.65-6.60Q36.82-7.01 35.52-7.01L35.52-7.01L32.13-7.01L32.13 8.20L29.87 8.20ZM42.26 8.20L39.84 8.20L35.70 0.47L38.05 0.46L42.26 8.06L42.26 8.20ZM44.82-8.86L47.09-8.86L47.09 8.20L44.82 8.20L44.82-8.86ZM52.99 6.36L62.03 6.36L62.03 8.20L52.99 8.20L52.99 6.36ZM51.19-8.86L53.45-8.86L53.45 8.20L51.19 8.20L51.19-8.86ZM52.99-1.52L60.83-1.52L60.83 0.32L52.99 0.32L52.99-1.52ZM52.99-8.86L61.91-8.86L61.91-7.01L52.99-7.01L52.99-8.86ZM73.92 3.89L73.92 3.89Q73.92 3.29 73.74 2.83Q73.56 2.37 73.11 1.99Q72.66 1.62 71.87 1.28Q71.07 0.94 69.87 0.59L69.87 0.59Q68.60 0.21 67.58-0.25Q66.56-0.71 65.84-1.31Q65.11-1.91 64.72-2.68Q64.34-3.46 64.34-4.45L64.34-4.45Q64.34-5.45 64.75-6.29Q65.16-7.14 65.92-7.76Q66.69-8.39 67.76-8.74Q68.82-9.09 70.14-9.09L70.14-9.09Q72.06-9.09 73.40-8.36Q74.74-7.63 75.45-6.45Q76.15-5.27 76.15-3.94L76.15-3.94L73.90-3.94Q73.90-4.90 73.49-5.64Q73.08-6.39 72.25-6.81Q71.41-7.24 70.14-7.24L70.14-7.24Q68.93-7.24 68.14-6.88Q67.36-6.52 66.98-5.89Q66.60-5.27 66.60-4.48L66.60-4.48Q66.60-3.94 66.83-3.50Q67.05-3.06 67.54-2.68Q68.03-2.31 68.78-1.99Q69.54-1.68 70.59-1.38L70.59-1.38Q72.05-0.97 73.10-0.47Q74.16 0.04 74.84 0.66Q75.53 1.29 75.86 2.08Q76.20 2.87 76.20 3.87L76.20 3.87Q76.20 4.91 75.77 5.75Q75.35 6.60 74.57 7.20Q73.78 7.79 72.69 8.12Q71.59 8.44 70.24 8.44L70.24 8.44Q69.06 8.44 67.92 8.11Q66.77 7.78 65.84 7.13Q64.91 6.47 64.35 5.50Q63.80 4.54 63.80 3.26L63.80 3.26L66.05 3.26Q66.05 4.14 66.39 4.76Q66.73 5.39 67.32 5.80Q67.91 6.21 68.67 6.40Q69.42 6.60 70.24 6.60L70.24 6.60Q71.43 6.60 72.25 6.27Q73.07 5.94 73.49 5.33Q73.92 4.72 73.92 3.89ZM78.66 7.05L78.66 7.05Q78.66 6.50 79.00 6.12Q79.35 5.74 80.00 5.74L80.00 5.74Q80.66 5.74 81.01 6.12Q81.35 6.50 81.35 7.05L81.35 7.05Q81.35 7.59 81.01 7.97Q80.66 8.34 80.00 8.34L80.00 8.34Q79.35 8.34 79.00 7.97Q78.66 7.59 78.66 7.05ZM78.67-3.29L78.67-3.29Q78.67-3.84 79.01-4.22Q79.36-4.61 80.02-4.61L80.02-4.61Q80.67-4.61 81.02-4.22Q81.36-3.84 81.36-3.29L81.36-3.29Q81.36-2.75 81.02-2.38Q80.67-2.00 80.02-2.00L80.02-2.00Q79.36-2.00 79.01-2.38Q78.67-2.75 78.67-3.29ZM97.07-8.95L97.41-8.95L97.41 8.20L95.24 8.20L95.24-6.25L90.87-4.65L90.87-6.61L97.07-8.95Z" fill="#333333"/></g>
        
        <rect x="84" y="950" width="600" height="24" fill="none" stroke="#00ff00" stroke-width="1"/>
        <line x1="84" y1="950" x2="90" y2="950" stroke="#00ff00" stroke-width="2"/>
        <g transform="translate(84, 950)"><path d="M12.28 2.78L12.28 2.78L14.53 2.78Q14.36 4.39 13.61 5.67Q12.86 6.95 11.48 7.69Q10.11 8.44 8.06 8.44L8.06 8.44Q6.56 8.44 5.34 7.88Q4.11 7.31 3.23 6.28Q2.36 5.24 1.88 3.78Q1.41 2.32 1.41 0.53L1.41 0.53L1.41-1.17Q1.41-2.96 1.88-4.42Q2.36-5.88 3.25-6.93Q4.15-7.97 5.41-8.53Q6.68-9.09 8.26-9.09L8.26-9.09Q10.20-9.09 11.53-8.37Q12.87-7.64 13.61-6.36Q14.36-5.07 14.53-3.39L14.53-3.39L12.28-3.39Q12.12-4.58 11.67-5.44Q11.23-6.30 10.41-6.77Q9.59-7.24 8.26-7.24L8.26-7.24Q7.13-7.24 6.26-6.81Q5.40-6.38 4.82-5.58Q4.24-4.78 3.95-3.67Q3.66-2.55 3.66-1.20L3.66-1.20L3.66 0.53Q3.66 1.78 3.92 2.88Q4.18 3.98 4.72 4.82Q5.26 5.65 6.09 6.12Q6.93 6.60 8.06 6.60L8.06 6.60Q9.50 6.60 10.36 6.14Q11.21 5.68 11.65 4.83Q12.09 3.97 12.28 2.78ZM23.95-8.86L23.92-7.35L18.27 8.20L15.96 8.20L22.46-8.86L23.95-8.86ZM30.97 8.20L28.65 8.20L22.99-7.35L22.96-8.86L24.45-8.86L30.97 8.20ZM18.77 1.89L28.36 1.89L28.36 3.74L18.77 3.74L18.77 1.89ZM37.34-8.86L39.56-8.86L39.56 8.20L37.34 8.20L37.34-8.86ZM31.86-8.86L45.05-8.86L45.05-7.01L31.86-7.01L31.86-8.86ZM49.38 6.36L58.42 6.36L58.42 8.20L49.38 8.20L49.38 6.36ZM47.58-8.86L49.84-8.86L49.84 8.20L47.58 8.20L47.58-8.86ZM49.38-1.52L57.22-1.52L57.22 0.32L49.38 0.32L49.38-1.52ZM49.38-8.86L58.30-8.86L58.30-7.01L49.38-7.01L49.38-8.86ZM67.63-0.29L73.83-0.29L73.83 5.95Q73.51 6.42 72.82 7.00Q72.13 7.58 70.92 8.01Q69.70 8.44 67.79 8.44L67.79 8.44Q66.23 8.44 64.93 7.89Q63.62 7.35 62.67 6.30Q61.71 5.25 61.19 3.74Q60.67 2.24 60.67 0.33L60.67 0.33L60.67-1.00Q60.67-2.91 61.12-4.41Q61.57-5.91 62.45-6.96Q63.33-8.00 64.61-8.55Q65.88-9.09 67.54-9.09L67.54-9.09Q69.49-9.09 70.81-8.42Q72.13-7.75 72.87-6.56Q73.62-5.38 73.83-3.87L73.83-3.87L71.57-3.87Q71.41-4.79 70.96-5.55Q70.51-6.32 69.68-6.78Q68.85-7.24 67.54-7.24L67.54-7.24Q66.35-7.24 65.48-6.81Q64.62-6.38 64.05-5.57Q63.49-4.76 63.22-3.61Q62.94-2.46 62.94-1.02L62.94-1.02L62.94 0.33Q62.94 1.80 63.29 2.96Q63.63 4.13 64.28 4.94Q64.92 5.75 65.82 6.18Q66.71 6.60 67.80 6.60L67.80 6.60Q69.01 6.60 69.76 6.39Q70.51 6.19 70.93 5.90Q71.36 5.61 71.58 5.36L71.58 5.36L71.58 1.54L67.63 1.54L67.63-0.29ZM90.70-0.87L90.70-0.87L90.70 0.21Q90.70 2.13 90.22 3.66Q89.74 5.18 88.84 6.25Q87.94 7.31 86.68 7.88Q85.42 8.44 83.86 8.44L83.86 8.44Q82.35 8.44 81.09 7.88Q79.83 7.31 78.91 6.25Q77.99 5.18 77.48 3.66Q76.98 2.13 76.98 0.21L76.98 0.21L76.98-0.87Q76.98-2.79 77.48-4.31Q77.98-5.82 78.89-6.90Q79.80-7.97 81.06-8.53Q82.32-9.09 83.84-9.09L83.84-9.09Q85.39-9.09 86.65-8.53Q87.91-7.97 88.82-6.90Q89.73-5.82 90.22-4.31Q90.70-2.79 90.70-0.87ZM88.46 0.21L88.46 0.21L88.46-0.89Q88.46-2.41 88.15-3.59Q87.84-4.76 87.25-5.55Q86.65-6.35 85.79-6.76Q84.93-7.17 83.84-7.17L83.84-7.17Q82.78-7.17 81.93-6.76Q81.08-6.35 80.48-5.55Q79.88-4.76 79.55-3.59Q79.22-2.41 79.22-0.89L79.22-0.89L79.22 0.21Q79.22 1.75 79.55 2.92Q79.88 4.10 80.49 4.90Q81.11 5.71 81.96 6.12Q82.80 6.53 83.86 6.53L83.86 6.53Q84.96 6.53 85.82 6.12Q86.67 5.71 87.26 4.90Q87.86 4.10 88.16 2.92Q88.46 1.75 88.46 0.21ZM94.08 8.20L94.08-8.86L99.73-8.86Q101.65-8.86 102.98-8.27Q104.31-7.69 105.01-6.54Q105.70-5.40 105.70-3.74L105.70-3.74Q105.70-2.57 105.23-1.60Q104.75-0.63 103.87 0.04Q102.98 0.71 101.75 1.04L101.75 1.04L101.12 1.29L95.81 1.29L95.79-0.55L99.80-0.55Q101.02-0.55 101.82-0.98Q102.63-1.41 103.04-2.13Q103.45-2.86 103.45-3.74L103.45-3.74Q103.45-4.72 103.07-5.46Q102.68-6.20 101.85-6.60Q101.03-7.01 99.73-7.01L99.73-7.01L96.34-7.01L96.34 8.20L94.08 8.20ZM106.46 8.20L104.05 8.20L99.90 0.47L102.26 0.46L106.46 8.06L106.46 8.20ZM107.06-8.86L109.65-8.86L114.08-0.29L118.52-8.86L121.09-8.86L115.21 1.83L115.21 8.20L112.95 8.20L112.95 1.83L107.06-8.86ZM122.86 7.05L122.86 7.05Q122.86 6.50 123.21 6.12Q123.55 5.74 124.21 5.74L124.21 5.74Q124.86 5.74 125.21 6.12Q125.55 6.50 125.55 7.05L125.55 7.05Q125.55 7.59 125.21 7.97Q124.86 8.34 124.21 8.34L124.21 8.34Q123.55 8.34 123.21 7.97Q122.86 7.59 122.86 7.05ZM122.87-3.29L122.87-3.29Q122.87-3.84 123.22-4.22Q123.56-4.61 124.22-4.61L124.22-4.61Q124.88-4.61 125.22-4.22Q125.57-3.84 125.57-3.29L125.57-3.29Q125.57-2.75 125.22-2.38Q124.88-2.00 124.22-2.00L124.22-2.00Q123.56-2.00 123.22-2.38Q122.87-2.75 122.87-3.29ZM141.94-0.33L141.13 0.22L136.80 0.22L136.78-1.59L140.71-1.59Q141.68-1.59 142.41-1.92Q143.13-2.25 143.54-2.87Q143.94-3.48 143.94-4.34L143.94-4.34Q143.94-5.27 143.58-5.87Q143.23-6.46 142.49-6.73Q141.76-7.01 140.64-7.01L140.64-7.01L137.31-7.01L137.31 8.20L135.05 8.20L135.05-8.86L140.64-8.86Q141.95-8.86 142.98-8.60Q144.01-8.33 144.73-7.78Q145.45-7.22 145.83-6.36Q146.20-5.51 146.20-4.31L146.20-4.31Q146.20-3.26 145.66-2.41Q145.13-1.56 144.17-1.02Q143.21-0.48 141.94-0.33L141.94-0.33ZM141.02 8.20L141.02 8.20L135.91 8.20L137.19 6.36L141.02 6.36Q142.10 6.36 142.86 5.99Q143.61 5.61 144.01 4.93Q144.41 4.24 144.41 3.30L144.41 3.30Q144.41 2.36 144.07 1.66Q143.73 0.97 143.00 0.60Q142.28 0.22 141.13 0.22L141.13 0.22L137.91 0.22L137.93-1.59L142.34-1.59L142.82-0.94Q144.05-0.83 144.90-0.24Q145.76 0.35 146.21 1.27Q146.66 2.18 146.66 3.28L146.66 3.28Q146.66 4.88 145.96 5.97Q145.27 7.07 144 7.63Q142.73 8.20 141.02 8.20ZM156.35-8.86L156.32-7.35L150.67 8.20L148.36 8.20L154.86-8.86L156.35-8.86ZM163.37 8.20L161.05 8.20L155.39-7.35L155.36-8.86L156.84-8.86L163.37 8.20ZM151.17 1.89L160.76 1.89L160.76 3.74L151.17 3.74L151.17 1.89ZM174.75 3.89L174.75 3.89Q174.75 3.29 174.57 2.83Q174.39 2.37 173.94 1.99Q173.48 1.62 172.69 1.28Q171.90 0.94 170.70 0.59L170.70 0.59Q169.43 0.21 168.41-0.25Q167.39-0.71 166.66-1.31Q165.94-1.91 165.55-2.68Q165.16-3.46 165.16-4.45L165.16-4.45Q165.16-5.45 165.57-6.29Q165.98-7.14 166.75-7.76Q167.52-8.39 168.59-8.74Q169.65-9.09 170.96-9.09L170.96-9.09Q172.89-9.09 174.23-8.36Q175.57-7.63 176.27-6.45Q176.98-5.27 176.98-3.94L176.98-3.94L174.73-3.94Q174.73-4.90 174.32-5.64Q173.91-6.39 173.07-6.81Q172.24-7.24 170.96-7.24L170.96-7.24Q169.76-7.24 168.97-6.88Q168.19-6.52 167.81-5.89Q167.43-5.27 167.43-4.48L167.43-4.48Q167.43-3.94 167.65-3.50Q167.88-3.06 168.37-2.68Q168.86-2.31 169.61-1.99Q170.37-1.68 171.42-1.38L171.42-1.38Q172.88-0.97 173.93-0.47Q174.98 0.04 175.67 0.66Q176.36 1.29 176.69 2.08Q177.02 2.87 177.02 3.87L177.02 3.87Q177.02 4.91 176.60 5.75Q176.18 6.60 175.39 7.20Q174.61 7.79 173.51 8.12Q172.42 8.44 171.07 8.44L171.07 8.44Q169.89 8.44 168.74 8.11Q167.60 7.78 166.67 7.13Q165.74 6.47 165.18 5.50Q164.63 4.54 164.63 3.26L164.63 3.26L166.88 3.26Q166.88 4.14 167.21 4.76Q167.55 5.39 168.15 5.80Q168.74 6.21 169.49 6.40Q170.25 6.60 171.07 6.60L171.07 6.60Q172.25 6.60 173.07 6.27Q173.89 5.94 174.32 5.33Q174.75 4.72 174.75 3.89ZM181.71 6.36L190.75 6.36L190.75 8.20L181.71 8.20L181.71 6.36ZM179.91-8.86L182.17-8.86L182.17 8.20L179.91 8.20L179.91-8.86ZM181.71-1.52L189.55-1.52L189.55 0.32L181.71 0.32L181.71-1.52ZM181.71-8.86L190.63-8.86L190.63-7.01L181.71-7.01L181.71-8.86Z" fill="#333333"/></g>
        
        <rect x="84" y="985" width="600" height="24" fill="none" stroke="#00ff00" stroke-width="1"/>
        <line x1="84" y1="985" x2="90" y2="985" stroke="#00ff00" stroke-width="2"/>
        <g transform="translate(84, 985)"><path d="M1.98 8.20L1.98-8.86L7.63-8.86Q9.55-8.86 10.88-8.27Q12.21-7.69 12.91-6.54Q13.61-5.40 13.61-3.74L13.61-3.74Q13.61-2.57 13.13-1.60Q12.66-0.63 11.77 0.04Q10.89 0.71 9.66 1.04L9.66 1.04L9.02 1.29L3.71 1.29L3.69-0.55L7.70-0.55Q8.92-0.55 9.73-0.98Q10.54-1.41 10.95-2.13Q11.36-2.86 11.36-3.74L11.36-3.74Q11.36-4.72 10.97-5.46Q10.58-6.20 9.76-6.60Q8.93-7.01 7.63-7.01L7.63-7.01L4.24-7.01L4.24 8.20L1.98 8.20ZM14.37 8.20L11.95 8.20L7.80 0.47L10.16 0.46L14.37 8.06L14.37 8.20ZM18.57 6.36L27.61 6.36L27.61 8.20L18.57 8.20L18.57 6.36ZM16.77-8.86L19.03-8.86L19.03 8.20L16.77 8.20L16.77-8.86ZM18.57-1.52L26.41-1.52L26.41 0.32L18.57 0.32L18.57-1.52ZM18.57-8.86L27.49-8.86L27.49-7.01L18.57-7.01L18.57-8.86ZM37.71 7.70L39.16 6.25L43.50 9.68L41.98 11.09L37.71 7.70ZM43.44-0.87L43.44-0.87L43.44 0.21Q43.44 2.13 42.96 3.66Q42.48 5.18 41.58 6.25Q40.68 7.31 39.42 7.88Q38.16 8.44 36.60 8.44L36.60 8.44Q35.09 8.44 33.83 7.88Q32.57 7.31 31.65 6.25Q30.73 5.18 30.22 3.66Q29.72 2.13 29.72 0.21L29.72 0.21L29.72-0.87Q29.72-2.79 30.22-4.31Q30.71-5.82 31.63-6.90Q32.54-7.97 33.80-8.53Q35.06-9.09 36.57-9.09L36.57-9.09Q38.13-9.09 39.40-8.53Q40.66-7.97 41.57-6.90Q42.47-5.82 42.96-4.31Q43.44-2.79 43.44-0.87ZM41.20 0.21L41.20 0.21L41.20-0.89Q41.20-2.41 40.89-3.59Q40.58-4.76 39.98-5.55Q39.39-6.35 38.53-6.76Q37.68-7.17 36.57-7.17L36.57-7.17Q35.53-7.17 34.68-6.76Q33.83-6.35 33.22-5.55Q32.61-4.76 32.29-3.59Q31.96-2.41 31.96-0.89L31.96-0.89L31.96 0.21Q31.96 1.75 32.29 2.92Q32.61 4.10 33.23 4.90Q33.84 5.71 34.70 6.12Q35.55 6.53 36.60 6.53L36.60 6.53Q37.70 6.53 38.55 6.12Q39.41 5.71 40.00 4.90Q40.59 4.10 40.90 2.92Q41.20 1.75 41.20 0.21ZM56.68 2.68L56.68-8.86L58.93-8.86L58.93 2.68Q58.93 4.61 58.08 5.88Q57.22 7.16 55.81 7.80Q54.40 8.44 52.75 8.44L52.75 8.44Q51.01 8.44 49.61 7.80Q48.21 7.16 47.40 5.88Q46.58 4.61 46.58 2.68L46.58 2.68L46.58-8.86L48.82-8.86L48.82 2.68Q48.82 4.02 49.31 4.89Q49.80 5.75 50.69 6.18Q51.57 6.60 52.75 6.60L52.75 6.60Q53.93 6.60 54.81 6.18Q55.70 5.75 56.19 4.89Q56.68 4.02 56.68 2.68L56.68 2.68ZM62.65-8.86L64.91-8.86L64.91 8.20L62.65 8.20L62.65-8.86ZM69.01 8.20L69.01-8.86L74.66-8.86Q76.58-8.86 77.91-8.27Q79.24-7.69 79.94-6.54Q80.64-5.40 80.64-3.74L80.64-3.74Q80.64-2.57 80.16-1.60Q79.69-0.63 78.80 0.04Q77.92 0.71 76.69 1.04L76.69 1.04L76.05 1.29L70.75 1.29L70.72-0.55L74.73-0.55Q75.95-0.55 76.76-0.98Q77.57-1.41 77.98-2.13Q78.39-2.86 78.39-3.74L78.39-3.74Q78.39-4.72 78-5.46Q77.61-6.20 76.79-6.60Q75.96-7.01 74.66-7.01L74.66-7.01L71.27-7.01L71.27 8.20L69.01 8.20ZM81.40 8.20L78.98 8.20L74.84 0.47L77.19 0.46L81.40 8.06L81.40 8.20ZM85.61 6.36L94.64 6.36L94.64 8.20L85.61 8.20L85.61 6.36ZM83.80-8.86L86.06-8.86L86.06 8.20L83.80 8.20L83.80-8.86ZM85.61-1.52L93.45-1.52L93.45 0.32L85.61 0.32L85.61-1.52ZM85.61-8.86L94.52-8.86L94.52-7.01L85.61-7.01L85.61-8.86ZM102.06 8.20L102.06 8.20L98.50 8.20L98.52 6.36L102.06 6.36Q103.89 6.36 105.11 5.60Q106.32 4.83 106.94 3.44Q107.55 2.05 107.55 0.19L107.55 0.19L107.55-0.86Q107.55-2.32 107.20-3.46Q106.85-4.61 106.17-5.40Q105.49-6.19 104.51-6.60Q103.54-7.01 102.27-7.01L102.27-7.01L98.43-7.01L98.43-8.86L102.27-8.86Q103.95-8.86 105.33-8.30Q106.71-7.75 107.71-6.70Q108.71-5.65 109.25-4.17Q109.79-2.68 109.79-0.83L109.79-0.83L109.79 0.19Q109.79 2.04 109.25 3.52Q108.71 5.00 107.70 6.05Q106.69 7.09 105.26 7.65Q103.84 8.20 102.06 8.20ZM97.44-8.86L99.70-8.86L99.70 8.20L97.44 8.20L97.44-8.86ZM112.77 7.05L112.77 7.05Q112.77 6.50 113.12 6.12Q113.46 5.74 114.12 5.74L114.12 5.74Q114.77 5.74 115.12 6.12Q115.46 6.50 115.46 7.05L115.46 7.05Q115.46 7.59 115.12 7.97Q114.77 8.34 114.12 8.34L114.12 8.34Q113.46 8.34 113.12 7.97Q112.77 7.59 112.77 7.05ZM112.78-3.29L112.78-3.29Q112.78-3.84 113.13-4.22Q113.47-4.61 114.13-4.61L114.13-4.61Q114.79-4.61 115.13-4.22Q115.48-3.84 115.48-3.29L115.48-3.29Q115.48-2.75 115.13-2.38Q114.79-2.00 114.13-2.00L114.13-2.00Q113.47-2.00 113.13-2.38Q112.78-2.75 112.78-3.29ZM135.84-8.86L138.08-8.86L138.08 8.20L135.81 8.20L127.22-4.96L127.22 8.20L124.96 8.20L124.96-8.86L127.22-8.86L135.84 4.34L135.84-8.86ZM155.21-0.87L155.21-0.87L155.21 0.21Q155.21 2.13 154.73 3.66Q154.25 5.18 153.35 6.25Q152.45 7.31 151.19 7.88Q149.93 8.44 148.37 8.44L148.37 8.44Q146.86 8.44 145.60 7.88Q144.34 7.31 143.42 6.25Q142.50 5.18 142.00 3.66Q141.49 2.13 141.49 0.21L141.49 0.21L141.49-0.87Q141.49-2.79 141.99-4.31Q142.49-5.82 143.40-6.90Q144.32-7.97 145.58-8.53Q146.84-9.09 148.35-9.09L148.35-9.09Q149.91-9.09 151.17-8.53Q152.43-7.97 153.33-6.90Q154.24-5.82 154.73-4.31Q155.21-2.79 155.21-0.87ZM152.98 0.21L152.98 0.21L152.98-0.89Q152.98-2.41 152.67-3.59Q152.36-4.76 151.76-5.55Q151.16-6.35 150.30-6.76Q149.44-7.17 148.35-7.17L148.35-7.17Q147.29-7.17 146.44-6.76Q145.59-6.35 144.99-5.55Q144.39-4.76 144.06-3.59Q143.73-2.41 143.73-0.89L143.73-0.89L143.73 0.21Q143.73 1.75 144.06 2.92Q144.39 4.10 145.00 4.90Q145.62 5.71 146.47 6.12Q147.32 6.53 148.37 6.53L148.37 6.53Q149.47 6.53 150.33 6.12Q151.18 5.71 151.78 4.90Q152.37 4.10 152.67 2.92Q152.98 1.75 152.98 0.21ZM169.48-8.86L171.71-8.86L171.71 8.20L169.44 8.20L160.85-4.96L160.85 8.20L158.59 8.20L158.59-8.86L160.85-8.86L169.48 4.34L169.48-8.86ZM177.52 6.36L186.55 6.36L186.55 8.20L177.52 8.20L177.52 6.36ZM175.71-8.86L177.97-8.86L177.97 8.20L175.71 8.20L175.71-8.86ZM177.52-1.52L185.36-1.52L185.36 0.32L177.52 0.32L177.52-1.52ZM177.52-8.86L186.43-8.86L186.43-7.01L177.52-7.01L177.52-8.86Z" fill="#333333"/></g>
        
        <!-- Origin con guías -->
        <line x1="684" y1="985" x2="690" y2="985" stroke="#0000ff" stroke-width="2"/>
        <g transform="translate(684, 985)"><path d="M-91.29-0.87L-91.29-0.87L-91.29 0.21Q-91.29 2.13-91.77 3.66Q-92.25 5.18-93.15 6.25Q-94.05 7.31-95.31 7.88Q-96.57 8.44-98.13 8.44L-98.13 8.44Q-99.64 8.44-100.90 7.88Q-102.16 7.31-103.08 6.25Q-104.00 5.18-104.51 3.66Q-105.01 2.13-105.01 0.21L-105.01 0.21L-105.01-0.87Q-105.01-2.79-104.51-4.31Q-104.02-5.82-103.10-6.90Q-102.19-7.97-100.93-8.53Q-99.67-9.09-98.16-9.09L-98.16-9.09Q-96.60-9.09-95.34-8.53Q-94.08-7.97-93.17-6.90Q-92.26-5.82-91.78-4.31Q-91.29-2.79-91.29-0.87ZM-93.53 0.21L-93.53 0.21L-93.53-0.89Q-93.53-2.41-93.84-3.59Q-94.15-4.76-94.75-5.55Q-95.34-6.35-96.21-6.76Q-97.07-7.17-98.16-7.17L-98.16-7.17Q-99.21-7.17-100.06-6.76Q-100.91-6.35-101.51-5.55Q-102.12-4.76-102.45-3.59Q-102.77-2.41-102.77-0.89L-102.77-0.89L-102.77 0.21Q-102.77 1.75-102.45 2.92Q-102.12 4.10-101.50 4.90Q-100.89 5.71-100.04 6.12Q-99.19 6.53-98.13 6.53L-98.13 6.53Q-97.03 6.53-96.18 6.12Q-95.32 5.71-94.73 4.90Q-94.14 4.10-93.83 2.92Q-93.53 1.75-93.53 0.21ZM-87.91 8.20L-87.91-8.86L-82.27-8.86Q-80.34-8.86-79.01-8.27Q-77.68-7.69-76.99-6.54Q-76.29-5.40-76.29-3.74L-76.29-3.74Q-76.29-2.57-76.76-1.60Q-77.24-0.63-78.12 0.04Q-79.01 0.71-80.24 1.04L-80.24 1.04L-80.87 1.29L-86.18 1.29L-86.20-0.55L-82.20-0.55Q-80.98-0.55-80.17-0.98Q-79.36-1.41-78.95-2.13Q-78.54-2.86-78.54-3.74L-78.54-3.74Q-78.54-4.72-78.93-5.46Q-79.31-6.20-80.14-6.60Q-80.96-7.01-82.27-7.01L-82.27-7.01L-85.65-7.01L-85.65 8.20L-87.91 8.20ZM-75.53 8.20L-77.94 8.20L-82.09 0.47L-79.73 0.46L-75.53 8.06L-75.53 8.20ZM-72.96-8.86L-70.70-8.86L-70.70 8.20L-72.96 8.20L-72.96-8.86ZM-60.19-0.29L-53.99-0.29L-53.99 5.95Q-54.30 6.42-55.00 7.00Q-55.69 7.58-56.90 8.01Q-58.11 8.44-60.02 8.44L-60.02 8.44Q-61.58 8.44-62.89 7.89Q-64.20 7.35-65.15 6.30Q-66.11 5.25-66.63 3.74Q-67.15 2.24-67.15 0.33L-67.15 0.33L-67.15-1.00Q-67.15-2.91-66.70-4.41Q-66.25-5.91-65.37-6.96Q-64.49-8.00-63.21-8.55Q-61.93-9.09-60.28-9.09L-60.28-9.09Q-58.32-9.09-57.01-8.42Q-55.69-7.75-54.94-6.56Q-54.20-5.38-53.99-3.87L-53.99-3.87L-56.25-3.87Q-56.40-4.79-56.85-5.55Q-57.30-6.32-58.14-6.78Q-58.97-7.24-60.28-7.24L-60.28-7.24Q-61.46-7.24-62.33-6.81Q-63.20-6.38-63.76-5.57Q-64.32-4.76-64.60-3.61Q-64.88-2.46-64.88-1.02L-64.88-1.02L-64.88 0.33Q-64.88 1.80-64.53 2.96Q-64.18 4.13-63.54 4.94Q-62.89 5.75-62.00 6.18Q-61.10 6.60-60.01 6.60L-60.01 6.60Q-58.80 6.60-58.05 6.39Q-57.30 6.19-56.88 5.90Q-56.46 5.61-56.24 5.36L-56.24 5.36L-56.24 1.54L-60.19 1.54L-60.19-0.29ZM-50.09-8.86L-47.82-8.86L-47.82 8.20L-50.09 8.20L-50.09-8.86ZM-32.84-8.86L-30.60-8.86L-30.60 8.20L-32.87 8.20L-41.46-4.96L-41.46 8.20L-43.72 8.20L-43.72-8.86L-41.46-8.86L-32.84 4.34L-32.84-8.86ZM-20.25-8.86L-20.29-7.35L-25.93 8.20L-28.24 8.20L-21.74-8.86L-20.25-8.86ZM-13.23 8.20L-15.55 8.20L-21.21-7.35L-21.25-8.86L-19.76-8.86L-13.23 8.20ZM-25.43 1.89L-15.84 1.89L-15.84 3.74L-25.43 3.74L-25.43 1.89ZM-9.13 6.36L-0.60 6.36L-0.60 8.20L-9.13 8.20L-9.13 6.36ZM-10.95-8.86L-8.68-8.86L-8.68 8.20L-10.95 8.20L-10.95-8.86Z" fill="#333333"/></g>
        
        <!-- Logo AdrianLAB con guías -->
        <line x1="684" y1="1020" x2="690" y2="1020" stroke="#0000ff" stroke-width="2"/>
        <g transform="translate(684, 1020)"><path d="M-81.52-11.81L-81.56-9.80L-89.09 10.94L-92.17 10.94L-83.50-11.81L-81.52-11.81ZM-72.16 10.94L-75.25 10.94L-82.80-9.80L-82.84-11.81L-80.86-11.81L-72.16 10.94ZM-88.42 2.52L-75.64 2.52L-75.64 4.98L-88.42 4.98L-88.42 2.52ZM-58.64 10.94L-58.89 7.66L-58.89-13.06L-55.98-13.06L-55.98 10.94L-58.64 10.94ZM-70.27 2.67L-70.27 2.67L-70.27 2.34Q-70.27 0.41-69.79-1.18Q-69.31-2.77-68.43-3.91Q-67.55-5.05-66.32-5.66Q-65.09-6.28-63.58-6.28L-63.58-6.28Q-61.98-6.28-60.79-5.73Q-59.59-5.17-58.76-4.12Q-57.92-3.06-57.44-1.58Q-56.95-0.09-56.77 1.78L-56.77 1.78L-56.77 3.22Q-56.94 5.08-57.43 6.56Q-57.92 8.05-58.76 9.09Q-59.59 10.14-60.80 10.70Q-62 11.25-63.61 11.25L-63.61 11.25Q-65.09 11.25-66.32 10.61Q-67.55 9.97-68.43 8.81Q-69.31 7.66-69.79 6.09Q-70.27 4.52-70.27 2.67ZM-67.36 2.34L-67.36 2.34L-67.36 2.67Q-67.36 3.94-67.10 5.05Q-66.84 6.16-66.30 7Q-65.75 7.84-64.91 8.32Q-64.06 8.80-62.89 8.80L-62.89 8.80Q-61.45 8.80-60.52 8.19Q-59.59 7.58-59.03 6.58Q-58.47 5.58-58.16 4.41L-58.16 4.41L-58.16 0.64Q-58.34-0.22-58.70-1.02Q-59.05-1.83-59.60-2.46Q-60.16-3.09-60.96-3.47Q-61.77-3.84-62.86-3.84L-62.86-3.84Q-64.05-3.84-64.90-3.35Q-65.75-2.86-66.30-2.01Q-66.84-1.16-67.10-0.04Q-67.36 1.08-67.36 2.34ZM-48.69-5.97L-48.61-3.31L-48.61 10.94L-51.50 10.94L-51.50-5.97L-48.69-5.97ZM-43.33-6.06L-43.33-6.06L-43.34-3.38Q-43.70-3.45-44.02-3.48Q-44.34-3.50-44.75-3.50L-44.75-3.50Q-45.75-3.50-46.52-3.19Q-47.28-2.88-47.81-2.31Q-48.34-1.75-48.65-0.98Q-48.95-0.20-49.05 0.72L-49.05 0.72L-49.86 1.19Q-49.86-0.34-49.55-1.69Q-49.25-3.03-48.61-4.07Q-47.97-5.11-46.98-5.70Q-45.98-6.28-44.61-6.28L-44.61-6.28Q-44.30-6.28-43.89-6.21Q-43.48-6.14-43.33-6.06ZM-40.42-5.97L-37.52-5.97L-37.52 10.94L-40.42 10.94L-40.42-5.97ZM-40.64-10.45L-40.64-10.45Q-40.64-11.16-40.21-11.64Q-39.78-12.13-38.94-12.13L-38.94-12.13Q-38.11-12.13-37.66-11.64Q-37.22-11.16-37.22-10.45L-37.22-10.45Q-37.22-9.78-37.66-9.30Q-38.11-8.83-38.94-8.83L-38.94-8.83Q-39.78-8.83-40.21-9.30Q-40.64-9.78-40.64-10.45ZM-22.91 8.05L-22.91 8.05L-22.91-0.66Q-22.91-1.66-23.30-2.40Q-23.70-3.14-24.50-3.55Q-25.30-3.95-26.47-3.95L-26.47-3.95Q-27.56-3.95-28.38-3.58Q-29.20-3.20-29.66-2.59Q-30.13-1.98-30.13-1.28L-30.13-1.28L-33.02-1.28Q-33.02-2.19-32.55-3.08Q-32.08-3.97-31.20-4.70Q-30.31-5.42-29.07-5.85Q-27.83-6.28-26.30-6.28L-26.30-6.28Q-24.45-6.28-23.04-5.66Q-21.63-5.03-20.82-3.77Q-20.02-2.52-20.02-0.63L-20.02-0.63L-20.02 7.25Q-20.02 8.09-19.87 9.05Q-19.72 10-19.42 10.69L-19.42 10.69L-19.42 10.94L-22.44 10.94Q-22.66 10.44-22.78 9.60Q-22.91 8.77-22.91 8.05ZM-25.77 0.69L-22.41 0.69L-22.38 2.72L-25.30 2.72Q-26.53 2.72-27.50 2.91Q-28.47 3.11-29.13 3.50Q-29.78 3.89-30.13 4.48Q-30.47 5.06-30.47 5.84L-30.47 5.84Q-30.47 6.64-30.11 7.30Q-29.75 7.95-29.02 8.34Q-28.30 8.72-27.23 8.72L-27.23 8.72Q-25.91 8.72-24.89 8.16Q-23.88 7.59-23.27 6.78Q-22.67 5.97-22.63 5.20L-22.63 5.20L-21.39 6.59Q-21.50 7.25-21.98 8.05Q-22.47 8.84-23.27 9.57Q-24.08 10.30-25.18 10.77Q-26.28 11.25-27.66 11.25L-27.66 11.25Q-29.38 11.25-30.66 10.58Q-31.95 9.91-32.66 8.77Q-33.38 7.64-33.38 6.23L-33.38 6.23Q-33.38 4.88-32.84 3.84Q-32.31 2.80-31.31 2.10Q-30.31 1.41-28.91 1.05Q-27.50 0.69-25.77 0.69L-25.77 0.69ZM-12.73-5.97L-12.58-2.36L-12.58 10.94L-15.47 10.94L-15.47-5.97L-12.73-5.97ZM-13.27 1.84L-13.27 1.84L-14.47 1.80Q-14.45 0.06-13.95-1.41Q-13.45-2.89-12.55-3.98Q-11.64-5.08-10.38-5.68Q-9.13-6.28-7.59-6.28L-7.59-6.28Q-6.34-6.28-5.34-5.95Q-4.34-5.61-3.63-4.88Q-2.92-4.14-2.55-2.98Q-2.17-1.81-2.17-0.14L-2.17-0.14L-2.17 10.94L-5.08 10.94L-5.08-0.17Q-5.08-1.50-5.47-2.30Q-5.86-3.11-6.61-3.48Q-7.36-3.84-8.45-3.84L-8.45-3.84Q-9.53-3.84-10.41-3.39Q-11.30-2.94-11.93-2.14Q-12.56-1.34-12.91-0.32Q-13.27 0.70-13.27 1.84Z" fill="#333333"/></g>
        
        <line x1="684" y1="1055" x2="690" y2="1055" stroke="#0000ff" stroke-width="2"/>
        <g transform="translate(684, 1055)"><path d="M-52.98 8.48L-41.61 8.48L-41.61 10.94L-52.98 10.94L-52.98 8.48ZM-55.41-11.81L-52.39-11.81L-52.39 10.94L-55.41 10.94L-55.41-11.81ZM-29.70-11.81L-29.75-9.80L-37.28 10.94L-40.36 10.94L-31.69-11.81L-29.70-11.81ZM-20.34 10.94L-23.44 10.94L-30.98-9.80L-31.03-11.81L-29.05-11.81L-20.34 10.94ZM-36.61 2.52L-23.83 2.52L-23.83 4.98L-36.61 4.98L-36.61 2.52ZM-8.11-0.44L-9.19 0.30L-14.95 0.30L-14.98-2.13L-9.75-2.13Q-8.45-2.13-7.48-2.56Q-6.52-3-5.98-3.82Q-5.44-4.64-5.44-5.78L-5.44-5.78Q-5.44-7.03-5.91-7.82Q-6.39-8.61-7.37-8.98Q-8.34-9.34-9.84-9.34L-9.84-9.34L-14.28-9.34L-14.28 10.94L-17.30 10.94L-17.30-11.81L-9.84-11.81Q-8.09-11.81-6.72-11.46Q-5.34-11.11-4.38-10.37Q-3.42-9.63-2.92-8.48Q-2.42-7.34-2.42-5.75L-2.42-5.75Q-2.42-4.34-3.14-3.21Q-3.86-2.08-5.13-1.36Q-6.41-0.64-8.11-0.44L-8.11-0.44ZM-9.33 10.94L-9.33 10.94L-16.14 10.94L-14.44 8.48L-9.33 8.48Q-7.89 8.48-6.88 7.98Q-5.88 7.48-5.34 6.57Q-4.81 5.66-4.81 4.41L-4.81 4.41Q-4.81 3.14-5.27 2.22Q-5.72 1.30-6.69 0.80Q-7.66 0.30-9.19 0.30L-9.19 0.30L-13.48 0.30L-13.45-2.13L-7.58-2.13L-6.94-1.25Q-5.30-1.11-4.16-0.32Q-3.02 0.47-2.41 1.69Q-1.81 2.91-1.81 4.38L-1.81 4.38Q-1.81 6.50-2.74 7.96Q-3.67 9.42-5.36 10.18Q-7.05 10.94-9.33 10.94Z" fill="#ff69b4"/></g>
        
        <!-- Leyenda -->
        <text x="10" y="20" font-family="Arial" font-size="12" fill="#000000">
          Rojo: Centros de rectángulos | Verde: Líneas izquierdas | Azul: Líneas derechas
        </text>
      </svg>
    