
      <svg width="768" height="1024" xmlns="http://www.w3.org/2000/svg">
        <!-- Fondo -->
        <rect width="768" height="1024" fill="#ffffff"/>
        
        <!-- Marco de referencia -->
        <rect x="84" y="120" width="600" height="600" fill="#f0f0f0" stroke="#000000" stroke-width="1"/>
        
        <!-- Rectángulos de texto -->
        <rect x="84" y="120" width="160" height="60" fill="#a9a9a9" stroke="#ff0000" stroke-width="2"/>
        <rect x="84" y="760" width="600" height="80" fill="#0f4e6d" stroke="#ff0000" stroke-width="2"/>
        <rect x="84" y="880" width="600" height="24" fill="none" stroke="#00ff00" stroke-width="1"/>
        <rect x="84" y="915" width="600" height="24" fill="none" stroke="#00ff00" stroke-width="1"/>
        <rect x="84" y="950" width="600" height="24" fill="none" stroke="#00ff00" stroke-width="1"/>
        <rect x="84" y="985" width="600" height="24" fill="none" stroke="#00ff00" stroke-width="1"/>
        
        <!-- Puntos de referencia -->
        <circle cx="164" cy="150" r="3" fill="#ff0000"/>
        <circle cx="384" cy="800" r="3" fill="#ff0000"/>
        <circle cx="94" cy="880" r="3" fill="#00ff00"/>
        <circle cx="94" cy="915" r="3" fill="#00ff00"/>
        <circle cx="94" cy="950" r="3" fill="#00ff00"/>
        <circle cx="94" cy="985" r="3" fill="#00ff00"/>
        <circle cx="674" cy="985" r="3" fill="#0000ff"/>
        <circle cx="674" cy="1020" r="3" fill="#0000ff"/>
        <circle cx="674" cy="1055" r="3" fill="#0000ff"/>
        
        <!-- Textos de prueba -->
        <g transform="translate(164, 150)"><path d="M8.19 1.85L8.19 1.85L9.69 1.85Q9.57 2.93 9.07 3.78Q8.57 4.63 7.66 5.13Q6.74 5.63 5.38 5.63L5.38 5.63Q4.38 5.63 3.56 5.25Q2.74 4.88 2.16 4.18Q1.57 3.49 1.25 2.52Q0.94 1.55 0.94 0.35L0.94 0.35L0.94-0.78Q0.94-1.98 1.25-2.95Q1.57-3.92 2.17-4.62Q2.77-5.31 3.61-5.69Q4.45-6.06 5.51-6.06L5.51-6.06Q6.80-6.06 7.69-5.58Q8.58-5.09 9.07-4.24Q9.57-3.38 9.69-2.26L9.69-2.26L8.19-2.26Q8.08-3.05 7.78-3.63Q7.48-4.20 6.94-4.52Q6.39-4.83 5.51-4.83L5.51-4.83Q4.75-4.83 4.18-4.54Q3.60-4.25 3.21-3.72Q2.83-3.19 2.63-2.45Q2.44-1.70 2.44-0.80L2.44-0.80L2.44 0.35Q2.44 1.19 2.61 1.92Q2.79 2.66 3.15 3.21Q3.51 3.77 4.06 4.08Q4.62 4.40 5.38 4.40L5.38 4.40Q6.34 4.40 6.91 4.09Q7.48 3.79 7.77 3.22Q8.06 2.65 8.19 1.85ZM20.49-0.58L20.49-0.58L20.49 0.14Q20.49 1.42 20.17 2.44Q19.85 3.45 19.25 4.16Q18.65 4.88 17.81 5.25Q16.97 5.63 15.93 5.63L15.93 5.63Q14.92 5.63 14.08 5.25Q13.24 4.88 12.63 4.16Q12.02 3.45 11.68 2.44Q11.34 1.42 11.34 0.14L11.34 0.14L11.34-0.58Q11.34-1.86 11.68-2.87Q12.01-3.88 12.62-4.60Q13.23-5.31 14.07-5.69Q14.91-6.06 15.91-6.06L15.91-6.06Q16.95-6.06 17.79-5.69Q18.63-5.31 19.24-4.60Q19.84-3.88 20.17-2.87Q20.49-1.86 20.49-0.58ZM19 0.14L19 0.14L19-0.59Q19-1.61 18.79-2.39Q18.59-3.17 18.19-3.70Q17.79-4.23 17.21-4.51Q16.64-4.78 15.91-4.78L15.91-4.78Q15.21-4.78 14.64-4.51Q14.08-4.23 13.68-3.70Q13.27-3.17 13.05-2.39Q12.84-1.61 12.84-0.59L12.84-0.59L12.84 0.14Q12.84 1.16 13.05 1.95Q13.27 2.73 13.68 3.27Q14.09 3.80 14.66 4.08Q15.23 4.35 15.93 4.35L15.93 4.35Q16.66 4.35 17.23 4.08Q17.80 3.80 18.20 3.27Q18.59 2.73 18.80 1.95Q19 1.16 19 0.14ZM27.83 5.47L23.22-5.91L24.68-5.91L28.41 3.37L32.13-5.91L33.59-5.91L28.97 5.47L27.83 5.47ZM22.74 5.47L22.74-5.91L24.03-5.91L24.24 1.03L24.24 5.47L22.74 5.47ZM32.56 1.03L32.77-5.91L34.06-5.91L34.06 5.47L32.56 5.47L32.56 1.03ZM41.80 5.47L37.19-5.91L38.65-5.91L42.38 3.37L46.09-5.91L47.56-5.91L42.94 5.47L41.80 5.47ZM36.71 5.47L36.71-5.91L38-5.91L38.21 1.03L38.21 5.47L36.71 5.47ZM46.53 1.03L46.74-5.91L48.03-5.91L48.03 5.47L46.53 5.47L46.53 1.03ZM59.44-0.58L59.44-0.58L59.44 0.14Q59.44 1.42 59.12 2.44Q58.80 3.45 58.20 4.16Q57.59 4.88 56.75 5.25Q55.91 5.63 54.88 5.63L54.88 5.63Q53.87 5.63 53.03 5.25Q52.19 4.88 51.57 4.16Q50.96 3.45 50.63 2.44Q50.29 1.42 50.29 0.14L50.29 0.14L50.29-0.58Q50.29-1.86 50.62-2.87Q50.95-3.88 51.56-4.60Q52.17-5.31 53.01-5.69Q53.85-6.06 54.86-6.06L54.86-6.06Q55.90-6.06 56.74-5.69Q57.58-5.31 58.18-4.60Q58.79-3.88 59.11-2.87Q59.44-1.86 59.44-0.58ZM57.95 0.14L57.95 0.14L57.95-0.59Q57.95-1.61 57.74-2.39Q57.53-3.17 57.13-3.70Q56.73-4.23 56.16-4.51Q55.59-4.78 54.86-4.78L54.86-4.78Q54.16-4.78 53.59-4.51Q53.02-4.23 52.62-3.70Q52.22-3.17 52-2.39Q51.78-1.61 51.78-0.59L51.78-0.59L51.78 0.14Q51.78 1.16 52 1.95Q52.22 2.73 52.63 3.27Q53.04 3.80 53.61 4.08Q54.17 4.35 54.88 4.35L54.88 4.35Q55.61 4.35 56.18 4.08Q56.75 3.80 57.14 3.27Q57.54 2.73 57.74 1.95Q57.95 1.16 57.95 0.14ZM68.95-5.91L70.44-5.91L70.44 5.47L68.92 5.47L63.20-3.30L63.20 5.47L61.69 5.47L61.69-5.91L63.20-5.91L68.95 2.89L68.95-5.91Z" fill="#ffffff"/></g>
        
        <g transform="translate(384, 800)"><path d="M3.96-17.72L8.48-17.72L8.48 16.41L3.96 16.41L3.96-17.72ZM7.50-2.37L22.78-2.37L22.78 1.34L7.50 1.34L7.50-2.37ZM7.50-17.72L25.10-17.72L25.10-14.02L7.50-14.02L7.50-17.72ZM34.13 12.73L51.19 12.73L51.19 16.41L34.13 16.41L34.13 12.73ZM30.49-17.72L35.02-17.72L35.02 16.41L30.49 16.41L30.49-17.72ZM82.62-1.73L82.62-1.73L82.62 0.42Q82.62 4.27 81.66 7.31Q80.70 10.36 78.89 12.49Q77.09 14.63 74.57 15.75Q72.05 16.88 68.93 16.88L68.93 16.88Q65.91 16.88 63.39 15.75Q60.87 14.63 59.03 12.49Q57.19 10.36 56.18 7.31Q55.17 4.27 55.17 0.42L55.17 0.42L55.17-1.73Q55.17-5.58 56.17-8.61Q57.16-11.65 58.99-13.79Q60.82-15.94 63.34-17.06Q65.86-18.19 68.88-18.19L68.88-18.19Q72-18.19 74.52-17.06Q77.04-15.94 78.86-13.79Q80.67-11.65 81.64-8.61Q82.62-5.58 82.62-1.73ZM78.14 0.42L78.14 0.42L78.14-1.78Q78.14-4.83 77.52-7.17Q76.90-9.52 75.70-11.11Q74.51-12.70 72.79-13.52Q71.06-14.34 68.88-14.34L68.88-14.34Q66.77-14.34 65.07-13.52Q63.38-12.70 62.17-11.11Q60.96-9.52 60.30-7.17Q59.65-4.83 59.65-1.78L59.65-1.78L59.65 0.42Q59.65 3.49 60.30 5.85Q60.96 8.20 62.19 9.81Q63.42 11.41 65.12 12.23Q66.82 13.05 68.93 13.05L68.93 13.05Q71.13 13.05 72.84 12.23Q74.55 11.41 75.74 9.81Q76.92 8.20 77.53 5.85Q78.14 3.49 78.14 0.42ZM101.95 3.02L101.95 3.02L92.84 3.02L92.84-0.66L101.95-0.66Q104.60-0.66 106.24-1.50Q107.88-2.34 108.64-3.84Q109.41-5.34 109.41-7.27L109.41-7.27Q109.41-9.02 108.64-10.57Q107.88-12.12 106.24-13.07Q104.60-14.02 101.95-14.02L101.95-14.02L93.89-14.02L93.89 16.41L89.37 16.41L89.37-17.72L101.95-17.72Q105.82-17.72 108.49-16.38Q111.16-15.05 112.55-12.69Q113.93-10.34 113.93-7.31L113.93-7.31Q113.93-4.03 112.55-1.71Q111.16 0.61 108.49 1.82Q105.82 3.02 101.95 3.02ZM132.23 3.02L132.23 3.02L123.12 3.02L123.12-0.66L132.23-0.66Q134.88-0.66 136.52-1.50Q138.16-2.34 138.93-3.84Q139.69-5.34 139.69-7.27L139.69-7.27Q139.69-9.02 138.93-10.57Q138.16-12.12 136.52-13.07Q134.88-14.02 132.23-14.02L132.23-14.02L124.17-14.02L124.17 16.41L119.65 16.41L119.65-17.72L132.23-17.72Q136.10-17.72 138.77-16.38Q141.45-15.05 142.83-12.69Q144.21-10.34 144.21-7.31L144.21-7.31Q144.21-4.03 142.83-1.71Q141.45 0.61 138.77 1.82Q136.10 3.02 132.23 3.02ZM146.32-17.72L151.50-17.72L160.36-0.59L169.24-17.72L174.38-17.72L162.61 3.66L162.61 16.41L158.09 16.41L158.09 3.66L146.32-17.72ZM199.90 16.41L199.90 16.41L192.77 16.41L192.82 12.73L199.90 12.73Q203.55 12.73 205.99 11.19Q208.43 9.66 209.66 6.88Q210.89 4.10 210.89 0.38L210.89 0.38L210.89-1.71Q210.89-4.64 210.19-6.93Q209.48-9.21 208.13-10.79Q206.77-12.38 204.81-13.20Q202.85-14.02 200.32-14.02L200.32-14.02L192.63-14.02L192.63-17.72L200.32-17.72Q203.67-17.72 206.44-16.61Q209.20-15.49 211.21-13.39Q213.21-11.30 214.29-8.33Q215.37-5.37 215.37-1.66L215.37-1.66L215.37 0.38Q215.37 4.08 214.29 7.04Q213.21 10.01 211.18 12.09Q209.16 14.18 206.31 15.29Q203.46 16.41 199.90 16.41ZM190.66-17.72L195.19-17.72L195.19 16.41L190.66 16.41L190.66-17.72ZM222.49-17.72L227.02-17.72L227.02 16.41L222.49 16.41L222.49-17.72ZM253.41 7.78L253.41 7.78Q253.41 6.59 253.04 5.66Q252.68 4.73 251.78 3.98Q250.88 3.23 249.29 2.55Q247.71 1.88 245.30 1.17L245.30 1.17Q242.77 0.42 240.73-0.50Q238.69-1.43 237.23-2.63Q235.78-3.82 235.01-5.37Q234.23-6.91 234.23-8.91L234.23-8.91Q234.23-10.90 235.05-12.59Q235.88-14.27 237.41-15.53Q238.95-16.78 241.08-17.48Q243.21-18.19 245.84-18.19L245.84-18.19Q249.68-18.19 252.36-16.72Q255.05-15.26 256.45-12.90Q257.86-10.55 257.86-7.88L257.86-7.88L253.36-7.88Q253.36-9.80 252.54-11.29Q251.72-12.77 250.05-13.63Q248.39-14.48 245.84-14.48L245.84-14.48Q243.42-14.48 241.85-13.76Q240.28-13.03 239.52-11.79Q238.76-10.55 238.76-8.95L238.76-8.95Q238.76-7.88 239.21-7.00Q239.67-6.12 240.64-5.37Q241.62-4.62 243.13-3.98Q244.64-3.35 246.75-2.77L246.75-2.77Q249.66-1.95 251.77-0.94Q253.88 0.07 255.25 1.32Q256.62 2.58 257.29 4.16Q257.95 5.74 257.95 7.73L257.95 7.73Q257.95 9.82 257.11 11.51Q256.27 13.20 254.70 14.39Q253.13 15.59 250.93 16.23Q248.74 16.88 246.05 16.88L246.05 16.88Q243.68 16.88 241.39 16.22Q239.11 15.56 237.25 14.25Q235.38 12.94 234.27 11.00Q233.16 9.07 233.16 6.52L233.16 6.52L237.66 6.52Q237.66 8.27 238.34 9.53Q239.02 10.78 240.20 11.60Q241.38 12.42 242.89 12.81Q244.41 13.20 246.05 13.20L246.05 13.20Q248.41 13.20 250.05 12.54Q251.70 11.88 252.55 10.66Q253.41 9.45 253.41 7.78ZM263.72-17.72L268.24-17.72L268.24 16.41L263.72 16.41L263.72-17.72ZM283.41-17.72L288.84-17.72L274.66-1.80L266.70 6.47L265.95 1.64L271.95-4.97L283.41-17.72ZM289.88 16.41L284.48 16.41L271.85-0.23L274.55-3.82L289.88 16.41Z" fill="#ffffff"/></g>
        
        <g transform="translate(94, 880)"><path d="M6.06-17.06L8.29-17.06L8.29 0L6.06 0L6.06-17.06ZM0.59-17.06L13.77-17.06L13.77-15.21L0.59-15.21L0.59-17.06ZM16.30 0L16.30-17.06L21.95-17.06Q23.87-17.06 25.20-16.48Q26.53-15.89 27.23-14.75Q27.93-13.61 27.93-11.94L27.93-11.94Q27.93-10.77 27.45-9.80Q26.98-8.84 26.09-8.16Q25.21-7.49 23.98-7.16L23.98-7.16L23.34-6.91L18.04-6.91L18.01-8.75L22.02-8.75Q23.24-8.75 24.05-9.18Q24.86-9.61 25.27-10.34Q25.68-11.06 25.68-11.94L25.68-11.94Q25.68-12.93 25.29-13.66Q24.90-14.40 24.08-14.81Q23.25-15.21 21.95-15.21L21.95-15.21L18.56-15.21L18.56 0L16.30 0ZM28.69 0L26.27 0L22.13-7.73L24.48-7.75L28.69-0.14L28.69 0ZM37.44-17.06L37.41-15.55L31.76 0L29.45 0L35.95-17.06L37.44-17.06ZM44.46 0L42.14 0L36.48-15.55L36.45-17.06L37.93-17.06L44.46 0ZM32.26-6.32L41.85-6.32L41.85-4.46L32.26-4.46L32.26-6.32ZM46.91-17.06L49.17-17.06L49.17 0L46.91 0L46.91-17.06ZM57.35-17.06L59.58-17.06L59.58 0L57.35 0L57.35-17.06ZM51.88-17.06L65.06-17.06L65.06-15.21L51.88-15.21L51.88-17.06ZM67.17-1.15L67.17-1.15Q67.17-1.70 67.52-2.08Q67.86-2.46 68.52-2.46L68.52-2.46Q69.18-2.46 69.52-2.08Q69.87-1.70 69.87-1.15L69.87-1.15Q69.87-0.61 69.52-0.23Q69.18 0.14 68.52 0.14L68.52 0.14Q67.86 0.14 67.52-0.23Q67.17-0.61 67.17-1.15ZM67.18-11.50L67.18-11.50Q67.18-12.05 67.53-12.43Q67.88-12.81 68.53-12.81L68.53-12.81Q69.19-12.81 69.53-12.43Q69.88-12.05 69.88-11.50L69.88-11.50Q69.88-10.96 69.53-10.58Q69.19-10.21 68.53-10.21L68.53-10.21Q67.88-10.21 67.53-10.58Q67.18-10.96 67.18-11.50ZM86.25-8.53L85.44-7.98L81.12-7.98L81.09-9.80L85.02-9.80Q85.99-9.80 86.72-10.13Q87.45-10.45 87.85-11.07Q88.25-11.68 88.25-12.54L88.25-12.54Q88.25-13.48 87.90-14.07Q87.54-14.66 86.81-14.94Q86.07-15.21 84.95-15.21L84.95-15.21L81.62-15.21L81.62 0L79.36 0L79.36-17.06L84.95-17.06Q86.26-17.06 87.29-16.80Q88.32-16.54 89.04-15.98Q89.77-15.42 90.14-14.57Q90.52-13.71 90.52-12.52L90.52-12.52Q90.52-11.46 89.98-10.61Q89.44-9.76 88.48-9.22Q87.53-8.68 86.25-8.53L86.25-8.53ZM85.34 0L85.34 0L80.23 0L81.50-1.84L85.34-1.84Q86.41-1.84 87.17-2.21Q87.93-2.59 88.32-3.28Q88.72-3.96 88.72-4.90L88.72-4.90Q88.72-5.85 88.38-6.54Q88.04-7.23 87.32-7.61Q86.59-7.98 85.44-7.98L85.44-7.98L82.22-7.98L82.24-9.80L86.65-9.80L87.13-9.14Q88.36-9.04 89.21-8.44Q90.07-7.85 90.52-6.94Q90.97-6.02 90.97-4.92L90.97-4.92Q90.97-3.33 90.28-2.23Q89.58-1.14 88.31-0.57Q87.05 0 85.34 0ZM107.45-9.07L107.45-9.07L107.45-7.99Q107.45-6.07 106.97-4.55Q106.49-3.02 105.59-1.96Q104.68-0.89 103.42-0.33Q102.16 0.23 100.61 0.23L100.61 0.23Q99.09 0.23 97.83-0.33Q96.57-0.89 95.65-1.96Q94.73-3.02 94.23-4.55Q93.73-6.07 93.73-7.99L93.73-7.99L93.73-9.07Q93.73-10.99 94.22-12.51Q94.72-14.03 95.64-15.10Q96.55-16.17 97.81-16.73Q99.07-17.30 100.58-17.30L100.58-17.30Q102.14-17.30 103.40-16.73Q104.66-16.17 105.57-15.10Q106.48-14.03 106.96-12.51Q107.45-10.99 107.45-9.07ZM105.21-7.99L105.21-7.99L105.21-9.09Q105.21-10.62 104.90-11.79Q104.59-12.96 103.99-13.76Q103.39-14.55 102.53-14.96Q101.67-15.38 100.58-15.38L100.58-15.38Q99.53-15.38 98.68-14.96Q97.83-14.55 97.22-13.76Q96.62-12.96 96.29-11.79Q95.96-10.62 95.96-9.09L95.96-9.09L95.96-7.99Q95.96-6.46 96.29-5.28Q96.62-4.10 97.24-3.30Q97.85-2.50 98.70-2.09Q99.55-1.68 100.61-1.68L100.61-1.68Q101.71-1.68 102.56-2.09Q103.42-2.50 104.01-3.30Q104.60-4.10 104.91-5.28Q105.21-6.46 105.21-7.99ZM115.44 0L115.44 0L111.88 0L111.90-1.84L115.44-1.84Q117.27-1.84 118.49-2.61Q119.71-3.38 120.32-4.76Q120.94-6.15 120.94-8.02L120.94-8.02L120.94-9.06Q120.94-10.52 120.59-11.67Q120.23-12.81 119.55-13.60Q118.88-14.39 117.90-14.80Q116.92-15.21 115.65-15.21L115.65-15.21L111.81-15.21L111.81-17.06L115.65-17.06Q117.33-17.06 118.71-16.51Q120.09-15.95 121.10-14.90Q122.10-13.85 122.64-12.37Q123.18-10.89 123.18-9.04L123.18-9.04L123.18-8.02Q123.18-6.16 122.64-4.68Q122.10-3.20 121.08-2.16Q120.07-1.11 118.65-0.56Q117.22 0 115.44 0ZM110.82-17.06L113.09-17.06L113.09 0L110.82 0L110.82-17.06ZM124.77-17.06L127.36-17.06L131.79-8.50L136.23-17.06L138.80-17.06L132.91-6.38L132.91 0L130.65 0L130.65-6.38L124.77-17.06Z" fill="#333333"/></g>
        
        <g transform="translate(94, 915)"><path d="M11.07-4.31L11.07-4.31Q11.07-4.91 10.89-5.37Q10.71-5.84 10.26-6.21Q9.81-6.59 9.02-6.93Q8.23-7.27 7.02-7.62L7.02-7.62Q5.75-7.99 4.73-8.46Q3.71-8.92 2.99-9.52Q2.26-10.11 1.88-10.89Q1.49-11.66 1.49-12.66L1.49-12.66Q1.49-13.65 1.90-14.50Q2.31-15.34 3.08-15.97Q3.84-16.59 4.91-16.95Q5.98-17.30 7.29-17.30L7.29-17.30Q9.21-17.30 10.55-16.56Q11.89-15.83 12.60-14.65Q13.30-13.48 13.30-12.14L13.30-12.14L11.05-12.14Q11.05-13.10 10.64-13.85Q10.23-14.59 9.40-15.02Q8.57-15.45 7.29-15.45L7.29-15.45Q6.08-15.45 5.30-15.08Q4.51-14.72 4.13-14.10Q3.75-13.48 3.75-12.68L3.75-12.68Q3.75-12.14 3.98-11.70Q4.21-11.26 4.69-10.89Q5.18-10.51 5.94-10.20Q6.69-9.88 7.75-9.59L7.75-9.59Q9.20-9.18 10.25-8.67Q11.31-8.17 11.99-7.54Q12.68-6.91 13.01-6.12Q13.35-5.33 13.35-4.34L13.35-4.34Q13.35-3.29 12.93-2.45Q12.50-1.61 11.72-1.01Q10.93-0.41 9.84-0.09Q8.74 0.23 7.39 0.23L7.39 0.23Q6.21 0.23 5.07-0.09Q3.93-0.42 2.99-1.08Q2.06-1.73 1.51-2.70Q0.95-3.67 0.95-4.95L0.95-4.95L3.20-4.95Q3.20-4.07 3.54-3.44Q3.88-2.81 4.47-2.40Q5.06-1.99 5.82-1.80Q6.57-1.61 7.39-1.61L7.39-1.61Q8.58-1.61 9.40-1.93Q10.22-2.26 10.65-2.87Q11.07-3.48 11.07-4.31ZM18.04-1.84L27.07-1.84L27.07 0L18.04 0L18.04-1.84ZM16.23-17.06L18.49-17.06L18.49 0L16.23 0L16.23-17.06ZM18.04-9.73L25.88-9.73L25.88-7.89L18.04-7.89L18.04-9.73ZM18.04-17.06L26.95-17.06L26.95-15.21L18.04-15.21L18.04-17.06ZM29.87 0L29.87-17.06L35.52-17.06Q37.44-17.06 38.77-16.48Q40.10-15.89 40.80-14.75Q41.50-13.61 41.50-11.94L41.50-11.94Q41.50-10.77 41.02-9.80Q40.55-8.84 39.66-8.16Q38.78-7.49 37.55-7.16L37.55-7.16L36.91-6.91L31.61-6.91L31.58-8.75L35.59-8.75Q36.81-8.75 37.62-9.18Q38.43-9.61 38.84-10.34Q39.25-11.06 39.25-11.94L39.25-11.94Q39.25-12.93 38.86-13.66Q38.47-14.40 37.65-14.81Q36.82-15.21 35.52-15.21L35.52-15.21L32.13-15.21L32.13 0L29.87 0ZM42.26 0L39.84 0L35.70-7.73L38.05-7.75L42.26-0.14L42.26 0ZM44.82-17.06L47.09-17.06L47.09 0L44.82 0L44.82-17.06ZM52.99-1.84L62.03-1.84L62.03 0L52.99 0L52.99-1.84ZM51.19-17.06L53.45-17.06L53.45 0L51.19 0L51.19-17.06ZM52.99-9.73L60.83-9.73L60.83-7.89L52.99-7.89L52.99-9.73ZM52.99-17.06L61.91-17.06L61.91-15.21L52.99-15.21L52.99-17.06ZM73.92-4.31L73.92-4.31Q73.92-4.91 73.74-5.37Q73.56-5.84 73.11-6.21Q72.66-6.59 71.87-6.93Q71.07-7.27 69.87-7.62L69.87-7.62Q68.60-7.99 67.58-8.46Q66.56-8.92 65.84-9.52Q65.11-10.11 64.72-10.89Q64.34-11.66 64.34-12.66L64.34-12.66Q64.34-13.65 64.75-14.50Q65.16-15.34 65.92-15.97Q66.69-16.59 67.76-16.95Q68.82-17.30 70.14-17.30L70.14-17.30Q72.06-17.30 73.40-16.56Q74.74-15.83 75.45-14.65Q76.15-13.48 76.15-12.14L76.15-12.14L73.90-12.14Q73.90-13.10 73.49-13.85Q73.08-14.59 72.25-15.02Q71.41-15.45 70.14-15.45L70.14-15.45Q68.93-15.45 68.14-15.08Q67.36-14.72 66.98-14.10Q66.60-13.48 66.60-12.68L66.60-12.68Q66.60-12.14 66.83-11.70Q67.05-11.26 67.54-10.89Q68.03-10.51 68.78-10.20Q69.54-9.88 70.59-9.59L70.59-9.59Q72.05-9.18 73.10-8.67Q74.16-8.17 74.84-7.54Q75.53-6.91 75.86-6.12Q76.20-5.33 76.20-4.34L76.20-4.34Q76.20-3.29 75.77-2.45Q75.35-1.61 74.57-1.01Q73.78-0.41 72.69-0.09Q71.59 0.23 70.24 0.23L70.24 0.23Q69.06 0.23 67.92-0.09Q66.77-0.42 65.84-1.08Q64.91-1.73 64.35-2.70Q63.80-3.67 63.80-4.95L63.80-4.95L66.05-4.95Q66.05-4.07 66.39-3.44Q66.73-2.81 67.32-2.40Q67.91-1.99 68.67-1.80Q69.42-1.61 70.24-1.61L70.24-1.61Q71.43-1.61 72.25-1.93Q73.07-2.26 73.49-2.87Q73.92-3.48 73.92-4.31ZM78.66-1.15L78.66-1.15Q78.66-1.70 79.00-2.08Q79.35-2.46 80.00-2.46L80.00-2.46Q80.66-2.46 81.01-2.08Q81.35-1.70 81.35-1.15L81.35-1.15Q81.35-0.61 81.01-0.23Q80.66 0.14 80.00 0.14L80.00 0.14Q79.35 0.14 79.00-0.23Q78.66-0.61 78.66-1.15ZM78.67-11.50L78.67-11.50Q78.67-12.05 79.01-12.43Q79.36-12.81 80.02-12.81L80.02-12.81Q80.67-12.81 81.02-12.43Q81.36-12.05 81.36-11.50L81.36-11.50Q81.36-10.96 81.02-10.58Q80.67-10.21 80.02-10.21L80.02-10.21Q79.36-10.21 79.01-10.58Q78.67-10.96 78.67-11.50ZM97.07-17.16L97.41-17.16L97.41 0L95.24 0L95.24-14.45L90.87-12.86L90.87-14.81L97.07-17.16Z" fill="#333333"/></g>
        
        <g transform="translate(94, 950)"><path d="M12.28-5.43L12.28-5.43L14.53-5.43Q14.36-3.81 13.61-2.53Q12.86-1.25 11.48-0.51Q10.11 0.23 8.06 0.23L8.06 0.23Q6.56 0.23 5.34-0.33Q4.11-0.89 3.23-1.93Q2.36-2.96 1.88-4.42Q1.41-5.88 1.41-7.68L1.41-7.68L1.41-9.38Q1.41-11.17 1.88-12.63Q2.36-14.09 3.25-15.13Q4.15-16.17 5.41-16.73Q6.68-17.30 8.26-17.30L8.26-17.30Q10.20-17.30 11.53-16.57Q12.87-15.84 13.61-14.56Q14.36-13.28 14.53-11.59L14.53-11.59L12.28-11.59Q12.12-12.79 11.67-13.65Q11.23-14.51 10.41-14.98Q9.59-15.45 8.26-15.45L8.26-15.45Q7.13-15.45 6.26-15.01Q5.40-14.58 4.82-13.78Q4.24-12.98 3.95-11.87Q3.66-10.76 3.66-9.40L3.66-9.40L3.66-7.68Q3.66-6.42 3.92-5.32Q4.18-4.22 4.72-3.39Q5.26-2.55 6.09-2.08Q6.93-1.61 8.06-1.61L8.06-1.61Q9.50-1.61 10.36-2.06Q11.21-2.52 11.65-3.38Q12.09-4.23 12.28-5.43ZM23.95-17.06L23.92-15.55L18.27 0L15.96 0L22.46-17.06L23.95-17.06ZM30.97 0L28.65 0L22.99-15.55L22.96-17.06L24.45-17.06L30.97 0ZM18.77-6.32L28.36-6.32L28.36-4.46L18.77-4.46L18.77-6.32ZM37.34-17.06L39.56-17.06L39.56 0L37.34 0L37.34-17.06ZM31.86-17.06L45.05-17.06L45.05-15.21L31.86-15.21L31.86-17.06ZM49.38-1.84L58.42-1.84L58.42 0L49.38 0L49.38-1.84ZM47.58-17.06L49.84-17.06L49.84 0L47.58 0L47.58-17.06ZM49.38-9.73L57.22-9.73L57.22-7.89L49.38-7.89L49.38-9.73ZM49.38-17.06L58.30-17.06L58.30-15.21L49.38-15.21L49.38-17.06ZM67.63-8.50L73.83-8.50L73.83-2.25Q73.51-1.78 72.82-1.20Q72.13-0.62 70.92-0.19Q69.70 0.23 67.79 0.23L67.79 0.23Q66.23 0.23 64.93-0.31Q63.62-0.86 62.67-1.90Q61.71-2.95 61.19-4.46Q60.67-5.96 60.67-7.88L60.67-7.88L60.67-9.20Q60.67-11.11 61.12-12.61Q61.57-14.11 62.45-15.16Q63.33-16.21 64.61-16.75Q65.88-17.30 67.54-17.30L67.54-17.30Q69.49-17.30 70.81-16.62Q72.13-15.95 72.87-14.77Q73.62-13.58 73.83-12.07L73.83-12.07L71.57-12.07Q71.41-13.00 70.96-13.76Q70.51-14.52 69.68-14.98Q68.85-15.45 67.54-15.45L67.54-15.45Q66.35-15.45 65.48-15.01Q64.62-14.58 64.05-13.77Q63.49-12.96 63.22-11.81Q62.94-10.66 62.94-9.22L62.94-9.22L62.94-7.88Q62.94-6.40 63.29-5.24Q63.63-4.08 64.28-3.26Q64.92-2.45 65.82-2.03Q66.71-1.61 67.80-1.61L67.80-1.61Q69.01-1.61 69.76-1.81Q70.51-2.02 70.93-2.30Q71.36-2.59 71.58-2.85L71.58-2.85L71.58-6.67L67.63-6.67L67.63-8.50ZM90.70-9.07L90.70-9.07L90.70-7.99Q90.70-6.07 90.22-4.55Q89.74-3.02 88.84-1.96Q87.94-0.89 86.68-0.33Q85.42 0.23 83.86 0.23L83.86 0.23Q82.35 0.23 81.09-0.33Q79.83-0.89 78.91-1.96Q77.99-3.02 77.48-4.55Q76.98-6.07 76.98-7.99L76.98-7.99L76.98-9.07Q76.98-10.99 77.48-12.51Q77.98-14.03 78.89-15.10Q79.80-16.17 81.06-16.73Q82.32-17.30 83.84-17.30L83.84-17.30Q85.39-17.30 86.65-16.73Q87.91-16.17 88.82-15.10Q89.73-14.03 90.22-12.51Q90.70-10.99 90.70-9.07ZM88.46-7.99L88.46-7.99L88.46-9.09Q88.46-10.62 88.15-11.79Q87.84-12.96 87.25-13.76Q86.65-14.55 85.79-14.96Q84.93-15.38 83.84-15.38L83.84-15.38Q82.78-15.38 81.93-14.96Q81.08-14.55 80.48-13.76Q79.88-12.96 79.55-11.79Q79.22-10.62 79.22-9.09L79.22-9.09L79.22-7.99Q79.22-6.46 79.55-5.28Q79.88-4.10 80.49-3.30Q81.11-2.50 81.96-2.09Q82.80-1.68 83.86-1.68L83.86-1.68Q84.96-1.68 85.82-2.09Q86.67-2.50 87.26-3.30Q87.86-4.10 88.16-5.28Q88.46-6.46 88.46-7.99ZM94.08 0L94.08-17.06L99.73-17.06Q101.65-17.06 102.98-16.48Q104.31-15.89 105.01-14.75Q105.70-13.61 105.70-11.94L105.70-11.94Q105.70-10.77 105.23-9.80Q104.75-8.84 103.87-8.16Q102.98-7.49 101.75-7.16L101.75-7.16L101.12-6.91L95.81-6.91L95.79-8.75L99.80-8.75Q101.02-8.75 101.82-9.18Q102.63-9.61 103.04-10.34Q103.45-11.06 103.45-11.94L103.45-11.94Q103.45-12.93 103.07-13.66Q102.68-14.40 101.85-14.81Q101.03-15.21 99.73-15.21L99.73-15.21L96.34-15.21L96.34 0L94.08 0ZM106.46 0L104.05 0L99.90-7.73L102.26-7.75L106.46-0.14L106.46 0ZM107.06-17.06L109.65-17.06L114.08-8.50L118.52-17.06L121.09-17.06L115.21-6.38L115.21 0L112.95 0L112.95-6.38L107.06-17.06ZM122.86-1.15L122.86-1.15Q122.86-1.70 123.21-2.08Q123.55-2.46 124.21-2.46L124.21-2.46Q124.86-2.46 125.21-2.08Q125.55-1.70 125.55-1.15L125.55-1.15Q125.55-0.61 125.21-0.23Q124.86 0.14 124.21 0.14L124.21 0.14Q123.55 0.14 123.21-0.23Q122.86-0.61 122.86-1.15ZM122.87-11.50L122.87-11.50Q122.87-12.05 123.22-12.43Q123.56-12.81 124.22-12.81L124.22-12.81Q124.88-12.81 125.22-12.43Q125.57-12.05 125.57-11.50L125.57-11.50Q125.57-10.96 125.22-10.58Q124.88-10.21 124.22-10.21L124.22-10.21Q123.56-10.21 123.22-10.58Q122.87-10.96 122.87-11.50ZM141.94-8.53L141.13-7.98L136.80-7.98L136.78-9.80L140.71-9.80Q141.68-9.80 142.41-10.13Q143.13-10.45 143.54-11.07Q143.94-11.68 143.94-12.54L143.94-12.54Q143.94-13.48 143.58-14.07Q143.23-14.66 142.49-14.94Q141.76-15.21 140.64-15.21L140.64-15.21L137.31-15.21L137.31 0L135.05 0L135.05-17.06L140.64-17.06Q141.95-17.06 142.98-16.80Q144.01-16.54 144.73-15.98Q145.45-15.42 145.83-14.57Q146.20-13.71 146.20-12.52L146.20-12.52Q146.20-11.46 145.66-10.61Q145.13-9.76 144.17-9.22Q143.21-8.68 141.94-8.53L141.94-8.53ZM141.02 0L141.02 0L135.91 0L137.19-1.84L141.02-1.84Q142.10-1.84 142.86-2.21Q143.61-2.59 144.01-3.28Q144.41-3.96 144.41-4.90L144.41-4.90Q144.41-5.85 144.07-6.54Q143.73-7.23 143.00-7.61Q142.28-7.98 141.13-7.98L141.13-7.98L137.91-7.98L137.93-9.80L142.34-9.80L142.82-9.14Q144.05-9.04 144.90-8.44Q145.76-7.85 146.21-6.94Q146.66-6.02 146.66-4.92L146.66-4.92Q146.66-3.33 145.96-2.23Q145.27-1.14 144-0.57Q142.73 0 141.02 0ZM156.35-17.06L156.32-15.55L150.67 0L148.36 0L154.86-17.06L156.35-17.06ZM163.37 0L161.05 0L155.39-15.55L155.36-17.06L156.84-17.06L163.37 0ZM151.17-6.32L160.76-6.32L160.76-4.46L151.17-4.46L151.17-6.32ZM174.75-4.31L174.75-4.31Q174.75-4.91 174.57-5.37Q174.39-5.84 173.94-6.21Q173.48-6.59 172.69-6.93Q171.90-7.27 170.70-7.62L170.70-7.62Q169.43-7.99 168.41-8.46Q167.39-8.92 166.66-9.52Q165.94-10.11 165.55-10.89Q165.16-11.66 165.16-12.66L165.16-12.66Q165.16-13.65 165.57-14.50Q165.98-15.34 166.75-15.97Q167.52-16.59 168.59-16.95Q169.65-17.30 170.96-17.30L170.96-17.30Q172.89-17.30 174.23-16.56Q175.57-15.83 176.27-14.65Q176.98-13.48 176.98-12.14L176.98-12.14L174.73-12.14Q174.73-13.10 174.32-13.85Q173.91-14.59 173.07-15.02Q172.24-15.45 170.96-15.45L170.96-15.45Q169.76-15.45 168.97-15.08Q168.19-14.72 167.81-14.10Q167.43-13.48 167.43-12.68L167.43-12.68Q167.43-12.14 167.65-11.70Q167.88-11.26 168.37-10.89Q168.86-10.51 169.61-10.20Q170.37-9.88 171.42-9.59L171.42-9.59Q172.88-9.18 173.93-8.67Q174.98-8.17 175.67-7.54Q176.36-6.91 176.69-6.12Q177.02-5.33 177.02-4.34L177.02-4.34Q177.02-3.29 176.60-2.45Q176.18-1.61 175.39-1.01Q174.61-0.41 173.51-0.09Q172.42 0.23 171.07 0.23L171.07 0.23Q169.89 0.23 168.74-0.09Q167.60-0.42 166.67-1.08Q165.74-1.73 165.18-2.70Q164.63-3.67 164.63-4.95L164.63-4.95L166.88-4.95Q166.88-4.07 167.21-3.44Q167.55-2.81 168.15-2.40Q168.74-1.99 169.49-1.80Q170.25-1.61 171.07-1.61L171.07-1.61Q172.25-1.61 173.07-1.93Q173.89-2.26 174.32-2.87Q174.75-3.48 174.75-4.31ZM181.71-1.84L190.75-1.84L190.75 0L181.71 0L181.71-1.84ZM179.91-17.06L182.17-17.06L182.17 0L179.91 0L179.91-17.06ZM181.71-9.73L189.55-9.73L189.55-7.89L181.71-7.89L181.71-9.73ZM181.71-17.06L190.63-17.06L190.63-15.21L181.71-15.21L181.71-17.06Z" fill="#333333"/></g>
        
        <g transform="translate(94, 985)"><path d="M1.98 0L1.98-17.06L7.63-17.06Q9.55-17.06 10.88-16.48Q12.21-15.89 12.91-14.75Q13.61-13.61 13.61-11.94L13.61-11.94Q13.61-10.77 13.13-9.80Q12.66-8.84 11.77-8.16Q10.89-7.49 9.66-7.16L9.66-7.16L9.02-6.91L3.71-6.91L3.69-8.75L7.70-8.75Q8.92-8.75 9.73-9.18Q10.54-9.61 10.95-10.34Q11.36-11.06 11.36-11.94L11.36-11.94Q11.36-12.93 10.97-13.66Q10.58-14.40 9.76-14.81Q8.93-15.21 7.63-15.21L7.63-15.21L4.24-15.21L4.24 0L1.98 0ZM14.37 0L11.95 0L7.80-7.73L10.16-7.75L14.37-0.14L14.37 0ZM18.57-1.84L27.61-1.84L27.61 0L18.57 0L18.57-1.84ZM16.77-17.06L19.03-17.06L19.03 0L16.77 0L16.77-17.06ZM18.57-9.73L26.41-9.73L26.41-7.89L18.57-7.89L18.57-9.73ZM18.57-17.06L27.49-17.06L27.49-15.21L18.57-15.21L18.57-17.06ZM37.71-0.50L39.16-1.96L43.50 1.48L41.98 2.88L37.71-0.50ZM43.44-9.07L43.44-9.07L43.44-7.99Q43.44-6.07 42.96-4.55Q42.48-3.02 41.58-1.96Q40.68-0.89 39.42-0.33Q38.16 0.23 36.60 0.23L36.60 0.23Q35.09 0.23 33.83-0.33Q32.57-0.89 31.65-1.96Q30.73-3.02 30.22-4.55Q29.72-6.07 29.72-7.99L29.72-7.99L29.72-9.07Q29.72-10.99 30.22-12.51Q30.71-14.03 31.63-15.10Q32.54-16.17 33.80-16.73Q35.06-17.30 36.57-17.30L36.57-17.30Q38.13-17.30 39.40-16.73Q40.66-16.17 41.57-15.10Q42.47-14.03 42.96-12.51Q43.44-10.99 43.44-9.07ZM41.20-7.99L41.20-7.99L41.20-9.09Q41.20-10.62 40.89-11.79Q40.58-12.96 39.98-13.76Q39.39-14.55 38.53-14.96Q37.68-15.38 36.57-15.38L36.57-15.38Q35.53-15.38 34.68-14.96Q33.83-14.55 33.22-13.76Q32.61-12.96 32.29-11.79Q31.96-10.62 31.96-9.09L31.96-9.09L31.96-7.99Q31.96-6.46 32.29-5.28Q32.61-4.10 33.23-3.30Q33.84-2.50 34.70-2.09Q35.55-1.68 36.60-1.68L36.60-1.68Q37.70-1.68 38.55-2.09Q39.41-2.50 40.00-3.30Q40.59-4.10 40.90-5.28Q41.20-6.46 41.20-7.99ZM56.68-5.52L56.68-17.06L58.93-17.06L58.93-5.52Q58.93-3.60 58.08-2.32Q57.22-1.04 55.81-0.40Q54.40 0.23 52.75 0.23L52.75 0.23Q51.01 0.23 49.61-0.40Q48.21-1.04 47.40-2.32Q46.58-3.60 46.58-5.52L46.58-5.52L46.58-17.06L48.82-17.06L48.82-5.52Q48.82-4.18 49.31-3.32Q49.80-2.45 50.69-2.03Q51.57-1.61 52.75-1.61L52.75-1.61Q53.93-1.61 54.81-2.03Q55.70-2.45 56.19-3.32Q56.68-4.18 56.68-5.52L56.68-5.52ZM62.65-17.06L64.91-17.06L64.91 0L62.65 0L62.65-17.06ZM69.01 0L69.01-17.06L74.66-17.06Q76.58-17.06 77.91-16.48Q79.24-15.89 79.94-14.75Q80.64-13.61 80.64-11.94L80.64-11.94Q80.64-10.77 80.16-9.80Q79.69-8.84 78.80-8.16Q77.92-7.49 76.69-7.16L76.69-7.16L76.05-6.91L70.75-6.91L70.72-8.75L74.73-8.75Q75.95-8.75 76.76-9.18Q77.57-9.61 77.98-10.34Q78.39-11.06 78.39-11.94L78.39-11.94Q78.39-12.93 78-13.66Q77.61-14.40 76.79-14.81Q75.96-15.21 74.66-15.21L74.66-15.21L71.27-15.21L71.27 0L69.01 0ZM81.40 0L78.98 0L74.84-7.73L77.19-7.75L81.40-0.14L81.40 0ZM85.61-1.84L94.64-1.84L94.64 0L85.61 0L85.61-1.84ZM83.80-17.06L86.06-17.06L86.06 0L83.80 0L83.80-17.06ZM85.61-9.73L93.45-9.73L93.45-7.89L85.61-7.89L85.61-9.73ZM85.61-17.06L94.52-17.06L94.52-15.21L85.61-15.21L85.61-17.06ZM102.06 0L102.06 0L98.50 0L98.52-1.84L102.06-1.84Q103.89-1.84 105.11-2.61Q106.32-3.38 106.94-4.76Q107.55-6.15 107.55-8.02L107.55-8.02L107.55-9.06Q107.55-10.52 107.20-11.67Q106.85-12.81 106.17-13.60Q105.49-14.39 104.51-14.80Q103.54-15.21 102.27-15.21L102.27-15.21L98.43-15.21L98.43-17.06L102.27-17.06Q103.95-17.06 105.33-16.51Q106.71-15.95 107.71-14.90Q108.71-13.85 109.25-12.37Q109.79-10.89 109.79-9.04L109.79-9.04L109.79-8.02Q109.79-6.16 109.25-4.68Q108.71-3.20 107.70-2.16Q106.69-1.11 105.26-0.56Q103.84 0 102.06 0ZM97.44-17.06L99.70-17.06L99.70 0L97.44 0L97.44-17.06ZM112.77-1.15L112.77-1.15Q112.77-1.70 113.12-2.08Q113.46-2.46 114.12-2.46L114.12-2.46Q114.77-2.46 115.12-2.08Q115.46-1.70 115.46-1.15L115.46-1.15Q115.46-0.61 115.12-0.23Q114.77 0.14 114.12 0.14L114.12 0.14Q113.46 0.14 113.12-0.23Q112.77-0.61 112.77-1.15ZM112.78-11.50L112.78-11.50Q112.78-12.05 113.13-12.43Q113.47-12.81 114.13-12.81L114.13-12.81Q114.79-12.81 115.13-12.43Q115.48-12.05 115.48-11.50L115.48-11.50Q115.48-10.96 115.13-10.58Q114.79-10.21 114.13-10.21L114.13-10.21Q113.47-10.21 113.13-10.58Q112.78-10.96 112.78-11.50ZM135.84-17.06L138.08-17.06L138.08 0L135.81 0L127.22-13.16L127.22 0L124.96 0L124.96-17.06L127.22-17.06L135.84-3.87L135.84-17.06ZM155.21-9.07L155.21-9.07L155.21-7.99Q155.21-6.07 154.73-4.55Q154.25-3.02 153.35-1.96Q152.45-0.89 151.19-0.33Q149.93 0.23 148.37 0.23L148.37 0.23Q146.86 0.23 145.60-0.33Q144.34-0.89 143.42-1.96Q142.50-3.02 142.00-4.55Q141.49-6.07 141.49-7.99L141.49-7.99L141.49-9.07Q141.49-10.99 141.99-12.51Q142.49-14.03 143.40-15.10Q144.32-16.17 145.58-16.73Q146.84-17.30 148.35-17.30L148.35-17.30Q149.91-17.30 151.17-16.73Q152.43-16.17 153.33-15.10Q154.24-14.03 154.73-12.51Q155.21-10.99 155.21-9.07ZM152.98-7.99L152.98-7.99L152.98-9.09Q152.98-10.62 152.67-11.79Q152.36-12.96 151.76-13.76Q151.16-14.55 150.30-14.96Q149.44-15.38 148.35-15.38L148.35-15.38Q147.29-15.38 146.44-14.96Q145.59-14.55 144.99-13.76Q144.39-12.96 144.06-11.79Q143.73-10.62 143.73-9.09L143.73-9.09L143.73-7.99Q143.73-6.46 144.06-5.28Q144.39-4.10 145.00-3.30Q145.62-2.50 146.47-2.09Q147.32-1.68 148.37-1.68L148.37-1.68Q149.47-1.68 150.33-2.09Q151.18-2.50 151.78-3.30Q152.37-4.10 152.67-5.28Q152.98-6.46 152.98-7.99ZM169.48-17.06L171.71-17.06L171.71 0L169.44 0L160.85-13.16L160.85 0L158.59 0L158.59-17.06L160.85-17.06L169.48-3.87L169.48-17.06ZM177.52-1.84L186.55-1.84L186.55 0L177.52 0L177.52-1.84ZM175.71-17.06L177.97-17.06L177.97 0L175.71 0L175.71-17.06ZM177.52-9.73L185.36-9.73L185.36-7.89L177.52-7.89L177.52-9.73ZM177.52-17.06L186.43-17.06L186.43-15.21L177.52-15.21L177.52-17.06Z" fill="#333333"/></g>
        
        <g transform="translate(674, 985)"><path d="M15.12-9.07L15.12-9.07L15.12-7.99Q15.12-6.07 14.64-4.55Q14.16-3.02 13.25-1.96Q12.35-0.89 11.09-0.33Q9.83 0.23 8.27 0.23L8.27 0.23Q6.76 0.23 5.50-0.33Q4.24-0.89 3.32-1.96Q2.40-3.02 1.90-4.55Q1.39-6.07 1.39-7.99L1.39-7.99L1.39-9.07Q1.39-10.99 1.89-12.51Q2.39-14.03 3.30-15.10Q4.22-16.17 5.48-16.73Q6.74-17.30 8.25-17.30L8.25-17.30Q9.81-17.30 11.07-16.73Q12.33-16.17 13.24-15.10Q14.14-14.03 14.63-12.51Q15.12-10.99 15.12-9.07ZM12.88-7.99L12.88-7.99L12.88-9.09Q12.88-10.62 12.57-11.79Q12.26-12.96 11.66-13.76Q11.06-14.55 10.20-14.96Q9.34-15.38 8.25-15.38L8.25-15.38Q7.20-15.38 6.35-14.96Q5.50-14.55 4.89-13.76Q4.29-12.96 3.96-11.79Q3.63-10.62 3.63-9.09L3.63-9.09L3.63-7.99Q3.63-6.46 3.96-5.28Q4.29-4.10 4.90-3.30Q5.52-2.50 6.37-2.09Q7.22-1.68 8.27-1.68L8.27-1.68Q9.38-1.68 10.23-2.09Q11.09-2.50 11.68-3.30Q12.27-4.10 12.57-5.28Q12.88-6.46 12.88-7.99ZM18.49 0L18.49-17.06L24.14-17.06Q26.06-17.06 27.39-16.48Q28.72-15.89 29.42-14.75Q30.12-13.61 30.12-11.94L30.12-11.94Q30.12-10.77 29.64-9.80Q29.17-8.84 28.28-8.16Q27.40-7.49 26.17-7.16L26.17-7.16L25.54-6.91L20.23-6.91L20.20-8.75L24.21-8.75Q25.43-8.75 26.24-9.18Q27.05-9.61 27.46-10.34Q27.87-11.06 27.87-11.94L27.87-11.94Q27.87-12.93 27.48-13.66Q27.09-14.40 26.27-14.81Q25.44-15.21 24.14-15.21L24.14-15.21L20.75-15.21L20.75 0L18.49 0ZM30.88 0L28.46 0L24.32-7.73L26.67-7.75L30.88-0.14L30.88 0ZM33.45-17.06L35.71-17.06L35.71 0L33.45 0L33.45-17.06ZM46.22-8.50L52.42-8.50L52.42-2.25Q52.10-1.78 51.41-1.20Q50.72-0.62 49.51-0.19Q48.29 0.23 46.38 0.23L46.38 0.23Q44.82 0.23 43.52-0.31Q42.21-0.86 41.26-1.90Q40.30-2.95 39.78-4.46Q39.26-5.96 39.26-7.88L39.26-7.88L39.26-9.20Q39.26-11.11 39.71-12.61Q40.16-14.11 41.04-15.16Q41.92-16.21 43.20-16.75Q44.47-17.30 46.13-17.30L46.13-17.30Q48.08-17.30 49.40-16.62Q50.72-15.95 51.46-14.77Q52.21-13.58 52.42-12.07L52.42-12.07L50.16-12.07Q50.00-13.00 49.55-13.76Q49.10-14.52 48.27-14.98Q47.44-15.45 46.13-15.45L46.13-15.45Q44.94-15.45 44.07-15.01Q43.21-14.58 42.64-13.77Q42.08-12.96 41.81-11.81Q41.53-10.66 41.53-9.22L41.53-9.22L41.53-7.88Q41.53-6.40 41.88-5.24Q42.22-4.08 42.87-3.26Q43.51-2.45 44.41-2.03Q45.30-1.61 46.39-1.61L46.39-1.61Q47.60-1.61 48.35-1.81Q49.10-2.02 49.52-2.30Q49.95-2.59 50.17-2.85L50.17-2.85L50.17-6.67L46.22-6.67L46.22-8.50ZM56.32-17.06L58.58-17.06L58.58 0L56.32 0L56.32-17.06ZM73.57-17.06L75.81-17.06L75.81 0L73.54 0L64.95-13.16L64.95 0L62.68 0L62.68-17.06L64.95-17.06L73.57-3.87L73.57-17.06ZM86.16-17.06L86.12-15.55L80.47 0L78.16 0L84.67-17.06L86.16-17.06ZM93.18 0L90.86 0L85.20-15.55L85.16-17.06L86.65-17.06L93.18 0ZM80.98-6.32L90.56-6.32L90.56-4.46L80.98-4.46L80.98-6.32ZM97.28-1.84L105.81-1.84L105.81 0L97.28 0L97.28-1.84ZM95.46-17.06L97.72-17.06L97.72 0L95.46 0L95.46-17.06Z" fill="#333333"/></g>
        
        <g transform="translate(674, 1020)"><path d="M11.11-22.75L11.06-20.73L3.53 0L0.45 0L9.13-22.75L11.11-22.75ZM20.47 0L17.38 0L9.83-20.73L9.78-22.75L11.77-22.75L20.47 0ZM4.20-8.42L16.98-8.42L16.98-5.95L4.20-5.95L4.20-8.42ZM33.98 0L33.73-3.28L33.73-24L36.64-24L36.64 0L33.98 0ZM22.36-8.27L22.36-8.27L22.36-8.59Q22.36-10.53 22.84-12.12Q23.31-13.70 24.20-14.84Q25.08-15.98 26.30-16.60Q27.53-17.22 29.05-17.22L29.05-17.22Q30.64-17.22 31.84-16.66Q33.03-16.11 33.87-15.05Q34.70-14 35.19-12.52Q35.67-11.03 35.86-9.16L35.86-9.16L35.86-7.72Q35.69-5.86 35.20-4.38Q34.70-2.89 33.87-1.84Q33.03-0.80 31.83-0.24Q30.63 0.31 29.02 0.31L29.02 0.31Q27.53 0.31 26.30-0.33Q25.08-0.97 24.20-2.13Q23.31-3.28 22.84-4.85Q22.36-6.42 22.36-8.27ZM25.27-8.59L25.27-8.59L25.27-8.27Q25.27-7 25.52-5.89Q25.78-4.78 26.33-3.94Q26.88-3.09 27.72-2.62Q28.56-2.14 29.73-2.14L29.73-2.14Q31.17-2.14 32.10-2.75Q33.03-3.36 33.59-4.36Q34.16-5.36 34.47-6.53L34.47-6.53L34.47-10.30Q34.28-11.16 33.93-11.96Q33.58-12.77 33.02-13.40Q32.47-14.03 31.66-14.41Q30.86-14.78 29.77-14.78L29.77-14.78Q28.58-14.78 27.73-14.29Q26.88-13.80 26.33-12.95Q25.78-12.09 25.52-10.98Q25.27-9.86 25.27-8.59ZM43.94-16.91L44.02-14.25L44.02 0L41.13 0L41.13-16.91L43.94-16.91ZM49.30-17L49.30-17L49.28-14.31Q48.92-14.39 48.60-14.41Q48.28-14.44 47.88-14.44L47.88-14.44Q46.88-14.44 46.11-14.13Q45.34-13.81 44.81-13.25Q44.28-12.69 43.98-11.91Q43.67-11.14 43.58-10.22L43.58-10.22L42.77-9.75Q42.77-11.28 43.07-12.63Q43.38-13.97 44.02-15.01Q44.66-16.05 45.65-16.63Q46.64-17.22 48.02-17.22L48.02-17.22Q48.33-17.22 48.73-17.15Q49.14-17.08 49.30-17ZM52.20-16.91L55.11-16.91L55.11 0L52.20 0L52.20-16.91ZM51.98-21.39L51.98-21.39Q51.98-22.09 52.41-22.58Q52.84-23.06 53.69-23.06L53.69-23.06Q54.52-23.06 54.96-22.58Q55.41-22.09 55.41-21.39L55.41-21.39Q55.41-20.72 54.96-20.24Q54.52-19.77 53.69-19.77L53.69-19.77Q52.84-19.77 52.41-20.24Q51.98-20.72 51.98-21.39ZM69.72-2.89L69.72-2.89L69.72-11.59Q69.72-12.59 69.32-13.34Q68.92-14.08 68.13-14.48Q67.33-14.89 66.16-14.89L66.16-14.89Q65.06-14.89 64.24-14.52Q63.42-14.14 62.96-13.53Q62.50-12.92 62.50-12.22L62.50-12.22L59.61-12.22Q59.61-13.13 60.08-14.02Q60.55-14.91 61.43-15.63Q62.31-16.36 63.55-16.79Q64.80-17.22 66.33-17.22L66.33-17.22Q68.17-17.22 69.59-16.59Q71-15.97 71.80-14.71Q72.61-13.45 72.61-11.56L72.61-11.56L72.61-3.69Q72.61-2.84 72.76-1.89Q72.91-0.94 73.20-0.25L73.20-0.25L73.20 0L70.19 0Q69.97-0.50 69.84-1.34Q69.72-2.17 69.72-2.89ZM66.86-10.25L70.22-10.25L70.25-8.22L67.33-8.22Q66.09-8.22 65.13-8.02Q64.16-7.83 63.50-7.44Q62.84-7.05 62.50-6.46Q62.16-5.88 62.16-5.09L62.16-5.09Q62.16-4.30 62.52-3.64Q62.88-2.98 63.60-2.60Q64.33-2.22 65.39-2.22L65.39-2.22Q66.72-2.22 67.73-2.78Q68.75-3.34 69.35-4.16Q69.95-4.97 70-5.73L70-5.73L71.23-4.34Q71.13-3.69 70.64-2.89Q70.16-2.09 69.35-1.37Q68.55-0.64 67.45-0.16Q66.34 0.31 64.97 0.31L64.97 0.31Q63.25 0.31 61.96-0.36Q60.67-1.03 59.96-2.16Q59.25-3.30 59.25-4.70L59.25-4.70Q59.25-6.06 59.78-7.10Q60.31-8.14 61.31-8.84Q62.31-9.53 63.72-9.89Q65.13-10.25 66.86-10.25L66.86-10.25ZM79.89-16.91L80.05-13.30L80.05 0L77.16 0L77.16-16.91L79.89-16.91ZM79.36-9.09L79.36-9.09L78.16-9.14Q78.17-10.88 78.67-12.35Q79.17-13.83 80.08-14.92Q80.98-16.02 82.24-16.62Q83.50-17.22 85.03-17.22L85.03-17.22Q86.28-17.22 87.28-16.88Q88.28-16.55 88.99-15.81Q89.70-15.08 90.08-13.91Q90.45-12.75 90.45-11.08L90.45-11.08L90.45 0L87.55 0L87.55-11.11Q87.55-12.44 87.16-13.24Q86.77-14.05 86.02-14.41Q85.27-14.78 84.17-14.78L84.17-14.78Q83.09-14.78 82.21-14.33Q81.33-13.88 80.70-13.08Q80.06-12.28 79.71-11.26Q79.36-10.23 79.36-9.09Z" fill="#333333"/></g>
        
        <g transform="translate(674, 1055)"><path d="M5.06-2.45L16.44-2.45L16.44 0L5.06 0L5.06-2.45ZM2.64-22.75L5.66-22.75L5.66 0L2.64 0L2.64-22.75ZM28.34-22.75L28.30-20.73L20.77 0L17.69 0L26.36-22.75L28.34-22.75ZM37.70 0L34.61 0L27.06-20.73L27.02-22.75L29-22.75L37.70 0ZM21.44-8.42L34.22-8.42L34.22-5.95L21.44-5.95L21.44-8.42ZM49.94-11.38L48.86-10.64L43.09-10.64L43.06-13.06L48.30-13.06Q49.59-13.06 50.56-13.50Q51.53-13.94 52.07-14.76Q52.61-15.58 52.61-16.72L52.61-16.72Q52.61-17.97 52.13-18.76Q51.66-19.55 50.68-19.91Q49.70-20.28 48.20-20.28L48.20-20.28L43.77-20.28L43.77 0L40.75 0L40.75-22.75L48.20-22.75Q49.95-22.75 51.33-22.40Q52.70-22.05 53.66-21.30Q54.63-20.56 55.13-19.42Q55.63-18.28 55.63-16.69L55.63-16.69Q55.63-15.28 54.91-14.15Q54.19-13.02 52.91-12.30Q51.64-11.58 49.94-11.38L49.94-11.38ZM48.72 0L48.72 0L41.91 0L43.61-2.45L48.72-2.45Q50.16-2.45 51.16-2.95Q52.17-3.45 52.70-4.37Q53.23-5.28 53.23-6.53L53.23-6.53Q53.23-7.80 52.78-8.72Q52.33-9.64 51.36-10.14Q50.39-10.64 48.86-10.64L48.86-10.64L44.56-10.64L44.59-13.06L50.47-13.06L51.11-12.19Q52.75-12.05 53.89-11.26Q55.03-10.47 55.63-9.25Q56.23-8.03 56.23-6.56L56.23-6.56Q56.23-4.44 55.30-2.98Q54.38-1.52 52.69-0.76Q51 0 48.72 0Z" fill="#ff69b4"/></g>
        
        <!-- Leyenda -->
        <text x="10" y="20" font-family="Arial" font-size="12" fill="#000000">
          Rojo: Centros | Verde: Izquierda | Azul: Derecha
        </text>
      </svg>
    