<?xml version="1.0" encoding="UTF-8"?>
<!-- Beta Tester Cap · AdrianLAB test drop · 37x37 -->
<svg xmlns="http://www.w3.org/2000/svg" width="37" height="37" viewBox="0 0 37 37">
  <style>
    rect { shape-rendering: crispEdges; }
    svg { image-rendering: pixelated; image-rendering: -moz-crisp-edges; image-rendering: crisp-edges; }
  </style>
  <g id="pixels">
    <rect x="17.00" y="1.00" width="3.00" height="1" fill="rgba(0,0,0,1.000)"/>
    <rect x="14.00" y="2.00" width="4.00" height="1" fill="rgba(0,0,0,1.000)"/>
    <rect x="18.00" y="2.00" width="1.00" height="1" fill="rgba(255,102,204,1.000)"/>
    <rect x="19.00" y="2.00" width="1.00" height="1" fill="rgba(200,50,150,1.000)"/>
    <rect x="20.00" y="2.00" width="4.00" height="1" fill="rgba(0,0,0,1.000)"/>
    <rect x="12.00" y="3.00" width="2.00" height="1" fill="rgba(0,0,0,1.000)"/>
    <rect x="14.00" y="3.00" width="1.00" height="1" fill="rgba(0,70,15,1.000)"/>
    <rect x="15.00" y="3.00" width="1.00" height="1" fill="rgba(0,120,25,1.000)"/>
    <rect x="16.00" y="3.00" width="2.00" height="1" fill="rgba(0,195,40,1.000)"/>
    <rect x="18.00" y="3.00" width="1.00" height="1" fill="rgba(0,255,0,1.000)"/>
    <rect x="19.00" y="3.00" width="1.00" height="1" fill="rgba(255,102,204,1.000)"/>
    <rect x="20.00" y="3.00" width="4.00" height="1" fill="rgba(0,255,0,1.000)"/>
    <rect x="24.00" y="3.00" width="2.00" height="1" fill="rgba(0,0,0,1.000)"/>
    <rect x="11.00" y="4.00" width="1.00" height="1" fill="rgba(0,0,0,1.000)"/>
    <rect x="12.00" y="4.00" width="1.00" height="1" fill="rgba(0,70,15,1.000)"/>
    <rect x="13.00" y="4.00" width="2.00" height="1" fill="rgba(0,120,25,1.000)"/>
    <rect x="15.00" y="4.00" width="2.00" height="1" fill="rgba(0,195,40,1.000)"/>
    <rect x="17.00" y="4.00" width="7.00" height="1" fill="rgba(0,255,0,1.000)"/>
    <rect x="24.00" y="4.00" width="2.00" height="1" fill="rgba(180,255,180,1.000)"/>
    <rect x="26.00" y="4.00" width="1.00" height="1" fill="rgba(0,0,0,1.000)"/>
    <rect x="10.00" y="5.00" width="1.00" height="1" fill="rgba(0,0,0,1.000)"/>
    <rect x="11.00" y="5.00" width="1.00" height="1" fill="rgba(0,70,15,1.000)"/>
    <rect x="12.00" y="5.00" width="2.00" height="1" fill="rgba(0,120,25,1.000)"/>
    <rect x="14.00" y="5.00" width="3.00" height="1" fill="rgba(0,195,40,1.000)"/>
    <rect x="17.00" y="5.00" width="2.00" height="1" fill="rgba(0,255,0,1.000)"/>
    <rect x="19.00" y="5.00" width="3.00" height="1" fill="rgba(255,102,204,1.000)"/>
    <rect x="22.00" y="5.00" width="3.00" height="1" fill="rgba(0,255,0,1.000)"/>
    <rect x="25.00" y="5.00" width="1.00" height="1" fill="rgba(180,255,180,1.000)"/>
    <rect x="26.00" y="5.00" width="1.00" height="1" fill="rgba(0,0,0,1.000)"/>
    <rect x="10.00" y="6.00" width="1.00" height="1" fill="rgba(0,0,0,1.000)"/>
    <rect x="11.00" y="6.00" width="1.00" height="1" fill="rgba(0,70,15,1.000)"/>
    <rect x="12.00" y="6.00" width="2.00" height="1" fill="rgba(0,120,25,1.000)"/>
    <rect x="14.00" y="6.00" width="2.00" height="1" fill="rgba(0,195,40,1.000)"/>
    <rect x="16.00" y="6.00" width="2.00" height="1" fill="rgba(0,255,0,1.000)"/>
    <rect x="18.00" y="6.00" width="1.00" height="1" fill="rgba(255,102,204,1.000)"/>
    <rect x="19.00" y="6.00" width="3.00" height="1" fill="rgba(0,255,0,1.000)"/>
    <rect x="22.00" y="6.00" width="1.00" height="1" fill="rgba(255,102,204,1.000)"/>
    <rect x="23.00" y="6.00" width="2.00" height="1" fill="rgba(0,255,0,1.000)"/>
    <rect x="25.00" y="6.00" width="1.00" height="1" fill="rgba(180,255,180,1.000)"/>
    <rect x="26.00" y="6.00" width="1.00" height="1" fill="rgba(0,0,0,1.000)"/>
    <rect x="10.00" y="7.00" width="1.00" height="1" fill="rgba(0,0,0,1.000)"/>
    <rect x="11.00" y="7.00" width="1.00" height="1" fill="rgba(0,70,15,1.000)"/>
    <rect x="12.00" y="7.00" width="2.00" height="1" fill="rgba(0,120,25,1.000)"/>
    <rect x="14.00" y="7.00" width="2.00" height="1" fill="rgba(0,195,40,1.000)"/>
    <rect x="16.00" y="7.00" width="2.00" height="1" fill="rgba(0,255,0,1.000)"/>
    <rect x="18.00" y="7.00" width="1.00" height="1" fill="rgba(255,102,204,1.000)"/>
    <rect x="19.00" y="7.00" width="3.00" height="1" fill="rgba(0,255,0,1.000)"/>
    <rect x="22.00" y="7.00" width="1.00" height="1" fill="rgba(255,102,204,1.000)"/>
    <rect x="23.00" y="7.00" width="3.00" height="1" fill="rgba(0,255,0,1.000)"/>
    <rect x="26.00" y="7.00" width="1.00" height="1" fill="rgba(0,0,0,1.000)"/>
    <rect x="10.00" y="8.00" width="1.00" height="1" fill="rgba(0,0,0,1.000)"/>
    <rect x="11.00" y="8.00" width="1.00" height="1" fill="rgba(0,70,15,1.000)"/>
    <rect x="12.00" y="8.00" width="2.00" height="1" fill="rgba(0,120,25,1.000)"/>
    <rect x="14.00" y="8.00" width="3.00" height="1" fill="rgba(0,195,40,1.000)"/>
    <rect x="17.00" y="8.00" width="2.00" height="1" fill="rgba(0,255,0,1.000)"/>
    <rect x="19.00" y="8.00" width="3.00" height="1" fill="rgba(255,102,204,1.000)"/>
    <rect x="22.00" y="8.00" width="4.00" height="1" fill="rgba(0,255,0,1.000)"/>
    <rect x="26.00" y="8.00" width="5.00" height="1" fill="rgba(0,0,0,1.000)"/>
    <rect x="10.00" y="9.00" width="1.00" height="1" fill="rgba(0,0,0,1.000)"/>
    <rect x="11.00" y="9.00" width="2.00" height="1" fill="rgba(0,70,15,1.000)"/>
    <rect x="13.00" y="9.00" width="3.00" height="1" fill="rgba(0,120,25,1.000)"/>
    <rect x="16.00" y="9.00" width="5.00" height="1" fill="rgba(0,195,40,1.000)"/>
    <rect x="21.00" y="9.00" width="6.00" height="1" fill="rgba(0,255,0,1.000)"/>
    <rect x="27.00" y="9.00" width="4.00" height="1" fill="rgba(180,255,180,1.000)"/>
    <rect x="31.00" y="9.00" width="2.00" height="1" fill="rgba(0,0,0,1.000)"/>
    <rect x="10.00" y="10.00" width="14.00" height="1" fill="rgba(0,0,0,1.000)"/>
    <rect x="24.00" y="10.00" width="8.00" height="1" fill="rgba(0,150,30,1.000)"/>
    <rect x="32.00" y="10.00" width="1.00" height="1" fill="rgba(0,0,0,1.000)"/>
    <rect x="24.00" y="11.00" width="8.00" height="1" fill="rgba(0,0,0,1.000)"/>
  </g>
</svg>
