<svg xmlns="http://www.w3.org/2000/svg" width="37.925" height="37.925" shape-rendering="crispEdges" style="image-rendering: pixelated;">
<rect x="17.425" y="1.025" width="1.025" height="1.025" fill="#ffed00" fill-opacity="0.361" />
<rect x="27.675" y="1.025" width="1.025" height="1.025" fill="#ffed00" fill-opacity="0.078" />
<rect x="16.400" y="2.050" width="1.025" height="1.025" fill="#ccc01a" fill-opacity="0.882" />
<rect x="18.450" y="2.050" width="1.025" height="1.025" fill="#ffed00" />
<rect x="20.500" y="2.050" width="1.025" height="1.025" fill="#ffffff" fill-opacity="0.361" />
<rect x="21.525" y="2.050" width="1.025" height="1.025" fill="#ffed00" />
<rect x="22.550" y="2.050" width="1.025" height="1.025" fill="#ffed00" />
<rect x="23.575" y="2.050" width="1.025" height="1.025" fill="#ffed00" fill-opacity="0.910" />
<rect x="27.675" y="2.050" width="1.025" height="1.025" fill="#ffed00" fill-opacity="0.361" />
<rect x="13.325" y="3.075" width="1.025" height="1.025" fill="#ffed00" />
<rect x="14.350" y="3.075" width="1.025" height="1.025" fill="#ffed00" fill-opacity="0.737" />
<rect x="15.375" y="3.075" width="1.025" height="1.025" fill="#ffed00" />
<rect x="16.400" y="3.075" width="1.025" height="1.025" fill="#ffed00" />
<rect x="17.425" y="3.075" width="1.025" height="1.025" fill="#ffed00" fill-opacity="0.910" />
<rect x="18.450" y="3.075" width="1.025" height="1.025" fill="#ffffff" fill-opacity="0.592" />
<rect x="19.475" y="3.075" width="1.025" height="1.025" fill="#ffed00" fill-opacity="0.910" />
<rect x="20.500" y="3.075" width="1.025" height="1.025" fill="#ffed00" />
<rect x="21.525" y="3.075" width="1.025" height="1.025" fill="#ffed00" fill-opacity="0.592" />
<rect x="22.550" y="3.075" width="1.025" height="1.025" fill="#fffabb" fill-opacity="0.741" />
<rect x="23.575" y="3.075" width="1.025" height="1.025" fill="#ffed00" />
<rect x="24.600" y="3.075" width="1.025" height="1.025" fill="#ffed00" fill-opacity="0.910" />
<rect x="26.650" y="3.075" width="1.025" height="1.025" fill="#ffed00" fill-opacity="0.741" />
<rect x="13.325" y="4.100" width="1.025" height="1.025" fill="#ffed00" />
<rect x="14.350" y="4.100" width="1.025" height="1.025" fill="#ffed00" fill-opacity="0.910" />
<rect x="15.375" y="4.100" width="1.025" height="1.025" fill="#ffed00" fill-opacity="0.910" />
<rect x="16.400" y="4.100" width="1.025" height="1.025" fill="#ffed00" fill-opacity="0.910" />
<rect x="17.425" y="4.100" width="1.025" height="1.025" fill="#ffed00" />
<rect x="18.450" y="4.100" width="1.025" height="1.025" fill="#ffed00" fill-opacity="0.361" />
<rect x="19.475" y="4.100" width="1.025" height="1.025" fill="#ffed00" />
<rect x="20.500" y="4.100" width="1.025" height="1.025" fill="#ffffff" fill-opacity="0.361" />
<rect x="21.525" y="4.100" width="1.025" height="1.025" fill="#ffed00" />
<rect x="22.550" y="4.100" width="1.025" height="1.025" fill="#ffed00" fill-opacity="0.361" />
<rect x="23.575" y="4.100" width="1.025" height="1.025" fill="#ffed00" fill-opacity="0.741" />
<rect x="24.600" y="4.100" width="1.025" height="1.025" fill="#ffed00" />
<rect x="25.625" y="4.100" width="1.025" height="1.025" fill="#ffed00" fill-opacity="0.910" />
<rect x="11.275" y="5.125" width="1.025" height="1.025" fill="#ffed00" />
<rect x="12.300" y="5.125" width="1.025" height="1.025" fill="#ecdc0a" fill-opacity="0.788" />
<rect x="13.325" y="5.125" width="1.025" height="1.025" fill="#ffed00" fill-opacity="0.910" />
<rect x="14.350" y="5.125" width="1.025" height="1.025" fill="#ffed00" />
<rect x="15.375" y="5.125" width="1.025" height="1.025" fill="#ffffff" fill-opacity="0.361" />
<rect x="17.425" y="5.125" width="1.025" height="1.025" fill="#ffed00" />
<rect x="18.450" y="5.125" width="1.025" height="1.025" fill="#ffed00" fill-opacity="0.592" />
<rect x="19.475" y="5.125" width="1.025" height="1.025" fill="#ffed00" fill-opacity="0.592" />
<rect x="21.525" y="5.125" width="1.025" height="1.025" fill="#ffed00" />
<rect x="22.550" y="5.125" width="1.025" height="1.025" fill="#fffabb" fill-opacity="0.741" />
<rect x="23.575" y="5.125" width="1.025" height="1.025" fill="#ffed00" fill-opacity="0.361" />
<rect x="24.600" y="5.125" width="1.025" height="1.025" fill="#ffed00" fill-opacity="0.910" />
<rect x="25.625" y="5.125" width="1.025" height="1.025" fill="#ffed00" />
<rect x="12.300" y="6.150" width="1.025" height="1.025" fill="#ccc01a" fill-opacity="0.765" />
<rect x="13.325" y="6.150" width="1.025" height="1.025" fill="#eddd09" fill-opacity="0.800" />
<rect x="15.375" y="6.150" width="1.025" height="1.025" fill="#ffed00" />
<rect x="16.400" y="6.150" width="1.025" height="1.025" fill="#fff133" />
<rect x="17.425" y="6.150" width="1.025" height="1.025" fill="#ffed00" fill-opacity="0.910" />
<rect x="18.450" y="6.150" width="1.025" height="1.025" fill="#ffffff" fill-opacity="0.361" />
<rect x="19.475" y="6.150" width="1.025" height="1.025" fill="#ffed00" fill-opacity="0.910" />
<rect x="20.500" y="6.150" width="1.025" height="1.025" fill="#ffed00" />
<rect x="21.525" y="6.150" width="1.025" height="1.025" fill="#ffed00" fill-opacity="0.910" />
<rect x="23.575" y="6.150" width="1.025" height="1.025" fill="#ffed00" />
<rect x="24.600" y="6.150" width="1.025" height="1.025" fill="#ffed00" fill-opacity="0.910" />
<rect x="25.625" y="6.150" width="1.025" height="1.025" fill="#ffed00" />
<rect x="11.275" y="7.175" width="1.025" height="1.025" fill="#ffed00" fill-opacity="0.055" />
<rect x="12.300" y="7.175" width="1.025" height="1.025" fill="#ffed00" fill-opacity="0.024" />
<rect x="13.325" y="7.175" width="1.025" height="1.025" fill="#ffed00" fill-opacity="0.078" />
<rect x="15.375" y="7.175" width="1.025" height="1.025" fill="#ffed00" fill-opacity="0.565" />
<rect x="19.475" y="7.175" width="1.025" height="1.025" fill="#ffed00" />
<rect x="20.500" y="7.175" width="1.025" height="1.025" fill="#ffed00" fill-opacity="0.910" />
<rect x="22.550" y="7.175" width="1.025" height="1.025" fill="#ffed00" />
<rect x="23.575" y="7.175" width="1.025" height="1.025" fill="#ffed00" fill-opacity="0.910" />
<rect x="25.625" y="7.175" width="1.025" height="1.025" fill="#ffed00" />
<rect x="26.650" y="7.175" width="1.025" height="1.025" fill="#ffed00" fill-opacity="0.741" />
<rect x="11.275" y="8.200" width="1.025" height="1.025" fill="#ffed00" fill-opacity="0.910" />
<rect x="12.300" y="8.200" width="1.025" height="1.025" fill="#ffed00" fill-opacity="0.910" />
<rect x="13.325" y="8.200" width="1.025" height="1.025" fill="#ffed00" />
<rect x="14.350" y="8.200" width="1.025" height="1.025" fill="#ffed00" fill-opacity="0.910" />
<rect x="15.375" y="8.200" width="1.025" height="1.025" fill="#ffed00" fill-opacity="0.114" />
<rect x="16.400" y="8.200" width="1.025" height="1.025" fill="#ffed00" fill-opacity="0.016" />
<rect x="18.450" y="8.200" width="1.025" height="1.025" fill="#ffed00" />
<rect x="19.475" y="8.200" width="1.025" height="1.025" fill="#ffed00" fill-opacity="0.420" />
<rect x="21.525" y="8.200" width="1.025" height="1.025" fill="#ffed00" fill-opacity="0.910" />
<rect x="24.600" y="8.200" width="1.025" height="1.025" fill="#ffed00" />
<rect x="25.625" y="8.200" width="1.025" height="1.025" fill="#ffed00" fill-opacity="0.910" />
<rect x="26.650" y="8.200" width="1.025" height="1.025" fill="#ffed00" fill-opacity="0.592" />
<rect x="10.250" y="9.225" width="1.025" height="1.025" fill="#ffed00" />
<rect x="11.275" y="9.225" width="1.025" height="1.025" fill="#ffed00" fill-opacity="0.737" />
<rect x="12.300" y="9.225" width="1.025" height="1.025" fill="#ffed00" />
<rect x="13.325" y="9.225" width="1.025" height="1.025" fill="#ffed00" fill-opacity="0.737" />
<rect x="14.350" y="9.225" width="1.025" height="1.025" fill="#ffed00" />
<rect x="15.375" y="9.225" width="1.025" height="1.025" fill="#ffed00" fill-opacity="0.910" />
<rect x="24.600" y="9.225" width="1.025" height="1.025" fill="#ffed00" fill-opacity="0.420" />
<rect x="10.250" y="10.250" width="1.025" height="1.025" fill="#ffed00" />
<rect x="11.275" y="10.250" width="1.025" height="1.025" fill="#ffed00" fill-opacity="0.910" />
<rect x="12.300" y="10.250" width="1.025" height="1.025" fill="#ffed00" />
<rect x="13.325" y="10.250" width="1.025" height="1.025" fill="#ffed00" fill-opacity="0.910" />
<rect x="14.350" y="10.250" width="1.025" height="1.025" fill="#ffed00" />
<rect x="26.650" y="10.250" width="1.025" height="1.025" fill="#ffed00" fill-opacity="0.835" />
<rect x="10.250" y="11.275" width="1.025" height="1.025" fill="#ffed00" />
<rect x="11.275" y="11.275" width="1.025" height="1.025" fill="#ffed00" fill-opacity="0.910" />
<rect x="12.300" y="11.275" width="1.025" height="1.025" fill="#ffed00" fill-opacity="0.420" />
<rect x="13.325" y="11.275" width="1.025" height="1.025" fill="#ffed00" fill-opacity="0.737" />
<rect x="11.275" y="12.300" width="1.025" height="1.025" fill="#ffed00" fill-opacity="0.910" />
<rect x="12.300" y="12.300" width="1.025" height="1.025" fill="#ffed00" />
<rect x="13.325" y="12.300" width="1.025" height="1.025" fill="#ffed00" fill-opacity="0.737" />
<rect x="11.275" y="13.325" width="1.025" height="1.025" fill="#ffed00" />
</svg>