<svg xmlns="http://www.w3.org/2000/svg" width="37.925" height="37.925" shape-rendering="crispEdges" style="image-rendering: pixelated;">
<rect x="12.300" y="27.675" width="1.025" height="1.025" fill="#622200" />
<rect x="19.475" y="27.675" width="1.025" height="1.025" fill="#421800" />
<rect x="20.500" y="27.675" width="1.025" height="1.025" fill="#421800" />
<rect x="11.275" y="28.700" width="1.025" height="1.025" fill="#5d2000" />
<rect x="12.300" y="28.700" width="1.025" height="1.025" fill="#c54600" />
<rect x="13.325" y="28.700" width="1.025" height="1.025" fill="#ea5300" />
<rect x="14.350" y="28.700" width="1.025" height="1.025" fill="#a53b00" />
<rect x="15.375" y="28.700" width="1.025" height="1.025" fill="#622200" />
<rect x="16.400" y="28.700" width="1.025" height="1.025" fill="#421800" />
<rect x="18.450" y="28.700" width="1.025" height="1.025" fill="#3b1500" />
<rect x="19.475" y="28.700" width="1.025" height="1.025" fill="#f05500" />
<rect x="20.500" y="28.700" width="1.025" height="1.025" fill="#f05500" />
<rect x="21.525" y="28.700" width="1.025" height="1.025" fill="#421800" />
<rect x="9.225" y="29.725" width="1.025" height="1.025" fill="#4f1c00" />
<rect x="10.250" y="29.725" width="1.025" height="1.025" fill="#3c1500" />
<rect x="11.275" y="29.725" width="1.025" height="1.025" fill="#aa3c00" />
<rect x="12.300" y="29.725" width="1.025" height="1.025" fill="#421800" />
<rect x="13.325" y="29.725" width="1.025" height="1.025" fill="#f05500" />
<rect x="14.350" y="29.725" width="1.025" height="1.025" fill="#421800" />
<rect x="15.375" y="29.725" width="1.025" height="1.025" fill="#421800" />
<rect x="16.400" y="29.725" width="1.025" height="1.025" fill="#ea5300" />
<rect x="17.425" y="29.725" width="1.025" height="1.025" fill="#6d2600" />
<rect x="18.450" y="29.725" width="1.025" height="1.025" fill="#f05500" />
<rect x="19.475" y="29.725" width="1.025" height="1.025" fill="#662400" />
<rect x="20.500" y="29.725" width="1.025" height="1.025" fill="#f05500" />
<rect x="21.525" y="29.725" width="1.025" height="1.025" fill="#662400" />
<rect x="22.550" y="29.725" width="1.025" height="1.025" fill="#3a1400" />
<rect x="23.575" y="29.725" width="1.025" height="1.025" fill="#421800" />
<rect x="7.175" y="30.750" width="1.025" height="1.025" fill="#571f00" />
<rect x="8.200" y="30.750" width="1.025" height="1.025" fill="#4b1a00" />
<rect x="9.225" y="30.750" width="1.025" height="1.025" fill="#d54c00" />
<rect x="10.250" y="30.750" width="1.025" height="1.025" fill="#d74d00" />
<rect x="11.275" y="30.750" width="1.025" height="1.025" fill="#c84700" />
<rect x="12.300" y="30.750" width="1.025" height="1.025" fill="#c84700" />
<rect x="13.325" y="30.750" width="1.025" height="1.025" fill="#421800" />
<rect x="14.350" y="30.750" width="1.025" height="1.025" fill="#f05500" />
<rect x="15.375" y="30.750" width="1.025" height="1.025" fill="#ea5300" />
<rect x="16.400" y="30.750" width="1.025" height="1.025" fill="#ea5300" />
<rect x="17.425" y="30.750" width="1.025" height="1.025" fill="#6d2600" />
<rect x="18.450" y="30.750" width="1.025" height="1.025" fill="#421800" />
<rect x="19.475" y="30.750" width="1.025" height="1.025" fill="#e45200" />
<rect x="20.500" y="30.750" width="1.025" height="1.025" fill="#662400" />
<rect x="21.525" y="30.750" width="1.025" height="1.025" fill="#e25000" />
<rect x="22.550" y="30.750" width="1.025" height="1.025" fill="#cd4900" />
<rect x="23.575" y="30.750" width="1.025" height="1.025" fill="#bc4400" />
<rect x="24.600" y="30.750" width="1.025" height="1.025" fill="#3e1600" />
<rect x="25.625" y="30.750" width="1.025" height="1.025" fill="#421800" />
<rect x="6.150" y="31.775" width="1.025" height="1.025" fill="#5e2100" />
<rect x="7.175" y="31.775" width="1.025" height="1.025" fill="#812e00" />
<rect x="8.200" y="31.775" width="1.025" height="1.025" fill="#e25000" />
<rect x="9.225" y="31.775" width="1.025" height="1.025" fill="#f35600" />
<rect x="10.250" y="31.775" width="1.025" height="1.025" fill="#ea5300" />
<rect x="11.275" y="31.775" width="1.025" height="1.025" fill="#ee5500" />
<rect x="12.300" y="31.775" width="1.025" height="1.025" fill="#ee5500" />
<rect x="13.325" y="31.775" width="1.025" height="1.025" fill="#ea5300" />
<rect x="14.350" y="31.775" width="1.025" height="1.025" fill="#ea5300" />
<rect x="15.375" y="31.775" width="1.025" height="1.025" fill="#ee5500" />
<rect x="16.400" y="31.775" width="1.025" height="1.025" fill="#ea5300" />
<rect x="17.425" y="31.775" width="1.025" height="1.025" fill="#6d2600" />
<rect x="18.450" y="31.775" width="1.025" height="1.025" fill="#f05500" />
<rect x="19.475" y="31.775" width="1.025" height="1.025" fill="#f05500" />
<rect x="20.500" y="31.775" width="1.025" height="1.025" fill="#f05500" />
<rect x="21.525" y="31.775" width="1.025" height="1.025" fill="#ee5500" />
<rect x="22.550" y="31.775" width="1.025" height="1.025" fill="#e25000" />
<rect x="23.575" y="31.775" width="1.025" height="1.025" fill="#d74d00" />
<rect x="24.600" y="31.775" width="1.025" height="1.025" fill="#f05500" />
<rect x="25.625" y="31.775" width="1.025" height="1.025" fill="#d24b00" />
<rect x="26.650" y="31.775" width="1.025" height="1.025" fill="#3f1600" />
<rect x="5.125" y="32.800" width="1.025" height="1.025" fill="#4b1a00" />
<rect x="6.150" y="32.800" width="1.025" height="1.025" fill="#c74700" />
<rect x="7.175" y="32.800" width="1.025" height="1.025" fill="#bc4400" />
<rect x="8.200" y="32.800" width="1.025" height="1.025" fill="#df4e00" />
<rect x="9.225" y="32.800" width="1.025" height="1.025" fill="#f35600" />
<rect x="10.250" y="32.800" width="1.025" height="1.025" fill="#ee5500" />
<rect x="11.275" y="32.800" width="1.025" height="1.025" fill="#dd4f00" />
<rect x="12.300" y="32.800" width="1.025" height="1.025" fill="#ee5500" />
<rect x="13.325" y="32.800" width="1.025" height="1.025" fill="#f05500" />
<rect x="14.350" y="32.800" width="1.025" height="1.025" fill="#f05500" />
<rect x="15.375" y="32.800" width="1.025" height="1.025" fill="#f05500" />
<rect x="16.400" y="32.800" width="1.025" height="1.025" fill="#ea5300" />
<rect x="17.425" y="32.800" width="1.025" height="1.025" fill="#6d2600" />
<rect x="18.450" y="32.800" width="1.025" height="1.025" fill="#e75300" />
<rect x="19.475" y="32.800" width="1.025" height="1.025" fill="#f05500" />
<rect x="20.500" y="32.800" width="1.025" height="1.025" fill="#f05500" />
<rect x="21.525" y="32.800" width="1.025" height="1.025" fill="#f05500" />
<rect x="22.550" y="32.800" width="1.025" height="1.025" fill="#e75300" />
<rect x="23.575" y="32.800" width="1.025" height="1.025" fill="#e05000" />
<rect x="24.600" y="32.800" width="1.025" height="1.025" fill="#d74d00" />
<rect x="25.625" y="32.800" width="1.025" height="1.025" fill="#f35600" />
<rect x="26.650" y="32.800" width="1.025" height="1.025" fill="#cc4800" />
<rect x="27.675" y="32.800" width="1.025" height="1.025" fill="#421800" />
<rect x="5.125" y="33.825" width="1.025" height="1.025" fill="#571f00" />
<rect x="6.150" y="33.825" width="1.025" height="1.025" fill="#c84700" />
<rect x="7.175" y="33.825" width="1.025" height="1.025" fill="#b03e00" />
<rect x="8.200" y="33.825" width="1.025" height="1.025" fill="#e45200" />
<rect x="9.225" y="33.825" width="1.025" height="1.025" fill="#c54600" />
<rect x="10.250" y="33.825" width="1.025" height="1.025" fill="#6f2700" />
<rect x="11.275" y="33.825" width="1.025" height="1.025" fill="#be4300" />
<rect x="12.300" y="33.825" width="1.025" height="1.025" fill="#ee5500" />
<rect x="13.325" y="33.825" width="1.025" height="1.025" fill="#f65700" />
<rect x="14.350" y="33.825" width="1.025" height="1.025" fill="#f35600" />
<rect x="15.375" y="33.825" width="1.025" height="1.025" fill="#f05500" />
<rect x="16.400" y="33.825" width="1.025" height="1.025" fill="#f05500" />
<rect x="17.425" y="33.825" width="1.025" height="1.025" fill="#6d2600" />
<rect x="18.450" y="33.825" width="1.025" height="1.025" fill="#421800" />
<rect x="19.475" y="33.825" width="1.025" height="1.025" fill="#ffffff" />
<rect x="20.500" y="33.825" width="1.025" height="1.025" fill="#ffffff" />
<rect x="21.525" y="33.825" width="1.025" height="1.025" fill="#ffffff" />
<rect x="22.550" y="33.825" width="1.025" height="1.025" fill="#ffffff" />
<rect x="23.575" y="33.825" width="1.025" height="1.025" fill="#ffffff" />
<rect x="24.600" y="33.825" width="1.025" height="1.025" fill="#662400" />
<rect x="25.625" y="33.825" width="1.025" height="1.025" fill="#f35600" />
<rect x="26.650" y="33.825" width="1.025" height="1.025" fill="#cc4800" />
<rect x="27.675" y="33.825" width="1.025" height="1.025" fill="#3b1500" />
<rect x="5.125" y="34.850" width="1.025" height="1.025" fill="#571f00" />
<rect x="6.150" y="34.850" width="1.025" height="1.025" fill="#c84700" />
<rect x="7.175" y="34.850" width="1.025" height="1.025" fill="#b03e00" />
<rect x="8.200" y="34.850" width="1.025" height="1.025" fill="#e45200" />
<rect x="9.225" y="34.850" width="1.025" height="1.025" fill="#c54600" />
<rect x="10.250" y="34.850" width="1.025" height="1.025" fill="#321200" />
<rect x="11.275" y="34.850" width="1.025" height="1.025" fill="#772a00" />
<rect x="12.300" y="34.850" width="1.025" height="1.025" fill="#e25000" />
<rect x="13.325" y="34.850" width="1.025" height="1.025" fill="#cf4a00" />
<rect x="14.350" y="34.850" width="1.025" height="1.025" fill="#e45200" />
<rect x="15.375" y="34.850" width="1.025" height="1.025" fill="#f65700" />
<rect x="16.400" y="34.850" width="1.025" height="1.025" fill="#f05500" />
<rect x="17.425" y="34.850" width="1.025" height="1.025" fill="#6d2600" />
<rect x="18.450" y="34.850" width="1.025" height="1.025" fill="#be4300" />
<rect x="19.475" y="34.850" width="1.025" height="1.025" fill="#ffffff" />
<rect x="20.500" y="34.850" width="1.025" height="1.025" fill="#ffccb0" />
<rect x="21.525" y="34.850" width="1.025" height="1.025" fill="#ffccaf" />
<rect x="22.550" y="34.850" width="1.025" height="1.025" fill="#ffc5a5" />
<rect x="23.575" y="34.850" width="1.025" height="1.025" fill="#ffb691" />
<rect x="24.600" y="34.850" width="1.025" height="1.025" fill="#000000" />
<rect x="25.625" y="34.850" width="1.025" height="1.025" fill="#cd4900" />
<rect x="26.650" y="34.850" width="1.025" height="1.025" fill="#cc4800" />
<rect x="27.675" y="34.850" width="1.025" height="1.025" fill="#301100" />
<rect x="5.125" y="35.875" width="1.025" height="1.025" fill="#571f00" />
<rect x="6.150" y="35.875" width="1.025" height="1.025" fill="#c84700" />
<rect x="7.175" y="35.875" width="1.025" height="1.025" fill="#b03e00" />
<rect x="8.200" y="35.875" width="1.025" height="1.025" fill="#e45200" />
<rect x="9.225" y="35.875" width="1.025" height="1.025" fill="#c54600" />
<rect x="10.250" y="35.875" width="1.025" height="1.025" fill="#000000" />
<rect x="11.275" y="35.875" width="1.025" height="1.025" fill="#3c1500" />
<rect x="12.300" y="35.875" width="1.025" height="1.025" fill="#a03800" />
<rect x="13.325" y="35.875" width="1.025" height="1.025" fill="#923400" />
<rect x="14.350" y="35.875" width="1.025" height="1.025" fill="#b54000" />
<rect x="15.375" y="35.875" width="1.025" height="1.025" fill="#e75300" />
<rect x="16.400" y="35.875" width="1.025" height="1.025" fill="#da4d00" />
<rect x="17.425" y="35.875" width="1.025" height="1.025" fill="#6d2600" />
<rect x="18.450" y="35.875" width="1.025" height="1.025" fill="#953500" />
<rect x="19.475" y="35.875" width="1.025" height="1.025" fill="#be4300" />
<rect x="20.500" y="35.875" width="1.025" height="1.025" fill="#e75300" />
<rect x="21.525" y="35.875" width="1.025" height="1.025" fill="#e45200" />
<rect x="22.550" y="35.875" width="1.025" height="1.025" fill="#9e3900" />
<rect x="23.575" y="35.875" width="1.025" height="1.025" fill="#662400" />
<rect x="24.600" y="35.875" width="1.025" height="1.025" fill="#130700" />
<rect x="25.625" y="35.875" width="1.025" height="1.025" fill="#c14400" />
<rect x="26.650" y="35.875" width="1.025" height="1.025" fill="#b13e00" />
<rect x="27.675" y="35.875" width="1.025" height="1.025" fill="#240c00" />
<rect x="5.125" y="36.900" width="1.025" height="1.025" fill="#612200" />
<rect x="6.150" y="36.900" width="1.025" height="1.025" fill="#bb4200" />
<rect x="7.175" y="36.900" width="1.025" height="1.025" fill="#b03e00" />
<rect x="8.200" y="36.900" width="1.025" height="1.025" fill="#e05000" />
<rect x="9.225" y="36.900" width="1.025" height="1.025" fill="#802d00" />
<rect x="10.250" y="36.900" width="1.025" height="1.025" fill="#000000" />
<rect x="11.275" y="36.900" width="1.025" height="1.025" fill="#3f1600" />
<rect x="12.300" y="36.900" width="1.025" height="1.025" fill="#662400" />
<rect x="13.325" y="36.900" width="1.025" height="1.025" fill="#8d3200" />
<rect x="14.350" y="36.900" width="1.025" height="1.025" fill="#903300" />
<rect x="15.375" y="36.900" width="1.025" height="1.025" fill="#a03800" />
<rect x="16.400" y="36.900" width="1.025" height="1.025" fill="#a53b00" />
<rect x="17.425" y="36.900" width="1.025" height="1.025" fill="#6d2600" />
<rect x="18.450" y="36.900" width="1.025" height="1.025" fill="#421800" />
<rect x="19.475" y="36.900" width="1.025" height="1.025" fill="#a23a00" />
<rect x="20.500" y="36.900" width="1.025" height="1.025" fill="#bc4400" />
<rect x="21.525" y="36.900" width="1.025" height="1.025" fill="#b94200" />
<rect x="22.550" y="36.900" width="1.025" height="1.025" fill="#a03800" />
<rect x="23.575" y="36.900" width="1.025" height="1.025" fill="#4c1b00" />
<rect x="24.600" y="36.900" width="1.025" height="1.025" fill="#000000" />
<rect x="25.625" y="36.900" width="1.025" height="1.025" fill="#c14400" />
<rect x="26.650" y="36.900" width="1.025" height="1.025" fill="#b13e00" />
<rect x="27.675" y="36.900" width="1.025" height="1.025" fill="#3b1500" />
</svg>