<svg xmlns="http://www.w3.org/2000/svg" width="37.925" height="37.925" shape-rendering="crispEdges" style="image-rendering: pixelated;">
<rect x="28.700" y="22.550" width="1.025" height="1.025" fill="#95c11f" />
<rect x="29.725" y="22.550" width="1.025" height="1.025" fill="#009640" />
<rect x="26.650" y="23.575" width="1.025" height="1.025" fill="#95c11f" />
<rect x="27.675" y="23.575" width="1.025" height="1.025" fill="#009640" />
<rect x="28.700" y="23.575" width="1.025" height="1.025" fill="#009640" />
<rect x="26.650" y="24.600" width="1.025" height="1.025" fill="#009640" />
<rect x="27.675" y="24.600" width="1.025" height="1.025" fill="#009640" />
<rect x="26.650" y="25.625" width="1.025" height="1.025" fill="#009640" />
<rect x="27.675" y="25.625" width="1.025" height="1.025" fill="#95c11f" />
<rect x="25.625" y="26.650" width="1.025" height="1.025" fill="#95c11f" />
<rect x="26.650" y="26.650" width="1.025" height="1.025" fill="#3aaa35" />
<rect x="27.675" y="26.650" width="1.025" height="1.025" fill="#3aaa35" />
<rect x="28.700" y="26.650" width="1.025" height="1.025" fill="#95c11f" />
<rect x="29.725" y="26.650" width="1.025" height="1.025" fill="#3aaa35" />
<rect x="30.750" y="26.650" width="1.025" height="1.025" fill="#009640" />
<rect x="23.575" y="27.675" width="1.025" height="1.025" fill="#eb600c" />
<rect x="24.600" y="27.675" width="1.025" height="1.025" fill="#3aaa35" />
<rect x="25.625" y="27.675" width="1.025" height="1.025" fill="#f39200" />
<rect x="26.650" y="27.675" width="1.025" height="1.025" fill="#fac703" />
<rect x="27.675" y="27.675" width="1.025" height="1.025" fill="#f6b103" />
<rect x="28.700" y="27.675" width="1.025" height="1.025" fill="#f18805" />
<rect x="29.725" y="27.675" width="1.025" height="1.025" fill="#f5a201" />
<rect x="30.750" y="27.675" width="1.025" height="1.025" fill="#f28d05" />
<rect x="31.775" y="27.675" width="1.025" height="1.025" fill="#3aaa35" />
<rect x="32.800" y="27.675" width="1.025" height="1.025" fill="#f39402" fill-opacity="0.996" />
<rect x="22.550" y="28.700" width="1.025" height="1.025" fill="#eb610b" />
<rect x="23.575" y="28.700" width="1.025" height="1.025" fill="#f39200" />
<rect x="24.600" y="28.700" width="1.025" height="1.025" fill="#f39200" />
<rect x="25.625" y="28.700" width="1.025" height="1.025" fill="#fee000" />
<rect x="26.650" y="28.700" width="1.025" height="1.025" fill="#f49304" />
<rect x="27.675" y="28.700" width="1.025" height="1.025" fill="#f6a704" />
<rect x="28.700" y="28.700" width="1.025" height="1.025" fill="#ef7d08" />
<rect x="29.725" y="28.700" width="1.025" height="1.025" fill="#f39200" />
<rect x="30.750" y="28.700" width="1.025" height="1.025" fill="#f6ac03" />
<rect x="31.775" y="28.700" width="1.025" height="1.025" fill="#f28f06" />
<rect x="32.800" y="28.700" width="1.025" height="1.025" fill="#f28d03" />
<rect x="33.825" y="28.700" width="1.025" height="1.025" fill="#fbd100" fill-opacity="0.996" />
<rect x="21.525" y="29.725" width="1.025" height="1.025" fill="#ea5b0c" />
<rect x="22.550" y="29.725" width="1.025" height="1.025" fill="#ed7008" />
<rect x="23.575" y="29.725" width="1.025" height="1.025" fill="#f39200" />
<rect x="24.600" y="29.725" width="1.025" height="1.025" fill="#f49400" />
<rect x="25.625" y="29.725" width="1.025" height="1.025" fill="#fcd001" />
<rect x="26.650" y="29.725" width="1.025" height="1.025" fill="#f28d04" />
<rect x="27.675" y="29.725" width="1.025" height="1.025" fill="#000000" />
<rect x="28.700" y="29.725" width="1.025" height="1.025" fill="#f07b07" />
<rect x="29.725" y="29.725" width="1.025" height="1.025" fill="#f39100" />
<rect x="30.750" y="29.725" width="1.025" height="1.025" fill="#f8c400" />
<rect x="31.775" y="29.725" width="1.025" height="1.025" fill="#151515" fill-opacity="0.600" />
<rect x="32.800" y="29.725" width="1.025" height="1.025" fill="#f28d02" />
<rect x="33.825" y="29.725" width="1.025" height="1.025" fill="#f7b100" />
<rect x="21.525" y="30.750" width="1.025" height="1.025" fill="#ea5b0c" />
<rect x="22.550" y="30.750" width="1.025" height="1.025" fill="#f39101" />
<rect x="23.575" y="30.750" width="1.025" height="1.025" fill="#f5a600" />
<rect x="24.600" y="30.750" width="1.025" height="1.025" fill="#fac003" />
<rect x="25.625" y="30.750" width="1.025" height="1.025" fill="#f08008" />
<rect x="26.650" y="30.750" width="1.025" height="1.025" fill="#060606" fill-opacity="0.600" />
<rect x="27.675" y="30.750" width="1.025" height="1.025" fill="#2d2d2d" fill-opacity="0.600" />
<rect x="28.700" y="30.750" width="1.025" height="1.025" fill="#000000" />
<rect x="29.725" y="30.750" width="1.025" height="1.025" fill="#f28d00" />
<rect x="30.750" y="30.750" width="1.025" height="1.025" fill="#151515" fill-opacity="0.600" />
<rect x="31.775" y="30.750" width="1.025" height="1.025" fill="#151515" fill-opacity="0.600" />
<rect x="32.800" y="30.750" width="1.025" height="1.025" fill="#000000" />
<rect x="33.825" y="30.750" width="1.025" height="1.025" fill="#f39700" />
<rect x="34.850" y="30.750" width="1.025" height="1.025" fill="#f9dc01" fill-opacity="0.984" />
<rect x="21.525" y="31.775" width="1.025" height="1.025" fill="#ea5d0c" />
<rect x="22.550" y="31.775" width="1.025" height="1.025" fill="#f39200" />
<rect x="23.575" y="31.775" width="1.025" height="1.025" fill="#f6a900" />
<rect x="24.600" y="31.775" width="1.025" height="1.025" fill="#f9be02" />
<rect x="25.625" y="31.775" width="1.025" height="1.025" fill="#ee720a" />
<rect x="26.650" y="31.775" width="1.025" height="1.025" fill="#0a0a0a" fill-opacity="0.600" />
<rect x="27.675" y="31.775" width="1.025" height="1.025" fill="#1a1a1a" fill-opacity="0.600" />
<rect x="28.700" y="31.775" width="1.025" height="1.025" fill="#141414" fill-opacity="0.600" />
<rect x="29.725" y="31.775" width="1.025" height="1.025" fill="#f38e02" />
<rect x="30.750" y="31.775" width="1.025" height="1.025" fill="#141414" fill-opacity="0.600" />
<rect x="31.775" y="31.775" width="1.025" height="1.025" fill="#141414" fill-opacity="0.600" />
<rect x="32.800" y="31.775" width="1.025" height="1.025" fill="#000000" />
<rect x="33.825" y="31.775" width="1.025" height="1.025" fill="#f39200" />
<rect x="34.850" y="31.775" width="1.025" height="1.025" fill="#fcd600" />
<rect x="35.875" y="31.775" width="1.025" height="1.025" fill="#feeb00" fill-opacity="0.996" />
<rect x="21.525" y="32.800" width="1.025" height="1.025" fill="#ea5d0c" />
<rect x="22.550" y="32.800" width="1.025" height="1.025" fill="#f39100" />
<rect x="23.575" y="32.800" width="1.025" height="1.025" fill="#f6ac00" />
<rect x="24.600" y="32.800" width="1.025" height="1.025" fill="#f9c201" />
<rect x="25.625" y="32.800" width="1.025" height="1.025" fill="#ef7107" />
<rect x="26.650" y="32.800" width="1.025" height="1.025" fill="#f39100" />
<rect x="27.675" y="32.800" width="1.025" height="1.025" fill="#f6a600" />
<rect x="28.700" y="32.800" width="1.025" height="1.025" fill="#fbce02" />
<rect x="29.725" y="32.800" width="1.025" height="1.025" fill="#141414" fill-opacity="0.600" />
<rect x="30.750" y="32.800" width="1.025" height="1.025" fill="#f39600" />
<rect x="31.775" y="32.800" width="1.025" height="1.025" fill="#f7a802" />
<rect x="32.800" y="32.800" width="1.025" height="1.025" fill="#f18105" />
<rect x="33.825" y="32.800" width="1.025" height="1.025" fill="#f39200" />
<rect x="34.850" y="32.800" width="1.025" height="1.025" fill="#fbd700" />
<rect x="35.875" y="32.800" width="1.025" height="1.025" fill="#feeb00" fill-opacity="0.996" />
<rect x="21.525" y="33.825" width="1.025" height="1.025" fill="#ea5c0b" />
<rect x="22.550" y="33.825" width="1.025" height="1.025" fill="#f39100" />
<rect x="23.575" y="33.825" width="1.025" height="1.025" fill="#f6ac00" />
<rect x="24.600" y="33.825" width="1.025" height="1.025" fill="#fac602" />
<rect x="25.625" y="33.825" width="1.025" height="1.025" fill="#ee7408" />
<rect x="26.650" y="33.825" width="1.025" height="1.025" fill="#f38f00" />
<rect x="27.675" y="33.825" width="1.025" height="1.025" fill="#f5a400" />
<rect x="28.700" y="33.825" width="1.025" height="1.025" fill="#f8c801" />
<rect x="29.725" y="33.825" width="1.025" height="1.025" fill="#141414" fill-opacity="0.600" />
<rect x="30.750" y="33.825" width="1.025" height="1.025" fill="#f39700" />
<rect x="31.775" y="33.825" width="1.025" height="1.025" fill="#f7af03" />
<rect x="32.800" y="33.825" width="1.025" height="1.025" fill="#f18503" />
<rect x="33.825" y="33.825" width="1.025" height="1.025" fill="#f39300" />
<rect x="34.850" y="33.825" width="1.025" height="1.025" fill="#fddc00" />
<rect x="35.875" y="33.825" width="1.025" height="1.025" fill="#ffec00" />
<rect x="21.525" y="34.850" width="1.025" height="1.025" fill="#ea5b0c" />
<rect x="22.550" y="34.850" width="1.025" height="1.025" fill="#f18403" />
<rect x="23.575" y="34.850" width="1.025" height="1.025" fill="#f6a600" />
<rect x="24.600" y="34.850" width="1.025" height="1.025" fill="#000000" />
<rect x="25.625" y="34.850" width="1.025" height="1.025" fill="#f08106" />
<rect x="26.650" y="34.850" width="1.025" height="1.025" fill="#0a0a0a" fill-opacity="0.863" />
<rect x="27.675" y="34.850" width="1.025" height="1.025" fill="#f3a301" fill-opacity="0.996" />
<rect x="28.700" y="34.850" width="1.025" height="1.025" fill="#060606" fill-opacity="0.600" />
<rect x="29.725" y="34.850" width="1.025" height="1.025" fill="#f38d02" />
<rect x="30.750" y="34.850" width="1.025" height="1.025" fill="#131413" fill-opacity="0.600" />
<rect x="31.775" y="34.850" width="1.025" height="1.025" fill="#e86809" />
<rect x="32.800" y="34.850" width="1.025" height="1.025" fill="#1c1100" />
<rect x="33.825" y="34.850" width="1.025" height="1.025" fill="#f5a000" />
<rect x="34.850" y="34.850" width="1.025" height="1.025" fill="#ffe900" />
<rect x="22.550" y="35.875" width="1.025" height="1.025" fill="#ea5c0b" />
<rect x="23.575" y="35.875" width="1.025" height="1.025" fill="#f39400" />
<rect x="24.600" y="35.875" width="1.025" height="1.025" fill="#f6a600" />
<rect x="25.625" y="35.875" width="1.025" height="1.025" fill="#272727" fill-opacity="0.600" />
<rect x="26.650" y="35.875" width="1.025" height="1.025" fill="#f29000" />
<rect x="27.675" y="35.875" width="1.025" height="1.025" fill="#0a0a0a" fill-opacity="0.600" />
<rect x="28.700" y="35.875" width="1.025" height="1.025" fill="#f7bc02" />
<rect x="29.725" y="35.875" width="1.025" height="1.025" fill="#0e0e0e" fill-opacity="0.906" />
<rect x="30.750" y="35.875" width="1.025" height="1.025" fill="#f8bb03" />
<rect x="31.775" y="35.875" width="1.025" height="1.025" fill="#130801" />
<rect x="32.800" y="35.875" width="1.025" height="1.025" fill="#f5a000" />
<rect x="33.825" y="35.875" width="1.025" height="1.025" fill="#f5a000" />
<rect x="22.550" y="36.900" width="1.025" height="1.025" fill="#ea5d0c" />
<rect x="23.575" y="36.900" width="1.025" height="1.025" fill="#f8b300" />
<rect x="24.600" y="36.900" width="1.025" height="1.025" fill="#f6a400" />
<rect x="25.625" y="36.900" width="1.025" height="1.025" fill="#f5a605" />
<rect x="26.650" y="36.900" width="1.025" height="1.025" fill="#f28d01" />
<rect x="27.675" y="36.900" width="1.025" height="1.025" fill="#f6a700" />
<rect x="28.700" y="36.900" width="1.025" height="1.025" fill="#fabe01" />
<rect x="29.725" y="36.900" width="1.025" height="1.025" fill="#f39902" />
<rect x="30.750" y="36.900" width="1.025" height="1.025" fill="#f8be03" />
<rect x="31.775" y="36.900" width="1.025" height="1.025" fill="#ee7908" />
<rect x="32.800" y="36.900" width="1.025" height="1.025" fill="#facb00" />
<rect x="33.825" y="36.900" width="1.025" height="1.025" fill="#feeb00" />
</svg>