<svg xmlns="http://www.w3.org/2000/svg" width="37.925" height="37.925" shape-rendering="crispEdges" style="image-rendering: pixelated;">
<rect x="15.375" y="2.050" width="1.025" height="1.025" fill="#930000" />
<rect x="18.450" y="2.050" width="1.025" height="1.025" fill="#d40000" />
<rect x="20.500" y="2.050" width="1.025" height="1.025" fill="#a80000" />
<rect x="23.575" y="2.050" width="1.025" height="1.025" fill="#ff0000" />
<rect x="11.275" y="3.075" width="1.025" height="1.025" fill="#b30000" />
<rect x="16.400" y="3.075" width="1.025" height="1.025" fill="#890000" />
<rect x="17.425" y="3.075" width="1.025" height="1.025" fill="#5c0000" />
<rect x="20.500" y="3.075" width="1.025" height="1.025" fill="#b10000" />
<rect x="22.550" y="3.075" width="1.025" height="1.025" fill="#ec0000" />
<rect x="25.625" y="3.075" width="1.025" height="1.025" fill="#e10000" />
<rect x="12.300" y="4.100" width="1.025" height="1.025" fill="#350000" />
<rect x="15.375" y="4.100" width="1.025" height="1.025" fill="#630000" />
<rect x="17.425" y="4.100" width="1.025" height="1.025" fill="#930000" />
<rect x="18.450" y="4.100" width="1.025" height="1.025" fill="#870000" />
<rect x="19.475" y="4.100" width="1.025" height="1.025" fill="#b10000" />
<rect x="20.500" y="4.100" width="1.025" height="1.025" fill="#af0000" />
<rect x="21.525" y="4.100" width="1.025" height="1.025" fill="#ff0000" />
<rect x="22.550" y="4.100" width="1.025" height="1.025" fill="#ff0000" />
<rect x="24.600" y="4.100" width="1.025" height="1.025" fill="#e70000" />
<rect x="9.225" y="5.125" width="1.025" height="1.025" fill="#a60000" />
<rect x="13.325" y="5.125" width="1.025" height="1.025" fill="#c90000" />
<rect x="14.350" y="5.125" width="1.025" height="1.025" fill="#c90000" />
<rect x="15.375" y="5.125" width="1.025" height="1.025" fill="#890000" />
<rect x="16.400" y="5.125" width="1.025" height="1.025" fill="#5c0000" />
<rect x="17.425" y="5.125" width="1.025" height="1.025" fill="#a80000" />
<rect x="18.450" y="5.125" width="1.025" height="1.025" fill="#7f0000" />
<rect x="19.475" y="5.125" width="1.025" height="1.025" fill="#e10000" />
<rect x="20.500" y="5.125" width="1.025" height="1.025" fill="#e70000" />
<rect x="21.525" y="5.125" width="1.025" height="1.025" fill="#e70000" />
<rect x="22.550" y="5.125" width="1.025" height="1.025" fill="#ff0000" />
<rect x="23.575" y="5.125" width="1.025" height="1.025" fill="#ec0000" />
<rect x="24.600" y="5.125" width="1.025" height="1.025" fill="#a80000" />
<rect x="25.625" y="5.125" width="1.025" height="1.025" fill="#ff0000" />
<rect x="27.675" y="5.125" width="1.025" height="1.025" fill="#ec0000" />
<rect x="11.275" y="6.150" width="1.025" height="1.025" fill="#6c0000" />
<rect x="12.300" y="6.150" width="1.025" height="1.025" fill="#c90000" />
<rect x="13.325" y="6.150" width="1.025" height="1.025" fill="#5c0000" />
<rect x="14.350" y="6.150" width="1.025" height="1.025" fill="#c90000" />
<rect x="15.375" y="6.150" width="1.025" height="1.025" fill="#890000" />
<rect x="16.400" y="6.150" width="1.025" height="1.025" fill="#d40000" />
<rect x="17.425" y="6.150" width="1.025" height="1.025" fill="#7f0000" />
<rect x="18.450" y="6.150" width="1.025" height="1.025" fill="#e10000" />
<rect x="19.475" y="6.150" width="1.025" height="1.025" fill="#e70000" />
<rect x="20.500" y="6.150" width="1.025" height="1.025" fill="#bb0000" />
<rect x="21.525" y="6.150" width="1.025" height="1.025" fill="#ff0000" />
<rect x="22.550" y="6.150" width="1.025" height="1.025" fill="#c00000" />
<rect x="23.575" y="6.150" width="1.025" height="1.025" fill="#c00000" />
<rect x="24.600" y="6.150" width="1.025" height="1.025" fill="#ff0000" />
<rect x="26.650" y="6.150" width="1.025" height="1.025" fill="#e70000" />
<rect x="9.225" y="7.175" width="1.025" height="1.025" fill="#3b0000" />
<rect x="10.250" y="7.175" width="1.025" height="1.025" fill="#610000" />
<rect x="12.300" y="7.175" width="1.025" height="1.025" fill="#c90000" />
<rect x="13.325" y="7.175" width="1.025" height="1.025" fill="#c90000" />
<rect x="14.350" y="7.175" width="1.025" height="1.025" fill="#5c0000" />
<rect x="15.375" y="7.175" width="1.025" height="1.025" fill="#c90000" />
<rect x="16.400" y="7.175" width="1.025" height="1.025" fill="#7f0000" />
<rect x="17.425" y="7.175" width="1.025" height="1.025" fill="#b10000" />
<rect x="18.450" y="7.175" width="1.025" height="1.025" fill="#b10000" />
<rect x="19.475" y="7.175" width="1.025" height="1.025" fill="#c00000" />
<rect x="20.500" y="7.175" width="1.025" height="1.025" fill="#e70000" />
<rect x="21.525" y="7.175" width="1.025" height="1.025" fill="#c00000" />
<rect x="22.550" y="7.175" width="1.025" height="1.025" fill="#e70000" />
<rect x="23.575" y="7.175" width="1.025" height="1.025" fill="#ff0000" />
<rect x="24.600" y="7.175" width="1.025" height="1.025" fill="#e70000" />
<rect x="25.625" y="7.175" width="1.025" height="1.025" fill="#e70000" />
<rect x="26.650" y="7.175" width="1.025" height="1.025" fill="#af0000" />
<rect x="8.200" y="8.200" width="1.025" height="1.025" fill="#2d0000" />
<rect x="10.250" y="8.200" width="1.025" height="1.025" fill="#6c0000" />
<rect x="11.275" y="8.200" width="1.025" height="1.025" fill="#1a0000" />
<rect x="12.300" y="8.200" width="1.025" height="1.025" fill="#930000" />
<rect x="13.325" y="8.200" width="1.025" height="1.025" fill="#930000" />
<rect x="14.350" y="8.200" width="1.025" height="1.025" fill="#c90000" />
<rect x="15.375" y="8.200" width="1.025" height="1.025" fill="#930000" />
<rect x="16.400" y="8.200" width="1.025" height="1.025" fill="#e10000" />
<rect x="17.425" y="8.200" width="1.025" height="1.025" fill="#b10000" />
<rect x="18.450" y="8.200" width="1.025" height="1.025" fill="#7f0000" />
<rect x="19.475" y="8.200" width="1.025" height="1.025" fill="#c00000" />
<rect x="20.500" y="8.200" width="1.025" height="1.025" fill="#e70000" />
<rect x="21.525" y="8.200" width="1.025" height="1.025" fill="#e70000" />
<rect x="22.550" y="8.200" width="1.025" height="1.025" fill="#ff0000" />
<rect x="23.575" y="8.200" width="1.025" height="1.025" fill="#c00000" />
<rect x="24.600" y="8.200" width="1.025" height="1.025" fill="#c00000" />
<rect x="25.625" y="8.200" width="1.025" height="1.025" fill="#ff0000" />
<rect x="11.275" y="9.225" width="1.025" height="1.025" fill="#6c0000" />
<rect x="12.300" y="9.225" width="1.025" height="1.025" fill="#400000" />
<rect x="13.325" y="9.225" width="1.025" height="1.025" fill="#930000" />
<rect x="14.350" y="9.225" width="1.025" height="1.025" fill="#5c0000" />
<rect x="15.375" y="9.225" width="1.025" height="1.025" fill="#c90000" />
<rect x="16.400" y="9.225" width="1.025" height="1.025" fill="#b10000" />
<rect x="17.425" y="9.225" width="1.025" height="1.025" fill="#e10000" />
<rect x="18.450" y="9.225" width="1.025" height="1.025" fill="#b10000" />
<rect x="19.475" y="9.225" width="1.025" height="1.025" fill="#ff0000" />
<rect x="20.500" y="9.225" width="1.025" height="1.025" fill="#ff0000" />
<rect x="21.525" y="9.225" width="1.025" height="1.025" fill="#c00000" />
<rect x="22.550" y="9.225" width="1.025" height="1.025" fill="#c00000" />
<rect x="23.575" y="9.225" width="1.025" height="1.025" fill="#ff0000" />
<rect x="24.600" y="9.225" width="1.025" height="1.025" fill="#c00000" />
<rect x="25.625" y="9.225" width="1.025" height="1.025" fill="#e70000" />
<rect x="26.650" y="9.225" width="1.025" height="1.025" fill="#ff0000" />
<rect x="11.275" y="10.250" width="1.025" height="1.025" fill="#1a0000" />
<rect x="12.300" y="10.250" width="1.025" height="1.025" fill="#6c0000" />
<rect x="13.325" y="10.250" width="1.025" height="1.025" fill="#930000" />
<rect x="14.350" y="10.250" width="1.025" height="1.025" fill="#930000" />
<rect x="15.375" y="10.250" width="1.025" height="1.025" fill="#5c0000" />
<rect x="16.400" y="10.250" width="1.025" height="1.025" fill="#b10000" />
<rect x="17.425" y="10.250" width="1.025" height="1.025" fill="#e10000" />
<rect x="18.450" y="10.250" width="1.025" height="1.025" fill="#7f0000" />
<rect x="19.475" y="10.250" width="1.025" height="1.025" fill="#c00000" />
<rect x="20.500" y="10.250" width="1.025" height="1.025" fill="#c00000" />
<rect x="21.525" y="10.250" width="1.025" height="1.025" fill="#ff0000" />
<rect x="22.550" y="10.250" width="1.025" height="1.025" fill="#c00000" />
<rect x="23.575" y="10.250" width="1.025" height="1.025" fill="#c00000" />
<rect x="25.625" y="10.250" width="1.025" height="1.025" fill="#c00000" />
<rect x="27.675" y="10.250" width="1.025" height="1.025" fill="#e10000" />
<rect x="10.250" y="11.275" width="1.025" height="1.025" fill="#1a0000" />
<rect x="11.275" y="11.275" width="1.025" height="1.025" fill="#1a0000" />
<rect x="12.300" y="11.275" width="1.025" height="1.025" fill="#1a0000" />
<rect x="13.325" y="11.275" width="1.025" height="1.025" fill="#5c0000" />
<rect x="14.350" y="11.275" width="1.025" height="1.025" fill="#5c0000" />
<rect x="15.375" y="11.275" width="1.025" height="1.025" fill="#c90000" />
<rect x="17.425" y="11.275" width="1.025" height="1.025" fill="#690000" />
<rect x="21.525" y="11.275" width="1.025" height="1.025" fill="#af0000" />
<rect x="23.575" y="11.275" width="1.025" height="1.025" fill="#ff0000" />
<rect x="25.625" y="11.275" width="1.025" height="1.025" fill="#ec0000" />
<rect x="9.225" y="12.300" width="1.025" height="1.025" fill="#350000" />
<rect x="12.300" y="12.300" width="1.025" height="1.025" fill="#1a0000" />
<rect x="13.325" y="12.300" width="1.025" height="1.025" fill="#350000" />
<rect x="15.375" y="12.300" width="1.025" height="1.025" fill="#c90000" />
<rect x="18.450" y="12.300" width="1.025" height="1.025" fill="#690000" />
<rect x="25.625" y="12.300" width="1.025" height="1.025" fill="#ff0000" />
<rect x="12.300" y="13.325" width="1.025" height="1.025" fill="#1a0000" />
<rect x="14.350" y="13.325" width="1.025" height="1.025" fill="#a60000" />
<rect x="26.650" y="13.325" width="1.025" height="1.025" fill="#9a0000" />
<rect x="12.300" y="14.350" width="1.025" height="1.025" fill="#1a0000" />
</svg>