<svg xmlns="http://www.w3.org/2000/svg" width="37.925" height="37.925" shape-rendering="crispEdges" style="image-rendering: pixelated;">
<rect x="14.350" y="6.150" width="1.025" height="1.025" fill="#000000" />
<rect x="15.375" y="6.150" width="1.025" height="1.025" fill="#000000" />
<rect x="16.400" y="6.150" width="1.025" height="1.025" fill="#000000" />
<rect x="17.425" y="6.150" width="1.025" height="1.025" fill="#000000" />
<rect x="18.450" y="6.150" width="1.025" height="1.025" fill="#000000" />
<rect x="19.475" y="6.150" width="1.025" height="1.025" fill="#000000" />
<rect x="20.500" y="6.150" width="1.025" height="1.025" fill="#000000" />
<rect x="21.525" y="6.150" width="1.025" height="1.025" fill="#000000" />
<rect x="22.550" y="6.150" width="1.025" height="1.025" fill="#000000" />
<rect x="13.325" y="7.175" width="1.025" height="1.025" fill="#000000" />
<rect x="14.350" y="7.175" width="1.025" height="1.025" fill="#840000" />
<rect x="15.375" y="7.175" width="1.025" height="1.025" fill="#d60000" />
<rect x="16.400" y="7.175" width="1.025" height="1.025" fill="#e50000" />
<rect x="17.425" y="7.175" width="1.025" height="1.025" fill="#e80000" />
<rect x="18.450" y="7.175" width="1.025" height="1.025" fill="#e70000" />
<rect x="19.475" y="7.175" width="1.025" height="1.025" fill="#e50000" />
<rect x="20.500" y="7.175" width="1.025" height="1.025" fill="#e50000" />
<rect x="21.525" y="7.175" width="1.025" height="1.025" fill="#e70000" />
<rect x="22.550" y="7.175" width="1.025" height="1.025" fill="#ce0000" />
<rect x="23.575" y="7.175" width="1.025" height="1.025" fill="#000000" />
<rect x="12.300" y="8.200" width="1.025" height="1.025" fill="#000000" />
<rect x="13.325" y="8.200" width="1.025" height="1.025" fill="#5e0000" />
<rect x="14.350" y="8.200" width="1.025" height="1.025" fill="#cf0000" />
<rect x="15.375" y="8.200" width="1.025" height="1.025" fill="#f50000" />
<rect x="16.400" y="8.200" width="1.025" height="1.025" fill="#f50000" />
<rect x="17.425" y="8.200" width="1.025" height="1.025" fill="#fb0000" />
<rect x="18.450" y="8.200" width="1.025" height="1.025" fill="#ce0000" />
<rect x="19.475" y="8.200" width="1.025" height="1.025" fill="#f50000" />
<rect x="20.500" y="8.200" width="1.025" height="1.025" fill="#f90000" />
<rect x="21.525" y="8.200" width="1.025" height="1.025" fill="#f90000" />
<rect x="22.550" y="8.200" width="1.025" height="1.025" fill="#f90000" />
<rect x="23.575" y="8.200" width="1.025" height="1.025" fill="#df0000" />
<rect x="24.600" y="8.200" width="1.025" height="1.025" fill="#000000" />
<rect x="12.300" y="9.225" width="1.025" height="1.025" fill="#000000" />
<rect x="13.325" y="9.225" width="1.025" height="1.025" fill="#770000" />
<rect x="14.350" y="9.225" width="1.025" height="1.025" fill="#de0000" />
<rect x="15.375" y="9.225" width="1.025" height="1.025" fill="#f40000" />
<rect x="16.400" y="9.225" width="1.025" height="1.025" fill="#ff0000" />
<rect x="17.425" y="9.225" width="1.025" height="1.025" fill="#ff0000" />
<rect x="18.450" y="9.225" width="1.025" height="1.025" fill="#8a0000" />
<rect x="19.475" y="9.225" width="1.025" height="1.025" fill="#ff0000" />
<rect x="20.500" y="9.225" width="1.025" height="1.025" fill="#ff0000" />
<rect x="21.525" y="9.225" width="1.025" height="1.025" fill="#ff0000" />
<rect x="22.550" y="9.225" width="1.025" height="1.025" fill="#ff0000" />
<rect x="23.575" y="9.225" width="1.025" height="1.025" fill="#ec0000" />
<rect x="24.600" y="9.225" width="1.025" height="1.025" fill="#000000" />
<rect x="12.300" y="10.250" width="1.025" height="1.025" fill="#000000" />
<rect x="13.325" y="10.250" width="1.025" height="1.025" fill="#760000" />
<rect x="14.350" y="10.250" width="1.025" height="1.025" fill="#d50000" />
<rect x="15.375" y="10.250" width="1.025" height="1.025" fill="#f50000" />
<rect x="16.400" y="10.250" width="1.025" height="1.025" fill="#fd0000" />
<rect x="17.425" y="10.250" width="1.025" height="1.025" fill="#ff0000" />
<rect x="18.450" y="10.250" width="1.025" height="1.025" fill="#ff0000" />
<rect x="19.475" y="10.250" width="1.025" height="1.025" fill="#ff0000" />
<rect x="20.500" y="10.250" width="1.025" height="1.025" fill="#ff0000" />
<rect x="21.525" y="10.250" width="1.025" height="1.025" fill="#ff0000" />
<rect x="22.550" y="10.250" width="1.025" height="1.025" fill="#ce0000" />
<rect x="23.575" y="10.250" width="1.025" height="1.025" fill="#e30000" />
<rect x="24.600" y="10.250" width="1.025" height="1.025" fill="#000000" />
<rect x="12.300" y="11.275" width="1.025" height="1.025" fill="#000000" />
<rect x="13.325" y="11.275" width="1.025" height="1.025" fill="#720000" />
<rect x="14.350" y="11.275" width="1.025" height="1.025" fill="#d30000" />
<rect x="15.375" y="11.275" width="1.025" height="1.025" fill="#f20000" />
<rect x="16.400" y="11.275" width="1.025" height="1.025" fill="#fd0000" />
<rect x="17.425" y="11.275" width="1.025" height="1.025" fill="#ff0000" />
<rect x="18.450" y="11.275" width="1.025" height="1.025" fill="#ff0000" />
<rect x="19.475" y="11.275" width="1.025" height="1.025" fill="#ff0000" />
<rect x="20.500" y="11.275" width="1.025" height="1.025" fill="#ff0000" />
<rect x="21.525" y="11.275" width="1.025" height="1.025" fill="#ff0000" />
<rect x="22.550" y="11.275" width="1.025" height="1.025" fill="#8a0000" />
<rect x="23.575" y="11.275" width="1.025" height="1.025" fill="#ea0000" />
<rect x="24.600" y="11.275" width="1.025" height="1.025" fill="#000000" />
<rect x="12.300" y="12.300" width="1.025" height="1.025" fill="#000000" />
<rect x="13.325" y="12.300" width="1.025" height="1.025" fill="#670000" />
<rect x="14.350" y="12.300" width="1.025" height="1.025" fill="#cf0000" />
<rect x="15.375" y="12.300" width="1.025" height="1.025" fill="#f00000" />
<rect x="16.400" y="12.300" width="1.025" height="1.025" fill="#f40000" />
<rect x="17.425" y="12.300" width="1.025" height="1.025" fill="#e30000" />
<rect x="18.450" y="12.300" width="1.025" height="1.025" fill="#e80000" />
<rect x="19.475" y="12.300" width="1.025" height="1.025" fill="#e70000" />
<rect x="20.500" y="12.300" width="1.025" height="1.025" fill="#f70000" />
<rect x="21.525" y="12.300" width="1.025" height="1.025" fill="#f90000" />
<rect x="22.550" y="12.300" width="1.025" height="1.025" fill="#f20000" />
<rect x="23.575" y="12.300" width="1.025" height="1.025" fill="#ec0000" />
<rect x="24.600" y="12.300" width="1.025" height="1.025" fill="#000000" />
<rect x="12.300" y="13.325" width="1.025" height="1.025" fill="#000000" />
<rect x="13.325" y="13.325" width="1.025" height="1.025" fill="#000000" />
<rect x="14.350" y="13.325" width="1.025" height="1.025" fill="#ca0000" />
<rect x="15.375" y="13.325" width="1.025" height="1.025" fill="#f50000" />
<rect x="16.400" y="13.325" width="1.025" height="1.025" fill="#c00000" />
<rect x="17.425" y="13.325" width="1.025" height="1.025" fill="#430000" />
<rect x="18.450" y="13.325" width="1.025" height="1.025" fill="#490000" />
<rect x="19.475" y="13.325" width="1.025" height="1.025" fill="#750000" />
<rect x="20.500" y="13.325" width="1.025" height="1.025" fill="#b30000" />
<rect x="21.525" y="13.325" width="1.025" height="1.025" fill="#bb0000" />
<rect x="22.550" y="13.325" width="1.025" height="1.025" fill="#430000" />
<rect x="23.575" y="13.325" width="1.025" height="1.025" fill="#490000" />
<rect x="24.600" y="13.325" width="1.025" height="1.025" fill="#000000" />
<rect x="11.275" y="14.350" width="1.025" height="1.025" fill="#000000" />
<rect x="12.300" y="14.350" width="1.025" height="1.025" fill="#700000" />
<rect x="13.325" y="14.350" width="1.025" height="1.025" fill="#9b0000" />
<rect x="14.350" y="14.350" width="1.025" height="1.025" fill="#c80000" />
<rect x="15.375" y="14.350" width="1.025" height="1.025" fill="#f40000" />
<rect x="16.400" y="14.350" width="1.025" height="1.025" fill="#d80000" />
<rect x="17.425" y="14.350" width="1.025" height="1.025" fill="#000000" />
<rect x="18.450" y="14.350" width="1.025" height="1.025" fill="#ffffff" />
<rect x="19.475" y="14.350" width="1.025" height="1.025" fill="#ca0000" />
<rect x="20.500" y="14.350" width="1.025" height="1.025" fill="#de0000" />
<rect x="21.525" y="14.350" width="1.025" height="1.025" fill="#cc0000" />
<rect x="22.550" y="14.350" width="1.025" height="1.025" fill="#000000" />
<rect x="23.575" y="14.350" width="1.025" height="1.025" fill="#ffffff" />
<rect x="24.600" y="14.350" width="1.025" height="1.025" fill="#000000" />
<rect x="11.275" y="15.375" width="1.025" height="1.025" fill="#000000" />
<rect x="12.300" y="15.375" width="1.025" height="1.025" fill="#a10000" />
<rect x="13.325" y="15.375" width="1.025" height="1.025" fill="#8a0000" />
<rect x="14.350" y="15.375" width="1.025" height="1.025" fill="#be0000" />
<rect x="15.375" y="15.375" width="1.025" height="1.025" fill="#e50000" />
<rect x="16.400" y="15.375" width="1.025" height="1.025" fill="#ff0000" />
<rect x="17.425" y="15.375" width="1.025" height="1.025" fill="#fd0000" />
<rect x="18.450" y="15.375" width="1.025" height="1.025" fill="#f70000" />
<rect x="19.475" y="15.375" width="1.025" height="1.025" fill="#ff0000" />
<rect x="20.500" y="15.375" width="1.025" height="1.025" fill="#ec0000" />
<rect x="21.525" y="15.375" width="1.025" height="1.025" fill="#f40000" />
<rect x="22.550" y="15.375" width="1.025" height="1.025" fill="#fd0000" />
<rect x="23.575" y="15.375" width="1.025" height="1.025" fill="#840000" />
<rect x="24.600" y="15.375" width="1.025" height="1.025" fill="#000000" />
<rect x="11.275" y="16.400" width="1.025" height="1.025" fill="#000000" />
<rect x="12.300" y="16.400" width="1.025" height="1.025" fill="#740000" />
<rect x="13.325" y="16.400" width="1.025" height="1.025" fill="#870000" />
<rect x="14.350" y="16.400" width="1.025" height="1.025" fill="#a40000" />
<rect x="15.375" y="16.400" width="1.025" height="1.025" fill="#980000" />
<rect x="16.400" y="16.400" width="1.025" height="1.025" fill="#f50000" />
<rect x="17.425" y="16.400" width="1.025" height="1.025" fill="#ff0000" />
<rect x="18.450" y="16.400" width="1.025" height="1.025" fill="#ff0000" />
<rect x="19.475" y="16.400" width="1.025" height="1.025" fill="#f50000" />
<rect x="20.500" y="16.400" width="1.025" height="1.025" fill="#000000" />
<rect x="21.525" y="16.400" width="1.025" height="1.025" fill="#f40000" />
<rect x="22.550" y="16.400" width="1.025" height="1.025" fill="#e10000" />
<rect x="23.575" y="16.400" width="1.025" height="1.025" fill="#ca0000" />
<rect x="24.600" y="16.400" width="1.025" height="1.025" fill="#000000" />
<rect x="12.300" y="17.425" width="1.025" height="1.025" fill="#5b0000" />
<rect x="13.325" y="17.425" width="1.025" height="1.025" fill="#000000" />
<rect x="14.350" y="17.425" width="1.025" height="1.025" fill="#980000" />
<rect x="15.375" y="17.425" width="1.025" height="1.025" fill="#5b0000" />
<rect x="16.400" y="17.425" width="1.025" height="1.025" fill="#d30000" />
<rect x="17.425" y="17.425" width="1.025" height="1.025" fill="#f70000" />
<rect x="18.450" y="17.425" width="1.025" height="1.025" fill="#ff0000" />
<rect x="19.475" y="17.425" width="1.025" height="1.025" fill="#f90000" />
<rect x="20.500" y="17.425" width="1.025" height="1.025" fill="#000000" />
<rect x="21.525" y="17.425" width="1.025" height="1.025" fill="#000000" />
<rect x="22.550" y="17.425" width="1.025" height="1.025" fill="#a30000" />
<rect x="23.575" y="17.425" width="1.025" height="1.025" fill="#cc0000" />
<rect x="24.600" y="17.425" width="1.025" height="1.025" fill="#000000" />
<rect x="12.300" y="18.450" width="1.025" height="1.025" fill="#830000" />
<rect x="13.325" y="18.450" width="1.025" height="1.025" fill="#000000" />
<rect x="14.350" y="18.450" width="1.025" height="1.025" fill="#690000" />
<rect x="15.375" y="18.450" width="1.025" height="1.025" fill="#a40000" />
<rect x="16.400" y="18.450" width="1.025" height="1.025" fill="#be0000" />
<rect x="17.425" y="18.450" width="1.025" height="1.025" fill="#ea0000" />
<rect x="18.450" y="18.450" width="1.025" height="1.025" fill="#ff0000" />
<rect x="19.475" y="18.450" width="1.025" height="1.025" fill="#ff0000" />
<rect x="20.500" y="18.450" width="1.025" height="1.025" fill="#b10000" />
<rect x="21.525" y="18.450" width="1.025" height="1.025" fill="#e70000" />
<rect x="22.550" y="18.450" width="1.025" height="1.025" fill="#fd0000" />
<rect x="23.575" y="18.450" width="1.025" height="1.025" fill="#de0000" />
<rect x="24.600" y="18.450" width="1.025" height="1.025" fill="#000000" />
<rect x="12.300" y="19.475" width="1.025" height="1.025" fill="#a00000" />
<rect x="13.325" y="19.475" width="1.025" height="1.025" fill="#000000" />
<rect x="14.350" y="19.475" width="1.025" height="1.025" fill="#3c0000" />
<rect x="15.375" y="19.475" width="1.025" height="1.025" fill="#9e0000" />
<rect x="16.400" y="19.475" width="1.025" height="1.025" fill="#b80000" />
<rect x="17.425" y="19.475" width="1.025" height="1.025" fill="#ea0000" />
<rect x="18.450" y="19.475" width="1.025" height="1.025" fill="#ea0000" />
<rect x="19.475" y="19.475" width="1.025" height="1.025" fill="#ff0000" />
<rect x="20.500" y="19.475" width="1.025" height="1.025" fill="#7a0000" />
<rect x="21.525" y="19.475" width="1.025" height="1.025" fill="#f70000" />
<rect x="22.550" y="19.475" width="1.025" height="1.025" fill="#ec0000" />
<rect x="23.575" y="19.475" width="1.025" height="1.025" fill="#c80000" />
<rect x="24.600" y="19.475" width="1.025" height="1.025" fill="#000000" />
<rect x="13.325" y="20.500" width="1.025" height="1.025" fill="#000000" />
<rect x="14.350" y="20.500" width="1.025" height="1.025" fill="#260000" />
<rect x="15.375" y="20.500" width="1.025" height="1.025" fill="#830000" />
<rect x="16.400" y="20.500" width="1.025" height="1.025" fill="#be0000" />
<rect x="17.425" y="20.500" width="1.025" height="1.025" fill="#d80000" />
<rect x="18.450" y="20.500" width="1.025" height="1.025" fill="#d30000" />
<rect x="19.475" y="20.500" width="1.025" height="1.025" fill="#000000" />
<rect x="20.500" y="20.500" width="1.025" height="1.025" fill="#000000" />
<rect x="21.525" y="20.500" width="1.025" height="1.025" fill="#000000" />
<rect x="22.550" y="20.500" width="1.025" height="1.025" fill="#000000" />
<rect x="23.575" y="20.500" width="1.025" height="1.025" fill="#c00000" />
<rect x="24.600" y="20.500" width="1.025" height="1.025" fill="#000000" />
<rect x="13.325" y="21.525" width="1.025" height="1.025" fill="#000000" />
<rect x="14.350" y="21.525" width="1.025" height="1.025" fill="#2c0000" />
<rect x="15.375" y="21.525" width="1.025" height="1.025" fill="#5b0000" />
<rect x="16.400" y="21.525" width="1.025" height="1.025" fill="#9a0000" />
<rect x="17.425" y="21.525" width="1.025" height="1.025" fill="#d30000" />
<rect x="18.450" y="21.525" width="1.025" height="1.025" fill="#f50000" />
<rect x="19.475" y="21.525" width="1.025" height="1.025" fill="#fb0000" />
<rect x="20.500" y="21.525" width="1.025" height="1.025" fill="#fb0000" />
<rect x="21.525" y="21.525" width="1.025" height="1.025" fill="#fb0000" />
<rect x="22.550" y="21.525" width="1.025" height="1.025" fill="#fb0000" />
<rect x="23.575" y="21.525" width="1.025" height="1.025" fill="#be0000" />
<rect x="24.600" y="21.525" width="1.025" height="1.025" fill="#000000" />
<rect x="13.325" y="22.550" width="1.025" height="1.025" fill="#000000" />
<rect x="14.350" y="22.550" width="1.025" height="1.025" fill="#480000" />
<rect x="15.375" y="22.550" width="1.025" height="1.025" fill="#d80000" />
<rect x="16.400" y="22.550" width="1.025" height="1.025" fill="#5e0000" />
<rect x="17.425" y="22.550" width="1.025" height="1.025" fill="#ac0000" />
<rect x="18.450" y="22.550" width="1.025" height="1.025" fill="#f20000" />
<rect x="19.475" y="22.550" width="1.025" height="1.025" fill="#fb0000" />
<rect x="20.500" y="22.550" width="1.025" height="1.025" fill="#ff0000" />
<rect x="21.525" y="22.550" width="1.025" height="1.025" fill="#ff0000" />
<rect x="22.550" y="22.550" width="1.025" height="1.025" fill="#ff0000" />
<rect x="23.575" y="22.550" width="1.025" height="1.025" fill="#8f0000" />
<rect x="24.600" y="22.550" width="1.025" height="1.025" fill="#000000" />
<rect x="13.325" y="23.575" width="1.025" height="1.025" fill="#000000" />
<rect x="14.350" y="23.575" width="1.025" height="1.025" fill="#5c0000" />
<rect x="15.375" y="23.575" width="1.025" height="1.025" fill="#f50000" />
<rect x="16.400" y="23.575" width="1.025" height="1.025" fill="#3b0000" />
<rect x="17.425" y="23.575" width="1.025" height="1.025" fill="#5f0000" />
<rect x="18.450" y="23.575" width="1.025" height="1.025" fill="#910000" />
<rect x="19.475" y="23.575" width="1.025" height="1.025" fill="#a80000" />
<rect x="20.500" y="23.575" width="1.025" height="1.025" fill="#da0000" />
<rect x="21.525" y="23.575" width="1.025" height="1.025" fill="#da0000" />
<rect x="22.550" y="23.575" width="1.025" height="1.025" fill="#a00000" />
<rect x="23.575" y="23.575" width="1.025" height="1.025" fill="#fb0000" />
<rect x="13.325" y="24.600" width="1.025" height="1.025" fill="#000000" />
<rect x="14.350" y="24.600" width="1.025" height="1.025" fill="#6a0000" />
<rect x="15.375" y="24.600" width="1.025" height="1.025" fill="#a00000" />
<rect x="16.400" y="24.600" width="1.025" height="1.025" fill="#000000" />
<rect x="17.425" y="24.600" width="1.025" height="1.025" fill="#000000" />
<rect x="18.450" y="24.600" width="1.025" height="1.025" fill="#000000" />
<rect x="19.475" y="24.600" width="1.025" height="1.025" fill="#000000" />
<rect x="20.500" y="24.600" width="1.025" height="1.025" fill="#f50000" />
<rect x="21.525" y="24.600" width="1.025" height="1.025" fill="#000000" />
<rect x="22.550" y="24.600" width="1.025" height="1.025" fill="#000000" />
<rect x="23.575" y="24.600" width="1.025" height="1.025" fill="#be0000" />
<rect x="13.325" y="25.625" width="1.025" height="1.025" fill="#000000" />
<rect x="14.350" y="25.625" width="1.025" height="1.025" fill="#680000" />
<rect x="15.375" y="25.625" width="1.025" height="1.025" fill="#f70000" />
<rect x="16.400" y="25.625" width="1.025" height="1.025" fill="#dc0000" />
<rect x="17.425" y="25.625" width="1.025" height="1.025" fill="#7a0000" />
<rect x="18.450" y="25.625" width="1.025" height="1.025" fill="#000000" />
<rect x="20.500" y="25.625" width="1.025" height="1.025" fill="#a00000" />
<rect x="23.575" y="25.625" width="1.025" height="1.025" fill="#8f0000" />
<rect x="13.325" y="26.650" width="1.025" height="1.025" fill="#000000" />
<rect x="14.350" y="26.650" width="1.025" height="1.025" fill="#740000" />
<rect x="15.375" y="26.650" width="1.025" height="1.025" fill="#f50000" />
<rect x="16.400" y="26.650" width="1.025" height="1.025" fill="#f90000" />
<rect x="17.425" y="26.650" width="1.025" height="1.025" fill="#de0000" />
<rect x="18.450" y="26.650" width="1.025" height="1.025" fill="#000000" />
<rect x="13.325" y="27.675" width="1.025" height="1.025" fill="#000000" />
<rect x="14.350" y="27.675" width="1.025" height="1.025" fill="#9f0000" />
<rect x="15.375" y="27.675" width="1.025" height="1.025" fill="#dc0000" />
<rect x="16.400" y="27.675" width="1.025" height="1.025" fill="#f70000" />
<rect x="17.425" y="27.675" width="1.025" height="1.025" fill="#f00000" />
<rect x="18.450" y="27.675" width="1.025" height="1.025" fill="#000000" />
<rect x="11.275" y="28.700" width="1.025" height="1.025" fill="#000000" />
<rect x="12.300" y="28.700" width="1.025" height="1.025" fill="#000000" />
<rect x="13.325" y="28.700" width="1.025" height="1.025" fill="#dc0000" />
<rect x="14.350" y="28.700" width="1.025" height="1.025" fill="#dc0000" />
<rect x="15.375" y="28.700" width="1.025" height="1.025" fill="#cf0000" />
<rect x="16.400" y="28.700" width="1.025" height="1.025" fill="#d80000" />
<rect x="17.425" y="28.700" width="1.025" height="1.025" fill="#ec0000" />
<rect x="18.450" y="28.700" width="1.025" height="1.025" fill="#e50000" />
<rect x="19.475" y="28.700" width="1.025" height="1.025" fill="#000000" />
<rect x="20.500" y="28.700" width="1.025" height="1.025" fill="#000000" />
<rect x="9.225" y="29.725" width="1.025" height="1.025" fill="#000000" />
<rect x="10.250" y="29.725" width="1.025" height="1.025" fill="#000000" />
<rect x="11.275" y="29.725" width="1.025" height="1.025" fill="#c80000" />
<rect x="12.300" y="29.725" width="1.025" height="1.025" fill="#c50000" />
<rect x="13.325" y="29.725" width="1.025" height="1.025" fill="#cc0000" />
<rect x="14.350" y="29.725" width="1.025" height="1.025" fill="#c80000" />
<rect x="15.375" y="29.725" width="1.025" height="1.025" fill="#c50000" />
<rect x="16.400" y="29.725" width="1.025" height="1.025" fill="#c80000" />
<rect x="17.425" y="29.725" width="1.025" height="1.025" fill="#d30000" />
<rect x="18.450" y="29.725" width="1.025" height="1.025" fill="#e10000" />
<rect x="19.475" y="29.725" width="1.025" height="1.025" fill="#ac0000" />
<rect x="20.500" y="29.725" width="1.025" height="1.025" fill="#c50000" />
<rect x="21.525" y="29.725" width="1.025" height="1.025" fill="#000000" />
<rect x="22.550" y="29.725" width="1.025" height="1.025" fill="#000000" />
<rect x="23.575" y="29.725" width="1.025" height="1.025" fill="#000000" />
<rect x="7.175" y="30.750" width="1.025" height="1.025" fill="#000000" />
<rect x="8.200" y="30.750" width="1.025" height="1.025" fill="#000000" />
<rect x="9.225" y="30.750" width="1.025" height="1.025" fill="#e80000" />
<rect x="10.250" y="30.750" width="1.025" height="1.025" fill="#ea0000" />
<rect x="11.275" y="30.750" width="1.025" height="1.025" fill="#df0000" />
<rect x="12.300" y="30.750" width="1.025" height="1.025" fill="#c50000" />
<rect x="13.325" y="30.750" width="1.025" height="1.025" fill="#e50000" />
<rect x="14.350" y="30.750" width="1.025" height="1.025" fill="#e80000" />
<rect x="15.375" y="30.750" width="1.025" height="1.025" fill="#f00000" />
<rect x="16.400" y="30.750" width="1.025" height="1.025" fill="#ec0000" />
<rect x="17.425" y="30.750" width="1.025" height="1.025" fill="#cf0000" />
<rect x="18.450" y="30.750" width="1.025" height="1.025" fill="#da0000" />
<rect x="19.475" y="30.750" width="1.025" height="1.025" fill="#a20000" />
<rect x="20.500" y="30.750" width="1.025" height="1.025" fill="#f40000" />
<rect x="21.525" y="30.750" width="1.025" height="1.025" fill="#f20000" />
<rect x="22.550" y="30.750" width="1.025" height="1.025" fill="#e30000" />
<rect x="23.575" y="30.750" width="1.025" height="1.025" fill="#d60000" />
<rect x="24.600" y="30.750" width="1.025" height="1.025" fill="#000000" />
<rect x="25.625" y="30.750" width="1.025" height="1.025" fill="#000000" />
<rect x="6.150" y="31.775" width="1.025" height="1.025" fill="#000000" />
<rect x="7.175" y="31.775" width="1.025" height="1.025" fill="#a90000" />
<rect x="8.200" y="31.775" width="1.025" height="1.025" fill="#f20000" />
<rect x="9.225" y="31.775" width="1.025" height="1.025" fill="#fd0000" />
<rect x="10.250" y="31.775" width="1.025" height="1.025" fill="#f70000" />
<rect x="11.275" y="31.775" width="1.025" height="1.025" fill="#ee0000" />
<rect x="12.300" y="31.775" width="1.025" height="1.025" fill="#a00000" />
<rect x="13.325" y="31.775" width="1.025" height="1.025" fill="#f90000" />
<rect x="14.350" y="31.775" width="1.025" height="1.025" fill="#f70000" />
<rect x="15.375" y="31.775" width="1.025" height="1.025" fill="#f90000" />
<rect x="16.400" y="31.775" width="1.025" height="1.025" fill="#f90000" />
<rect x="17.425" y="31.775" width="1.025" height="1.025" fill="#f00000" />
<rect x="18.450" y="31.775" width="1.025" height="1.025" fill="#f20000" />
<rect x="19.475" y="31.775" width="1.025" height="1.025" fill="#fb0000" />
<rect x="20.500" y="31.775" width="1.025" height="1.025" fill="#fb0000" />
<rect x="21.525" y="31.775" width="1.025" height="1.025" fill="#f90000" />
<rect x="22.550" y="31.775" width="1.025" height="1.025" fill="#f20000" />
<rect x="23.575" y="31.775" width="1.025" height="1.025" fill="#ea0000" />
<rect x="24.600" y="31.775" width="1.025" height="1.025" fill="#fb0000" />
<rect x="25.625" y="31.775" width="1.025" height="1.025" fill="#e70000" />
<rect x="26.650" y="31.775" width="1.025" height="1.025" fill="#000000" />
<rect x="5.125" y="32.800" width="1.025" height="1.025" fill="#000000" />
<rect x="6.150" y="32.800" width="1.025" height="1.025" fill="#5f0000" />
<rect x="7.175" y="32.800" width="1.025" height="1.025" fill="#bd0000" />
<rect x="8.200" y="32.800" width="1.025" height="1.025" fill="#f20000" />
<rect x="9.225" y="32.800" width="1.025" height="1.025" fill="#fd0000" />
<rect x="10.250" y="32.800" width="1.025" height="1.025" fill="#f90000" />
<rect x="11.275" y="32.800" width="1.025" height="1.025" fill="#ee0000" />
<rect x="12.300" y="32.800" width="1.025" height="1.025" fill="#f90000" />
<rect x="13.325" y="32.800" width="1.025" height="1.025" fill="#fb0000" />
<rect x="14.350" y="32.800" width="1.025" height="1.025" fill="#fb0000" />
<rect x="15.375" y="32.800" width="1.025" height="1.025" fill="#e30000" />
<rect x="16.400" y="32.800" width="1.025" height="1.025" fill="#fb0000" />
<rect x="17.425" y="32.800" width="1.025" height="1.025" fill="#f50000" />
<rect x="18.450" y="32.800" width="1.025" height="1.025" fill="#f50000" />
<rect x="19.475" y="32.800" width="1.025" height="1.025" fill="#f90000" />
<rect x="20.500" y="32.800" width="1.025" height="1.025" fill="#fb0000" />
<rect x="21.525" y="32.800" width="1.025" height="1.025" fill="#fb0000" />
<rect x="22.550" y="32.800" width="1.025" height="1.025" fill="#de0000" />
<rect x="23.575" y="32.800" width="1.025" height="1.025" fill="#f00000" />
<rect x="24.600" y="32.800" width="1.025" height="1.025" fill="#ea0000" />
<rect x="25.625" y="32.800" width="1.025" height="1.025" fill="#fd0000" />
<rect x="26.650" y="32.800" width="1.025" height="1.025" fill="#770000" />
<rect x="27.675" y="32.800" width="1.025" height="1.025" fill="#000000" />
<rect x="5.125" y="33.825" width="1.025" height="1.025" fill="#000000" />
<rect x="6.150" y="33.825" width="1.025" height="1.025" fill="#620000" />
<rect x="7.175" y="33.825" width="1.025" height="1.025" fill="#b90000" />
<rect x="8.200" y="33.825" width="1.025" height="1.025" fill="#f40000" />
<rect x="9.225" y="33.825" width="1.025" height="1.025" fill="#de0000" />
<rect x="10.250" y="33.825" width="1.025" height="1.025" fill="#9a0000" />
<rect x="11.275" y="33.825" width="1.025" height="1.025" fill="#d80000" />
<rect x="12.300" y="33.825" width="1.025" height="1.025" fill="#f90000" />
<rect x="13.325" y="33.825" width="1.025" height="1.025" fill="#ff0000" />
<rect x="14.350" y="33.825" width="1.025" height="1.025" fill="#fd0000" />
<rect x="15.375" y="33.825" width="1.025" height="1.025" fill="#a00000" />
<rect x="16.400" y="33.825" width="1.025" height="1.025" fill="#fd0000" />
<rect x="17.425" y="33.825" width="1.025" height="1.025" fill="#f40000" />
<rect x="18.450" y="33.825" width="1.025" height="1.025" fill="#e70000" />
<rect x="19.475" y="33.825" width="1.025" height="1.025" fill="#f90000" />
<rect x="20.500" y="33.825" width="1.025" height="1.025" fill="#fb0000" />
<rect x="21.525" y="33.825" width="1.025" height="1.025" fill="#fb0000" />
<rect x="22.550" y="33.825" width="1.025" height="1.025" fill="#a80000" />
<rect x="23.575" y="33.825" width="1.025" height="1.025" fill="#de0000" />
<rect x="24.600" y="33.825" width="1.025" height="1.025" fill="#910000" />
<rect x="25.625" y="33.825" width="1.025" height="1.025" fill="#e30000" />
<rect x="26.650" y="33.825" width="1.025" height="1.025" fill="#790000" />
<rect x="27.675" y="33.825" width="1.025" height="1.025" fill="#000000" />
<rect x="5.125" y="34.850" width="1.025" height="1.025" fill="#000000" />
<rect x="6.150" y="34.850" width="1.025" height="1.025" fill="#720000" />
<rect x="7.175" y="34.850" width="1.025" height="1.025" fill="#b90000" />
<rect x="8.200" y="34.850" width="1.025" height="1.025" fill="#a00000" />
<rect x="9.225" y="34.850" width="1.025" height="1.025" fill="#a80000" />
<rect x="10.250" y="34.850" width="1.025" height="1.025" fill="#000000" />
<rect x="11.275" y="34.850" width="1.025" height="1.025" fill="#a00000" />
<rect x="12.300" y="34.850" width="1.025" height="1.025" fill="#f20000" />
<rect x="13.325" y="34.850" width="1.025" height="1.025" fill="#e50000" />
<rect x="14.350" y="34.850" width="1.025" height="1.025" fill="#f40000" />
<rect x="15.375" y="34.850" width="1.025" height="1.025" fill="#ff0000" />
<rect x="16.400" y="34.850" width="1.025" height="1.025" fill="#fb0000" />
<rect x="17.425" y="34.850" width="1.025" height="1.025" fill="#fb0000" />
<rect x="18.450" y="34.850" width="1.025" height="1.025" fill="#000000" />
<rect x="19.475" y="34.850" width="1.025" height="1.025" fill="#f20000" />
<rect x="20.500" y="34.850" width="1.025" height="1.025" fill="#fd0000" />
<rect x="21.525" y="34.850" width="1.025" height="1.025" fill="#fb0000" />
<rect x="22.550" y="34.850" width="1.025" height="1.025" fill="#790000" />
<rect x="23.575" y="34.850" width="1.025" height="1.025" fill="#b10000" />
<rect x="24.600" y="34.850" width="1.025" height="1.025" fill="#000000" />
<rect x="25.625" y="34.850" width="1.025" height="1.025" fill="#da0000" />
<rect x="26.650" y="34.850" width="1.025" height="1.025" fill="#8b0000" />
<rect x="27.675" y="34.850" width="1.025" height="1.025" fill="#000000" />
<rect x="5.125" y="35.875" width="1.025" height="1.025" fill="#000000" />
<rect x="6.150" y="35.875" width="1.025" height="1.025" fill="#720000" />
<rect x="7.175" y="35.875" width="1.025" height="1.025" fill="#bb0000" />
<rect x="8.200" y="35.875" width="1.025" height="1.025" fill="#670000" />
<rect x="9.225" y="35.875" width="1.025" height="1.025" fill="#a00000" />
<rect x="10.250" y="35.875" width="1.025" height="1.025" fill="#000000" />
<rect x="11.275" y="35.875" width="1.025" height="1.025" fill="#670000" />
<rect x="12.300" y="35.875" width="1.025" height="1.025" fill="#c20000" />
<rect x="13.325" y="35.875" width="1.025" height="1.025" fill="#b60000" />
<rect x="14.350" y="35.875" width="1.025" height="1.025" fill="#d10000" />
<rect x="15.375" y="35.875" width="1.025" height="1.025" fill="#f50000" />
<rect x="16.400" y="35.875" width="1.025" height="1.025" fill="#ec0000" />
<rect x="17.425" y="35.875" width="1.025" height="1.025" fill="#b90000" />
<rect x="18.450" y="35.875" width="1.025" height="1.025" fill="#000000" />
<rect x="19.475" y="35.875" width="1.025" height="1.025" fill="#d80000" />
<rect x="20.500" y="35.875" width="1.025" height="1.025" fill="#f50000" />
<rect x="21.525" y="35.875" width="1.025" height="1.025" fill="#f40000" />
<rect x="22.550" y="35.875" width="1.025" height="1.025" fill="#c00000" />
<rect x="23.575" y="35.875" width="1.025" height="1.025" fill="#910000" />
<rect x="24.600" y="35.875" width="1.025" height="1.025" fill="#000000" />
<rect x="25.625" y="35.875" width="1.025" height="1.025" fill="#ec0000" />
<rect x="26.650" y="35.875" width="1.025" height="1.025" fill="#8b0000" />
<rect x="27.675" y="35.875" width="1.025" height="1.025" fill="#000000" />
<rect x="5.125" y="36.900" width="1.025" height="1.025" fill="#000000" />
<rect x="6.150" y="36.900" width="1.025" height="1.025" fill="#740000" />
<rect x="7.175" y="36.900" width="1.025" height="1.025" fill="#be0000" />
<rect x="8.200" y="36.900" width="1.025" height="1.025" fill="#ee0000" />
<rect x="9.225" y="36.900" width="1.025" height="1.025" fill="#ab0000" />
<rect x="10.250" y="36.900" width="1.025" height="1.025" fill="#000000" />
<rect x="11.275" y="36.900" width="1.025" height="1.025" fill="#6b0000" />
<rect x="12.300" y="36.900" width="1.025" height="1.025" fill="#910000" />
<rect x="13.325" y="36.900" width="1.025" height="1.025" fill="#b30000" />
<rect x="14.350" y="36.900" width="1.025" height="1.025" fill="#b40000" />
<rect x="15.375" y="36.900" width="1.025" height="1.025" fill="#c20000" />
<rect x="16.400" y="36.900" width="1.025" height="1.025" fill="#c50000" />
<rect x="17.425" y="36.900" width="1.025" height="1.025" fill="#ac0000" />
<rect x="18.450" y="36.900" width="1.025" height="1.025" fill="#000000" />
<rect x="19.475" y="36.900" width="1.025" height="1.025" fill="#c30000" />
<rect x="20.500" y="36.900" width="1.025" height="1.025" fill="#d60000" />
<rect x="21.525" y="36.900" width="1.025" height="1.025" fill="#d50000" />
<rect x="22.550" y="36.900" width="1.025" height="1.025" fill="#c20000" />
<rect x="23.575" y="36.900" width="1.025" height="1.025" fill="#790000" />
<rect x="24.600" y="36.900" width="1.025" height="1.025" fill="#000000" />
<rect x="25.625" y="36.900" width="1.025" height="1.025" fill="#ec0000" />
<rect x="26.650" y="36.900" width="1.025" height="1.025" fill="#8f0000" />
<rect x="27.675" y="36.900" width="1.025" height="1.025" fill="#000000" />
</svg>