<svg xmlns="http://www.w3.org/2000/svg" width="37.925" height="37.925" shape-rendering="crispEdges" style="image-rendering: pixelated;">
<rect x="15.375" y="5.125" width="1.025" height="1.025" fill="#313131" />
<rect x="16.400" y="5.125" width="1.025" height="1.025" fill="#000000" />
<rect x="17.425" y="5.125" width="1.025" height="1.025" fill="#000000" />
<rect x="18.450" y="5.125" width="1.025" height="1.025" fill="#000000" />
<rect x="19.475" y="5.125" width="1.025" height="1.025" fill="#000000" />
<rect x="20.500" y="5.125" width="1.025" height="1.025" fill="#000000" />
<rect x="21.525" y="5.125" width="1.025" height="1.025" fill="#000000" />
<rect x="22.550" y="5.125" width="1.025" height="1.025" fill="#000000" />
<rect x="14.350" y="6.150" width="1.025" height="1.025" fill="#1a1a1a" />
<rect x="15.375" y="6.150" width="1.025" height="1.025" fill="#000000" />
<rect x="16.400" y="6.150" width="1.025" height="1.025" fill="#000000" />
<rect x="17.425" y="6.150" width="1.025" height="1.025" fill="#818181" />
<rect x="18.450" y="6.150" width="1.025" height="1.025" fill="#e5e5e5" />
<rect x="19.475" y="6.150" width="1.025" height="1.025" fill="#ffffff" />
<rect x="20.500" y="6.150" width="1.025" height="1.025" fill="#ffffff" />
<rect x="21.525" y="6.150" width="1.025" height="1.025" fill="#ffffff" />
<rect x="22.550" y="6.150" width="1.025" height="1.025" fill="#000000" />
<rect x="23.575" y="6.150" width="1.025" height="1.025" fill="#000000" />
<rect x="13.325" y="7.175" width="1.025" height="1.025" fill="#1a1a1a" />
<rect x="14.350" y="7.175" width="1.025" height="1.025" fill="#000000" />
<rect x="15.375" y="7.175" width="1.025" height="1.025" fill="#000000" />
<rect x="16.400" y="7.175" width="1.025" height="1.025" fill="#000000" />
<rect x="17.425" y="7.175" width="1.025" height="1.025" fill="#e5e5e5" />
<rect x="18.450" y="7.175" width="1.025" height="1.025" fill="#ffffff" />
<rect x="19.475" y="7.175" width="1.025" height="1.025" fill="#ffffff" />
<rect x="20.500" y="7.175" width="1.025" height="1.025" fill="#ffffff" />
<rect x="21.525" y="7.175" width="1.025" height="1.025" fill="#ffffff" />
<rect x="22.550" y="7.175" width="1.025" height="1.025" fill="#ffffff" />
<rect x="23.575" y="7.175" width="1.025" height="1.025" fill="#e5e5e5" />
<rect x="24.600" y="7.175" width="1.025" height="1.025" fill="#000000" />
<rect x="12.300" y="8.200" width="1.025" height="1.025" fill="#1a1a1a" />
<rect x="13.325" y="8.200" width="1.025" height="1.025" fill="#000000" />
<rect x="14.350" y="8.200" width="1.025" height="1.025" fill="#000000" />
<rect x="15.375" y="8.200" width="1.025" height="1.025" fill="#000000" />
<rect x="16.400" y="8.200" width="1.025" height="1.025" fill="#e5e5e5" />
<rect x="17.425" y="8.200" width="1.025" height="1.025" fill="#ffffff" />
<rect x="18.450" y="8.200" width="1.025" height="1.025" fill="#ffffff" />
<rect x="19.475" y="8.200" width="1.025" height="1.025" fill="#ffffff" />
<rect x="20.500" y="8.200" width="1.025" height="1.025" fill="#ffffff" />
<rect x="21.525" y="8.200" width="1.025" height="1.025" fill="#ffffff" />
<rect x="22.550" y="8.200" width="1.025" height="1.025" fill="#ffffff" />
<rect x="23.575" y="8.200" width="1.025" height="1.025" fill="#ffffff" />
<rect x="24.600" y="8.200" width="1.025" height="1.025" fill="#000000" />
<rect x="25.625" y="8.200" width="1.025" height="1.025" fill="#000000" />
<rect x="12.300" y="9.225" width="1.025" height="1.025" fill="#1a1a1a" />
<rect x="13.325" y="9.225" width="1.025" height="1.025" fill="#000000" />
<rect x="14.350" y="9.225" width="1.025" height="1.025" fill="#000000" />
<rect x="15.375" y="9.225" width="1.025" height="1.025" fill="#e5e5e5" />
<rect x="16.400" y="9.225" width="1.025" height="1.025" fill="#e5e5e5" />
<rect x="17.425" y="9.225" width="1.025" height="1.025" fill="#ffffff" />
<rect x="18.450" y="9.225" width="1.025" height="1.025" fill="#ffffff" />
<rect x="19.475" y="9.225" width="1.025" height="1.025" fill="#ffffff" />
<rect x="20.500" y="9.225" width="1.025" height="1.025" fill="#ffffff" />
<rect x="21.525" y="9.225" width="1.025" height="1.025" fill="#ffffff" />
<rect x="22.550" y="9.225" width="1.025" height="1.025" fill="#ffffff" />
<rect x="23.575" y="9.225" width="1.025" height="1.025" fill="#ffffff" />
<rect x="24.600" y="9.225" width="1.025" height="1.025" fill="#ffffff" />
<rect x="25.625" y="9.225" width="1.025" height="1.025" fill="#000000" />
<rect x="12.300" y="10.250" width="1.025" height="1.025" fill="#1a1a1a" />
<rect x="13.325" y="10.250" width="1.025" height="1.025" fill="#000000" />
<rect x="14.350" y="10.250" width="1.025" height="1.025" fill="#000000" />
<rect x="15.375" y="10.250" width="1.025" height="1.025" fill="#e5e5e5" />
<rect x="16.400" y="10.250" width="1.025" height="1.025" fill="#ffffff" />
<rect x="17.425" y="10.250" width="1.025" height="1.025" fill="#ffffff" />
<rect x="18.450" y="10.250" width="1.025" height="1.025" fill="#ffffff" />
<rect x="19.475" y="10.250" width="1.025" height="1.025" fill="#ffffff" />
<rect x="20.500" y="10.250" width="1.025" height="1.025" fill="#ffffff" />
<rect x="21.525" y="10.250" width="1.025" height="1.025" fill="#ffffff" />
<rect x="22.550" y="10.250" width="1.025" height="1.025" fill="#ffffff" />
<rect x="23.575" y="10.250" width="1.025" height="1.025" fill="#ffffff" />
<rect x="24.600" y="10.250" width="1.025" height="1.025" fill="#ffffff" />
<rect x="25.625" y="10.250" width="1.025" height="1.025" fill="#000000" />
<rect x="12.300" y="11.275" width="1.025" height="1.025" fill="#1a1a1a" />
<rect x="13.325" y="11.275" width="1.025" height="1.025" fill="#000000" />
<rect x="14.350" y="11.275" width="1.025" height="1.025" fill="#000000" />
<rect x="15.375" y="11.275" width="1.025" height="1.025" fill="#e5e5e5" />
<rect x="16.400" y="11.275" width="1.025" height="1.025" fill="#ffffff" />
<rect x="17.425" y="11.275" width="1.025" height="1.025" fill="#ffffff" />
<rect x="18.450" y="11.275" width="1.025" height="1.025" fill="#ffffff" />
<rect x="19.475" y="11.275" width="1.025" height="1.025" fill="#ffffff" />
<rect x="20.500" y="11.275" width="1.025" height="1.025" fill="#ffffff" />
<rect x="21.525" y="11.275" width="1.025" height="1.025" fill="#ffffff" />
<rect x="22.550" y="11.275" width="1.025" height="1.025" fill="#ffffff" />
<rect x="23.575" y="11.275" width="1.025" height="1.025" fill="#ffffff" />
<rect x="24.600" y="11.275" width="1.025" height="1.025" fill="#ffffff" />
<rect x="25.625" y="11.275" width="1.025" height="1.025" fill="#000000" />
<rect x="12.300" y="12.300" width="1.025" height="1.025" fill="#000000" />
<rect x="13.325" y="12.300" width="1.025" height="1.025" fill="#000000" />
<rect x="14.350" y="12.300" width="1.025" height="1.025" fill="#cecece" />
<rect x="15.375" y="12.300" width="1.025" height="1.025" fill="#e5e5e5" />
<rect x="16.400" y="12.300" width="1.025" height="1.025" fill="#ffffff" />
<rect x="17.425" y="12.300" width="1.025" height="1.025" fill="#ffffff" />
<rect x="18.450" y="12.300" width="1.025" height="1.025" fill="#000000" />
<rect x="19.475" y="12.300" width="1.025" height="1.025" fill="#000000" />
<rect x="20.500" y="12.300" width="1.025" height="1.025" fill="#ffffff" />
<rect x="21.525" y="12.300" width="1.025" height="1.025" fill="#000000" />
<rect x="22.550" y="12.300" width="1.025" height="1.025" fill="#000000" />
<rect x="23.575" y="12.300" width="1.025" height="1.025" fill="#ffffff" />
<rect x="24.600" y="12.300" width="1.025" height="1.025" fill="#ffffff" />
<rect x="25.625" y="12.300" width="1.025" height="1.025" fill="#000000" />
<rect x="11.275" y="13.325" width="1.025" height="1.025" fill="#1a1a1a" />
<rect x="12.300" y="13.325" width="1.025" height="1.025" fill="#000000" />
<rect x="13.325" y="13.325" width="1.025" height="1.025" fill="#000000" />
<rect x="14.350" y="13.325" width="1.025" height="1.025" fill="#cecece" />
<rect x="15.375" y="13.325" width="1.025" height="1.025" fill="#ffffff" />
<rect x="16.400" y="13.325" width="1.025" height="1.025" fill="#ffffff" />
<rect x="17.425" y="13.325" width="1.025" height="1.025" fill="#000000" />
<rect x="18.450" y="13.325" width="1.025" height="1.025" fill="#000000" />
<rect x="19.475" y="13.325" width="1.025" height="1.025" fill="#313131" />
<rect x="20.500" y="13.325" width="1.025" height="1.025" fill="#ffffff" />
<rect x="21.525" y="13.325" width="1.025" height="1.025" fill="#000000" />
<rect x="22.550" y="13.325" width="1.025" height="1.025" fill="#000000" />
<rect x="23.575" y="13.325" width="1.025" height="1.025" fill="#313131" />
<rect x="24.600" y="13.325" width="1.025" height="1.025" fill="#ffffff" />
<rect x="25.625" y="13.325" width="1.025" height="1.025" fill="#000000" />
<rect x="11.275" y="14.350" width="1.025" height="1.025" fill="#313131" />
<rect x="12.300" y="14.350" width="1.025" height="1.025" fill="#000000" />
<rect x="13.325" y="14.350" width="1.025" height="1.025" fill="#000000" />
<rect x="14.350" y="14.350" width="1.025" height="1.025" fill="#cecece" />
<rect x="15.375" y="14.350" width="1.025" height="1.025" fill="#ffffff" />
<rect x="16.400" y="14.350" width="1.025" height="1.025" fill="#000000" />
<rect x="17.425" y="14.350" width="1.025" height="1.025" fill="#000000" />
<rect x="18.450" y="14.350" width="1.025" height="1.025" fill="#000000" />
<rect x="19.475" y="14.350" width="1.025" height="1.025" fill="#464646" />
<rect x="20.500" y="14.350" width="1.025" height="1.025" fill="#ffffff" />
<rect x="21.525" y="14.350" width="1.025" height="1.025" fill="#000000" />
<rect x="22.550" y="14.350" width="1.025" height="1.025" fill="#000000" />
<rect x="23.575" y="14.350" width="1.025" height="1.025" fill="#000000" />
<rect x="24.600" y="14.350" width="1.025" height="1.025" fill="#797979" />
<rect x="25.625" y="14.350" width="1.025" height="1.025" fill="#000000" />
<rect x="11.275" y="15.375" width="1.025" height="1.025" fill="#313131" />
<rect x="12.300" y="15.375" width="1.025" height="1.025" fill="#000000" />
<rect x="13.325" y="15.375" width="1.025" height="1.025" fill="#000000" />
<rect x="14.350" y="15.375" width="1.025" height="1.025" fill="#cecece" />
<rect x="15.375" y="15.375" width="1.025" height="1.025" fill="#ffffff" />
<rect x="16.400" y="15.375" width="1.025" height="1.025" fill="#000000" />
<rect x="17.425" y="15.375" width="1.025" height="1.025" fill="#000000" />
<rect x="18.450" y="15.375" width="1.025" height="1.025" fill="#000000" />
<rect x="19.475" y="15.375" width="1.025" height="1.025" fill="#cecece" />
<rect x="20.500" y="15.375" width="1.025" height="1.025" fill="#ffffff" />
<rect x="21.525" y="15.375" width="1.025" height="1.025" fill="#e5e5e5" />
<rect x="22.550" y="15.375" width="1.025" height="1.025" fill="#000000" />
<rect x="23.575" y="15.375" width="1.025" height="1.025" fill="#000000" />
<rect x="24.600" y="15.375" width="1.025" height="1.025" fill="#464646" />
<rect x="25.625" y="15.375" width="1.025" height="1.025" fill="#000000" />
<rect x="11.275" y="16.400" width="1.025" height="1.025" fill="#313131" />
<rect x="12.300" y="16.400" width="1.025" height="1.025" fill="#000000" />
<rect x="13.325" y="16.400" width="1.025" height="1.025" fill="#000000" />
<rect x="14.350" y="16.400" width="1.025" height="1.025" fill="#cecece" />
<rect x="15.375" y="16.400" width="1.025" height="1.025" fill="#ffffff" />
<rect x="16.400" y="16.400" width="1.025" height="1.025" fill="#cecece" />
<rect x="17.425" y="16.400" width="1.025" height="1.025" fill="#cecece" />
<rect x="18.450" y="16.400" width="1.025" height="1.025" fill="#e5e5e5" />
<rect x="19.475" y="16.400" width="1.025" height="1.025" fill="#ffffff" />
<rect x="20.500" y="16.400" width="1.025" height="1.025" fill="#ffffff" />
<rect x="21.525" y="16.400" width="1.025" height="1.025" fill="#ffffff" />
<rect x="22.550" y="16.400" width="1.025" height="1.025" fill="#e5e5e5" />
<rect x="23.575" y="16.400" width="1.025" height="1.025" fill="#cecece" />
<rect x="24.600" y="16.400" width="1.025" height="1.025" fill="#d3d3d3" />
<rect x="25.625" y="16.400" width="1.025" height="1.025" fill="#000000" />
<rect x="11.275" y="17.425" width="1.025" height="1.025" fill="#1a1a1a" />
<rect x="12.300" y="17.425" width="1.025" height="1.025" fill="#000000" />
<rect x="13.325" y="17.425" width="1.025" height="1.025" fill="#000000" />
<rect x="14.350" y="17.425" width="1.025" height="1.025" fill="#b9b9b9" />
<rect x="15.375" y="17.425" width="1.025" height="1.025" fill="#ffffff" />
<rect x="16.400" y="17.425" width="1.025" height="1.025" fill="#ffffff" />
<rect x="17.425" y="17.425" width="1.025" height="1.025" fill="#ffffff" />
<rect x="18.450" y="17.425" width="1.025" height="1.025" fill="#ffffff" />
<rect x="19.475" y="17.425" width="1.025" height="1.025" fill="#ffffff" />
<rect x="20.500" y="17.425" width="1.025" height="1.025" fill="#000000" />
<rect x="21.525" y="17.425" width="1.025" height="1.025" fill="#000000" />
<rect x="22.550" y="17.425" width="1.025" height="1.025" fill="#ffffff" />
<rect x="23.575" y="17.425" width="1.025" height="1.025" fill="#ffffff" />
<rect x="24.600" y="17.425" width="1.025" height="1.025" fill="#ffffff" />
<rect x="25.625" y="17.425" width="1.025" height="1.025" fill="#000000" />
<rect x="11.275" y="18.450" width="1.025" height="1.025" fill="#1a1a1a" />
<rect x="12.300" y="18.450" width="1.025" height="1.025" fill="#000000" />
<rect x="13.325" y="18.450" width="1.025" height="1.025" fill="#000000" />
<rect x="14.350" y="18.450" width="1.025" height="1.025" fill="#cecece" />
<rect x="15.375" y="18.450" width="1.025" height="1.025" fill="#e5e5e5" />
<rect x="16.400" y="18.450" width="1.025" height="1.025" fill="#ffffff" />
<rect x="17.425" y="18.450" width="1.025" height="1.025" fill="#ffffff" />
<rect x="18.450" y="18.450" width="1.025" height="1.025" fill="#ffffff" />
<rect x="19.475" y="18.450" width="1.025" height="1.025" fill="#ffffff" />
<rect x="20.500" y="18.450" width="1.025" height="1.025" fill="#e5e5e5" />
<rect x="21.525" y="18.450" width="1.025" height="1.025" fill="#e5e5e5" />
<rect x="22.550" y="18.450" width="1.025" height="1.025" fill="#ffffff" />
<rect x="23.575" y="18.450" width="1.025" height="1.025" fill="#ffffff" />
<rect x="24.600" y="18.450" width="1.025" height="1.025" fill="#ffffff" />
<rect x="25.625" y="18.450" width="1.025" height="1.025" fill="#000000" />
<rect x="11.275" y="19.475" width="1.025" height="1.025" fill="#1a1a1a" />
<rect x="12.300" y="19.475" width="1.025" height="1.025" fill="#000000" />
<rect x="13.325" y="19.475" width="1.025" height="1.025" fill="#000000" />
<rect x="14.350" y="19.475" width="1.025" height="1.025" fill="#000000" />
<rect x="15.375" y="19.475" width="1.025" height="1.025" fill="#cecece" />
<rect x="16.400" y="19.475" width="1.025" height="1.025" fill="#e5e5e5" />
<rect x="17.425" y="19.475" width="1.025" height="1.025" fill="#ffffff" />
<rect x="18.450" y="19.475" width="1.025" height="1.025" fill="#ffffff" />
<rect x="19.475" y="19.475" width="1.025" height="1.025" fill="#ffffff" />
<rect x="20.500" y="19.475" width="1.025" height="1.025" fill="#000000" />
<rect x="21.525" y="19.475" width="1.025" height="1.025" fill="#464646" />
<rect x="22.550" y="19.475" width="1.025" height="1.025" fill="#ffffff" />
<rect x="23.575" y="19.475" width="1.025" height="1.025" fill="#ffffff" />
<rect x="24.600" y="19.475" width="1.025" height="1.025" fill="#000000" />
<rect x="25.625" y="19.475" width="1.025" height="1.025" fill="#000000" />
<rect x="11.275" y="20.500" width="1.025" height="1.025" fill="#1a1a1a" />
<rect x="12.300" y="20.500" width="1.025" height="1.025" fill="#000000" />
<rect x="13.325" y="20.500" width="1.025" height="1.025" fill="#000000" />
<rect x="14.350" y="20.500" width="1.025" height="1.025" fill="#000000" />
<rect x="15.375" y="20.500" width="1.025" height="1.025" fill="#000000" />
<rect x="16.400" y="20.500" width="1.025" height="1.025" fill="#cecece" />
<rect x="17.425" y="20.500" width="1.025" height="1.025" fill="#ffffff" />
<rect x="18.450" y="20.500" width="1.025" height="1.025" fill="#ffffff" />
<rect x="19.475" y="20.500" width="1.025" height="1.025" fill="#000000" />
<rect x="20.500" y="20.500" width="1.025" height="1.025" fill="#000000" />
<rect x="21.525" y="20.500" width="1.025" height="1.025" fill="#000000" />
<rect x="22.550" y="20.500" width="1.025" height="1.025" fill="#595959" />
<rect x="23.575" y="20.500" width="1.025" height="1.025" fill="#ffffff" />
<rect x="24.600" y="20.500" width="1.025" height="1.025" fill="#000000" />
<rect x="11.275" y="21.525" width="1.025" height="1.025" fill="#1a1a1a" />
<rect x="12.300" y="21.525" width="1.025" height="1.025" fill="#000000" />
<rect x="13.325" y="21.525" width="1.025" height="1.025" fill="#000000" />
<rect x="14.350" y="21.525" width="1.025" height="1.025" fill="#000000" />
<rect x="15.375" y="21.525" width="1.025" height="1.025" fill="#000000" />
<rect x="16.400" y="21.525" width="1.025" height="1.025" fill="#000000" />
<rect x="17.425" y="21.525" width="1.025" height="1.025" fill="#ffffff" />
<rect x="18.450" y="21.525" width="1.025" height="1.025" fill="#ffffff" />
<rect x="19.475" y="21.525" width="1.025" height="1.025" fill="#000000" />
<rect x="20.500" y="21.525" width="1.025" height="1.025" fill="#000000" />
<rect x="21.525" y="21.525" width="1.025" height="1.025" fill="#000000" />
<rect x="22.550" y="21.525" width="1.025" height="1.025" fill="#313131" />
<rect x="23.575" y="21.525" width="1.025" height="1.025" fill="#ffffff" />
<rect x="24.600" y="21.525" width="1.025" height="1.025" fill="#000000" />
<rect x="11.275" y="22.550" width="1.025" height="1.025" fill="#1a1a1a" />
<rect x="12.300" y="22.550" width="1.025" height="1.025" fill="#000000" />
<rect x="13.325" y="22.550" width="1.025" height="1.025" fill="#000000" />
<rect x="14.350" y="22.550" width="1.025" height="1.025" fill="#000000" />
<rect x="15.375" y="22.550" width="1.025" height="1.025" fill="#000000" />
<rect x="16.400" y="22.550" width="1.025" height="1.025" fill="#000000" />
<rect x="17.425" y="22.550" width="1.025" height="1.025" fill="#ffffff" />
<rect x="18.450" y="22.550" width="1.025" height="1.025" fill="#ffffff" />
<rect x="19.475" y="22.550" width="1.025" height="1.025" fill="#000000" />
<rect x="20.500" y="22.550" width="1.025" height="1.025" fill="#000000" />
<rect x="21.525" y="22.550" width="1.025" height="1.025" fill="#000000" />
<rect x="22.550" y="22.550" width="1.025" height="1.025" fill="#313131" />
<rect x="23.575" y="22.550" width="1.025" height="1.025" fill="#ffffff" />
<rect x="24.600" y="22.550" width="1.025" height="1.025" fill="#000000" />
<rect x="11.275" y="23.575" width="1.025" height="1.025" fill="#1a1a1a" />
<rect x="12.300" y="23.575" width="1.025" height="1.025" fill="#000000" />
<rect x="13.325" y="23.575" width="1.025" height="1.025" fill="#000000" />
<rect x="14.350" y="23.575" width="1.025" height="1.025" fill="#000000" />
<rect x="15.375" y="23.575" width="1.025" height="1.025" fill="#000000" />
<rect x="16.400" y="23.575" width="1.025" height="1.025" fill="#000000" />
<rect x="17.425" y="23.575" width="1.025" height="1.025" fill="#e5e5e5" />
<rect x="18.450" y="23.575" width="1.025" height="1.025" fill="#ffffff" />
<rect x="19.475" y="23.575" width="1.025" height="1.025" fill="#000000" />
<rect x="20.500" y="23.575" width="1.025" height="1.025" fill="#000000" />
<rect x="21.525" y="23.575" width="1.025" height="1.025" fill="#000000" />
<rect x="22.550" y="23.575" width="1.025" height="1.025" fill="#464646" />
<rect x="23.575" y="23.575" width="1.025" height="1.025" fill="#ffffff" />
<rect x="24.600" y="23.575" width="1.025" height="1.025" fill="#000000" />
<rect x="11.275" y="24.600" width="1.025" height="1.025" fill="#1a1a1a" />
<rect x="12.300" y="24.600" width="1.025" height="1.025" fill="#000000" />
<rect x="13.325" y="24.600" width="1.025" height="1.025" fill="#000000" />
<rect x="14.350" y="24.600" width="1.025" height="1.025" fill="#000000" />
<rect x="15.375" y="24.600" width="1.025" height="1.025" fill="#000000" />
<rect x="16.400" y="24.600" width="1.025" height="1.025" fill="#000000" />
<rect x="17.425" y="24.600" width="1.025" height="1.025" fill="#e5e5e5" />
<rect x="18.450" y="24.600" width="1.025" height="1.025" fill="#ffffff" />
<rect x="19.475" y="24.600" width="1.025" height="1.025" fill="#ffffff" />
<rect x="20.500" y="24.600" width="1.025" height="1.025" fill="#000000" />
<rect x="21.525" y="24.600" width="1.025" height="1.025" fill="#000000" />
<rect x="22.550" y="24.600" width="1.025" height="1.025" fill="#ffffff" />
<rect x="23.575" y="24.600" width="1.025" height="1.025" fill="#000000" />
<rect x="11.275" y="25.625" width="1.025" height="1.025" fill="#1a1a1a" />
<rect x="12.300" y="25.625" width="1.025" height="1.025" fill="#000000" />
<rect x="13.325" y="25.625" width="1.025" height="1.025" fill="#000000" />
<rect x="14.350" y="25.625" width="1.025" height="1.025" fill="#000000" />
<rect x="15.375" y="25.625" width="1.025" height="1.025" fill="#1a1a1a" />
<rect x="16.400" y="25.625" width="1.025" height="1.025" fill="#000000" />
<rect x="17.425" y="25.625" width="1.025" height="1.025" fill="#cecece" />
<rect x="18.450" y="25.625" width="1.025" height="1.025" fill="#ffffff" />
<rect x="19.475" y="25.625" width="1.025" height="1.025" fill="#e8e8e8" />
<rect x="20.500" y="25.625" width="1.025" height="1.025" fill="#000000" />
<rect x="21.525" y="25.625" width="1.025" height="1.025" fill="#000000" />
<rect x="22.550" y="25.625" width="1.025" height="1.025" fill="#ffffff" />
<rect x="23.575" y="25.625" width="1.025" height="1.025" fill="#000000" />
<rect x="10.250" y="26.650" width="1.025" height="1.025" fill="#000000" />
<rect x="11.275" y="26.650" width="1.025" height="1.025" fill="#1a1a1a" />
<rect x="12.300" y="26.650" width="1.025" height="1.025" fill="#000000" />
<rect x="13.325" y="26.650" width="1.025" height="1.025" fill="#000000" />
<rect x="14.350" y="26.650" width="1.025" height="1.025" fill="#000000" />
<rect x="15.375" y="26.650" width="1.025" height="1.025" fill="#1a1a1a" />
<rect x="16.400" y="26.650" width="1.025" height="1.025" fill="#000000" />
<rect x="17.425" y="26.650" width="1.025" height="1.025" fill="#000000" />
<rect x="18.450" y="26.650" width="1.025" height="1.025" fill="#ffffff" />
<rect x="19.475" y="26.650" width="1.025" height="1.025" fill="#ffffff" />
<rect x="20.500" y="26.650" width="1.025" height="1.025" fill="#ffffff" />
<rect x="21.525" y="26.650" width="1.025" height="1.025" fill="#ffffff" />
<rect x="22.550" y="26.650" width="1.025" height="1.025" fill="#000000" />
<rect x="23.575" y="26.650" width="1.025" height="1.025" fill="#000000" />
<rect x="10.250" y="27.675" width="1.025" height="1.025" fill="#1a1a1a" />
<rect x="11.275" y="27.675" width="1.025" height="1.025" fill="#1a1a1a" />
<rect x="12.300" y="27.675" width="1.025" height="1.025" fill="#000000" />
<rect x="13.325" y="27.675" width="1.025" height="1.025" fill="#000000" />
<rect x="14.350" y="27.675" width="1.025" height="1.025" fill="#000000" />
<rect x="15.375" y="27.675" width="1.025" height="1.025" fill="#1a1a1a" />
<rect x="16.400" y="27.675" width="1.025" height="1.025" fill="#000000" />
<rect x="17.425" y="27.675" width="1.025" height="1.025" fill="#000000" />
<rect x="18.450" y="27.675" width="1.025" height="1.025" fill="#000000" />
<rect x="19.475" y="27.675" width="1.025" height="1.025" fill="#000000" />
<rect x="20.500" y="27.675" width="1.025" height="1.025" fill="#000000" />
<rect x="21.525" y="27.675" width="1.025" height="1.025" fill="#000000" />
<rect x="22.550" y="27.675" width="1.025" height="1.025" fill="#000000" />
<rect x="10.250" y="28.700" width="1.025" height="1.025" fill="#1a1a1a" />
<rect x="11.275" y="28.700" width="1.025" height="1.025" fill="#313131" />
<rect x="12.300" y="28.700" width="1.025" height="1.025" fill="#000000" />
<rect x="13.325" y="28.700" width="1.025" height="1.025" fill="#000000" />
<rect x="14.350" y="28.700" width="1.025" height="1.025" fill="#1a1a1a" />
<rect x="15.375" y="28.700" width="1.025" height="1.025" fill="#1a1a1a" />
<rect x="16.400" y="28.700" width="1.025" height="1.025" fill="#000000" />
<rect x="17.425" y="28.700" width="1.025" height="1.025" fill="#000000" />
<rect x="18.450" y="28.700" width="1.025" height="1.025" fill="#000000" />
<rect x="19.475" y="28.700" width="1.025" height="1.025" fill="#000000" />
<rect x="20.500" y="28.700" width="1.025" height="1.025" fill="#000000" />
<rect x="21.525" y="28.700" width="1.025" height="1.025" fill="#000000" />
<rect x="22.550" y="28.700" width="1.025" height="1.025" fill="#000000" />
<rect x="11.275" y="29.725" width="1.025" height="1.025" fill="#313131" />
<rect x="12.300" y="29.725" width="1.025" height="1.025" fill="#1a1a1a" />
<rect x="13.325" y="29.725" width="1.025" height="1.025" fill="#000000" />
<rect x="14.350" y="29.725" width="1.025" height="1.025" fill="#1a1a1a" />
<rect x="15.375" y="29.725" width="1.025" height="1.025" fill="#1a1a1a" />
<rect x="16.400" y="29.725" width="1.025" height="1.025" fill="#000000" />
<rect x="17.425" y="29.725" width="1.025" height="1.025" fill="#000000" />
<rect x="18.450" y="29.725" width="1.025" height="1.025" fill="#1a1a1a" />
<rect x="19.475" y="29.725" width="1.025" height="1.025" fill="#1a1a1a" />
<rect x="20.500" y="29.725" width="1.025" height="1.025" fill="#000000" />
<rect x="21.525" y="29.725" width="1.025" height="1.025" fill="#000000" />
<rect x="22.550" y="29.725" width="1.025" height="1.025" fill="#1a1a1a" />
<rect x="23.575" y="29.725" width="1.025" height="1.025" fill="#1a1a1a" />
<rect x="13.325" y="30.750" width="1.025" height="1.025" fill="#1a1a1a" />
<rect x="14.350" y="30.750" width="1.025" height="1.025" fill="#1a1a1a" />
<rect x="15.375" y="30.750" width="1.025" height="1.025" fill="#000000" />
<rect x="16.400" y="30.750" width="1.025" height="1.025" fill="#000000" />
<rect x="17.425" y="30.750" width="1.025" height="1.025" fill="#000000" />
<rect x="18.450" y="30.750" width="1.025" height="1.025" fill="#1a1a1a" />
<rect x="19.475" y="30.750" width="1.025" height="1.025" fill="#1a1a1a" />
<rect x="20.500" y="30.750" width="1.025" height="1.025" fill="#000000" />
<rect x="21.525" y="30.750" width="1.025" height="1.025" fill="#000000" />
<rect x="22.550" y="30.750" width="1.025" height="1.025" fill="#1a1a1a" />
<rect x="23.575" y="30.750" width="1.025" height="1.025" fill="#1a1a1a" />
<rect x="15.375" y="31.775" width="1.025" height="1.025" fill="#000000" />
<rect x="16.400" y="31.775" width="1.025" height="1.025" fill="#000000" />
<rect x="17.425" y="31.775" width="1.025" height="1.025" fill="#000000" />
<rect x="18.450" y="31.775" width="1.025" height="1.025" fill="#000000" />
<rect x="19.475" y="31.775" width="1.025" height="1.025" fill="#1a1a1a" />
</svg>