<svg xmlns="http://www.w3.org/2000/svg" width="37.925" height="37.925" shape-rendering="crispEdges" style="image-rendering: pixelated;">
<rect x="14.350" y="6.150" width="1.025" height="1.025" fill="#3d3d3d" />
<rect x="15.375" y="6.150" width="1.025" height="1.025" fill="#3d3d3d" />
<rect x="16.400" y="6.150" width="1.025" height="1.025" fill="#3d3d3d" />
<rect x="17.425" y="6.150" width="1.025" height="1.025" fill="#3d3d3d" />
<rect x="18.450" y="6.150" width="1.025" height="1.025" fill="#4b4b4b" />
<rect x="19.475" y="6.150" width="1.025" height="1.025" fill="#4b4b4b" />
<rect x="20.500" y="6.150" width="1.025" height="1.025" fill="#4b4b4b" />
<rect x="21.525" y="6.150" width="1.025" height="1.025" fill="#535353" />
<rect x="22.550" y="6.150" width="1.025" height="1.025" fill="#565656" />
<rect x="13.325" y="7.175" width="1.025" height="1.025" fill="#434343" />
<rect x="14.350" y="7.175" width="1.025" height="1.025" fill="#707070" />
<rect x="15.375" y="7.175" width="1.025" height="1.025" fill="#bdbdbd" />
<rect x="16.400" y="7.175" width="1.025" height="1.025" fill="#c7c7c7" />
<rect x="17.425" y="7.175" width="1.025" height="1.025" fill="#cdcdcd" />
<rect x="18.450" y="7.175" width="1.025" height="1.025" fill="#cacaca" />
<rect x="19.475" y="7.175" width="1.025" height="1.025" fill="#cacaca" />
<rect x="20.500" y="7.175" width="1.025" height="1.025" fill="#cacaca" />
<rect x="21.525" y="7.175" width="1.025" height="1.025" fill="#cacaca" />
<rect x="22.550" y="7.175" width="1.025" height="1.025" fill="#bababa" />
<rect x="23.575" y="7.175" width="1.025" height="1.025" fill="#565656" />
<rect x="12.300" y="8.200" width="1.025" height="1.025" fill="#373737" />
<rect x="13.325" y="8.200" width="1.025" height="1.025" fill="#4a4a4a" />
<rect x="14.350" y="8.200" width="1.025" height="1.025" fill="#b5b5b5" />
<rect x="15.375" y="8.200" width="1.025" height="1.025" fill="#d2d2d2" />
<rect x="16.400" y="8.200" width="1.025" height="1.025" fill="#dcdcdc" />
<rect x="17.425" y="8.200" width="1.025" height="1.025" fill="#ececec" />
<rect x="18.450" y="8.200" width="1.025" height="1.025" fill="#eaeaea" />
<rect x="19.475" y="8.200" width="1.025" height="1.025" fill="#e8e8e8" />
<rect x="20.500" y="8.200" width="1.025" height="1.025" fill="#ebebeb" />
<rect x="21.525" y="8.200" width="1.025" height="1.025" fill="#eaeaea" />
<rect x="22.550" y="8.200" width="1.025" height="1.025" fill="#e1e1e1" />
<rect x="23.575" y="8.200" width="1.025" height="1.025" fill="#bebebe" />
<rect x="24.600" y="8.200" width="1.025" height="1.025" fill="#000000" />
<rect x="12.300" y="9.225" width="1.025" height="1.025" fill="#3d3d3d" />
<rect x="13.325" y="9.225" width="1.025" height="1.025" fill="#626262" />
<rect x="14.350" y="9.225" width="1.025" height="1.025" fill="#bababa" />
<rect x="15.375" y="9.225" width="1.025" height="1.025" fill="#cdcdcd" />
<rect x="16.400" y="9.225" width="1.025" height="1.025" fill="#eaeaea" />
<rect x="17.425" y="9.225" width="1.025" height="1.025" fill="#ececec" />
<rect x="18.450" y="9.225" width="1.025" height="1.025" fill="#f4f4f4" />
<rect x="19.475" y="9.225" width="1.025" height="1.025" fill="#f7f7f7" />
<rect x="20.500" y="9.225" width="1.025" height="1.025" fill="#f2f2f2" />
<rect x="21.525" y="9.225" width="1.025" height="1.025" fill="#ececec" />
<rect x="22.550" y="9.225" width="1.025" height="1.025" fill="#eaeaea" />
<rect x="23.575" y="9.225" width="1.025" height="1.025" fill="#c7c7c7" />
<rect x="24.600" y="9.225" width="1.025" height="1.025" fill="#000000" />
<rect x="12.300" y="10.250" width="1.025" height="1.025" fill="#3d3d3d" />
<rect x="13.325" y="10.250" width="1.025" height="1.025" fill="#626262" />
<rect x="14.350" y="10.250" width="1.025" height="1.025" fill="#b7b7b7" />
<rect x="15.375" y="10.250" width="1.025" height="1.025" fill="#cdcdcd" />
<rect x="16.400" y="10.250" width="1.025" height="1.025" fill="#eaeaea" />
<rect x="17.425" y="10.250" width="1.025" height="1.025" fill="#ececec" />
<rect x="18.450" y="10.250" width="1.025" height="1.025" fill="#ececec" />
<rect x="19.475" y="10.250" width="1.025" height="1.025" fill="#f0f0f0" />
<rect x="20.500" y="10.250" width="1.025" height="1.025" fill="#eeeeee" />
<rect x="21.525" y="10.250" width="1.025" height="1.025" fill="#e5e5e5" />
<rect x="22.550" y="10.250" width="1.025" height="1.025" fill="#e7e7e7" />
<rect x="23.575" y="10.250" width="1.025" height="1.025" fill="#c2c2c2" />
<rect x="24.600" y="10.250" width="1.025" height="1.025" fill="#000000" />
<rect x="12.300" y="11.275" width="1.025" height="1.025" fill="#4b4b4b" />
<rect x="13.325" y="11.275" width="1.025" height="1.025" fill="#5e5e5e" />
<rect x="14.350" y="11.275" width="1.025" height="1.025" fill="#b6b6b6" />
<rect x="15.375" y="11.275" width="1.025" height="1.025" fill="#c5c5c5" />
<rect x="16.400" y="11.275" width="1.025" height="1.025" fill="#dedede" />
<rect x="17.425" y="11.275" width="1.025" height="1.025" fill="#f3f3f3" />
<rect x="18.450" y="11.275" width="1.025" height="1.025" fill="#f4f4f4" />
<rect x="19.475" y="11.275" width="1.025" height="1.025" fill="#f4f4f4" />
<rect x="20.500" y="11.275" width="1.025" height="1.025" fill="#f0f0f0" />
<rect x="21.525" y="11.275" width="1.025" height="1.025" fill="#e7e7e7" />
<rect x="22.550" y="11.275" width="1.025" height="1.025" fill="#ebebeb" />
<rect x="23.575" y="11.275" width="1.025" height="1.025" fill="#c7c7c7" />
<rect x="24.600" y="11.275" width="1.025" height="1.025" fill="#c7c7c7" />
<rect x="12.300" y="12.300" width="1.025" height="1.025" fill="#4b4b4b" />
<rect x="13.325" y="12.300" width="1.025" height="1.025" fill="#545454" />
<rect x="14.350" y="12.300" width="1.025" height="1.025" fill="#b5b5b5" />
<rect x="15.375" y="12.300" width="1.025" height="1.025" fill="#c5c5c5" />
<rect x="16.400" y="12.300" width="1.025" height="1.025" fill="#c9c9c9" />
<rect x="17.425" y="12.300" width="1.025" height="1.025" fill="#010101" />
<rect x="18.450" y="12.300" width="1.025" height="1.025" fill="#272727" />
<rect x="19.475" y="12.300" width="1.025" height="1.025" fill="#c9c9c9" />
<rect x="20.500" y="12.300" width="1.025" height="1.025" fill="#d9d9d9" />
<rect x="21.525" y="12.300" width="1.025" height="1.025" fill="#e1e1e1" />
<rect x="22.550" y="12.300" width="1.025" height="1.025" fill="#272727" />
<rect x="23.575" y="12.300" width="1.025" height="1.025" fill="#dedede" />
<rect x="24.600" y="12.300" width="1.025" height="1.025" fill="#cccccc" />
<rect x="12.300" y="13.325" width="1.025" height="1.025" fill="#000000" />
<rect x="13.325" y="13.325" width="1.025" height="1.025" fill="#3d3d3d" />
<rect x="14.350" y="13.325" width="1.025" height="1.025" fill="#b5b5b5" />
<rect x="15.375" y="13.325" width="1.025" height="1.025" fill="#c9c9c9" />
<rect x="16.400" y="13.325" width="1.025" height="1.025" fill="#000000" />
<rect x="17.425" y="13.325" width="1.025" height="1.025" fill="#202020" />
<rect x="18.450" y="13.325" width="1.025" height="1.025" fill="#3e3e3e" />
<rect x="19.475" y="13.325" width="1.025" height="1.025" fill="#494949" />
<rect x="20.500" y="13.325" width="1.025" height="1.025" fill="#aaaaaa" />
<rect x="21.525" y="13.325" width="1.025" height="1.025" fill="#202020" />
<rect x="22.550" y="13.325" width="1.025" height="1.025" fill="#3e3e3e" />
<rect x="23.575" y="13.325" width="1.025" height="1.025" fill="#494949" />
<rect x="24.600" y="13.325" width="1.025" height="1.025" fill="#7d7d7d" />
<rect x="11.275" y="14.350" width="1.025" height="1.025" fill="#000000" />
<rect x="12.300" y="14.350" width="1.025" height="1.025" fill="#7d7d7d" />
<rect x="13.325" y="14.350" width="1.025" height="1.025" fill="#9b9b9b" />
<rect x="14.350" y="14.350" width="1.025" height="1.025" fill="#b2b2b2" />
<rect x="15.375" y="14.350" width="1.025" height="1.025" fill="#c5c5c5" />
<rect x="16.400" y="14.350" width="1.025" height="1.025" fill="#000000" />
<rect x="17.425" y="14.350" width="1.025" height="1.025" fill="#0db3b5" />
<rect x="18.450" y="14.350" width="1.025" height="1.025" fill="#383838" />
<rect x="19.475" y="14.350" width="1.025" height="1.025" fill="#626262" />
<rect x="20.500" y="14.350" width="1.025" height="1.025" fill="#c1c1c1" />
<rect x="21.525" y="14.350" width="1.025" height="1.025" fill="#252525" />
<rect x="22.550" y="14.350" width="1.025" height="1.025" fill="#cf1f1f" />
<rect x="23.575" y="14.350" width="1.025" height="1.025" fill="#626262" />
<rect x="24.600" y="14.350" width="1.025" height="1.025" fill="#c7c7c7" />
<rect x="11.275" y="15.375" width="1.025" height="1.025" fill="#000000" />
<rect x="12.300" y="15.375" width="1.025" height="1.025" fill="#9d9d9d" />
<rect x="13.325" y="15.375" width="1.025" height="1.025" fill="#8f8f8f" />
<rect x="14.350" y="15.375" width="1.025" height="1.025" fill="#aaaaaa" />
<rect x="15.375" y="15.375" width="1.025" height="1.025" fill="#c1c1c1" />
<rect x="16.400" y="15.375" width="1.025" height="1.025" fill="#ececec" />
<rect x="17.425" y="15.375" width="1.025" height="1.025" fill="#232323" />
<rect x="18.450" y="15.375" width="1.025" height="1.025" fill="#383838" />
<rect x="19.475" y="15.375" width="1.025" height="1.025" fill="#e7e7e7" />
<rect x="20.500" y="15.375" width="1.025" height="1.025" fill="#d1d1d1" />
<rect x="21.525" y="15.375" width="1.025" height="1.025" fill="#d5d5d5" />
<rect x="22.550" y="15.375" width="1.025" height="1.025" fill="#383838" />
<rect x="23.575" y="15.375" width="1.025" height="1.025" fill="#d9d9d9" />
<rect x="24.600" y="15.375" width="1.025" height="1.025" fill="#000000" />
<rect x="11.275" y="16.400" width="1.025" height="1.025" fill="#000000" />
<rect x="12.300" y="16.400" width="1.025" height="1.025" fill="#797979" />
<rect x="13.325" y="16.400" width="1.025" height="1.025" fill="#8c8c8c" />
<rect x="14.350" y="16.400" width="1.025" height="1.025" fill="#9d9d9d" />
<rect x="15.375" y="16.400" width="1.025" height="1.025" fill="#b2b2b2" />
<rect x="16.400" y="16.400" width="1.025" height="1.025" fill="#cdcdcd" />
<rect x="17.425" y="16.400" width="1.025" height="1.025" fill="#f2f2f2" />
<rect x="18.450" y="16.400" width="1.025" height="1.025" fill="#f4f4f4" />
<rect x="19.475" y="16.400" width="1.025" height="1.025" fill="#d9d9d9" />
<rect x="20.500" y="16.400" width="1.025" height="1.025" fill="#272727" />
<rect x="21.525" y="16.400" width="1.025" height="1.025" fill="#d2d2d2" />
<rect x="22.550" y="16.400" width="1.025" height="1.025" fill="#c5c5c5" />
<rect x="23.575" y="16.400" width="1.025" height="1.025" fill="#b9b9b9" />
<rect x="24.600" y="16.400" width="1.025" height="1.025" fill="#000000" />
<rect x="12.300" y="17.425" width="1.025" height="1.025" fill="#000000" />
<rect x="13.325" y="17.425" width="1.025" height="1.025" fill="#3d3d3d" />
<rect x="14.350" y="17.425" width="1.025" height="1.025" fill="#979797" />
<rect x="15.375" y="17.425" width="1.025" height="1.025" fill="#999999" />
<rect x="16.400" y="17.425" width="1.025" height="1.025" fill="#b7b7b7" />
<rect x="17.425" y="17.425" width="1.025" height="1.025" fill="#d1d1d1" />
<rect x="18.450" y="17.425" width="1.025" height="1.025" fill="#ebebeb" />
<rect x="19.475" y="17.425" width="1.025" height="1.025" fill="#202020" />
<rect x="20.500" y="17.425" width="1.025" height="1.025" fill="#3e3e3e" />
<rect x="21.525" y="17.425" width="1.025" height="1.025" fill="#494949" />
<rect x="22.550" y="17.425" width="1.025" height="1.025" fill="#a3a3a3" />
<rect x="23.575" y="17.425" width="1.025" height="1.025" fill="#b5b5b5" />
<rect x="24.600" y="17.425" width="1.025" height="1.025" fill="#000000" />
<rect x="13.325" y="18.450" width="1.025" height="1.025" fill="#3d3d3d" />
<rect x="14.350" y="18.450" width="1.025" height="1.025" fill="#787878" />
<rect x="15.375" y="18.450" width="1.025" height="1.025" fill="#9d9d9d" />
<rect x="16.400" y="18.450" width="1.025" height="1.025" fill="#000000" />
<rect x="17.425" y="18.450" width="1.025" height="1.025" fill="#c2c2c2" />
<rect x="18.450" y="18.450" width="1.025" height="1.025" fill="#e0e0e0" />
<rect x="19.475" y="18.450" width="1.025" height="1.025" fill="#f3f3f3" />
<rect x="20.500" y="18.450" width="1.025" height="1.025" fill="#d9d9d9" />
<rect x="21.525" y="18.450" width="1.025" height="1.025" fill="#c4c4c4" />
<rect x="22.550" y="18.450" width="1.025" height="1.025" fill="#dedede" />
<rect x="23.575" y="18.450" width="1.025" height="1.025" fill="#bdbdbd" />
<rect x="24.600" y="18.450" width="1.025" height="1.025" fill="#000000" />
<rect x="13.325" y="19.475" width="1.025" height="1.025" fill="#000000" />
<rect x="14.350" y="19.475" width="1.025" height="1.025" fill="#4c4c4c" />
<rect x="15.375" y="19.475" width="1.025" height="1.025" fill="#999999" />
<rect x="16.400" y="19.475" width="1.025" height="1.025" fill="#000000" />
<rect x="17.425" y="19.475" width="1.025" height="1.025" fill="#000000" />
<rect x="18.450" y="19.475" width="1.025" height="1.025" fill="#c9c9c9" />
<rect x="19.475" y="19.475" width="1.025" height="1.025" fill="#e0e0e0" />
<rect x="20.500" y="19.475" width="1.025" height="1.025" fill="#ebebeb" />
<rect x="21.525" y="19.475" width="1.025" height="1.025" fill="#dedede" />
<rect x="22.550" y="19.475" width="1.025" height="1.025" fill="#c9c9c9" />
<rect x="23.575" y="19.475" width="1.025" height="1.025" fill="#000000" />
<rect x="24.600" y="19.475" width="1.025" height="1.025" fill="#000000" />
<rect x="13.325" y="20.500" width="1.025" height="1.025" fill="#000000" />
<rect x="14.350" y="20.500" width="1.025" height="1.025" fill="#000000" />
<rect x="15.375" y="20.500" width="1.025" height="1.025" fill="#888888" />
<rect x="16.400" y="20.500" width="1.025" height="1.025" fill="#a8a8a8" />
<rect x="17.425" y="20.500" width="1.025" height="1.025" fill="#000000" />
<rect x="18.450" y="20.500" width="1.025" height="1.025" fill="#000000" />
<rect x="19.475" y="20.500" width="1.025" height="1.025" fill="#000000" />
<rect x="20.500" y="20.500" width="1.025" height="1.025" fill="#000000" />
<rect x="21.525" y="20.500" width="1.025" height="1.025" fill="#000000" />
<rect x="22.550" y="20.500" width="1.025" height="1.025" fill="#000000" />
<rect x="23.575" y="20.500" width="1.025" height="1.025" fill="#000000" />
<rect x="24.600" y="20.500" width="1.025" height="1.025" fill="#000000" />
<rect x="13.325" y="21.525" width="1.025" height="1.025" fill="#000000" />
<rect x="14.350" y="21.525" width="1.025" height="1.025" fill="#000000" />
<rect x="15.375" y="21.525" width="1.025" height="1.025" fill="#6b6b6b" />
<rect x="16.400" y="21.525" width="1.025" height="1.025" fill="#989898" />
<rect x="17.425" y="21.525" width="1.025" height="1.025" fill="#b2b2b2" />
<rect x="18.450" y="21.525" width="1.025" height="1.025" fill="#c9c9c9" />
<rect x="19.475" y="21.525" width="1.025" height="1.025" fill="#e0e0e0" />
<rect x="20.500" y="21.525" width="1.025" height="1.025" fill="#e4e4e4" />
<rect x="21.525" y="21.525" width="1.025" height="1.025" fill="#dedede" />
<rect x="22.550" y="21.525" width="1.025" height="1.025" fill="#d4d4d4" />
<rect x="23.575" y="21.525" width="1.025" height="1.025" fill="#adadad" />
<rect x="24.600" y="21.525" width="1.025" height="1.025" fill="#000000" />
<rect x="13.325" y="22.550" width="1.025" height="1.025" fill="#000000" />
<rect x="14.350" y="22.550" width="1.025" height="1.025" fill="#535353" />
<rect x="15.375" y="22.550" width="1.025" height="1.025" fill="#3b3b3b" />
<rect x="16.400" y="22.550" width="1.025" height="1.025" fill="#707070" />
<rect x="17.425" y="22.550" width="1.025" height="1.025" fill="#a0a0a0" />
<rect x="18.450" y="22.550" width="1.025" height="1.025" fill="#c1c1c1" />
<rect x="19.475" y="22.550" width="1.025" height="1.025" fill="#d8d8d8" />
<rect x="20.500" y="22.550" width="1.025" height="1.025" fill="#eeeeee" />
<rect x="21.525" y="22.550" width="1.025" height="1.025" fill="#f2f2f2" />
<rect x="22.550" y="22.550" width="1.025" height="1.025" fill="#e3e3e3" />
<rect x="23.575" y="22.550" width="1.025" height="1.025" fill="#979797" />
<rect x="24.600" y="22.550" width="1.025" height="1.025" fill="#000000" />
<rect x="13.325" y="23.575" width="1.025" height="1.025" fill="#000000" />
<rect x="14.350" y="23.575" width="1.025" height="1.025" fill="#000000" />
<rect x="15.375" y="23.575" width="1.025" height="1.025" fill="#000000" />
<rect x="16.400" y="23.575" width="1.025" height="1.025" fill="#4d4d4d" />
<rect x="17.425" y="23.575" width="1.025" height="1.025" fill="#707070" />
<rect x="18.450" y="23.575" width="1.025" height="1.025" fill="#979797" />
<rect x="19.475" y="23.575" width="1.025" height="1.025" fill="#aaaaaa" />
<rect x="20.500" y="23.575" width="1.025" height="1.025" fill="#cacaca" />
<rect x="21.525" y="23.575" width="1.025" height="1.025" fill="#cacaca" />
<rect x="22.550" y="23.575" width="1.025" height="1.025" fill="#a8a8a8" />
<rect x="23.575" y="23.575" width="1.025" height="1.025" fill="#000000" />
<rect x="13.325" y="24.600" width="1.025" height="1.025" fill="#000000" />
<rect x="14.350" y="24.600" width="1.025" height="1.025" fill="#6e6e6e" />
<rect x="15.375" y="24.600" width="1.025" height="1.025" fill="#3b3b3b" />
<rect x="16.400" y="24.600" width="1.025" height="1.025" fill="#000000" />
<rect x="17.425" y="24.600" width="1.025" height="1.025" fill="#000000" />
<rect x="18.450" y="24.600" width="1.025" height="1.025" fill="#000000" />
<rect x="19.475" y="24.600" width="1.025" height="1.025" fill="#000000" />
<rect x="20.500" y="24.600" width="1.025" height="1.025" fill="#000000" />
<rect x="21.525" y="24.600" width="1.025" height="1.025" fill="#000000" />
<rect x="22.550" y="24.600" width="1.025" height="1.025" fill="#000000" />
<rect x="13.325" y="25.625" width="1.025" height="1.025" fill="#000000" />
<rect x="14.350" y="25.625" width="1.025" height="1.025" fill="#000000" />
<rect x="15.375" y="25.625" width="1.025" height="1.025" fill="#707070" />
<rect x="16.400" y="25.625" width="1.025" height="1.025" fill="#3b3b3b" />
<rect x="17.425" y="25.625" width="1.025" height="1.025" fill="#000000" />
<rect x="18.450" y="25.625" width="1.025" height="1.025" fill="#000000" />
<rect x="13.325" y="26.650" width="1.025" height="1.025" fill="#000000" />
<rect x="14.350" y="26.650" width="1.025" height="1.025" fill="#707070" />
<rect x="15.375" y="26.650" width="1.025" height="1.025" fill="#c4c4c4" />
<rect x="16.400" y="26.650" width="1.025" height="1.025" fill="#d1d1d1" />
<rect x="17.425" y="26.650" width="1.025" height="1.025" fill="#bebebe" />
<rect x="18.450" y="26.650" width="1.025" height="1.025" fill="#000000" />
<rect x="13.325" y="27.675" width="1.025" height="1.025" fill="#000000" />
<rect x="14.350" y="27.675" width="1.025" height="1.025" fill="#000000" />
<rect x="15.375" y="27.675" width="1.025" height="1.025" fill="#3b3b3b" />
<rect x="16.400" y="27.675" width="1.025" height="1.025" fill="#707070" />
<rect x="17.425" y="27.675" width="1.025" height="1.025" fill="#000000" />
<rect x="18.450" y="27.675" width="1.025" height="1.025" fill="#000000" />
<rect x="11.275" y="28.700" width="1.025" height="1.025" fill="#ababab" />
<rect x="12.300" y="28.700" width="1.025" height="1.025" fill="#f2f2f2" />
<rect x="13.325" y="28.700" width="1.025" height="1.025" fill="#aaaaaa" />
<rect x="14.350" y="28.700" width="1.025" height="1.025" fill="#707070" />
<rect x="15.375" y="28.700" width="1.025" height="1.025" fill="#b2b2b2" />
<rect x="16.400" y="28.700" width="1.025" height="1.025" fill="#b7b7b7" />
<rect x="17.425" y="28.700" width="1.025" height="1.025" fill="#bebebe" />
<rect x="18.450" y="28.700" width="1.025" height="1.025" fill="#cacaca" />
<rect x="19.475" y="28.700" width="1.025" height="1.025" fill="#f2f2f2" />
<rect x="20.500" y="28.700" width="1.025" height="1.025" fill="#000000" />
<rect x="9.225" y="29.725" width="1.025" height="1.025" fill="#ababab" />
<rect x="10.250" y="29.725" width="1.025" height="1.025" fill="#cacaca" />
<rect x="11.275" y="29.725" width="1.025" height="1.025" fill="#adadad" />
<rect x="12.300" y="29.725" width="1.025" height="1.025" fill="#000000" />
<rect x="13.325" y="29.725" width="1.025" height="1.025" fill="#000000" />
<rect x="14.350" y="29.725" width="1.025" height="1.025" fill="#f2f2f2" />
<rect x="15.375" y="29.725" width="1.025" height="1.025" fill="#3b3b3b" />
<rect x="16.400" y="29.725" width="1.025" height="1.025" fill="#707070" />
<rect x="17.425" y="29.725" width="1.025" height="1.025" fill="#000000" />
<rect x="18.450" y="29.725" width="1.025" height="1.025" fill="#000000" />
<rect x="19.475" y="29.725" width="1.025" height="1.025" fill="#afafaf" />
<rect x="20.500" y="29.725" width="1.025" height="1.025" fill="#ababab" />
<rect x="21.525" y="29.725" width="1.025" height="1.025" fill="#cacaca" />
<rect x="22.550" y="29.725" width="1.025" height="1.025" fill="#eeeeee" />
<rect x="23.575" y="29.725" width="1.025" height="1.025" fill="#ababab" />
<rect x="7.175" y="30.750" width="1.025" height="1.025" fill="#ababab" />
<rect x="8.200" y="30.750" width="1.025" height="1.025" fill="#f2f2f2" />
<rect x="9.225" y="30.750" width="1.025" height="1.025" fill="#bfbfbf" />
<rect x="10.250" y="30.750" width="1.025" height="1.025" fill="#000000" />
<rect x="11.275" y="30.750" width="1.025" height="1.025" fill="#000000" />
<rect x="12.300" y="30.750" width="1.025" height="1.025" fill="#bdbdbd" />
<rect x="13.325" y="30.750" width="1.025" height="1.025" fill="#bebebe" />
<rect x="14.350" y="30.750" width="1.025" height="1.025" fill="#c1c1c1" />
<rect x="15.375" y="30.750" width="1.025" height="1.025" fill="#c4c4c4" />
<rect x="16.400" y="30.750" width="1.025" height="1.025" fill="#c2c2c2" />
<rect x="17.425" y="30.750" width="1.025" height="1.025" fill="#b2b2b2" />
<rect x="18.450" y="30.750" width="1.025" height="1.025" fill="#b7b7b7" />
<rect x="19.475" y="30.750" width="1.025" height="1.025" fill="#c9c9c9" />
<rect x="20.500" y="30.750" width="1.025" height="1.025" fill="#c5c5c5" />
<rect x="21.525" y="30.750" width="1.025" height="1.025" fill="#000000" />
<rect x="22.550" y="30.750" width="1.025" height="1.025" fill="#000000" />
<rect x="23.575" y="30.750" width="1.025" height="1.025" fill="#000000" />
<rect x="24.600" y="30.750" width="1.025" height="1.025" fill="#eeeeee" />
<rect x="25.625" y="30.750" width="1.025" height="1.025" fill="#ababab" />
<rect x="6.150" y="31.775" width="1.025" height="1.025" fill="#000000" />
<rect x="7.175" y="31.775" width="1.025" height="1.025" fill="#000000" />
<rect x="8.200" y="31.775" width="1.025" height="1.025" fill="#c2c2c2" />
<rect x="9.225" y="31.775" width="1.025" height="1.025" fill="#d5d5d5" />
<rect x="10.250" y="31.775" width="1.025" height="1.025" fill="#cacaca" />
<rect x="11.275" y="31.775" width="1.025" height="1.025" fill="#000000" />
<rect x="12.300" y="31.775" width="1.025" height="1.025" fill="#000000" />
<rect x="13.325" y="31.775" width="1.025" height="1.025" fill="#000000" />
<rect x="14.350" y="31.775" width="1.025" height="1.025" fill="#707070" />
<rect x="15.375" y="31.775" width="1.025" height="1.025" fill="#cdcdcd" />
<rect x="16.400" y="31.775" width="1.025" height="1.025" fill="#d1d1d1" />
<rect x="17.425" y="31.775" width="1.025" height="1.025" fill="#c4c4c4" />
<rect x="18.450" y="31.775" width="1.025" height="1.025" fill="#c4c4c4" />
<rect x="19.475" y="31.775" width="1.025" height="1.025" fill="#000000" />
<rect x="20.500" y="31.775" width="1.025" height="1.025" fill="#000000" />
<rect x="21.525" y="31.775" width="1.025" height="1.025" fill="#000000" />
<rect x="22.550" y="31.775" width="1.025" height="1.025" fill="#c4c4c4" />
<rect x="23.575" y="31.775" width="1.025" height="1.025" fill="#bfbfbf" />
<rect x="24.600" y="31.775" width="1.025" height="1.025" fill="#cdcdcd" />
<rect x="25.625" y="31.775" width="1.025" height="1.025" fill="#000000" />
<rect x="26.650" y="31.775" width="1.025" height="1.025" fill="#000000" />
<rect x="5.125" y="32.800" width="1.025" height="1.025" fill="#000000" />
<rect x="6.150" y="32.800" width="1.025" height="1.025" fill="#000000" />
<rect x="7.175" y="32.800" width="1.025" height="1.025" fill="#a7a7a7" />
<rect x="8.200" y="32.800" width="1.025" height="1.025" fill="#c2c2c2" />
<rect x="9.225" y="32.800" width="1.025" height="1.025" fill="#d4d4d4" />
<rect x="10.250" y="32.800" width="1.025" height="1.025" fill="#000000" />
<rect x="11.275" y="32.800" width="1.025" height="1.025" fill="#c2c2c2" />
<rect x="12.300" y="32.800" width="1.025" height="1.025" fill="#d1d1d1" />
<rect x="13.325" y="32.800" width="1.025" height="1.025" fill="#d5d5d5" />
<rect x="14.350" y="32.800" width="1.025" height="1.025" fill="#d4d4d4" />
<rect x="15.375" y="32.800" width="1.025" height="1.025" fill="#d5d5d5" />
<rect x="16.400" y="32.800" width="1.025" height="1.025" fill="#d5d5d5" />
<rect x="17.425" y="32.800" width="1.025" height="1.025" fill="#c7c7c7" />
<rect x="18.450" y="32.800" width="1.025" height="1.025" fill="#c5c5c5" />
<rect x="19.475" y="32.800" width="1.025" height="1.025" fill="#d1d1d1" />
<rect x="20.500" y="32.800" width="1.025" height="1.025" fill="#d5d5d5" />
<rect x="21.525" y="32.800" width="1.025" height="1.025" fill="#d4d4d4" />
<rect x="22.550" y="32.800" width="1.025" height="1.025" fill="#000000" />
<rect x="23.575" y="32.800" width="1.025" height="1.025" fill="#c2c2c2" />
<rect x="24.600" y="32.800" width="1.025" height="1.025" fill="#bebebe" />
<rect x="25.625" y="32.800" width="1.025" height="1.025" fill="#c9c9c9" />
<rect x="26.650" y="32.800" width="1.025" height="1.025" fill="#000000" />
<rect x="27.675" y="32.800" width="1.025" height="1.025" fill="#000000" />
<rect x="5.125" y="33.825" width="1.025" height="1.025" fill="#000000" />
<rect x="6.150" y="33.825" width="1.025" height="1.025" fill="#000000" />
<rect x="7.175" y="33.825" width="1.025" height="1.025" fill="#a5a5a5" />
<rect x="8.200" y="33.825" width="1.025" height="1.025" fill="#c4c4c4" />
<rect x="9.225" y="33.825" width="1.025" height="1.025" fill="#000000" />
<rect x="10.250" y="33.825" width="1.025" height="1.025" fill="#989898" />
<rect x="11.275" y="33.825" width="1.025" height="1.025" fill="#b7b7b7" />
<rect x="12.300" y="33.825" width="1.025" height="1.025" fill="#000000" />
<rect x="13.325" y="33.825" width="1.025" height="1.025" fill="#000000" />
<rect x="14.350" y="33.825" width="1.025" height="1.025" fill="#707070" />
<rect x="15.375" y="33.825" width="1.025" height="1.025" fill="#3b3b3b" />
<rect x="16.400" y="33.825" width="1.025" height="1.025" fill="#d5d5d5" />
<rect x="17.425" y="33.825" width="1.025" height="1.025" fill="#c7c7c7" />
<rect x="18.450" y="33.825" width="1.025" height="1.025" fill="#000000" />
<rect x="19.475" y="33.825" width="1.025" height="1.025" fill="#000000" />
<rect x="20.500" y="33.825" width="1.025" height="1.025" fill="#000000" />
<rect x="21.525" y="33.825" width="1.025" height="1.025" fill="#000000" />
<rect x="22.550" y="33.825" width="1.025" height="1.025" fill="#d1d1d1" />
<rect x="23.575" y="33.825" width="1.025" height="1.025" fill="#000000" />
<rect x="24.600" y="33.825" width="1.025" height="1.025" fill="#000000" />
<rect x="25.625" y="33.825" width="1.025" height="1.025" fill="#b9b9b9" />
<rect x="26.650" y="33.825" width="1.025" height="1.025" fill="#696969" />
<rect x="27.675" y="33.825" width="1.025" height="1.025" fill="#000000" />
<rect x="5.125" y="34.850" width="1.025" height="1.025" fill="#000000" />
<rect x="6.150" y="34.850" width="1.025" height="1.025" fill="#000000" />
<rect x="7.175" y="34.850" width="1.025" height="1.025" fill="#a5a5a5" />
<rect x="8.200" y="34.850" width="1.025" height="1.025" fill="#bfbfbf" />
<rect x="9.225" y="34.850" width="1.025" height="1.025" fill="#000000" />
<rect x="10.250" y="34.850" width="1.025" height="1.025" fill="#3b3b3b" />
<rect x="11.275" y="34.850" width="1.025" height="1.025" fill="#000000" />
<rect x="12.300" y="34.850" width="1.025" height="1.025" fill="#c2c2c2" />
<rect x="13.325" y="34.850" width="1.025" height="1.025" fill="#c2c2c2" />
<rect x="14.350" y="34.850" width="1.025" height="1.025" fill="#cacaca" />
<rect x="15.375" y="34.850" width="1.025" height="1.025" fill="#dcdcdc" />
<rect x="16.400" y="34.850" width="1.025" height="1.025" fill="#d5d5d5" />
<rect x="17.425" y="34.850" width="1.025" height="1.025" fill="#c7c7c7" />
<rect x="18.450" y="34.850" width="1.025" height="1.025" fill="#707070" />
<rect x="19.475" y="34.850" width="1.025" height="1.025" fill="#c4c4c4" />
<rect x="20.500" y="34.850" width="1.025" height="1.025" fill="#d8d8d8" />
<rect x="21.525" y="34.850" width="1.025" height="1.025" fill="#d5d5d5" />
<rect x="22.550" y="34.850" width="1.025" height="1.025" fill="#000000" />
<rect x="23.575" y="34.850" width="1.025" height="1.025" fill="#a7a7a7" />
<rect x="24.600" y="34.850" width="1.025" height="1.025" fill="#000000" />
<rect x="25.625" y="34.850" width="1.025" height="1.025" fill="#b5b5b5" />
<rect x="26.650" y="34.850" width="1.025" height="1.025" fill="#6a6a6a" />
<rect x="27.675" y="34.850" width="1.025" height="1.025" fill="#000000" />
<rect x="5.125" y="35.875" width="1.025" height="1.025" fill="#000000" />
<rect x="6.150" y="35.875" width="1.025" height="1.025" fill="#000000" />
<rect x="7.175" y="35.875" width="1.025" height="1.025" fill="#a7a7a7" />
<rect x="8.200" y="35.875" width="1.025" height="1.025" fill="#bdbdbd" />
<rect x="9.225" y="35.875" width="1.025" height="1.025" fill="#000000" />
<rect x="10.250" y="35.875" width="1.025" height="1.025" fill="#3b3b3b" />
<rect x="11.275" y="35.875" width="1.025" height="1.025" fill="#6e6e6e" />
<rect x="12.300" y="35.875" width="1.025" height="1.025" fill="#000000" />
<rect x="13.325" y="35.875" width="1.025" height="1.025" fill="#000000" />
<rect x="14.350" y="35.875" width="1.025" height="1.025" fill="#707070" />
<rect x="15.375" y="35.875" width="1.025" height="1.025" fill="#3b3b3b" />
<rect x="16.400" y="35.875" width="1.025" height="1.025" fill="#d5d5d5" />
<rect x="17.425" y="35.875" width="1.025" height="1.025" fill="#c7c7c7" />
<rect x="18.450" y="35.875" width="1.025" height="1.025" fill="#000000" />
<rect x="19.475" y="35.875" width="1.025" height="1.025" fill="#000000" />
<rect x="20.500" y="35.875" width="1.025" height="1.025" fill="#000000" />
<rect x="21.525" y="35.875" width="1.025" height="1.025" fill="#000000" />
<rect x="22.550" y="35.875" width="1.025" height="1.025" fill="#aaaaaa" />
<rect x="23.575" y="35.875" width="1.025" height="1.025" fill="#929292" />
<rect x="24.600" y="35.875" width="1.025" height="1.025" fill="#000000" />
<rect x="25.625" y="35.875" width="1.025" height="1.025" fill="#bfbfbf" />
<rect x="26.650" y="35.875" width="1.025" height="1.025" fill="#6a6a6a" />
<rect x="27.675" y="35.875" width="1.025" height="1.025" fill="#000000" />
<rect x="5.125" y="36.900" width="1.025" height="1.025" fill="#000000" />
<rect x="6.150" y="36.900" width="1.025" height="1.025" fill="#000000" />
<rect x="7.175" y="36.900" width="1.025" height="1.025" fill="#aaaaaa" />
<rect x="8.200" y="36.900" width="1.025" height="1.025" fill="#c1c1c1" />
<rect x="9.225" y="36.900" width="1.025" height="1.025" fill="#000000" />
<rect x="10.250" y="36.900" width="1.025" height="1.025" fill="#3b3b3b" />
<rect x="11.275" y="36.900" width="1.025" height="1.025" fill="#000000" />
<rect x="12.300" y="36.900" width="1.025" height="1.025" fill="#8f8f8f" />
<rect x="13.325" y="36.900" width="1.025" height="1.025" fill="#a3a3a3" />
<rect x="14.350" y="36.900" width="1.025" height="1.025" fill="#a3a3a3" />
<rect x="15.375" y="36.900" width="1.025" height="1.025" fill="#a3a3a3" />
<rect x="16.400" y="36.900" width="1.025" height="1.025" fill="#d5d5d5" />
<rect x="17.425" y="36.900" width="1.025" height="1.025" fill="#c7c7c7" />
<rect x="18.450" y="36.900" width="1.025" height="1.025" fill="#707070" />
<rect x="19.475" y="36.900" width="1.025" height="1.025" fill="#adadad" />
<rect x="20.500" y="36.900" width="1.025" height="1.025" fill="#b6b6b6" />
<rect x="21.525" y="36.900" width="1.025" height="1.025" fill="#b5b5b5" />
<rect x="22.550" y="36.900" width="1.025" height="1.025" fill="#000000" />
<rect x="23.575" y="36.900" width="1.025" height="1.025" fill="#000000" />
<rect x="24.600" y="36.900" width="1.025" height="1.025" fill="#000000" />
<rect x="25.625" y="36.900" width="1.025" height="1.025" fill="#bfbfbf" />
<rect x="26.650" y="36.900" width="1.025" height="1.025" fill="#707070" />
<rect x="27.675" y="36.900" width="1.025" height="1.025" fill="#000000" />
</svg>