<svg xmlns="http://www.w3.org/2000/svg" width="37.925" height="37.925" shape-rendering="crispEdges" style="image-rendering: pixelated;">
<rect x="24.600" y="0.000" width="1.025" height="1.025" fill="#1d1d1d" />
<rect x="29.725" y="0.000" width="1.025" height="1.025" fill="#000000" />
<rect x="32.800" y="0.000" width="1.025" height="1.025" fill="#000000" />
<rect x="35.875" y="0.000" width="1.025" height="1.025" fill="#1d1d1d" />
<rect x="36.900" y="0.000" width="1.025" height="1.025" fill="#1d1d1d" />
<rect x="24.600" y="1.025" width="1.025" height="1.025" fill="#000000" />
<rect x="25.625" y="1.025" width="1.025" height="1.025" fill="#1d1d1d" />
<rect x="26.650" y="1.025" width="1.025" height="1.025" fill="#1d1d1d" />
<rect x="29.725" y="1.025" width="1.025" height="1.025" fill="#000000" />
<rect x="32.800" y="1.025" width="1.025" height="1.025" fill="#000000" />
<rect x="33.825" y="1.025" width="1.025" height="1.025" fill="#1d1d1d" />
<rect x="34.850" y="1.025" width="1.025" height="1.025" fill="#1d1d1d" />
<rect x="35.875" y="1.025" width="1.025" height="1.025" fill="#000000" />
<rect x="24.600" y="2.050" width="1.025" height="1.025" fill="#3e0005" />
<rect x="25.625" y="2.050" width="1.025" height="1.025" fill="#3e0005" />
<rect x="26.650" y="2.050" width="1.025" height="1.025" fill="#000000" />
<rect x="27.675" y="2.050" width="1.025" height="1.025" fill="#1d1d1d" />
<rect x="29.725" y="2.050" width="1.025" height="1.025" fill="#000000" />
<rect x="30.750" y="2.050" width="1.025" height="1.025" fill="#1d1d1d" />
<rect x="31.775" y="2.050" width="1.025" height="1.025" fill="#1d1d1d" />
<rect x="32.800" y="2.050" width="1.025" height="1.025" fill="#000000" />
<rect x="33.825" y="2.050" width="1.025" height="1.025" fill="#000000" />
<rect x="34.850" y="2.050" width="1.025" height="1.025" fill="#3e0005" />
<rect x="35.875" y="2.050" width="1.025" height="1.025" fill="#3e0005" />
<rect x="25.625" y="3.075" width="1.025" height="1.025" fill="#3e0005" />
<rect x="26.650" y="3.075" width="1.025" height="1.025" fill="#3e0005" />
<rect x="27.675" y="3.075" width="1.025" height="1.025" fill="#000000" />
<rect x="28.700" y="3.075" width="1.025" height="1.025" fill="#1d1d1d" />
<rect x="29.725" y="3.075" width="1.025" height="1.025" fill="#000000" />
<rect x="30.750" y="3.075" width="1.025" height="1.025" fill="#01fa05" />
<rect x="31.775" y="3.075" width="1.025" height="1.025" fill="#000000" />
<rect x="32.800" y="3.075" width="1.025" height="1.025" fill="#07f408" />
<rect x="33.825" y="3.075" width="1.025" height="1.025" fill="#3e0005" />
<rect x="34.850" y="3.075" width="1.025" height="1.025" fill="#3e0005" />
<rect x="25.625" y="4.100" width="1.025" height="1.025" fill="#3e0005" />
<rect x="26.650" y="4.100" width="1.025" height="1.025" fill="#3e0005" />
<rect x="27.675" y="4.100" width="1.025" height="1.025" fill="#000000" />
<rect x="28.700" y="4.100" width="1.025" height="1.025" fill="#000000" />
<rect x="29.725" y="4.100" width="1.025" height="1.025" fill="#000000" />
<rect x="30.750" y="4.100" width="1.025" height="1.025" fill="#000000" />
<rect x="31.775" y="4.100" width="1.025" height="1.025" fill="#000000" />
<rect x="32.800" y="4.100" width="1.025" height="1.025" fill="#000000" />
<rect x="33.825" y="4.100" width="1.025" height="1.025" fill="#3e0005" />
<rect x="34.850" y="4.100" width="1.025" height="1.025" fill="#3e0005" />
<rect x="26.650" y="5.125" width="1.025" height="1.025" fill="#3e0005" />
<rect x="27.675" y="5.125" width="1.025" height="1.025" fill="#3e0005" />
<rect x="28.700" y="5.125" width="1.025" height="1.025" fill="#000000" />
<rect x="29.725" y="5.125" width="1.025" height="1.025" fill="#000000" />
<rect x="30.750" y="5.125" width="1.025" height="1.025" fill="#000000" />
<rect x="31.775" y="5.125" width="1.025" height="1.025" fill="#00e100" />
<rect x="32.800" y="5.125" width="1.025" height="1.025" fill="#000000" />
<rect x="33.825" y="5.125" width="1.025" height="1.025" fill="#3e0005" />
<rect x="28.700" y="6.150" width="1.025" height="1.025" fill="#000000" />
<rect x="29.725" y="6.150" width="1.025" height="1.025" fill="#000000" />
<rect x="30.750" y="6.150" width="1.025" height="1.025" fill="#000000" />
<rect x="31.775" y="6.150" width="1.025" height="1.025" fill="#008300" />
<rect x="32.800" y="6.150" width="1.025" height="1.025" fill="#000000" />
<rect x="29.725" y="7.175" width="1.025" height="1.025" fill="#000000" />
<rect x="30.750" y="7.175" width="1.025" height="1.025" fill="#000000" />
<rect x="31.775" y="7.175" width="1.025" height="1.025" fill="#000000" />
</svg>