<svg xmlns="http://www.w3.org/2000/svg" width="37.925" height="37.925" shape-rendering="crispEdges" style="image-rendering: pixelated;">
<rect x="31.775" y="0.000" width="1.025" height="1.025" fill="#ffffff" fill-opacity="0.510" />
<rect x="31.775" y="1.025" width="1.025" height="1.025" fill="#ffffff" fill-opacity="0.639" />
<rect x="31.775" y="2.050" width="1.025" height="1.025" fill="#ffffff" fill-opacity="0.639" />
<rect x="31.775" y="3.075" width="1.025" height="1.025" fill="#ffffff" fill-opacity="0.639" />
<rect x="31.775" y="4.100" width="1.025" height="1.025" fill="#ffffff" fill-opacity="0.639" />
<rect x="28.700" y="5.125" width="1.025" height="1.025" fill="#0c0c0c" />
<rect x="29.725" y="5.125" width="1.025" height="1.025" fill="#0c0c0c" />
<rect x="31.775" y="5.125" width="1.025" height="1.025" fill="#ffffff" fill-opacity="0.800" />
<rect x="33.825" y="5.125" width="1.025" height="1.025" fill="#0c0c0c" />
<rect x="34.850" y="5.125" width="1.025" height="1.025" fill="#0c0c0c" />
<rect x="27.675" y="6.150" width="1.025" height="1.025" fill="#0c0c0c" />
<rect x="30.750" y="6.150" width="1.025" height="1.025" fill="#0c0c0c" />
<rect x="31.775" y="6.150" width="1.025" height="1.025" fill="#ffffff" fill-opacity="0.800" />
<rect x="32.800" y="6.150" width="1.025" height="1.025" fill="#0c0c0c" />
<rect x="35.875" y="6.150" width="1.025" height="1.025" fill="#0c0c0c" />
<rect x="29.725" y="7.175" width="1.025" height="1.025" fill="#0c0c0c" />
<rect x="30.750" y="7.175" width="1.025" height="1.025" fill="#0c0c0c" />
<rect x="31.775" y="7.175" width="1.025" height="1.025" fill="#0c0c0c" />
<rect x="32.800" y="7.175" width="1.025" height="1.025" fill="#0c0c0c" />
<rect x="33.825" y="7.175" width="1.025" height="1.025" fill="#0c0c0c" />
<rect x="28.700" y="8.200" width="1.025" height="1.025" fill="#0c0c0c" />
<rect x="30.750" y="8.200" width="1.025" height="1.025" fill="#0c0c0c" />
<rect x="31.775" y="8.200" width="1.025" height="1.025" fill="#0c0c0c" />
<rect x="32.800" y="8.200" width="1.025" height="1.025" fill="#0c0c0c" />
<rect x="34.850" y="8.200" width="1.025" height="1.025" fill="#0c0c0c" />
<rect x="27.675" y="9.225" width="1.025" height="1.025" fill="#0c0c0c" />
<rect x="30.750" y="9.225" width="1.025" height="1.025" fill="#0c0c0c" />
<rect x="31.775" y="9.225" width="1.025" height="1.025" fill="#0c0c0c" />
<rect x="32.800" y="9.225" width="1.025" height="1.025" fill="#0c0c0c" />
<rect x="35.875" y="9.225" width="1.025" height="1.025" fill="#0c0c0c" />
<rect x="29.725" y="10.250" width="1.025" height="1.025" fill="#0c0c0c" />
<rect x="30.750" y="10.250" width="1.025" height="1.025" fill="#00ff00" />
<rect x="31.775" y="10.250" width="1.025" height="1.025" fill="#0c0c0c" />
<rect x="32.800" y="10.250" width="1.025" height="1.025" fill="#00ff00" />
<rect x="33.825" y="10.250" width="1.025" height="1.025" fill="#0c0c0c" />
<rect x="28.700" y="11.275" width="1.025" height="1.025" fill="#0c0c0c" />
<rect x="30.750" y="11.275" width="1.025" height="1.025" fill="#0c0c0c" />
<rect x="32.800" y="11.275" width="1.025" height="1.025" fill="#0c0c0c" />
<rect x="34.850" y="11.275" width="1.025" height="1.025" fill="#0c0c0c" />
<rect x="27.675" y="12.300" width="1.025" height="1.025" fill="#000000" />
<rect x="29.725" y="12.300" width="1.025" height="1.025" fill="#000000" />
<rect x="33.825" y="12.300" width="1.025" height="1.025" fill="#000000" />
<rect x="35.875" y="12.300" width="1.025" height="1.025" fill="#000000" />
<rect x="30.750" y="13.325" width="1.025" height="1.025" fill="#000000" />
<rect x="32.800" y="13.325" width="1.025" height="1.025" fill="#000000" />
</svg>