<svg xmlns="http://www.w3.org/2000/svg" width="37.925" height="37.925" shape-rendering="crispEdges" style="image-rendering: pixelated;">
<rect x="12.300" y="0.000" width="1.025" height="1.025" fill="#00b030" />
<rect x="21.525" y="0.000" width="1.025" height="1.025" fill="#00b030" />
<rect x="36.900" y="0.000" width="1.025" height="1.025" fill="#00ca20" />
<rect x="0.000" y="1.025" width="1.025" height="1.025" fill="#009c3c" />
<rect x="13.325" y="1.025" width="1.025" height="1.025" fill="#00ca20" />
<rect x="20.500" y="1.025" width="1.025" height="1.025" fill="#00b030" />
<rect x="35.875" y="1.025" width="1.025" height="1.025" fill="#00ff00" />
<rect x="1.025" y="2.050" width="1.025" height="1.025" fill="#00a338" />
<rect x="13.325" y="2.050" width="1.025" height="1.025" fill="#00ff00" />
<rect x="20.500" y="2.050" width="1.025" height="1.025" fill="#00ca20" />
<rect x="34.850" y="2.050" width="1.025" height="1.025" fill="#00ca20" />
<rect x="2.050" y="3.075" width="1.025" height="1.025" fill="#00b030" />
<rect x="14.350" y="3.075" width="1.025" height="1.025" fill="#00ff00" />
<rect x="20.500" y="3.075" width="1.025" height="1.025" fill="#00ff00" />
<rect x="33.825" y="3.075" width="1.025" height="1.025" fill="#00b030" />
<rect x="3.075" y="4.100" width="1.025" height="1.025" fill="#00ca20" />
<rect x="15.375" y="4.100" width="1.025" height="1.025" fill="#00ca20" />
<rect x="19.475" y="4.100" width="1.025" height="1.025" fill="#00ff00" />
<rect x="32.800" y="4.100" width="1.025" height="1.025" fill="#00a338" />
<rect x="3.075" y="5.125" width="1.025" height="1.025" fill="#00ff00" />
<rect x="15.375" y="5.125" width="1.025" height="1.025" fill="#00b030" />
<rect x="19.475" y="5.125" width="1.025" height="1.025" fill="#00ff00" />
<rect x="28.700" y="5.125" width="1.025" height="1.025" fill="#00ff00" />
<rect x="29.725" y="5.125" width="1.025" height="1.025" fill="#00ff00" />
<rect x="30.750" y="5.125" width="1.025" height="1.025" fill="#00ff00" />
<rect x="31.775" y="5.125" width="1.025" height="1.025" fill="#00ff00" />
<rect x="32.800" y="5.125" width="1.025" height="1.025" fill="#00ff00" />
<rect x="4.100" y="6.150" width="1.025" height="1.025" fill="#00ff00" />
<rect x="16.400" y="6.150" width="1.025" height="1.025" fill="#009c3c" />
<rect x="18.450" y="6.150" width="1.025" height="1.025" fill="#00ff00" />
<rect x="26.650" y="6.150" width="1.025" height="1.025" fill="#00ff00" />
<rect x="27.675" y="6.150" width="1.025" height="1.025" fill="#00ff00" />
<rect x="30.750" y="6.150" width="1.025" height="1.025" fill="#00a338" />
<rect x="33.825" y="6.150" width="1.025" height="1.025" fill="#00ff00" />
<rect x="34.850" y="6.150" width="1.025" height="1.025" fill="#00ff00" />
<rect x="5.125" y="7.175" width="1.025" height="1.025" fill="#00ff00" />
<rect x="17.425" y="7.175" width="1.025" height="1.025" fill="#00ff00" />
<rect x="24.600" y="7.175" width="1.025" height="1.025" fill="#00ff00" />
<rect x="25.625" y="7.175" width="1.025" height="1.025" fill="#00ff00" />
<rect x="30.750" y="7.175" width="1.025" height="1.025" fill="#00b030" />
<rect x="35.875" y="7.175" width="1.025" height="1.025" fill="#00ff00" />
<rect x="5.125" y="8.200" width="1.025" height="1.025" fill="#00ff00" />
<rect x="17.425" y="8.200" width="1.025" height="1.025" fill="#00ff00" />
<rect x="18.450" y="8.200" width="1.025" height="1.025" fill="#00a338" />
<rect x="23.575" y="8.200" width="1.025" height="1.025" fill="#00ff00" />
<rect x="29.725" y="8.200" width="1.025" height="1.025" fill="#00ca20" />
<rect x="36.900" y="8.200" width="1.025" height="1.025" fill="#00ca20" />
<rect x="6.150" y="9.225" width="1.025" height="1.025" fill="#00ff00" />
<rect x="16.400" y="9.225" width="1.025" height="1.025" fill="#00ff00" />
<rect x="19.475" y="9.225" width="1.025" height="1.025" fill="#00a338" />
<rect x="22.550" y="9.225" width="1.025" height="1.025" fill="#00ca20" />
<rect x="28.700" y="9.225" width="1.025" height="1.025" fill="#00ff00" />
<rect x="6.150" y="10.250" width="1.025" height="1.025" fill="#00ff00" />
<rect x="16.400" y="10.250" width="1.025" height="1.025" fill="#00ff00" />
<rect x="19.475" y="10.250" width="1.025" height="1.025" fill="#00ca20" />
<rect x="22.550" y="10.250" width="1.025" height="1.025" fill="#00b030" />
<rect x="27.675" y="10.250" width="1.025" height="1.025" fill="#00ff00" />
<rect x="6.150" y="11.275" width="1.025" height="1.025" fill="#00ff00" />
<rect x="15.375" y="11.275" width="1.025" height="1.025" fill="#00ff00" />
<rect x="20.500" y="11.275" width="1.025" height="1.025" fill="#00ff00" />
<rect x="22.550" y="11.275" width="1.025" height="1.025" fill="#00a338" />
<rect x="26.650" y="11.275" width="1.025" height="1.025" fill="#00ff00" />
<rect x="0.000" y="12.300" width="1.025" height="1.025" fill="#00a338" />
<rect x="7.175" y="12.300" width="1.025" height="1.025" fill="#00ff00" />
<rect x="14.350" y="12.300" width="1.025" height="1.025" fill="#00ff00" />
<rect x="21.525" y="12.300" width="1.025" height="1.025" fill="#00ff00" />
<rect x="23.575" y="12.300" width="1.025" height="1.025" fill="#00ff00" fill-opacity="0.941" />
<rect x="25.625" y="12.300" width="1.025" height="1.025" fill="#00ca20" />
<rect x="1.025" y="13.325" width="1.025" height="1.025" fill="#00ca20" />
<rect x="7.175" y="13.325" width="1.025" height="1.025" fill="#00ff00" />
<rect x="13.325" y="13.325" width="1.025" height="1.025" fill="#00ff00" />
<rect x="21.525" y="13.325" width="1.025" height="1.025" fill="#00a338" />
<rect x="24.600" y="13.325" width="1.025" height="1.025" fill="#00b030" />
<rect x="2.050" y="14.350" width="1.025" height="1.025" fill="#00ff00" />
<rect x="3.075" y="14.350" width="1.025" height="1.025" fill="#00ff00" />
<rect x="7.175" y="14.350" width="1.025" height="1.025" fill="#00ff00" />
<rect x="11.275" y="14.350" width="1.025" height="1.025" fill="#00ca20" />
<rect x="12.300" y="14.350" width="1.025" height="1.025" fill="#00ff00" />
<rect x="20.500" y="14.350" width="1.025" height="1.025" fill="#00b030" />
<rect x="24.600" y="14.350" width="1.025" height="1.025" fill="#00ff00" fill-opacity="0.502" />
<rect x="4.100" y="15.375" width="1.025" height="1.025" fill="#00ca20" />
<rect x="5.125" y="15.375" width="1.025" height="1.025" fill="#00ca20" />
<rect x="8.200" y="15.375" width="1.025" height="1.025" fill="#00ff00" />
<rect x="10.250" y="15.375" width="1.025" height="1.025" fill="#00b030" />
<rect x="20.500" y="15.375" width="1.025" height="1.025" fill="#00ca20" />
<rect x="23.575" y="15.375" width="1.025" height="1.025" fill="#00ff00" />
<rect x="25.625" y="15.375" width="1.025" height="1.025" fill="#00ff00" fill-opacity="0.996" />
<rect x="6.150" y="16.400" width="1.025" height="1.025" fill="#00ca20" />
<rect x="8.200" y="16.400" width="1.025" height="1.025" fill="#00ff00" />
<rect x="9.225" y="16.400" width="1.025" height="1.025" fill="#00b030" />
<rect x="19.475" y="16.400" width="1.025" height="1.025" fill="#00ca20" />
<rect x="22.550" y="16.400" width="1.025" height="1.025" fill="#00b030" />
<rect x="25.625" y="16.400" width="1.025" height="1.025" fill="#00ff00" fill-opacity="0.753" />
<rect x="7.175" y="17.425" width="1.025" height="1.025" fill="#00b030" />
<rect x="8.200" y="17.425" width="1.025" height="1.025" fill="#00ff00" />
<rect x="19.475" y="17.425" width="1.025" height="1.025" fill="#00ff00" />
<rect x="21.525" y="17.425" width="1.025" height="1.025" fill="#00ca20" />
<rect x="25.625" y="17.425" width="1.025" height="1.025" fill="#00ff00" />
<rect x="5.125" y="18.450" width="1.025" height="1.025" fill="#00ca20" />
<rect x="6.150" y="18.450" width="1.025" height="1.025" fill="#00ca20" />
<rect x="9.225" y="18.450" width="1.025" height="1.025" fill="#00ff00" />
<rect x="20.500" y="18.450" width="1.025" height="1.025" fill="#00ff00" />
<rect x="25.625" y="18.450" width="1.025" height="1.025" fill="#00ff00" />
<rect x="3.075" y="19.475" width="1.025" height="1.025" fill="#00ff00" />
<rect x="4.100" y="19.475" width="1.025" height="1.025" fill="#00ff00" />
<rect x="10.250" y="19.475" width="1.025" height="1.025" fill="#00ff00" />
<rect x="19.475" y="19.475" width="1.025" height="1.025" fill="#00ff00" />
<rect x="26.650" y="19.475" width="1.025" height="1.025" fill="#00ff00" />
<rect x="1.025" y="20.500" width="1.025" height="1.025" fill="#00b030" />
<rect x="2.050" y="20.500" width="1.025" height="1.025" fill="#00ff00" />
<rect x="11.275" y="20.500" width="1.025" height="1.025" fill="#00ff00" />
<rect x="14.350" y="20.500" width="1.025" height="1.025" fill="#00b030" />
<rect x="15.375" y="20.500" width="1.025" height="1.025" fill="#00a338" />
<rect x="16.400" y="20.500" width="1.025" height="1.025" fill="#00a338" />
<rect x="17.425" y="20.500" width="1.025" height="1.025" fill="#00b030" />
<rect x="19.475" y="20.500" width="1.025" height="1.025" fill="#00ff00" />
<rect x="27.675" y="20.500" width="1.025" height="1.025" fill="#00ff00" />
<rect x="0.000" y="21.525" width="1.025" height="1.025" fill="#00b030" />
<rect x="9.225" y="21.525" width="1.025" height="1.025" fill="#00ca20" />
<rect x="10.250" y="21.525" width="1.025" height="1.025" fill="#00b030" />
<rect x="11.275" y="21.525" width="1.025" height="1.025" fill="#00ff00" />
<rect x="12.300" y="21.525" width="1.025" height="1.025" fill="#00b030" />
<rect x="13.325" y="21.525" width="1.025" height="1.025" fill="#00ca20" />
<rect x="18.450" y="21.525" width="1.025" height="1.025" fill="#00ca20" />
<rect x="19.475" y="21.525" width="1.025" height="1.025" fill="#00ff00" />
<rect x="20.500" y="21.525" width="1.025" height="1.025" fill="#00ca20" />
<rect x="28.700" y="21.525" width="1.025" height="1.025" fill="#00ff00" />
<rect x="29.725" y="21.525" width="1.025" height="1.025" fill="#00ff00" />
<rect x="7.175" y="22.550" width="1.025" height="1.025" fill="#00ff00" />
<rect x="8.200" y="22.550" width="1.025" height="1.025" fill="#00ff00" />
<rect x="11.275" y="22.550" width="1.025" height="1.025" fill="#00ff00" />
<rect x="14.350" y="22.550" width="1.025" height="1.025" fill="#00ca20" />
<rect x="17.425" y="22.550" width="1.025" height="1.025" fill="#00ff00" />
<rect x="19.475" y="22.550" width="1.025" height="1.025" fill="#00ff00" />
<rect x="21.525" y="22.550" width="1.025" height="1.025" fill="#00ca20" />
<rect x="22.550" y="22.550" width="1.025" height="1.025" fill="#00ff00" />
<rect x="30.750" y="22.550" width="1.025" height="1.025" fill="#00ff00" />
<rect x="6.150" y="23.575" width="1.025" height="1.025" fill="#00ff00" />
<rect x="11.275" y="23.575" width="1.025" height="1.025" fill="#00ff00" />
<rect x="15.375" y="23.575" width="1.025" height="1.025" fill="#00ff00" />
<rect x="17.425" y="23.575" width="1.025" height="1.025" fill="#00ff00" />
<rect x="19.475" y="23.575" width="1.025" height="1.025" fill="#00ff00" />
<rect x="23.575" y="23.575" width="1.025" height="1.025" fill="#00ff00" />
<rect x="31.775" y="23.575" width="1.025" height="1.025" fill="#00ff00" />
<rect x="6.150" y="24.600" width="1.025" height="1.025" fill="#00ff00" />
<rect x="12.300" y="24.600" width="1.025" height="1.025" fill="#00ff00" />
<rect x="16.400" y="24.600" width="1.025" height="1.025" fill="#00ff00" />
<rect x="19.475" y="24.600" width="1.025" height="1.025" fill="#00ff00" />
<rect x="24.600" y="24.600" width="1.025" height="1.025" fill="#00ff00" />
<rect x="32.800" y="24.600" width="1.025" height="1.025" fill="#00ff00" />
<rect x="33.825" y="24.600" width="1.025" height="1.025" fill="#00ff00" />
<rect x="5.125" y="25.625" width="1.025" height="1.025" fill="#00ff00" />
<rect x="12.300" y="25.625" width="1.025" height="1.025" fill="#00ff00" />
<rect x="17.425" y="25.625" width="1.025" height="1.025" fill="#00ff00" />
<rect x="18.450" y="25.625" width="1.025" height="1.025" fill="#00ff00" />
<rect x="19.475" y="25.625" width="1.025" height="1.025" fill="#00ff00" />
<rect x="24.600" y="25.625" width="1.025" height="1.025" fill="#00ff00" />
<rect x="34.850" y="25.625" width="1.025" height="1.025" fill="#00ca20" />
<rect x="5.125" y="26.650" width="1.025" height="1.025" fill="#00ca20" />
<rect x="12.300" y="26.650" width="1.025" height="1.025" fill="#00ff00" />
<rect x="19.475" y="26.650" width="1.025" height="1.025" fill="#00ff00" />
<rect x="23.575" y="26.650" width="1.025" height="1.025" fill="#00ca20" />
<rect x="25.625" y="26.650" width="1.025" height="1.025" fill="#00ff00" />
<rect x="35.875" y="26.650" width="1.025" height="1.025" fill="#00a338" />
<rect x="5.125" y="27.675" width="1.025" height="1.025" fill="#00b030" />
<rect x="13.325" y="27.675" width="1.025" height="1.025" fill="#00ff00" />
<rect x="20.500" y="27.675" width="1.025" height="1.025" fill="#00ff00" />
<rect x="22.550" y="27.675" width="1.025" height="1.025" fill="#00b030" />
<rect x="25.625" y="27.675" width="1.025" height="1.025" fill="#00ff00" />
<rect x="36.900" y="27.675" width="1.025" height="1.025" fill="#009c3c" />
<rect x="4.100" y="28.700" width="1.025" height="1.025" fill="#00ff00" />
<rect x="5.125" y="28.700" width="1.025" height="1.025" fill="#00ff00" />
<rect x="6.150" y="28.700" width="1.025" height="1.025" fill="#00ff00" />
<rect x="7.175" y="28.700" width="1.025" height="1.025" fill="#00ff00" />
<rect x="8.200" y="28.700" width="1.025" height="1.025" fill="#00ff00" />
<rect x="13.325" y="28.700" width="1.025" height="1.025" fill="#00ff00" />
<rect x="21.525" y="28.700" width="1.025" height="1.025" fill="#00ff00" />
<rect x="23.575" y="28.700" width="1.025" height="1.025" fill="#00ff00" />
<rect x="24.600" y="28.700" width="1.025" height="1.025" fill="#00ff00" />
<rect x="2.050" y="29.725" width="1.025" height="1.025" fill="#00ff00" />
<rect x="3.075" y="29.725" width="1.025" height="1.025" fill="#00ff00" />
<rect x="5.125" y="29.725" width="1.025" height="1.025" fill="#00b030" />
<rect x="9.225" y="29.725" width="1.025" height="1.025" fill="#00ff00" />
<rect x="14.350" y="29.725" width="1.025" height="1.025" fill="#00ff00" />
<rect x="22.550" y="29.725" width="1.025" height="1.025" fill="#00ff00" />
<rect x="1.025" y="30.750" width="1.025" height="1.025" fill="#00ff00" />
<rect x="5.125" y="30.750" width="1.025" height="1.025" fill="#00ca20" />
<rect x="9.225" y="30.750" width="1.025" height="1.025" fill="#00ff00" />
<rect x="14.350" y="30.750" width="1.025" height="1.025" fill="#00ff00" />
<rect x="22.550" y="30.750" width="1.025" height="1.025" fill="#00ff00" />
<rect x="0.000" y="31.775" width="1.025" height="1.025" fill="#00ff00" />
<rect x="6.150" y="31.775" width="1.025" height="1.025" fill="#00ca20" />
<rect x="9.225" y="31.775" width="1.025" height="1.025" fill="#00ff00" />
<rect x="15.375" y="31.775" width="1.025" height="1.025" fill="#00ff00" />
<rect x="21.525" y="31.775" width="1.025" height="1.025" fill="#00ff00" />
<rect x="0.000" y="32.800" width="1.025" height="1.025" fill="#00ff00" />
<rect x="6.150" y="32.800" width="1.025" height="1.025" fill="#00ff00" />
<rect x="9.225" y="32.800" width="1.025" height="1.025" fill="#00ff00" />
<rect x="15.375" y="32.800" width="1.025" height="1.025" fill="#00ff00" />
<rect x="21.525" y="32.800" width="1.025" height="1.025" fill="#00ca20" />
<rect x="0.000" y="33.825" width="1.025" height="1.025" fill="#00ff00" />
<rect x="7.175" y="33.825" width="1.025" height="1.025" fill="#00ff00" />
<rect x="9.225" y="33.825" width="1.025" height="1.025" fill="#00ff00" />
<rect x="15.375" y="33.825" width="1.025" height="1.025" fill="#00ff00" />
<rect x="21.525" y="33.825" width="1.025" height="1.025" fill="#00b030" />
<rect x="27.675" y="33.825" width="1.025" height="1.025" fill="#00ff00" />
<rect x="28.700" y="33.825" width="1.025" height="1.025" fill="#00ff00" />
<rect x="29.725" y="33.825" width="1.025" height="1.025" fill="#00ff00" />
<rect x="30.750" y="33.825" width="1.025" height="1.025" fill="#00ff00" />
<rect x="31.775" y="33.825" width="1.025" height="1.025" fill="#00ff00" />
<rect x="1.025" y="34.850" width="1.025" height="1.025" fill="#00ff00" fill-opacity="0.941" />
<rect x="8.200" y="34.850" width="1.025" height="1.025" fill="#00ff00" />
<rect x="16.400" y="34.850" width="1.025" height="1.025" fill="#00ff00" />
<rect x="20.500" y="34.850" width="1.025" height="1.025" fill="#00a338" />
<rect x="23.575" y="34.850" width="1.025" height="1.025" fill="#00ff00" />
<rect x="24.600" y="34.850" width="1.025" height="1.025" fill="#00ff00" />
<rect x="25.625" y="34.850" width="1.025" height="1.025" fill="#00ff00" />
<rect x="26.650" y="34.850" width="1.025" height="1.025" fill="#00ff00" />
<rect x="32.800" y="34.850" width="1.025" height="1.025" fill="#00ff00" />
<rect x="33.825" y="34.850" width="1.025" height="1.025" fill="#00ff00" />
<rect x="34.850" y="34.850" width="1.025" height="1.025" fill="#00ff00" />
<rect x="2.050" y="35.875" width="1.025" height="1.025" fill="#00d719" fill-opacity="0.988" />
<rect x="16.400" y="35.875" width="1.025" height="1.025" fill="#00ca20" />
<rect x="20.500" y="35.875" width="1.025" height="1.025" fill="#00ff00" />
<rect x="21.525" y="35.875" width="1.025" height="1.025" fill="#00ff00" />
<rect x="22.550" y="35.875" width="1.025" height="1.025" fill="#00ff00" />
<rect x="35.875" y="35.875" width="1.025" height="1.025" fill="#00ff00" />
<rect x="3.075" y="36.900" width="1.025" height="1.025" fill="#00b030" fill-opacity="0.988" />
<rect x="16.400" y="36.900" width="1.025" height="1.025" fill="#00a338" />
<rect x="19.475" y="36.900" width="1.025" height="1.025" fill="#00ca20" />
<rect x="35.875" y="36.900" width="1.025" height="1.025" fill="#00ca20" />
</svg>