<svg xmlns="http://www.w3.org/2000/svg" width="37.925" height="37.925" shape-rendering="crispEdges" style="image-rendering: pixelated;">
<rect x="15.375" y="2.050" width="1.025" height="1.025" fill="#279300" />
<rect x="18.450" y="2.050" width="1.025" height="1.025" fill="#38d400" />
<rect x="20.500" y="2.050" width="1.025" height="1.025" fill="#2da800" />
<rect x="23.575" y="2.050" width="1.025" height="1.025" fill="#44ff00" />
<rect x="11.275" y="3.075" width="1.025" height="1.025" fill="#30b300" />
<rect x="16.400" y="3.075" width="1.025" height="1.025" fill="#248900" />
<rect x="17.425" y="3.075" width="1.025" height="1.025" fill="#185c00" />
<rect x="20.500" y="3.075" width="1.025" height="1.025" fill="#2fb100" />
<rect x="22.550" y="3.075" width="1.025" height="1.025" fill="#3fec00" />
<rect x="25.625" y="3.075" width="1.025" height="1.025" fill="#3ce100" />
<rect x="12.300" y="4.100" width="1.025" height="1.025" fill="#0e3500" />
<rect x="15.375" y="4.100" width="1.025" height="1.025" fill="#1a6300" />
<rect x="17.425" y="4.100" width="1.025" height="1.025" fill="#279300" />
<rect x="18.450" y="4.100" width="1.025" height="1.025" fill="#248700" />
<rect x="19.475" y="4.100" width="1.025" height="1.025" fill="#2fb100" />
<rect x="20.500" y="4.100" width="1.025" height="1.025" fill="#2eaf00" />
<rect x="21.525" y="4.100" width="1.025" height="1.025" fill="#44ff00" />
<rect x="22.550" y="4.100" width="1.025" height="1.025" fill="#44ff00" />
<rect x="24.600" y="4.100" width="1.025" height="1.025" fill="#3de700" />
<rect x="9.225" y="5.125" width="1.025" height="1.025" fill="#2ca600" />
<rect x="13.325" y="5.125" width="1.025" height="1.025" fill="#35c900" />
<rect x="14.350" y="5.125" width="1.025" height="1.025" fill="#35c900" />
<rect x="15.375" y="5.125" width="1.025" height="1.025" fill="#248900" />
<rect x="16.400" y="5.125" width="1.025" height="1.025" fill="#185c00" />
<rect x="17.425" y="5.125" width="1.025" height="1.025" fill="#2da800" />
<rect x="18.450" y="5.125" width="1.025" height="1.025" fill="#227f00" />
<rect x="19.475" y="5.125" width="1.025" height="1.025" fill="#3ce100" />
<rect x="20.500" y="5.125" width="1.025" height="1.025" fill="#3de700" />
<rect x="21.525" y="5.125" width="1.025" height="1.025" fill="#3de700" />
<rect x="22.550" y="5.125" width="1.025" height="1.025" fill="#44ff00" />
<rect x="23.575" y="5.125" width="1.025" height="1.025" fill="#3fec00" />
<rect x="24.600" y="5.125" width="1.025" height="1.025" fill="#2da800" />
<rect x="25.625" y="5.125" width="1.025" height="1.025" fill="#44ff00" />
<rect x="27.675" y="5.125" width="1.025" height="1.025" fill="#3fec00" />
<rect x="11.275" y="6.150" width="1.025" height="1.025" fill="#1d6c00" />
<rect x="12.300" y="6.150" width="1.025" height="1.025" fill="#35c900" />
<rect x="13.325" y="6.150" width="1.025" height="1.025" fill="#185c00" />
<rect x="14.350" y="6.150" width="1.025" height="1.025" fill="#35c900" />
<rect x="15.375" y="6.150" width="1.025" height="1.025" fill="#248900" />
<rect x="16.400" y="6.150" width="1.025" height="1.025" fill="#38d400" />
<rect x="17.425" y="6.150" width="1.025" height="1.025" fill="#227f00" />
<rect x="18.450" y="6.150" width="1.025" height="1.025" fill="#3ce100" />
<rect x="19.475" y="6.150" width="1.025" height="1.025" fill="#3de700" />
<rect x="20.500" y="6.150" width="1.025" height="1.025" fill="#32bb00" />
<rect x="21.525" y="6.150" width="1.025" height="1.025" fill="#44ff00" />
<rect x="22.550" y="6.150" width="1.025" height="1.025" fill="#33c000" />
<rect x="23.575" y="6.150" width="1.025" height="1.025" fill="#33c000" />
<rect x="24.600" y="6.150" width="1.025" height="1.025" fill="#44ff00" />
<rect x="26.650" y="6.150" width="1.025" height="1.025" fill="#3de700" />
<rect x="9.225" y="7.175" width="1.025" height="1.025" fill="#103b00" />
<rect x="10.250" y="7.175" width="1.025" height="1.025" fill="#1a6100" />
<rect x="12.300" y="7.175" width="1.025" height="1.025" fill="#35c900" />
<rect x="13.325" y="7.175" width="1.025" height="1.025" fill="#35c900" />
<rect x="14.350" y="7.175" width="1.025" height="1.025" fill="#185c00" />
<rect x="15.375" y="7.175" width="1.025" height="1.025" fill="#35c900" />
<rect x="16.400" y="7.175" width="1.025" height="1.025" fill="#227f00" />
<rect x="17.425" y="7.175" width="1.025" height="1.025" fill="#2fb100" />
<rect x="18.450" y="7.175" width="1.025" height="1.025" fill="#2fb100" />
<rect x="19.475" y="7.175" width="1.025" height="1.025" fill="#33c000" />
<rect x="20.500" y="7.175" width="1.025" height="1.025" fill="#3de700" />
<rect x="21.525" y="7.175" width="1.025" height="1.025" fill="#33c000" />
<rect x="22.550" y="7.175" width="1.025" height="1.025" fill="#3de700" />
<rect x="23.575" y="7.175" width="1.025" height="1.025" fill="#44ff00" />
<rect x="24.600" y="7.175" width="1.025" height="1.025" fill="#3de700" />
<rect x="25.625" y="7.175" width="1.025" height="1.025" fill="#3de700" />
<rect x="26.650" y="7.175" width="1.025" height="1.025" fill="#2eaf00" />
<rect x="8.200" y="8.200" width="1.025" height="1.025" fill="#0c2d00" />
<rect x="10.250" y="8.200" width="1.025" height="1.025" fill="#1d6c00" />
<rect x="11.275" y="8.200" width="1.025" height="1.025" fill="#071a00" />
<rect x="12.300" y="8.200" width="1.025" height="1.025" fill="#279300" />
<rect x="13.325" y="8.200" width="1.025" height="1.025" fill="#279300" />
<rect x="14.350" y="8.200" width="1.025" height="1.025" fill="#35c900" />
<rect x="15.375" y="8.200" width="1.025" height="1.025" fill="#279300" />
<rect x="16.400" y="8.200" width="1.025" height="1.025" fill="#3ce100" />
<rect x="17.425" y="8.200" width="1.025" height="1.025" fill="#2fb100" />
<rect x="18.450" y="8.200" width="1.025" height="1.025" fill="#227f00" />
<rect x="19.475" y="8.200" width="1.025" height="1.025" fill="#33c000" />
<rect x="20.500" y="8.200" width="1.025" height="1.025" fill="#3de700" />
<rect x="21.525" y="8.200" width="1.025" height="1.025" fill="#3de700" />
<rect x="22.550" y="8.200" width="1.025" height="1.025" fill="#44ff00" />
<rect x="23.575" y="8.200" width="1.025" height="1.025" fill="#33c000" />
<rect x="24.600" y="8.200" width="1.025" height="1.025" fill="#33c000" />
<rect x="25.625" y="8.200" width="1.025" height="1.025" fill="#44ff00" />
<rect x="11.275" y="9.225" width="1.025" height="1.025" fill="#1d6c00" />
<rect x="12.300" y="9.225" width="1.025" height="1.025" fill="#114000" />
<rect x="13.325" y="9.225" width="1.025" height="1.025" fill="#279300" />
<rect x="14.350" y="9.225" width="1.025" height="1.025" fill="#185c00" />
<rect x="15.375" y="9.225" width="1.025" height="1.025" fill="#35c900" />
<rect x="16.400" y="9.225" width="1.025" height="1.025" fill="#2fb100" />
<rect x="17.425" y="9.225" width="1.025" height="1.025" fill="#3ce100" />
<rect x="18.450" y="9.225" width="1.025" height="1.025" fill="#2fb100" />
<rect x="19.475" y="9.225" width="1.025" height="1.025" fill="#44ff00" />
<rect x="20.500" y="9.225" width="1.025" height="1.025" fill="#44ff00" />
<rect x="21.525" y="9.225" width="1.025" height="1.025" fill="#33c000" />
<rect x="22.550" y="9.225" width="1.025" height="1.025" fill="#33c000" />
<rect x="23.575" y="9.225" width="1.025" height="1.025" fill="#44ff00" />
<rect x="24.600" y="9.225" width="1.025" height="1.025" fill="#33c000" />
<rect x="25.625" y="9.225" width="1.025" height="1.025" fill="#3de700" />
<rect x="26.650" y="9.225" width="1.025" height="1.025" fill="#44ff00" />
<rect x="11.275" y="10.250" width="1.025" height="1.025" fill="#071a00" />
<rect x="12.300" y="10.250" width="1.025" height="1.025" fill="#1d6c00" />
<rect x="13.325" y="10.250" width="1.025" height="1.025" fill="#279300" />
<rect x="14.350" y="10.250" width="1.025" height="1.025" fill="#279300" />
<rect x="15.375" y="10.250" width="1.025" height="1.025" fill="#185c00" />
<rect x="16.400" y="10.250" width="1.025" height="1.025" fill="#2fb100" />
<rect x="17.425" y="10.250" width="1.025" height="1.025" fill="#3ce100" />
<rect x="18.450" y="10.250" width="1.025" height="1.025" fill="#227f00" />
<rect x="19.475" y="10.250" width="1.025" height="1.025" fill="#33c000" />
<rect x="20.500" y="10.250" width="1.025" height="1.025" fill="#33c000" />
<rect x="21.525" y="10.250" width="1.025" height="1.025" fill="#44ff00" />
<rect x="22.550" y="10.250" width="1.025" height="1.025" fill="#33c000" />
<rect x="23.575" y="10.250" width="1.025" height="1.025" fill="#33c000" />
<rect x="25.625" y="10.250" width="1.025" height="1.025" fill="#33c000" />
<rect x="27.675" y="10.250" width="1.025" height="1.025" fill="#3ce100" />
<rect x="10.250" y="11.275" width="1.025" height="1.025" fill="#071a00" />
<rect x="11.275" y="11.275" width="1.025" height="1.025" fill="#071a00" />
<rect x="12.300" y="11.275" width="1.025" height="1.025" fill="#071a00" />
<rect x="13.325" y="11.275" width="1.025" height="1.025" fill="#185c00" />
<rect x="14.350" y="11.275" width="1.025" height="1.025" fill="#185c00" />
<rect x="15.375" y="11.275" width="1.025" height="1.025" fill="#35c900" />
<rect x="17.425" y="11.275" width="1.025" height="1.025" fill="#1c6900" />
<rect x="21.525" y="11.275" width="1.025" height="1.025" fill="#2eaf00" />
<rect x="23.575" y="11.275" width="1.025" height="1.025" fill="#44ff00" />
<rect x="25.625" y="11.275" width="1.025" height="1.025" fill="#3fec00" />
<rect x="9.225" y="12.300" width="1.025" height="1.025" fill="#0e3500" />
<rect x="12.300" y="12.300" width="1.025" height="1.025" fill="#071a00" />
<rect x="13.325" y="12.300" width="1.025" height="1.025" fill="#0e3500" />
<rect x="15.375" y="12.300" width="1.025" height="1.025" fill="#35c900" />
<rect x="18.450" y="12.300" width="1.025" height="1.025" fill="#1c6900" />
<rect x="25.625" y="12.300" width="1.025" height="1.025" fill="#44ff00" />
<rect x="12.300" y="13.325" width="1.025" height="1.025" fill="#071a00" />
<rect x="14.350" y="13.325" width="1.025" height="1.025" fill="#2ca600" />
<rect x="26.650" y="13.325" width="1.025" height="1.025" fill="#299a00" />
<rect x="12.300" y="14.350" width="1.025" height="1.025" fill="#071a00" />
</svg>