<svg xmlns="http://www.w3.org/2000/svg" width="37.925" height="37.925" shape-rendering="crispEdges" style="image-rendering: pixelated;">
<rect x="9.225" y="5.125" width="1.025" height="1.025" fill="#5d3200" />
<rect x="10.250" y="5.125" width="1.025" height="1.025" fill="#945a0b" />
<rect x="11.275" y="5.125" width="1.025" height="1.025" fill="#945a0b" />
<rect x="12.300" y="5.125" width="1.025" height="1.025" fill="#945a0b" />
<rect x="13.325" y="5.125" width="1.025" height="1.025" fill="#945a0b" />
<rect x="14.350" y="5.125" width="1.025" height="1.025" fill="#6c3c00" />
<rect x="15.375" y="5.125" width="1.025" height="1.025" fill="#cc8c3a" />
<rect x="16.400" y="5.125" width="1.025" height="1.025" fill="#cc8c3a" />
<rect x="17.425" y="5.125" width="1.025" height="1.025" fill="#e4a14b" />
<rect x="18.450" y="5.125" width="1.025" height="1.025" fill="#d79744" />
<rect x="19.475" y="5.125" width="1.025" height="1.025" fill="#d79744" />
<rect x="20.500" y="5.125" width="1.025" height="1.025" fill="#d79744" />
<rect x="21.525" y="5.125" width="1.025" height="1.025" fill="#dea255" />
<rect x="22.550" y="5.125" width="1.025" height="1.025" fill="#f4b361" />
<rect x="23.575" y="5.125" width="1.025" height="1.025" fill="#f5b35e" />
<rect x="24.600" y="5.125" width="1.025" height="1.025" fill="#f4b361" />
<rect x="25.625" y="5.125" width="1.025" height="1.025" fill="#f5b35e" />
<rect x="8.200" y="6.150" width="1.025" height="1.025" fill="#824c07" />
<rect x="9.225" y="6.150" width="1.025" height="1.025" fill="#693a00" />
<rect x="10.250" y="6.150" width="1.025" height="1.025" fill="#5d3200" />
<rect x="11.275" y="6.150" width="1.025" height="1.025" fill="#824c07" />
<rect x="12.300" y="6.150" width="1.025" height="1.025" fill="#824c07" />
<rect x="13.325" y="6.150" width="1.025" height="1.025" fill="#5e3300" />
<rect x="14.350" y="6.150" width="1.025" height="1.025" fill="#834b02" />
<rect x="15.375" y="6.150" width="1.025" height="1.025" fill="#cc8c3a" />
<rect x="16.400" y="6.150" width="1.025" height="1.025" fill="#cc8c3a" />
<rect x="17.425" y="6.150" width="1.025" height="1.025" fill="#f4b361" />
<rect x="18.450" y="6.150" width="1.025" height="1.025" fill="#d79744" />
<rect x="19.475" y="6.150" width="1.025" height="1.025" fill="#d79744" />
<rect x="20.500" y="6.150" width="1.025" height="1.025" fill="#d79744" />
<rect x="21.525" y="6.150" width="1.025" height="1.025" fill="#dea255" />
<rect x="22.550" y="6.150" width="1.025" height="1.025" fill="#f4b361" />
<rect x="23.575" y="6.150" width="1.025" height="1.025" fill="#f5b35e" />
<rect x="24.600" y="6.150" width="1.025" height="1.025" fill="#ba8c51" />
<rect x="25.625" y="6.150" width="1.025" height="1.025" fill="#dea255" />
<rect x="8.200" y="7.175" width="1.025" height="1.025" fill="#814c07" />
<rect x="9.225" y="7.175" width="1.025" height="1.025" fill="#734200" />
<rect x="10.250" y="7.175" width="1.025" height="1.025" fill="#693a00" />
<rect x="11.275" y="7.175" width="1.025" height="1.025" fill="#5d3200" />
<rect x="12.300" y="7.175" width="1.025" height="1.025" fill="#623600" />
<rect x="13.325" y="7.175" width="1.025" height="1.025" fill="#6c3c00" />
<rect x="14.350" y="7.175" width="1.025" height="1.025" fill="#834b02" />
<rect x="15.375" y="7.175" width="1.025" height="1.025" fill="#f2b562" />
<rect x="16.400" y="7.175" width="1.025" height="1.025" fill="#cc8c3a" />
<rect x="17.425" y="7.175" width="1.025" height="1.025" fill="#cc8830" />
<rect x="18.450" y="7.175" width="1.025" height="1.025" fill="#da963e" />
<rect x="19.475" y="7.175" width="1.025" height="1.025" fill="#dea255" />
<rect x="20.500" y="7.175" width="1.025" height="1.025" fill="#dea255" />
<rect x="21.525" y="7.175" width="1.025" height="1.025" fill="#dea255" />
<rect x="22.550" y="7.175" width="1.025" height="1.025" fill="#dea255" />
<rect x="23.575" y="7.175" width="1.025" height="1.025" fill="#f4b361" />
<rect x="24.600" y="7.175" width="1.025" height="1.025" fill="#f5b35e" />
<rect x="25.625" y="7.175" width="1.025" height="1.025" fill="#f1b35b" />
<rect x="8.200" y="8.200" width="1.025" height="1.025" fill="#8d5913" />
<rect x="9.225" y="8.200" width="1.025" height="1.025" fill="#824c07" />
<rect x="10.250" y="8.200" width="1.025" height="1.025" fill="#7f4904" />
<rect x="11.275" y="8.200" width="1.025" height="1.025" fill="#734204" />
<rect x="12.300" y="8.200" width="1.025" height="1.025" fill="#945a0b" />
<rect x="13.325" y="8.200" width="1.025" height="1.025" fill="#945a0b" />
<rect x="14.350" y="8.200" width="1.025" height="1.025" fill="#945a0b" />
<rect x="15.375" y="8.200" width="1.025" height="1.025" fill="#e28d5f" />
<rect x="16.400" y="8.200" width="1.025" height="1.025" fill="#e7a144" />
<rect x="17.425" y="8.200" width="1.025" height="1.025" fill="#dc963a" />
<rect x="18.450" y="8.200" width="1.025" height="1.025" fill="#dc963a" />
<rect x="19.475" y="8.200" width="1.025" height="1.025" fill="#e7a144" />
<rect x="20.500" y="8.200" width="1.025" height="1.025" fill="#e7a144" />
<rect x="21.525" y="8.200" width="1.025" height="1.025" fill="#e7a144" />
<rect x="22.550" y="8.200" width="1.025" height="1.025" fill="#e7a144" />
<rect x="23.575" y="8.200" width="1.025" height="1.025" fill="#e7a144" />
<rect x="24.600" y="8.200" width="1.025" height="1.025" fill="#e7a144" />
<rect x="25.625" y="8.200" width="1.025" height="1.025" fill="#dea255" />
<rect x="8.200" y="9.225" width="1.025" height="1.025" fill="#85500b" />
<rect x="9.225" y="9.225" width="1.025" height="1.025" fill="#7e4904" />
<rect x="10.250" y="9.225" width="1.025" height="1.025" fill="#7f4904" />
<rect x="11.275" y="9.225" width="1.025" height="1.025" fill="#734204" />
<rect x="12.300" y="9.225" width="1.025" height="1.025" fill="#a36516" />
<rect x="13.325" y="9.225" width="1.025" height="1.025" fill="#a36516" />
<rect x="14.350" y="9.225" width="1.025" height="1.025" fill="#a26414" />
<rect x="15.375" y="9.225" width="1.025" height="1.025" fill="#d99333" />
<rect x="16.400" y="9.225" width="1.025" height="1.025" fill="#dd9536" />
<rect x="17.425" y="9.225" width="1.025" height="1.025" fill="#f1b35b" />
<rect x="18.450" y="9.225" width="1.025" height="1.025" fill="#e2a147" />
<rect x="19.475" y="9.225" width="1.025" height="1.025" fill="#cc862a" />
<rect x="20.500" y="9.225" width="1.025" height="1.025" fill="#cc862a" />
<rect x="21.525" y="9.225" width="1.025" height="1.025" fill="#dc963a" />
<rect x="22.550" y="9.225" width="1.025" height="1.025" fill="#dc963a" />
<rect x="23.575" y="9.225" width="1.025" height="1.025" fill="#dc963a" />
<rect x="24.600" y="9.225" width="1.025" height="1.025" fill="#e5a149" />
<rect x="25.625" y="9.225" width="1.025" height="1.025" fill="#dea255" />
<rect x="8.200" y="10.250" width="1.025" height="1.025" fill="#8d5712" />
<rect x="9.225" y="10.250" width="1.025" height="1.025" fill="#85510b" />
<rect x="10.250" y="10.250" width="1.025" height="1.025" fill="#86500a" />
<rect x="11.275" y="10.250" width="1.025" height="1.025" fill="#7a480a" />
<rect x="12.300" y="10.250" width="1.025" height="1.025" fill="#a36516" />
<rect x="13.325" y="10.250" width="1.025" height="1.025" fill="#a36516" />
<rect x="14.350" y="10.250" width="1.025" height="1.025" fill="#955c0e" />
<rect x="15.375" y="10.250" width="1.025" height="1.025" fill="#d9953a" />
<rect x="16.400" y="10.250" width="1.025" height="1.025" fill="#f7b25e" />
<rect x="17.425" y="10.250" width="1.025" height="1.025" fill="#e7a144" />
<rect x="18.450" y="10.250" width="1.025" height="1.025" fill="#cc862a" />
<rect x="19.475" y="10.250" width="1.025" height="1.025" fill="#e7a242" />
<rect x="20.500" y="10.250" width="1.025" height="1.025" fill="#e7a144" />
<rect x="21.525" y="10.250" width="1.025" height="1.025" fill="#e7a144" />
<rect x="22.550" y="10.250" width="1.025" height="1.025" fill="#e7a144" />
<rect x="23.575" y="10.250" width="1.025" height="1.025" fill="#e7a144" />
<rect x="24.600" y="10.250" width="1.025" height="1.025" fill="#e4a249" />
<rect x="25.625" y="10.250" width="1.025" height="1.025" fill="#dea255" />
<rect x="8.200" y="11.275" width="1.025" height="1.025" fill="#8d5511" />
<rect x="9.225" y="11.275" width="1.025" height="1.025" fill="#85500b" />
<rect x="10.250" y="11.275" width="1.025" height="1.025" fill="#87500a" />
<rect x="11.275" y="11.275" width="1.025" height="1.025" fill="#7b480a" />
<rect x="12.300" y="11.275" width="1.025" height="1.025" fill="#945a0b" />
<rect x="13.325" y="11.275" width="1.025" height="1.025" fill="#945a0b" />
<rect x="14.350" y="11.275" width="1.025" height="1.025" fill="#ae7426" />
<rect x="15.375" y="11.275" width="1.025" height="1.025" fill="#df9436" />
<rect x="16.400" y="11.275" width="1.025" height="1.025" fill="#dd9536" />
<rect x="17.425" y="11.275" width="1.025" height="1.025" fill="#d9953a" />
<rect x="18.450" y="11.275" width="1.025" height="1.025" fill="#e7a144" />
<rect x="19.475" y="11.275" width="1.025" height="1.025" fill="#e7a144" />
<rect x="20.500" y="11.275" width="1.025" height="1.025" fill="#e7a144" />
<rect x="21.525" y="11.275" width="1.025" height="1.025" fill="#e7a144" />
<rect x="22.550" y="11.275" width="1.025" height="1.025" fill="#e7a144" />
<rect x="23.575" y="11.275" width="1.025" height="1.025" fill="#d08d2c" />
<rect x="24.600" y="11.275" width="1.025" height="1.025" fill="#f5b35e" />
<rect x="25.625" y="11.275" width="1.025" height="1.025" fill="#af7e40" />
<rect x="8.200" y="12.300" width="1.025" height="1.025" fill="#8e5710" />
<rect x="9.225" y="12.300" width="1.025" height="1.025" fill="#85500b" />
<rect x="10.250" y="12.300" width="1.025" height="1.025" fill="#7d4702" />
<rect x="11.275" y="12.300" width="1.025" height="1.025" fill="#734204" />
<rect x="12.300" y="12.300" width="1.025" height="1.025" fill="#ae7426" />
<rect x="13.325" y="12.300" width="1.025" height="1.025" fill="#915a10" />
<rect x="14.350" y="12.300" width="1.025" height="1.025" fill="#a36516" />
<rect x="15.375" y="12.300" width="1.025" height="1.025" fill="#f4b35e" />
<rect x="16.400" y="12.300" width="1.025" height="1.025" fill="#d48b2c" />
<rect x="17.425" y="12.300" width="1.025" height="1.025" fill="#a66b1c" />
<rect x="18.450" y="12.300" width="1.025" height="1.025" fill="#a66b1c" />
<rect x="19.475" y="12.300" width="1.025" height="1.025" fill="#c78630" />
<rect x="20.500" y="12.300" width="1.025" height="1.025" fill="#e7a144" />
<rect x="21.525" y="12.300" width="1.025" height="1.025" fill="#da973e" />
<rect x="22.550" y="12.300" width="1.025" height="1.025" fill="#a66b1c" />
<rect x="23.575" y="12.300" width="1.025" height="1.025" fill="#a66b1c" />
<rect x="24.600" y="12.300" width="1.025" height="1.025" fill="#d18d34" />
<rect x="25.625" y="12.300" width="1.025" height="1.025" fill="#f1b35b" />
<rect x="8.200" y="13.325" width="1.025" height="1.025" fill="#814c09" />
<rect x="9.225" y="13.325" width="1.025" height="1.025" fill="#854f0a" />
<rect x="10.250" y="13.325" width="1.025" height="1.025" fill="#814c05" />
<rect x="11.275" y="13.325" width="1.025" height="1.025" fill="#794809" />
<rect x="12.300" y="13.325" width="1.025" height="1.025" fill="#945a0b" />
<rect x="13.325" y="13.325" width="1.025" height="1.025" fill="#875006" />
<rect x="14.350" y="13.325" width="1.025" height="1.025" fill="#945a0b" />
<rect x="15.375" y="13.325" width="1.025" height="1.025" fill="#dea255" />
<rect x="16.400" y="13.325" width="1.025" height="1.025" fill="#a66b1c" />
<rect x="19.475" y="13.325" width="1.025" height="1.025" fill="#925838" />
<rect x="20.500" y="13.325" width="1.025" height="1.025" fill="#e7a144" />
<rect x="21.525" y="13.325" width="1.025" height="1.025" fill="#6d432b" />
<rect x="24.600" y="13.325" width="1.025" height="1.025" fill="#a66b1c" />
<rect x="25.625" y="13.325" width="1.025" height="1.025" fill="#f1b35b" />
<rect x="8.200" y="14.350" width="1.025" height="1.025" fill="#814c09" />
<rect x="9.225" y="14.350" width="1.025" height="1.025" fill="#86500a" />
<rect x="10.250" y="14.350" width="1.025" height="1.025" fill="#7d4702" />
<rect x="11.275" y="14.350" width="1.025" height="1.025" fill="#734204" />
<rect x="12.300" y="14.350" width="1.025" height="1.025" fill="#945a0b" />
<rect x="13.325" y="14.350" width="1.025" height="1.025" fill="#875006" />
<rect x="14.350" y="14.350" width="1.025" height="1.025" fill="#945a0b" />
<rect x="15.375" y="14.350" width="1.025" height="1.025" fill="#f4b363" />
<rect x="20.500" y="14.350" width="1.025" height="1.025" fill="#f4b363" />
<rect x="21.525" y="14.350" width="1.025" height="1.025" fill="#d08d2c" />
<rect x="25.625" y="14.350" width="1.025" height="1.025" fill="#bf8c44" />
<rect x="8.200" y="15.375" width="1.025" height="1.025" fill="#814c09" />
<rect x="9.225" y="15.375" width="1.025" height="1.025" fill="#814c09" />
<rect x="10.250" y="15.375" width="1.025" height="1.025" fill="#7f4904" />
<rect x="11.275" y="15.375" width="1.025" height="1.025" fill="#734204" />
<rect x="12.300" y="15.375" width="1.025" height="1.025" fill="#945a0b" />
<rect x="13.325" y="15.375" width="1.025" height="1.025" fill="#875006" />
<rect x="14.350" y="15.375" width="1.025" height="1.025" fill="#945a0b" />
<rect x="15.375" y="15.375" width="1.025" height="1.025" fill="#f4b363" />
<rect x="20.500" y="15.375" width="1.025" height="1.025" fill="#f4b363" />
<rect x="21.525" y="15.375" width="1.025" height="1.025" fill="#d08d2c" />
<rect x="25.625" y="15.375" width="1.025" height="1.025" fill="#bf8c44" />
<rect x="8.200" y="16.400" width="1.025" height="1.025" fill="#814c09" />
<rect x="9.225" y="16.400" width="1.025" height="1.025" fill="#7e4905" />
<rect x="10.250" y="16.400" width="1.025" height="1.025" fill="#824c07" />
<rect x="11.275" y="16.400" width="1.025" height="1.025" fill="#734204" />
<rect x="12.300" y="16.400" width="1.025" height="1.025" fill="#945a0b" />
<rect x="13.325" y="16.400" width="1.025" height="1.025" fill="#844e05" />
<rect x="14.350" y="16.400" width="1.025" height="1.025" fill="#945a0b" />
<rect x="15.375" y="16.400" width="1.025" height="1.025" fill="#c28c49" />
<rect x="16.400" y="16.400" width="1.025" height="1.025" fill="#a66b1c" />
<rect x="20.500" y="16.400" width="1.025" height="1.025" fill="#b0762a" />
<rect x="21.525" y="16.400" width="1.025" height="1.025" fill="#d08d2c" />
<rect x="24.600" y="16.400" width="1.025" height="1.025" fill="#cb8933" />
<rect x="25.625" y="16.400" width="1.025" height="1.025" fill="#bf8c44" />
<rect x="8.200" y="17.425" width="1.025" height="1.025" fill="#734200" />
<rect x="9.225" y="17.425" width="1.025" height="1.025" fill="#7e4905" />
<rect x="10.250" y="17.425" width="1.025" height="1.025" fill="#7f4904" />
<rect x="11.275" y="17.425" width="1.025" height="1.025" fill="#734204" />
<rect x="12.300" y="17.425" width="1.025" height="1.025" fill="#8c5408" />
<rect x="13.325" y="17.425" width="1.025" height="1.025" fill="#844e05" />
<rect x="14.350" y="17.425" width="1.025" height="1.025" fill="#945a0b" />
<rect x="15.375" y="17.425" width="1.025" height="1.025" fill="#c28c4b" />
<rect x="16.400" y="17.425" width="1.025" height="1.025" fill="#cb8933" />
<rect x="17.425" y="17.425" width="1.025" height="1.025" fill="#6d432b" />
<rect x="18.450" y="17.425" width="1.025" height="1.025" fill="#7a4a30" />
<rect x="19.475" y="17.425" width="1.025" height="1.025" fill="#f4b363" />
<rect x="20.500" y="17.425" width="1.025" height="1.025" fill="#dc9432" />
<rect x="21.525" y="17.425" width="1.025" height="1.025" fill="#f4b363" />
<rect x="22.550" y="17.425" width="1.025" height="1.025" fill="#7a4a30" />
<rect x="23.575" y="17.425" width="1.025" height="1.025" fill="#7a4a30" />
<rect x="24.600" y="17.425" width="1.025" height="1.025" fill="#cb8933" />
<rect x="25.625" y="17.425" width="1.025" height="1.025" fill="#f1b35b" />
<rect x="8.200" y="18.450" width="1.025" height="1.025" fill="#734200" />
<rect x="9.225" y="18.450" width="1.025" height="1.025" fill="#7b4602" />
<rect x="10.250" y="18.450" width="1.025" height="1.025" fill="#7f4904" />
<rect x="11.275" y="18.450" width="1.025" height="1.025" fill="#714002" />
<rect x="12.300" y="18.450" width="1.025" height="1.025" fill="#864f05" />
<rect x="13.325" y="18.450" width="1.025" height="1.025" fill="#875006" />
<rect x="14.350" y="18.450" width="1.025" height="1.025" fill="#945a0b" />
<rect x="15.375" y="18.450" width="1.025" height="1.025" fill="#dd9536" />
<rect x="16.400" y="18.450" width="1.025" height="1.025" fill="#dc9538" />
<rect x="17.425" y="18.450" width="1.025" height="1.025" fill="#f4b363" />
<rect x="18.450" y="18.450" width="1.025" height="1.025" fill="#f4b363" />
<rect x="19.475" y="18.450" width="1.025" height="1.025" fill="#cb8933" />
<rect x="20.500" y="18.450" width="1.025" height="1.025" fill="#dd9536" />
<rect x="21.525" y="18.450" width="1.025" height="1.025" fill="#cb8933" />
<rect x="22.550" y="18.450" width="1.025" height="1.025" fill="#f4b363" />
<rect x="23.575" y="18.450" width="1.025" height="1.025" fill="#f4b363" />
<rect x="24.600" y="18.450" width="1.025" height="1.025" fill="#dc953a" />
<rect x="25.625" y="18.450" width="1.025" height="1.025" fill="#f1b35b" />
<rect x="8.200" y="19.475" width="1.025" height="1.025" fill="#6e4000" />
<rect x="9.225" y="19.475" width="1.025" height="1.025" fill="#764300" />
<rect x="10.250" y="19.475" width="1.025" height="1.025" fill="#7c4601" />
<rect x="11.275" y="19.475" width="1.025" height="1.025" fill="#714002" />
<rect x="12.300" y="19.475" width="1.025" height="1.025" fill="#864f07" />
<rect x="13.325" y="19.475" width="1.025" height="1.025" fill="#844d05" />
<rect x="14.350" y="19.475" width="1.025" height="1.025" fill="#945a0b" />
<rect x="15.375" y="19.475" width="1.025" height="1.025" fill="#f5b462" />
<rect x="16.400" y="19.475" width="1.025" height="1.025" fill="#dd9536" />
<rect x="17.425" y="19.475" width="1.025" height="1.025" fill="#cb8933" />
<rect x="18.450" y="19.475" width="1.025" height="1.025" fill="#cb8933" />
<rect x="19.475" y="19.475" width="1.025" height="1.025" fill="#dd9536" />
<rect x="20.500" y="19.475" width="1.025" height="1.025" fill="#dd9536" />
<rect x="21.525" y="19.475" width="1.025" height="1.025" fill="#dd9536" />
<rect x="22.550" y="19.475" width="1.025" height="1.025" fill="#d68f31" />
<rect x="23.575" y="19.475" width="1.025" height="1.025" fill="#dd9536" />
<rect x="24.600" y="19.475" width="1.025" height="1.025" fill="#f5b35e" />
<rect x="25.625" y="19.475" width="1.025" height="1.025" fill="#dea255" />
<rect x="8.200" y="20.500" width="1.025" height="1.025" fill="#6e4000" />
<rect x="9.225" y="20.500" width="1.025" height="1.025" fill="#6e4000" />
<rect x="10.250" y="20.500" width="1.025" height="1.025" fill="#734200" />
<rect x="11.275" y="20.500" width="1.025" height="1.025" fill="#6a3c00" />
<rect x="12.300" y="20.500" width="1.025" height="1.025" fill="#7e4c03" />
<rect x="13.325" y="20.500" width="1.025" height="1.025" fill="#7f4a02" />
<rect x="14.350" y="20.500" width="1.025" height="1.025" fill="#93580e" />
<rect x="15.375" y="20.500" width="1.025" height="1.025" fill="#dea255" />
<rect x="16.400" y="20.500" width="1.025" height="1.025" fill="#dd9536" />
<rect x="17.425" y="20.500" width="1.025" height="1.025" fill="#dd9536" />
<rect x="18.450" y="20.500" width="1.025" height="1.025" fill="#dd9536" />
<rect x="19.475" y="20.500" width="1.025" height="1.025" fill="#dd9536" />
<rect x="20.500" y="20.500" width="1.025" height="1.025" fill="#dd9536" />
<rect x="21.525" y="20.500" width="1.025" height="1.025" fill="#dd9536" />
<rect x="22.550" y="20.500" width="1.025" height="1.025" fill="#d28b2e" />
<rect x="23.575" y="20.500" width="1.025" height="1.025" fill="#d1892b" />
<rect x="24.600" y="20.500" width="1.025" height="1.025" fill="#cc862a" />
<rect x="25.625" y="20.500" width="1.025" height="1.025" fill="#af7e40" />
<rect x="8.200" y="21.525" width="1.025" height="1.025" fill="#7a4500" />
<rect x="9.225" y="21.525" width="1.025" height="1.025" fill="#6e4000" />
<rect x="10.250" y="21.525" width="1.025" height="1.025" fill="#6e3e00" />
<rect x="11.275" y="21.525" width="1.025" height="1.025" fill="#6a3c00" />
<rect x="12.300" y="21.525" width="1.025" height="1.025" fill="#804b03" />
<rect x="13.325" y="21.525" width="1.025" height="1.025" fill="#7f4a02" />
<rect x="14.350" y="21.525" width="1.025" height="1.025" fill="#804803" />
<rect x="15.375" y="21.525" width="1.025" height="1.025" fill="#f1b363" />
<rect x="16.400" y="21.525" width="1.025" height="1.025" fill="#dd9536" />
<rect x="17.425" y="21.525" width="1.025" height="1.025" fill="#dd9536" />
<rect x="18.450" y="21.525" width="1.025" height="1.025" fill="#dd9536" />
<rect x="19.475" y="21.525" width="1.025" height="1.025" fill="#dd9536" />
<rect x="20.500" y="21.525" width="1.025" height="1.025" fill="#df9433" />
<rect x="21.525" y="21.525" width="1.025" height="1.025" fill="#d68f31" />
<rect x="22.550" y="21.525" width="1.025" height="1.025" fill="#d28b2e" />
<rect x="23.575" y="21.525" width="1.025" height="1.025" fill="#cc862a" />
<rect x="24.600" y="21.525" width="1.025" height="1.025" fill="#cc862a" />
<rect x="25.625" y="21.525" width="1.025" height="1.025" fill="#dea255" />
<rect x="8.200" y="22.550" width="1.025" height="1.025" fill="#6e4000" />
<rect x="9.225" y="22.550" width="1.025" height="1.025" fill="#734200" />
<rect x="10.250" y="22.550" width="1.025" height="1.025" fill="#6e3e00" />
<rect x="11.275" y="22.550" width="1.025" height="1.025" fill="#643700" />
<rect x="12.300" y="22.550" width="1.025" height="1.025" fill="#804b03" />
<rect x="13.325" y="22.550" width="1.025" height="1.025" fill="#804b03" />
<rect x="14.350" y="22.550" width="1.025" height="1.025" fill="#804b03" />
<rect x="15.375" y="22.550" width="1.025" height="1.025" fill="#bf8b47" />
<rect x="16.400" y="22.550" width="1.025" height="1.025" fill="#dd9536" />
<rect x="17.425" y="22.550" width="1.025" height="1.025" fill="#dd9536" />
<rect x="18.450" y="22.550" width="1.025" height="1.025" fill="#d68f31" />
<rect x="19.475" y="22.550" width="1.025" height="1.025" fill="#d68f31" />
<rect x="20.500" y="22.550" width="1.025" height="1.025" fill="#d68f31" />
<rect x="21.525" y="22.550" width="1.025" height="1.025" fill="#d28b2e" />
<rect x="22.550" y="22.550" width="1.025" height="1.025" fill="#cc862a" />
<rect x="23.575" y="22.550" width="1.025" height="1.025" fill="#cc862a" />
<rect x="24.600" y="22.550" width="1.025" height="1.025" fill="#cc862a" />
<rect x="25.625" y="22.550" width="1.025" height="1.025" fill="#f1b35b" />
<rect x="8.200" y="23.575" width="1.025" height="1.025" fill="#6e4000" />
<rect x="9.225" y="23.575" width="1.025" height="1.025" fill="#7a4500" />
<rect x="10.250" y="23.575" width="1.025" height="1.025" fill="#6e3e00" />
<rect x="11.275" y="23.575" width="1.025" height="1.025" fill="#643700" />
<rect x="12.300" y="23.575" width="1.025" height="1.025" fill="#6b3c01" />
<rect x="13.325" y="23.575" width="1.025" height="1.025" fill="#784502" />
<rect x="14.350" y="23.575" width="1.025" height="1.025" fill="#804b03" />
<rect x="15.375" y="23.575" width="1.025" height="1.025" fill="#a3630b" />
<rect x="16.400" y="23.575" width="1.025" height="1.025" fill="#dd9536" />
<rect x="17.425" y="23.575" width="1.025" height="1.025" fill="#d68f31" />
<rect x="18.450" y="23.575" width="1.025" height="1.025" fill="#d68f31" />
<rect x="19.475" y="23.575" width="1.025" height="1.025" fill="#d68f31" />
<rect x="20.500" y="23.575" width="1.025" height="1.025" fill="#d28b2e" />
<rect x="21.525" y="23.575" width="1.025" height="1.025" fill="#d28b2e" />
<rect x="22.550" y="23.575" width="1.025" height="1.025" fill="#cc862a" />
<rect x="23.575" y="23.575" width="1.025" height="1.025" fill="#cc862a" />
<rect x="24.600" y="23.575" width="1.025" height="1.025" fill="#cc862a" />
<rect x="25.625" y="23.575" width="1.025" height="1.025" fill="#bf8c44" />
<rect x="8.200" y="24.600" width="1.025" height="1.025" fill="#7a4500" />
<rect x="9.225" y="24.600" width="1.025" height="1.025" fill="#7a4500" />
<rect x="10.250" y="24.600" width="1.025" height="1.025" fill="#6e3e00" />
<rect x="11.275" y="24.600" width="1.025" height="1.025" fill="#643700" />
<rect x="12.300" y="24.600" width="1.025" height="1.025" fill="#724101" />
<rect x="13.325" y="24.600" width="1.025" height="1.025" fill="#6b3c01" />
<rect x="14.350" y="24.600" width="1.025" height="1.025" fill="#6c3c00" />
<rect x="15.375" y="24.600" width="1.025" height="1.025" fill="#f1b35b" />
<rect x="16.400" y="24.600" width="1.025" height="1.025" fill="#dd9536" />
<rect x="17.425" y="24.600" width="1.025" height="1.025" fill="#dd9536" />
<rect x="18.450" y="24.600" width="1.025" height="1.025" fill="#d68f31" />
<rect x="19.475" y="24.600" width="1.025" height="1.025" fill="#d28b2e" />
<rect x="20.500" y="24.600" width="1.025" height="1.025" fill="#d28b2e" />
<rect x="21.525" y="24.600" width="1.025" height="1.025" fill="#cc862a" />
<rect x="22.550" y="24.600" width="1.025" height="1.025" fill="#cc862a" />
<rect x="23.575" y="24.600" width="1.025" height="1.025" fill="#cc862a" />
<rect x="24.600" y="24.600" width="1.025" height="1.025" fill="#cc862a" />
<rect x="25.625" y="24.600" width="1.025" height="1.025" fill="#dea255" />
<rect x="8.200" y="25.625" width="1.025" height="1.025" fill="#7a4500" />
<rect x="10.250" y="25.625" width="1.025" height="1.025" fill="#7a4500" />
<rect x="11.275" y="25.625" width="1.025" height="1.025" fill="#5d3200" />
<rect x="12.300" y="25.625" width="1.025" height="1.025" fill="#5d3200" />
<rect x="13.325" y="25.625" width="1.025" height="1.025" fill="#5d3200" />
<rect x="14.350" y="25.625" width="1.025" height="1.025" fill="#6c3c00" />
<rect x="15.375" y="25.625" width="1.025" height="1.025" fill="#bf8c44" />
<rect x="16.400" y="25.625" width="1.025" height="1.025" fill="#dea255" />
<rect x="17.425" y="25.625" width="1.025" height="1.025" fill="#dd9536" />
<rect x="18.450" y="25.625" width="1.025" height="1.025" fill="#e2a147" />
<rect x="19.475" y="25.625" width="1.025" height="1.025" fill="#dd9536" />
<rect x="20.500" y="25.625" width="1.025" height="1.025" fill="#e2a147" />
<rect x="21.525" y="25.625" width="1.025" height="1.025" fill="#cc862a" />
<rect x="22.550" y="25.625" width="1.025" height="1.025" fill="#f1b35b" />
<rect x="23.575" y="25.625" width="1.025" height="1.025" fill="#cc862a" />
<rect x="24.600" y="25.625" width="1.025" height="1.025" fill="#dea255" />
<rect x="25.625" y="25.625" width="1.025" height="1.025" fill="#f1b35b" />
<rect x="12.300" y="26.650" width="1.025" height="1.025" fill="#7a4500" />
<rect x="14.350" y="26.650" width="1.025" height="1.025" fill="#5d3200" />
<rect x="15.375" y="26.650" width="1.025" height="1.025" fill="#bf8c44" />
<rect x="17.425" y="26.650" width="1.025" height="1.025" fill="#f1b35b" />
<rect x="19.475" y="26.650" width="1.025" height="1.025" fill="#dea255" />
<rect x="21.525" y="26.650" width="1.025" height="1.025" fill="#f1b35b" />
<rect x="23.575" y="26.650" width="1.025" height="1.025" fill="#f1b35b" />
<rect x="25.625" y="26.650" width="1.025" height="1.025" fill="#f1b35b" />
</svg>