<svg xmlns="http://www.w3.org/2000/svg" width="37.925" height="37.925" shape-rendering="crispEdges" style="image-rendering: pixelated;">
<rect x="22.550" y="27.675" width="1.025" height="1.025" fill="#cba675" />
<rect x="24.600" y="27.675" width="1.025" height="1.025" fill="#966a39" />
<rect x="25.625" y="27.675" width="1.025" height="1.025" fill="#966a39" />
<rect x="26.650" y="27.675" width="1.025" height="1.025" fill="#cba675" />
<rect x="27.675" y="27.675" width="1.025" height="1.025" fill="#af8655" />
<rect x="28.700" y="27.675" width="1.025" height="1.025" fill="#a57b4a" />
<rect x="29.725" y="27.675" width="1.025" height="1.025" fill="#af8655" />
<rect x="30.750" y="27.675" width="1.025" height="1.025" fill="#a57b4a" />
<rect x="31.775" y="27.675" width="1.025" height="1.025" fill="#af8655" />
<rect x="23.575" y="28.700" width="1.025" height="1.025" fill="#966a39" />
<rect x="24.600" y="28.700" width="1.025" height="1.025" fill="#cba675" />
<rect x="25.625" y="28.700" width="1.025" height="1.025" fill="#a57b4a" />
<rect x="26.650" y="28.700" width="1.025" height="1.025" fill="#a57b4a" />
<rect x="27.675" y="28.700" width="1.025" height="1.025" fill="#af8655" />
<rect x="28.700" y="28.700" width="1.025" height="1.025" fill="#af8655" />
<rect x="29.725" y="28.700" width="1.025" height="1.025" fill="#af8655" />
<rect x="30.750" y="28.700" width="1.025" height="1.025" fill="#af8655" />
<rect x="31.775" y="28.700" width="1.025" height="1.025" fill="#af8655" />
<rect x="32.800" y="28.700" width="1.025" height="1.025" fill="#af8655" />
<rect x="22.550" y="29.725" width="1.025" height="1.025" fill="#966a39" />
<rect x="23.575" y="29.725" width="1.025" height="1.025" fill="#9f7443" />
<rect x="24.600" y="29.725" width="1.025" height="1.025" fill="#9f7443" />
<rect x="25.625" y="29.725" width="1.025" height="1.025" fill="#cba675" />
<rect x="26.650" y="29.725" width="1.025" height="1.025" fill="#af8655" />
<rect x="27.675" y="29.725" width="1.025" height="1.025" fill="#cba675" />
<rect x="28.700" y="29.725" width="1.025" height="1.025" fill="#af8655" />
<rect x="29.725" y="29.725" width="1.025" height="1.025" fill="#cba675" />
<rect x="30.750" y="29.725" width="1.025" height="1.025" fill="#af8655" />
<rect x="31.775" y="29.725" width="1.025" height="1.025" fill="#cba675" />
<rect x="32.800" y="29.725" width="1.025" height="1.025" fill="#af8655" />
<rect x="33.825" y="29.725" width="1.025" height="1.025" fill="#a57b4a" />
<rect x="22.550" y="30.750" width="1.025" height="1.025" fill="#cba675" />
<rect x="23.575" y="30.750" width="1.025" height="1.025" fill="#966a39" />
<rect x="24.600" y="30.750" width="1.025" height="1.025" fill="#9f7443" />
<rect x="25.625" y="30.750" width="1.025" height="1.025" fill="#9f7443" />
<rect x="26.650" y="30.750" width="1.025" height="1.025" fill="#9b703f" />
<rect x="27.675" y="30.750" width="1.025" height="1.025" fill="#a57b4a" />
<rect x="28.700" y="30.750" width="1.025" height="1.025" fill="#9f7443" />
<rect x="29.725" y="30.750" width="1.025" height="1.025" fill="#a57b4a" />
<rect x="30.750" y="30.750" width="1.025" height="1.025" fill="#9f7443" />
<rect x="31.775" y="30.750" width="1.025" height="1.025" fill="#a57b4a" />
<rect x="32.800" y="30.750" width="1.025" height="1.025" fill="#a57b4a" />
<rect x="33.825" y="30.750" width="1.025" height="1.025" fill="#cba675" />
<rect x="21.525" y="31.775" width="1.025" height="1.025" fill="#dd0505" fill-opacity="0.973" />
<rect x="22.550" y="31.775" width="1.025" height="1.025" fill="#683c11" />
<rect x="23.575" y="31.775" width="1.025" height="1.025" fill="#ad1311" />
<rect x="24.600" y="31.775" width="1.025" height="1.025" fill="#ba3820" />
<rect x="25.625" y="31.775" width="1.025" height="1.025" fill="#b23019" />
<rect x="26.650" y="31.775" width="1.025" height="1.025" fill="#dd0505" />
<rect x="27.675" y="31.775" width="1.025" height="1.025" fill="#683c11" />
<rect x="28.700" y="31.775" width="1.025" height="1.025" fill="#7f5122" />
<rect x="29.725" y="31.775" width="1.025" height="1.025" fill="#683c11" />
<rect x="30.750" y="31.775" width="1.025" height="1.025" fill="#7f5122" />
<rect x="31.775" y="31.775" width="1.025" height="1.025" fill="#683c11" />
<rect x="32.800" y="31.775" width="1.025" height="1.025" fill="#6b4825" />
<rect x="33.825" y="31.775" width="1.025" height="1.025" fill="#d60805" />
<rect x="34.850" y="31.775" width="1.025" height="1.025" fill="#dd0505" fill-opacity="0.996" />
<rect x="21.525" y="32.800" width="1.025" height="1.025" fill="#258423" fill-opacity="0.984" />
<rect x="22.550" y="32.800" width="1.025" height="1.025" fill="#22b226" />
<rect x="23.575" y="32.800" width="1.025" height="1.025" fill="#1b9e20" />
<rect x="24.600" y="32.800" width="1.025" height="1.025" fill="#dd0505" />
<rect x="25.625" y="32.800" width="1.025" height="1.025" fill="#dd0505" />
<rect x="26.650" y="32.800" width="1.025" height="1.025" fill="#12b71c" />
<rect x="27.675" y="32.800" width="1.025" height="1.025" fill="#2dae2d" fill-opacity="0.965" />
<rect x="28.700" y="32.800" width="1.025" height="1.025" fill="#1b9d20" fill-opacity="0.973" />
<rect x="29.725" y="32.800" width="1.025" height="1.025" fill="#2dad2d" />
<rect x="30.750" y="32.800" width="1.025" height="1.025" fill="#1b9e20" />
<rect x="31.775" y="32.800" width="1.025" height="1.025" fill="#30962d" />
<rect x="32.800" y="32.800" width="1.025" height="1.025" fill="#14b61d" />
<rect x="33.825" y="32.800" width="1.025" height="1.025" fill="#22b226" />
<rect x="34.850" y="32.800" width="1.025" height="1.025" fill="#259926" fill-opacity="0.965" />
<rect x="35.875" y="32.800" width="1.025" height="1.025" fill="#218d22" fill-opacity="0.965" />
<rect x="20.500" y="33.825" width="1.025" height="1.025" fill="#12b71c" fill-opacity="0.992" />
<rect x="21.525" y="33.825" width="1.025" height="1.025" fill="#f6d100" />
<rect x="22.550" y="33.825" width="1.025" height="1.025" fill="#f6d100" />
<rect x="23.575" y="33.825" width="1.025" height="1.025" fill="#f6d100" />
<rect x="24.600" y="33.825" width="1.025" height="1.025" fill="#f6d100" />
<rect x="25.625" y="33.825" width="1.025" height="1.025" fill="#f6d100" />
<rect x="26.650" y="33.825" width="1.025" height="1.025" fill="#f6d100" />
<rect x="27.675" y="33.825" width="1.025" height="1.025" fill="#278c26" fill-opacity="0.980" />
<rect x="28.700" y="33.825" width="1.025" height="1.025" fill="#f6d100" />
<rect x="29.725" y="33.825" width="1.025" height="1.025" fill="#2b8d25" />
<rect x="30.750" y="33.825" width="1.025" height="1.025" fill="#f6d100" />
<rect x="31.775" y="33.825" width="1.025" height="1.025" fill="#f1d001" />
<rect x="32.800" y="33.825" width="1.025" height="1.025" fill="#12b71c" />
<rect x="33.825" y="33.825" width="1.025" height="1.025" fill="#1b9e20" />
<rect x="34.850" y="33.825" width="1.025" height="1.025" fill="#f6d100" />
<rect x="22.550" y="34.850" width="1.025" height="1.025" fill="#5a391a" fill-opacity="0.933" />
<rect x="23.575" y="34.850" width="1.025" height="1.025" fill="#7f5122" />
<rect x="24.600" y="34.850" width="1.025" height="1.025" fill="#e9c402" fill-opacity="0.992" />
<rect x="25.625" y="34.850" width="1.025" height="1.025" fill="#f6d100" />
<rect x="26.650" y="34.850" width="1.025" height="1.025" fill="#f6d100" />
<rect x="27.675" y="34.850" width="1.025" height="1.025" fill="#7f5122" />
<rect x="28.700" y="34.850" width="1.025" height="1.025" fill="#6b4825" />
<rect x="29.725" y="34.850" width="1.025" height="1.025" fill="#7f5122" />
<rect x="30.750" y="34.850" width="1.025" height="1.025" fill="#6b4825" />
<rect x="31.775" y="34.850" width="1.025" height="1.025" fill="#dcb507" />
<rect x="32.800" y="34.850" width="1.025" height="1.025" fill="#6b4825" />
<rect x="33.825" y="34.850" width="1.025" height="1.025" fill="#5a391a" fill-opacity="0.933" />
<rect x="22.550" y="35.875" width="1.025" height="1.025" fill="#966a39" />
<rect x="23.575" y="35.875" width="1.025" height="1.025" fill="#af8655" />
<rect x="24.600" y="35.875" width="1.025" height="1.025" fill="#af8655" />
<rect x="25.625" y="35.875" width="1.025" height="1.025" fill="#f6d100" />
<rect x="26.650" y="35.875" width="1.025" height="1.025" fill="#9f7443" />
<rect x="27.675" y="35.875" width="1.025" height="1.025" fill="#a57b4a" />
<rect x="28.700" y="35.875" width="1.025" height="1.025" fill="#a57b4a" />
<rect x="29.725" y="35.875" width="1.025" height="1.025" fill="#a57b4a" />
<rect x="30.750" y="35.875" width="1.025" height="1.025" fill="#a57b4a" />
<rect x="31.775" y="35.875" width="1.025" height="1.025" fill="#a57b4a" />
<rect x="32.800" y="35.875" width="1.025" height="1.025" fill="#a57b4a" />
<rect x="33.825" y="35.875" width="1.025" height="1.025" fill="#966a39" />
<rect x="23.575" y="36.900" width="1.025" height="1.025" fill="#966a39" />
<rect x="24.600" y="36.900" width="1.025" height="1.025" fill="#966a39" />
<rect x="25.625" y="36.900" width="1.025" height="1.025" fill="#966a39" />
<rect x="26.650" y="36.900" width="1.025" height="1.025" fill="#966a39" />
<rect x="27.675" y="36.900" width="1.025" height="1.025" fill="#966a39" />
<rect x="28.700" y="36.900" width="1.025" height="1.025" fill="#966a39" />
<rect x="29.725" y="36.900" width="1.025" height="1.025" fill="#966a39" />
<rect x="30.750" y="36.900" width="1.025" height="1.025" fill="#966a39" />
<rect x="31.775" y="36.900" width="1.025" height="1.025" fill="#966a39" />
<rect x="32.800" y="36.900" width="1.025" height="1.025" fill="#966a39" />
</svg>