<svg xmlns="http://www.w3.org/2000/svg" width="37.925" height="37.925" shape-rendering="crispEdges" style="image-rendering: pixelated;">
<rect x="15.375" y="8.200" width="1.025" height="1.025" fill="#ffffff" />
<rect x="16.400" y="8.200" width="1.025" height="1.025" fill="#ffffff" />
<rect x="17.425" y="8.200" width="1.025" height="1.025" fill="#ffffff" />
<rect x="18.450" y="8.200" width="1.025" height="1.025" fill="#ffffff" />
<rect x="19.475" y="8.200" width="1.025" height="1.025" fill="#ffffff" />
<rect x="20.500" y="8.200" width="1.025" height="1.025" fill="#ffffff" />
<rect x="21.525" y="8.200" width="1.025" height="1.025" fill="#ffffff" />
<rect x="22.550" y="8.200" width="1.025" height="1.025" fill="#ffffff" />
<rect x="23.575" y="8.200" width="1.025" height="1.025" fill="#ffffff" />
<rect x="24.600" y="8.200" width="1.025" height="1.025" fill="#000000" />
<rect x="14.350" y="9.225" width="1.025" height="1.025" fill="#fdfdfb" />
<rect x="15.375" y="9.225" width="1.025" height="1.025" fill="#ffffff" />
<rect x="16.400" y="9.225" width="1.025" height="1.025" fill="#ffffff" />
<rect x="17.425" y="9.225" width="1.025" height="1.025" fill="#ffffff" />
<rect x="18.450" y="9.225" width="1.025" height="1.025" fill="#ffffff" />
<rect x="19.475" y="9.225" width="1.025" height="1.025" fill="#ffffff" />
<rect x="20.500" y="9.225" width="1.025" height="1.025" fill="#ffffff" />
<rect x="21.525" y="9.225" width="1.025" height="1.025" fill="#ffffff" />
<rect x="22.550" y="9.225" width="1.025" height="1.025" fill="#ffffff" />
<rect x="23.575" y="9.225" width="1.025" height="1.025" fill="#ffffff" />
<rect x="24.600" y="9.225" width="1.025" height="1.025" fill="#000000" />
<rect x="14.350" y="10.250" width="1.025" height="1.025" fill="#fbfbf6" />
<rect x="15.375" y="10.250" width="1.025" height="1.025" fill="#ffffff" />
<rect x="16.400" y="10.250" width="1.025" height="1.025" fill="#ffffff" />
<rect x="17.425" y="10.250" width="1.025" height="1.025" fill="#ffffff" />
<rect x="18.450" y="10.250" width="1.025" height="1.025" fill="#ffffff" />
<rect x="19.475" y="10.250" width="1.025" height="1.025" fill="#ffffff" />
<rect x="20.500" y="10.250" width="1.025" height="1.025" fill="#ffffff" />
<rect x="21.525" y="10.250" width="1.025" height="1.025" fill="#ffffff" />
<rect x="22.550" y="10.250" width="1.025" height="1.025" fill="#ffffff" />
<rect x="23.575" y="10.250" width="1.025" height="1.025" fill="#ffffff" />
<rect x="24.600" y="10.250" width="1.025" height="1.025" fill="#000000" />
<rect x="14.350" y="11.275" width="1.025" height="1.025" fill="#fafaf4" />
<rect x="15.375" y="11.275" width="1.025" height="1.025" fill="#ffffff" />
<rect x="16.400" y="11.275" width="1.025" height="1.025" fill="#ffffff" />
<rect x="17.425" y="11.275" width="1.025" height="1.025" fill="#ffffff" />
<rect x="18.450" y="11.275" width="1.025" height="1.025" fill="#ffffff" />
<rect x="19.475" y="11.275" width="1.025" height="1.025" fill="#ffffff" />
<rect x="20.500" y="11.275" width="1.025" height="1.025" fill="#ffffff" />
<rect x="21.525" y="11.275" width="1.025" height="1.025" fill="#ffffff" />
<rect x="22.550" y="11.275" width="1.025" height="1.025" fill="#ffffff" />
<rect x="23.575" y="11.275" width="1.025" height="1.025" fill="#ffffff" />
<rect x="24.600" y="11.275" width="1.025" height="1.025" fill="#000000" />
<rect x="14.350" y="12.300" width="1.025" height="1.025" fill="#fafaf3" />
<rect x="15.375" y="12.300" width="1.025" height="1.025" fill="#ffffff" />
<rect x="16.400" y="12.300" width="1.025" height="1.025" fill="#ffffff" />
<rect x="17.425" y="12.300" width="1.025" height="1.025" fill="#ffffff" />
<rect x="18.450" y="12.300" width="1.025" height="1.025" fill="#ffffff" />
<rect x="19.475" y="12.300" width="1.025" height="1.025" fill="#ffffff" />
<rect x="20.500" y="12.300" width="1.025" height="1.025" fill="#ffffff" />
<rect x="21.525" y="12.300" width="1.025" height="1.025" fill="#ffffff" />
<rect x="22.550" y="12.300" width="1.025" height="1.025" fill="#ffffff" />
<rect x="23.575" y="12.300" width="1.025" height="1.025" fill="#ffffff" />
<rect x="24.600" y="12.300" width="1.025" height="1.025" fill="#000000" />
<rect x="14.350" y="13.325" width="1.025" height="1.025" fill="#f9f9f1" />
<rect x="15.375" y="13.325" width="1.025" height="1.025" fill="#ffffff" />
<rect x="16.400" y="13.325" width="1.025" height="1.025" fill="#f6f6ea" />
<rect x="17.425" y="13.325" width="1.025" height="1.025" fill="#c99d83" />
<rect x="18.450" y="13.325" width="1.025" height="1.025" fill="#cea58d" />
<rect x="19.475" y="13.325" width="1.025" height="1.025" fill="#e0d3b8" />
<rect x="20.500" y="13.325" width="1.025" height="1.025" fill="#f2f2e2" />
<rect x="21.525" y="13.325" width="1.025" height="1.025" fill="#f8f8f0" />
<rect x="22.550" y="13.325" width="1.025" height="1.025" fill="#c99d83" />
<rect x="23.575" y="13.325" width="1.025" height="1.025" fill="#cea58d" />
<rect x="24.600" y="13.325" width="1.025" height="1.025" fill="#000000" />
<rect x="14.350" y="14.350" width="1.025" height="1.025" fill="#f8f8ef" />
<rect x="15.375" y="14.350" width="1.025" height="1.025" fill="#ffffff" />
<rect x="16.400" y="14.350" width="1.025" height="1.025" fill="#ffffff" />
<rect x="17.425" y="14.350" width="1.025" height="1.025" fill="#000000" />
<rect x="18.450" y="14.350" width="1.025" height="1.025" fill="#ffffff" />
<rect x="19.475" y="14.350" width="1.025" height="1.025" fill="#ffffff" />
<rect x="20.500" y="14.350" width="1.025" height="1.025" fill="#ffffff" />
<rect x="21.525" y="14.350" width="1.025" height="1.025" fill="#ffffff" />
<rect x="22.550" y="14.350" width="1.025" height="1.025" fill="#000000" />
<rect x="23.575" y="14.350" width="1.025" height="1.025" fill="#ffffff" />
<rect x="24.600" y="14.350" width="1.025" height="1.025" fill="#000000" />
<rect x="14.350" y="15.375" width="1.025" height="1.025" fill="#f2f2e2" />
<rect x="15.375" y="15.375" width="1.025" height="1.025" fill="#ffffff" />
<rect x="16.400" y="15.375" width="1.025" height="1.025" fill="#ffffff" />
<rect x="17.425" y="15.375" width="1.025" height="1.025" fill="#ffffff" />
<rect x="18.450" y="15.375" width="1.025" height="1.025" fill="#ffffff" />
<rect x="19.475" y="15.375" width="1.025" height="1.025" fill="#ffffff" />
<rect x="20.500" y="15.375" width="1.025" height="1.025" fill="#ffffff" />
<rect x="21.525" y="15.375" width="1.025" height="1.025" fill="#ffffff" />
<rect x="22.550" y="15.375" width="1.025" height="1.025" fill="#ffffff" />
<rect x="23.575" y="15.375" width="1.025" height="1.025" fill="#ffffff" />
<rect x="24.600" y="15.375" width="1.025" height="1.025" fill="#000000" />
<rect x="14.350" y="16.400" width="1.025" height="1.025" fill="#ebebd1" />
<rect x="15.375" y="16.400" width="1.025" height="1.025" fill="#f7f7ed" />
<rect x="16.400" y="16.400" width="1.025" height="1.025" fill="#ffffff" />
<rect x="17.425" y="16.400" width="1.025" height="1.025" fill="#ffffff" />
<rect x="18.450" y="16.400" width="1.025" height="1.025" fill="#ffffff" />
<rect x="19.475" y="16.400" width="1.025" height="1.025" fill="#ffffff" />
<rect x="20.500" y="16.400" width="1.025" height="1.025" fill="#000000" />
<rect x="21.525" y="16.400" width="1.025" height="1.025" fill="#ffffff" />
<rect x="22.550" y="16.400" width="1.025" height="1.025" fill="#ffffff" />
<rect x="23.575" y="16.400" width="1.025" height="1.025" fill="#fdfdfa" />
<rect x="24.600" y="16.400" width="1.025" height="1.025" fill="#000000" />
<rect x="14.350" y="17.425" width="1.025" height="1.025" fill="#e8e6c9" />
<rect x="15.375" y="17.425" width="1.025" height="1.025" fill="#e9e9cc" />
<rect x="16.400" y="17.425" width="1.025" height="1.025" fill="#fbfbf7" />
<rect x="17.425" y="17.425" width="1.025" height="1.025" fill="#ffffff" />
<rect x="18.450" y="17.425" width="1.025" height="1.025" fill="#ffffff" />
<rect x="19.475" y="17.425" width="1.025" height="1.025" fill="#ffffff" />
<rect x="20.500" y="17.425" width="1.025" height="1.025" fill="#ff0000" />
<rect x="21.525" y="17.425" width="1.025" height="1.025" fill="#ff0000" />
<rect x="22.550" y="17.425" width="1.025" height="1.025" fill="#efefdb" />
<rect x="23.575" y="17.425" width="1.025" height="1.025" fill="#fafaf3" />
<rect x="24.600" y="17.425" width="1.025" height="1.025" fill="#000000" />
<rect x="14.350" y="18.450" width="1.025" height="1.025" fill="#d9bea6" />
<rect x="15.375" y="18.450" width="1.025" height="1.025" fill="#ebebd1" />
<rect x="16.400" y="18.450" width="1.025" height="1.025" fill="#f2f2e2" />
<rect x="17.425" y="18.450" width="1.025" height="1.025" fill="#ffffff" />
<rect x="18.450" y="18.450" width="1.025" height="1.025" fill="#ffffff" />
<rect x="19.475" y="18.450" width="1.025" height="1.025" fill="#ffffff" />
<rect x="20.500" y="18.450" width="1.025" height="1.025" fill="#ffffff" />
<rect x="21.525" y="18.450" width="1.025" height="1.025" fill="#ffffff" />
<rect x="22.550" y="18.450" width="1.025" height="1.025" fill="#ffffff" />
<rect x="23.575" y="18.450" width="1.025" height="1.025" fill="#fefefe" />
<rect x="24.600" y="18.450" width="1.025" height="1.025" fill="#000000" />
<rect x="14.350" y="19.475" width="1.025" height="1.025" fill="#bb8773" />
<rect x="15.375" y="19.475" width="1.025" height="1.025" fill="#e9e9cd" />
<rect x="16.400" y="19.475" width="1.025" height="1.025" fill="#f1f1de" />
<rect x="17.425" y="19.475" width="1.025" height="1.025" fill="#ffffff" />
<rect x="18.450" y="19.475" width="1.025" height="1.025" fill="#d50000" />
<rect x="19.475" y="19.475" width="1.025" height="1.025" fill="#d50000" />
<rect x="20.500" y="19.475" width="1.025" height="1.025" fill="#ff0000" />
<rect x="21.525" y="19.475" width="1.025" height="1.025" fill="#d50000" />
<rect x="22.550" y="19.475" width="1.025" height="1.025" fill="#ff0000" />
<rect x="23.575" y="19.475" width="1.025" height="1.025" fill="#f8f8f0" />
<rect x="24.600" y="19.475" width="1.025" height="1.025" fill="#000000" />
<rect x="14.350" y="20.500" width="1.025" height="1.025" fill="#5f2112" />
<rect x="15.375" y="20.500" width="1.025" height="1.025" fill="#e0d3b7" />
<rect x="16.400" y="20.500" width="1.025" height="1.025" fill="#f2f2e1" />
<rect x="17.425" y="20.500" width="1.025" height="1.025" fill="#d50000" />
<rect x="18.450" y="20.500" width="1.025" height="1.025" fill="#d50000" />
<rect x="19.475" y="20.500" width="1.025" height="1.025" fill="#000000" />
<rect x="20.500" y="20.500" width="1.025" height="1.025" fill="#000000" />
<rect x="21.525" y="20.500" width="1.025" height="1.025" fill="#000000" />
<rect x="22.550" y="20.500" width="1.025" height="1.025" fill="#000000" />
<rect x="23.575" y="20.500" width="1.025" height="1.025" fill="#ff0000" />
<rect x="24.600" y="20.500" width="1.025" height="1.025" fill="#000000" />
<rect x="15.375" y="21.525" width="1.025" height="1.025" fill="#d4b29b" />
<rect x="16.400" y="21.525" width="1.025" height="1.025" fill="#e8e8ca" />
<rect x="17.425" y="21.525" width="1.025" height="1.025" fill="#f8f8ef" />
<rect x="18.450" y="21.525" width="1.025" height="1.025" fill="#ff0000" />
<rect x="19.475" y="21.525" width="1.025" height="1.025" fill="#ff0000" />
<rect x="20.500" y="21.525" width="1.025" height="1.025" fill="#ff0000" />
<rect x="21.525" y="21.525" width="1.025" height="1.025" fill="#ff0000" />
<rect x="22.550" y="21.525" width="1.025" height="1.025" fill="#ff0000" />
<rect x="23.575" y="21.525" width="1.025" height="1.025" fill="#f4f4e6" />
<rect x="24.600" y="21.525" width="1.025" height="1.025" fill="#000000" />
<rect x="15.375" y="22.550" width="1.025" height="1.025" fill="#9c6c58" />
<rect x="16.400" y="22.550" width="1.025" height="1.025" fill="#d6b89f" />
<rect x="17.425" y="22.550" width="1.025" height="1.025" fill="#ededd5" />
<rect x="18.450" y="22.550" width="1.025" height="1.025" fill="#ffffff" />
<rect x="19.475" y="22.550" width="1.025" height="1.025" fill="#ff0000" />
<rect x="20.500" y="22.550" width="1.025" height="1.025" fill="#ff0000" />
<rect x="21.525" y="22.550" width="1.025" height="1.025" fill="#ff0000" />
<rect x="22.550" y="22.550" width="1.025" height="1.025" fill="#ffffff" />
<rect x="23.575" y="22.550" width="1.025" height="1.025" fill="#e8e8c9" />
<rect x="24.600" y="22.550" width="1.025" height="1.025" fill="#000000" />
<rect x="15.375" y="23.575" width="1.025" height="1.025" fill="#000000" />
<rect x="16.400" y="23.575" width="1.025" height="1.025" fill="#ba8a74" />
<rect x="17.425" y="23.575" width="1.025" height="1.025" fill="#d6b99f" />
<rect x="18.450" y="23.575" width="1.025" height="1.025" fill="#e8e8c9" />
<rect x="19.475" y="23.575" width="1.025" height="1.025" fill="#f3f3e3" />
<rect x="20.500" y="23.575" width="1.025" height="1.025" fill="#ffffff" />
<rect x="21.525" y="23.575" width="1.025" height="1.025" fill="#ffffff" />
<rect x="22.550" y="23.575" width="1.025" height="1.025" fill="#f2f2e1" />
<rect x="23.575" y="23.575" width="1.025" height="1.025" fill="#000000" />
<rect x="16.400" y="24.600" width="1.025" height="1.025" fill="#000000" />
<rect x="17.425" y="24.600" width="1.025" height="1.025" fill="#000000" />
<rect x="18.450" y="24.600" width="1.025" height="1.025" fill="#000000" />
<rect x="19.475" y="24.600" width="1.025" height="1.025" fill="#000000" />
<rect x="20.500" y="24.600" width="1.025" height="1.025" fill="#000000" />
<rect x="21.525" y="24.600" width="1.025" height="1.025" fill="#000000" />
<rect x="22.550" y="24.600" width="1.025" height="1.025" fill="#000000" />
</svg>