<svg xmlns="http://www.w3.org/2000/svg" width="37.925" height="37.925" shape-rendering="crispEdges" style="image-rendering: pixelated;">
<rect x="12.300" y="27.675" width="1.025" height="1.025" fill="#e1e1e1" />
<rect x="19.475" y="27.675" width="1.025" height="1.025" fill="#d7d7d7" />
<rect x="20.500" y="27.675" width="1.025" height="1.025" fill="#d7d7d7" />
<rect x="11.275" y="28.700" width="1.025" height="1.025" fill="#dfdfdf" />
<rect x="12.300" y="28.700" width="1.025" height="1.025" fill="#f0f0f0" />
<rect x="13.325" y="28.700" width="1.025" height="1.025" fill="#f4f4f4" />
<rect x="14.350" y="28.700" width="1.025" height="1.025" fill="#ececec" />
<rect x="15.375" y="28.700" width="1.025" height="1.025" fill="#e1e1e1" />
<rect x="16.400" y="28.700" width="1.025" height="1.025" fill="#d7d7d7" />
<rect x="18.450" y="28.700" width="1.025" height="1.025" fill="#d3d3d3" />
<rect x="19.475" y="28.700" width="1.025" height="1.025" fill="#f5f5f5" />
<rect x="20.500" y="28.700" width="1.025" height="1.025" fill="#f5f5f5" />
<rect x="21.525" y="28.700" width="1.025" height="1.025" fill="#d7d7d7" />
<rect x="9.225" y="29.725" width="1.025" height="1.025" fill="#917a00" />
<rect x="10.250" y="29.725" width="1.025" height="1.025" fill="#796300" />
<rect x="11.275" y="29.725" width="1.025" height="1.025" fill="#f5f5f5" />
<rect x="12.300" y="29.725" width="1.025" height="1.025" fill="#f4f4f4" />
<rect x="13.325" y="29.725" width="1.025" height="1.025" fill="#f5f5f5" />
<rect x="14.350" y="29.725" width="1.025" height="1.025" fill="#d7d7d7" />
<rect x="15.375" y="29.725" width="1.025" height="1.025" fill="#d7d7d7" />
<rect x="16.400" y="29.725" width="1.025" height="1.025" fill="#f5da00" />
<rect x="17.425" y="29.725" width="1.025" height="1.025" fill="#ff0000" />
<rect x="18.450" y="29.725" width="1.025" height="1.025" fill="#f5f5f5" />
<rect x="19.475" y="29.725" width="1.025" height="1.025" fill="#e2e2e2" />
<rect x="20.500" y="29.725" width="1.025" height="1.025" fill="#f5f5f5" />
<rect x="21.525" y="29.725" width="1.025" height="1.025" fill="#e2e2e2" />
<rect x="22.550" y="29.725" width="1.025" height="1.025" fill="#d7d7d7" />
<rect x="23.575" y="29.725" width="1.025" height="1.025" fill="#856e00" />
<rect x="7.175" y="30.750" width="1.025" height="1.025" fill="#969696" />
<rect x="8.200" y="30.750" width="1.025" height="1.025" fill="#d7d7d7" />
<rect x="9.225" y="30.750" width="1.025" height="1.025" fill="#e1e1e1" />
<rect x="10.250" y="30.750" width="1.025" height="1.025" fill="#f8dd00" />
<rect x="11.275" y="30.750" width="1.025" height="1.025" fill="#f5f5f5" />
<rect x="12.300" y="30.750" width="1.025" height="1.025" fill="#d7d7d7" />
<rect x="13.325" y="30.750" width="1.025" height="1.025" fill="#d7d7d7" />
<rect x="14.350" y="30.750" width="1.025" height="1.025" fill="#fae000" />
<rect x="15.375" y="30.750" width="1.025" height="1.025" fill="#f5da00" />
<rect x="16.400" y="30.750" width="1.025" height="1.025" fill="#f5da00" />
<rect x="17.425" y="30.750" width="1.025" height="1.025" fill="#ff0000" />
<rect x="18.450" y="30.750" width="1.025" height="1.025" fill="#d7d7d7" />
<rect x="19.475" y="30.750" width="1.025" height="1.025" fill="#f5da00" />
<rect x="20.500" y="30.750" width="1.025" height="1.025" fill="#e2e2e2" />
<rect x="21.525" y="30.750" width="1.025" height="1.025" fill="#f5f5f5" />
<rect x="22.550" y="30.750" width="1.025" height="1.025" fill="#f5f5f5" />
<rect x="23.575" y="30.750" width="1.025" height="1.025" fill="#dec400" />
<rect x="24.600" y="30.750" width="1.025" height="1.025" fill="#969696" />
<rect x="25.625" y="30.750" width="1.025" height="1.025" fill="#353535" />
<rect x="6.150" y="31.775" width="1.025" height="1.025" fill="#969696" />
<rect x="7.175" y="31.775" width="1.025" height="1.025" fill="#e1e1e1" />
<rect x="8.200" y="31.775" width="1.025" height="1.025" fill="#f4f4f4" />
<rect x="9.225" y="31.775" width="1.025" height="1.025" fill="#f4f4f4" />
<rect x="10.250" y="31.775" width="1.025" height="1.025" fill="#f8dd00" />
<rect x="11.275" y="31.775" width="1.025" height="1.025" fill="#f8dd00" />
<rect x="12.300" y="31.775" width="1.025" height="1.025" fill="#f8dd00" />
<rect x="13.325" y="31.775" width="1.025" height="1.025" fill="#f5da00" />
<rect x="14.350" y="31.775" width="1.025" height="1.025" fill="#f5da00" />
<rect x="15.375" y="31.775" width="1.025" height="1.025" fill="#f8dd00" />
<rect x="16.400" y="31.775" width="1.025" height="1.025" fill="#f5da00" />
<rect x="17.425" y="31.775" width="1.025" height="1.025" fill="#c60000" />
<rect x="18.450" y="31.775" width="1.025" height="1.025" fill="#fae000" />
<rect x="19.475" y="31.775" width="1.025" height="1.025" fill="#fae000" />
<rect x="20.500" y="31.775" width="1.025" height="1.025" fill="#fae000" />
<rect x="21.525" y="31.775" width="1.025" height="1.025" fill="#f8dd00" />
<rect x="22.550" y="31.775" width="1.025" height="1.025" fill="#f3d800" />
<rect x="23.575" y="31.775" width="1.025" height="1.025" fill="#eed400" />
<rect x="24.600" y="31.775" width="1.025" height="1.025" fill="#e1e1e1" />
<rect x="25.625" y="31.775" width="1.025" height="1.025" fill="#d7d7d7" />
<rect x="26.650" y="31.775" width="1.025" height="1.025" fill="#363636" />
<rect x="5.125" y="32.800" width="1.025" height="1.025" fill="#b20000" />
<rect x="6.150" y="32.800" width="1.025" height="1.025" fill="#ff0000" />
<rect x="7.175" y="32.800" width="1.025" height="1.025" fill="#ff0000" />
<rect x="8.200" y="32.800" width="1.025" height="1.025" fill="#c60000" />
<rect x="9.225" y="32.800" width="1.025" height="1.025" fill="#c60000" />
<rect x="10.250" y="32.800" width="1.025" height="1.025" fill="#e0c700" />
<rect x="11.275" y="32.800" width="1.025" height="1.025" fill="#f1d700" />
<rect x="12.300" y="32.800" width="1.025" height="1.025" fill="#f8dd00" />
<rect x="13.325" y="32.800" width="1.025" height="1.025" fill="#fae000" />
<rect x="14.350" y="32.800" width="1.025" height="1.025" fill="#fae000" />
<rect x="15.375" y="32.800" width="1.025" height="1.025" fill="#fae000" />
<rect x="16.400" y="32.800" width="1.025" height="1.025" fill="#f5da00" />
<rect x="17.425" y="32.800" width="1.025" height="1.025" fill="#c60000" />
<rect x="18.450" y="32.800" width="1.025" height="1.025" fill="#f5da00" />
<rect x="19.475" y="32.800" width="1.025" height="1.025" fill="#fae000" />
<rect x="20.500" y="32.800" width="1.025" height="1.025" fill="#fae000" />
<rect x="21.525" y="32.800" width="1.025" height="1.025" fill="#fae000" />
<rect x="22.550" y="32.800" width="1.025" height="1.025" fill="#f5da00" />
<rect x="23.575" y="32.800" width="1.025" height="1.025" fill="#f3d800" />
<rect x="24.600" y="32.800" width="1.025" height="1.025" fill="#c60000" />
<rect x="25.625" y="32.800" width="1.025" height="1.025" fill="#ff0000" />
<rect x="26.650" y="32.800" width="1.025" height="1.025" fill="#ff0000" />
<rect x="27.675" y="32.800" width="1.025" height="1.025" fill="#ad0000" />
<rect x="5.125" y="33.825" width="1.025" height="1.025" fill="#969696" />
<rect x="6.150" y="33.825" width="1.025" height="1.025" fill="#d7d7d7" />
<rect x="7.175" y="33.825" width="1.025" height="1.025" fill="#f4f4f4" />
<rect x="8.200" y="33.825" width="1.025" height="1.025" fill="#f4f4f4" />
<rect x="9.225" y="33.825" width="1.025" height="1.025" fill="#f4f4f4" />
<rect x="10.250" y="33.825" width="1.025" height="1.025" fill="#796300" />
<rect x="11.275" y="33.825" width="1.025" height="1.025" fill="#e0c700" />
<rect x="12.300" y="33.825" width="1.025" height="1.025" fill="#f8dd00" />
<rect x="13.325" y="33.825" width="1.025" height="1.025" fill="#fce100" />
<rect x="14.350" y="33.825" width="1.025" height="1.025" fill="#fce100" />
<rect x="15.375" y="33.825" width="1.025" height="1.025" fill="#fae000" />
<rect x="16.400" y="33.825" width="1.025" height="1.025" fill="#fae000" />
<rect x="17.425" y="33.825" width="1.025" height="1.025" fill="#ad0000" />
<rect x="18.450" y="33.825" width="1.025" height="1.025" fill="#f5da00" />
<rect x="19.475" y="33.825" width="1.025" height="1.025" fill="#fae000" />
<rect x="20.500" y="33.825" width="1.025" height="1.025" fill="#fae000" />
<rect x="21.525" y="33.825" width="1.025" height="1.025" fill="#fae000" />
<rect x="22.550" y="33.825" width="1.025" height="1.025" fill="#fae000" />
<rect x="23.575" y="33.825" width="1.025" height="1.025" fill="#e3c900" />
<rect x="24.600" y="33.825" width="1.025" height="1.025" fill="#f5f5f5" />
<rect x="25.625" y="33.825" width="1.025" height="1.025" fill="#f5f5f5" />
<rect x="26.650" y="33.825" width="1.025" height="1.025" fill="#d7d7d7" />
<rect x="27.675" y="33.825" width="1.025" height="1.025" fill="#363636" />
<rect x="5.125" y="34.850" width="1.025" height="1.025" fill="#8a0000" />
<rect x="6.150" y="34.850" width="1.025" height="1.025" fill="#c60000" />
<rect x="7.175" y="34.850" width="1.025" height="1.025" fill="#c60000" />
<rect x="8.200" y="34.850" width="1.025" height="1.025" fill="#ad0000" />
<rect x="9.225" y="34.850" width="1.025" height="1.025" fill="#ad0000" />
<rect x="10.250" y="34.850" width="1.025" height="1.025" fill="#000000" />
<rect x="11.275" y="34.850" width="1.025" height="1.025" fill="#b49c00" />
<rect x="12.300" y="34.850" width="1.025" height="1.025" fill="#f3d800" />
<rect x="13.325" y="34.850" width="1.025" height="1.025" fill="#e9cf00" />
<rect x="14.350" y="34.850" width="1.025" height="1.025" fill="#f5da00" />
<rect x="15.375" y="34.850" width="1.025" height="1.025" fill="#fce100" />
<rect x="16.400" y="34.850" width="1.025" height="1.025" fill="#fae000" />
<rect x="17.425" y="34.850" width="1.025" height="1.025" fill="#ad0000" />
<rect x="18.450" y="34.850" width="1.025" height="1.025" fill="#ebd000" />
<rect x="19.475" y="34.850" width="1.025" height="1.025" fill="#fae000" />
<rect x="20.500" y="34.850" width="1.025" height="1.025" fill="#fae000" />
<rect x="21.525" y="34.850" width="1.025" height="1.025" fill="#fae000" />
<rect x="22.550" y="34.850" width="1.025" height="1.025" fill="#e9cf00" />
<rect x="23.575" y="34.850" width="1.025" height="1.025" fill="#c2a900" />
<rect x="24.600" y="34.850" width="1.025" height="1.025" fill="#4a4a4a" />
<rect x="25.625" y="34.850" width="1.025" height="1.025" fill="#ad0000" />
<rect x="26.650" y="34.850" width="1.025" height="1.025" fill="#c60000" />
<rect x="27.675" y="34.850" width="1.025" height="1.025" fill="#b20000" />
<rect x="5.125" y="35.875" width="1.025" height="1.025" fill="#969696" />
<rect x="6.150" y="35.875" width="1.025" height="1.025" fill="#d7d7d7" />
<rect x="7.175" y="35.875" width="1.025" height="1.025" fill="#f4f4f4" />
<rect x="8.200" y="35.875" width="1.025" height="1.025" fill="#f4f4f4" />
<rect x="9.225" y="35.875" width="1.025" height="1.025" fill="#f4f4f4" />
<rect x="10.250" y="35.875" width="1.025" height="1.025" fill="#000000" />
<rect x="11.275" y="35.875" width="1.025" height="1.025" fill="#796300" />
<rect x="12.300" y="35.875" width="1.025" height="1.025" fill="#cfb600" />
<rect x="13.325" y="35.875" width="1.025" height="1.025" fill="#c5ac00" />
<rect x="14.350" y="35.875" width="1.025" height="1.025" fill="#dbc100" />
<rect x="15.375" y="35.875" width="1.025" height="1.025" fill="#f5da00" />
<rect x="16.400" y="35.875" width="1.025" height="1.025" fill="#f1d700" />
<rect x="17.425" y="35.875" width="1.025" height="1.025" fill="#ad0000" />
<rect x="18.450" y="35.875" width="1.025" height="1.025" fill="#dec400" />
<rect x="19.475" y="35.875" width="1.025" height="1.025" fill="#f5da00" />
<rect x="20.500" y="35.875" width="1.025" height="1.025" fill="#f5da00" />
<rect x="21.525" y="35.875" width="1.025" height="1.025" fill="#f5da00" />
<rect x="22.550" y="35.875" width="1.025" height="1.025" fill="#cfb600" />
<rect x="23.575" y="35.875" width="1.025" height="1.025" fill="#a79000" />
<rect x="24.600" y="35.875" width="1.025" height="1.025" fill="#000000" />
<rect x="25.625" y="35.875" width="1.025" height="1.025" fill="#f5f5f5" />
<rect x="26.650" y="35.875" width="1.025" height="1.025" fill="#d7d7d7" />
<rect x="27.675" y="35.875" width="1.025" height="1.025" fill="#363636" />
<rect x="5.125" y="36.900" width="1.025" height="1.025" fill="#790000" />
<rect x="6.150" y="36.900" width="1.025" height="1.025" fill="#ad0000" />
<rect x="7.175" y="36.900" width="1.025" height="1.025" fill="#ad0000" />
<rect x="8.200" y="36.900" width="1.025" height="1.025" fill="#ad0000" />
<rect x="9.225" y="36.900" width="1.025" height="1.025" fill="#ad0000" />
<rect x="10.250" y="36.900" width="1.025" height="1.025" fill="#000000" />
<rect x="11.275" y="36.900" width="1.025" height="1.025" fill="#806900" />
<rect x="12.300" y="36.900" width="1.025" height="1.025" fill="#a79000" />
<rect x="13.325" y="36.900" width="1.025" height="1.025" fill="#c2a900" />
<rect x="14.350" y="36.900" width="1.025" height="1.025" fill="#c5ac00" />
<rect x="15.375" y="36.900" width="1.025" height="1.025" fill="#cfb600" />
<rect x="16.400" y="36.900" width="1.025" height="1.025" fill="#d2b900" />
<rect x="17.425" y="36.900" width="1.025" height="1.025" fill="#ad0000" />
<rect x="18.450" y="36.900" width="1.025" height="1.025" fill="#e0c700" />
<rect x="19.475" y="36.900" width="1.025" height="1.025" fill="#e0c700" />
<rect x="20.500" y="36.900" width="1.025" height="1.025" fill="#dec400" />
<rect x="21.525" y="36.900" width="1.025" height="1.025" fill="#dec400" />
<rect x="22.550" y="36.900" width="1.025" height="1.025" fill="#cfb600" />
<rect x="23.575" y="36.900" width="1.025" height="1.025" fill="#8b7400" />
<rect x="24.600" y="36.900" width="1.025" height="1.025" fill="#000000" />
<rect x="25.625" y="36.900" width="1.025" height="1.025" fill="#ad0000" />
<rect x="26.650" y="36.900" width="1.025" height="1.025" fill="#ad0000" />
<rect x="27.675" y="36.900" width="1.025" height="1.025" fill="#ad0000" />
</svg>