<svg xmlns="http://www.w3.org/2000/svg" width="37.925" height="37.925" shape-rendering="crispEdges" style="image-rendering: pixelated;">
<rect x="14.350" y="3.075" width="1.025" height="1.025" fill="#ad0000" />
<rect x="15.375" y="3.075" width="1.025" height="1.025" fill="#ad0000" />
<rect x="16.400" y="3.075" width="1.025" height="1.025" fill="#ad0000" />
<rect x="17.425" y="3.075" width="1.025" height="1.025" fill="#ad0000" />
<rect x="18.450" y="3.075" width="1.025" height="1.025" fill="#ad0000" />
<rect x="19.475" y="3.075" width="1.025" height="1.025" fill="#ad0000" />
<rect x="20.500" y="3.075" width="1.025" height="1.025" fill="#ad0000" />
<rect x="22.550" y="3.075" width="1.025" height="1.025" fill="#ad0000" />
<rect x="23.575" y="3.075" width="1.025" height="1.025" fill="#ad0000" />
<rect x="24.600" y="3.075" width="1.025" height="1.025" fill="#ad0000" />
<rect x="13.325" y="4.100" width="1.025" height="1.025" fill="#ad0000" />
<rect x="14.350" y="4.100" width="1.025" height="1.025" fill="#ff0000" />
<rect x="15.375" y="4.100" width="1.025" height="1.025" fill="#ff0000" />
<rect x="16.400" y="4.100" width="1.025" height="1.025" fill="#ff0000" />
<rect x="17.425" y="4.100" width="1.025" height="1.025" fill="#ff0000" />
<rect x="18.450" y="4.100" width="1.025" height="1.025" fill="#ff0000" />
<rect x="19.475" y="4.100" width="1.025" height="1.025" fill="#ff0000" />
<rect x="20.500" y="4.100" width="1.025" height="1.025" fill="#ff0000" />
<rect x="21.525" y="4.100" width="1.025" height="1.025" fill="#ad0000" />
<rect x="22.550" y="4.100" width="1.025" height="1.025" fill="#ff0000" />
<rect x="23.575" y="4.100" width="1.025" height="1.025" fill="#ff0000" />
<rect x="24.600" y="4.100" width="1.025" height="1.025" fill="#ff0000" />
<rect x="25.625" y="4.100" width="1.025" height="1.025" fill="#ad0000" />
<rect x="13.325" y="5.125" width="1.025" height="1.025" fill="#ad0000" />
<rect x="14.350" y="5.125" width="1.025" height="1.025" fill="#ff0000" />
<rect x="15.375" y="5.125" width="1.025" height="1.025" fill="#ff0000" />
<rect x="16.400" y="5.125" width="1.025" height="1.025" fill="#ff0000" />
<rect x="17.425" y="5.125" width="1.025" height="1.025" fill="#ff0000" />
<rect x="18.450" y="5.125" width="1.025" height="1.025" fill="#ff0000" />
<rect x="19.475" y="5.125" width="1.025" height="1.025" fill="#ff0000" />
<rect x="20.500" y="5.125" width="1.025" height="1.025" fill="#ff0000" />
<rect x="21.525" y="5.125" width="1.025" height="1.025" fill="#e20000" />
<rect x="22.550" y="5.125" width="1.025" height="1.025" fill="#ff0000" />
<rect x="23.575" y="5.125" width="1.025" height="1.025" fill="#ff0000" />
<rect x="24.600" y="5.125" width="1.025" height="1.025" fill="#ff0000" />
<rect x="25.625" y="5.125" width="1.025" height="1.025" fill="#ad0000" />
<rect x="11.275" y="6.150" width="1.025" height="1.025" fill="#ad0000" />
<rect x="12.300" y="6.150" width="1.025" height="1.025" fill="#ad0000" />
<rect x="13.325" y="6.150" width="1.025" height="1.025" fill="#ff0000" />
<rect x="14.350" y="6.150" width="1.025" height="1.025" fill="#ff0000" />
<rect x="15.375" y="6.150" width="1.025" height="1.025" fill="#ff0000" />
<rect x="16.400" y="6.150" width="1.025" height="1.025" fill="#ff0000" />
<rect x="17.425" y="6.150" width="1.025" height="1.025" fill="#ff0000" />
<rect x="18.450" y="6.150" width="1.025" height="1.025" fill="#ff0000" />
<rect x="19.475" y="6.150" width="1.025" height="1.025" fill="#ff0000" />
<rect x="20.500" y="6.150" width="1.025" height="1.025" fill="#ff0000" />
<rect x="21.525" y="6.150" width="1.025" height="1.025" fill="#ff0000" />
<rect x="22.550" y="6.150" width="1.025" height="1.025" fill="#ff0000" />
<rect x="23.575" y="6.150" width="1.025" height="1.025" fill="#ff0000" />
<rect x="24.600" y="6.150" width="1.025" height="1.025" fill="#e20000" />
<rect x="25.625" y="6.150" width="1.025" height="1.025" fill="#ad0000" />
<rect x="10.250" y="7.175" width="1.025" height="1.025" fill="#ad0000" />
<rect x="11.275" y="7.175" width="1.025" height="1.025" fill="#df0000" />
<rect x="12.300" y="7.175" width="1.025" height="1.025" fill="#ff0000" />
<rect x="13.325" y="7.175" width="1.025" height="1.025" fill="#ff0000" />
<rect x="14.350" y="7.175" width="1.025" height="1.025" fill="#ff0000" />
<rect x="15.375" y="7.175" width="1.025" height="1.025" fill="#ff0000" />
<rect x="16.400" y="7.175" width="1.025" height="1.025" fill="#ff0000" />
<rect x="17.425" y="7.175" width="1.025" height="1.025" fill="#ff0000" />
<rect x="18.450" y="7.175" width="1.025" height="1.025" fill="#ff0000" />
<rect x="19.475" y="7.175" width="1.025" height="1.025" fill="#ff0000" />
<rect x="20.500" y="7.175" width="1.025" height="1.025" fill="#ff0000" />
<rect x="21.525" y="7.175" width="1.025" height="1.025" fill="#e20000" />
<rect x="22.550" y="7.175" width="1.025" height="1.025" fill="#ff0000" />
<rect x="23.575" y="7.175" width="1.025" height="1.025" fill="#ff0000" />
<rect x="24.600" y="7.175" width="1.025" height="1.025" fill="#ff0000" />
<rect x="25.625" y="7.175" width="1.025" height="1.025" fill="#ff0000" />
<rect x="26.650" y="7.175" width="1.025" height="1.025" fill="#ad0000" />
<rect x="9.225" y="8.200" width="1.025" height="1.025" fill="#ad0000" />
<rect x="10.250" y="8.200" width="1.025" height="1.025" fill="#ff0000" />
<rect x="11.275" y="8.200" width="1.025" height="1.025" fill="#ff0000" />
<rect x="12.300" y="8.200" width="1.025" height="1.025" fill="#ff0000" />
<rect x="13.325" y="8.200" width="1.025" height="1.025" fill="#ff0000" />
<rect x="14.350" y="8.200" width="1.025" height="1.025" fill="#d20000" />
<rect x="15.375" y="8.200" width="1.025" height="1.025" fill="#fb0000" />
<rect x="16.400" y="8.200" width="1.025" height="1.025" fill="#ff0000" />
<rect x="17.425" y="8.200" width="1.025" height="1.025" fill="#ff0000" />
<rect x="18.450" y="8.200" width="1.025" height="1.025" fill="#fe0000" />
<rect x="19.475" y="8.200" width="1.025" height="1.025" fill="#e20000" />
<rect x="20.500" y="8.200" width="1.025" height="1.025" fill="#d20000" />
<rect x="23.575" y="8.200" width="1.025" height="1.025" fill="#ff0000" />
<rect x="24.600" y="8.200" width="1.025" height="1.025" fill="#ff0000" />
<rect x="25.625" y="8.200" width="1.025" height="1.025" fill="#ff0000" />
<rect x="26.650" y="8.200" width="1.025" height="1.025" fill="#bd0000" />
<rect x="27.675" y="8.200" width="1.025" height="1.025" fill="#ad0000" />
<rect x="9.225" y="9.225" width="1.025" height="1.025" fill="#ad0000" />
<rect x="10.250" y="9.225" width="1.025" height="1.025" fill="#ff0000" />
<rect x="11.275" y="9.225" width="1.025" height="1.025" fill="#ff0000" />
<rect x="12.300" y="9.225" width="1.025" height="1.025" fill="#f60000" />
<rect x="13.325" y="9.225" width="1.025" height="1.025" fill="#ff0000" />
<rect x="14.350" y="9.225" width="1.025" height="1.025" fill="#ff0000" />
<rect x="15.375" y="9.225" width="1.025" height="1.025" fill="#ff0000" />
<rect x="16.400" y="9.225" width="1.025" height="1.025" fill="#ad0000" />
<rect x="17.425" y="9.225" width="1.025" height="1.025" fill="#f20000" />
<rect x="18.450" y="9.225" width="1.025" height="1.025" fill="#ff0000" />
<rect x="19.475" y="9.225" width="1.025" height="1.025" fill="#ff0000" />
<rect x="23.575" y="9.225" width="1.025" height="1.025" fill="#ff0000" />
<rect x="24.600" y="9.225" width="1.025" height="1.025" fill="#f40000" />
<rect x="25.625" y="9.225" width="1.025" height="1.025" fill="#ff0000" />
<rect x="26.650" y="9.225" width="1.025" height="1.025" fill="#ad0000" />
<rect x="27.675" y="9.225" width="1.025" height="1.025" fill="#b80000" />
<rect x="9.225" y="10.250" width="1.025" height="1.025" fill="#ad0000" />
<rect x="10.250" y="10.250" width="1.025" height="1.025" fill="#ff0000" />
<rect x="11.275" y="10.250" width="1.025" height="1.025" fill="#ff0000" />
<rect x="12.300" y="10.250" width="1.025" height="1.025" fill="#ff0000" />
<rect x="13.325" y="10.250" width="1.025" height="1.025" fill="#dd0000" />
<rect x="14.350" y="10.250" width="1.025" height="1.025" fill="#ff0000" />
<rect x="15.375" y="10.250" width="1.025" height="1.025" fill="#ff0000" />
<rect x="23.575" y="10.250" width="1.025" height="1.025" fill="#ff0000" />
<rect x="24.600" y="10.250" width="1.025" height="1.025" fill="#df0000" />
<rect x="25.625" y="10.250" width="1.025" height="1.025" fill="#ff0000" />
<rect x="26.650" y="10.250" width="1.025" height="1.025" fill="#ff0000" />
<rect x="27.675" y="10.250" width="1.025" height="1.025" fill="#ad0000" />
<rect x="8.200" y="11.275" width="1.025" height="1.025" fill="#ad0000" />
<rect x="9.225" y="11.275" width="1.025" height="1.025" fill="#ff0000" />
<rect x="10.250" y="11.275" width="1.025" height="1.025" fill="#ff0000" />
<rect x="11.275" y="11.275" width="1.025" height="1.025" fill="#ff0000" />
<rect x="12.300" y="11.275" width="1.025" height="1.025" fill="#ff0000" />
<rect x="13.325" y="11.275" width="1.025" height="1.025" fill="#ff0000" />
<rect x="14.350" y="11.275" width="1.025" height="1.025" fill="#ad0000" />
<rect x="15.375" y="11.275" width="1.025" height="1.025" fill="#ad0000" />
<rect x="24.600" y="11.275" width="1.025" height="1.025" fill="#b20000" />
<rect x="25.625" y="11.275" width="1.025" height="1.025" fill="#e00000" />
<rect x="26.650" y="11.275" width="1.025" height="1.025" fill="#b80000" />
<rect x="27.675" y="11.275" width="1.025" height="1.025" fill="#d00000" />
<rect x="9.225" y="12.300" width="1.025" height="1.025" fill="#ad0000" />
<rect x="10.250" y="12.300" width="1.025" height="1.025" fill="#ff0000" />
<rect x="11.275" y="12.300" width="1.025" height="1.025" fill="#fb0000" />
<rect x="12.300" y="12.300" width="1.025" height="1.025" fill="#ad0000" />
<rect x="13.325" y="12.300" width="1.025" height="1.025" fill="#f40000" />
<rect x="14.350" y="12.300" width="1.025" height="1.025" fill="#ff0000" />
<rect x="15.375" y="12.300" width="1.025" height="1.025" fill="#ff0000" />
<rect x="24.600" y="12.300" width="1.025" height="1.025" fill="#e00000" />
<rect x="25.625" y="12.300" width="1.025" height="1.025" fill="#e00000" />
<rect x="26.650" y="12.300" width="1.025" height="1.025" fill="#ad0000" />
<rect x="9.225" y="13.325" width="1.025" height="1.025" fill="#ad0000" />
<rect x="10.250" y="13.325" width="1.025" height="1.025" fill="#ff0000" />
<rect x="11.275" y="13.325" width="1.025" height="1.025" fill="#ff0000" />
<rect x="12.300" y="13.325" width="1.025" height="1.025" fill="#ad0000" />
<rect x="13.325" y="13.325" width="1.025" height="1.025" fill="#f20000" />
<rect x="14.350" y="13.325" width="1.025" height="1.025" fill="#ff0000" />
<rect x="15.375" y="13.325" width="1.025" height="1.025" fill="#ff0000" />
<rect x="25.625" y="13.325" width="1.025" height="1.025" fill="#dd0000" />
<rect x="26.650" y="13.325" width="1.025" height="1.025" fill="#ad0000" />
<rect x="8.200" y="14.350" width="1.025" height="1.025" fill="#ad0000" />
<rect x="9.225" y="14.350" width="1.025" height="1.025" fill="#ff0000" />
<rect x="10.250" y="14.350" width="1.025" height="1.025" fill="#ad0000" />
<rect x="11.275" y="14.350" width="1.025" height="1.025" fill="#ba0000" />
<rect x="12.300" y="14.350" width="1.025" height="1.025" fill="#d60000" />
<rect x="13.325" y="14.350" width="1.025" height="1.025" fill="#ff0000" />
<rect x="14.350" y="14.350" width="1.025" height="1.025" fill="#ad0000" />
<rect x="25.625" y="14.350" width="1.025" height="1.025" fill="#ba0000" />
<rect x="26.650" y="14.350" width="1.025" height="1.025" fill="#ad0000" />
<rect x="8.200" y="15.375" width="1.025" height="1.025" fill="#ad0000" />
<rect x="9.225" y="15.375" width="1.025" height="1.025" fill="#ff0000" />
<rect x="10.250" y="15.375" width="1.025" height="1.025" fill="#ad0000" />
<rect x="11.275" y="15.375" width="1.025" height="1.025" fill="#ad0000" />
<rect x="12.300" y="15.375" width="1.025" height="1.025" fill="#cd0000" />
<rect x="13.325" y="15.375" width="1.025" height="1.025" fill="#ff0000" />
<rect x="25.625" y="15.375" width="1.025" height="1.025" fill="#ff0000" />
<rect x="26.650" y="15.375" width="1.025" height="1.025" fill="#ad0000" />
<rect x="9.225" y="16.400" width="1.025" height="1.025" fill="#ad0000" />
<rect x="10.250" y="16.400" width="1.025" height="1.025" fill="#f60000" />
<rect x="11.275" y="16.400" width="1.025" height="1.025" fill="#e90000" />
<rect x="12.300" y="16.400" width="1.025" height="1.025" fill="#c60000" />
<rect x="13.325" y="16.400" width="1.025" height="1.025" fill="#d60000" />
<rect x="14.350" y="16.400" width="1.025" height="1.025" fill="#ec793a" fill-opacity="0.192" />
<rect x="25.625" y="16.400" width="1.025" height="1.025" fill="#ad0000" />
<rect x="26.650" y="16.400" width="1.025" height="1.025" fill="#ad0000" />
<rect x="8.200" y="17.425" width="1.025" height="1.025" fill="#ad0000" />
<rect x="9.225" y="17.425" width="1.025" height="1.025" fill="#ff0000" />
<rect x="10.250" y="17.425" width="1.025" height="1.025" fill="#ff0000" />
<rect x="11.275" y="17.425" width="1.025" height="1.025" fill="#f30000" />
<rect x="12.300" y="17.425" width="1.025" height="1.025" fill="#c70000" />
<rect x="13.325" y="17.425" width="1.025" height="1.025" fill="#cd0000" />
<rect x="14.350" y="17.425" width="1.025" height="1.025" fill="#ec793a" fill-opacity="0.192" />
<rect x="25.625" y="17.425" width="1.025" height="1.025" fill="#ad0000" />
<rect x="26.650" y="17.425" width="1.025" height="1.025" fill="#ad0000" />
<rect x="8.200" y="18.450" width="1.025" height="1.025" fill="#ad0000" />
<rect x="9.225" y="18.450" width="1.025" height="1.025" fill="#fc0000" />
<rect x="10.250" y="18.450" width="1.025" height="1.025" fill="#f80000" />
<rect x="11.275" y="18.450" width="1.025" height="1.025" fill="#fb0000" />
<rect x="12.300" y="18.450" width="1.025" height="1.025" fill="#c60000" />
<rect x="13.325" y="18.450" width="1.025" height="1.025" fill="#d50000" />
<rect x="14.350" y="18.450" width="1.025" height="1.025" fill="#ad0000" />
<rect x="25.625" y="18.450" width="1.025" height="1.025" fill="#c40000" />
<rect x="26.650" y="18.450" width="1.025" height="1.025" fill="#ad0000" />
<rect x="8.200" y="19.475" width="1.025" height="1.025" fill="#ad0000" />
<rect x="9.225" y="19.475" width="1.025" height="1.025" fill="#ff0000" />
<rect x="10.250" y="19.475" width="1.025" height="1.025" fill="#ad0000" />
<rect x="11.275" y="19.475" width="1.025" height="1.025" fill="#ad0000" />
<rect x="12.300" y="19.475" width="1.025" height="1.025" fill="#eb0000" />
<rect x="13.325" y="19.475" width="1.025" height="1.025" fill="#ff0000" />
<rect x="14.350" y="19.475" width="1.025" height="1.025" fill="#ad0000" />
<rect x="25.625" y="19.475" width="1.025" height="1.025" fill="#ad0000" />
<rect x="26.650" y="19.475" width="1.025" height="1.025" fill="#ad0000" />
<rect x="9.225" y="20.500" width="1.025" height="1.025" fill="#ad0000" />
<rect x="10.250" y="20.500" width="1.025" height="1.025" fill="#ff0000" />
<rect x="11.275" y="20.500" width="1.025" height="1.025" fill="#f20000" />
<rect x="12.300" y="20.500" width="1.025" height="1.025" fill="#ad0000" />
<rect x="13.325" y="20.500" width="1.025" height="1.025" fill="#ff0000" />
<rect x="14.350" y="20.500" width="1.025" height="1.025" fill="#ad0000" />
<rect x="25.625" y="20.500" width="1.025" height="1.025" fill="#ad0000" />
<rect x="10.250" y="21.525" width="1.025" height="1.025" fill="#ad0000" />
<rect x="11.275" y="21.525" width="1.025" height="1.025" fill="#ad0000" />
<rect x="12.300" y="21.525" width="1.025" height="1.025" fill="#ff0000" />
<rect x="13.325" y="21.525" width="1.025" height="1.025" fill="#ff0000" />
<rect x="14.350" y="21.525" width="1.025" height="1.025" fill="#ad0000" />
<rect x="11.275" y="22.550" width="1.025" height="1.025" fill="#ad0000" />
<rect x="12.300" y="22.550" width="1.025" height="1.025" fill="#b00000" />
<rect x="13.325" y="22.550" width="1.025" height="1.025" fill="#c60000" />
<rect x="14.350" y="22.550" width="1.025" height="1.025" fill="#ad0000" />
</svg>