<svg xmlns="http://www.w3.org/2000/svg" width="37.925" height="37.925" shape-rendering="crispEdges" style="image-rendering: pixelated;">
<rect x="32.800" y="22.550" width="1.025" height="1.025" fill="#ffffff" />
<rect x="32.800" y="23.575" width="1.025" height="1.025" fill="#e30613" />
<rect x="32.800" y="24.600" width="1.025" height="1.025" fill="#fff24d" />
<rect x="32.800" y="25.625" width="1.025" height="1.025" fill="#ffffff" />
<rect x="32.800" y="26.650" width="1.025" height="1.025" fill="#eb515a" />
<rect x="32.800" y="27.675" width="1.025" height="1.025" fill="#fff683" />
<rect x="32.800" y="28.700" width="1.025" height="1.025" fill="#ffffff" />
<rect x="24.600" y="29.725" width="1.025" height="1.025" fill="#feed01" />
<rect x="30.750" y="29.725" width="1.025" height="1.025" fill="#ffffff" fill-opacity="0.659" />
<rect x="31.775" y="29.725" width="1.025" height="1.025" fill="#ffffff" fill-opacity="0.514" />
<rect x="32.800" y="29.725" width="1.025" height="1.025" fill="#ffffff" fill-opacity="0.761" />
<rect x="33.825" y="29.725" width="1.025" height="1.025" fill="#ffffff" fill-opacity="0.659" />
<rect x="34.850" y="29.725" width="1.025" height="1.025" fill="#ffffff" fill-opacity="0.514" />
<rect x="25.625" y="30.750" width="1.025" height="1.025" fill="#feb601" />
<rect x="27.675" y="30.750" width="1.025" height="1.025" fill="#fed201" />
<rect x="29.725" y="30.750" width="1.025" height="1.025" fill="#feb601" />
<rect x="30.750" y="30.750" width="1.025" height="1.025" fill="#fed201" />
<rect x="31.775" y="30.750" width="1.025" height="1.025" fill="#f6f6f6" />
<rect x="32.800" y="30.750" width="1.025" height="1.025" fill="#f6f6f6" />
<rect x="33.825" y="30.750" width="1.025" height="1.025" fill="#f6f6f6" />
<rect x="34.850" y="30.750" width="1.025" height="1.025" fill="#f6f6f6" />
<rect x="35.875" y="30.750" width="1.025" height="1.025" fill="#ffffff" fill-opacity="0.302" />
<rect x="25.625" y="31.775" width="1.025" height="1.025" fill="#feb601" />
<rect x="26.650" y="31.775" width="1.025" height="1.025" fill="#fed201" />
<rect x="27.675" y="31.775" width="1.025" height="1.025" fill="#feb601" />
<rect x="28.700" y="31.775" width="1.025" height="1.025" fill="#fed201" />
<rect x="29.725" y="31.775" width="1.025" height="1.025" fill="#fed201" />
<rect x="30.750" y="31.775" width="1.025" height="1.025" fill="#f0f0f0" />
<rect x="31.775" y="31.775" width="1.025" height="1.025" fill="#f0f0f0" />
<rect x="32.800" y="31.775" width="1.025" height="1.025" fill="#fafafa" />
<rect x="33.825" y="31.775" width="1.025" height="1.025" fill="#ffffff" />
<rect x="34.850" y="31.775" width="1.025" height="1.025" fill="#ffffff" />
<rect x="25.625" y="32.800" width="1.025" height="1.025" fill="#f10006" />
<rect x="26.650" y="32.800" width="1.025" height="1.025" fill="#feed01" />
<rect x="27.675" y="32.800" width="1.025" height="1.025" fill="#fee301" />
<rect x="28.700" y="32.800" width="1.025" height="1.025" fill="#feb601" />
<rect x="29.725" y="32.800" width="1.025" height="1.025" fill="#fa0005" />
<rect x="30.750" y="32.800" width="1.025" height="1.025" fill="#ededed" />
<rect x="31.775" y="32.800" width="1.025" height="1.025" fill="#f0f0f0" />
<rect x="32.800" y="32.800" width="1.025" height="1.025" fill="#ffed00" />
<rect x="33.825" y="32.800" width="1.025" height="1.025" fill="#ffffff" />
<rect x="34.850" y="32.800" width="1.025" height="1.025" fill="#ffff00" />
<rect x="25.625" y="33.825" width="1.025" height="1.025" fill="#e00006" />
<rect x="26.650" y="33.825" width="1.025" height="1.025" fill="#f80006" />
<rect x="27.675" y="33.825" width="1.025" height="1.025" fill="#fc0005" />
<rect x="28.700" y="33.825" width="1.025" height="1.025" fill="#fc0005" />
<rect x="29.725" y="33.825" width="1.025" height="1.025" fill="#fa0005" />
<rect x="30.750" y="33.825" width="1.025" height="1.025" fill="#ededed" />
<rect x="31.775" y="33.825" width="1.025" height="1.025" fill="#ffed00" />
<rect x="32.800" y="33.825" width="1.025" height="1.025" fill="#fafafa" />
<rect x="33.825" y="33.825" width="1.025" height="1.025" fill="#fff600" />
<rect x="34.850" y="33.825" width="1.025" height="1.025" fill="#ffffff" />
<rect x="25.625" y="34.850" width="1.025" height="1.025" fill="#b40008" />
<rect x="26.650" y="34.850" width="1.025" height="1.025" fill="#f30006" />
<rect x="27.675" y="34.850" width="1.025" height="1.025" fill="#fffc00" />
<rect x="28.700" y="34.850" width="1.025" height="1.025" fill="#f50006" />
<rect x="29.725" y="34.850" width="1.025" height="1.025" fill="#fc0005" />
<rect x="30.750" y="34.850" width="1.025" height="1.025" fill="#eaeaea" />
<rect x="31.775" y="34.850" width="1.025" height="1.025" fill="#ffed00" />
<rect x="32.800" y="34.850" width="1.025" height="1.025" fill="#fafafa" />
<rect x="33.825" y="34.850" width="1.025" height="1.025" fill="#ffff00" />
<rect x="34.850" y="34.850" width="1.025" height="1.025" fill="#ffffff" />
<rect x="25.625" y="35.875" width="1.025" height="1.025" fill="#79000c" />
<rect x="26.650" y="35.875" width="1.025" height="1.025" fill="#fffc00" />
<rect x="27.675" y="35.875" width="1.025" height="1.025" fill="#c50008" />
<rect x="28.700" y="35.875" width="1.025" height="1.025" fill="#fffc00" />
<rect x="29.725" y="35.875" width="1.025" height="1.025" fill="#f50006" />
<rect x="30.750" y="35.875" width="1.025" height="1.025" fill="#e6e6e6" />
<rect x="31.775" y="35.875" width="1.025" height="1.025" fill="#ffed00" />
<rect x="32.800" y="35.875" width="1.025" height="1.025" fill="#fafafa" />
<rect x="33.825" y="35.875" width="1.025" height="1.025" fill="#ffff00" />
<rect x="34.850" y="35.875" width="1.025" height="1.025" fill="#ffffff" />
<rect x="25.625" y="36.900" width="1.025" height="1.025" fill="#80000b" />
<rect x="26.650" y="36.900" width="1.025" height="1.025" fill="#a70009" />
<rect x="27.675" y="36.900" width="1.025" height="1.025" fill="#c20008" />
<rect x="28.700" y="36.900" width="1.025" height="1.025" fill="#c50008" />
<rect x="29.725" y="36.900" width="1.025" height="1.025" fill="#cf0007" />
<rect x="30.750" y="36.900" width="1.025" height="1.025" fill="#e6e6e6" />
<rect x="31.775" y="36.900" width="1.025" height="1.025" fill="#f0f0f0" />
<rect x="32.800" y="36.900" width="1.025" height="1.025" fill="#fafafa" />
<rect x="33.825" y="36.900" width="1.025" height="1.025" fill="#ffffff" />
<rect x="34.850" y="36.900" width="1.025" height="1.025" fill="#ffffff" />
</svg>