<svg xmlns="http://www.w3.org/2000/svg" width="37.925" height="37.925" shape-rendering="crispEdges" style="image-rendering: pixelated;">
<rect x="12.300" y="27.675" width="1.025" height="1.025" fill="#a4000a" />
<rect x="19.475" y="27.675" width="1.025" height="1.025" fill="#85000b" />
<rect x="20.500" y="27.675" width="1.025" height="1.025" fill="#85000b" />
<rect x="11.275" y="28.700" width="1.025" height="1.025" fill="#9f000a" />
<rect x="12.300" y="28.700" width="1.025" height="1.025" fill="#fce000" />
<rect x="13.325" y="28.700" width="1.025" height="1.025" fill="#f50006" />
<rect x="14.350" y="28.700" width="1.025" height="1.025" fill="#d20007" />
<rect x="15.375" y="28.700" width="1.025" height="1.025" fill="#a4000a" />
<rect x="16.400" y="28.700" width="1.025" height="1.025" fill="#85000b" />
<rect x="18.450" y="28.700" width="1.025" height="1.025" fill="#79000c" />
<rect x="19.475" y="28.700" width="1.025" height="1.025" fill="#fa0005" />
<rect x="20.500" y="28.700" width="1.025" height="1.025" fill="#feb601" />
<rect x="21.525" y="28.700" width="1.025" height="1.025" fill="#85000b" />
<rect x="9.225" y="29.725" width="1.025" height="1.025" fill="#91000b" />
<rect x="10.250" y="29.725" width="1.025" height="1.025" fill="#79000c" />
<rect x="11.275" y="29.725" width="1.025" height="1.025" fill="#d50007" />
<rect x="12.300" y="29.725" width="1.025" height="1.025" fill="#85000b" />
<rect x="13.325" y="29.725" width="1.025" height="1.025" fill="#fffc00" />
<rect x="14.350" y="29.725" width="1.025" height="1.025" fill="#85000b" />
<rect x="15.375" y="29.725" width="1.025" height="1.025" fill="#85000b" />
<rect x="16.400" y="29.725" width="1.025" height="1.025" fill="#f50006" />
<rect x="17.425" y="29.725" width="1.025" height="1.025" fill="#ac0009" />
<rect x="18.450" y="29.725" width="1.025" height="1.025" fill="#fa0005" />
<rect x="19.475" y="29.725" width="1.025" height="1.025" fill="#a70009" />
<rect x="20.500" y="29.725" width="1.025" height="1.025" fill="#fffc00" />
<rect x="21.525" y="29.725" width="1.025" height="1.025" fill="#a70009" />
<rect x="22.550" y="29.725" width="1.025" height="1.025" fill="#79000c" />
<rect x="23.575" y="29.725" width="1.025" height="1.025" fill="#85000b" />
<rect x="7.175" y="30.750" width="1.025" height="1.025" fill="#9b000a" />
<rect x="8.200" y="30.750" width="1.025" height="1.025" fill="#8b000b" />
<rect x="9.225" y="30.750" width="1.025" height="1.025" fill="#eb0006" />
<rect x="10.250" y="30.750" width="1.025" height="1.025" fill="#ee0006" />
<rect x="11.275" y="30.750" width="1.025" height="1.025" fill="#e60006" />
<rect x="12.300" y="30.750" width="1.025" height="1.025" fill="#e60006" />
<rect x="13.325" y="30.750" width="1.025" height="1.025" fill="#85000b" />
<rect x="14.350" y="30.750" width="1.025" height="1.025" fill="#fa0005" />
<rect x="15.375" y="30.750" width="1.025" height="1.025" fill="#f50006" />
<rect x="16.400" y="30.750" width="1.025" height="1.025" fill="#f50006" />
<rect x="17.425" y="30.750" width="1.025" height="1.025" fill="#ac0009" />
<rect x="18.450" y="30.750" width="1.025" height="1.025" fill="#85000b" />
<rect x="19.475" y="30.750" width="1.025" height="1.025" fill="#f50006" />
<rect x="20.500" y="30.750" width="1.025" height="1.025" fill="#a70009" />
<rect x="21.525" y="30.750" width="1.025" height="1.025" fill="#f30006" />
<rect x="22.550" y="30.750" width="1.025" height="1.025" fill="#e90006" />
<rect x="23.575" y="30.750" width="1.025" height="1.025" fill="#de0007" />
<rect x="24.600" y="30.750" width="1.025" height="1.025" fill="#80000b" />
<rect x="25.625" y="30.750" width="1.025" height="1.025" fill="#85000b" />
<rect x="6.150" y="31.775" width="1.025" height="1.025" fill="#9f000a" />
<rect x="7.175" y="31.775" width="1.025" height="1.025" fill="#bb0009" />
<rect x="8.200" y="31.775" width="1.025" height="1.025" fill="#f30006" />
<rect x="9.225" y="31.775" width="1.025" height="1.025" fill="#fc0005" />
<rect x="10.250" y="31.775" width="1.025" height="1.025" fill="#f50006" />
<rect x="11.275" y="31.775" width="1.025" height="1.025" fill="#f80006" />
<rect x="12.300" y="31.775" width="1.025" height="1.025" fill="#f80006" />
<rect x="13.325" y="31.775" width="1.025" height="1.025" fill="#f50006" />
<rect x="14.350" y="31.775" width="1.025" height="1.025" fill="#f50006" />
<rect x="15.375" y="31.775" width="1.025" height="1.025" fill="#f80006" />
<rect x="16.400" y="31.775" width="1.025" height="1.025" fill="#f50006" />
<rect x="17.425" y="31.775" width="1.025" height="1.025" fill="#ac0009" />
<rect x="18.450" y="31.775" width="1.025" height="1.025" fill="#fa0005" />
<rect x="19.475" y="31.775" width="1.025" height="1.025" fill="#fa0005" />
<rect x="20.500" y="31.775" width="1.025" height="1.025" fill="#fa0005" />
<rect x="21.525" y="31.775" width="1.025" height="1.025" fill="#f80006" />
<rect x="22.550" y="31.775" width="1.025" height="1.025" fill="#f30006" />
<rect x="23.575" y="31.775" width="1.025" height="1.025" fill="#ee0006" />
<rect x="24.600" y="31.775" width="1.025" height="1.025" fill="#fa0005" />
<rect x="25.625" y="31.775" width="1.025" height="1.025" fill="#eb0006" />
<rect x="26.650" y="31.775" width="1.025" height="1.025" fill="#80000b" />
<rect x="5.125" y="32.800" width="1.025" height="1.025" fill="#8b000b" />
<rect x="6.150" y="32.800" width="1.025" height="1.025" fill="#e60006" />
<rect x="7.175" y="32.800" width="1.025" height="1.025" fill="#de0007" />
<rect x="8.200" y="32.800" width="1.025" height="1.025" fill="#f30006" />
<rect x="9.225" y="32.800" width="1.025" height="1.025" fill="#fc0005" />
<rect x="10.250" y="32.800" width="1.025" height="1.025" fill="#f80006" />
<rect x="11.275" y="32.800" width="1.025" height="1.025" fill="#f10006" />
<rect x="12.300" y="32.800" width="1.025" height="1.025" fill="#f80006" />
<rect x="13.325" y="32.800" width="1.025" height="1.025" fill="#fa0005" />
<rect x="14.350" y="32.800" width="1.025" height="1.025" fill="#fa0005" />
<rect x="15.375" y="32.800" width="1.025" height="1.025" fill="#fa0005" />
<rect x="16.400" y="32.800" width="1.025" height="1.025" fill="#f50006" />
<rect x="17.425" y="32.800" width="1.025" height="1.025" fill="#ac0009" />
<rect x="18.450" y="32.800" width="1.025" height="1.025" fill="#f50006" />
<rect x="19.475" y="32.800" width="1.025" height="1.025" fill="#fa0005" />
<rect x="20.500" y="32.800" width="1.025" height="1.025" fill="#fa0005" />
<rect x="21.525" y="32.800" width="1.025" height="1.025" fill="#fa0005" />
<rect x="22.550" y="32.800" width="1.025" height="1.025" fill="#f50006" />
<rect x="23.575" y="32.800" width="1.025" height="1.025" fill="#f30006" />
<rect x="24.600" y="32.800" width="1.025" height="1.025" fill="#ee0006" />
<rect x="25.625" y="32.800" width="1.025" height="1.025" fill="#fc0005" />
<rect x="26.650" y="32.800" width="1.025" height="1.025" fill="#e90006" />
<rect x="27.675" y="32.800" width="1.025" height="1.025" fill="#85000b" />
<rect x="5.125" y="33.825" width="1.025" height="1.025" fill="#9b000a" />
<rect x="6.150" y="33.825" width="1.025" height="1.025" fill="#e60006" />
<rect x="7.175" y="33.825" width="1.025" height="1.025" fill="#d80007" />
<rect x="8.200" y="33.825" width="1.025" height="1.025" fill="#f50006" />
<rect x="9.225" y="33.825" width="1.025" height="1.025" fill="#e30006" />
<rect x="10.250" y="33.825" width="1.025" height="1.025" fill="#af0009" />
<rect x="11.275" y="33.825" width="1.025" height="1.025" fill="#e00006" />
<rect x="12.300" y="33.825" width="1.025" height="1.025" fill="#f80006" />
<rect x="13.325" y="33.825" width="1.025" height="1.025" fill="#fc0005" />
<rect x="14.350" y="33.825" width="1.025" height="1.025" fill="#fc0005" />
<rect x="15.375" y="33.825" width="1.025" height="1.025" fill="#fa0005" />
<rect x="16.400" y="33.825" width="1.025" height="1.025" fill="#fa0005" />
<rect x="17.425" y="33.825" width="1.025" height="1.025" fill="#f50006" />
<rect x="18.450" y="33.825" width="1.025" height="1.025" fill="#f50006" />
<rect x="19.475" y="33.825" width="1.025" height="1.025" fill="#f80006" />
<rect x="20.500" y="33.825" width="1.025" height="1.025" fill="#f0e001" />
<rect x="21.525" y="33.825" width="1.025" height="1.025" fill="#ffff00" />
<rect x="22.550" y="33.825" width="1.025" height="1.025" fill="#d2a403" />
<rect x="23.575" y="33.825" width="1.025" height="1.025" fill="#e30006" />
<rect x="24.600" y="33.825" width="1.025" height="1.025" fill="#a70009" />
<rect x="25.625" y="33.825" width="1.025" height="1.025" fill="#fc0005" />
<rect x="26.650" y="33.825" width="1.025" height="1.025" fill="#e90006" />
<rect x="27.675" y="33.825" width="1.025" height="1.025" fill="#79000c" />
<rect x="5.125" y="34.850" width="1.025" height="1.025" fill="#e6bd02" />
<rect x="6.150" y="34.850" width="1.025" height="1.025" fill="#feed00" />
<rect x="7.175" y="34.850" width="1.025" height="1.025" fill="#fef500" />
<rect x="8.200" y="34.850" width="1.025" height="1.025" fill="#ffed00" />
<rect x="9.225" y="34.850" width="1.025" height="1.025" fill="#fcdd00" />
<rect x="10.250" y="34.850" width="1.025" height="1.025" fill="#73000c" />
<rect x="11.275" y="34.850" width="1.025" height="1.025" fill="#b40008" />
<rect x="12.300" y="34.850" width="1.025" height="1.025" fill="#f30006" />
<rect x="13.325" y="34.850" width="1.025" height="1.025" fill="#e90006" />
<rect x="14.350" y="34.850" width="1.025" height="1.025" fill="#f50006" />
<rect x="15.375" y="34.850" width="1.025" height="1.025" fill="#fc0005" />
<rect x="16.400" y="34.850" width="1.025" height="1.025" fill="#fa0005" />
<rect x="17.425" y="34.850" width="1.025" height="1.025" fill="#f10006" />
<rect x="18.450" y="34.850" width="1.025" height="1.025" fill="#eb0006" />
<rect x="19.475" y="34.850" width="1.025" height="1.025" fill="#f50006" />
<rect x="20.500" y="34.850" width="1.025" height="1.025" fill="#ffff00" />
<rect x="21.525" y="34.850" width="1.025" height="1.025" fill="#fa0005" />
<rect x="22.550" y="34.850" width="1.025" height="1.025" fill="#ffff00" />
<rect x="23.575" y="34.850" width="1.025" height="1.025" fill="#c20008" />
<rect x="24.600" y="34.850" width="1.025" height="1.025" fill="#000000" />
<rect x="25.625" y="34.850" width="1.025" height="1.025" fill="#fddd00" />
<rect x="26.650" y="34.850" width="1.025" height="1.025" fill="#feed00" />
<rect x="27.675" y="34.850" width="1.025" height="1.025" fill="#b77606" />
<rect x="5.125" y="35.875" width="1.025" height="1.025" fill="#a4000a" />
<rect x="6.150" y="35.875" width="1.025" height="1.025" fill="#c20008" />
<rect x="7.175" y="35.875" width="1.025" height="1.025" fill="#bb0009" />
<rect x="8.200" y="35.875" width="1.025" height="1.025" fill="#c80008" />
<rect x="9.225" y="35.875" width="1.025" height="1.025" fill="#c20008" />
<rect x="10.250" y="35.875" width="1.025" height="1.025" fill="#000000" />
<rect x="11.275" y="35.875" width="1.025" height="1.025" fill="#79000c" />
<rect x="12.300" y="35.875" width="1.025" height="1.025" fill="#cf0007" />
<rect x="13.325" y="35.875" width="1.025" height="1.025" fill="#c50008" />
<rect x="14.350" y="35.875" width="1.025" height="1.025" fill="#db0007" />
<rect x="15.375" y="35.875" width="1.025" height="1.025" fill="#f50006" />
<rect x="16.400" y="35.875" width="1.025" height="1.025" fill="#f10006" />
<rect x="17.425" y="35.875" width="1.025" height="1.025" fill="#e90006" />
<rect x="18.450" y="35.875" width="1.025" height="1.025" fill="#de0007" />
<rect x="19.475" y="35.875" width="1.025" height="1.025" fill="#e00006" />
<rect x="20.500" y="35.875" width="1.025" height="1.025" fill="#f50006" />
<rect x="21.525" y="35.875" width="1.025" height="1.025" fill="#f50006" />
<rect x="22.550" y="35.875" width="1.025" height="1.025" fill="#cf0007" />
<rect x="23.575" y="35.875" width="1.025" height="1.025" fill="#a70009" />
<rect x="24.600" y="35.875" width="1.025" height="1.025" fill="#1d0010" />
<rect x="25.625" y="35.875" width="1.025" height="1.025" fill="#d20007" />
<rect x="26.650" y="35.875" width="1.025" height="1.025" fill="#db0007" />
<rect x="27.675" y="35.875" width="1.025" height="1.025" fill="#8b000b" />
<rect x="10.250" y="36.900" width="1.025" height="1.025" fill="#000000" />
<rect x="11.275" y="36.900" width="1.025" height="1.025" fill="#80000b" />
<rect x="12.300" y="36.900" width="1.025" height="1.025" fill="#a70009" />
<rect x="13.325" y="36.900" width="1.025" height="1.025" fill="#c20008" />
<rect x="14.350" y="36.900" width="1.025" height="1.025" fill="#c50008" />
<rect x="15.375" y="36.900" width="1.025" height="1.025" fill="#cf0007" />
<rect x="16.400" y="36.900" width="1.025" height="1.025" fill="#d20007" />
<rect x="17.425" y="36.900" width="1.025" height="1.025" fill="#e00006" />
<rect x="18.450" y="36.900" width="1.025" height="1.025" fill="#e00006" />
<rect x="19.475" y="36.900" width="1.025" height="1.025" fill="#e00006" />
<rect x="20.500" y="36.900" width="1.025" height="1.025" fill="#de0007" />
<rect x="21.525" y="36.900" width="1.025" height="1.025" fill="#de0007" />
<rect x="22.550" y="36.900" width="1.025" height="1.025" fill="#cf0007" />
<rect x="23.575" y="36.900" width="1.025" height="1.025" fill="#8b000b" />
<rect x="24.600" y="36.900" width="1.025" height="1.025" fill="#000000" />
</svg>