<svg xmlns="http://www.w3.org/2000/svg" width="37.925" height="37.925" shape-rendering="crispEdges" style="image-rendering: pixelated;">
<rect x="23.575" y="31.775" width="1.025" height="1.025" fill="#e9b406" />
<rect x="24.600" y="31.775" width="1.025" height="1.025" fill="#aa720e" />
<rect x="29.725" y="31.775" width="1.025" height="1.025" fill="#9d5b13" />
<rect x="30.750" y="31.775" width="1.025" height="1.025" fill="#c6810f" />
<rect x="22.550" y="32.800" width="1.025" height="1.025" fill="#e2a40a" />
<rect x="23.575" y="32.800" width="1.025" height="1.025" fill="#cf7913" />
<rect x="24.600" y="32.800" width="1.025" height="1.025" fill="#ba6d13" />
<rect x="26.650" y="32.800" width="1.025" height="1.025" fill="#9d5b13" />
<rect x="27.675" y="32.800" width="1.025" height="1.025" fill="#cf7913" />
<rect x="29.725" y="32.800" width="1.025" height="1.025" fill="#ba6d13" />
<rect x="30.750" y="32.800" width="1.025" height="1.025" fill="#e2a40a" />
<rect x="31.775" y="32.800" width="1.025" height="1.025" fill="#cf7913" />
<rect x="33.825" y="32.800" width="1.025" height="1.025" fill="#9d5b13" />
<rect x="23.575" y="33.825" width="1.025" height="1.025" fill="#dd990c" />
<rect x="24.600" y="33.825" width="1.025" height="1.025" fill="#d78b0f" />
<rect x="25.625" y="33.825" width="1.025" height="1.025" fill="#9d5b13" />
<rect x="26.650" y="33.825" width="1.025" height="1.025" fill="#ba6d13" />
<rect x="27.675" y="33.825" width="1.025" height="1.025" fill="#dd990c" />
<rect x="28.700" y="33.825" width="1.025" height="1.025" fill="#ba6d13" />
<rect x="29.725" y="33.825" width="1.025" height="1.025" fill="#dd990c" />
<rect x="30.750" y="33.825" width="1.025" height="1.025" fill="#cf7913" />
<rect x="32.800" y="33.825" width="1.025" height="1.025" fill="#d89e0a" />
<rect x="33.825" y="33.825" width="1.025" height="1.025" fill="#cf7913" />
<rect x="34.850" y="33.825" width="1.025" height="1.025" fill="#cf7913" />
<rect x="12.300" y="34.850" width="1.025" height="1.025" fill="#adadad" />
<rect x="13.325" y="34.850" width="1.025" height="1.025" fill="#999999" />
<rect x="15.375" y="34.850" width="1.025" height="1.025" fill="#f6d100" />
<rect x="16.400" y="34.850" width="1.025" height="1.025" fill="#f6d100" />
<rect x="17.425" y="34.850" width="1.025" height="1.025" fill="#f6d100" />
<rect x="21.525" y="34.850" width="1.025" height="1.025" fill="#e30613" />
<rect x="22.550" y="34.850" width="1.025" height="1.025" fill="#e30613" />
<rect x="23.575" y="34.850" width="1.025" height="1.025" fill="#9c1006" />
<rect x="24.600" y="34.850" width="1.025" height="1.025" fill="#ffffff" />
<rect x="25.625" y="34.850" width="1.025" height="1.025" fill="#ffffff" />
<rect x="26.650" y="34.850" width="1.025" height="1.025" fill="#ffffff" />
<rect x="27.675" y="34.850" width="1.025" height="1.025" fill="#ffffff" />
<rect x="28.700" y="34.850" width="1.025" height="1.025" fill="#ffffff" />
<rect x="29.725" y="34.850" width="1.025" height="1.025" fill="#ffed00" />
<rect x="30.750" y="34.850" width="1.025" height="1.025" fill="#ffffff" />
<rect x="31.775" y="34.850" width="1.025" height="1.025" fill="#e4c045" />
<rect x="32.800" y="34.850" width="1.025" height="1.025" fill="#dddddd" />
<rect x="33.825" y="34.850" width="1.025" height="1.025" fill="#ebebeb" />
<rect x="11.275" y="35.875" width="1.025" height="1.025" fill="#dddddd" />
<rect x="14.350" y="35.875" width="1.025" height="1.025" fill="#cec7be" />
<rect x="15.375" y="35.875" width="1.025" height="1.025" fill="#dfdad4" />
<rect x="16.400" y="35.875" width="1.025" height="1.025" fill="#e8e5e1" />
<rect x="17.425" y="35.875" width="1.025" height="1.025" fill="#f3f1ef" />
<rect x="18.450" y="35.875" width="1.025" height="1.025" fill="#f3f1ef" />
<rect x="20.500" y="35.875" width="1.025" height="1.025" fill="#cec7be" />
<rect x="21.525" y="35.875" width="1.025" height="1.025" fill="#dfdad4" />
<rect x="22.550" y="35.875" width="1.025" height="1.025" fill="#e8e5e1" />
<rect x="23.575" y="35.875" width="1.025" height="1.025" fill="#f3f1ef" />
<rect x="24.600" y="35.875" width="1.025" height="1.025" fill="#f3f1ef" />
<rect x="25.625" y="35.875" width="1.025" height="1.025" fill="#ffffff" />
<rect x="26.650" y="35.875" width="1.025" height="1.025" fill="#ffffff" />
<rect x="27.675" y="35.875" width="1.025" height="1.025" fill="#ffffff" />
<rect x="28.700" y="35.875" width="1.025" height="1.025" fill="#ffed00" />
<rect x="29.725" y="35.875" width="1.025" height="1.025" fill="#ffffff" />
<rect x="30.750" y="35.875" width="1.025" height="1.025" fill="#ffed00" />
<rect x="31.775" y="35.875" width="1.025" height="1.025" fill="#e5e5e5" />
<rect x="32.800" y="35.875" width="1.025" height="1.025" fill="#fbcc00" />
<rect x="33.825" y="35.875" width="1.025" height="1.025" fill="#f6f6f6" />
<rect x="15.375" y="36.900" width="1.025" height="1.025" fill="#f3f1ef" />
<rect x="16.400" y="36.900" width="1.025" height="1.025" fill="#f3f1ef" />
<rect x="17.425" y="36.900" width="1.025" height="1.025" fill="#ffffff" />
<rect x="21.525" y="36.900" width="1.025" height="1.025" fill="#f3f1ef" />
<rect x="22.550" y="36.900" width="1.025" height="1.025" fill="#f3f1ef" />
<rect x="23.575" y="36.900" width="1.025" height="1.025" fill="#ffffff" />
<rect x="24.600" y="36.900" width="1.025" height="1.025" fill="#ff0000" />
<rect x="25.625" y="36.900" width="1.025" height="1.025" fill="#ff0000" />
<rect x="26.650" y="36.900" width="1.025" height="1.025" fill="#ff0000" />
<rect x="27.675" y="36.900" width="1.025" height="1.025" fill="#ff0000" />
<rect x="28.700" y="36.900" width="1.025" height="1.025" fill="#ffed00" />
<rect x="29.725" y="36.900" width="1.025" height="1.025" fill="#ff0000" />
<rect x="30.750" y="36.900" width="1.025" height="1.025" fill="#ffed00" />
<rect x="31.775" y="36.900" width="1.025" height="1.025" fill="#c44545" />
<rect x="32.800" y="36.900" width="1.025" height="1.025" fill="#f7b000" />
<rect x="33.825" y="36.900" width="1.025" height="1.025" fill="#c70000" />
</svg>