<svg xmlns="http://www.w3.org/2000/svg" width="37.925" height="37.925" shape-rendering="crispEdges" style="image-rendering: pixelated;">
<rect x="12.300" y="12.300" width="1.025" height="1.025" fill="#ff00d8" />
<rect x="13.325" y="12.300" width="1.025" height="1.025" fill="#ff00d8" />
<rect x="14.350" y="12.300" width="1.025" height="1.025" fill="#ff00d8" />
<rect x="15.375" y="12.300" width="1.025" height="1.025" fill="#eaff00" />
<rect x="16.400" y="12.300" width="1.025" height="1.025" fill="#eaff00" />
<rect x="17.425" y="12.300" width="1.025" height="1.025" fill="#1eff00" />
<rect x="18.450" y="12.300" width="1.025" height="1.025" fill="#19ff00" />
<rect x="19.475" y="12.300" width="1.025" height="1.025" fill="#011500" />
<rect x="20.500" y="12.300" width="1.025" height="1.025" fill="#011300" />
<rect x="21.525" y="12.300" width="1.025" height="1.025" fill="#004a00" />
<rect x="22.550" y="12.300" width="1.025" height="1.025" fill="#1aff00" />
<rect x="23.575" y="12.300" width="1.025" height="1.025" fill="#1fff00" />
<rect x="24.600" y="12.300" width="1.025" height="1.025" fill="#eaff00" />
<rect x="25.625" y="12.300" width="1.025" height="1.025" fill="#ff00d8" />
<rect x="12.300" y="13.325" width="1.025" height="1.025" fill="#ff00d8" />
<rect x="13.325" y="13.325" width="1.025" height="1.025" fill="#ff00d8" />
<rect x="14.350" y="13.325" width="1.025" height="1.025" fill="#ff00d8" />
<rect x="15.375" y="13.325" width="1.025" height="1.025" fill="#ff00d8" />
<rect x="16.400" y="13.325" width="1.025" height="1.025" fill="#ff00d8" />
<rect x="17.425" y="13.325" width="1.025" height="1.025" fill="#ff00d8" />
<rect x="18.450" y="13.325" width="1.025" height="1.025" fill="#ff00d8" />
<rect x="19.475" y="13.325" width="1.025" height="1.025" fill="#ff00d8" />
<rect x="20.500" y="13.325" width="1.025" height="1.025" fill="#a3ff00" />
<rect x="21.525" y="13.325" width="1.025" height="1.025" fill="#ff00d8" />
<rect x="22.550" y="13.325" width="1.025" height="1.025" fill="#ff00d8" />
<rect x="23.575" y="13.325" width="1.025" height="1.025" fill="#ff00d8" />
<rect x="24.600" y="13.325" width="1.025" height="1.025" fill="#ff00d8" />
<rect x="25.625" y="13.325" width="1.025" height="1.025" fill="#ff00d8" />
<rect x="15.375" y="14.350" width="1.025" height="1.025" fill="#ff00d8" />
<rect x="16.400" y="14.350" width="1.025" height="1.025" fill="#ff00d8" />
<rect x="17.425" y="14.350" width="1.025" height="1.025" fill="#ff00d8" />
<rect x="18.450" y="14.350" width="1.025" height="1.025" fill="#ff00d8" />
<rect x="19.475" y="14.350" width="1.025" height="1.025" fill="#ff00d8" />
<rect x="20.500" y="14.350" width="1.025" height="1.025" fill="#a7ff00" />
<rect x="21.525" y="14.350" width="1.025" height="1.025" fill="#a8ff00" />
<rect x="22.550" y="14.350" width="1.025" height="1.025" fill="#ff00d8" />
<rect x="23.575" y="14.350" width="1.025" height="1.025" fill="#ff00d8" />
<rect x="24.600" y="14.350" width="1.025" height="1.025" fill="#ff00d8" />
<rect x="25.625" y="14.350" width="1.025" height="1.025" fill="#ff00d8" />
</svg>