<svg xmlns="http://www.w3.org/2000/svg" width="37.925" height="37.925" shape-rendering="crispEdges" style="image-rendering: pixelated;">
<rect x="15.375" y="4.100" width="1.025" height="1.025" fill="#24d8f9" />
<rect x="16.400" y="4.100" width="1.025" height="1.025" fill="#807eec" />
<rect x="17.425" y="4.100" width="1.025" height="1.025" fill="#7e7fec" />
<rect x="18.450" y="4.100" width="1.025" height="1.025" fill="#7d80ec" />
<rect x="19.475" y="4.100" width="1.025" height="1.025" fill="#ff00d8" />
<rect x="20.500" y="4.100" width="1.025" height="1.025" fill="#ff00d8" />
<rect x="21.525" y="4.100" width="1.025" height="1.025" fill="#ff00d8" />
<rect x="22.550" y="4.100" width="1.025" height="1.025" fill="#ff00d8" />
<rect x="23.575" y="4.100" width="1.025" height="1.025" fill="#ff00d8" />
<rect x="14.350" y="5.125" width="1.025" height="1.025" fill="#33c9f7" />
<rect x="15.375" y="5.125" width="1.025" height="1.025" fill="#6796ef" />
<rect x="16.400" y="5.125" width="1.025" height="1.025" fill="#708dee" />
<rect x="17.425" y="5.125" width="1.025" height="1.025" fill="#827ceb" />
<rect x="18.450" y="5.125" width="1.025" height="1.025" fill="#ff00d8" />
<rect x="19.475" y="5.125" width="1.025" height="1.025" fill="#ff00d8" />
<rect x="20.500" y="5.125" width="1.025" height="1.025" fill="#ff00d8" />
<rect x="21.525" y="5.125" width="1.025" height="1.025" fill="#ff00d8" />
<rect x="22.550" y="5.125" width="1.025" height="1.025" fill="#000000" />
<rect x="23.575" y="5.125" width="1.025" height="1.025" fill="#ff00d8" />
<rect x="24.600" y="5.125" width="1.025" height="1.025" fill="#ff00d8" />
<rect x="13.325" y="6.150" width="1.025" height="1.025" fill="#00fcff" />
<rect x="14.350" y="6.150" width="1.025" height="1.025" fill="#7c82ec" />
<rect x="15.375" y="6.150" width="1.025" height="1.025" fill="#708dee" />
<rect x="16.400" y="6.150" width="1.025" height="1.025" fill="#718cee" />
<rect x="17.425" y="6.150" width="1.025" height="1.025" fill="#7589ed" />
<rect x="18.450" y="6.150" width="1.025" height="1.025" fill="#ff00d8" />
<rect x="19.475" y="6.150" width="1.025" height="1.025" fill="#ff00d8" />
<rect x="20.500" y="6.150" width="1.025" height="1.025" fill="#ff00d8" />
<rect x="21.525" y="6.150" width="1.025" height="1.025" fill="#000000" />
<rect x="22.550" y="6.150" width="1.025" height="1.025" fill="#ff00d8" />
<rect x="23.575" y="6.150" width="1.025" height="1.025" fill="#000000" />
<rect x="24.600" y="6.150" width="1.025" height="1.025" fill="#ff00d8" />
<rect x="13.325" y="7.175" width="1.025" height="1.025" fill="#00fcff" />
<rect x="14.350" y="7.175" width="1.025" height="1.025" fill="#7885ed" />
<rect x="15.375" y="7.175" width="1.025" height="1.025" fill="#8f6fe9" />
<rect x="16.400" y="7.175" width="1.025" height="1.025" fill="#7786ed" />
<rect x="17.425" y="7.175" width="1.025" height="1.025" fill="#6796ef" />
<rect x="18.450" y="7.175" width="1.025" height="1.025" fill="#ff00d8" />
<rect x="19.475" y="7.175" width="1.025" height="1.025" fill="#ff00d8" />
<rect x="20.500" y="7.175" width="1.025" height="1.025" fill="#ff00d8" />
<rect x="21.525" y="7.175" width="1.025" height="1.025" fill="#000000" />
<rect x="22.550" y="7.175" width="1.025" height="1.025" fill="#000000" />
<rect x="23.575" y="7.175" width="1.025" height="1.025" fill="#000000" />
<rect x="24.600" y="7.175" width="1.025" height="1.025" fill="#ff00d8" />
<rect x="25.625" y="7.175" width="1.025" height="1.025" fill="#ff00d8" />
<rect x="12.300" y="8.200" width="1.025" height="1.025" fill="#00fcff" />
<rect x="13.325" y="8.200" width="1.025" height="1.025" fill="#00fcff" />
<rect x="14.350" y="8.200" width="1.025" height="1.025" fill="#718cee" />
<rect x="15.375" y="8.200" width="1.025" height="1.025" fill="#718cee" />
<rect x="16.400" y="8.200" width="1.025" height="1.025" fill="#6698ef" />
<rect x="17.425" y="8.200" width="1.025" height="1.025" fill="#8e70e9" />
<rect x="18.450" y="8.200" width="1.025" height="1.025" fill="#ff00d8" />
<rect x="19.475" y="8.200" width="1.025" height="1.025" fill="#ff00d8" />
<rect x="20.500" y="8.200" width="1.025" height="1.025" fill="#ff00d8" />
<rect x="21.525" y="8.200" width="1.025" height="1.025" fill="#000100" />
<rect x="22.550" y="8.200" width="1.025" height="1.025" fill="#ff00d8" />
<rect x="23.575" y="8.200" width="1.025" height="1.025" fill="#000000" />
<rect x="24.600" y="8.200" width="1.025" height="1.025" fill="#ff00d8" />
<rect x="25.625" y="8.200" width="1.025" height="1.025" fill="#ff00d8" />
<rect x="12.300" y="9.225" width="1.025" height="1.025" fill="#04f8fe" />
<rect x="13.325" y="9.225" width="1.025" height="1.025" fill="#00fcff" />
<rect x="14.350" y="9.225" width="1.025" height="1.025" fill="#7589ed" />
<rect x="15.375" y="9.225" width="1.025" height="1.025" fill="#7589ed" />
<rect x="16.400" y="9.225" width="1.025" height="1.025" fill="#827ceb" />
<rect x="17.425" y="9.225" width="1.025" height="1.025" fill="#6895ef" />
<rect x="18.450" y="9.225" width="1.025" height="1.025" fill="#6698ef" />
<rect x="19.475" y="9.225" width="1.025" height="1.025" fill="#ff00d8" />
<rect x="20.500" y="9.225" width="1.025" height="1.025" fill="#ff00d8" />
<rect x="21.525" y="9.225" width="1.025" height="1.025" fill="#ff00d8" />
<rect x="22.550" y="9.225" width="1.025" height="1.025" fill="#ff00d8" />
<rect x="23.575" y="9.225" width="1.025" height="1.025" fill="#ff00d8" />
<rect x="24.600" y="9.225" width="1.025" height="1.025" fill="#ff00d8" />
<rect x="25.625" y="9.225" width="1.025" height="1.025" fill="#ff00d8" />
<rect x="26.650" y="9.225" width="1.025" height="1.025" fill="#ff00d8" />
<rect x="27.675" y="9.225" width="1.025" height="1.025" fill="#ff00d8" />
<rect x="28.700" y="9.225" width="1.025" height="1.025" fill="#ff00d8" />
<rect x="12.300" y="10.250" width="1.025" height="1.025" fill="#00fcff" />
<rect x="13.325" y="10.250" width="1.025" height="1.025" fill="#00fcff" />
<rect x="14.350" y="10.250" width="1.025" height="1.025" fill="#00fcff" />
<rect x="15.375" y="10.250" width="1.025" height="1.025" fill="#0cf0fd" />
<rect x="16.400" y="10.250" width="1.025" height="1.025" fill="#906ee9" />
<rect x="17.425" y="10.250" width="1.025" height="1.025" fill="#926be9" />
<rect x="18.450" y="10.250" width="1.025" height="1.025" fill="#7687ed" />
<rect x="19.475" y="10.250" width="1.025" height="1.025" fill="#eaff00" />
<rect x="20.500" y="10.250" width="1.025" height="1.025" fill="#eaff00" />
<rect x="21.525" y="10.250" width="1.025" height="1.025" fill="#eaff00" />
<rect x="22.550" y="10.250" width="1.025" height="1.025" fill="#eaff00" />
<rect x="23.575" y="10.250" width="1.025" height="1.025" fill="#eaff00" />
<rect x="24.600" y="10.250" width="1.025" height="1.025" fill="#eaff00" />
<rect x="25.625" y="10.250" width="1.025" height="1.025" fill="#eaff00" />
<rect x="26.650" y="10.250" width="1.025" height="1.025" fill="#eaff00" />
<rect x="27.675" y="10.250" width="1.025" height="1.025" fill="#eaff00" />
<rect x="28.700" y="10.250" width="1.025" height="1.025" fill="#eaff00" />
<rect x="29.725" y="10.250" width="1.025" height="1.025" fill="#eaff00" />
</svg>