<svg xmlns="http://www.w3.org/2000/svg" width="37.925" height="37.925" shape-rendering="crispEdges" style="image-rendering: pixelated;">
<rect x="16.400" y="3.075" width="1.025" height="1.025" fill="#d3ff00" />
<rect x="17.425" y="3.075" width="1.025" height="1.025" fill="#28ff00" />
<rect x="18.450" y="3.075" width="1.025" height="1.025" fill="#53ff00" />
<rect x="19.475" y="3.075" width="1.025" height="1.025" fill="#d2ff00" />
<rect x="20.500" y="3.075" width="1.025" height="1.025" fill="#d6ff00" />
<rect x="13.325" y="4.100" width="1.025" height="1.025" fill="#eaff00" />
<rect x="14.350" y="4.100" width="1.025" height="1.025" fill="#eaff00" />
<rect x="15.375" y="4.100" width="1.025" height="1.025" fill="#d7ff00" />
<rect x="16.400" y="4.100" width="1.025" height="1.025" fill="#23ff00" />
<rect x="17.425" y="4.100" width="1.025" height="1.025" fill="#24ff00" />
<rect x="18.450" y="4.100" width="1.025" height="1.025" fill="#21ff00" />
<rect x="19.475" y="4.100" width="1.025" height="1.025" fill="#4fff00" />
<rect x="20.500" y="4.100" width="1.025" height="1.025" fill="#d5ff00" />
<rect x="21.525" y="4.100" width="1.025" height="1.025" fill="#d3ff00" />
<rect x="22.550" y="4.100" width="1.025" height="1.025" fill="#eaff00" />
<rect x="23.575" y="4.100" width="1.025" height="1.025" fill="#eaff00" />
<rect x="12.300" y="5.125" width="1.025" height="1.025" fill="#eaff00" />
<rect x="13.325" y="5.125" width="1.025" height="1.025" fill="#daff00" />
<rect x="14.350" y="5.125" width="1.025" height="1.025" fill="#beff00" />
<rect x="15.375" y="5.125" width="1.025" height="1.025" fill="#5cff00" />
<rect x="16.400" y="5.125" width="1.025" height="1.025" fill="#24ff00" />
<rect x="17.425" y="5.125" width="1.025" height="1.025" fill="#23ff00" />
<rect x="18.450" y="5.125" width="1.025" height="1.025" fill="#29ff00" />
<rect x="19.475" y="5.125" width="1.025" height="1.025" fill="#25ff00" />
<rect x="20.500" y="5.125" width="1.025" height="1.025" fill="#45ff00" />
<rect x="21.525" y="5.125" width="1.025" height="1.025" fill="#d6ff00" />
<rect x="22.550" y="5.125" width="1.025" height="1.025" fill="#d3ff00" />
<rect x="23.575" y="5.125" width="1.025" height="1.025" fill="#ddff00" />
<rect x="24.600" y="5.125" width="1.025" height="1.025" fill="#eaff00" />
<rect x="12.300" y="6.150" width="1.025" height="1.025" fill="#eaff00" />
<rect x="13.325" y="6.150" width="1.025" height="1.025" fill="#dbff00" />
<rect x="14.350" y="6.150" width="1.025" height="1.025" fill="#b9ff00" />
<rect x="15.375" y="6.150" width="1.025" height="1.025" fill="#92ff00" />
<rect x="16.400" y="6.150" width="1.025" height="1.025" fill="#44ff00" />
<rect x="17.425" y="6.150" width="1.025" height="1.025" fill="#23ff00" />
<rect x="18.450" y="6.150" width="1.025" height="1.025" fill="#26ff00" />
<rect x="19.475" y="6.150" width="1.025" height="1.025" fill="#22ff00" />
<rect x="20.500" y="6.150" width="1.025" height="1.025" fill="#47ff00" />
<rect x="21.525" y="6.150" width="1.025" height="1.025" fill="#d2ff00" />
<rect x="22.550" y="6.150" width="1.025" height="1.025" fill="#d2ff00" />
<rect x="23.575" y="6.150" width="1.025" height="1.025" fill="#cfff00" />
<rect x="24.600" y="6.150" width="1.025" height="1.025" fill="#eaff00" />
<rect x="11.275" y="7.175" width="1.025" height="1.025" fill="#ff00d8" />
<rect x="12.300" y="7.175" width="1.025" height="1.025" fill="#eaff00" />
<rect x="13.325" y="7.175" width="1.025" height="1.025" fill="#d8ff00" />
<rect x="14.350" y="7.175" width="1.025" height="1.025" fill="#d6ff00" />
<rect x="15.375" y="7.175" width="1.025" height="1.025" fill="#cdff00" />
<rect x="16.400" y="7.175" width="1.025" height="1.025" fill="#59ff00" />
<rect x="17.425" y="7.175" width="1.025" height="1.025" fill="#27ff00" />
<rect x="18.450" y="7.175" width="1.025" height="1.025" fill="#21ff00" />
<rect x="19.475" y="7.175" width="1.025" height="1.025" fill="#23ff00" />
<rect x="20.500" y="7.175" width="1.025" height="1.025" fill="#50ff00" />
<rect x="21.525" y="7.175" width="1.025" height="1.025" fill="#d7ff00" />
<rect x="22.550" y="7.175" width="1.025" height="1.025" fill="#d5ff00" />
<rect x="23.575" y="7.175" width="1.025" height="1.025" fill="#d2ff00" />
<rect x="24.600" y="7.175" width="1.025" height="1.025" fill="#d8ff00" />
<rect x="25.625" y="7.175" width="1.025" height="1.025" fill="#eaff00" />
<rect x="11.275" y="8.200" width="1.025" height="1.025" fill="#ff00d8" />
<rect x="12.300" y="8.200" width="1.025" height="1.025" fill="#eaff00" />
<rect x="13.325" y="8.200" width="1.025" height="1.025" fill="#eaff00" />
<rect x="14.350" y="8.200" width="1.025" height="1.025" fill="#eaff00" />
<rect x="15.375" y="8.200" width="1.025" height="1.025" fill="#d8ff00" />
<rect x="16.400" y="8.200" width="1.025" height="1.025" fill="#59ff00" />
<rect x="17.425" y="8.200" width="1.025" height="1.025" fill="#21ff00" />
<rect x="18.450" y="8.200" width="1.025" height="1.025" fill="#21ff00" />
<rect x="19.475" y="8.200" width="1.025" height="1.025" fill="#21ff00" />
<rect x="20.500" y="8.200" width="1.025" height="1.025" fill="#26ff00" />
<rect x="21.525" y="8.200" width="1.025" height="1.025" fill="#54ff00" />
<rect x="22.550" y="8.200" width="1.025" height="1.025" fill="#a2ff00" />
<rect x="23.575" y="8.200" width="1.025" height="1.025" fill="#d3ff00" />
<rect x="24.600" y="8.200" width="1.025" height="1.025" fill="#d8ff00" />
<rect x="25.625" y="8.200" width="1.025" height="1.025" fill="#eaff00" />
<rect x="11.275" y="9.225" width="1.025" height="1.025" fill="#ff00d8" />
<rect x="12.300" y="9.225" width="1.025" height="1.025" fill="#eaff00" />
<rect x="13.325" y="9.225" width="1.025" height="1.025" fill="#eaff00" />
<rect x="14.350" y="9.225" width="1.025" height="1.025" fill="#eaff00" />
<rect x="15.375" y="9.225" width="1.025" height="1.025" fill="#eaff00" />
<rect x="16.400" y="9.225" width="1.025" height="1.025" fill="#4dff00" />
<rect x="17.425" y="9.225" width="1.025" height="1.025" fill="#26ff00" />
<rect x="18.450" y="9.225" width="1.025" height="1.025" fill="#59ff00" />
<rect x="19.475" y="9.225" width="1.025" height="1.025" fill="#5cff00" />
<rect x="20.500" y="9.225" width="1.025" height="1.025" fill="#4fff00" />
<rect x="21.525" y="9.225" width="1.025" height="1.025" fill="#5bff00" />
<rect x="22.550" y="9.225" width="1.025" height="1.025" fill="#bbff00" />
<rect x="23.575" y="9.225" width="1.025" height="1.025" fill="#dfff00" />
<rect x="24.600" y="9.225" width="1.025" height="1.025" fill="#d0ff00" />
<rect x="25.625" y="9.225" width="1.025" height="1.025" fill="#d1ff00" />
<rect x="9.225" y="10.250" width="1.025" height="1.025" fill="#ff00d8" />
<rect x="10.250" y="10.250" width="1.025" height="1.025" fill="#ff00d8" />
<rect x="11.275" y="10.250" width="1.025" height="1.025" fill="#eaff00" />
<rect x="12.300" y="10.250" width="1.025" height="1.025" fill="#ff00d8" />
<rect x="13.325" y="10.250" width="1.025" height="1.025" fill="#eaff00" />
<rect x="14.350" y="10.250" width="1.025" height="1.025" fill="#eaff00" />
<rect x="15.375" y="10.250" width="1.025" height="1.025" fill="#d0ff00" />
<rect x="16.400" y="10.250" width="1.025" height="1.025" fill="#50ff00" />
<rect x="17.425" y="10.250" width="1.025" height="1.025" fill="#4fff00" />
<rect x="18.450" y="10.250" width="1.025" height="1.025" fill="#54ff00" />
<rect x="19.475" y="10.250" width="1.025" height="1.025" fill="#51ff00" />
<rect x="20.500" y="10.250" width="1.025" height="1.025" fill="#56ff00" />
<rect x="21.525" y="10.250" width="1.025" height="1.025" fill="#52ff00" />
<rect x="22.550" y="10.250" width="1.025" height="1.025" fill="#49ff00" />
<rect x="23.575" y="10.250" width="1.025" height="1.025" fill="#5cff00" />
<rect x="24.600" y="10.250" width="1.025" height="1.025" fill="#d9ff00" />
<rect x="7.175" y="11.275" width="1.025" height="1.025" fill="#ff00d8" />
<rect x="8.200" y="11.275" width="1.025" height="1.025" fill="#ff00d8" />
<rect x="9.225" y="11.275" width="1.025" height="1.025" fill="#ff00d8" />
<rect x="10.250" y="11.275" width="1.025" height="1.025" fill="#ff00d8" />
<rect x="11.275" y="11.275" width="1.025" height="1.025" fill="#ff00d8" />
<rect x="8.200" y="12.300" width="1.025" height="1.025" fill="#ff00d8" />
<rect x="9.225" y="12.300" width="1.025" height="1.025" fill="#ff00d8" />
<rect x="7.175" y="13.325" width="1.025" height="1.025" fill="#ff00d8" />
</svg>