<svg xmlns="http://www.w3.org/2000/svg" width="37.925" height="37.925" shape-rendering="crispEdges" style="image-rendering: pixelated;">
<rect x="16.400" y="4.100" width="1.025" height="1.025" fill="#ff00d8" />
<rect x="17.425" y="4.100" width="1.025" height="1.025" fill="#eaff00" />
<rect x="18.450" y="4.100" width="1.025" height="1.025" fill="#eaff00" />
<rect x="19.475" y="4.100" width="1.025" height="1.025" fill="#47ff00" />
<rect x="20.500" y="4.100" width="1.025" height="1.025" fill="#4aff00" />
<rect x="14.350" y="5.125" width="1.025" height="1.025" fill="#ff00d8" />
<rect x="15.375" y="5.125" width="1.025" height="1.025" fill="#ff00d8" />
<rect x="16.400" y="5.125" width="1.025" height="1.025" fill="#eaff00" />
<rect x="17.425" y="5.125" width="1.025" height="1.025" fill="#4cff00" />
<rect x="18.450" y="5.125" width="1.025" height="1.025" fill="#4aff00" />
<rect x="19.475" y="5.125" width="1.025" height="1.025" fill="#eaff00" />
<rect x="20.500" y="5.125" width="1.025" height="1.025" fill="#41ff00" />
<rect x="21.525" y="5.125" width="1.025" height="1.025" fill="#eaff00" />
<rect x="22.550" y="5.125" width="1.025" height="1.025" fill="#45ff00" />
<rect x="13.325" y="6.150" width="1.025" height="1.025" fill="#ca34e0" />
<rect x="14.350" y="6.150" width="1.025" height="1.025" fill="#ff00d8" />
<rect x="15.375" y="6.150" width="1.025" height="1.025" fill="#ff00d8" />
<rect x="16.400" y="6.150" width="1.025" height="1.025" fill="#97ff00" />
<rect x="17.425" y="6.150" width="1.025" height="1.025" fill="#a6ff00" />
<rect x="18.450" y="6.150" width="1.025" height="1.025" fill="#eaff00" />
<rect x="19.475" y="6.150" width="1.025" height="1.025" fill="#42ff00" />
<rect x="20.500" y="6.150" width="1.025" height="1.025" fill="#eaff00" />
<rect x="21.525" y="6.150" width="1.025" height="1.025" fill="#43ff00" />
<rect x="22.550" y="6.150" width="1.025" height="1.025" fill="#eaff00" />
<rect x="23.575" y="6.150" width="1.025" height="1.025" fill="#3fff00" />
<rect x="12.300" y="7.175" width="1.025" height="1.025" fill="#2dcff8" />
<rect x="13.325" y="7.175" width="1.025" height="1.025" fill="#b24de4" />
<rect x="14.350" y="7.175" width="1.025" height="1.025" fill="#48b5f4" />
<rect x="15.375" y="7.175" width="1.025" height="1.025" fill="#ff00d8" />
<rect x="16.400" y="7.175" width="1.025" height="1.025" fill="#ff00d8" />
<rect x="17.425" y="7.175" width="1.025" height="1.025" fill="#ff00d8" />
<rect x="18.450" y="7.175" width="1.025" height="1.025" fill="#ff00d8" />
<rect x="19.475" y="7.175" width="1.025" height="1.025" fill="#ff00d8" />
<rect x="20.500" y="7.175" width="1.025" height="1.025" fill="#ff00d8" />
<rect x="21.525" y="7.175" width="1.025" height="1.025" fill="#ff00d8" />
<rect x="22.550" y="7.175" width="1.025" height="1.025" fill="#ff00d8" />
<rect x="23.575" y="7.175" width="1.025" height="1.025" fill="#ff00d8" />
<rect x="24.600" y="7.175" width="1.025" height="1.025" fill="#eaff00" />
<rect x="11.275" y="8.200" width="1.025" height="1.025" fill="#20ddfa" />
<rect x="12.300" y="8.200" width="1.025" height="1.025" fill="#ff00d8" />
<rect x="13.325" y="8.200" width="1.025" height="1.025" fill="#ff00d8" />
<rect x="14.350" y="8.200" width="1.025" height="1.025" fill="#d6ff00" />
<rect x="15.375" y="8.200" width="1.025" height="1.025" fill="#ff00d8" />
<rect x="16.400" y="8.200" width="1.025" height="1.025" fill="#eaff00" />
<rect x="17.425" y="8.200" width="1.025" height="1.025" fill="#ff00d8" />
<rect x="18.450" y="8.200" width="1.025" height="1.025" fill="#eaff00" />
<rect x="19.475" y="8.200" width="1.025" height="1.025" fill="#ff00d8" />
<rect x="20.500" y="8.200" width="1.025" height="1.025" fill="#c1ff00" />
<rect x="21.525" y="8.200" width="1.025" height="1.025" fill="#eaff00" />
<rect x="22.550" y="8.200" width="1.025" height="1.025" fill="#bdff00" />
<rect x="23.575" y="8.200" width="1.025" height="1.025" fill="#eaff00" />
<rect x="24.600" y="8.200" width="1.025" height="1.025" fill="#c2ff00" />
<rect x="25.625" y="8.200" width="1.025" height="1.025" fill="#ff00d8" />
<rect x="11.275" y="9.225" width="1.025" height="1.025" fill="#16e7fc" />
<rect x="12.300" y="9.225" width="1.025" height="1.025" fill="#ff00d8" />
<rect x="13.325" y="9.225" width="1.025" height="1.025" fill="#ff00d8" />
<rect x="14.350" y="9.225" width="1.025" height="1.025" fill="#ff00d8" />
<rect x="15.375" y="9.225" width="1.025" height="1.025" fill="#eaff00" />
<rect x="16.400" y="9.225" width="1.025" height="1.025" fill="#eaff00" />
<rect x="17.425" y="9.225" width="1.025" height="1.025" fill="#ff00d8" />
<rect x="18.450" y="9.225" width="1.025" height="1.025" fill="#45ff00" />
<rect x="19.475" y="9.225" width="1.025" height="1.025" fill="#ff00d8" />
<rect x="20.500" y="9.225" width="1.025" height="1.025" fill="#43ff00" />
<rect x="21.525" y="9.225" width="1.025" height="1.025" fill="#eaff00" />
<rect x="22.550" y="9.225" width="1.025" height="1.025" fill="#3cff00" />
<rect x="23.575" y="9.225" width="1.025" height="1.025" fill="#ff00d8" />
<rect x="24.600" y="9.225" width="1.025" height="1.025" fill="#42ff00" />
<rect x="25.625" y="9.225" width="1.025" height="1.025" fill="#eaff00" />
<rect x="11.275" y="10.250" width="1.025" height="1.025" fill="#50adf3" />
<rect x="12.300" y="10.250" width="1.025" height="1.025" fill="#8876ea" />
<rect x="13.325" y="10.250" width="1.025" height="1.025" fill="#718cee" />
<rect x="14.350" y="10.250" width="1.025" height="1.025" fill="#ff00d8" />
<rect x="15.375" y="10.250" width="1.025" height="1.025" fill="#e6ff00" />
<rect x="16.400" y="10.250" width="1.025" height="1.025" fill="#ff00d8" />
<rect x="17.425" y="10.250" width="1.025" height="1.025" fill="#eaff00" />
<rect x="18.450" y="10.250" width="1.025" height="1.025" fill="#eaff00" />
<rect x="19.475" y="10.250" width="1.025" height="1.025" fill="#abff00" />
<rect x="20.500" y="10.250" width="1.025" height="1.025" fill="#eaff00" />
<rect x="21.525" y="10.250" width="1.025" height="1.025" fill="#42ff00" />
<rect x="22.550" y="10.250" width="1.025" height="1.025" fill="#eaff00" />
<rect x="23.575" y="10.250" width="1.025" height="1.025" fill="#67ff00" />
<rect x="24.600" y="10.250" width="1.025" height="1.025" fill="#eaff00" />
<rect x="25.625" y="10.250" width="1.025" height="1.025" fill="#bbff00" />
<rect x="11.275" y="11.275" width="1.025" height="1.025" fill="#7687ed" />
<rect x="12.300" y="11.275" width="1.025" height="1.025" fill="#ab53e5" />
<rect x="13.325" y="11.275" width="1.025" height="1.025" fill="#2cd0f8" fill-opacity="0.400" />
<rect x="17.425" y="14.350" width="1.025" height="1.025" fill="#eaff00" fill-opacity="0.039" />
<rect x="18.450" y="14.350" width="1.025" height="1.025" fill="#eaff00" fill-opacity="0.024" />
</svg>