<svg xmlns="http://www.w3.org/2000/svg" width="37.925" height="37.925" shape-rendering="crispEdges" style="image-rendering: pixelated;">
<rect x="13.325" y="14.350" width="1.025" height="1.025" fill="#bbff00" />
<rect x="13.325" y="15.375" width="1.025" height="1.025" fill="#e6ff00" />
<rect x="14.350" y="15.375" width="1.025" height="1.025" fill="#eaff00" />
<rect x="13.325" y="16.400" width="1.025" height="1.025" fill="#eaff00" />
<rect x="14.350" y="16.400" width="1.025" height="1.025" fill="#beff00" />
<rect x="13.325" y="17.425" width="1.025" height="1.025" fill="#e7ff00" />
<rect x="14.350" y="17.425" width="1.025" height="1.025" fill="#7eff00" />
<rect x="15.375" y="17.425" width="1.025" height="1.025" fill="#93ff00" />
<rect x="24.600" y="17.425" width="1.025" height="1.025" fill="#007a00" />
<rect x="13.325" y="18.450" width="1.025" height="1.025" fill="#d9ff00" />
<rect x="14.350" y="18.450" width="1.025" height="1.025" fill="#eaff00" />
<rect x="15.375" y="18.450" width="1.025" height="1.025" fill="#b7ff00" />
<rect x="16.400" y="18.450" width="1.025" height="1.025" fill="#3cff00" />
<rect x="17.425" y="18.450" width="1.025" height="1.025" fill="#08dc00" />
<rect x="18.450" y="18.450" width="1.025" height="1.025" fill="#007800" />
<rect x="23.575" y="18.450" width="1.025" height="1.025" fill="#007f00" />
<rect x="24.600" y="18.450" width="1.025" height="1.025" fill="#008d00" />
<rect x="13.325" y="19.475" width="1.025" height="1.025" fill="#e0ff00" />
<rect x="14.350" y="19.475" width="1.025" height="1.025" fill="#eaff00" />
<rect x="15.375" y="19.475" width="1.025" height="1.025" fill="#d8ff00" />
<rect x="16.400" y="19.475" width="1.025" height="1.025" fill="#a7ff00" />
<rect x="17.425" y="19.475" width="1.025" height="1.025" fill="#7cff00" />
<rect x="18.450" y="19.475" width="1.025" height="1.025" fill="#007c00" />
<rect x="19.475" y="19.475" width="1.025" height="1.025" fill="#006b00" />
<rect x="20.500" y="19.475" width="1.025" height="1.025" fill="#006f00" />
<rect x="21.525" y="19.475" width="1.025" height="1.025" fill="#23ff00" />
<rect x="22.550" y="19.475" width="1.025" height="1.025" fill="#b6ff00" />
<rect x="23.575" y="19.475" width="1.025" height="1.025" fill="#01b400" />
<rect x="24.600" y="19.475" width="1.025" height="1.025" fill="#37ff00" />
<rect x="13.325" y="20.500" width="1.025" height="1.025" fill="#67ff00" />
<rect x="14.350" y="20.500" width="1.025" height="1.025" fill="#82ff00" />
<rect x="15.375" y="20.500" width="1.025" height="1.025" fill="#d7ff00" />
<rect x="16.400" y="20.500" width="1.025" height="1.025" fill="#a9ff00" />
<rect x="17.425" y="20.500" width="1.025" height="1.025" fill="#1bff00" />
<rect x="23.575" y="20.500" width="1.025" height="1.025" fill="#007300" />
<rect x="24.600" y="20.500" width="1.025" height="1.025" fill="#007c00" />
<rect x="13.325" y="21.525" width="1.025" height="1.025" fill="#b4ff00" />
<rect x="14.350" y="21.525" width="1.025" height="1.025" fill="#89ff00" />
<rect x="15.375" y="21.525" width="1.025" height="1.025" fill="#a1ff00" />
<rect x="16.400" y="21.525" width="1.025" height="1.025" fill="#5aff00" />
<rect x="17.425" y="21.525" width="1.025" height="1.025" fill="#06d400" />
<rect x="18.450" y="21.525" width="1.025" height="1.025" fill="#36ff00" />
<rect x="23.575" y="21.525" width="1.025" height="1.025" fill="#007400" />
<rect x="24.600" y="21.525" width="1.025" height="1.025" fill="#007200" />
<rect x="13.325" y="22.550" width="1.025" height="1.025" fill="#eaff00" />
<rect x="14.350" y="22.550" width="1.025" height="1.025" fill="#eaff00" />
<rect x="15.375" y="22.550" width="1.025" height="1.025" fill="#95ff00" />
<rect x="16.400" y="22.550" width="1.025" height="1.025" fill="#59ff00" />
<rect x="17.425" y="22.550" width="1.025" height="1.025" fill="#58ff00" />
<rect x="18.450" y="22.550" width="1.025" height="1.025" fill="#3eff00" />
<rect x="19.475" y="22.550" width="1.025" height="1.025" fill="#68ff00" />
<rect x="20.500" y="22.550" width="1.025" height="1.025" fill="#55ff00" />
<rect x="21.525" y="22.550" width="1.025" height="1.025" fill="#13f900" />
<rect x="22.550" y="22.550" width="1.025" height="1.025" fill="#007a00" />
<rect x="23.575" y="22.550" width="1.025" height="1.025" fill="#007e00" />
<rect x="24.600" y="22.550" width="1.025" height="1.025" fill="#008600" />
<rect x="14.350" y="23.575" width="1.025" height="1.025" fill="#e2ff00" />
<rect x="15.375" y="23.575" width="1.025" height="1.025" fill="#e6ff00" />
<rect x="16.400" y="23.575" width="1.025" height="1.025" fill="#abff00" />
<rect x="17.425" y="23.575" width="1.025" height="1.025" fill="#33ff00" />
<rect x="18.450" y="23.575" width="1.025" height="1.025" fill="#aaff00" />
<rect x="19.475" y="23.575" width="1.025" height="1.025" fill="#bfff00" />
<rect x="20.500" y="23.575" width="1.025" height="1.025" fill="#c1ff00" />
<rect x="21.525" y="23.575" width="1.025" height="1.025" fill="#78ff00" />
<rect x="22.550" y="23.575" width="1.025" height="1.025" fill="#007d00" />
<rect x="23.575" y="23.575" width="1.025" height="1.025" fill="#006d00" />
<rect x="24.600" y="23.575" width="1.025" height="1.025" fill="#007600" />
<rect x="15.375" y="24.600" width="1.025" height="1.025" fill="#4cff00" />
<rect x="16.400" y="24.600" width="1.025" height="1.025" fill="#87ff00" />
<rect x="17.425" y="24.600" width="1.025" height="1.025" fill="#adff00" />
<rect x="18.450" y="24.600" width="1.025" height="1.025" fill="#4eff00" />
<rect x="19.475" y="24.600" width="1.025" height="1.025" fill="#bfff00" />
<rect x="20.500" y="24.600" width="1.025" height="1.025" fill="#b0ff00" />
<rect x="21.525" y="24.600" width="1.025" height="1.025" fill="#5aff00" />
<rect x="22.550" y="24.600" width="1.025" height="1.025" fill="#4aff00" />
<rect x="23.575" y="24.600" width="1.025" height="1.025" fill="#007800" />
<rect x="16.400" y="25.625" width="1.025" height="1.025" fill="#b9ff00" />
<rect x="17.425" y="25.625" width="1.025" height="1.025" fill="#71ff00" />
<rect x="18.450" y="25.625" width="1.025" height="1.025" fill="#c1ff00" />
<rect x="19.475" y="25.625" width="1.025" height="1.025" fill="#89ff00" />
<rect x="20.500" y="25.625" width="1.025" height="1.025" fill="#20ff00" />
<rect x="21.525" y="25.625" width="1.025" height="1.025" fill="#0be800" />
<rect x="22.550" y="25.625" width="1.025" height="1.025" fill="#3aff00" />
<rect x="17.425" y="26.650" width="1.025" height="1.025" fill="#acff00" />
<rect x="18.450" y="26.650" width="1.025" height="1.025" fill="#eaff00" />
<rect x="19.475" y="26.650" width="1.025" height="1.025" fill="#bcff00" />
<rect x="20.500" y="26.650" width="1.025" height="1.025" fill="#6aff00" />
<rect x="21.525" y="26.650" width="1.025" height="1.025" fill="#55ff00" />
</svg>