<svg xmlns="http://www.w3.org/2000/svg" width="37.925" height="37.925" shape-rendering="crispEdges" style="image-rendering: pixelated;">
<rect x="13.325" y="28.700" width="1.025" height="1.025" fill="#007000" />
<rect x="14.350" y="29.725" width="1.025" height="1.025" fill="#007b00" />
<rect x="20.500" y="29.725" width="1.025" height="1.025" fill="#007a00" />
<rect x="14.350" y="30.750" width="1.025" height="1.025" fill="#12f700" />
<rect x="21.525" y="30.750" width="1.025" height="1.025" fill="#07d900" />
<rect x="15.375" y="31.775" width="1.025" height="1.025" fill="#32ff00" />
<rect x="21.525" y="31.775" width="1.025" height="1.025" fill="#35ff00" />
<rect x="16.400" y="32.800" width="1.025" height="1.025" fill="#68ff00" />
<rect x="22.550" y="32.800" width="1.025" height="1.025" fill="#6cff00" />
<rect x="17.425" y="33.825" width="1.025" height="1.025" fill="#9dff00" />
<rect x="23.575" y="33.825" width="1.025" height="1.025" fill="#a0ff00" />
<rect x="16.400" y="34.850" width="1.025" height="1.025" fill="#dcff00" />
<rect x="17.425" y="34.850" width="1.025" height="1.025" fill="#d7ff00" />
<rect x="18.450" y="34.850" width="1.025" height="1.025" fill="#d3ff00" />
<rect x="23.575" y="34.850" width="1.025" height="1.025" fill="#d7ff00" />
<rect x="24.600" y="34.850" width="1.025" height="1.025" fill="#d1ff00" />
<rect x="15.375" y="35.875" width="1.025" height="1.025" fill="#eaff00" />
<rect x="16.400" y="35.875" width="1.025" height="1.025" fill="#eaff00" />
<rect x="17.425" y="35.875" width="1.025" height="1.025" fill="#eaff00" />
<rect x="18.450" y="35.875" width="1.025" height="1.025" fill="#eaff00" />
<rect x="19.475" y="35.875" width="1.025" height="1.025" fill="#eaff00" />
<rect x="22.550" y="35.875" width="1.025" height="1.025" fill="#eaff00" />
<rect x="23.575" y="35.875" width="1.025" height="1.025" fill="#eaff00" />
<rect x="24.600" y="35.875" width="1.025" height="1.025" fill="#eaff00" />
<rect x="25.625" y="35.875" width="1.025" height="1.025" fill="#eaff00" />
<rect x="14.350" y="36.900" width="1.025" height="1.025" fill="#eaff00" />
<rect x="15.375" y="36.900" width="1.025" height="1.025" fill="#eaff00" />
<rect x="16.400" y="36.900" width="1.025" height="1.025" fill="#eaff00" />
<rect x="17.425" y="36.900" width="1.025" height="1.025" fill="#eaff00" />
<rect x="18.450" y="36.900" width="1.025" height="1.025" fill="#eaff00" />
<rect x="19.475" y="36.900" width="1.025" height="1.025" fill="#eaff00" />
<rect x="20.500" y="36.900" width="1.025" height="1.025" fill="#eaff00" fill-opacity="0.698" />
<rect x="21.525" y="36.900" width="1.025" height="1.025" fill="#eaff00" fill-opacity="0.698" />
<rect x="22.550" y="36.900" width="1.025" height="1.025" fill="#eaff00" />
<rect x="23.575" y="36.900" width="1.025" height="1.025" fill="#eaff00" />
<rect x="24.600" y="36.900" width="1.025" height="1.025" fill="#eaff00" />
<rect x="25.625" y="36.900" width="1.025" height="1.025" fill="#eaff00" />
<rect x="26.650" y="36.900" width="1.025" height="1.025" fill="#eaff00" />
</svg>