<svg xmlns="http://www.w3.org/2000/svg" width="37.925" height="37.925" shape-rendering="crispEdges" style="image-rendering: pixelated;">
<rect x="13.325" y="12.300" width="1.025" height="1.025" fill="#83ff00" />
<rect x="14.350" y="12.300" width="1.025" height="1.025" fill="#004e00" />
<rect x="15.375" y="12.300" width="1.025" height="1.025" fill="#004100" />
<rect x="16.400" y="12.300" width="1.025" height="1.025" fill="#004100" />
<rect x="17.425" y="12.300" width="1.025" height="1.025" fill="#004200" />
<rect x="18.450" y="12.300" width="1.025" height="1.025" fill="#004000" />
<rect x="19.475" y="12.300" width="1.025" height="1.025" fill="#000000" />
<rect x="20.500" y="12.300" width="1.025" height="1.025" fill="#003f00" />
<rect x="21.525" y="12.300" width="1.025" height="1.025" fill="#004c00" />
<rect x="22.550" y="12.300" width="1.025" height="1.025" fill="#005d00" />
<rect x="23.575" y="12.300" width="1.025" height="1.025" fill="#007600" />
<rect x="24.600" y="12.300" width="1.025" height="1.025" fill="#1cff00" />
<rect x="25.625" y="12.300" width="1.025" height="1.025" fill="#66ff00" />
<rect x="26.650" y="12.300" width="1.025" height="1.025" fill="#000000" />
<rect x="11.275" y="13.325" width="1.025" height="1.025" fill="#000100" />
<rect x="12.300" y="13.325" width="1.025" height="1.025" fill="#86ff00" />
<rect x="15.375" y="13.325" width="1.025" height="1.025" fill="#004200" />
<rect x="16.400" y="13.325" width="1.025" height="1.025" fill="#004000" />
<rect x="17.425" y="13.325" width="1.025" height="1.025" fill="#003f00" />
<rect x="18.450" y="13.325" width="1.025" height="1.025" fill="#011800" />
<rect x="19.475" y="13.325" width="1.025" height="1.025" fill="#004f00" />
<rect x="20.500" y="13.325" width="1.025" height="1.025" fill="#005f00" />
<rect x="21.525" y="13.325" width="1.025" height="1.025" fill="#007500" />
<rect x="22.550" y="13.325" width="1.025" height="1.025" fill="#1bff00" />
<rect x="23.575" y="13.325" width="1.025" height="1.025" fill="#64ff00" />
<rect x="24.600" y="13.325" width="1.025" height="1.025" fill="#c8ff00" />
<rect x="25.625" y="13.325" width="1.025" height="1.025" fill="#006b00" />
<rect x="26.650" y="13.325" width="1.025" height="1.025" fill="#eaff00" />
<rect x="15.375" y="14.350" width="1.025" height="1.025" fill="#004100" />
<rect x="16.400" y="14.350" width="1.025" height="1.025" fill="#004000" />
<rect x="17.425" y="14.350" width="1.025" height="1.025" fill="#011b00" />
<rect x="18.450" y="14.350" width="1.025" height="1.025" fill="#005f00" />
<rect x="19.475" y="14.350" width="1.025" height="1.025" fill="#007500" />
<rect x="20.500" y="14.350" width="1.025" height="1.025" fill="#1eff00" />
<rect x="21.525" y="14.350" width="1.025" height="1.025" fill="#85ff00" />
<rect x="22.550" y="14.350" width="1.025" height="1.025" fill="#c4ff00" />
<rect x="23.575" y="14.350" width="1.025" height="1.025" fill="#eaff00" />
<rect x="24.600" y="14.350" width="1.025" height="1.025" fill="#007c00" />
<rect x="25.625" y="14.350" width="1.025" height="1.025" fill="#eaff00" />
<rect x="26.650" y="14.350" width="1.025" height="1.025" fill="#ff00d8" />
<rect x="15.375" y="15.375" width="1.025" height="1.025" fill="#004d00" />
<rect x="16.400" y="15.375" width="1.025" height="1.025" fill="#002600" />
<rect x="17.425" y="15.375" width="1.025" height="1.025" fill="#007500" />
<rect x="18.450" y="15.375" width="1.025" height="1.025" fill="#1fff00" />
<rect x="19.475" y="15.375" width="1.025" height="1.025" fill="#65ff00" />
<rect x="20.500" y="15.375" width="1.025" height="1.025" fill="#7fff00" />
<rect x="22.550" y="15.375" width="1.025" height="1.025" fill="#80ff00" />
<rect x="23.575" y="15.375" width="1.025" height="1.025" fill="#22ff00" />
<rect x="24.600" y="15.375" width="1.025" height="1.025" fill="#ff00d8" />
<rect x="25.625" y="15.375" width="1.025" height="1.025" fill="#ff00d8" />
<rect x="26.650" y="15.375" width="1.025" height="1.025" fill="#ff00d8" />
<rect x="16.400" y="16.400" width="1.025" height="1.025" fill="#1fff00" />
<rect x="17.425" y="16.400" width="1.025" height="1.025" fill="#6bff00" />
<rect x="18.450" y="16.400" width="1.025" height="1.025" fill="#c8ff00" />
<rect x="19.475" y="16.400" width="1.025" height="1.025" fill="#eaff00" />
<rect x="20.500" y="16.400" width="1.025" height="1.025" fill="#eaff00" />
<rect x="22.550" y="16.400" width="1.025" height="1.025" fill="#eaff00" />
<rect x="23.575" y="16.400" width="1.025" height="1.025" fill="#ff00d8" />
<rect x="24.600" y="16.400" width="1.025" height="1.025" fill="#ff00d8" />
<rect x="25.625" y="16.400" width="1.025" height="1.025" fill="#ff00d8" />
</svg>