<svg xmlns="http://www.w3.org/2000/svg" width="37.925" height="37.925" shape-rendering="crispEdges" style="image-rendering: pixelated;">
<rect x="25.625" y="17.425" width="1.025" height="1.025" fill="#4fff00" fill-opacity="0.761" />
<rect x="26.650" y="17.425" width="1.025" height="1.025" fill="#4cff00" fill-opacity="0.761" />
<rect x="27.675" y="17.425" width="1.025" height="1.025" fill="#4dff00" fill-opacity="0.788" />
<rect x="24.600" y="18.450" width="1.025" height="1.025" fill="#4dff00" fill-opacity="0.675" />
<rect x="25.625" y="18.450" width="1.025" height="1.025" fill="#4cff00" fill-opacity="0.580" />
<rect x="26.650" y="18.450" width="1.025" height="1.025" fill="#4aff00" fill-opacity="0.569" />
<rect x="27.675" y="18.450" width="1.025" height="1.025" fill="#45ff00" fill-opacity="0.663" />
<rect x="28.700" y="18.450" width="1.025" height="1.025" fill="#4dff00" fill-opacity="0.761" />
<rect x="23.575" y="19.475" width="1.025" height="1.025" fill="#47ff00" fill-opacity="0.694" />
<rect x="24.600" y="19.475" width="1.025" height="1.025" fill="#46ff00" fill-opacity="0.502" />
<rect x="25.625" y="19.475" width="1.025" height="1.025" fill="#46ff00" fill-opacity="0.318" />
<rect x="26.650" y="19.475" width="1.025" height="1.025" fill="#4dff00" fill-opacity="0.306" />
<rect x="27.675" y="19.475" width="1.025" height="1.025" fill="#47ff00" fill-opacity="0.471" />
<rect x="28.700" y="19.475" width="1.025" height="1.025" fill="#51ff00" fill-opacity="0.678" />
<rect x="29.725" y="19.475" width="1.025" height="1.025" fill="#4dff00" fill-opacity="0.792" />
<rect x="22.550" y="20.500" width="1.025" height="1.025" fill="#ff00d8" fill-opacity="0.910" />
<rect x="23.575" y="20.500" width="1.025" height="1.025" fill="#49ff00" fill-opacity="0.659" />
<rect x="24.600" y="20.500" width="1.025" height="1.025" fill="#4dff00" fill-opacity="0.412" />
<rect x="25.625" y="20.500" width="1.025" height="1.025" fill="#4dff00" fill-opacity="0.204" />
<rect x="26.650" y="20.500" width="1.025" height="1.025" fill="#51ff00" fill-opacity="0.192" />
<rect x="27.675" y="20.500" width="1.025" height="1.025" fill="#4eff00" fill-opacity="0.373" />
<rect x="28.700" y="20.500" width="1.025" height="1.025" fill="#4dff00" fill-opacity="0.627" />
<rect x="29.725" y="20.500" width="1.025" height="1.025" fill="#46ff00" fill-opacity="0.780" />
<rect x="23.575" y="21.525" width="1.025" height="1.025" fill="#45ff00" fill-opacity="0.694" />
<rect x="24.600" y="21.525" width="1.025" height="1.025" fill="#4dff00" fill-opacity="0.486" />
<rect x="25.625" y="21.525" width="1.025" height="1.025" fill="#49ff00" fill-opacity="0.294" />
<rect x="26.650" y="21.525" width="1.025" height="1.025" fill="#4cff00" fill-opacity="0.278" />
<rect x="27.675" y="21.525" width="1.025" height="1.025" fill="#4eff00" fill-opacity="0.455" />
<rect x="28.700" y="21.525" width="1.025" height="1.025" fill="#51ff00" fill-opacity="0.667" />
<rect x="29.725" y="21.525" width="1.025" height="1.025" fill="#4fff00" fill-opacity="0.792" />
<rect x="24.600" y="22.550" width="1.025" height="1.025" fill="#4fff00" fill-opacity="0.655" />
<rect x="25.625" y="22.550" width="1.025" height="1.025" fill="#4cff00" fill-opacity="0.553" />
<rect x="26.650" y="22.550" width="1.025" height="1.025" fill="#50ff00" fill-opacity="0.541" />
<rect x="27.675" y="22.550" width="1.025" height="1.025" fill="#49ff00" fill-opacity="0.639" />
<rect x="28.700" y="22.550" width="1.025" height="1.025" fill="#4dff00" fill-opacity="0.749" />
<rect x="25.625" y="23.575" width="1.025" height="1.025" fill="#48ff00" fill-opacity="0.745" />
<rect x="26.650" y="23.575" width="1.025" height="1.025" fill="#4bff00" fill-opacity="0.745" />
<rect x="27.675" y="23.575" width="1.025" height="1.025" fill="#4dff00" fill-opacity="0.773" />
</svg>