<svg xmlns="http://www.w3.org/2000/svg" width="37.925" height="37.925" shape-rendering="crispEdges" style="image-rendering: pixelated;">
<rect x="20.500" y="0.000" width="1.025" height="1.025" fill="#000101" />
<rect x="22.550" y="0.000" width="1.025" height="1.025" fill="#c6b2ee" />
<rect x="23.575" y="0.000" width="1.025" height="1.025" fill="#ff00d8" />
<rect x="24.600" y="0.000" width="1.025" height="1.025" fill="#00f9fc" />
<rect x="25.625" y="0.000" width="1.025" height="1.025" fill="#00eff2" />
<rect x="26.650" y="0.000" width="1.025" height="1.025" fill="#ff00d8" />
<rect x="27.675" y="0.000" width="1.025" height="1.025" fill="#00a0a2" />
<rect x="28.700" y="0.000" width="1.025" height="1.025" fill="#00fcff" />
<rect x="29.725" y="0.000" width="1.025" height="1.025" fill="#00eff2" />
<rect x="30.750" y="0.000" width="1.025" height="1.025" fill="#00fcff" />
<rect x="31.775" y="0.000" width="1.025" height="1.025" fill="#00eff2" />
<rect x="32.800" y="0.000" width="1.025" height="1.025" fill="#00eff2" />
<rect x="34.850" y="0.000" width="1.025" height="1.025" fill="#000101" />
<rect x="9.225" y="1.025" width="1.025" height="1.025" fill="#000000" />
<rect x="10.250" y="1.025" width="1.025" height="1.025" fill="#000101" />
<rect x="12.300" y="1.025" width="1.025" height="1.025" fill="#000101" />
<rect x="14.350" y="1.025" width="1.025" height="1.025" fill="#000101" />
<rect x="21.525" y="1.025" width="1.025" height="1.025" fill="#00fcff" />
<rect x="22.550" y="1.025" width="1.025" height="1.025" fill="#006b6d" />
<rect x="23.575" y="1.025" width="1.025" height="1.025" fill="#000000" />
<rect x="24.600" y="1.025" width="1.025" height="1.025" fill="#000000" />
<rect x="25.625" y="1.025" width="1.025" height="1.025" fill="#000000" />
<rect x="26.650" y="1.025" width="1.025" height="1.025" fill="#000000" />
<rect x="27.675" y="1.025" width="1.025" height="1.025" fill="#000000" />
<rect x="28.700" y="1.025" width="1.025" height="1.025" fill="#000000" />
<rect x="29.725" y="1.025" width="1.025" height="1.025" fill="#000000" />
<rect x="30.750" y="1.025" width="1.025" height="1.025" fill="#000000" />
<rect x="31.775" y="1.025" width="1.025" height="1.025" fill="#000000" />
<rect x="32.800" y="1.025" width="1.025" height="1.025" fill="#000000" />
<rect x="33.825" y="1.025" width="1.025" height="1.025" fill="#006b6d" />
<rect x="7.175" y="2.050" width="1.025" height="1.025" fill="#000000" />
<rect x="8.200" y="2.050" width="1.025" height="1.025" fill="#000101" />
<rect x="9.225" y="2.050" width="1.025" height="1.025" fill="#00fcff" />
<rect x="10.250" y="2.050" width="1.025" height="1.025" fill="#00fcff" />
<rect x="11.275" y="2.050" width="1.025" height="1.025" fill="#008587" />
<rect x="12.300" y="2.050" width="1.025" height="1.025" fill="#00fcff" />
<rect x="13.325" y="2.050" width="1.025" height="1.025" fill="#00fcff" />
<rect x="14.350" y="2.050" width="1.025" height="1.025" fill="#00eff2" />
<rect x="20.500" y="2.050" width="1.025" height="1.025" fill="#000000" />
<rect x="21.525" y="2.050" width="1.025" height="1.025" fill="#c6b2ee" />
<rect x="22.550" y="2.050" width="1.025" height="1.025" fill="#000000" />
<rect x="23.575" y="2.050" width="1.025" height="1.025" fill="#000000" />
<rect x="24.600" y="2.050" width="1.025" height="1.025" fill="#ff00d8" />
<rect x="25.625" y="2.050" width="1.025" height="1.025" fill="#ff00d8" />
<rect x="26.650" y="2.050" width="1.025" height="1.025" fill="#ff00d8" />
<rect x="27.675" y="2.050" width="1.025" height="1.025" fill="#ff00d8" />
<rect x="28.700" y="2.050" width="1.025" height="1.025" fill="#ff00d8" />
<rect x="29.725" y="2.050" width="1.025" height="1.025" fill="#ff00d8" />
<rect x="30.750" y="2.050" width="1.025" height="1.025" fill="#ff00d8" />
<rect x="31.775" y="2.050" width="1.025" height="1.025" fill="#ff00d8" />
<rect x="32.800" y="2.050" width="1.025" height="1.025" fill="#ff00d8" />
<rect x="33.825" y="2.050" width="1.025" height="1.025" fill="#000101" />
<rect x="34.850" y="2.050" width="1.025" height="1.025" fill="#00fcff" />
<rect x="6.150" y="3.075" width="1.025" height="1.025" fill="#000101" />
<rect x="7.175" y="3.075" width="1.025" height="1.025" fill="#00eff2" />
<rect x="8.200" y="3.075" width="1.025" height="1.025" fill="#008587" />
<rect x="9.225" y="3.075" width="1.025" height="1.025" fill="#005455" />
<rect x="10.250" y="3.075" width="1.025" height="1.025" fill="#00cacc" />
<rect x="11.275" y="3.075" width="1.025" height="1.025" fill="#000303" />
<rect x="12.300" y="3.075" width="1.025" height="1.025" fill="#005455" />
<rect x="13.325" y="3.075" width="1.025" height="1.025" fill="#000909" />
<rect x="14.350" y="3.075" width="1.025" height="1.025" fill="#003d3e" />
<rect x="15.375" y="3.075" width="1.025" height="1.025" fill="#00fcff" />
<rect x="16.400" y="3.075" width="1.025" height="1.025" fill="#000101" />
<rect x="21.525" y="3.075" width="1.025" height="1.025" fill="#005455" />
<rect x="22.550" y="3.075" width="1.025" height="1.025" fill="#000000" />
<rect x="23.575" y="3.075" width="1.025" height="1.025" fill="#ff00d8" />
<rect x="24.600" y="3.075" width="1.025" height="1.025" fill="#00eaed" />
<rect x="25.625" y="3.075" width="1.025" height="1.025" fill="#00eaed" />
<rect x="26.650" y="3.075" width="1.025" height="1.025" fill="#00eaed" />
<rect x="27.675" y="3.075" width="1.025" height="1.025" fill="#00eaed" />
<rect x="28.700" y="3.075" width="1.025" height="1.025" fill="#00eaed" />
<rect x="29.725" y="3.075" width="1.025" height="1.025" fill="#00eaed" />
<rect x="30.750" y="3.075" width="1.025" height="1.025" fill="#00eaed" />
<rect x="31.775" y="3.075" width="1.025" height="1.025" fill="#00eaed" />
<rect x="32.800" y="3.075" width="1.025" height="1.025" fill="#00eaed" />
<rect x="33.825" y="3.075" width="1.025" height="1.025" fill="#f74fdd" />
<rect x="6.150" y="4.100" width="1.025" height="1.025" fill="#00fcff" />
<rect x="7.175" y="4.100" width="1.025" height="1.025" fill="#000000" />
<rect x="8.200" y="4.100" width="1.025" height="1.025" fill="#000909" />
<rect x="9.225" y="4.100" width="1.025" height="1.025" fill="#00a4a6" />
<rect x="10.250" y="4.100" width="1.025" height="1.025" fill="#ff00d8" />
<rect x="11.275" y="4.100" width="1.025" height="1.025" fill="#ff00d8" />
<rect x="12.300" y="4.100" width="1.025" height="1.025" fill="#ff00d8" />
<rect x="13.325" y="4.100" width="1.025" height="1.025" fill="#ff00d8" />
<rect x="14.350" y="4.100" width="1.025" height="1.025" fill="#ff00d8" />
<rect x="15.375" y="4.100" width="1.025" height="1.025" fill="#00aeb0" />
<rect x="16.400" y="4.100" width="1.025" height="1.025" fill="#000101" />
<rect x="17.425" y="4.100" width="1.025" height="1.025" fill="#000000" />
<rect x="19.475" y="4.100" width="1.025" height="1.025" fill="#000000" />
<rect x="20.500" y="4.100" width="1.025" height="1.025" fill="#000101" />
<rect x="21.525" y="4.100" width="1.025" height="1.025" fill="#005455" />
<rect x="22.550" y="4.100" width="1.025" height="1.025" fill="#000303" />
<rect x="23.575" y="4.100" width="1.025" height="1.025" fill="#ff00d8" />
<rect x="24.600" y="4.100" width="1.025" height="1.025" fill="#00eaed" />
<rect x="25.625" y="4.100" width="1.025" height="1.025" fill="#00eaed" />
<rect x="26.650" y="4.100" width="1.025" height="1.025" fill="#000000" />
<rect x="28.700" y="4.100" width="1.025" height="1.025" fill="#000101" />
<rect x="29.725" y="4.100" width="1.025" height="1.025" fill="#000101" />
<rect x="30.750" y="4.100" width="1.025" height="1.025" fill="#003232" />
<rect x="31.775" y="4.100" width="1.025" height="1.025" fill="#00eff2" />
<rect x="32.800" y="4.100" width="1.025" height="1.025" fill="#000909" />
<rect x="33.825" y="4.100" width="1.025" height="1.025" fill="#000101" />
<rect x="5.125" y="5.125" width="1.025" height="1.025" fill="#ff00d8" />
<rect x="6.150" y="5.125" width="1.025" height="1.025" fill="#002727" />
<rect x="7.175" y="5.125" width="1.025" height="1.025" fill="#006061" />
<rect x="8.200" y="5.125" width="1.025" height="1.025" fill="#ff00d8" />
<rect x="9.225" y="5.125" width="1.025" height="1.025" fill="#00fcff" />
<rect x="10.250" y="5.125" width="1.025" height="1.025" fill="#00eaed" />
<rect x="11.275" y="5.125" width="1.025" height="1.025" fill="#00eaed" />
<rect x="12.300" y="5.125" width="1.025" height="1.025" fill="#00eaed" />
<rect x="13.325" y="5.125" width="1.025" height="1.025" fill="#00eaed" />
<rect x="14.350" y="5.125" width="1.025" height="1.025" fill="#00eaed" />
<rect x="15.375" y="5.125" width="1.025" height="1.025" fill="#00eaed" />
<rect x="16.400" y="5.125" width="1.025" height="1.025" fill="#00eff2" />
<rect x="17.425" y="5.125" width="1.025" height="1.025" fill="#00fcff" />
<rect x="18.450" y="5.125" width="1.025" height="1.025" fill="#00fcff" />
<rect x="19.475" y="5.125" width="1.025" height="1.025" fill="#00fcff" />
<rect x="20.500" y="5.125" width="1.025" height="1.025" fill="#000000" />
<rect x="21.525" y="5.125" width="1.025" height="1.025" fill="#000000" />
<rect x="22.550" y="5.125" width="1.025" height="1.025" fill="#00d7da" />
<rect x="23.575" y="5.125" width="1.025" height="1.025" fill="#ff00d8" />
<rect x="24.600" y="5.125" width="1.025" height="1.025" fill="#ff00d8" />
<rect x="25.625" y="5.125" width="1.025" height="1.025" fill="#f74fdd" />
<rect x="30.750" y="5.125" width="1.025" height="1.025" fill="#000101" />
<rect x="32.800" y="5.125" width="1.025" height="1.025" fill="#000101" />
<rect x="4.100" y="6.150" width="1.025" height="1.025" fill="#009294" />
<rect x="5.125" y="6.150" width="1.025" height="1.025" fill="#000909" />
<rect x="6.150" y="6.150" width="1.025" height="1.025" fill="#006061" />
<rect x="7.175" y="6.150" width="1.025" height="1.025" fill="#ff00d8" />
<rect x="8.200" y="6.150" width="1.025" height="1.025" fill="#00fcff" />
<rect x="9.225" y="6.150" width="1.025" height="1.025" fill="#00eaed" />
<rect x="10.250" y="6.150" width="1.025" height="1.025" fill="#000101" />
<rect x="11.275" y="6.150" width="1.025" height="1.025" fill="#000101" />
<rect x="12.300" y="6.150" width="1.025" height="1.025" fill="#00eaed" />
<rect x="13.325" y="6.150" width="1.025" height="1.025" fill="#ff00d8" />
<rect x="14.350" y="6.150" width="1.025" height="1.025" fill="#ff00d8" />
<rect x="15.375" y="6.150" width="1.025" height="1.025" fill="#001b1c" />
<rect x="16.400" y="6.150" width="1.025" height="1.025" fill="#000000" />
<rect x="17.425" y="6.150" width="1.025" height="1.025" fill="#000000" />
<rect x="18.450" y="6.150" width="1.025" height="1.025" fill="#000000" />
<rect x="19.475" y="6.150" width="1.025" height="1.025" fill="#000000" />
<rect x="20.500" y="6.150" width="1.025" height="1.025" fill="#000000" />
<rect x="21.525" y="6.150" width="1.025" height="1.025" fill="#000000" />
<rect x="22.550" y="6.150" width="1.025" height="1.025" fill="#000000" />
<rect x="23.575" y="6.150" width="1.025" height="1.025" fill="#ff06d8" />
<rect x="24.600" y="6.150" width="1.025" height="1.025" fill="#00eff2" />
<rect x="25.625" y="6.150" width="1.025" height="1.025" fill="#000101" />
<rect x="4.100" y="7.175" width="1.025" height="1.025" fill="#000101" />
<rect x="5.125" y="7.175" width="1.025" height="1.025" fill="#006061" />
<rect x="6.150" y="7.175" width="1.025" height="1.025" fill="#ff00d8" />
<rect x="7.175" y="7.175" width="1.025" height="1.025" fill="#00fcff" />
<rect x="8.200" y="7.175" width="1.025" height="1.025" fill="#00fcff" />
<rect x="9.225" y="7.175" width="1.025" height="1.025" fill="#000101" />
<rect x="12.300" y="7.175" width="1.025" height="1.025" fill="#000000" />
<rect x="13.325" y="7.175" width="1.025" height="1.025" fill="#ff06d8" />
<rect x="14.350" y="7.175" width="1.025" height="1.025" fill="#001b1c" />
<rect x="15.375" y="7.175" width="1.025" height="1.025" fill="#001b1c" />
<rect x="16.400" y="7.175" width="1.025" height="1.025" fill="#000000" />
<rect x="17.425" y="7.175" width="1.025" height="1.025" fill="#000000" />
<rect x="18.450" y="7.175" width="1.025" height="1.025" fill="#000000" />
<rect x="19.475" y="7.175" width="1.025" height="1.025" fill="#000000" />
<rect x="20.500" y="7.175" width="1.025" height="1.025" fill="#000000" />
<rect x="21.525" y="7.175" width="1.025" height="1.025" fill="#000000" />
<rect x="22.550" y="7.175" width="1.025" height="1.025" fill="#002727" />
<rect x="23.575" y="7.175" width="1.025" height="1.025" fill="#000000" />
<rect x="24.600" y="7.175" width="1.025" height="1.025" fill="#ff00d8" />
<rect x="4.100" y="8.200" width="1.025" height="1.025" fill="#000101" />
<rect x="5.125" y="8.200" width="1.025" height="1.025" fill="#006061" />
<rect x="6.150" y="8.200" width="1.025" height="1.025" fill="#ff00d8" />
<rect x="7.175" y="8.200" width="1.025" height="1.025" fill="#00fcff" />
<rect x="8.200" y="8.200" width="1.025" height="1.025" fill="#000000" />
<rect x="12.300" y="8.200" width="1.025" height="1.025" fill="#003d3e" />
<rect x="13.325" y="8.200" width="1.025" height="1.025" fill="#003d3e" />
<rect x="14.350" y="8.200" width="1.025" height="1.025" fill="#000000" />
<rect x="15.375" y="8.200" width="1.025" height="1.025" fill="#000000" />
<rect x="16.400" y="8.200" width="1.025" height="1.025" fill="#000000" />
<rect x="17.425" y="8.200" width="1.025" height="1.025" fill="#000000" />
<rect x="18.450" y="8.200" width="1.025" height="1.025" fill="#000000" />
<rect x="19.475" y="8.200" width="1.025" height="1.025" fill="#000000" />
<rect x="20.500" y="8.200" width="1.025" height="1.025" fill="#000000" />
<rect x="21.525" y="8.200" width="1.025" height="1.025" fill="#000000" />
<rect x="22.550" y="8.200" width="1.025" height="1.025" fill="#000000" />
<rect x="23.575" y="8.200" width="1.025" height="1.025" fill="#000909" />
<rect x="24.600" y="8.200" width="1.025" height="1.025" fill="#00fcff" />
<rect x="4.100" y="9.225" width="1.025" height="1.025" fill="#00a0a2" />
<rect x="5.125" y="9.225" width="1.025" height="1.025" fill="#000101" />
<rect x="6.150" y="9.225" width="1.025" height="1.025" fill="#ff00d8" />
<rect x="7.175" y="9.225" width="1.025" height="1.025" fill="#00fcff" />
<rect x="8.200" y="9.225" width="1.025" height="1.025" fill="#000101" />
<rect x="11.275" y="9.225" width="1.025" height="1.025" fill="#000101" />
<rect x="12.300" y="9.225" width="1.025" height="1.025" fill="#002727" />
<rect x="13.325" y="9.225" width="1.025" height="1.025" fill="#002727" />
<rect x="14.350" y="9.225" width="1.025" height="1.025" fill="#000000" />
<rect x="15.375" y="9.225" width="1.025" height="1.025" fill="#000000" />
<rect x="16.400" y="9.225" width="1.025" height="1.025" fill="#000000" />
<rect x="17.425" y="9.225" width="1.025" height="1.025" fill="#00fcff" />
<rect x="18.450" y="9.225" width="1.025" height="1.025" fill="#006b6d" />
<rect x="19.475" y="9.225" width="1.025" height="1.025" fill="#006b6d" />
<rect x="20.500" y="9.225" width="1.025" height="1.025" fill="#006b6d" />
<rect x="21.525" y="9.225" width="1.025" height="1.025" fill="#006b6d" />
<rect x="22.550" y="9.225" width="1.025" height="1.025" fill="#006b6d" />
<rect x="23.575" y="9.225" width="1.025" height="1.025" fill="#00fcff" />
<rect x="24.600" y="9.225" width="1.025" height="1.025" fill="#ff00d8" />
<rect x="25.625" y="9.225" width="1.025" height="1.025" fill="#000000" />
<rect x="4.100" y="10.250" width="1.025" height="1.025" fill="#00d7da" />
<rect x="5.125" y="10.250" width="1.025" height="1.025" fill="#006061" />
<rect x="6.150" y="10.250" width="1.025" height="1.025" fill="#ff00d8" />
<rect x="7.175" y="10.250" width="1.025" height="1.025" fill="#00eff2" />
<rect x="11.275" y="10.250" width="1.025" height="1.025" fill="#003d3e" />
<rect x="12.300" y="10.250" width="1.025" height="1.025" fill="#9cd5f6" />
<rect x="13.325" y="10.250" width="1.025" height="1.025" fill="#003232" />
<rect x="14.350" y="10.250" width="1.025" height="1.025" fill="#000000" />
<rect x="15.375" y="10.250" width="1.025" height="1.025" fill="#000000" />
<rect x="16.400" y="10.250" width="1.025" height="1.025" fill="#00fcff" />
<rect x="17.425" y="10.250" width="1.025" height="1.025" fill="#000000" fill-opacity="0.514" />
<rect x="18.450" y="10.250" width="1.025" height="1.025" fill="#000000" fill-opacity="0.514" />
<rect x="19.475" y="10.250" width="1.025" height="1.025" fill="#000000" fill-opacity="0.514" />
<rect x="20.500" y="10.250" width="1.025" height="1.025" fill="#000000" fill-opacity="0.514" />
<rect x="21.525" y="10.250" width="1.025" height="1.025" fill="#000000" fill-opacity="0.514" />
<rect x="22.550" y="10.250" width="1.025" height="1.025" fill="#000000" fill-opacity="0.514" />
<rect x="23.575" y="10.250" width="1.025" height="1.025" fill="#000909" fill-opacity="0.992" />
<rect x="24.600" y="10.250" width="1.025" height="1.025" fill="#003232" />
<rect x="4.100" y="11.275" width="1.025" height="1.025" fill="#000000" />
<rect x="5.125" y="11.275" width="1.025" height="1.025" fill="#006061" />
<rect x="6.150" y="11.275" width="1.025" height="1.025" fill="#00eff2" />
<rect x="7.175" y="11.275" width="1.025" height="1.025" fill="#000101" />
<rect x="10.250" y="11.275" width="1.025" height="1.025" fill="#000000" />
<rect x="11.275" y="11.275" width="1.025" height="1.025" fill="#00fcff" />
<rect x="12.300" y="11.275" width="1.025" height="1.025" fill="#002727" />
<rect x="13.325" y="11.275" width="1.025" height="1.025" fill="#003232" />
<rect x="14.350" y="11.275" width="1.025" height="1.025" fill="#000000" />
<rect x="15.375" y="11.275" width="1.025" height="1.025" fill="#00fcff" />
<rect x="16.400" y="11.275" width="1.025" height="1.025" fill="#000000" fill-opacity="0.514" />
<rect x="24.600" y="11.275" width="1.025" height="1.025" fill="#ff06d8" />
<rect x="25.625" y="11.275" width="1.025" height="1.025" fill="#000101" />
<rect x="5.125" y="12.300" width="1.025" height="1.025" fill="#000101" />
<rect x="11.275" y="12.300" width="1.025" height="1.025" fill="#00fcff" />
<rect x="12.300" y="12.300" width="1.025" height="1.025" fill="#9cd5f6" />
<rect x="13.325" y="12.300" width="1.025" height="1.025" fill="#00eff2" />
<rect x="14.350" y="12.300" width="1.025" height="1.025" fill="#00fcff" />
<rect x="15.375" y="12.300" width="1.025" height="1.025" fill="#000000" fill-opacity="0.514" />
<rect x="24.600" y="12.300" width="1.025" height="1.025" fill="#00fcff" />
<rect x="10.250" y="13.325" width="1.025" height="1.025" fill="#000000" />
<rect x="11.275" y="13.325" width="1.025" height="1.025" fill="#00fcff" />
<rect x="12.300" y="13.325" width="1.025" height="1.025" fill="#002727" />
<rect x="13.325" y="13.325" width="1.025" height="1.025" fill="#000101" />
<rect x="14.350" y="13.325" width="1.025" height="1.025" fill="#00fcff" />
<rect x="15.375" y="13.325" width="1.025" height="1.025" fill="#000000" fill-opacity="0.514" />
<rect x="24.600" y="13.325" width="1.025" height="1.025" fill="#009294" />
<rect x="11.275" y="14.350" width="1.025" height="1.025" fill="#004849" />
<rect x="12.300" y="14.350" width="1.025" height="1.025" fill="#009294" />
<rect x="13.325" y="14.350" width="1.025" height="1.025" fill="#006061" />
<rect x="14.350" y="14.350" width="1.025" height="1.025" fill="#00fcff" />
<rect x="15.375" y="14.350" width="1.025" height="1.025" fill="#000000" fill-opacity="0.514" />
<rect x="24.600" y="14.350" width="1.025" height="1.025" fill="#c6b2ee" />
<rect x="25.625" y="14.350" width="1.025" height="1.025" fill="#000000" />
<rect x="10.250" y="15.375" width="1.025" height="1.025" fill="#000101" />
<rect x="11.275" y="15.375" width="1.025" height="1.025" fill="#00fcff" />
<rect x="12.300" y="15.375" width="1.025" height="1.025" fill="#00eff2" />
<rect x="13.325" y="15.375" width="1.025" height="1.025" fill="#009294" />
<rect x="14.350" y="15.375" width="1.025" height="1.025" fill="#00fcff" />
<rect x="15.375" y="15.375" width="1.025" height="1.025" fill="#000000" fill-opacity="0.514" />
<rect x="24.600" y="15.375" width="1.025" height="1.025" fill="#ff00d8" />
<rect x="25.625" y="15.375" width="1.025" height="1.025" fill="#000101" />
<rect x="10.250" y="16.400" width="1.025" height="1.025" fill="#000101" />
<rect x="11.275" y="16.400" width="1.025" height="1.025" fill="#00f9fc" />
<rect x="12.300" y="16.400" width="1.025" height="1.025" fill="#000101" />
<rect x="13.325" y="16.400" width="1.025" height="1.025" fill="#006061" />
<rect x="14.350" y="16.400" width="1.025" height="1.025" fill="#00fcff" />
<rect x="15.375" y="16.400" width="1.025" height="1.025" fill="#000000" fill-opacity="0.514" />
<rect x="24.600" y="16.400" width="1.025" height="1.025" fill="#009294" />
<rect x="11.275" y="17.425" width="1.025" height="1.025" fill="#00fcff" />
<rect x="12.300" y="17.425" width="1.025" height="1.025" fill="#009294" />
<rect x="13.325" y="17.425" width="1.025" height="1.025" fill="#006061" />
<rect x="14.350" y="17.425" width="1.025" height="1.025" fill="#00fcff" />
<rect x="15.375" y="17.425" width="1.025" height="1.025" fill="#000000" fill-opacity="0.514" />
<rect x="24.600" y="17.425" width="1.025" height="1.025" fill="#00fcff" />
<rect x="10.250" y="18.450" width="1.025" height="1.025" fill="#000101" />
<rect x="11.275" y="18.450" width="1.025" height="1.025" fill="#00fcff" />
<rect x="12.300" y="18.450" width="1.025" height="1.025" fill="#000303" />
<rect x="13.325" y="18.450" width="1.025" height="1.025" fill="#009294" />
<rect x="14.350" y="18.450" width="1.025" height="1.025" fill="#00fcff" />
<rect x="15.375" y="18.450" width="1.025" height="1.025" fill="#000000" fill-opacity="0.514" />
<rect x="24.600" y="18.450" width="1.025" height="1.025" fill="#00fcff" />
<rect x="25.625" y="18.450" width="1.025" height="1.025" fill="#000101" />
<rect x="10.250" y="19.475" width="1.025" height="1.025" fill="#000101" />
<rect x="11.275" y="19.475" width="1.025" height="1.025" fill="#00fcff" />
<rect x="12.300" y="19.475" width="1.025" height="1.025" fill="#00fcff" />
<rect x="13.325" y="19.475" width="1.025" height="1.025" fill="#009294" />
<rect x="14.350" y="19.475" width="1.025" height="1.025" fill="#004849" />
<rect x="15.375" y="19.475" width="1.025" height="1.025" fill="#000000" fill-opacity="0.514" />
<rect x="24.600" y="19.475" width="1.025" height="1.025" fill="#88e0f9" />
<rect x="11.275" y="20.500" width="1.025" height="1.025" fill="#000101" />
<rect x="12.300" y="20.500" width="1.025" height="1.025" fill="#ff00d8" />
<rect x="13.325" y="20.500" width="1.025" height="1.025" fill="#000303" />
<rect x="14.350" y="20.500" width="1.025" height="1.025" fill="#008587" />
<rect x="15.375" y="20.500" width="1.025" height="1.025" fill="#000000" fill-opacity="0.514" />
<rect x="24.600" y="20.500" width="1.025" height="1.025" fill="#eaff00" />
<rect x="11.275" y="21.525" width="1.025" height="1.025" fill="#000101" />
<rect x="12.300" y="21.525" width="1.025" height="1.025" fill="#00fcff" />
<rect x="13.325" y="21.525" width="1.025" height="1.025" fill="#003d3e" />
<rect x="14.350" y="21.525" width="1.025" height="1.025" fill="#006b6d" />
<rect x="15.375" y="21.525" width="1.025" height="1.025" fill="#000000" fill-opacity="0.514" />
<rect x="24.600" y="21.525" width="1.025" height="1.025" fill="#00a0a2" />
<rect x="25.625" y="21.525" width="1.025" height="1.025" fill="#000000" />
<rect x="12.300" y="22.550" width="1.025" height="1.025" fill="#000000" />
<rect x="13.325" y="22.550" width="1.025" height="1.025" fill="#000101" />
<rect x="14.350" y="22.550" width="1.025" height="1.025" fill="#00fcff" />
<rect x="15.375" y="22.550" width="1.025" height="1.025" fill="#003232" />
<rect x="16.400" y="22.550" width="1.025" height="1.025" fill="#000000" fill-opacity="0.514" />
<rect x="23.575" y="22.550" width="1.025" height="1.025" fill="#00fcff" />
<rect x="24.600" y="22.550" width="1.025" height="1.025" fill="#ff00d8" />
<rect x="12.300" y="23.575" width="1.025" height="1.025" fill="#00eff2" />
<rect x="13.325" y="23.575" width="1.025" height="1.025" fill="#00eff2" />
<rect x="14.350" y="23.575" width="1.025" height="1.025" fill="#ff00d8" />
<rect x="15.375" y="23.575" width="1.025" height="1.025" fill="#eaff00" />
<rect x="16.400" y="23.575" width="1.025" height="1.025" fill="#00fcff" />
<rect x="23.575" y="23.575" width="1.025" height="1.025" fill="#eaff00" />
<rect x="24.600" y="23.575" width="1.025" height="1.025" fill="#000000" />
<rect x="12.300" y="24.600" width="1.025" height="1.025" fill="#000101" />
<rect x="13.325" y="24.600" width="1.025" height="1.025" fill="#000101" />
<rect x="14.350" y="24.600" width="1.025" height="1.025" fill="#00fcff" />
<rect x="15.375" y="24.600" width="1.025" height="1.025" fill="#000909" />
<rect x="16.400" y="24.600" width="1.025" height="1.025" fill="#ff00d8" />
<rect x="17.425" y="24.600" width="1.025" height="1.025" fill="#eaff00" />
<rect x="18.450" y="24.600" width="1.025" height="1.025" fill="#00eff2" />
<rect x="19.475" y="24.600" width="1.025" height="1.025" fill="#000303" />
<rect x="20.500" y="24.600" width="1.025" height="1.025" fill="#eaff00" />
<rect x="21.525" y="24.600" width="1.025" height="1.025" fill="#ff00d8" />
<rect x="22.550" y="24.600" width="1.025" height="1.025" fill="#006061" />
<rect x="23.575" y="24.600" width="1.025" height="1.025" fill="#000101" />
<rect x="12.300" y="25.625" width="1.025" height="1.025" fill="#000101" />
<rect x="13.325" y="25.625" width="1.025" height="1.025" fill="#003d3e" />
<rect x="14.350" y="25.625" width="1.025" height="1.025" fill="#003232" />
<rect x="15.375" y="25.625" width="1.025" height="1.025" fill="#000000" />
<rect x="16.400" y="25.625" width="1.025" height="1.025" fill="#003232" />
<rect x="17.425" y="25.625" width="1.025" height="1.025" fill="#000000" />
<rect x="18.450" y="25.625" width="1.025" height="1.025" fill="#000000" />
<rect x="19.475" y="25.625" width="1.025" height="1.025" fill="#000000" />
<rect x="12.300" y="26.650" width="1.025" height="1.025" fill="#000000" />
<rect x="13.325" y="26.650" width="1.025" height="1.025" fill="#acc9f3" />
<rect x="14.350" y="26.650" width="1.025" height="1.025" fill="#000000" />
<rect x="15.375" y="26.650" width="1.025" height="1.025" fill="#000000" />
<rect x="16.400" y="26.650" width="1.025" height="1.025" fill="#000000" />
<rect x="17.425" y="26.650" width="1.025" height="1.025" fill="#ff00d8" />
<rect x="18.450" y="26.650" width="1.025" height="1.025" fill="#003d3e" />
<rect x="11.275" y="27.675" width="1.025" height="1.025" fill="#000000" />
<rect x="12.300" y="27.675" width="1.025" height="1.025" fill="#000000" />
<rect x="13.325" y="27.675" width="1.025" height="1.025" fill="#003232" />
<rect x="14.350" y="27.675" width="1.025" height="1.025" fill="#000000" />
<rect x="15.375" y="27.675" width="1.025" height="1.025" fill="#000909" />
<rect x="16.400" y="27.675" width="1.025" height="1.025" fill="#000000" />
<rect x="17.425" y="27.675" width="1.025" height="1.025" fill="#00fcff" />
<rect x="18.450" y="27.675" width="1.025" height="1.025" fill="#003d3e" />
<rect x="19.475" y="27.675" width="1.025" height="1.025" fill="#000101" />
<rect x="21.525" y="27.675" width="1.025" height="1.025" fill="#000101" />
<rect x="9.225" y="28.700" width="1.025" height="1.025" fill="#000000" />
<rect x="10.250" y="28.700" width="1.025" height="1.025" fill="#000000" />
<rect x="11.275" y="28.700" width="1.025" height="1.025" fill="#006b6d" />
<rect x="12.300" y="28.700" width="1.025" height="1.025" fill="#009294" />
<rect x="13.325" y="28.700" width="1.025" height="1.025" fill="#003232" />
<rect x="14.350" y="28.700" width="1.025" height="1.025" fill="#000909" />
<rect x="15.375" y="28.700" width="1.025" height="1.025" fill="#000000" />
<rect x="16.400" y="28.700" width="1.025" height="1.025" fill="#003232" />
<rect x="17.425" y="28.700" width="1.025" height="1.025" fill="#ff00d8" />
<rect x="18.450" y="28.700" width="1.025" height="1.025" fill="#001b1c" />
<rect x="19.475" y="28.700" width="1.025" height="1.025" fill="#00fcff" />
<rect x="20.500" y="28.700" width="1.025" height="1.025" fill="#00fcff" />
<rect x="21.525" y="28.700" width="1.025" height="1.025" fill="#000000" />
<rect x="22.550" y="28.700" width="1.025" height="1.025" fill="#000000" />
<rect x="24.600" y="28.700" width="1.025" height="1.025" fill="#000101" />
<rect x="6.150" y="29.725" width="1.025" height="1.025" fill="#000101" />
<rect x="8.200" y="29.725" width="1.025" height="1.025" fill="#000000" />
<rect x="9.225" y="29.725" width="1.025" height="1.025" fill="#006061" />
<rect x="10.250" y="29.725" width="1.025" height="1.025" fill="#00fcff" />
<rect x="11.275" y="29.725" width="1.025" height="1.025" fill="#002727" />
<rect x="12.300" y="29.725" width="1.025" height="1.025" fill="#002727" />
<rect x="13.325" y="29.725" width="1.025" height="1.025" fill="#005455" />
<rect x="14.350" y="29.725" width="1.025" height="1.025" fill="#002727" />
<rect x="15.375" y="29.725" width="1.025" height="1.025" fill="#002727" />
<rect x="16.400" y="29.725" width="1.025" height="1.025" fill="#006b6d" />
<rect x="17.425" y="29.725" width="1.025" height="1.025" fill="#00fcff" />
<rect x="18.450" y="29.725" width="1.025" height="1.025" fill="#002727" />
<rect x="19.475" y="29.725" width="1.025" height="1.025" fill="#003232" />
<rect x="20.500" y="29.725" width="1.025" height="1.025" fill="#006061" />
<rect x="21.525" y="29.725" width="1.025" height="1.025" fill="#006b6d" />
<rect x="22.550" y="29.725" width="1.025" height="1.025" fill="#007879" />
<rect x="23.575" y="29.725" width="1.025" height="1.025" fill="#00fcff" />
<rect x="24.600" y="29.725" width="1.025" height="1.025" fill="#000000" />
<rect x="25.625" y="29.725" width="1.025" height="1.025" fill="#000101" />
<rect x="7.175" y="30.750" width="1.025" height="1.025" fill="#00fcff" />
<rect x="8.200" y="30.750" width="1.025" height="1.025" fill="#00fcff" />
<rect x="9.225" y="30.750" width="1.025" height="1.025" fill="#000909" />
<rect x="10.250" y="30.750" width="1.025" height="1.025" fill="#000909" />
<rect x="11.275" y="30.750" width="1.025" height="1.025" fill="#003232" />
<rect x="12.300" y="30.750" width="1.025" height="1.025" fill="#001b1c" />
<rect x="13.325" y="30.750" width="1.025" height="1.025" fill="#000909" />
<rect x="14.350" y="30.750" width="1.025" height="1.025" fill="#000303" />
<rect x="15.375" y="30.750" width="1.025" height="1.025" fill="#000909" />
<rect x="16.400" y="30.750" width="1.025" height="1.025" fill="#000303" />
<rect x="17.425" y="30.750" width="1.025" height="1.025" fill="#ff00d8" />
<rect x="18.450" y="30.750" width="1.025" height="1.025" fill="#000909" />
<rect x="19.475" y="30.750" width="1.025" height="1.025" fill="#000303" />
<rect x="20.500" y="30.750" width="1.025" height="1.025" fill="#000303" />
<rect x="21.525" y="30.750" width="1.025" height="1.025" fill="#000101" />
<rect x="22.550" y="30.750" width="1.025" height="1.025" fill="#000909" />
<rect x="23.575" y="30.750" width="1.025" height="1.025" fill="#00f9fc" />
<rect x="24.600" y="30.750" width="1.025" height="1.025" fill="#007879" />
<rect x="25.625" y="30.750" width="1.025" height="1.025" fill="#babdf1" />
<rect x="26.650" y="30.750" width="1.025" height="1.025" fill="#000101" />
<rect x="5.125" y="31.775" width="1.025" height="1.025" fill="#00fcff" />
<rect x="6.150" y="31.775" width="1.025" height="1.025" fill="#00fcff" />
<rect x="7.175" y="31.775" width="1.025" height="1.025" fill="#000101" />
<rect x="8.200" y="31.775" width="1.025" height="1.025" fill="#000101" />
<rect x="9.225" y="31.775" width="1.025" height="1.025" fill="#000000" />
<rect x="10.250" y="31.775" width="1.025" height="1.025" fill="#000000" />
<rect x="11.275" y="31.775" width="1.025" height="1.025" fill="#000101" />
<rect x="12.300" y="31.775" width="1.025" height="1.025" fill="#000000" />
<rect x="13.325" y="31.775" width="1.025" height="1.025" fill="#000000" />
<rect x="14.350" y="31.775" width="1.025" height="1.025" fill="#000000" />
<rect x="15.375" y="31.775" width="1.025" height="1.025" fill="#000000" />
<rect x="16.400" y="31.775" width="1.025" height="1.025" fill="#000000" />
<rect x="17.425" y="31.775" width="1.025" height="1.025" fill="#00fcff" />
<rect x="18.450" y="31.775" width="1.025" height="1.025" fill="#000000" />
<rect x="19.475" y="31.775" width="1.025" height="1.025" fill="#000000" />
<rect x="20.500" y="31.775" width="1.025" height="1.025" fill="#000000" />
<rect x="21.525" y="31.775" width="1.025" height="1.025" fill="#000000" />
<rect x="22.550" y="31.775" width="1.025" height="1.025" fill="#000000" />
<rect x="23.575" y="31.775" width="1.025" height="1.025" fill="#000000" />
<rect x="24.600" y="31.775" width="1.025" height="1.025" fill="#001b1c" />
<rect x="25.625" y="31.775" width="1.025" height="1.025" fill="#001b1c" />
<rect x="26.650" y="31.775" width="1.025" height="1.025" fill="#00eff2" />
<rect x="27.675" y="31.775" width="1.025" height="1.025" fill="#000000" />
<rect x="4.100" y="32.800" width="1.025" height="1.025" fill="#000000" />
<rect x="5.125" y="32.800" width="1.025" height="1.025" fill="#00aeb0" />
<rect x="6.150" y="32.800" width="1.025" height="1.025" fill="#000101" />
<rect x="7.175" y="32.800" width="1.025" height="1.025" fill="#003d3e" />
<rect x="8.200" y="32.800" width="1.025" height="1.025" fill="#000101" />
<rect x="9.225" y="32.800" width="1.025" height="1.025" fill="#002020" />
<rect x="10.250" y="32.800" width="1.025" height="1.025" fill="#000000" />
<rect x="11.275" y="32.800" width="1.025" height="1.025" fill="#000101" />
<rect x="12.300" y="32.800" width="1.025" height="1.025" fill="#000000" />
<rect x="13.325" y="32.800" width="1.025" height="1.025" fill="#000000" />
<rect x="14.350" y="32.800" width="1.025" height="1.025" fill="#000000" />
<rect x="15.375" y="32.800" width="1.025" height="1.025" fill="#000000" />
<rect x="16.400" y="32.800" width="1.025" height="1.025" fill="#000000" />
<rect x="17.425" y="32.800" width="1.025" height="1.025" fill="#eaff00" />
<rect x="18.450" y="32.800" width="1.025" height="1.025" fill="#000000" />
<rect x="19.475" y="32.800" width="1.025" height="1.025" fill="#000000" />
<rect x="20.500" y="32.800" width="1.025" height="1.025" fill="#000000" />
<rect x="21.525" y="32.800" width="1.025" height="1.025" fill="#000000" />
<rect x="22.550" y="32.800" width="1.025" height="1.025" fill="#000000" />
<rect x="23.575" y="32.800" width="1.025" height="1.025" fill="#000000" />
<rect x="24.600" y="32.800" width="1.025" height="1.025" fill="#002d2d" />
<rect x="25.625" y="32.800" width="1.025" height="1.025" fill="#003232" />
<rect x="26.650" y="32.800" width="1.025" height="1.025" fill="#000101" />
<rect x="27.675" y="32.800" width="1.025" height="1.025" fill="#007879" />
<rect x="28.700" y="32.800" width="1.025" height="1.025" fill="#000101" />
<rect x="5.125" y="33.825" width="1.025" height="1.025" fill="#c6b2ee" />
<rect x="6.150" y="33.825" width="1.025" height="1.025" fill="#000000" />
<rect x="7.175" y="33.825" width="1.025" height="1.025" fill="#003d3e" />
<rect x="8.200" y="33.825" width="1.025" height="1.025" fill="#000000" />
<rect x="9.225" y="33.825" width="1.025" height="1.025" fill="#002d2d" />
<rect x="10.250" y="33.825" width="1.025" height="1.025" fill="#003434" />
<rect x="11.275" y="33.825" width="1.025" height="1.025" fill="#003232" />
<rect x="12.300" y="33.825" width="1.025" height="1.025" fill="#000000" />
<rect x="13.325" y="33.825" width="1.025" height="1.025" fill="#000000" />
<rect x="14.350" y="33.825" width="1.025" height="1.025" fill="#000000" />
<rect x="15.375" y="33.825" width="1.025" height="1.025" fill="#000000" />
<rect x="16.400" y="33.825" width="1.025" height="1.025" fill="#000000" />
<rect x="17.425" y="33.825" width="1.025" height="1.025" fill="#00fcff" />
<rect x="18.450" y="33.825" width="1.025" height="1.025" fill="#000000" />
<rect x="19.475" y="33.825" width="1.025" height="1.025" fill="#000000" />
<rect x="20.500" y="33.825" width="1.025" height="1.025" fill="#000000" />
<rect x="21.525" y="33.825" width="1.025" height="1.025" fill="#000000" />
<rect x="22.550" y="33.825" width="1.025" height="1.025" fill="#000000" />
<rect x="23.575" y="33.825" width="1.025" height="1.025" fill="#001b1c" />
<rect x="24.600" y="33.825" width="1.025" height="1.025" fill="#003a3a" />
<rect x="25.625" y="33.825" width="1.025" height="1.025" fill="#003333" />
<rect x="26.650" y="33.825" width="1.025" height="1.025" fill="#000101" />
<rect x="27.675" y="33.825" width="1.025" height="1.025" fill="#c6b2ee" />
<rect x="4.100" y="34.850" width="1.025" height="1.025" fill="#000000" />
<rect x="5.125" y="34.850" width="1.025" height="1.025" fill="#00d7da" />
<rect x="6.150" y="34.850" width="1.025" height="1.025" fill="#000909" />
<rect x="7.175" y="34.850" width="1.025" height="1.025" fill="#000000" />
<rect x="8.200" y="34.850" width="1.025" height="1.025" fill="#000909" />
<rect x="9.225" y="34.850" width="1.025" height="1.025" fill="#004646" />
<rect x="10.250" y="34.850" width="1.025" height="1.025" fill="#8cad14" />
<rect x="11.275" y="34.850" width="1.025" height="1.025" fill="#005e5e" />
<rect x="12.300" y="34.850" width="1.025" height="1.025" fill="#000000" />
<rect x="13.325" y="34.850" width="1.025" height="1.025" fill="#000000" />
<rect x="14.350" y="34.850" width="1.025" height="1.025" fill="#000000" />
<rect x="15.375" y="34.850" width="1.025" height="1.025" fill="#000000" />
<rect x="16.400" y="34.850" width="1.025" height="1.025" fill="#000000" />
<rect x="17.425" y="34.850" width="1.025" height="1.025" fill="#eaff00" />
<rect x="18.450" y="34.850" width="1.025" height="1.025" fill="#000000" />
<rect x="19.475" y="34.850" width="1.025" height="1.025" fill="#000000" />
<rect x="20.500" y="34.850" width="1.025" height="1.025" fill="#000000" />
<rect x="21.525" y="34.850" width="1.025" height="1.025" fill="#000000" />
<rect x="22.550" y="34.850" width="1.025" height="1.025" fill="#000909" />
<rect x="23.575" y="34.850" width="1.025" height="1.025" fill="#00acae" />
<rect x="24.600" y="34.850" width="1.025" height="1.025" fill="#196c82" />
<rect x="25.625" y="34.850" width="1.025" height="1.025" fill="#003939" />
<rect x="26.650" y="34.850" width="1.025" height="1.025" fill="#000000" />
<rect x="27.675" y="34.850" width="1.025" height="1.025" fill="#006061" />
<rect x="28.700" y="34.850" width="1.025" height="1.025" fill="#000000" />
<rect x="3.075" y="35.875" width="1.025" height="1.025" fill="#000101" />
<rect x="4.100" y="35.875" width="1.025" height="1.025" fill="#000101" />
<rect x="5.125" y="35.875" width="1.025" height="1.025" fill="#003232" />
<rect x="6.150" y="35.875" width="1.025" height="1.025" fill="#001b1c" />
<rect x="7.175" y="35.875" width="1.025" height="1.025" fill="#003d3e" />
<rect x="8.200" y="35.875" width="1.025" height="1.025" fill="#001b1c" />
<rect x="9.225" y="35.875" width="1.025" height="1.025" fill="#003b3b" />
<rect x="10.250" y="35.875" width="1.025" height="1.025" fill="#dcff00" />
<rect x="11.275" y="35.875" width="1.025" height="1.025" fill="#5c226e" />
<rect x="12.300" y="35.875" width="1.025" height="1.025" fill="#000000" />
<rect x="13.325" y="35.875" width="1.025" height="1.025" fill="#000000" />
<rect x="14.350" y="35.875" width="1.025" height="1.025" fill="#000000" />
<rect x="15.375" y="35.875" width="1.025" height="1.025" fill="#000000" />
<rect x="16.400" y="35.875" width="1.025" height="1.025" fill="#000000" />
<rect x="17.425" y="35.875" width="1.025" height="1.025" fill="#00fcff" />
<rect x="18.450" y="35.875" width="1.025" height="1.025" fill="#000000" />
<rect x="19.475" y="35.875" width="1.025" height="1.025" fill="#000000" />
<rect x="20.500" y="35.875" width="1.025" height="1.025" fill="#000000" />
<rect x="21.525" y="35.875" width="1.025" height="1.025" fill="#000000" />
<rect x="22.550" y="35.875" width="1.025" height="1.025" fill="#001b1c" />
<rect x="23.575" y="35.875" width="1.025" height="1.025" fill="#00c4c6" />
<rect x="24.600" y="35.875" width="1.025" height="1.025" fill="#eaff00" />
<rect x="25.625" y="35.875" width="1.025" height="1.025" fill="#003939" />
<rect x="26.650" y="35.875" width="1.025" height="1.025" fill="#002e2e" />
<rect x="27.675" y="35.875" width="1.025" height="1.025" fill="#002727" />
<rect x="28.700" y="35.875" width="1.025" height="1.025" fill="#000101" />
<rect x="4.100" y="36.900" width="1.025" height="1.025" fill="#000000" />
<rect x="5.125" y="36.900" width="1.025" height="1.025" fill="#00bcbf" />
<rect x="6.150" y="36.900" width="1.025" height="1.025" fill="#000000" />
<rect x="7.175" y="36.900" width="1.025" height="1.025" fill="#003232" />
<rect x="8.200" y="36.900" width="1.025" height="1.025" fill="#000303" />
<rect x="9.225" y="36.900" width="1.025" height="1.025" fill="#004d4d" />
<rect x="10.250" y="36.900" width="1.025" height="1.025" fill="#86ff03" />
<rect x="11.275" y="36.900" width="1.025" height="1.025" fill="#88669e" />
<rect x="12.300" y="36.900" width="1.025" height="1.025" fill="#000000" />
<rect x="13.325" y="36.900" width="1.025" height="1.025" fill="#000000" />
<rect x="14.350" y="36.900" width="1.025" height="1.025" fill="#000000" />
<rect x="15.375" y="36.900" width="1.025" height="1.025" fill="#000000" />
<rect x="16.400" y="36.900" width="1.025" height="1.025" fill="#000000" />
<rect x="17.425" y="36.900" width="1.025" height="1.025" fill="#012a00" />
<rect x="18.450" y="36.900" width="1.025" height="1.025" fill="#000000" />
<rect x="19.475" y="36.900" width="1.025" height="1.025" fill="#000000" />
<rect x="20.500" y="36.900" width="1.025" height="1.025" fill="#000000" />
<rect x="21.525" y="36.900" width="1.025" height="1.025" fill="#000000" />
<rect x="22.550" y="36.900" width="1.025" height="1.025" fill="#000303" />
<rect x="23.575" y="36.900" width="1.025" height="1.025" fill="#009b9c" />
<rect x="24.600" y="36.900" width="1.025" height="1.025" fill="#eaff00" />
<rect x="25.625" y="36.900" width="1.025" height="1.025" fill="#02787a" />
<rect x="26.650" y="36.900" width="1.025" height="1.025" fill="#001b1c" />
<rect x="27.675" y="36.900" width="1.025" height="1.025" fill="#00fcff" />
<rect x="28.700" y="36.900" width="1.025" height="1.025" fill="#000101" />
</svg>