<svg xmlns="http://www.w3.org/2000/svg" width="37.925" height="37.925" shape-rendering="crispEdges" style="image-rendering: pixelated;">
<rect x="12.300" y="27.675" width="1.025" height="1.025" fill="#00fcff" />
<rect x="19.475" y="27.675" width="1.025" height="1.025" fill="#00e2e5" />
<rect x="20.500" y="27.675" width="1.025" height="1.025" fill="#00fcff" />
<rect x="11.275" y="28.700" width="1.025" height="1.025" fill="#00fcff" />
<rect x="12.300" y="28.700" width="1.025" height="1.025" fill="#7cff04" />
<rect x="13.325" y="28.700" width="1.025" height="1.025" fill="#72ff05" />
<rect x="14.350" y="28.700" width="1.025" height="1.025" fill="#00fcff" />
<rect x="15.375" y="28.700" width="1.025" height="1.025" fill="#00fcff" />
<rect x="16.400" y="28.700" width="1.025" height="1.025" fill="#00cfd1" />
<rect x="18.450" y="28.700" width="1.025" height="1.025" fill="#00e3e5" />
<rect x="19.475" y="28.700" width="1.025" height="1.025" fill="#00fcff" />
<rect x="20.500" y="28.700" width="1.025" height="1.025" fill="#ff00d8" />
<rect x="21.525" y="28.700" width="1.025" height="1.025" fill="#00fcff" />
<rect x="9.225" y="29.725" width="1.025" height="1.025" fill="#00fcff" />
<rect x="10.250" y="29.725" width="1.025" height="1.025" fill="#00e3e6" />
<rect x="11.275" y="29.725" width="1.025" height="1.025" fill="#ff00d8" />
<rect x="12.300" y="29.725" width="1.025" height="1.025" fill="#00fcff" />
<rect x="13.325" y="29.725" width="1.025" height="1.025" fill="#f45bde" />
<rect x="14.350" y="29.725" width="1.025" height="1.025" fill="#00fcff" />
<rect x="15.375" y="29.725" width="1.025" height="1.025" fill="#00cfd1" />
<rect x="16.400" y="29.725" width="1.025" height="1.025" fill="#c3ff00" />
<rect x="17.425" y="29.725" width="1.025" height="1.025" fill="#00fcff" />
<rect x="18.450" y="29.725" width="1.025" height="1.025" fill="#ff00d8" />
<rect x="19.475" y="29.725" width="1.025" height="1.025" fill="#00d8da" />
<rect x="20.500" y="29.725" width="1.025" height="1.025" fill="#f45bde" />
<rect x="21.525" y="29.725" width="1.025" height="1.025" fill="#00e4e7" />
<rect x="22.550" y="29.725" width="1.025" height="1.025" fill="#00dbde" />
<rect x="23.575" y="29.725" width="1.025" height="1.025" fill="#00fcff" />
<rect x="7.175" y="30.750" width="1.025" height="1.025" fill="#00fcff" />
<rect x="8.200" y="30.750" width="1.025" height="1.025" fill="#00fcff" />
<rect x="9.225" y="30.750" width="1.025" height="1.025" fill="#ff00d8" />
<rect x="10.250" y="30.750" width="1.025" height="1.025" fill="#ff00d8" />
<rect x="11.275" y="30.750" width="1.025" height="1.025" fill="#ff00d8" />
<rect x="12.300" y="30.750" width="1.025" height="1.025" fill="#00d3d6" />
<rect x="13.325" y="30.750" width="1.025" height="1.025" fill="#00fcff" />
<rect x="14.350" y="30.750" width="1.025" height="1.025" fill="#00dadd" />
<rect x="15.375" y="30.750" width="1.025" height="1.025" fill="#ff00d8" />
<rect x="16.400" y="30.750" width="1.025" height="1.025" fill="#ff00d8" />
<rect x="17.425" y="30.750" width="1.025" height="1.025" fill="#00fcff" />
<rect x="18.450" y="30.750" width="1.025" height="1.025" fill="#00fcff" />
<rect x="19.475" y="30.750" width="1.025" height="1.025" fill="#ff00d8" />
<rect x="20.500" y="30.750" width="1.025" height="1.025" fill="#00d8da" />
<rect x="21.525" y="30.750" width="1.025" height="1.025" fill="#ff00d8" />
<rect x="22.550" y="30.750" width="1.025" height="1.025" fill="#00fcff" />
<rect x="23.575" y="30.750" width="1.025" height="1.025" fill="#88e0f9" />
<rect x="24.600" y="30.750" width="1.025" height="1.025" fill="#00f0f3" />
<rect x="25.625" y="30.750" width="1.025" height="1.025" fill="#00fcff" />
<rect x="6.150" y="31.775" width="1.025" height="1.025" fill="#ff00d8" />
<rect x="7.175" y="31.775" width="1.025" height="1.025" fill="#bfb9f0" />
<rect x="8.200" y="31.775" width="1.025" height="1.025" fill="#ff00d8" />
<rect x="9.225" y="31.775" width="1.025" height="1.025" fill="#ff00d8" />
<rect x="10.250" y="31.775" width="1.025" height="1.025" fill="#ff00d8" />
<rect x="11.275" y="31.775" width="1.025" height="1.025" fill="#ff00d8" />
<rect x="12.300" y="31.775" width="1.025" height="1.025" fill="#ff00d8" />
<rect x="13.325" y="31.775" width="1.025" height="1.025" fill="#ff00d8" />
<rect x="14.350" y="31.775" width="1.025" height="1.025" fill="#ff00d8" />
<rect x="15.375" y="31.775" width="1.025" height="1.025" fill="#ff00d8" />
<rect x="16.400" y="31.775" width="1.025" height="1.025" fill="#ff00d8" />
<rect x="17.425" y="31.775" width="1.025" height="1.025" fill="#00fcff" />
<rect x="18.450" y="31.775" width="1.025" height="1.025" fill="#ff00d8" />
<rect x="19.475" y="31.775" width="1.025" height="1.025" fill="#ff00d8" />
<rect x="20.500" y="31.775" width="1.025" height="1.025" fill="#c0ff00" />
<rect x="21.525" y="31.775" width="1.025" height="1.025" fill="#72ff05" />
<rect x="22.550" y="31.775" width="1.025" height="1.025" fill="#72ff05" />
<rect x="23.575" y="31.775" width="1.025" height="1.025" fill="#77ff04" />
<rect x="24.600" y="31.775" width="1.025" height="1.025" fill="#c0ff00" />
<rect x="25.625" y="31.775" width="1.025" height="1.025" fill="#ff00d8" />
<rect x="26.650" y="31.775" width="1.025" height="1.025" fill="#00f0f3" />
<rect x="5.125" y="32.800" width="1.025" height="1.025" fill="#ff00d8" />
<rect x="6.150" y="32.800" width="1.025" height="1.025" fill="#d6ff00" />
<rect x="7.175" y="32.800" width="1.025" height="1.025" fill="#dbff00" />
<rect x="8.200" y="32.800" width="1.025" height="1.025" fill="#ff00d8" />
<rect x="9.225" y="32.800" width="1.025" height="1.025" fill="#ff00d8" />
<rect x="10.250" y="32.800" width="1.025" height="1.025" fill="#ff00d8" />
<rect x="11.275" y="32.800" width="1.025" height="1.025" fill="#b4ff00" />
<rect x="12.300" y="32.800" width="1.025" height="1.025" fill="#aaff00" />
<rect x="13.325" y="32.800" width="1.025" height="1.025" fill="#aaff00" />
<rect x="14.350" y="32.800" width="1.025" height="1.025" fill="#aaff00" />
<rect x="15.375" y="32.800" width="1.025" height="1.025" fill="#ff00d8" />
<rect x="16.400" y="32.800" width="1.025" height="1.025" fill="#ff00d8" />
<rect x="17.425" y="32.800" width="1.025" height="1.025" fill="#00fcff" />
<rect x="18.450" y="32.800" width="1.025" height="1.025" fill="#ff00d8" />
<rect x="19.475" y="32.800" width="1.025" height="1.025" fill="#ff00d8" />
<rect x="20.500" y="32.800" width="1.025" height="1.025" fill="#ff00d8" />
<rect x="21.525" y="32.800" width="1.025" height="1.025" fill="#ff00d8" />
<rect x="22.550" y="32.800" width="1.025" height="1.025" fill="#ff00d8" />
<rect x="23.575" y="32.800" width="1.025" height="1.025" fill="#ff00d8" />
<rect x="24.600" y="32.800" width="1.025" height="1.025" fill="#ff00d8" />
<rect x="25.625" y="32.800" width="1.025" height="1.025" fill="#ff00d8" />
<rect x="26.650" y="32.800" width="1.025" height="1.025" fill="#00c8cb" />
<rect x="27.675" y="32.800" width="1.025" height="1.025" fill="#00dddf" />
<rect x="5.125" y="33.825" width="1.025" height="1.025" fill="#003f40" />
<rect x="6.150" y="33.825" width="1.025" height="1.025" fill="#005657" />
<rect x="7.175" y="33.825" width="1.025" height="1.025" fill="#00fcff" />
<rect x="8.200" y="33.825" width="1.025" height="1.025" fill="#72ff05" />
<rect x="9.225" y="33.825" width="1.025" height="1.025" fill="#ff00d8" />
<rect x="10.250" y="33.825" width="1.025" height="1.025" fill="#00fcff" />
<rect x="11.275" y="33.825" width="1.025" height="1.025" fill="#ff00d8" />
<rect x="12.300" y="33.825" width="1.025" height="1.025" fill="#ff00d8" />
<rect x="13.325" y="33.825" width="1.025" height="1.025" fill="#a7ff00" />
<rect x="14.350" y="33.825" width="1.025" height="1.025" fill="#a7ff00" />
<rect x="15.375" y="33.825" width="1.025" height="1.025" fill="#aaff00" />
<rect x="16.400" y="33.825" width="1.025" height="1.025" fill="#aaff00" />
<rect x="17.425" y="33.825" width="1.025" height="1.025" fill="#00fcff" />
<rect x="18.450" y="33.825" width="1.025" height="1.025" fill="#00fcff" />
<rect x="19.475" y="33.825" width="1.025" height="1.025" fill="#ff00d8" />
<rect x="20.500" y="33.825" width="1.025" height="1.025" fill="#ff00d8" />
<rect x="21.525" y="33.825" width="1.025" height="1.025" fill="#ff00d8" />
<rect x="22.550" y="33.825" width="1.025" height="1.025" fill="#ff00d8" />
<rect x="23.575" y="33.825" width="1.025" height="1.025" fill="#ff00d8" />
<rect x="24.600" y="33.825" width="1.025" height="1.025" fill="#00fcff" />
<rect x="25.625" y="33.825" width="1.025" height="1.025" fill="#c0ff00" />
<rect x="26.650" y="33.825" width="1.025" height="1.025" fill="#d4ff00" />
<rect x="27.675" y="33.825" width="1.025" height="1.025" fill="#00e3e5" />
<rect x="5.125" y="34.850" width="1.025" height="1.025" fill="#00fcff" />
<rect x="6.150" y="34.850" width="1.025" height="1.025" fill="#ff00d8" />
<rect x="7.175" y="34.850" width="1.025" height="1.025" fill="#ff00d8" />
<rect x="8.200" y="34.850" width="1.025" height="1.025" fill="#ff00d8" />
<rect x="9.225" y="34.850" width="1.025" height="1.025" fill="#ff00d8" />
<rect x="10.250" y="34.850" width="1.025" height="1.025" fill="#00b9bb" />
<rect x="11.275" y="34.850" width="1.025" height="1.025" fill="#6eebfb" />
<rect x="12.300" y="34.850" width="1.025" height="1.025" fill="#ff00d8" />
<rect x="13.325" y="34.850" width="1.025" height="1.025" fill="#ff00d8" />
<rect x="14.350" y="34.850" width="1.025" height="1.025" fill="#ff00d8" />
<rect x="15.375" y="34.850" width="1.025" height="1.025" fill="#ff00d8" />
<rect x="16.400" y="34.850" width="1.025" height="1.025" fill="#ff00d8" />
<rect x="17.425" y="34.850" width="1.025" height="1.025" fill="#00fcff" />
<rect x="18.450" y="34.850" width="1.025" height="1.025" fill="#c5ff00" />
<rect x="19.475" y="34.850" width="1.025" height="1.025" fill="#adff00" />
<rect x="20.500" y="34.850" width="1.025" height="1.025" fill="#44ff06" />
<rect x="21.525" y="34.850" width="1.025" height="1.025" fill="#ff00d8" />
<rect x="22.550" y="34.850" width="1.025" height="1.025" fill="#ff00d8" />
<rect x="23.575" y="34.850" width="1.025" height="1.025" fill="#ff00d8" />
<rect x="24.600" y="34.850" width="1.025" height="1.025" fill="#000000" />
<rect x="25.625" y="34.850" width="1.025" height="1.025" fill="#ff00d8" />
<rect x="26.650" y="34.850" width="1.025" height="1.025" fill="#ff00d8" />
<rect x="27.675" y="34.850" width="1.025" height="1.025" fill="#b6c1f2" />
<rect x="5.125" y="35.875" width="1.025" height="1.025" fill="#ff00d8" />
<rect x="6.150" y="35.875" width="1.025" height="1.025" fill="#ff00d8" />
<rect x="7.175" y="35.875" width="1.025" height="1.025" fill="#ff00d8" />
<rect x="8.200" y="35.875" width="1.025" height="1.025" fill="#ff00d8" />
<rect x="9.225" y="35.875" width="1.025" height="1.025" fill="#00e3e5" />
<rect x="10.250" y="35.875" width="1.025" height="1.025" fill="#000000" />
<rect x="11.275" y="35.875" width="1.025" height="1.025" fill="#eaff00" />
<rect x="12.300" y="35.875" width="1.025" height="1.025" fill="#e5ff00" />
<rect x="13.325" y="35.875" width="1.025" height="1.025" fill="#f555de" />
<rect x="14.350" y="35.875" width="1.025" height="1.025" fill="#ff00d8" />
<rect x="15.375" y="35.875" width="1.025" height="1.025" fill="#ff00d8" />
<rect x="16.400" y="35.875" width="1.025" height="1.025" fill="#00cbcd" />
<rect x="17.425" y="35.875" width="1.025" height="1.025" fill="#00fcff" />
<rect x="18.450" y="35.875" width="1.025" height="1.025" fill="#ff00d8" />
<rect x="19.475" y="35.875" width="1.025" height="1.025" fill="#ff00d8" />
<rect x="20.500" y="35.875" width="1.025" height="1.025" fill="#ff00d8" />
<rect x="21.525" y="35.875" width="1.025" height="1.025" fill="#ff00d8" />
<rect x="22.550" y="35.875" width="1.025" height="1.025" fill="#e5ff00" />
<rect x="23.575" y="35.875" width="1.025" height="1.025" fill="#00fcff" />
<rect x="24.600" y="35.875" width="1.025" height="1.025" fill="#000000" />
<rect x="25.625" y="35.875" width="1.025" height="1.025" fill="#8bdef8" />
<rect x="26.650" y="35.875" width="1.025" height="1.025" fill="#ff00d8" />
<rect x="27.675" y="35.875" width="1.025" height="1.025" fill="#006b6c" />
<rect x="5.125" y="36.900" width="1.025" height="1.025" fill="#00fcff" />
<rect x="6.150" y="36.900" width="1.025" height="1.025" fill="#ff00d8" />
<rect x="7.175" y="36.900" width="1.025" height="1.025" fill="#e0ff00" />
<rect x="8.200" y="36.900" width="1.025" height="1.025" fill="#c9ff00" />
<rect x="9.225" y="36.900" width="1.025" height="1.025" fill="#eaff00" />
<rect x="10.250" y="36.900" width="1.025" height="1.025" fill="#000000" />
<rect x="11.275" y="36.900" width="1.025" height="1.025" fill="#eaff00" />
<rect x="12.300" y="36.900" width="1.025" height="1.025" fill="#eaff00" />
<rect x="13.325" y="36.900" width="1.025" height="1.025" fill="#eaff00" />
<rect x="14.350" y="36.900" width="1.025" height="1.025" fill="#00fcff" />
<rect x="15.375" y="36.900" width="1.025" height="1.025" fill="#00a8aa" />
<rect x="16.400" y="36.900" width="1.025" height="1.025" fill="#ff00d8" />
<rect x="17.425" y="36.900" width="1.025" height="1.025" fill="#00fcff" />
<rect x="18.450" y="36.900" width="1.025" height="1.025" fill="#00fcff" />
<rect x="19.475" y="36.900" width="1.025" height="1.025" fill="#ff00d8" />
<rect x="20.500" y="36.900" width="1.025" height="1.025" fill="#dbff00" />
<rect x="21.525" y="36.900" width="1.025" height="1.025" fill="#dbff00" />
<rect x="22.550" y="36.900" width="1.025" height="1.025" fill="#e5ff00" />
<rect x="23.575" y="36.900" width="1.025" height="1.025" fill="#97ff00" />
<rect x="24.600" y="36.900" width="1.025" height="1.025" fill="#000000" />
<rect x="25.625" y="36.900" width="1.025" height="1.025" fill="#ff00d8" />
<rect x="26.650" y="36.900" width="1.025" height="1.025" fill="#ff00d8" />
<rect x="27.675" y="36.900" width="1.025" height="1.025" fill="#4cf4fd" />
</svg>