<svg xmlns="http://www.w3.org/2000/svg" width="37.925" height="37.925" shape-rendering="crispEdges" style="image-rendering: pixelated;">
<rect x="14.350" y="4.100" width="1.025" height="1.025" fill="#3ac2f6" />
<rect x="15.375" y="4.100" width="1.025" height="1.025" fill="#2ad3f9" />
<rect x="16.400" y="4.100" width="1.025" height="1.025" fill="#57a6f2" />
<rect x="17.425" y="4.100" width="1.025" height="1.025" fill="#c737e1" />
<rect x="18.450" y="4.100" width="1.025" height="1.025" fill="#d529de" />
<rect x="19.475" y="4.100" width="1.025" height="1.025" fill="#c539e1" />
<rect x="20.500" y="4.100" width="1.025" height="1.025" fill="#bf40e2" />
<rect x="21.525" y="4.100" width="1.025" height="1.025" fill="#cf2fdf" />
<rect x="22.550" y="4.100" width="1.025" height="1.025" fill="#45b8f4" />
<rect x="13.325" y="5.125" width="1.025" height="1.025" fill="#01fbff" />
<rect x="14.350" y="5.125" width="1.025" height="1.025" fill="#25d8f9" />
<rect x="15.375" y="5.125" width="1.025" height="1.025" fill="#5ca1f1" />
<rect x="16.400" y="5.125" width="1.025" height="1.025" fill="#cc32e0" />
<rect x="17.425" y="5.125" width="1.025" height="1.025" fill="#d926de" />
<rect x="18.450" y="5.125" width="1.025" height="1.025" fill="#ba44e3" />
<rect x="19.475" y="5.125" width="1.025" height="1.025" fill="#d22cdf" />
<rect x="20.500" y="5.125" width="1.025" height="1.025" fill="#d629de" />
<rect x="21.525" y="5.125" width="1.025" height="1.025" fill="#c539e1" />
<rect x="22.550" y="5.125" width="1.025" height="1.025" fill="#c539e1" />
<rect x="23.575" y="5.125" width="1.025" height="1.025" fill="#5ba2f1" />
<rect x="12.300" y="6.150" width="1.025" height="1.025" fill="#00fcff" />
<rect x="13.325" y="6.150" width="1.025" height="1.025" fill="#29d4f9" />
<rect x="14.350" y="6.150" width="1.025" height="1.025" fill="#6994ef" />
<rect x="15.375" y="6.150" width="1.025" height="1.025" fill="#cc32e0" />
<rect x="16.400" y="6.150" width="1.025" height="1.025" fill="#bd42e2" />
<rect x="17.425" y="6.150" width="1.025" height="1.025" fill="#d02edf" />
<rect x="18.450" y="6.150" width="1.025" height="1.025" fill="#ce30df" />
<rect x="19.475" y="6.150" width="1.025" height="1.025" fill="#d22cdf" />
<rect x="20.500" y="6.150" width="1.025" height="1.025" fill="#da25de" />
<rect x="21.525" y="6.150" width="1.025" height="1.025" fill="#d12ddf" />
<rect x="22.550" y="6.150" width="1.025" height="1.025" fill="#d22cdf" />
<rect x="23.575" y="6.150" width="1.025" height="1.025" fill="#d827de" />
<rect x="24.600" y="6.150" width="1.025" height="1.025" fill="#7a84ec" />
<rect x="12.300" y="7.175" width="1.025" height="1.025" fill="#00fcff" />
<rect x="13.325" y="7.175" width="1.025" height="1.025" fill="#32caf7" />
<rect x="14.350" y="7.175" width="1.025" height="1.025" fill="#6698ef" />
<rect x="15.375" y="7.175" width="1.025" height="1.025" fill="#e21ddc" />
<rect x="16.400" y="7.175" width="1.025" height="1.025" fill="#c23ce1" />
<rect x="17.425" y="7.175" width="1.025" height="1.025" fill="#c23ce1" />
<rect x="18.450" y="7.175" width="1.025" height="1.025" fill="#d728de" />
<rect x="19.475" y="7.175" width="1.025" height="1.025" fill="#cf2fdf" />
<rect x="20.500" y="7.175" width="1.025" height="1.025" fill="#d827de" />
<rect x="21.525" y="7.175" width="1.025" height="1.025" fill="#d629de" />
<rect x="22.550" y="7.175" width="1.025" height="1.025" fill="#c935e0" />
<rect x="23.575" y="7.175" width="1.025" height="1.025" fill="#c638e1" />
<rect x="24.600" y="7.175" width="1.025" height="1.025" fill="#5ea0f1" />
<rect x="12.300" y="8.200" width="1.025" height="1.025" fill="#00fcff" />
<rect x="13.325" y="8.200" width="1.025" height="1.025" fill="#22dafa" />
<rect x="14.350" y="8.200" width="1.025" height="1.025" fill="#5f9ef1" />
<rect x="15.375" y="8.200" width="1.025" height="1.025" fill="#ca34e0" />
<rect x="16.400" y="8.200" width="1.025" height="1.025" fill="#c33be1" />
<rect x="17.425" y="8.200" width="1.025" height="1.025" fill="#d529de" />
<rect x="18.450" y="8.200" width="1.025" height="1.025" fill="#28d5f9" />
<rect x="22.550" y="8.200" width="1.025" height="1.025" fill="#d827de" />
<rect x="23.575" y="8.200" width="1.025" height="1.025" fill="#cd31e0" />
<rect x="24.600" y="8.200" width="1.025" height="1.025" fill="#5ea0f1" />
<rect x="12.300" y="9.225" width="1.025" height="1.025" fill="#00fcff" />
<rect x="13.325" y="9.225" width="1.025" height="1.025" fill="#21dbfa" />
<rect x="14.350" y="9.225" width="1.025" height="1.025" fill="#629bf0" />
<rect x="15.375" y="9.225" width="1.025" height="1.025" fill="#609df0" />
<rect x="16.400" y="9.225" width="1.025" height="1.025" fill="#cb33e0" />
<rect x="17.425" y="9.225" width="1.025" height="1.025" fill="#1ae3fb" />
<rect x="23.575" y="9.225" width="1.025" height="1.025" fill="#c23ce1" />
<rect x="24.600" y="9.225" width="1.025" height="1.025" fill="#708dee" />
<rect x="8.200" y="10.250" width="1.025" height="1.025" fill="#37c5f7" />
<rect x="9.225" y="10.250" width="1.025" height="1.025" fill="#2ecef8" />
<rect x="10.250" y="10.250" width="1.025" height="1.025" fill="#6698ef" />
<rect x="11.275" y="10.250" width="1.025" height="1.025" fill="#6a93ef" />
<rect x="12.300" y="10.250" width="1.025" height="1.025" fill="#00fcff" />
<rect x="13.325" y="10.250" width="1.025" height="1.025" fill="#2bd1f8" />
<rect x="14.350" y="10.250" width="1.025" height="1.025" fill="#32caf7" />
<rect x="15.375" y="10.250" width="1.025" height="1.025" fill="#7c82ec" />
<rect x="16.400" y="10.250" width="1.025" height="1.025" fill="#d728de" />
<rect x="17.425" y="10.250" width="1.025" height="1.025" fill="#d926de" />
<rect x="18.450" y="10.250" width="1.025" height="1.025" fill="#34c8f7" />
<rect x="19.475" y="10.250" width="1.025" height="1.025" fill="#ff00d8" />
<rect x="20.500" y="10.250" width="1.025" height="1.025" fill="#2fcdf8" />
<rect x="21.525" y="10.250" width="1.025" height="1.025" fill="#ff00d8" />
<rect x="22.550" y="10.250" width="1.025" height="1.025" fill="#3ac2f6" />
<rect x="23.575" y="10.250" width="1.025" height="1.025" fill="#b846e3" />
<rect x="24.600" y="10.250" width="1.025" height="1.025" fill="#5ba2f1" />
<rect x="7.175" y="11.275" width="1.025" height="1.025" fill="#21dbfa" />
<rect x="8.200" y="11.275" width="1.025" height="1.025" fill="#2cd0f8" />
<rect x="9.225" y="11.275" width="1.025" height="1.025" fill="#29d4f9" />
<rect x="10.250" y="11.275" width="1.025" height="1.025" fill="#29d4f9" />
<rect x="11.275" y="11.275" width="1.025" height="1.025" fill="#35c7f7" />
<rect x="12.300" y="11.275" width="1.025" height="1.025" fill="#00fcff" />
<rect x="13.325" y="11.275" width="1.025" height="1.025" fill="#00fcff" />
</svg>