<svg xmlns="http://www.w3.org/2000/svg" width="37.925" height="37.925" shape-rendering="crispEdges" style="image-rendering: pixelated;">
<rect x="15.375" y="2.050" width="1.025" height="1.025" fill="#eaff00" />
<rect x="18.450" y="2.050" width="1.025" height="1.025" fill="#9bff00" />
<rect x="20.500" y="2.050" width="1.025" height="1.025" fill="#e5ff00" />
<rect x="23.575" y="2.050" width="1.025" height="1.025" fill="#47ff00" />
<rect x="11.275" y="3.075" width="1.025" height="1.025" fill="#cfff00" />
<rect x="16.400" y="3.075" width="1.025" height="1.025" fill="#eaff00" />
<rect x="17.425" y="3.075" width="1.025" height="1.025" fill="#eaff00" />
<rect x="20.500" y="3.075" width="1.025" height="1.025" fill="#d8ff00" />
<rect x="22.550" y="3.075" width="1.025" height="1.025" fill="#6eff00" />
<rect x="25.625" y="3.075" width="1.025" height="1.025" fill="#80ff00" />
<rect x="12.300" y="4.100" width="1.025" height="1.025" fill="#ff00d8" />
<rect x="15.375" y="4.100" width="1.025" height="1.025" fill="#eaff00" />
<rect x="17.425" y="4.100" width="1.025" height="1.025" fill="#eaff00" />
<rect x="18.450" y="4.100" width="1.025" height="1.025" fill="#eaff00" />
<rect x="19.475" y="4.100" width="1.025" height="1.025" fill="#d7ff00" />
<rect x="20.500" y="4.100" width="1.025" height="1.025" fill="#dcff00" />
<rect x="21.525" y="4.100" width="1.025" height="1.025" fill="#45ff00" />
<rect x="22.550" y="4.100" width="1.025" height="1.025" fill="#4dff00" />
<rect x="24.600" y="4.100" width="1.025" height="1.025" fill="#76ff00" />
<rect x="9.225" y="5.125" width="1.025" height="1.025" fill="#e7ff00" />
<rect x="13.325" y="5.125" width="1.025" height="1.025" fill="#acff00" />
<rect x="14.350" y="5.125" width="1.025" height="1.025" fill="#b7ff00" />
<rect x="15.375" y="5.125" width="1.025" height="1.025" fill="#eaff00" />
<rect x="16.400" y="5.125" width="1.025" height="1.025" fill="#eaff00" />
<rect x="17.425" y="5.125" width="1.025" height="1.025" fill="#ddff00" />
<rect x="18.450" y="5.125" width="1.025" height="1.025" fill="#eaff00" />
<rect x="19.475" y="5.125" width="1.025" height="1.025" fill="#81ff00" />
<rect x="20.500" y="5.125" width="1.025" height="1.025" fill="#71ff00" />
<rect x="21.525" y="5.125" width="1.025" height="1.025" fill="#79ff00" />
<rect x="22.550" y="5.125" width="1.025" height="1.025" fill="#49ff00" />
<rect x="23.575" y="5.125" width="1.025" height="1.025" fill="#72ff00" />
<rect x="24.600" y="5.125" width="1.025" height="1.025" fill="#dfff00" />
<rect x="25.625" y="5.125" width="1.025" height="1.025" fill="#41ff00" />
<rect x="27.675" y="5.125" width="1.025" height="1.025" fill="#74ff00" />
<rect x="11.275" y="6.150" width="1.025" height="1.025" fill="#eaff00" />
<rect x="12.300" y="6.150" width="1.025" height="1.025" fill="#aeff00" />
<rect x="13.325" y="6.150" width="1.025" height="1.025" fill="#eaff00" />
<rect x="14.350" y="6.150" width="1.025" height="1.025" fill="#b2ff00" />
<rect x="15.375" y="6.150" width="1.025" height="1.025" fill="#eaff00" />
<rect x="16.400" y="6.150" width="1.025" height="1.025" fill="#a1ff00" />
<rect x="17.425" y="6.150" width="1.025" height="1.025" fill="#eaff00" />
<rect x="18.450" y="6.150" width="1.025" height="1.025" fill="#83ff00" />
<rect x="19.475" y="6.150" width="1.025" height="1.025" fill="#73ff00" />
<rect x="20.500" y="6.150" width="1.025" height="1.025" fill="#c2ff00" />
<rect x="21.525" y="6.150" width="1.025" height="1.025" fill="#45ff00" />
<rect x="22.550" y="6.150" width="1.025" height="1.025" fill="#beff00" />
<rect x="23.575" y="6.150" width="1.025" height="1.025" fill="#bbff00" />
<rect x="24.600" y="6.150" width="1.025" height="1.025" fill="#43ff00" />
<rect x="26.650" y="6.150" width="1.025" height="1.025" fill="#70ff00" />
<rect x="9.225" y="7.175" width="1.025" height="1.025" fill="#ff00d8" />
<rect x="10.250" y="7.175" width="1.025" height="1.025" fill="#eaff00" />
<rect x="12.300" y="7.175" width="1.025" height="1.025" fill="#b6ff00" />
<rect x="13.325" y="7.175" width="1.025" height="1.025" fill="#adff00" />
<rect x="14.350" y="7.175" width="1.025" height="1.025" fill="#eaff00" />
<rect x="15.375" y="7.175" width="1.025" height="1.025" fill="#acff00" />
<rect x="16.400" y="7.175" width="1.025" height="1.025" fill="#eaff00" />
<rect x="17.425" y="7.175" width="1.025" height="1.025" fill="#d9ff00" />
<rect x="18.450" y="7.175" width="1.025" height="1.025" fill="#d2ff00" />
<rect x="19.475" y="7.175" width="1.025" height="1.025" fill="#bfff00" />
<rect x="20.500" y="7.175" width="1.025" height="1.025" fill="#70ff00" />
<rect x="21.525" y="7.175" width="1.025" height="1.025" fill="#bdff00" />
<rect x="22.550" y="7.175" width="1.025" height="1.025" fill="#77ff00" />
<rect x="23.575" y="7.175" width="1.025" height="1.025" fill="#48ff00" />
<rect x="24.600" y="7.175" width="1.025" height="1.025" fill="#7cff00" />
<rect x="25.625" y="7.175" width="1.025" height="1.025" fill="#79ff00" />
<rect x="26.650" y="7.175" width="1.025" height="1.025" fill="#d5ff00" />
<rect x="8.200" y="8.200" width="1.025" height="1.025" fill="#ff00d8" />
<rect x="10.250" y="8.200" width="1.025" height="1.025" fill="#eaff00" />
<rect x="11.275" y="8.200" width="1.025" height="1.025" fill="#ff00d8" />
<rect x="12.300" y="8.200" width="1.025" height="1.025" fill="#eaff00" />
<rect x="13.325" y="8.200" width="1.025" height="1.025" fill="#eaff00" />
<rect x="14.350" y="8.200" width="1.025" height="1.025" fill="#b6ff00" />
<rect x="15.375" y="8.200" width="1.025" height="1.025" fill="#eaff00" />
<rect x="16.400" y="8.200" width="1.025" height="1.025" fill="#88ff00" />
<rect x="17.425" y="8.200" width="1.025" height="1.025" fill="#d3ff00" />
<rect x="18.450" y="8.200" width="1.025" height="1.025" fill="#eaff00" />
<rect x="19.475" y="8.200" width="1.025" height="1.025" fill="#bdff00" />
<rect x="20.500" y="8.200" width="1.025" height="1.025" fill="#79ff00" />
<rect x="21.525" y="8.200" width="1.025" height="1.025" fill="#7eff00" />
<rect x="22.550" y="8.200" width="1.025" height="1.025" fill="#42ff00" />
<rect x="23.575" y="8.200" width="1.025" height="1.025" fill="#bfff00" />
<rect x="24.600" y="8.200" width="1.025" height="1.025" fill="#c6ff00" />
<rect x="25.625" y="8.200" width="1.025" height="1.025" fill="#45ff00" />
<rect x="11.275" y="9.225" width="1.025" height="1.025" fill="#eaff00" />
<rect x="12.300" y="9.225" width="1.025" height="1.025" fill="#ff00d8" />
<rect x="13.325" y="9.225" width="1.025" height="1.025" fill="#eaff00" />
<rect x="14.350" y="9.225" width="1.025" height="1.025" fill="#eaff00" />
<rect x="15.375" y="9.225" width="1.025" height="1.025" fill="#b5ff00" />
<rect x="16.400" y="9.225" width="1.025" height="1.025" fill="#d6ff00" />
<rect x="17.425" y="9.225" width="1.025" height="1.025" fill="#87ff00" />
<rect x="18.450" y="9.225" width="1.025" height="1.025" fill="#d8ff00" />
<rect x="19.475" y="9.225" width="1.025" height="1.025" fill="#4eff00" />
<rect x="20.500" y="9.225" width="1.025" height="1.025" fill="#48ff00" />
<rect x="21.525" y="9.225" width="1.025" height="1.025" fill="#c6ff00" />
<rect x="22.550" y="9.225" width="1.025" height="1.025" fill="#bdff00" />
<rect x="23.575" y="9.225" width="1.025" height="1.025" fill="#4aff00" />
<rect x="24.600" y="9.225" width="1.025" height="1.025" fill="#c0ff00" />
<rect x="25.625" y="9.225" width="1.025" height="1.025" fill="#72ff00" />
<rect x="26.650" y="9.225" width="1.025" height="1.025" fill="#3cff00" />
<rect x="11.275" y="10.250" width="1.025" height="1.025" fill="#ff00d8" />
<rect x="12.300" y="10.250" width="1.025" height="1.025" fill="#eaff00" />
<rect x="13.325" y="10.250" width="1.025" height="1.025" fill="#eaff00" />
<rect x="14.350" y="10.250" width="1.025" height="1.025" fill="#eaff00" />
<rect x="15.375" y="10.250" width="1.025" height="1.025" fill="#eaff00" />
<rect x="16.400" y="10.250" width="1.025" height="1.025" fill="#d2ff00" />
<rect x="17.425" y="10.250" width="1.025" height="1.025" fill="#7eff00" />
<rect x="18.450" y="10.250" width="1.025" height="1.025" fill="#eaff00" />
<rect x="19.475" y="10.250" width="1.025" height="1.025" fill="#bdff00" />
<rect x="20.500" y="10.250" width="1.025" height="1.025" fill="#c1ff00" />
<rect x="21.525" y="10.250" width="1.025" height="1.025" fill="#44ff00" />
<rect x="22.550" y="10.250" width="1.025" height="1.025" fill="#bdff00" />
<rect x="23.575" y="10.250" width="1.025" height="1.025" fill="#c7ff00" />
<rect x="25.625" y="10.250" width="1.025" height="1.025" fill="#c5ff00" />
<rect x="27.675" y="10.250" width="1.025" height="1.025" fill="#7fff00" />
<rect x="10.250" y="11.275" width="1.025" height="1.025" fill="#ff00d8" />
<rect x="11.275" y="11.275" width="1.025" height="1.025" fill="#ff00d8" />
<rect x="12.300" y="11.275" width="1.025" height="1.025" fill="#ff00d8" />
<rect x="13.325" y="11.275" width="1.025" height="1.025" fill="#eaff00" />
<rect x="14.350" y="11.275" width="1.025" height="1.025" fill="#eaff00" />
<rect x="15.375" y="11.275" width="1.025" height="1.025" fill="#b4ff00" />
<rect x="17.425" y="11.275" width="1.025" height="1.025" fill="#eaff00" />
<rect x="21.525" y="11.275" width="1.025" height="1.025" fill="#d7ff00" />
<rect x="23.575" y="11.275" width="1.025" height="1.025" fill="#4bff00" />
<rect x="25.625" y="11.275" width="1.025" height="1.025" fill="#6fff00" />
<rect x="9.225" y="12.300" width="1.025" height="1.025" fill="#ff00d8" />
<rect x="12.300" y="12.300" width="1.025" height="1.025" fill="#ff00d8" />
<rect x="13.325" y="12.300" width="1.025" height="1.025" fill="#ff00d8" />
<rect x="15.375" y="12.300" width="1.025" height="1.025" fill="#b3ff00" />
<rect x="18.450" y="12.300" width="1.025" height="1.025" fill="#eaff00" />
<rect x="25.625" y="12.300" width="1.025" height="1.025" fill="#3eff00" />
<rect x="12.300" y="13.325" width="1.025" height="1.025" fill="#ff00d8" />
<rect x="14.350" y="13.325" width="1.025" height="1.025" fill="#e7ff00" />
<rect x="26.650" y="13.325" width="1.025" height="1.025" fill="#eaff00" />
<rect x="12.300" y="14.350" width="1.025" height="1.025" fill="#ff00d8" />
</svg>