<svg xmlns="http://www.w3.org/2000/svg" width="37.925" height="37.925" shape-rendering="crispEdges" style="image-rendering: pixelated;">
<rect x="15.375" y="4.100" width="1.025" height="1.025" fill="#00fcff" />
<rect x="16.400" y="4.100" width="1.025" height="1.025" fill="#00f3f5" />
<rect x="17.425" y="4.100" width="1.025" height="1.025" fill="#00fcff" />
<rect x="18.450" y="4.100" width="1.025" height="1.025" fill="#00fcff" />
<rect x="20.500" y="4.100" width="1.025" height="1.025" fill="#9668e8" />
<rect x="21.525" y="4.100" width="1.025" height="1.025" fill="#e41adc" />
<rect x="22.550" y="4.100" width="1.025" height="1.025" fill="#00fcff" />
<rect x="13.325" y="5.125" width="1.025" height="1.025" fill="#00fcff" />
<rect x="14.350" y="5.125" width="1.025" height="1.025" fill="#00fcff" />
<rect x="15.375" y="5.125" width="1.025" height="1.025" fill="#45b8f4" />
<rect x="16.400" y="5.125" width="1.025" height="1.025" fill="#a45ae6" />
<rect x="17.425" y="5.125" width="1.025" height="1.025" fill="#a658e6" />
<rect x="18.450" y="5.125" width="1.025" height="1.025" fill="#00fcff" />
<rect x="19.475" y="5.125" width="1.025" height="1.025" fill="#00f4f7" />
<rect x="20.500" y="5.125" width="1.025" height="1.025" fill="#00fcff" />
<rect x="21.525" y="5.125" width="1.025" height="1.025" fill="#00fcff" />
<rect x="22.550" y="5.125" width="1.025" height="1.025" fill="#8578eb" />
<rect x="23.575" y="5.125" width="1.025" height="1.025" fill="#00fcff" />
<rect x="24.600" y="5.125" width="1.025" height="1.025" fill="#00fcff" />
<rect x="12.300" y="6.150" width="1.025" height="1.025" fill="#00fcff" />
<rect x="13.325" y="6.150" width="1.025" height="1.025" fill="#38c4f6" />
<rect x="14.350" y="6.150" width="1.025" height="1.025" fill="#39c3f6" />
<rect x="15.375" y="6.150" width="1.025" height="1.025" fill="#00fcff" />
<rect x="16.400" y="6.150" width="1.025" height="1.025" fill="#00edf0" />
<rect x="17.425" y="6.150" width="1.025" height="1.025" fill="#7687ed" />
<rect x="18.450" y="6.150" width="1.025" height="1.025" fill="#f10dda" />
<rect x="19.475" y="6.150" width="1.025" height="1.025" fill="#00fcff" />
<rect x="20.500" y="6.150" width="1.025" height="1.025" fill="#00fcff" />
<rect x="21.525" y="6.150" width="1.025" height="1.025" fill="#00e4e6" />
<rect x="22.550" y="6.150" width="1.025" height="1.025" fill="#00fcff" />
<rect x="23.575" y="6.150" width="1.025" height="1.025" fill="#ff00d8" />
<rect x="24.600" y="6.150" width="1.025" height="1.025" fill="#e916db" />
<rect x="25.625" y="6.150" width="1.025" height="1.025" fill="#00fcff" />
<rect x="11.275" y="7.175" width="1.025" height="1.025" fill="#00fcff" />
<rect x="12.300" y="7.175" width="1.025" height="1.025" fill="#7a84ec" />
<rect x="13.325" y="7.175" width="1.025" height="1.025" fill="#22dafa" />
<rect x="14.350" y="7.175" width="1.025" height="1.025" fill="#00fcff" />
<rect x="15.375" y="7.175" width="1.025" height="1.025" fill="#58a5f2" />
<rect x="16.400" y="7.175" width="1.025" height="1.025" fill="#e816db" />
<rect x="17.425" y="7.175" width="1.025" height="1.025" fill="#00f7fa" />
<rect x="18.450" y="7.175" width="1.025" height="1.025" fill="#47b6f4" />
<rect x="19.475" y="7.175" width="1.025" height="1.025" fill="#ed12db" />
<rect x="20.500" y="7.175" width="1.025" height="1.025" fill="#e21ddc" />
<rect x="21.525" y="7.175" width="1.025" height="1.025" fill="#00fcff" />
<rect x="22.550" y="7.175" width="1.025" height="1.025" fill="#10ecfd" />
<rect x="23.575" y="7.175" width="1.025" height="1.025" fill="#00fcff" />
<rect x="24.600" y="7.175" width="1.025" height="1.025" fill="#00fcff" />
<rect x="25.625" y="7.175" width="1.025" height="1.025" fill="#d926de" />
<rect x="26.650" y="7.175" width="1.025" height="1.025" fill="#00fcff" />
<rect x="10.250" y="8.200" width="1.025" height="1.025" fill="#00ebed" />
<rect x="11.275" y="8.200" width="1.025" height="1.025" fill="#36c6f7" />
<rect x="12.300" y="8.200" width="1.025" height="1.025" fill="#00fcff" />
<rect x="13.325" y="8.200" width="1.025" height="1.025" fill="#00f2f5" />
<rect x="14.350" y="8.200" width="1.025" height="1.025" fill="#6b92ef" />
<rect x="15.375" y="8.200" width="1.025" height="1.025" fill="#c03ee2" />
<rect x="16.400" y="8.200" width="1.025" height="1.025" fill="#0af2fd" />
<rect x="17.425" y="8.200" width="1.025" height="1.025" fill="#00fcff" />
<rect x="18.450" y="8.200" width="1.025" height="1.025" fill="#00fbfe" />
<rect x="19.475" y="8.200" width="1.025" height="1.025" fill="#07f5fe" />
<rect x="20.500" y="8.200" width="1.025" height="1.025" fill="#00fcff" />
<rect x="21.525" y="8.200" width="1.025" height="1.025" fill="#00fcff" />
<rect x="22.550" y="8.200" width="1.025" height="1.025" fill="#00fcff" />
<rect x="23.575" y="8.200" width="1.025" height="1.025" fill="#fc02d8" />
<rect x="24.600" y="8.200" width="1.025" height="1.025" fill="#d827de" />
<rect x="25.625" y="8.200" width="1.025" height="1.025" fill="#00fcff" />
<rect x="26.650" y="8.200" width="1.025" height="1.025" fill="#b846e3" />
<rect x="27.675" y="8.200" width="1.025" height="1.025" fill="#00fcff" />
<rect x="10.250" y="9.225" width="1.025" height="1.025" fill="#00e0e2" />
<rect x="11.275" y="9.225" width="1.025" height="1.025" fill="#54a9f2" />
<rect x="12.300" y="9.225" width="1.025" height="1.025" fill="#00e9eb" />
<rect x="13.325" y="9.225" width="1.025" height="1.025" fill="#00fcff" />
<rect x="14.350" y="9.225" width="1.025" height="1.025" fill="#ec12db" />
<rect x="15.375" y="9.225" width="1.025" height="1.025" fill="#00fcff" />
<rect x="16.400" y="9.225" width="1.025" height="1.025" fill="#00f9fc" />
<rect x="17.425" y="9.225" width="1.025" height="1.025" fill="#00eff2" />
<rect x="18.450" y="9.225" width="1.025" height="1.025" fill="#00fcff" />
<rect x="19.475" y="9.225" width="1.025" height="1.025" fill="#00fcff" />
<rect x="20.500" y="9.225" width="1.025" height="1.025" fill="#00fcff" />
<rect x="21.525" y="9.225" width="1.025" height="1.025" fill="#00fcff" />
<rect x="22.550" y="9.225" width="1.025" height="1.025" fill="#00fcff" />
<rect x="23.575" y="9.225" width="1.025" height="1.025" fill="#00fcff" />
<rect x="24.600" y="9.225" width="1.025" height="1.025" fill="#00fcff" />
<rect x="25.625" y="9.225" width="1.025" height="1.025" fill="#dc23dd" />
<rect x="26.650" y="9.225" width="1.025" height="1.025" fill="#00fcff" />
<rect x="27.675" y="9.225" width="1.025" height="1.025" fill="#38c4f6" />
<rect x="10.250" y="10.250" width="1.025" height="1.025" fill="#00d9dc" />
<rect x="11.275" y="10.250" width="1.025" height="1.025" fill="#4db0f3" />
<rect x="12.300" y="10.250" width="1.025" height="1.025" fill="#00dfe2" />
<rect x="13.325" y="10.250" width="1.025" height="1.025" fill="#ff00d8" />
<rect x="14.350" y="10.250" width="1.025" height="1.025" fill="#11ebfc" />
<rect x="15.375" y="10.250" width="1.025" height="1.025" fill="#00d9db" />
<rect x="16.400" y="10.250" width="1.025" height="1.025" fill="#08f4fe" />
<rect x="23.575" y="10.250" width="1.025" height="1.025" fill="#00fbfe" />
<rect x="24.600" y="10.250" width="1.025" height="1.025" fill="#00e6e9" />
<rect x="25.625" y="10.250" width="1.025" height="1.025" fill="#ec12db" />
<rect x="26.650" y="10.250" width="1.025" height="1.025" fill="#00eff2" />
<rect x="27.675" y="10.250" width="1.025" height="1.025" fill="#be41e2" />
<rect x="28.700" y="10.250" width="1.025" height="1.025" fill="#1be1fb" />
<rect x="9.225" y="11.275" width="1.025" height="1.025" fill="#00dbdd" />
<rect x="10.250" y="11.275" width="1.025" height="1.025" fill="#00fcff" />
<rect x="11.275" y="11.275" width="1.025" height="1.025" fill="#00fcff" />
<rect x="12.300" y="11.275" width="1.025" height="1.025" fill="#00eaed" />
<rect x="13.325" y="11.275" width="1.025" height="1.025" fill="#002d00" />
<rect x="14.350" y="11.275" width="1.025" height="1.025" fill="#00fcff" />
<rect x="15.375" y="11.275" width="1.025" height="1.025" fill="#00acae" />
<rect x="24.600" y="11.275" width="1.025" height="1.025" fill="#00e4e7" />
<rect x="25.625" y="11.275" width="1.025" height="1.025" fill="#c33be1" />
<rect x="26.650" y="11.275" width="1.025" height="1.025" fill="#00fcff" />
<rect x="27.675" y="11.275" width="1.025" height="1.025" fill="#00fcff" />
<rect x="28.700" y="11.275" width="1.025" height="1.025" fill="#db24de" />
<rect x="9.225" y="12.300" width="1.025" height="1.025" fill="#00d7da" />
<rect x="10.250" y="12.300" width="1.025" height="1.025" fill="#6d91ee" />
<rect x="11.275" y="12.300" width="1.025" height="1.025" fill="#00e2e4" />
<rect x="12.300" y="12.300" width="1.025" height="1.025" fill="#00fcff" />
<rect x="13.325" y="12.300" width="1.025" height="1.025" fill="#ff00d8" />
<rect x="14.350" y="12.300" width="1.025" height="1.025" fill="#00fcff" />
<rect x="24.600" y="12.300" width="1.025" height="1.025" fill="#00c3c5" />
<rect x="25.625" y="12.300" width="1.025" height="1.025" fill="#00fcff" />
<rect x="26.650" y="12.300" width="1.025" height="1.025" fill="#db24de" />
<rect x="27.675" y="12.300" width="1.025" height="1.025" fill="#00fcff" />
<rect x="28.700" y="12.300" width="1.025" height="1.025" fill="#de20dd" />
<rect x="9.225" y="13.325" width="1.025" height="1.025" fill="#00d4d7" />
<rect x="10.250" y="13.325" width="1.025" height="1.025" fill="#b648e3" />
<rect x="11.275" y="13.325" width="1.025" height="1.025" fill="#00d4d7" />
<rect x="12.300" y="13.325" width="1.025" height="1.025" fill="#7a84ec" />
<rect x="13.325" y="13.325" width="1.025" height="1.025" fill="#12eafc" />
<rect x="14.350" y="13.325" width="1.025" height="1.025" fill="#00d0d3" />
<rect x="24.600" y="13.325" width="1.025" height="1.025" fill="#009fa1" />
<rect x="25.625" y="13.325" width="1.025" height="1.025" fill="#00fcff" />
<rect x="26.650" y="13.325" width="1.025" height="1.025" fill="#ef10da" />
<rect x="27.675" y="13.325" width="1.025" height="1.025" fill="#00fcff" />
<rect x="28.700" y="13.325" width="1.025" height="1.025" fill="#6f8eee" />
<rect x="9.225" y="14.350" width="1.025" height="1.025" fill="#00c7c9" />
<rect x="10.250" y="14.350" width="1.025" height="1.025" fill="#7e7fec" />
<rect x="11.275" y="14.350" width="1.025" height="1.025" fill="#00d2d4" />
<rect x="12.300" y="14.350" width="1.025" height="1.025" fill="#b648e3" />
<rect x="13.325" y="14.350" width="1.025" height="1.025" fill="#00fcff" />
<rect x="14.350" y="14.350" width="1.025" height="1.025" fill="#00eef1" />
<rect x="24.600" y="14.350" width="1.025" height="1.025" fill="#00c1c3" />
<rect x="25.625" y="14.350" width="1.025" height="1.025" fill="#00fcff" />
<rect x="26.650" y="14.350" width="1.025" height="1.025" fill="#b648e3" />
<rect x="27.675" y="14.350" width="1.025" height="1.025" fill="#00fcff" />
<rect x="28.700" y="14.350" width="1.025" height="1.025" fill="#c13de2" />
<rect x="8.200" y="15.375" width="1.025" height="1.025" fill="#00a4a6" />
<rect x="9.225" y="15.375" width="1.025" height="1.025" fill="#51acf3" />
<rect x="10.250" y="15.375" width="1.025" height="1.025" fill="#00fcff" />
<rect x="11.275" y="15.375" width="1.025" height="1.025" fill="#00dfe2" />
<rect x="12.300" y="15.375" width="1.025" height="1.025" fill="#cf2fdf" />
<rect x="13.325" y="15.375" width="1.025" height="1.025" fill="#00fcff" />
<rect x="14.350" y="15.375" width="1.025" height="1.025" fill="#00c7c9" />
<rect x="24.600" y="15.375" width="1.025" height="1.025" fill="#00c6c8" />
<rect x="25.625" y="15.375" width="1.025" height="1.025" fill="#00f7fa" />
<rect x="26.650" y="15.375" width="1.025" height="1.025" fill="#be41e2" />
<rect x="27.675" y="15.375" width="1.025" height="1.025" fill="#00fcff" />
<rect x="28.700" y="15.375" width="1.025" height="1.025" fill="#b44ae4" />
<rect x="8.200" y="16.400" width="1.025" height="1.025" fill="#009b9c" />
<rect x="9.225" y="16.400" width="1.025" height="1.025" fill="#c43ae1" />
<rect x="10.250" y="16.400" width="1.025" height="1.025" fill="#00dde0" />
<rect x="11.275" y="16.400" width="1.025" height="1.025" fill="#00fafd" />
<rect x="12.300" y="16.400" width="1.025" height="1.025" fill="#ab53e5" />
<rect x="13.325" y="16.400" width="1.025" height="1.025" fill="#00f9fc" />
<rect x="14.350" y="16.400" width="1.025" height="1.025" fill="#00cfd2" />
<rect x="24.600" y="16.400" width="1.025" height="1.025" fill="#009fa0" />
<rect x="25.625" y="16.400" width="1.025" height="1.025" fill="#00fcff" />
<rect x="26.650" y="16.400" width="1.025" height="1.025" fill="#d02edf" />
<rect x="27.675" y="16.400" width="1.025" height="1.025" fill="#00fcff" />
<rect x="28.700" y="16.400" width="1.025" height="1.025" fill="#5aa3f1" />
<rect x="8.200" y="17.425" width="1.025" height="1.025" fill="#009495" />
<rect x="9.225" y="17.425" width="1.025" height="1.025" fill="#c935e0" />
<rect x="10.250" y="17.425" width="1.025" height="1.025" fill="#00cdd0" />
<rect x="11.275" y="17.425" width="1.025" height="1.025" fill="#00fcff" />
<rect x="12.300" y="17.425" width="1.025" height="1.025" fill="#5ca1f1" />
<rect x="13.325" y="17.425" width="1.025" height="1.025" fill="#00fcff" />
<rect x="14.350" y="17.425" width="1.025" height="1.025" fill="#00d5d7" />
<rect x="24.600" y="17.425" width="1.025" height="1.025" fill="#009fa0" />
<rect x="25.625" y="17.425" width="1.025" height="1.025" fill="#00f9fc" />
<rect x="26.650" y="17.425" width="1.025" height="1.025" fill="#cf2fdf" />
<rect x="27.675" y="17.425" width="1.025" height="1.025" fill="#00f1f4" />
<rect x="28.700" y="17.425" width="1.025" height="1.025" fill="#9865e8" />
<rect x="8.200" y="18.450" width="1.025" height="1.025" fill="#00a1a3" />
<rect x="9.225" y="18.450" width="1.025" height="1.025" fill="#748aed" />
<rect x="10.250" y="18.450" width="1.025" height="1.025" fill="#00cdd0" />
<rect x="11.275" y="18.450" width="1.025" height="1.025" fill="#6698ef" />
<rect x="12.300" y="18.450" width="1.025" height="1.025" fill="#6b92ef" />
<rect x="13.325" y="18.450" width="1.025" height="1.025" fill="#00f9fc" />
<rect x="14.350" y="18.450" width="1.025" height="1.025" fill="#006d6f" />
<rect x="24.600" y="18.450" width="1.025" height="1.025" fill="#00a2a4" />
<rect x="25.625" y="18.450" width="1.025" height="1.025" fill="#00fcff" />
<rect x="26.650" y="18.450" width="1.025" height="1.025" fill="#a45ae6" />
<rect x="27.675" y="18.450" width="1.025" height="1.025" fill="#00ecef" />
<rect x="28.700" y="18.450" width="1.025" height="1.025" fill="#7e7fec" />
<rect x="8.200" y="19.475" width="1.025" height="1.025" fill="#009c9e" />
<rect x="9.225" y="19.475" width="1.025" height="1.025" fill="#3bc1f6" />
<rect x="10.250" y="19.475" width="1.025" height="1.025" fill="#00cbce" />
<rect x="11.275" y="19.475" width="1.025" height="1.025" fill="#9e60e7" />
<rect x="12.300" y="19.475" width="1.025" height="1.025" fill="#00fcff" />
<rect x="13.325" y="19.475" width="1.025" height="1.025" fill="#00fcff" />
<rect x="14.350" y="19.475" width="1.025" height="1.025" fill="#007071" />
<rect x="24.600" y="19.475" width="1.025" height="1.025" fill="#008e90" />
<rect x="25.625" y="19.475" width="1.025" height="1.025" fill="#00fcff" />
<rect x="26.650" y="19.475" width="1.025" height="1.025" fill="#5ba2f1" />
<rect x="27.675" y="19.475" width="1.025" height="1.025" fill="#00f1f4" />
<rect x="28.700" y="19.475" width="1.025" height="1.025" fill="#39c3f6" />
<rect x="8.200" y="20.500" width="1.025" height="1.025" fill="#009fa0" />
<rect x="9.225" y="20.500" width="1.025" height="1.025" fill="#b846e3" />
<rect x="10.250" y="20.500" width="1.025" height="1.025" fill="#00a5a7" />
<rect x="11.275" y="20.500" width="1.025" height="1.025" fill="#a757e5" />
<rect x="12.300" y="20.500" width="1.025" height="1.025" fill="#00edef" />
<rect x="13.325" y="20.500" width="1.025" height="1.025" fill="#00c6c8" />
<rect x="14.350" y="20.500" width="1.025" height="1.025" fill="#001515" />
<rect x="24.600" y="20.500" width="1.025" height="1.025" fill="#006364" />
<rect x="25.625" y="20.500" width="1.025" height="1.025" fill="#00fbfe" />
<rect x="26.650" y="20.500" width="1.025" height="1.025" fill="#24d8f9" />
<rect x="27.675" y="20.500" width="1.025" height="1.025" fill="#00dcde" />
<rect x="28.700" y="20.500" width="1.025" height="1.025" fill="#00fcff" />
<rect x="8.200" y="21.525" width="1.025" height="1.025" fill="#00aaac" />
<rect x="9.225" y="21.525" width="1.025" height="1.025" fill="#748aed" />
<rect x="10.250" y="21.525" width="1.025" height="1.025" fill="#00b3b5" />
<rect x="11.275" y="21.525" width="1.025" height="1.025" fill="#a45ae6" />
<rect x="12.300" y="21.525" width="1.025" height="1.025" fill="#00e8eb" />
<rect x="13.325" y="21.525" width="1.025" height="1.025" fill="#00fcff" />
<rect x="14.350" y="21.525" width="1.025" height="1.025" fill="#006667" />
<rect x="24.600" y="21.525" width="1.025" height="1.025" fill="#008f90" />
<rect x="25.625" y="21.525" width="1.025" height="1.025" fill="#00fcff" />
<rect x="26.650" y="21.525" width="1.025" height="1.025" fill="#ff00d8" />
<rect x="27.675" y="21.525" width="1.025" height="1.025" fill="#00f1f4" />
<rect x="28.700" y="21.525" width="1.025" height="1.025" fill="#00fcff" />
<rect x="7.175" y="22.550" width="1.025" height="1.025" fill="#005354" />
<rect x="8.200" y="22.550" width="1.025" height="1.025" fill="#00fcff" />
<rect x="9.225" y="22.550" width="1.025" height="1.025" fill="#00fcff" />
<rect x="10.250" y="22.550" width="1.025" height="1.025" fill="#00aaac" />
<rect x="11.275" y="22.550" width="1.025" height="1.025" fill="#53aaf2" />
<rect x="12.300" y="22.550" width="1.025" height="1.025" fill="#00bfc1" />
<rect x="13.325" y="22.550" width="1.025" height="1.025" fill="#5ca1f1" />
<rect x="14.350" y="22.550" width="1.025" height="1.025" fill="#00a3a5" />
<rect x="24.600" y="22.550" width="1.025" height="1.025" fill="#00a9ab" />
<rect x="25.625" y="22.550" width="1.025" height="1.025" fill="#00fcff" />
<rect x="26.650" y="22.550" width="1.025" height="1.025" fill="#003000" />
<rect x="27.675" y="22.550" width="1.025" height="1.025" fill="#00fcff" />
<rect x="28.700" y="22.550" width="1.025" height="1.025" fill="#fa05d9" />
<rect x="7.175" y="23.575" width="1.025" height="1.025" fill="#009b9d" />
<rect x="8.200" y="23.575" width="1.025" height="1.025" fill="#906ee9" />
<rect x="9.225" y="23.575" width="1.025" height="1.025" fill="#00d6d8" />
<rect x="10.250" y="23.575" width="1.025" height="1.025" fill="#00babc" />
<rect x="11.275" y="23.575" width="1.025" height="1.025" fill="#926be9" />
<rect x="12.300" y="23.575" width="1.025" height="1.025" fill="#00b7b9" />
<rect x="13.325" y="23.575" width="1.025" height="1.025" fill="#817deb" />
<rect x="14.350" y="23.575" width="1.025" height="1.025" fill="#00b2b4" />
<rect x="23.575" y="23.575" width="1.025" height="1.025" fill="#00f0f3" />
<rect x="24.600" y="23.575" width="1.025" height="1.025" fill="#00fcff" />
<rect x="25.625" y="23.575" width="1.025" height="1.025" fill="#00fcff" />
<rect x="26.650" y="23.575" width="1.025" height="1.025" fill="#ff00d8" />
<rect x="27.675" y="23.575" width="1.025" height="1.025" fill="#00f7fa" />
<rect x="28.700" y="23.575" width="1.025" height="1.025" fill="#d32bdf" />
<rect x="7.175" y="24.600" width="1.025" height="1.025" fill="#009ea0" />
<rect x="8.200" y="24.600" width="1.025" height="1.025" fill="#ff00d8" />
<rect x="9.225" y="24.600" width="1.025" height="1.025" fill="#00cbcd" />
<rect x="10.250" y="24.600" width="1.025" height="1.025" fill="#009394" />
<rect x="11.275" y="24.600" width="1.025" height="1.025" fill="#5ca1f1" />
<rect x="12.300" y="24.600" width="1.025" height="1.025" fill="#00b3b5" />
<rect x="13.325" y="24.600" width="1.025" height="1.025" fill="#57a6f2" />
<rect x="14.350" y="24.600" width="1.025" height="1.025" fill="#00bfc1" />
<rect x="22.550" y="24.600" width="1.025" height="1.025" fill="#005859" />
<rect x="23.575" y="24.600" width="1.025" height="1.025" fill="#00f7fa" />
<rect x="24.600" y="24.600" width="1.025" height="1.025" fill="#00fcff" />
<rect x="25.625" y="24.600" width="1.025" height="1.025" fill="#00a5a7" />
<rect x="26.650" y="24.600" width="1.025" height="1.025" fill="#ab53e5" />
<rect x="27.675" y="24.600" width="1.025" height="1.025" fill="#00f1f4" />
<rect x="28.700" y="24.600" width="1.025" height="1.025" fill="#b549e3" />
<rect x="7.175" y="25.625" width="1.025" height="1.025" fill="#008587" />
<rect x="8.200" y="25.625" width="1.025" height="1.025" fill="#002d00" />
<rect x="9.225" y="25.625" width="1.025" height="1.025" fill="#00d1d4" />
<rect x="10.250" y="25.625" width="1.025" height="1.025" fill="#00c2c5" />
<rect x="11.275" y="25.625" width="1.025" height="1.025" fill="#9b63e7" />
<rect x="12.300" y="25.625" width="1.025" height="1.025" fill="#00b5b7" />
<rect x="13.325" y="25.625" width="1.025" height="1.025" fill="#8b72ea" />
<rect x="14.350" y="25.625" width="1.025" height="1.025" fill="#00bdbf" />
<rect x="19.475" y="25.625" width="1.025" height="1.025" fill="#005253" />
<rect x="20.500" y="25.625" width="1.025" height="1.025" fill="#00fbfe" />
<rect x="21.525" y="25.625" width="1.025" height="1.025" fill="#00fcff" />
<rect x="22.550" y="25.625" width="1.025" height="1.025" fill="#005a5b" />
<rect x="23.575" y="25.625" width="1.025" height="1.025" fill="#00fcff" />
<rect x="24.600" y="25.625" width="1.025" height="1.025" fill="#00fcff" />
<rect x="25.625" y="25.625" width="1.025" height="1.025" fill="#00b2b4" />
<rect x="26.650" y="25.625" width="1.025" height="1.025" fill="#738bed" />
<rect x="27.675" y="25.625" width="1.025" height="1.025" fill="#00fcff" />
<rect x="28.700" y="25.625" width="1.025" height="1.025" fill="#c43ae1" />
<rect x="7.175" y="26.650" width="1.025" height="1.025" fill="#009394" />
<rect x="8.200" y="26.650" width="1.025" height="1.025" fill="#ff00d8" />
<rect x="9.225" y="26.650" width="1.025" height="1.025" fill="#00d4d7" />
<rect x="10.250" y="26.650" width="1.025" height="1.025" fill="#008f90" />
<rect x="11.275" y="26.650" width="1.025" height="1.025" fill="#7e7fec" />
<rect x="12.300" y="26.650" width="1.025" height="1.025" fill="#00b3b5" />
<rect x="13.325" y="26.650" width="1.025" height="1.025" fill="#3ebff6" />
<rect x="14.350" y="26.650" width="1.025" height="1.025" fill="#00bdc0" />
<rect x="19.475" y="26.650" width="1.025" height="1.025" fill="#007577" />
<rect x="20.500" y="26.650" width="1.025" height="1.025" fill="#00fcff" />
<rect x="21.525" y="26.650" width="1.025" height="1.025" fill="#38c4f6" />
<rect x="22.550" y="26.650" width="1.025" height="1.025" fill="#006e6f" />
<rect x="23.575" y="26.650" width="1.025" height="1.025" fill="#00fcff" />
<rect x="24.600" y="26.650" width="1.025" height="1.025" fill="#30ccf8" />
<rect x="25.625" y="26.650" width="1.025" height="1.025" fill="#00a2a4" />
<rect x="26.650" y="26.650" width="1.025" height="1.025" fill="#00fcff" />
<rect x="27.675" y="26.650" width="1.025" height="1.025" fill="#36c6f7" />
<rect x="28.700" y="26.650" width="1.025" height="1.025" fill="#be41e2" />
<rect x="6.150" y="27.675" width="1.025" height="1.025" fill="#00989a" />
<rect x="7.175" y="27.675" width="1.025" height="1.025" fill="#4ab2f4" />
<rect x="8.200" y="27.675" width="1.025" height="1.025" fill="#00cfd2" />
<rect x="9.225" y="27.675" width="1.025" height="1.025" fill="#008486" />
<rect x="10.250" y="27.675" width="1.025" height="1.025" fill="#629bf0" />
<rect x="11.275" y="27.675" width="1.025" height="1.025" fill="#00b6b8" />
<rect x="12.300" y="27.675" width="1.025" height="1.025" fill="#40bdf5" />
<rect x="13.325" y="27.675" width="1.025" height="1.025" fill="#00c8cb" />
<rect x="14.350" y="27.675" width="1.025" height="1.025" fill="#003c3d" />
<rect x="19.475" y="27.675" width="1.025" height="1.025" fill="#003e3e" />
<rect x="20.500" y="27.675" width="1.025" height="1.025" fill="#00fcff" />
<rect x="21.525" y="27.675" width="1.025" height="1.025" fill="#2ecef8" />
<rect x="22.550" y="27.675" width="1.025" height="1.025" fill="#004b4c" />
<rect x="23.575" y="27.675" width="1.025" height="1.025" fill="#00f4f7" />
<rect x="24.600" y="27.675" width="1.025" height="1.025" fill="#2dcff8" />
<rect x="25.625" y="27.675" width="1.025" height="1.025" fill="#008c8e" />
<rect x="26.650" y="27.675" width="1.025" height="1.025" fill="#00fcff" />
<rect x="27.675" y="27.675" width="1.025" height="1.025" fill="#fa05d9" />
<rect x="28.700" y="27.675" width="1.025" height="1.025" fill="#bd42e2" />
<rect x="6.150" y="28.700" width="1.025" height="1.025" fill="#008587" />
<rect x="7.175" y="28.700" width="1.025" height="1.025" fill="#00fcff" />
<rect x="8.200" y="28.700" width="1.025" height="1.025" fill="#008384" />
<rect x="10.250" y="28.700" width="1.025" height="1.025" fill="#41bcf5" />
<rect x="11.275" y="28.700" width="1.025" height="1.025" fill="#009193" />
<rect x="12.300" y="28.700" width="1.025" height="1.025" fill="#6698ef" />
<rect x="13.325" y="28.700" width="1.025" height="1.025" fill="#00e3e5" />
<rect x="22.550" y="28.700" width="1.025" height="1.025" fill="#002324" />
<rect x="23.575" y="28.700" width="1.025" height="1.025" fill="#00f5f8" />
<rect x="24.600" y="28.700" width="1.025" height="1.025" fill="#00fcff" />
<rect x="25.625" y="28.700" width="1.025" height="1.025" fill="#006768" />
<rect x="26.650" y="28.700" width="1.025" height="1.025" fill="#00fcff" />
<rect x="27.675" y="28.700" width="1.025" height="1.025" fill="#e619dc" />
<rect x="6.150" y="29.725" width="1.025" height="1.025" fill="#007c7d" />
<rect x="7.175" y="29.725" width="1.025" height="1.025" fill="#00fcff" />
<rect x="8.200" y="29.725" width="1.025" height="1.025" fill="#001111" />
<rect x="10.250" y="29.725" width="1.025" height="1.025" fill="#7786ed" />
<rect x="11.275" y="29.725" width="1.025" height="1.025" fill="#009b9c" />
<rect x="12.300" y="29.725" width="1.025" height="1.025" fill="#00fcff" />
<rect x="13.325" y="29.725" width="1.025" height="1.025" fill="#00fcff" />
<rect x="24.600" y="29.725" width="1.025" height="1.025" fill="#00f8fb" />
<rect x="25.625" y="29.725" width="1.025" height="1.025" fill="#006c6d" />
<rect x="26.650" y="29.725" width="1.025" height="1.025" fill="#00fcff" />
<rect x="27.675" y="29.725" width="1.025" height="1.025" fill="#db24de" />
<rect x="6.150" y="30.750" width="1.025" height="1.025" fill="#008485" />
<rect x="7.175" y="30.750" width="1.025" height="1.025" fill="#00fcff" />
<rect x="10.250" y="30.750" width="1.025" height="1.025" fill="#807eec" />
<rect x="11.275" y="30.750" width="1.025" height="1.025" fill="#007879" />
<rect x="12.300" y="30.750" width="1.025" height="1.025" fill="#00fcff" />
<rect x="25.625" y="30.750" width="1.025" height="1.025" fill="#007a7b" />
<rect x="26.650" y="30.750" width="1.025" height="1.025" fill="#00fbfe" />
<rect x="27.675" y="30.750" width="1.025" height="1.025" fill="#5ca1f1" />
<rect x="10.250" y="31.775" width="1.025" height="1.025" fill="#06f6fe" />
<rect x="12.300" y="31.775" width="1.025" height="1.025" fill="#00f8fb" />
<rect x="25.625" y="31.775" width="1.025" height="1.025" fill="#001111" />
<rect x="27.675" y="31.775" width="1.025" height="1.025" fill="#20dcfa" />
<rect x="27.675" y="32.800" width="1.025" height="1.025" fill="#9a64e8" />
</svg>