<svg xmlns="http://www.w3.org/2000/svg" width="37.925" height="37.925" shape-rendering="crispEdges" style="image-rendering: pixelated;">
<rect x="15.375" y="4.100" width="1.025" height="1.025" fill="#d6ff00" />
<rect x="16.400" y="4.100" width="1.025" height="1.025" fill="#eaff00" />
<rect x="17.425" y="4.100" width="1.025" height="1.025" fill="#66ff00" />
<rect x="18.450" y="4.100" width="1.025" height="1.025" fill="#dfff00" />
<rect x="20.500" y="4.100" width="1.025" height="1.025" fill="#005200" />
<rect x="21.525" y="4.100" width="1.025" height="1.025" fill="#003800" />
<rect x="22.550" y="4.100" width="1.025" height="1.025" fill="#57ff00" />
<rect x="13.325" y="5.125" width="1.025" height="1.025" fill="#c3ff00" />
<rect x="14.350" y="5.125" width="1.025" height="1.025" fill="#d9ff00" />
<rect x="15.375" y="5.125" width="1.025" height="1.025" fill="#005f00" />
<rect x="16.400" y="5.125" width="1.025" height="1.025" fill="#004800" />
<rect x="17.425" y="5.125" width="1.025" height="1.025" fill="#004900" />
<rect x="18.450" y="5.125" width="1.025" height="1.025" fill="#05cc00" />
<rect x="19.475" y="5.125" width="1.025" height="1.025" fill="#eaff00" />
<rect x="20.500" y="5.125" width="1.025" height="1.025" fill="#eaff00" />
<rect x="21.525" y="5.125" width="1.025" height="1.025" fill="#2fff00" />
<rect x="22.550" y="5.125" width="1.025" height="1.025" fill="#004d00" />
<rect x="23.575" y="5.125" width="1.025" height="1.025" fill="#adff00" />
<rect x="24.600" y="5.125" width="1.025" height="1.025" fill="#75ff00" />
<rect x="12.300" y="6.150" width="1.025" height="1.025" fill="#bfff00" />
<rect x="13.325" y="6.150" width="1.025" height="1.025" fill="#006400" />
<rect x="14.350" y="6.150" width="1.025" height="1.025" fill="#006100" />
<rect x="15.375" y="6.150" width="1.025" height="1.025" fill="#8cff00" />
<rect x="16.400" y="6.150" width="1.025" height="1.025" fill="#eaff00" />
<rect x="17.425" y="6.150" width="1.025" height="1.025" fill="#005100" />
<rect x="18.450" y="6.150" width="1.025" height="1.025" fill="#003000" />
<rect x="19.475" y="6.150" width="1.025" height="1.025" fill="#95ff00" />
<rect x="20.500" y="6.150" width="1.025" height="1.025" fill="#56ff00" />
<rect x="21.525" y="6.150" width="1.025" height="1.025" fill="#eaff00" />
<rect x="22.550" y="6.150" width="1.025" height="1.025" fill="#03be00" />
<rect x="23.575" y="6.150" width="1.025" height="1.025" fill="#002a00" />
<rect x="24.600" y="6.150" width="1.025" height="1.025" fill="#003800" />
<rect x="25.625" y="6.150" width="1.025" height="1.025" fill="#a0ff00" />
<rect x="11.275" y="7.175" width="1.025" height="1.025" fill="#deff00" />
<rect x="12.300" y="7.175" width="1.025" height="1.025" fill="#004e00" />
<rect x="13.325" y="7.175" width="1.025" height="1.025" fill="#006800" />
<rect x="14.350" y="7.175" width="1.025" height="1.025" fill="#e7ff00" />
<rect x="15.375" y="7.175" width="1.025" height="1.025" fill="#006000" />
<rect x="16.400" y="7.175" width="1.025" height="1.025" fill="#003100" />
<rect x="17.425" y="7.175" width="1.025" height="1.025" fill="#eaff00" />
<rect x="18.450" y="7.175" width="1.025" height="1.025" fill="#005f00" />
<rect x="19.475" y="7.175" width="1.025" height="1.025" fill="#003100" />
<rect x="20.500" y="7.175" width="1.025" height="1.025" fill="#003a00" />
<rect x="21.525" y="7.175" width="1.025" height="1.025" fill="#eaff00" />
<rect x="22.550" y="7.175" width="1.025" height="1.025" fill="#006b00" />
<rect x="23.575" y="7.175" width="1.025" height="1.025" fill="#3cff00" />
<rect x="24.600" y="7.175" width="1.025" height="1.025" fill="#43ff00" />
<rect x="25.625" y="7.175" width="1.025" height="1.025" fill="#003900" />
<rect x="26.650" y="7.175" width="1.025" height="1.025" fill="#47ff00" />
<rect x="10.250" y="8.200" width="1.025" height="1.025" fill="#eaff00" />
<rect x="11.275" y="8.200" width="1.025" height="1.025" fill="#006200" />
<rect x="12.300" y="8.200" width="1.025" height="1.025" fill="#24ff00" />
<rect x="13.325" y="8.200" width="1.025" height="1.025" fill="#eaff00" />
<rect x="14.350" y="8.200" width="1.025" height="1.025" fill="#005800" />
<rect x="15.375" y="8.200" width="1.025" height="1.025" fill="#003f00" />
<rect x="16.400" y="8.200" width="1.025" height="1.025" fill="#007300" />
<rect x="17.425" y="8.200" width="1.025" height="1.025" fill="#4eff00" />
<rect x="18.450" y="8.200" width="1.025" height="1.025" fill="#eaff00" />
<rect x="19.475" y="8.200" width="1.025" height="1.025" fill="#007800" />
<rect x="20.500" y="8.200" width="1.025" height="1.025" fill="#01ac00" />
<rect x="21.525" y="8.200" width="1.025" height="1.025" fill="#32ff00" />
<rect x="22.550" y="8.200" width="1.025" height="1.025" fill="#50ff00" />
<rect x="23.575" y="8.200" width="1.025" height="1.025" fill="#002c00" />
<rect x="24.600" y="8.200" width="1.025" height="1.025" fill="#003700" />
<rect x="25.625" y="8.200" width="1.025" height="1.025" fill="#9aff00" />
<rect x="26.650" y="8.200" width="1.025" height="1.025" fill="#004000" />
<rect x="27.675" y="8.200" width="1.025" height="1.025" fill="#69ff00" />
<rect x="10.250" y="9.225" width="1.025" height="1.025" fill="#eaff00" />
<rect x="11.275" y="9.225" width="1.025" height="1.025" fill="#005800" />
<rect x="12.300" y="9.225" width="1.025" height="1.025" fill="#eaff00" />
<rect x="13.325" y="9.225" width="1.025" height="1.025" fill="#007c00" />
<rect x="14.350" y="9.225" width="1.025" height="1.025" fill="#003400" />
<rect x="15.375" y="9.225" width="1.025" height="1.025" fill="#3aff00" />
<rect x="16.400" y="9.225" width="1.025" height="1.025" fill="#eaff00" />
<rect x="17.425" y="9.225" width="1.025" height="1.025" fill="#eaff00" />
<rect x="18.450" y="9.225" width="1.025" height="1.025" fill="#04c800" />
<rect x="19.475" y="9.225" width="1.025" height="1.025" fill="#99ff00" />
<rect x="20.500" y="9.225" width="1.025" height="1.025" fill="#7bff00" />
<rect x="21.525" y="9.225" width="1.025" height="1.025" fill="#00a300" />
<rect x="22.550" y="9.225" width="1.025" height="1.025" fill="#b8ff00" />
<rect x="23.575" y="9.225" width="1.025" height="1.025" fill="#c4ff00" />
<rect x="24.600" y="9.225" width="1.025" height="1.025" fill="#007b00" />
<rect x="25.625" y="9.225" width="1.025" height="1.025" fill="#003a00" />
<rect x="26.650" y="9.225" width="1.025" height="1.025" fill="#baff00" />
<rect x="27.675" y="9.225" width="1.025" height="1.025" fill="#006400" />
<rect x="10.250" y="10.250" width="1.025" height="1.025" fill="#eaff00" />
<rect x="11.275" y="10.250" width="1.025" height="1.025" fill="#005c00" />
<rect x="12.300" y="10.250" width="1.025" height="1.025" fill="#eaff00" />
<rect x="13.325" y="10.250" width="1.025" height="1.025" fill="#004400" />
<rect x="14.350" y="10.250" width="1.025" height="1.025" fill="#007300" />
<rect x="15.375" y="10.250" width="1.025" height="1.025" fill="#ff00d8" />
<rect x="16.400" y="10.250" width="1.025" height="1.025" fill="#007100" />
<rect x="23.575" y="10.250" width="1.025" height="1.025" fill="#eaff00" />
<rect x="24.600" y="10.250" width="1.025" height="1.025" fill="#eaff00" />
<rect x="25.625" y="10.250" width="1.025" height="1.025" fill="#003100" />
<rect x="26.650" y="10.250" width="1.025" height="1.025" fill="#eaff00" />
<rect x="27.675" y="10.250" width="1.025" height="1.025" fill="#004200" />
<rect x="28.700" y="10.250" width="1.025" height="1.025" fill="#007000" />
<rect x="9.225" y="11.275" width="1.025" height="1.025" fill="#eaff00" />
<rect x="10.250" y="11.275" width="1.025" height="1.025" fill="#3aff00" />
<rect x="11.275" y="11.275" width="1.025" height="1.025" fill="#1cff00" />
<rect x="12.300" y="11.275" width="1.025" height="1.025" fill="#eaff00" />
<rect x="13.325" y="11.275" width="1.025" height="1.025" fill="#003700" />
<rect x="14.350" y="11.275" width="1.025" height="1.025" fill="#5dff00" />
<rect x="15.375" y="11.275" width="1.025" height="1.025" fill="#ff00d8" />
<rect x="24.600" y="11.275" width="1.025" height="1.025" fill="#eaff00" />
<rect x="25.625" y="11.275" width="1.025" height="1.025" fill="#004100" />
<rect x="26.650" y="11.275" width="1.025" height="1.025" fill="#c1ff00" />
<rect x="27.675" y="11.275" width="1.025" height="1.025" fill="#008b00" />
<rect x="28.700" y="11.275" width="1.025" height="1.025" fill="#003a00" />
<rect x="9.225" y="12.300" width="1.025" height="1.025" fill="#eaff00" />
<rect x="10.250" y="12.300" width="1.025" height="1.025" fill="#005900" />
<rect x="11.275" y="12.300" width="1.025" height="1.025" fill="#eaff00" />
<rect x="12.300" y="12.300" width="1.025" height="1.025" fill="#d4ff00" />
<rect x="13.325" y="12.300" width="1.025" height="1.025" fill="#004800" />
<rect x="14.350" y="12.300" width="1.025" height="1.025" fill="#aeff00" />
<rect x="24.600" y="12.300" width="1.025" height="1.025" fill="#ff00d8" />
<rect x="25.625" y="12.300" width="1.025" height="1.025" fill="#56ff00" />
<rect x="26.650" y="12.300" width="1.025" height="1.025" fill="#003b00" />
<rect x="27.675" y="12.300" width="1.025" height="1.025" fill="#75ff00" />
<rect x="28.700" y="12.300" width="1.025" height="1.025" fill="#003d00" />
<rect x="9.225" y="13.325" width="1.025" height="1.025" fill="#ff00d8" />
<rect x="10.250" y="13.325" width="1.025" height="1.025" fill="#004200" />
<rect x="11.275" y="13.325" width="1.025" height="1.025" fill="#eaff00" />
<rect x="12.300" y="13.325" width="1.025" height="1.025" fill="#005400" />
<rect x="13.325" y="13.325" width="1.025" height="1.025" fill="#006900" />
<rect x="14.350" y="13.325" width="1.025" height="1.025" fill="#eaff00" />
<rect x="24.600" y="13.325" width="1.025" height="1.025" fill="#ff00d8" />
<rect x="25.625" y="13.325" width="1.025" height="1.025" fill="#e5ff00" />
<rect x="26.650" y="13.325" width="1.025" height="1.025" fill="#002f00" />
<rect x="27.675" y="13.325" width="1.025" height="1.025" fill="#caff00" />
<rect x="28.700" y="13.325" width="1.025" height="1.025" fill="#005900" />
<rect x="9.225" y="14.350" width="1.025" height="1.025" fill="#ff00d8" />
<rect x="10.250" y="14.350" width="1.025" height="1.025" fill="#005700" />
<rect x="11.275" y="14.350" width="1.025" height="1.025" fill="#ecec10" />
<rect x="12.300" y="14.350" width="1.025" height="1.025" fill="#004400" />
<rect x="13.325" y="14.350" width="1.025" height="1.025" fill="#83ff00" />
<rect x="14.350" y="14.350" width="1.025" height="1.025" fill="#eaff00" />
<rect x="24.600" y="14.350" width="1.025" height="1.025" fill="#ff00d8" />
<rect x="25.625" y="14.350" width="1.025" height="1.025" fill="#deff00" />
<rect x="26.650" y="14.350" width="1.025" height="1.025" fill="#004700" />
<rect x="27.675" y="14.350" width="1.025" height="1.025" fill="#84ff00" />
<rect x="28.700" y="14.350" width="1.025" height="1.025" fill="#004900" />
<rect x="8.200" y="15.375" width="1.025" height="1.025" fill="#ff00d8" />
<rect x="9.225" y="15.375" width="1.025" height="1.025" fill="#006000" />
<rect x="10.250" y="15.375" width="1.025" height="1.025" fill="#88ff00" />
<rect x="11.275" y="15.375" width="1.025" height="1.025" fill="#eaff00" />
<rect x="12.300" y="15.375" width="1.025" height="1.025" fill="#003b00" />
<rect x="13.325" y="15.375" width="1.025" height="1.025" fill="#dfff00" />
<rect x="14.350" y="15.375" width="1.025" height="1.025" fill="#ff00d8" />
<rect x="24.600" y="15.375" width="1.025" height="1.025" fill="#ff00d8" />
<rect x="25.625" y="15.375" width="1.025" height="1.025" fill="#eaff00" />
<rect x="26.650" y="15.375" width="1.025" height="1.025" fill="#004600" />
<rect x="27.675" y="15.375" width="1.025" height="1.025" fill="#5dff00" />
<rect x="28.700" y="15.375" width="1.025" height="1.025" fill="#004700" />
<rect x="8.200" y="16.400" width="1.025" height="1.025" fill="#ff00d8" />
<rect x="9.225" y="16.400" width="1.025" height="1.025" fill="#004400" />
<rect x="10.250" y="16.400" width="1.025" height="1.025" fill="#eaff00" />
<rect x="11.275" y="16.400" width="1.025" height="1.025" fill="#eaff00" />
<rect x="12.300" y="16.400" width="1.025" height="1.025" fill="#004400" />
<rect x="13.325" y="16.400" width="1.025" height="1.025" fill="#eaff00" />
<rect x="14.350" y="16.400" width="1.025" height="1.025" fill="#ff00d8" />
<rect x="24.600" y="16.400" width="1.025" height="1.025" fill="#ff00d8" />
<rect x="25.625" y="16.400" width="1.025" height="1.025" fill="#daff00" />
<rect x="26.650" y="16.400" width="1.025" height="1.025" fill="#003f00" />
<rect x="27.675" y="16.400" width="1.025" height="1.025" fill="#e8ff00" />
<rect x="28.700" y="16.400" width="1.025" height="1.025" fill="#005e00" />
<rect x="8.200" y="17.425" width="1.025" height="1.025" fill="#ff00d8" />
<rect x="9.225" y="17.425" width="1.025" height="1.025" fill="#004400" />
<rect x="10.250" y="17.425" width="1.025" height="1.025" fill="#ff00d8" />
<rect x="11.275" y="17.425" width="1.025" height="1.025" fill="#25ff00" />
<rect x="12.300" y="17.425" width="1.025" height="1.025" fill="#005800" />
<rect x="13.325" y="17.425" width="1.025" height="1.025" fill="#eaff00" />
<rect x="14.350" y="17.425" width="1.025" height="1.025" fill="#ff00d8" />
<rect x="24.600" y="17.425" width="1.025" height="1.025" fill="#ff00d8" />
<rect x="25.625" y="17.425" width="1.025" height="1.025" fill="#eaff00" />
<rect x="26.650" y="17.425" width="1.025" height="1.025" fill="#003f00" />
<rect x="27.675" y="17.425" width="1.025" height="1.025" fill="#eaff00" />
<rect x="28.700" y="17.425" width="1.025" height="1.025" fill="#004f00" />
<rect x="8.200" y="18.450" width="1.025" height="1.025" fill="#ff00d8" />
<rect x="9.225" y="18.450" width="1.025" height="1.025" fill="#005600" />
<rect x="10.250" y="18.450" width="1.025" height="1.025" fill="#ff00d8" />
<rect x="11.275" y="18.450" width="1.025" height="1.025" fill="#005b00" />
<rect x="12.300" y="18.450" width="1.025" height="1.025" fill="#005900" />
<rect x="13.325" y="18.450" width="1.025" height="1.025" fill="#eaff00" />
<rect x="14.350" y="18.450" width="1.025" height="1.025" fill="#e817dc" />
<rect x="24.600" y="18.450" width="1.025" height="1.025" fill="#ff00d8" />
<rect x="25.625" y="18.450" width="1.025" height="1.025" fill="#e5ff00" />
<rect x="26.650" y="18.450" width="1.025" height="1.025" fill="#004c00" />
<rect x="27.675" y="18.450" width="1.025" height="1.025" fill="#eaff00" />
<rect x="28.700" y="18.450" width="1.025" height="1.025" fill="#005200" />
<rect x="8.200" y="19.475" width="1.025" height="1.025" fill="#ff00d8" />
<rect x="9.225" y="19.475" width="1.025" height="1.025" fill="#006500" />
<rect x="10.250" y="19.475" width="1.025" height="1.025" fill="#ff00d8" />
<rect x="11.275" y="19.475" width="1.025" height="1.025" fill="#004e00" />
<rect x="12.300" y="19.475" width="1.025" height="1.025" fill="#c8ff00" />
<rect x="13.325" y="19.475" width="1.025" height="1.025" fill="#eaff00" />
<rect x="14.350" y="19.475" width="1.025" height="1.025" fill="#ea15db" />
<rect x="24.600" y="19.475" width="1.025" height="1.025" fill="#ff00d8" />
<rect x="25.625" y="19.475" width="1.025" height="1.025" fill="#caff00" />
<rect x="26.650" y="19.475" width="1.025" height="1.025" fill="#005d00" />
<rect x="27.675" y="19.475" width="1.025" height="1.025" fill="#eaff00" />
<rect x="28.700" y="19.475" width="1.025" height="1.025" fill="#005e00" />
<rect x="8.200" y="20.500" width="1.025" height="1.025" fill="#ff00d8" />
<rect x="9.225" y="20.500" width="1.025" height="1.025" fill="#004800" />
<rect x="10.250" y="20.500" width="1.025" height="1.025" fill="#ff00d8" />
<rect x="11.275" y="20.500" width="1.025" height="1.025" fill="#004900" />
<rect x="12.300" y="20.500" width="1.025" height="1.025" fill="#eaff00" />
<rect x="13.325" y="20.500" width="1.025" height="1.025" fill="#ff00d8" />
<rect x="14.350" y="20.500" width="1.025" height="1.025" fill="#00eff2" />
<rect x="24.600" y="20.500" width="1.025" height="1.025" fill="#df1fdd" />
<rect x="25.625" y="20.500" width="1.025" height="1.025" fill="#eaff00" />
<rect x="26.650" y="20.500" width="1.025" height="1.025" fill="#006b00" />
<rect x="27.675" y="20.500" width="1.025" height="1.025" fill="#eaff00" />
<rect x="28.700" y="20.500" width="1.025" height="1.025" fill="#1dff00" />
<rect x="8.200" y="21.525" width="1.025" height="1.025" fill="#ff00d8" />
<rect x="9.225" y="21.525" width="1.025" height="1.025" fill="#005200" />
<rect x="10.250" y="21.525" width="1.025" height="1.025" fill="#ff00d8" />
<rect x="11.275" y="21.525" width="1.025" height="1.025" fill="#004c00" />
<rect x="12.300" y="21.525" width="1.025" height="1.025" fill="#eaff00" />
<rect x="13.325" y="21.525" width="1.025" height="1.025" fill="#1aff00" />
<rect x="14.350" y="21.525" width="1.025" height="1.025" fill="#e01fdd" />
<rect x="24.600" y="21.525" width="1.025" height="1.025" fill="#ff00d8" />
<rect x="25.625" y="21.525" width="1.025" height="1.025" fill="#47ff00" />
<rect x="26.650" y="21.525" width="1.025" height="1.025" fill="#004500" />
<rect x="27.675" y="21.525" width="1.025" height="1.025" fill="#eaff00" />
<rect x="28.700" y="21.525" width="1.025" height="1.025" fill="#2eff00" />
<rect x="7.175" y="22.550" width="1.025" height="1.025" fill="#16e7fc" />
<rect x="8.200" y="22.550" width="1.025" height="1.025" fill="#007c00" />
<rect x="9.225" y="22.550" width="1.025" height="1.025" fill="#008b00" />
<rect x="10.250" y="22.550" width="1.025" height="1.025" fill="#ff00d8" />
<rect x="11.275" y="22.550" width="1.025" height="1.025" fill="#006100" />
<rect x="12.300" y="22.550" width="1.025" height="1.025" fill="#ff00d8" />
<rect x="13.325" y="22.550" width="1.025" height="1.025" fill="#005600" />
<rect x="14.350" y="22.550" width="1.025" height="1.025" fill="#ff00d8" />
<rect x="24.600" y="22.550" width="1.025" height="1.025" fill="#ff00d8" />
<rect x="25.625" y="22.550" width="1.025" height="1.025" fill="#62ff00" />
<rect x="26.650" y="22.550" width="1.025" height="1.025" fill="#004700" />
<rect x="27.675" y="22.550" width="1.025" height="1.025" fill="#e2ff00" />
<rect x="28.700" y="22.550" width="1.025" height="1.025" fill="#002b00" />
<rect x="7.175" y="23.575" width="1.025" height="1.025" fill="#ff00d8" />
<rect x="8.200" y="23.575" width="1.025" height="1.025" fill="#004a00" />
<rect x="9.225" y="23.575" width="1.025" height="1.025" fill="#eaff00" />
<rect x="10.250" y="23.575" width="1.025" height="1.025" fill="#ff00d8" />
<rect x="11.275" y="23.575" width="1.025" height="1.025" fill="#005100" />
<rect x="12.300" y="23.575" width="1.025" height="1.025" fill="#ff00d8" />
<rect x="13.325" y="23.575" width="1.025" height="1.025" fill="#004e00" />
<rect x="14.350" y="23.575" width="1.025" height="1.025" fill="#ff00d8" />
<rect x="23.575" y="23.575" width="1.025" height="1.025" fill="#eaff00" />
<rect x="24.600" y="23.575" width="1.025" height="1.025" fill="#b8ff00" />
<rect x="25.625" y="23.575" width="1.025" height="1.025" fill="#c5ff00" />
<rect x="26.650" y="23.575" width="1.025" height="1.025" fill="#004400" />
<rect x="27.675" y="23.575" width="1.025" height="1.025" fill="#eaff00" />
<rect x="28.700" y="23.575" width="1.025" height="1.025" fill="#004000" />
<rect x="7.175" y="24.600" width="1.025" height="1.025" fill="#ff00d8" />
<rect x="8.200" y="24.600" width="1.025" height="1.025" fill="#005c00" />
<rect x="9.225" y="24.600" width="1.025" height="1.025" fill="#eed326" />
<rect x="10.250" y="24.600" width="1.025" height="1.025" fill="#ff00d8" />
<rect x="11.275" y="24.600" width="1.025" height="1.025" fill="#005b00" />
<rect x="12.300" y="24.600" width="1.025" height="1.025" fill="#ff00d8" />
<rect x="13.325" y="24.600" width="1.025" height="1.025" fill="#005800" />
<rect x="14.350" y="24.600" width="1.025" height="1.025" fill="#ff00d8" />
<rect x="22.550" y="24.600" width="1.025" height="1.025" fill="#56a7f2" />
<rect x="23.575" y="24.600" width="1.025" height="1.025" fill="#eaff00" />
<rect x="24.600" y="24.600" width="1.025" height="1.025" fill="#20ff00" />
<rect x="25.625" y="24.600" width="1.025" height="1.025" fill="#ff00d8" />
<rect x="26.650" y="24.600" width="1.025" height="1.025" fill="#004800" />
<rect x="27.675" y="24.600" width="1.025" height="1.025" fill="#eaff00" />
<rect x="28.700" y="24.600" width="1.025" height="1.025" fill="#004300" />
<rect x="7.175" y="25.625" width="1.025" height="1.025" fill="#ff00d8" />
<rect x="8.200" y="25.625" width="1.025" height="1.025" fill="#004800" />
<rect x="9.225" y="25.625" width="1.025" height="1.025" fill="#eaff00" />
<rect x="10.250" y="25.625" width="1.025" height="1.025" fill="#ff00d8" />
<rect x="11.275" y="25.625" width="1.025" height="1.025" fill="#005000" />
<rect x="12.300" y="25.625" width="1.025" height="1.025" fill="#ff00d8" />
<rect x="13.325" y="25.625" width="1.025" height="1.025" fill="#004d00" />
<rect x="14.350" y="25.625" width="1.025" height="1.025" fill="#ff00d8" />
<rect x="19.475" y="25.625" width="1.025" height="1.025" fill="#4eaff3" />
<rect x="20.500" y="25.625" width="1.025" height="1.025" fill="#eaff00" />
<rect x="21.525" y="25.625" width="1.025" height="1.025" fill="#23ff00" />
<rect x="22.550" y="25.625" width="1.025" height="1.025" fill="#59a4f1" />
<rect x="23.575" y="25.625" width="1.025" height="1.025" fill="#eaff00" />
<rect x="24.600" y="25.625" width="1.025" height="1.025" fill="#25ff00" />
<rect x="25.625" y="25.625" width="1.025" height="1.025" fill="#ff00d8" />
<rect x="26.650" y="25.625" width="1.025" height="1.025" fill="#005900" />
<rect x="27.675" y="25.625" width="1.025" height="1.025" fill="#e9ff00" />
<rect x="28.700" y="25.625" width="1.025" height="1.025" fill="#004300" />
<rect x="7.175" y="26.650" width="1.025" height="1.025" fill="#ff00d8" />
<rect x="8.200" y="26.650" width="1.025" height="1.025" fill="#005e00" />
<rect x="9.225" y="26.650" width="1.025" height="1.025" fill="#eaff00" />
<rect x="10.250" y="26.650" width="1.025" height="1.025" fill="#ff00d8" />
<rect x="11.275" y="26.650" width="1.025" height="1.025" fill="#005700" />
<rect x="12.300" y="26.650" width="1.025" height="1.025" fill="#ff00d8" />
<rect x="13.325" y="26.650" width="1.025" height="1.025" fill="#005b00" />
<rect x="14.350" y="26.650" width="1.025" height="1.025" fill="#ff00d8" />
<rect x="19.475" y="26.650" width="1.025" height="1.025" fill="#f30bda" />
<rect x="20.500" y="26.650" width="1.025" height="1.025" fill="#eaff00" />
<rect x="21.525" y="26.650" width="1.025" height="1.025" fill="#006300" />
<rect x="22.550" y="26.650" width="1.025" height="1.025" fill="#ed12db" />
<rect x="23.575" y="26.650" width="1.025" height="1.025" fill="#eaff00" />
<rect x="24.600" y="26.650" width="1.025" height="1.025" fill="#006400" />
<rect x="25.625" y="26.650" width="1.025" height="1.025" fill="#ff00d8" />
<rect x="26.650" y="26.650" width="1.025" height="1.025" fill="#01b200" />
<rect x="27.675" y="26.650" width="1.025" height="1.025" fill="#006200" />
<rect x="28.700" y="26.650" width="1.025" height="1.025" fill="#004800" />
<rect x="6.150" y="27.675" width="1.025" height="1.025" fill="#ff00d8" />
<rect x="7.175" y="27.675" width="1.025" height="1.025" fill="#005e00" />
<rect x="8.200" y="27.675" width="1.025" height="1.025" fill="#eaff00" />
<rect x="9.225" y="27.675" width="1.025" height="1.025" fill="#ff00d8" />
<rect x="10.250" y="27.675" width="1.025" height="1.025" fill="#005a00" />
<rect x="11.275" y="27.675" width="1.025" height="1.025" fill="#ff00d8" />
<rect x="12.300" y="27.675" width="1.025" height="1.025" fill="#005b00" />
<rect x="13.325" y="27.675" width="1.025" height="1.025" fill="#ff00d8" />
<rect x="14.350" y="27.675" width="1.025" height="1.025" fill="#00fcff" />
<rect x="19.475" y="27.675" width="1.025" height="1.025" fill="#00fcff" />
<rect x="20.500" y="27.675" width="1.025" height="1.025" fill="#eaff00" />
<rect x="21.525" y="27.675" width="1.025" height="1.025" fill="#006400" />
<rect x="22.550" y="27.675" width="1.025" height="1.025" fill="#00fcff" />
<rect x="23.575" y="27.675" width="1.025" height="1.025" fill="#eaff00" />
<rect x="24.600" y="27.675" width="1.025" height="1.025" fill="#006500" />
<rect x="25.625" y="27.675" width="1.025" height="1.025" fill="#ff00d8" />
<rect x="26.650" y="27.675" width="1.025" height="1.025" fill="#31ff00" />
<rect x="27.675" y="27.675" width="1.025" height="1.025" fill="#002c00" />
<rect x="28.700" y="27.675" width="1.025" height="1.025" fill="#004a00" />
<rect x="6.150" y="28.700" width="1.025" height="1.025" fill="#ff00d8" />
<rect x="7.175" y="28.700" width="1.025" height="1.025" fill="#04ca00" />
<rect x="8.200" y="28.700" width="1.025" height="1.025" fill="#ff00d8" />
<rect x="10.250" y="28.700" width="1.025" height="1.025" fill="#006800" />
<rect x="11.275" y="28.700" width="1.025" height="1.025" fill="#ff00d8" />
<rect x="12.300" y="28.700" width="1.025" height="1.025" fill="#005100" />
<rect x="13.325" y="28.700" width="1.025" height="1.025" fill="#eaff00" />
<rect x="22.550" y="28.700" width="1.025" height="1.025" fill="#00fcff" />
<rect x="23.575" y="28.700" width="1.025" height="1.025" fill="#eaff00" />
<rect x="24.600" y="28.700" width="1.025" height="1.025" fill="#8cff00" />
<rect x="25.625" y="28.700" width="1.025" height="1.025" fill="#a15de6" />
<rect x="26.650" y="28.700" width="1.025" height="1.025" fill="#95ff00" />
<rect x="27.675" y="28.700" width="1.025" height="1.025" fill="#003700" />
<rect x="6.150" y="29.725" width="1.025" height="1.025" fill="#ff00d8" />
<rect x="7.175" y="29.725" width="1.025" height="1.025" fill="#2eff00" />
<rect x="8.200" y="29.725" width="1.025" height="1.025" fill="#009c9e" />
<rect x="10.250" y="29.725" width="1.025" height="1.025" fill="#005500" />
<rect x="11.275" y="29.725" width="1.025" height="1.025" fill="#ff00d8" />
<rect x="12.300" y="29.725" width="1.025" height="1.025" fill="#1cff00" />
<rect x="13.325" y="29.725" width="1.025" height="1.025" fill="#71ff00" />
<rect x="24.600" y="29.725" width="1.025" height="1.025" fill="#eaff00" />
<rect x="25.625" y="29.725" width="1.025" height="1.025" fill="#c33be1" />
<rect x="26.650" y="29.725" width="1.025" height="1.025" fill="#d5ff00" />
<rect x="27.675" y="29.725" width="1.025" height="1.025" fill="#003700" />
<rect x="6.150" y="30.750" width="1.025" height="1.025" fill="#ff00d8" />
<rect x="7.175" y="30.750" width="1.025" height="1.025" fill="#eaff00" />
<rect x="10.250" y="30.750" width="1.025" height="1.025" fill="#005700" />
<rect x="11.275" y="30.750" width="1.025" height="1.025" fill="#f30bda" />
<rect x="12.300" y="30.750" width="1.025" height="1.025" fill="#baff00" />
<rect x="25.625" y="30.750" width="1.025" height="1.025" fill="#ff00d8" />
<rect x="26.650" y="30.750" width="1.025" height="1.025" fill="#eaff00" />
<rect x="27.675" y="30.750" width="1.025" height="1.025" fill="#005a00" />
<rect x="10.250" y="31.775" width="1.025" height="1.025" fill="#007b00" />
<rect x="12.300" y="31.775" width="1.025" height="1.025" fill="#eaff00" />
<rect x="25.625" y="31.775" width="1.025" height="1.025" fill="#00bcbe" />
<rect x="27.675" y="31.775" width="1.025" height="1.025" fill="#006a00" />
<rect x="27.675" y="32.800" width="1.025" height="1.025" fill="#005000" />
</svg>