<svg xmlns="http://www.w3.org/2000/svg" width="37.925" height="37.925" shape-rendering="crispEdges" style="image-rendering: pixelated;">
<rect x="12.300" y="12.300" width="1.025" height="1.025" fill="#000000" fill-opacity="0.349" />
<rect x="13.325" y="12.300" width="1.025" height="1.025" fill="#ff00d8" />
<rect x="14.350" y="12.300" width="1.025" height="1.025" fill="#e619dc" />
<rect x="15.375" y="12.300" width="1.025" height="1.025" fill="#dd21dd" />
<rect x="16.400" y="12.300" width="1.025" height="1.025" fill="#db24de" />
<rect x="17.425" y="12.300" width="1.025" height="1.025" fill="#d529de" />
<rect x="18.450" y="12.300" width="1.025" height="1.025" fill="#e916db" />
<rect x="19.475" y="12.300" width="1.025" height="1.025" fill="#de20dd" />
<rect x="20.500" y="12.300" width="1.025" height="1.025" fill="#ec13db" />
<rect x="21.525" y="12.300" width="1.025" height="1.025" fill="#ee11db" />
<rect x="22.550" y="12.300" width="1.025" height="1.025" fill="#e51adc" />
<rect x="23.575" y="12.300" width="1.025" height="1.025" fill="#d42adf" />
<rect x="24.600" y="12.300" width="1.025" height="1.025" fill="#ff00d8" />
<rect x="25.625" y="12.300" width="1.025" height="1.025" fill="#ff00d8" />
<rect x="26.650" y="12.300" width="1.025" height="1.025" fill="#ff00d8" />
<rect x="11.275" y="13.325" width="1.025" height="1.025" fill="#ff00d8" />
<rect x="12.300" y="13.325" width="1.025" height="1.025" fill="#ff00d8" />
<rect x="14.350" y="13.325" width="1.025" height="1.025" fill="#000100" fill-opacity="0.302" />
<rect x="15.375" y="13.325" width="1.025" height="1.025" fill="#4cff00" fill-opacity="0.651" />
<rect x="16.400" y="13.325" width="1.025" height="1.025" fill="#43ff00" fill-opacity="0.651" />
<rect x="17.425" y="13.325" width="1.025" height="1.025" fill="#41ff00" fill-opacity="0.651" />
<rect x="18.450" y="13.325" width="1.025" height="1.025" fill="#60ff00" fill-opacity="0.651" />
<rect x="19.475" y="13.325" width="1.025" height="1.025" fill="#c4ff00" fill-opacity="0.651" />
<rect x="20.500" y="13.325" width="1.025" height="1.025" fill="#eaff00" fill-opacity="0.761" />
<rect x="21.525" y="13.325" width="1.025" height="1.025" fill="#eaff00" fill-opacity="0.761" />
<rect x="22.550" y="13.325" width="1.025" height="1.025" fill="#eaff00" fill-opacity="0.871" />
<rect x="23.575" y="13.325" width="1.025" height="1.025" fill="#eaff00" fill-opacity="0.961" />
<rect x="24.600" y="13.325" width="1.025" height="1.025" fill="#10edfd" />
<rect x="25.625" y="13.325" width="1.025" height="1.025" fill="#f5806c" />
<rect x="9.225" y="14.350" width="1.025" height="1.025" fill="#000000" />
<rect x="10.250" y="14.350" width="1.025" height="1.025" fill="#000000" />
<rect x="14.350" y="14.350" width="1.025" height="1.025" fill="#000000" fill-opacity="0.165" />
<rect x="15.375" y="14.350" width="1.025" height="1.025" fill="#48ff00" fill-opacity="0.651" />
<rect x="16.400" y="14.350" width="1.025" height="1.025" fill="#42ff00" fill-opacity="0.651" />
<rect x="17.425" y="14.350" width="1.025" height="1.025" fill="#41ff00" fill-opacity="0.651" />
<rect x="18.450" y="14.350" width="1.025" height="1.025" fill="#97ff00" fill-opacity="0.651" />
<rect x="19.475" y="14.350" width="1.025" height="1.025" fill="#ddff00" fill-opacity="0.651" />
<rect x="20.500" y="14.350" width="1.025" height="1.025" fill="#eaff00" fill-opacity="0.761" />
<rect x="21.525" y="14.350" width="1.025" height="1.025" fill="#eaff00" fill-opacity="0.761" />
<rect x="22.550" y="14.350" width="1.025" height="1.025" fill="#eaff00" fill-opacity="0.871" />
<rect x="23.575" y="14.350" width="1.025" height="1.025" fill="#ff00d8" fill-opacity="0.961" />
<rect x="24.600" y="14.350" width="1.025" height="1.025" fill="#ff00d8" />
<rect x="25.625" y="14.350" width="1.025" height="1.025" fill="#eaff00" />
<rect x="14.350" y="15.375" width="1.025" height="1.025" fill="#000000" fill-opacity="0.200" />
<rect x="15.375" y="15.375" width="1.025" height="1.025" fill="#44ff00" fill-opacity="0.651" />
<rect x="16.400" y="15.375" width="1.025" height="1.025" fill="#46ff00" fill-opacity="0.651" />
<rect x="17.425" y="15.375" width="1.025" height="1.025" fill="#46ff00" fill-opacity="0.651" />
<rect x="18.450" y="15.375" width="1.025" height="1.025" fill="#bfff00" fill-opacity="0.651" />
<rect x="19.475" y="15.375" width="1.025" height="1.025" fill="#e8ff00" fill-opacity="0.651" />
<rect x="20.500" y="15.375" width="1.025" height="1.025" fill="#eaff00" fill-opacity="0.761" />
<rect x="21.525" y="15.375" width="1.025" height="1.025" fill="#eaff00" fill-opacity="0.761" />
<rect x="22.550" y="15.375" width="1.025" height="1.025" fill="#eaff00" fill-opacity="0.871" />
<rect x="23.575" y="15.375" width="1.025" height="1.025" fill="#ff00d8" fill-opacity="0.961" />
<rect x="24.600" y="15.375" width="1.025" height="1.025" fill="#ff00d8" />
<rect x="25.625" y="15.375" width="1.025" height="1.025" fill="#eaff00" />
<rect x="14.350" y="16.400" width="1.025" height="1.025" fill="#000000" fill-opacity="0.137" />
<rect x="15.375" y="16.400" width="1.025" height="1.025" fill="#45ff00" fill-opacity="0.651" />
<rect x="16.400" y="16.400" width="1.025" height="1.025" fill="#4aff00" fill-opacity="0.651" />
<rect x="17.425" y="16.400" width="1.025" height="1.025" fill="#90ff00" fill-opacity="0.651" />
<rect x="18.450" y="16.400" width="1.025" height="1.025" fill="#d9ff00" fill-opacity="0.651" />
<rect x="19.475" y="16.400" width="1.025" height="1.025" fill="#eaff00" fill-opacity="0.651" />
<rect x="20.500" y="16.400" width="1.025" height="1.025" fill="#eaff00" fill-opacity="0.761" />
<rect x="21.525" y="16.400" width="1.025" height="1.025" fill="#ff00d8" fill-opacity="0.761" />
<rect x="22.550" y="16.400" width="1.025" height="1.025" fill="#eaff00" fill-opacity="0.871" />
<rect x="23.575" y="16.400" width="1.025" height="1.025" fill="#ff00d8" fill-opacity="0.961" />
<rect x="24.600" y="16.400" width="1.025" height="1.025" fill="#eaff00" />
<rect x="25.625" y="16.400" width="1.025" height="1.025" fill="#eaff00" />
<rect x="14.350" y="17.425" width="1.025" height="1.025" fill="#000000" fill-opacity="0.165" />
<rect x="15.375" y="17.425" width="1.025" height="1.025" fill="#49ff00" fill-opacity="0.651" />
<rect x="16.400" y="17.425" width="1.025" height="1.025" fill="#4aff00" fill-opacity="0.651" />
<rect x="17.425" y="17.425" width="1.025" height="1.025" fill="#b6ff00" fill-opacity="0.651" />
<rect x="18.450" y="17.425" width="1.025" height="1.025" fill="#e6ff00" fill-opacity="0.651" />
<rect x="19.475" y="17.425" width="1.025" height="1.025" fill="#eaff00" fill-opacity="0.651" />
<rect x="20.500" y="17.425" width="1.025" height="1.025" fill="#ff00d8" fill-opacity="0.761" />
<rect x="21.525" y="17.425" width="1.025" height="1.025" fill="#eaff00" fill-opacity="0.761" />
<rect x="22.550" y="17.425" width="1.025" height="1.025" fill="#eaff00" fill-opacity="0.871" />
<rect x="23.575" y="17.425" width="1.025" height="1.025" fill="#ff00d8" fill-opacity="0.961" />
<rect x="24.600" y="17.425" width="1.025" height="1.025" fill="#eaff00" />
<rect x="25.625" y="17.425" width="1.025" height="1.025" fill="#eaff00" />
<rect x="15.375" y="18.450" width="1.025" height="1.025" fill="#000000" fill-opacity="0.106" />
<rect x="16.400" y="18.450" width="1.025" height="1.025" fill="#7cff00" fill-opacity="0.651" />
<rect x="17.425" y="18.450" width="1.025" height="1.025" fill="#d8ff00" fill-opacity="0.651" />
<rect x="18.450" y="18.450" width="1.025" height="1.025" fill="#eaff00" fill-opacity="0.651" />
<rect x="19.475" y="18.450" width="1.025" height="1.025" fill="#ff00d8" fill-opacity="0.761" />
<rect x="20.500" y="18.450" width="1.025" height="1.025" fill="#eaff00" fill-opacity="0.761" />
<rect x="21.525" y="18.450" width="1.025" height="1.025" fill="#eaff00" fill-opacity="0.871" />
<rect x="22.550" y="18.450" width="1.025" height="1.025" fill="#ff00d8" fill-opacity="0.961" />
<rect x="23.575" y="18.450" width="1.025" height="1.025" fill="#eaff00" />
<rect x="24.600" y="18.450" width="1.025" height="1.025" fill="#eaff00" />
<rect x="25.625" y="18.450" width="1.025" height="1.025" fill="#eaff00" />
<rect x="16.400" y="19.475" width="1.025" height="1.025" fill="#000000" fill-opacity="0.165" />
<rect x="17.425" y="19.475" width="1.025" height="1.025" fill="#000000" fill-opacity="0.165" />
<rect x="18.450" y="19.475" width="1.025" height="1.025" fill="#000100" fill-opacity="0.200" />
<rect x="19.475" y="19.475" width="1.025" height="1.025" fill="#000000" fill-opacity="0.200" />
<rect x="20.500" y="19.475" width="1.025" height="1.025" fill="#000100" fill-opacity="0.247" />
<rect x="21.525" y="19.475" width="1.025" height="1.025" fill="#000000" fill-opacity="0.302" />
<rect x="22.550" y="19.475" width="1.025" height="1.025" fill="#000000" fill-opacity="0.373" />
<rect x="23.575" y="19.475" width="1.025" height="1.025" fill="#000000" fill-opacity="0.373" />
</svg>