<svg xmlns="http://www.w3.org/2000/svg" width="37.925" height="37.925" shape-rendering="crispEdges" style="image-rendering: pixelated;">
<rect x="14.350" y="4.100" width="1.025" height="1.025" fill="#000a0a" />
<rect x="15.375" y="4.100" width="1.025" height="1.025" fill="#ff00d8" />
<rect x="16.400" y="4.100" width="1.025" height="1.025" fill="#ff00d8" />
<rect x="17.425" y="4.100" width="1.025" height="1.025" fill="#ff00d8" />
<rect x="18.450" y="4.100" width="1.025" height="1.025" fill="#42bbf5" />
<rect x="19.475" y="4.100" width="1.025" height="1.025" fill="#00fcff" />
<rect x="20.500" y="4.100" width="1.025" height="1.025" fill="#ff00d8" />
<rect x="21.525" y="4.100" width="1.025" height="1.025" fill="#ff00d8" />
<rect x="22.550" y="4.100" width="1.025" height="1.025" fill="#ff00d8" />
<rect x="23.575" y="4.100" width="1.025" height="1.025" fill="#000707" />
<rect x="12.300" y="5.125" width="1.025" height="1.025" fill="#000202" />
<rect x="13.325" y="5.125" width="1.025" height="1.025" fill="#e01fdd" />
<rect x="14.350" y="5.125" width="1.025" height="1.025" fill="#c43ae1" />
<rect x="15.375" y="5.125" width="1.025" height="1.025" fill="#ff00d8" />
<rect x="16.400" y="5.125" width="1.025" height="1.025" fill="#eaff00" />
<rect x="17.425" y="5.125" width="1.025" height="1.025" fill="#ff00d8" />
<rect x="18.450" y="5.125" width="1.025" height="1.025" fill="#ff00d8" />
<rect x="19.475" y="5.125" width="1.025" height="1.025" fill="#ef10da" />
<rect x="20.500" y="5.125" width="1.025" height="1.025" fill="#d926de" />
<rect x="21.525" y="5.125" width="1.025" height="1.025" fill="#ff00d8" />
<rect x="22.550" y="5.125" width="1.025" height="1.025" fill="#ff00d8" />
<rect x="23.575" y="5.125" width="1.025" height="1.025" fill="#ff00d8" />
<rect x="24.600" y="5.125" width="1.025" height="1.025" fill="#003132" />
<rect x="12.300" y="6.150" width="1.025" height="1.025" fill="#ff00d8" />
<rect x="13.325" y="6.150" width="1.025" height="1.025" fill="#ff00d8" />
<rect x="14.350" y="6.150" width="1.025" height="1.025" fill="#ff00d8" />
<rect x="15.375" y="6.150" width="1.025" height="1.025" fill="#eaff00" />
<rect x="16.400" y="6.150" width="1.025" height="1.025" fill="#eaff00" />
<rect x="17.425" y="6.150" width="1.025" height="1.025" fill="#ff00d8" />
<rect x="18.450" y="6.150" width="1.025" height="1.025" fill="#eaff00" />
<rect x="19.475" y="6.150" width="1.025" height="1.025" fill="#ff00d8" />
<rect x="20.500" y="6.150" width="1.025" height="1.025" fill="#ff00d8" />
<rect x="21.525" y="6.150" width="1.025" height="1.025" fill="#ff00d8" />
<rect x="22.550" y="6.150" width="1.025" height="1.025" fill="#ff00d8" />
<rect x="23.575" y="6.150" width="1.025" height="1.025" fill="#ff00d8" />
<rect x="24.600" y="6.150" width="1.025" height="1.025" fill="#f50ada" />
<rect x="25.625" y="6.150" width="1.025" height="1.025" fill="#eaff00" />
<rect x="11.275" y="7.175" width="1.025" height="1.025" fill="#000000" />
<rect x="12.300" y="7.175" width="1.025" height="1.025" fill="#ff00d8" />
<rect x="13.325" y="7.175" width="1.025" height="1.025" fill="#ff00d8" />
<rect x="14.350" y="7.175" width="1.025" height="1.025" fill="#eaff00" />
<rect x="15.375" y="7.175" width="1.025" height="1.025" fill="#eaff00" />
<rect x="16.400" y="7.175" width="1.025" height="1.025" fill="#eaff00" />
<rect x="17.425" y="7.175" width="1.025" height="1.025" fill="#eaff00" />
<rect x="18.450" y="7.175" width="1.025" height="1.025" fill="#eaff00" />
<rect x="19.475" y="7.175" width="1.025" height="1.025" fill="#eaff00" />
<rect x="20.500" y="7.175" width="1.025" height="1.025" fill="#ff00d8" />
<rect x="21.525" y="7.175" width="1.025" height="1.025" fill="#ff00d8" />
<rect x="22.550" y="7.175" width="1.025" height="1.025" fill="#ff00d8" />
<rect x="23.575" y="7.175" width="1.025" height="1.025" fill="#ff00d8" />
<rect x="24.600" y="7.175" width="1.025" height="1.025" fill="#ff00d8" />
<rect x="25.625" y="7.175" width="1.025" height="1.025" fill="#00fcff" />
<rect x="11.275" y="8.200" width="1.025" height="1.025" fill="#ff00d8" />
<rect x="12.300" y="8.200" width="1.025" height="1.025" fill="#ff00d8" />
<rect x="13.325" y="8.200" width="1.025" height="1.025" fill="#eaff00" />
<rect x="14.350" y="8.200" width="1.025" height="1.025" fill="#eaff00" />
<rect x="15.375" y="8.200" width="1.025" height="1.025" fill="#37ff00" />
<rect x="16.400" y="8.200" width="1.025" height="1.025" fill="#eaff00" />
<rect x="17.425" y="8.200" width="1.025" height="1.025" fill="#4eff00" />
<rect x="18.450" y="8.200" width="1.025" height="1.025" fill="#79ff00" />
<rect x="19.475" y="8.200" width="1.025" height="1.025" fill="#eaff00" />
<rect x="20.500" y="8.200" width="1.025" height="1.025" fill="#ff00d8" />
<rect x="21.525" y="8.200" width="1.025" height="1.025" fill="#ff00d8" />
<rect x="22.550" y="8.200" width="1.025" height="1.025" fill="#65ff00" />
<rect x="23.575" y="8.200" width="1.025" height="1.025" fill="#c03ee2" />
<rect x="24.600" y="8.200" width="1.025" height="1.025" fill="#eaff00" />
<rect x="25.625" y="8.200" width="1.025" height="1.025" fill="#ff00d8" />
<rect x="26.650" y="8.200" width="1.025" height="1.025" fill="#000101" />
<rect x="10.250" y="9.225" width="1.025" height="1.025" fill="#000303" />
<rect x="11.275" y="9.225" width="1.025" height="1.025" fill="#ff00d8" />
<rect x="12.300" y="9.225" width="1.025" height="1.025" fill="#ff00d8" />
<rect x="13.325" y="9.225" width="1.025" height="1.025" fill="#eaff00" />
<rect x="14.350" y="9.225" width="1.025" height="1.025" fill="#eaff00" />
<rect x="15.375" y="9.225" width="1.025" height="1.025" fill="#d8ff00" />
<rect x="16.400" y="9.225" width="1.025" height="1.025" fill="#ff00d8" />
<rect x="17.425" y="9.225" width="1.025" height="1.025" fill="#1dff00" />
<rect x="18.450" y="9.225" width="1.025" height="1.025" fill="#cbff00" />
<rect x="19.475" y="9.225" width="1.025" height="1.025" fill="#e4ff00" />
<rect x="20.500" y="9.225" width="1.025" height="1.025" fill="#ff00d8" />
<rect x="21.525" y="9.225" width="1.025" height="1.025" fill="#ff00d8" />
<rect x="22.550" y="9.225" width="1.025" height="1.025" fill="#ff00d8" />
<rect x="23.575" y="9.225" width="1.025" height="1.025" fill="#ff00d8" />
<rect x="24.600" y="9.225" width="1.025" height="1.025" fill="#eaff00" />
<rect x="25.625" y="9.225" width="1.025" height="1.025" fill="#ff00d8" />
<rect x="26.650" y="9.225" width="1.025" height="1.025" fill="#002020" />
<rect x="10.250" y="10.250" width="1.025" height="1.025" fill="#00fcff" />
<rect x="11.275" y="10.250" width="1.025" height="1.025" fill="#ff00d8" />
<rect x="12.300" y="10.250" width="1.025" height="1.025" fill="#eaff00" />
<rect x="13.325" y="10.250" width="1.025" height="1.025" fill="#eaff00" />
<rect x="14.350" y="10.250" width="1.025" height="1.025" fill="#ff00d8" />
<rect x="15.375" y="10.250" width="1.025" height="1.025" fill="#ff00d8" />
<rect x="16.400" y="10.250" width="1.025" height="1.025" fill="#ff00d8" />
<rect x="17.425" y="10.250" width="1.025" height="1.025" fill="#14fa00" />
<rect x="18.450" y="10.250" width="1.025" height="1.025" fill="#ff00d8" />
<rect x="19.475" y="10.250" width="1.025" height="1.025" fill="#ff00d8" />
<rect x="20.500" y="10.250" width="1.025" height="1.025" fill="#0af2fd" />
<rect x="21.525" y="10.250" width="1.025" height="1.025" fill="#eaff00" />
<rect x="22.550" y="10.250" width="1.025" height="1.025" fill="#eaff00" />
<rect x="23.575" y="10.250" width="1.025" height="1.025" fill="#38c4f6" />
<rect x="24.600" y="10.250" width="1.025" height="1.025" fill="#ff00d8" />
<rect x="25.625" y="10.250" width="1.025" height="1.025" fill="#ff00d8" />
<rect x="26.650" y="10.250" width="1.025" height="1.025" fill="#00b1b3" />
<rect x="9.225" y="11.275" width="1.025" height="1.025" fill="#000606" />
<rect x="10.250" y="11.275" width="1.025" height="1.025" fill="#ff00d8" />
<rect x="11.275" y="11.275" width="1.025" height="1.025" fill="#eaff00" />
<rect x="12.300" y="11.275" width="1.025" height="1.025" fill="#eaff00" />
<rect x="13.325" y="11.275" width="1.025" height="1.025" fill="#eaff00" />
<rect x="14.350" y="11.275" width="1.025" height="1.025" fill="#007b00" />
<rect x="15.375" y="11.275" width="1.025" height="1.025" fill="#d728de" />
<rect x="24.600" y="11.275" width="1.025" height="1.025" fill="#dbff00" />
<rect x="25.625" y="11.275" width="1.025" height="1.025" fill="#ff00d8" />
<rect x="26.650" y="11.275" width="1.025" height="1.025" fill="#ff00d8" />
<rect x="27.675" y="11.275" width="1.025" height="1.025" fill="#000000" />
<rect x="9.225" y="12.300" width="1.025" height="1.025" fill="#ff00d8" />
<rect x="10.250" y="12.300" width="1.025" height="1.025" fill="#ff00d8" />
<rect x="11.275" y="12.300" width="1.025" height="1.025" fill="#ff00d8" />
<rect x="12.300" y="12.300" width="1.025" height="1.025" fill="#eaff00" />
<rect x="13.325" y="12.300" width="1.025" height="1.025" fill="#eaff00" />
<rect x="14.350" y="12.300" width="1.025" height="1.025" fill="#006500" />
<rect x="25.625" y="12.300" width="1.025" height="1.025" fill="#ff00d8" />
<rect x="26.650" y="12.300" width="1.025" height="1.025" fill="#ff00d8" />
<rect x="27.675" y="12.300" width="1.025" height="1.025" fill="#002525" />
<rect x="9.225" y="13.325" width="1.025" height="1.025" fill="#ff00d8" />
<rect x="10.250" y="13.325" width="1.025" height="1.025" fill="#eaff00" />
<rect x="11.275" y="13.325" width="1.025" height="1.025" fill="#ff00d8" />
<rect x="12.300" y="13.325" width="1.025" height="1.025" fill="#eaff00" />
<rect x="13.325" y="13.325" width="1.025" height="1.025" fill="#eaff00" />
<rect x="14.350" y="13.325" width="1.025" height="1.025" fill="#007000" />
<rect x="25.625" y="13.325" width="1.025" height="1.025" fill="#ff00d8" />
<rect x="26.650" y="13.325" width="1.025" height="1.025" fill="#ff00d8" />
<rect x="27.675" y="13.325" width="1.025" height="1.025" fill="#00eaed" />
<rect x="8.200" y="14.350" width="1.025" height="1.025" fill="#000000" />
<rect x="9.225" y="14.350" width="1.025" height="1.025" fill="#eaff00" />
<rect x="10.250" y="14.350" width="1.025" height="1.025" fill="#ff00d8" />
<rect x="11.275" y="14.350" width="1.025" height="1.025" fill="#ff00d8" />
<rect x="12.300" y="14.350" width="1.025" height="1.025" fill="#eaff00" />
<rect x="13.325" y="14.350" width="1.025" height="1.025" fill="#8cff00" />
<rect x="14.350" y="14.350" width="1.025" height="1.025" fill="#00a100" />
<rect x="25.625" y="14.350" width="1.025" height="1.025" fill="#ff00d8" />
<rect x="26.650" y="14.350" width="1.025" height="1.025" fill="#ff00d8" />
<rect x="27.675" y="14.350" width="1.025" height="1.025" fill="#00fcff" />
<rect x="8.200" y="15.375" width="1.025" height="1.025" fill="#00fcff" />
<rect x="9.225" y="15.375" width="1.025" height="1.025" fill="#eaff00" />
<rect x="10.250" y="15.375" width="1.025" height="1.025" fill="#d926de" />
<rect x="11.275" y="15.375" width="1.025" height="1.025" fill="#ff00d8" />
<rect x="12.300" y="15.375" width="1.025" height="1.025" fill="#eaff00" />
<rect x="13.325" y="15.375" width="1.025" height="1.025" fill="#007700" />
<rect x="14.350" y="15.375" width="1.025" height="1.025" fill="#d5ff00" />
<rect x="25.625" y="15.375" width="1.025" height="1.025" fill="#ff00d8" />
<rect x="26.650" y="15.375" width="1.025" height="1.025" fill="#ff00d8" />
<rect x="27.675" y="15.375" width="1.025" height="1.025" fill="#eaff00" />
<rect x="28.700" y="15.375" width="1.025" height="1.025" fill="#00ecef" />
<rect x="8.200" y="16.400" width="1.025" height="1.025" fill="#906ee9" />
<rect x="9.225" y="16.400" width="1.025" height="1.025" fill="#ff00d8" />
<rect x="10.250" y="16.400" width="1.025" height="1.025" fill="#ff00d8" />
<rect x="11.275" y="16.400" width="1.025" height="1.025" fill="#ff00d8" />
<rect x="12.300" y="16.400" width="1.025" height="1.025" fill="#e2ff00" />
<rect x="13.325" y="16.400" width="1.025" height="1.025" fill="#13f800" />
<rect x="14.350" y="16.400" width="1.025" height="1.025" fill="#eaff00" />
<rect x="25.625" y="16.400" width="1.025" height="1.025" fill="#e21ddc" />
<rect x="26.650" y="16.400" width="1.025" height="1.025" fill="#ff00d8" />
<rect x="27.675" y="16.400" width="1.025" height="1.025" fill="#eaff00" />
<rect x="28.700" y="16.400" width="1.025" height="1.025" fill="#00fcff" />
<rect x="7.175" y="17.425" width="1.025" height="1.025" fill="#005e5f" />
<rect x="8.200" y="17.425" width="1.025" height="1.025" fill="#ff00d8" />
<rect x="9.225" y="17.425" width="1.025" height="1.025" fill="#ff00d8" />
<rect x="10.250" y="17.425" width="1.025" height="1.025" fill="#ff00d8" />
<rect x="11.275" y="17.425" width="1.025" height="1.025" fill="#ff00d8" />
<rect x="12.300" y="17.425" width="1.025" height="1.025" fill="#c5ff00" />
<rect x="13.325" y="17.425" width="1.025" height="1.025" fill="#007f00" />
<rect x="14.350" y="17.425" width="1.025" height="1.025" fill="#ff00d8" />
<rect x="25.625" y="17.425" width="1.025" height="1.025" fill="#9b63e7" />
<rect x="26.650" y="17.425" width="1.025" height="1.025" fill="#ff00d8" />
<rect x="27.675" y="17.425" width="1.025" height="1.025" fill="#ff00d8" />
<rect x="28.700" y="17.425" width="1.025" height="1.025" fill="#00c4c6" />
<rect x="7.175" y="18.450" width="1.025" height="1.025" fill="#7589ed" />
<rect x="8.200" y="18.450" width="1.025" height="1.025" fill="#ff00d8" />
<rect x="9.225" y="18.450" width="1.025" height="1.025" fill="#00e3e6" />
<rect x="10.250" y="18.450" width="1.025" height="1.025" fill="#ff00d8" />
<rect x="11.275" y="18.450" width="1.025" height="1.025" fill="#ff00d8" />
<rect x="12.300" y="18.450" width="1.025" height="1.025" fill="#c2ff00" />
<rect x="13.325" y="18.450" width="1.025" height="1.025" fill="#eaff00" />
<rect x="14.350" y="18.450" width="1.025" height="1.025" fill="#ff00d8" />
<rect x="25.625" y="18.450" width="1.025" height="1.025" fill="#8479eb" />
<rect x="26.650" y="18.450" width="1.025" height="1.025" fill="#ff00d8" />
<rect x="27.675" y="18.450" width="1.025" height="1.025" fill="#eaff00" />
<rect x="28.700" y="18.450" width="1.025" height="1.025" fill="#00fcff" />
<rect x="7.175" y="19.475" width="1.025" height="1.025" fill="#c935e0" />
<rect x="8.200" y="19.475" width="1.025" height="1.025" fill="#eaff00" />
<rect x="9.225" y="19.475" width="1.025" height="1.025" fill="#003333" />
<rect x="10.250" y="19.475" width="1.025" height="1.025" fill="#ff00d8" />
<rect x="11.275" y="19.475" width="1.025" height="1.025" fill="#ff00d8" />
<rect x="12.300" y="19.475" width="1.025" height="1.025" fill="#daff00" />
<rect x="13.325" y="19.475" width="1.025" height="1.025" fill="#eaff00" />
<rect x="14.350" y="19.475" width="1.025" height="1.025" fill="#ff00d8" />
<rect x="25.625" y="19.475" width="1.025" height="1.025" fill="#02faff" />
<rect x="26.650" y="19.475" width="1.025" height="1.025" fill="#ff00d8" />
<rect x="27.675" y="19.475" width="1.025" height="1.025" fill="#eaff00" />
<rect x="28.700" y="19.475" width="1.025" height="1.025" fill="#001313" />
<rect x="7.175" y="20.500" width="1.025" height="1.025" fill="#00f9fc" />
<rect x="8.200" y="20.500" width="1.025" height="1.025" fill="#eaff00" />
<rect x="9.225" y="20.500" width="1.025" height="1.025" fill="#002b2b" />
<rect x="10.250" y="20.500" width="1.025" height="1.025" fill="#ff00d8" />
<rect x="11.275" y="20.500" width="1.025" height="1.025" fill="#ff00d8" />
<rect x="12.300" y="20.500" width="1.025" height="1.025" fill="#eaff00" />
<rect x="13.325" y="20.500" width="1.025" height="1.025" fill="#e8ff00" />
<rect x="14.350" y="20.500" width="1.025" height="1.025" fill="#ff00d8" />
<rect x="25.625" y="20.500" width="1.025" height="1.025" fill="#00fcff" />
<rect x="26.650" y="20.500" width="1.025" height="1.025" fill="#ff00d8" />
<rect x="27.675" y="20.500" width="1.025" height="1.025" fill="#eaff00" />
<rect x="8.200" y="21.525" width="1.025" height="1.025" fill="#000000" />
<rect x="9.225" y="21.525" width="1.025" height="1.025" fill="#00fcff" />
<rect x="10.250" y="21.525" width="1.025" height="1.025" fill="#00fcff" />
<rect x="11.275" y="21.525" width="1.025" height="1.025" fill="#ff00d8" />
<rect x="12.300" y="21.525" width="1.025" height="1.025" fill="#00aaac" />
<rect x="13.325" y="21.525" width="1.025" height="1.025" fill="#ff00d8" />
<rect x="14.350" y="21.525" width="1.025" height="1.025" fill="#eaff00" />
<rect x="25.625" y="21.525" width="1.025" height="1.025" fill="#7d80ec" />
<rect x="26.650" y="21.525" width="1.025" height="1.025" fill="#ff00d8" />
<rect x="27.675" y="21.525" width="1.025" height="1.025" fill="#001818" />
<rect x="9.225" y="22.550" width="1.025" height="1.025" fill="#d629de" />
<rect x="10.250" y="22.550" width="1.025" height="1.025" fill="#00fcff" />
<rect x="11.275" y="22.550" width="1.025" height="1.025" fill="#00fcff" />
<rect x="12.300" y="22.550" width="1.025" height="1.025" fill="#006567" />
<rect x="13.325" y="22.550" width="1.025" height="1.025" fill="#001c1c" />
<rect x="14.350" y="22.550" width="1.025" height="1.025" fill="#ff00d8" />
<rect x="24.600" y="22.550" width="1.025" height="1.025" fill="#ff00d8" />
<rect x="25.625" y="22.550" width="1.025" height="1.025" fill="#002020" />
<rect x="26.650" y="22.550" width="1.025" height="1.025" fill="#000000" />
</svg>