<svg xmlns="http://www.w3.org/2000/svg" width="37.925" height="37.925" shape-rendering="crispEdges" style="image-rendering: pixelated;">
<rect x="20.500" y="15.375" width="1.025" height="1.025" fill="#000000" />
<rect x="21.525" y="15.375" width="1.025" height="1.025" fill="#000000" />
<rect x="19.475" y="16.400" width="1.025" height="1.025" fill="#000000" />
<rect x="20.500" y="16.400" width="1.025" height="1.025" fill="#eaff00" />
<rect x="21.525" y="16.400" width="1.025" height="1.025" fill="#b2ff00" />
<rect x="22.550" y="16.400" width="1.025" height="1.025" fill="#000000" />
<rect x="18.450" y="17.425" width="1.025" height="1.025" fill="#000000" />
<rect x="19.475" y="17.425" width="1.025" height="1.025" fill="#ff00d8" />
<rect x="20.500" y="17.425" width="1.025" height="1.025" fill="#00d8db" />
<rect x="21.525" y="17.425" width="1.025" height="1.025" fill="#009d9f" />
<rect x="22.550" y="17.425" width="1.025" height="1.025" fill="#00fcff" />
<rect x="23.575" y="17.425" width="1.025" height="1.025" fill="#000000" />
<rect x="17.425" y="18.450" width="1.025" height="1.025" fill="#ff00d8" />
<rect x="18.450" y="18.450" width="1.025" height="1.025" fill="#ff00d8" />
<rect x="19.475" y="18.450" width="1.025" height="1.025" fill="#007879" />
<rect x="20.500" y="18.450" width="1.025" height="1.025" fill="#000000" />
<rect x="21.525" y="18.450" width="1.025" height="1.025" fill="#000000" />
<rect x="22.550" y="18.450" width="1.025" height="1.025" fill="#000000" />
<rect x="23.575" y="18.450" width="1.025" height="1.025" fill="#ff00d8" />
<rect x="24.600" y="18.450" width="1.025" height="1.025" fill="#00a2a4" />
<rect x="14.350" y="19.475" width="1.025" height="1.025" fill="#000000" />
<rect x="15.375" y="19.475" width="1.025" height="1.025" fill="#000000" />
<rect x="16.400" y="19.475" width="1.025" height="1.025" fill="#009798" />
<rect x="17.425" y="19.475" width="1.025" height="1.025" fill="#ff00d8" />
<rect x="18.450" y="19.475" width="1.025" height="1.025" fill="#00bfc2" />
<rect x="19.475" y="19.475" width="1.025" height="1.025" fill="#000000" />
<rect x="20.500" y="19.475" width="1.025" height="1.025" fill="#eaff00" />
<rect x="21.525" y="19.475" width="1.025" height="1.025" fill="#eaff00" />
<rect x="22.550" y="19.475" width="1.025" height="1.025" fill="#d4ff00" />
<rect x="23.575" y="19.475" width="1.025" height="1.025" fill="#000000" />
<rect x="24.600" y="19.475" width="1.025" height="1.025" fill="#000000" />
<rect x="25.625" y="19.475" width="1.025" height="1.025" fill="#000000" />
<rect x="13.325" y="20.500" width="1.025" height="1.025" fill="#000000" />
<rect x="14.350" y="20.500" width="1.025" height="1.025" fill="#000000" />
<rect x="15.375" y="20.500" width="1.025" height="1.025" fill="#000000" />
<rect x="16.400" y="20.500" width="1.025" height="1.025" fill="#000000" />
<rect x="17.425" y="20.500" width="1.025" height="1.025" fill="#ff00d8" />
<rect x="18.450" y="20.500" width="1.025" height="1.025" fill="#000000" />
<rect x="19.475" y="20.500" width="1.025" height="1.025" fill="#eaff00" />
<rect x="20.500" y="20.500" width="1.025" height="1.025" fill="#ff00d8" />
<rect x="21.525" y="20.500" width="1.025" height="1.025" fill="#000000" />
<rect x="22.550" y="20.500" width="1.025" height="1.025" fill="#ff00d8" />
<rect x="23.575" y="20.500" width="1.025" height="1.025" fill="#eaff00" />
<rect x="24.600" y="20.500" width="1.025" height="1.025" fill="#000000" />
<rect x="25.625" y="20.500" width="1.025" height="1.025" fill="#000000" />
<rect x="26.650" y="20.500" width="1.025" height="1.025" fill="#000000" />
<rect x="27.675" y="20.500" width="1.025" height="1.025" fill="#000000" />
<rect x="12.300" y="21.525" width="1.025" height="1.025" fill="#000000" />
<rect x="13.325" y="21.525" width="1.025" height="1.025" fill="#ff00d8" />
<rect x="14.350" y="21.525" width="1.025" height="1.025" fill="#eaff00" />
<rect x="15.375" y="21.525" width="1.025" height="1.025" fill="#00c8ca" />
<rect x="16.400" y="21.525" width="1.025" height="1.025" fill="#00fcff" />
<rect x="17.425" y="21.525" width="1.025" height="1.025" fill="#000000" />
<rect x="18.450" y="21.525" width="1.025" height="1.025" fill="#000000" />
<rect x="19.475" y="21.525" width="1.025" height="1.025" fill="#eaff00" />
<rect x="20.500" y="21.525" width="1.025" height="1.025" fill="#000000" />
<rect x="21.525" y="21.525" width="1.025" height="1.025" fill="#ff00d8" />
<rect x="22.550" y="21.525" width="1.025" height="1.025" fill="#000000" />
<rect x="23.575" y="21.525" width="1.025" height="1.025" fill="#ff00d8" />
<rect x="24.600" y="21.525" width="1.025" height="1.025" fill="#000000" />
<rect x="25.625" y="21.525" width="1.025" height="1.025" fill="#04f8fe" />
<rect x="26.650" y="21.525" width="1.025" height="1.025" fill="#ff00d8" />
<rect x="27.675" y="21.525" width="1.025" height="1.025" fill="#ff00d8" />
<rect x="28.700" y="21.525" width="1.025" height="1.025" fill="#000000" />
<rect x="12.300" y="22.550" width="1.025" height="1.025" fill="#000000" />
<rect x="13.325" y="22.550" width="1.025" height="1.025" fill="#006d6f" />
<rect x="14.350" y="22.550" width="1.025" height="1.025" fill="#00fcff" />
<rect x="15.375" y="22.550" width="1.025" height="1.025" fill="#ff00d8" />
<rect x="16.400" y="22.550" width="1.025" height="1.025" fill="#00fcff" />
<rect x="17.425" y="22.550" width="1.025" height="1.025" fill="#000000" />
<rect x="18.450" y="22.550" width="1.025" height="1.025" fill="#000000" />
<rect x="19.475" y="22.550" width="1.025" height="1.025" fill="#ff00d8" />
<rect x="20.500" y="22.550" width="1.025" height="1.025" fill="#ff00d8" />
<rect x="21.525" y="22.550" width="1.025" height="1.025" fill="#000000" />
<rect x="22.550" y="22.550" width="1.025" height="1.025" fill="#ff00d8" />
<rect x="23.575" y="22.550" width="1.025" height="1.025" fill="#ff00d8" />
<rect x="24.600" y="22.550" width="1.025" height="1.025" fill="#000000" />
<rect x="25.625" y="22.550" width="1.025" height="1.025" fill="#00fcff" />
<rect x="26.650" y="22.550" width="1.025" height="1.025" fill="#00b8ba" />
<rect x="27.675" y="22.550" width="1.025" height="1.025" fill="#eaff00" />
<rect x="28.700" y="22.550" width="1.025" height="1.025" fill="#000000" />
<rect x="12.300" y="23.575" width="1.025" height="1.025" fill="#000000" />
<rect x="13.325" y="23.575" width="1.025" height="1.025" fill="#00d7da" />
<rect x="14.350" y="23.575" width="1.025" height="1.025" fill="#000000" />
<rect x="15.375" y="23.575" width="1.025" height="1.025" fill="#eaff00" />
<rect x="16.400" y="23.575" width="1.025" height="1.025" fill="#007c7e" />
<rect x="17.425" y="23.575" width="1.025" height="1.025" fill="#000000" />
<rect x="18.450" y="23.575" width="1.025" height="1.025" fill="#000000" />
<rect x="19.475" y="23.575" width="1.025" height="1.025" fill="#fc02d8" />
<rect x="20.500" y="23.575" width="1.025" height="1.025" fill="#ff00d8" />
<rect x="21.525" y="23.575" width="1.025" height="1.025" fill="#ff00d8" />
<rect x="22.550" y="23.575" width="1.025" height="1.025" fill="#ff00d8" />
<rect x="23.575" y="23.575" width="1.025" height="1.025" fill="#ff00d8" />
<rect x="24.600" y="23.575" width="1.025" height="1.025" fill="#000000" />
<rect x="25.625" y="23.575" width="1.025" height="1.025" fill="#00bfc1" />
<rect x="26.650" y="23.575" width="1.025" height="1.025" fill="#00bec0" />
<rect x="27.675" y="23.575" width="1.025" height="1.025" fill="#ff00d8" />
<rect x="28.700" y="23.575" width="1.025" height="1.025" fill="#000000" />
<rect x="12.300" y="24.600" width="1.025" height="1.025" fill="#000000" />
<rect x="13.325" y="24.600" width="1.025" height="1.025" fill="#007879" />
<rect x="14.350" y="24.600" width="1.025" height="1.025" fill="#00f7fa" />
<rect x="15.375" y="24.600" width="1.025" height="1.025" fill="#ff00d8" />
<rect x="16.400" y="24.600" width="1.025" height="1.025" fill="#006a6b" />
<rect x="17.425" y="24.600" width="1.025" height="1.025" fill="#000000" />
<rect x="18.450" y="24.600" width="1.025" height="1.025" fill="#000000" />
<rect x="19.475" y="24.600" width="1.025" height="1.025" fill="#000000" />
<rect x="20.500" y="24.600" width="1.025" height="1.025" fill="#00dde0" />
<rect x="21.525" y="24.600" width="1.025" height="1.025" fill="#00d6d8" />
<rect x="22.550" y="24.600" width="1.025" height="1.025" fill="#008284" />
<rect x="23.575" y="24.600" width="1.025" height="1.025" fill="#000000" />
<rect x="24.600" y="24.600" width="1.025" height="1.025" fill="#000000" />
<rect x="25.625" y="24.600" width="1.025" height="1.025" fill="#003b3c" />
<rect x="26.650" y="24.600" width="1.025" height="1.025" fill="#004546" />
<rect x="27.675" y="24.600" width="1.025" height="1.025" fill="#ff00d8" />
<rect x="28.700" y="24.600" width="1.025" height="1.025" fill="#000000" />
<rect x="13.325" y="25.625" width="1.025" height="1.025" fill="#000000" />
<rect x="14.350" y="25.625" width="1.025" height="1.025" fill="#000000" />
<rect x="15.375" y="25.625" width="1.025" height="1.025" fill="#000000" />
<rect x="16.400" y="25.625" width="1.025" height="1.025" fill="#000000" />
<rect x="17.425" y="25.625" width="1.025" height="1.025" fill="#000000" />
<rect x="18.450" y="25.625" width="1.025" height="1.025" fill="#000000" />
<rect x="19.475" y="25.625" width="1.025" height="1.025" fill="#000000" />
<rect x="20.500" y="25.625" width="1.025" height="1.025" fill="#000000" />
<rect x="21.525" y="25.625" width="1.025" height="1.025" fill="#000000" />
<rect x="22.550" y="25.625" width="1.025" height="1.025" fill="#000000" />
<rect x="23.575" y="25.625" width="1.025" height="1.025" fill="#000000" />
<rect x="24.600" y="25.625" width="1.025" height="1.025" fill="#000000" />
<rect x="25.625" y="25.625" width="1.025" height="1.025" fill="#000000" />
<rect x="26.650" y="25.625" width="1.025" height="1.025" fill="#000000" />
<rect x="27.675" y="25.625" width="1.025" height="1.025" fill="#000000" />
<rect x="19.475" y="26.650" width="1.025" height="1.025" fill="#000000" />
<rect x="20.500" y="26.650" width="1.025" height="1.025" fill="#000000" />
<rect x="21.525" y="26.650" width="1.025" height="1.025" fill="#000000" />
<rect x="22.550" y="26.650" width="1.025" height="1.025" fill="#000000" />
</svg>