<svg xmlns="http://www.w3.org/2000/svg" width="37.925" height="37.925" shape-rendering="crispEdges" style="image-rendering: pixelated;">
<rect x="14.350" y="6.150" width="1.025" height="1.025" fill="#000000" />
<rect x="15.375" y="6.150" width="1.025" height="1.025" fill="#000000" />
<rect x="16.400" y="6.150" width="1.025" height="1.025" fill="#000000" />
<rect x="17.425" y="6.150" width="1.025" height="1.025" fill="#000000" />
<rect x="18.450" y="6.150" width="1.025" height="1.025" fill="#000000" />
<rect x="19.475" y="6.150" width="1.025" height="1.025" fill="#000000" />
<rect x="20.500" y="6.150" width="1.025" height="1.025" fill="#000000" />
<rect x="21.525" y="6.150" width="1.025" height="1.025" fill="#000000" />
<rect x="22.550" y="6.150" width="1.025" height="1.025" fill="#000000" />
<rect x="13.325" y="7.175" width="1.025" height="1.025" fill="#000000" />
<rect x="14.350" y="7.175" width="1.025" height="1.025" fill="#ff00d8" />
<rect x="15.375" y="7.175" width="1.025" height="1.025" fill="#00fcff" />
<rect x="16.400" y="7.175" width="1.025" height="1.025" fill="#00e7ea" />
<rect x="17.425" y="7.175" width="1.025" height="1.025" fill="#00cacc" />
<rect x="18.450" y="7.175" width="1.025" height="1.025" fill="#00e1e4" />
<rect x="19.475" y="7.175" width="1.025" height="1.025" fill="#00e5e8" />
<rect x="20.500" y="7.175" width="1.025" height="1.025" fill="#eaff00" />
<rect x="21.525" y="7.175" width="1.025" height="1.025" fill="#00e0e3" />
<rect x="22.550" y="7.175" width="1.025" height="1.025" fill="#00fcff" />
<rect x="23.575" y="7.175" width="1.025" height="1.025" fill="#000000" />
<rect x="12.300" y="8.200" width="1.025" height="1.025" fill="#000000" />
<rect x="13.325" y="8.200" width="1.025" height="1.025" fill="#ff00d8" />
<rect x="14.350" y="8.200" width="1.025" height="1.025" fill="#00fcff" />
<rect x="15.375" y="8.200" width="1.025" height="1.025" fill="#00bbbd" />
<rect x="16.400" y="8.200" width="1.025" height="1.025" fill="#007d00" />
<rect x="17.425" y="8.200" width="1.025" height="1.025" fill="#005152" />
<rect x="18.450" y="8.200" width="1.025" height="1.025" fill="#005e5f" />
<rect x="19.475" y="8.200" width="1.025" height="1.025" fill="#005e60" />
<rect x="20.500" y="8.200" width="1.025" height="1.025" fill="#004646" />
<rect x="21.525" y="8.200" width="1.025" height="1.025" fill="#002000" />
<rect x="22.550" y="8.200" width="1.025" height="1.025" fill="#00797b" />
<rect x="23.575" y="8.200" width="1.025" height="1.025" fill="#00fcff" />
<rect x="24.600" y="8.200" width="1.025" height="1.025" fill="#000000" />
<rect x="12.300" y="9.225" width="1.025" height="1.025" fill="#000000" />
<rect x="13.325" y="9.225" width="1.025" height="1.025" fill="#ff00d8" />
<rect x="14.350" y="9.225" width="1.025" height="1.025" fill="#00fcff" />
<rect x="15.375" y="9.225" width="1.025" height="1.025" fill="#00c8cb" />
<rect x="16.400" y="9.225" width="1.025" height="1.025" fill="#005657" />
<rect x="17.425" y="9.225" width="1.025" height="1.025" fill="#004646" />
<rect x="18.450" y="9.225" width="1.025" height="1.025" fill="#002d2e" />
<rect x="19.475" y="9.225" width="1.025" height="1.025" fill="#001e1f" />
<rect x="20.500" y="9.225" width="1.025" height="1.025" fill="#004849" />
<rect x="21.525" y="9.225" width="1.025" height="1.025" fill="#eaff00" />
<rect x="22.550" y="9.225" width="1.025" height="1.025" fill="#005e5f" />
<rect x="23.575" y="9.225" width="1.025" height="1.025" fill="#00e8eb" />
<rect x="24.600" y="9.225" width="1.025" height="1.025" fill="#000000" />
<rect x="12.300" y="10.250" width="1.025" height="1.025" fill="#000000" />
<rect x="13.325" y="10.250" width="1.025" height="1.025" fill="#ff00d8" />
<rect x="14.350" y="10.250" width="1.025" height="1.025" fill="#00fcff" />
<rect x="15.375" y="10.250" width="1.025" height="1.025" fill="#ff00d8" />
<rect x="16.400" y="10.250" width="1.025" height="1.025" fill="#005354" />
<rect x="17.425" y="10.250" width="1.025" height="1.025" fill="#005455" />
<rect x="18.450" y="10.250" width="1.025" height="1.025" fill="#004d4e" />
<rect x="19.475" y="10.250" width="1.025" height="1.025" fill="#004646" />
<rect x="20.500" y="10.250" width="1.025" height="1.025" fill="#00494a" />
<rect x="21.525" y="10.250" width="1.025" height="1.025" fill="#001e00" />
<rect x="22.550" y="10.250" width="1.025" height="1.025" fill="#007778" />
<rect x="23.575" y="10.250" width="1.025" height="1.025" fill="#00f3f6" />
<rect x="24.600" y="10.250" width="1.025" height="1.025" fill="#000000" />
<rect x="12.300" y="11.275" width="1.025" height="1.025" fill="#000000" />
<rect x="13.325" y="11.275" width="1.025" height="1.025" fill="#ff00d8" />
<rect x="14.350" y="11.275" width="1.025" height="1.025" fill="#00fcff" />
<rect x="15.375" y="11.275" width="1.025" height="1.025" fill="#ff00d8" />
<rect x="16.400" y="11.275" width="1.025" height="1.025" fill="#004040" />
<rect x="17.425" y="11.275" width="1.025" height="1.025" fill="#004646" />
<rect x="18.450" y="11.275" width="1.025" height="1.025" fill="#00292a" />
<rect x="19.475" y="11.275" width="1.025" height="1.025" fill="#004e4f" />
<rect x="20.500" y="11.275" width="1.025" height="1.025" fill="#003f40" />
<rect x="21.525" y="11.275" width="1.025" height="1.025" fill="#eaff00" />
<rect x="22.550" y="11.275" width="1.025" height="1.025" fill="#004041" />
<rect x="23.575" y="11.275" width="1.025" height="1.025" fill="#00e6e9" />
<rect x="24.600" y="11.275" width="1.025" height="1.025" fill="#000000" />
<rect x="12.300" y="12.300" width="1.025" height="1.025" fill="#000000" />
<rect x="13.325" y="12.300" width="1.025" height="1.025" fill="#ff00d8" />
<rect x="14.350" y="12.300" width="1.025" height="1.025" fill="#00fcff" />
<rect x="15.375" y="12.300" width="1.025" height="1.025" fill="#ff00d8" />
<rect x="16.400" y="12.300" width="1.025" height="1.025" fill="#004344" />
<rect x="17.425" y="12.300" width="1.025" height="1.025" fill="#003f40" />
<rect x="18.450" y="12.300" width="1.025" height="1.025" fill="#005051" />
<rect x="19.475" y="12.300" width="1.025" height="1.025" fill="#004647" />
<rect x="20.500" y="12.300" width="1.025" height="1.025" fill="#005253" />
<rect x="21.525" y="12.300" width="1.025" height="1.025" fill="#001e00" />
<rect x="22.550" y="12.300" width="1.025" height="1.025" fill="#00bcbe" />
<rect x="23.575" y="12.300" width="1.025" height="1.025" fill="#00ecef" />
<rect x="24.600" y="12.300" width="1.025" height="1.025" fill="#000000" />
<rect x="12.300" y="13.325" width="1.025" height="1.025" fill="#000000" />
<rect x="13.325" y="13.325" width="1.025" height="1.025" fill="#000000" />
<rect x="14.350" y="13.325" width="1.025" height="1.025" fill="#00fcff" />
<rect x="15.375" y="13.325" width="1.025" height="1.025" fill="#ff00d8" />
<rect x="16.400" y="13.325" width="1.025" height="1.025" fill="#004e4f" />
<rect x="17.425" y="13.325" width="1.025" height="1.025" fill="#005354" />
<rect x="18.450" y="13.325" width="1.025" height="1.025" fill="#004040" />
<rect x="19.475" y="13.325" width="1.025" height="1.025" fill="#004142" />
<rect x="20.500" y="13.325" width="1.025" height="1.025" fill="#004546" />
<rect x="21.525" y="13.325" width="1.025" height="1.025" fill="#eaff00" />
<rect x="22.550" y="13.325" width="1.025" height="1.025" fill="#00bdbf" />
<rect x="23.575" y="13.325" width="1.025" height="1.025" fill="#00f7fa" />
<rect x="24.600" y="13.325" width="1.025" height="1.025" fill="#000000" />
<rect x="11.275" y="14.350" width="1.025" height="1.025" fill="#000000" />
<rect x="12.300" y="14.350" width="1.025" height="1.025" fill="#ff00d8" />
<rect x="13.325" y="14.350" width="1.025" height="1.025" fill="#5ea0f1" />
<rect x="14.350" y="14.350" width="1.025" height="1.025" fill="#00fcff" />
<rect x="15.375" y="14.350" width="1.025" height="1.025" fill="#ff00d8" />
<rect x="16.400" y="14.350" width="1.025" height="1.025" fill="#005152" />
<rect x="17.425" y="14.350" width="1.025" height="1.025" fill="#005253" />
<rect x="18.450" y="14.350" width="1.025" height="1.025" fill="#004344" />
<rect x="19.475" y="14.350" width="1.025" height="1.025" fill="#004647" />
<rect x="20.500" y="14.350" width="1.025" height="1.025" fill="#004647" />
<rect x="21.525" y="14.350" width="1.025" height="1.025" fill="#001f00" />
<rect x="22.550" y="14.350" width="1.025" height="1.025" fill="#00b8ba" />
<rect x="23.575" y="14.350" width="1.025" height="1.025" fill="#00f2f5" />
<rect x="24.600" y="14.350" width="1.025" height="1.025" fill="#000000" />
<rect x="11.275" y="15.375" width="1.025" height="1.025" fill="#000000" />
<rect x="12.300" y="15.375" width="1.025" height="1.025" fill="#4eaff3" />
<rect x="13.325" y="15.375" width="1.025" height="1.025" fill="#ef10db" />
<rect x="14.350" y="15.375" width="1.025" height="1.025" fill="#00fcff" />
<rect x="15.375" y="15.375" width="1.025" height="1.025" fill="#ff00d8" />
<rect x="16.400" y="15.375" width="1.025" height="1.025" fill="#004849" />
<rect x="17.425" y="15.375" width="1.025" height="1.025" fill="#002727" />
<rect x="18.450" y="15.375" width="1.025" height="1.025" fill="#004343" />
<rect x="19.475" y="15.375" width="1.025" height="1.025" fill="#007476" />
<rect x="20.500" y="15.375" width="1.025" height="1.025" fill="#004e4f" />
<rect x="21.525" y="15.375" width="1.025" height="1.025" fill="#eaff00" />
<rect x="22.550" y="15.375" width="1.025" height="1.025" fill="#00bcbe" />
<rect x="23.575" y="15.375" width="1.025" height="1.025" fill="#00eef1" />
<rect x="24.600" y="15.375" width="1.025" height="1.025" fill="#000000" />
<rect x="11.275" y="16.400" width="1.025" height="1.025" fill="#000000" />
<rect x="12.300" y="16.400" width="1.025" height="1.025" fill="#ff00d8" />
<rect x="13.325" y="16.400" width="1.025" height="1.025" fill="#fa05d9" />
<rect x="14.350" y="16.400" width="1.025" height="1.025" fill="#54a9f2" />
<rect x="15.375" y="16.400" width="1.025" height="1.025" fill="#eaff00" />
<rect x="16.400" y="16.400" width="1.025" height="1.025" fill="#00d3d6" />
<rect x="17.425" y="16.400" width="1.025" height="1.025" fill="#003a3b" />
<rect x="18.450" y="16.400" width="1.025" height="1.025" fill="#002020" />
<rect x="19.475" y="16.400" width="1.025" height="1.025" fill="#00999b" />
<rect x="20.500" y="16.400" width="1.025" height="1.025" fill="#004b4c" />
<rect x="21.525" y="16.400" width="1.025" height="1.025" fill="#001e00" />
<rect x="22.550" y="16.400" width="1.025" height="1.025" fill="#00fafd" />
<rect x="23.575" y="16.400" width="1.025" height="1.025" fill="#00fcff" />
<rect x="24.600" y="16.400" width="1.025" height="1.025" fill="#000000" />
<rect x="12.300" y="17.425" width="1.025" height="1.025" fill="#000000" />
<rect x="13.325" y="17.425" width="1.025" height="1.025" fill="#000000" />
<rect x="14.350" y="17.425" width="1.025" height="1.025" fill="#a658e6" />
<rect x="15.375" y="17.425" width="1.025" height="1.025" fill="#eaff00" />
<rect x="16.400" y="17.425" width="1.025" height="1.025" fill="#00fcff" />
<rect x="17.425" y="17.425" width="1.025" height="1.025" fill="#00c9cc" />
<rect x="18.450" y="17.425" width="1.025" height="1.025" fill="#004f50" />
<rect x="19.475" y="17.425" width="1.025" height="1.025" fill="#005d5e" />
<rect x="20.500" y="17.425" width="1.025" height="1.025" fill="#004445" />
<rect x="21.525" y="17.425" width="1.025" height="1.025" fill="#eaff00" />
<rect x="22.550" y="17.425" width="1.025" height="1.025" fill="#15e7fc" />
<rect x="23.575" y="17.425" width="1.025" height="1.025" fill="#00fcff" />
<rect x="24.600" y="17.425" width="1.025" height="1.025" fill="#000000" />
<rect x="13.325" y="18.450" width="1.025" height="1.025" fill="#000000" />
<rect x="14.350" y="18.450" width="1.025" height="1.025" fill="#ff00d8" />
<rect x="15.375" y="18.450" width="1.025" height="1.025" fill="#eaff00" />
<rect x="16.400" y="18.450" width="1.025" height="1.025" fill="#00fcff" />
<rect x="17.425" y="18.450" width="1.025" height="1.025" fill="#00fafd" />
<rect x="18.450" y="18.450" width="1.025" height="1.025" fill="#009495" />
<rect x="19.475" y="18.450" width="1.025" height="1.025" fill="#002e2e" />
<rect x="20.500" y="18.450" width="1.025" height="1.025" fill="#004b4c" />
<rect x="21.525" y="18.450" width="1.025" height="1.025" fill="#001e00" />
<rect x="22.550" y="18.450" width="1.025" height="1.025" fill="#009394" />
<rect x="23.575" y="18.450" width="1.025" height="1.025" fill="#00fcff" />
<rect x="24.600" y="18.450" width="1.025" height="1.025" fill="#000000" />
<rect x="13.325" y="19.475" width="1.025" height="1.025" fill="#000000" />
<rect x="14.350" y="19.475" width="1.025" height="1.025" fill="#eaff00" />
<rect x="15.375" y="19.475" width="1.025" height="1.025" fill="#eaff00" />
<rect x="16.400" y="19.475" width="1.025" height="1.025" fill="#00fcff" />
<rect x="17.425" y="19.475" width="1.025" height="1.025" fill="#00fcff" />
<rect x="18.450" y="19.475" width="1.025" height="1.025" fill="#00e6e9" />
<rect x="19.475" y="19.475" width="1.025" height="1.025" fill="#008486" />
<rect x="20.500" y="19.475" width="1.025" height="1.025" fill="#003e3f" />
<rect x="21.525" y="19.475" width="1.025" height="1.025" fill="#eaff00" />
<rect x="22.550" y="19.475" width="1.025" height="1.025" fill="#00eef1" />
<rect x="23.575" y="19.475" width="1.025" height="1.025" fill="#00fcff" />
<rect x="24.600" y="19.475" width="1.025" height="1.025" fill="#000000" />
<rect x="13.325" y="20.500" width="1.025" height="1.025" fill="#000000" />
<rect x="14.350" y="20.500" width="1.025" height="1.025" fill="#eaff00" />
<rect x="15.375" y="20.500" width="1.025" height="1.025" fill="#ff00d8" />
<rect x="16.400" y="20.500" width="1.025" height="1.025" fill="#00fcff" />
<rect x="17.425" y="20.500" width="1.025" height="1.025" fill="#00fcff" />
<rect x="18.450" y="20.500" width="1.025" height="1.025" fill="#00fcff" />
<rect x="19.475" y="20.500" width="1.025" height="1.025" fill="#008485" />
<rect x="20.500" y="20.500" width="1.025" height="1.025" fill="#00888a" />
<rect x="21.525" y="20.500" width="1.025" height="1.025" fill="#001e00" />
<rect x="22.550" y="20.500" width="1.025" height="1.025" fill="#007e80" />
<rect x="23.575" y="20.500" width="1.025" height="1.025" fill="#00fcff" />
<rect x="24.600" y="20.500" width="1.025" height="1.025" fill="#000000" />
<rect x="13.325" y="21.525" width="1.025" height="1.025" fill="#000000" />
<rect x="14.350" y="21.525" width="1.025" height="1.025" fill="#eaff00" />
<rect x="15.375" y="21.525" width="1.025" height="1.025" fill="#ff00d8" />
<rect x="16.400" y="21.525" width="1.025" height="1.025" fill="#837aeb" />
<rect x="17.425" y="21.525" width="1.025" height="1.025" fill="#00fcff" />
<rect x="18.450" y="21.525" width="1.025" height="1.025" fill="#00e9eb" />
<rect x="19.475" y="21.525" width="1.025" height="1.025" fill="#009193" />
<rect x="20.500" y="21.525" width="1.025" height="1.025" fill="#006869" />
<rect x="21.525" y="21.525" width="1.025" height="1.025" fill="#eaff00" />
<rect x="22.550" y="21.525" width="1.025" height="1.025" fill="#00bfc1" />
<rect x="23.575" y="21.525" width="1.025" height="1.025" fill="#00fcff" />
<rect x="24.600" y="21.525" width="1.025" height="1.025" fill="#000000" />
<rect x="13.325" y="22.550" width="1.025" height="1.025" fill="#000000" />
<rect x="14.350" y="22.550" width="1.025" height="1.025" fill="#ff00d8" />
<rect x="15.375" y="22.550" width="1.025" height="1.025" fill="#eaff00" />
<rect x="16.400" y="22.550" width="1.025" height="1.025" fill="#ff00d8" />
<rect x="17.425" y="22.550" width="1.025" height="1.025" fill="#2bd2f9" />
<rect x="18.450" y="22.550" width="1.025" height="1.025" fill="#00fcff" />
<rect x="19.475" y="22.550" width="1.025" height="1.025" fill="#00aeb0" />
<rect x="20.500" y="22.550" width="1.025" height="1.025" fill="#003536" />
<rect x="21.525" y="22.550" width="1.025" height="1.025" fill="#002000" />
<rect x="22.550" y="22.550" width="1.025" height="1.025" fill="#008183" />
<rect x="23.575" y="22.550" width="1.025" height="1.025" fill="#8975ea" />
<rect x="24.600" y="22.550" width="1.025" height="1.025" fill="#000000" />
<rect x="13.325" y="23.575" width="1.025" height="1.025" fill="#000000" />
<rect x="14.350" y="23.575" width="1.025" height="1.025" fill="#ff00d8" />
<rect x="15.375" y="23.575" width="1.025" height="1.025" fill="#000000" />
<rect x="16.400" y="23.575" width="1.025" height="1.025" fill="#ff00d8" />
<rect x="17.425" y="23.575" width="1.025" height="1.025" fill="#ff00d8" />
<rect x="18.450" y="23.575" width="1.025" height="1.025" fill="#906ee9" />
<rect x="19.475" y="23.575" width="1.025" height="1.025" fill="#00fcff" />
<rect x="20.500" y="23.575" width="1.025" height="1.025" fill="#00e8ea" />
<rect x="21.525" y="23.575" width="1.025" height="1.025" fill="#eaff00" />
<rect x="22.550" y="23.575" width="1.025" height="1.025" fill="#00fcff" />
<rect x="23.575" y="23.575" width="1.025" height="1.025" fill="#000000" />
<rect x="13.325" y="24.600" width="1.025" height="1.025" fill="#000000" />
<rect x="14.350" y="24.600" width="1.025" height="1.025" fill="#ff00d8" />
<rect x="15.375" y="24.600" width="1.025" height="1.025" fill="#00fcff" />
<rect x="16.400" y="24.600" width="1.025" height="1.025" fill="#000000" />
<rect x="17.425" y="24.600" width="1.025" height="1.025" fill="#000000" />
<rect x="18.450" y="24.600" width="1.025" height="1.025" fill="#000000" />
<rect x="19.475" y="24.600" width="1.025" height="1.025" fill="#000000" />
<rect x="20.500" y="24.600" width="1.025" height="1.025" fill="#001e00" />
<rect x="21.525" y="24.600" width="1.025" height="1.025" fill="#000000" />
<rect x="22.550" y="24.600" width="1.025" height="1.025" fill="#000000" />
<rect x="13.325" y="25.625" width="1.025" height="1.025" fill="#000000" />
<rect x="14.350" y="25.625" width="1.025" height="1.025" fill="#ff00d8" />
<rect x="15.375" y="25.625" width="1.025" height="1.025" fill="#00ecef" />
<rect x="16.400" y="25.625" width="1.025" height="1.025" fill="#00fcff" />
<rect x="17.425" y="25.625" width="1.025" height="1.025" fill="#ff00d8" />
<rect x="18.450" y="25.625" width="1.025" height="1.025" fill="#000000" />
<rect x="20.500" y="25.625" width="1.025" height="1.025" fill="#ff00d8" />
<rect x="14.350" y="26.650" width="1.025" height="1.025" fill="#000000" />
<rect x="15.375" y="26.650" width="1.025" height="1.025" fill="#000000" />
<rect x="16.400" y="26.650" width="1.025" height="1.025" fill="#000000" />
<rect x="17.425" y="26.650" width="1.025" height="1.025" fill="#000000" />
<rect x="18.450" y="26.650" width="1.025" height="1.025" fill="#000000" />
<rect x="20.500" y="26.650" width="1.025" height="1.025" fill="#ff00d8" />
</svg>