<svg xmlns="http://www.w3.org/2000/svg" width="37.925" height="37.925" shape-rendering="crispEdges" style="image-rendering: pixelated;">
<rect x="20.500" y="22.550" width="1.025" height="1.025" fill="#88ff00" />
<rect x="21.525" y="22.550" width="1.025" height="1.025" fill="#50ff00" />
<rect x="22.550" y="22.550" width="1.025" height="1.025" fill="#2fff00" />
<rect x="19.475" y="23.575" width="1.025" height="1.025" fill="#e2ff00" />
<rect x="20.500" y="23.575" width="1.025" height="1.025" fill="#e2ff00" />
<rect x="21.525" y="23.575" width="1.025" height="1.025" fill="#a5ff00" />
<rect x="22.550" y="23.575" width="1.025" height="1.025" fill="#32ff00" />
<rect x="23.575" y="23.575" width="1.025" height="1.025" fill="#0ceb00" />
<rect x="19.475" y="24.600" width="1.025" height="1.025" fill="#eaff00" />
<rect x="20.500" y="24.600" width="1.025" height="1.025" fill="#e7ff00" />
<rect x="21.525" y="24.600" width="1.025" height="1.025" fill="#93ff00" />
<rect x="22.550" y="24.600" width="1.025" height="1.025" fill="#7aff00" />
<rect x="20.500" y="25.625" width="1.025" height="1.025" fill="#70ff00" />
<rect x="21.525" y="25.625" width="1.025" height="1.025" fill="#38ff00" />
<rect x="22.550" y="25.625" width="1.025" height="1.025" fill="#80ff00" />
<rect x="21.525" y="26.650" width="1.025" height="1.025" fill="#baff00" />
</svg>