<svg xmlns="http://www.w3.org/2000/svg" width="37.925" height="37.925" shape-rendering="crispEdges" style="image-rendering: pixelated;">
<rect x="15.375" y="10.250" width="1.025" height="1.025" fill="#00fcff" />
<rect x="16.400" y="10.250" width="1.025" height="1.025" fill="#00fcff" />
<rect x="17.425" y="10.250" width="1.025" height="1.025" fill="#946ae8" />
<rect x="18.450" y="10.250" width="1.025" height="1.025" fill="#8876ea" />
<rect x="19.475" y="10.250" width="1.025" height="1.025" fill="#8f6fe9" />
<rect x="20.500" y="10.250" width="1.025" height="1.025" fill="#827ceb" />
<rect x="21.525" y="10.250" width="1.025" height="1.025" fill="#8b72ea" />
<rect x="22.550" y="10.250" width="1.025" height="1.025" fill="#00fcff" />
<rect x="23.575" y="10.250" width="1.025" height="1.025" fill="#00fcff" />
<rect x="24.600" y="10.250" width="1.025" height="1.025" fill="#00f4f7" />
<rect x="14.350" y="11.275" width="1.025" height="1.025" fill="#ff00d8" />
<rect x="15.375" y="11.275" width="1.025" height="1.025" fill="#00fcff" />
<rect x="16.400" y="11.275" width="1.025" height="1.025" fill="#d529de" />
<rect x="17.425" y="11.275" width="1.025" height="1.025" fill="#ff00d8" />
<rect x="18.450" y="11.275" width="1.025" height="1.025" fill="#ff00d8" />
<rect x="19.475" y="11.275" width="1.025" height="1.025" fill="#ff00d8" />
<rect x="20.500" y="11.275" width="1.025" height="1.025" fill="#ff00d8" />
<rect x="21.525" y="11.275" width="1.025" height="1.025" fill="#ff00d8" />
<rect x="22.550" y="11.275" width="1.025" height="1.025" fill="#ff00d8" />
<rect x="23.575" y="11.275" width="1.025" height="1.025" fill="#ca34e0" />
<rect x="24.600" y="11.275" width="1.025" height="1.025" fill="#2ecef8" />
<rect x="25.625" y="11.275" width="1.025" height="1.025" fill="#5ba2f1" fill-opacity="0.878" />
<rect x="13.325" y="12.300" width="1.025" height="1.025" fill="#00f9fc" />
<rect x="14.350" y="12.300" width="1.025" height="1.025" fill="#00fcff" />
<rect x="15.375" y="12.300" width="1.025" height="1.025" fill="#ff00d8" fill-opacity="0.639" />
<rect x="16.400" y="12.300" width="1.025" height="1.025" fill="#eaff00" fill-opacity="0.639" />
<rect x="17.425" y="12.300" width="1.025" height="1.025" fill="#007300" fill-opacity="0.639" />
<rect x="18.450" y="12.300" width="1.025" height="1.025" fill="#007000" fill-opacity="0.510" />
<rect x="19.475" y="12.300" width="1.025" height="1.025" fill="#007100" fill-opacity="0.408" />
<rect x="20.500" y="12.300" width="1.025" height="1.025" fill="#006d00" fill-opacity="0.408" />
<rect x="21.525" y="12.300" width="1.025" height="1.025" fill="#006d00" fill-opacity="0.325" />
<rect x="22.550" y="12.300" width="1.025" height="1.025" fill="#007100" fill-opacity="0.545" />
<rect x="23.575" y="12.300" width="1.025" height="1.025" fill="#eaff00" fill-opacity="0.133" />
<rect x="24.600" y="12.300" width="1.025" height="1.025" fill="#eaff00" fill-opacity="0.133" />
<rect x="25.625" y="12.300" width="1.025" height="1.025" fill="#009ea0" />
<rect x="26.650" y="12.300" width="1.025" height="1.025" fill="#00fbfe" />
<rect x="10.250" y="13.325" width="1.025" height="1.025" fill="#000000" />
<rect x="11.275" y="13.325" width="1.025" height="1.025" fill="#00e4e6" />
<rect x="12.300" y="13.325" width="1.025" height="1.025" fill="#00f6f9" />
<rect x="13.325" y="13.325" width="1.025" height="1.025" fill="#00f5f8" />
<rect x="14.350" y="13.325" width="1.025" height="1.025" fill="#00fcff" />
<rect x="15.375" y="13.325" width="1.025" height="1.025" fill="#ff00d8" fill-opacity="0.800" />
<rect x="16.400" y="13.325" width="1.025" height="1.025" fill="#eaff00" fill-opacity="0.639" />
<rect x="17.425" y="13.325" width="1.025" height="1.025" fill="#eaff00" fill-opacity="0.639" />
<rect x="18.450" y="13.325" width="1.025" height="1.025" fill="#5fff00" fill-opacity="0.510" />
<rect x="19.475" y="13.325" width="1.025" height="1.025" fill="#007200" fill-opacity="0.510" />
<rect x="20.500" y="13.325" width="1.025" height="1.025" fill="#007000" fill-opacity="0.408" />
<rect x="21.525" y="13.325" width="1.025" height="1.025" fill="#007000" fill-opacity="0.408" />
<rect x="22.550" y="13.325" width="1.025" height="1.025" fill="#006f00" fill-opacity="0.545" />
<rect x="23.575" y="13.325" width="1.025" height="1.025" fill="#002d00" fill-opacity="0.133" />
<rect x="24.600" y="13.325" width="1.025" height="1.025" fill="#eaff00" fill-opacity="0.133" />
<rect x="25.625" y="13.325" width="1.025" height="1.025" fill="#009597" />
<rect x="26.650" y="13.325" width="1.025" height="1.025" fill="#00fafd" />
<rect x="10.250" y="14.350" width="1.025" height="1.025" fill="#000000" />
<rect x="11.275" y="14.350" width="1.025" height="1.025" fill="#00e8ea" />
<rect x="12.300" y="14.350" width="1.025" height="1.025" fill="#00f7fa" />
<rect x="13.325" y="14.350" width="1.025" height="1.025" fill="#00fafd" />
<rect x="14.350" y="14.350" width="1.025" height="1.025" fill="#00fcff" />
<rect x="15.375" y="14.350" width="1.025" height="1.025" fill="#ff00d8" fill-opacity="0.800" />
<rect x="16.400" y="14.350" width="1.025" height="1.025" fill="#eaff00" fill-opacity="0.639" />
<rect x="17.425" y="14.350" width="1.025" height="1.025" fill="#eaff00" fill-opacity="0.639" />
<rect x="18.450" y="14.350" width="1.025" height="1.025" fill="#eaff00" fill-opacity="0.639" />
<rect x="19.475" y="14.350" width="1.025" height="1.025" fill="#eaff00" fill-opacity="0.510" />
<rect x="20.500" y="14.350" width="1.025" height="1.025" fill="#006f00" fill-opacity="0.510" />
<rect x="21.525" y="14.350" width="1.025" height="1.025" fill="#007000" fill-opacity="0.408" />
<rect x="22.550" y="14.350" width="1.025" height="1.025" fill="#006f00" fill-opacity="0.600" />
<rect x="23.575" y="14.350" width="1.025" height="1.025" fill="#006f00" fill-opacity="0.325" />
<rect x="24.600" y="14.350" width="1.025" height="1.025" fill="#002b00" fill-opacity="0.133" />
<rect x="25.625" y="14.350" width="1.025" height="1.025" fill="#009193" />
<rect x="26.650" y="14.350" width="1.025" height="1.025" fill="#00fcff" />
<rect x="13.325" y="15.375" width="1.025" height="1.025" fill="#00fcff" />
<rect x="14.350" y="15.375" width="1.025" height="1.025" fill="#00fcff" />
<rect x="15.375" y="15.375" width="1.025" height="1.025" fill="#ff00d8" />
<rect x="16.400" y="15.375" width="1.025" height="1.025" fill="#eaff00" fill-opacity="0.800" />
<rect x="17.425" y="15.375" width="1.025" height="1.025" fill="#eaff00" fill-opacity="0.639" />
<rect x="18.450" y="15.375" width="1.025" height="1.025" fill="#eaff00" fill-opacity="0.639" />
<rect x="19.475" y="15.375" width="1.025" height="1.025" fill="#eaff00" fill-opacity="0.639" />
<rect x="20.500" y="15.375" width="1.025" height="1.025" fill="#dcff00" fill-opacity="0.510" />
<rect x="21.525" y="15.375" width="1.025" height="1.025" fill="#ddff00" fill-opacity="0.510" />
<rect x="22.550" y="15.375" width="1.025" height="1.025" fill="#007800" fill-opacity="0.710" />
<rect x="23.575" y="15.375" width="1.025" height="1.025" fill="#007000" fill-opacity="0.408" />
<rect x="24.600" y="15.375" width="1.025" height="1.025" fill="#006400" fill-opacity="0.325" />
<rect x="25.625" y="15.375" width="1.025" height="1.025" fill="#007f80" />
<rect x="26.650" y="15.375" width="1.025" height="1.025" fill="#00fcff" />
<rect x="13.325" y="16.400" width="1.025" height="1.025" fill="#00f7fa" />
<rect x="14.350" y="16.400" width="1.025" height="1.025" fill="#00fcff" />
<rect x="15.375" y="16.400" width="1.025" height="1.025" fill="#ff00d8" />
<rect x="16.400" y="16.400" width="1.025" height="1.025" fill="#ff00d8" />
<rect x="17.425" y="16.400" width="1.025" height="1.025" fill="#eaff00" fill-opacity="0.800" />
<rect x="18.450" y="16.400" width="1.025" height="1.025" fill="#eaff00" fill-opacity="0.639" />
<rect x="19.475" y="16.400" width="1.025" height="1.025" fill="#eaff00" fill-opacity="0.639" />
<rect x="20.500" y="16.400" width="1.025" height="1.025" fill="#8479eb" />
<rect x="21.525" y="16.400" width="1.025" height="1.025" fill="#8a73ea" />
<rect x="22.550" y="16.400" width="1.025" height="1.025" fill="#1aff00" fill-opacity="0.761" />
<rect x="23.575" y="16.400" width="1.025" height="1.025" fill="#006e00" fill-opacity="0.510" />
<rect x="24.600" y="16.400" width="1.025" height="1.025" fill="#eaff00" fill-opacity="0.510" />
<rect x="25.625" y="16.400" width="1.025" height="1.025" fill="#009b9c" />
<rect x="26.650" y="16.400" width="1.025" height="1.025" fill="#00f9fc" />
<rect x="14.350" y="17.425" width="1.025" height="1.025" fill="#6e8fee" fill-opacity="0.878" />
<rect x="15.375" y="17.425" width="1.025" height="1.025" fill="#00f6f9" />
<rect x="16.400" y="17.425" width="1.025" height="1.025" fill="#00fcff" />
<rect x="17.425" y="17.425" width="1.025" height="1.025" fill="#00fcff" />
<rect x="18.450" y="17.425" width="1.025" height="1.025" fill="#00fcff" />
<rect x="19.475" y="17.425" width="1.025" height="1.025" fill="#00cbce" />
<rect x="22.550" y="17.425" width="1.025" height="1.025" fill="#8b72ea" />
<rect x="23.575" y="17.425" width="1.025" height="1.025" fill="#00fcff" />
<rect x="24.600" y="17.425" width="1.025" height="1.025" fill="#00fcff" />
<rect x="25.625" y="17.425" width="1.025" height="1.025" fill="#52abf2" fill-opacity="0.753" />
</svg>