<svg xmlns="http://www.w3.org/2000/svg" width="37.925" height="37.925" shape-rendering="crispEdges" style="image-rendering: pixelated;">
<rect x="18.450" y="19.475" width="1.025" height="1.025" fill="#26ff00" />
<rect x="19.475" y="19.475" width="1.025" height="1.025" fill="#007f00" />
<rect x="20.500" y="19.475" width="1.025" height="1.025" fill="#1cff00" />
<rect x="21.525" y="19.475" width="1.025" height="1.025" fill="#6dff00" />
<rect x="22.550" y="19.475" width="1.025" height="1.025" fill="#e6ff00" />
<rect x="17.425" y="20.500" width="1.025" height="1.025" fill="#4bff00" />
<rect x="18.450" y="20.500" width="1.025" height="1.025" fill="#6aff00" />
<rect x="23.575" y="20.500" width="1.025" height="1.025" fill="#21ff00" />
<rect x="17.425" y="21.525" width="1.025" height="1.025" fill="#3fff00" />
<rect x="18.450" y="21.525" width="1.025" height="1.025" fill="#8bff00" />
<rect x="23.575" y="21.525" width="1.025" height="1.025" fill="#21ff00" />
<rect x="24.600" y="21.525" width="1.025" height="1.025" fill="#1aff00" />
<rect x="17.425" y="22.550" width="1.025" height="1.025" fill="#a3ff00" />
<rect x="18.450" y="22.550" width="1.025" height="1.025" fill="#76ff00" />
<rect x="23.575" y="22.550" width="1.025" height="1.025" fill="#27ff00" />
<rect x="24.600" y="22.550" width="1.025" height="1.025" fill="#3cff00" />
<rect x="17.425" y="23.575" width="1.025" height="1.025" fill="#7bff00" />
<rect x="18.450" y="23.575" width="1.025" height="1.025" fill="#e3ff00" />
<rect x="23.575" y="23.575" width="1.025" height="1.025" fill="#0ceb00" />
<rect x="24.600" y="23.575" width="1.025" height="1.025" fill="#0eee00" />
<rect x="18.450" y="24.600" width="1.025" height="1.025" fill="#e0ff00" fill-opacity="0.996" />
<rect x="23.575" y="24.600" width="1.025" height="1.025" fill="#29ff00" />
</svg>