<svg xmlns="http://www.w3.org/2000/svg" width="37.925" height="37.925" shape-rendering="crispEdges" style="image-rendering: pixelated;">
<rect x="12.300" y="8.200" width="1.025" height="1.025" fill="#00fcff" />
<rect x="13.325" y="8.200" width="1.025" height="1.025" fill="#00fcff" />
<rect x="14.350" y="8.200" width="1.025" height="1.025" fill="#00fcff" />
<rect x="15.375" y="8.200" width="1.025" height="1.025" fill="#ab53e5" />
<rect x="16.400" y="8.200" width="1.025" height="1.025" fill="#b24de4" />
<rect x="17.425" y="8.200" width="1.025" height="1.025" fill="#c539e1" />
<rect x="18.450" y="8.200" width="1.025" height="1.025" fill="#ff00d8" />
<rect x="19.475" y="8.200" width="1.025" height="1.025" fill="#ff00d8" />
<rect x="20.500" y="8.200" width="1.025" height="1.025" fill="#ff00d8" />
<rect x="21.525" y="8.200" width="1.025" height="1.025" fill="#ff00d8" />
<rect x="22.550" y="8.200" width="1.025" height="1.025" fill="#d42adf" />
<rect x="23.575" y="8.200" width="1.025" height="1.025" fill="#cb33e0" />
<rect x="24.600" y="8.200" width="1.025" height="1.025" fill="#00fcff" />
<rect x="25.625" y="8.200" width="1.025" height="1.025" fill="#00fcff" />
<rect x="12.300" y="9.225" width="1.025" height="1.025" fill="#97ff00" />
<rect x="13.325" y="9.225" width="1.025" height="1.025" fill="#9bff00" />
<rect x="14.350" y="9.225" width="1.025" height="1.025" fill="#49ff00" />
<rect x="15.375" y="9.225" width="1.025" height="1.025" fill="#4aff00" />
<rect x="16.400" y="9.225" width="1.025" height="1.025" fill="#009f00" />
<rect x="17.425" y="9.225" width="1.025" height="1.025" fill="#01ac00" />
<rect x="18.450" y="9.225" width="1.025" height="1.025" fill="#01b000" />
<rect x="19.475" y="9.225" width="1.025" height="1.025" fill="#03c000" />
<rect x="20.500" y="9.225" width="1.025" height="1.025" fill="#47ff00" />
<rect x="21.525" y="9.225" width="1.025" height="1.025" fill="#4bff00" />
<rect x="22.550" y="9.225" width="1.025" height="1.025" fill="#41ff00" />
<rect x="23.575" y="9.225" width="1.025" height="1.025" fill="#8dff00" />
<rect x="24.600" y="9.225" width="1.025" height="1.025" fill="#88ff00" />
<rect x="25.625" y="9.225" width="1.025" height="1.025" fill="#85ff00" />
<rect x="11.275" y="10.250" width="1.025" height="1.025" fill="#cfff00" />
<rect x="12.300" y="10.250" width="1.025" height="1.025" fill="#003100" />
<rect x="13.325" y="10.250" width="1.025" height="1.025" fill="#002f00" />
<rect x="14.350" y="10.250" width="1.025" height="1.025" fill="#010c00" />
<rect x="15.375" y="10.250" width="1.025" height="1.025" fill="#010a00" />
<rect x="16.400" y="10.250" width="1.025" height="1.025" fill="#000100" />
<rect x="17.425" y="10.250" width="1.025" height="1.025" fill="#000100" />
<rect x="18.450" y="10.250" width="1.025" height="1.025" fill="#000100" />
<rect x="19.475" y="10.250" width="1.025" height="1.025" fill="#000300" />
<rect x="20.500" y="10.250" width="1.025" height="1.025" fill="#010d00" />
<rect x="21.525" y="10.250" width="1.025" height="1.025" fill="#010c00" />
<rect x="22.550" y="10.250" width="1.025" height="1.025" fill="#010c00" />
<rect x="23.575" y="10.250" width="1.025" height="1.025" fill="#003100" />
<rect x="24.600" y="10.250" width="1.025" height="1.025" fill="#003100" />
<rect x="25.625" y="10.250" width="1.025" height="1.025" fill="#003400" />
<rect x="8.200" y="11.275" width="1.025" height="1.025" fill="#47ff00" />
<rect x="9.225" y="11.275" width="1.025" height="1.025" fill="#49ff00" />
<rect x="10.250" y="11.275" width="1.025" height="1.025" fill="#d0ff00" />
<rect x="11.275" y="11.275" width="1.025" height="1.025" fill="#ccff00" />
<rect x="12.300" y="11.275" width="1.025" height="1.025" fill="#005400" />
<rect x="13.325" y="11.275" width="1.025" height="1.025" fill="#005100" />
<rect x="14.350" y="11.275" width="1.025" height="1.025" fill="#011600" />
<rect x="15.375" y="11.275" width="1.025" height="1.025" fill="#011300" />
<rect x="16.400" y="11.275" width="1.025" height="1.025" fill="#000300" />
<rect x="17.425" y="11.275" width="1.025" height="1.025" fill="#000300" />
<rect x="18.450" y="11.275" width="1.025" height="1.025" fill="#000300" />
<rect x="19.475" y="11.275" width="1.025" height="1.025" fill="#000500" />
<rect x="20.500" y="11.275" width="1.025" height="1.025" fill="#011700" />
<rect x="21.525" y="11.275" width="1.025" height="1.025" fill="#011500" />
<rect x="22.550" y="11.275" width="1.025" height="1.025" fill="#011700" />
<rect x="23.575" y="11.275" width="1.025" height="1.025" fill="#005300" />
<rect x="24.600" y="11.275" width="1.025" height="1.025" fill="#005100" />
<rect x="25.625" y="11.275" width="1.025" height="1.025" fill="#005800" />
<rect x="9.225" y="12.300" width="1.025" height="1.025" fill="#8dff00" />
<rect x="10.250" y="12.300" width="1.025" height="1.025" fill="#88ff00" />
<rect x="8.200" y="13.325" width="1.025" height="1.025" fill="#49ff00" />
<rect x="9.225" y="13.325" width="1.025" height="1.025" fill="#84ff00" />
<rect x="7.175" y="14.350" width="1.025" height="1.025" fill="#d0ff00" />
<rect x="8.200" y="14.350" width="1.025" height="1.025" fill="#47ff00" />
<rect x="9.225" y="14.350" width="1.025" height="1.025" fill="#8eff00" />
<rect x="6.150" y="15.375" width="1.025" height="1.025" fill="#d1ff00" />
<rect x="7.175" y="15.375" width="1.025" height="1.025" fill="#d2ff00" />
<rect x="6.150" y="16.400" width="1.025" height="1.025" fill="#d1ff00" />
</svg>