<svg xmlns="http://www.w3.org/2000/svg" width="37.925" height="37.925" shape-rendering="crispEdges" style="image-rendering: pixelated;">
<rect x="14.350" y="5.125" width="1.025" height="1.025" fill="#000000" />
<rect x="15.375" y="5.125" width="1.025" height="1.025" fill="#000000" />
<rect x="16.400" y="5.125" width="1.025" height="1.025" fill="#000000" />
<rect x="17.425" y="5.125" width="1.025" height="1.025" fill="#005455" />
<rect x="18.450" y="5.125" width="1.025" height="1.025" fill="#000000" />
<rect x="19.475" y="5.125" width="1.025" height="1.025" fill="#000000" />
<rect x="20.500" y="5.125" width="1.025" height="1.025" fill="#005253" />
<rect x="21.525" y="5.125" width="1.025" height="1.025" fill="#6994ef" />
<rect x="12.300" y="6.150" width="1.025" height="1.025" fill="#000000" />
<rect x="13.325" y="6.150" width="1.025" height="1.025" fill="#000000" />
<rect x="14.350" y="6.150" width="1.025" height="1.025" fill="#ff00d8" />
<rect x="15.375" y="6.150" width="1.025" height="1.025" fill="#ff00d8" />
<rect x="12.300" y="7.175" width="1.025" height="1.025" fill="#000000" />
<rect x="13.325" y="7.175" width="1.025" height="1.025" fill="#ff00d8" />
<rect x="11.275" y="8.200" width="1.025" height="1.025" fill="#000000" />
<rect x="12.300" y="8.200" width="1.025" height="1.025" fill="#ff00d8" />
<rect x="13.325" y="8.200" width="1.025" height="1.025" fill="#000000" fill-opacity="0.102" />
<rect x="11.275" y="9.225" width="1.025" height="1.025" fill="#000000" />
<rect x="12.300" y="9.225" width="1.025" height="1.025" fill="#ff00d8" />
<rect x="24.600" y="9.225" width="1.025" height="1.025" fill="#000000" />
<rect x="25.625" y="9.225" width="1.025" height="1.025" fill="#eaff00" />
<rect x="11.275" y="10.250" width="1.025" height="1.025" fill="#000000" />
<rect x="12.300" y="10.250" width="1.025" height="1.025" fill="#ff00d8" />
<rect x="24.600" y="10.250" width="1.025" height="1.025" fill="#000000" />
<rect x="25.625" y="10.250" width="1.025" height="1.025" fill="#eaff00" />
<rect x="11.275" y="11.275" width="1.025" height="1.025" fill="#000000" />
<rect x="12.300" y="11.275" width="1.025" height="1.025" fill="#ff00d8" />
<rect x="24.600" y="11.275" width="1.025" height="1.025" fill="#000000" />
<rect x="25.625" y="11.275" width="1.025" height="1.025" fill="#eaff00" />
<rect x="10.250" y="12.300" width="1.025" height="1.025" fill="#eaff00" />
<rect x="11.275" y="12.300" width="1.025" height="1.025" fill="#eaff00" />
<rect x="12.300" y="12.300" width="1.025" height="1.025" fill="#3aff00" />
<rect x="13.325" y="12.300" width="1.025" height="1.025" fill="#00fcff" />
<rect x="24.600" y="12.300" width="1.025" height="1.025" fill="#000000" />
<rect x="25.625" y="12.300" width="1.025" height="1.025" fill="#00fcff" />
<rect x="9.225" y="13.325" width="1.025" height="1.025" fill="#eaff00" />
<rect x="10.250" y="13.325" width="1.025" height="1.025" fill="#eaff00" />
<rect x="11.275" y="13.325" width="1.025" height="1.025" fill="#44ff00" />
<rect x="12.300" y="13.325" width="1.025" height="1.025" fill="#005000" />
<rect x="13.325" y="13.325" width="1.025" height="1.025" fill="#eaff00" />
<rect x="14.350" y="13.325" width="1.025" height="1.025" fill="#ff00d8" />
<rect x="25.625" y="13.325" width="1.025" height="1.025" fill="#ff00d8" />
<rect x="26.650" y="13.325" width="1.025" height="1.025" fill="#eaff00" />
<rect x="9.225" y="14.350" width="1.025" height="1.025" fill="#eaff00" />
<rect x="10.250" y="14.350" width="1.025" height="1.025" fill="#a6ff00" />
<rect x="11.275" y="14.350" width="1.025" height="1.025" fill="#007c00" />
<rect x="12.300" y="14.350" width="1.025" height="1.025" fill="#007c00" />
<rect x="13.325" y="14.350" width="1.025" height="1.025" fill="#eaff00" />
<rect x="14.350" y="14.350" width="1.025" height="1.025" fill="#00fcff" />
<rect x="25.625" y="14.350" width="1.025" height="1.025" fill="#00fcff" />
<rect x="26.650" y="14.350" width="1.025" height="1.025" fill="#eaff00" />
<rect x="9.225" y="15.375" width="1.025" height="1.025" fill="#eaff00" />
<rect x="10.250" y="15.375" width="1.025" height="1.025" fill="#80ff00" />
<rect x="11.275" y="15.375" width="1.025" height="1.025" fill="#007900" />
<rect x="12.300" y="15.375" width="1.025" height="1.025" fill="#007d00" />
<rect x="13.325" y="15.375" width="1.025" height="1.025" fill="#eaff00" />
<rect x="14.350" y="15.375" width="1.025" height="1.025" fill="#ff00d8" />
<rect x="25.625" y="15.375" width="1.025" height="1.025" fill="#ff00d8" />
<rect x="26.650" y="15.375" width="1.025" height="1.025" fill="#eaff00" />
<rect x="9.225" y="16.400" width="1.025" height="1.025" fill="#eaff00" />
<rect x="10.250" y="16.400" width="1.025" height="1.025" fill="#5fff00" />
<rect x="11.275" y="16.400" width="1.025" height="1.025" fill="#007900" />
<rect x="12.300" y="16.400" width="1.025" height="1.025" fill="#007c00" />
<rect x="13.325" y="16.400" width="1.025" height="1.025" fill="#eaff00" />
<rect x="14.350" y="16.400" width="1.025" height="1.025" fill="#b04ee4" />
<rect x="25.625" y="16.400" width="1.025" height="1.025" fill="#b44ae4" />
<rect x="26.650" y="16.400" width="1.025" height="1.025" fill="#eaff00" />
<rect x="9.225" y="17.425" width="1.025" height="1.025" fill="#eaff00" />
<rect x="10.250" y="17.425" width="1.025" height="1.025" fill="#a8ff00" />
<rect x="11.275" y="17.425" width="1.025" height="1.025" fill="#007900" />
<rect x="12.300" y="17.425" width="1.025" height="1.025" fill="#007b00" />
<rect x="13.325" y="17.425" width="1.025" height="1.025" fill="#ff00d8" />
<rect x="14.350" y="17.425" width="1.025" height="1.025" fill="#00fcff" />
<rect x="25.625" y="17.425" width="1.025" height="1.025" fill="#00fcff" />
<rect x="26.650" y="17.425" width="1.025" height="1.025" fill="#ff00d8" />
<rect x="10.250" y="18.450" width="1.025" height="1.025" fill="#eaff00" />
<rect x="11.275" y="18.450" width="1.025" height="1.025" fill="#adff00" />
<rect x="12.300" y="18.450" width="1.025" height="1.025" fill="#eaff00" />
<rect x="13.325" y="18.450" width="1.025" height="1.025" fill="#00fcff" />
<rect x="25.625" y="18.450" width="1.025" height="1.025" fill="#00fcff" />
</svg>