<svg xmlns="http://www.w3.org/2000/svg" width="37.925" height="37.925" shape-rendering="crispEdges" style="image-rendering: pixelated;">
<rect x="11.275" y="24.600" width="1.025" height="1.025" fill="#d4ff00" />
<rect x="12.300" y="24.600" width="1.025" height="1.025" fill="#ff00d8" />
<rect x="8.200" y="25.625" width="1.025" height="1.025" fill="#d8ff00" />
<rect x="9.225" y="25.625" width="1.025" height="1.025" fill="#d0ff00" />
<rect x="10.250" y="25.625" width="1.025" height="1.025" fill="#ff00d8" />
<rect x="11.275" y="25.625" width="1.025" height="1.025" fill="#012800" />
<rect x="12.300" y="25.625" width="1.025" height="1.025" fill="#46ff07" />
<rect x="19.475" y="25.625" width="1.025" height="1.025" fill="#00f9fc" />
<rect x="20.500" y="25.625" width="1.025" height="1.025" fill="#babdf1" />
<rect x="7.175" y="26.650" width="1.025" height="1.025" fill="#eaff00" />
<rect x="8.200" y="26.650" width="1.025" height="1.025" fill="#012d00" />
<rect x="9.225" y="26.650" width="1.025" height="1.025" fill="#000a00" />
<rect x="10.250" y="26.650" width="1.025" height="1.025" fill="#001700" />
<rect x="11.275" y="26.650" width="1.025" height="1.025" fill="#012500" />
<rect x="12.300" y="26.650" width="1.025" height="1.025" fill="#92ff02" />
<rect x="19.475" y="26.650" width="1.025" height="1.025" fill="#000400" />
<rect x="20.500" y="26.650" width="1.025" height="1.025" fill="#001700" />
<rect x="21.525" y="26.650" width="1.025" height="1.025" fill="#eaff00" />
<rect x="22.550" y="26.650" width="1.025" height="1.025" fill="#cfa6ec" />
<rect x="6.150" y="27.675" width="1.025" height="1.025" fill="#ff00d8" />
<rect x="7.175" y="27.675" width="1.025" height="1.025" fill="#d4ff00" />
<rect x="8.200" y="27.675" width="1.025" height="1.025" fill="#000a00" />
<rect x="9.225" y="27.675" width="1.025" height="1.025" fill="#013500" />
<rect x="10.250" y="27.675" width="1.025" height="1.025" fill="#035e00" />
<rect x="11.275" y="27.675" width="1.025" height="1.025" fill="#024e00" />
<rect x="12.300" y="27.675" width="1.025" height="1.025" fill="#002100" />
<rect x="19.475" y="27.675" width="1.025" height="1.025" fill="#001e00" />
<rect x="20.500" y="27.675" width="1.025" height="1.025" fill="#000e00" />
<rect x="21.525" y="27.675" width="1.025" height="1.025" fill="#000a00" />
<rect x="22.550" y="27.675" width="1.025" height="1.025" fill="#001e00" />
<rect x="23.575" y="27.675" width="1.025" height="1.025" fill="#ff00d8" />
<rect x="6.150" y="28.700" width="1.025" height="1.025" fill="#ff00d8" />
<rect x="7.175" y="28.700" width="1.025" height="1.025" fill="#001700" />
<rect x="8.200" y="28.700" width="1.025" height="1.025" fill="#012d00" />
<rect x="9.225" y="28.700" width="1.025" height="1.025" fill="#035e00" />
<rect x="10.250" y="28.700" width="1.025" height="1.025" fill="#92ff02" />
<rect x="11.275" y="28.700" width="1.025" height="1.025" fill="#eaff00" />
<rect x="12.300" y="28.700" width="1.025" height="1.025" fill="#000000" />
<rect x="19.475" y="28.700" width="1.025" height="1.025" fill="#eaff00" />
<rect x="20.500" y="28.700" width="1.025" height="1.025" fill="#018900" />
<rect x="21.525" y="28.700" width="1.025" height="1.025" fill="#000a00" />
<rect x="22.550" y="28.700" width="1.025" height="1.025" fill="#000200" />
<rect x="23.575" y="28.700" width="1.025" height="1.025" fill="#000700" />
<rect x="24.600" y="28.700" width="1.025" height="1.025" fill="#ff00d8" />
<rect x="6.150" y="29.725" width="1.025" height="1.025" fill="#dcff00" />
<rect x="7.175" y="29.725" width="1.025" height="1.025" fill="#000e00" />
<rect x="8.200" y="29.725" width="1.025" height="1.025" fill="#000800" />
<rect x="9.225" y="29.725" width="1.025" height="1.025" fill="#012500" />
<rect x="10.250" y="29.725" width="1.025" height="1.025" fill="#018900" />
<rect x="11.275" y="29.725" width="1.025" height="1.025" fill="#024e00" />
<rect x="12.300" y="29.725" width="1.025" height="1.025" fill="#012500" />
<rect x="13.325" y="29.725" width="1.025" height="1.025" fill="#013900" />
<rect x="19.475" y="29.725" width="1.025" height="1.025" fill="#b4ff00" />
<rect x="20.500" y="29.725" width="1.025" height="1.025" fill="#001400" />
<rect x="21.525" y="29.725" width="1.025" height="1.025" fill="#000600" />
<rect x="22.550" y="29.725" width="1.025" height="1.025" fill="#000700" />
<rect x="23.575" y="29.725" width="1.025" height="1.025" fill="#000100" />
<rect x="24.600" y="29.725" width="1.025" height="1.025" fill="#eaff00" />
<rect x="6.150" y="30.750" width="1.025" height="1.025" fill="#8dff02" />
<rect x="7.175" y="30.750" width="1.025" height="1.025" fill="#ff00d8" />
<rect x="8.200" y="30.750" width="1.025" height="1.025" fill="#000300" />
<rect x="9.225" y="30.750" width="1.025" height="1.025" fill="#000c00" />
<rect x="10.250" y="30.750" width="1.025" height="1.025" fill="#024200" />
<rect x="11.275" y="30.750" width="1.025" height="1.025" fill="#012500" />
<rect x="12.300" y="30.750" width="1.025" height="1.025" fill="#012800" />
<rect x="13.325" y="30.750" width="1.025" height="1.025" fill="#001700" />
<rect x="14.350" y="30.750" width="1.025" height="1.025" fill="#024200" />
<rect x="15.375" y="30.750" width="1.025" height="1.025" fill="#000200" />
<rect x="18.450" y="30.750" width="1.025" height="1.025" fill="#000100" />
<rect x="19.475" y="30.750" width="1.025" height="1.025" fill="#000300" />
<rect x="20.500" y="30.750" width="1.025" height="1.025" fill="#000200" />
<rect x="21.525" y="30.750" width="1.025" height="1.025" fill="#000100" />
<rect x="22.550" y="30.750" width="1.025" height="1.025" fill="#024000" />
<rect x="23.575" y="30.750" width="1.025" height="1.025" fill="#ff00d8" />
<rect x="24.600" y="30.750" width="1.025" height="1.025" fill="#ff00d8" />
<rect x="25.625" y="30.750" width="1.025" height="1.025" fill="#eaff00" />
<rect x="6.150" y="31.775" width="1.025" height="1.025" fill="#012800" />
<rect x="7.175" y="31.775" width="1.025" height="1.025" fill="#001e00" />
<rect x="8.200" y="31.775" width="1.025" height="1.025" fill="#92ff02" />
<rect x="9.225" y="31.775" width="1.025" height="1.025" fill="#b4ff00" />
<rect x="10.250" y="31.775" width="1.025" height="1.025" fill="#d4ff00" />
<rect x="11.275" y="31.775" width="1.025" height="1.025" fill="#024e00" />
<rect x="12.300" y="31.775" width="1.025" height="1.025" fill="#000a00" />
<rect x="13.325" y="31.775" width="1.025" height="1.025" fill="#000100" />
<rect x="14.350" y="31.775" width="1.025" height="1.025" fill="#018900" />
<rect x="15.375" y="31.775" width="1.025" height="1.025" fill="#f74fdd" />
<rect x="16.400" y="31.775" width="1.025" height="1.025" fill="#000100" />
<rect x="17.425" y="31.775" width="1.025" height="1.025" fill="#001200" />
<rect x="18.450" y="31.775" width="1.025" height="1.025" fill="#ff00d8" />
<rect x="19.475" y="31.775" width="1.025" height="1.025" fill="#000100" />
<rect x="20.500" y="31.775" width="1.025" height="1.025" fill="#000100" />
<rect x="21.525" y="31.775" width="1.025" height="1.025" fill="#000100" />
<rect x="22.550" y="31.775" width="1.025" height="1.025" fill="#000000" />
<rect x="23.575" y="31.775" width="1.025" height="1.025" fill="#000100" />
<rect x="24.600" y="31.775" width="1.025" height="1.025" fill="#000000" />
<rect x="25.625" y="31.775" width="1.025" height="1.025" fill="#000100" />
<rect x="26.650" y="31.775" width="1.025" height="1.025" fill="#68ff05" />
<rect x="5.125" y="32.800" width="1.025" height="1.025" fill="#eaff00" />
<rect x="6.150" y="32.800" width="1.025" height="1.025" fill="#024200" />
<rect x="7.175" y="32.800" width="1.025" height="1.025" fill="#002100" />
<rect x="8.200" y="32.800" width="1.025" height="1.025" fill="#000100" />
<rect x="9.225" y="32.800" width="1.025" height="1.025" fill="#000000" />
<rect x="10.250" y="32.800" width="1.025" height="1.025" fill="#000000" />
<rect x="11.275" y="32.800" width="1.025" height="1.025" fill="#000100" />
<rect x="12.300" y="32.800" width="1.025" height="1.025" fill="#000000" />
<rect x="13.325" y="32.800" width="1.025" height="1.025" fill="#000000" />
<rect x="14.350" y="32.800" width="1.025" height="1.025" fill="#000000" />
<rect x="15.375" y="32.800" width="1.025" height="1.025" fill="#000000" />
<rect x="16.400" y="32.800" width="1.025" height="1.025" fill="#000000" />
<rect x="17.425" y="32.800" width="1.025" height="1.025" fill="#000000" />
<rect x="18.450" y="32.800" width="1.025" height="1.025" fill="#000000" />
<rect x="19.475" y="32.800" width="1.025" height="1.025" fill="#000000" />
<rect x="20.500" y="32.800" width="1.025" height="1.025" fill="#000000" />
<rect x="21.525" y="32.800" width="1.025" height="1.025" fill="#000000" />
<rect x="22.550" y="32.800" width="1.025" height="1.025" fill="#000000" />
<rect x="23.575" y="32.800" width="1.025" height="1.025" fill="#000100" />
<rect x="24.600" y="32.800" width="1.025" height="1.025" fill="#000400" />
<rect x="25.625" y="32.800" width="1.025" height="1.025" fill="#000000" />
<rect x="26.650" y="32.800" width="1.025" height="1.025" fill="#000100" />
<rect x="27.675" y="32.800" width="1.025" height="1.025" fill="#46ff07" />
<rect x="4.100" y="33.825" width="1.025" height="1.025" fill="#dfff00" />
<rect x="5.125" y="33.825" width="1.025" height="1.025" fill="#035e00" />
<rect x="6.150" y="33.825" width="1.025" height="1.025" fill="#012800" />
<rect x="7.175" y="33.825" width="1.025" height="1.025" fill="#001000" />
<rect x="8.200" y="33.825" width="1.025" height="1.025" fill="#000000" />
<rect x="9.225" y="33.825" width="1.025" height="1.025" fill="#000000" />
<rect x="10.250" y="33.825" width="1.025" height="1.025" fill="#002100" />
<rect x="11.275" y="33.825" width="1.025" height="1.025" fill="#000200" />
<rect x="12.300" y="33.825" width="1.025" height="1.025" fill="#000000" />
<rect x="13.325" y="33.825" width="1.025" height="1.025" fill="#000000" />
<rect x="14.350" y="33.825" width="1.025" height="1.025" fill="#000000" />
<rect x="15.375" y="33.825" width="1.025" height="1.025" fill="#000000" />
<rect x="16.400" y="33.825" width="1.025" height="1.025" fill="#000000" />
<rect x="17.425" y="33.825" width="1.025" height="1.025" fill="#000000" />
<rect x="18.450" y="33.825" width="1.025" height="1.025" fill="#000000" />
<rect x="19.475" y="33.825" width="1.025" height="1.025" fill="#000000" />
<rect x="20.500" y="33.825" width="1.025" height="1.025" fill="#000000" />
<rect x="21.525" y="33.825" width="1.025" height="1.025" fill="#000000" />
<rect x="22.550" y="33.825" width="1.025" height="1.025" fill="#000000" />
<rect x="23.575" y="33.825" width="1.025" height="1.025" fill="#000400" />
<rect x="24.600" y="33.825" width="1.025" height="1.025" fill="#018900" />
<rect x="25.625" y="33.825" width="1.025" height="1.025" fill="#000300" />
<rect x="26.650" y="33.825" width="1.025" height="1.025" fill="#000000" />
<rect x="27.675" y="33.825" width="1.025" height="1.025" fill="#000100" />
<rect x="28.700" y="33.825" width="1.025" height="1.025" fill="#eaff00" />
<rect x="4.100" y="34.850" width="1.025" height="1.025" fill="#ff00d8" />
<rect x="5.125" y="34.850" width="1.025" height="1.025" fill="#024200" />
<rect x="6.150" y="34.850" width="1.025" height="1.025" fill="#001200" />
<rect x="7.175" y="34.850" width="1.025" height="1.025" fill="#000500" />
<rect x="8.200" y="34.850" width="1.025" height="1.025" fill="#000000" />
<rect x="9.225" y="34.850" width="1.025" height="1.025" fill="#000200" />
<rect x="10.250" y="34.850" width="1.025" height="1.025" fill="#d4ff00" />
<rect x="11.275" y="34.850" width="1.025" height="1.025" fill="#001e00" />
<rect x="12.300" y="34.850" width="1.025" height="1.025" fill="#000000" />
<rect x="13.325" y="34.850" width="1.025" height="1.025" fill="#000100" />
<rect x="14.350" y="34.850" width="1.025" height="1.025" fill="#000000" />
<rect x="15.375" y="34.850" width="1.025" height="1.025" fill="#000000" />
<rect x="16.400" y="34.850" width="1.025" height="1.025" fill="#000000" />
<rect x="17.425" y="34.850" width="1.025" height="1.025" fill="#000000" />
<rect x="18.450" y="34.850" width="1.025" height="1.025" fill="#000000" />
<rect x="19.475" y="34.850" width="1.025" height="1.025" fill="#000000" />
<rect x="20.500" y="34.850" width="1.025" height="1.025" fill="#000000" />
<rect x="21.525" y="34.850" width="1.025" height="1.025" fill="#000000" />
<rect x="22.550" y="34.850" width="1.025" height="1.025" fill="#000100" />
<rect x="23.575" y="34.850" width="1.025" height="1.025" fill="#001700" />
<rect x="24.600" y="34.850" width="1.025" height="1.025" fill="#ff00d8" />
<rect x="25.625" y="34.850" width="1.025" height="1.025" fill="#8dff02" />
<rect x="26.650" y="34.850" width="1.025" height="1.025" fill="#000100" />
<rect x="27.675" y="34.850" width="1.025" height="1.025" fill="#000000" />
<rect x="28.700" y="34.850" width="1.025" height="1.025" fill="#46ff07" />
<rect x="4.100" y="35.875" width="1.025" height="1.025" fill="#ff00d8" />
<rect x="5.125" y="35.875" width="1.025" height="1.025" fill="#001e00" />
<rect x="6.150" y="35.875" width="1.025" height="1.025" fill="#000400" />
<rect x="7.175" y="35.875" width="1.025" height="1.025" fill="#000400" />
<rect x="8.200" y="35.875" width="1.025" height="1.025" fill="#000000" />
<rect x="9.225" y="35.875" width="1.025" height="1.025" fill="#001700" />
<rect x="10.250" y="35.875" width="1.025" height="1.025" fill="#fd26d9" />
<rect x="11.275" y="35.875" width="1.025" height="1.025" fill="#92ff02" />
<rect x="12.300" y="35.875" width="1.025" height="1.025" fill="#000800" />
<rect x="13.325" y="35.875" width="1.025" height="1.025" fill="#000e00" />
<rect x="14.350" y="35.875" width="1.025" height="1.025" fill="#000300" />
<rect x="15.375" y="35.875" width="1.025" height="1.025" fill="#000000" />
<rect x="16.400" y="35.875" width="1.025" height="1.025" fill="#000100" />
<rect x="17.425" y="35.875" width="1.025" height="1.025" fill="#000100" />
<rect x="18.450" y="35.875" width="1.025" height="1.025" fill="#000000" />
<rect x="19.475" y="35.875" width="1.025" height="1.025" fill="#000200" />
<rect x="20.500" y="35.875" width="1.025" height="1.025" fill="#000000" />
<rect x="21.525" y="35.875" width="1.025" height="1.025" fill="#000000" />
<rect x="22.550" y="35.875" width="1.025" height="1.025" fill="#000800" />
<rect x="23.575" y="35.875" width="1.025" height="1.025" fill="#013900" />
<rect x="24.600" y="35.875" width="1.025" height="1.025" fill="#ff00d8" />
<rect x="25.625" y="35.875" width="1.025" height="1.025" fill="#000600" />
<rect x="26.650" y="35.875" width="1.025" height="1.025" fill="#000500" />
<rect x="27.675" y="35.875" width="1.025" height="1.025" fill="#000100" />
<rect x="28.700" y="35.875" width="1.025" height="1.025" fill="#d4ff00" />
<rect x="4.100" y="36.900" width="1.025" height="1.025" fill="#00fcff" />
<rect x="5.125" y="36.900" width="1.025" height="1.025" fill="#000700" />
<rect x="6.150" y="36.900" width="1.025" height="1.025" fill="#000300" />
<rect x="7.175" y="36.900" width="1.025" height="1.025" fill="#000400" />
<rect x="8.200" y="36.900" width="1.025" height="1.025" fill="#000000" />
<rect x="9.225" y="36.900" width="1.025" height="1.025" fill="#024200" />
<rect x="10.250" y="36.900" width="1.025" height="1.025" fill="#000000" />
<rect x="11.275" y="36.900" width="1.025" height="1.025" fill="#68ff05" />
<rect x="12.300" y="36.900" width="1.025" height="1.025" fill="#012d00" />
<rect x="13.325" y="36.900" width="1.025" height="1.025" fill="#001000" />
<rect x="14.350" y="36.900" width="1.025" height="1.025" fill="#000e00" />
<rect x="15.375" y="36.900" width="1.025" height="1.025" fill="#000000" />
<rect x="16.400" y="36.900" width="1.025" height="1.025" fill="#000700" />
<rect x="17.425" y="36.900" width="1.025" height="1.025" fill="#001400" />
<rect x="18.450" y="36.900" width="1.025" height="1.025" fill="#000000" />
<rect x="19.475" y="36.900" width="1.025" height="1.025" fill="#000700" />
<rect x="20.500" y="36.900" width="1.025" height="1.025" fill="#000300" />
<rect x="21.525" y="36.900" width="1.025" height="1.025" fill="#000300" />
<rect x="22.550" y="36.900" width="1.025" height="1.025" fill="#000800" />
<rect x="23.575" y="36.900" width="1.025" height="1.025" fill="#018900" />
<rect x="24.600" y="36.900" width="1.025" height="1.025" fill="#000000" />
<rect x="25.625" y="36.900" width="1.025" height="1.025" fill="#000500" />
<rect x="26.650" y="36.900" width="1.025" height="1.025" fill="#000500" />
<rect x="27.675" y="36.900" width="1.025" height="1.025" fill="#000400" />
<rect x="28.700" y="36.900" width="1.025" height="1.025" fill="#ff00d8" />
</svg>