<svg xmlns="http://www.w3.org/2000/svg" width="37.925" height="37.925" shape-rendering="crispEdges" style="image-rendering: pixelated;">
<rect x="8.200" y="0.000" width="1.025" height="1.025" fill="#fffeff" fill-opacity="0.302" />
<rect x="9.225" y="0.000" width="1.025" height="1.025" fill="#ffffff" fill-opacity="0.302" />
<rect x="10.250" y="0.000" width="1.025" height="1.025" fill="#ffffff" fill-opacity="0.302" />
<rect x="11.275" y="0.000" width="1.025" height="1.025" fill="#ffffff" fill-opacity="0.514" />
<rect x="12.300" y="0.000" width="1.025" height="1.025" fill="#ffffff" fill-opacity="0.302" />
<rect x="13.325" y="0.000" width="1.025" height="1.025" fill="#ffffff" fill-opacity="0.302" />
<rect x="14.350" y="0.000" width="1.025" height="1.025" fill="#fffeff" fill-opacity="0.302" />
<rect x="15.375" y="0.000" width="1.025" height="1.025" fill="#fffeff" fill-opacity="0.302" />
<rect x="16.400" y="0.000" width="1.025" height="1.025" fill="#ffffff" fill-opacity="0.302" />
<rect x="17.425" y="0.000" width="1.025" height="1.025" fill="#fffeff" fill-opacity="0.302" />
<rect x="18.450" y="0.000" width="1.025" height="1.025" fill="#ffffff" fill-opacity="0.514" />
<rect x="19.475" y="0.000" width="1.025" height="1.025" fill="#ffffff" fill-opacity="0.514" />
<rect x="20.500" y="0.000" width="1.025" height="1.025" fill="#ffffff" fill-opacity="0.514" />
<rect x="21.525" y="0.000" width="1.025" height="1.025" fill="#ffffff" fill-opacity="0.514" />
<rect x="22.550" y="0.000" width="1.025" height="1.025" fill="#ffffff" fill-opacity="0.514" />
<rect x="23.575" y="0.000" width="1.025" height="1.025" fill="#ffffff" fill-opacity="0.514" />
<rect x="24.600" y="0.000" width="1.025" height="1.025" fill="#fffeff" fill-opacity="0.514" />
<rect x="25.625" y="0.000" width="1.025" height="1.025" fill="#ffffff" fill-opacity="0.514" />
<rect x="26.650" y="0.000" width="1.025" height="1.025" fill="#ffffff" fill-opacity="0.514" />
<rect x="27.675" y="0.000" width="1.025" height="1.025" fill="#ffffff" fill-opacity="0.302" />
<rect x="28.700" y="0.000" width="1.025" height="1.025" fill="#ffffff" fill-opacity="0.302" />
<rect x="29.725" y="0.000" width="1.025" height="1.025" fill="#ffffff" fill-opacity="0.302" />
<rect x="30.750" y="0.000" width="1.025" height="1.025" fill="#ffffff" fill-opacity="0.302" />
<rect x="31.775" y="0.000" width="1.025" height="1.025" fill="#fffeff" fill-opacity="0.302" />
<rect x="32.800" y="0.000" width="1.025" height="1.025" fill="#ffffff" fill-opacity="0.302" />
<rect x="34.850" y="0.000" width="1.025" height="1.025" fill="#ffffff" fill-opacity="0.302" />
<rect x="10.250" y="1.025" width="1.025" height="1.025" fill="#ffffff" fill-opacity="0.302" />
<rect x="28.700" y="1.025" width="1.025" height="1.025" fill="#ffffff" fill-opacity="0.302" />
<rect x="29.725" y="1.025" width="1.025" height="1.025" fill="#ffffff" fill-opacity="0.302" />
<rect x="31.775" y="1.025" width="1.025" height="1.025" fill="#ffffff" fill-opacity="0.302" />
<rect x="32.800" y="1.025" width="1.025" height="1.025" fill="#ffffff" fill-opacity="0.514" />
<rect x="34.850" y="1.025" width="1.025" height="1.025" fill="#fffeff" fill-opacity="0.302" />
<rect x="30.750" y="2.050" width="1.025" height="1.025" fill="#ffffff" fill-opacity="0.302" />
<rect x="32.800" y="2.050" width="1.025" height="1.025" fill="#ffffff" fill-opacity="0.514" />
<rect x="33.825" y="2.050" width="1.025" height="1.025" fill="#ffffff" fill-opacity="0.302" />
<rect x="34.850" y="2.050" width="1.025" height="1.025" fill="#ffffff" fill-opacity="0.514" />
<rect x="30.750" y="3.075" width="1.025" height="1.025" fill="#fffeff" fill-opacity="0.302" />
<rect x="31.775" y="3.075" width="1.025" height="1.025" fill="#fffeff" fill-opacity="0.514" />
<rect x="32.800" y="3.075" width="1.025" height="1.025" fill="#ffffff" fill-opacity="0.514" />
<rect x="33.825" y="3.075" width="1.025" height="1.025" fill="#ffffff" fill-opacity="0.302" />
<rect x="30.750" y="4.100" width="1.025" height="1.025" fill="#ffffff" fill-opacity="0.514" />
<rect x="31.775" y="4.100" width="1.025" height="1.025" fill="#fffeff" fill-opacity="0.514" />
<rect x="32.800" y="4.100" width="1.025" height="1.025" fill="#ffffff" fill-opacity="0.302" />
<rect x="30.750" y="5.125" width="1.025" height="1.025" fill="#fffeff" fill-opacity="0.302" />
<rect x="31.775" y="5.125" width="1.025" height="1.025" fill="#ffffff" fill-opacity="0.302" />
<rect x="32.800" y="5.125" width="1.025" height="1.025" fill="#ffffff" fill-opacity="0.302" />
<rect x="31.775" y="6.150" width="1.025" height="1.025" fill="#fffeff" fill-opacity="0.514" />
<rect x="32.800" y="6.150" width="1.025" height="1.025" fill="#fffeff" fill-opacity="0.514" />
<rect x="33.825" y="6.150" width="1.025" height="1.025" fill="#ffffff" fill-opacity="0.302" />
<rect x="34.850" y="6.150" width="1.025" height="1.025" fill="#ffffff" fill-opacity="0.302" />
<rect x="31.775" y="7.175" width="1.025" height="1.025" fill="#fffeff" fill-opacity="0.302" />
<rect x="32.800" y="7.175" width="1.025" height="1.025" fill="#ffffff" fill-opacity="0.302" />
<rect x="33.825" y="7.175" width="1.025" height="1.025" fill="#ffffff" fill-opacity="0.302" />
<rect x="34.850" y="7.175" width="1.025" height="1.025" fill="#ffffff" fill-opacity="0.302" />
<rect x="30.750" y="8.200" width="1.025" height="1.025" fill="#fffeff" fill-opacity="0.302" />
<rect x="32.800" y="8.200" width="1.025" height="1.025" fill="#ffffff" fill-opacity="0.514" />
<rect x="33.825" y="8.200" width="1.025" height="1.025" fill="#ffffff" fill-opacity="0.302" />
<rect x="34.850" y="8.200" width="1.025" height="1.025" fill="#ffffff" fill-opacity="0.514" />
<rect x="31.775" y="9.225" width="1.025" height="1.025" fill="#ffffff" fill-opacity="0.302" />
<rect x="32.800" y="9.225" width="1.025" height="1.025" fill="#ffffff" fill-opacity="0.514" />
<rect x="33.825" y="9.225" width="1.025" height="1.025" fill="#ffffff" fill-opacity="0.302" />
<rect x="34.850" y="9.225" width="1.025" height="1.025" fill="#ffffff" fill-opacity="0.514" />
<rect x="31.775" y="10.250" width="1.025" height="1.025" fill="#ffffff" fill-opacity="0.302" />
<rect x="32.800" y="10.250" width="1.025" height="1.025" fill="#ffffff" fill-opacity="0.514" />
<rect x="33.825" y="10.250" width="1.025" height="1.025" fill="#ffffff" fill-opacity="0.302" />
<rect x="34.850" y="10.250" width="1.025" height="1.025" fill="#ffffff" fill-opacity="0.302" />
<rect x="32.800" y="11.275" width="1.025" height="1.025" fill="#ffffff" fill-opacity="0.514" />
<rect x="33.825" y="11.275" width="1.025" height="1.025" fill="#ffffff" fill-opacity="0.302" />
<rect x="34.850" y="11.275" width="1.025" height="1.025" fill="#ffffff" fill-opacity="0.302" />
<rect x="31.775" y="12.300" width="1.025" height="1.025" fill="#ffffff" fill-opacity="0.302" />
<rect x="33.825" y="12.300" width="1.025" height="1.025" fill="#fffeff" fill-opacity="0.302" />
<rect x="31.775" y="13.325" width="1.025" height="1.025" fill="#ffffff" fill-opacity="0.302" />
<rect x="34.850" y="13.325" width="1.025" height="1.025" fill="#ffffff" fill-opacity="0.302" />
<rect x="31.775" y="14.350" width="1.025" height="1.025" fill="#fffeff" fill-opacity="0.302" />
<rect x="34.850" y="14.350" width="1.025" height="1.025" fill="#ffffff" fill-opacity="0.302" />
<rect x="32.800" y="15.375" width="1.025" height="1.025" fill="#ffffff" fill-opacity="0.302" />
<rect x="34.850" y="15.375" width="1.025" height="1.025" fill="#ffffff" fill-opacity="0.302" />
<rect x="31.775" y="17.425" width="1.025" height="1.025" fill="#ff00d8" />
<rect x="32.800" y="17.425" width="1.025" height="1.025" fill="#ff00d8" />
<rect x="33.825" y="17.425" width="1.025" height="1.025" fill="#ff00d8" />
<rect x="27.675" y="18.450" width="1.025" height="1.025" fill="#e8ff00" />
<rect x="28.700" y="18.450" width="1.025" height="1.025" fill="#007d00" />
<rect x="29.725" y="18.450" width="1.025" height="1.025" fill="#000000" />
<rect x="30.750" y="18.450" width="1.025" height="1.025" fill="#00d4d6" />
<rect x="31.775" y="18.450" width="1.025" height="1.025" fill="#d52ade" />
<rect x="32.800" y="18.450" width="1.025" height="1.025" fill="#fd14c7" />
<rect x="33.825" y="18.450" width="1.025" height="1.025" fill="#ff00d8" />
<rect x="34.850" y="18.450" width="1.025" height="1.025" fill="#c81ac4" />
<rect x="24.600" y="19.475" width="1.025" height="1.025" fill="#000000" />
<rect x="25.625" y="19.475" width="1.025" height="1.025" fill="#000000" />
<rect x="26.650" y="19.475" width="1.025" height="1.025" fill="#006d00" />
<rect x="27.675" y="19.475" width="1.025" height="1.025" fill="#17e5fb" />
<rect x="28.700" y="19.475" width="1.025" height="1.025" fill="#000100" />
<rect x="29.725" y="19.475" width="1.025" height="1.025" fill="#000000" />
<rect x="30.750" y="19.475" width="1.025" height="1.025" fill="#006567" />
<rect x="31.775" y="19.475" width="1.025" height="1.025" fill="#a324af" />
<rect x="32.800" y="19.475" width="1.025" height="1.025" fill="#eb09c7" />
<rect x="33.825" y="19.475" width="1.025" height="1.025" fill="#ff00d8" />
<rect x="34.850" y="19.475" width="1.025" height="1.025" fill="#00fcff" />
<rect x="21.525" y="20.500" width="1.025" height="1.025" fill="#00a5a7" fill-opacity="0.498" />
<rect x="22.550" y="20.500" width="1.025" height="1.025" fill="#009798" />
<rect x="23.575" y="20.500" width="1.025" height="1.025" fill="#ff00d8" />
<rect x="24.600" y="20.500" width="1.025" height="1.025" fill="#005000" />
<rect x="25.625" y="20.500" width="1.025" height="1.025" fill="#004c00" />
<rect x="26.650" y="20.500" width="1.025" height="1.025" fill="#004d00" />
<rect x="27.675" y="20.500" width="1.025" height="1.025" fill="#004d00" />
<rect x="28.700" y="20.500" width="1.025" height="1.025" fill="#09f3fe" />
<rect x="29.725" y="20.500" width="1.025" height="1.025" fill="#a2ff00" />
<rect x="30.750" y="20.500" width="1.025" height="1.025" fill="#a8ff00" />
<rect x="31.775" y="20.500" width="1.025" height="1.025" fill="#a1ff00" />
<rect x="32.800" y="20.500" width="1.025" height="1.025" fill="#004f50" />
<rect x="33.825" y="20.500" width="1.025" height="1.025" fill="#f75c8a" />
</svg>