<svg xmlns="http://www.w3.org/2000/svg" width="37.925" height="37.925" shape-rendering="crispEdges" style="image-rendering: pixelated;">
<rect x="14.350" y="4.100" width="1.025" height="1.025" fill="#000d0d" />
<rect x="15.375" y="4.100" width="1.025" height="1.025" fill="#000000" />
<rect x="16.400" y="4.100" width="1.025" height="1.025" fill="#004142" />
<rect x="17.425" y="4.100" width="1.025" height="1.025" fill="#000101" />
<rect x="18.450" y="4.100" width="1.025" height="1.025" fill="#000d0e" />
<rect x="19.475" y="4.100" width="1.025" height="1.025" fill="#000000" />
<rect x="20.500" y="4.100" width="1.025" height="1.025" fill="#000000" />
<rect x="21.525" y="4.100" width="1.025" height="1.025" fill="#000606" />
<rect x="22.550" y="4.100" width="1.025" height="1.025" fill="#000000" />
<rect x="12.300" y="5.125" width="1.025" height="1.025" fill="#000202" />
<rect x="13.325" y="5.125" width="1.025" height="1.025" fill="#b549e3" />
<rect x="14.350" y="5.125" width="1.025" height="1.025" fill="#e51adc" />
<rect x="15.375" y="5.125" width="1.025" height="1.025" fill="#ff00d8" />
<rect x="16.400" y="5.125" width="1.025" height="1.025" fill="#ff00d8" />
<rect x="17.425" y="5.125" width="1.025" height="1.025" fill="#ff00d8" />
<rect x="18.450" y="5.125" width="1.025" height="1.025" fill="#ff00d8" />
<rect x="19.475" y="5.125" width="1.025" height="1.025" fill="#ff00d8" />
<rect x="20.500" y="5.125" width="1.025" height="1.025" fill="#ff00d8" />
<rect x="21.525" y="5.125" width="1.025" height="1.025" fill="#ff00d8" />
<rect x="22.550" y="5.125" width="1.025" height="1.025" fill="#eaff00" />
<rect x="23.575" y="5.125" width="1.025" height="1.025" fill="#ebf707" />
<rect x="11.275" y="6.150" width="1.025" height="1.025" fill="#000101" />
<rect x="12.300" y="6.150" width="1.025" height="1.025" fill="#00fcff" />
<rect x="13.325" y="6.150" width="1.025" height="1.025" fill="#ff00d8" />
<rect x="14.350" y="6.150" width="1.025" height="1.025" fill="#ff00d8" />
<rect x="15.375" y="6.150" width="1.025" height="1.025" fill="#ff00d8" />
<rect x="16.400" y="6.150" width="1.025" height="1.025" fill="#ff00d8" />
<rect x="17.425" y="6.150" width="1.025" height="1.025" fill="#eaff00" />
<rect x="18.450" y="6.150" width="1.025" height="1.025" fill="#dbff00" />
<rect x="19.475" y="6.150" width="1.025" height="1.025" fill="#b2ff00" />
<rect x="20.500" y="6.150" width="1.025" height="1.025" fill="#007f00" />
<rect x="21.525" y="6.150" width="1.025" height="1.025" fill="#ff00d8" />
<rect x="22.550" y="6.150" width="1.025" height="1.025" fill="#bdff00" />
<rect x="23.575" y="6.150" width="1.025" height="1.025" fill="#eaff00" />
<rect x="24.600" y="6.150" width="1.025" height="1.025" fill="#ff00d8" />
<rect x="11.275" y="7.175" width="1.025" height="1.025" fill="#001112" />
<rect x="12.300" y="7.175" width="1.025" height="1.025" fill="#02faff" />
<rect x="13.325" y="7.175" width="1.025" height="1.025" fill="#eaff00" />
<rect x="14.350" y="7.175" width="1.025" height="1.025" fill="#eaff00" />
<rect x="15.375" y="7.175" width="1.025" height="1.025" fill="#ff00d8" />
<rect x="16.400" y="7.175" width="1.025" height="1.025" fill="#ff00d8" />
<rect x="17.425" y="7.175" width="1.025" height="1.025" fill="#eaff00" />
<rect x="18.450" y="7.175" width="1.025" height="1.025" fill="#006d00" />
<rect x="19.475" y="7.175" width="1.025" height="1.025" fill="#2fff00" />
<rect x="20.500" y="7.175" width="1.025" height="1.025" fill="#eaff00" />
<rect x="21.525" y="7.175" width="1.025" height="1.025" fill="#eaff00" />
<rect x="22.550" y="7.175" width="1.025" height="1.025" fill="#b8ff00" />
<rect x="23.575" y="7.175" width="1.025" height="1.025" fill="#85ff00" />
<rect x="24.600" y="7.175" width="1.025" height="1.025" fill="#eaff00" />
<rect x="25.625" y="7.175" width="1.025" height="1.025" fill="#00eaed" />
<rect x="10.250" y="8.200" width="1.025" height="1.025" fill="#000505" />
<rect x="11.275" y="8.200" width="1.025" height="1.025" fill="#00fcff" />
<rect x="12.300" y="8.200" width="1.025" height="1.025" fill="#53aaf2" />
<rect x="13.325" y="8.200" width="1.025" height="1.025" fill="#eaff00" />
<rect x="14.350" y="8.200" width="1.025" height="1.025" fill="#e0ff00" />
<rect x="15.375" y="8.200" width="1.025" height="1.025" fill="#ff00d8" />
<rect x="16.400" y="8.200" width="1.025" height="1.025" fill="#eaff00" />
<rect x="17.425" y="8.200" width="1.025" height="1.025" fill="#a6ff00" />
<rect x="18.450" y="8.200" width="1.025" height="1.025" fill="#4fff00" />
<rect x="19.475" y="8.200" width="1.025" height="1.025" fill="#eaff00" />
<rect x="20.500" y="8.200" width="1.025" height="1.025" fill="#ff00d8" />
<rect x="23.575" y="8.200" width="1.025" height="1.025" fill="#fa05d9" />
<rect x="24.600" y="8.200" width="1.025" height="1.025" fill="#1dff00" />
<rect x="25.625" y="8.200" width="1.025" height="1.025" fill="#eaff00" />
<rect x="10.250" y="9.225" width="1.025" height="1.025" fill="#002728" />
<rect x="11.275" y="9.225" width="1.025" height="1.025" fill="#f50ada" />
<rect x="12.300" y="9.225" width="1.025" height="1.025" fill="#ff00d8" />
<rect x="13.325" y="9.225" width="1.025" height="1.025" fill="#eaff00" />
<rect x="14.350" y="9.225" width="1.025" height="1.025" fill="#ff00d8" />
<rect x="15.375" y="9.225" width="1.025" height="1.025" fill="#ff00d8" />
<rect x="16.400" y="9.225" width="1.025" height="1.025" fill="#98ff00" />
<rect x="17.425" y="9.225" width="1.025" height="1.025" fill="#92ff00" />
<rect x="18.450" y="9.225" width="1.025" height="1.025" fill="#ff00d8" />
<rect x="19.475" y="9.225" width="1.025" height="1.025" fill="#ff00d8" />
<rect x="24.600" y="9.225" width="1.025" height="1.025" fill="#ff00d8" />
<rect x="25.625" y="9.225" width="1.025" height="1.025" fill="#ff00d8" />
<rect x="9.225" y="10.250" width="1.025" height="1.025" fill="#000000" />
<rect x="10.250" y="10.250" width="1.025" height="1.025" fill="#00f6f9" />
<rect x="11.275" y="10.250" width="1.025" height="1.025" fill="#ff00d8" />
<rect x="12.300" y="10.250" width="1.025" height="1.025" fill="#ff00d8" />
<rect x="13.325" y="10.250" width="1.025" height="1.025" fill="#ff00d8" />
<rect x="14.350" y="10.250" width="1.025" height="1.025" fill="#ff00d8" />
<rect x="15.375" y="10.250" width="1.025" height="1.025" fill="#67ff00" />
<rect x="16.400" y="10.250" width="1.025" height="1.025" fill="#58ff00" />
<rect x="17.425" y="10.250" width="1.025" height="1.025" fill="#eaff00" />
<rect x="18.450" y="10.250" width="1.025" height="1.025" fill="#ff00d8" />
<rect x="24.600" y="10.250" width="1.025" height="1.025" fill="#2dcff8" />
<rect x="25.625" y="10.250" width="1.025" height="1.025" fill="#c935e0" />
<rect x="9.225" y="11.275" width="1.025" height="1.025" fill="#000000" />
<rect x="10.250" y="11.275" width="1.025" height="1.025" fill="#00fcff" />
<rect x="11.275" y="11.275" width="1.025" height="1.025" fill="#ff00d8" />
<rect x="12.300" y="11.275" width="1.025" height="1.025" fill="#ff00d8" />
<rect x="13.325" y="11.275" width="1.025" height="1.025" fill="#ff00d8" />
<rect x="14.350" y="11.275" width="1.025" height="1.025" fill="#ff00d8" />
<rect x="15.375" y="11.275" width="1.025" height="1.025" fill="#3fff00" />
<rect x="16.400" y="11.275" width="1.025" height="1.025" fill="#eaff00" />
<rect x="17.425" y="11.275" width="1.025" height="1.025" fill="#23d9fa" />
<rect x="25.625" y="11.275" width="1.025" height="1.025" fill="#ff00d8" />
<rect x="9.225" y="12.300" width="1.025" height="1.025" fill="#000707" />
<rect x="10.250" y="12.300" width="1.025" height="1.025" fill="#f10dda" />
<rect x="11.275" y="12.300" width="1.025" height="1.025" fill="#ff00d8" />
<rect x="12.300" y="12.300" width="1.025" height="1.025" fill="#eaff00" />
<rect x="13.325" y="12.300" width="1.025" height="1.025" fill="#ff00d8" />
<rect x="14.350" y="12.300" width="1.025" height="1.025" fill="#eaff00" />
<rect x="15.375" y="12.300" width="1.025" height="1.025" fill="#c3ff00" />
<rect x="16.400" y="12.300" width="1.025" height="1.025" fill="#ff00d8" />
<rect x="25.625" y="12.300" width="1.025" height="1.025" fill="#00fcff" />
<rect x="9.225" y="13.325" width="1.025" height="1.025" fill="#00fcff" />
<rect x="10.250" y="13.325" width="1.025" height="1.025" fill="#ff00d8" />
<rect x="11.275" y="13.325" width="1.025" height="1.025" fill="#ff00d8" />
<rect x="12.300" y="13.325" width="1.025" height="1.025" fill="#ff00d8" />
<rect x="13.325" y="13.325" width="1.025" height="1.025" fill="#eaff00" />
<rect x="14.350" y="13.325" width="1.025" height="1.025" fill="#b6ff00" />
<rect x="15.375" y="13.325" width="1.025" height="1.025" fill="#ff00d8" />
<rect x="25.625" y="13.325" width="1.025" height="1.025" fill="#6e8fee" />
<rect x="9.225" y="14.350" width="1.025" height="1.025" fill="#8e70e9" />
<rect x="10.250" y="14.350" width="1.025" height="1.025" fill="#ff00d8" />
<rect x="11.275" y="14.350" width="1.025" height="1.025" fill="#ff00d8" />
<rect x="12.300" y="14.350" width="1.025" height="1.025" fill="#ff00d8" />
<rect x="13.325" y="14.350" width="1.025" height="1.025" fill="#eaff00" />
<rect x="14.350" y="14.350" width="1.025" height="1.025" fill="#ceff00" />
<rect x="15.375" y="14.350" width="1.025" height="1.025" fill="#ff00d8" />
<rect x="25.625" y="14.350" width="1.025" height="1.025" fill="#c13de2" />
<rect x="9.225" y="15.375" width="1.025" height="1.025" fill="#ff00d8" />
<rect x="10.250" y="15.375" width="1.025" height="1.025" fill="#ff00d8" />
<rect x="11.275" y="15.375" width="1.025" height="1.025" fill="#ff00d8" />
<rect x="12.300" y="15.375" width="1.025" height="1.025" fill="#7885ed" />
<rect x="13.325" y="15.375" width="1.025" height="1.025" fill="#e4ff00" />
<rect x="14.350" y="15.375" width="1.025" height="1.025" fill="#48ff00" />
<rect x="15.375" y="15.375" width="1.025" height="1.025" fill="#eaff00" />
<rect x="25.625" y="15.375" width="1.025" height="1.025" fill="#ff00d8" />
<rect x="9.225" y="16.400" width="1.025" height="1.025" fill="#ff00d8" />
<rect x="10.250" y="16.400" width="1.025" height="1.025" fill="#ff00d8" />
<rect x="11.275" y="16.400" width="1.025" height="1.025" fill="#ff00d8" />
<rect x="12.300" y="16.400" width="1.025" height="1.025" fill="#00fcff" />
<rect x="13.325" y="16.400" width="1.025" height="1.025" fill="#ccff00" />
<rect x="14.350" y="16.400" width="1.025" height="1.025" fill="#eaff00" />
<rect x="25.625" y="16.400" width="1.025" height="1.025" fill="#eaff00" />
<rect x="8.200" y="17.425" width="1.025" height="1.025" fill="#000000" />
<rect x="9.225" y="17.425" width="1.025" height="1.025" fill="#ff00d8" />
<rect x="10.250" y="17.425" width="1.025" height="1.025" fill="#ff00d8" />
<rect x="11.275" y="17.425" width="1.025" height="1.025" fill="#ff00d8" />
<rect x="12.300" y="17.425" width="1.025" height="1.025" fill="#00fcff" />
<rect x="13.325" y="17.425" width="1.025" height="1.025" fill="#46ff00" />
<rect x="14.350" y="17.425" width="1.025" height="1.025" fill="#eaff00" />
<rect x="25.625" y="17.425" width="1.025" height="1.025" fill="#b3ff00" />
<rect x="8.200" y="18.450" width="1.025" height="1.025" fill="#000000" />
<rect x="9.225" y="18.450" width="1.025" height="1.025" fill="#eaff00" />
<rect x="10.250" y="18.450" width="1.025" height="1.025" fill="#ff00d8" />
<rect x="11.275" y="18.450" width="1.025" height="1.025" fill="#f708d9" />
<rect x="12.300" y="18.450" width="1.025" height="1.025" fill="#00fcff" />
<rect x="13.325" y="18.450" width="1.025" height="1.025" fill="#33ff00" />
<rect x="14.350" y="18.450" width="1.025" height="1.025" fill="#ff00d8" />
<rect x="25.625" y="18.450" width="1.025" height="1.025" fill="#d2ff00" />
<rect x="8.200" y="19.475" width="1.025" height="1.025" fill="#000000" />
<rect x="9.225" y="19.475" width="1.025" height="1.025" fill="#ff00d8" />
<rect x="10.250" y="19.475" width="1.025" height="1.025" fill="#ff00d8" />
<rect x="11.275" y="19.475" width="1.025" height="1.025" fill="#af4fe4" />
<rect x="12.300" y="19.475" width="1.025" height="1.025" fill="#00fcff" />
<rect x="13.325" y="19.475" width="1.025" height="1.025" fill="#35ff00" />
<rect x="14.350" y="19.475" width="1.025" height="1.025" fill="#ff00d8" />
<rect x="25.625" y="19.475" width="1.025" height="1.025" fill="#41ff00" />
<rect x="8.200" y="20.500" width="1.025" height="1.025" fill="#000000" />
<rect x="9.225" y="20.500" width="1.025" height="1.025" fill="#ff00d8" />
<rect x="10.250" y="20.500" width="1.025" height="1.025" fill="#ff00d8" />
<rect x="11.275" y="20.500" width="1.025" height="1.025" fill="#00fcff" />
<rect x="12.300" y="20.500" width="1.025" height="1.025" fill="#ff00d8" />
<rect x="13.325" y="20.500" width="1.025" height="1.025" fill="#21ff00" />
<rect x="14.350" y="20.500" width="1.025" height="1.025" fill="#ff00d8" />
<rect x="25.625" y="20.500" width="1.025" height="1.025" fill="#eaff00" />
<rect x="8.200" y="21.525" width="1.025" height="1.025" fill="#00494a" />
<rect x="9.225" y="21.525" width="1.025" height="1.025" fill="#ff00d8" />
<rect x="10.250" y="21.525" width="1.025" height="1.025" fill="#ff00d8" />
<rect x="11.275" y="21.525" width="1.025" height="1.025" fill="#00fcff" />
<rect x="12.300" y="21.525" width="1.025" height="1.025" fill="#ff00d8" />
<rect x="13.325" y="21.525" width="1.025" height="1.025" fill="#41ff00" />
<rect x="14.350" y="21.525" width="1.025" height="1.025" fill="#ff00d8" />
<rect x="25.625" y="21.525" width="1.025" height="1.025" fill="#eaff00" />
<rect x="8.200" y="22.550" width="1.025" height="1.025" fill="#00b3b5" />
<rect x="9.225" y="22.550" width="1.025" height="1.025" fill="#ff00d8" />
<rect x="10.250" y="22.550" width="1.025" height="1.025" fill="#f807d9" />
<rect x="11.275" y="22.550" width="1.025" height="1.025" fill="#00fcff" />
<rect x="12.300" y="22.550" width="1.025" height="1.025" fill="#ff00d8" />
<rect x="13.325" y="22.550" width="1.025" height="1.025" fill="#61ff00" />
<rect x="14.350" y="22.550" width="1.025" height="1.025" fill="#ff00d8" />
<rect x="24.600" y="22.550" width="1.025" height="1.025" fill="#007f80" />
<rect x="25.625" y="22.550" width="1.025" height="1.025" fill="#ff00d8" />
<rect x="8.200" y="23.575" width="1.025" height="1.025" fill="#6698ef" />
<rect x="9.225" y="23.575" width="1.025" height="1.025" fill="#f00fda" />
<rect x="10.250" y="23.575" width="1.025" height="1.025" fill="#d42adf" />
<rect x="11.275" y="23.575" width="1.025" height="1.025" fill="#3fbef5" />
<rect x="12.300" y="23.575" width="1.025" height="1.025" fill="#ff00d8" />
<rect x="13.325" y="23.575" width="1.025" height="1.025" fill="#2bff00" />
<rect x="14.350" y="23.575" width="1.025" height="1.025" fill="#ff00d8" />
<rect x="23.575" y="23.575" width="1.025" height="1.025" fill="#00f3f6" />
<rect x="24.600" y="23.575" width="1.025" height="1.025" fill="#00ebee" />
<rect x="25.625" y="23.575" width="1.025" height="1.025" fill="#ff00d8" />
<rect x="8.200" y="24.600" width="1.025" height="1.025" fill="#e01fdd" />
<rect x="9.225" y="24.600" width="1.025" height="1.025" fill="#58a5f2" />
<rect x="10.250" y="24.600" width="1.025" height="1.025" fill="#00fcff" />
<rect x="11.275" y="24.600" width="1.025" height="1.025" fill="#00fcff" />
<rect x="12.300" y="24.600" width="1.025" height="1.025" fill="#ff00d8" />
<rect x="13.325" y="24.600" width="1.025" height="1.025" fill="#51ff00" />
<rect x="14.350" y="24.600" width="1.025" height="1.025" fill="#ff00d8" />
<rect x="19.475" y="24.600" width="1.025" height="1.025" fill="#000000" />
<rect x="20.500" y="24.600" width="1.025" height="1.025" fill="#00bbbd" />
<rect x="21.525" y="24.600" width="1.025" height="1.025" fill="#ff00d8" />
<rect x="22.550" y="24.600" width="1.025" height="1.025" fill="#fa05d9" />
<rect x="23.575" y="24.600" width="1.025" height="1.025" fill="#ff00d8" />
<rect x="24.600" y="24.600" width="1.025" height="1.025" fill="#00fcff" />
<rect x="25.625" y="24.600" width="1.025" height="1.025" fill="#ff00d8" />
<rect x="8.200" y="25.625" width="1.025" height="1.025" fill="#ff00d8" />
<rect x="9.225" y="25.625" width="1.025" height="1.025" fill="#7885ed" />
<rect x="10.250" y="25.625" width="1.025" height="1.025" fill="#00fcff" />
<rect x="11.275" y="25.625" width="1.025" height="1.025" fill="#00fcff" />
<rect x="12.300" y="25.625" width="1.025" height="1.025" fill="#ff00d8" />
<rect x="13.325" y="25.625" width="1.025" height="1.025" fill="#51ff00" />
<rect x="14.350" y="25.625" width="1.025" height="1.025" fill="#ff00d8" />
<rect x="19.475" y="25.625" width="1.025" height="1.025" fill="#000000" />
<rect x="20.500" y="25.625" width="1.025" height="1.025" fill="#7c82ec" />
<rect x="21.525" y="25.625" width="1.025" height="1.025" fill="#f10eda" />
<rect x="22.550" y="25.625" width="1.025" height="1.025" fill="#e619dc" />
<rect x="23.575" y="25.625" width="1.025" height="1.025" fill="#d7ff00" />
<rect x="24.600" y="25.625" width="1.025" height="1.025" fill="#4eaff3" />
<rect x="25.625" y="25.625" width="1.025" height="1.025" fill="#ff00d8" />
<rect x="8.200" y="26.650" width="1.025" height="1.025" fill="#ff00d8" />
<rect x="9.225" y="26.650" width="1.025" height="1.025" fill="#00d2d5" />
<rect x="11.275" y="26.650" width="1.025" height="1.025" fill="#007273" />
<rect x="12.300" y="26.650" width="1.025" height="1.025" fill="#6f8eee" />
<rect x="13.325" y="26.650" width="1.025" height="1.025" fill="#54ff00" />
<rect x="14.350" y="26.650" width="1.025" height="1.025" fill="#ff00d8" />
<rect x="19.475" y="26.650" width="1.025" height="1.025" fill="#000000" />
<rect x="20.500" y="26.650" width="1.025" height="1.025" fill="#d926de" />
<rect x="21.525" y="26.650" width="1.025" height="1.025" fill="#7786ed" />
<rect x="22.550" y="26.650" width="1.025" height="1.025" fill="#00fcff" />
<rect x="23.575" y="26.650" width="1.025" height="1.025" fill="#eaff00" />
<rect x="24.600" y="26.650" width="1.025" height="1.025" fill="#000101" />
<rect x="25.625" y="26.650" width="1.025" height="1.025" fill="#ff00d8" />
<rect x="8.200" y="27.675" width="1.025" height="1.025" fill="#ff00d8" />
<rect x="11.275" y="27.675" width="1.025" height="1.025" fill="#006d6e" />
<rect x="12.300" y="27.675" width="1.025" height="1.025" fill="#00fcff" />
<rect x="13.325" y="27.675" width="1.025" height="1.025" fill="#d8ff00" />
<rect x="14.350" y="27.675" width="1.025" height="1.025" fill="#ff00d8" />
<rect x="19.475" y="27.675" width="1.025" height="1.025" fill="#001213" />
<rect x="20.500" y="27.675" width="1.025" height="1.025" fill="#ff00d8" />
<rect x="21.525" y="27.675" width="1.025" height="1.025" fill="#8f6fe9" />
<rect x="22.550" y="27.675" width="1.025" height="1.025" fill="#00fcff" />
<rect x="13.325" y="28.700" width="1.025" height="1.025" fill="#eaff00" />
<rect x="14.350" y="28.700" width="1.025" height="1.025" fill="#ff00d8" />
</svg>