<svg xmlns="http://www.w3.org/2000/svg" width="37.925" height="37.925" shape-rendering="crispEdges" style="image-rendering: pixelated;">
<rect x="13.325" y="5.125" width="1.025" height="1.025" fill="#003334" />
<rect x="14.350" y="5.125" width="1.025" height="1.025" fill="#916ce9" />
<rect x="15.375" y="5.125" width="1.025" height="1.025" fill="#ff00d8" />
<rect x="16.400" y="5.125" width="1.025" height="1.025" fill="#ff00d8" />
<rect x="17.425" y="5.125" width="1.025" height="1.025" fill="#ff00d8" />
<rect x="18.450" y="5.125" width="1.025" height="1.025" fill="#00fcff" />
<rect x="19.475" y="5.125" width="1.025" height="1.025" fill="#33c9f7" />
<rect x="20.500" y="5.125" width="1.025" height="1.025" fill="#59a4f1" />
<rect x="21.525" y="5.125" width="1.025" height="1.025" fill="#00fcff" />
<rect x="22.550" y="5.125" width="1.025" height="1.025" fill="#000000" />
<rect x="12.300" y="6.150" width="1.025" height="1.025" fill="#00fcff" />
<rect x="13.325" y="6.150" width="1.025" height="1.025" fill="#b44ae4" />
<rect x="14.350" y="6.150" width="1.025" height="1.025" fill="#ff00d8" />
<rect x="15.375" y="6.150" width="1.025" height="1.025" fill="#ff00d8" />
<rect x="16.400" y="6.150" width="1.025" height="1.025" fill="#ff00d8" />
<rect x="17.425" y="6.150" width="1.025" height="1.025" fill="#ff00d8" />
<rect x="18.450" y="6.150" width="1.025" height="1.025" fill="#a658e6" />
<rect x="19.475" y="6.150" width="1.025" height="1.025" fill="#13e9fc" />
<rect x="20.500" y="6.150" width="1.025" height="1.025" fill="#00fcff" />
<rect x="21.525" y="6.150" width="1.025" height="1.025" fill="#ff00d8" />
<rect x="22.550" y="6.150" width="1.025" height="1.025" fill="#ff00d8" />
<rect x="23.575" y="6.150" width="1.025" height="1.025" fill="#00afb1" />
<rect x="11.275" y="7.175" width="1.025" height="1.025" fill="#000000" />
<rect x="12.300" y="7.175" width="1.025" height="1.025" fill="#dc23dd" />
<rect x="13.325" y="7.175" width="1.025" height="1.025" fill="#ff00d8" />
<rect x="14.350" y="7.175" width="1.025" height="1.025" fill="#ff00d8" />
<rect x="15.375" y="7.175" width="1.025" height="1.025" fill="#ff00d8" />
<rect x="16.400" y="7.175" width="1.025" height="1.025" fill="#ff00d8" />
<rect x="17.425" y="7.175" width="1.025" height="1.025" fill="#ff00d8" />
<rect x="18.450" y="7.175" width="1.025" height="1.025" fill="#ff00d8" />
<rect x="19.475" y="7.175" width="1.025" height="1.025" fill="#ff00d8" />
<rect x="20.500" y="7.175" width="1.025" height="1.025" fill="#ff00d8" />
<rect x="21.525" y="7.175" width="1.025" height="1.025" fill="#eaff00" />
<rect x="22.550" y="7.175" width="1.025" height="1.025" fill="#eaff00" />
<rect x="23.575" y="7.175" width="1.025" height="1.025" fill="#ff00d8" />
<rect x="24.600" y="7.175" width="1.025" height="1.025" fill="#00dfe1" />
<rect x="11.275" y="8.200" width="1.025" height="1.025" fill="#00fcff" />
<rect x="12.300" y="8.200" width="1.025" height="1.025" fill="#f609d9" />
<rect x="13.325" y="8.200" width="1.025" height="1.025" fill="#f3915d" />
<rect x="14.350" y="8.200" width="1.025" height="1.025" fill="#ff00d8" />
<rect x="15.375" y="8.200" width="1.025" height="1.025" fill="#ff00d8" />
<rect x="16.400" y="8.200" width="1.025" height="1.025" fill="#ff00d8" />
<rect x="17.425" y="8.200" width="1.025" height="1.025" fill="#eaff00" />
<rect x="18.450" y="8.200" width="1.025" height="1.025" fill="#eaff00" />
<rect x="19.475" y="8.200" width="1.025" height="1.025" fill="#c6ff00" />
<rect x="20.500" y="8.200" width="1.025" height="1.025" fill="#4cff00" />
<rect x="21.525" y="8.200" width="1.025" height="1.025" fill="#ff00d8" />
<rect x="22.550" y="8.200" width="1.025" height="1.025" fill="#d3ff00" />
<rect x="23.575" y="8.200" width="1.025" height="1.025" fill="#ff00d8" />
<rect x="24.600" y="8.200" width="1.025" height="1.025" fill="#04f8fe" />
<rect x="10.250" y="9.225" width="1.025" height="1.025" fill="#00fcff" />
<rect x="11.275" y="9.225" width="1.025" height="1.025" fill="#ff00d8" />
<rect x="12.300" y="9.225" width="1.025" height="1.025" fill="#ff00d8" />
<rect x="13.325" y="9.225" width="1.025" height="1.025" fill="#ff00d8" />
<rect x="14.350" y="9.225" width="1.025" height="1.025" fill="#eaff00" />
<rect x="15.375" y="9.225" width="1.025" height="1.025" fill="#eaff00" />
<rect x="16.400" y="9.225" width="1.025" height="1.025" fill="#88ff00" />
<rect x="17.425" y="9.225" width="1.025" height="1.025" fill="#40ff00" />
<rect x="18.450" y="9.225" width="1.025" height="1.025" fill="#002f00" />
<rect x="19.475" y="9.225" width="1.025" height="1.025" fill="#eaff00" />
<rect x="20.500" y="9.225" width="1.025" height="1.025" fill="#eaff00" />
<rect x="22.550" y="9.225" width="1.025" height="1.025" fill="#ff00d8" />
<rect x="23.575" y="9.225" width="1.025" height="1.025" fill="#ff00d8" />
<rect x="24.600" y="9.225" width="1.025" height="1.025" fill="#eaff00" />
<rect x="25.625" y="9.225" width="1.025" height="1.025" fill="#006567" />
<rect x="10.250" y="10.250" width="1.025" height="1.025" fill="#02faff" />
<rect x="11.275" y="10.250" width="1.025" height="1.025" fill="#ff00d8" />
<rect x="12.300" y="10.250" width="1.025" height="1.025" fill="#ff00d8" />
<rect x="13.325" y="10.250" width="1.025" height="1.025" fill="#ff00d8" />
<rect x="14.350" y="10.250" width="1.025" height="1.025" fill="#eaff00" />
<rect x="15.375" y="10.250" width="1.025" height="1.025" fill="#caff00" />
<rect x="16.400" y="10.250" width="1.025" height="1.025" fill="#007600" />
<rect x="17.425" y="10.250" width="1.025" height="1.025" fill="#002d00" />
<rect x="18.450" y="10.250" width="1.025" height="1.025" fill="#eaff00" />
<rect x="19.475" y="10.250" width="1.025" height="1.025" fill="#ff00d8" />
<rect x="23.575" y="10.250" width="1.025" height="1.025" fill="#ff00d8" />
<rect x="24.600" y="10.250" width="1.025" height="1.025" fill="#ff00d8" />
<rect x="25.625" y="10.250" width="1.025" height="1.025" fill="#000000" />
<rect x="9.225" y="11.275" width="1.025" height="1.025" fill="#00fcff" />
<rect x="10.250" y="11.275" width="1.025" height="1.025" fill="#00fcff" />
<rect x="11.275" y="11.275" width="1.025" height="1.025" fill="#ad51e5" />
<rect x="12.300" y="11.275" width="1.025" height="1.025" fill="#00fcff" />
<rect x="13.325" y="11.275" width="1.025" height="1.025" fill="#ff00d8" />
<rect x="14.350" y="11.275" width="1.025" height="1.025" fill="#eaff00" />
<rect x="15.375" y="11.275" width="1.025" height="1.025" fill="#eaff00" />
<rect x="16.400" y="11.275" width="1.025" height="1.025" fill="#e6ff00" />
<rect x="17.425" y="11.275" width="1.025" height="1.025" fill="#eaff00" />
<rect x="18.450" y="11.275" width="1.025" height="1.025" fill="#ff00d8" />
<rect x="24.600" y="11.275" width="1.025" height="1.025" fill="#ff00d8" />
<rect x="25.625" y="11.275" width="1.025" height="1.025" fill="#000606" />
<rect x="9.225" y="12.300" width="1.025" height="1.025" fill="#00fcff" />
<rect x="10.250" y="12.300" width="1.025" height="1.025" fill="#ae50e4" />
<rect x="11.275" y="12.300" width="1.025" height="1.025" fill="#ff00d8" />
<rect x="12.300" y="12.300" width="1.025" height="1.025" fill="#eaff00" />
<rect x="13.325" y="12.300" width="1.025" height="1.025" fill="#eaff00" />
<rect x="14.350" y="12.300" width="1.025" height="1.025" fill="#eaff00" />
<rect x="15.375" y="12.300" width="1.025" height="1.025" fill="#002f00" />
<rect x="16.400" y="12.300" width="1.025" height="1.025" fill="#ef10db" />
<rect x="17.425" y="12.300" width="1.025" height="1.025" fill="#00fcff" />
<rect x="25.625" y="12.300" width="1.025" height="1.025" fill="#000707" />
<rect x="9.225" y="13.325" width="1.025" height="1.025" fill="#ff00d8" />
<rect x="10.250" y="13.325" width="1.025" height="1.025" fill="#ff00d8" />
<rect x="11.275" y="13.325" width="1.025" height="1.025" fill="#eaff00" />
<rect x="12.300" y="13.325" width="1.025" height="1.025" fill="#eaff00" />
<rect x="13.325" y="13.325" width="1.025" height="1.025" fill="#ff00d8" />
<rect x="14.350" y="13.325" width="1.025" height="1.025" fill="#ff00d8" />
<rect x="15.375" y="13.325" width="1.025" height="1.025" fill="#008485" />
<rect x="16.400" y="13.325" width="1.025" height="1.025" fill="#000000" />
<rect x="9.225" y="14.350" width="1.025" height="1.025" fill="#ff00d8" />
<rect x="10.250" y="14.350" width="1.025" height="1.025" fill="#ff00d8" />
<rect x="11.275" y="14.350" width="1.025" height="1.025" fill="#ff00d8" />
<rect x="12.300" y="14.350" width="1.025" height="1.025" fill="#ff00d8" />
<rect x="13.325" y="14.350" width="1.025" height="1.025" fill="#ff00d8" />
<rect x="14.350" y="14.350" width="1.025" height="1.025" fill="#00fcff" />
<rect x="10.250" y="15.375" width="1.025" height="1.025" fill="#00fcff" />
<rect x="11.275" y="15.375" width="1.025" height="1.025" fill="#00e0e2" />
<rect x="12.300" y="15.375" width="1.025" height="1.025" fill="#00e4e6" />
<rect x="13.325" y="15.375" width="1.025" height="1.025" fill="#00fcff" />
<rect x="14.350" y="15.375" width="1.025" height="1.025" fill="#0cf0fd" />
<rect x="10.250" y="16.400" width="1.025" height="1.025" fill="#00fcff" />
<rect x="11.275" y="16.400" width="1.025" height="1.025" fill="#eaff00" />
<rect x="12.300" y="16.400" width="1.025" height="1.025" fill="#eaff00" />
<rect x="13.325" y="16.400" width="1.025" height="1.025" fill="#eaff00" />
<rect x="14.350" y="16.400" width="1.025" height="1.025" fill="#ff00d8" />
<rect x="10.250" y="17.425" width="1.025" height="1.025" fill="#00b5b7" />
<rect x="11.275" y="17.425" width="1.025" height="1.025" fill="#eaff00" />
<rect x="12.300" y="17.425" width="1.025" height="1.025" fill="#ff00d8" />
<rect x="13.325" y="17.425" width="1.025" height="1.025" fill="#00fcff" />
<rect x="10.250" y="18.450" width="1.025" height="1.025" fill="#000606" />
<rect x="11.275" y="18.450" width="1.025" height="1.025" fill="#001111" />
<rect x="12.300" y="18.450" width="1.025" height="1.025" fill="#ff00d8" />
<rect x="13.325" y="18.450" width="1.025" height="1.025" fill="#00fcff" />
<rect x="10.250" y="19.475" width="1.025" height="1.025" fill="#000808" />
<rect x="11.275" y="19.475" width="1.025" height="1.025" fill="#ff00d8" />
<rect x="12.300" y="19.475" width="1.025" height="1.025" fill="#00fcff" />
<rect x="13.325" y="19.475" width="1.025" height="1.025" fill="#00fcff" />
<rect x="10.250" y="20.500" width="1.025" height="1.025" fill="#000000" />
<rect x="11.275" y="20.500" width="1.025" height="1.025" fill="#00fcff" />
<rect x="12.300" y="20.500" width="1.025" height="1.025" fill="#00fcff" />
<rect x="13.325" y="20.500" width="1.025" height="1.025" fill="#003d3e" />
<rect x="10.250" y="21.525" width="1.025" height="1.025" fill="#000606" />
<rect x="11.275" y="21.525" width="1.025" height="1.025" fill="#ff00d8" />
<rect x="12.300" y="21.525" width="1.025" height="1.025" fill="#ff00d8" />
<rect x="13.325" y="21.525" width="1.025" height="1.025" fill="#eaff00" />
<rect x="11.275" y="22.550" width="1.025" height="1.025" fill="#000404" />
<rect x="12.300" y="22.550" width="1.025" height="1.025" fill="#00fcff" />
<rect x="13.325" y="22.550" width="1.025" height="1.025" fill="#002f00" />
<rect x="11.275" y="23.575" width="1.025" height="1.025" fill="#000101" />
<rect x="12.300" y="23.575" width="1.025" height="1.025" fill="#ff00d8" />
<rect x="13.325" y="23.575" width="1.025" height="1.025" fill="#2cd0f8" />
<rect x="14.350" y="23.575" width="1.025" height="1.025" fill="#d42adf" />
<rect x="11.275" y="24.600" width="1.025" height="1.025" fill="#005556" />
<rect x="12.300" y="24.600" width="1.025" height="1.025" fill="#002f00" />
<rect x="13.325" y="24.600" width="1.025" height="1.025" fill="#ff00d8" />
<rect x="14.350" y="24.600" width="1.025" height="1.025" fill="#f807d9" />
<rect x="15.375" y="24.600" width="1.025" height="1.025" fill="#ff00d8" />
<rect x="12.300" y="25.625" width="1.025" height="1.025" fill="#ff00d8" />
<rect x="13.325" y="25.625" width="1.025" height="1.025" fill="#ff00d8" />
<rect x="14.350" y="25.625" width="1.025" height="1.025" fill="#ff00d8" />
<rect x="15.375" y="25.625" width="1.025" height="1.025" fill="#00fcff" />
<rect x="13.325" y="26.650" width="1.025" height="1.025" fill="#ff00d8" />
<rect x="14.350" y="26.650" width="1.025" height="1.025" fill="#ff00d8" />
<rect x="15.375" y="26.650" width="1.025" height="1.025" fill="#4cb1f3" />
<rect x="13.325" y="27.675" width="1.025" height="1.025" fill="#eb14db" />
<rect x="14.350" y="27.675" width="1.025" height="1.025" fill="#ff00d8" />
<rect x="15.375" y="27.675" width="1.025" height="1.025" fill="#ff00d8" />
<rect x="16.400" y="27.675" width="1.025" height="1.025" fill="#0be600" />
<rect x="14.350" y="28.700" width="1.025" height="1.025" fill="#003737" />
<rect x="15.375" y="28.700" width="1.025" height="1.025" fill="#f609d9" />
<rect x="16.400" y="28.700" width="1.025" height="1.025" fill="#002f00" />
<rect x="15.375" y="29.725" width="1.025" height="1.025" fill="#eaff00" />
<rect x="16.400" y="29.725" width="1.025" height="1.025" fill="#00fcff" />
<rect x="15.375" y="30.750" width="1.025" height="1.025" fill="#005859" />
<rect x="16.400" y="30.750" width="1.025" height="1.025" fill="#00fcff" />
<rect x="17.425" y="30.750" width="1.025" height="1.025" fill="#23d9fa" />
<rect x="15.375" y="31.775" width="1.025" height="1.025" fill="#d42adf" />
<rect x="16.400" y="31.775" width="1.025" height="1.025" fill="#eaff00" />
<rect x="17.425" y="31.775" width="1.025" height="1.025" fill="#004b4c" />
<rect x="14.350" y="32.800" width="1.025" height="1.025" fill="#eaff00" />
<rect x="15.375" y="32.800" width="1.025" height="1.025" fill="#ff00d8" />
<rect x="16.400" y="32.800" width="1.025" height="1.025" fill="#ff00d8" />
<rect x="14.350" y="33.825" width="1.025" height="1.025" fill="#ff00d8" />
<rect x="15.375" y="33.825" width="1.025" height="1.025" fill="#eaff00" />
<rect x="16.400" y="33.825" width="1.025" height="1.025" fill="#eaff00" />
<rect x="14.350" y="34.850" width="1.025" height="1.025" fill="#f0b340" />
<rect x="15.375" y="34.850" width="1.025" height="1.025" fill="#eaff00" />
<rect x="16.400" y="34.850" width="1.025" height="1.025" fill="#d3ff00" />
<rect x="13.325" y="35.875" width="1.025" height="1.025" fill="#00fcff" />
<rect x="14.350" y="35.875" width="1.025" height="1.025" fill="#ff00d8" />
<rect x="15.375" y="35.875" width="1.025" height="1.025" fill="#eaff00" />
<rect x="14.350" y="36.900" width="1.025" height="1.025" fill="#eaff00" />
</svg>