<svg xmlns="http://www.w3.org/2000/svg" width="37.925" height="37.925" shape-rendering="crispEdges" style="image-rendering: pixelated;">
<rect x="12.300" y="27.675" width="1.025" height="1.025" fill="#ff00d8" />
<rect x="19.475" y="27.675" width="1.025" height="1.025" fill="#ff00d8" />
<rect x="12.300" y="28.700" width="1.025" height="1.025" fill="#ff00d8" />
<rect x="20.500" y="28.700" width="1.025" height="1.025" fill="#ff00d8" />
<rect x="13.325" y="29.725" width="1.025" height="1.025" fill="#ff00d8" />
<rect x="21.525" y="29.725" width="1.025" height="1.025" fill="#ff00d8" />
<rect x="14.350" y="30.750" width="1.025" height="1.025" fill="#ff00d8" />
<rect x="21.525" y="30.750" width="1.025" height="1.025" fill="#ff00d8" />
<rect x="15.375" y="31.775" width="1.025" height="1.025" fill="#ff00d8" />
<rect x="22.550" y="31.775" width="1.025" height="1.025" fill="#ff00d8" />
<rect x="16.400" y="32.800" width="1.025" height="1.025" fill="#ff00d8" />
<rect x="22.550" y="32.800" width="1.025" height="1.025" fill="#ff00d8" />
<rect x="17.425" y="33.825" width="1.025" height="1.025" fill="#ff00d8" />
<rect x="23.575" y="33.825" width="1.025" height="1.025" fill="#ff00d8" />
<rect x="18.450" y="34.850" width="1.025" height="1.025" fill="#ff00d8" />
<rect x="24.600" y="34.850" width="1.025" height="1.025" fill="#eaff00" />
<rect x="18.450" y="35.875" width="1.025" height="1.025" fill="#ff00d8" />
<rect x="19.475" y="35.875" width="1.025" height="1.025" fill="#eaff00" />
<rect x="24.600" y="35.875" width="1.025" height="1.025" fill="#eed326" />
<rect x="25.625" y="35.875" width="1.025" height="1.025" fill="#ff00d8" />
<rect x="17.425" y="36.900" width="1.025" height="1.025" fill="#ff00d8" />
<rect x="18.450" y="36.900" width="1.025" height="1.025" fill="#ff00d8" />
<rect x="19.475" y="36.900" width="1.025" height="1.025" fill="#eaff00" />
<rect x="20.500" y="36.900" width="1.025" height="1.025" fill="#eaff00" />
<rect x="23.575" y="36.900" width="1.025" height="1.025" fill="#ff00d8" />
<rect x="24.600" y="36.900" width="1.025" height="1.025" fill="#ff00d8" />
<rect x="25.625" y="36.900" width="1.025" height="1.025" fill="#ff00d8" />
<rect x="26.650" y="36.900" width="1.025" height="1.025" fill="#ff00d8" />
</svg>