<svg xmlns="http://www.w3.org/2000/svg" width="37.925" height="37.925" shape-rendering="crispEdges" style="image-rendering: pixelated;">
<rect x="20.500" y="2.050" width="1.025" height="1.025" fill="#52abf2" />
<rect x="21.525" y="2.050" width="1.025" height="1.025" fill="#718cee" />
<rect x="18.450" y="3.075" width="1.025" height="1.025" fill="#06f6fe" />
<rect x="19.475" y="3.075" width="1.025" height="1.025" fill="#6d91ee" />
<rect x="20.500" y="3.075" width="1.025" height="1.025" fill="#0bf1fd" />
<rect x="21.525" y="3.075" width="1.025" height="1.025" fill="#53aaf2" />
<rect x="22.550" y="3.075" width="1.025" height="1.025" fill="#639af0" />
<rect x="16.400" y="4.100" width="1.025" height="1.025" fill="#1ae2fb" />
<rect x="17.425" y="4.100" width="1.025" height="1.025" fill="#ca34e0" />
<rect x="18.450" y="4.100" width="1.025" height="1.025" fill="#738bed" />
<rect x="19.475" y="4.100" width="1.025" height="1.025" fill="#0deffd" />
<rect x="20.500" y="4.100" width="1.025" height="1.025" fill="#57a6f2" />
<rect x="21.525" y="4.100" width="1.025" height="1.025" fill="#13eafc" />
<rect x="22.550" y="4.100" width="1.025" height="1.025" fill="#06f6fe" />
<rect x="15.375" y="5.125" width="1.025" height="1.025" fill="#54a9f2" />
<rect x="16.400" y="5.125" width="1.025" height="1.025" fill="#6698ef" />
<rect x="17.425" y="5.125" width="1.025" height="1.025" fill="#7589ed" />
<rect x="18.450" y="5.125" width="1.025" height="1.025" fill="#05f7fe" />
<rect x="19.475" y="5.125" width="1.025" height="1.025" fill="#6d91ee" />
<rect x="20.500" y="5.125" width="1.025" height="1.025" fill="#18e4fb" />
<rect x="21.525" y="5.125" width="1.025" height="1.025" fill="#5ea0f1" />
<rect x="22.550" y="5.125" width="1.025" height="1.025" fill="#b846e3" />
<rect x="14.350" y="6.150" width="1.025" height="1.025" fill="#619cf0" />
<rect x="15.375" y="6.150" width="1.025" height="1.025" fill="#6698ef" />
<rect x="16.400" y="6.150" width="1.025" height="1.025" fill="#54a9f2" />
<rect x="17.425" y="6.150" width="1.025" height="1.025" fill="#13e9fc" />
<rect x="18.450" y="6.150" width="1.025" height="1.025" fill="#6895ef" />
<rect x="19.475" y="6.150" width="1.025" height="1.025" fill="#6d91ee" />
<rect x="20.500" y="6.150" width="1.025" height="1.025" fill="#7687ed" />
<rect x="21.525" y="6.150" width="1.025" height="1.025" fill="#c539e1" />
<rect x="22.550" y="6.150" width="1.025" height="1.025" fill="#15e7fc" />
<rect x="13.325" y="7.175" width="1.025" height="1.025" fill="#6e8fee" />
<rect x="14.350" y="7.175" width="1.025" height="1.025" fill="#5ea0f1" />
<rect x="18.450" y="7.175" width="1.025" height="1.025" fill="#738bed" />
<rect x="19.475" y="7.175" width="1.025" height="1.025" fill="#00fcff" />
<rect x="20.500" y="7.175" width="1.025" height="1.025" fill="#00fcff" />
<rect x="21.525" y="7.175" width="1.025" height="1.025" fill="#18e4fb" />
<rect x="22.550" y="7.175" width="1.025" height="1.025" fill="#bd42e2" />
<rect x="13.325" y="8.200" width="1.025" height="1.025" fill="#5aa3f1" />
<rect x="19.475" y="8.200" width="1.025" height="1.025" fill="#00fcff" />
<rect x="20.500" y="8.200" width="1.025" height="1.025" fill="#b846e3" />
<rect x="21.525" y="8.200" width="1.025" height="1.025" fill="#ad51e5" />
<rect x="22.550" y="8.200" width="1.025" height="1.025" fill="#1ae3fb" />
<rect x="20.500" y="9.225" width="1.025" height="1.025" fill="#0deffd" />
<rect x="21.525" y="9.225" width="1.025" height="1.025" fill="#07f5fe" />
</svg>