<svg xmlns="http://www.w3.org/2000/svg" width="37.925" height="37.925" shape-rendering="crispEdges" style="image-rendering: pixelated;">
<rect x="13.325" y="3.075" width="1.025" height="1.025" fill="#eaff00" />
<rect x="16.400" y="3.075" width="1.025" height="1.025" fill="#e5ff00" />
<rect x="17.425" y="3.075" width="1.025" height="1.025" fill="#ff00d8" />
<rect x="18.450" y="3.075" width="1.025" height="1.025" fill="#84ff03" />
<rect x="19.475" y="3.075" width="1.025" height="1.025" fill="#eaff00" />
<rect x="20.500" y="3.075" width="1.025" height="1.025" fill="#4eff07" />
<rect x="21.525" y="3.075" width="1.025" height="1.025" fill="#eaff00" />
<rect x="22.550" y="3.075" width="1.025" height="1.025" fill="#cfff00" />
<rect x="24.600" y="3.075" width="1.025" height="1.025" fill="#cdff00" />
<rect x="14.350" y="4.100" width="1.025" height="1.025" fill="#eaff00" />
<rect x="15.375" y="4.100" width="1.025" height="1.025" fill="#eaff00" />
<rect x="16.400" y="4.100" width="1.025" height="1.025" fill="#eaff00" />
<rect x="17.425" y="4.100" width="1.025" height="1.025" fill="#013500" />
<rect x="18.450" y="4.100" width="1.025" height="1.025" fill="#e8ff00" />
<rect x="19.475" y="4.100" width="1.025" height="1.025" fill="#013d00" />
<rect x="20.500" y="4.100" width="1.025" height="1.025" fill="#e5ff00" />
<rect x="21.525" y="4.100" width="1.025" height="1.025" fill="#76ff04" />
<rect x="22.550" y="4.100" width="1.025" height="1.025" fill="#eaff00" />
<rect x="23.575" y="4.100" width="1.025" height="1.025" fill="#97ff01" />
<rect x="13.325" y="5.125" width="1.025" height="1.025" fill="#ff00d8" />
<rect x="14.350" y="5.125" width="1.025" height="1.025" fill="#eaff00" />
<rect x="15.375" y="5.125" width="1.025" height="1.025" fill="#e2ff00" />
<rect x="16.400" y="5.125" width="1.025" height="1.025" fill="#e3ff00" />
<rect x="17.425" y="5.125" width="1.025" height="1.025" fill="#eaff00" />
<rect x="18.450" y="5.125" width="1.025" height="1.025" fill="#024000" />
<rect x="19.475" y="5.125" width="1.025" height="1.025" fill="#d7ff00" />
<rect x="20.500" y="5.125" width="1.025" height="1.025" fill="#012800" />
<rect x="21.525" y="5.125" width="1.025" height="1.025" fill="#eaff00" />
<rect x="22.550" y="5.125" width="1.025" height="1.025" fill="#a7ff00" />
<rect x="23.575" y="5.125" width="1.025" height="1.025" fill="#eaff00" />
<rect x="24.600" y="5.125" width="1.025" height="1.025" fill="#eaff00" />
<rect x="26.650" y="5.125" width="1.025" height="1.025" fill="#eaff00" />
<rect x="27.675" y="5.125" width="1.025" height="1.025" fill="#ff00d8" />
<rect x="12.300" y="6.150" width="1.025" height="1.025" fill="#ff00d8" />
<rect x="13.325" y="6.150" width="1.025" height="1.025" fill="#eaff00" />
<rect x="14.350" y="6.150" width="1.025" height="1.025" fill="#ff00d8" />
<rect x="15.375" y="6.150" width="1.025" height="1.025" fill="#44ff07" />
<rect x="16.400" y="6.150" width="1.025" height="1.025" fill="#024c00" />
<rect x="17.425" y="6.150" width="1.025" height="1.025" fill="#e8ff00" />
<rect x="18.450" y="6.150" width="1.025" height="1.025" fill="#a8ff00" />
<rect x="19.475" y="6.150" width="1.025" height="1.025" fill="#eaff00" />
<rect x="20.500" y="6.150" width="1.025" height="1.025" fill="#012a00" />
<rect x="21.525" y="6.150" width="1.025" height="1.025" fill="#9eff00" />
<rect x="22.550" y="6.150" width="1.025" height="1.025" fill="#eaff00" />
<rect x="23.575" y="6.150" width="1.025" height="1.025" fill="#67ff05" />
<rect x="24.600" y="6.150" width="1.025" height="1.025" fill="#c5ff00" />
<rect x="25.625" y="6.150" width="1.025" height="1.025" fill="#eaff00" />
<rect x="26.650" y="6.150" width="1.025" height="1.025" fill="#ff00d8" />
<rect x="12.300" y="7.175" width="1.025" height="1.025" fill="#ff00d8" />
<rect x="13.325" y="7.175" width="1.025" height="1.025" fill="#eaff00" />
<rect x="14.350" y="7.175" width="1.025" height="1.025" fill="#ff00d8" />
<rect x="15.375" y="7.175" width="1.025" height="1.025" fill="#eaff00" />
<rect x="16.400" y="7.175" width="1.025" height="1.025" fill="#047600" />
<rect x="17.425" y="7.175" width="1.025" height="1.025" fill="#eaff00" />
<rect x="18.450" y="7.175" width="1.025" height="1.025" fill="#046400" />
<rect x="19.475" y="7.175" width="1.025" height="1.025" fill="#eaff00" />
<rect x="20.500" y="7.175" width="1.025" height="1.025" fill="#eaff00" />
<rect x="21.525" y="7.175" width="1.025" height="1.025" fill="#035600" />
<rect x="22.550" y="7.175" width="1.025" height="1.025" fill="#86ff03" />
<rect x="23.575" y="7.175" width="1.025" height="1.025" fill="#b1ff00" />
<rect x="24.600" y="7.175" width="1.025" height="1.025" fill="#eaff00" />
<rect x="25.625" y="7.175" width="1.025" height="1.025" fill="#bdff00" />
<rect x="26.650" y="7.175" width="1.025" height="1.025" fill="#ff00d8" />
<rect x="11.275" y="8.200" width="1.025" height="1.025" fill="#eaff00" />
<rect x="12.300" y="8.200" width="1.025" height="1.025" fill="#eaff00" />
<rect x="13.325" y="8.200" width="1.025" height="1.025" fill="#eaff00" />
<rect x="14.350" y="8.200" width="1.025" height="1.025" fill="#ff00d8" />
<rect x="15.375" y="8.200" width="1.025" height="1.025" fill="#ff00d8" />
<rect x="16.400" y="8.200" width="1.025" height="1.025" fill="#ff00d8" />
<rect x="17.425" y="8.200" width="1.025" height="1.025" fill="#43ff00" />
<rect x="18.450" y="8.200" width="1.025" height="1.025" fill="#eaff00" />
<rect x="19.475" y="8.200" width="1.025" height="1.025" fill="#e5ff00" />
<rect x="20.500" y="8.200" width="1.025" height="1.025" fill="#eaff00" />
<rect x="21.525" y="8.200" width="1.025" height="1.025" fill="#eaff00" />
<rect x="22.550" y="8.200" width="1.025" height="1.025" fill="#eaff00" />
<rect x="23.575" y="8.200" width="1.025" height="1.025" fill="#eaff00" />
<rect x="24.600" y="8.200" width="1.025" height="1.025" fill="#eaff00" />
<rect x="25.625" y="8.200" width="1.025" height="1.025" fill="#ff00d8" />
<rect x="11.275" y="9.225" width="1.025" height="1.025" fill="#eaff00" />
<rect x="12.300" y="9.225" width="1.025" height="1.025" fill="#eaff00" />
<rect x="13.325" y="9.225" width="1.025" height="1.025" fill="#ff00d8" />
<rect x="14.350" y="9.225" width="1.025" height="1.025" fill="#ff00d8" />
<rect x="19.475" y="9.225" width="1.025" height="1.025" fill="#eaff00" />
<rect x="20.500" y="9.225" width="1.025" height="1.025" fill="#eaff00" />
<rect x="21.525" y="9.225" width="1.025" height="1.025" fill="#eaff00" />
<rect x="24.600" y="9.225" width="1.025" height="1.025" fill="#ff00d8" />
<rect x="25.625" y="9.225" width="1.025" height="1.025" fill="#eaff00" />
<rect x="26.650" y="9.225" width="1.025" height="1.025" fill="#ff00d8" />
<rect x="10.250" y="10.250" width="1.025" height="1.025" fill="#eaff00" />
<rect x="11.275" y="10.250" width="1.025" height="1.025" fill="#b1ff00" />
<rect x="12.300" y="10.250" width="1.025" height="1.025" fill="#ff00d8" />
<rect x="13.325" y="10.250" width="1.025" height="1.025" fill="#ff00d8" />
<rect x="24.600" y="10.250" width="1.025" height="1.025" fill="#eaff00" />
<rect x="11.275" y="11.275" width="1.025" height="1.025" fill="#d1ff00" />
<rect x="12.300" y="11.275" width="1.025" height="1.025" fill="#eaff00" />
<rect x="13.325" y="11.275" width="1.025" height="1.025" fill="#ff00d8" />
<rect x="10.250" y="12.300" width="1.025" height="1.025" fill="#eaff00" />
<rect x="11.275" y="12.300" width="1.025" height="1.025" fill="#ff00d8" />
<rect x="12.300" y="12.300" width="1.025" height="1.025" fill="#eaff00" />
<rect x="13.325" y="12.300" width="1.025" height="1.025" fill="#046800" />
<rect x="10.250" y="13.325" width="1.025" height="1.025" fill="#eaff00" />
<rect x="11.275" y="13.325" width="1.025" height="1.025" fill="#eaff00" />
<rect x="12.300" y="13.325" width="1.025" height="1.025" fill="#ff00d8" />
<rect x="13.325" y="13.325" width="1.025" height="1.025" fill="#ff00d8" />
<rect x="10.250" y="14.350" width="1.025" height="1.025" fill="#44ff07" />
<rect x="12.300" y="14.350" width="1.025" height="1.025" fill="#eaff00" />
<rect x="13.325" y="14.350" width="1.025" height="1.025" fill="#ff00d8" />
<rect x="9.225" y="15.375" width="1.025" height="1.025" fill="#bdff00" />
<rect x="10.250" y="15.375" width="1.025" height="1.025" fill="#eaff00" />
<rect x="13.325" y="15.375" width="1.025" height="1.025" fill="#eaff00" />
<rect x="8.200" y="16.400" width="1.025" height="1.025" fill="#eaff00" />
<rect x="9.225" y="16.400" width="1.025" height="1.025" fill="#6dff05" />
<rect x="10.250" y="16.400" width="1.025" height="1.025" fill="#eaff00" />
<rect x="13.325" y="16.400" width="1.025" height="1.025" fill="#ff00d8" />
<rect x="9.225" y="17.425" width="1.025" height="1.025" fill="#afff00" />
<rect x="10.250" y="17.425" width="1.025" height="1.025" fill="#a6ff00" />
<rect x="11.275" y="17.425" width="1.025" height="1.025" fill="#eaff00" />
<rect x="9.225" y="18.450" width="1.025" height="1.025" fill="#a2ff00" />
<rect x="10.250" y="18.450" width="1.025" height="1.025" fill="#eaff00" />
<rect x="11.275" y="18.450" width="1.025" height="1.025" fill="#a6ff00" />
<rect x="12.300" y="18.450" width="1.025" height="1.025" fill="#eaff00" />
<rect x="8.200" y="19.475" width="1.025" height="1.025" fill="#abff00" />
<rect x="10.250" y="19.475" width="1.025" height="1.025" fill="#eaff00" />
<rect x="11.275" y="19.475" width="1.025" height="1.025" fill="#ccff00" />
<rect x="12.300" y="19.475" width="1.025" height="1.025" fill="#eaff00" />
<rect x="9.225" y="20.500" width="1.025" height="1.025" fill="#eaff00" />
<rect x="10.250" y="20.500" width="1.025" height="1.025" fill="#bbff00" />
<rect x="11.275" y="20.500" width="1.025" height="1.025" fill="#abff00" />
<rect x="12.300" y="20.500" width="1.025" height="1.025" fill="#eaff00" />
<rect x="8.200" y="21.525" width="1.025" height="1.025" fill="#eaff00" />
<rect x="10.250" y="21.525" width="1.025" height="1.025" fill="#eaff00" />
<rect x="11.275" y="21.525" width="1.025" height="1.025" fill="#82ff03" />
<rect x="12.300" y="21.525" width="1.025" height="1.025" fill="#eaff00" />
<rect x="9.225" y="22.550" width="1.025" height="1.025" fill="#eaff00" />
<rect x="10.250" y="22.550" width="1.025" height="1.025" fill="#d4ff00" />
<rect x="11.275" y="22.550" width="1.025" height="1.025" fill="#eaff00" />
<rect x="12.300" y="22.550" width="1.025" height="1.025" fill="#eaff00" />
<rect x="9.225" y="23.575" width="1.025" height="1.025" fill="#71ff05" />
<rect x="10.250" y="23.575" width="1.025" height="1.025" fill="#eaff00" />
<rect x="11.275" y="23.575" width="1.025" height="1.025" fill="#eaff00" />
<rect x="12.300" y="23.575" width="1.025" height="1.025" fill="#eaff00" />
<rect x="8.200" y="24.600" width="1.025" height="1.025" fill="#ff00d8" />
<rect x="11.275" y="24.600" width="1.025" height="1.025" fill="#cbff00" />
<rect x="12.300" y="24.600" width="1.025" height="1.025" fill="#ff00d8" />
<rect x="10.250" y="25.625" width="1.025" height="1.025" fill="#ff00d8" />
<rect x="12.300" y="25.625" width="1.025" height="1.025" fill="#eaff00" />
</svg>