<svg xmlns="http://www.w3.org/2000/svg" width="37.925" height="37.925" shape-rendering="crispEdges" style="image-rendering: pixelated;">
<rect x="17.425" y="3.075" width="1.025" height="1.025" fill="#eaff00" />
<rect x="18.450" y="3.075" width="1.025" height="1.025" fill="#eaff00" />
<rect x="19.475" y="3.075" width="1.025" height="1.025" fill="#e1ff00" />
<rect x="20.500" y="3.075" width="1.025" height="1.025" fill="#dfff00" />
<rect x="21.525" y="3.075" width="1.025" height="1.025" fill="#e3ff00" />
<rect x="22.550" y="3.075" width="1.025" height="1.025" fill="#eaff00" />
<rect x="16.400" y="4.100" width="1.025" height="1.025" fill="#eaff00" />
<rect x="17.425" y="4.100" width="1.025" height="1.025" fill="#eaff00" />
<rect x="18.450" y="4.100" width="1.025" height="1.025" fill="#d0ff00" />
<rect x="19.475" y="4.100" width="1.025" height="1.025" fill="#c8ff00" />
<rect x="20.500" y="4.100" width="1.025" height="1.025" fill="#45ff00" />
<rect x="21.525" y="4.100" width="1.025" height="1.025" fill="#1dff00" />
<rect x="22.550" y="4.100" width="1.025" height="1.025" fill="#eaff00" />
<rect x="23.575" y="4.100" width="1.025" height="1.025" fill="#eaff00" />
<rect x="24.600" y="4.100" width="1.025" height="1.025" fill="#d3ff00" />
<rect x="16.400" y="5.125" width="1.025" height="1.025" fill="#eaff00" />
<rect x="17.425" y="5.125" width="1.025" height="1.025" fill="#94ff00" />
<rect x="18.450" y="5.125" width="1.025" height="1.025" fill="#1aff00" />
<rect x="19.475" y="5.125" width="1.025" height="1.025" fill="#006b00" />
<rect x="20.500" y="5.125" width="1.025" height="1.025" fill="#005b00" />
<rect x="21.525" y="5.125" width="1.025" height="1.025" fill="#006400" />
<rect x="22.550" y="5.125" width="1.025" height="1.025" fill="#13f800" />
<rect x="23.575" y="5.125" width="1.025" height="1.025" fill="#4cff00" />
<rect x="24.600" y="5.125" width="1.025" height="1.025" fill="#6fff00" />
<rect x="25.625" y="5.125" width="1.025" height="1.025" fill="#42ff00" />
<rect x="13.325" y="6.150" width="1.025" height="1.025" fill="#ff00d8" />
<rect x="14.350" y="6.150" width="1.025" height="1.025" fill="#eaff00" />
<rect x="15.375" y="6.150" width="1.025" height="1.025" fill="#3eff00" />
<rect x="16.400" y="6.150" width="1.025" height="1.025" fill="#1dff00" />
<rect x="17.425" y="6.150" width="1.025" height="1.025" fill="#00a100" />
<rect x="18.450" y="6.150" width="1.025" height="1.025" fill="#59ff00" />
<rect x="19.475" y="6.150" width="1.025" height="1.025" fill="#3fff00" />
<rect x="20.500" y="6.150" width="1.025" height="1.025" fill="#005c00" />
<rect x="21.525" y="6.150" width="1.025" height="1.025" fill="#004c00" />
<rect x="22.550" y="6.150" width="1.025" height="1.025" fill="#005000" />
<rect x="23.575" y="6.150" width="1.025" height="1.025" fill="#007700" />
<rect x="24.600" y="6.150" width="1.025" height="1.025" fill="#37ff00" />
<rect x="25.625" y="6.150" width="1.025" height="1.025" fill="#1dff00" />
<rect x="12.300" y="7.175" width="1.025" height="1.025" fill="#eaff00" />
<rect x="13.325" y="7.175" width="1.025" height="1.025" fill="#eaff00" />
<rect x="14.350" y="7.175" width="1.025" height="1.025" fill="#1dff00" />
<rect x="15.375" y="7.175" width="1.025" height="1.025" fill="#006500" />
<rect x="16.400" y="7.175" width="1.025" height="1.025" fill="#5aff00" />
<rect x="17.425" y="7.175" width="1.025" height="1.025" fill="#95ff00" />
<rect x="18.450" y="7.175" width="1.025" height="1.025" fill="#6dff00" />
<rect x="19.475" y="7.175" width="1.025" height="1.025" fill="#08db00" />
<rect x="20.500" y="7.175" width="1.025" height="1.025" fill="#01ae00" />
<rect x="21.525" y="7.175" width="1.025" height="1.025" fill="#005700" />
<rect x="22.550" y="7.175" width="1.025" height="1.025" fill="#26ff00" />
<rect x="23.575" y="7.175" width="1.025" height="1.025" fill="#005900" />
<rect x="24.600" y="7.175" width="1.025" height="1.025" fill="#01aa00" />
<rect x="25.625" y="7.175" width="1.025" height="1.025" fill="#007800" />
<rect x="12.300" y="8.200" width="1.025" height="1.025" fill="#e4ff00" />
<rect x="13.325" y="8.200" width="1.025" height="1.025" fill="#eaff00" />
<rect x="14.350" y="8.200" width="1.025" height="1.025" fill="#78ff00" />
<rect x="15.375" y="8.200" width="1.025" height="1.025" fill="#11f500" />
<rect x="16.400" y="8.200" width="1.025" height="1.025" fill="#b1ff00" />
<rect x="17.425" y="8.200" width="1.025" height="1.025" fill="#20ff00" />
<rect x="18.450" y="8.200" width="1.025" height="1.025" fill="#007d00" />
<rect x="19.475" y="8.200" width="1.025" height="1.025" fill="#006500" />
<rect x="20.500" y="8.200" width="1.025" height="1.025" fill="#007600" />
<rect x="21.525" y="8.200" width="1.025" height="1.025" fill="#008400" />
<rect x="22.550" y="8.200" width="1.025" height="1.025" fill="#006700" />
<rect x="23.575" y="8.200" width="1.025" height="1.025" fill="#06d400" />
<rect x="24.600" y="8.200" width="1.025" height="1.025" fill="#005f00" />
<rect x="25.625" y="8.200" width="1.025" height="1.025" fill="#007900" />
<rect x="12.300" y="9.225" width="1.025" height="1.025" fill="#eaff00" />
<rect x="13.325" y="9.225" width="1.025" height="1.025" fill="#eaff00" />
<rect x="14.350" y="9.225" width="1.025" height="1.025" fill="#007e00" />
<rect x="15.375" y="9.225" width="1.025" height="1.025" fill="#0ff200" />
<rect x="18.450" y="9.225" width="1.025" height="1.025" fill="#bbff00" />
<rect x="19.475" y="9.225" width="1.025" height="1.025" fill="#0ff200" />
<rect x="20.500" y="9.225" width="1.025" height="1.025" fill="#006c00" />
<rect x="21.525" y="9.225" width="1.025" height="1.025" fill="#007800" />
<rect x="22.550" y="9.225" width="1.025" height="1.025" fill="#19ff00" />
<rect x="23.575" y="9.225" width="1.025" height="1.025" fill="#13f900" />
<rect x="24.600" y="9.225" width="1.025" height="1.025" fill="#007700" />
<rect x="25.625" y="9.225" width="1.025" height="1.025" fill="#007200" />
<rect x="26.650" y="9.225" width="1.025" height="1.025" fill="#007b00" />
<rect x="12.300" y="10.250" width="1.025" height="1.025" fill="#ff00d8" />
<rect x="13.325" y="10.250" width="1.025" height="1.025" fill="#eaff00" />
<rect x="14.350" y="10.250" width="1.025" height="1.025" fill="#21ff00" />
<rect x="19.475" y="10.250" width="1.025" height="1.025" fill="#dcff00" />
<rect x="20.500" y="10.250" width="1.025" height="1.025" fill="#49ff00" />
<rect x="21.525" y="10.250" width="1.025" height="1.025" fill="#007600" />
<rect x="22.550" y="10.250" width="1.025" height="1.025" fill="#2cff00" />
<rect x="23.575" y="10.250" width="1.025" height="1.025" fill="#9dff00" />
<rect x="24.600" y="10.250" width="1.025" height="1.025" fill="#007700" />
<rect x="25.625" y="10.250" width="1.025" height="1.025" fill="#3fff00" />
<rect x="26.650" y="10.250" width="1.025" height="1.025" fill="#47ff00" />
<rect x="12.300" y="11.275" width="1.025" height="1.025" fill="#ff00d8" />
<rect x="13.325" y="11.275" width="1.025" height="1.025" fill="#eaff00" />
<rect x="20.500" y="11.275" width="1.025" height="1.025" fill="#d8ff00" />
<rect x="21.525" y="11.275" width="1.025" height="1.025" fill="#6eff00" />
<rect x="22.550" y="11.275" width="1.025" height="1.025" fill="#11f400" />
<rect x="23.575" y="11.275" width="1.025" height="1.025" fill="#daff00" />
<rect x="24.600" y="11.275" width="1.025" height="1.025" fill="#65ff00" />
<rect x="25.625" y="11.275" width="1.025" height="1.025" fill="#007c00" />
<rect x="12.300" y="12.300" width="1.025" height="1.025" fill="#ff00d8" />
<rect x="13.325" y="12.300" width="1.025" height="1.025" fill="#eaff00" />
<rect x="22.550" y="12.300" width="1.025" height="1.025" fill="#00a500" />
<rect x="23.575" y="12.300" width="1.025" height="1.025" fill="#0ae500" />
<rect x="24.600" y="12.300" width="1.025" height="1.025" fill="#83ff00" />
<rect x="25.625" y="12.300" width="1.025" height="1.025" fill="#007c00" />
</svg>