<svg xmlns="http://www.w3.org/2000/svg" width="37.925" height="37.925" shape-rendering="crispEdges" style="image-rendering: pixelated;">
<rect x="18.450" y="19.475" width="1.025" height="1.025" fill="#000000" />
<rect x="19.475" y="20.500" width="1.025" height="1.025" fill="#000000" />
<rect x="20.500" y="20.500" width="1.025" height="1.025" fill="#000000" />
<rect x="21.525" y="20.500" width="1.025" height="1.025" fill="#000000" />
<rect x="22.550" y="20.500" width="1.025" height="1.025" fill="#000000" />
<rect x="19.475" y="21.525" width="1.025" height="1.025" fill="#ff00d8" fill-opacity="0.792" />
<rect x="20.500" y="21.525" width="1.025" height="1.025" fill="#32ff00" fill-opacity="0.953" />
<rect x="21.525" y="21.525" width="1.025" height="1.025" fill="#eaff00" />
<rect x="22.550" y="21.525" width="1.025" height="1.025" fill="#00fcff" fill-opacity="0.847" />
<rect x="19.475" y="22.550" width="1.025" height="1.025" fill="#ff00d8" fill-opacity="0.890" />
<rect x="20.500" y="22.550" width="1.025" height="1.025" fill="#005900" />
<rect x="21.525" y="22.550" width="1.025" height="1.025" fill="#b5ff00" />
<rect x="22.550" y="22.550" width="1.025" height="1.025" fill="#19e3fb" fill-opacity="0.878" />
<rect x="19.475" y="23.575" width="1.025" height="1.025" fill="#ff00d8" fill-opacity="0.929" />
<rect x="20.500" y="23.575" width="1.025" height="1.025" fill="#004100" />
<rect x="21.525" y="23.575" width="1.025" height="1.025" fill="#a0ff00" />
<rect x="22.550" y="23.575" width="1.025" height="1.025" fill="#00fcff" fill-opacity="0.922" />
<rect x="19.475" y="24.600" width="1.025" height="1.025" fill="#ff00d8" fill-opacity="0.969" />
<rect x="20.500" y="24.600" width="1.025" height="1.025" fill="#002d00" />
<rect x="21.525" y="24.600" width="1.025" height="1.025" fill="#86ff00" />
<rect x="22.550" y="24.600" width="1.025" height="1.025" fill="#00fcff" fill-opacity="0.965" />
<rect x="19.475" y="25.625" width="1.025" height="1.025" fill="#ff00d8" fill-opacity="0.984" />
<rect x="20.500" y="25.625" width="1.025" height="1.025" fill="#002300" fill-opacity="0.996" />
<rect x="21.525" y="25.625" width="1.025" height="1.025" fill="#79ff00" />
<rect x="22.550" y="25.625" width="1.025" height="1.025" fill="#00fcff" fill-opacity="0.992" />
<rect x="20.500" y="26.650" width="1.025" height="1.025" fill="#ff00d8" />
<rect x="21.525" y="26.650" width="1.025" height="1.025" fill="#001f00" />
<rect x="22.550" y="26.650" width="1.025" height="1.025" fill="#7bff00" />
<rect x="23.575" y="26.650" width="1.025" height="1.025" fill="#00fcff" fill-opacity="0.996" />
<rect x="20.500" y="27.675" width="1.025" height="1.025" fill="#ff00d8" />
<rect x="21.525" y="27.675" width="1.025" height="1.025" fill="#001e00" />
<rect x="22.550" y="27.675" width="1.025" height="1.025" fill="#74ff00" />
<rect x="23.575" y="27.675" width="1.025" height="1.025" fill="#00fcff" />
<rect x="20.500" y="28.700" width="1.025" height="1.025" fill="#ff00d8" />
<rect x="21.525" y="28.700" width="1.025" height="1.025" fill="#001e00" />
<rect x="22.550" y="28.700" width="1.025" height="1.025" fill="#75ff00" />
<rect x="23.575" y="28.700" width="1.025" height="1.025" fill="#00fcff" />
<rect x="20.500" y="29.725" width="1.025" height="1.025" fill="#ff00d8" />
<rect x="21.525" y="29.725" width="1.025" height="1.025" fill="#001f00" />
<rect x="22.550" y="29.725" width="1.025" height="1.025" fill="#7bff00" />
<rect x="23.575" y="29.725" width="1.025" height="1.025" fill="#00fcff" />
<rect x="20.500" y="30.750" width="1.025" height="1.025" fill="#ff00d8" />
<rect x="21.525" y="30.750" width="1.025" height="1.025" fill="#001e00" />
<rect x="22.550" y="30.750" width="1.025" height="1.025" fill="#7aff00" />
<rect x="23.575" y="30.750" width="1.025" height="1.025" fill="#00fcff" />
<rect x="18.450" y="31.775" width="1.025" height="1.025" fill="#000000" />
<rect x="20.500" y="31.775" width="1.025" height="1.025" fill="#ff00d8" />
<rect x="21.525" y="31.775" width="1.025" height="1.025" fill="#002000" />
<rect x="22.550" y="31.775" width="1.025" height="1.025" fill="#76ff00" />
<rect x="23.575" y="31.775" width="1.025" height="1.025" fill="#00fcff" fill-opacity="0.996" />
<rect x="20.500" y="32.800" width="1.025" height="1.025" fill="#ff00d8" />
<rect x="21.525" y="32.800" width="1.025" height="1.025" fill="#001f00" />
<rect x="22.550" y="32.800" width="1.025" height="1.025" fill="#80ff00" />
<rect x="23.575" y="32.800" width="1.025" height="1.025" fill="#00fcff" />
<rect x="25.625" y="32.800" width="1.025" height="1.025" fill="#000000" />
<rect x="20.500" y="33.825" width="1.025" height="1.025" fill="#ff00d8" />
<rect x="21.525" y="33.825" width="1.025" height="1.025" fill="#001f00" />
<rect x="22.550" y="33.825" width="1.025" height="1.025" fill="#7eff00" />
<rect x="23.575" y="33.825" width="1.025" height="1.025" fill="#00fcff" />
<rect x="18.450" y="34.850" width="1.025" height="1.025" fill="#000000" />
<rect x="20.500" y="34.850" width="1.025" height="1.025" fill="#ff00d8" />
<rect x="21.525" y="34.850" width="1.025" height="1.025" fill="#001f00" />
<rect x="22.550" y="34.850" width="1.025" height="1.025" fill="#7eff00" />
<rect x="23.575" y="34.850" width="1.025" height="1.025" fill="#00fcff" />
<rect x="25.625" y="34.850" width="1.025" height="1.025" fill="#000000" />
<rect x="28.700" y="34.850" width="1.025" height="1.025" fill="#000000" />
<rect x="16.400" y="35.875" width="1.025" height="1.025" fill="#000000" />
<rect x="20.500" y="35.875" width="1.025" height="1.025" fill="#000000" />
<rect x="21.525" y="35.875" width="1.025" height="1.025" fill="#000100" />
<rect x="22.550" y="35.875" width="1.025" height="1.025" fill="#78ff00" />
<rect x="23.575" y="35.875" width="1.025" height="1.025" fill="#000000" />
<rect x="19.475" y="36.900" width="1.025" height="1.025" fill="#000100" />
<rect x="20.500" y="36.900" width="1.025" height="1.025" fill="#000000" />
<rect x="21.525" y="36.900" width="1.025" height="1.025" fill="#000100" />
<rect x="22.550" y="36.900" width="1.025" height="1.025" fill="#000100" />
<rect x="23.575" y="36.900" width="1.025" height="1.025" fill="#000100" />
<rect x="24.600" y="36.900" width="1.025" height="1.025" fill="#000000" />
</svg>