<svg xmlns="http://www.w3.org/2000/svg" width="37.925" height="37.925" shape-rendering="crispEdges" style="image-rendering: pixelated;">
<rect x="14.350" y="6.150" width="1.025" height="1.025" fill="#000000" />
<rect x="15.375" y="6.150" width="1.025" height="1.025" fill="#000000" />
<rect x="16.400" y="6.150" width="1.025" height="1.025" fill="#000000" />
<rect x="17.425" y="6.150" width="1.025" height="1.025" fill="#000000" />
<rect x="18.450" y="6.150" width="1.025" height="1.025" fill="#000000" />
<rect x="19.475" y="6.150" width="1.025" height="1.025" fill="#000000" />
<rect x="20.500" y="6.150" width="1.025" height="1.025" fill="#000000" />
<rect x="21.525" y="6.150" width="1.025" height="1.025" fill="#000000" />
<rect x="22.550" y="6.150" width="1.025" height="1.025" fill="#000000" />
<rect x="13.325" y="7.175" width="1.025" height="1.025" fill="#000000" />
<rect x="14.350" y="7.175" width="1.025" height="1.025" fill="#000000" />
<rect x="15.375" y="7.175" width="1.025" height="1.025" fill="#012400" />
<rect x="16.400" y="7.175" width="1.025" height="1.025" fill="#024c00" />
<rect x="17.425" y="7.175" width="1.025" height="1.025" fill="#01f400" />
<rect x="18.450" y="7.175" width="1.025" height="1.025" fill="#028300" />
<rect x="19.475" y="7.175" width="1.025" height="1.025" fill="#046600" />
<rect x="20.500" y="7.175" width="1.025" height="1.025" fill="#046b00" />
<rect x="21.525" y="7.175" width="1.025" height="1.025" fill="#028000" />
<rect x="22.550" y="7.175" width="1.025" height="1.025" fill="#002000" />
<rect x="23.575" y="7.175" width="1.025" height="1.025" fill="#000000" />
<rect x="12.300" y="8.200" width="1.025" height="1.025" fill="#000000" />
<rect x="13.325" y="8.200" width="1.025" height="1.025" fill="#000000" />
<rect x="14.350" y="8.200" width="1.025" height="1.025" fill="#000600" />
<rect x="15.375" y="8.200" width="1.025" height="1.025" fill="#013e00" />
<rect x="16.400" y="8.200" width="1.025" height="1.025" fill="#2dff00" />
<rect x="17.425" y="8.200" width="1.025" height="1.025" fill="#c5ff00" />
<rect x="18.450" y="8.200" width="1.025" height="1.025" fill="#aeff00" />
<rect x="19.475" y="8.200" width="1.025" height="1.025" fill="#aeff00" />
<rect x="20.500" y="8.200" width="1.025" height="1.025" fill="#c5ff00" />
<rect x="21.525" y="8.200" width="1.025" height="1.025" fill="#a5ff00" />
<rect x="22.550" y="8.200" width="1.025" height="1.025" fill="#88ff03" />
<rect x="23.575" y="8.200" width="1.025" height="1.025" fill="#001400" />
<rect x="24.600" y="8.200" width="1.025" height="1.025" fill="#000000" />
<rect x="12.300" y="9.225" width="1.025" height="1.025" fill="#000000" />
<rect x="13.325" y="9.225" width="1.025" height="1.025" fill="#000100" />
<rect x="14.350" y="9.225" width="1.025" height="1.025" fill="#000e00" />
<rect x="15.375" y="9.225" width="1.025" height="1.025" fill="#013400" />
<rect x="16.400" y="9.225" width="1.025" height="1.025" fill="#a7ff00" />
<rect x="17.425" y="9.225" width="1.025" height="1.025" fill="#baff00" />
<rect x="18.450" y="9.225" width="1.025" height="1.025" fill="#e4ff00" />
<rect x="19.475" y="9.225" width="1.025" height="1.025" fill="#eaff00" />
<rect x="20.500" y="9.225" width="1.025" height="1.025" fill="#b8ff00" />
<rect x="21.525" y="9.225" width="1.025" height="1.025" fill="#a9ff00" />
<rect x="22.550" y="9.225" width="1.025" height="1.025" fill="#a4ff00" />
<rect x="23.575" y="9.225" width="1.025" height="1.025" fill="#012700" />
<rect x="24.600" y="9.225" width="1.025" height="1.025" fill="#000000" />
<rect x="12.300" y="10.250" width="1.025" height="1.025" fill="#000000" />
<rect x="13.325" y="10.250" width="1.025" height="1.025" fill="#000100" />
<rect x="14.350" y="10.250" width="1.025" height="1.025" fill="#000a00" />
<rect x="15.375" y="10.250" width="1.025" height="1.025" fill="#013000" />
<rect x="16.400" y="10.250" width="1.025" height="1.025" fill="#a2ff00" />
<rect x="17.425" y="10.250" width="1.025" height="1.025" fill="#c6ff00" />
<rect x="18.450" y="10.250" width="1.025" height="1.025" fill="#c3ff00" />
<rect x="19.475" y="10.250" width="1.025" height="1.025" fill="#d1ff00" />
<rect x="20.500" y="10.250" width="1.025" height="1.025" fill="#c2ff00" />
<rect x="21.525" y="10.250" width="1.025" height="1.025" fill="#7bff04" />
<rect x="22.550" y="10.250" width="1.025" height="1.025" fill="#85ff03" />
<rect x="23.575" y="10.250" width="1.025" height="1.025" fill="#001c00" />
<rect x="24.600" y="10.250" width="1.025" height="1.025" fill="#000000" />
<rect x="12.300" y="11.275" width="1.025" height="1.025" fill="#000000" />
<rect x="13.325" y="11.275" width="1.025" height="1.025" fill="#000200" />
<rect x="14.350" y="11.275" width="1.025" height="1.025" fill="#000700" />
<rect x="15.375" y="11.275" width="1.025" height="1.025" fill="#002000" />
<rect x="16.400" y="11.275" width="1.025" height="1.025" fill="#028300" />
<rect x="17.425" y="11.275" width="1.025" height="1.025" fill="#e3ff00" />
<rect x="18.450" y="11.275" width="1.025" height="1.025" fill="#e8ff00" />
<rect x="19.475" y="11.275" width="1.025" height="1.025" fill="#eaff00" />
<rect x="20.500" y="11.275" width="1.025" height="1.025" fill="#cbff00" />
<rect x="21.525" y="11.275" width="1.025" height="1.025" fill="#93ff02" />
<rect x="22.550" y="11.275" width="1.025" height="1.025" fill="#b7ff00" />
<rect x="23.575" y="11.275" width="1.025" height="1.025" fill="#012600" />
<rect x="24.600" y="11.275" width="1.025" height="1.025" fill="#000000" />
<rect x="12.300" y="12.300" width="1.025" height="1.025" fill="#000000" />
<rect x="13.325" y="12.300" width="1.025" height="1.025" fill="#000000" />
<rect x="14.350" y="12.300" width="1.025" height="1.025" fill="#000700" />
<rect x="15.375" y="12.300" width="1.025" height="1.025" fill="#002100" />
<rect x="16.400" y="12.300" width="1.025" height="1.025" fill="#012c00" />
<rect x="17.425" y="12.300" width="1.025" height="1.025" fill="#001900" />
<rect x="18.450" y="12.300" width="1.025" height="1.025" fill="#002000" />
<rect x="19.475" y="12.300" width="1.025" height="1.025" fill="#001b00" />
<rect x="20.500" y="12.300" width="1.025" height="1.025" fill="#035f00" />
<rect x="21.525" y="12.300" width="1.025" height="1.025" fill="#43ff01" />
<rect x="22.550" y="12.300" width="1.025" height="1.025" fill="#024a00" />
<rect x="23.575" y="12.300" width="1.025" height="1.025" fill="#001f00" />
<rect x="24.600" y="12.300" width="1.025" height="1.025" fill="#000000" />
<rect x="12.300" y="13.325" width="1.025" height="1.025" fill="#000000" />
<rect x="13.325" y="13.325" width="1.025" height="1.025" fill="#000000" />
<rect x="14.350" y="13.325" width="1.025" height="1.025" fill="#000500" />
<rect x="15.375" y="13.325" width="1.025" height="1.025" fill="#012800" />
<rect x="16.400" y="13.325" width="1.025" height="1.025" fill="#000300" />
<rect x="17.425" y="13.325" width="1.025" height="1.025" fill="#000000" />
<rect x="18.450" y="13.325" width="1.025" height="1.025" fill="#000000" />
<rect x="19.475" y="13.325" width="1.025" height="1.025" fill="#000000" />
<rect x="20.500" y="13.325" width="1.025" height="1.025" fill="#000100" />
<rect x="21.525" y="13.325" width="1.025" height="1.025" fill="#000300" />
<rect x="22.550" y="13.325" width="1.025" height="1.025" fill="#000000" />
<rect x="23.575" y="13.325" width="1.025" height="1.025" fill="#000000" />
<rect x="24.600" y="13.325" width="1.025" height="1.025" fill="#000000" />
<rect x="11.275" y="14.350" width="1.025" height="1.025" fill="#000000" />
<rect x="12.300" y="14.350" width="1.025" height="1.025" fill="#000000" />
<rect x="13.325" y="14.350" width="1.025" height="1.025" fill="#013b00" />
<rect x="14.350" y="14.350" width="1.025" height="1.025" fill="#000f00" />
<rect x="15.375" y="14.350" width="1.025" height="1.025" fill="#012300" />
<rect x="16.400" y="14.350" width="1.025" height="1.025" fill="#001b00" />
<rect x="17.425" y="14.350" width="1.025" height="1.025" fill="#000000" />
<rect x="18.450" y="14.350" width="1.025" height="1.025" fill="#000000" />
<rect x="19.475" y="14.350" width="1.025" height="1.025" fill="#000a00" />
<rect x="20.500" y="14.350" width="1.025" height="1.025" fill="#001700" />
<rect x="21.525" y="14.350" width="1.025" height="1.025" fill="#000f00" />
<rect x="22.550" y="14.350" width="1.025" height="1.025" fill="#000000" />
<rect x="23.575" y="14.350" width="1.025" height="1.025" fill="#000000" />
<rect x="24.600" y="14.350" width="1.025" height="1.025" fill="#000000" />
<rect x="11.275" y="15.375" width="1.025" height="1.025" fill="#000000" />
<rect x="12.300" y="15.375" width="1.025" height="1.025" fill="#000000" />
<rect x="13.325" y="15.375" width="1.025" height="1.025" fill="#000700" />
<rect x="14.350" y="15.375" width="1.025" height="1.025" fill="#000600" />
<rect x="15.375" y="15.375" width="1.025" height="1.025" fill="#001700" />
<rect x="16.400" y="15.375" width="1.025" height="1.025" fill="#c2ff00" />
<rect x="17.425" y="15.375" width="1.025" height="1.025" fill="#eaff00" />
<rect x="18.450" y="15.375" width="1.025" height="1.025" fill="#b4ff00" />
<rect x="19.475" y="15.375" width="1.025" height="1.025" fill="#7cff04" />
<rect x="20.500" y="15.375" width="1.025" height="1.025" fill="#013200" />
<rect x="21.525" y="15.375" width="1.025" height="1.025" fill="#024300" />
<rect x="22.550" y="15.375" width="1.025" height="1.025" fill="#b9ff00" />
<rect x="23.575" y="15.375" width="1.025" height="1.025" fill="#035b00" />
<rect x="24.600" y="15.375" width="1.025" height="1.025" fill="#000000" />
<rect x="11.275" y="16.400" width="1.025" height="1.025" fill="#000000" />
<rect x="12.300" y="16.400" width="1.025" height="1.025" fill="#000000" />
<rect x="13.325" y="16.400" width="1.025" height="1.025" fill="#000000" />
<rect x="14.350" y="16.400" width="1.025" height="1.025" fill="#000100" />
<rect x="15.375" y="16.400" width="1.025" height="1.025" fill="#000300" />
<rect x="16.400" y="16.400" width="1.025" height="1.025" fill="#012d00" />
<rect x="17.425" y="16.400" width="1.025" height="1.025" fill="#ceff00" />
<rect x="18.450" y="16.400" width="1.025" height="1.025" fill="#e8ff00" />
<rect x="19.475" y="16.400" width="1.025" height="1.025" fill="#028100" />
<rect x="20.500" y="16.400" width="1.025" height="1.025" fill="#000000" />
<rect x="21.525" y="16.400" width="1.025" height="1.025" fill="#013600" />
<rect x="22.550" y="16.400" width="1.025" height="1.025" fill="#001a00" />
<rect x="23.575" y="16.400" width="1.025" height="1.025" fill="#000a00" />
<rect x="24.600" y="16.400" width="1.025" height="1.025" fill="#000000" />
<rect x="12.300" y="17.425" width="1.025" height="1.025" fill="#000000" />
<rect x="13.325" y="17.425" width="1.025" height="1.025" fill="#000000" />
<rect x="14.350" y="17.425" width="1.025" height="1.025" fill="#000000" />
<rect x="15.375" y="17.425" width="1.025" height="1.025" fill="#000000" />
<rect x="16.400" y="17.425" width="1.025" height="1.025" fill="#000700" />
<rect x="17.425" y="17.425" width="1.025" height="1.025" fill="#013900" />
<rect x="18.450" y="17.425" width="1.025" height="1.025" fill="#c3ff00" />
<rect x="19.475" y="17.425" width="1.025" height="1.025" fill="#9eff00" />
<rect x="20.500" y="17.425" width="1.025" height="1.025" fill="#000000" />
<rect x="21.525" y="17.425" width="1.025" height="1.025" fill="#000000" />
<rect x="22.550" y="17.425" width="1.025" height="1.025" fill="#000100" />
<rect x="23.575" y="17.425" width="1.025" height="1.025" fill="#000600" />
<rect x="24.600" y="17.425" width="1.025" height="1.025" fill="#000000" />
<rect x="13.325" y="18.450" width="1.025" height="1.025" fill="#000000" />
<rect x="14.350" y="18.450" width="1.025" height="1.025" fill="#000000" />
<rect x="15.375" y="18.450" width="1.025" height="1.025" fill="#000000" />
<rect x="16.400" y="18.450" width="1.025" height="1.025" fill="#000200" />
<rect x="17.425" y="18.450" width="1.025" height="1.025" fill="#001c00" />
<rect x="18.450" y="18.450" width="1.025" height="1.025" fill="#50ff07" />
<rect x="19.475" y="18.450" width="1.025" height="1.025" fill="#eaff00" />
<rect x="20.500" y="18.450" width="1.025" height="1.025" fill="#046b00" />
<rect x="21.525" y="18.450" width="1.025" height="1.025" fill="#002300" />
<rect x="22.550" y="18.450" width="1.025" height="1.025" fill="#43ff00" />
<rect x="23.575" y="18.450" width="1.025" height="1.025" fill="#001200" />
<rect x="24.600" y="18.450" width="1.025" height="1.025" fill="#000000" />
<rect x="13.325" y="19.475" width="1.025" height="1.025" fill="#000000" />
<rect x="14.350" y="19.475" width="1.025" height="1.025" fill="#000000" />
<rect x="15.375" y="19.475" width="1.025" height="1.025" fill="#000000" />
<rect x="16.400" y="19.475" width="1.025" height="1.025" fill="#000100" />
<rect x="17.425" y="19.475" width="1.025" height="1.025" fill="#001400" />
<rect x="18.450" y="19.475" width="1.025" height="1.025" fill="#012600" />
<rect x="19.475" y="19.475" width="1.025" height="1.025" fill="#46ff07" />
<rect x="20.500" y="19.475" width="1.025" height="1.025" fill="#b6ff00" />
<rect x="21.525" y="19.475" width="1.025" height="1.025" fill="#44ff07" />
<rect x="22.550" y="19.475" width="1.025" height="1.025" fill="#012800" />
<rect x="23.575" y="19.475" width="1.025" height="1.025" fill="#000600" />
<rect x="24.600" y="19.475" width="1.025" height="1.025" fill="#000000" />
<rect x="13.325" y="20.500" width="1.025" height="1.025" fill="#000000" />
<rect x="14.350" y="20.500" width="1.025" height="1.025" fill="#000000" />
<rect x="15.375" y="20.500" width="1.025" height="1.025" fill="#000000" />
<rect x="16.400" y="20.500" width="1.025" height="1.025" fill="#000200" />
<rect x="17.425" y="20.500" width="1.025" height="1.025" fill="#000900" />
<rect x="18.450" y="20.500" width="1.025" height="1.025" fill="#000900" />
<rect x="19.475" y="20.500" width="1.025" height="1.025" fill="#000000" />
<rect x="20.500" y="20.500" width="1.025" height="1.025" fill="#000000" />
<rect x="21.525" y="20.500" width="1.025" height="1.025" fill="#000000" />
<rect x="22.550" y="20.500" width="1.025" height="1.025" fill="#000000" />
<rect x="23.575" y="20.500" width="1.025" height="1.025" fill="#000300" />
<rect x="24.600" y="20.500" width="1.025" height="1.025" fill="#000000" />
<rect x="13.325" y="21.525" width="1.025" height="1.025" fill="#000000" />
<rect x="14.350" y="21.525" width="1.025" height="1.025" fill="#000000" />
<rect x="15.375" y="21.525" width="1.025" height="1.025" fill="#000000" />
<rect x="16.400" y="21.525" width="1.025" height="1.025" fill="#000000" />
<rect x="17.425" y="21.525" width="1.025" height="1.025" fill="#000500" />
<rect x="18.450" y="21.525" width="1.025" height="1.025" fill="#012b00" />
<rect x="19.475" y="21.525" width="1.025" height="1.025" fill="#51ff07" />
<rect x="20.500" y="21.525" width="1.025" height="1.025" fill="#7eff04" />
<rect x="21.525" y="21.525" width="1.025" height="1.025" fill="#00ef00" />
<rect x="22.550" y="21.525" width="1.025" height="1.025" fill="#024b00" />
<rect x="23.575" y="21.525" width="1.025" height="1.025" fill="#000200" />
<rect x="24.600" y="21.525" width="1.025" height="1.025" fill="#000000" />
<rect x="13.325" y="22.550" width="1.025" height="1.025" fill="#000000" />
<rect x="14.350" y="22.550" width="1.025" height="1.025" fill="#000000" />
<rect x="15.375" y="22.550" width="1.025" height="1.025" fill="#000000" />
<rect x="16.400" y="22.550" width="1.025" height="1.025" fill="#000000" />
<rect x="17.425" y="22.550" width="1.025" height="1.025" fill="#000100" />
<rect x="18.450" y="22.550" width="1.025" height="1.025" fill="#001c00" />
<rect x="19.475" y="22.550" width="1.025" height="1.025" fill="#035600" />
<rect x="20.500" y="22.550" width="1.025" height="1.025" fill="#d9ff00" />
<rect x="21.525" y="22.550" width="1.025" height="1.025" fill="#e2ff00" />
<rect x="22.550" y="22.550" width="1.025" height="1.025" fill="#69ff05" />
<rect x="23.575" y="22.550" width="1.025" height="1.025" fill="#000000" />
<rect x="24.600" y="22.550" width="1.025" height="1.025" fill="#000000" />
<rect x="13.325" y="23.575" width="1.025" height="1.025" fill="#000000" />
<rect x="14.350" y="23.575" width="1.025" height="1.025" fill="#000000" />
<rect x="15.375" y="23.575" width="1.025" height="1.025" fill="#000000" />
<rect x="16.400" y="23.575" width="1.025" height="1.025" fill="#000000" />
<rect x="17.425" y="23.575" width="1.025" height="1.025" fill="#000000" />
<rect x="18.450" y="23.575" width="1.025" height="1.025" fill="#000000" />
<rect x="19.475" y="23.575" width="1.025" height="1.025" fill="#000100" />
<rect x="20.500" y="23.575" width="1.025" height="1.025" fill="#012400" />
<rect x="21.525" y="23.575" width="1.025" height="1.025" fill="#012400" />
<rect x="22.550" y="23.575" width="1.025" height="1.025" fill="#000100" />
<rect x="23.575" y="23.575" width="1.025" height="1.025" fill="#000000" />
<rect x="13.325" y="24.600" width="1.025" height="1.025" fill="#000000" />
<rect x="14.350" y="24.600" width="1.025" height="1.025" fill="#000000" />
<rect x="15.375" y="24.600" width="1.025" height="1.025" fill="#000d00" />
<rect x="16.400" y="24.600" width="1.025" height="1.025" fill="#000000" />
<rect x="17.425" y="24.600" width="1.025" height="1.025" fill="#000000" />
<rect x="18.450" y="24.600" width="1.025" height="1.025" fill="#000000" />
<rect x="19.475" y="24.600" width="1.025" height="1.025" fill="#000000" />
<rect x="20.500" y="24.600" width="1.025" height="1.025" fill="#000000" />
<rect x="21.525" y="24.600" width="1.025" height="1.025" fill="#000000" />
<rect x="22.550" y="24.600" width="1.025" height="1.025" fill="#000000" />
<rect x="13.325" y="25.625" width="1.025" height="1.025" fill="#000000" />
<rect x="14.350" y="25.625" width="1.025" height="1.025" fill="#000000" />
<rect x="15.375" y="25.625" width="1.025" height="1.025" fill="#002200" />
<rect x="16.400" y="25.625" width="1.025" height="1.025" fill="#001a00" />
<rect x="17.425" y="25.625" width="1.025" height="1.025" fill="#000000" />
<rect x="18.450" y="25.625" width="1.025" height="1.025" fill="#000000" />
<rect x="13.325" y="26.650" width="1.025" height="1.025" fill="#000000" />
<rect x="14.350" y="26.650" width="1.025" height="1.025" fill="#000000" />
<rect x="15.375" y="26.650" width="1.025" height="1.025" fill="#012400" />
<rect x="16.400" y="26.650" width="1.025" height="1.025" fill="#024000" />
<rect x="17.425" y="26.650" width="1.025" height="1.025" fill="#012400" />
<rect x="18.450" y="26.650" width="1.025" height="1.025" fill="#000000" />
<rect x="13.325" y="27.675" width="1.025" height="1.025" fill="#000000" />
<rect x="14.350" y="27.675" width="1.025" height="1.025" fill="#000100" />
<rect x="15.375" y="27.675" width="1.025" height="1.025" fill="#000f00" />
<rect x="16.400" y="27.675" width="1.025" height="1.025" fill="#013800" />
<rect x="17.425" y="27.675" width="1.025" height="1.025" fill="#002000" />
<rect x="18.450" y="27.675" width="1.025" height="1.025" fill="#000000" />
<rect x="11.275" y="28.700" width="1.025" height="1.025" fill="#000000" />
<rect x="12.300" y="28.700" width="1.025" height="1.025" fill="#000000" />
<rect x="13.325" y="28.700" width="1.025" height="1.025" fill="#000e00" />
<rect x="14.350" y="28.700" width="1.025" height="1.025" fill="#002200" />
<rect x="15.375" y="28.700" width="1.025" height="1.025" fill="#000700" />
<rect x="16.400" y="28.700" width="1.025" height="1.025" fill="#000c00" />
<rect x="17.425" y="28.700" width="1.025" height="1.025" fill="#001e00" />
<rect x="18.450" y="28.700" width="1.025" height="1.025" fill="#001600" />
<rect x="19.475" y="28.700" width="1.025" height="1.025" fill="#000000" />
<rect x="20.500" y="28.700" width="1.025" height="1.025" fill="#000000" />
<rect x="9.225" y="29.725" width="1.025" height="1.025" fill="#000000" />
<rect x="10.250" y="29.725" width="1.025" height="1.025" fill="#000000" />
<rect x="11.275" y="29.725" width="1.025" height="1.025" fill="#000300" />
<rect x="12.300" y="29.725" width="1.025" height="1.025" fill="#000300" />
<rect x="13.325" y="29.725" width="1.025" height="1.025" fill="#000400" />
<rect x="14.350" y="29.725" width="1.025" height="1.025" fill="#000400" />
<rect x="15.375" y="29.725" width="1.025" height="1.025" fill="#000300" />
<rect x="16.400" y="29.725" width="1.025" height="1.025" fill="#000300" />
<rect x="17.425" y="29.725" width="1.025" height="1.025" fill="#000800" />
<rect x="18.450" y="29.725" width="1.025" height="1.025" fill="#001300" />
<rect x="19.475" y="29.725" width="1.025" height="1.025" fill="#000600" />
<rect x="20.500" y="29.725" width="1.025" height="1.025" fill="#000300" />
<rect x="21.525" y="29.725" width="1.025" height="1.025" fill="#000000" />
<rect x="22.550" y="29.725" width="1.025" height="1.025" fill="#000000" />
<rect x="23.575" y="29.725" width="1.025" height="1.025" fill="#000000" />
<rect x="7.175" y="30.750" width="1.025" height="1.025" fill="#000000" />
<rect x="8.200" y="30.750" width="1.025" height="1.025" fill="#000000" />
<rect x="9.225" y="30.750" width="1.025" height="1.025" fill="#001b00" />
<rect x="10.250" y="30.750" width="1.025" height="1.025" fill="#001d00" />
<rect x="11.275" y="30.750" width="1.025" height="1.025" fill="#001100" />
<rect x="12.300" y="30.750" width="1.025" height="1.025" fill="#001400" />
<rect x="13.325" y="30.750" width="1.025" height="1.025" fill="#001a00" />
<rect x="14.350" y="30.750" width="1.025" height="1.025" fill="#001c00" />
<rect x="15.375" y="30.750" width="1.025" height="1.025" fill="#012700" />
<rect x="16.400" y="30.750" width="1.025" height="1.025" fill="#002200" />
<rect x="17.425" y="30.750" width="1.025" height="1.025" fill="#000700" />
<rect x="18.450" y="30.750" width="1.025" height="1.025" fill="#000e00" />
<rect x="19.475" y="30.750" width="1.025" height="1.025" fill="#012e00" />
<rect x="20.500" y="30.750" width="1.025" height="1.025" fill="#012b00" />
<rect x="21.525" y="30.750" width="1.025" height="1.025" fill="#012600" />
<rect x="22.550" y="30.750" width="1.025" height="1.025" fill="#001400" />
<rect x="23.575" y="30.750" width="1.025" height="1.025" fill="#000b00" />
<rect x="24.600" y="30.750" width="1.025" height="1.025" fill="#000000" />
<rect x="25.625" y="30.750" width="1.025" height="1.025" fill="#000000" />
<rect x="6.150" y="31.775" width="1.025" height="1.025" fill="#000000" />
<rect x="7.175" y="31.775" width="1.025" height="1.025" fill="#000100" />
<rect x="8.200" y="31.775" width="1.025" height="1.025" fill="#002200" />
<rect x="9.225" y="31.775" width="1.025" height="1.025" fill="#035f00" />
<rect x="10.250" y="31.775" width="1.025" height="1.025" fill="#013700" />
<rect x="11.275" y="31.775" width="1.025" height="1.025" fill="#002100" />
<rect x="12.300" y="31.775" width="1.025" height="1.025" fill="#013700" />
<rect x="13.325" y="31.775" width="1.025" height="1.025" fill="#024000" />
<rect x="14.350" y="31.775" width="1.025" height="1.025" fill="#013800" />
<rect x="15.375" y="31.775" width="1.025" height="1.025" fill="#024000" />
<rect x="16.400" y="31.775" width="1.025" height="1.025" fill="#024300" />
<rect x="17.425" y="31.775" width="1.025" height="1.025" fill="#012700" />
<rect x="18.450" y="31.775" width="1.025" height="1.025" fill="#012800" />
<rect x="19.475" y="31.775" width="1.025" height="1.025" fill="#025000" />
<rect x="20.500" y="31.775" width="1.025" height="1.025" fill="#024f00" />
<rect x="21.525" y="31.775" width="1.025" height="1.025" fill="#013e00" />
<rect x="22.550" y="31.775" width="1.025" height="1.025" fill="#012900" />
<rect x="23.575" y="31.775" width="1.025" height="1.025" fill="#001d00" />
<rect x="24.600" y="31.775" width="1.025" height="1.025" fill="#013b00" />
<rect x="25.625" y="31.775" width="1.025" height="1.025" fill="#001600" />
<rect x="26.650" y="31.775" width="1.025" height="1.025" fill="#000000" />
<rect x="5.125" y="32.800" width="1.025" height="1.025" fill="#000000" />
<rect x="6.150" y="32.800" width="1.025" height="1.025" fill="#000000" />
<rect x="7.175" y="32.800" width="1.025" height="1.025" fill="#001200" />
<rect x="8.200" y="32.800" width="1.025" height="1.025" fill="#012600" />
<rect x="9.225" y="32.800" width="1.025" height="1.025" fill="#024f00" />
<rect x="10.250" y="32.800" width="1.025" height="1.025" fill="#013900" />
<rect x="11.275" y="32.800" width="1.025" height="1.025" fill="#002200" />
<rect x="12.300" y="32.800" width="1.025" height="1.025" fill="#024600" />
<rect x="13.325" y="32.800" width="1.025" height="1.025" fill="#035f00" />
<rect x="14.350" y="32.800" width="1.025" height="1.025" fill="#024f00" />
<rect x="15.375" y="32.800" width="1.025" height="1.025" fill="#024c00" />
<rect x="16.400" y="32.800" width="1.025" height="1.025" fill="#024c00" />
<rect x="17.425" y="32.800" width="1.025" height="1.025" fill="#013000" />
<rect x="18.450" y="32.800" width="1.025" height="1.025" fill="#012f00" />
<rect x="19.475" y="32.800" width="1.025" height="1.025" fill="#024600" />
<rect x="20.500" y="32.800" width="1.025" height="1.025" fill="#035700" />
<rect x="21.525" y="32.800" width="1.025" height="1.025" fill="#024e00" />
<rect x="22.550" y="32.800" width="1.025" height="1.025" fill="#012d00" />
<rect x="23.575" y="32.800" width="1.025" height="1.025" fill="#012400" />
<rect x="24.600" y="32.800" width="1.025" height="1.025" fill="#001c00" />
<rect x="25.625" y="32.800" width="1.025" height="1.025" fill="#013300" />
<rect x="26.650" y="32.800" width="1.025" height="1.025" fill="#000100" />
<rect x="27.675" y="32.800" width="1.025" height="1.025" fill="#000000" />
<rect x="5.125" y="33.825" width="1.025" height="1.025" fill="#000000" />
<rect x="6.150" y="33.825" width="1.025" height="1.025" fill="#000100" />
<rect x="7.175" y="33.825" width="1.025" height="1.025" fill="#000f00" />
<rect x="8.200" y="33.825" width="1.025" height="1.025" fill="#012800" />
<rect x="9.225" y="33.825" width="1.025" height="1.025" fill="#001300" />
<rect x="10.250" y="33.825" width="1.025" height="1.025" fill="#000000" />
<rect x="11.275" y="33.825" width="1.025" height="1.025" fill="#000d00" />
<rect x="12.300" y="33.825" width="1.025" height="1.025" fill="#013f00" />
<rect x="13.325" y="33.825" width="1.025" height="1.025" fill="#37ff00" />
<rect x="14.350" y="33.825" width="1.025" height="1.025" fill="#037d00" />
<rect x="15.375" y="33.825" width="1.025" height="1.025" fill="#035300" />
<rect x="16.400" y="33.825" width="1.025" height="1.025" fill="#046200" />
<rect x="17.425" y="33.825" width="1.025" height="1.025" fill="#012e00" />
<rect x="18.450" y="33.825" width="1.025" height="1.025" fill="#001900" />
<rect x="19.475" y="33.825" width="1.025" height="1.025" fill="#024500" />
<rect x="20.500" y="33.825" width="1.025" height="1.025" fill="#035c00" />
<rect x="21.525" y="33.825" width="1.025" height="1.025" fill="#035200" />
<rect x="22.550" y="33.825" width="1.025" height="1.025" fill="#024400" />
<rect x="23.575" y="33.825" width="1.025" height="1.025" fill="#001400" />
<rect x="24.600" y="33.825" width="1.025" height="1.025" fill="#000000" />
<rect x="25.625" y="33.825" width="1.025" height="1.025" fill="#001200" />
<rect x="26.650" y="33.825" width="1.025" height="1.025" fill="#000b00" />
<rect x="27.675" y="33.825" width="1.025" height="1.025" fill="#000000" />
<rect x="5.125" y="34.850" width="1.025" height="1.025" fill="#000000" />
<rect x="6.150" y="34.850" width="1.025" height="1.025" fill="#000100" />
<rect x="7.175" y="34.850" width="1.025" height="1.025" fill="#001000" />
<rect x="8.200" y="34.850" width="1.025" height="1.025" fill="#001e00" />
<rect x="9.225" y="34.850" width="1.025" height="1.025" fill="#000100" />
<rect x="10.250" y="34.850" width="1.025" height="1.025" fill="#000000" />
<rect x="11.275" y="34.850" width="1.025" height="1.025" fill="#000000" />
<rect x="12.300" y="34.850" width="1.025" height="1.025" fill="#012400" />
<rect x="13.325" y="34.850" width="1.025" height="1.025" fill="#001b00" />
<rect x="14.350" y="34.850" width="1.025" height="1.025" fill="#013700" />
<rect x="15.375" y="34.850" width="1.025" height="1.025" fill="#1fff00" />
<rect x="16.400" y="34.850" width="1.025" height="1.025" fill="#035300" />
<rect x="17.425" y="34.850" width="1.025" height="1.025" fill="#001400" />
<rect x="18.450" y="34.850" width="1.025" height="1.025" fill="#000000" />
<rect x="19.475" y="34.850" width="1.025" height="1.025" fill="#012600" />
<rect x="20.500" y="34.850" width="1.025" height="1.025" fill="#046700" />
<rect x="21.525" y="34.850" width="1.025" height="1.025" fill="#035b00" />
<rect x="22.550" y="34.850" width="1.025" height="1.025" fill="#001900" />
<rect x="23.575" y="34.850" width="1.025" height="1.025" fill="#000d00" />
<rect x="24.600" y="34.850" width="1.025" height="1.025" fill="#000000" />
<rect x="25.625" y="34.850" width="1.025" height="1.025" fill="#000c00" />
<rect x="26.650" y="34.850" width="1.025" height="1.025" fill="#000600" />
<rect x="27.675" y="34.850" width="1.025" height="1.025" fill="#000000" />
<rect x="5.125" y="35.875" width="1.025" height="1.025" fill="#000000" />
<rect x="6.150" y="35.875" width="1.025" height="1.025" fill="#000100" />
<rect x="7.175" y="35.875" width="1.025" height="1.025" fill="#001100" />
<rect x="8.200" y="35.875" width="1.025" height="1.025" fill="#001600" />
<rect x="9.225" y="35.875" width="1.025" height="1.025" fill="#000000" />
<rect x="10.250" y="35.875" width="1.025" height="1.025" fill="#000000" />
<rect x="11.275" y="35.875" width="1.025" height="1.025" fill="#000000" />
<rect x="12.300" y="35.875" width="1.025" height="1.025" fill="#000300" />
<rect x="13.325" y="35.875" width="1.025" height="1.025" fill="#000200" />
<rect x="14.350" y="35.875" width="1.025" height="1.025" fill="#000700" />
<rect x="15.375" y="35.875" width="1.025" height="1.025" fill="#012d00" />
<rect x="16.400" y="35.875" width="1.025" height="1.025" fill="#001f00" />
<rect x="17.425" y="35.875" width="1.025" height="1.025" fill="#000200" />
<rect x="18.450" y="35.875" width="1.025" height="1.025" fill="#000000" />
<rect x="19.475" y="35.875" width="1.025" height="1.025" fill="#000d00" />
<rect x="20.500" y="35.875" width="1.025" height="1.025" fill="#012f00" />
<rect x="21.525" y="35.875" width="1.025" height="1.025" fill="#012900" />
<rect x="22.550" y="35.875" width="1.025" height="1.025" fill="#000200" />
<rect x="23.575" y="35.875" width="1.025" height="1.025" fill="#000200" />
<rect x="24.600" y="35.875" width="1.025" height="1.025" fill="#000000" />
<rect x="25.625" y="35.875" width="1.025" height="1.025" fill="#001b00" />
<rect x="26.650" y="35.875" width="1.025" height="1.025" fill="#000500" />
<rect x="27.675" y="35.875" width="1.025" height="1.025" fill="#000000" />
<rect x="5.125" y="36.900" width="1.025" height="1.025" fill="#000000" />
<rect x="6.150" y="36.900" width="1.025" height="1.025" fill="#000100" />
<rect x="7.175" y="36.900" width="1.025" height="1.025" fill="#001200" />
<rect x="8.200" y="36.900" width="1.025" height="1.025" fill="#002200" />
<rect x="9.225" y="36.900" width="1.025" height="1.025" fill="#000100" />
<rect x="10.250" y="36.900" width="1.025" height="1.025" fill="#000000" />
<rect x="11.275" y="36.900" width="1.025" height="1.025" fill="#000000" />
<rect x="12.300" y="36.900" width="1.025" height="1.025" fill="#000000" />
<rect x="13.325" y="36.900" width="1.025" height="1.025" fill="#000100" />
<rect x="14.350" y="36.900" width="1.025" height="1.025" fill="#000100" />
<rect x="15.375" y="36.900" width="1.025" height="1.025" fill="#000200" />
<rect x="16.400" y="36.900" width="1.025" height="1.025" fill="#000300" />
<rect x="17.425" y="36.900" width="1.025" height="1.025" fill="#000100" />
<rect x="18.450" y="36.900" width="1.025" height="1.025" fill="#000000" />
<rect x="19.475" y="36.900" width="1.025" height="1.025" fill="#000200" />
<rect x="20.500" y="36.900" width="1.025" height="1.025" fill="#000d00" />
<rect x="21.525" y="36.900" width="1.025" height="1.025" fill="#000800" />
<rect x="22.550" y="36.900" width="1.025" height="1.025" fill="#000200" />
<rect x="23.575" y="36.900" width="1.025" height="1.025" fill="#000000" />
<rect x="24.600" y="36.900" width="1.025" height="1.025" fill="#000000" />
<rect x="25.625" y="36.900" width="1.025" height="1.025" fill="#001c00" />
<rect x="26.650" y="36.900" width="1.025" height="1.025" fill="#000a00" />
<rect x="27.675" y="36.900" width="1.025" height="1.025" fill="#000000" />
</svg>