<svg xmlns="http://www.w3.org/2000/svg" width="37.925" height="37.925" shape-rendering="crispEdges" style="image-rendering: pixelated;">
<rect x="14.350" y="6.150" width="1.025" height="1.025" fill="#000000" />
<rect x="15.375" y="6.150" width="1.025" height="1.025" fill="#000000" />
<rect x="16.400" y="6.150" width="1.025" height="1.025" fill="#000000" />
<rect x="17.425" y="6.150" width="1.025" height="1.025" fill="#000000" />
<rect x="18.450" y="6.150" width="1.025" height="1.025" fill="#000000" />
<rect x="19.475" y="6.150" width="1.025" height="1.025" fill="#000000" />
<rect x="20.500" y="6.150" width="1.025" height="1.025" fill="#000000" />
<rect x="21.525" y="6.150" width="1.025" height="1.025" fill="#000000" />
<rect x="22.550" y="6.150" width="1.025" height="1.025" fill="#000000" />
<rect x="13.325" y="7.175" width="1.025" height="1.025" fill="#000000" />
<rect x="14.350" y="7.175" width="1.025" height="1.025" fill="#eaff00" />
<rect x="15.375" y="7.175" width="1.025" height="1.025" fill="#ff00d8" />
<rect x="16.400" y="7.175" width="1.025" height="1.025" fill="#e77fe4" />
<rect x="17.425" y="7.175" width="1.025" height="1.025" fill="#c1b7ef" />
<rect x="18.450" y="7.175" width="1.025" height="1.025" fill="#c8afee" />
<rect x="19.475" y="7.175" width="1.025" height="1.025" fill="#cda9ec" />
<rect x="20.500" y="7.175" width="1.025" height="1.025" fill="#c8afee" />
<rect x="21.525" y="7.175" width="1.025" height="1.025" fill="#c9aeed" />
<rect x="22.550" y="7.175" width="1.025" height="1.025" fill="#ff00d8" />
<rect x="23.575" y="7.175" width="1.025" height="1.025" fill="#000000" />
<rect x="12.300" y="8.200" width="1.025" height="1.025" fill="#000000" />
<rect x="13.325" y="8.200" width="1.025" height="1.025" fill="#b1ff00" />
<rect x="14.350" y="8.200" width="1.025" height="1.025" fill="#ff00d8" />
<rect x="15.375" y="8.200" width="1.025" height="1.025" fill="#9ad6f6" />
<rect x="16.400" y="8.200" width="1.025" height="1.025" fill="#00fcff" />
<rect x="17.425" y="8.200" width="1.025" height="1.025" fill="#00fcff" />
<rect x="18.450" y="8.200" width="1.025" height="1.025" fill="#00fcff" />
<rect x="19.475" y="8.200" width="1.025" height="1.025" fill="#00fcff" />
<rect x="20.500" y="8.200" width="1.025" height="1.025" fill="#00fcff" />
<rect x="21.525" y="8.200" width="1.025" height="1.025" fill="#00fcff" />
<rect x="22.550" y="8.200" width="1.025" height="1.025" fill="#00fcff" />
<rect x="23.575" y="8.200" width="1.025" height="1.025" fill="#fe11d8" />
<rect x="24.600" y="8.200" width="1.025" height="1.025" fill="#000000" />
<rect x="12.300" y="9.225" width="1.025" height="1.025" fill="#000000" />
<rect x="13.325" y="9.225" width="1.025" height="1.025" fill="#eaff00" />
<rect x="14.350" y="9.225" width="1.025" height="1.025" fill="#ff00d8" />
<rect x="15.375" y="9.225" width="1.025" height="1.025" fill="#c3b5ef" />
<rect x="16.400" y="9.225" width="1.025" height="1.025" fill="#00fcff" />
<rect x="17.425" y="9.225" width="1.025" height="1.025" fill="#00fcff" />
<rect x="18.450" y="9.225" width="1.025" height="1.025" fill="#00f4f7" />
<rect x="19.475" y="9.225" width="1.025" height="1.025" fill="#00e3e6" />
<rect x="20.500" y="9.225" width="1.025" height="1.025" fill="#00fcff" />
<rect x="21.525" y="9.225" width="1.025" height="1.025" fill="#00fcff" />
<rect x="22.550" y="9.225" width="1.025" height="1.025" fill="#00fcff" />
<rect x="23.575" y="9.225" width="1.025" height="1.025" fill="#e681e5" />
<rect x="24.600" y="9.225" width="1.025" height="1.025" fill="#000000" />
<rect x="12.300" y="10.250" width="1.025" height="1.025" fill="#000000" />
<rect x="13.325" y="10.250" width="1.025" height="1.025" fill="#eaff00" />
<rect x="14.350" y="10.250" width="1.025" height="1.025" fill="#ff00d8" />
<rect x="15.375" y="10.250" width="1.025" height="1.025" fill="#afc7f3" />
<rect x="16.400" y="10.250" width="1.025" height="1.025" fill="#00fcff" />
<rect x="17.425" y="10.250" width="1.025" height="1.025" fill="#00fcff" />
<rect x="18.450" y="10.250" width="1.025" height="1.025" fill="#00fcff" />
<rect x="19.475" y="10.250" width="1.025" height="1.025" fill="#00fcff" />
<rect x="20.500" y="10.250" width="1.025" height="1.025" fill="#00fcff" />
<rect x="21.525" y="10.250" width="1.025" height="1.025" fill="#00fcff" />
<rect x="22.550" y="10.250" width="1.025" height="1.025" fill="#00fcff" />
<rect x="23.575" y="10.250" width="1.025" height="1.025" fill="#fa3bdb" />
<rect x="24.600" y="10.250" width="1.025" height="1.025" fill="#000000" />
<rect x="12.300" y="11.275" width="1.025" height="1.025" fill="#000000" />
<rect x="13.325" y="11.275" width="1.025" height="1.025" fill="#eaff00" />
<rect x="14.350" y="11.275" width="1.025" height="1.025" fill="#ff00d8" />
<rect x="15.375" y="11.275" width="1.025" height="1.025" fill="#ee6de1" />
<rect x="16.400" y="11.275" width="1.025" height="1.025" fill="#00fcff" />
<rect x="17.425" y="11.275" width="1.025" height="1.025" fill="#00fcff" />
<rect x="18.450" y="11.275" width="1.025" height="1.025" fill="#00f7fa" />
<rect x="19.475" y="11.275" width="1.025" height="1.025" fill="#00ecef" />
<rect x="20.500" y="11.275" width="1.025" height="1.025" fill="#00fcff" />
<rect x="21.525" y="11.275" width="1.025" height="1.025" fill="#00fcff" />
<rect x="22.550" y="11.275" width="1.025" height="1.025" fill="#00fcff" />
<rect x="23.575" y="11.275" width="1.025" height="1.025" fill="#e77ee4" />
<rect x="24.600" y="11.275" width="1.025" height="1.025" fill="#000000" />
<rect x="12.300" y="12.300" width="1.025" height="1.025" fill="#000000" />
<rect x="13.325" y="12.300" width="1.025" height="1.025" fill="#eaff00" />
<rect x="14.350" y="12.300" width="1.025" height="1.025" fill="#ff00d8" />
<rect x="15.375" y="12.300" width="1.025" height="1.025" fill="#ed70e2" />
<rect x="16.400" y="12.300" width="1.025" height="1.025" fill="#de90e7" />
<rect x="17.425" y="12.300" width="1.025" height="1.025" fill="#f750dd" />
<rect x="18.450" y="12.300" width="1.025" height="1.025" fill="#d4a0eb" />
<rect x="19.475" y="12.300" width="1.025" height="1.025" fill="#dc94e8" />
<rect x="20.500" y="12.300" width="1.025" height="1.025" fill="#00fcff" />
<rect x="21.525" y="12.300" width="1.025" height="1.025" fill="#00fcff" />
<rect x="22.550" y="12.300" width="1.025" height="1.025" fill="#27fafe" />
<rect x="23.575" y="12.300" width="1.025" height="1.025" fill="#ea77e3" />
<rect x="24.600" y="12.300" width="1.025" height="1.025" fill="#000000" />
<rect x="12.300" y="13.325" width="1.025" height="1.025" fill="#000000" />
<rect x="13.325" y="13.325" width="1.025" height="1.025" fill="#000000" />
<rect x="14.350" y="13.325" width="1.025" height="1.025" fill="#ff00d8" />
<rect x="15.375" y="13.325" width="1.025" height="1.025" fill="#e289e6" />
<rect x="16.400" y="13.325" width="1.025" height="1.025" fill="#ff00d8" />
<rect x="17.425" y="13.325" width="1.025" height="1.025" fill="#eaff00" />
<rect x="18.450" y="13.325" width="1.025" height="1.025" fill="#eaff00" />
<rect x="19.475" y="13.325" width="1.025" height="1.025" fill="#ff00d8" />
<rect x="20.500" y="13.325" width="1.025" height="1.025" fill="#ff00d8" />
<rect x="21.525" y="13.325" width="1.025" height="1.025" fill="#ff00d8" />
<rect x="22.550" y="13.325" width="1.025" height="1.025" fill="#e8ff00" />
<rect x="23.575" y="13.325" width="1.025" height="1.025" fill="#eaff00" />
<rect x="24.600" y="13.325" width="1.025" height="1.025" fill="#000000" />
<rect x="11.275" y="14.350" width="1.025" height="1.025" fill="#000000" />
<rect x="12.300" y="14.350" width="1.025" height="1.025" fill="#eaff00" />
<rect x="13.325" y="14.350" width="1.025" height="1.025" fill="#ff00d8" />
<rect x="14.350" y="14.350" width="1.025" height="1.025" fill="#ff00d8" />
<rect x="15.375" y="14.350" width="1.025" height="1.025" fill="#ee6ee1" />
<rect x="16.400" y="14.350" width="1.025" height="1.025" fill="#f45ade" />
<rect x="17.425" y="14.350" width="1.025" height="1.025" fill="#000000" />
<rect x="18.450" y="14.350" width="1.025" height="1.025" fill="#000000" />
<rect x="19.475" y="14.350" width="1.025" height="1.025" fill="#fb35da" />
<rect x="20.500" y="14.350" width="1.025" height="1.025" fill="#fb35da" />
<rect x="21.525" y="14.350" width="1.025" height="1.025" fill="#fc32da" />
<rect x="22.550" y="14.350" width="1.025" height="1.025" fill="#000000" />
<rect x="23.575" y="14.350" width="1.025" height="1.025" fill="#000000" />
<rect x="24.600" y="14.350" width="1.025" height="1.025" fill="#000000" />
<rect x="11.275" y="15.375" width="1.025" height="1.025" fill="#000000" />
<rect x="12.300" y="15.375" width="1.025" height="1.025" fill="#ff00d8" />
<rect x="13.325" y="15.375" width="1.025" height="1.025" fill="#ff00d8" />
<rect x="14.350" y="15.375" width="1.025" height="1.025" fill="#ff00d8" />
<rect x="15.375" y="15.375" width="1.025" height="1.025" fill="#fa3fdb" />
<rect x="16.400" y="15.375" width="1.025" height="1.025" fill="#00fcff" />
<rect x="17.425" y="15.375" width="1.025" height="1.025" fill="#00e5e8" />
<rect x="18.450" y="15.375" width="1.025" height="1.025" fill="#00fcff" />
<rect x="19.475" y="15.375" width="1.025" height="1.025" fill="#00fcff" />
<rect x="20.500" y="15.375" width="1.025" height="1.025" fill="#96d8f7" />
<rect x="21.525" y="15.375" width="1.025" height="1.025" fill="#52f3fd" />
<rect x="22.550" y="15.375" width="1.025" height="1.025" fill="#00fcff" />
<rect x="23.575" y="15.375" width="1.025" height="1.025" fill="#00fcff" />
<rect x="24.600" y="15.375" width="1.025" height="1.025" fill="#000000" />
<rect x="11.275" y="16.400" width="1.025" height="1.025" fill="#000000" />
<rect x="12.300" y="16.400" width="1.025" height="1.025" fill="#eaff00" />
<rect x="13.325" y="16.400" width="1.025" height="1.025" fill="#ff00d8" />
<rect x="14.350" y="16.400" width="1.025" height="1.025" fill="#ff00d8" />
<rect x="15.375" y="16.400" width="1.025" height="1.025" fill="#ff00d8" />
<rect x="16.400" y="16.400" width="1.025" height="1.025" fill="#c3b5ef" />
<rect x="17.425" y="16.400" width="1.025" height="1.025" fill="#00fcff" />
<rect x="18.450" y="16.400" width="1.025" height="1.025" fill="#00f7fa" />
<rect x="19.475" y="16.400" width="1.025" height="1.025" fill="#00fcff" />
<rect x="20.500" y="16.400" width="1.025" height="1.025" fill="#000000" />
<rect x="21.525" y="16.400" width="1.025" height="1.025" fill="#80e4f9" />
<rect x="22.550" y="16.400" width="1.025" height="1.025" fill="#f165e0" />
<rect x="23.575" y="16.400" width="1.025" height="1.025" fill="#ff00d8" />
<rect x="24.600" y="16.400" width="1.025" height="1.025" fill="#000000" />
<rect x="12.300" y="17.425" width="1.025" height="1.025" fill="#000000" />
<rect x="13.325" y="17.425" width="1.025" height="1.025" fill="#000000" />
<rect x="14.350" y="17.425" width="1.025" height="1.025" fill="#ff00d8" />
<rect x="15.375" y="17.425" width="1.025" height="1.025" fill="#ff00d8" />
<rect x="16.400" y="17.425" width="1.025" height="1.025" fill="#ff00d8" />
<rect x="17.425" y="17.425" width="1.025" height="1.025" fill="#a7cef4" />
<rect x="18.450" y="17.425" width="1.025" height="1.025" fill="#00fcff" />
<rect x="19.475" y="17.425" width="1.025" height="1.025" fill="#00fcff" />
<rect x="20.500" y="17.425" width="1.025" height="1.025" fill="#000000" />
<rect x="21.525" y="17.425" width="1.025" height="1.025" fill="#000000" />
<rect x="22.550" y="17.425" width="1.025" height="1.025" fill="#ff00d8" />
<rect x="23.575" y="17.425" width="1.025" height="1.025" fill="#ff00d8" />
<rect x="24.600" y="17.425" width="1.025" height="1.025" fill="#000000" />
<rect x="13.325" y="18.450" width="1.025" height="1.025" fill="#000000" />
<rect x="14.350" y="18.450" width="1.025" height="1.025" fill="#eaff00" />
<rect x="15.375" y="18.450" width="1.025" height="1.025" fill="#ff00d8" />
<rect x="16.400" y="18.450" width="1.025" height="1.025" fill="#ff00d8" />
<rect x="17.425" y="18.450" width="1.025" height="1.025" fill="#fa3ddb" />
<rect x="18.450" y="18.450" width="1.025" height="1.025" fill="#00fcff" />
<rect x="19.475" y="18.450" width="1.025" height="1.025" fill="#00f3f6" />
<rect x="20.500" y="18.450" width="1.025" height="1.025" fill="#00fcff" />
<rect x="21.525" y="18.450" width="1.025" height="1.025" fill="#ec72e2" />
<rect x="22.550" y="18.450" width="1.025" height="1.025" fill="#00fcff" />
<rect x="23.575" y="18.450" width="1.025" height="1.025" fill="#ff00d8" />
<rect x="24.600" y="18.450" width="1.025" height="1.025" fill="#000000" />
<rect x="13.325" y="19.475" width="1.025" height="1.025" fill="#000000" />
<rect x="14.350" y="19.475" width="1.025" height="1.025" fill="#c6ff00" />
<rect x="15.375" y="19.475" width="1.025" height="1.025" fill="#ff00d8" />
<rect x="16.400" y="19.475" width="1.025" height="1.025" fill="#ff00d8" />
<rect x="17.425" y="19.475" width="1.025" height="1.025" fill="#ff00d8" />
<rect x="18.450" y="19.475" width="1.025" height="1.025" fill="#df8ee7" />
<rect x="19.475" y="19.475" width="1.025" height="1.025" fill="#00fcff" />
<rect x="20.500" y="19.475" width="1.025" height="1.025" fill="#00fcff" />
<rect x="21.525" y="19.475" width="1.025" height="1.025" fill="#00fcff" />
<rect x="22.550" y="19.475" width="1.025" height="1.025" fill="#d59eea" />
<rect x="23.575" y="19.475" width="1.025" height="1.025" fill="#ff00d8" />
<rect x="24.600" y="19.475" width="1.025" height="1.025" fill="#000000" />
<rect x="13.325" y="20.500" width="1.025" height="1.025" fill="#000000" />
<rect x="14.350" y="20.500" width="1.025" height="1.025" fill="#046100" />
<rect x="15.375" y="20.500" width="1.025" height="1.025" fill="#ff00d8" />
<rect x="16.400" y="20.500" width="1.025" height="1.025" fill="#ff00d8" />
<rect x="17.425" y="20.500" width="1.025" height="1.025" fill="#ff00d8" />
<rect x="18.450" y="20.500" width="1.025" height="1.025" fill="#ff00d8" />
<rect x="19.475" y="20.500" width="1.025" height="1.025" fill="#000000" />
<rect x="20.500" y="20.500" width="1.025" height="1.025" fill="#000000" />
<rect x="21.525" y="20.500" width="1.025" height="1.025" fill="#000000" />
<rect x="22.550" y="20.500" width="1.025" height="1.025" fill="#000000" />
<rect x="23.575" y="20.500" width="1.025" height="1.025" fill="#ff00d8" />
<rect x="24.600" y="20.500" width="1.025" height="1.025" fill="#000000" />
<rect x="13.325" y="21.525" width="1.025" height="1.025" fill="#000000" />
<rect x="14.350" y="21.525" width="1.025" height="1.025" fill="#013d00" />
<rect x="15.375" y="21.525" width="1.025" height="1.025" fill="#eaff00" />
<rect x="16.400" y="21.525" width="1.025" height="1.025" fill="#ff00d8" />
<rect x="17.425" y="21.525" width="1.025" height="1.025" fill="#ff00d8" />
<rect x="18.450" y="21.525" width="1.025" height="1.025" fill="#d3a2eb" />
<rect x="19.475" y="21.525" width="1.025" height="1.025" fill="#00fcff" />
<rect x="20.500" y="21.525" width="1.025" height="1.025" fill="#00fcff" />
<rect x="21.525" y="21.525" width="1.025" height="1.025" fill="#00fcff" />
<rect x="22.550" y="21.525" width="1.025" height="1.025" fill="#66edfc" />
<rect x="23.575" y="21.525" width="1.025" height="1.025" fill="#ff00d8" />
<rect x="24.600" y="21.525" width="1.025" height="1.025" fill="#000000" />
<rect x="13.325" y="22.550" width="1.025" height="1.025" fill="#000000" />
<rect x="14.350" y="22.550" width="1.025" height="1.025" fill="#e7ff00" />
<rect x="15.375" y="22.550" width="1.025" height="1.025" fill="#008b00" />
<rect x="16.400" y="22.550" width="1.025" height="1.025" fill="#eaff00" />
<rect x="17.425" y="22.550" width="1.025" height="1.025" fill="#ff00d8" />
<rect x="18.450" y="22.550" width="1.025" height="1.025" fill="#f944dc" />
<rect x="19.475" y="22.550" width="1.025" height="1.025" fill="#00fcff" />
<rect x="20.500" y="22.550" width="1.025" height="1.025" fill="#00fcff" />
<rect x="21.525" y="22.550" width="1.025" height="1.025" fill="#00fcff" />
<rect x="22.550" y="22.550" width="1.025" height="1.025" fill="#00fcff" />
<rect x="23.575" y="22.550" width="1.025" height="1.025" fill="#ff00d8" />
<rect x="24.600" y="22.550" width="1.025" height="1.025" fill="#000000" />
<rect x="13.325" y="23.575" width="1.025" height="1.025" fill="#000000" />
<rect x="14.350" y="23.575" width="1.025" height="1.025" fill="#eaff00" />
<rect x="15.375" y="23.575" width="1.025" height="1.025" fill="#000000" />
<rect x="16.400" y="23.575" width="1.025" height="1.025" fill="#c8ff00" />
<rect x="17.425" y="23.575" width="1.025" height="1.025" fill="#eaff00" />
<rect x="18.450" y="23.575" width="1.025" height="1.025" fill="#ff00d8" />
<rect x="19.475" y="23.575" width="1.025" height="1.025" fill="#ff00d8" />
<rect x="20.500" y="23.575" width="1.025" height="1.025" fill="#d4a0eb" />
<rect x="21.525" y="23.575" width="1.025" height="1.025" fill="#d59eea" />
<rect x="22.550" y="23.575" width="1.025" height="1.025" fill="#ff00d8" />
<rect x="23.575" y="23.575" width="1.025" height="1.025" fill="#000000" />
<rect x="13.325" y="24.600" width="1.025" height="1.025" fill="#000000" />
<rect x="14.350" y="24.600" width="1.025" height="1.025" fill="#eaff00" />
<rect x="15.375" y="24.600" width="1.025" height="1.025" fill="#ff00d8" />
<rect x="16.400" y="24.600" width="1.025" height="1.025" fill="#000000" />
<rect x="17.425" y="24.600" width="1.025" height="1.025" fill="#000000" />
<rect x="18.450" y="24.600" width="1.025" height="1.025" fill="#000000" />
<rect x="19.475" y="24.600" width="1.025" height="1.025" fill="#000000" />
<rect x="20.500" y="24.600" width="1.025" height="1.025" fill="#000000" />
<rect x="21.525" y="24.600" width="1.025" height="1.025" fill="#000000" />
<rect x="22.550" y="24.600" width="1.025" height="1.025" fill="#000000" />
<rect x="13.325" y="25.625" width="1.025" height="1.025" fill="#000000" />
<rect x="14.350" y="25.625" width="1.025" height="1.025" fill="#eaff00" />
<rect x="15.375" y="25.625" width="1.025" height="1.025" fill="#f74fdd" />
<rect x="16.400" y="25.625" width="1.025" height="1.025" fill="#ff00d8" />
<rect x="17.425" y="25.625" width="1.025" height="1.025" fill="#ff00d8" />
<rect x="18.450" y="25.625" width="1.025" height="1.025" fill="#000000" />
<rect x="13.325" y="26.650" width="1.025" height="1.025" fill="#000000" />
<rect x="14.350" y="26.650" width="1.025" height="1.025" fill="#eaff00" />
<rect x="15.375" y="26.650" width="1.025" height="1.025" fill="#f35cdf" />
<rect x="16.400" y="26.650" width="1.025" height="1.025" fill="#91dbf7" />
<rect x="17.425" y="26.650" width="1.025" height="1.025" fill="#ff00d8" />
<rect x="18.450" y="26.650" width="1.025" height="1.025" fill="#000000" />
<rect x="13.325" y="27.675" width="1.025" height="1.025" fill="#000000" />
<rect x="14.350" y="27.675" width="1.025" height="1.025" fill="#ff00d8" />
<rect x="15.375" y="27.675" width="1.025" height="1.025" fill="#ff00d8" />
<rect x="16.400" y="27.675" width="1.025" height="1.025" fill="#d3a1eb" />
<rect x="17.425" y="27.675" width="1.025" height="1.025" fill="#fb3adb" />
<rect x="18.450" y="27.675" width="1.025" height="1.025" fill="#000000" />
<rect x="11.275" y="28.700" width="1.025" height="1.025" fill="#000000" />
<rect x="12.300" y="28.700" width="1.025" height="1.025" fill="#000000" />
<rect x="13.325" y="28.700" width="1.025" height="1.025" fill="#ff00d8" />
<rect x="14.350" y="28.700" width="1.025" height="1.025" fill="#ff00d8" />
<rect x="15.375" y="28.700" width="1.025" height="1.025" fill="#ff00d8" />
<rect x="16.400" y="28.700" width="1.025" height="1.025" fill="#ff00d8" />
<rect x="17.425" y="28.700" width="1.025" height="1.025" fill="#fd29d9" />
<rect x="18.450" y="28.700" width="1.025" height="1.025" fill="#ff00d8" />
<rect x="19.475" y="28.700" width="1.025" height="1.025" fill="#000000" />
<rect x="20.500" y="28.700" width="1.025" height="1.025" fill="#000000" />
<rect x="9.225" y="29.725" width="1.025" height="1.025" fill="#000000" />
<rect x="10.250" y="29.725" width="1.025" height="1.025" fill="#000000" />
<rect x="11.275" y="29.725" width="1.025" height="1.025" fill="#ff00d8" />
<rect x="12.300" y="29.725" width="1.025" height="1.025" fill="#ff00d8" />
<rect x="13.325" y="29.725" width="1.025" height="1.025" fill="#ff00d8" />
<rect x="14.350" y="29.725" width="1.025" height="1.025" fill="#ff00d8" />
<rect x="15.375" y="29.725" width="1.025" height="1.025" fill="#ff00d8" />
<rect x="16.400" y="29.725" width="1.025" height="1.025" fill="#ff00d8" />
<rect x="17.425" y="29.725" width="1.025" height="1.025" fill="#ff00d8" />
<rect x="18.450" y="29.725" width="1.025" height="1.025" fill="#ff00d8" />
<rect x="19.475" y="29.725" width="1.025" height="1.025" fill="#ff00d8" />
<rect x="20.500" y="29.725" width="1.025" height="1.025" fill="#ff00d8" />
<rect x="21.525" y="29.725" width="1.025" height="1.025" fill="#000000" />
<rect x="22.550" y="29.725" width="1.025" height="1.025" fill="#000000" />
<rect x="23.575" y="29.725" width="1.025" height="1.025" fill="#000000" />
<rect x="7.175" y="30.750" width="1.025" height="1.025" fill="#000000" />
<rect x="8.200" y="30.750" width="1.025" height="1.025" fill="#000000" />
<rect x="9.225" y="30.750" width="1.025" height="1.025" fill="#fe1cd9" />
<rect x="10.250" y="30.750" width="1.025" height="1.025" fill="#fd24d9" />
<rect x="11.275" y="30.750" width="1.025" height="1.025" fill="#ff00d8" />
<rect x="12.300" y="30.750" width="1.025" height="1.025" fill="#ff00d8" />
<rect x="13.325" y="30.750" width="1.025" height="1.025" fill="#fd24d9" />
<rect x="14.350" y="30.750" width="1.025" height="1.025" fill="#fd2ada" />
<rect x="15.375" y="30.750" width="1.025" height="1.025" fill="#ee6de1" />
<rect x="16.400" y="30.750" width="1.025" height="1.025" fill="#f557de" />
<rect x="17.425" y="30.750" width="1.025" height="1.025" fill="#ff00d8" />
<rect x="18.450" y="30.750" width="1.025" height="1.025" fill="#ff00d8" />
<rect x="19.475" y="30.750" width="1.025" height="1.025" fill="#da96e9" />
<rect x="20.500" y="30.750" width="1.025" height="1.025" fill="#ec73e2" />
<rect x="21.525" y="30.750" width="1.025" height="1.025" fill="#f557de" />
<rect x="22.550" y="30.750" width="1.025" height="1.025" fill="#ff00d8" />
<rect x="23.575" y="30.750" width="1.025" height="1.025" fill="#ff00d8" />
<rect x="24.600" y="30.750" width="1.025" height="1.025" fill="#000000" />
<rect x="25.625" y="30.750" width="1.025" height="1.025" fill="#000000" />
<rect x="6.150" y="31.775" width="1.025" height="1.025" fill="#000000" />
<rect x="7.175" y="31.775" width="1.025" height="1.025" fill="#ff00d8" />
<rect x="8.200" y="31.775" width="1.025" height="1.025" fill="#f941db" />
<rect x="9.225" y="31.775" width="1.025" height="1.025" fill="#6debfb" />
<rect x="10.250" y="31.775" width="1.025" height="1.025" fill="#d1a5ec" />
<rect x="11.275" y="31.775" width="1.025" height="1.025" fill="#f74fdd" />
<rect x="12.300" y="31.775" width="1.025" height="1.025" fill="#c9aeed" />
<rect x="13.325" y="31.775" width="1.025" height="1.025" fill="#b2c5f2" />
<rect x="14.350" y="31.775" width="1.025" height="1.025" fill="#b5c3f2" />
<rect x="15.375" y="31.775" width="1.025" height="1.025" fill="#b4c3f2" />
<rect x="16.400" y="31.775" width="1.025" height="1.025" fill="#abcbf4" />
<rect x="17.425" y="31.775" width="1.025" height="1.025" fill="#f261df" />
<rect x="18.450" y="31.775" width="1.025" height="1.025" fill="#f067e0" />
<rect x="19.475" y="31.775" width="1.025" height="1.025" fill="#5ff0fc" />
<rect x="20.500" y="31.775" width="1.025" height="1.025" fill="#4af5fd" />
<rect x="21.525" y="31.775" width="1.025" height="1.025" fill="#bcbcf0" />
<rect x="22.550" y="31.775" width="1.025" height="1.025" fill="#ee6de1" />
<rect x="23.575" y="31.775" width="1.025" height="1.025" fill="#fc31da" />
<rect x="24.600" y="31.775" width="1.025" height="1.025" fill="#aec8f3" />
<rect x="25.625" y="31.775" width="1.025" height="1.025" fill="#ff00d8" />
<rect x="26.650" y="31.775" width="1.025" height="1.025" fill="#000000" />
<rect x="5.125" y="32.800" width="1.025" height="1.025" fill="#000000" />
<rect x="6.150" y="32.800" width="1.025" height="1.025" fill="#afff00" />
<rect x="7.175" y="32.800" width="1.025" height="1.025" fill="#ff00d8" />
<rect x="8.200" y="32.800" width="1.025" height="1.025" fill="#f74fdd" />
<rect x="9.225" y="32.800" width="1.025" height="1.025" fill="#79e7fa" />
<rect x="10.250" y="32.800" width="1.025" height="1.025" fill="#caaded" />
<rect x="11.275" y="32.800" width="1.025" height="1.025" fill="#f557de" />
<rect x="12.300" y="32.800" width="1.025" height="1.025" fill="#9cd5f6" />
<rect x="13.325" y="32.800" width="1.025" height="1.025" fill="#4cf4fd" />
<rect x="14.350" y="32.800" width="1.025" height="1.025" fill="#63effc" />
<rect x="15.375" y="32.800" width="1.025" height="1.025" fill="#64eefc" />
<rect x="16.400" y="32.800" width="1.025" height="1.025" fill="#5ff0fc" />
<rect x="17.425" y="32.800" width="1.025" height="1.025" fill="#d998e9" />
<rect x="18.450" y="32.800" width="1.025" height="1.025" fill="#e681e5" />
<rect x="19.475" y="32.800" width="1.025" height="1.025" fill="#9bd6f6" />
<rect x="20.500" y="32.800" width="1.025" height="1.025" fill="#4af5fd" />
<rect x="21.525" y="32.800" width="1.025" height="1.025" fill="#6becfb" />
<rect x="22.550" y="32.800" width="1.025" height="1.025" fill="#e08de7" />
<rect x="23.575" y="32.800" width="1.025" height="1.025" fill="#f557de" />
<rect x="24.600" y="32.800" width="1.025" height="1.025" fill="#ff0ed8" />
<rect x="25.625" y="32.800" width="1.025" height="1.025" fill="#d0a6ec" />
<rect x="26.650" y="32.800" width="1.025" height="1.025" fill="#eaff00" />
<rect x="27.675" y="32.800" width="1.025" height="1.025" fill="#000000" />
<rect x="5.125" y="33.825" width="1.025" height="1.025" fill="#000000" />
<rect x="6.150" y="33.825" width="1.025" height="1.025" fill="#d1ff00" />
<rect x="7.175" y="33.825" width="1.025" height="1.025" fill="#ff00d8" />
<rect x="8.200" y="33.825" width="1.025" height="1.025" fill="#ef69e1" />
<rect x="9.225" y="33.825" width="1.025" height="1.025" fill="#ff00d8" />
<rect x="10.250" y="33.825" width="1.025" height="1.025" fill="#ff00d8" />
<rect x="11.275" y="33.825" width="1.025" height="1.025" fill="#ff00d8" />
<rect x="12.300" y="33.825" width="1.025" height="1.025" fill="#b6c1f2" />
<rect x="13.325" y="33.825" width="1.025" height="1.025" fill="#00fcff" />
<rect x="14.350" y="33.825" width="1.025" height="1.025" fill="#00fcff" />
<rect x="15.375" y="33.825" width="1.025" height="1.025" fill="#6debfb" />
<rect x="16.400" y="33.825" width="1.025" height="1.025" fill="#00fcff" />
<rect x="17.425" y="33.825" width="1.025" height="1.025" fill="#dc93e8" />
<rect x="18.450" y="33.825" width="1.025" height="1.025" fill="#ff00d8" />
<rect x="19.475" y="33.825" width="1.025" height="1.025" fill="#a0d2f5" />
<rect x="20.500" y="33.825" width="1.025" height="1.025" fill="#3cf7fe" />
<rect x="21.525" y="33.825" width="1.025" height="1.025" fill="#6debfb" />
<rect x="22.550" y="33.825" width="1.025" height="1.025" fill="#a5cff5" />
<rect x="23.575" y="33.825" width="1.025" height="1.025" fill="#ff00d8" />
<rect x="24.600" y="33.825" width="1.025" height="1.025" fill="#ff00d8" />
<rect x="25.625" y="33.825" width="1.025" height="1.025" fill="#ff00d8" />
<rect x="26.650" y="33.825" width="1.025" height="1.025" fill="#eaff00" />
<rect x="27.675" y="33.825" width="1.025" height="1.025" fill="#000000" />
<rect x="5.125" y="34.850" width="1.025" height="1.025" fill="#000000" />
<rect x="6.150" y="34.850" width="1.025" height="1.025" fill="#d5ff00" />
<rect x="7.175" y="34.850" width="1.025" height="1.025" fill="#ff00d8" />
<rect x="8.200" y="34.850" width="1.025" height="1.025" fill="#fe1bd9" />
<rect x="9.225" y="34.850" width="1.025" height="1.025" fill="#ff00d8" />
<rect x="10.250" y="34.850" width="1.025" height="1.025" fill="#000000" />
<rect x="11.275" y="34.850" width="1.025" height="1.025" fill="#ff00d8" />
<rect x="12.300" y="34.850" width="1.025" height="1.025" fill="#f557de" />
<rect x="13.325" y="34.850" width="1.025" height="1.025" fill="#fa40db" />
<rect x="14.350" y="34.850" width="1.025" height="1.025" fill="#c8afee" />
<rect x="15.375" y="34.850" width="1.025" height="1.025" fill="#00fcff" />
<rect x="16.400" y="34.850" width="1.025" height="1.025" fill="#6debfb" />
<rect x="17.425" y="34.850" width="1.025" height="1.025" fill="#ff00d8" />
<rect x="18.450" y="34.850" width="1.025" height="1.025" fill="#000000" />
<rect x="19.475" y="34.850" width="1.025" height="1.025" fill="#f35cdf" />
<rect x="20.500" y="34.850" width="1.025" height="1.025" fill="#00fcff" />
<rect x="21.525" y="34.850" width="1.025" height="1.025" fill="#61effc" />
<rect x="22.550" y="34.850" width="1.025" height="1.025" fill="#ff00d8" />
<rect x="23.575" y="34.850" width="1.025" height="1.025" fill="#ff00d8" />
<rect x="24.600" y="34.850" width="1.025" height="1.025" fill="#000000" />
<rect x="25.625" y="34.850" width="1.025" height="1.025" fill="#ff00d8" />
<rect x="26.650" y="34.850" width="1.025" height="1.025" fill="#eaff00" />
<rect x="27.675" y="34.850" width="1.025" height="1.025" fill="#000000" />
<rect x="5.125" y="35.875" width="1.025" height="1.025" fill="#000000" />
<rect x="6.150" y="35.875" width="1.025" height="1.025" fill="#d5ff00" />
<rect x="7.175" y="35.875" width="1.025" height="1.025" fill="#ff00d8" />
<rect x="8.200" y="35.875" width="1.025" height="1.025" fill="#ff00d8" />
<rect x="9.225" y="35.875" width="1.025" height="1.025" fill="#ff00d8" />
<rect x="10.250" y="35.875" width="1.025" height="1.025" fill="#000000" />
<rect x="11.275" y="35.875" width="1.025" height="1.025" fill="#eaff00" />
<rect x="12.300" y="35.875" width="1.025" height="1.025" fill="#ff00d8" />
<rect x="13.325" y="35.875" width="1.025" height="1.025" fill="#ff00d8" />
<rect x="14.350" y="35.875" width="1.025" height="1.025" fill="#ff00d8" />
<rect x="15.375" y="35.875" width="1.025" height="1.025" fill="#e582e5" />
<rect x="16.400" y="35.875" width="1.025" height="1.025" fill="#f941db" />
<rect x="17.425" y="35.875" width="1.025" height="1.025" fill="#ff00d8" />
<rect x="18.450" y="35.875" width="1.025" height="1.025" fill="#000000" />
<rect x="19.475" y="35.875" width="1.025" height="1.025" fill="#ff00d8" />
<rect x="20.500" y="35.875" width="1.025" height="1.025" fill="#d4a0eb" />
<rect x="21.525" y="35.875" width="1.025" height="1.025" fill="#e979e3" />
<rect x="22.550" y="35.875" width="1.025" height="1.025" fill="#ff00d8" />
<rect x="23.575" y="35.875" width="1.025" height="1.025" fill="#ff00d8" />
<rect x="24.600" y="35.875" width="1.025" height="1.025" fill="#000000" />
<rect x="25.625" y="35.875" width="1.025" height="1.025" fill="#fe11d8" />
<rect x="26.650" y="35.875" width="1.025" height="1.025" fill="#eaff00" />
<rect x="27.675" y="35.875" width="1.025" height="1.025" fill="#000000" />
<rect x="5.125" y="36.900" width="1.025" height="1.025" fill="#000000" />
<rect x="6.150" y="36.900" width="1.025" height="1.025" fill="#dcff00" />
<rect x="7.175" y="36.900" width="1.025" height="1.025" fill="#ff00d8" />
<rect x="8.200" y="36.900" width="1.025" height="1.025" fill="#f941db" />
<rect x="9.225" y="36.900" width="1.025" height="1.025" fill="#ff00d8" />
<rect x="10.250" y="36.900" width="1.025" height="1.025" fill="#000000" />
<rect x="11.275" y="36.900" width="1.025" height="1.025" fill="#eaff00" />
<rect x="12.300" y="36.900" width="1.025" height="1.025" fill="#ff00d8" />
<rect x="13.325" y="36.900" width="1.025" height="1.025" fill="#ff00d8" />
<rect x="14.350" y="36.900" width="1.025" height="1.025" fill="#ff00d8" />
<rect x="15.375" y="36.900" width="1.025" height="1.025" fill="#ff00d8" />
<rect x="16.400" y="36.900" width="1.025" height="1.025" fill="#ff00d8" />
<rect x="17.425" y="36.900" width="1.025" height="1.025" fill="#ff00d8" />
<rect x="18.450" y="36.900" width="1.025" height="1.025" fill="#000000" />
<rect x="19.475" y="36.900" width="1.025" height="1.025" fill="#ff00d8" />
<rect x="20.500" y="36.900" width="1.025" height="1.025" fill="#ff00d8" />
<rect x="21.525" y="36.900" width="1.025" height="1.025" fill="#ff00d8" />
<rect x="22.550" y="36.900" width="1.025" height="1.025" fill="#ff00d8" />
<rect x="23.575" y="36.900" width="1.025" height="1.025" fill="#ff00d8" />
<rect x="24.600" y="36.900" width="1.025" height="1.025" fill="#000000" />
<rect x="25.625" y="36.900" width="1.025" height="1.025" fill="#fe1ed9" />
<rect x="26.650" y="36.900" width="1.025" height="1.025" fill="#eaff00" />
<rect x="27.675" y="36.900" width="1.025" height="1.025" fill="#000000" />
</svg>