<svg xmlns="http://www.w3.org/2000/svg" width="37.925" height="37.925" shape-rendering="crispEdges" style="image-rendering: pixelated;">
<rect x="14.350" y="6.150" width="1.025" height="1.025" fill="#000000" />
<rect x="15.375" y="6.150" width="1.025" height="1.025" fill="#000000" />
<rect x="16.400" y="6.150" width="1.025" height="1.025" fill="#000000" />
<rect x="17.425" y="6.150" width="1.025" height="1.025" fill="#000000" />
<rect x="18.450" y="6.150" width="1.025" height="1.025" fill="#000000" />
<rect x="19.475" y="6.150" width="1.025" height="1.025" fill="#000000" />
<rect x="20.500" y="6.150" width="1.025" height="1.025" fill="#000000" />
<rect x="21.525" y="6.150" width="1.025" height="1.025" fill="#000000" />
<rect x="22.550" y="6.150" width="1.025" height="1.025" fill="#000000" />
<rect x="13.325" y="7.175" width="1.025" height="1.025" fill="#000000" />
<rect x="14.350" y="7.175" width="1.025" height="1.025" fill="#baff00" />
<rect x="15.375" y="7.175" width="1.025" height="1.025" fill="#ff00d8" />
<rect x="16.400" y="7.175" width="1.025" height="1.025" fill="#df8fe7" />
<rect x="17.425" y="7.175" width="1.025" height="1.025" fill="#94daf7" />
<rect x="18.450" y="7.175" width="1.025" height="1.025" fill="#a5cff5" />
<rect x="19.475" y="7.175" width="1.025" height="1.025" fill="#babdf1" />
<rect x="20.500" y="7.175" width="1.025" height="1.025" fill="#b3c4f2" />
<rect x="21.525" y="7.175" width="1.025" height="1.025" fill="#9ed4f6" />
<rect x="22.550" y="7.175" width="1.025" height="1.025" fill="#ff00d8" />
<rect x="23.575" y="7.175" width="1.025" height="1.025" fill="#000000" />
<rect x="12.300" y="8.200" width="1.025" height="1.025" fill="#000000" />
<rect x="13.325" y="8.200" width="1.025" height="1.025" fill="#024800" />
<rect x="14.350" y="8.200" width="1.025" height="1.025" fill="#ff00d8" />
<rect x="15.375" y="8.200" width="1.025" height="1.025" fill="#58f2fd" />
<rect x="16.400" y="8.200" width="1.025" height="1.025" fill="#00fcff" />
<rect x="17.425" y="8.200" width="1.025" height="1.025" fill="#00c9cc" />
<rect x="18.450" y="8.200" width="1.025" height="1.025" fill="#00e5e8" />
<rect x="19.475" y="8.200" width="1.025" height="1.025" fill="#00e5e8" />
<rect x="20.500" y="8.200" width="1.025" height="1.025" fill="#00d5d8" />
<rect x="21.525" y="8.200" width="1.025" height="1.025" fill="#00fbfe" />
<rect x="22.550" y="8.200" width="1.025" height="1.025" fill="#00fcff" />
<rect x="23.575" y="8.200" width="1.025" height="1.025" fill="#ff00d8" />
<rect x="24.600" y="8.200" width="1.025" height="1.025" fill="#000000" />
<rect x="12.300" y="9.225" width="1.025" height="1.025" fill="#000000" />
<rect x="13.325" y="9.225" width="1.025" height="1.025" fill="#87ff03" />
<rect x="14.350" y="9.225" width="1.025" height="1.025" fill="#ff00d8" />
<rect x="15.375" y="9.225" width="1.025" height="1.025" fill="#a8cdf4" />
<rect x="16.400" y="9.225" width="1.025" height="1.025" fill="#00f2f5" />
<rect x="17.425" y="9.225" width="1.025" height="1.025" fill="#00dfe2" />
<rect x="18.450" y="9.225" width="1.025" height="1.025" fill="#00989a" />
<rect x="19.475" y="9.225" width="1.025" height="1.025" fill="#007f81" />
<rect x="20.500" y="9.225" width="1.025" height="1.025" fill="#00dcde" />
<rect x="21.525" y="9.225" width="1.025" height="1.025" fill="#00f0f3" />
<rect x="22.550" y="9.225" width="1.025" height="1.025" fill="#00f3f6" />
<rect x="23.575" y="9.225" width="1.025" height="1.025" fill="#dd91e8" />
<rect x="24.600" y="9.225" width="1.025" height="1.025" fill="#000000" />
<rect x="12.300" y="10.250" width="1.025" height="1.025" fill="#000000" />
<rect x="13.325" y="10.250" width="1.025" height="1.025" fill="#89ff03" />
<rect x="14.350" y="10.250" width="1.025" height="1.025" fill="#ff00d8" />
<rect x="15.375" y="10.250" width="1.025" height="1.025" fill="#aaccf4" />
<rect x="16.400" y="10.250" width="1.025" height="1.025" fill="#00f6f9" />
<rect x="17.425" y="10.250" width="1.025" height="1.025" fill="#00c6c8" />
<rect x="18.450" y="10.250" width="1.025" height="1.025" fill="#00ced1" />
<rect x="19.475" y="10.250" width="1.025" height="1.025" fill="#00b4b7" />
<rect x="20.500" y="10.250" width="1.025" height="1.025" fill="#00d1d3" />
<rect x="21.525" y="10.250" width="1.025" height="1.025" fill="#00fcff" />
<rect x="22.550" y="10.250" width="1.025" height="1.025" fill="#00fcff" />
<rect x="23.575" y="10.250" width="1.025" height="1.025" fill="#fd27d9" />
<rect x="24.600" y="10.250" width="1.025" height="1.025" fill="#000000" />
<rect x="12.300" y="11.275" width="1.025" height="1.025" fill="#000000" />
<rect x="13.325" y="11.275" width="1.025" height="1.025" fill="#7cff04" />
<rect x="14.350" y="11.275" width="1.025" height="1.025" fill="#ff00d8" />
<rect x="15.375" y="11.275" width="1.025" height="1.025" fill="#f651dd" />
<rect x="16.400" y="11.275" width="1.025" height="1.025" fill="#00fcff" />
<rect x="17.425" y="11.275" width="1.025" height="1.025" fill="#00999b" />
<rect x="18.450" y="11.275" width="1.025" height="1.025" fill="#009799" />
<rect x="19.475" y="11.275" width="1.025" height="1.025" fill="#008788" />
<rect x="20.500" y="11.275" width="1.025" height="1.025" fill="#00cacc" />
<rect x="21.525" y="11.275" width="1.025" height="1.025" fill="#00fcff" />
<rect x="22.550" y="11.275" width="1.025" height="1.025" fill="#00e6e8" />
<rect x="23.575" y="11.275" width="1.025" height="1.025" fill="#e18be6" />
<rect x="24.600" y="11.275" width="1.025" height="1.025" fill="#000000" />
<rect x="12.300" y="12.300" width="1.025" height="1.025" fill="#000000" />
<rect x="13.325" y="12.300" width="1.025" height="1.025" fill="#028000" />
<rect x="14.350" y="12.300" width="1.025" height="1.025" fill="#ff00d8" />
<rect x="15.375" y="12.300" width="1.025" height="1.025" fill="#f45ade" />
<rect x="16.400" y="12.300" width="1.025" height="1.025" fill="#ccaaed" />
<rect x="17.425" y="12.300" width="1.025" height="1.025" fill="#ff00d8" />
<rect x="18.450" y="12.300" width="1.025" height="1.025" fill="#f165e0" />
<rect x="19.475" y="12.300" width="1.025" height="1.025" fill="#fc2bda" />
<rect x="20.500" y="12.300" width="1.025" height="1.025" fill="#00fcff" />
<rect x="21.525" y="12.300" width="1.025" height="1.025" fill="#00fcff" />
<rect x="22.550" y="12.300" width="1.025" height="1.025" fill="#00fcff" />
<rect x="23.575" y="12.300" width="1.025" height="1.025" fill="#f651dd" />
<rect x="24.600" y="12.300" width="1.025" height="1.025" fill="#000000" />
<rect x="12.300" y="13.325" width="1.025" height="1.025" fill="#000000" />
<rect x="13.325" y="13.325" width="1.025" height="1.025" fill="#000000" />
<rect x="14.350" y="13.325" width="1.025" height="1.025" fill="#ff00d8" />
<rect x="15.375" y="13.325" width="1.025" height="1.025" fill="#d89ae9" />
<rect x="16.400" y="13.325" width="1.025" height="1.025" fill="#ff00d8" />
<rect x="17.425" y="13.325" width="1.025" height="1.025" fill="#047100" />
<rect x="18.450" y="13.325" width="1.025" height="1.025" fill="#2fff00" />
<rect x="19.475" y="13.325" width="1.025" height="1.025" fill="#eaff00" />
<rect x="20.500" y="13.325" width="1.025" height="1.025" fill="#ff00d8" />
<rect x="21.525" y="13.325" width="1.025" height="1.025" fill="#ff00d8" />
<rect x="22.550" y="13.325" width="1.025" height="1.025" fill="#046c00" />
<rect x="23.575" y="13.325" width="1.025" height="1.025" fill="#44ff06" />
<rect x="24.600" y="13.325" width="1.025" height="1.025" fill="#000000" />
<rect x="11.275" y="14.350" width="1.025" height="1.025" fill="#000000" />
<rect x="12.300" y="14.350" width="1.025" height="1.025" fill="#e1ff00" />
<rect x="13.325" y="14.350" width="1.025" height="1.025" fill="#eaff00" />
<rect x="14.350" y="14.350" width="1.025" height="1.025" fill="#ff00d8" />
<rect x="15.375" y="14.350" width="1.025" height="1.025" fill="#ed70e2" />
<rect x="16.400" y="14.350" width="1.025" height="1.025" fill="#fc2dda" />
<rect x="17.425" y="14.350" width="1.025" height="1.025" fill="#000000" />
<rect x="18.450" y="14.350" width="1.025" height="1.025" fill="#000000" />
<rect x="19.475" y="14.350" width="1.025" height="1.025" fill="#ff00d8" />
<rect x="20.500" y="14.350" width="1.025" height="1.025" fill="#ff00d8" />
<rect x="21.525" y="14.350" width="1.025" height="1.025" fill="#ff00d8" />
<rect x="22.550" y="14.350" width="1.025" height="1.025" fill="#000000" />
<rect x="23.575" y="14.350" width="1.025" height="1.025" fill="#000000" />
<rect x="24.600" y="14.350" width="1.025" height="1.025" fill="#000000" />
<rect x="11.275" y="15.375" width="1.025" height="1.025" fill="#000000" />
<rect x="12.300" y="15.375" width="1.025" height="1.025" fill="#eaff00" />
<rect x="13.325" y="15.375" width="1.025" height="1.025" fill="#eaff00" />
<rect x="14.350" y="15.375" width="1.025" height="1.025" fill="#ff00d8" />
<rect x="15.375" y="15.375" width="1.025" height="1.025" fill="#ff00d8" />
<rect x="16.400" y="15.375" width="1.025" height="1.025" fill="#00d3d6" />
<rect x="17.425" y="15.375" width="1.025" height="1.025" fill="#007a7c" />
<rect x="18.450" y="15.375" width="1.025" height="1.025" fill="#00e6e9" />
<rect x="19.475" y="15.375" width="1.025" height="1.025" fill="#00fcff" />
<rect x="20.500" y="15.375" width="1.025" height="1.025" fill="#9ad6f6" />
<rect x="21.525" y="15.375" width="1.025" height="1.025" fill="#00fcff" />
<rect x="22.550" y="15.375" width="1.025" height="1.025" fill="#00dadd" />
<rect x="23.575" y="15.375" width="1.025" height="1.025" fill="#00fcff" />
<rect x="24.600" y="15.375" width="1.025" height="1.025" fill="#000000" />
<rect x="11.275" y="16.400" width="1.025" height="1.025" fill="#000000" />
<rect x="12.300" y="16.400" width="1.025" height="1.025" fill="#e0ff00" />
<rect x="13.325" y="16.400" width="1.025" height="1.025" fill="#eaff00" />
<rect x="14.350" y="16.400" width="1.025" height="1.025" fill="#eaff00" />
<rect x="15.375" y="16.400" width="1.025" height="1.025" fill="#ff00d8" />
<rect x="16.400" y="16.400" width="1.025" height="1.025" fill="#bdbbf0" />
<rect x="17.425" y="16.400" width="1.025" height="1.025" fill="#00bfc1" />
<rect x="18.450" y="16.400" width="1.025" height="1.025" fill="#008d8f" />
<rect x="19.475" y="16.400" width="1.025" height="1.025" fill="#00fcff" />
<rect x="20.500" y="16.400" width="1.025" height="1.025" fill="#f166e0" />
<rect x="21.525" y="16.400" width="1.025" height="1.025" fill="#7de5fa" />
<rect x="22.550" y="16.400" width="1.025" height="1.025" fill="#fe1bd9" />
<rect x="23.575" y="16.400" width="1.025" height="1.025" fill="#ff00d8" />
<rect x="24.600" y="16.400" width="1.025" height="1.025" fill="#000000" />
<rect x="12.300" y="17.425" width="1.025" height="1.025" fill="#000000" />
<rect x="13.325" y="17.425" width="1.025" height="1.025" fill="#bdff00" />
<rect x="14.350" y="17.425" width="1.025" height="1.025" fill="#eaff00" />
<rect x="15.375" y="17.425" width="1.025" height="1.025" fill="#eaff00" />
<rect x="16.400" y="17.425" width="1.025" height="1.025" fill="#ff00d8" />
<rect x="17.425" y="17.425" width="1.025" height="1.025" fill="#7ce5fa" />
<rect x="18.450" y="17.425" width="1.025" height="1.025" fill="#00ced1" />
<rect x="19.475" y="17.425" width="1.025" height="1.025" fill="#00f9fc" />
<rect x="20.500" y="17.425" width="1.025" height="1.025" fill="#000000" />
<rect x="21.525" y="17.425" width="1.025" height="1.025" fill="#000000" />
<rect x="22.550" y="17.425" width="1.025" height="1.025" fill="#ff00d8" />
<rect x="23.575" y="17.425" width="1.025" height="1.025" fill="#ff00d8" />
<rect x="24.600" y="17.425" width="1.025" height="1.025" fill="#000000" />
<rect x="13.325" y="18.450" width="1.025" height="1.025" fill="#000100" />
<rect x="14.350" y="18.450" width="1.025" height="1.025" fill="#eaff00" />
<rect x="15.375" y="18.450" width="1.025" height="1.025" fill="#eaff00" />
<rect x="16.400" y="18.450" width="1.025" height="1.025" fill="#ff00d8" />
<rect x="17.425" y="18.450" width="1.025" height="1.025" fill="#fe1cd9" />
<rect x="18.450" y="18.450" width="1.025" height="1.025" fill="#00fcff" />
<rect x="19.475" y="18.450" width="1.025" height="1.025" fill="#007d7e" />
<rect x="20.500" y="18.450" width="1.025" height="1.025" fill="#00fcff" />
<rect x="21.525" y="18.450" width="1.025" height="1.025" fill="#eb74e2" />
<rect x="22.550" y="18.450" width="1.025" height="1.025" fill="#00fcff" />
<rect x="23.575" y="18.450" width="1.025" height="1.025" fill="#ff00d8" />
<rect x="24.600" y="18.450" width="1.025" height="1.025" fill="#000000" />
<rect x="13.325" y="19.475" width="1.025" height="1.025" fill="#000000" />
<rect x="14.350" y="19.475" width="1.025" height="1.025" fill="#eaff00" />
<rect x="15.375" y="19.475" width="1.025" height="1.025" fill="#eaff00" />
<rect x="16.400" y="19.475" width="1.025" height="1.025" fill="#ff00d8" />
<rect x="17.425" y="19.475" width="1.025" height="1.025" fill="#ff00d8" />
<rect x="18.450" y="19.475" width="1.025" height="1.025" fill="#e08ce7" />
<rect x="19.475" y="19.475" width="1.025" height="1.025" fill="#00fcff" />
<rect x="20.500" y="19.475" width="1.025" height="1.025" fill="#00e9ec" />
<rect x="21.525" y="19.475" width="1.025" height="1.025" fill="#00fcff" />
<rect x="22.550" y="19.475" width="1.025" height="1.025" fill="#d3a1eb" />
<rect x="23.575" y="19.475" width="1.025" height="1.025" fill="#ff00d8" />
<rect x="24.600" y="19.475" width="1.025" height="1.025" fill="#000000" />
<rect x="13.325" y="20.500" width="1.025" height="1.025" fill="#000000" />
<rect x="14.350" y="20.500" width="1.025" height="1.025" fill="#89ff03" />
<rect x="15.375" y="20.500" width="1.025" height="1.025" fill="#eaff00" />
<rect x="16.400" y="20.500" width="1.025" height="1.025" fill="#ff00d8" />
<rect x="17.425" y="20.500" width="1.025" height="1.025" fill="#ff00d8" />
<rect x="18.450" y="20.500" width="1.025" height="1.025" fill="#ff00d8" />
<rect x="19.475" y="20.500" width="1.025" height="1.025" fill="#000000" />
<rect x="20.500" y="20.500" width="1.025" height="1.025" fill="#000000" />
<rect x="21.525" y="20.500" width="1.025" height="1.025" fill="#000000" />
<rect x="22.550" y="20.500" width="1.025" height="1.025" fill="#df8fe7" />
<rect x="23.575" y="20.500" width="1.025" height="1.025" fill="#ff00d8" />
<rect x="24.600" y="20.500" width="1.025" height="1.025" fill="#000000" />
<rect x="13.325" y="21.525" width="1.025" height="1.025" fill="#000000" />
<rect x="14.350" y="21.525" width="1.025" height="1.025" fill="#012300" />
<rect x="15.375" y="21.525" width="1.025" height="1.025" fill="#89ff03" />
<rect x="16.400" y="21.525" width="1.025" height="1.025" fill="#eaff00" />
<rect x="17.425" y="21.525" width="1.025" height="1.025" fill="#ff00d8" />
<rect x="18.450" y="21.525" width="1.025" height="1.025" fill="#c8afee" />
<rect x="19.475" y="21.525" width="1.025" height="1.025" fill="#00fcff" />
<rect x="20.500" y="21.525" width="1.025" height="1.025" fill="#00fcff" />
<rect x="21.525" y="21.525" width="1.025" height="1.025" fill="#00fcff" />
<rect x="22.550" y="21.525" width="1.025" height="1.025" fill="#00fcff" />
<rect x="23.575" y="21.525" width="1.025" height="1.025" fill="#ff00d8" />
<rect x="24.600" y="21.525" width="1.025" height="1.025" fill="#000000" />
<rect x="13.325" y="22.550" width="1.025" height="1.025" fill="#000000" />
<rect x="14.350" y="22.550" width="1.025" height="1.025" fill="#eaff00" />
<rect x="15.375" y="22.550" width="1.025" height="1.025" fill="#012300" />
<rect x="16.400" y="22.550" width="1.025" height="1.025" fill="#000000" />
<rect x="17.425" y="22.550" width="1.025" height="1.025" fill="#a2ff00" />
<rect x="18.450" y="22.550" width="1.025" height="1.025" fill="#fe1bd9" />
<rect x="19.475" y="22.550" width="1.025" height="1.025" fill="#00fcff" />
<rect x="20.500" y="22.550" width="1.025" height="1.025" fill="#00fcff" />
<rect x="21.525" y="22.550" width="1.025" height="1.025" fill="#009799" />
<rect x="22.550" y="22.550" width="1.025" height="1.025" fill="#00fcff" />
<rect x="23.575" y="22.550" width="1.025" height="1.025" fill="#000000" />
<rect x="13.325" y="23.575" width="1.025" height="1.025" fill="#000000" />
<rect x="14.350" y="23.575" width="1.025" height="1.025" fill="#ff00d8" />
<rect x="15.375" y="23.575" width="1.025" height="1.025" fill="#eaff00" />
<rect x="16.400" y="23.575" width="1.025" height="1.025" fill="#68ff05" />
<rect x="17.425" y="23.575" width="1.025" height="1.025" fill="#000000" />
<rect x="18.450" y="23.575" width="1.025" height="1.025" fill="#024100" />
<rect x="19.475" y="23.575" width="1.025" height="1.025" fill="#eaff00" />
<rect x="20.500" y="23.575" width="1.025" height="1.025" fill="#ff00d8" />
<rect x="21.525" y="23.575" width="1.025" height="1.025" fill="#e18be6" />
<rect x="22.550" y="23.575" width="1.025" height="1.025" fill="#000000" />
<rect x="13.325" y="24.600" width="1.025" height="1.025" fill="#000000" />
<rect x="14.350" y="24.600" width="1.025" height="1.025" fill="#ef6be1" />
<rect x="15.375" y="24.600" width="1.025" height="1.025" fill="#ff00d8" />
<rect x="16.400" y="24.600" width="1.025" height="1.025" fill="#eaff00" />
<rect x="17.425" y="24.600" width="1.025" height="1.025" fill="#68ff05" />
<rect x="18.450" y="24.600" width="1.025" height="1.025" fill="#000000" />
<rect x="19.475" y="24.600" width="1.025" height="1.025" fill="#000000" />
<rect x="20.500" y="24.600" width="1.025" height="1.025" fill="#000000" />
<rect x="21.525" y="24.600" width="1.025" height="1.025" fill="#000000" />
<rect x="13.325" y="25.625" width="1.025" height="1.025" fill="#000000" />
<rect x="14.350" y="25.625" width="1.025" height="1.025" fill="#ed71e2" />
<rect x="15.375" y="25.625" width="1.025" height="1.025" fill="#f557de" />
<rect x="16.400" y="25.625" width="1.025" height="1.025" fill="#ff00d8" />
<rect x="17.425" y="25.625" width="1.025" height="1.025" fill="#eaff00" />
<rect x="18.450" y="25.625" width="1.025" height="1.025" fill="#000000" />
<rect x="13.325" y="26.650" width="1.025" height="1.025" fill="#000000" />
<rect x="14.350" y="26.650" width="1.025" height="1.025" fill="#ee6ee1" />
<rect x="15.375" y="26.650" width="1.025" height="1.025" fill="#ef6be1" />
<rect x="16.400" y="26.650" width="1.025" height="1.025" fill="#ff00d8" />
<rect x="17.425" y="26.650" width="1.025" height="1.025" fill="#ff00d8" />
<rect x="18.450" y="26.650" width="1.025" height="1.025" fill="#000000" />
<rect x="13.325" y="27.675" width="1.025" height="1.025" fill="#000000" />
<rect x="14.350" y="27.675" width="1.025" height="1.025" fill="#eaff00" />
<rect x="15.375" y="27.675" width="1.025" height="1.025" fill="#ff00d8" />
<rect x="16.400" y="27.675" width="1.025" height="1.025" fill="#f653de" />
<rect x="17.425" y="27.675" width="1.025" height="1.025" fill="#ff00d8" />
<rect x="18.450" y="27.675" width="1.025" height="1.025" fill="#000000" />
<rect x="11.275" y="28.700" width="1.025" height="1.025" fill="#000000" />
<rect x="12.300" y="28.700" width="1.025" height="1.025" fill="#000000" />
<rect x="13.325" y="28.700" width="1.025" height="1.025" fill="#ff00d8" />
<rect x="14.350" y="28.700" width="1.025" height="1.025" fill="#ff00d8" />
<rect x="15.375" y="28.700" width="1.025" height="1.025" fill="#ff00d8" />
<rect x="16.400" y="28.700" width="1.025" height="1.025" fill="#f942dc" />
<rect x="17.425" y="28.700" width="1.025" height="1.025" fill="#fb37db" />
<rect x="18.450" y="28.700" width="1.025" height="1.025" fill="#ff00d8" />
<rect x="19.475" y="28.700" width="1.025" height="1.025" fill="#000000" />
<rect x="20.500" y="28.700" width="1.025" height="1.025" fill="#000000" />
<rect x="21.525" y="28.700" width="1.025" height="1.025" fill="#000000" />
<rect x="9.225" y="29.725" width="1.025" height="1.025" fill="#000000" />
<rect x="10.250" y="29.725" width="1.025" height="1.025" fill="#000000" />
<rect x="11.275" y="29.725" width="1.025" height="1.025" fill="#ff00d8" />
<rect x="12.300" y="29.725" width="1.025" height="1.025" fill="#ff00d8" />
<rect x="13.325" y="29.725" width="1.025" height="1.025" fill="#ff00d8" />
<rect x="14.350" y="29.725" width="1.025" height="1.025" fill="#ff00d8" />
<rect x="15.375" y="29.725" width="1.025" height="1.025" fill="#ff00d8" />
<rect x="16.400" y="29.725" width="1.025" height="1.025" fill="#ff00d8" />
<rect x="17.425" y="29.725" width="1.025" height="1.025" fill="#ff00d8" />
<rect x="18.450" y="29.725" width="1.025" height="1.025" fill="#ff00d8" />
<rect x="19.475" y="29.725" width="1.025" height="1.025" fill="#ff00d8" />
<rect x="20.500" y="29.725" width="1.025" height="1.025" fill="#ff00d8" />
<rect x="21.525" y="29.725" width="1.025" height="1.025" fill="#ff00d8" />
<rect x="22.550" y="29.725" width="1.025" height="1.025" fill="#000000" />
<rect x="23.575" y="29.725" width="1.025" height="1.025" fill="#000000" />
<rect x="8.200" y="30.750" width="1.025" height="1.025" fill="#000000" />
<rect x="9.225" y="30.750" width="1.025" height="1.025" fill="#ff00d8" />
<rect x="10.250" y="30.750" width="1.025" height="1.025" fill="#fc2dda" />
<rect x="11.275" y="30.750" width="1.025" height="1.025" fill="#ff00d8" />
<rect x="12.300" y="30.750" width="1.025" height="1.025" fill="#ff00d8" />
<rect x="13.325" y="30.750" width="1.025" height="1.025" fill="#ff00d8" />
<rect x="14.350" y="30.750" width="1.025" height="1.025" fill="#fc2bda" />
<rect x="15.375" y="30.750" width="1.025" height="1.025" fill="#dd92e8" />
<rect x="16.400" y="30.750" width="1.025" height="1.025" fill="#ef6ce1" />
<rect x="17.425" y="30.750" width="1.025" height="1.025" fill="#ff00d8" />
<rect x="18.450" y="30.750" width="1.025" height="1.025" fill="#ff00d8" />
<rect x="19.475" y="30.750" width="1.025" height="1.025" fill="#d1a4eb" />
<rect x="20.500" y="30.750" width="1.025" height="1.025" fill="#ec73e2" />
<rect x="21.525" y="30.750" width="1.025" height="1.025" fill="#ff00d8" />
<rect x="22.550" y="30.750" width="1.025" height="1.025" fill="#ff00d8" />
<rect x="23.575" y="30.750" width="1.025" height="1.025" fill="#ff00d8" />
<rect x="24.600" y="30.750" width="1.025" height="1.025" fill="#000000" />
<rect x="7.175" y="31.775" width="1.025" height="1.025" fill="#000000" />
<rect x="8.200" y="31.775" width="1.025" height="1.025" fill="#eaff00" />
<rect x="9.225" y="31.775" width="1.025" height="1.025" fill="#00fcff" />
<rect x="10.250" y="31.775" width="1.025" height="1.025" fill="#9cd5f6" />
<rect x="11.275" y="31.775" width="1.025" height="1.025" fill="#f35edf" />
<rect x="12.300" y="31.775" width="1.025" height="1.025" fill="#9bd6f6" />
<rect x="13.325" y="31.775" width="1.025" height="1.025" fill="#4cf4fd" />
<rect x="14.350" y="31.775" width="1.025" height="1.025" fill="#7de5fa" />
<rect x="15.375" y="31.775" width="1.025" height="1.025" fill="#50f3fd" />
<rect x="16.400" y="31.775" width="1.025" height="1.025" fill="#31f9fe" />
<rect x="17.425" y="31.775" width="1.025" height="1.025" fill="#dc94e8" />
<rect x="18.450" y="31.775" width="1.025" height="1.025" fill="#d69dea" />
<rect x="19.475" y="31.775" width="1.025" height="1.025" fill="#00fcff" />
<rect x="20.500" y="31.775" width="1.025" height="1.025" fill="#00fcff" />
<rect x="21.525" y="31.775" width="1.025" height="1.025" fill="#63effc" />
<rect x="22.550" y="31.775" width="1.025" height="1.025" fill="#d3a1eb" />
<rect x="23.575" y="31.775" width="1.025" height="1.025" fill="#fc32da" />
<rect x="24.600" y="31.775" width="1.025" height="1.025" fill="#ff00d8" />
<rect x="25.625" y="31.775" width="1.025" height="1.025" fill="#000000" />
<rect x="6.150" y="32.800" width="1.025" height="1.025" fill="#000000" />
<rect x="7.175" y="32.800" width="1.025" height="1.025" fill="#024b00" />
<rect x="8.200" y="32.800" width="1.025" height="1.025" fill="#ff00d8" />
<rect x="9.225" y="32.800" width="1.025" height="1.025" fill="#00fcff" />
<rect x="10.250" y="32.800" width="1.025" height="1.025" fill="#84e2f9" />
<rect x="11.275" y="32.800" width="1.025" height="1.025" fill="#52f3fd" />
<rect x="12.300" y="32.800" width="1.025" height="1.025" fill="#00fcff" />
<rect x="13.325" y="32.800" width="1.025" height="1.025" fill="#00fcff" />
<rect x="14.350" y="32.800" width="1.025" height="1.025" fill="#00fcff" />
<rect x="15.375" y="32.800" width="1.025" height="1.025" fill="#00fcff" />
<rect x="16.400" y="32.800" width="1.025" height="1.025" fill="#ff00d8" />
<rect x="17.425" y="32.800" width="1.025" height="1.025" fill="#eaff00" />
<rect x="18.450" y="32.800" width="1.025" height="1.025" fill="#00fcff" />
<rect x="19.475" y="32.800" width="1.025" height="1.025" fill="#00fcff" />
<rect x="20.500" y="32.800" width="1.025" height="1.025" fill="#00fcff" />
<rect x="21.525" y="32.800" width="1.025" height="1.025" fill="#00fcff" />
<rect x="22.550" y="32.800" width="1.025" height="1.025" fill="#ff00d8" />
<rect x="23.575" y="32.800" width="1.025" height="1.025" fill="#eaff00" />
<rect x="24.600" y="32.800" width="1.025" height="1.025" fill="#ff00d8" />
<rect x="25.625" y="32.800" width="1.025" height="1.025" fill="#000000" />
<rect x="6.150" y="33.825" width="1.025" height="1.025" fill="#000000" />
<rect x="7.175" y="33.825" width="1.025" height="1.025" fill="#025200" />
<rect x="8.200" y="33.825" width="1.025" height="1.025" fill="#ff00d8" />
<rect x="9.225" y="33.825" width="1.025" height="1.025" fill="#ff00d8" />
<rect x="10.250" y="33.825" width="1.025" height="1.025" fill="#eaff00" />
<rect x="11.275" y="33.825" width="1.025" height="1.025" fill="#ee6ee1" />
<rect x="12.300" y="33.825" width="1.025" height="1.025" fill="#fa3bdb" />
<rect x="13.325" y="33.825" width="1.025" height="1.025" fill="#8eddf8" />
<rect x="14.350" y="33.825" width="1.025" height="1.025" fill="#00fcff" />
<rect x="15.375" y="33.825" width="1.025" height="1.025" fill="#00fcff" />
<rect x="16.400" y="33.825" width="1.025" height="1.025" fill="#ff00d8" />
<rect x="17.425" y="33.825" width="1.025" height="1.025" fill="#000000" />
<rect x="18.450" y="33.825" width="1.025" height="1.025" fill="#e77fe4" />
<rect x="19.475" y="33.825" width="1.025" height="1.025" fill="#00fcff" />
<rect x="20.500" y="33.825" width="1.025" height="1.025" fill="#00fcff" />
<rect x="21.525" y="33.825" width="1.025" height="1.025" fill="#ff00d8" />
<rect x="22.550" y="33.825" width="1.025" height="1.025" fill="#ff00d8" />
<rect x="23.575" y="33.825" width="1.025" height="1.025" fill="#000000" />
<rect x="24.600" y="33.825" width="1.025" height="1.025" fill="#ff00d8" />
<rect x="25.625" y="33.825" width="1.025" height="1.025" fill="#ff00d8" />
<rect x="26.650" y="33.825" width="1.025" height="1.025" fill="#000000" />
<rect x="6.150" y="34.850" width="1.025" height="1.025" fill="#000000" />
<rect x="7.175" y="34.850" width="1.025" height="1.025" fill="#035600" />
<rect x="8.200" y="34.850" width="1.025" height="1.025" fill="#ff00d8" />
<rect x="9.225" y="34.850" width="1.025" height="1.025" fill="#ff00d8" />
<rect x="10.250" y="34.850" width="1.025" height="1.025" fill="#000000" />
<rect x="11.275" y="34.850" width="1.025" height="1.025" fill="#ff00d8" />
<rect x="12.300" y="34.850" width="1.025" height="1.025" fill="#ff00d8" />
<rect x="13.325" y="34.850" width="1.025" height="1.025" fill="#ff00d8" />
<rect x="14.350" y="34.850" width="1.025" height="1.025" fill="#bbbdf1" />
<rect x="15.375" y="34.850" width="1.025" height="1.025" fill="#f74ddd" />
<rect x="16.400" y="34.850" width="1.025" height="1.025" fill="#fb38db" />
<rect x="17.425" y="34.850" width="1.025" height="1.025" fill="#ff00d8" />
<rect x="18.450" y="34.850" width="1.025" height="1.025" fill="#000000" />
<rect x="19.475" y="34.850" width="1.025" height="1.025" fill="#c0b8f0" />
<rect x="20.500" y="34.850" width="1.025" height="1.025" fill="#cda9ec" />
<rect x="21.525" y="34.850" width="1.025" height="1.025" fill="#ff00d8" />
<rect x="22.550" y="34.850" width="1.025" height="1.025" fill="#eaff00" />
<rect x="23.575" y="34.850" width="1.025" height="1.025" fill="#eaff00" />
<rect x="24.600" y="34.850" width="1.025" height="1.025" fill="#000000" />
<rect x="25.625" y="34.850" width="1.025" height="1.025" fill="#ff00d8" />
<rect x="26.650" y="34.850" width="1.025" height="1.025" fill="#000000" />
<rect x="6.150" y="35.875" width="1.025" height="1.025" fill="#000000" />
<rect x="7.175" y="35.875" width="1.025" height="1.025" fill="#035700" />
<rect x="8.200" y="35.875" width="1.025" height="1.025" fill="#ff00d8" />
<rect x="9.225" y="35.875" width="1.025" height="1.025" fill="#eaff00" />
<rect x="10.250" y="35.875" width="1.025" height="1.025" fill="#000000" />
<rect x="11.275" y="35.875" width="1.025" height="1.025" fill="#eaff00" />
<rect x="12.300" y="35.875" width="1.025" height="1.025" fill="#ff00d8" />
<rect x="13.325" y="35.875" width="1.025" height="1.025" fill="#ff00d8" />
<rect x="14.350" y="35.875" width="1.025" height="1.025" fill="#ff00d8" />
<rect x="15.375" y="35.875" width="1.025" height="1.025" fill="#ff00d8" />
<rect x="16.400" y="35.875" width="1.025" height="1.025" fill="#ff00d8" />
<rect x="17.425" y="35.875" width="1.025" height="1.025" fill="#ff00d8" />
<rect x="18.450" y="35.875" width="1.025" height="1.025" fill="#ff00d8" />
<rect x="19.475" y="35.875" width="1.025" height="1.025" fill="#000000" />
<rect x="20.500" y="35.875" width="1.025" height="1.025" fill="#ff00d8" />
<rect x="21.525" y="35.875" width="1.025" height="1.025" fill="#ff00d8" />
<rect x="22.550" y="35.875" width="1.025" height="1.025" fill="#ff00d8" />
<rect x="23.575" y="35.875" width="1.025" height="1.025" fill="#eaff00" />
<rect x="24.600" y="35.875" width="1.025" height="1.025" fill="#e9ff00" />
<rect x="25.625" y="35.875" width="1.025" height="1.025" fill="#000000" />
<rect x="26.650" y="35.875" width="1.025" height="1.025" fill="#000000" />
<rect x="6.150" y="36.900" width="1.025" height="1.025" fill="#000000" />
<rect x="7.175" y="36.900" width="1.025" height="1.025" fill="#035e00" />
<rect x="8.200" y="36.900" width="1.025" height="1.025" fill="#ff00d8" />
<rect x="9.225" y="36.900" width="1.025" height="1.025" fill="#ff00d8" />
<rect x="10.250" y="36.900" width="1.025" height="1.025" fill="#000000" />
<rect x="11.275" y="36.900" width="1.025" height="1.025" fill="#c2ff00" />
<rect x="12.300" y="36.900" width="1.025" height="1.025" fill="#eaff00" />
<rect x="13.325" y="36.900" width="1.025" height="1.025" fill="#ff00d8" />
<rect x="14.350" y="36.900" width="1.025" height="1.025" fill="#ff00d8" />
<rect x="15.375" y="36.900" width="1.025" height="1.025" fill="#ff00d8" />
<rect x="16.400" y="36.900" width="1.025" height="1.025" fill="#ff00d8" />
<rect x="17.425" y="36.900" width="1.025" height="1.025" fill="#ff00d8" />
<rect x="18.450" y="36.900" width="1.025" height="1.025" fill="#ff00d8" />
<rect x="19.475" y="36.900" width="1.025" height="1.025" fill="#ff00d8" />
<rect x="20.500" y="36.900" width="1.025" height="1.025" fill="#000000" />
<rect x="21.525" y="36.900" width="1.025" height="1.025" fill="#ff00d8" />
<rect x="22.550" y="36.900" width="1.025" height="1.025" fill="#ff00d8" />
<rect x="23.575" y="36.900" width="1.025" height="1.025" fill="#ff00d8" />
<rect x="24.600" y="36.900" width="1.025" height="1.025" fill="#e9ff00" />
<rect x="25.625" y="36.900" width="1.025" height="1.025" fill="#edf833" />
<rect x="26.650" y="36.900" width="1.025" height="1.025" fill="#000000" />
</svg>