<svg xmlns="http://www.w3.org/2000/svg" width="37.925" height="37.925" shape-rendering="crispEdges" style="image-rendering: pixelated;">
<rect x="0.000" y="0.000" width="1.025" height="1.025" fill="#ff00d8" />
<rect x="1.025" y="0.000" width="1.025" height="1.025" fill="#1ddffb" />
<rect x="3.075" y="0.000" width="1.025" height="1.025" fill="#fa05d9" />
<rect x="6.150" y="0.000" width="1.025" height="1.025" fill="#ff00d8" />
<rect x="7.175" y="0.000" width="1.025" height="1.025" fill="#ff00d8" />
<rect x="8.200" y="0.000" width="1.025" height="1.025" fill="#ff00d8" fill-opacity="0.839" />
<rect x="9.225" y="0.000" width="1.025" height="1.025" fill="#ff00d8" />
<rect x="10.250" y="0.000" width="1.025" height="1.025" fill="#ff00d8" />
<rect x="11.275" y="0.000" width="1.025" height="1.025" fill="#df1fdd" />
<rect x="12.300" y="0.000" width="1.025" height="1.025" fill="#df1fdd" fill-opacity="0.835" />
<rect x="13.325" y="0.000" width="1.025" height="1.025" fill="#ff00d8" />
<rect x="14.350" y="0.000" width="1.025" height="1.025" fill="#ff00d8" />
<rect x="15.375" y="0.000" width="1.025" height="1.025" fill="#ff00d8" fill-opacity="0.827" />
<rect x="16.400" y="0.000" width="1.025" height="1.025" fill="#ff00d8" />
<rect x="20.500" y="0.000" width="1.025" height="1.025" fill="#09f3fe" />
<rect x="21.525" y="0.000" width="1.025" height="1.025" fill="#ff00d8" />
<rect x="22.550" y="0.000" width="1.025" height="1.025" fill="#ff00d8" />
<rect x="23.575" y="0.000" width="1.025" height="1.025" fill="#cf2fdf" fill-opacity="0.792" />
<rect x="24.600" y="0.000" width="1.025" height="1.025" fill="#00fcff" fill-opacity="0.804" />
<rect x="34.850" y="0.000" width="1.025" height="1.025" fill="#ff00d8" />
<rect x="35.875" y="0.000" width="1.025" height="1.025" fill="#ff00d8" fill-opacity="0.839" />
<rect x="36.900" y="0.000" width="1.025" height="1.025" fill="#ff00d8" />
<rect x="0.000" y="1.025" width="1.025" height="1.025" fill="#ff00d8" fill-opacity="0.839" />
<rect x="1.025" y="1.025" width="1.025" height="1.025" fill="#ff00d8" fill-opacity="0.839" />
<rect x="2.050" y="1.025" width="1.025" height="1.025" fill="#ff00d8" />
<rect x="3.075" y="1.025" width="1.025" height="1.025" fill="#16e7fc" />
<rect x="4.100" y="1.025" width="1.025" height="1.025" fill="#ff00d8" />
<rect x="5.125" y="1.025" width="1.025" height="1.025" fill="#ff00d8" />
<rect x="6.150" y="1.025" width="1.025" height="1.025" fill="#ff00d8" />
<rect x="7.175" y="1.025" width="1.025" height="1.025" fill="#ff00d8" />
<rect x="8.200" y="1.025" width="1.025" height="1.025" fill="#ef10db" fill-opacity="0.839" />
<rect x="9.225" y="1.025" width="1.025" height="1.025" fill="#ff00d8" />
<rect x="10.250" y="1.025" width="1.025" height="1.025" fill="#e619dc" />
<rect x="11.275" y="1.025" width="1.025" height="1.025" fill="#af4fe4" fill-opacity="0.835" />
<rect x="12.300" y="1.025" width="1.025" height="1.025" fill="#ff00d8" />
<rect x="13.325" y="1.025" width="1.025" height="1.025" fill="#ff00d8" fill-opacity="0.831" />
<rect x="14.350" y="1.025" width="1.025" height="1.025" fill="#ff00d8" />
<rect x="15.375" y="1.025" width="1.025" height="1.025" fill="#ff00d8" fill-opacity="0.820" />
<rect x="16.400" y="1.025" width="1.025" height="1.025" fill="#e916db" />
<rect x="17.425" y="1.025" width="1.025" height="1.025" fill="#00fcff" />
<rect x="20.500" y="1.025" width="1.025" height="1.025" fill="#ff00d8" fill-opacity="0.725" />
<rect x="21.525" y="1.025" width="1.025" height="1.025" fill="#48b5f4" />
<rect x="22.550" y="1.025" width="1.025" height="1.025" fill="#00fcff" fill-opacity="0.753" />
<rect x="23.575" y="1.025" width="1.025" height="1.025" fill="#28d5f9" fill-opacity="0.765" />
<rect x="24.600" y="1.025" width="1.025" height="1.025" fill="#ff00d8" />
<rect x="34.850" y="1.025" width="1.025" height="1.025" fill="#ff00d8" fill-opacity="0.839" />
<rect x="35.875" y="1.025" width="1.025" height="1.025" fill="#ff00d8" />
<rect x="36.900" y="1.025" width="1.025" height="1.025" fill="#ff00d8" />
<rect x="0.000" y="2.050" width="1.025" height="1.025" fill="#ff00d8" />
<rect x="1.025" y="2.050" width="1.025" height="1.025" fill="#ff00d8" fill-opacity="0.839" />
<rect x="2.050" y="2.050" width="1.025" height="1.025" fill="#ff00d8" />
<rect x="3.075" y="2.050" width="1.025" height="1.025" fill="#ff00d8" fill-opacity="0.839" />
<rect x="4.100" y="2.050" width="1.025" height="1.025" fill="#ff00d8" />
<rect x="5.125" y="2.050" width="1.025" height="1.025" fill="#ff00d8" />
<rect x="6.150" y="2.050" width="1.025" height="1.025" fill="#ff00d8" />
<rect x="7.175" y="2.050" width="1.025" height="1.025" fill="#1be1fb" />
<rect x="8.200" y="2.050" width="1.025" height="1.025" fill="#ff00d8" />
<rect x="9.225" y="2.050" width="1.025" height="1.025" fill="#ba44e3" />
<rect x="10.250" y="2.050" width="1.025" height="1.025" fill="#ff00d8" />
<rect x="11.275" y="2.050" width="1.025" height="1.025" fill="#ff00d8" />
<rect x="12.300" y="2.050" width="1.025" height="1.025" fill="#ff00d8" fill-opacity="0.827" />
<rect x="13.325" y="2.050" width="1.025" height="1.025" fill="#ff00d8" />
<rect x="14.350" y="2.050" width="1.025" height="1.025" fill="#ff00d8" fill-opacity="0.816" />
<rect x="15.375" y="2.050" width="1.025" height="1.025" fill="#ff00d8" fill-opacity="0.808" />
<rect x="16.400" y="2.050" width="1.025" height="1.025" fill="#ff00d8" />
<rect x="17.425" y="2.050" width="1.025" height="1.025" fill="#7d80ec" fill-opacity="0.824" />
<rect x="18.450" y="2.050" width="1.025" height="1.025" fill="#00fcff" fill-opacity="0.643" />
<rect x="19.475" y="2.050" width="1.025" height="1.025" fill="#ff00d8" />
<rect x="20.500" y="2.050" width="1.025" height="1.025" fill="#db24de" />
<rect x="21.525" y="2.050" width="1.025" height="1.025" fill="#00fcff" fill-opacity="0.671" />
<rect x="22.550" y="2.050" width="1.025" height="1.025" fill="#13e9fc" />
<rect x="23.575" y="2.050" width="1.025" height="1.025" fill="#00fcff" />
<rect x="24.600" y="2.050" width="1.025" height="1.025" fill="#ff00d8" />
<rect x="25.625" y="2.050" width="1.025" height="1.025" fill="#ff00d8" />
<rect x="28.700" y="2.050" width="1.025" height="1.025" fill="#d529de" />
<rect x="29.725" y="2.050" width="1.025" height="1.025" fill="#ff00d8" />
<rect x="30.750" y="2.050" width="1.025" height="1.025" fill="#ff00d8" />
<rect x="35.875" y="2.050" width="1.025" height="1.025" fill="#ff00d8" />
<rect x="36.900" y="2.050" width="1.025" height="1.025" fill="#ff00d8" fill-opacity="0.839" />
<rect x="0.000" y="3.075" width="1.025" height="1.025" fill="#ff00d8" />
<rect x="1.025" y="3.075" width="1.025" height="1.025" fill="#ff00d8" />
<rect x="2.050" y="3.075" width="1.025" height="1.025" fill="#ff00d8" fill-opacity="0.839" />
<rect x="3.075" y="3.075" width="1.025" height="1.025" fill="#ff00d8" />
<rect x="4.100" y="3.075" width="1.025" height="1.025" fill="#ff00d8" />
<rect x="5.125" y="3.075" width="1.025" height="1.025" fill="#ff00d8" />
<rect x="6.150" y="3.075" width="1.025" height="1.025" fill="#ff00d8" fill-opacity="0.839" />
<rect x="7.175" y="3.075" width="1.025" height="1.025" fill="#5aa3f1" />
<rect x="8.200" y="3.075" width="1.025" height="1.025" fill="#ff00d8" />
<rect x="9.225" y="3.075" width="1.025" height="1.025" fill="#00fcff" />
<rect x="10.250" y="3.075" width="1.025" height="1.025" fill="#ff00d8" fill-opacity="0.835" />
<rect x="11.275" y="3.075" width="1.025" height="1.025" fill="#ff00d8" />
<rect x="12.300" y="3.075" width="1.025" height="1.025" fill="#ff00d8" />
<rect x="13.325" y="3.075" width="1.025" height="1.025" fill="#ff00d8" />
<rect x="14.350" y="3.075" width="1.025" height="1.025" fill="#ff00d8" />
<rect x="15.375" y="3.075" width="1.025" height="1.025" fill="#ff00d8" fill-opacity="0.780" />
<rect x="16.400" y="3.075" width="1.025" height="1.025" fill="#ff00d8" />
<rect x="17.425" y="3.075" width="1.025" height="1.025" fill="#ff00d8" fill-opacity="0.808" />
<rect x="18.450" y="3.075" width="1.025" height="1.025" fill="#6895ef" fill-opacity="0.643" />
<rect x="19.475" y="3.075" width="1.025" height="1.025" fill="#15e7fc" fill-opacity="0.545" />
<rect x="20.500" y="3.075" width="1.025" height="1.025" fill="#00fcff" />
<rect x="21.525" y="3.075" width="1.025" height="1.025" fill="#7c82ec" fill-opacity="0.588" />
<rect x="22.550" y="3.075" width="1.025" height="1.025" fill="#d42adf" />
<rect x="23.575" y="3.075" width="1.025" height="1.025" fill="#e31cdc" fill-opacity="0.659" />
<rect x="24.600" y="3.075" width="1.025" height="1.025" fill="#ff00d8" fill-opacity="0.694" />
<rect x="25.625" y="3.075" width="1.025" height="1.025" fill="#ff00d8" />
<rect x="26.650" y="3.075" width="1.025" height="1.025" fill="#be41e2" />
<rect x="28.700" y="3.075" width="1.025" height="1.025" fill="#ff00d8" />
<rect x="29.725" y="3.075" width="1.025" height="1.025" fill="#ff00d8" />
<rect x="30.750" y="3.075" width="1.025" height="1.025" fill="#ff00d8" />
<rect x="31.775" y="3.075" width="1.025" height="1.025" fill="#21dbfa" />
<rect x="35.875" y="3.075" width="1.025" height="1.025" fill="#ff00d8" />
<rect x="36.900" y="3.075" width="1.025" height="1.025" fill="#ff00d8" />
<rect x="0.000" y="4.100" width="1.025" height="1.025" fill="#ff00d8" />
<rect x="1.025" y="4.100" width="1.025" height="1.025" fill="#ff00d8" fill-opacity="0.839" />
<rect x="2.050" y="4.100" width="1.025" height="1.025" fill="#ff00d8" fill-opacity="0.835" />
<rect x="3.075" y="4.100" width="1.025" height="1.025" fill="#ff00d8" />
<rect x="4.100" y="4.100" width="1.025" height="1.025" fill="#ff00d8" fill-opacity="0.835" />
<rect x="5.125" y="4.100" width="1.025" height="1.025" fill="#ff00d8" />
<rect x="6.150" y="4.100" width="1.025" height="1.025" fill="#3fbef5" />
<rect x="7.175" y="4.100" width="1.025" height="1.025" fill="#ff00d8" />
<rect x="8.200" y="4.100" width="1.025" height="1.025" fill="#ff00d8" />
<rect x="9.225" y="4.100" width="1.025" height="1.025" fill="#01fbff" fill-opacity="0.831" />
<rect x="10.250" y="4.100" width="1.025" height="1.025" fill="#ff00d8" />
<rect x="11.275" y="4.100" width="1.025" height="1.025" fill="#ff00d8" fill-opacity="0.816" />
<rect x="12.300" y="4.100" width="1.025" height="1.025" fill="#ff00d8" fill-opacity="0.804" />
<rect x="13.325" y="4.100" width="1.025" height="1.025" fill="#ff00d8" fill-opacity="0.784" />
<rect x="14.350" y="4.100" width="1.025" height="1.025" fill="#ff00d8" fill-opacity="0.773" />
<rect x="15.375" y="4.100" width="1.025" height="1.025" fill="#ff00d8" fill-opacity="0.753" />
<rect x="16.400" y="4.100" width="1.025" height="1.025" fill="#ff00d8" />
<rect x="17.425" y="4.100" width="1.025" height="1.025" fill="#ff00d8" fill-opacity="0.765" />
<rect x="18.450" y="4.100" width="1.025" height="1.025" fill="#00fcff" fill-opacity="0.557" />
<rect x="19.475" y="4.100" width="1.025" height="1.025" fill="#00fcff" fill-opacity="0.420" />
<rect x="20.500" y="4.100" width="1.025" height="1.025" fill="#00fcff" fill-opacity="0.439" />
<rect x="21.525" y="4.100" width="1.025" height="1.025" fill="#00fcff" fill-opacity="0.475" />
<rect x="22.550" y="4.100" width="1.025" height="1.025" fill="#00fcff" fill-opacity="0.518" />
<rect x="23.575" y="4.100" width="1.025" height="1.025" fill="#00fcff" />
<rect x="24.600" y="4.100" width="1.025" height="1.025" fill="#00fcff" />
<rect x="25.625" y="4.100" width="1.025" height="1.025" fill="#00fcff" />
<rect x="26.650" y="4.100" width="1.025" height="1.025" fill="#ff00d8" />
<rect x="27.675" y="4.100" width="1.025" height="1.025" fill="#c539e1" fill-opacity="0.757" />
<rect x="28.700" y="4.100" width="1.025" height="1.025" fill="#ff00d8" />
<rect x="29.725" y="4.100" width="1.025" height="1.025" fill="#f40bda" />
<rect x="30.750" y="4.100" width="1.025" height="1.025" fill="#ff00d8" />
<rect x="31.775" y="4.100" width="1.025" height="1.025" fill="#ff00d8" fill-opacity="0.827" />
<rect x="34.850" y="4.100" width="1.025" height="1.025" fill="#ee11db" />
<rect x="35.875" y="4.100" width="1.025" height="1.025" fill="#ff00d8" />
<rect x="36.900" y="4.100" width="1.025" height="1.025" fill="#ff00d8" />
<rect x="0.000" y="5.125" width="1.025" height="1.025" fill="#ff00d8" />
<rect x="1.025" y="5.125" width="1.025" height="1.025" fill="#ff00d8" />
<rect x="2.050" y="5.125" width="1.025" height="1.025" fill="#ff00d8" />
<rect x="3.075" y="5.125" width="1.025" height="1.025" fill="#ff00d8" />
<rect x="4.100" y="5.125" width="1.025" height="1.025" fill="#ff00d8" />
<rect x="5.125" y="5.125" width="1.025" height="1.025" fill="#ff00d8" />
<rect x="6.150" y="5.125" width="1.025" height="1.025" fill="#ff00d8" fill-opacity="0.816" />
<rect x="7.175" y="5.125" width="1.025" height="1.025" fill="#ff00d8" fill-opacity="0.824" />
<rect x="8.200" y="5.125" width="1.025" height="1.025" fill="#ff00d8" />
<rect x="9.225" y="5.125" width="1.025" height="1.025" fill="#ff00d8" fill-opacity="0.827" />
<rect x="10.250" y="5.125" width="1.025" height="1.025" fill="#ff00d8" />
<rect x="11.275" y="5.125" width="1.025" height="1.025" fill="#ff00d8" fill-opacity="0.804" />
<rect x="12.300" y="5.125" width="1.025" height="1.025" fill="#ff00d8" />
<rect x="13.325" y="5.125" width="1.025" height="1.025" fill="#ff00d8" fill-opacity="0.761" />
<rect x="14.350" y="5.125" width="1.025" height="1.025" fill="#00fcff" fill-opacity="0.733" />
<rect x="15.375" y="5.125" width="1.025" height="1.025" fill="#ff00d8" fill-opacity="0.698" />
<rect x="16.400" y="5.125" width="1.025" height="1.025" fill="#ff00d8" fill-opacity="0.702" />
<rect x="17.425" y="5.125" width="1.025" height="1.025" fill="#c13de2" fill-opacity="0.690" />
<rect x="18.450" y="5.125" width="1.025" height="1.025" fill="#00fcff" fill-opacity="0.439" />
<rect x="19.475" y="5.125" width="1.025" height="1.025" fill="#005e5f" fill-opacity="0.290" />
<rect x="20.500" y="5.125" width="1.025" height="1.025" fill="#006061" fill-opacity="0.310" />
<rect x="21.525" y="5.125" width="1.025" height="1.025" fill="#005c5d" fill-opacity="0.188" />
<rect x="22.550" y="5.125" width="1.025" height="1.025" fill="#006c6d" fill-opacity="0.216" />
<rect x="23.575" y="5.125" width="1.025" height="1.025" fill="#00a1a3" fill-opacity="0.255" />
<rect x="24.600" y="5.125" width="1.025" height="1.025" fill="#00e6e9" fill-opacity="0.294" />
<rect x="25.625" y="5.125" width="1.025" height="1.025" fill="#00fcff" fill-opacity="0.349" />
<rect x="26.650" y="5.125" width="1.025" height="1.025" fill="#ff00d8" fill-opacity="0.678" />
<rect x="27.675" y="5.125" width="1.025" height="1.025" fill="#27d6f9" />
<rect x="28.700" y="5.125" width="1.025" height="1.025" fill="#ff00d8" fill-opacity="0.761" />
<rect x="29.725" y="5.125" width="1.025" height="1.025" fill="#5ca1f1" />
<rect x="30.750" y="5.125" width="1.025" height="1.025" fill="#ff00d8" />
<rect x="31.775" y="5.125" width="1.025" height="1.025" fill="#ff00d8" />
<rect x="32.800" y="5.125" width="1.025" height="1.025" fill="#00fcff" />
<rect x="34.850" y="5.125" width="1.025" height="1.025" fill="#ff00d8" />
<rect x="35.875" y="5.125" width="1.025" height="1.025" fill="#ff00d8" fill-opacity="0.839" />
<rect x="36.900" y="5.125" width="1.025" height="1.025" fill="#738bed" />
<rect x="0.000" y="6.150" width="1.025" height="1.025" fill="#ff00d8" />
<rect x="1.025" y="6.150" width="1.025" height="1.025" fill="#ff00d8" />
<rect x="2.050" y="6.150" width="1.025" height="1.025" fill="#ff00d8" fill-opacity="0.753" />
<rect x="3.075" y="6.150" width="1.025" height="1.025" fill="#4faef3" fill-opacity="0.714" />
<rect x="4.100" y="6.150" width="1.025" height="1.025" fill="#00fcff" fill-opacity="0.702" />
<rect x="5.125" y="6.150" width="1.025" height="1.025" fill="#00fcff" fill-opacity="0.714" />
<rect x="6.150" y="6.150" width="1.025" height="1.025" fill="#ff00d8" />
<rect x="7.175" y="6.150" width="1.025" height="1.025" fill="#ed12db" fill-opacity="0.784" />
<rect x="8.200" y="6.150" width="1.025" height="1.025" fill="#ff00d8" />
<rect x="9.225" y="6.150" width="1.025" height="1.025" fill="#ff00d8" fill-opacity="0.816" />
<rect x="10.250" y="6.150" width="1.025" height="1.025" fill="#ff00d8" />
<rect x="11.275" y="6.150" width="1.025" height="1.025" fill="#ff00d8" />
<rect x="12.300" y="6.150" width="1.025" height="1.025" fill="#ff00d8" fill-opacity="0.761" />
<rect x="13.325" y="6.150" width="1.025" height="1.025" fill="#c935e0" />
<rect x="14.350" y="6.150" width="1.025" height="1.025" fill="#14e8fc" fill-opacity="0.682" />
<rect x="15.375" y="6.150" width="1.025" height="1.025" fill="#11ebfc" fill-opacity="0.635" />
<rect x="16.400" y="6.150" width="1.025" height="1.025" fill="#00fcff" />
<rect x="17.425" y="6.150" width="1.025" height="1.025" fill="#00fcff" fill-opacity="0.588" />
<rect x="18.450" y="6.150" width="1.025" height="1.025" fill="#00e8ea" fill-opacity="0.302" />
<rect x="22.550" y="6.150" width="1.025" height="1.025" fill="#000000" fill-opacity="0.016" />
<rect x="23.575" y="6.150" width="1.025" height="1.025" fill="#000202" fill-opacity="0.024" />
<rect x="24.600" y="6.150" width="1.025" height="1.025" fill="#000b0b" fill-opacity="0.031" />
<rect x="25.625" y="6.150" width="1.025" height="1.025" fill="#000a0a" fill-opacity="0.039" />
<rect x="26.650" y="6.150" width="1.025" height="1.025" fill="#006768" fill-opacity="0.188" />
<rect x="27.675" y="6.150" width="1.025" height="1.025" fill="#00fcff" />
<rect x="28.700" y="6.150" width="1.025" height="1.025" fill="#b747e3" fill-opacity="0.737" />
<rect x="29.725" y="6.150" width="1.025" height="1.025" fill="#f40bda" fill-opacity="0.773" />
<rect x="30.750" y="6.150" width="1.025" height="1.025" fill="#b846e3" />
<rect x="31.775" y="6.150" width="1.025" height="1.025" fill="#ff00d8" />
<rect x="33.825" y="6.150" width="1.025" height="1.025" fill="#ff00d8" />
<rect x="34.850" y="6.150" width="1.025" height="1.025" fill="#ff00d8" />
<rect x="35.875" y="6.150" width="1.025" height="1.025" fill="#ff00d8" />
<rect x="36.900" y="6.150" width="1.025" height="1.025" fill="#3bc1f6" />
<rect x="1.025" y="7.175" width="1.025" height="1.025" fill="#ca34e0" />
<rect x="2.050" y="7.175" width="1.025" height="1.025" fill="#b549e3" />
<rect x="3.075" y="7.175" width="1.025" height="1.025" fill="#00fcff" />
<rect x="4.100" y="7.175" width="1.025" height="1.025" fill="#00eef0" fill-opacity="0.475" />
<rect x="8.200" y="7.175" width="1.025" height="1.025" fill="#2bd1f8" fill-opacity="0.773" />
<rect x="9.225" y="7.175" width="1.025" height="1.025" fill="#00fcff" />
<rect x="10.250" y="7.175" width="1.025" height="1.025" fill="#00fcff" fill-opacity="0.788" />
<rect x="11.275" y="7.175" width="1.025" height="1.025" fill="#ff00d8" />
<rect x="12.300" y="7.175" width="1.025" height="1.025" fill="#ff00d8" fill-opacity="0.725" />
<rect x="13.325" y="7.175" width="1.025" height="1.025" fill="#ff00d8" fill-opacity="0.682" />
<rect x="14.350" y="7.175" width="1.025" height="1.025" fill="#00fcff" fill-opacity="0.616" />
<rect x="15.375" y="7.175" width="1.025" height="1.025" fill="#31cbf7" fill-opacity="0.545" />
<rect x="16.400" y="7.175" width="1.025" height="1.025" fill="#0af2fd" fill-opacity="0.518" />
<rect x="17.425" y="7.175" width="1.025" height="1.025" fill="#00fcff" />
<rect x="18.450" y="7.175" width="1.025" height="1.025" fill="#005455" fill-opacity="0.122" />
<rect x="23.575" y="7.175" width="1.025" height="1.025" fill="#000303" fill-opacity="0.016" />
<rect x="24.600" y="7.175" width="1.025" height="1.025" fill="#000000" fill-opacity="0.024" />
<rect x="25.625" y="7.175" width="1.025" height="1.025" fill="#000202" fill-opacity="0.031" />
<rect x="26.650" y="7.175" width="1.025" height="1.025" fill="#000202" fill-opacity="0.039" />
<rect x="27.675" y="7.175" width="1.025" height="1.025" fill="#009495" fill-opacity="0.188" />
<rect x="28.700" y="7.175" width="1.025" height="1.025" fill="#6e8fee" />
<rect x="29.725" y="7.175" width="1.025" height="1.025" fill="#43baf5" fill-opacity="0.753" />
<rect x="30.750" y="7.175" width="1.025" height="1.025" fill="#ff00d8" />
<rect x="31.775" y="7.175" width="1.025" height="1.025" fill="#ff00d8" fill-opacity="0.808" />
<rect x="32.800" y="7.175" width="1.025" height="1.025" fill="#ff00d8" fill-opacity="0.820" />
<rect x="33.825" y="7.175" width="1.025" height="1.025" fill="#ff00d8" />
<rect x="34.850" y="7.175" width="1.025" height="1.025" fill="#ff00d8" fill-opacity="0.835" />
<rect x="35.875" y="7.175" width="1.025" height="1.025" fill="#ff00d8" fill-opacity="0.835" />
<rect x="36.900" y="7.175" width="1.025" height="1.025" fill="#03f9ff" />
<rect x="0.000" y="8.200" width="1.025" height="1.025" fill="#00fcff" fill-opacity="0.631" />
<rect x="1.025" y="8.200" width="1.025" height="1.025" fill="#00fcff" />
<rect x="2.050" y="8.200" width="1.025" height="1.025" fill="#00fcff" fill-opacity="0.322" />
<rect x="3.075" y="8.200" width="1.025" height="1.025" fill="#005859" fill-opacity="0.208" />
<rect x="4.100" y="8.200" width="1.025" height="1.025" fill="#007c7e" fill-opacity="0.180" />
<rect x="8.200" y="8.200" width="1.025" height="1.025" fill="#ff00d8" fill-opacity="0.702" />
<rect x="11.275" y="8.200" width="1.025" height="1.025" fill="#ff00d8" fill-opacity="0.737" />
<rect x="12.300" y="8.200" width="1.025" height="1.025" fill="#ff00d8" fill-opacity="0.690" />
<rect x="13.325" y="8.200" width="1.025" height="1.025" fill="#9c62e7" fill-opacity="0.620" />
<rect x="14.350" y="8.200" width="1.025" height="1.025" fill="#49b4f4" fill-opacity="0.545" />
<rect x="15.375" y="8.200" width="1.025" height="1.025" fill="#00fcff" fill-opacity="0.463" />
<rect x="16.400" y="8.200" width="1.025" height="1.025" fill="#008384" fill-opacity="0.373" />
<rect x="17.425" y="8.200" width="1.025" height="1.025" fill="#00e9eb" fill-opacity="0.290" />
<rect x="18.450" y="8.200" width="1.025" height="1.025" fill="#002b2c" fill-opacity="0.078" />
<rect x="24.600" y="8.200" width="1.025" height="1.025" fill="#000000" fill-opacity="0.016" />
<rect x="25.625" y="8.200" width="1.025" height="1.025" fill="#000303" fill-opacity="0.031" />
<rect x="26.650" y="8.200" width="1.025" height="1.025" fill="#000a0a" fill-opacity="0.031" />
<rect x="27.675" y="8.200" width="1.025" height="1.025" fill="#000d0d" fill-opacity="0.039" />
<rect x="28.700" y="8.200" width="1.025" height="1.025" fill="#00fcff" fill-opacity="0.384" />
<rect x="29.725" y="8.200" width="1.025" height="1.025" fill="#ff00d8" />
<rect x="30.750" y="8.200" width="1.025" height="1.025" fill="#29d4f9" fill-opacity="0.773" />
<rect x="31.775" y="8.200" width="1.025" height="1.025" fill="#ff00d8" />
<rect x="32.800" y="8.200" width="1.025" height="1.025" fill="#00fcff" />
<rect x="33.825" y="8.200" width="1.025" height="1.025" fill="#ff00d8" fill-opacity="0.824" />
<rect x="34.850" y="8.200" width="1.025" height="1.025" fill="#ff00d8" />
<rect x="0.000" y="9.225" width="1.025" height="1.025" fill="#00fcff" fill-opacity="0.408" />
<rect x="1.025" y="9.225" width="1.025" height="1.025" fill="#00abad" fill-opacity="0.227" />
<rect x="2.050" y="9.225" width="1.025" height="1.025" fill="#001414" fill-opacity="0.090" />
<rect x="3.075" y="9.225" width="1.025" height="1.025" fill="#000808" fill-opacity="0.039" />
<rect x="4.100" y="9.225" width="1.025" height="1.025" fill="#000202" fill-opacity="0.024" />
<rect x="12.300" y="9.225" width="1.025" height="1.025" fill="#7e7fec" />
<rect x="13.325" y="9.225" width="1.025" height="1.025" fill="#22dafa" fill-opacity="0.565" />
<rect x="14.350" y="9.225" width="1.025" height="1.025" fill="#00fcff" fill-opacity="0.475" />
<rect x="15.375" y="9.225" width="1.025" height="1.025" fill="#00a9ab" fill-opacity="0.373" />
<rect x="16.400" y="9.225" width="1.025" height="1.025" fill="#00cfd1" fill-opacity="0.275" />
<rect x="17.425" y="9.225" width="1.025" height="1.025" fill="#005455" fill-opacity="0.188" />
<rect x="18.450" y="9.225" width="1.025" height="1.025" fill="#000909" fill-opacity="0.031" />
<rect x="27.675" y="9.225" width="1.025" height="1.025" fill="#000404" fill-opacity="0.016" />
<rect x="28.700" y="9.225" width="1.025" height="1.025" fill="#00797b" fill-opacity="0.188" />
<rect x="29.725" y="9.225" width="1.025" height="1.025" fill="#f40bda" fill-opacity="0.710" />
<rect x="30.750" y="9.225" width="1.025" height="1.025" fill="#3ac2f6" fill-opacity="0.757" />
<rect x="31.775" y="9.225" width="1.025" height="1.025" fill="#ff00d8" />
<rect x="32.800" y="9.225" width="1.025" height="1.025" fill="#ff00d8" fill-opacity="0.812" />
<rect x="33.825" y="9.225" width="1.025" height="1.025" fill="#ff00d8" fill-opacity="0.824" />
<rect x="1.025" y="10.250" width="1.025" height="1.025" fill="#001111" fill-opacity="0.063" />
<rect x="2.050" y="10.250" width="1.025" height="1.025" fill="#000505" fill-opacity="0.016" />
<rect x="4.100" y="10.250" width="1.025" height="1.025" fill="#000000" fill-opacity="0.008" />
<rect x="13.325" y="10.250" width="1.025" height="1.025" fill="#00c8ca" fill-opacity="0.514" />
<rect x="14.350" y="10.250" width="1.025" height="1.025" fill="#00e4e7" />
<rect x="15.375" y="10.250" width="1.025" height="1.025" fill="#00acae" fill-opacity="0.294" />
<rect x="16.400" y="10.250" width="1.025" height="1.025" fill="#005859" fill-opacity="0.208" />
<rect x="17.425" y="10.250" width="1.025" height="1.025" fill="#003b3c" fill-opacity="0.114" />
<rect x="27.675" y="10.250" width="1.025" height="1.025" fill="#000000" fill-opacity="0.008" />
<rect x="28.700" y="10.250" width="1.025" height="1.025" fill="#002626" fill-opacity="0.090" />
<rect x="29.725" y="10.250" width="1.025" height="1.025" fill="#4db0f3" />
<rect x="30.750" y="10.250" width="1.025" height="1.025" fill="#ff00d8" />
<rect x="31.775" y="10.250" width="1.025" height="1.025" fill="#ff00d8" fill-opacity="0.780" />
<rect x="32.800" y="10.250" width="1.025" height="1.025" fill="#ff00d8" />
<rect x="33.825" y="10.250" width="1.025" height="1.025" fill="#ff00d8" />
<rect x="14.350" y="11.275" width="1.025" height="1.025" fill="#006869" fill-opacity="0.349" />
<rect x="15.375" y="11.275" width="1.025" height="1.025" fill="#008384" fill-opacity="0.235" />
<rect x="16.400" y="11.275" width="1.025" height="1.025" fill="#002929" fill-opacity="0.137" />
<rect x="17.425" y="11.275" width="1.025" height="1.025" fill="#002d2d" fill-opacity="0.078" />
<rect x="28.700" y="11.275" width="1.025" height="1.025" fill="#000000" fill-opacity="0.016" />
<rect x="29.725" y="11.275" width="1.025" height="1.025" fill="#00fcff" fill-opacity="0.384" />
<rect x="30.750" y="11.275" width="1.025" height="1.025" fill="#a658e6" fill-opacity="0.737" />
<rect x="31.775" y="11.275" width="1.025" height="1.025" fill="#ff00d8" fill-opacity="0.776" />
<rect x="32.800" y="11.275" width="1.025" height="1.025" fill="#ff00d8" fill-opacity="0.800" />
<rect x="33.825" y="11.275" width="1.025" height="1.025" fill="#ff00d8" fill-opacity="0.816" />
<rect x="14.350" y="12.300" width="1.025" height="1.025" fill="#00d6d8" fill-opacity="0.294" />
<rect x="15.375" y="12.300" width="1.025" height="1.025" fill="#006d6e" fill-opacity="0.192" />
<rect x="16.400" y="12.300" width="1.025" height="1.025" fill="#002020" fill-opacity="0.098" />
<rect x="17.425" y="12.300" width="1.025" height="1.025" fill="#000607" fill-opacity="0.039" />
<rect x="28.700" y="12.300" width="1.025" height="1.025" fill="#000000" fill-opacity="0.016" />
<rect x="31.775" y="12.300" width="1.025" height="1.025" fill="#ff00d8" fill-opacity="0.773" />
<rect x="32.800" y="12.300" width="1.025" height="1.025" fill="#2dcff8" fill-opacity="0.800" />
<rect x="33.825" y="12.300" width="1.025" height="1.025" fill="#ff00d8" />
<rect x="4.100" y="13.325" width="1.025" height="1.025" fill="#000000" fill-opacity="0.008" />
<rect x="15.375" y="13.325" width="1.025" height="1.025" fill="#002f2f" fill-opacity="0.157" />
<rect x="16.400" y="13.325" width="1.025" height="1.025" fill="#001314" fill-opacity="0.078" />
<rect x="17.425" y="13.325" width="1.025" height="1.025" fill="#000303" fill-opacity="0.031" />
<rect x="27.675" y="13.325" width="1.025" height="1.025" fill="#000101" fill-opacity="0.008" />
<rect x="29.725" y="13.325" width="1.025" height="1.025" fill="#00b2b4" fill-opacity="0.380" />
<rect x="4.100" y="14.350" width="1.025" height="1.025" fill="#000000" fill-opacity="0.016" />
<rect x="16.400" y="14.350" width="1.025" height="1.025" fill="#000a0a" fill-opacity="0.071" />
<rect x="17.425" y="14.350" width="1.025" height="1.025" fill="#000404" fill-opacity="0.016" />
<rect x="27.675" y="14.350" width="1.025" height="1.025" fill="#000000" fill-opacity="0.016" />
<rect x="28.700" y="14.350" width="1.025" height="1.025" fill="#000000" fill-opacity="0.016" />
<rect x="4.100" y="15.375" width="1.025" height="1.025" fill="#000000" fill-opacity="0.016" />
<rect x="27.675" y="15.375" width="1.025" height="1.025" fill="#000101" fill-opacity="0.016" />
<rect x="28.700" y="15.375" width="1.025" height="1.025" fill="#000000" fill-opacity="0.016" />
<rect x="29.725" y="15.375" width="1.025" height="1.025" fill="#00a9ab" fill-opacity="0.384" />
<rect x="30.750" y="15.375" width="1.025" height="1.025" fill="#f708d9" fill-opacity="0.733" />
<rect x="31.775" y="15.375" width="1.025" height="1.025" fill="#ef10da" fill-opacity="0.776" />
<rect x="36.900" y="15.375" width="1.025" height="1.025" fill="#ff00d8" />
<rect x="3.075" y="16.400" width="1.025" height="1.025" fill="#000000" fill-opacity="0.008" />
<rect x="4.100" y="16.400" width="1.025" height="1.025" fill="#000505" fill-opacity="0.008" />
<rect x="27.675" y="16.400" width="1.025" height="1.025" fill="#000606" fill-opacity="0.016" />
<rect x="28.700" y="16.400" width="1.025" height="1.025" fill="#007476" fill-opacity="0.188" />
<rect x="29.725" y="16.400" width="1.025" height="1.025" fill="#d926de" fill-opacity="0.694" />
<rect x="30.750" y="16.400" width="1.025" height="1.025" fill="#ff00d8" fill-opacity="0.749" />
<rect x="31.775" y="16.400" width="1.025" height="1.025" fill="#827ceb" fill-opacity="0.780" />
<rect x="35.875" y="16.400" width="1.025" height="1.025" fill="#00fcff" fill-opacity="0.835" />
<rect x="36.900" y="16.400" width="1.025" height="1.025" fill="#ff00d8" />
<rect x="27.675" y="17.425" width="1.025" height="1.025" fill="#006667" fill-opacity="0.165" />
<rect x="28.700" y="17.425" width="1.025" height="1.025" fill="#00fafd" />
<rect x="29.725" y="17.425" width="1.025" height="1.025" fill="#d32bdf" fill-opacity="0.710" />
<rect x="30.750" y="17.425" width="1.025" height="1.025" fill="#00fcff" />
<rect x="31.775" y="17.425" width="1.025" height="1.025" fill="#ff00d8" fill-opacity="0.784" />
<rect x="32.800" y="17.425" width="1.025" height="1.025" fill="#00f2f5" />
<rect x="36.900" y="17.425" width="1.025" height="1.025" fill="#ff00d8" fill-opacity="0.835" />
<rect x="26.650" y="18.450" width="1.025" height="1.025" fill="#00afb1" fill-opacity="0.282" />
<rect x="27.675" y="18.450" width="1.025" height="1.025" fill="#00eef1" fill-opacity="0.333" />
<rect x="28.700" y="18.450" width="1.025" height="1.025" fill="#ff00d8" />
<rect x="29.725" y="18.450" width="1.025" height="1.025" fill="#46b7f4" />
<rect x="36.900" y="18.450" width="1.025" height="1.025" fill="#ff00d8" />
<rect x="25.625" y="19.475" width="1.025" height="1.025" fill="#00494a" fill-opacity="0.271" />
<rect x="26.650" y="19.475" width="1.025" height="1.025" fill="#00d7d9" fill-opacity="0.322" />
<rect x="27.675" y="19.475" width="1.025" height="1.025" fill="#00fcff" fill-opacity="0.651" />
<rect x="28.700" y="19.475" width="1.025" height="1.025" fill="#23d9fa" />
<rect x="29.725" y="19.475" width="1.025" height="1.025" fill="#ff00d8" />
<rect x="30.750" y="19.475" width="1.025" height="1.025" fill="#00fcff" />
<rect x="31.775" y="19.475" width="1.025" height="1.025" fill="#ff00d8" fill-opacity="0.804" />
<rect x="32.800" y="19.475" width="1.025" height="1.025" fill="#fe01d8" />
<rect x="33.825" y="19.475" width="1.025" height="1.025" fill="#10ecfd" fill-opacity="0.827" />
<rect x="34.850" y="19.475" width="1.025" height="1.025" fill="#ff00d8" />
<rect x="36.900" y="19.475" width="1.025" height="1.025" fill="#00fcff" fill-opacity="0.839" />
<rect x="25.625" y="20.500" width="1.025" height="1.025" fill="#00fcff" />
<rect x="26.650" y="20.500" width="1.025" height="1.025" fill="#17e5fb" />
<rect x="27.675" y="20.500" width="1.025" height="1.025" fill="#43baf5" fill-opacity="0.690" />
<rect x="28.700" y="20.500" width="1.025" height="1.025" fill="#b549e3" />
<rect x="29.725" y="20.500" width="1.025" height="1.025" fill="#6994ef" />
<rect x="30.750" y="20.500" width="1.025" height="1.025" fill="#00fcff" />
<rect x="31.775" y="20.500" width="1.025" height="1.025" fill="#ff00d8" />
<rect x="32.800" y="20.500" width="1.025" height="1.025" fill="#ff00d8" />
<rect x="33.825" y="20.500" width="1.025" height="1.025" fill="#fe01d8" />
<rect x="34.850" y="20.500" width="1.025" height="1.025" fill="#ff00d8" fill-opacity="0.835" />
<rect x="35.875" y="20.500" width="1.025" height="1.025" fill="#ff00d8" fill-opacity="0.835" />
<rect x="36.900" y="20.500" width="1.025" height="1.025" fill="#7885ed" />
<rect x="25.625" y="21.525" width="1.025" height="1.025" fill="#00fcff" fill-opacity="0.635" />
<rect x="26.650" y="21.525" width="1.025" height="1.025" fill="#48b5f4" fill-opacity="0.682" />
<rect x="27.675" y="21.525" width="1.025" height="1.025" fill="#8777ea" />
<rect x="28.700" y="21.525" width="1.025" height="1.025" fill="#af4fe4" fill-opacity="0.757" />
<rect x="29.725" y="21.525" width="1.025" height="1.025" fill="#00fcff" />
<rect x="30.750" y="21.525" width="1.025" height="1.025" fill="#ff00d8" />
<rect x="31.775" y="21.525" width="1.025" height="1.025" fill="#ff00d8" />
<rect x="32.800" y="21.525" width="1.025" height="1.025" fill="#ff00d8" />
<rect x="33.825" y="21.525" width="1.025" height="1.025" fill="#ff00d8" />
<rect x="34.850" y="21.525" width="1.025" height="1.025" fill="#ff00d8" />
<rect x="35.875" y="21.525" width="1.025" height="1.025" fill="#ff00d8" />
<rect x="36.900" y="21.525" width="1.025" height="1.025" fill="#ff00d8" fill-opacity="0.839" />
<rect x="24.600" y="22.550" width="1.025" height="1.025" fill="#00fcff" fill-opacity="0.643" />
<rect x="25.625" y="22.550" width="1.025" height="1.025" fill="#817deb" fill-opacity="0.690" />
<rect x="26.650" y="22.550" width="1.025" height="1.025" fill="#00fcff" fill-opacity="0.725" />
<rect x="27.675" y="22.550" width="1.025" height="1.025" fill="#ff00d8" />
<rect x="28.700" y="22.550" width="1.025" height="1.025" fill="#ff00d8" />
<rect x="29.725" y="22.550" width="1.025" height="1.025" fill="#ff00d8" />
<rect x="30.750" y="22.550" width="1.025" height="1.025" fill="#ff00d8" fill-opacity="0.812" />
<rect x="31.775" y="22.550" width="1.025" height="1.025" fill="#ff00d8" fill-opacity="0.824" />
<rect x="32.800" y="22.550" width="1.025" height="1.025" fill="#ff00d8" />
<rect x="33.825" y="22.550" width="1.025" height="1.025" fill="#ff00d8" />
<rect x="34.850" y="22.550" width="1.025" height="1.025" fill="#ff00d8" />
<rect x="35.875" y="22.550" width="1.025" height="1.025" fill="#ff00d8" />
<rect x="36.900" y="22.550" width="1.025" height="1.025" fill="#ff00d8" />
<rect x="24.600" y="23.575" width="1.025" height="1.025" fill="#00fcff" />
<rect x="25.625" y="23.575" width="1.025" height="1.025" fill="#08f4fe" fill-opacity="0.729" />
<rect x="26.650" y="23.575" width="1.025" height="1.025" fill="#ff00d8" fill-opacity="0.761" />
<rect x="27.675" y="23.575" width="1.025" height="1.025" fill="#ff00d8" />
<rect x="28.700" y="23.575" width="1.025" height="1.025" fill="#ff00d8" />
<rect x="29.725" y="23.575" width="1.025" height="1.025" fill="#ff00d8" />
<rect x="30.750" y="23.575" width="1.025" height="1.025" fill="#e916db" />
<rect x="31.775" y="23.575" width="1.025" height="1.025" fill="#b549e3" />
<rect x="32.800" y="23.575" width="1.025" height="1.025" fill="#b549e3" fill-opacity="0.835" />
<rect x="33.825" y="23.575" width="1.025" height="1.025" fill="#f00fda" />
<rect x="34.850" y="23.575" width="1.025" height="1.025" fill="#ff00d8" />
<rect x="35.875" y="23.575" width="1.025" height="1.025" fill="#ff00d8" />
<rect x="36.900" y="23.575" width="1.025" height="1.025" fill="#ff00d8" />
<rect x="24.600" y="24.600" width="1.025" height="1.025" fill="#ff00d8" />
<rect x="25.625" y="24.600" width="1.025" height="1.025" fill="#ea15db" />
<rect x="26.650" y="24.600" width="1.025" height="1.025" fill="#ff00d8" />
<rect x="27.675" y="24.600" width="1.025" height="1.025" fill="#ff00d8" />
<rect x="28.700" y="24.600" width="1.025" height="1.025" fill="#df1fdd" fill-opacity="0.808" />
<rect x="29.725" y="24.600" width="1.025" height="1.025" fill="#d728de" />
<rect x="30.750" y="24.600" width="1.025" height="1.025" fill="#ff00d8" />
<rect x="31.775" y="24.600" width="1.025" height="1.025" fill="#ff00d8" />
<rect x="32.800" y="24.600" width="1.025" height="1.025" fill="#ff00d8" fill-opacity="0.835" />
<rect x="33.825" y="24.600" width="1.025" height="1.025" fill="#ff00d8" />
<rect x="34.850" y="24.600" width="1.025" height="1.025" fill="#ff00d8" />
<rect x="35.875" y="24.600" width="1.025" height="1.025" fill="#ff00d8" />
<rect x="36.900" y="24.600" width="1.025" height="1.025" fill="#ff00d8" />
<rect x="23.575" y="25.625" width="1.025" height="1.025" fill="#ff00d8" fill-opacity="0.765" />
<rect x="24.600" y="25.625" width="1.025" height="1.025" fill="#ff00d8" fill-opacity="0.780" />
<rect x="25.625" y="25.625" width="1.025" height="1.025" fill="#ff00d8" fill-opacity="0.788" />
<rect x="26.650" y="25.625" width="1.025" height="1.025" fill="#00fcff" />
<rect x="27.675" y="25.625" width="1.025" height="1.025" fill="#ff00d8" />
<rect x="28.700" y="25.625" width="1.025" height="1.025" fill="#16e6fc" />
<rect x="29.725" y="25.625" width="1.025" height="1.025" fill="#ff00d8" />
<rect x="30.750" y="25.625" width="1.025" height="1.025" fill="#ff00d8" fill-opacity="0.835" />
<rect x="31.775" y="25.625" width="1.025" height="1.025" fill="#fc03d8" />
<rect x="32.800" y="25.625" width="1.025" height="1.025" fill="#ff00d8" />
<rect x="33.825" y="25.625" width="1.025" height="1.025" fill="#ff00d8" />
<rect x="34.850" y="25.625" width="1.025" height="1.025" fill="#ff00d8" fill-opacity="0.839" />
<rect x="35.875" y="25.625" width="1.025" height="1.025" fill="#b747e3" fill-opacity="0.839" />
<rect x="36.900" y="25.625" width="1.025" height="1.025" fill="#ff00d8" />
<rect x="22.550" y="26.650" width="1.025" height="1.025" fill="#ff00d8" fill-opacity="0.784" />
<rect x="23.575" y="26.650" width="1.025" height="1.025" fill="#ff00d8" />
<rect x="24.600" y="26.650" width="1.025" height="1.025" fill="#ff00d8" />
<rect x="25.625" y="26.650" width="1.025" height="1.025" fill="#ff00d8" />
<rect x="26.650" y="26.650" width="1.025" height="1.025" fill="#ff00d8" />
<rect x="27.675" y="26.650" width="1.025" height="1.025" fill="#ff00d8" />
<rect x="28.700" y="26.650" width="1.025" height="1.025" fill="#ff00d8" />
<rect x="29.725" y="26.650" width="1.025" height="1.025" fill="#00fcff" fill-opacity="0.835" />
<rect x="30.750" y="26.650" width="1.025" height="1.025" fill="#ff00d8" />
<rect x="31.775" y="26.650" width="1.025" height="1.025" fill="#946ae8" fill-opacity="0.835" />
<rect x="32.800" y="26.650" width="1.025" height="1.025" fill="#ff00d8" fill-opacity="0.835" />
<rect x="33.825" y="26.650" width="1.025" height="1.025" fill="#43baf5" fill-opacity="0.839" />
<rect x="34.850" y="26.650" width="1.025" height="1.025" fill="#fb04d9" />
<rect x="35.875" y="26.650" width="1.025" height="1.025" fill="#54a9f2" />
<rect x="20.500" y="27.675" width="1.025" height="1.025" fill="#c03ee2" />
<rect x="21.525" y="27.675" width="1.025" height="1.025" fill="#00fcff" />
<rect x="22.550" y="27.675" width="1.025" height="1.025" fill="#ff00d8" />
<rect x="23.575" y="27.675" width="1.025" height="1.025" fill="#ff00d8" fill-opacity="0.812" />
<rect x="24.600" y="27.675" width="1.025" height="1.025" fill="#ff00d8" fill-opacity="0.816" />
<rect x="25.625" y="27.675" width="1.025" height="1.025" fill="#ff00d8" fill-opacity="0.820" />
<rect x="26.650" y="27.675" width="1.025" height="1.025" fill="#ff00d8" />
<rect x="27.675" y="27.675" width="1.025" height="1.025" fill="#ff00d8" fill-opacity="0.831" />
<rect x="28.700" y="27.675" width="1.025" height="1.025" fill="#ff00d8" />
<rect x="29.725" y="27.675" width="1.025" height="1.025" fill="#f609d9" />
<rect x="30.750" y="27.675" width="1.025" height="1.025" fill="#f30bda" />
<rect x="31.775" y="27.675" width="1.025" height="1.025" fill="#ff00d8" fill-opacity="0.839" />
<rect x="32.800" y="27.675" width="1.025" height="1.025" fill="#a757e5" />
<rect x="33.825" y="27.675" width="1.025" height="1.025" fill="#ff00d8" />
<rect x="34.850" y="27.675" width="1.025" height="1.025" fill="#ff00d8" />
<rect x="35.875" y="27.675" width="1.025" height="1.025" fill="#ff00d8" />
<rect x="36.900" y="27.675" width="1.025" height="1.025" fill="#639af0" />
<rect x="20.500" y="28.700" width="1.025" height="1.025" fill="#ff00d8" />
<rect x="21.525" y="28.700" width="1.025" height="1.025" fill="#ff00d8" fill-opacity="0.816" />
<rect x="22.550" y="28.700" width="1.025" height="1.025" fill="#ff00d8" fill-opacity="0.816" />
<rect x="23.575" y="28.700" width="1.025" height="1.025" fill="#ff00d8" />
<rect x="24.600" y="28.700" width="1.025" height="1.025" fill="#ff00d8" fill-opacity="0.827" />
<rect x="25.625" y="28.700" width="1.025" height="1.025" fill="#ff00d8" fill-opacity="0.831" />
<rect x="26.650" y="28.700" width="1.025" height="1.025" fill="#ff00d8" />
<rect x="27.675" y="28.700" width="1.025" height="1.025" fill="#ff00d8" fill-opacity="0.835" />
<rect x="28.700" y="28.700" width="1.025" height="1.025" fill="#ff00d8" fill-opacity="0.835" />
<rect x="29.725" y="28.700" width="1.025" height="1.025" fill="#ff00d8" />
<rect x="30.750" y="28.700" width="1.025" height="1.025" fill="#7687ed" />
<rect x="31.775" y="28.700" width="1.025" height="1.025" fill="#ff00d8" fill-opacity="0.839" />
<rect x="32.800" y="28.700" width="1.025" height="1.025" fill="#ff00d8" />
<rect x="33.825" y="28.700" width="1.025" height="1.025" fill="#ff00d8" fill-opacity="0.839" />
<rect x="34.850" y="28.700" width="1.025" height="1.025" fill="#e31cdc" />
<rect x="35.875" y="28.700" width="1.025" height="1.025" fill="#916ce9" fill-opacity="0.839" />
<rect x="36.900" y="28.700" width="1.025" height="1.025" fill="#ff00d8" />
<rect x="20.500" y="29.725" width="1.025" height="1.025" fill="#ff00d8" />
<rect x="21.525" y="29.725" width="1.025" height="1.025" fill="#ff00d8" fill-opacity="0.831" />
<rect x="22.550" y="29.725" width="1.025" height="1.025" fill="#ff00d8" />
<rect x="23.575" y="29.725" width="1.025" height="1.025" fill="#ff00d8" fill-opacity="0.831" />
<rect x="24.600" y="29.725" width="1.025" height="1.025" fill="#ff00d8" fill-opacity="0.835" />
<rect x="25.625" y="29.725" width="1.025" height="1.025" fill="#ff00d8" />
<rect x="26.650" y="29.725" width="1.025" height="1.025" fill="#00fcff" />
<rect x="28.700" y="29.725" width="1.025" height="1.025" fill="#00fcff" fill-opacity="0.835" />
<rect x="29.725" y="29.725" width="1.025" height="1.025" fill="#ff00d8" fill-opacity="0.839" />
<rect x="30.750" y="29.725" width="1.025" height="1.025" fill="#c935e0" fill-opacity="0.839" />
<rect x="31.775" y="29.725" width="1.025" height="1.025" fill="#ff00d8" fill-opacity="0.839" />
<rect x="32.800" y="29.725" width="1.025" height="1.025" fill="#ff00d8" />
<rect x="33.825" y="29.725" width="1.025" height="1.025" fill="#ff00d8" />
<rect x="34.850" y="29.725" width="1.025" height="1.025" fill="#ff00d8" fill-opacity="0.839" />
<rect x="35.875" y="29.725" width="1.025" height="1.025" fill="#ff00d8" fill-opacity="0.839" />
<rect x="36.900" y="29.725" width="1.025" height="1.025" fill="#ff00d8" />
<rect x="30.750" y="30.750" width="1.025" height="1.025" fill="#ff00d8" />
<rect x="31.775" y="30.750" width="1.025" height="1.025" fill="#ff00d8" fill-opacity="0.839" />
<rect x="32.800" y="30.750" width="1.025" height="1.025" fill="#ff00d8" />
<rect x="33.825" y="30.750" width="1.025" height="1.025" fill="#ff00d8" fill-opacity="0.839" />
<rect x="34.850" y="30.750" width="1.025" height="1.025" fill="#ff00d8" />
<rect x="35.875" y="30.750" width="1.025" height="1.025" fill="#ff00d8" />
<rect x="36.900" y="30.750" width="1.025" height="1.025" fill="#837aeb" />
<rect x="24.600" y="31.775" width="1.025" height="1.025" fill="#ff00d8" fill-opacity="0.835" />
<rect x="25.625" y="31.775" width="1.025" height="1.025" fill="#ff00d8" fill-opacity="0.839" />
<rect x="26.650" y="31.775" width="1.025" height="1.025" fill="#59a4f1" fill-opacity="0.839" />
<rect x="27.675" y="31.775" width="1.025" height="1.025" fill="#00fcff" />
<rect x="28.700" y="31.775" width="1.025" height="1.025" fill="#ff00d8" fill-opacity="0.839" />
<rect x="29.725" y="31.775" width="1.025" height="1.025" fill="#ff00d8" />
<rect x="30.750" y="31.775" width="1.025" height="1.025" fill="#ff00d8" />
<rect x="31.775" y="31.775" width="1.025" height="1.025" fill="#ff00d8" />
<rect x="32.800" y="31.775" width="1.025" height="1.025" fill="#ff00d8" />
<rect x="33.825" y="31.775" width="1.025" height="1.025" fill="#ff00d8" />
<rect x="34.850" y="31.775" width="1.025" height="1.025" fill="#ff00d8" />
<rect x="35.875" y="31.775" width="1.025" height="1.025" fill="#fa05d9" />
<rect x="36.900" y="31.775" width="1.025" height="1.025" fill="#40bdf5" />
<rect x="23.575" y="32.800" width="1.025" height="1.025" fill="#ff00d8" />
<rect x="24.600" y="32.800" width="1.025" height="1.025" fill="#ff00d8" />
<rect x="25.625" y="32.800" width="1.025" height="1.025" fill="#ff00d8" fill-opacity="0.839" />
<rect x="26.650" y="32.800" width="1.025" height="1.025" fill="#ff00d8" fill-opacity="0.839" />
<rect x="27.675" y="32.800" width="1.025" height="1.025" fill="#ff00d8" />
<rect x="28.700" y="32.800" width="1.025" height="1.025" fill="#ff00d8" />
<rect x="29.725" y="32.800" width="1.025" height="1.025" fill="#ff00d8" />
<rect x="30.750" y="32.800" width="1.025" height="1.025" fill="#ff00d8" fill-opacity="0.839" />
<rect x="31.775" y="32.800" width="1.025" height="1.025" fill="#ff00d8" />
<rect x="32.800" y="32.800" width="1.025" height="1.025" fill="#ff00d8" />
<rect x="33.825" y="32.800" width="1.025" height="1.025" fill="#ff00d8" />
<rect x="34.850" y="32.800" width="1.025" height="1.025" fill="#ff00d8" fill-opacity="0.839" />
<rect x="35.875" y="32.800" width="1.025" height="1.025" fill="#ff00d8" fill-opacity="0.839" />
<rect x="24.600" y="33.825" width="1.025" height="1.025" fill="#41bcf5" />
<rect x="25.625" y="33.825" width="1.025" height="1.025" fill="#f10dda" />
<rect x="26.650" y="33.825" width="1.025" height="1.025" fill="#00fcff" fill-opacity="0.839" />
</svg>