<svg xmlns="http://www.w3.org/2000/svg" width="37.925" height="37.925" shape-rendering="crispEdges" style="image-rendering: pixelated;">
<rect x="13.325" y="27.675" width="1.025" height="1.025" fill="#000000" />
<rect x="14.350" y="27.675" width="1.025" height="1.025" fill="#ea77e3" />
<rect x="15.375" y="27.675" width="1.025" height="1.025" fill="#00fcff" />
<rect x="16.400" y="27.675" width="1.025" height="1.025" fill="#009294" />
<rect x="17.425" y="27.675" width="1.025" height="1.025" fill="#000400" />
<rect x="18.450" y="27.675" width="1.025" height="1.025" fill="#000000" />
<rect x="11.275" y="28.700" width="1.025" height="1.025" fill="#000000" />
<rect x="12.300" y="28.700" width="1.025" height="1.025" fill="#000000" />
<rect x="13.325" y="28.700" width="1.025" height="1.025" fill="#00fcff" />
<rect x="14.350" y="28.700" width="1.025" height="1.025" fill="#00fcff" />
<rect x="15.375" y="28.700" width="1.025" height="1.025" fill="#00fcff" />
<rect x="16.400" y="28.700" width="1.025" height="1.025" fill="#006061" />
<rect x="17.425" y="28.700" width="1.025" height="1.025" fill="#eaff00" />
<rect x="18.450" y="28.700" width="1.025" height="1.025" fill="#00bcbf" />
<rect x="19.475" y="28.700" width="1.025" height="1.025" fill="#000000" />
<rect x="20.500" y="28.700" width="1.025" height="1.025" fill="#000000" />
<rect x="9.225" y="29.725" width="1.025" height="1.025" fill="#000000" />
<rect x="10.250" y="29.725" width="1.025" height="1.025" fill="#000000" />
<rect x="11.275" y="29.725" width="1.025" height="1.025" fill="#00fcff" />
<rect x="12.300" y="29.725" width="1.025" height="1.025" fill="#00fcff" />
<rect x="13.325" y="29.725" width="1.025" height="1.025" fill="#00fcff" />
<rect x="14.350" y="29.725" width="1.025" height="1.025" fill="#00fcff" />
<rect x="15.375" y="29.725" width="1.025" height="1.025" fill="#00fcff" />
<rect x="16.400" y="29.725" width="1.025" height="1.025" fill="#00f9fc" />
<rect x="17.425" y="29.725" width="1.025" height="1.025" fill="#000400" />
<rect x="18.450" y="29.725" width="1.025" height="1.025" fill="#00bcbf" />
<rect x="19.475" y="29.725" width="1.025" height="1.025" fill="#00fcff" />
<rect x="20.500" y="29.725" width="1.025" height="1.025" fill="#00fcff" />
<rect x="21.525" y="29.725" width="1.025" height="1.025" fill="#000000" />
<rect x="22.550" y="29.725" width="1.025" height="1.025" fill="#000000" />
<rect x="23.575" y="29.725" width="1.025" height="1.025" fill="#000000" />
<rect x="7.175" y="30.750" width="1.025" height="1.025" fill="#000000" />
<rect x="8.200" y="30.750" width="1.025" height="1.025" fill="#000000" />
<rect x="9.225" y="30.750" width="1.025" height="1.025" fill="#00fcff" />
<rect x="10.250" y="30.750" width="1.025" height="1.025" fill="#00fcff" />
<rect x="11.275" y="30.750" width="1.025" height="1.025" fill="#00fcff" />
<rect x="12.300" y="30.750" width="1.025" height="1.025" fill="#00fcff" />
<rect x="13.325" y="30.750" width="1.025" height="1.025" fill="#00fcff" />
<rect x="14.350" y="30.750" width="1.025" height="1.025" fill="#00fcff" />
<rect x="15.375" y="30.750" width="1.025" height="1.025" fill="#00fcff" />
<rect x="16.400" y="30.750" width="1.025" height="1.025" fill="#00fcff" />
<rect x="17.425" y="30.750" width="1.025" height="1.025" fill="#006b6d" />
<rect x="18.450" y="30.750" width="1.025" height="1.025" fill="#eaff00" />
<rect x="19.475" y="30.750" width="1.025" height="1.025" fill="#009294" />
<rect x="20.500" y="30.750" width="1.025" height="1.025" fill="#00fcff" />
<rect x="21.525" y="30.750" width="1.025" height="1.025" fill="#00fcff" />
<rect x="22.550" y="30.750" width="1.025" height="1.025" fill="#00fcff" />
<rect x="23.575" y="30.750" width="1.025" height="1.025" fill="#00fcff" />
<rect x="24.600" y="30.750" width="1.025" height="1.025" fill="#000000" />
<rect x="25.625" y="30.750" width="1.025" height="1.025" fill="#000000" />
<rect x="6.150" y="31.775" width="1.025" height="1.025" fill="#000000" />
<rect x="7.175" y="31.775" width="1.025" height="1.025" fill="#cfa6ec" />
<rect x="8.200" y="31.775" width="1.025" height="1.025" fill="#00fcff" />
<rect x="9.225" y="31.775" width="1.025" height="1.025" fill="#00e3e6" />
<rect x="10.250" y="31.775" width="1.025" height="1.025" fill="#00fcff" />
<rect x="11.275" y="31.775" width="1.025" height="1.025" fill="#00fcff" />
<rect x="12.300" y="31.775" width="1.025" height="1.025" fill="#00fcff" />
<rect x="13.325" y="31.775" width="1.025" height="1.025" fill="#00fcff" />
<rect x="14.350" y="31.775" width="1.025" height="1.025" fill="#00fcff" />
<rect x="15.375" y="31.775" width="1.025" height="1.025" fill="#00fcff" />
<rect x="16.400" y="31.775" width="1.025" height="1.025" fill="#00f9fc" />
<rect x="17.425" y="31.775" width="1.025" height="1.025" fill="#004849" />
<rect x="18.450" y="31.775" width="1.025" height="1.025" fill="#000400" />
<rect x="19.475" y="31.775" width="1.025" height="1.025" fill="#006b6d" />
<rect x="20.500" y="31.775" width="1.025" height="1.025" fill="#00e3e6" />
<rect x="21.525" y="31.775" width="1.025" height="1.025" fill="#00fcff" />
<rect x="22.550" y="31.775" width="1.025" height="1.025" fill="#00fcff" />
<rect x="23.575" y="31.775" width="1.025" height="1.025" fill="#00fcff" />
<rect x="24.600" y="31.775" width="1.025" height="1.025" fill="#000000" />
<rect x="25.625" y="31.775" width="1.025" height="1.025" fill="#00fcff" />
<rect x="26.650" y="31.775" width="1.025" height="1.025" fill="#000000" />
<rect x="5.125" y="32.800" width="1.025" height="1.025" fill="#000000" />
<rect x="6.150" y="32.800" width="1.025" height="1.025" fill="#eaff00" />
<rect x="7.175" y="32.800" width="1.025" height="1.025" fill="#56f2fd" />
<rect x="8.200" y="32.800" width="1.025" height="1.025" fill="#00fcff" />
<rect x="9.225" y="32.800" width="1.025" height="1.025" fill="#00e3e6" />
<rect x="10.250" y="32.800" width="1.025" height="1.025" fill="#00fcff" />
<rect x="11.275" y="32.800" width="1.025" height="1.025" fill="#00fcff" />
<rect x="12.300" y="32.800" width="1.025" height="1.025" fill="#00f9fc" />
<rect x="13.325" y="32.800" width="1.025" height="1.025" fill="#00e3e6" />
<rect x="14.350" y="32.800" width="1.025" height="1.025" fill="#00eff2" />
<rect x="15.375" y="32.800" width="1.025" height="1.025" fill="#00e3e6" />
<rect x="16.400" y="32.800" width="1.025" height="1.025" fill="#00eff2" />
<rect x="17.425" y="32.800" width="1.025" height="1.025" fill="#003d3e" />
<rect x="18.450" y="32.800" width="1.025" height="1.025" fill="#eaff00" />
<rect x="19.475" y="32.800" width="1.025" height="1.025" fill="#007879" />
<rect x="20.500" y="32.800" width="1.025" height="1.025" fill="#00e3e6" />
<rect x="21.525" y="32.800" width="1.025" height="1.025" fill="#00eff2" />
<rect x="22.550" y="32.800" width="1.025" height="1.025" fill="#00fcff" />
<rect x="23.575" y="32.800" width="1.025" height="1.025" fill="#00fcff" />
<rect x="24.600" y="32.800" width="1.025" height="1.025" fill="#00fcff" />
<rect x="25.625" y="32.800" width="1.025" height="1.025" fill="#00fcff" />
<rect x="26.650" y="32.800" width="1.025" height="1.025" fill="#ff00d8" />
<rect x="27.675" y="32.800" width="1.025" height="1.025" fill="#000000" />
<rect x="5.125" y="33.825" width="1.025" height="1.025" fill="#000000" />
<rect x="6.150" y="33.825" width="1.025" height="1.025" fill="#ff00d8" />
<rect x="7.175" y="33.825" width="1.025" height="1.025" fill="#71eafb" />
<rect x="8.200" y="33.825" width="1.025" height="1.025" fill="#00fcff" />
<rect x="9.225" y="33.825" width="1.025" height="1.025" fill="#00fcff" />
<rect x="10.250" y="33.825" width="1.025" height="1.025" fill="#ea77e3" />
<rect x="11.275" y="33.825" width="1.025" height="1.025" fill="#00fcff" />
<rect x="12.300" y="33.825" width="1.025" height="1.025" fill="#00fcff" />
<rect x="13.325" y="33.825" width="1.025" height="1.025" fill="#00bcbf" />
<rect x="14.350" y="33.825" width="1.025" height="1.025" fill="#00cacc" />
<rect x="15.375" y="33.825" width="1.025" height="1.025" fill="#00e3e6" />
<rect x="16.400" y="33.825" width="1.025" height="1.025" fill="#00d7da" />
<rect x="17.425" y="33.825" width="1.025" height="1.025" fill="#003d3e" />
<rect x="18.450" y="33.825" width="1.025" height="1.025" fill="#000400" />
<rect x="19.475" y="33.825" width="1.025" height="1.025" fill="#007879" />
<rect x="20.500" y="33.825" width="1.025" height="1.025" fill="#00e3e6" />
<rect x="21.525" y="33.825" width="1.025" height="1.025" fill="#00eff2" />
<rect x="22.550" y="33.825" width="1.025" height="1.025" fill="#00f9fc" />
<rect x="23.575" y="33.825" width="1.025" height="1.025" fill="#00fcff" />
<rect x="24.600" y="33.825" width="1.025" height="1.025" fill="#fa3bdb" />
<rect x="25.625" y="33.825" width="1.025" height="1.025" fill="#00fcff" />
<rect x="26.650" y="33.825" width="1.025" height="1.025" fill="#ff00d8" />
<rect x="27.675" y="33.825" width="1.025" height="1.025" fill="#000000" />
<rect x="5.125" y="34.850" width="1.025" height="1.025" fill="#000000" />
<rect x="6.150" y="34.850" width="1.025" height="1.025" fill="#ff00d8" />
<rect x="7.175" y="34.850" width="1.025" height="1.025" fill="#71eafb" />
<rect x="8.200" y="34.850" width="1.025" height="1.025" fill="#00fcff" />
<rect x="9.225" y="34.850" width="1.025" height="1.025" fill="#babdf1" />
<rect x="10.250" y="34.850" width="1.025" height="1.025" fill="#000000" />
<rect x="11.275" y="34.850" width="1.025" height="1.025" fill="#e289e6" />
<rect x="12.300" y="34.850" width="1.025" height="1.025" fill="#00fcff" />
<rect x="13.325" y="34.850" width="1.025" height="1.025" fill="#00fcff" />
<rect x="14.350" y="34.850" width="1.025" height="1.025" fill="#00fcff" />
<rect x="15.375" y="34.850" width="1.025" height="1.025" fill="#00cacc" />
<rect x="16.400" y="34.850" width="1.025" height="1.025" fill="#00eff2" />
<rect x="17.425" y="34.850" width="1.025" height="1.025" fill="#006061" />
<rect x="18.450" y="34.850" width="1.025" height="1.025" fill="#eaff00" />
<rect x="19.475" y="34.850" width="1.025" height="1.025" fill="#00a0a2" />
<rect x="20.500" y="34.850" width="1.025" height="1.025" fill="#00d7da" />
<rect x="21.525" y="34.850" width="1.025" height="1.025" fill="#00e3e6" />
<rect x="22.550" y="34.850" width="1.025" height="1.025" fill="#00fcff" />
<rect x="23.575" y="34.850" width="1.025" height="1.025" fill="#88e0f9" />
<rect x="24.600" y="34.850" width="1.025" height="1.025" fill="#000000" />
<rect x="25.625" y="34.850" width="1.025" height="1.025" fill="#00fcff" />
<rect x="26.650" y="34.850" width="1.025" height="1.025" fill="#ff00d8" />
<rect x="27.675" y="34.850" width="1.025" height="1.025" fill="#000000" />
<rect x="5.125" y="35.875" width="1.025" height="1.025" fill="#000000" />
<rect x="6.150" y="35.875" width="1.025" height="1.025" fill="#ff00d8" />
<rect x="7.175" y="35.875" width="1.025" height="1.025" fill="#71eafb" />
<rect x="8.200" y="35.875" width="1.025" height="1.025" fill="#00fcff" />
<rect x="9.225" y="35.875" width="1.025" height="1.025" fill="#d999e9" />
<rect x="10.250" y="35.875" width="1.025" height="1.025" fill="#000000" />
<rect x="11.275" y="35.875" width="1.025" height="1.025" fill="#ff00d8" />
<rect x="12.300" y="35.875" width="1.025" height="1.025" fill="#00fcff" />
<rect x="13.325" y="35.875" width="1.025" height="1.025" fill="#71eafb" />
<rect x="14.350" y="35.875" width="1.025" height="1.025" fill="#00fcff" />
<rect x="15.375" y="35.875" width="1.025" height="1.025" fill="#00fcff" />
<rect x="16.400" y="35.875" width="1.025" height="1.025" fill="#00fcff" />
<rect x="17.425" y="35.875" width="1.025" height="1.025" fill="#009294" />
<rect x="18.450" y="35.875" width="1.025" height="1.025" fill="#000400" />
<rect x="19.475" y="35.875" width="1.025" height="1.025" fill="#00d7da" />
<rect x="20.500" y="35.875" width="1.025" height="1.025" fill="#00fcff" />
<rect x="21.525" y="35.875" width="1.025" height="1.025" fill="#00fcff" />
<rect x="22.550" y="35.875" width="1.025" height="1.025" fill="#31f9fe" />
<rect x="23.575" y="35.875" width="1.025" height="1.025" fill="#fd26d9" />
<rect x="24.600" y="35.875" width="1.025" height="1.025" fill="#000000" />
<rect x="25.625" y="35.875" width="1.025" height="1.025" fill="#00fcff" />
<rect x="26.650" y="35.875" width="1.025" height="1.025" fill="#ff00d8" />
<rect x="27.675" y="35.875" width="1.025" height="1.025" fill="#000000" />
<rect x="5.125" y="36.900" width="1.025" height="1.025" fill="#000000" />
<rect x="6.150" y="36.900" width="1.025" height="1.025" fill="#ff00d8" />
<rect x="7.175" y="36.900" width="1.025" height="1.025" fill="#31f9fe" />
<rect x="8.200" y="36.900" width="1.025" height="1.025" fill="#00fcff" />
<rect x="9.225" y="36.900" width="1.025" height="1.025" fill="#acc9f3" />
<rect x="10.250" y="36.900" width="1.025" height="1.025" fill="#000000" />
<rect x="11.275" y="36.900" width="1.025" height="1.025" fill="#ff00d8" />
<rect x="12.300" y="36.900" width="1.025" height="1.025" fill="#ff06d8" />
<rect x="13.325" y="36.900" width="1.025" height="1.025" fill="#9cd5f6" />
<rect x="14.350" y="36.900" width="1.025" height="1.025" fill="#003d3e" />
<rect x="15.375" y="36.900" width="1.025" height="1.025" fill="#71eafb" />
<rect x="16.400" y="36.900" width="1.025" height="1.025" fill="#00fcff" />
<rect x="17.425" y="36.900" width="1.025" height="1.025" fill="#00a0a2" />
<rect x="18.450" y="36.900" width="1.025" height="1.025" fill="#eaff00" />
<rect x="19.475" y="36.900" width="1.025" height="1.025" fill="#00f9fc" />
<rect x="20.500" y="36.900" width="1.025" height="1.025" fill="#00fcff" />
<rect x="21.525" y="36.900" width="1.025" height="1.025" fill="#00fcff" />
<rect x="22.550" y="36.900" width="1.025" height="1.025" fill="#003d3e" />
<rect x="23.575" y="36.900" width="1.025" height="1.025" fill="#ff00d8" />
<rect x="24.600" y="36.900" width="1.025" height="1.025" fill="#000000" />
<rect x="25.625" y="36.900" width="1.025" height="1.025" fill="#00fcff" />
<rect x="26.650" y="36.900" width="1.025" height="1.025" fill="#ff00d8" />
<rect x="27.675" y="36.900" width="1.025" height="1.025" fill="#000000" />
</svg>