<svg xmlns="http://www.w3.org/2000/svg" width="37.925" height="37.925" shape-rendering="crispEdges" style="image-rendering: pixelated;">
<rect x="11.275" y="28.700" width="1.025" height="1.025" fill="#eaff00" />
<rect x="12.300" y="28.700" width="1.025" height="1.025" fill="#41ff00" />
<rect x="13.325" y="28.700" width="1.025" height="1.025" fill="#eaff00" />
<rect x="20.500" y="28.700" width="1.025" height="1.025" fill="#ff00d8" />
<rect x="21.525" y="28.700" width="1.025" height="1.025" fill="#eaff00" />
<rect x="9.225" y="29.725" width="1.025" height="1.025" fill="#eaff00" />
<rect x="10.250" y="29.725" width="1.025" height="1.025" fill="#eaff00" />
<rect x="11.275" y="29.725" width="1.025" height="1.025" fill="#98ff00" />
<rect x="12.300" y="29.725" width="1.025" height="1.025" fill="#5dff06" />
<rect x="13.325" y="29.725" width="1.025" height="1.025" fill="#50ff07" />
<rect x="14.350" y="29.725" width="1.025" height="1.025" fill="#5aff06" />
<rect x="19.475" y="29.725" width="1.025" height="1.025" fill="#2cff00" />
<rect x="20.500" y="29.725" width="1.025" height="1.025" fill="#035e00" />
<rect x="21.525" y="29.725" width="1.025" height="1.025" fill="#4eff07" />
<rect x="22.550" y="29.725" width="1.025" height="1.025" fill="#ff00d8" />
<rect x="23.575" y="29.725" width="1.025" height="1.025" fill="#ff00d8" />
<rect x="7.175" y="30.750" width="1.025" height="1.025" fill="#ff00d8" />
<rect x="8.200" y="30.750" width="1.025" height="1.025" fill="#eaff00" />
<rect x="9.225" y="30.750" width="1.025" height="1.025" fill="#047400" />
<rect x="10.250" y="30.750" width="1.025" height="1.025" fill="#035e00" />
<rect x="11.275" y="30.750" width="1.025" height="1.025" fill="#3cff00" />
<rect x="12.300" y="30.750" width="1.025" height="1.025" fill="#024100" />
<rect x="13.325" y="30.750" width="1.025" height="1.025" fill="#013f00" />
<rect x="14.350" y="30.750" width="1.025" height="1.025" fill="#024100" />
<rect x="15.375" y="30.750" width="1.025" height="1.025" fill="#024200" />
<rect x="19.475" y="30.750" width="1.025" height="1.025" fill="#013f00" />
<rect x="20.500" y="30.750" width="1.025" height="1.025" fill="#013f00" />
<rect x="21.525" y="30.750" width="1.025" height="1.025" fill="#024200" />
<rect x="22.550" y="30.750" width="1.025" height="1.025" fill="#047400" />
<rect x="23.575" y="30.750" width="1.025" height="1.025" fill="#57ff06" />
<rect x="24.600" y="30.750" width="1.025" height="1.025" fill="#ff00d8" />
<rect x="25.625" y="30.750" width="1.025" height="1.025" fill="#ff00d8" />
<rect x="6.150" y="31.775" width="1.025" height="1.025" fill="#ff00d8" />
<rect x="7.175" y="31.775" width="1.025" height="1.025" fill="#eaff00" />
<rect x="8.200" y="31.775" width="1.025" height="1.025" fill="#035d00" />
<rect x="9.225" y="31.775" width="1.025" height="1.025" fill="#024b00" />
<rect x="10.250" y="31.775" width="1.025" height="1.025" fill="#024800" />
<rect x="11.275" y="31.775" width="1.025" height="1.025" fill="#035500" />
<rect x="12.300" y="31.775" width="1.025" height="1.025" fill="#024200" />
<rect x="13.325" y="31.775" width="1.025" height="1.025" fill="#024200" />
<rect x="14.350" y="31.775" width="1.025" height="1.025" fill="#024200" />
<rect x="15.375" y="31.775" width="1.025" height="1.025" fill="#024200" />
<rect x="16.400" y="31.775" width="1.025" height="1.025" fill="#024800" />
<rect x="18.450" y="31.775" width="1.025" height="1.025" fill="#024100" />
<rect x="19.475" y="31.775" width="1.025" height="1.025" fill="#024100" />
<rect x="20.500" y="31.775" width="1.025" height="1.025" fill="#024000" />
<rect x="21.525" y="31.775" width="1.025" height="1.025" fill="#024000" />
<rect x="22.550" y="31.775" width="1.025" height="1.025" fill="#024800" />
<rect x="23.575" y="31.775" width="1.025" height="1.025" fill="#035a00" />
<rect x="24.600" y="31.775" width="1.025" height="1.025" fill="#024200" />
<rect x="25.625" y="31.775" width="1.025" height="1.025" fill="#047600" />
<rect x="26.650" y="31.775" width="1.025" height="1.025" fill="#ff00d8" />
<rect x="5.125" y="32.800" width="1.025" height="1.025" fill="#ff00d8" />
<rect x="6.150" y="32.800" width="1.025" height="1.025" fill="#70ff05" />
<rect x="7.175" y="32.800" width="1.025" height="1.025" fill="#8dff02" />
<rect x="8.200" y="32.800" width="1.025" height="1.025" fill="#046400" />
<rect x="9.225" y="32.800" width="1.025" height="1.025" fill="#025100" />
<rect x="10.250" y="32.800" width="1.025" height="1.025" fill="#024b00" />
<rect x="11.275" y="32.800" width="1.025" height="1.025" fill="#035d00" />
<rect x="12.300" y="32.800" width="1.025" height="1.025" fill="#024800" />
<rect x="13.325" y="32.800" width="1.025" height="1.025" fill="#024700" />
<rect x="14.350" y="32.800" width="1.025" height="1.025" fill="#024200" />
<rect x="15.375" y="32.800" width="1.025" height="1.025" fill="#024200" />
<rect x="16.400" y="32.800" width="1.025" height="1.025" fill="#024200" />
<rect x="17.425" y="32.800" width="1.025" height="1.025" fill="#024200" />
<rect x="18.450" y="32.800" width="1.025" height="1.025" fill="#024200" />
<rect x="19.475" y="32.800" width="1.025" height="1.025" fill="#024200" />
<rect x="20.500" y="32.800" width="1.025" height="1.025" fill="#024200" />
<rect x="21.525" y="32.800" width="1.025" height="1.025" fill="#024200" />
<rect x="22.550" y="32.800" width="1.025" height="1.025" fill="#024200" />
<rect x="23.575" y="32.800" width="1.025" height="1.025" fill="#025100" />
<rect x="24.600" y="32.800" width="1.025" height="1.025" fill="#046400" />
<rect x="25.625" y="32.800" width="1.025" height="1.025" fill="#024a00" />
<rect x="26.650" y="32.800" width="1.025" height="1.025" fill="#41ff00" />
<rect x="27.675" y="32.800" width="1.025" height="1.025" fill="#ff00d8" />
<rect x="5.125" y="33.825" width="1.025" height="1.025" fill="#ff00d8" />
<rect x="6.150" y="33.825" width="1.025" height="1.025" fill="#7fff04" />
<rect x="7.175" y="33.825" width="1.025" height="1.025" fill="#b4ff00" />
<rect x="8.200" y="33.825" width="1.025" height="1.025" fill="#035e00" />
<rect x="9.225" y="33.825" width="1.025" height="1.025" fill="#70ff05" />
<rect x="10.250" y="33.825" width="1.025" height="1.025" fill="#eaff00" />
<rect x="11.275" y="33.825" width="1.025" height="1.025" fill="#7fff04" />
<rect x="12.300" y="33.825" width="1.025" height="1.025" fill="#024b00" />
<rect x="13.325" y="33.825" width="1.025" height="1.025" fill="#024b00" />
<rect x="14.350" y="33.825" width="1.025" height="1.025" fill="#024a00" />
<rect x="15.375" y="33.825" width="1.025" height="1.025" fill="#024800" />
<rect x="16.400" y="33.825" width="1.025" height="1.025" fill="#024800" />
<rect x="17.425" y="33.825" width="1.025" height="1.025" fill="#024800" />
<rect x="18.450" y="33.825" width="1.025" height="1.025" fill="#024a00" />
<rect x="19.475" y="33.825" width="1.025" height="1.025" fill="#024800" />
<rect x="20.500" y="33.825" width="1.025" height="1.025" fill="#024800" />
<rect x="21.525" y="33.825" width="1.025" height="1.025" fill="#024800" />
<rect x="22.550" y="33.825" width="1.025" height="1.025" fill="#024a00" />
<rect x="23.575" y="33.825" width="1.025" height="1.025" fill="#57ff06" />
<rect x="24.600" y="33.825" width="1.025" height="1.025" fill="#eaff00" />
<rect x="25.625" y="33.825" width="1.025" height="1.025" fill="#4bff07" />
<rect x="26.650" y="33.825" width="1.025" height="1.025" fill="#4eff07" />
<rect x="27.675" y="33.825" width="1.025" height="1.025" fill="#ff00d8" />
<rect x="5.125" y="34.850" width="1.025" height="1.025" fill="#ff00d8" />
<rect x="6.150" y="34.850" width="1.025" height="1.025" fill="#a6ff00" />
<rect x="7.175" y="34.850" width="1.025" height="1.025" fill="#b9ff00" />
<rect x="8.200" y="34.850" width="1.025" height="1.025" fill="#018900" />
<rect x="9.225" y="34.850" width="1.025" height="1.025" fill="#eaff00" />
<rect x="10.250" y="34.850" width="1.025" height="1.025" fill="#ff00d8" />
<rect x="11.275" y="34.850" width="1.025" height="1.025" fill="#eaff00" />
<rect x="12.300" y="34.850" width="1.025" height="1.025" fill="#035e00" />
<rect x="13.325" y="34.850" width="1.025" height="1.025" fill="#41ff00" />
<rect x="14.350" y="34.850" width="1.025" height="1.025" fill="#025100" />
<rect x="15.375" y="34.850" width="1.025" height="1.025" fill="#024b00" />
<rect x="16.400" y="34.850" width="1.025" height="1.025" fill="#024b00" />
<rect x="17.425" y="34.850" width="1.025" height="1.025" fill="#024b00" />
<rect x="18.450" y="34.850" width="1.025" height="1.025" fill="#56ff06" />
<rect x="19.475" y="34.850" width="1.025" height="1.025" fill="#035500" />
<rect x="20.500" y="34.850" width="1.025" height="1.025" fill="#024b00" />
<rect x="21.525" y="34.850" width="1.025" height="1.025" fill="#024b00" />
<rect x="22.550" y="34.850" width="1.025" height="1.025" fill="#41ff00" />
<rect x="23.575" y="34.850" width="1.025" height="1.025" fill="#eaff00" />
<rect x="24.600" y="34.850" width="1.025" height="1.025" fill="#00fcff" />
<rect x="25.625" y="34.850" width="1.025" height="1.025" fill="#86ff03" />
<rect x="26.650" y="34.850" width="1.025" height="1.025" fill="#abff00" />
<rect x="27.675" y="34.850" width="1.025" height="1.025" fill="#ff00d8" />
<rect x="5.125" y="35.875" width="1.025" height="1.025" fill="#ff00d8" />
<rect x="6.150" y="35.875" width="1.025" height="1.025" fill="#ff00d8" />
<rect x="7.175" y="35.875" width="1.025" height="1.025" fill="#ff00d8" />
<rect x="8.200" y="35.875" width="1.025" height="1.025" fill="#ff00d8" />
<rect x="9.225" y="35.875" width="1.025" height="1.025" fill="#eaff00" />
<rect x="10.250" y="35.875" width="1.025" height="1.025" fill="#000909" />
<rect x="11.275" y="35.875" width="1.025" height="1.025" fill="#ff00d8" />
<rect x="12.300" y="35.875" width="1.025" height="1.025" fill="#d4ff00" />
<rect x="13.325" y="35.875" width="1.025" height="1.025" fill="#eaff00" />
<rect x="14.350" y="35.875" width="1.025" height="1.025" fill="#a1ff00" />
<rect x="15.375" y="35.875" width="1.025" height="1.025" fill="#035500" />
<rect x="16.400" y="35.875" width="1.025" height="1.025" fill="#047600" />
<rect x="17.425" y="35.875" width="1.025" height="1.025" fill="#047600" />
<rect x="18.450" y="35.875" width="1.025" height="1.025" fill="#e5ff00" />
<rect x="19.475" y="35.875" width="1.025" height="1.025" fill="#86ff03" />
<rect x="20.500" y="35.875" width="1.025" height="1.025" fill="#025100" />
<rect x="21.525" y="35.875" width="1.025" height="1.025" fill="#035500" />
<rect x="22.550" y="35.875" width="1.025" height="1.025" fill="#d4ff00" />
<rect x="23.575" y="35.875" width="1.025" height="1.025" fill="#eaff00" />
<rect x="24.600" y="35.875" width="1.025" height="1.025" fill="#00fcff" />
<rect x="25.625" y="35.875" width="1.025" height="1.025" fill="#ff00d8" />
<rect x="26.650" y="35.875" width="1.025" height="1.025" fill="#ea77e3" />
<rect x="27.675" y="35.875" width="1.025" height="1.025" fill="#ff00d8" />
<rect x="10.250" y="36.900" width="1.025" height="1.025" fill="#000303" />
<rect x="11.275" y="36.900" width="1.025" height="1.025" fill="#ff00d8" />
<rect x="12.300" y="36.900" width="1.025" height="1.025" fill="#eaff00" />
<rect x="13.325" y="36.900" width="1.025" height="1.025" fill="#eaff00" />
<rect x="14.350" y="36.900" width="1.025" height="1.025" fill="#eaff00" />
<rect x="15.375" y="36.900" width="1.025" height="1.025" fill="#d7ff00" />
<rect x="16.400" y="36.900" width="1.025" height="1.025" fill="#c7ff00" />
<rect x="17.425" y="36.900" width="1.025" height="1.025" fill="#eaff00" />
<rect x="18.450" y="36.900" width="1.025" height="1.025" fill="#eaff00" />
<rect x="19.475" y="36.900" width="1.025" height="1.025" fill="#d4ff00" />
<rect x="20.500" y="36.900" width="1.025" height="1.025" fill="#98ff00" />
<rect x="21.525" y="36.900" width="1.025" height="1.025" fill="#9dff00" />
<rect x="22.550" y="36.900" width="1.025" height="1.025" fill="#d8ff00" />
<rect x="23.575" y="36.900" width="1.025" height="1.025" fill="#ff00d8" />
<rect x="24.600" y="36.900" width="1.025" height="1.025" fill="#003d3e" />
</svg>