<svg xmlns="http://www.w3.org/2000/svg" width="37.925" height="37.925" shape-rendering="crispEdges" style="image-rendering: pixelated;">
<rect x="11.275" y="28.700" width="1.025" height="1.025" fill="#013600" />
<rect x="12.300" y="28.700" width="1.025" height="1.025" fill="#024300" />
<rect x="19.475" y="28.700" width="1.025" height="1.025" fill="#bdff00" />
<rect x="20.500" y="28.700" width="1.025" height="1.025" fill="#024300" />
<rect x="21.525" y="28.700" width="1.025" height="1.025" fill="#024800" />
<rect x="10.250" y="29.725" width="1.025" height="1.025" fill="#e1ff00" />
<rect x="11.275" y="29.725" width="1.025" height="1.025" fill="#001800" />
<rect x="12.300" y="29.725" width="1.025" height="1.025" fill="#001800" />
<rect x="13.325" y="29.725" width="1.025" height="1.025" fill="#024300" />
<rect x="19.475" y="29.725" width="1.025" height="1.025" fill="#eaff00" fill-opacity="0.639" />
<rect x="20.500" y="29.725" width="1.025" height="1.025" fill="#bdff00" />
<rect x="21.525" y="29.725" width="1.025" height="1.025" fill="#000700" />
<rect x="22.550" y="29.725" width="1.025" height="1.025" fill="#024800" />
<rect x="11.275" y="30.750" width="1.025" height="1.025" fill="#c1ff00" />
<rect x="12.300" y="30.750" width="1.025" height="1.025" fill="#000c00" />
<rect x="13.325" y="30.750" width="1.025" height="1.025" fill="#000b00" />
<rect x="14.350" y="30.750" width="1.025" height="1.025" fill="#024300" />
<rect x="20.500" y="30.750" width="1.025" height="1.025" fill="#bdff00" />
<rect x="21.525" y="30.750" width="1.025" height="1.025" fill="#000700" />
<rect x="22.550" y="30.750" width="1.025" height="1.025" fill="#024800" />
<rect x="11.275" y="31.775" width="1.025" height="1.025" fill="#c1ff00" />
<rect x="12.300" y="31.775" width="1.025" height="1.025" fill="#000600" />
<rect x="13.325" y="31.775" width="1.025" height="1.025" fill="#000500" />
<rect x="14.350" y="31.775" width="1.025" height="1.025" fill="#024300" />
<rect x="20.500" y="31.775" width="1.025" height="1.025" fill="#72ff05" />
<rect x="21.525" y="31.775" width="1.025" height="1.025" fill="#000500" />
<rect x="22.550" y="31.775" width="1.025" height="1.025" fill="#024800" />
<rect x="11.275" y="32.800" width="1.025" height="1.025" fill="#c1ff00" />
<rect x="12.300" y="32.800" width="1.025" height="1.025" fill="#000500" />
<rect x="13.325" y="32.800" width="1.025" height="1.025" fill="#000500" />
<rect x="14.350" y="32.800" width="1.025" height="1.025" fill="#000500" />
<rect x="15.375" y="32.800" width="1.025" height="1.025" fill="#024300" />
<rect x="19.475" y="32.800" width="1.025" height="1.025" fill="#72ff05" />
<rect x="20.500" y="32.800" width="1.025" height="1.025" fill="#000500" />
<rect x="21.525" y="32.800" width="1.025" height="1.025" fill="#000500" />
<rect x="22.550" y="32.800" width="1.025" height="1.025" fill="#000600" />
<rect x="23.575" y="32.800" width="1.025" height="1.025" fill="#024800" />
<rect x="11.275" y="33.825" width="1.025" height="1.025" fill="#c1ff00" />
<rect x="12.300" y="33.825" width="1.025" height="1.025" fill="#000500" />
<rect x="13.325" y="33.825" width="1.025" height="1.025" fill="#000000" />
<rect x="14.350" y="33.825" width="1.025" height="1.025" fill="#000400" />
<rect x="15.375" y="33.825" width="1.025" height="1.025" fill="#000500" />
<rect x="16.400" y="33.825" width="1.025" height="1.025" fill="#024300" />
<rect x="17.425" y="33.825" width="1.025" height="1.025" fill="#72ff05" />
<rect x="18.450" y="33.825" width="1.025" height="1.025" fill="#72ff05" />
<rect x="19.475" y="33.825" width="1.025" height="1.025" fill="#000500" />
<rect x="20.500" y="33.825" width="1.025" height="1.025" fill="#000500" />
<rect x="21.525" y="33.825" width="1.025" height="1.025" fill="#000500" />
<rect x="22.550" y="33.825" width="1.025" height="1.025" fill="#000500" />
<rect x="23.575" y="33.825" width="1.025" height="1.025" fill="#024800" />
<rect x="11.275" y="34.850" width="1.025" height="1.025" fill="#a8ff00" />
<rect x="12.300" y="34.850" width="1.025" height="1.025" fill="#000700" />
<rect x="13.325" y="34.850" width="1.025" height="1.025" fill="#000b00" />
<rect x="14.350" y="34.850" width="1.025" height="1.025" fill="#000600" />
<rect x="15.375" y="34.850" width="1.025" height="1.025" fill="#000000" />
<rect x="16.400" y="34.850" width="1.025" height="1.025" fill="#000500" />
<rect x="17.425" y="34.850" width="1.025" height="1.025" fill="#000500" />
<rect x="18.450" y="34.850" width="1.025" height="1.025" fill="#000d00" />
<rect x="19.475" y="34.850" width="1.025" height="1.025" fill="#000700" />
<rect x="20.500" y="34.850" width="1.025" height="1.025" fill="#000400" />
<rect x="21.525" y="34.850" width="1.025" height="1.025" fill="#000500" />
<rect x="22.550" y="34.850" width="1.025" height="1.025" fill="#000b00" />
<rect x="23.575" y="34.850" width="1.025" height="1.025" fill="#002100" />
<rect x="10.250" y="35.875" width="1.025" height="1.025" fill="#eaff00" />
<rect x="11.275" y="35.875" width="1.025" height="1.025" fill="#c3ff00" />
<rect x="12.300" y="35.875" width="1.025" height="1.025" fill="#001a00" />
<rect x="13.325" y="35.875" width="1.025" height="1.025" fill="#001f00" />
<rect x="14.350" y="35.875" width="1.025" height="1.025" fill="#001300" />
<rect x="15.375" y="35.875" width="1.025" height="1.025" fill="#000600" />
<rect x="16.400" y="35.875" width="1.025" height="1.025" fill="#000900" />
<rect x="17.425" y="35.875" width="1.025" height="1.025" fill="#000900" />
<rect x="18.450" y="35.875" width="1.025" height="1.025" fill="#001d00" />
<rect x="19.475" y="35.875" width="1.025" height="1.025" fill="#001000" />
<rect x="20.500" y="35.875" width="1.025" height="1.025" fill="#000600" />
<rect x="21.525" y="35.875" width="1.025" height="1.025" fill="#000600" />
<rect x="22.550" y="35.875" width="1.025" height="1.025" fill="#001a00" />
<rect x="23.575" y="35.875" width="1.025" height="1.025" fill="#013100" />
<rect x="24.600" y="35.875" width="1.025" height="1.025" fill="#44ff04" />
<rect x="10.250" y="36.900" width="1.025" height="1.025" fill="#eaff00" />
<rect x="11.275" y="36.900" width="1.025" height="1.025" fill="#85ff03" />
<rect x="12.300" y="36.900" width="1.025" height="1.025" fill="#013100" />
<rect x="13.325" y="36.900" width="1.025" height="1.025" fill="#002000" />
<rect x="14.350" y="36.900" width="1.025" height="1.025" fill="#002000" />
<rect x="15.375" y="36.900" width="1.025" height="1.025" fill="#001a00" />
<rect x="16.400" y="36.900" width="1.025" height="1.025" fill="#001800" />
<rect x="17.425" y="36.900" width="1.025" height="1.025" fill="#012400" />
<rect x="18.450" y="36.900" width="1.025" height="1.025" fill="#012400" />
<rect x="19.475" y="36.900" width="1.025" height="1.025" fill="#001900" />
<rect x="20.500" y="36.900" width="1.025" height="1.025" fill="#001100" />
<rect x="21.525" y="36.900" width="1.025" height="1.025" fill="#001200" />
<rect x="22.550" y="36.900" width="1.025" height="1.025" fill="#001a00" />
<rect x="23.575" y="36.900" width="1.025" height="1.025" fill="#024000" />
<rect x="24.600" y="36.900" width="1.025" height="1.025" fill="#66ff05" />
</svg>