<?xml version="1.0" encoding="UTF-8"?>
<!-- Generated from: MAC_Mini.png -->
<!-- Dimensions: 37x37 pixels (105 merged rects) -->
<!-- Rect size: 1 -->
<svg xmlns="http://www.w3.org/2000/svg" viewBox="0 0 37 37">
  <style>
    rect { shape-rendering: crispEdges; }
    svg { image-rendering: pixelated; image-rendering: -moz-crisp-edges; image-rendering: crisp-edges; }
  </style>
  <g id="pixels">
    <rect x="32.00" y="7.00" width="1.00" height="1" fill="rgba(255,255,255,0.30)"/>
    <rect x="29.00" y="8.00" width="1.00" height="1" fill="rgba(255,255,255,0.30)"/>
    <rect x="29.00" y="9.00" width="1.00" height="1" fill="rgba(255,255,255,0.30)"/>
    <rect x="33.00" y="11.00" width="1.00" height="1" fill="rgba(255,255,255,0.30)"/>
    <rect x="26.00" y="12.00" width="1.00" height="1" fill="rgba(255,255,255,0.30)"/>
    <rect x="32.00" y="12.00" width="1.00" height="1" fill="rgba(255,255,255,0.65)"/>
    <rect x="33.00" y="12.00" width="1.00" height="1" fill="rgba(255,255,255,0.30)"/>
    <rect x="29.00" y="13.00" width="1.00" height="1" fill="rgba(255,255,255,0.30)"/>
    <rect x="28.00" y="14.00" width="1.00" height="1" fill="rgba(255,255,255,0.30)"/>
    <rect x="32.00" y="15.00" width="1.00" height="1" fill="rgba(255,255,255,0.30)"/>
    <rect x="35.00" y="15.00" width="1.00" height="1" fill="rgba(255,255,255,0.30)"/>
    <rect x="27.00" y="16.00" width="1.00" height="1" fill="rgba(255,255,255,0.30)"/>
    <rect x="29.00" y="16.00" width="1.00" height="1" fill="rgba(255,255,255,0.65)"/>
    <rect x="26.00" y="17.00" width="1.00" height="1" fill="rgba(255,255,255,0.30)"/>
    <rect x="28.00" y="17.00" width="1.00" height="1" fill="rgba(255,255,255,0.30)"/>
    <rect x="30.00" y="18.00" width="1.00" height="1" fill="rgba(255,255,255,0.30)"/>
    <rect x="33.00" y="18.00" width="1.00" height="1" fill="rgba(255,255,255,0.30)"/>
    <rect x="28.00" y="19.00" width="1.00" height="1" fill="rgba(255,255,255,0.30)"/>
    <rect x="29.00" y="19.00" width="1.00" height="1" fill="rgba(255,255,255,0.65)"/>
    <rect x="32.00" y="19.00" width="2.00" height="1" fill="rgba(255,255,255,0.30)"/>
    <rect x="35.00" y="19.00" width="1.00" height="1" fill="rgba(255,255,255,0.65)"/>
    <rect x="27.00" y="20.00" width="1.00" height="1" fill="rgba(255,255,255,0.30)"/>
    <rect x="29.00" y="20.00" width="1.00" height="1" fill="rgba(255,255,255,0.30)"/>
    <rect x="31.00" y="20.00" width="2.00" height="1" fill="rgba(255,255,255,0.30)"/>
    <rect x="35.00" y="20.00" width="1.00" height="1" fill="rgba(255,255,255,0.30)"/>
    <rect x="26.00" y="21.00" width="1.00" height="1" fill="rgba(255,255,255,0.30)"/>
    <rect x="27.00" y="21.00" width="1.00" height="1" fill="rgba(255,255,255,0.65)"/>
    <rect x="29.00" y="21.00" width="1.00" height="1" fill="rgba(255,255,255,0.30)"/>
    <rect x="30.00" y="21.00" width="2.00" height="1" fill="rgba(255,255,255,0.65)"/>
    <rect x="35.00" y="21.00" width="1.00" height="1" fill="rgba(255,255,255,0.30)"/>
    <rect x="27.00" y="22.00" width="1.00" height="1" fill="rgba(255,255,255,0.65)"/>
    <rect x="28.00" y="22.00" width="1.00" height="1" fill="rgba(255,255,255,0.30)"/>
    <rect x="31.00" y="22.00" width="5.00" height="1" fill="rgba(255,255,255,0.30)"/>
    <rect x="26.00" y="23.00" width="1.00" height="1" fill="rgba(255,255,255,0.30)"/>
    <rect x="27.00" y="23.00" width="1.00" height="1" fill="rgba(255,255,255,0.65)"/>
    <rect x="29.00" y="23.00" width="1.00" height="1" fill="rgba(255,255,255,0.30)"/>
    <rect x="31.00" y="23.00" width="1.00" height="1" fill="rgba(255,255,255,0.65)"/>
    <rect x="33.00" y="23.00" width="2.00" height="1" fill="rgba(255,255,255,0.65)"/>
    <rect x="35.00" y="23.00" width="1.00" height="1" fill="rgba(255,255,255,0.30)"/>
    <rect x="26.00" y="24.00" width="1.00" height="1" fill="rgba(255,255,255,0.65)"/>
    <rect x="27.00" y="24.00" width="1.00" height="1" fill="rgba(255,255,255,0.30)"/>
    <rect x="28.00" y="24.00" width="1.00" height="1" fill="rgba(255,255,255,0.65)"/>
    <rect x="30.00" y="24.00" width="1.00" height="1" fill="rgba(255,255,255,0.30)"/>
    <rect x="32.00" y="24.00" width="1.00" height="1" fill="rgba(255,255,255,0.65)"/>
    <rect x="35.00" y="24.00" width="1.00" height="1" fill="rgba(255,255,255,0.65)"/>
    <rect x="28.00" y="25.00" width="2.00" height="1" fill="rgba(255,255,255,0.30)"/>
    <rect x="30.00" y="25.00" width="1.00" height="1" fill="rgba(255,255,255,0.65)"/>
    <rect x="31.00" y="25.00" width="2.00" height="1" fill="rgba(255,255,255,0.30)"/>
    <rect x="33.00" y="25.00" width="1.00" height="1" fill="rgba(255,255,255,0.65)"/>
    <rect x="26.00" y="26.00" width="1.00" height="1" fill="rgba(255,255,255,0.65)"/>
    <rect x="28.00" y="26.00" width="1.00" height="1" fill="rgba(255,255,255,0.65)"/>
    <rect x="29.00" y="26.00" width="1.00" height="1" fill="rgba(255,255,255,0.30)"/>
    <rect x="31.00" y="26.00" width="2.00" height="1" fill="rgba(255,255,255,0.30)"/>
    <rect x="35.00" y="26.00" width="1.00" height="1" fill="rgba(255,255,255,0.65)"/>
    <rect x="26.00" y="27.00" width="2.00" height="1" fill="rgba(255,255,255,0.65)"/>
    <rect x="29.00" y="27.00" width="3.00" height="1" fill="rgba(255,255,255,0.30)"/>
    <rect x="35.00" y="27.00" width="1.00" height="1" fill="rgba(255,255,255,0.30)"/>
    <rect x="26.00" y="28.00" width="2.00" height="1" fill="rgba(255,255,255,0.65)"/>
    <rect x="30.00" y="28.00" width="1.00" height="1" fill="rgba(255,255,255,0.65)"/>
    <rect x="32.00" y="28.00" width="4.00" height="1" fill="rgba(255,255,255,0.30)"/>
    <rect x="26.00" y="29.00" width="2.00" height="1" fill="rgba(255,255,255,0.30)"/>
    <rect x="28.00" y="29.00" width="1.00" height="1" fill="rgba(255,255,255,0.65)"/>
    <rect x="29.00" y="29.00" width="1.00" height="1" fill="rgba(255,255,255,0.30)"/>
    <rect x="30.00" y="29.00" width="1.00" height="1" fill="rgba(255,255,255,0.65)"/>
    <rect x="31.00" y="29.00" width="1.00" height="1" fill="rgba(255,255,255,0.30)"/>
    <rect x="32.00" y="29.00" width="1.00" height="1" fill="rgba(255,255,255,0.65)"/>
    <rect x="34.00" y="29.00" width="1.00" height="1" fill="rgba(255,255,255,0.30)"/>
    <rect x="35.00" y="29.00" width="1.00" height="1" fill="rgba(255,255,255,0.65)"/>
    <rect x="26.00" y="30.00" width="1.00" height="1" fill="rgba(255,255,255,0.65)"/>
    <rect x="28.00" y="30.00" width="1.00" height="1" fill="rgba(255,255,255,0.30)"/>
    <rect x="29.00" y="30.00" width="4.00" height="1" fill="rgba(255,255,255,0.65)"/>
    <rect x="34.00" y="30.00" width="1.00" height="1" fill="rgba(255,255,255,0.30)"/>
    <rect x="27.00" y="31.00" width="1.00" height="1" fill="rgba(255,255,255,0.30)"/>
    <rect x="28.00" y="31.00" width="1.00" height="1" fill="rgba(255,255,255,0.65)"/>
    <rect x="29.00" y="31.00" width="1.00" height="1" fill="rgba(255,255,255,0.30)"/>
    <rect x="31.00" y="31.00" width="1.00" height="1" fill="rgba(255,255,255,0.30)"/>
    <rect x="32.00" y="31.00" width="2.00" height="1" fill="rgba(255,255,255,0.65)"/>
    <rect x="34.00" y="31.00" width="1.00" height="1" fill="rgba(255,255,255,0.30)"/>
    <rect x="27.00" y="32.00" width="1.00" height="1" fill="rgba(255,255,255,0.65)"/>
    <rect x="28.00" y="32.00" width="2.00" height="1" fill="rgba(255,255,255,0.30)"/>
    <rect x="30.00" y="32.00" width="1.00" height="1" fill="rgba(255,255,255,0.65)"/>
    <rect x="31.00" y="32.00" width="2.00" height="1" fill="rgba(255,255,255,0.30)"/>
    <rect x="33.00" y="32.00" width="1.00" height="1" fill="rgba(255,255,255,0.65)"/>
    <rect x="34.00" y="32.00" width="2.00" height="1" fill="rgba(255,255,255,0.30)"/>
    <rect x="26.00" y="33.00" width="1.00" height="1" fill="rgba(217,217,217,1.00)"/>
    <rect x="27.00" y="33.00" width="2.00" height="1" fill="rgba(229,229,229,1.00)"/>
    <rect x="29.00" y="33.00" width="4.00" height="1" fill="rgba(255,255,255,1.00)"/>
    <rect x="33.00" y="33.00" width="1.00" height="1" fill="rgba(229,229,229,1.00)"/>
    <rect x="34.00" y="33.00" width="1.00" height="1" fill="rgba(217,217,217,1.00)"/>
    <rect x="35.00" y="33.00" width="1.00" height="1" fill="rgba(204,204,204,1.00)"/>
    <rect x="26.00" y="34.00" width="1.00" height="1" fill="rgba(153,153,153,1.00)"/>
    <rect x="27.00" y="34.00" width="1.00" height="1" fill="rgba(204,204,204,1.00)"/>
    <rect x="28.00" y="34.00" width="6.00" height="1" fill="rgba(229,229,229,1.00)"/>
    <rect x="34.00" y="34.00" width="1.00" height="1" fill="rgba(204,204,204,1.00)"/>
    <rect x="35.00" y="34.00" width="1.00" height="1" fill="rgba(255,255,255,1.00)"/>
    <rect x="26.00" y="35.00" width="1.00" height="1" fill="rgba(153,153,153,1.00)"/>
    <rect x="27.00" y="35.00" width="1.00" height="1" fill="rgba(204,204,204,1.00)"/>
    <rect x="28.00" y="35.00" width="6.00" height="1" fill="rgba(229,229,229,1.00)"/>
    <rect x="34.00" y="35.00" width="1.00" height="1" fill="rgba(204,204,204,1.00)"/>
    <rect x="35.00" y="35.00" width="1.00" height="1" fill="rgba(255,255,255,1.00)"/>
    <rect x="26.00" y="36.00" width="1.00" height="1" fill="rgba(153,153,153,1.00)"/>
    <rect x="27.00" y="36.00" width="1.00" height="1" fill="rgba(204,204,204,1.00)"/>
    <rect x="28.00" y="36.00" width="6.00" height="1" fill="rgba(229,229,229,1.00)"/>
    <rect x="34.00" y="36.00" width="1.00" height="1" fill="rgba(204,204,204,1.00)"/>
    <rect x="35.00" y="36.00" width="1.00" height="1" fill="rgba(255,255,255,1.00)"/>
  </g>
</svg>