<?xml version="1.0" encoding="UTF-8"?>
<!-- Generated from: MAC_Mini.png -->
<!-- Dimensions: 37x37 pixels (105 merged rects) -->
<!-- Rect size: 1.025 -->
<svg xmlns="http://www.w3.org/2000/svg" viewBox="0 0 37.925 37.925">
  <style>
    rect { shape-rendering: crispEdges; }
    svg { image-rendering: pixelated; image-rendering: -moz-crisp-edges; image-rendering: crisp-edges; }
  </style>
  <g id="pixels">
    <rect x="32.80" y="7.17" width="1.02" height="1.025" fill="rgba(255,255,255,0.30)"/>
    <rect x="29.72" y="8.20" width="1.02" height="1.025" fill="rgba(255,255,255,0.30)"/>
    <rect x="29.72" y="9.22" width="1.02" height="1.025" fill="rgba(255,255,255,0.30)"/>
    <rect x="33.82" y="11.27" width="1.02" height="1.025" fill="rgba(255,255,255,0.30)"/>
    <rect x="26.65" y="12.30" width="1.02" height="1.025" fill="rgba(255,255,255,0.30)"/>
    <rect x="32.80" y="12.30" width="1.02" height="1.025" fill="rgba(255,255,255,0.65)"/>
    <rect x="33.82" y="12.30" width="1.02" height="1.025" fill="rgba(255,255,255,0.30)"/>
    <rect x="29.72" y="13.32" width="1.02" height="1.025" fill="rgba(255,255,255,0.30)"/>
    <rect x="28.70" y="14.35" width="1.02" height="1.025" fill="rgba(255,255,255,0.30)"/>
    <rect x="32.80" y="15.37" width="1.02" height="1.025" fill="rgba(255,255,255,0.30)"/>
    <rect x="35.88" y="15.37" width="1.02" height="1.025" fill="rgba(255,255,255,0.30)"/>
    <rect x="27.67" y="16.40" width="1.02" height="1.025" fill="rgba(255,255,255,0.30)"/>
    <rect x="29.72" y="16.40" width="1.02" height="1.025" fill="rgba(255,255,255,0.65)"/>
    <rect x="26.65" y="17.42" width="1.02" height="1.025" fill="rgba(255,255,255,0.30)"/>
    <rect x="28.70" y="17.42" width="1.02" height="1.025" fill="rgba(255,255,255,0.30)"/>
    <rect x="30.75" y="18.45" width="1.02" height="1.025" fill="rgba(255,255,255,0.30)"/>
    <rect x="33.82" y="18.45" width="1.02" height="1.025" fill="rgba(255,255,255,0.30)"/>
    <rect x="28.70" y="19.47" width="1.02" height="1.025" fill="rgba(255,255,255,0.30)"/>
    <rect x="29.72" y="19.47" width="1.02" height="1.025" fill="rgba(255,255,255,0.65)"/>
    <rect x="32.80" y="19.47" width="2.05" height="1.025" fill="rgba(255,255,255,0.30)"/>
    <rect x="35.88" y="19.47" width="1.02" height="1.025" fill="rgba(255,255,255,0.65)"/>
    <rect x="27.67" y="20.50" width="1.02" height="1.025" fill="rgba(255,255,255,0.30)"/>
    <rect x="29.72" y="20.50" width="1.02" height="1.025" fill="rgba(255,255,255,0.30)"/>
    <rect x="31.77" y="20.50" width="2.05" height="1.025" fill="rgba(255,255,255,0.30)"/>
    <rect x="35.88" y="20.50" width="1.02" height="1.025" fill="rgba(255,255,255,0.30)"/>
    <rect x="26.65" y="21.52" width="1.02" height="1.025" fill="rgba(255,255,255,0.30)"/>
    <rect x="27.67" y="21.52" width="1.02" height="1.025" fill="rgba(255,255,255,0.65)"/>
    <rect x="29.72" y="21.52" width="1.02" height="1.025" fill="rgba(255,255,255,0.30)"/>
    <rect x="30.75" y="21.52" width="2.05" height="1.025" fill="rgba(255,255,255,0.65)"/>
    <rect x="35.88" y="21.52" width="1.02" height="1.025" fill="rgba(255,255,255,0.30)"/>
    <rect x="27.67" y="22.55" width="1.02" height="1.025" fill="rgba(255,255,255,0.65)"/>
    <rect x="28.70" y="22.55" width="1.02" height="1.025" fill="rgba(255,255,255,0.30)"/>
    <rect x="31.77" y="22.55" width="5.13" height="1.025" fill="rgba(255,255,255,0.30)"/>
    <rect x="26.65" y="23.57" width="1.02" height="1.025" fill="rgba(255,255,255,0.30)"/>
    <rect x="27.67" y="23.57" width="1.02" height="1.025" fill="rgba(255,255,255,0.65)"/>
    <rect x="29.72" y="23.57" width="1.02" height="1.025" fill="rgba(255,255,255,0.30)"/>
    <rect x="31.77" y="23.57" width="1.02" height="1.025" fill="rgba(255,255,255,0.65)"/>
    <rect x="33.82" y="23.57" width="2.05" height="1.025" fill="rgba(255,255,255,0.65)"/>
    <rect x="35.88" y="23.57" width="1.02" height="1.025" fill="rgba(255,255,255,0.30)"/>
    <rect x="26.65" y="24.60" width="1.02" height="1.025" fill="rgba(255,255,255,0.65)"/>
    <rect x="27.67" y="24.60" width="1.02" height="1.025" fill="rgba(255,255,255,0.30)"/>
    <rect x="28.70" y="24.60" width="1.02" height="1.025" fill="rgba(255,255,255,0.65)"/>
    <rect x="30.75" y="24.60" width="1.02" height="1.025" fill="rgba(255,255,255,0.30)"/>
    <rect x="32.80" y="24.60" width="1.02" height="1.025" fill="rgba(255,255,255,0.65)"/>
    <rect x="35.88" y="24.60" width="1.02" height="1.025" fill="rgba(255,255,255,0.65)"/>
    <rect x="28.70" y="25.62" width="2.05" height="1.025" fill="rgba(255,255,255,0.30)"/>
    <rect x="30.75" y="25.62" width="1.02" height="1.025" fill="rgba(255,255,255,0.65)"/>
    <rect x="31.77" y="25.62" width="2.05" height="1.025" fill="rgba(255,255,255,0.30)"/>
    <rect x="33.82" y="25.62" width="1.02" height="1.025" fill="rgba(255,255,255,0.65)"/>
    <rect x="26.65" y="26.65" width="1.02" height="1.025" fill="rgba(255,255,255,0.65)"/>
    <rect x="28.70" y="26.65" width="1.02" height="1.025" fill="rgba(255,255,255,0.65)"/>
    <rect x="29.72" y="26.65" width="1.02" height="1.025" fill="rgba(255,255,255,0.30)"/>
    <rect x="31.77" y="26.65" width="2.05" height="1.025" fill="rgba(255,255,255,0.30)"/>
    <rect x="35.88" y="26.65" width="1.02" height="1.025" fill="rgba(255,255,255,0.65)"/>
    <rect x="26.65" y="27.67" width="2.05" height="1.025" fill="rgba(255,255,255,0.65)"/>
    <rect x="29.72" y="27.67" width="3.07" height="1.025" fill="rgba(255,255,255,0.30)"/>
    <rect x="35.88" y="27.67" width="1.02" height="1.025" fill="rgba(255,255,255,0.30)"/>
    <rect x="26.65" y="28.70" width="2.05" height="1.025" fill="rgba(255,255,255,0.65)"/>
    <rect x="30.75" y="28.70" width="1.02" height="1.025" fill="rgba(255,255,255,0.65)"/>
    <rect x="32.80" y="28.70" width="4.10" height="1.025" fill="rgba(255,255,255,0.30)"/>
    <rect x="26.65" y="29.72" width="2.05" height="1.025" fill="rgba(255,255,255,0.30)"/>
    <rect x="28.70" y="29.72" width="1.02" height="1.025" fill="rgba(255,255,255,0.65)"/>
    <rect x="29.72" y="29.72" width="1.02" height="1.025" fill="rgba(255,255,255,0.30)"/>
    <rect x="30.75" y="29.72" width="1.02" height="1.025" fill="rgba(255,255,255,0.65)"/>
    <rect x="31.77" y="29.72" width="1.02" height="1.025" fill="rgba(255,255,255,0.30)"/>
    <rect x="32.80" y="29.72" width="1.02" height="1.025" fill="rgba(255,255,255,0.65)"/>
    <rect x="34.85" y="29.72" width="1.02" height="1.025" fill="rgba(255,255,255,0.30)"/>
    <rect x="35.88" y="29.72" width="1.02" height="1.025" fill="rgba(255,255,255,0.65)"/>
    <rect x="26.65" y="30.75" width="1.02" height="1.025" fill="rgba(255,255,255,0.65)"/>
    <rect x="28.70" y="30.75" width="1.02" height="1.025" fill="rgba(255,255,255,0.30)"/>
    <rect x="29.72" y="30.75" width="4.10" height="1.025" fill="rgba(255,255,255,0.65)"/>
    <rect x="34.85" y="30.75" width="1.02" height="1.025" fill="rgba(255,255,255,0.30)"/>
    <rect x="27.67" y="31.77" width="1.02" height="1.025" fill="rgba(255,255,255,0.30)"/>
    <rect x="28.70" y="31.77" width="1.02" height="1.025" fill="rgba(255,255,255,0.65)"/>
    <rect x="29.72" y="31.77" width="1.02" height="1.025" fill="rgba(255,255,255,0.30)"/>
    <rect x="31.77" y="31.77" width="1.02" height="1.025" fill="rgba(255,255,255,0.30)"/>
    <rect x="32.80" y="31.77" width="2.05" height="1.025" fill="rgba(255,255,255,0.65)"/>
    <rect x="34.85" y="31.77" width="1.02" height="1.025" fill="rgba(255,255,255,0.30)"/>
    <rect x="27.67" y="32.80" width="1.02" height="1.025" fill="rgba(255,255,255,0.65)"/>
    <rect x="28.70" y="32.80" width="2.05" height="1.025" fill="rgba(255,255,255,0.30)"/>
    <rect x="30.75" y="32.80" width="1.02" height="1.025" fill="rgba(255,255,255,0.65)"/>
    <rect x="31.77" y="32.80" width="2.05" height="1.025" fill="rgba(255,255,255,0.30)"/>
    <rect x="33.82" y="32.80" width="1.02" height="1.025" fill="rgba(255,255,255,0.65)"/>
    <rect x="34.85" y="32.80" width="2.05" height="1.025" fill="rgba(255,255,255,0.30)"/>
    <rect x="26.65" y="33.82" width="1.02" height="1.025" fill="rgba(217,217,217,1.00)"/>
    <rect x="27.67" y="33.82" width="2.05" height="1.025" fill="rgba(229,229,229,1.00)"/>
    <rect x="29.72" y="33.82" width="4.10" height="1.025" fill="rgba(255,255,255,1.00)"/>
    <rect x="33.82" y="33.82" width="1.02" height="1.025" fill="rgba(229,229,229,1.00)"/>
    <rect x="34.85" y="33.82" width="1.02" height="1.025" fill="rgba(217,217,217,1.00)"/>
    <rect x="35.88" y="33.82" width="1.02" height="1.025" fill="rgba(204,204,204,1.00)"/>
    <rect x="26.65" y="34.85" width="1.02" height="1.025" fill="rgba(153,153,153,1.00)"/>
    <rect x="27.67" y="34.85" width="1.02" height="1.025" fill="rgba(204,204,204,1.00)"/>
    <rect x="28.70" y="34.85" width="6.15" height="1.025" fill="rgba(229,229,229,1.00)"/>
    <rect x="34.85" y="34.85" width="1.02" height="1.025" fill="rgba(204,204,204,1.00)"/>
    <rect x="35.88" y="34.85" width="1.02" height="1.025" fill="rgba(255,255,255,1.00)"/>
    <rect x="26.65" y="35.88" width="1.02" height="1.025" fill="rgba(153,153,153,1.00)"/>
    <rect x="27.67" y="35.88" width="1.02" height="1.025" fill="rgba(204,204,204,1.00)"/>
    <rect x="28.70" y="35.88" width="6.15" height="1.025" fill="rgba(229,229,229,1.00)"/>
    <rect x="34.85" y="35.88" width="1.02" height="1.025" fill="rgba(204,204,204,1.00)"/>
    <rect x="35.88" y="35.88" width="1.02" height="1.025" fill="rgba(255,255,255,1.00)"/>
    <rect x="26.65" y="36.90" width="1.02" height="1.025" fill="rgba(153,153,153,1.00)"/>
    <rect x="27.67" y="36.90" width="1.02" height="1.025" fill="rgba(204,204,204,1.00)"/>
    <rect x="28.70" y="36.90" width="6.15" height="1.025" fill="rgba(229,229,229,1.00)"/>
    <rect x="34.85" y="36.90" width="1.02" height="1.025" fill="rgba(204,204,204,1.00)"/>
    <rect x="35.88" y="36.90" width="1.02" height="1.025" fill="rgba(255,255,255,1.00)"/>
  </g>
</svg>