<?xml version="1.0" encoding="UTF-8"?>
<!-- Generated from: MAC_Mini.png -->
<!-- Dimensions: 37x37 pixels (105 merged rects) -->
<!-- Rect size: 1 -->
<svg xmlns="http://www.w3.org/2000/svg" viewBox="0 0 37 37">
  <style>
    rect { shape-rendering: crispEdges; }
    svg { image-rendering: pixelated; image-rendering: -moz-crisp-edges; image-rendering: crisp-edges; }
  </style>
  <g id="pixels">
    <rect x="32" y="7" width="1" height="1" fill="rgba(255,255,255,0)"/>
    <rect x="29" y="8" width="1" height="1" fill="rgba(255,255,255,0)"/>
    <rect x="29" y="9" width="1" height="1" fill="rgba(255,255,255,0)"/>
    <rect x="33" y="11" width="1" height="1" fill="rgba(255,255,255,0)"/>
    <rect x="26" y="12" width="1" height="1" fill="rgba(255,255,255,0)"/>
    <rect x="32" y="12" width="1" height="1" fill="rgba(255,255,255,1)"/>
    <rect x="33" y="12" width="1" height="1" fill="rgba(255,255,255,0)"/>
    <rect x="29" y="13" width="1" height="1" fill="rgba(255,255,255,0)"/>
    <rect x="28" y="14" width="1" height="1" fill="rgba(255,255,255,0)"/>
    <rect x="32" y="15" width="1" height="1" fill="rgba(255,255,255,0)"/>
    <rect x="35" y="15" width="1" height="1" fill="rgba(255,255,255,0)"/>
    <rect x="27" y="16" width="1" height="1" fill="rgba(255,255,255,0)"/>
    <rect x="29" y="16" width="1" height="1" fill="rgba(255,255,255,1)"/>
    <rect x="26" y="17" width="1" height="1" fill="rgba(255,255,255,0)"/>
    <rect x="28" y="17" width="1" height="1" fill="rgba(255,255,255,0)"/>
    <rect x="30" y="18" width="1" height="1" fill="rgba(255,255,255,0)"/>
    <rect x="33" y="18" width="1" height="1" fill="rgba(255,255,255,0)"/>
    <rect x="28" y="19" width="1" height="1" fill="rgba(255,255,255,0)"/>
    <rect x="29" y="19" width="1" height="1" fill="rgba(255,255,255,1)"/>
    <rect x="32" y="19" width="2" height="1" fill="rgba(255,255,255,0)"/>
    <rect x="35" y="19" width="1" height="1" fill="rgba(255,255,255,1)"/>
    <rect x="27" y="20" width="1" height="1" fill="rgba(255,255,255,0)"/>
    <rect x="29" y="20" width="1" height="1" fill="rgba(255,255,255,0)"/>
    <rect x="31" y="20" width="2" height="1" fill="rgba(255,255,255,0)"/>
    <rect x="35" y="20" width="1" height="1" fill="rgba(255,255,255,0)"/>
    <rect x="26" y="21" width="1" height="1" fill="rgba(255,255,255,0)"/>
    <rect x="27" y="21" width="1" height="1" fill="rgba(255,255,255,1)"/>
    <rect x="29" y="21" width="1" height="1" fill="rgba(255,255,255,0)"/>
    <rect x="30" y="21" width="2" height="1" fill="rgba(255,255,255,1)"/>
    <rect x="35" y="21" width="1" height="1" fill="rgba(255,255,255,0)"/>
    <rect x="27" y="22" width="1" height="1" fill="rgba(255,255,255,1)"/>
    <rect x="28" y="22" width="1" height="1" fill="rgba(255,255,255,0)"/>
    <rect x="31" y="22" width="5" height="1" fill="rgba(255,255,255,0)"/>
    <rect x="26" y="23" width="1" height="1" fill="rgba(255,255,255,0)"/>
    <rect x="27" y="23" width="1" height="1" fill="rgba(255,255,255,1)"/>
    <rect x="29" y="23" width="1" height="1" fill="rgba(255,255,255,0)"/>
    <rect x="31" y="23" width="1" height="1" fill="rgba(255,255,255,1)"/>
    <rect x="33" y="23" width="2" height="1" fill="rgba(255,255,255,1)"/>
    <rect x="35" y="23" width="1" height="1" fill="rgba(255,255,255,0)"/>
    <rect x="26" y="24" width="1" height="1" fill="rgba(255,255,255,1)"/>
    <rect x="27" y="24" width="1" height="1" fill="rgba(255,255,255,0)"/>
    <rect x="28" y="24" width="1" height="1" fill="rgba(255,255,255,1)"/>
    <rect x="30" y="24" width="1" height="1" fill="rgba(255,255,255,0)"/>
    <rect x="32" y="24" width="1" height="1" fill="rgba(255,255,255,1)"/>
    <rect x="35" y="24" width="1" height="1" fill="rgba(255,255,255,1)"/>
    <rect x="28" y="25" width="2" height="1" fill="rgba(255,255,255,0)"/>
    <rect x="30" y="25" width="1" height="1" fill="rgba(255,255,255,1)"/>
    <rect x="31" y="25" width="2" height="1" fill="rgba(255,255,255,0)"/>
    <rect x="33" y="25" width="1" height="1" fill="rgba(255,255,255,1)"/>
    <rect x="26" y="26" width="1" height="1" fill="rgba(255,255,255,1)"/>
    <rect x="28" y="26" width="1" height="1" fill="rgba(255,255,255,1)"/>
    <rect x="29" y="26" width="1" height="1" fill="rgba(255,255,255,0)"/>
    <rect x="31" y="26" width="2" height="1" fill="rgba(255,255,255,0)"/>
    <rect x="35" y="26" width="1" height="1" fill="rgba(255,255,255,1)"/>
    <rect x="26" y="27" width="2" height="1" fill="rgba(255,255,255,1)"/>
    <rect x="29" y="27" width="3" height="1" fill="rgba(255,255,255,0)"/>
    <rect x="35" y="27" width="1" height="1" fill="rgba(255,255,255,0)"/>
    <rect x="26" y="28" width="2" height="1" fill="rgba(255,255,255,1)"/>
    <rect x="30" y="28" width="1" height="1" fill="rgba(255,255,255,1)"/>
    <rect x="32" y="28" width="4" height="1" fill="rgba(255,255,255,0)"/>
    <rect x="26" y="29" width="2" height="1" fill="rgba(255,255,255,0)"/>
    <rect x="28" y="29" width="1" height="1" fill="rgba(255,255,255,1)"/>
    <rect x="29" y="29" width="1" height="1" fill="rgba(255,255,255,0)"/>
    <rect x="30" y="29" width="1" height="1" fill="rgba(255,255,255,1)"/>
    <rect x="31" y="29" width="1" height="1" fill="rgba(255,255,255,0)"/>
    <rect x="32" y="29" width="1" height="1" fill="rgba(255,255,255,1)"/>
    <rect x="34" y="29" width="1" height="1" fill="rgba(255,255,255,0)"/>
    <rect x="35" y="29" width="1" height="1" fill="rgba(255,255,255,1)"/>
    <rect x="26" y="30" width="1" height="1" fill="rgba(255,255,255,1)"/>
    <rect x="28" y="30" width="1" height="1" fill="rgba(255,255,255,0)"/>
    <rect x="29" y="30" width="4" height="1" fill="rgba(255,255,255,1)"/>
    <rect x="34" y="30" width="1" height="1" fill="rgba(255,255,255,0)"/>
    <rect x="27" y="31" width="1" height="1" fill="rgba(255,255,255,0)"/>
    <rect x="28" y="31" width="1" height="1" fill="rgba(255,255,255,1)"/>
    <rect x="29" y="31" width="1" height="1" fill="rgba(255,255,255,0)"/>
    <rect x="31" y="31" width="1" height="1" fill="rgba(255,255,255,0)"/>
    <rect x="32" y="31" width="2" height="1" fill="rgba(255,255,255,1)"/>
    <rect x="34" y="31" width="1" height="1" fill="rgba(255,255,255,0)"/>
    <rect x="27" y="32" width="1" height="1" fill="rgba(255,255,255,1)"/>
    <rect x="28" y="32" width="2" height="1" fill="rgba(255,255,255,0)"/>
    <rect x="30" y="32" width="1" height="1" fill="rgba(255,255,255,1)"/>
    <rect x="31" y="32" width="2" height="1" fill="rgba(255,255,255,0)"/>
    <rect x="33" y="32" width="1" height="1" fill="rgba(255,255,255,1)"/>
    <rect x="34" y="32" width="2" height="1" fill="rgba(255,255,255,0)"/>
    <rect x="26" y="33" width="1" height="1" fill="rgba(217,217,217,1)"/>
    <rect x="27" y="33" width="2" height="1" fill="rgba(229,229,229,1)"/>
    <rect x="29" y="33" width="4" height="1" fill="rgba(255,255,255,1)"/>
    <rect x="33" y="33" width="1" height="1" fill="rgba(229,229,229,1)"/>
    <rect x="34" y="33" width="1" height="1" fill="rgba(217,217,217,1)"/>
    <rect x="35" y="33" width="1" height="1" fill="rgba(204,204,204,1)"/>
    <rect x="26" y="34" width="1" height="1" fill="rgba(153,153,153,1)"/>
    <rect x="27" y="34" width="1" height="1" fill="rgba(204,204,204,1)"/>
    <rect x="28" y="34" width="6" height="1" fill="rgba(229,229,229,1)"/>
    <rect x="34" y="34" width="1" height="1" fill="rgba(204,204,204,1)"/>
    <rect x="35" y="34" width="1" height="1" fill="rgba(255,255,255,1)"/>
    <rect x="26" y="35" width="1" height="1" fill="rgba(153,153,153,1)"/>
    <rect x="27" y="35" width="1" height="1" fill="rgba(204,204,204,1)"/>
    <rect x="28" y="35" width="6" height="1" fill="rgba(229,229,229,1)"/>
    <rect x="34" y="35" width="1" height="1" fill="rgba(204,204,204,1)"/>
    <rect x="35" y="35" width="1" height="1" fill="rgba(255,255,255,1)"/>
    <rect x="26" y="36" width="1" height="1" fill="rgba(153,153,153,1)"/>
    <rect x="27" y="36" width="1" height="1" fill="rgba(204,204,204,1)"/>
    <rect x="28" y="36" width="6" height="1" fill="rgba(229,229,229,1)"/>
    <rect x="34" y="36" width="1" height="1" fill="rgba(204,204,204,1)"/>
    <rect x="35" y="36" width="1" height="1" fill="rgba(255,255,255,1)"/>
  </g>
</svg>