<?xml version="1.0" encoding="UTF-8"?>
<!-- Generated from: Claw_Background.png -->
<!-- Dimensions: 37x37 pixels (37 merged rects) -->
<!-- Rect size: 1 -->
<svg xmlns="http://www.w3.org/2000/svg" viewBox="0 0 37 37">
  <style>
    rect { shape-rendering: crispEdges; }
    svg { image-rendering: pixelated; image-rendering: -moz-crisp-edges; image-rendering: crisp-edges; }
  </style>
  <g id="pixels">
    <rect x="0" y="0" width="37" height="1" fill="rgba(142,44,42,1)"/>
    <rect x="0" y="1" width="37" height="1" fill="rgba(142,45,42,1)"/>
    <rect x="0" y="2" width="37" height="1" fill="rgba(141,52,47,1)"/>
    <rect x="0" y="3" width="37" height="1" fill="rgba(140,58,52,1)"/>
    <rect x="0" y="4" width="37" height="1" fill="rgba(138,65,56,1)"/>
    <rect x="0" y="5" width="37" height="1" fill="rgba(137,70,62,1)"/>
    <rect x="0" y="6" width="37" height="1" fill="rgba(134,76,67,1)"/>
    <rect x="0" y="7" width="37" height="1" fill="rgba(131,82,73,1)"/>
    <rect x="0" y="8" width="37" height="1" fill="rgba(128,88,79,1)"/>
    <rect x="0" y="9" width="37" height="1" fill="rgba(125,94,84,1)"/>
    <rect x="0" y="10" width="37" height="1" fill="rgba(120,99,90,1)"/>
    <rect x="0" y="11" width="37" height="1" fill="rgba(115,105,96,1)"/>
    <rect x="0" y="12" width="37" height="1" fill="rgba(109,110,103,1)"/>
    <rect x="0" y="13" width="37" height="1" fill="rgba(102,115,109,1)"/>
    <rect x="0" y="14" width="37" height="1" fill="rgba(94,120,115,1)"/>
    <rect x="0" y="15" width="37" height="1" fill="rgba(85,125,121,1)"/>
    <rect x="0" y="16" width="37" height="1" fill="rgba(74,128,126,1)"/>
    <rect x="0" y="17" width="37" height="1" fill="rgba(61,132,131,1)"/>
    <rect x="0" y="18" width="37" height="1" fill="rgba(44,135,134,1)"/>
    <rect x="0" y="19" width="37" height="1" fill="rgba(23,136,136,1)"/>
    <rect x="0" y="20" width="37" height="1" fill="rgba(23,136,136,1)"/>
    <rect x="0" y="21" width="37" height="1" fill="rgba(23,136,136,1)"/>
    <rect x="0" y="22" width="37" height="1" fill="rgba(23,136,136,1)"/>
    <rect x="0" y="23" width="37" height="1" fill="rgba(23,136,136,1)"/>
    <rect x="0" y="24" width="37" height="1" fill="rgba(23,136,136,1)"/>
    <rect x="0" y="25" width="37" height="1" fill="rgba(23,136,136,1)"/>
    <rect x="0" y="26" width="37" height="1" fill="rgba(23,136,136,1)"/>
    <rect x="0" y="27" width="37" height="1" fill="rgba(23,136,136,1)"/>
    <rect x="0" y="28" width="37" height="1" fill="rgba(23,136,136,1)"/>
    <rect x="0" y="29" width="37" height="1" fill="rgba(23,136,136,1)"/>
    <rect x="0" y="30" width="37" height="1" fill="rgba(23,136,136,1)"/>
    <rect x="0" y="31" width="37" height="1" fill="rgba(23,136,136,1)"/>
    <rect x="0" y="32" width="37" height="1" fill="rgba(23,136,136,1)"/>
    <rect x="0" y="33" width="37" height="1" fill="rgba(23,136,136,1)"/>
    <rect x="0" y="34" width="37" height="1" fill="rgba(23,136,136,1)"/>
    <rect x="0" y="35" width="37" height="1" fill="rgba(23,136,136,1)"/>
    <rect x="0" y="36" width="37" height="1" fill="rgba(23,136,136,1)"/>
  </g>
</svg>