<?xml version="1.0" encoding="UTF-8"?>
<!-- Generated from: Claw.png -->
<!-- Dimensions: 37x37 pixels (119 merged rects) -->
<!-- Rect size: 1 -->
<svg xmlns="http://www.w3.org/2000/svg" viewBox="0 0 37 37">
  <style>
    rect { shape-rendering: crispEdges; }
    svg { image-rendering: pixelated; image-rendering: -moz-crisp-edges; image-rendering: crisp-edges; }
  </style>
  <g id="pixels">
    <rect x="4" y="19" width="3" height="1" fill="rgba(148,21,21,1)"/>
    <rect x="3" y="20" width="1" height="1" fill="rgba(148,21,21,1)"/>
    <rect x="4" y="20" width="2" height="1" fill="rgba(193,28,26,1)"/>
    <rect x="6" y="20" width="1" height="1" fill="rgba(216,35,31,1)"/>
    <rect x="7" y="20" width="1" height="1" fill="rgba(148,21,21,1)"/>
    <rect x="2" y="21" width="1" height="1" fill="rgba(148,21,21,1)"/>
    <rect x="3" y="21" width="1" height="1" fill="rgba(193,28,26,1)"/>
    <rect x="4" y="21" width="1" height="1" fill="rgba(214,34,31,1)"/>
    <rect x="5" y="21" width="1" height="1" fill="rgba(216,34,31,1)"/>
    <rect x="6" y="21" width="1" height="1" fill="rgba(216,35,31,1)"/>
    <rect x="1" y="22" width="1" height="1" fill="rgba(148,21,21,1)"/>
    <rect x="2" y="22" width="1" height="1" fill="rgba(183,26,23,1)"/>
    <rect x="3" y="22" width="1" height="1" fill="rgba(212,33,29,1)"/>
    <rect x="4" y="22" width="1" height="1" fill="rgba(218,35,32,1)"/>
    <rect x="5" y="22" width="1" height="1" fill="rgba(183,26,23,1)"/>
    <rect x="8" y="22" width="1" height="1" fill="rgba(148,21,21,1)"/>
    <rect x="1" y="23" width="1" height="1" fill="rgba(148,21,21,1)"/>
    <rect x="2" y="23" width="1" height="1" fill="rgba(189,27,24,1)"/>
    <rect x="3" y="23" width="1" height="1" fill="rgba(215,33,31,1)"/>
    <rect x="4" y="23" width="1" height="1" fill="rgba(218,35,32,1)"/>
    <rect x="5" y="23" width="1" height="1" fill="rgba(220,38,34,1)"/>
    <rect x="8" y="23" width="1" height="1" fill="rgba(183,26,23,1)"/>
    <rect x="9" y="23" width="1" height="1" fill="rgba(220,38,34,1)"/>
    <rect x="1" y="24" width="1" height="1" fill="rgba(148,21,21,1)"/>
    <rect x="2" y="24" width="1" height="1" fill="rgba(189,27,24,1)"/>
    <rect x="3" y="24" width="1" height="1" fill="rgba(214,33,29,1)"/>
    <rect x="4" y="24" width="1" height="1" fill="rgba(218,34,31,1)"/>
    <rect x="5" y="24" width="1" height="1" fill="rgba(183,26,23,1)"/>
    <rect x="7" y="24" width="1" height="1" fill="rgba(148,21,21,1)"/>
    <rect x="8" y="24" width="1" height="1" fill="rgba(183,26,23,1)"/>
    <rect x="9" y="24" width="1" height="1" fill="rgba(220,38,34,1)"/>
    <rect x="1" y="25" width="1" height="1" fill="rgba(148,21,21,1)"/>
    <rect x="2" y="25" width="1" height="1" fill="rgba(188,27,24,1)"/>
    <rect x="3" y="25" width="1" height="1" fill="rgba(212,33,29,1)"/>
    <rect x="4" y="25" width="1" height="1" fill="rgba(218,34,31,1)"/>
    <rect x="5" y="25" width="1" height="1" fill="rgba(220,38,34,1)"/>
    <rect x="8" y="25" width="1" height="1" fill="rgba(183,26,23,1)"/>
    <rect x="9" y="25" width="1" height="1" fill="rgba(220,38,34,1)"/>
    <rect x="10" y="25" width="1" height="1" fill="rgba(218,37,33,1)"/>
    <rect x="1" y="26" width="1" height="1" fill="rgba(148,21,21,1)"/>
    <rect x="2" y="26" width="1" height="1" fill="rgba(185,26,23,1)"/>
    <rect x="3" y="26" width="1" height="1" fill="rgba(212,33,29,1)"/>
    <rect x="4" y="26" width="1" height="1" fill="rgba(217,34,31,1)"/>
    <rect x="5" y="26" width="1" height="1" fill="rgba(183,26,23,1)"/>
    <rect x="7" y="26" width="1" height="1" fill="rgba(148,21,21,1)"/>
    <rect x="8" y="26" width="1" height="1" fill="rgba(183,26,23,1)"/>
    <rect x="9" y="26" width="1" height="1" fill="rgba(218,35,32,1)"/>
    <rect x="10" y="26" width="1" height="1" fill="rgba(218,37,33,1)"/>
    <rect x="1" y="27" width="1" height="1" fill="rgba(148,21,21,1)"/>
    <rect x="2" y="27" width="1" height="1" fill="rgba(176,26,25,1)"/>
    <rect x="3" y="27" width="1" height="1" fill="rgba(211,33,29,1)"/>
    <rect x="4" y="27" width="2" height="1" fill="rgba(218,34,31,1)"/>
    <rect x="8" y="27" width="1" height="1" fill="rgba(183,26,23,1)"/>
    <rect x="9" y="27" width="1" height="1" fill="rgba(209,33,29,1)"/>
    <rect x="10" y="27" width="1" height="1" fill="rgba(198,29,27,1)"/>
    <rect x="0" y="28" width="1" height="1" fill="rgba(148,21,21,1)"/>
    <rect x="1" y="28" width="1" height="1" fill="rgba(194,28,26,1)"/>
    <rect x="2" y="28" width="1" height="1" fill="rgba(204,31,27,1)"/>
    <rect x="3" y="28" width="1" height="1" fill="rgba(211,33,29,1)"/>
    <rect x="4" y="28" width="1" height="1" fill="rgba(218,34,31,1)"/>
    <rect x="5" y="28" width="1" height="1" fill="rgba(220,37,33,1)"/>
    <rect x="7" y="28" width="1" height="1" fill="rgba(148,21,21,1)"/>
    <rect x="8" y="28" width="1" height="1" fill="rgba(183,26,23,1)"/>
    <rect x="9" y="28" width="1" height="1" fill="rgba(211,34,31,1)"/>
    <rect x="10" y="28" width="1" height="1" fill="rgba(218,37,33,1)"/>
    <rect x="0" y="29" width="1" height="1" fill="rgba(148,21,21,1)"/>
    <rect x="1" y="29" width="1" height="1" fill="rgba(204,31,27,1)"/>
    <rect x="2" y="29" width="1" height="1" fill="rgba(200,29,27,1)"/>
    <rect x="3" y="29" width="1" height="1" fill="rgba(210,32,28,1)"/>
    <rect x="4" y="29" width="1" height="1" fill="rgba(216,34,31,1)"/>
    <rect x="5" y="29" width="1" height="1" fill="rgba(220,37,33,1)"/>
    <rect x="6" y="29" width="1" height="1" fill="rgba(124,18,18,1)"/>
    <rect x="7" y="29" width="2" height="1" fill="rgba(183,26,23,1)"/>
    <rect x="9" y="29" width="1" height="1" fill="rgba(218,35,32,1)"/>
    <rect x="10" y="29" width="1" height="1" fill="rgba(218,37,33,1)"/>
    <rect x="0" y="30" width="1" height="1" fill="rgba(148,21,21,1)"/>
    <rect x="1" y="30" width="1" height="1" fill="rgba(195,28,26,1)"/>
    <rect x="2" y="30" width="1" height="1" fill="rgba(199,29,27,1)"/>
    <rect x="3" y="30" width="1" height="1" fill="rgba(205,31,28,1)"/>
    <rect x="4" y="30" width="1" height="1" fill="rgba(210,32,29,1)"/>
    <rect x="5" y="30" width="1" height="1" fill="rgba(218,34,32,1)"/>
    <rect x="6" y="30" width="1" height="1" fill="rgba(205,31,29,1)"/>
    <rect x="7" y="30" width="1" height="1" fill="rgba(220,38,35,1)"/>
    <rect x="8" y="30" width="1" height="1" fill="rgba(218,37,33,1)"/>
    <rect x="9" y="30" width="1" height="1" fill="rgba(176,27,26,1)"/>
    <rect x="1" y="31" width="2" height="1" fill="rgba(148,21,21,1)"/>
    <rect x="3" y="31" width="1" height="1" fill="rgba(203,31,27,1)"/>
    <rect x="4" y="31" width="1" height="1" fill="rgba(204,31,27,1)"/>
    <rect x="5" y="31" width="1" height="1" fill="rgba(212,33,29,1)"/>
    <rect x="6" y="31" width="1" height="1" fill="rgba(177,26,25,1)"/>
    <rect x="7" y="31" width="1" height="1" fill="rgba(220,38,34,1)"/>
    <rect x="8" y="31" width="1" height="1" fill="rgba(218,38,34,1)"/>
    <rect x="9" y="31" width="1" height="1" fill="rgba(218,35,32,1)"/>
    <rect x="2" y="32" width="1" height="1" fill="rgba(148,21,21,1)"/>
    <rect x="3" y="32" width="1" height="1" fill="rgba(193,27,26,1)"/>
    <rect x="4" y="32" width="1" height="1" fill="rgba(205,31,28,1)"/>
    <rect x="5" y="32" width="1" height="1" fill="rgba(210,32,28,1)"/>
    <rect x="6" y="32" width="1" height="1" fill="rgba(193,27,26,1)"/>
    <rect x="7" y="32" width="1" height="1" fill="rgba(220,37,33,1)"/>
    <rect x="8" y="32" width="1" height="1" fill="rgba(220,38,34,1)"/>
    <rect x="3" y="33" width="1" height="1" fill="rgba(168,23,22,1)"/>
    <rect x="4" y="33" width="1" height="1" fill="rgba(204,31,27,1)"/>
    <rect x="5" y="33" width="1" height="1" fill="rgba(202,30,28,1)"/>
    <rect x="6" y="33" width="1" height="1" fill="rgba(175,25,24,1)"/>
    <rect x="7" y="33" width="1" height="1" fill="rgba(216,34,31,1)"/>
    <rect x="8" y="33" width="1" height="1" fill="rgba(220,37,33,1)"/>
    <rect x="4" y="34" width="1" height="1" fill="rgba(148,21,21,1)"/>
    <rect x="5" y="34" width="1" height="1" fill="rgba(180,26,25,1)"/>
    <rect x="6" y="34" width="1" height="1" fill="rgba(196,29,26,1)"/>
    <rect x="7" y="34" width="1" height="1" fill="rgba(204,30,28,1)"/>
    <rect x="8" y="34" width="1" height="1" fill="rgba(216,34,31,1)"/>
    <rect x="5" y="35" width="1" height="1" fill="rgba(182,24,23,1)"/>
    <rect x="6" y="35" width="1" height="1" fill="rgba(216,34,31,1)"/>
    <rect x="7" y="35" width="1" height="1" fill="rgba(209,32,29,1)"/>
    <rect x="8" y="35" width="1" height="1" fill="rgba(216,34,31,1)"/>
    <rect x="5" y="36" width="1" height="1" fill="rgba(168,23,22,1)"/>
    <rect x="6" y="36" width="1" height="1" fill="rgba(216,34,31,1)"/>
    <rect x="7" y="36" width="1" height="1" fill="rgba(209,32,29,1)"/>
    <rect x="8" y="36" width="1" height="1" fill="rgba(216,34,31,1)"/>
  </g>
</svg>