<?xml version="1.0" encoding="UTF-8"?>
<!-- Generated from: 1175.png -->
<!-- Dimensions: 37x37 pixels (53 merged rects) -->
<!-- Rect size: 1 -->
<svg xmlns="http://www.w3.org/2000/svg" viewBox="0 0 37 37">
  <style>
    rect { shape-rendering: crispEdges; }
    svg { image-rendering: pixelated; image-rendering: -moz-crisp-edges; image-rendering: crisp-edges; }
  </style>
  <g id="pixels">
    <rect x="0.00" y="0.00" width="37.00" height="1" fill="rgba(0,255,0,1.00)"/>
    <rect x="0.00" y="1.00" width="2.00" height="1" fill="rgba(0,255,0,1.00)"/>
    <rect x="2.00" y="1.00" width="1.00" height="1" fill="rgba(255,255,255,1.00)"/>
    <rect x="3.00" y="1.00" width="34.00" height="1" fill="rgba(0,255,0,1.00)"/>
    <rect x="0.00" y="2.00" width="37.00" height="1" fill="rgba(0,255,0,1.00)"/>
    <rect x="0.00" y="3.00" width="8.00" height="1" fill="rgba(0,255,0,1.00)"/>
    <rect x="8.00" y="3.00" width="1.00" height="1" fill="rgba(255,255,255,1.00)"/>
    <rect x="9.00" y="3.00" width="28.00" height="1" fill="rgba(0,255,0,1.00)"/>
    <rect x="0.00" y="4.00" width="2.00" height="1" fill="rgba(0,255,0,1.00)"/>
    <rect x="2.00" y="4.00" width="1.00" height="1" fill="rgba(255,255,255,1.00)"/>
    <rect x="3.00" y="4.00" width="34.00" height="1" fill="rgba(0,255,0,1.00)"/>
    <rect x="0.00" y="5.00" width="5.00" height="1" fill="rgba(0,255,0,1.00)"/>
    <rect x="5.00" y="5.00" width="2.00" height="1" fill="rgba(255,255,255,1.00)"/>
    <rect x="7.00" y="5.00" width="1.00" height="1" fill="rgba(0,255,0,1.00)"/>
    <rect x="8.00" y="5.00" width="2.00" height="1" fill="rgba(255,255,255,1.00)"/>
    <rect x="10.00" y="5.00" width="27.00" height="1" fill="rgba(0,255,0,1.00)"/>
    <rect x="0.00" y="6.00" width="2.00" height="1" fill="rgba(0,255,0,1.00)"/>
    <rect x="2.00" y="6.00" width="1.00" height="1" fill="rgba(255,255,255,1.00)"/>
    <rect x="3.00" y="6.00" width="1.00" height="1" fill="rgba(0,255,0,1.00)"/>
    <rect x="4.00" y="6.00" width="1.00" height="1" fill="rgba(255,255,255,1.00)"/>
    <rect x="5.00" y="6.00" width="2.00" height="1" fill="rgba(0,255,0,1.00)"/>
    <rect x="7.00" y="6.00" width="1.00" height="1" fill="rgba(255,255,255,1.00)"/>
    <rect x="8.00" y="6.00" width="29.00" height="1" fill="rgba(0,255,0,1.00)"/>
    <rect x="0.00" y="7.00" width="37.00" height="1" fill="rgba(0,255,0,1.00)"/>
    <rect x="0.00" y="8.00" width="37.00" height="1" fill="rgba(0,255,0,1.00)"/>
    <rect x="0.00" y="9.00" width="37.00" height="1" fill="rgba(0,255,0,1.00)"/>
    <rect x="0.00" y="10.00" width="37.00" height="1" fill="rgba(0,255,0,1.00)"/>
    <rect x="0.00" y="11.00" width="37.00" height="1" fill="rgba(0,255,0,1.00)"/>
    <rect x="0.00" y="12.00" width="37.00" height="1" fill="rgba(0,255,0,1.00)"/>
    <rect x="0.00" y="13.00" width="37.00" height="1" fill="rgba(0,255,0,1.00)"/>
    <rect x="0.00" y="14.00" width="37.00" height="1" fill="rgba(0,255,0,1.00)"/>
    <rect x="0.00" y="15.00" width="37.00" height="1" fill="rgba(0,255,0,1.00)"/>
    <rect x="0.00" y="16.00" width="37.00" height="1" fill="rgba(0,255,0,1.00)"/>
    <rect x="0.00" y="17.00" width="37.00" height="1" fill="rgba(0,255,0,1.00)"/>
    <rect x="0.00" y="18.00" width="37.00" height="1" fill="rgba(0,255,0,1.00)"/>
    <rect x="0.00" y="19.00" width="37.00" height="1" fill="rgba(0,255,0,1.00)"/>
    <rect x="0.00" y="20.00" width="37.00" height="1" fill="rgba(0,255,0,1.00)"/>
    <rect x="0.00" y="21.00" width="37.00" height="1" fill="rgba(0,255,0,1.00)"/>
    <rect x="0.00" y="22.00" width="37.00" height="1" fill="rgba(0,255,0,1.00)"/>
    <rect x="0.00" y="23.00" width="37.00" height="1" fill="rgba(0,255,0,1.00)"/>
    <rect x="0.00" y="24.00" width="37.00" height="1" fill="rgba(0,255,0,1.00)"/>
    <rect x="0.00" y="25.00" width="37.00" height="1" fill="rgba(0,255,0,1.00)"/>
    <rect x="0.00" y="26.00" width="37.00" height="1" fill="rgba(0,255,0,1.00)"/>
    <rect x="0.00" y="27.00" width="37.00" height="1" fill="rgba(0,255,0,1.00)"/>
    <rect x="0.00" y="28.00" width="37.00" height="1" fill="rgba(0,255,0,1.00)"/>
    <rect x="0.00" y="29.00" width="37.00" height="1" fill="rgba(0,255,0,1.00)"/>
    <rect x="0.00" y="30.00" width="37.00" height="1" fill="rgba(0,255,0,1.00)"/>
    <rect x="0.00" y="31.00" width="37.00" height="1" fill="rgba(0,255,0,1.00)"/>
    <rect x="0.00" y="32.00" width="37.00" height="1" fill="rgba(0,255,0,1.00)"/>
    <rect x="0.00" y="33.00" width="37.00" height="1" fill="rgba(0,255,0,1.00)"/>
    <rect x="0.00" y="34.00" width="37.00" height="1" fill="rgba(0,255,0,1.00)"/>
    <rect x="0.00" y="35.00" width="37.00" height="1" fill="rgba(0,255,0,1.00)"/>
    <rect x="0.00" y="36.00" width="37.00" height="1" fill="rgba(0,255,0,1.00)"/>
  </g>
</svg>