<?xml version="1.0" encoding="UTF-8"?>
<!-- Generated from: Zero_Green.png -->
<!-- Dimensions: 74x74 pixels (178 merged rects) -->
<svg xmlns="http://www.w3.org/2000/svg" viewBox="0 0 74 74">
  <style>
    rect { shape-rendering: crispEdges; }
    svg { image-rendering: pixelated; image-rendering: -moz-crisp-edges; image-rendering: crisp-edges; }
  </style>
  <g id="pixels">
    <rect x="0" y="0" width="74" height="1" fill="rgba(0,255,0,1.00)"/>
    <rect x="0" y="1" width="74" height="1" fill="rgba(0,255,0,1.00)"/>
    <rect x="0" y="2" width="74" height="1" fill="rgba(0,255,0,1.00)"/>
    <rect x="0" y="3" width="5" height="1" fill="rgba(0,255,0,1.00)"/>
    <rect x="5" y="3" width="1" height="1" fill="rgba(255,255,255,1.00)"/>
    <rect x="6" y="3" width="68" height="1" fill="rgba(0,255,0,1.00)"/>
    <rect x="0" y="4" width="4" height="1" fill="rgba(0,255,0,1.00)"/>
    <rect x="4" y="4" width="3" height="1" fill="rgba(255,255,255,1.00)"/>
    <rect x="7" y="4" width="1" height="1" fill="rgba(0,255,0,1.00)"/>
    <rect x="8" y="4" width="3" height="1" fill="rgba(255,255,255,1.00)"/>
    <rect x="11" y="4" width="1" height="1" fill="rgba(0,255,0,1.00)"/>
    <rect x="12" y="4" width="3" height="1" fill="rgba(255,255,255,1.00)"/>
    <rect x="15" y="4" width="1" height="1" fill="rgba(0,255,0,1.00)"/>
    <rect x="16" y="4" width="3" height="1" fill="rgba(255,255,255,1.00)"/>
    <rect x="19" y="4" width="1" height="1" fill="rgba(0,255,0,1.00)"/>
    <rect x="20" y="4" width="3" height="1" fill="rgba(255,255,255,1.00)"/>
    <rect x="23" y="4" width="51" height="1" fill="rgba(0,255,0,1.00)"/>
    <rect x="0" y="5" width="4" height="1" fill="rgba(0,255,0,1.00)"/>
    <rect x="4" y="5" width="1" height="1" fill="rgba(255,255,255,1.00)"/>
    <rect x="5" y="5" width="5" height="1" fill="rgba(0,255,0,1.00)"/>
    <rect x="10" y="5" width="1" height="1" fill="rgba(255,255,255,1.00)"/>
    <rect x="11" y="5" width="1" height="1" fill="rgba(0,255,0,1.00)"/>
    <rect x="12" y="5" width="1" height="1" fill="rgba(255,255,255,1.00)"/>
    <rect x="13" y="5" width="3" height="1" fill="rgba(0,255,0,1.00)"/>
    <rect x="16" y="5" width="1" height="1" fill="rgba(255,255,255,1.00)"/>
    <rect x="17" y="5" width="1" height="1" fill="rgba(0,255,0,1.00)"/>
    <rect x="18" y="5" width="1" height="1" fill="rgba(255,255,255,1.00)"/>
    <rect x="19" y="5" width="1" height="1" fill="rgba(0,255,0,1.00)"/>
    <rect x="20" y="5" width="1" height="1" fill="rgba(255,255,255,1.00)"/>
    <rect x="21" y="5" width="1" height="1" fill="rgba(0,255,0,1.00)"/>
    <rect x="22" y="5" width="1" height="1" fill="rgba(255,255,255,1.00)"/>
    <rect x="23" y="5" width="51" height="1" fill="rgba(0,255,0,1.00)"/>
    <rect x="0" y="6" width="4" height="1" fill="rgba(0,255,0,1.00)"/>
    <rect x="4" y="6" width="3" height="1" fill="rgba(255,255,255,1.00)"/>
    <rect x="7" y="6" width="2" height="1" fill="rgba(0,255,0,1.00)"/>
    <rect x="9" y="6" width="1" height="1" fill="rgba(255,255,255,1.00)"/>
    <rect x="10" y="6" width="2" height="1" fill="rgba(0,255,0,1.00)"/>
    <rect x="12" y="6" width="2" height="1" fill="rgba(255,255,255,1.00)"/>
    <rect x="14" y="6" width="2" height="1" fill="rgba(0,255,0,1.00)"/>
    <rect x="16" y="6" width="1" height="1" fill="rgba(255,255,255,1.00)"/>
    <rect x="17" y="6" width="1" height="1" fill="rgba(0,255,0,1.00)"/>
    <rect x="18" y="6" width="1" height="1" fill="rgba(255,255,255,1.00)"/>
    <rect x="19" y="6" width="1" height="1" fill="rgba(0,255,0,1.00)"/>
    <rect x="20" y="6" width="1" height="1" fill="rgba(255,255,255,1.00)"/>
    <rect x="21" y="6" width="1" height="1" fill="rgba(0,255,0,1.00)"/>
    <rect x="22" y="6" width="1" height="1" fill="rgba(255,255,255,1.00)"/>
    <rect x="23" y="6" width="51" height="1" fill="rgba(0,255,0,1.00)"/>
    <rect x="0" y="7" width="6" height="1" fill="rgba(0,255,0,1.00)"/>
    <rect x="6" y="7" width="1" height="1" fill="rgba(255,255,255,1.00)"/>
    <rect x="7" y="7" width="1" height="1" fill="rgba(0,255,0,1.00)"/>
    <rect x="8" y="7" width="1" height="1" fill="rgba(255,255,255,1.00)"/>
    <rect x="9" y="7" width="3" height="1" fill="rgba(0,255,0,1.00)"/>
    <rect x="12" y="7" width="1" height="1" fill="rgba(255,255,255,1.00)"/>
    <rect x="13" y="7" width="3" height="1" fill="rgba(0,255,0,1.00)"/>
    <rect x="16" y="7" width="2" height="1" fill="rgba(255,255,255,1.00)"/>
    <rect x="18" y="7" width="2" height="1" fill="rgba(0,255,0,1.00)"/>
    <rect x="20" y="7" width="1" height="1" fill="rgba(255,255,255,1.00)"/>
    <rect x="21" y="7" width="1" height="1" fill="rgba(0,255,0,1.00)"/>
    <rect x="22" y="7" width="1" height="1" fill="rgba(255,255,255,1.00)"/>
    <rect x="23" y="7" width="51" height="1" fill="rgba(0,255,0,1.00)"/>
    <rect x="0" y="8" width="4" height="1" fill="rgba(0,255,0,1.00)"/>
    <rect x="4" y="8" width="3" height="1" fill="rgba(255,255,255,1.00)"/>
    <rect x="7" y="8" width="1" height="1" fill="rgba(0,255,0,1.00)"/>
    <rect x="8" y="8" width="3" height="1" fill="rgba(255,255,255,1.00)"/>
    <rect x="11" y="8" width="1" height="1" fill="rgba(0,255,0,1.00)"/>
    <rect x="12" y="8" width="3" height="1" fill="rgba(255,255,255,1.00)"/>
    <rect x="15" y="8" width="1" height="1" fill="rgba(0,255,0,1.00)"/>
    <rect x="16" y="8" width="1" height="1" fill="rgba(255,255,255,1.00)"/>
    <rect x="17" y="8" width="1" height="1" fill="rgba(0,255,0,1.00)"/>
    <rect x="18" y="8" width="1" height="1" fill="rgba(255,255,255,1.00)"/>
    <rect x="19" y="8" width="1" height="1" fill="rgba(0,255,0,1.00)"/>
    <rect x="20" y="8" width="3" height="1" fill="rgba(255,255,255,1.00)"/>
    <rect x="23" y="8" width="51" height="1" fill="rgba(0,255,0,1.00)"/>
    <rect x="0" y="9" width="5" height="1" fill="rgba(0,255,0,1.00)"/>
    <rect x="5" y="9" width="1" height="1" fill="rgba(255,255,255,1.00)"/>
    <rect x="6" y="9" width="68" height="1" fill="rgba(0,255,0,1.00)"/>
    <rect x="0" y="10" width="74" height="1" fill="rgba(0,255,0,1.00)"/>
    <rect x="0" y="11" width="10" height="1" fill="rgba(0,255,0,1.00)"/>
    <rect x="10" y="11" width="2" height="1" fill="rgba(255,255,255,1.00)"/>
    <rect x="12" y="11" width="1" height="1" fill="rgba(0,255,0,1.00)"/>
    <rect x="13" y="11" width="2" height="1" fill="rgba(255,255,255,1.00)"/>
    <rect x="15" y="11" width="2" height="1" fill="rgba(0,255,0,1.00)"/>
    <rect x="17" y="11" width="1" height="1" fill="rgba(255,255,255,1.00)"/>
    <rect x="18" y="11" width="1" height="1" fill="rgba(0,255,0,1.00)"/>
    <rect x="19" y="11" width="1" height="1" fill="rgba(255,255,255,1.00)"/>
    <rect x="20" y="11" width="54" height="1" fill="rgba(0,255,0,1.00)"/>
    <rect x="0" y="12" width="5" height="1" fill="rgba(0,255,0,1.00)"/>
    <rect x="5" y="12" width="1" height="1" fill="rgba(255,255,255,1.00)"/>
    <rect x="6" y="12" width="3" height="1" fill="rgba(0,255,0,1.00)"/>
    <rect x="9" y="12" width="1" height="1" fill="rgba(255,255,255,1.00)"/>
    <rect x="10" y="12" width="2" height="1" fill="rgba(0,255,0,1.00)"/>
    <rect x="12" y="12" width="1" height="1" fill="rgba(255,255,255,1.00)"/>
    <rect x="13" y="12" width="2" height="1" fill="rgba(0,255,0,1.00)"/>
    <rect x="15" y="12" width="1" height="1" fill="rgba(255,255,255,1.00)"/>
    <rect x="16" y="12" width="3" height="1" fill="rgba(0,255,0,1.00)"/>
    <rect x="19" y="12" width="1" height="1" fill="rgba(255,255,255,1.00)"/>
    <rect x="20" y="12" width="54" height="1" fill="rgba(0,255,0,1.00)"/>
    <rect x="0" y="13" width="4" height="1" fill="rgba(0,255,0,1.00)"/>
    <rect x="4" y="13" width="3" height="1" fill="rgba(255,255,255,1.00)"/>
    <rect x="7" y="13" width="2" height="1" fill="rgba(0,255,0,1.00)"/>
    <rect x="9" y="13" width="1" height="1" fill="rgba(255,255,255,1.00)"/>
    <rect x="10" y="13" width="2" height="1" fill="rgba(0,255,0,1.00)"/>
    <rect x="12" y="13" width="1" height="1" fill="rgba(255,255,255,1.00)"/>
    <rect x="13" y="13" width="2" height="1" fill="rgba(0,255,0,1.00)"/>
    <rect x="15" y="13" width="1" height="1" fill="rgba(255,255,255,1.00)"/>
    <rect x="16" y="13" width="2" height="1" fill="rgba(0,255,0,1.00)"/>
    <rect x="18" y="13" width="1" height="1" fill="rgba(255,255,255,1.00)"/>
    <rect x="19" y="13" width="55" height="1" fill="rgba(0,255,0,1.00)"/>
    <rect x="0" y="14" width="3" height="1" fill="rgba(0,255,0,1.00)"/>
    <rect x="3" y="14" width="5" height="1" fill="rgba(255,255,255,1.00)"/>
    <rect x="8" y="14" width="2" height="1" fill="rgba(0,255,0,1.00)"/>
    <rect x="10" y="14" width="2" height="1" fill="rgba(255,255,255,1.00)"/>
    <rect x="12" y="14" width="1" height="1" fill="rgba(0,255,0,1.00)"/>
    <rect x="13" y="14" width="2" height="1" fill="rgba(255,255,255,1.00)"/>
    <rect x="15" y="14" width="3" height="1" fill="rgba(0,255,0,1.00)"/>
    <rect x="18" y="14" width="1" height="1" fill="rgba(255,255,255,1.00)"/>
    <rect x="19" y="14" width="1" height="1" fill="rgba(0,255,0,1.00)"/>
    <rect x="20" y="14" width="1" height="1" fill="rgba(255,255,255,1.00)"/>
    <rect x="21" y="14" width="53" height="1" fill="rgba(0,255,0,1.00)"/>
    <rect x="0" y="15" width="74" height="1" fill="rgba(0,255,0,1.00)"/>
    <rect x="0" y="16" width="74" height="1" fill="rgba(0,255,0,1.00)"/>
    <rect x="0" y="17" width="74" height="1" fill="rgba(0,255,0,1.00)"/>
    <rect x="0" y="18" width="74" height="1" fill="rgba(0,255,0,1.00)"/>
    <rect x="0" y="19" width="74" height="1" fill="rgba(0,255,0,1.00)"/>
    <rect x="0" y="20" width="74" height="1" fill="rgba(0,255,0,1.00)"/>
    <rect x="0" y="21" width="74" height="1" fill="rgba(0,255,0,1.00)"/>
    <rect x="0" y="22" width="74" height="1" fill="rgba(0,255,0,1.00)"/>
    <rect x="0" y="23" width="74" height="1" fill="rgba(0,255,0,1.00)"/>
    <rect x="0" y="24" width="74" height="1" fill="rgba(0,255,0,1.00)"/>
    <rect x="0" y="25" width="74" height="1" fill="rgba(0,255,0,1.00)"/>
    <rect x="0" y="26" width="74" height="1" fill="rgba(0,255,0,1.00)"/>
    <rect x="0" y="27" width="74" height="1" fill="rgba(0,255,0,1.00)"/>
    <rect x="0" y="28" width="74" height="1" fill="rgba(0,255,0,1.00)"/>
    <rect x="0" y="29" width="74" height="1" fill="rgba(0,255,0,1.00)"/>
    <rect x="0" y="30" width="74" height="1" fill="rgba(0,255,0,1.00)"/>
    <rect x="0" y="31" width="74" height="1" fill="rgba(0,255,0,1.00)"/>
    <rect x="0" y="32" width="74" height="1" fill="rgba(0,255,0,1.00)"/>
    <rect x="0" y="33" width="74" height="1" fill="rgba(0,255,0,1.00)"/>
    <rect x="0" y="34" width="74" height="1" fill="rgba(0,255,0,1.00)"/>
    <rect x="0" y="35" width="74" height="1" fill="rgba(0,255,0,1.00)"/>
    <rect x="0" y="36" width="74" height="1" fill="rgba(0,255,0,1.00)"/>
    <rect x="0" y="37" width="74" height="1" fill="rgba(0,255,0,1.00)"/>
    <rect x="0" y="38" width="74" height="1" fill="rgba(0,255,0,1.00)"/>
    <rect x="0" y="39" width="74" height="1" fill="rgba(0,255,0,1.00)"/>
    <rect x="0" y="40" width="74" height="1" fill="rgba(0,255,0,1.00)"/>
    <rect x="0" y="41" width="74" height="1" fill="rgba(0,255,0,1.00)"/>
    <rect x="0" y="42" width="74" height="1" fill="rgba(0,255,0,1.00)"/>
    <rect x="0" y="43" width="74" height="1" fill="rgba(0,255,0,1.00)"/>
    <rect x="0" y="44" width="74" height="1" fill="rgba(0,255,0,1.00)"/>
    <rect x="0" y="45" width="74" height="1" fill="rgba(0,255,0,1.00)"/>
    <rect x="0" y="46" width="74" height="1" fill="rgba(0,255,0,1.00)"/>
    <rect x="0" y="47" width="74" height="1" fill="rgba(0,255,0,1.00)"/>
    <rect x="0" y="48" width="74" height="1" fill="rgba(0,255,0,1.00)"/>
    <rect x="0" y="49" width="74" height="1" fill="rgba(0,255,0,1.00)"/>
    <rect x="0" y="50" width="74" height="1" fill="rgba(0,255,0,1.00)"/>
    <rect x="0" y="51" width="74" height="1" fill="rgba(0,255,0,1.00)"/>
    <rect x="0" y="52" width="74" height="1" fill="rgba(0,255,0,1.00)"/>
    <rect x="0" y="53" width="74" height="1" fill="rgba(0,255,0,1.00)"/>
    <rect x="0" y="54" width="74" height="1" fill="rgba(0,255,0,1.00)"/>
    <rect x="0" y="55" width="74" height="1" fill="rgba(0,255,0,1.00)"/>
    <rect x="0" y="56" width="74" height="1" fill="rgba(0,255,0,1.00)"/>
    <rect x="0" y="57" width="74" height="1" fill="rgba(0,255,0,1.00)"/>
    <rect x="0" y="58" width="74" height="1" fill="rgba(0,255,0,1.00)"/>
    <rect x="0" y="59" width="74" height="1" fill="rgba(0,255,0,1.00)"/>
    <rect x="0" y="60" width="74" height="1" fill="rgba(0,255,0,1.00)"/>
    <rect x="0" y="61" width="74" height="1" fill="rgba(0,255,0,1.00)"/>
    <rect x="0" y="62" width="74" height="1" fill="rgba(0,255,0,1.00)"/>
    <rect x="0" y="63" width="74" height="1" fill="rgba(0,255,0,1.00)"/>
    <rect x="0" y="64" width="74" height="1" fill="rgba(0,255,0,1.00)"/>
    <rect x="0" y="65" width="74" height="1" fill="rgba(0,255,0,1.00)"/>
    <rect x="0" y="66" width="74" height="1" fill="rgba(0,255,0,1.00)"/>
    <rect x="0" y="67" width="74" height="1" fill="rgba(0,255,0,1.00)"/>
    <rect x="0" y="68" width="74" height="1" fill="rgba(0,255,0,1.00)"/>
    <rect x="0" y="69" width="74" height="1" fill="rgba(0,255,0,1.00)"/>
    <rect x="0" y="70" width="74" height="1" fill="rgba(0,255,0,1.00)"/>
    <rect x="0" y="71" width="74" height="1" fill="rgba(0,255,0,1.00)"/>
    <rect x="0" y="72" width="74" height="1" fill="rgba(0,255,0,1.00)"/>
    <rect x="0" y="73" width="74" height="1" fill="rgba(0,255,0,1.00)"/>
  </g>
</svg>