<?xml version="1.0" encoding="UTF-8"?>
<!-- Generated from: 1178a.png -->
<!-- Dimensions: 37x37 pixels (377 merged rects) -->
<!-- Rect size: 1 -->
<svg xmlns="http://www.w3.org/2000/svg" viewBox="0 0 37 37">
  <style>
    rect { shape-rendering: crispEdges; }
    svg { image-rendering: pixelated; image-rendering: -moz-crisp-edges; image-rendering: crisp-edges; }
  </style>
  <g id="pixels">
    <rect x="16.00" y="13.00" width="1.00" height="1" fill="rgba(255,139,57,0.84)"/>
    <rect x="16.00" y="14.00" width="1.00" height="1" fill="rgba(255,139,57,0.67)"/>
    <rect x="11.00" y="15.00" width="1.00" height="1" fill="rgba(254,168,55,0.93)"/>
    <rect x="21.00" y="15.00" width="1.00" height="1" fill="rgba(255,169,55,0.53)"/>
    <rect x="25.00" y="15.00" width="1.00" height="1" fill="rgba(255,139,57,0.96)"/>
    <rect x="8.00" y="16.00" width="1.00" height="1" fill="rgba(255,139,57,0.94)"/>
    <rect x="11.00" y="16.00" width="1.00" height="1" fill="rgba(242,160,52,0.89)"/>
    <rect x="17.00" y="16.00" width="1.00" height="1" fill="rgba(254,139,57,0.31)"/>
    <rect x="18.00" y="16.00" width="1.00" height="1" fill="rgba(254,139,57,0.28)"/>
    <rect x="26.00" y="16.00" width="1.00" height="1" fill="rgba(255,139,57,0.98)"/>
    <rect x="17.00" y="17.00" width="1.00" height="1" fill="rgba(255,169,55,0.25)"/>
    <rect x="18.00" y="17.00" width="1.00" height="1" fill="rgba(255,139,57,0.23)"/>
    <rect x="25.00" y="17.00" width="1.00" height="1" fill="rgba(254,139,57,0.93)"/>
    <rect x="26.00" y="17.00" width="1.00" height="1" fill="rgba(254,168,55,0.98)"/>
    <rect x="13.00" y="18.00" width="1.00" height="1" fill="rgba(247,163,54,0.68)"/>
    <rect x="16.00" y="18.00" width="1.00" height="1" fill="rgba(252,138,57,0.26)"/>
    <rect x="17.00" y="18.00" width="1.00" height="1" fill="rgba(255,139,57,0.23)"/>
    <rect x="18.00" y="18.00" width="1.00" height="1" fill="rgba(254,168,55,0.22)"/>
    <rect x="19.00" y="18.00" width="1.00" height="1" fill="rgba(254,139,57,0.22)"/>
    <rect x="23.00" y="18.00" width="1.00" height="1" fill="rgba(254,168,55,0.60)"/>
    <rect x="25.00" y="18.00" width="1.00" height="1" fill="rgba(253,138,57,0.92)"/>
    <rect x="29.00" y="18.00" width="1.00" height="1" fill="rgba(229,125,51,1.00)"/>
    <rect x="34.00" y="18.00" width="1.00" height="1" fill="rgba(252,167,54,1.00)"/>
    <rect x="8.00" y="19.00" width="1.00" height="1" fill="rgba(255,169,55,0.90)"/>
    <rect x="13.00" y="19.00" width="1.00" height="1" fill="rgba(252,167,55,0.64)"/>
    <rect x="14.00" y="19.00" width="1.00" height="1" fill="rgba(252,167,55,0.47)"/>
    <rect x="17.00" y="19.00" width="1.00" height="1" fill="rgba(248,135,56,0.21)"/>
    <rect x="18.00" y="19.00" width="1.00" height="1" fill="rgba(255,169,55,0.21)"/>
    <rect x="19.00" y="19.00" width="1.00" height="1" fill="rgba(255,139,57,0.22)"/>
    <rect x="20.00" y="19.00" width="1.00" height="1" fill="rgba(255,139,57,0.24)"/>
    <rect x="23.00" y="19.00" width="1.00" height="1" fill="rgba(246,134,55,0.58)"/>
    <rect x="32.00" y="19.00" width="1.00" height="1" fill="rgba(254,168,55,1.00)"/>
    <rect x="7.00" y="20.00" width="1.00" height="1" fill="rgba(254,139,57,0.91)"/>
    <rect x="9.00" y="20.00" width="1.00" height="1" fill="rgba(255,169,55,0.90)"/>
    <rect x="13.00" y="20.00" width="1.00" height="1" fill="rgba(254,138,57,0.61)"/>
    <rect x="14.00" y="20.00" width="1.00" height="1" fill="rgba(254,168,55,0.45)"/>
    <rect x="16.00" y="20.00" width="1.00" height="1" fill="rgba(255,139,57,0.22)"/>
    <rect x="17.00" y="20.00" width="1.00" height="1" fill="rgba(255,139,57,0.20)"/>
    <rect x="18.00" y="20.00" width="1.00" height="1" fill="rgba(255,169,55,0.20)"/>
    <rect x="19.00" y="20.00" width="1.00" height="1" fill="rgba(255,169,55,0.22)"/>
    <rect x="20.00" y="20.00" width="1.00" height="1" fill="rgba(254,139,57,0.24)"/>
    <rect x="22.00" y="20.00" width="1.00" height="1" fill="rgba(255,139,57,0.40)"/>
    <rect x="23.00" y="20.00" width="1.00" height="1" fill="rgba(255,139,57,0.60)"/>
    <rect x="24.00" y="20.00" width="1.00" height="1" fill="rgba(255,139,57,0.81)"/>
    <rect x="30.00" y="20.00" width="1.00" height="1" fill="rgba(255,139,57,1.00)"/>
    <rect x="32.00" y="20.00" width="1.00" height="1" fill="rgba(255,139,57,1.00)"/>
    <rect x="4.00" y="21.00" width="1.00" height="1" fill="rgba(255,139,57,0.99)"/>
    <rect x="6.00" y="21.00" width="1.00" height="1" fill="rgba(255,169,55,0.94)"/>
    <rect x="9.00" y="21.00" width="1.00" height="1" fill="rgba(255,139,57,0.89)"/>
    <rect x="10.00" y="21.00" width="1.00" height="1" fill="rgba(254,168,55,0.89)"/>
    <rect x="12.00" y="21.00" width="1.00" height="1" fill="rgba(255,139,57,0.75)"/>
    <rect x="13.00" y="21.00" width="1.00" height="1" fill="rgba(255,139,57,0.59)"/>
    <rect x="16.00" y="21.00" width="1.00" height="1" fill="rgba(255,169,55,0.20)"/>
    <rect x="17.00" y="21.00" width="1.00" height="1" fill="rgba(255,169,55,0.19)"/>
    <rect x="18.00" y="21.00" width="1.00" height="1" fill="rgba(255,169,55,0.20)"/>
    <rect x="19.00" y="21.00" width="1.00" height="1" fill="rgba(255,139,57,0.22)"/>
    <rect x="22.00" y="21.00" width="1.00" height="1" fill="rgba(255,139,57,0.44)"/>
    <rect x="23.00" y="21.00" width="1.00" height="1" fill="rgba(255,169,55,0.65)"/>
    <rect x="24.00" y="21.00" width="1.00" height="1" fill="rgba(255,139,57,0.83)"/>
    <rect x="26.00" y="21.00" width="1.00" height="1" fill="rgba(255,169,55,1.00)"/>
    <rect x="29.00" y="21.00" width="1.00" height="1" fill="rgba(255,139,57,1.00)"/>
    <rect x="30.00" y="21.00" width="2.00" height="1" fill="rgba(255,169,55,1.00)"/>
    <rect x="34.00" y="21.00" width="1.00" height="1" fill="rgba(255,169,55,1.00)"/>
    <rect x="2.00" y="22.00" width="1.00" height="1" fill="rgba(255,139,57,1.00)"/>
    <rect x="4.00" y="22.00" width="1.00" height="1" fill="rgba(255,139,57,1.00)"/>
    <rect x="5.00" y="22.00" width="1.00" height="1" fill="rgba(255,169,55,0.98)"/>
    <rect x="6.00" y="22.00" width="1.00" height="1" fill="rgba(255,169,55,0.96)"/>
    <rect x="9.00" y="22.00" width="1.00" height="1" fill="rgba(255,139,57,0.90)"/>
    <rect x="10.00" y="22.00" width="1.00" height="1" fill="rgba(254,139,57,0.88)"/>
    <rect x="12.00" y="22.00" width="1.00" height="1" fill="rgba(255,139,57,0.73)"/>
    <rect x="13.00" y="22.00" width="1.00" height="1" fill="rgba(255,139,57,0.56)"/>
    <rect x="14.00" y="22.00" width="1.00" height="1" fill="rgba(255,139,57,0.40)"/>
    <rect x="15.00" y="22.00" width="1.00" height="1" fill="rgba(255,139,57,0.27)"/>
    <rect x="16.00" y="22.00" width="1.00" height="1" fill="rgba(255,169,55,0.20)"/>
    <rect x="17.00" y="22.00" width="1.00" height="1" fill="rgba(255,169,55,0.18)"/>
    <rect x="18.00" y="22.00" width="1.00" height="1" fill="rgba(255,169,55,0.20)"/>
    <rect x="19.00" y="22.00" width="1.00" height="1" fill="rgba(255,169,55,0.23)"/>
    <rect x="20.00" y="22.00" width="1.00" height="1" fill="rgba(255,169,55,0.27)"/>
    <rect x="21.00" y="22.00" width="1.00" height="1" fill="rgba(255,139,57,0.38)"/>
    <rect x="22.00" y="22.00" width="1.00" height="1" fill="rgba(255,139,57,0.53)"/>
    <rect x="23.00" y="22.00" width="1.00" height="1" fill="rgba(255,139,57,0.72)"/>
    <rect x="24.00" y="22.00" width="1.00" height="1" fill="rgba(255,169,55,0.89)"/>
    <rect x="28.00" y="22.00" width="2.00" height="1" fill="rgba(255,139,57,1.00)"/>
    <rect x="30.00" y="22.00" width="1.00" height="1" fill="rgba(255,169,55,1.00)"/>
    <rect x="33.00" y="22.00" width="2.00" height="1" fill="rgba(255,169,55,1.00)"/>
    <rect x="2.00" y="23.00" width="1.00" height="1" fill="rgba(255,139,57,1.00)"/>
    <rect x="4.00" y="23.00" width="1.00" height="1" fill="rgba(255,139,57,1.00)"/>
    <rect x="5.00" y="23.00" width="1.00" height="1" fill="rgba(255,169,55,0.99)"/>
    <rect x="6.00" y="23.00" width="1.00" height="1" fill="rgba(255,169,55,0.98)"/>
    <rect x="7.00" y="23.00" width="1.00" height="1" fill="rgba(237,157,51,0.95)"/>
    <rect x="12.00" y="23.00" width="1.00" height="1" fill="rgba(255,139,57,0.71)"/>
    <rect x="13.00" y="23.00" width="1.00" height="1" fill="rgba(253,138,57,0.55)"/>
    <rect x="14.00" y="23.00" width="1.00" height="1" fill="rgba(255,169,55,0.39)"/>
    <rect x="15.00" y="23.00" width="1.00" height="1" fill="rgba(255,169,55,0.28)"/>
    <rect x="16.00" y="23.00" width="1.00" height="1" fill="rgba(255,169,55,0.23)"/>
    <rect x="17.00" y="23.00" width="1.00" height="1" fill="rgba(255,169,55,0.22)"/>
    <rect x="18.00" y="23.00" width="1.00" height="1" fill="rgba(255,169,55,0.24)"/>
    <rect x="19.00" y="23.00" width="1.00" height="1" fill="rgba(255,169,55,0.29)"/>
    <rect x="20.00" y="23.00" width="1.00" height="1" fill="rgba(255,169,55,0.38)"/>
    <rect x="21.00" y="23.00" width="1.00" height="1" fill="rgba(255,169,55,0.50)"/>
    <rect x="22.00" y="23.00" width="1.00" height="1" fill="rgba(255,169,55,0.66)"/>
    <rect x="23.00" y="23.00" width="1.00" height="1" fill="rgba(255,169,55,0.80)"/>
    <rect x="24.00" y="23.00" width="1.00" height="1" fill="rgba(255,139,57,0.93)"/>
    <rect x="26.00" y="23.00" width="1.00" height="1" fill="rgba(213,116,48,1.00)"/>
    <rect x="28.00" y="23.00" width="2.00" height="1" fill="rgba(255,139,57,1.00)"/>
    <rect x="32.00" y="23.00" width="3.00" height="1" fill="rgba(255,169,55,1.00)"/>
    <rect x="2.00" y="24.00" width="1.00" height="1" fill="rgba(254,139,57,1.00)"/>
    <rect x="5.00" y="24.00" width="1.00" height="1" fill="rgba(255,139,57,1.00)"/>
    <rect x="6.00" y="24.00" width="1.00" height="1" fill="rgba(255,169,55,0.99)"/>
    <rect x="7.00" y="24.00" width="1.00" height="1" fill="rgba(237,157,51,0.98)"/>
    <rect x="10.00" y="24.00" width="1.00" height="1" fill="rgba(255,139,57,0.90)"/>
    <rect x="12.00" y="24.00" width="1.00" height="1" fill="rgba(255,139,57,0.73)"/>
    <rect x="13.00" y="24.00" width="1.00" height="1" fill="rgba(252,167,54,0.57)"/>
    <rect x="14.00" y="24.00" width="1.00" height="1" fill="rgba(255,169,55,0.42)"/>
    <rect x="15.00" y="24.00" width="1.00" height="1" fill="rgba(255,169,55,0.32)"/>
    <rect x="16.00" y="24.00" width="1.00" height="1" fill="rgba(255,169,55,0.29)"/>
    <rect x="17.00" y="24.00" width="1.00" height="1" fill="rgba(255,169,55,0.31)"/>
    <rect x="18.00" y="24.00" width="1.00" height="1" fill="rgba(255,169,55,0.36)"/>
    <rect x="19.00" y="24.00" width="1.00" height="1" fill="rgba(255,169,55,0.44)"/>
    <rect x="20.00" y="24.00" width="1.00" height="1" fill="rgba(255,169,55,0.55)"/>
    <rect x="21.00" y="24.00" width="1.00" height="1" fill="rgba(255,169,55,0.67)"/>
    <rect x="22.00" y="24.00" width="1.00" height="1" fill="rgba(255,169,55,0.78)"/>
    <rect x="23.00" y="24.00" width="1.00" height="1" fill="rgba(255,169,55,0.87)"/>
    <rect x="24.00" y="24.00" width="1.00" height="1" fill="rgba(255,139,57,0.95)"/>
    <rect x="25.00" y="24.00" width="1.00" height="1" fill="rgba(254,138,57,0.99)"/>
    <rect x="28.00" y="24.00" width="1.00" height="1" fill="rgba(255,139,57,1.00)"/>
    <rect x="29.00" y="24.00" width="1.00" height="1" fill="rgba(255,169,55,1.00)"/>
    <rect x="31.00" y="24.00" width="2.00" height="1" fill="rgba(255,169,55,1.00)"/>
    <rect x="33.00" y="24.00" width="1.00" height="1" fill="rgba(239,130,53,1.00)"/>
    <rect x="5.00" y="25.00" width="1.00" height="1" fill="rgba(255,139,57,1.00)"/>
    <rect x="6.00" y="25.00" width="1.00" height="1" fill="rgba(255,169,55,1.00)"/>
    <rect x="7.00" y="25.00" width="1.00" height="1" fill="rgba(255,169,55,0.99)"/>
    <rect x="8.00" y="25.00" width="1.00" height="1" fill="rgba(255,169,55,0.98)"/>
    <rect x="12.00" y="25.00" width="1.00" height="1" fill="rgba(255,169,55,0.78)"/>
    <rect x="13.00" y="25.00" width="1.00" height="1" fill="rgba(255,169,55,0.64)"/>
    <rect x="14.00" y="25.00" width="1.00" height="1" fill="rgba(255,169,55,0.51)"/>
    <rect x="15.00" y="25.00" width="1.00" height="1" fill="rgba(255,169,55,0.43)"/>
    <rect x="16.00" y="25.00" width="1.00" height="1" fill="rgba(255,169,55,0.42)"/>
    <rect x="17.00" y="25.00" width="1.00" height="1" fill="rgba(255,169,55,0.47)"/>
    <rect x="18.00" y="25.00" width="1.00" height="1" fill="rgba(255,169,55,0.55)"/>
    <rect x="19.00" y="25.00" width="1.00" height="1" fill="rgba(255,169,55,0.63)"/>
    <rect x="20.00" y="25.00" width="1.00" height="1" fill="rgba(255,169,55,0.72)"/>
    <rect x="21.00" y="25.00" width="1.00" height="1" fill="rgba(255,169,55,0.80)"/>
    <rect x="22.00" y="25.00" width="1.00" height="1" fill="rgba(255,169,55,0.85)"/>
    <rect x="23.00" y="25.00" width="1.00" height="1" fill="rgba(255,169,55,0.92)"/>
    <rect x="24.00" y="25.00" width="1.00" height="1" fill="rgba(255,169,55,0.97)"/>
    <rect x="25.00" y="25.00" width="1.00" height="1" fill="rgba(255,139,57,0.99)"/>
    <rect x="27.00" y="25.00" width="1.00" height="1" fill="rgba(255,139,57,1.00)"/>
    <rect x="28.00" y="25.00" width="1.00" height="1" fill="rgba(255,169,55,1.00)"/>
    <rect x="31.00" y="25.00" width="1.00" height="1" fill="rgba(255,169,55,1.00)"/>
    <rect x="5.00" y="26.00" width="1.00" height="1" fill="rgba(255,139,57,1.00)"/>
    <rect x="6.00" y="26.00" width="3.00" height="1" fill="rgba(255,169,55,1.00)"/>
    <rect x="9.00" y="26.00" width="1.00" height="1" fill="rgba(255,169,55,0.99)"/>
    <rect x="10.00" y="26.00" width="1.00" height="1" fill="rgba(255,139,57,0.97)"/>
    <rect x="11.00" y="26.00" width="1.00" height="1" fill="rgba(255,169,55,0.94)"/>
    <rect x="12.00" y="26.00" width="1.00" height="1" fill="rgba(255,169,55,0.86)"/>
    <rect x="13.00" y="26.00" width="1.00" height="1" fill="rgba(255,169,55,0.75)"/>
    <rect x="14.00" y="26.00" width="1.00" height="1" fill="rgba(255,169,55,0.65)"/>
    <rect x="15.00" y="26.00" width="2.00" height="1" fill="rgba(255,169,55,0.59)"/>
    <rect x="17.00" y="26.00" width="1.00" height="1" fill="rgba(255,169,55,0.64)"/>
    <rect x="18.00" y="26.00" width="1.00" height="1" fill="rgba(255,169,55,0.71)"/>
    <rect x="19.00" y="26.00" width="1.00" height="1" fill="rgba(255,169,55,0.77)"/>
    <rect x="20.00" y="26.00" width="1.00" height="1" fill="rgba(255,169,55,0.82)"/>
    <rect x="21.00" y="26.00" width="1.00" height="1" fill="rgba(255,169,55,0.87)"/>
    <rect x="22.00" y="26.00" width="1.00" height="1" fill="rgba(255,169,55,0.89)"/>
    <rect x="23.00" y="26.00" width="1.00" height="1" fill="rgba(255,169,55,0.93)"/>
    <rect x="24.00" y="26.00" width="1.00" height="1" fill="rgba(255,169,55,0.97)"/>
    <rect x="25.00" y="26.00" width="1.00" height="1" fill="rgba(255,169,55,0.99)"/>
    <rect x="26.00" y="26.00" width="1.00" height="1" fill="rgba(255,139,57,1.00)"/>
    <rect x="27.00" y="26.00" width="1.00" height="1" fill="rgba(255,169,55,1.00)"/>
    <rect x="30.00" y="26.00" width="1.00" height="1" fill="rgba(255,169,55,1.00)"/>
    <rect x="33.00" y="26.00" width="1.00" height="1" fill="rgba(235,128,53,1.00)"/>
    <rect x="6.00" y="27.00" width="1.00" height="1" fill="rgba(255,139,57,1.00)"/>
    <rect x="7.00" y="27.00" width="3.00" height="1" fill="rgba(255,169,55,1.00)"/>
    <rect x="10.00" y="27.00" width="1.00" height="1" fill="rgba(255,139,57,1.00)"/>
    <rect x="11.00" y="27.00" width="1.00" height="1" fill="rgba(255,169,55,0.97)"/>
    <rect x="12.00" y="27.00" width="1.00" height="1" fill="rgba(255,169,55,0.92)"/>
    <rect x="13.00" y="27.00" width="1.00" height="1" fill="rgba(255,169,55,0.85)"/>
    <rect x="14.00" y="27.00" width="1.00" height="1" fill="rgba(255,169,55,0.77)"/>
    <rect x="15.00" y="27.00" width="1.00" height="1" fill="rgba(255,169,55,0.73)"/>
    <rect x="16.00" y="27.00" width="1.00" height="1" fill="rgba(255,169,55,0.74)"/>
    <rect x="17.00" y="27.00" width="1.00" height="1" fill="rgba(255,169,55,0.77)"/>
    <rect x="18.00" y="27.00" width="1.00" height="1" fill="rgba(255,169,55,0.81)"/>
    <rect x="19.00" y="27.00" width="1.00" height="1" fill="rgba(255,169,55,0.85)"/>
    <rect x="20.00" y="27.00" width="1.00" height="1" fill="rgba(255,169,55,0.88)"/>
    <rect x="21.00" y="27.00" width="1.00" height="1" fill="rgba(255,169,55,0.89)"/>
    <rect x="22.00" y="27.00" width="1.00" height="1" fill="rgba(255,169,55,0.91)"/>
    <rect x="23.00" y="27.00" width="1.00" height="1" fill="rgba(255,169,55,0.93)"/>
    <rect x="24.00" y="27.00" width="1.00" height="1" fill="rgba(255,169,55,0.97)"/>
    <rect x="25.00" y="27.00" width="1.00" height="1" fill="rgba(255,169,55,0.99)"/>
    <rect x="26.00" y="27.00" width="4.00" height="1" fill="rgba(255,169,55,1.00)"/>
    <rect x="32.00" y="27.00" width="1.00" height="1" fill="rgba(254,168,55,1.00)"/>
    <rect x="33.00" y="27.00" width="1.00" height="1" fill="rgba(249,136,56,1.00)"/>
    <rect x="1.00" y="28.00" width="1.00" height="1" fill="rgba(255,139,57,1.00)"/>
    <rect x="7.00" y="28.00" width="1.00" height="1" fill="rgba(255,139,57,1.00)"/>
    <rect x="8.00" y="28.00" width="3.00" height="1" fill="rgba(255,169,55,1.00)"/>
    <rect x="11.00" y="28.00" width="1.00" height="1" fill="rgba(255,169,55,0.99)"/>
    <rect x="12.00" y="28.00" width="1.00" height="1" fill="rgba(255,169,55,0.96)"/>
    <rect x="13.00" y="28.00" width="1.00" height="1" fill="rgba(255,169,55,0.92)"/>
    <rect x="14.00" y="28.00" width="1.00" height="1" fill="rgba(255,169,55,0.87)"/>
    <rect x="15.00" y="28.00" width="2.00" height="1" fill="rgba(255,169,55,0.83)"/>
    <rect x="17.00" y="28.00" width="1.00" height="1" fill="rgba(255,169,55,0.85)"/>
    <rect x="18.00" y="28.00" width="1.00" height="1" fill="rgba(255,169,55,0.87)"/>
    <rect x="19.00" y="28.00" width="1.00" height="1" fill="rgba(255,169,55,0.88)"/>
    <rect x="20.00" y="28.00" width="1.00" height="1" fill="rgba(255,169,55,0.89)"/>
    <rect x="21.00" y="28.00" width="1.00" height="1" fill="rgba(255,169,55,0.90)"/>
    <rect x="22.00" y="28.00" width="1.00" height="1" fill="rgba(255,169,55,0.91)"/>
    <rect x="23.00" y="28.00" width="1.00" height="1" fill="rgba(255,169,55,0.94)"/>
    <rect x="24.00" y="28.00" width="1.00" height="1" fill="rgba(255,169,55,0.98)"/>
    <rect x="25.00" y="28.00" width="1.00" height="1" fill="rgba(255,169,55,0.99)"/>
    <rect x="26.00" y="28.00" width="4.00" height="1" fill="rgba(255,169,55,1.00)"/>
    <rect x="31.00" y="28.00" width="1.00" height="1" fill="rgba(255,169,55,1.00)"/>
    <rect x="32.00" y="28.00" width="2.00" height="1" fill="rgba(255,139,57,1.00)"/>
    <rect x="2.00" y="29.00" width="1.00" height="1" fill="rgba(238,157,51,1.00)"/>
    <rect x="7.00" y="29.00" width="1.00" height="1" fill="rgba(255,139,57,1.00)"/>
    <rect x="8.00" y="29.00" width="4.00" height="1" fill="rgba(255,169,55,1.00)"/>
    <rect x="12.00" y="29.00" width="1.00" height="1" fill="rgba(255,169,55,0.99)"/>
    <rect x="13.00" y="29.00" width="1.00" height="1" fill="rgba(255,169,55,0.96)"/>
    <rect x="14.00" y="29.00" width="1.00" height="1" fill="rgba(255,169,55,0.92)"/>
    <rect x="15.00" y="29.00" width="1.00" height="1" fill="rgba(255,169,55,0.89)"/>
    <rect x="16.00" y="29.00" width="2.00" height="1" fill="rgba(255,169,55,0.88)"/>
    <rect x="18.00" y="29.00" width="2.00" height="1" fill="rgba(255,169,55,0.89)"/>
    <rect x="20.00" y="29.00" width="2.00" height="1" fill="rgba(255,169,55,0.90)"/>
    <rect x="22.00" y="29.00" width="1.00" height="1" fill="rgba(255,169,55,0.91)"/>
    <rect x="23.00" y="29.00" width="1.00" height="1" fill="rgba(255,169,55,0.95)"/>
    <rect x="24.00" y="29.00" width="1.00" height="1" fill="rgba(255,169,55,0.98)"/>
    <rect x="25.00" y="29.00" width="4.00" height="1" fill="rgba(255,169,55,1.00)"/>
    <rect x="29.00" y="29.00" width="1.00" height="1" fill="rgba(253,167,55,1.00)"/>
    <rect x="30.00" y="29.00" width="1.00" height="1" fill="rgba(255,169,55,1.00)"/>
    <rect x="31.00" y="29.00" width="1.00" height="1" fill="rgba(255,168,55,1.00)"/>
    <rect x="32.00" y="29.00" width="1.00" height="1" fill="rgba(254,139,57,1.00)"/>
    <rect x="1.00" y="30.00" width="1.00" height="1" fill="rgba(255,139,57,1.00)"/>
    <rect x="5.00" y="30.00" width="1.00" height="1" fill="rgba(253,138,57,1.00)"/>
    <rect x="8.00" y="30.00" width="1.00" height="1" fill="rgba(255,139,57,1.00)"/>
    <rect x="9.00" y="30.00" width="4.00" height="1" fill="rgba(255,169,55,1.00)"/>
    <rect x="13.00" y="30.00" width="1.00" height="1" fill="rgba(255,169,55,0.98)"/>
    <rect x="14.00" y="30.00" width="1.00" height="1" fill="rgba(255,169,55,0.95)"/>
    <rect x="15.00" y="30.00" width="1.00" height="1" fill="rgba(255,169,55,0.92)"/>
    <rect x="16.00" y="30.00" width="1.00" height="1" fill="rgba(255,169,55,0.90)"/>
    <rect x="17.00" y="30.00" width="1.00" height="1" fill="rgba(255,169,55,0.89)"/>
    <rect x="18.00" y="30.00" width="2.00" height="1" fill="rgba(255,169,55,0.90)"/>
    <rect x="20.00" y="30.00" width="1.00" height="1" fill="rgba(255,169,55,0.89)"/>
    <rect x="21.00" y="30.00" width="1.00" height="1" fill="rgba(255,169,55,0.90)"/>
    <rect x="22.00" y="30.00" width="1.00" height="1" fill="rgba(255,169,55,0.92)"/>
    <rect x="23.00" y="30.00" width="1.00" height="1" fill="rgba(255,169,55,0.95)"/>
    <rect x="24.00" y="30.00" width="1.00" height="1" fill="rgba(255,169,55,0.98)"/>
    <rect x="25.00" y="30.00" width="1.00" height="1" fill="rgba(255,169,55,0.99)"/>
    <rect x="26.00" y="30.00" width="2.00" height="1" fill="rgba(255,169,55,1.00)"/>
    <rect x="28.00" y="30.00" width="1.00" height="1" fill="rgba(253,167,55,1.00)"/>
    <rect x="34.00" y="30.00" width="1.00" height="1" fill="rgba(254,139,57,1.00)"/>
    <rect x="1.00" y="31.00" width="1.00" height="1" fill="rgba(255,139,57,1.00)"/>
    <rect x="8.00" y="31.00" width="2.00" height="1" fill="rgba(255,139,57,1.00)"/>
    <rect x="10.00" y="31.00" width="1.00" height="1" fill="rgba(255,164,55,1.00)"/>
    <rect x="11.00" y="31.00" width="2.00" height="1" fill="rgba(255,169,55,1.00)"/>
    <rect x="13.00" y="31.00" width="1.00" height="1" fill="rgba(255,169,55,0.99)"/>
    <rect x="14.00" y="31.00" width="1.00" height="1" fill="rgba(255,169,55,0.98)"/>
    <rect x="15.00" y="31.00" width="1.00" height="1" fill="rgba(255,169,55,0.95)"/>
    <rect x="16.00" y="31.00" width="1.00" height="1" fill="rgba(255,169,55,0.92)"/>
    <rect x="17.00" y="31.00" width="1.00" height="1" fill="rgba(255,169,55,0.91)"/>
    <rect x="18.00" y="31.00" width="2.00" height="1" fill="rgba(255,169,55,0.90)"/>
    <rect x="20.00" y="31.00" width="1.00" height="1" fill="rgba(255,169,55,0.89)"/>
    <rect x="21.00" y="31.00" width="1.00" height="1" fill="rgba(255,169,55,0.90)"/>
    <rect x="22.00" y="31.00" width="1.00" height="1" fill="rgba(255,169,55,0.93)"/>
    <rect x="23.00" y="31.00" width="1.00" height="1" fill="rgba(255,169,55,0.95)"/>
    <rect x="24.00" y="31.00" width="1.00" height="1" fill="rgba(255,169,55,0.98)"/>
    <rect x="25.00" y="31.00" width="1.00" height="1" fill="rgba(255,169,55,0.99)"/>
    <rect x="26.00" y="31.00" width="1.00" height="1" fill="rgba(255,169,55,1.00)"/>
    <rect x="27.00" y="31.00" width="2.00" height="1" fill="rgba(255,139,57,1.00)"/>
    <rect x="32.00" y="31.00" width="1.00" height="1" fill="rgba(254,139,57,1.00)"/>
    <rect x="0.00" y="32.00" width="1.00" height="1" fill="rgba(255,139,57,1.00)"/>
    <rect x="1.00" y="32.00" width="1.00" height="1" fill="rgba(255,169,55,1.00)"/>
    <rect x="5.00" y="32.00" width="1.00" height="1" fill="rgba(255,139,57,1.00)"/>
    <rect x="9.00" y="32.00" width="1.00" height="1" fill="rgba(255,139,57,1.00)"/>
    <rect x="10.00" y="32.00" width="1.00" height="1" fill="rgba(255,164,55,1.00)"/>
    <rect x="11.00" y="32.00" width="3.00" height="1" fill="rgba(255,169,55,1.00)"/>
    <rect x="14.00" y="32.00" width="1.00" height="1" fill="rgba(255,169,55,0.99)"/>
    <rect x="15.00" y="32.00" width="1.00" height="1" fill="rgba(255,169,55,0.97)"/>
    <rect x="16.00" y="32.00" width="1.00" height="1" fill="rgba(255,169,55,0.95)"/>
    <rect x="17.00" y="32.00" width="1.00" height="1" fill="rgba(255,169,55,0.93)"/>
    <rect x="18.00" y="32.00" width="1.00" height="1" fill="rgba(255,169,55,0.91)"/>
    <rect x="19.00" y="32.00" width="2.00" height="1" fill="rgba(255,169,55,0.90)"/>
    <rect x="21.00" y="32.00" width="1.00" height="1" fill="rgba(255,169,55,0.89)"/>
    <rect x="22.00" y="32.00" width="1.00" height="1" fill="rgba(255,169,55,0.91)"/>
    <rect x="23.00" y="32.00" width="1.00" height="1" fill="rgba(255,169,55,0.92)"/>
    <rect x="24.00" y="32.00" width="1.00" height="1" fill="rgba(255,169,55,0.95)"/>
    <rect x="25.00" y="32.00" width="1.00" height="1" fill="rgba(255,169,55,0.97)"/>
    <rect x="26.00" y="32.00" width="1.00" height="1" fill="rgba(255,169,55,0.98)"/>
    <rect x="27.00" y="32.00" width="2.00" height="1" fill="rgba(255,139,57,1.00)"/>
    <rect x="33.00" y="32.00" width="1.00" height="1" fill="rgba(253,138,57,1.00)"/>
    <rect x="0.00" y="33.00" width="1.00" height="1" fill="rgba(255,139,57,1.00)"/>
    <rect x="1.00" y="33.00" width="1.00" height="1" fill="rgba(255,169,55,1.00)"/>
    <rect x="4.00" y="33.00" width="1.00" height="1" fill="rgba(255,139,57,1.00)"/>
    <rect x="9.00" y="33.00" width="2.00" height="1" fill="rgba(255,139,57,1.00)"/>
    <rect x="11.00" y="33.00" width="4.00" height="1" fill="rgba(255,169,55,1.00)"/>
    <rect x="15.00" y="33.00" width="1.00" height="1" fill="rgba(255,169,55,0.99)"/>
    <rect x="16.00" y="33.00" width="1.00" height="1" fill="rgba(255,169,55,0.98)"/>
    <rect x="17.00" y="33.00" width="1.00" height="1" fill="rgba(255,169,55,0.96)"/>
    <rect x="18.00" y="33.00" width="1.00" height="1" fill="rgba(255,169,55,0.93)"/>
    <rect x="19.00" y="33.00" width="1.00" height="1" fill="rgba(255,169,55,0.91)"/>
    <rect x="20.00" y="33.00" width="1.00" height="1" fill="rgba(255,169,55,0.88)"/>
    <rect x="21.00" y="33.00" width="1.00" height="1" fill="rgba(255,169,55,0.85)"/>
    <rect x="22.00" y="33.00" width="1.00" height="1" fill="rgba(255,169,55,0.84)"/>
    <rect x="23.00" y="33.00" width="1.00" height="1" fill="rgba(255,169,55,0.85)"/>
    <rect x="24.00" y="33.00" width="1.00" height="1" fill="rgba(255,169,55,0.89)"/>
    <rect x="25.00" y="33.00" width="1.00" height="1" fill="rgba(255,169,55,0.93)"/>
    <rect x="26.00" y="33.00" width="1.00" height="1" fill="rgba(255,139,57,0.96)"/>
    <rect x="27.00" y="33.00" width="1.00" height="1" fill="rgba(255,139,57,0.98)"/>
    <rect x="28.00" y="33.00" width="1.00" height="1" fill="rgba(255,139,57,1.00)"/>
    <rect x="31.00" y="33.00" width="1.00" height="1" fill="rgba(255,139,57,1.00)"/>
    <rect x="32.00" y="33.00" width="1.00" height="1" fill="rgba(255,169,55,1.00)"/>
    <rect x="33.00" y="33.00" width="1.00" height="1" fill="rgba(255,139,57,1.00)"/>
    <rect x="35.00" y="33.00" width="1.00" height="1" fill="rgba(255,139,57,1.00)"/>
    <rect x="0.00" y="34.00" width="1.00" height="1" fill="rgba(255,139,57,1.00)"/>
    <rect x="5.00" y="34.00" width="2.00" height="1" fill="rgba(255,139,57,1.00)"/>
    <rect x="8.00" y="34.00" width="1.00" height="1" fill="rgba(255,169,55,1.00)"/>
    <rect x="9.00" y="34.00" width="2.00" height="1" fill="rgba(255,139,57,1.00)"/>
    <rect x="11.00" y="34.00" width="5.00" height="1" fill="rgba(255,169,55,1.00)"/>
    <rect x="16.00" y="34.00" width="1.00" height="1" fill="rgba(255,169,55,0.99)"/>
    <rect x="17.00" y="34.00" width="1.00" height="1" fill="rgba(255,169,55,0.98)"/>
    <rect x="18.00" y="34.00" width="1.00" height="1" fill="rgba(255,169,55,0.94)"/>
    <rect x="19.00" y="34.00" width="1.00" height="1" fill="rgba(255,169,55,0.89)"/>
    <rect x="20.00" y="34.00" width="1.00" height="1" fill="rgba(255,169,55,0.83)"/>
    <rect x="21.00" y="34.00" width="1.00" height="1" fill="rgba(255,169,55,0.76)"/>
    <rect x="22.00" y="34.00" width="1.00" height="1" fill="rgba(255,169,55,0.72)"/>
    <rect x="23.00" y="34.00" width="1.00" height="1" fill="rgba(255,169,55,0.73)"/>
    <rect x="24.00" y="34.00" width="1.00" height="1" fill="rgba(255,169,55,0.79)"/>
    <rect x="25.00" y="34.00" width="1.00" height="1" fill="rgba(255,169,55,0.87)"/>
    <rect x="26.00" y="34.00" width="1.00" height="1" fill="rgba(255,169,55,0.93)"/>
    <rect x="27.00" y="34.00" width="1.00" height="1" fill="rgba(255,139,57,0.97)"/>
    <rect x="30.00" y="34.00" width="1.00" height="1" fill="rgba(255,139,57,1.00)"/>
    <rect x="31.00" y="34.00" width="1.00" height="1" fill="rgba(255,169,55,1.00)"/>
    <rect x="32.00" y="34.00" width="1.00" height="1" fill="rgba(255,139,57,1.00)"/>
    <rect x="0.00" y="35.00" width="1.00" height="1" fill="rgba(255,140,57,1.00)"/>
    <rect x="1.00" y="35.00" width="1.00" height="1" fill="rgba(255,169,55,1.00)"/>
    <rect x="3.00" y="35.00" width="1.00" height="1" fill="rgba(255,139,57,1.00)"/>
    <rect x="4.00" y="35.00" width="1.00" height="1" fill="rgba(255,169,55,1.00)"/>
    <rect x="5.00" y="35.00" width="2.00" height="1" fill="rgba(255,139,57,1.00)"/>
    <rect x="7.00" y="35.00" width="1.00" height="1" fill="rgba(255,169,55,1.00)"/>
    <rect x="8.00" y="35.00" width="3.00" height="1" fill="rgba(255,139,57,1.00)"/>
    <rect x="11.00" y="35.00" width="6.00" height="1" fill="rgba(255,169,55,1.00)"/>
    <rect x="17.00" y="35.00" width="1.00" height="1" fill="rgba(255,169,55,0.98)"/>
    <rect x="18.00" y="35.00" width="1.00" height="1" fill="rgba(255,169,55,0.94)"/>
    <rect x="19.00" y="35.00" width="1.00" height="1" fill="rgba(255,169,55,0.87)"/>
    <rect x="20.00" y="35.00" width="1.00" height="1" fill="rgba(255,169,55,0.76)"/>
    <rect x="21.00" y="35.00" width="1.00" height="1" fill="rgba(255,169,55,0.65)"/>
    <rect x="22.00" y="35.00" width="1.00" height="1" fill="rgba(255,169,55,0.59)"/>
    <rect x="23.00" y="35.00" width="1.00" height="1" fill="rgba(255,169,55,0.60)"/>
    <rect x="24.00" y="35.00" width="1.00" height="1" fill="rgba(255,169,55,0.69)"/>
    <rect x="25.00" y="35.00" width="1.00" height="1" fill="rgba(255,169,55,0.80)"/>
    <rect x="26.00" y="35.00" width="1.00" height="1" fill="rgba(255,169,55,0.90)"/>
    <rect x="27.00" y="35.00" width="1.00" height="1" fill="rgba(255,169,55,0.96)"/>
    <rect x="28.00" y="35.00" width="1.00" height="1" fill="rgba(255,169,55,0.98)"/>
    <rect x="30.00" y="35.00" width="1.00" height="1" fill="rgba(255,169,55,1.00)"/>
    <rect x="31.00" y="35.00" width="2.00" height="1" fill="rgba(255,139,57,1.00)"/>
    <rect x="35.00" y="35.00" width="1.00" height="1" fill="rgba(245,134,55,1.00)"/>
    <rect x="0.00" y="36.00" width="1.00" height="1" fill="rgba(255,169,55,1.00)"/>
    <rect x="1.00" y="36.00" width="1.00" height="1" fill="rgba(255,140,57,1.00)"/>
    <rect x="2.00" y="36.00" width="1.00" height="1" fill="rgba(255,139,57,1.00)"/>
    <rect x="3.00" y="36.00" width="2.00" height="1" fill="rgba(255,169,55,1.00)"/>
    <rect x="5.00" y="36.00" width="2.00" height="1" fill="rgba(255,139,57,1.00)"/>
    <rect x="7.00" y="36.00" width="10.00" height="1" fill="rgba(255,169,55,1.00)"/>
    <rect x="17.00" y="36.00" width="1.00" height="1" fill="rgba(255,169,55,0.98)"/>
    <rect x="18.00" y="36.00" width="1.00" height="1" fill="rgba(255,169,55,0.93)"/>
    <rect x="19.00" y="36.00" width="1.00" height="1" fill="rgba(255,169,55,0.85)"/>
    <rect x="20.00" y="36.00" width="1.00" height="1" fill="rgba(255,169,55,0.72)"/>
    <rect x="21.00" y="36.00" width="1.00" height="1" fill="rgba(255,169,55,0.58)"/>
    <rect x="22.00" y="36.00" width="1.00" height="1" fill="rgba(255,169,55,0.50)"/>
    <rect x="23.00" y="36.00" width="1.00" height="1" fill="rgba(255,169,55,0.52)"/>
    <rect x="24.00" y="36.00" width="1.00" height="1" fill="rgba(255,169,55,0.62)"/>
    <rect x="25.00" y="36.00" width="1.00" height="1" fill="rgba(255,169,55,0.76)"/>
    <rect x="26.00" y="36.00" width="1.00" height="1" fill="rgba(255,169,55,0.88)"/>
    <rect x="27.00" y="36.00" width="1.00" height="1" fill="rgba(255,169,55,0.95)"/>
    <rect x="28.00" y="36.00" width="1.00" height="1" fill="rgba(255,169,55,0.98)"/>
    <rect x="29.00" y="36.00" width="1.00" height="1" fill="rgba(255,169,55,1.00)"/>
    <rect x="30.00" y="36.00" width="2.00" height="1" fill="rgba(255,168,55,1.00)"/>
    <rect x="32.00" y="36.00" width="2.00" height="1" fill="rgba(255,139,57,1.00)"/>
    <rect x="35.00" y="36.00" width="1.00" height="1" fill="rgba(255,169,55,1.00)"/>
  </g>
</svg>