<?xml version="1.0" encoding="UTF-8"?>
<!-- Generated from: Zero_Pizza_Day.png -->
<!-- Dimensions: 37x37 pixels (491 merged rects) -->
<!-- Rect size: 1 -->
<svg xmlns="http://www.w3.org/2000/svg" width="37" height="37" viewBox="0 0 37 37">
  <style>
    rect { shape-rendering: crispEdges; }
    svg { image-rendering: pixelated; image-rendering: -moz-crisp-edges; image-rendering: crisp-edges; }
  </style>
  <g id="pixels">
    <rect x="2.00" y="0.00" width="35.00" height="1" fill="rgba(154,154,154,0.02)"/>
    <rect x="2.00" y="1.00" width="35.00" height="1" fill="rgba(154,154,154,0.02)"/>
    <rect x="2.00" y="2.00" width="35.00" height="1" fill="rgba(154,154,154,0.02)"/>
    <rect x="2.00" y="3.00" width="35.00" height="1" fill="rgba(154,154,154,0.02)"/>
    <rect x="2.00" y="4.00" width="35.00" height="1" fill="rgba(154,154,154,0.02)"/>
    <rect x="2.00" y="5.00" width="35.00" height="1" fill="rgba(154,154,154,0.02)"/>
    <rect x="2.00" y="6.00" width="12.00" height="1" fill="rgba(154,154,154,0.02)"/>
    <rect x="14.00" y="6.00" width="9.00" height="1" fill="rgba(6,6,6,0.02)"/>
    <rect x="23.00" y="6.00" width="14.00" height="1" fill="rgba(154,154,154,0.02)"/>
    <rect x="2.00" y="7.00" width="11.00" height="1" fill="rgba(154,154,154,0.02)"/>
    <rect x="13.00" y="7.00" width="1.00" height="1" fill="rgba(6,6,6,0.02)"/>
    <rect x="14.00" y="7.00" width="1.00" height="1" fill="rgba(161,98,63,0.02)"/>
    <rect x="15.00" y="7.00" width="1.00" height="1" fill="rgba(234,179,127,0.02)"/>
    <rect x="16.00" y="7.00" width="1.00" height="1" fill="rgba(241,194,140,0.02)"/>
    <rect x="17.00" y="7.00" width="1.00" height="1" fill="rgba(243,202,147,0.02)"/>
    <rect x="18.00" y="7.00" width="1.00" height="1" fill="rgba(242,199,145,0.02)"/>
    <rect x="19.00" y="7.00" width="2.00" height="1" fill="rgba(241,198,144,0.02)"/>
    <rect x="21.00" y="7.00" width="1.00" height="1" fill="rgba(242,200,144,0.02)"/>
    <rect x="22.00" y="7.00" width="1.00" height="1" fill="rgba(228,179,126,0.02)"/>
    <rect x="23.00" y="7.00" width="1.00" height="1" fill="rgba(6,6,6,0.02)"/>
    <rect x="24.00" y="7.00" width="13.00" height="1" fill="rgba(154,154,154,0.02)"/>
    <rect x="2.00" y="8.00" width="10.00" height="1" fill="rgba(154,154,154,0.02)"/>
    <rect x="12.00" y="8.00" width="1.00" height="1" fill="rgba(6,6,6,0.02)"/>
    <rect x="13.00" y="8.00" width="1.00" height="1" fill="rgba(125,67,33,0.02)"/>
    <rect x="14.00" y="8.00" width="1.00" height="1" fill="rgba(229,166,120,0.02)"/>
    <rect x="15.00" y="8.00" width="1.00" height="1" fill="rgba(250,202,152,0.02)"/>
    <rect x="16.00" y="8.00" width="1.00" height="1" fill="rgba(250,216,164,0.02)"/>
    <rect x="17.00" y="8.00" width="1.00" height="1" fill="rgba(253,233,189,0.02)"/>
    <rect x="18.00" y="8.00" width="1.00" height="1" fill="rgba(250,232,183,0.02)"/>
    <rect x="19.00" y="8.00" width="1.00" height="1" fill="rgba(250,232,182,0.02)"/>
    <rect x="20.00" y="8.00" width="1.00" height="1" fill="rgba(252,234,187,0.02)"/>
    <rect x="21.00" y="8.00" width="1.00" height="1" fill="rgba(252,229,183,0.02)"/>
    <rect x="22.00" y="8.00" width="1.00" height="1" fill="rgba(252,224,172,0.02)"/>
    <rect x="23.00" y="8.00" width="1.00" height="1" fill="rgba(238,180,130,0.02)"/>
    <rect x="24.00" y="8.00" width="1.00" height="1" fill="rgba(6,6,6,0.02)"/>
    <rect x="25.00" y="8.00" width="12.00" height="1" fill="rgba(154,154,154,0.02)"/>
    <rect x="2.00" y="9.00" width="10.00" height="1" fill="rgba(154,154,154,0.02)"/>
    <rect x="12.00" y="9.00" width="1.00" height="1" fill="rgba(6,6,6,0.02)"/>
    <rect x="13.00" y="9.00" width="1.00" height="1" fill="rgba(150,89,54,0.02)"/>
    <rect x="14.00" y="9.00" width="1.00" height="1" fill="rgba(237,173,126,0.02)"/>
    <rect x="15.00" y="9.00" width="1.00" height="1" fill="rgba(249,197,148,0.02)"/>
    <rect x="16.00" y="9.00" width="1.00" height="1" fill="rgba(255,227,185,0.02)"/>
    <rect x="17.00" y="9.00" width="1.00" height="1" fill="rgba(255,230,188,0.02)"/>
    <rect x="18.00" y="9.00" width="1.00" height="1" fill="rgba(255,237,198,0.02)"/>
    <rect x="19.00" y="9.00" width="1.00" height="1" fill="rgba(255,240,203,0.02)"/>
    <rect x="20.00" y="9.00" width="1.00" height="1" fill="rgba(255,229,193,0.02)"/>
    <rect x="21.00" y="9.00" width="1.00" height="1" fill="rgba(255,228,189,0.02)"/>
    <rect x="22.00" y="9.00" width="1.00" height="1" fill="rgba(255,226,184,0.02)"/>
    <rect x="23.00" y="9.00" width="1.00" height="1" fill="rgba(245,192,140,0.02)"/>
    <rect x="24.00" y="9.00" width="1.00" height="1" fill="rgba(6,6,6,0.02)"/>
    <rect x="25.00" y="9.00" width="12.00" height="1" fill="rgba(154,154,154,0.02)"/>
    <rect x="2.00" y="10.00" width="10.00" height="1" fill="rgba(154,154,154,0.02)"/>
    <rect x="12.00" y="10.00" width="1.00" height="1" fill="rgba(6,6,6,0.02)"/>
    <rect x="13.00" y="10.00" width="1.00" height="1" fill="rgba(149,89,54,0.02)"/>
    <rect x="14.00" y="10.00" width="1.00" height="1" fill="rgba(233,169,122,0.02)"/>
    <rect x="15.00" y="10.00" width="1.00" height="1" fill="rgba(250,194,147,0.02)"/>
    <rect x="16.00" y="10.00" width="1.00" height="1" fill="rgba(254,226,183,0.02)"/>
    <rect x="17.00" y="10.00" width="2.00" height="1" fill="rgba(255,232,189,0.02)"/>
    <rect x="19.00" y="10.00" width="1.00" height="1" fill="rgba(255,234,192,0.02)"/>
    <rect x="20.00" y="10.00" width="1.00" height="1" fill="rgba(255,232,190,0.02)"/>
    <rect x="21.00" y="10.00" width="1.00" height="1" fill="rgba(255,220,178,0.02)"/>
    <rect x="22.00" y="10.00" width="1.00" height="1" fill="rgba(255,221,179,0.02)"/>
    <rect x="23.00" y="10.00" width="1.00" height="1" fill="rgba(240,188,136,0.02)"/>
    <rect x="24.00" y="10.00" width="1.00" height="1" fill="rgba(6,6,6,0.02)"/>
    <rect x="25.00" y="10.00" width="12.00" height="1" fill="rgba(154,154,154,0.02)"/>
    <rect x="2.00" y="11.00" width="10.00" height="1" fill="rgba(154,154,154,0.02)"/>
    <rect x="12.00" y="11.00" width="1.00" height="1" fill="rgba(6,6,6,0.02)"/>
    <rect x="13.00" y="11.00" width="1.00" height="1" fill="rgba(145,87,51,0.02)"/>
    <rect x="14.00" y="11.00" width="1.00" height="1" fill="rgba(232,166,121,0.02)"/>
    <rect x="15.00" y="11.00" width="1.00" height="1" fill="rgba(248,186,139,0.02)"/>
    <rect x="16.00" y="11.00" width="1.00" height="1" fill="rgba(254,213,168,0.02)"/>
    <rect x="17.00" y="11.00" width="1.00" height="1" fill="rgba(255,237,196,0.02)"/>
    <rect x="18.00" y="11.00" width="2.00" height="1" fill="rgba(255,238,197,0.02)"/>
    <rect x="20.00" y="11.00" width="1.00" height="1" fill="rgba(255,234,192,0.02)"/>
    <rect x="21.00" y="11.00" width="1.00" height="1" fill="rgba(255,223,180,0.02)"/>
    <rect x="22.00" y="11.00" width="1.00" height="1" fill="rgba(255,230,187,0.02)"/>
    <rect x="23.00" y="11.00" width="1.00" height="1" fill="rgba(244,192,141,0.02)"/>
    <rect x="24.00" y="11.00" width="1.00" height="1" fill="rgba(6,6,6,0.02)"/>
    <rect x="25.00" y="11.00" width="12.00" height="1" fill="rgba(154,154,154,0.02)"/>
    <rect x="2.00" y="12.00" width="10.00" height="1" fill="rgba(154,154,154,0.02)"/>
    <rect x="12.00" y="12.00" width="1.00" height="1" fill="rgba(6,6,6,0.02)"/>
    <rect x="13.00" y="12.00" width="1.00" height="1" fill="rgba(135,75,44,0.02)"/>
    <rect x="14.00" y="12.00" width="1.00" height="1" fill="rgba(229,166,120,0.02)"/>
    <rect x="15.00" y="12.00" width="1.00" height="1" fill="rgba(247,187,139,0.02)"/>
    <rect x="16.00" y="12.00" width="1.00" height="1" fill="rgba(249,193,142,0.02)"/>
    <rect x="17.00" y="12.00" width="1.00" height="1" fill="rgba(240,185,137,0.02)"/>
    <rect x="18.00" y="12.00" width="1.00" height="1" fill="rgba(243,188,142,0.02)"/>
    <rect x="19.00" y="12.00" width="1.00" height="1" fill="rgba(242,185,142,0.02)"/>
    <rect x="20.00" y="12.00" width="1.00" height="1" fill="rgba(251,209,161,0.02)"/>
    <rect x="21.00" y="12.00" width="1.00" height="1" fill="rgba(252,215,171,0.02)"/>
    <rect x="22.00" y="12.00" width="1.00" height="1" fill="rgba(248,206,158,0.02)"/>
    <rect x="23.00" y="12.00" width="1.00" height="1" fill="rgba(245,188,141,0.02)"/>
    <rect x="24.00" y="12.00" width="1.00" height="1" fill="rgba(6,6,6,0.02)"/>
    <rect x="25.00" y="12.00" width="12.00" height="1" fill="rgba(154,154,154,0.02)"/>
    <rect x="2.00" y="13.00" width="10.00" height="1" fill="rgba(154,154,154,0.02)"/>
    <rect x="12.00" y="13.00" width="2.00" height="1" fill="rgba(6,6,6,0.02)"/>
    <rect x="14.00" y="13.00" width="1.00" height="1" fill="rgba(226,164,119,0.02)"/>
    <rect x="15.00" y="13.00" width="1.00" height="1" fill="rgba(250,192,142,0.02)"/>
    <rect x="16.00" y="13.00" width="1.00" height="1" fill="rgba(220,160,115,0.02)"/>
    <rect x="17.00" y="13.00" width="1.00" height="1" fill="rgba(128,75,43,0.02)"/>
    <rect x="18.00" y="13.00" width="1.00" height="1" fill="rgba(135,79,50,0.02)"/>
    <rect x="19.00" y="13.00" width="1.00" height="1" fill="rgba(171,113,80,0.02)"/>
    <rect x="20.00" y="13.00" width="1.00" height="1" fill="rgba(212,153,109,0.02)"/>
    <rect x="21.00" y="13.00" width="1.00" height="1" fill="rgba(217,165,118,0.02)"/>
    <rect x="22.00" y="13.00" width="1.00" height="1" fill="rgba(128,75,43,0.02)"/>
    <rect x="23.00" y="13.00" width="1.00" height="1" fill="rgba(135,79,50,0.02)"/>
    <rect x="24.00" y="13.00" width="1.00" height="1" fill="rgba(6,6,6,0.02)"/>
    <rect x="25.00" y="13.00" width="12.00" height="1" fill="rgba(154,154,154,0.02)"/>
    <rect x="2.00" y="14.00" width="9.00" height="1" fill="rgba(154,154,154,0.02)"/>
    <rect x="11.00" y="14.00" width="1.00" height="1" fill="rgba(6,6,6,0.02)"/>
    <rect x="12.00" y="14.00" width="1.00" height="1" fill="rgba(167,109,71,0.02)"/>
    <rect x="13.00" y="14.00" width="1.00" height="1" fill="rgba(197,135,96,0.02)"/>
    <rect x="14.00" y="14.00" width="1.00" height="1" fill="rgba(225,163,118,0.02)"/>
    <rect x="15.00" y="14.00" width="1.00" height="1" fill="rgba(249,188,139,0.02)"/>
    <rect x="16.00" y="14.00" width="1.00" height="1" fill="rgba(234,189,135,0.02)"/>
    <rect x="17.00" y="14.00" width="1.00" height="1" fill="rgba(6,6,6,0.02)"/>
    <rect x="18.00" y="14.00" width="1.00" height="1" fill="rgba(255,255,255,0.02)"/>
    <rect x="19.00" y="14.00" width="1.00" height="1" fill="rgba(226,175,132,0.02)"/>
    <rect x="20.00" y="14.00" width="1.00" height="1" fill="rgba(237,184,137,0.02)"/>
    <rect x="21.00" y="14.00" width="1.00" height="1" fill="rgba(227,182,133,0.02)"/>
    <rect x="22.00" y="14.00" width="1.00" height="1" fill="rgba(6,6,6,0.02)"/>
    <rect x="23.00" y="14.00" width="1.00" height="1" fill="rgba(255,255,255,0.02)"/>
    <rect x="24.00" y="14.00" width="1.00" height="1" fill="rgba(6,6,6,0.02)"/>
    <rect x="25.00" y="14.00" width="12.00" height="1" fill="rgba(154,154,154,0.02)"/>
    <rect x="2.00" y="15.00" width="9.00" height="1" fill="rgba(154,154,154,0.02)"/>
    <rect x="11.00" y="15.00" width="1.00" height="1" fill="rgba(6,6,6,0.02)"/>
    <rect x="12.00" y="15.00" width="1.00" height="1" fill="rgba(201,136,97,0.02)"/>
    <rect x="13.00" y="15.00" width="1.00" height="1" fill="rgba(186,119,85,0.02)"/>
    <rect x="14.00" y="15.00" width="1.00" height="1" fill="rgba(219,150,109,0.02)"/>
    <rect x="15.00" y="15.00" width="1.00" height="1" fill="rgba(241,181,132,0.02)"/>
    <rect x="16.00" y="15.00" width="1.00" height="1" fill="rgba(255,232,189,0.02)"/>
    <rect x="17.00" y="15.00" width="1.00" height="1" fill="rgba(254,240,201,0.02)"/>
    <rect x="18.00" y="15.00" width="1.00" height="1" fill="rgba(251,233,185,0.02)"/>
    <rect x="19.00" y="15.00" width="1.00" height="1" fill="rgba(255,220,179,0.02)"/>
    <rect x="20.00" y="15.00" width="1.00" height="1" fill="rgba(245,198,151,0.02)"/>
    <rect x="21.00" y="15.00" width="1.00" height="1" fill="rgba(249,204,156,0.02)"/>
    <rect x="22.00" y="15.00" width="1.00" height="1" fill="rgba(254,230,189,0.02)"/>
    <rect x="23.00" y="15.00" width="1.00" height="1" fill="rgba(247,212,161,0.02)"/>
    <rect x="24.00" y="15.00" width="1.00" height="1" fill="rgba(6,6,6,0.02)"/>
    <rect x="25.00" y="15.00" width="12.00" height="1" fill="rgba(154,154,154,0.02)"/>
    <rect x="2.00" y="16.00" width="9.00" height="1" fill="rgba(154,154,154,0.02)"/>
    <rect x="11.00" y="16.00" width="1.00" height="1" fill="rgba(6,6,6,0.02)"/>
    <rect x="12.00" y="16.00" width="1.00" height="1" fill="rgba(170,108,69,0.02)"/>
    <rect x="13.00" y="16.00" width="1.00" height="1" fill="rgba(184,116,83,0.02)"/>
    <rect x="14.00" y="16.00" width="1.00" height="1" fill="rgba(203,135,98,0.02)"/>
    <rect x="15.00" y="16.00" width="1.00" height="1" fill="rgba(222,159,117,0.02)"/>
    <rect x="16.00" y="16.00" width="1.00" height="1" fill="rgba(250,194,148,0.02)"/>
    <rect x="17.00" y="16.00" width="1.00" height="1" fill="rgba(255,234,193,0.02)"/>
    <rect x="18.00" y="16.00" width="1.00" height="1" fill="rgba(255,239,197,0.02)"/>
    <rect x="19.00" y="16.00" width="1.00" height="1" fill="rgba(250,214,165,0.02)"/>
    <rect x="20.00" y="16.00" width="1.00" height="1" fill="rgba(6,6,6,0.02)"/>
    <rect x="21.00" y="16.00" width="1.00" height="1" fill="rgba(249,198,152,0.02)"/>
    <rect x="22.00" y="16.00" width="1.00" height="1" fill="rgba(239,187,139,0.02)"/>
    <rect x="23.00" y="16.00" width="1.00" height="1" fill="rgba(226,175,125,0.02)"/>
    <rect x="24.00" y="16.00" width="1.00" height="1" fill="rgba(6,6,6,0.02)"/>
    <rect x="25.00" y="16.00" width="12.00" height="1" fill="rgba(154,154,154,0.02)"/>
    <rect x="2.00" y="17.00" width="10.00" height="1" fill="rgba(154,154,154,0.02)"/>
    <rect x="12.00" y="17.00" width="2.00" height="1" fill="rgba(6,6,6,0.02)"/>
    <rect x="14.00" y="17.00" width="1.00" height="1" fill="rgba(195,127,92,0.02)"/>
    <rect x="15.00" y="17.00" width="1.00" height="1" fill="rgba(200,130,94,0.02)"/>
    <rect x="16.00" y="17.00" width="1.00" height="1" fill="rgba(232,169,123,0.02)"/>
    <rect x="17.00" y="17.00" width="1.00" height="1" fill="rgba(251,199,151,0.02)"/>
    <rect x="18.00" y="17.00" width="1.00" height="1" fill="rgba(255,232,187,0.02)"/>
    <rect x="19.00" y="17.00" width="1.00" height="1" fill="rgba(252,227,181,0.02)"/>
    <rect x="20.00" y="17.00" width="2.00" height="1" fill="rgba(6,6,6,0.02)"/>
    <rect x="22.00" y="17.00" width="1.00" height="1" fill="rgba(202,147,105,0.02)"/>
    <rect x="23.00" y="17.00" width="1.00" height="1" fill="rgba(227,168,120,0.02)"/>
    <rect x="24.00" y="17.00" width="1.00" height="1" fill="rgba(6,6,6,0.02)"/>
    <rect x="25.00" y="17.00" width="7.00" height="1" fill="rgba(154,154,154,0.02)"/>
    <rect x="32.00" y="17.00" width="1.00" height="1" fill="rgba(128,75,31,1.00)"/>
    <rect x="33.00" y="17.00" width="1.00" height="1" fill="rgba(186,135,19,1.00)"/>
    <rect x="34.00" y="17.00" width="3.00" height="1" fill="rgba(154,154,154,0.02)"/>
    <rect x="2.00" y="18.00" width="11.00" height="1" fill="rgba(154,154,154,0.02)"/>
    <rect x="13.00" y="18.00" width="1.00" height="1" fill="rgba(6,6,6,0.02)"/>
    <rect x="14.00" y="18.00" width="1.00" height="1" fill="rgba(162,97,67,0.02)"/>
    <rect x="15.00" y="18.00" width="1.00" height="1" fill="rgba(203,132,98,0.02)"/>
    <rect x="16.00" y="18.00" width="1.00" height="1" fill="rgba(219,150,109,0.02)"/>
    <rect x="17.00" y="18.00" width="1.00" height="1" fill="rgba(244,185,136,0.02)"/>
    <rect x="18.00" y="18.00" width="1.00" height="1" fill="rgba(255,216,170,0.02)"/>
    <rect x="19.00" y="18.00" width="1.00" height="1" fill="rgba(255,239,196,0.02)"/>
    <rect x="20.00" y="18.00" width="1.00" height="1" fill="rgba(250,212,161,0.02)"/>
    <rect x="21.00" y="18.00" width="1.00" height="1" fill="rgba(242,190,138,0.02)"/>
    <rect x="22.00" y="18.00" width="1.00" height="1" fill="rgba(254,215,167,0.02)"/>
    <rect x="23.00" y="18.00" width="1.00" height="1" fill="rgba(237,178,128,0.02)"/>
    <rect x="24.00" y="18.00" width="1.00" height="1" fill="rgba(6,6,6,0.02)"/>
    <rect x="25.00" y="18.00" width="1.00" height="1" fill="rgba(154,154,154,0.02)"/>
    <rect x="31.00" y="18.00" width="1.00" height="1" fill="rgba(141,80,15,1.00)"/>
    <rect x="32.00" y="18.00" width="1.00" height="1" fill="rgba(218,20,12,0.87)"/>
    <rect x="33.00" y="18.00" width="1.00" height="1" fill="rgba(175,91,42,1.00)"/>
    <rect x="34.00" y="18.00" width="1.00" height="1" fill="rgba(146,79,34,1.00)"/>
    <rect x="35.00" y="18.00" width="1.00" height="1" fill="rgba(128,75,31,1.00)"/>
    <rect x="2.00" y="19.00" width="11.00" height="1" fill="rgba(154,154,154,0.02)"/>
    <rect x="13.00" y="19.00" width="1.00" height="1" fill="rgba(6,6,6,0.02)"/>
    <rect x="14.00" y="19.00" width="1.00" height="1" fill="rgba(121,59,35,0.02)"/>
    <rect x="15.00" y="19.00" width="1.00" height="1" fill="rgba(199,132,95,0.02)"/>
    <rect x="16.00" y="19.00" width="1.00" height="1" fill="rgba(215,149,107,0.02)"/>
    <rect x="17.00" y="19.00" width="1.00" height="1" fill="rgba(244,177,129,0.02)"/>
    <rect x="18.00" y="19.00" width="1.00" height="1" fill="rgba(244,192,142,0.02)"/>
    <rect x="19.00" y="19.00" width="1.00" height="1" fill="rgba(255,216,170,0.02)"/>
    <rect x="20.00" y="19.00" width="1.00" height="1" fill="rgba(255,230,186,0.02)"/>
    <rect x="21.00" y="19.00" width="1.00" height="1" fill="rgba(251,217,168,0.02)"/>
    <rect x="22.00" y="19.00" width="1.00" height="1" fill="rgba(245,192,142,0.02)"/>
    <rect x="23.00" y="19.00" width="1.00" height="1" fill="rgba(225,168,118,0.02)"/>
    <rect x="24.00" y="19.00" width="1.00" height="1" fill="rgba(6,6,6,0.02)"/>
    <rect x="25.00" y="19.00" width="1.00" height="1" fill="rgba(154,154,154,0.02)"/>
    <rect x="30.00" y="19.00" width="1.00" height="1" fill="rgba(245,154,0,1.00)"/>
    <rect x="31.00" y="19.00" width="1.00" height="1" fill="rgba(251,188,0,1.00)"/>
    <rect x="32.00" y="19.00" width="1.00" height="1" fill="rgba(249,177,0,1.00)"/>
    <rect x="33.00" y="19.00" width="1.00" height="1" fill="rgba(255,215,0,1.00)"/>
    <rect x="34.00" y="19.00" width="1.00" height="1" fill="rgba(251,189,0,1.00)"/>
    <rect x="35.00" y="19.00" width="2.00" height="1" fill="rgba(175,91,42,1.00)"/>
    <rect x="2.00" y="20.00" width="11.00" height="1" fill="rgba(154,154,154,0.02)"/>
    <rect x="13.00" y="20.00" width="1.00" height="1" fill="rgba(6,6,6,0.02)"/>
    <rect x="14.00" y="20.00" width="1.00" height="1" fill="rgba(98,37,23,0.02)"/>
    <rect x="15.00" y="20.00" width="1.00" height="1" fill="rgba(181,114,79,0.02)"/>
    <rect x="16.00" y="20.00" width="1.00" height="1" fill="rgba(219,151,109,0.02)"/>
    <rect x="17.00" y="20.00" width="1.00" height="1" fill="rgba(234,168,121,0.02)"/>
    <rect x="18.00" y="20.00" width="1.00" height="1" fill="rgba(232,172,124,0.02)"/>
    <rect x="19.00" y="20.00" width="4.00" height="1" fill="rgba(6,6,6,0.02)"/>
    <rect x="23.00" y="20.00" width="1.00" height="1" fill="rgba(220,160,113,0.02)"/>
    <rect x="24.00" y="20.00" width="1.00" height="1" fill="rgba(6,6,6,0.02)"/>
    <rect x="25.00" y="20.00" width="1.00" height="1" fill="rgba(154,154,154,0.02)"/>
    <rect x="29.00" y="20.00" width="1.00" height="1" fill="rgba(255,0,0,1.00)"/>
    <rect x="30.00" y="20.00" width="1.00" height="1" fill="rgba(255,215,0,1.00)"/>
    <rect x="31.00" y="20.00" width="1.00" height="1" fill="rgba(255,59,2,1.00)"/>
    <rect x="32.00" y="20.00" width="1.00" height="1" fill="rgba(246,159,0,1.00)"/>
    <rect x="33.00" y="20.00" width="1.00" height="1" fill="rgba(255,215,0,1.00)"/>
    <rect x="34.00" y="20.00" width="1.00" height="1" fill="rgba(249,177,0,1.00)"/>
    <rect x="35.00" y="20.00" width="1.00" height="1" fill="rgba(255,215,0,1.00)"/>
    <rect x="36.00" y="20.00" width="1.00" height="1" fill="rgba(255,0,0,1.00)"/>
    <rect x="2.00" y="21.00" width="11.00" height="1" fill="rgba(154,154,154,0.02)"/>
    <rect x="13.00" y="21.00" width="1.00" height="1" fill="rgba(6,6,6,0.02)"/>
    <rect x="14.00" y="21.00" width="1.00" height="1" fill="rgba(105,46,21,0.02)"/>
    <rect x="15.00" y="21.00" width="1.00" height="1" fill="rgba(150,88,60,0.02)"/>
    <rect x="16.00" y="21.00" width="1.00" height="1" fill="rgba(196,130,93,0.02)"/>
    <rect x="17.00" y="21.00" width="1.00" height="1" fill="rgba(232,162,118,0.02)"/>
    <rect x="18.00" y="21.00" width="1.00" height="1" fill="rgba(250,192,143,0.02)"/>
    <rect x="19.00" y="21.00" width="1.00" height="1" fill="rgba(253,218,170,0.02)"/>
    <rect x="20.00" y="21.00" width="1.00" height="1" fill="rgba(253,223,175,0.02)"/>
    <rect x="21.00" y="21.00" width="1.00" height="1" fill="rgba(253,214,167,0.02)"/>
    <rect x="22.00" y="21.00" width="1.00" height="1" fill="rgba(253,203,154,0.02)"/>
    <rect x="23.00" y="21.00" width="1.00" height="1" fill="rgba(219,159,112,0.02)"/>
    <rect x="24.00" y="21.00" width="1.00" height="1" fill="rgba(6,6,6,0.02)"/>
    <rect x="25.00" y="21.00" width="1.00" height="1" fill="rgba(154,154,154,0.02)"/>
    <rect x="29.00" y="21.00" width="1.00" height="1" fill="rgba(249,177,0,1.00)"/>
    <rect x="30.00" y="21.00" width="1.00" height="1" fill="rgba(255,74,2,1.00)"/>
    <rect x="31.00" y="21.00" width="1.00" height="1" fill="rgba(252,42,1,1.00)"/>
    <rect x="32.00" y="21.00" width="1.00" height="1" fill="rgba(255,59,2,1.00)"/>
    <rect x="33.00" y="21.00" width="2.00" height="1" fill="rgba(255,215,0,1.00)"/>
    <rect x="35.00" y="21.00" width="1.00" height="1" fill="rgba(255,0,0,1.00)"/>
    <rect x="36.00" y="21.00" width="1.00" height="1" fill="rgba(175,91,42,1.00)"/>
    <rect x="2.00" y="22.00" width="11.00" height="1" fill="rgba(154,154,154,0.02)"/>
    <rect x="13.00" y="22.00" width="1.00" height="1" fill="rgba(6,6,6,0.02)"/>
    <rect x="14.00" y="22.00" width="1.00" height="1" fill="rgba(133,72,42,0.02)"/>
    <rect x="15.00" y="22.00" width="1.00" height="1" fill="rgba(106,48,24,0.02)"/>
    <rect x="16.00" y="22.00" width="1.00" height="1" fill="rgba(153,93,63,0.02)"/>
    <rect x="17.00" y="22.00" width="1.00" height="1" fill="rgba(208,141,101,0.02)"/>
    <rect x="18.00" y="22.00" width="1.00" height="1" fill="rgba(248,181,133,0.02)"/>
    <rect x="19.00" y="22.00" width="1.00" height="1" fill="rgba(253,207,160,0.02)"/>
    <rect x="20.00" y="22.00" width="1.00" height="1" fill="rgba(255,236,190,0.02)"/>
    <rect x="21.00" y="22.00" width="1.00" height="1" fill="rgba(255,238,194,0.02)"/>
    <rect x="22.00" y="22.00" width="1.00" height="1" fill="rgba(255,219,173,0.02)"/>
    <rect x="23.00" y="22.00" width="1.00" height="1" fill="rgba(190,132,92,0.02)"/>
    <rect x="24.00" y="22.00" width="1.00" height="1" fill="rgba(6,6,6,0.02)"/>
    <rect x="25.00" y="22.00" width="1.00" height="1" fill="rgba(154,154,154,0.02)"/>
    <rect x="28.00" y="22.00" width="1.00" height="1" fill="rgba(111,0,0,1.00)"/>
    <rect x="29.00" y="22.00" width="2.00" height="1" fill="rgba(255,215,0,1.00)"/>
    <rect x="31.00" y="22.00" width="1.00" height="1" fill="rgba(255,113,1,1.00)"/>
    <rect x="32.00" y="22.00" width="1.00" height="1" fill="rgba(111,0,0,1.00)"/>
    <rect x="33.00" y="22.00" width="1.00" height="1" fill="rgba(255,0,0,1.00)"/>
    <rect x="34.00" y="22.00" width="1.00" height="1" fill="rgba(175,91,42,1.00)"/>
    <rect x="35.00" y="22.00" width="1.00" height="1" fill="rgba(225,177,10,1.00)"/>
    <rect x="2.00" y="23.00" width="11.00" height="1" fill="rgba(154,154,154,0.02)"/>
    <rect x="13.00" y="23.00" width="1.00" height="1" fill="rgba(6,6,6,0.02)"/>
    <rect x="14.00" y="23.00" width="1.00" height="1" fill="rgba(151,89,57,0.02)"/>
    <rect x="15.00" y="23.00" width="1.00" height="1" fill="rgba(6,6,6,0.02)"/>
    <rect x="16.00" y="23.00" width="1.00" height="1" fill="rgba(120,63,36,0.02)"/>
    <rect x="17.00" y="23.00" width="1.00" height="1" fill="rgba(154,95,63,0.02)"/>
    <rect x="18.00" y="23.00" width="1.00" height="1" fill="rgba(191,132,92,0.02)"/>
    <rect x="19.00" y="23.00" width="1.00" height="1" fill="rgba(205,158,110,0.02)"/>
    <rect x="20.00" y="23.00" width="2.00" height="1" fill="rgba(235,196,144,0.02)"/>
    <rect x="22.00" y="23.00" width="1.00" height="1" fill="rgba(200,154,109,0.02)"/>
    <rect x="23.00" y="23.00" width="1.00" height="1" fill="rgba(6,6,6,0.02)"/>
    <rect x="24.00" y="23.00" width="2.00" height="1" fill="rgba(154,154,154,0.02)"/>
    <rect x="27.00" y="23.00" width="1.00" height="1" fill="rgba(255,0,0,1.00)"/>
    <rect x="28.00" y="23.00" width="1.00" height="1" fill="rgba(255,215,0,1.00)"/>
    <rect x="29.00" y="23.00" width="1.00" height="1" fill="rgba(253,200,0,1.00)"/>
    <rect x="30.00" y="23.00" width="1.00" height="1" fill="rgba(255,215,0,1.00)"/>
    <rect x="31.00" y="23.00" width="1.00" height="1" fill="rgba(111,0,0,1.00)"/>
    <rect x="2.00" y="24.00" width="11.00" height="1" fill="rgba(154,154,154,0.02)"/>
    <rect x="13.00" y="24.00" width="1.00" height="1" fill="rgba(6,6,6,0.02)"/>
    <rect x="14.00" y="24.00" width="1.00" height="1" fill="rgba(158,97,62,0.02)"/>
    <rect x="15.00" y="24.00" width="1.00" height="1" fill="rgba(238,170,124,0.02)"/>
    <rect x="16.00" y="24.00" width="7.00" height="1" fill="rgba(6,6,6,0.02)"/>
    <rect x="23.00" y="24.00" width="3.00" height="1" fill="rgba(154,154,154,0.02)"/>
    <rect x="26.00" y="24.00" width="1.00" height="1" fill="rgba(111,0,0,1.00)"/>
    <rect x="27.00" y="24.00" width="1.00" height="1" fill="rgba(252,86,1,1.00)"/>
    <rect x="28.00" y="24.00" width="1.00" height="1" fill="rgba(255,59,2,1.00)"/>
    <rect x="29.00" y="24.00" width="1.00" height="1" fill="rgba(111,0,0,1.00)"/>
    <rect x="30.00" y="24.00" width="1.00" height="1" fill="rgba(171,117,22,1.00)"/>
    <rect x="31.00" y="24.00" width="1.00" height="1" fill="rgba(175,91,42,1.00)"/>
    <rect x="2.00" y="25.00" width="11.00" height="1" fill="rgba(154,154,154,0.02)"/>
    <rect x="13.00" y="25.00" width="1.00" height="1" fill="rgba(6,6,6,0.02)"/>
    <rect x="14.00" y="25.00" width="1.00" height="1" fill="rgba(156,95,61,0.02)"/>
    <rect x="15.00" y="25.00" width="1.00" height="1" fill="rgba(251,186,138,0.02)"/>
    <rect x="16.00" y="25.00" width="1.00" height="1" fill="rgba(236,170,123,0.02)"/>
    <rect x="25.00" y="25.00" width="1.00" height="1" fill="rgba(255,0,0,1.00)"/>
    <rect x="26.00" y="25.00" width="1.00" height="1" fill="rgba(255,215,0,1.00)"/>
    <rect x="27.00" y="25.00" width="2.00" height="1" fill="rgba(175,91,42,1.00)"/>
    <rect x="29.00" y="25.00" width="1.00" height="1" fill="rgba(255,215,0,1.00)"/>
    <rect x="30.00" y="25.00" width="1.00" height="1" fill="rgba(247,166,0,1.00)"/>
    <rect x="33.00" y="25.00" width="1.00" height="1" fill="rgba(218,209,197,1.00)"/>
    <rect x="34.00" y="25.00" width="3.00" height="1" fill="rgba(216,202,175,1.00)"/>
    <rect x="2.00" y="26.00" width="11.00" height="1" fill="rgba(154,154,154,0.02)"/>
    <rect x="13.00" y="26.00" width="1.00" height="1" fill="rgba(6,6,6,0.02)"/>
    <rect x="14.00" y="26.00" width="1.00" height="1" fill="rgba(158,98,63,0.02)"/>
    <rect x="15.00" y="26.00" width="1.00" height="1" fill="rgba(250,187,138,0.02)"/>
    <rect x="16.00" y="26.00" width="1.00" height="1" fill="rgba(252,200,151,0.02)"/>
    <rect x="25.00" y="26.00" width="1.00" height="1" fill="rgba(111,0,0,1.00)"/>
    <rect x="26.00" y="26.00" width="1.00" height="1" fill="rgba(108,58,18,1.00)"/>
    <rect x="27.00" y="26.00" width="1.00" height="1" fill="rgba(255,215,0,1.00)"/>
    <rect x="30.00" y="26.00" width="1.00" height="1" fill="rgba(255,215,0,1.00)"/>
    <rect x="33.00" y="26.00" width="1.00" height="1" fill="rgba(195,186,174,1.00)"/>
    <rect x="34.00" y="26.00" width="3.00" height="1" fill="rgba(233,220,193,1.00)"/>
    <rect x="2.00" y="27.00" width="11.00" height="1" fill="rgba(154,154,154,0.02)"/>
    <rect x="13.00" y="27.00" width="1.00" height="1" fill="rgba(6,6,6,0.02)"/>
    <rect x="14.00" y="27.00" width="1.00" height="1" fill="rgba(197,133,92,0.02)"/>
    <rect x="15.00" y="27.00" width="1.00" height="1" fill="rgba(236,177,124,0.02)"/>
    <rect x="16.00" y="27.00" width="1.00" height="1" fill="rgba(251,197,143,0.02)"/>
    <rect x="24.00" y="27.00" width="1.00" height="1" fill="rgba(251,189,0,1.00)"/>
    <rect x="25.00" y="27.00" width="1.00" height="1" fill="rgba(111,0,0,1.00)"/>
    <rect x="27.00" y="27.00" width="1.00" height="1" fill="rgba(255,215,0,1.00)"/>
    <rect x="30.00" y="27.00" width="1.00" height="1" fill="rgba(253,200,0,1.00)"/>
    <rect x="32.00" y="27.00" width="1.00" height="1" fill="rgba(208,199,187,1.00)"/>
    <rect x="33.00" y="27.00" width="4.00" height="1" fill="rgba(202,180,147,1.00)"/>
    <rect x="2.00" y="28.00" width="9.00" height="1" fill="rgba(154,154,154,0.02)"/>
    <rect x="11.00" y="28.00" width="2.00" height="1" fill="rgba(6,6,6,0.02)"/>
    <rect x="13.00" y="28.00" width="1.00" height="1" fill="rgba(236,173,123,0.02)"/>
    <rect x="14.00" y="28.00" width="1.00" height="1" fill="rgba(236,175,123,0.02)"/>
    <rect x="15.00" y="28.00" width="1.00" height="1" fill="rgba(229,166,117,0.02)"/>
    <rect x="16.00" y="28.00" width="1.00" height="1" fill="rgba(234,173,122,0.02)"/>
    <rect x="24.00" y="28.00" width="1.00" height="1" fill="rgba(255,215,0,1.00)"/>
    <rect x="27.00" y="28.00" width="1.00" height="1" fill="rgba(255,215,0,1.00)"/>
    <rect x="30.00" y="28.00" width="1.00" height="1" fill="rgba(232,5,8,0.95)"/>
    <rect x="32.00" y="28.00" width="1.00" height="1" fill="rgba(208,199,187,1.00)"/>
    <rect x="33.00" y="28.00" width="4.00" height="1" fill="rgba(223,206,174,1.00)"/>
    <rect x="2.00" y="29.00" width="7.00" height="1" fill="rgba(154,154,154,0.02)"/>
    <rect x="9.00" y="29.00" width="2.00" height="1" fill="rgba(6,6,6,0.02)"/>
    <rect x="11.00" y="29.00" width="1.00" height="1" fill="rgba(225,161,113,0.02)"/>
    <rect x="12.00" y="29.00" width="1.00" height="1" fill="rgba(223,159,111,0.02)"/>
    <rect x="13.00" y="29.00" width="1.00" height="1" fill="rgba(227,163,115,0.02)"/>
    <rect x="14.00" y="29.00" width="1.00" height="1" fill="rgba(225,162,113,0.02)"/>
    <rect x="15.00" y="29.00" width="1.00" height="1" fill="rgba(223,159,112,0.02)"/>
    <rect x="16.00" y="29.00" width="1.00" height="1" fill="rgba(225,161,113,0.02)"/>
    <rect x="24.00" y="29.00" width="1.00" height="1" fill="rgba(255,215,0,1.00)"/>
    <rect x="31.00" y="29.00" width="1.00" height="1" fill="rgba(168,168,168,0.51)"/>
    <rect x="32.00" y="29.00" width="1.00" height="1" fill="rgba(181,163,141,1.00)"/>
    <rect x="33.00" y="29.00" width="4.00" height="1" fill="rgba(187,157,117,1.00)"/>
    <rect x="2.00" y="30.00" width="5.00" height="1" fill="rgba(154,154,154,0.02)"/>
    <rect x="7.00" y="30.00" width="2.00" height="1" fill="rgba(6,6,6,0.02)"/>
    <rect x="9.00" y="30.00" width="1.00" height="1" fill="rgba(243,184,131,0.02)"/>
    <rect x="10.00" y="30.00" width="1.00" height="1" fill="rgba(244,184,130,0.02)"/>
    <rect x="11.00" y="30.00" width="1.00" height="1" fill="rgba(238,176,124,0.02)"/>
    <rect x="12.00" y="30.00" width="1.00" height="1" fill="rgba(240,179,128,0.02)"/>
    <rect x="13.00" y="30.00" width="1.00" height="1" fill="rgba(241,183,129,0.02)"/>
    <rect x="14.00" y="30.00" width="1.00" height="1" fill="rgba(243,187,132,0.02)"/>
    <rect x="15.00" y="30.00" width="1.00" height="1" fill="rgba(247,191,137,0.02)"/>
    <rect x="16.00" y="30.00" width="1.00" height="1" fill="rgba(245,189,135,0.02)"/>
    <rect x="24.00" y="30.00" width="1.00" height="1" fill="rgba(248,172,0,1.00)"/>
    <rect x="31.00" y="30.00" width="1.00" height="1" fill="rgba(208,199,187,1.00)"/>
    <rect x="32.00" y="30.00" width="5.00" height="1" fill="rgba(204,175,135,1.00)"/>
    <rect x="2.00" y="31.00" width="4.00" height="1" fill="rgba(154,154,154,0.02)"/>
    <rect x="6.00" y="31.00" width="1.00" height="1" fill="rgba(6,6,6,0.02)"/>
    <rect x="7.00" y="31.00" width="1.00" height="1" fill="rgba(206,140,96,0.02)"/>
    <rect x="8.00" y="31.00" width="1.00" height="1" fill="rgba(248,188,135,0.02)"/>
    <rect x="9.00" y="31.00" width="1.00" height="1" fill="rgba(254,209,157,0.02)"/>
    <rect x="10.00" y="31.00" width="1.00" height="1" fill="rgba(251,197,144,0.02)"/>
    <rect x="11.00" y="31.00" width="1.00" height="1" fill="rgba(246,188,135,0.02)"/>
    <rect x="12.00" y="31.00" width="1.00" height="1" fill="rgba(251,197,146,0.02)"/>
    <rect x="13.00" y="31.00" width="1.00" height="1" fill="rgba(252,200,148,0.02)"/>
    <rect x="14.00" y="31.00" width="1.00" height="1" fill="rgba(251,198,147,0.02)"/>
    <rect x="15.00" y="31.00" width="1.00" height="1" fill="rgba(252,200,148,0.02)"/>
    <rect x="16.00" y="31.00" width="1.00" height="1" fill="rgba(252,203,151,0.02)"/>
    <rect x="24.00" y="31.00" width="1.00" height="1" fill="rgba(255,215,0,1.00)"/>
    <rect x="31.00" y="31.00" width="1.00" height="1" fill="rgba(195,186,174,1.00)"/>
    <rect x="32.00" y="31.00" width="5.00" height="1" fill="rgba(176,138,94,1.00)"/>
    <rect x="2.00" y="32.00" width="3.00" height="1" fill="rgba(154,154,154,0.02)"/>
    <rect x="5.00" y="32.00" width="1.00" height="1" fill="rgba(6,6,6,0.02)"/>
    <rect x="6.00" y="32.00" width="1.00" height="1" fill="rgba(126,66,33,0.02)"/>
    <rect x="7.00" y="32.00" width="1.00" height="1" fill="rgba(218,151,108,0.02)"/>
    <rect x="8.00" y="32.00" width="1.00" height="1" fill="rgba(248,190,136,0.02)"/>
    <rect x="9.00" y="32.00" width="1.00" height="1" fill="rgba(254,205,154,0.02)"/>
    <rect x="10.00" y="32.00" width="1.00" height="1" fill="rgba(252,197,145,0.02)"/>
    <rect x="11.00" y="32.00" width="1.00" height="1" fill="rgba(246,188,135,0.02)"/>
    <rect x="12.00" y="32.00" width="1.00" height="1" fill="rgba(252,203,151,0.02)"/>
    <rect x="13.00" y="32.00" width="1.00" height="1" fill="rgba(253,208,156,0.02)"/>
    <rect x="14.00" y="32.00" width="1.00" height="1" fill="rgba(253,205,154,0.02)"/>
    <rect x="15.00" y="32.00" width="2.00" height="1" fill="rgba(253,205,156,0.02)"/>
    <rect x="24.00" y="32.00" width="1.00" height="1" fill="rgba(248,172,0,1.00)"/>
    <rect x="30.00" y="32.00" width="1.00" height="1" fill="rgba(195,186,174,1.00)"/>
    <rect x="31.00" y="32.00" width="6.00" height="1" fill="rgba(189,151,105,1.00)"/>
    <rect x="2.00" y="33.00" width="3.00" height="1" fill="rgba(154,154,154,0.02)"/>
    <rect x="5.00" y="33.00" width="1.00" height="1" fill="rgba(6,6,6,0.02)"/>
    <rect x="6.00" y="33.00" width="1.00" height="1" fill="rgba(129,68,38,0.02)"/>
    <rect x="7.00" y="33.00" width="1.00" height="1" fill="rgba(216,150,106,0.02)"/>
    <rect x="8.00" y="33.00" width="1.00" height="1" fill="rgba(249,191,137,0.02)"/>
    <rect x="9.00" y="33.00" width="1.00" height="1" fill="rgba(237,179,127,0.02)"/>
    <rect x="10.00" y="33.00" width="1.00" height="1" fill="rgba(196,138,93,0.02)"/>
    <rect x="11.00" y="33.00" width="1.00" height="1" fill="rgba(234,173,122,0.02)"/>
    <rect x="12.00" y="33.00" width="1.00" height="1" fill="rgba(252,200,148,0.02)"/>
    <rect x="13.00" y="33.00" width="1.00" height="1" fill="rgba(255,214,165,0.02)"/>
    <rect x="14.00" y="33.00" width="1.00" height="1" fill="rgba(254,211,162,0.02)"/>
    <rect x="15.00" y="33.00" width="1.00" height="1" fill="rgba(253,207,157,0.02)"/>
    <rect x="16.00" y="33.00" width="1.00" height="1" fill="rgba(254,208,161,0.02)"/>
    <rect x="20.00" y="33.00" width="1.00" height="1" fill="rgba(183,135,60,1.00)"/>
    <rect x="21.00" y="33.00" width="1.00" height="1" fill="rgba(211,152,104,1.00)"/>
    <rect x="30.00" y="33.00" width="1.00" height="1" fill="rgba(195,186,174,1.00)"/>
    <rect x="31.00" y="33.00" width="6.00" height="1" fill="rgba(165,122,74,1.00)"/>
    <rect x="2.00" y="34.00" width="3.00" height="1" fill="rgba(154,154,154,0.02)"/>
    <rect x="5.00" y="34.00" width="1.00" height="1" fill="rgba(6,6,6,0.02)"/>
    <rect x="6.00" y="34.00" width="1.00" height="1" fill="rgba(130,68,38,0.02)"/>
    <rect x="7.00" y="34.00" width="1.00" height="1" fill="rgba(216,150,106,0.02)"/>
    <rect x="8.00" y="34.00" width="1.00" height="1" fill="rgba(247,185,131,0.02)"/>
    <rect x="9.00" y="34.00" width="1.00" height="1" fill="rgba(205,148,103,0.02)"/>
    <rect x="10.00" y="34.00" width="1.00" height="1" fill="rgba(6,6,6,0.02)"/>
    <rect x="11.00" y="34.00" width="1.00" height="1" fill="rgba(200,137,95,0.02)"/>
    <rect x="12.00" y="34.00" width="1.00" height="1" fill="rgba(248,188,136,0.02)"/>
    <rect x="13.00" y="34.00" width="1.00" height="1" fill="rgba(241,187,135,0.02)"/>
    <rect x="14.00" y="34.00" width="1.00" height="1" fill="rgba(249,198,145,0.02)"/>
    <rect x="15.00" y="34.00" width="1.00" height="1" fill="rgba(255,212,164,0.02)"/>
    <rect x="16.00" y="34.00" width="1.00" height="1" fill="rgba(253,207,156,0.02)"/>
    <rect x="19.00" y="34.00" width="1.00" height="1" fill="rgba(141,91,47,1.00)"/>
    <rect x="20.00" y="34.00" width="1.00" height="1" fill="rgba(194,138,90,1.00)"/>
    <rect x="21.00" y="34.00" width="1.00" height="1" fill="rgba(255,180,24,1.00)"/>
    <rect x="22.00" y="34.00" width="1.00" height="1" fill="rgba(255,152,0,1.00)"/>
    <rect x="23.00" y="34.00" width="1.00" height="1" fill="rgba(254,17,5,1.00)"/>
    <rect x="24.00" y="34.00" width="1.00" height="1" fill="rgba(255,7,11,1.00)"/>
    <rect x="25.00" y="34.00" width="1.00" height="1" fill="rgba(255,10,86,1.00)"/>
    <rect x="26.00" y="34.00" width="2.00" height="1" fill="rgba(255,152,0,1.00)"/>
    <rect x="28.00" y="34.00" width="1.00" height="1" fill="rgba(255,180,24,1.00)"/>
    <rect x="29.00" y="34.00" width="1.00" height="1" fill="rgba(255,0,9,1.00)"/>
    <rect x="30.00" y="34.00" width="1.00" height="1" fill="rgba(255,0,5,1.00)"/>
    <rect x="31.00" y="34.00" width="1.00" height="1" fill="rgba(255,2,54,1.00)"/>
    <rect x="32.00" y="34.00" width="2.00" height="1" fill="rgba(255,152,0,1.00)"/>
    <rect x="34.00" y="34.00" width="1.00" height="1" fill="rgba(255,0,9,1.00)"/>
    <rect x="35.00" y="34.00" width="1.00" height="1" fill="rgba(255,1,14,1.00)"/>
    <rect x="36.00" y="34.00" width="1.00" height="1" fill="rgba(255,18,3,1.00)"/>
    <rect x="2.00" y="35.00" width="3.00" height="1" fill="rgba(154,154,154,0.02)"/>
    <rect x="5.00" y="35.00" width="1.00" height="1" fill="rgba(6,6,6,0.02)"/>
    <rect x="6.00" y="35.00" width="1.00" height="1" fill="rgba(130,68,38,0.02)"/>
    <rect x="7.00" y="35.00" width="1.00" height="1" fill="rgba(217,151,107,0.02)"/>
    <rect x="8.00" y="35.00" width="1.00" height="1" fill="rgba(243,179,127,0.02)"/>
    <rect x="9.00" y="35.00" width="1.00" height="1" fill="rgba(200,142,97,0.02)"/>
    <rect x="10.00" y="35.00" width="1.00" height="1" fill="rgba(6,6,6,0.02)"/>
    <rect x="11.00" y="35.00" width="1.00" height="1" fill="rgba(160,96,62,0.02)"/>
    <rect x="12.00" y="35.00" width="1.00" height="1" fill="rgba(221,158,111,0.02)"/>
    <rect x="13.00" y="35.00" width="1.00" height="1" fill="rgba(214,151,107,0.02)"/>
    <rect x="14.00" y="35.00" width="1.00" height="1" fill="rgba(230,169,119,0.02)"/>
    <rect x="15.00" y="35.00" width="1.00" height="1" fill="rgba(250,193,141,0.02)"/>
    <rect x="16.00" y="35.00" width="1.00" height="1" fill="rgba(245,187,132,0.02)"/>
    <rect x="17.00" y="35.00" width="12.00" height="1" fill="rgba(255,255,255,1.00)"/>
    <rect x="29.00" y="35.00" width="1.00" height="1" fill="rgba(104,104,104,1.00)"/>
    <rect x="30.00" y="35.00" width="2.00" height="1" fill="rgba(157,157,157,1.00)"/>
    <rect x="32.00" y="35.00" width="5.00" height="1" fill="rgba(163,163,163,1.00)"/>
    <rect x="2.00" y="36.00" width="3.00" height="1" fill="rgba(154,154,154,0.02)"/>
    <rect x="5.00" y="36.00" width="1.00" height="1" fill="rgba(6,6,6,0.02)"/>
    <rect x="6.00" y="36.00" width="1.00" height="1" fill="rgba(132,71,40,0.02)"/>
    <rect x="7.00" y="36.00" width="1.00" height="1" fill="rgba(219,154,110,0.02)"/>
    <rect x="8.00" y="36.00" width="1.00" height="1" fill="rgba(246,188,133,0.02)"/>
    <rect x="9.00" y="36.00" width="1.00" height="1" fill="rgba(207,150,105,0.02)"/>
    <rect x="10.00" y="36.00" width="1.00" height="1" fill="rgba(6,6,6,0.02)"/>
    <rect x="11.00" y="36.00" width="1.00" height="1" fill="rgba(163,99,66,0.02)"/>
    <rect x="12.00" y="36.00" width="1.00" height="1" fill="rgba(191,124,86,0.02)"/>
    <rect x="13.00" y="36.00" width="1.00" height="1" fill="rgba(212,148,104,0.02)"/>
    <rect x="14.00" y="36.00" width="1.00" height="1" fill="rgba(213,148,105,0.02)"/>
    <rect x="15.00" y="36.00" width="1.00" height="1" fill="rgba(221,147,104,0.02)"/>
    <rect x="16.00" y="36.00" width="1.00" height="1" fill="rgba(223,159,112,0.02)"/>
    <rect x="17.00" y="36.00" width="2.00" height="1" fill="rgba(255,255,255,1.00)"/>
    <rect x="19.00" y="36.00" width="1.00" height="1" fill="rgba(247,180,184,1.00)"/>
    <rect x="20.00" y="36.00" width="1.00" height="1" fill="rgba(255,255,255,1.00)"/>
    <rect x="21.00" y="36.00" width="1.00" height="1" fill="rgba(87,186,129,1.00)"/>
    <rect x="22.00" y="36.00" width="1.00" height="1" fill="rgba(249,207,209,1.00)"/>
    <rect x="23.00" y="36.00" width="1.00" height="1" fill="rgba(254,243,243,1.00)"/>
    <rect x="24.00" y="36.00" width="1.00" height="1" fill="rgba(178,223,197,1.00)"/>
    <rect x="25.00" y="36.00" width="1.00" height="1" fill="rgba(254,248,248,1.00)"/>
    <rect x="26.00" y="36.00" width="1.00" height="1" fill="rgba(246,172,176,1.00)"/>
    <rect x="27.00" y="36.00" width="1.00" height="1" fill="rgba(252,230,231,1.00)"/>
    <rect x="28.00" y="36.00" width="1.00" height="1" fill="rgba(255,255,255,1.00)"/>
    <rect x="29.00" y="36.00" width="1.00" height="1" fill="rgba(161,161,161,1.00)"/>
    <rect x="30.00" y="36.00" width="1.00" height="1" fill="rgba(157,157,157,1.00)"/>
    <rect x="31.00" y="36.00" width="6.00" height="1" fill="rgba(163,163,163,1.00)"/>
  </g>
</svg>