<?xml version="1.0" encoding="UTF-8"?>
<!-- Generated from: Flat Top.png -->
<!-- Dimensions: 28x28 pixels (50 merged rects) -->
<!-- Rect size: 1 -->
<svg xmlns="http://www.w3.org/2000/svg" viewBox="0 0 28 28">
  <style>
    rect { shape-rendering: crispEdges; }
    svg { image-rendering: pixelated; image-rendering: -moz-crisp-edges; image-rendering: crisp-edges; }
  </style>
  <g id="pixels">
    <rect x="0" y="0" width="1" height="1" fill="rgba(255,255,255,0)"/>
    <rect x="9" y="2" width="10" height="1" fill="rgba(0,0,0,1)"/>
    <rect x="8" y="3" width="2" height="1" fill="rgba(16,16,16,1)"/>
    <rect x="10" y="3" width="2" height="1" fill="rgba(0,0,0,1)"/>
    <rect x="12" y="3" width="1" height="1" fill="rgba(16,16,16,1)"/>
    <rect x="13" y="3" width="1" height="1" fill="rgba(0,0,0,1)"/>
    <rect x="14" y="3" width="1" height="1" fill="rgba(26,26,26,1)"/>
    <rect x="15" y="3" width="1" height="1" fill="rgba(0,0,0,1)"/>
    <rect x="16" y="3" width="1" height="1" fill="rgba(26,26,26,1)"/>
    <rect x="17" y="3" width="1" height="1" fill="rgba(0,0,0,1)"/>
    <rect x="18" y="3" width="3" height="1" fill="rgba(26,26,26,1)"/>
    <rect x="8" y="4" width="1" height="1" fill="rgba(16,16,16,1)"/>
    <rect x="9" y="4" width="1" height="1" fill="rgba(0,0,0,1)"/>
    <rect x="10" y="4" width="2" height="1" fill="rgba(16,16,16,1)"/>
    <rect x="12" y="4" width="1" height="1" fill="rgba(8,8,8,1)"/>
    <rect x="13" y="4" width="1" height="1" fill="rgba(13,13,13,1)"/>
    <rect x="14" y="4" width="1" height="1" fill="rgba(0,0,0,1)"/>
    <rect x="15" y="4" width="3" height="1" fill="rgba(26,26,26,1)"/>
    <rect x="18" y="4" width="3" height="1" fill="rgba(0,0,0,1)"/>
    <rect x="8" y="5" width="1" height="1" fill="rgba(0,0,0,1)"/>
    <rect x="9" y="5" width="1" height="1" fill="rgba(8,8,8,1)"/>
    <rect x="10" y="5" width="3" height="1" fill="rgba(0,0,0,1)"/>
    <rect x="13" y="5" width="2" height="1" fill="rgba(26,26,26,1)"/>
    <rect x="15" y="5" width="1" height="1" fill="rgba(0,0,0,1)"/>
    <rect x="16" y="5" width="1" height="1" fill="rgba(26,26,26,1)"/>
    <rect x="17" y="5" width="1" height="1" fill="rgba(0,0,0,1)"/>
    <rect x="18" y="5" width="1" height="1" fill="rgba(26,26,26,1)"/>
    <rect x="19" y="5" width="2" height="1" fill="rgba(0,0,0,1)"/>
    <rect x="8" y="6" width="1" height="1" fill="rgba(8,8,8,1)"/>
    <rect x="9" y="6" width="1" height="1" fill="rgba(0,0,0,1)"/>
    <rect x="10" y="6" width="3" height="1" fill="rgba(16,16,16,1)"/>
    <rect x="13" y="6" width="1" height="1" fill="rgba(26,26,26,1)"/>
    <rect x="14" y="6" width="1" height="1" fill="rgba(0,0,0,1)"/>
    <rect x="15" y="6" width="3" height="1" fill="rgba(26,26,26,1)"/>
    <rect x="18" y="6" width="1" height="1" fill="rgba(0,0,0,1)"/>
    <rect x="19" y="6" width="2" height="1" fill="rgba(26,26,26,1)"/>
    <rect x="8" y="7" width="1" height="1" fill="rgba(8,8,8,1)"/>
    <rect x="9" y="7" width="1" height="1" fill="rgba(16,16,16,1)"/>
    <rect x="10" y="7" width="2" height="1" fill="rgba(0,0,0,1)"/>
    <rect x="18" y="7" width="1" height="1" fill="rgba(26,26,26,1)"/>
    <rect x="19" y="7" width="2" height="1" fill="rgba(0,0,0,1)"/>
    <rect x="8" y="8" width="2" height="1" fill="rgba(0,0,0,1)"/>
    <rect x="19" y="8" width="2" height="1" fill="rgba(0,0,0,1)"/>
    <rect x="8" y="9" width="1" height="1" fill="rgba(0,0,0,1)"/>
    <rect x="19" y="9" width="2" height="1" fill="rgba(26,26,26,1)"/>
    <rect x="8" y="10" width="1" height="1" fill="rgba(0,0,0,1)"/>
    <rect x="19" y="10" width="2" height="1" fill="rgba(26,26,26,1)"/>
    <rect x="8" y="11" width="1" height="1" fill="rgba(0,0,0,1)"/>
    <rect x="19" y="11" width="2" height="1" fill="rgba(26,26,26,1)"/>
    <rect x="8" y="12" width="1" height="1" fill="rgba(26,26,26,1)"/>
  </g>
</svg>