<?xml version="1.0" encoding="UTF-8"?>
<!-- Generated from: Human Coffee.png -->
<!-- Dimensions: 28x28 pixels (602 merged rects) -->
<!-- Rect size: 1 -->
<svg xmlns="http://www.w3.org/2000/svg" viewBox="0 0 28 28">
  <style>
    rect { shape-rendering: crispEdges; }
    svg { image-rendering: pixelated; image-rendering: -moz-crisp-edges; image-rendering: crisp-edges; }
  </style>
  <g id="pixels">
    <rect x="0" y="0" width="2" height="1" fill="rgba(113,162,255,1)"/>
    <rect x="2" y="0" width="8" height="1" fill="rgba(114,162,255,1)"/>
    <rect x="10" y="0" width="11" height="1" fill="rgba(114,163,255,1)"/>
    <rect x="21" y="0" width="7" height="1" fill="rgba(114,162,255,1)"/>
    <rect x="0" y="1" width="7" height="1" fill="rgba(114,162,255,1)"/>
    <rect x="7" y="1" width="17" height="1" fill="rgba(114,163,255,1)"/>
    <rect x="24" y="1" width="4" height="1" fill="rgba(114,162,255,1)"/>
    <rect x="0" y="2" width="4" height="1" fill="rgba(114,162,255,1)"/>
    <rect x="4" y="2" width="5" height="1" fill="rgba(114,163,255,1)"/>
    <rect x="9" y="2" width="5" height="1" fill="rgba(115,163,255,1)"/>
    <rect x="14" y="2" width="2" height="1" fill="rgba(116,163,255,1)"/>
    <rect x="16" y="2" width="5" height="1" fill="rgba(115,163,255,1)"/>
    <rect x="21" y="2" width="4" height="1" fill="rgba(114,163,255,1)"/>
    <rect x="25" y="2" width="3" height="1" fill="rgba(114,162,255,1)"/>
    <rect x="0" y="3" width="2" height="1" fill="rgba(114,162,255,1)"/>
    <rect x="2" y="3" width="4" height="1" fill="rgba(114,163,255,1)"/>
    <rect x="6" y="3" width="3" height="1" fill="rgba(116,163,255,1)"/>
    <rect x="9" y="3" width="3" height="1" fill="rgba(117,163,255,1)"/>
    <rect x="12" y="3" width="4" height="1" fill="rgba(118,164,255,1)"/>
    <rect x="16" y="3" width="2" height="1" fill="rgba(117,164,255,1)"/>
    <rect x="18" y="3" width="3" height="1" fill="rgba(116,163,255,1)"/>
    <rect x="21" y="3" width="2" height="1" fill="rgba(115,163,255,1)"/>
    <rect x="23" y="3" width="4" height="1" fill="rgba(114,163,255,1)"/>
    <rect x="27" y="3" width="1" height="1" fill="rgba(114,162,255,1)"/>
    <rect x="0" y="4" width="2" height="1" fill="rgba(114,162,255,1)"/>
    <rect x="2" y="4" width="2" height="1" fill="rgba(114,163,255,1)"/>
    <rect x="4" y="4" width="1" height="1" fill="rgba(116,163,255,1)"/>
    <rect x="5" y="4" width="3" height="1" fill="rgba(117,163,255,1)"/>
    <rect x="8" y="4" width="3" height="1" fill="rgba(118,164,255,1)"/>
    <rect x="11" y="4" width="1" height="1" fill="rgba(49,13,1,1)"/>
    <rect x="12" y="4" width="1" height="1" fill="rgba(64,20,4,1)"/>
    <rect x="13" y="4" width="1" height="1" fill="rgba(86,32,9,1)"/>
    <rect x="14" y="4" width="1" height="1" fill="rgba(109,45,17,1)"/>
    <rect x="15" y="4" width="2" height="1" fill="rgba(100,18,0,1)"/>
    <rect x="17" y="4" width="4" height="1" fill="rgba(118,164,255,1)"/>
    <rect x="21" y="4" width="2" height="1" fill="rgba(117,163,255,1)"/>
    <rect x="23" y="4" width="3" height="1" fill="rgba(115,163,255,1)"/>
    <rect x="26" y="4" width="2" height="1" fill="rgba(114,163,255,1)"/>
    <rect x="0" y="5" width="1" height="1" fill="rgba(114,163,255,1)"/>
    <rect x="1" y="5" width="1" height="1" fill="rgba(115,163,255,1)"/>
    <rect x="2" y="5" width="1" height="1" fill="rgba(116,163,255,1)"/>
    <rect x="3" y="5" width="3" height="1" fill="rgba(117,163,255,1)"/>
    <rect x="6" y="5" width="3" height="1" fill="rgba(118,164,255,1)"/>
    <rect x="9" y="5" width="1" height="1" fill="rgba(119,165,255,1)"/>
    <rect x="10" y="5" width="1" height="1" fill="rgba(24,4,0,1)"/>
    <rect x="11" y="5" width="2" height="1" fill="rgba(148,53,0,1)"/>
    <rect x="13" y="5" width="1" height="1" fill="rgba(150,55,0,1)"/>
    <rect x="14" y="5" width="3" height="1" fill="rgba(148,53,0,1)"/>
    <rect x="17" y="5" width="1" height="1" fill="rgba(100,18,0,1)"/>
    <rect x="18" y="5" width="2" height="1" fill="rgba(119,165,255,1)"/>
    <rect x="20" y="5" width="4" height="1" fill="rgba(118,164,255,1)"/>
    <rect x="24" y="5" width="2" height="1" fill="rgba(117,163,255,1)"/>
    <rect x="26" y="5" width="1" height="1" fill="rgba(115,163,255,1)"/>
    <rect x="27" y="5" width="1" height="1" fill="rgba(114,163,255,1)"/>
    <rect x="0" y="6" width="1" height="1" fill="rgba(115,163,255,1)"/>
    <rect x="1" y="6" width="3" height="1" fill="rgba(117,163,255,1)"/>
    <rect x="4" y="6" width="3" height="1" fill="rgba(118,164,255,1)"/>
    <rect x="7" y="6" width="2" height="1" fill="rgba(119,167,255,1)"/>
    <rect x="9" y="6" width="1" height="1" fill="rgba(46,11,0,1)"/>
    <rect x="10" y="6" width="1" height="1" fill="rgba(118,22,0,1)"/>
    <rect x="11" y="6" width="2" height="1" fill="rgba(148,53,0,1)"/>
    <rect x="13" y="6" width="3" height="1" fill="rgba(188,122,59,1)"/>
    <rect x="16" y="6" width="1" height="1" fill="rgba(213,146,93,1)"/>
    <rect x="17" y="6" width="1" height="1" fill="rgba(148,53,0,1)"/>
    <rect x="18" y="6" width="1" height="1" fill="rgba(100,18,0,1)"/>
    <rect x="19" y="6" width="1" height="1" fill="rgba(120,167,255,1)"/>
    <rect x="20" y="6" width="1" height="1" fill="rgba(119,167,255,1)"/>
    <rect x="21" y="6" width="1" height="1" fill="rgba(119,166,255,1)"/>
    <rect x="22" y="6" width="1" height="1" fill="rgba(119,165,255,1)"/>
    <rect x="23" y="6" width="2" height="1" fill="rgba(118,164,255,1)"/>
    <rect x="25" y="6" width="2" height="1" fill="rgba(117,163,255,1)"/>
    <rect x="27" y="6" width="1" height="1" fill="rgba(116,163,255,1)"/>
    <rect x="0" y="7" width="3" height="1" fill="rgba(117,163,255,1)"/>
    <rect x="3" y="7" width="2" height="1" fill="rgba(118,164,255,1)"/>
    <rect x="5" y="7" width="2" height="1" fill="rgba(119,167,255,1)"/>
    <rect x="7" y="7" width="1" height="1" fill="rgba(120,167,255,1)"/>
    <rect x="8" y="7" width="1" height="1" fill="rgba(46,11,0,1)"/>
    <rect x="9" y="7" width="1" height="1" fill="rgba(81,23,6,1)"/>
    <rect x="10" y="7" width="1" height="1" fill="rgba(118,22,0,1)"/>
    <rect x="11" y="7" width="1" height="1" fill="rgba(148,53,0,1)"/>
    <rect x="12" y="7" width="1" height="1" fill="rgba(171,96,30,1)"/>
    <rect x="13" y="7" width="1" height="1" fill="rgba(188,110,46,1)"/>
    <rect x="14" y="7" width="1" height="1" fill="rgba(188,122,59,1)"/>
    <rect x="15" y="7" width="1" height="1" fill="rgba(213,146,93,1)"/>
    <rect x="16" y="7" width="1" height="1" fill="rgba(225,165,118,1)"/>
    <rect x="17" y="7" width="1" height="1" fill="rgba(213,146,93,1)"/>
    <rect x="18" y="7" width="1" height="1" fill="rgba(148,53,0,1)"/>
    <rect x="19" y="7" width="1" height="1" fill="rgba(100,18,0,1)"/>
    <rect x="20" y="7" width="1" height="1" fill="rgba(121,168,255,1)"/>
    <rect x="21" y="7" width="1" height="1" fill="rgba(120,167,255,1)"/>
    <rect x="22" y="7" width="1" height="1" fill="rgba(119,167,255,1)"/>
    <rect x="23" y="7" width="2" height="1" fill="rgba(119,165,255,1)"/>
    <rect x="25" y="7" width="2" height="1" fill="rgba(118,164,255,1)"/>
    <rect x="27" y="7" width="1" height="1" fill="rgba(117,163,255,1)"/>
    <rect x="0" y="8" width="2" height="1" fill="rgba(117,163,255,1)"/>
    <rect x="2" y="8" width="1" height="1" fill="rgba(118,164,255,1)"/>
    <rect x="3" y="8" width="2" height="1" fill="rgba(119,167,255,1)"/>
    <rect x="5" y="8" width="1" height="1" fill="rgba(120,167,255,1)"/>
    <rect x="6" y="8" width="1" height="1" fill="rgba(121,168,255,1)"/>
    <rect x="7" y="8" width="1" height="1" fill="rgba(123,168,255,1)"/>
    <rect x="8" y="8" width="1" height="1" fill="rgba(54,15,2,1)"/>
    <rect x="9" y="8" width="1" height="1" fill="rgba(81,23,6,1)"/>
    <rect x="10" y="8" width="1" height="1" fill="rgba(118,22,0,1)"/>
    <rect x="11" y="8" width="1" height="1" fill="rgba(148,53,0,1)"/>
    <rect x="12" y="8" width="1" height="1" fill="rgba(151,58,0,1)"/>
    <rect x="13" y="8" width="1" height="1" fill="rgba(168,81,11,1)"/>
    <rect x="14" y="8" width="1" height="1" fill="rgba(168,81,9,1)"/>
    <rect x="15" y="8" width="1" height="1" fill="rgba(166,81,11,1)"/>
    <rect x="16" y="8" width="1" height="1" fill="rgba(168,90,15,1)"/>
    <rect x="17" y="8" width="1" height="1" fill="rgba(150,57,0,1)"/>
    <rect x="18" y="8" width="1" height="1" fill="rgba(148,53,0,1)"/>
    <rect x="19" y="8" width="1" height="1" fill="rgba(100,18,0,1)"/>
    <rect x="20" y="8" width="1" height="1" fill="rgba(124,169,255,1)"/>
    <rect x="21" y="8" width="2" height="1" fill="rgba(121,168,255,1)"/>
    <rect x="23" y="8" width="1" height="1" fill="rgba(120,167,255,1)"/>
    <rect x="24" y="8" width="1" height="1" fill="rgba(119,167,255,1)"/>
    <rect x="25" y="8" width="1" height="1" fill="rgba(119,166,255,1)"/>
    <rect x="26" y="8" width="2" height="1" fill="rgba(118,164,255,1)"/>
    <rect x="0" y="9" width="1" height="1" fill="rgba(118,164,255,1)"/>
    <rect x="1" y="9" width="1" height="1" fill="rgba(118,166,255,1)"/>
    <rect x="2" y="9" width="2" height="1" fill="rgba(119,167,255,1)"/>
    <rect x="4" y="9" width="2" height="1" fill="rgba(123,168,255,1)"/>
    <rect x="6" y="9" width="1" height="1" fill="rgba(124,169,255,1)"/>
    <rect x="7" y="9" width="1" height="1" fill="rgba(125,169,255,1)"/>
    <rect x="8" y="9" width="1" height="1" fill="rgba(45,10,0,1)"/>
    <rect x="9" y="9" width="1" height="1" fill="rgba(80,23,5,1)"/>
    <rect x="10" y="9" width="1" height="1" fill="rgba(119,20,0,1)"/>
    <rect x="11" y="9" width="1" height="1" fill="rgba(150,55,0,1)"/>
    <rect x="12" y="9" width="1" height="1" fill="rgba(148,53,0,1)"/>
    <rect x="13" y="9" width="1" height="1" fill="rgba(150,57,0,1)"/>
    <rect x="14" y="9" width="1" height="1" fill="rgba(162,78,7,1)"/>
    <rect x="15" y="9" width="1" height="1" fill="rgba(162,85,13,1)"/>
    <rect x="16" y="9" width="1" height="1" fill="rgba(150,57,0,1)"/>
    <rect x="17" y="9" width="1" height="1" fill="rgba(151,58,0,1)"/>
    <rect x="18" y="9" width="1" height="1" fill="rgba(150,55,0,1)"/>
    <rect x="19" y="9" width="1" height="1" fill="rgba(100,18,0,1)"/>
    <rect x="20" y="9" width="1" height="1" fill="rgba(126,170,255,1)"/>
    <rect x="21" y="9" width="1" height="1" fill="rgba(125,169,255,1)"/>
    <rect x="22" y="9" width="1" height="1" fill="rgba(124,169,255,1)"/>
    <rect x="23" y="9" width="1" height="1" fill="rgba(122,168,255,1)"/>
    <rect x="24" y="9" width="1" height="1" fill="rgba(121,168,255,1)"/>
    <rect x="25" y="9" width="2" height="1" fill="rgba(119,167,255,1)"/>
    <rect x="27" y="9" width="1" height="1" fill="rgba(118,164,255,1)"/>
    <rect x="0" y="10" width="1" height="1" fill="rgba(118,166,255,1)"/>
    <rect x="1" y="10" width="1" height="1" fill="rgba(119,167,255,1)"/>
    <rect x="2" y="10" width="1" height="1" fill="rgba(120,167,255,1)"/>
    <rect x="3" y="10" width="2" height="1" fill="rgba(123,168,255,1)"/>
    <rect x="5" y="10" width="1" height="1" fill="rgba(125,169,255,1)"/>
    <rect x="6" y="10" width="1" height="1" fill="rgba(127,171,255,1)"/>
    <rect x="7" y="10" width="1" height="1" fill="rgba(128,172,255,1)"/>
    <rect x="8" y="10" width="1" height="1" fill="rgba(34,7,0,1)"/>
    <rect x="9" y="10" width="1" height="1" fill="rgba(80,23,5,1)"/>
    <rect x="10" y="10" width="1" height="1" fill="rgba(132,34,0,1)"/>
    <rect x="11" y="10" width="1" height="1" fill="rgba(129,40,0,1)"/>
    <rect x="12" y="10" width="1" height="1" fill="rgba(34,0,0,1)"/>
    <rect x="13" y="10" width="1" height="1" fill="rgba(84,11,0,1)"/>
    <rect x="14" y="10" width="2" height="1" fill="rgba(150,55,0,1)"/>
    <rect x="16" y="10" width="1" height="1" fill="rgba(34,0,0,1)"/>
    <rect x="17" y="10" width="1" height="1" fill="rgba(84,11,0,1)"/>
    <rect x="18" y="10" width="1" height="1" fill="rgba(150,55,0,1)"/>
    <rect x="19" y="10" width="1" height="1" fill="rgba(100,18,0,1)"/>
    <rect x="20" y="10" width="1" height="1" fill="rgba(130,173,255,1)"/>
    <rect x="21" y="10" width="2" height="1" fill="rgba(126,170,255,1)"/>
    <rect x="23" y="10" width="1" height="1" fill="rgba(125,169,255,1)"/>
    <rect x="24" y="10" width="1" height="1" fill="rgba(124,168,255,1)"/>
    <rect x="25" y="10" width="1" height="1" fill="rgba(121,168,255,1)"/>
    <rect x="26" y="10" width="1" height="1" fill="rgba(120,167,255,1)"/>
    <rect x="27" y="10" width="1" height="1" fill="rgba(119,167,255,1)"/>
    <rect x="0" y="11" width="1" height="1" fill="rgba(119,167,255,1)"/>
    <rect x="1" y="11" width="1" height="1" fill="rgba(121,167,255,1)"/>
    <rect x="2" y="11" width="1" height="1" fill="rgba(123,168,255,1)"/>
    <rect x="3" y="11" width="1" height="1" fill="rgba(124,168,255,1)"/>
    <rect x="4" y="11" width="1" height="1" fill="rgba(127,171,255,1)"/>
    <rect x="5" y="11" width="1" height="1" fill="rgba(128,172,255,1)"/>
    <rect x="6" y="11" width="1" height="1" fill="rgba(129,173,255,1)"/>
    <rect x="7" y="11" width="1" height="1" fill="rgba(108,27,0,1)"/>
    <rect x="8" y="11" width="1" height="1" fill="rgba(31,7,0,1)"/>
    <rect x="9" y="11" width="1" height="1" fill="rgba(80,23,5,1)"/>
    <rect x="10" y="11" width="1" height="1" fill="rgba(132,34,0,1)"/>
    <rect x="11" y="11" width="1" height="1" fill="rgba(132,43,0,1)"/>
    <rect x="12" y="11" width="1" height="1" fill="rgba(254,242,235,1)"/>
    <rect x="13" y="11" width="1" height="1" fill="rgba(0,0,0,1)"/>
    <rect x="14" y="11" width="1" height="1" fill="rgba(112,28,0,1)"/>
    <rect x="15" y="11" width="1" height="1" fill="rgba(133,44,0,1)"/>
    <rect x="16" y="11" width="1" height="1" fill="rgba(255,246,240,1)"/>
    <rect x="17" y="11" width="1" height="1" fill="rgba(0,0,0,1)"/>
    <rect x="18" y="11" width="1" height="1" fill="rgba(124,38,0,1)"/>
    <rect x="19" y="11" width="1" height="1" fill="rgba(96,17,0,1)"/>
    <rect x="20" y="11" width="1" height="1" fill="rgba(132,174,255,1)"/>
    <rect x="21" y="11" width="1" height="1" fill="rgba(131,174,255,1)"/>
    <rect x="22" y="11" width="1" height="1" fill="rgba(129,173,255,1)"/>
    <rect x="23" y="11" width="1" height="1" fill="rgba(127,171,255,1)"/>
    <rect x="24" y="11" width="1" height="1" fill="rgba(125,169,255,1)"/>
    <rect x="25" y="11" width="1" height="1" fill="rgba(124,168,255,1)"/>
    <rect x="26" y="11" width="1" height="1" fill="rgba(123,168,255,1)"/>
    <rect x="27" y="11" width="1" height="1" fill="rgba(120,167,255,1)"/>
    <rect x="0" y="12" width="1" height="1" fill="rgba(121,167,255,1)"/>
    <rect x="1" y="12" width="1" height="1" fill="rgba(123,168,255,1)"/>
    <rect x="2" y="12" width="1" height="1" fill="rgba(124,168,255,1)"/>
    <rect x="3" y="12" width="1" height="1" fill="rgba(127,171,255,1)"/>
    <rect x="4" y="12" width="1" height="1" fill="rgba(128,172,255,1)"/>
    <rect x="5" y="12" width="1" height="1" fill="rgba(131,173,255,1)"/>
    <rect x="6" y="12" width="1" height="1" fill="rgba(133,176,255,1)"/>
    <rect x="7" y="12" width="1" height="1" fill="rgba(93,17,0,1)"/>
    <rect x="8" y="12" width="1" height="1" fill="rgba(21,4,0,1)"/>
    <rect x="9" y="12" width="1" height="1" fill="rgba(80,23,5,1)"/>
    <rect x="10" y="12" width="1" height="1" fill="rgba(135,38,0,1)"/>
    <rect x="11" y="12" width="1" height="1" fill="rgba(150,55,0,1)"/>
    <rect x="12" y="12" width="1" height="1" fill="rgba(140,48,0,1)"/>
    <rect x="13" y="12" width="1" height="1" fill="rgba(130,39,0,1)"/>
    <rect x="14" y="12" width="2" height="1" fill="rgba(150,55,0,1)"/>
    <rect x="16" y="12" width="1" height="1" fill="rgba(145,52,0,1)"/>
    <rect x="17" y="12" width="1" height="1" fill="rgba(126,39,0,1)"/>
    <rect x="18" y="12" width="1" height="1" fill="rgba(150,55,0,1)"/>
    <rect x="19" y="12" width="1" height="1" fill="rgba(80,7,0,1)"/>
    <rect x="20" y="12" width="1" height="1" fill="rgba(136,178,255,1)"/>
    <rect x="21" y="12" width="1" height="1" fill="rgba(133,175,255,1)"/>
    <rect x="22" y="12" width="1" height="1" fill="rgba(132,174,255,1)"/>
    <rect x="23" y="12" width="1" height="1" fill="rgba(130,173,255,1)"/>
    <rect x="24" y="12" width="1" height="1" fill="rgba(128,172,255,1)"/>
    <rect x="25" y="12" width="1" height="1" fill="rgba(125,169,255,1)"/>
    <rect x="26" y="12" width="1" height="1" fill="rgba(124,168,255,1)"/>
    <rect x="27" y="12" width="1" height="1" fill="rgba(123,168,255,1)"/>
    <rect x="0" y="13" width="1" height="1" fill="rgba(122,167,255,1)"/>
    <rect x="1" y="13" width="1" height="1" fill="rgba(125,170,255,1)"/>
    <rect x="2" y="13" width="1" height="1" fill="rgba(127,171,255,1)"/>
    <rect x="3" y="13" width="1" height="1" fill="rgba(128,172,255,1)"/>
    <rect x="4" y="13" width="1" height="1" fill="rgba(131,173,255,1)"/>
    <rect x="5" y="13" width="1" height="1" fill="rgba(133,176,255,1)"/>
    <rect x="6" y="13" width="1" height="1" fill="rgba(136,177,255,1)"/>
    <rect x="7" y="13" width="1" height="1" fill="rgba(60,11,0,1)"/>
    <rect x="8" y="13" width="1" height="1" fill="rgba(21,4,0,1)"/>
    <rect x="9" y="13" width="1" height="1" fill="rgba(73,21,4,1)"/>
    <rect x="10" y="13" width="1" height="1" fill="rgba(135,38,0,1)"/>
    <rect x="11" y="13" width="2" height="1" fill="rgba(150,57,0,1)"/>
    <rect x="13" y="13" width="1" height="1" fill="rgba(150,55,0,1)"/>
    <rect x="14" y="13" width="1" height="1" fill="rgba(150,57,0,1)"/>
    <rect x="15" y="13" width="1" height="1" fill="rgba(80,7,0,1)"/>
    <rect x="16" y="13" width="1" height="1" fill="rgba(111,28,0,1)"/>
    <rect x="17" y="13" width="1" height="1" fill="rgba(151,58,0,1)"/>
    <rect x="18" y="13" width="1" height="1" fill="rgba(150,55,0,1)"/>
    <rect x="19" y="13" width="1" height="1" fill="rgba(96,17,0,1)"/>
    <rect x="20" y="13" width="1" height="1" fill="rgba(140,179,255,1)"/>
    <rect x="21" y="13" width="1" height="1" fill="rgba(137,178,255,1)"/>
    <rect x="22" y="13" width="1" height="1" fill="rgba(135,177,255,1)"/>
    <rect x="23" y="13" width="1" height="1" fill="rgba(132,174,255,1)"/>
    <rect x="24" y="13" width="1" height="1" fill="rgba(130,173,255,1)"/>
    <rect x="25" y="13" width="1" height="1" fill="rgba(128,172,255,1)"/>
    <rect x="26" y="13" width="1" height="1" fill="rgba(126,170,255,1)"/>
    <rect x="27" y="13" width="1" height="1" fill="rgba(124,168,255,1)"/>
    <rect x="0" y="14" width="1" height="1" fill="rgba(125,170,255,1)"/>
    <rect x="1" y="14" width="1" height="1" fill="rgba(126,171,255,1)"/>
    <rect x="2" y="14" width="1" height="1" fill="rgba(130,172,255,1)"/>
    <rect x="3" y="14" width="1" height="1" fill="rgba(132,175,255,1)"/>
    <rect x="4" y="14" width="1" height="1" fill="rgba(134,176,255,1)"/>
    <rect x="5" y="14" width="1" height="1" fill="rgba(138,178,255,1)"/>
    <rect x="6" y="14" width="1" height="1" fill="rgba(141,180,255,1)"/>
    <rect x="7" y="14" width="1" height="1" fill="rgba(143,182,255,1)"/>
    <rect x="8" y="14" width="1" height="1" fill="rgba(21,4,0,1)"/>
    <rect x="9" y="14" width="1" height="1" fill="rgba(73,20,4,1)"/>
    <rect x="10" y="14" width="1" height="1" fill="rgba(140,45,0,1)"/>
    <rect x="11" y="14" width="2" height="1" fill="rgba(150,57,0,1)"/>
    <rect x="13" y="14" width="4" height="1" fill="rgba(150,55,0,1)"/>
    <rect x="17" y="14" width="1" height="1" fill="rgba(150,57,0,1)"/>
    <rect x="18" y="14" width="1" height="1" fill="rgba(150,55,0,1)"/>
    <rect x="19" y="14" width="1" height="1" fill="rgba(80,7,0,1)"/>
    <rect x="20" y="14" width="1" height="1" fill="rgba(144,183,255,1)"/>
    <rect x="21" y="14" width="1" height="1" fill="rgba(141,180,255,1)"/>
    <rect x="22" y="14" width="1" height="1" fill="rgba(139,179,255,1)"/>
    <rect x="23" y="14" width="1" height="1" fill="rgba(136,177,255,1)"/>
    <rect x="24" y="14" width="1" height="1" fill="rgba(133,176,255,1)"/>
    <rect x="25" y="14" width="1" height="1" fill="rgba(131,173,255,1)"/>
    <rect x="26" y="14" width="1" height="1" fill="rgba(128,172,255,1)"/>
    <rect x="27" y="14" width="1" height="1" fill="rgba(127,171,255,1)"/>
    <rect x="0" y="15" width="1" height="1" fill="rgba(126,170,255,1)"/>
    <rect x="1" y="15" width="1" height="1" fill="rgba(129,171,255,1)"/>
    <rect x="2" y="15" width="1" height="1" fill="rgba(131,175,255,1)"/>
    <rect x="3" y="15" width="1" height="1" fill="rgba(135,176,255,1)"/>
    <rect x="4" y="15" width="1" height="1" fill="rgba(138,178,255,1)"/>
    <rect x="5" y="15" width="1" height="1" fill="rgba(141,180,255,1)"/>
    <rect x="6" y="15" width="1" height="1" fill="rgba(144,182,255,1)"/>
    <rect x="7" y="15" width="1" height="1" fill="rgba(148,185,255,1)"/>
    <rect x="8" y="15" width="1" height="1" fill="rgba(0,0,0,1)"/>
    <rect x="9" y="15" width="1" height="1" fill="rgba(73,21,4,1)"/>
    <rect x="10" y="15" width="1" height="1" fill="rgba(141,46,0,1)"/>
    <rect x="11" y="15" width="1" height="1" fill="rgba(151,58,0,1)"/>
    <rect x="12" y="15" width="1" height="1" fill="rgba(150,57,0,1)"/>
    <rect x="13" y="15" width="4" height="1" fill="rgba(0,0,0,1)"/>
    <rect x="17" y="15" width="1" height="1" fill="rgba(150,57,0,1)"/>
    <rect x="18" y="15" width="1" height="1" fill="rgba(150,55,0,1)"/>
    <rect x="19" y="15" width="1" height="1" fill="rgba(96,38,13,1)"/>
    <rect x="20" y="15" width="1" height="1" fill="rgba(150,186,255,1)"/>
    <rect x="21" y="15" width="1" height="1" fill="rgba(146,183,255,1)"/>
    <rect x="22" y="15" width="1" height="1" fill="rgba(143,182,255,1)"/>
    <rect x="23" y="15" width="1" height="1" fill="rgba(139,180,255,1)"/>
    <rect x="24" y="15" width="1" height="1" fill="rgba(136,177,255,1)"/>
    <rect x="25" y="15" width="1" height="1" fill="rgba(133,176,255,1)"/>
    <rect x="26" y="15" width="1" height="1" fill="rgba(131,173,255,1)"/>
    <rect x="27" y="15" width="1" height="1" fill="rgba(127,171,255,1)"/>
    <rect x="0" y="16" width="1" height="1" fill="rgba(129,171,255,1)"/>
    <rect x="1" y="16" width="1" height="1" fill="rgba(131,174,255,1)"/>
    <rect x="2" y="16" width="1" height="1" fill="rgba(134,175,255,1)"/>
    <rect x="3" y="16" width="1" height="1" fill="rgba(138,179,255,1)"/>
    <rect x="4" y="16" width="1" height="1" fill="rgba(142,181,255,1)"/>
    <rect x="5" y="16" width="1" height="1" fill="rgba(146,184,255,1)"/>
    <rect x="6" y="16" width="1" height="1" fill="rgba(150,186,255,1)"/>
    <rect x="7" y="16" width="1" height="1" fill="rgba(152,188,255,1)"/>
    <rect x="8" y="16" width="1" height="1" fill="rgba(156,190,255,1)"/>
    <rect x="9" y="16" width="1" height="1" fill="rgba(18,4,0,1)"/>
    <rect x="10" y="16" width="1" height="1" fill="rgba(80,23,5,1)"/>
    <rect x="11" y="16" width="1" height="1" fill="rgba(132,34,0,1)"/>
    <rect x="12" y="16" width="1" height="1" fill="rgba(150,55,0,1)"/>
    <rect x="13" y="16" width="1" height="1" fill="rgba(122,32,0,1)"/>
    <rect x="14" y="16" width="1" height="1" fill="rgba(94,14,0,1)"/>
    <rect x="15" y="16" width="1" height="1" fill="rgba(107,24,0,1)"/>
    <rect x="16" y="16" width="1" height="1" fill="rgba(150,55,0,1)"/>
    <rect x="17" y="16" width="1" height="1" fill="rgba(151,58,0,1)"/>
    <rect x="18" y="16" width="1" height="1" fill="rgba(65,18,3,1)"/>
    <rect x="19" y="16" width="1" height="1" fill="rgba(158,191,255,1)"/>
    <rect x="20" y="16" width="1" height="1" fill="rgba(155,189,255,1)"/>
    <rect x="21" y="16" width="1" height="1" fill="rgba(150,187,255,1)"/>
    <rect x="22" y="16" width="1" height="1" fill="rgba(147,184,255,1)"/>
    <rect x="23" y="16" width="1" height="1" fill="rgba(143,182,255,1)"/>
    <rect x="24" y="16" width="1" height="1" fill="rgba(139,179,255,1)"/>
    <rect x="25" y="16" width="1" height="1" fill="rgba(136,177,255,1)"/>
    <rect x="26" y="16" width="1" height="1" fill="rgba(132,175,255,1)"/>
    <rect x="27" y="16" width="1" height="1" fill="rgba(130,172,255,1)"/>
    <rect x="0" y="17" width="1" height="1" fill="rgba(129,173,255,1)"/>
    <rect x="1" y="17" width="1" height="1" fill="rgba(133,175,255,1)"/>
    <rect x="2" y="17" width="1" height="1" fill="rgba(137,178,255,1)"/>
    <rect x="3" y="17" width="1" height="1" fill="rgba(141,180,255,1)"/>
    <rect x="4" y="17" width="1" height="1" fill="rgba(145,183,255,1)"/>
    <rect x="5" y="17" width="1" height="1" fill="rgba(149,185,255,1)"/>
    <rect x="6" y="17" width="1" height="1" fill="rgba(154,189,255,1)"/>
    <rect x="7" y="17" width="1" height="1" fill="rgba(158,191,255,1)"/>
    <rect x="8" y="17" width="1" height="1" fill="rgba(160,193,255,1)"/>
    <rect x="9" y="17" width="1" height="1" fill="rgba(165,196,255,1)"/>
    <rect x="10" y="17" width="1" height="1" fill="rgba(30,7,0,1)"/>
    <rect x="11" y="17" width="1" height="1" fill="rgba(122,21,0,1)"/>
    <rect x="12" y="17" width="1" height="1" fill="rgba(144,48,0,1)"/>
    <rect x="13" y="17" width="1" height="1" fill="rgba(150,57,0,1)"/>
    <rect x="14" y="17" width="1" height="1" fill="rgba(151,58,0,1)"/>
    <rect x="15" y="17" width="2" height="1" fill="rgba(150,57,0,1)"/>
    <rect x="17" y="17" width="1" height="1" fill="rgba(60,18,3,1)"/>
    <rect x="18" y="17" width="1" height="1" fill="rgba(165,196,255,1)"/>
    <rect x="19" y="17" width="1" height="1" fill="rgba(163,194,255,1)"/>
    <rect x="20" y="17" width="1" height="1" fill="rgba(159,193,255,1)"/>
    <rect x="21" y="17" width="1" height="1" fill="rgba(155,190,255,1)"/>
    <rect x="22" y="17" width="1" height="1" fill="rgba(151,187,255,1)"/>
    <rect x="23" y="17" width="1" height="1" fill="rgba(147,185,255,1)"/>
    <rect x="24" y="17" width="1" height="1" fill="rgba(143,182,255,1)"/>
    <rect x="25" y="17" width="1" height="1" fill="rgba(138,178,255,1)"/>
    <rect x="26" y="17" width="1" height="1" fill="rgba(135,176,255,1)"/>
    <rect x="27" y="17" width="1" height="1" fill="rgba(131,175,255,1)"/>
    <rect x="0" y="18" width="1" height="1" fill="rgba(132,174,255,1)"/>
    <rect x="1" y="18" width="1" height="1" fill="rgba(136,177,255,1)"/>
    <rect x="2" y="18" width="1" height="1" fill="rgba(140,180,255,1)"/>
    <rect x="3" y="18" width="1" height="1" fill="rgba(145,183,255,1)"/>
    <rect x="4" y="18" width="1" height="1" fill="rgba(149,186,255,1)"/>
    <rect x="5" y="18" width="1" height="1" fill="rgba(154,188,255,1)"/>
    <rect x="6" y="18" width="1" height="1" fill="rgba(157,191,255,1)"/>
    <rect x="7" y="18" width="1" height="1" fill="rgba(162,194,255,1)"/>
    <rect x="8" y="18" width="1" height="1" fill="rgba(165,197,255,1)"/>
    <rect x="9" y="18" width="1" height="1" fill="rgba(169,199,255,1)"/>
    <rect x="10" y="18" width="1" height="1" fill="rgba(172,201,255,1)"/>
    <rect x="11" y="18" width="1" height="1" fill="rgba(43,11,0,1)"/>
    <rect x="12" y="18" width="1" height="1" fill="rgba(97,13,0,1)"/>
    <rect x="13" y="18" width="2" height="1" fill="rgba(150,57,0,1)"/>
    <rect x="15" y="18" width="1" height="1" fill="rgba(134,42,0,1)"/>
    <rect x="16" y="18" width="1" height="1" fill="rgba(44,11,0,1)"/>
    <rect x="17" y="18" width="1" height="1" fill="rgba(174,202,255,1)"/>
    <rect x="18" y="18" width="1" height="1" fill="rgba(171,201,255,1)"/>
    <rect x="19" y="18" width="1" height="1" fill="rgba(168,197,255,1)"/>
    <rect x="20" y="18" width="1" height="1" fill="rgba(163,196,255,1)"/>
    <rect x="21" y="18" width="1" height="1" fill="rgba(160,192,255,1)"/>
    <rect x="22" y="18" width="1" height="1" fill="rgba(155,189,255,1)"/>
    <rect x="23" y="18" width="1" height="1" fill="rgba(151,186,255,1)"/>
    <rect x="24" y="18" width="1" height="1" fill="rgba(146,184,255,1)"/>
    <rect x="25" y="18" width="1" height="1" fill="rgba(142,180,255,1)"/>
    <rect x="26" y="18" width="1" height="1" fill="rgba(137,178,255,1)"/>
    <rect x="27" y="18" width="1" height="1" fill="rgba(133,175,255,1)"/>
    <rect x="0" y="19" width="1" height="1" fill="rgba(133,176,255,1)"/>
    <rect x="1" y="19" width="1" height="1" fill="rgba(139,179,255,1)"/>
    <rect x="2" y="19" width="1" height="1" fill="rgba(143,182,255,1)"/>
    <rect x="3" y="19" width="1" height="1" fill="rgba(148,185,255,1)"/>
    <rect x="4" y="19" width="1" height="1" fill="rgba(153,187,255,1)"/>
    <rect x="5" y="19" width="1" height="1" fill="rgba(158,192,255,1)"/>
    <rect x="6" y="19" width="1" height="1" fill="rgba(162,194,255,1)"/>
    <rect x="7" y="19" width="1" height="1" fill="rgba(167,197,255,1)"/>
    <rect x="8" y="19" width="1" height="1" fill="rgba(172,200,255,1)"/>
    <rect x="9" y="19" width="1" height="1" fill="rgba(174,203,255,1)"/>
    <rect x="10" y="19" width="1" height="1" fill="rgba(178,204,255,1)"/>
    <rect x="11" y="19" width="1" height="1" fill="rgba(30,7,0,1)"/>
    <rect x="12" y="19" width="1" height="1" fill="rgba(132,34,0,1)"/>
    <rect x="13" y="19" width="1" height="1" fill="rgba(150,55,0,1)"/>
    <rect x="14" y="19" width="1" height="1" fill="rgba(129,39,0,1)"/>
    <rect x="15" y="19" width="1" height="1" fill="rgba(105,23,0,1)"/>
    <rect x="16" y="19" width="1" height="1" fill="rgba(72,24,6,1)"/>
    <rect x="17" y="19" width="1" height="1" fill="rgba(179,205,255,1)"/>
    <rect x="18" y="19" width="1" height="1" fill="rgba(176,203,255,1)"/>
    <rect x="19" y="19" width="1" height="1" fill="rgba(172,201,255,1)"/>
    <rect x="20" y="19" width="1" height="1" fill="rgba(169,199,255,1)"/>
    <rect x="21" y="19" width="1" height="1" fill="rgba(164,195,255,1)"/>
    <rect x="22" y="19" width="1" height="1" fill="rgba(159,192,255,1)"/>
    <rect x="23" y="19" width="1" height="1" fill="rgba(154,189,255,1)"/>
    <rect x="24" y="19" width="1" height="1" fill="rgba(149,186,255,1)"/>
    <rect x="25" y="19" width="1" height="1" fill="rgba(145,183,255,1)"/>
    <rect x="26" y="19" width="1" height="1" fill="rgba(140,179,255,1)"/>
    <rect x="27" y="19" width="1" height="1" fill="rgba(136,177,255,1)"/>
    <rect x="0" y="20" width="1" height="1" fill="rgba(136,177,255,1)"/>
    <rect x="1" y="20" width="1" height="1" fill="rgba(141,180,255,1)"/>
    <rect x="2" y="20" width="1" height="1" fill="rgba(146,183,255,1)"/>
    <rect x="3" y="20" width="1" height="1" fill="rgba(151,186,255,1)"/>
    <rect x="4" y="20" width="1" height="1" fill="rgba(156,190,255,1)"/>
    <rect x="5" y="20" width="1" height="1" fill="rgba(162,194,255,1)"/>
    <rect x="6" y="20" width="1" height="1" fill="rgba(167,197,255,1)"/>
    <rect x="7" y="20" width="1" height="1" fill="rgba(171,200,255,1)"/>
    <rect x="8" y="20" width="1" height="1" fill="rgba(44,10,0,1)"/>
    <rect x="9" y="20" width="1" height="1" fill="rgba(31,6,0,1)"/>
    <rect x="10" y="20" width="1" height="1" fill="rgba(28,4,0,1)"/>
    <rect x="11" y="20" width="1" height="1" fill="rgba(122,21,0,1)"/>
    <rect x="12" y="20" width="1" height="1" fill="rgba(141,46,0,1)"/>
    <rect x="13" y="20" width="2" height="1" fill="rgba(148,53,0,1)"/>
    <rect x="15" y="20" width="2" height="1" fill="rgba(151,58,0,1)"/>
    <rect x="17" y="20" width="1" height="1" fill="rgba(139,32,0,1)"/>
    <rect x="18" y="20" width="2" height="1" fill="rgba(77,0,0,1)"/>
    <rect x="20" y="20" width="1" height="1" fill="rgba(173,201,255,1)"/>
    <rect x="21" y="20" width="1" height="1" fill="rgba(169,198,255,1)"/>
    <rect x="22" y="20" width="1" height="1" fill="rgba(162,194,255,1)"/>
    <rect x="23" y="20" width="1" height="1" fill="rgba(157,191,255,1)"/>
    <rect x="24" y="20" width="1" height="1" fill="rgba(153,188,255,1)"/>
    <rect x="25" y="20" width="1" height="1" fill="rgba(147,184,255,1)"/>
    <rect x="26" y="20" width="1" height="1" fill="rgba(142,182,255,1)"/>
    <rect x="27" y="20" width="1" height="1" fill="rgba(137,178,255,1)"/>
    <rect x="0" y="21" width="1" height="1" fill="rgba(139,178,255,1)"/>
    <rect x="1" y="21" width="1" height="1" fill="rgba(143,182,255,1)"/>
    <rect x="2" y="21" width="1" height="1" fill="rgba(148,185,255,1)"/>
    <rect x="3" y="21" width="1" height="1" fill="rgba(154,189,255,1)"/>
    <rect x="4" y="21" width="1" height="1" fill="rgba(159,192,255,1)"/>
    <rect x="5" y="21" width="1" height="1" fill="rgba(165,196,255,1)"/>
    <rect x="6" y="21" width="1" height="1" fill="rgba(44,10,0,1)"/>
    <rect x="7" y="21" width="1" height="1" fill="rgba(27,4,0,1)"/>
    <rect x="8" y="21" width="1" height="1" fill="rgba(79,23,5,1)"/>
    <rect x="9" y="21" width="1" height="1" fill="rgba(84,0,0,1)"/>
    <rect x="10" y="21" width="1" height="1" fill="rgba(122,21,0,1)"/>
    <rect x="11" y="21" width="1" height="1" fill="rgba(141,46,0,1)"/>
    <rect x="12" y="21" width="1" height="1" fill="rgba(150,57,0,1)"/>
    <rect x="13" y="21" width="2" height="1" fill="rgba(151,58,0,1)"/>
    <rect x="15" y="21" width="1" height="1" fill="rgba(150,57,0,1)"/>
    <rect x="16" y="21" width="1" height="1" fill="rgba(151,58,0,1)"/>
    <rect x="17" y="21" width="1" height="1" fill="rgba(150,57,0,1)"/>
    <rect x="18" y="21" width="2" height="1" fill="rgba(139,32,0,1)"/>
    <rect x="20" y="21" width="1" height="1" fill="rgba(77,0,0,1)"/>
    <rect x="21" y="21" width="1" height="1" fill="rgba(171,201,255,1)"/>
    <rect x="22" y="21" width="1" height="1" fill="rgba(166,197,255,1)"/>
    <rect x="23" y="21" width="1" height="1" fill="rgba(160,193,255,1)"/>
    <rect x="24" y="21" width="1" height="1" fill="rgba(155,190,255,1)"/>
    <rect x="25" y="21" width="1" height="1" fill="rgba(150,186,255,1)"/>
    <rect x="26" y="21" width="1" height="1" fill="rgba(144,183,255,1)"/>
    <rect x="27" y="21" width="1" height="1" fill="rgba(140,179,255,1)"/>
    <rect x="0" y="22" width="1" height="1" fill="rgba(140,179,255,1)"/>
    <rect x="1" y="22" width="1" height="1" fill="rgba(145,183,255,1)"/>
    <rect x="2" y="22" width="1" height="1" fill="rgba(150,186,255,1)"/>
    <rect x="3" y="22" width="1" height="1" fill="rgba(156,191,255,1)"/>
    <rect x="4" y="22" width="1" height="1" fill="rgba(162,194,255,1)"/>
    <rect x="5" y="22" width="1" height="1" fill="rgba(44,10,0,1)"/>
    <rect x="6" y="22" width="1" height="1" fill="rgba(81,23,6,1)"/>
    <rect x="7" y="22" width="1" height="1" fill="rgba(142,57,26,1)"/>
    <rect x="8" y="22" width="1" height="1" fill="rgba(139,49,0,1)"/>
    <rect x="9" y="22" width="1" height="1" fill="rgba(146,51,0,1)"/>
    <rect x="10" y="22" width="7" height="1" fill="rgba(151,58,0,1)"/>
    <rect x="17" y="22" width="3" height="1" fill="rgba(150,57,0,1)"/>
    <rect x="20" y="22" width="1" height="1" fill="rgba(139,32,0,1)"/>
    <rect x="21" y="22" width="1" height="1" fill="rgba(77,0,0,1)"/>
    <rect x="22" y="22" width="1" height="1" fill="rgba(169,199,255,1)"/>
    <rect x="23" y="22" width="1" height="1" fill="rgba(164,195,255,1)"/>
    <rect x="24" y="22" width="1" height="1" fill="rgba(157,191,255,1)"/>
    <rect x="25" y="22" width="1" height="1" fill="rgba(152,187,255,1)"/>
    <rect x="26" y="22" width="1" height="1" fill="rgba(147,184,255,1)"/>
    <rect x="27" y="22" width="1" height="1" fill="rgba(141,181,255,1)"/>
    <rect x="0" y="23" width="1" height="1" fill="rgba(142,181,255,1)"/>
    <rect x="1" y="23" width="1" height="1" fill="rgba(147,183,255,1)"/>
    <rect x="2" y="23" width="1" height="1" fill="rgba(152,187,255,1)"/>
    <rect x="3" y="23" width="1" height="1" fill="rgba(158,191,255,1)"/>
    <rect x="4" y="23" width="1" height="1" fill="rgba(164,196,255,1)"/>
    <rect x="5" y="23" width="1" height="1" fill="rgba(32,5,0,1)"/>
    <rect x="6" y="23" width="1" height="1" fill="rgba(100,33,11,1)"/>
    <rect x="7" y="23" width="1" height="1" fill="rgba(139,40,0,1)"/>
    <rect x="8" y="23" width="5" height="1" fill="rgba(150,57,0,1)"/>
    <rect x="13" y="23" width="2" height="1" fill="rgba(151,58,0,1)"/>
    <rect x="15" y="23" width="4" height="1" fill="rgba(150,57,0,1)"/>
    <rect x="19" y="23" width="1" height="1" fill="rgba(151,58,0,1)"/>
    <rect x="20" y="23" width="1" height="1" fill="rgba(150,57,0,1)"/>
    <rect x="21" y="23" width="1" height="1" fill="rgba(139,34,0,1)"/>
    <rect x="22" y="23" width="1" height="1" fill="rgba(77,0,0,1)"/>
    <rect x="23" y="23" width="1" height="1" fill="rgba(166,197,255,1)"/>
    <rect x="24" y="23" width="1" height="1" fill="rgba(159,193,255,1)"/>
    <rect x="25" y="23" width="1" height="1" fill="rgba(154,189,255,1)"/>
    <rect x="26" y="23" width="1" height="1" fill="rgba(148,185,255,1)"/>
    <rect x="27" y="23" width="1" height="1" fill="rgba(143,182,255,1)"/>
    <rect x="0" y="24" width="1" height="1" fill="rgba(143,181,255,1)"/>
    <rect x="1" y="24" width="1" height="1" fill="rgba(149,185,255,1)"/>
    <rect x="2" y="24" width="1" height="1" fill="rgba(153,189,255,1)"/>
    <rect x="3" y="24" width="1" height="1" fill="rgba(161,193,255,1)"/>
    <rect x="4" y="24" width="1" height="1" fill="rgba(44,10,0,1)"/>
    <rect x="5" y="24" width="1" height="1" fill="rgba(74,18,5,1)"/>
    <rect x="6" y="24" width="1" height="1" fill="rgba(125,21,0,1)"/>
    <rect x="7" y="24" width="1" height="1" fill="rgba(150,57,0,1)"/>
    <rect x="8" y="24" width="1" height="1" fill="rgba(88,20,0,1)"/>
    <rect x="9" y="24" width="2" height="1" fill="rgba(150,55,0,1)"/>
    <rect x="11" y="24" width="1" height="1" fill="rgba(150,57,0,1)"/>
    <rect x="12" y="24" width="1" height="1" fill="rgba(148,53,0,1)"/>
    <rect x="13" y="24" width="1" height="1" fill="rgba(150,55,0,1)"/>
    <rect x="14" y="24" width="1" height="1" fill="rgba(150,57,0,1)"/>
    <rect x="15" y="24" width="1" height="1" fill="rgba(151,58,0,1)"/>
    <rect x="16" y="24" width="1" height="1" fill="rgba(150,57,0,1)"/>
    <rect x="17" y="24" width="1" height="1" fill="rgba(151,58,0,1)"/>
    <rect x="18" y="24" width="1" height="1" fill="rgba(150,57,0,1)"/>
    <rect x="19" y="24" width="1" height="1" fill="rgba(104,19,0,1)"/>
    <rect x="20" y="24" width="1" height="1" fill="rgba(151,58,0,1)"/>
    <rect x="21" y="24" width="1" height="1" fill="rgba(139,34,0,1)"/>
    <rect x="22" y="24" width="1" height="1" fill="rgba(77,0,0,1)"/>
    <rect x="23" y="24" width="1" height="1" fill="rgba(168,198,255,1)"/>
    <rect x="24" y="24" width="1" height="1" fill="rgba(161,193,255,1)"/>
    <rect x="25" y="24" width="1" height="1" fill="rgba(155,189,255,1)"/>
    <rect x="26" y="24" width="1" height="1" fill="rgba(149,185,255,1)"/>
    <rect x="27" y="24" width="1" height="1" fill="rgba(143,182,255,1)"/>
    <rect x="0" y="25" width="1" height="1" fill="rgba(143,182,255,1)"/>
    <rect x="1" y="25" width="1" height="1" fill="rgba(148,185,255,1)"/>
    <rect x="2" y="25" width="1" height="1" fill="rgba(155,189,255,1)"/>
    <rect x="3" y="25" width="1" height="1" fill="rgba(162,194,255,1)"/>
    <rect x="4" y="25" width="1" height="1" fill="rgba(32,7,0,1)"/>
    <rect x="5" y="25" width="1" height="1" fill="rgba(75,18,5,1)"/>
    <rect x="6" y="25" width="1" height="1" fill="rgba(144,48,0,1)"/>
    <rect x="7" y="25" width="1" height="1" fill="rgba(150,57,0,1)"/>
    <rect x="8" y="25" width="1" height="1" fill="rgba(51,11,1,1)"/>
    <rect x="9" y="25" width="1" height="1" fill="rgba(115,26,0,1)"/>
    <rect x="10" y="25" width="1" height="1" fill="rgba(149,57,0,1)"/>
    <rect x="11" y="25" width="1" height="1" fill="rgba(148,53,0,1)"/>
    <rect x="12" y="25" width="1" height="1" fill="rgba(122,21,0,1)"/>
    <rect x="13" y="25" width="2" height="1" fill="rgba(148,53,0,1)"/>
    <rect x="15" y="25" width="2" height="1" fill="rgba(150,55,0,1)"/>
    <rect x="17" y="25" width="1" height="1" fill="rgba(122,21,0,1)"/>
    <rect x="18" y="25" width="1" height="1" fill="rgba(150,57,0,1)"/>
    <rect x="19" y="25" width="1" height="1" fill="rgba(77,21,5,1)"/>
    <rect x="20" y="25" width="1" height="1" fill="rgba(124,31,0,1)"/>
    <rect x="21" y="25" width="1" height="1" fill="rgba(139,34,0,1)"/>
    <rect x="22" y="25" width="1" height="1" fill="rgba(77,0,0,1)"/>
    <rect x="23" y="25" width="1" height="1" fill="rgba(168,198,255,1)"/>
    <rect x="24" y="25" width="1" height="1" fill="rgba(162,194,255,1)"/>
    <rect x="25" y="25" width="1" height="1" fill="rgba(156,191,255,1)"/>
    <rect x="26" y="25" width="1" height="1" fill="rgba(149,186,255,1)"/>
    <rect x="27" y="25" width="1" height="1" fill="rgba(145,182,255,1)"/>
    <rect x="0" y="26" width="1" height="1" fill="rgba(144,183,255,1)"/>
    <rect x="1" y="26" width="1" height="1" fill="rgba(149,186,255,1)"/>
    <rect x="2" y="26" width="1" height="1" fill="rgba(155,190,255,1)"/>
    <rect x="3" y="26" width="1" height="1" fill="rgba(162,194,255,1)"/>
    <rect x="4" y="26" width="1" height="1" fill="rgba(21,4,0,1)"/>
    <rect x="5" y="26" width="1" height="1" fill="rgba(82,23,6,1)"/>
    <rect x="6" y="26" width="1" height="1" fill="rgba(137,39,0,1)"/>
    <rect x="7" y="26" width="1" height="1" fill="rgba(150,57,0,1)"/>
    <rect x="8" y="26" width="1" height="1" fill="rgba(51,11,1,1)"/>
    <rect x="9" y="26" width="1" height="1" fill="rgba(97,31,10,1)"/>
    <rect x="10" y="26" width="4" height="1" fill="rgba(148,53,0,1)"/>
    <rect x="14" y="26" width="1" height="1" fill="rgba(131,27,0,1)"/>
    <rect x="15" y="26" width="1" height="1" fill="rgba(155,68,0,1)"/>
    <rect x="16" y="26" width="1" height="1" fill="rgba(148,53,0,1)"/>
    <rect x="17" y="26" width="2" height="1" fill="rgba(151,58,0,1)"/>
    <rect x="19" y="26" width="1" height="1" fill="rgba(81,22,5,1)"/>
    <rect x="20" y="26" width="1" height="1" fill="rgba(150,55,0,1)"/>
    <rect x="21" y="26" width="1" height="1" fill="rgba(139,33,0,1)"/>
    <rect x="22" y="26" width="1" height="1" fill="rgba(77,0,0,1)"/>
    <rect x="23" y="26" width="1" height="1" fill="rgba(169,199,255,1)"/>
    <rect x="24" y="26" width="1" height="1" fill="rgba(163,195,255,1)"/>
    <rect x="25" y="26" width="1" height="1" fill="rgba(156,190,255,1)"/>
    <rect x="26" y="26" width="1" height="1" fill="rgba(150,186,255,1)"/>
    <rect x="27" y="26" width="1" height="1" fill="rgba(144,183,255,1)"/>
    <rect x="0" y="27" width="1" height="1" fill="rgba(144,183,255,1)"/>
    <rect x="1" y="27" width="1" height="1" fill="rgba(149,186,255,1)"/>
    <rect x="2" y="27" width="1" height="1" fill="rgba(156,190,255,1)"/>
    <rect x="3" y="27" width="1" height="1" fill="rgba(162,195,255,1)"/>
    <rect x="4" y="27" width="1" height="1" fill="rgba(21,4,0,1)"/>
    <rect x="5" y="27" width="1" height="1" fill="rgba(82,23,6,1)"/>
    <rect x="6" y="27" width="1" height="1" fill="rgba(137,39,0,1)"/>
    <rect x="7" y="27" width="1" height="1" fill="rgba(150,55,0,1)"/>
    <rect x="8" y="27" width="1" height="1" fill="rgba(51,11,1,1)"/>
    <rect x="9" y="27" width="1" height="1" fill="rgba(97,31,10,1)"/>
    <rect x="10" y="27" width="2" height="1" fill="rgba(150,55,0,1)"/>
    <rect x="12" y="27" width="2" height="1" fill="rgba(148,53,0,1)"/>
    <rect x="14" y="27" width="1" height="1" fill="rgba(125,21,0,1)"/>
    <rect x="15" y="27" width="1" height="1" fill="rgba(158,78,6,1)"/>
    <rect x="16" y="27" width="1" height="1" fill="rgba(150,55,0,1)"/>
    <rect x="17" y="27" width="2" height="1" fill="rgba(150,57,0,1)"/>
    <rect x="19" y="27" width="1" height="1" fill="rgba(80,22,5,1)"/>
    <rect x="20" y="27" width="1" height="1" fill="rgba(150,55,0,1)"/>
    <rect x="21" y="27" width="1" height="1" fill="rgba(139,32,0,1)"/>
    <rect x="22" y="27" width="1" height="1" fill="rgba(77,0,0,1)"/>
    <rect x="23" y="27" width="1" height="1" fill="rgba(170,199,255,1)"/>
    <rect x="24" y="27" width="1" height="1" fill="rgba(162,194,255,1)"/>
    <rect x="25" y="27" width="1" height="1" fill="rgba(156,190,255,1)"/>
    <rect x="26" y="27" width="1" height="1" fill="rgba(150,186,255,1)"/>
    <rect x="27" y="27" width="1" height="1" fill="rgba(144,183,255,1)"/>
  </g>
</svg>