<?xml version="1.0" encoding="UTF-8"?>
<!-- Generated from: Baseball Cap Purple.png -->
<!-- Dimensions: 37x37 pixels (108 merged rects) -->
<!-- Rect size: 1 -->
<svg xmlns="http://www.w3.org/2000/svg" viewBox="0 0 37 37">
  <style>
    rect { shape-rendering: crispEdges; }
    svg { image-rendering: pixelated; image-rendering: -moz-crisp-edges; image-rendering: crisp-edges; }
  </style>
  <g id="pixels">
    <rect x="0" y="0" width="1" height="1" fill="rgba(255,255,255,0)"/>
    <rect x="15" y="3" width="1" height="1" fill="rgba(101,16,131,1)"/>
    <rect x="16" y="3" width="3" height="1" fill="rgba(99,14,132,1)"/>
    <rect x="19" y="3" width="2" height="1" fill="rgba(98,13,131,1)"/>
    <rect x="21" y="3" width="2" height="1" fill="rgba(99,14,132,1)"/>
    <rect x="23" y="3" width="1" height="1" fill="rgba(98,13,131,1)"/>
    <rect x="15" y="4" width="1" height="1" fill="rgba(101,16,131,1)"/>
    <rect x="16" y="4" width="3" height="1" fill="rgba(99,14,132,1)"/>
    <rect x="19" y="4" width="2" height="1" fill="rgba(98,13,131,1)"/>
    <rect x="21" y="4" width="2" height="1" fill="rgba(99,14,132,1)"/>
    <rect x="23" y="4" width="1" height="1" fill="rgba(98,13,131,1)"/>
    <rect x="14" y="5" width="1" height="1" fill="rgba(137,25,170,1)"/>
    <rect x="15" y="5" width="1" height="1" fill="rgba(133,15,179,1)"/>
    <rect x="16" y="5" width="2" height="1" fill="rgba(118,14,156,1)"/>
    <rect x="18" y="5" width="1" height="1" fill="rgba(104,13,134,1)"/>
    <rect x="19" y="5" width="5" height="1" fill="rgba(118,14,156,1)"/>
    <rect x="24" y="5" width="2" height="1" fill="rgba(105,11,137,1)"/>
    <rect x="12" y="6" width="2" height="1" fill="rgba(121,14,164,1)"/>
    <rect x="14" y="6" width="1" height="1" fill="rgba(138,21,179,1)"/>
    <rect x="15" y="6" width="1" height="1" fill="rgba(130,15,179,1)"/>
    <rect x="16" y="6" width="2" height="1" fill="rgba(99,14,132,1)"/>
    <rect x="18" y="6" width="1" height="1" fill="rgba(140,25,175,1)"/>
    <rect x="19" y="6" width="1" height="1" fill="rgba(134,16,177,1)"/>
    <rect x="20" y="6" width="1" height="1" fill="rgba(130,15,173,1)"/>
    <rect x="21" y="6" width="2" height="1" fill="rgba(136,18,179,1)"/>
    <rect x="23" y="6" width="1" height="1" fill="rgba(127,17,167,1)"/>
    <rect x="24" y="6" width="2" height="1" fill="rgba(113,14,154,1)"/>
    <rect x="26" y="6" width="1" height="1" fill="rgba(101,13,134,1)"/>
    <rect x="11" y="7" width="1" height="1" fill="rgba(111,12,152,1)"/>
    <rect x="12" y="7" width="2" height="1" fill="rgba(133,15,179,1)"/>
    <rect x="14" y="7" width="1" height="1" fill="rgba(136,18,179,1)"/>
    <rect x="15" y="7" width="1" height="1" fill="rgba(130,15,179,1)"/>
    <rect x="16" y="7" width="2" height="1" fill="rgba(99,14,132,1)"/>
    <rect x="18" y="7" width="3" height="1" fill="rgba(136,18,179,1)"/>
    <rect x="21" y="7" width="2" height="1" fill="rgba(137,17,181,1)"/>
    <rect x="23" y="7" width="1" height="1" fill="rgba(136,18,179,1)"/>
    <rect x="24" y="7" width="2" height="1" fill="rgba(123,14,167,1)"/>
    <rect x="26" y="7" width="1" height="1" fill="rgba(117,15,155,1)"/>
    <rect x="27" y="7" width="1" height="1" fill="rgba(102,14,132,1)"/>
    <rect x="11" y="8" width="1" height="1" fill="rgba(118,14,156,1)"/>
    <rect x="12" y="8" width="2" height="1" fill="rgba(137,17,181,1)"/>
    <rect x="14" y="8" width="1" height="1" fill="rgba(136,18,179,1)"/>
    <rect x="15" y="8" width="1" height="1" fill="rgba(130,15,179,1)"/>
    <rect x="16" y="8" width="2" height="1" fill="rgba(100,12,133,1)"/>
    <rect x="18" y="8" width="1" height="1" fill="rgba(133,15,179,1)"/>
    <rect x="19" y="8" width="1" height="1" fill="rgba(136,18,179,1)"/>
    <rect x="20" y="8" width="1" height="1" fill="rgba(137,19,180,1)"/>
    <rect x="21" y="8" width="2" height="1" fill="rgba(132,17,175,1)"/>
    <rect x="23" y="8" width="1" height="1" fill="rgba(136,18,179,1)"/>
    <rect x="24" y="8" width="3" height="1" fill="rgba(118,14,156,1)"/>
    <rect x="27" y="8" width="1" height="1" fill="rgba(99,14,132,1)"/>
    <rect x="11" y="9" width="1" height="1" fill="rgba(118,14,156,1)"/>
    <rect x="12" y="9" width="2" height="1" fill="rgba(137,17,181,1)"/>
    <rect x="14" y="9" width="1" height="1" fill="rgba(136,18,179,1)"/>
    <rect x="15" y="9" width="1" height="1" fill="rgba(130,15,179,1)"/>
    <rect x="16" y="9" width="2" height="1" fill="rgba(100,12,133,1)"/>
    <rect x="18" y="9" width="1" height="1" fill="rgba(133,15,179,1)"/>
    <rect x="19" y="9" width="1" height="1" fill="rgba(136,18,179,1)"/>
    <rect x="20" y="9" width="1" height="1" fill="rgba(137,19,180,1)"/>
    <rect x="21" y="9" width="2" height="1" fill="rgba(132,17,175,1)"/>
    <rect x="23" y="9" width="1" height="1" fill="rgba(136,18,179,1)"/>
    <rect x="24" y="9" width="3" height="1" fill="rgba(118,14,156,1)"/>
    <rect x="27" y="9" width="1" height="1" fill="rgba(99,14,132,1)"/>
    <rect x="11" y="10" width="1" height="1" fill="rgba(118,14,156,1)"/>
    <rect x="12" y="10" width="2" height="1" fill="rgba(137,17,181,1)"/>
    <rect x="14" y="10" width="1" height="1" fill="rgba(136,18,179,1)"/>
    <rect x="15" y="10" width="1" height="1" fill="rgba(130,15,179,1)"/>
    <rect x="16" y="10" width="2" height="1" fill="rgba(100,12,133,1)"/>
    <rect x="18" y="10" width="1" height="1" fill="rgba(133,15,179,1)"/>
    <rect x="19" y="10" width="5" height="1" fill="rgba(136,18,179,1)"/>
    <rect x="24" y="10" width="2" height="1" fill="rgba(127,17,167,1)"/>
    <rect x="26" y="10" width="1" height="1" fill="rgba(118,14,156,1)"/>
    <rect x="27" y="10" width="1" height="1" fill="rgba(99,11,132,1)"/>
    <rect x="11" y="11" width="1" height="1" fill="rgba(117,15,155,1)"/>
    <rect x="12" y="11" width="4" height="1" fill="rgba(130,15,179,1)"/>
    <rect x="16" y="11" width="2" height="1" fill="rgba(100,12,133,1)"/>
    <rect x="18" y="11" width="2" height="1" fill="rgba(133,15,179,1)"/>
    <rect x="20" y="11" width="1" height="1" fill="rgba(136,18,179,1)"/>
    <rect x="21" y="11" width="2" height="1" fill="rgba(137,20,178,1)"/>
    <rect x="23" y="11" width="1" height="1" fill="rgba(136,18,179,1)"/>
    <rect x="24" y="11" width="2" height="1" fill="rgba(128,18,168,1)"/>
    <rect x="26" y="11" width="1" height="1" fill="rgba(117,15,155,1)"/>
    <rect x="27" y="11" width="1" height="1" fill="rgba(99,14,132,1)"/>
    <rect x="28" y="11" width="2" height="1" fill="rgba(123,19,156,1)"/>
    <rect x="30" y="11" width="1" height="1" fill="rgba(112,13,153,1)"/>
    <rect x="31" y="11" width="1" height="1" fill="rgba(117,15,155,1)"/>
    <rect x="11" y="12" width="1" height="1" fill="rgba(111,12,152,1)"/>
    <rect x="12" y="12" width="2" height="1" fill="rgba(97,12,130,1)"/>
    <rect x="14" y="12" width="1" height="1" fill="rgba(99,11,132,1)"/>
    <rect x="15" y="12" width="1" height="1" fill="rgba(99,14,132,1)"/>
    <rect x="16" y="12" width="2" height="1" fill="rgba(133,15,179,1)"/>
    <rect x="18" y="12" width="6" height="1" fill="rgba(99,11,132,1)"/>
    <rect x="24" y="12" width="2" height="1" fill="rgba(97,12,130,1)"/>
    <rect x="26" y="12" width="2" height="1" fill="rgba(98,13,131,1)"/>
    <rect x="28" y="12" width="3" height="1" fill="rgba(99,14,132,1)"/>
    <rect x="31" y="12" width="1" height="1" fill="rgba(103,15,133,1)"/>
    <rect x="32" y="12" width="1" height="1" fill="rgba(101,13,134,1)"/>
    <rect x="11" y="13" width="1" height="1" fill="rgba(111,12,152,1)"/>
    <rect x="12" y="13" width="2" height="1" fill="rgba(97,12,130,1)"/>
    <rect x="14" y="13" width="1" height="1" fill="rgba(99,11,132,1)"/>
    <rect x="15" y="13" width="1" height="1" fill="rgba(99,14,132,1)"/>
    <rect x="16" y="13" width="2" height="1" fill="rgba(133,15,179,1)"/>
    <rect x="18" y="13" width="6" height="1" fill="rgba(99,11,132,1)"/>
    <rect x="24" y="13" width="2" height="1" fill="rgba(97,12,130,1)"/>
    <rect x="26" y="13" width="2" height="1" fill="rgba(98,13,131,1)"/>
    <rect x="28" y="13" width="3" height="1" fill="rgba(99,14,132,1)"/>
    <rect x="31" y="13" width="1" height="1" fill="rgba(103,15,133,1)"/>
    <rect x="32" y="13" width="1" height="1" fill="rgba(101,13,134,1)"/>
  </g>
</svg>