<?xml version="1.0" encoding="UTF-8"?>
<!-- Generated from: Human Latte.png -->
<!-- Dimensions: 28x28 pixels (551 merged rects) -->
<!-- Rect size: 1 -->
<svg xmlns="http://www.w3.org/2000/svg" viewBox="0 0 28 28">
  <style>
    rect { shape-rendering: crispEdges; }
    svg { image-rendering: pixelated; image-rendering: -moz-crisp-edges; image-rendering: crisp-edges; }
  </style>
  <g id="pixels">
    <rect x="0" y="0" width="3" height="1" fill="rgba(113,162,255,1)"/>
    <rect x="3" y="0" width="7" height="1" fill="rgba(114,162,255,1)"/>
    <rect x="10" y="0" width="12" height="1" fill="rgba(114,163,255,1)"/>
    <rect x="22" y="0" width="6" height="1" fill="rgba(114,162,255,1)"/>
    <rect x="0" y="1" width="3" height="1" fill="rgba(113,162,255,1)"/>
    <rect x="3" y="1" width="7" height="1" fill="rgba(114,162,255,1)"/>
    <rect x="10" y="1" width="12" height="1" fill="rgba(114,163,255,1)"/>
    <rect x="22" y="1" width="6" height="1" fill="rgba(114,162,255,1)"/>
    <rect x="0" y="2" width="7" height="1" fill="rgba(114,162,255,1)"/>
    <rect x="7" y="2" width="17" height="1" fill="rgba(114,163,255,1)"/>
    <rect x="24" y="2" width="4" height="1" fill="rgba(114,162,255,1)"/>
    <rect x="0" y="3" width="4" height="1" fill="rgba(114,162,255,1)"/>
    <rect x="4" y="3" width="5" height="1" fill="rgba(114,163,255,1)"/>
    <rect x="9" y="3" width="5" height="1" fill="rgba(115,163,255,1)"/>
    <rect x="14" y="3" width="2" height="1" fill="rgba(116,163,255,1)"/>
    <rect x="16" y="3" width="6" height="1" fill="rgba(115,163,255,1)"/>
    <rect x="22" y="3" width="3" height="1" fill="rgba(114,163,255,1)"/>
    <rect x="25" y="3" width="3" height="1" fill="rgba(114,162,255,1)"/>
    <rect x="0" y="4" width="3" height="1" fill="rgba(114,162,255,1)"/>
    <rect x="3" y="4" width="1" height="1" fill="rgba(114,163,255,1)"/>
    <rect x="4" y="4" width="1" height="1" fill="rgba(116,163,255,1)"/>
    <rect x="5" y="4" width="3" height="1" fill="rgba(117,163,255,1)"/>
    <rect x="8" y="4" width="4" height="1" fill="rgba(118,164,255,1)"/>
    <rect x="12" y="4" width="1" height="1" fill="rgba(94,48,0,1)"/>
    <rect x="13" y="4" width="1" height="1" fill="rgba(119,60,2,1)"/>
    <rect x="14" y="4" width="1" height="1" fill="rgba(157,94,32,1)"/>
    <rect x="15" y="4" width="1" height="1" fill="rgba(168,103,44,1)"/>
    <rect x="16" y="4" width="1" height="1" fill="rgba(168,103,43,1)"/>
    <rect x="17" y="4" width="5" height="1" fill="rgba(118,164,255,1)"/>
    <rect x="22" y="4" width="2" height="1" fill="rgba(117,163,255,1)"/>
    <rect x="24" y="4" width="2" height="1" fill="rgba(115,163,255,1)"/>
    <rect x="26" y="4" width="2" height="1" fill="rgba(114,163,255,1)"/>
    <rect x="0" y="5" width="2" height="1" fill="rgba(114,163,255,1)"/>
    <rect x="2" y="5" width="1" height="1" fill="rgba(115,163,255,1)"/>
    <rect x="3" y="5" width="1" height="1" fill="rgba(116,163,255,1)"/>
    <rect x="4" y="5" width="2" height="1" fill="rgba(117,163,255,1)"/>
    <rect x="6" y="5" width="3" height="1" fill="rgba(118,164,255,1)"/>
    <rect x="9" y="5" width="1" height="1" fill="rgba(119,165,255,1)"/>
    <rect x="10" y="5" width="2" height="1" fill="rgba(50,26,0,1)"/>
    <rect x="12" y="5" width="5" height="1" fill="rgba(194,127,64,1)"/>
    <rect x="17" y="5" width="1" height="1" fill="rgba(168,103,43,1)"/>
    <rect x="18" y="5" width="2" height="1" fill="rgba(119,165,255,1)"/>
    <rect x="20" y="5" width="4" height="1" fill="rgba(118,164,255,1)"/>
    <rect x="24" y="5" width="2" height="1" fill="rgba(117,163,255,1)"/>
    <rect x="26" y="5" width="1" height="1" fill="rgba(115,163,255,1)"/>
    <rect x="27" y="5" width="1" height="1" fill="rgba(114,163,255,1)"/>
    <rect x="0" y="6" width="2" height="1" fill="rgba(115,163,255,1)"/>
    <rect x="2" y="6" width="2" height="1" fill="rgba(117,163,255,1)"/>
    <rect x="4" y="6" width="3" height="1" fill="rgba(118,164,255,1)"/>
    <rect x="7" y="6" width="2" height="1" fill="rgba(119,167,255,1)"/>
    <rect x="9" y="6" width="1" height="1" fill="rgba(85,43,0,1)"/>
    <rect x="10" y="6" width="2" height="1" fill="rgba(177,109,49,1)"/>
    <rect x="12" y="6" width="2" height="1" fill="rgba(194,127,64,1)"/>
    <rect x="14" y="6" width="2" height="1" fill="rgba(222,167,129,1)"/>
    <rect x="16" y="6" width="1" height="1" fill="rgba(239,190,166,1)"/>
    <rect x="17" y="6" width="1" height="1" fill="rgba(194,127,64,1)"/>
    <rect x="18" y="6" width="1" height="1" fill="rgba(168,103,43,1)"/>
    <rect x="19" y="6" width="1" height="1" fill="rgba(120,167,255,1)"/>
    <rect x="20" y="6" width="2" height="1" fill="rgba(119,167,255,1)"/>
    <rect x="22" y="6" width="1" height="1" fill="rgba(119,166,255,1)"/>
    <rect x="23" y="6" width="1" height="1" fill="rgba(119,165,255,1)"/>
    <rect x="24" y="6" width="1" height="1" fill="rgba(118,164,255,1)"/>
    <rect x="25" y="6" width="2" height="1" fill="rgba(117,163,255,1)"/>
    <rect x="27" y="6" width="1" height="1" fill="rgba(116,163,255,1)"/>
    <rect x="0" y="7" width="4" height="1" fill="rgba(117,163,255,1)"/>
    <rect x="4" y="7" width="1" height="1" fill="rgba(118,164,255,1)"/>
    <rect x="5" y="7" width="2" height="1" fill="rgba(119,167,255,1)"/>
    <rect x="7" y="7" width="1" height="1" fill="rgba(120,167,255,1)"/>
    <rect x="8" y="7" width="1" height="1" fill="rgba(85,43,0,1)"/>
    <rect x="9" y="7" width="1" height="1" fill="rgba(131,70,11,1)"/>
    <rect x="10" y="7" width="2" height="1" fill="rgba(177,108,49,1)"/>
    <rect x="12" y="7" width="1" height="1" fill="rgba(194,127,64,1)"/>
    <rect x="13" y="7" width="1" height="1" fill="rgba(209,154,108,1)"/>
    <rect x="14" y="7" width="1" height="1" fill="rgba(222,167,129,1)"/>
    <rect x="15" y="7" width="1" height="1" fill="rgba(239,190,166,1)"/>
    <rect x="16" y="7" width="1" height="1" fill="rgba(247,209,192,1)"/>
    <rect x="17" y="7" width="1" height="1" fill="rgba(239,190,166,1)"/>
    <rect x="18" y="7" width="1" height="1" fill="rgba(194,127,64,1)"/>
    <rect x="19" y="7" width="1" height="1" fill="rgba(168,103,43,1)"/>
    <rect x="20" y="7" width="2" height="1" fill="rgba(121,168,255,1)"/>
    <rect x="22" y="7" width="1" height="1" fill="rgba(120,167,255,1)"/>
    <rect x="23" y="7" width="1" height="1" fill="rgba(119,167,255,1)"/>
    <rect x="24" y="7" width="1" height="1" fill="rgba(119,165,255,1)"/>
    <rect x="25" y="7" width="2" height="1" fill="rgba(118,164,255,1)"/>
    <rect x="27" y="7" width="1" height="1" fill="rgba(117,163,255,1)"/>
    <rect x="0" y="8" width="3" height="1" fill="rgba(117,163,255,1)"/>
    <rect x="3" y="8" width="1" height="1" fill="rgba(118,164,255,1)"/>
    <rect x="4" y="8" width="1" height="1" fill="rgba(119,167,255,1)"/>
    <rect x="5" y="8" width="1" height="1" fill="rgba(120,167,255,1)"/>
    <rect x="6" y="8" width="1" height="1" fill="rgba(121,168,255,1)"/>
    <rect x="7" y="8" width="1" height="1" fill="rgba(123,168,255,1)"/>
    <rect x="8" y="8" width="1" height="1" fill="rgba(101,51,0,1)"/>
    <rect x="9" y="8" width="1" height="1" fill="rgba(131,70,11,1)"/>
    <rect x="10" y="8" width="2" height="1" fill="rgba(177,108,49,1)"/>
    <rect x="12" y="8" width="1" height="1" fill="rgba(194,127,64,1)"/>
    <rect x="13" y="8" width="1" height="1" fill="rgba(197,130,67,1)"/>
    <rect x="14" y="8" width="1" height="1" fill="rgba(210,147,85,1)"/>
    <rect x="15" y="8" width="1" height="1" fill="rgba(210,146,85,1)"/>
    <rect x="16" y="8" width="1" height="1" fill="rgba(210,148,86,1)"/>
    <rect x="17" y="8" width="1" height="1" fill="rgba(196,129,66,1)"/>
    <rect x="18" y="8" width="1" height="1" fill="rgba(194,127,64,1)"/>
    <rect x="19" y="8" width="1" height="1" fill="rgba(168,103,44,1)"/>
    <rect x="20" y="8" width="2" height="1" fill="rgba(124,169,255,1)"/>
    <rect x="22" y="8" width="2" height="1" fill="rgba(121,168,255,1)"/>
    <rect x="24" y="8" width="1" height="1" fill="rgba(119,167,255,1)"/>
    <rect x="25" y="8" width="1" height="1" fill="rgba(119,166,255,1)"/>
    <rect x="26" y="8" width="2" height="1" fill="rgba(118,164,255,1)"/>
    <rect x="0" y="9" width="2" height="1" fill="rgba(118,164,255,1)"/>
    <rect x="2" y="9" width="1" height="1" fill="rgba(118,166,255,1)"/>
    <rect x="3" y="9" width="1" height="1" fill="rgba(119,167,255,1)"/>
    <rect x="4" y="9" width="2" height="1" fill="rgba(123,168,255,1)"/>
    <rect x="6" y="9" width="1" height="1" fill="rgba(124,169,255,1)"/>
    <rect x="7" y="9" width="1" height="1" fill="rgba(125,169,255,1)"/>
    <rect x="8" y="9" width="1" height="1" fill="rgba(83,42,0,1)"/>
    <rect x="9" y="9" width="1" height="1" fill="rgba(130,69,10,1)"/>
    <rect x="10" y="9" width="2" height="1" fill="rgba(176,106,47,1)"/>
    <rect x="12" y="9" width="1" height="1" fill="rgba(196,129,66,1)"/>
    <rect x="13" y="9" width="1" height="1" fill="rgba(194,127,64,1)"/>
    <rect x="14" y="9" width="1" height="1" fill="rgba(205,142,81,1)"/>
    <rect x="15" y="9" width="1" height="1" fill="rgba(205,143,81,1)"/>
    <rect x="16" y="9" width="1" height="1" fill="rgba(196,129,66,1)"/>
    <rect x="17" y="9" width="1" height="1" fill="rgba(197,130,67,1)"/>
    <rect x="18" y="9" width="1" height="1" fill="rgba(196,129,67,1)"/>
    <rect x="19" y="9" width="1" height="1" fill="rgba(168,103,43,1)"/>
    <rect x="20" y="9" width="2" height="1" fill="rgba(126,170,255,1)"/>
    <rect x="22" y="9" width="1" height="1" fill="rgba(125,169,255,1)"/>
    <rect x="23" y="9" width="1" height="1" fill="rgba(124,169,255,1)"/>
    <rect x="24" y="9" width="1" height="1" fill="rgba(121,168,255,1)"/>
    <rect x="25" y="9" width="2" height="1" fill="rgba(119,167,255,1)"/>
    <rect x="27" y="9" width="1" height="1" fill="rgba(118,164,255,1)"/>
    <rect x="0" y="10" width="2" height="1" fill="rgba(118,166,255,1)"/>
    <rect x="2" y="10" width="1" height="1" fill="rgba(119,167,255,1)"/>
    <rect x="3" y="10" width="1" height="1" fill="rgba(120,167,255,1)"/>
    <rect x="4" y="10" width="1" height="1" fill="rgba(123,168,255,1)"/>
    <rect x="5" y="10" width="1" height="1" fill="rgba(125,169,255,1)"/>
    <rect x="6" y="10" width="1" height="1" fill="rgba(127,171,255,1)"/>
    <rect x="7" y="10" width="1" height="1" fill="rgba(128,172,255,1)"/>
    <rect x="8" y="10" width="1" height="1" fill="rgba(65,34,0,1)"/>
    <rect x="9" y="10" width="1" height="1" fill="rgba(130,69,10,1)"/>
    <rect x="10" y="10" width="2" height="1" fill="rgba(186,116,56,1)"/>
    <rect x="12" y="10" width="1" height="1" fill="rgba(186,119,58,1)"/>
    <rect x="13" y="10" width="1" height="1" fill="rgba(121,60,2,1)"/>
    <rect x="14" y="10" width="2" height="1" fill="rgba(196,129,66,1)"/>
    <rect x="16" y="10" width="1" height="1" fill="rgba(120,60,2,1)"/>
    <rect x="17" y="10" width="1" height="1" fill="rgba(146,83,24,1)"/>
    <rect x="18" y="10" width="1" height="1" fill="rgba(196,129,66,1)"/>
    <rect x="19" y="10" width="1" height="1" fill="rgba(168,103,43,1)"/>
    <rect x="20" y="10" width="2" height="1" fill="rgba(130,173,255,1)"/>
    <rect x="22" y="10" width="2" height="1" fill="rgba(126,170,255,1)"/>
    <rect x="24" y="10" width="1" height="1" fill="rgba(124,168,255,1)"/>
    <rect x="25" y="10" width="1" height="1" fill="rgba(121,168,255,1)"/>
    <rect x="26" y="10" width="1" height="1" fill="rgba(120,167,255,1)"/>
    <rect x="27" y="10" width="1" height="1" fill="rgba(119,167,255,1)"/>
    <rect x="0" y="11" width="2" height="1" fill="rgba(118,166,255,1)"/>
    <rect x="2" y="11" width="1" height="1" fill="rgba(119,167,255,1)"/>
    <rect x="3" y="11" width="1" height="1" fill="rgba(120,167,255,1)"/>
    <rect x="4" y="11" width="1" height="1" fill="rgba(123,168,255,1)"/>
    <rect x="5" y="11" width="1" height="1" fill="rgba(125,169,255,1)"/>
    <rect x="6" y="11" width="1" height="1" fill="rgba(127,171,255,1)"/>
    <rect x="7" y="11" width="1" height="1" fill="rgba(128,172,255,1)"/>
    <rect x="8" y="11" width="1" height="1" fill="rgba(65,34,0,1)"/>
    <rect x="9" y="11" width="1" height="1" fill="rgba(130,69,10,1)"/>
    <rect x="10" y="11" width="2" height="1" fill="rgba(186,116,56,1)"/>
    <rect x="12" y="11" width="1" height="1" fill="rgba(186,119,58,1)"/>
    <rect x="13" y="11" width="1" height="1" fill="rgba(121,60,2,1)"/>
    <rect x="14" y="11" width="2" height="1" fill="rgba(196,129,66,1)"/>
    <rect x="16" y="11" width="1" height="1" fill="rgba(120,60,2,1)"/>
    <rect x="17" y="11" width="1" height="1" fill="rgba(146,83,24,1)"/>
    <rect x="18" y="11" width="1" height="1" fill="rgba(196,129,66,1)"/>
    <rect x="19" y="11" width="1" height="1" fill="rgba(168,103,43,1)"/>
    <rect x="20" y="11" width="2" height="1" fill="rgba(130,173,255,1)"/>
    <rect x="22" y="11" width="2" height="1" fill="rgba(126,170,255,1)"/>
    <rect x="24" y="11" width="1" height="1" fill="rgba(124,168,255,1)"/>
    <rect x="25" y="11" width="1" height="1" fill="rgba(121,168,255,1)"/>
    <rect x="26" y="11" width="1" height="1" fill="rgba(120,167,255,1)"/>
    <rect x="27" y="11" width="1" height="1" fill="rgba(119,167,255,1)"/>
    <rect x="0" y="12" width="2" height="1" fill="rgba(119,167,255,1)"/>
    <rect x="2" y="12" width="1" height="1" fill="rgba(121,167,255,1)"/>
    <rect x="3" y="12" width="1" height="1" fill="rgba(123,168,255,1)"/>
    <rect x="4" y="12" width="1" height="1" fill="rgba(127,171,255,1)"/>
    <rect x="5" y="12" width="1" height="1" fill="rgba(128,172,255,1)"/>
    <rect x="6" y="12" width="1" height="1" fill="rgba(129,173,255,1)"/>
    <rect x="7" y="12" width="1" height="1" fill="rgba(167,103,44,1)"/>
    <rect x="8" y="12" width="1" height="1" fill="rgba(62,32,0,1)"/>
    <rect x="9" y="12" width="1" height="1" fill="rgba(130,69,10,1)"/>
    <rect x="10" y="12" width="2" height="1" fill="rgba(186,116,56,1)"/>
    <rect x="12" y="12" width="1" height="1" fill="rgba(189,121,60,1)"/>
    <rect x="13" y="12" width="1" height="1" fill="rgba(255,251,248,1)"/>
    <rect x="14" y="12" width="1" height="1" fill="rgba(175,109,50,1)"/>
    <rect x="15" y="12" width="1" height="1" fill="rgba(189,122,60,1)"/>
    <rect x="16" y="12" width="1" height="1" fill="rgba(255,251,249,1)"/>
    <rect x="17" y="12" width="1" height="1" fill="rgba(0,0,0,1)"/>
    <rect x="18" y="12" width="1" height="1" fill="rgba(179,113,53,1)"/>
    <rect x="19" y="12" width="1" height="1" fill="rgba(165,101,42,1)"/>
    <rect x="20" y="12" width="2" height="1" fill="rgba(132,174,255,1)"/>
    <rect x="22" y="12" width="1" height="1" fill="rgba(131,174,255,1)"/>
    <rect x="23" y="12" width="1" height="1" fill="rgba(129,173,255,1)"/>
    <rect x="24" y="12" width="1" height="1" fill="rgba(125,169,255,1)"/>
    <rect x="25" y="12" width="1" height="1" fill="rgba(124,168,255,1)"/>
    <rect x="26" y="12" width="1" height="1" fill="rgba(123,168,255,1)"/>
    <rect x="27" y="12" width="1" height="1" fill="rgba(120,167,255,1)"/>
    <rect x="0" y="13" width="2" height="1" fill="rgba(121,167,255,1)"/>
    <rect x="2" y="13" width="1" height="1" fill="rgba(123,168,255,1)"/>
    <rect x="3" y="13" width="1" height="1" fill="rgba(124,168,255,1)"/>
    <rect x="4" y="13" width="1" height="1" fill="rgba(128,172,255,1)"/>
    <rect x="5" y="13" width="1" height="1" fill="rgba(131,173,255,1)"/>
    <rect x="6" y="13" width="1" height="1" fill="rgba(133,176,255,1)"/>
    <rect x="7" y="13" width="1" height="1" fill="rgba(156,94,32,1)"/>
    <rect x="8" y="13" width="1" height="1" fill="rgba(47,24,0,1)"/>
    <rect x="9" y="13" width="1" height="1" fill="rgba(130,69,10,1)"/>
    <rect x="10" y="13" width="2" height="1" fill="rgba(183,114,55,1)"/>
    <rect x="12" y="13" width="1" height="1" fill="rgba(196,129,66,1)"/>
    <rect x="13" y="13" width="1" height="1" fill="rgba(193,125,63,1)"/>
    <rect x="14" y="13" width="2" height="1" fill="rgba(196,129,66,1)"/>
    <rect x="16" y="13" width="1" height="1" fill="rgba(194,127,64,1)"/>
    <rect x="17" y="13" width="1" height="1" fill="rgba(184,117,57,1)"/>
    <rect x="18" y="13" width="1" height="1" fill="rgba(196,129,66,1)"/>
    <rect x="19" y="13" width="1" height="1" fill="rgba(156,94,32,1)"/>
    <rect x="20" y="13" width="2" height="1" fill="rgba(136,178,255,1)"/>
    <rect x="22" y="13" width="1" height="1" fill="rgba(133,175,255,1)"/>
    <rect x="23" y="13" width="1" height="1" fill="rgba(132,174,255,1)"/>
    <rect x="24" y="13" width="1" height="1" fill="rgba(128,172,255,1)"/>
    <rect x="25" y="13" width="1" height="1" fill="rgba(125,169,255,1)"/>
    <rect x="26" y="13" width="1" height="1" fill="rgba(124,168,255,1)"/>
    <rect x="27" y="13" width="1" height="1" fill="rgba(123,168,255,1)"/>
    <rect x="0" y="14" width="2" height="1" fill="rgba(125,170,255,1)"/>
    <rect x="2" y="14" width="1" height="1" fill="rgba(126,171,255,1)"/>
    <rect x="3" y="14" width="1" height="1" fill="rgba(130,172,255,1)"/>
    <rect x="4" y="14" width="1" height="1" fill="rgba(134,176,255,1)"/>
    <rect x="5" y="14" width="1" height="1" fill="rgba(138,178,255,1)"/>
    <rect x="6" y="14" width="1" height="1" fill="rgba(141,180,255,1)"/>
    <rect x="7" y="14" width="1" height="1" fill="rgba(143,182,255,1)"/>
    <rect x="8" y="14" width="1" height="1" fill="rgba(47,24,0,1)"/>
    <rect x="9" y="14" width="1" height="1" fill="rgba(124,63,5,1)"/>
    <rect x="10" y="14" width="2" height="1" fill="rgba(183,114,55,1)"/>
    <rect x="12" y="14" width="1" height="1" fill="rgba(196,129,66,1)"/>
    <rect x="13" y="14" width="1" height="1" fill="rgba(196,129,67,1)"/>
    <rect x="14" y="14" width="5" height="1" fill="rgba(196,129,66,1)"/>
    <rect x="19" y="14" width="1" height="1" fill="rgba(156,94,32,1)"/>
    <rect x="20" y="14" width="2" height="1" fill="rgba(144,183,255,1)"/>
    <rect x="22" y="14" width="1" height="1" fill="rgba(141,180,255,1)"/>
    <rect x="23" y="14" width="1" height="1" fill="rgba(139,179,255,1)"/>
    <rect x="24" y="14" width="1" height="1" fill="rgba(133,176,255,1)"/>
    <rect x="25" y="14" width="1" height="1" fill="rgba(131,173,255,1)"/>
    <rect x="26" y="14" width="1" height="1" fill="rgba(128,172,255,1)"/>
    <rect x="27" y="14" width="1" height="1" fill="rgba(127,171,255,1)"/>
    <rect x="0" y="15" width="2" height="1" fill="rgba(126,170,255,1)"/>
    <rect x="2" y="15" width="1" height="1" fill="rgba(129,171,255,1)"/>
    <rect x="3" y="15" width="1" height="1" fill="rgba(131,175,255,1)"/>
    <rect x="4" y="15" width="1" height="1" fill="rgba(138,178,255,1)"/>
    <rect x="5" y="15" width="1" height="1" fill="rgba(141,180,255,1)"/>
    <rect x="6" y="15" width="1" height="1" fill="rgba(144,182,255,1)"/>
    <rect x="7" y="15" width="1" height="1" fill="rgba(148,185,255,1)"/>
    <rect x="8" y="15" width="1" height="1" fill="rgba(45,23,0,1)"/>
    <rect x="9" y="15" width="1" height="1" fill="rgba(125,65,6,1)"/>
    <rect x="10" y="15" width="2" height="1" fill="rgba(186,116,57,1)"/>
    <rect x="12" y="15" width="1" height="1" fill="rgba(197,130,67,1)"/>
    <rect x="13" y="15" width="1" height="1" fill="rgba(196,129,66,1)"/>
    <rect x="14" y="15" width="1" height="1" fill="rgba(22,12,0,1)"/>
    <rect x="15" y="15" width="1" height="1" fill="rgba(6,4,0,1)"/>
    <rect x="16" y="15" width="1" height="1" fill="rgba(0,0,0,1)"/>
    <rect x="17" y="15" width="2" height="1" fill="rgba(196,129,66,1)"/>
    <rect x="19" y="15" width="1" height="1" fill="rgba(147,86,26,1)"/>
    <rect x="20" y="15" width="2" height="1" fill="rgba(150,186,255,1)"/>
    <rect x="22" y="15" width="1" height="1" fill="rgba(146,183,255,1)"/>
    <rect x="23" y="15" width="1" height="1" fill="rgba(143,182,255,1)"/>
    <rect x="24" y="15" width="1" height="1" fill="rgba(136,177,255,1)"/>
    <rect x="25" y="15" width="1" height="1" fill="rgba(133,176,255,1)"/>
    <rect x="26" y="15" width="1" height="1" fill="rgba(131,173,255,1)"/>
    <rect x="27" y="15" width="1" height="1" fill="rgba(127,171,255,1)"/>
    <rect x="0" y="16" width="2" height="1" fill="rgba(129,171,255,1)"/>
    <rect x="2" y="16" width="1" height="1" fill="rgba(131,174,255,1)"/>
    <rect x="3" y="16" width="1" height="1" fill="rgba(134,175,255,1)"/>
    <rect x="4" y="16" width="1" height="1" fill="rgba(142,181,255,1)"/>
    <rect x="5" y="16" width="1" height="1" fill="rgba(146,184,255,1)"/>
    <rect x="6" y="16" width="1" height="1" fill="rgba(150,186,255,1)"/>
    <rect x="7" y="16" width="1" height="1" fill="rgba(152,188,255,1)"/>
    <rect x="8" y="16" width="1" height="1" fill="rgba(156,190,255,1)"/>
    <rect x="9" y="16" width="1" height="1" fill="rgba(43,23,0,1)"/>
    <rect x="10" y="16" width="2" height="1" fill="rgba(130,69,10,1)"/>
    <rect x="12" y="16" width="1" height="1" fill="rgba(186,116,56,1)"/>
    <rect x="13" y="16" width="1" height="1" fill="rgba(196,129,66,1)"/>
    <rect x="14" y="16" width="1" height="1" fill="rgba(164,100,40,1)"/>
    <rect x="15" y="16" width="1" height="1" fill="rgba(172,106,47,1)"/>
    <rect x="16" y="16" width="1" height="1" fill="rgba(196,129,66,1)"/>
    <rect x="17" y="16" width="1" height="1" fill="rgba(197,130,67,1)"/>
    <rect x="18" y="16" width="1" height="1" fill="rgba(117,58,0,1)"/>
    <rect x="19" y="16" width="1" height="1" fill="rgba(158,191,255,1)"/>
    <rect x="20" y="16" width="2" height="1" fill="rgba(155,189,255,1)"/>
    <rect x="22" y="16" width="1" height="1" fill="rgba(150,187,255,1)"/>
    <rect x="23" y="16" width="1" height="1" fill="rgba(147,184,255,1)"/>
    <rect x="24" y="16" width="1" height="1" fill="rgba(139,179,255,1)"/>
    <rect x="25" y="16" width="1" height="1" fill="rgba(136,177,255,1)"/>
    <rect x="26" y="16" width="1" height="1" fill="rgba(132,175,255,1)"/>
    <rect x="27" y="16" width="1" height="1" fill="rgba(130,172,255,1)"/>
    <rect x="0" y="17" width="2" height="1" fill="rgba(129,173,255,1)"/>
    <rect x="2" y="17" width="1" height="1" fill="rgba(133,175,255,1)"/>
    <rect x="3" y="17" width="1" height="1" fill="rgba(137,178,255,1)"/>
    <rect x="4" y="17" width="1" height="1" fill="rgba(145,183,255,1)"/>
    <rect x="5" y="17" width="1" height="1" fill="rgba(149,185,255,1)"/>
    <rect x="6" y="17" width="1" height="1" fill="rgba(154,189,255,1)"/>
    <rect x="7" y="17" width="1" height="1" fill="rgba(158,191,255,1)"/>
    <rect x="8" y="17" width="1" height="1" fill="rgba(160,193,255,1)"/>
    <rect x="9" y="17" width="1" height="1" fill="rgba(165,196,255,1)"/>
    <rect x="10" y="17" width="2" height="1" fill="rgba(60,31,0,1)"/>
    <rect x="12" y="17" width="1" height="1" fill="rgba(178,108,49,1)"/>
    <rect x="13" y="17" width="1" height="1" fill="rgba(193,125,63,1)"/>
    <rect x="14" y="17" width="1" height="1" fill="rgba(197,130,67,1)"/>
    <rect x="15" y="17" width="2" height="1" fill="rgba(196,129,66,1)"/>
    <rect x="17" y="17" width="1" height="1" fill="rgba(111,55,0,1)"/>
    <rect x="18" y="17" width="1" height="1" fill="rgba(165,196,255,1)"/>
    <rect x="19" y="17" width="1" height="1" fill="rgba(163,194,255,1)"/>
    <rect x="20" y="17" width="2" height="1" fill="rgba(159,193,255,1)"/>
    <rect x="22" y="17" width="1" height="1" fill="rgba(155,190,255,1)"/>
    <rect x="23" y="17" width="1" height="1" fill="rgba(151,187,255,1)"/>
    <rect x="24" y="17" width="1" height="1" fill="rgba(143,182,255,1)"/>
    <rect x="25" y="17" width="1" height="1" fill="rgba(138,178,255,1)"/>
    <rect x="26" y="17" width="1" height="1" fill="rgba(135,176,255,1)"/>
    <rect x="27" y="17" width="1" height="1" fill="rgba(131,175,255,1)"/>
    <rect x="0" y="18" width="2" height="1" fill="rgba(132,174,255,1)"/>
    <rect x="2" y="18" width="1" height="1" fill="rgba(136,177,255,1)"/>
    <rect x="3" y="18" width="1" height="1" fill="rgba(140,180,255,1)"/>
    <rect x="4" y="18" width="1" height="1" fill="rgba(149,186,255,1)"/>
    <rect x="5" y="18" width="1" height="1" fill="rgba(154,188,255,1)"/>
    <rect x="6" y="18" width="1" height="1" fill="rgba(157,191,255,1)"/>
    <rect x="7" y="18" width="1" height="1" fill="rgba(162,194,255,1)"/>
    <rect x="8" y="18" width="1" height="1" fill="rgba(165,197,255,1)"/>
    <rect x="9" y="18" width="1" height="1" fill="rgba(169,199,255,1)"/>
    <rect x="10" y="18" width="2" height="1" fill="rgba(172,201,255,1)"/>
    <rect x="12" y="18" width="1" height="1" fill="rgba(81,41,0,1)"/>
    <rect x="13" y="18" width="1" height="1" fill="rgba(165,99,40,1)"/>
    <rect x="14" y="18" width="1" height="1" fill="rgba(196,129,66,1)"/>
    <rect x="15" y="18" width="1" height="1" fill="rgba(187,119,58,1)"/>
    <rect x="16" y="18" width="1" height="1" fill="rgba(83,42,0,1)"/>
    <rect x="17" y="18" width="1" height="1" fill="rgba(174,202,255,1)"/>
    <rect x="18" y="18" width="1" height="1" fill="rgba(171,201,255,1)"/>
    <rect x="19" y="18" width="1" height="1" fill="rgba(168,197,255,1)"/>
    <rect x="20" y="18" width="2" height="1" fill="rgba(163,196,255,1)"/>
    <rect x="22" y="18" width="1" height="1" fill="rgba(160,192,255,1)"/>
    <rect x="23" y="18" width="1" height="1" fill="rgba(155,189,255,1)"/>
    <rect x="24" y="18" width="1" height="1" fill="rgba(146,184,255,1)"/>
    <rect x="25" y="18" width="1" height="1" fill="rgba(142,180,255,1)"/>
    <rect x="26" y="18" width="1" height="1" fill="rgba(137,178,255,1)"/>
    <rect x="27" y="18" width="1" height="1" fill="rgba(133,175,255,1)"/>
    <rect x="0" y="19" width="2" height="1" fill="rgba(133,176,255,1)"/>
    <rect x="2" y="19" width="1" height="1" fill="rgba(139,179,255,1)"/>
    <rect x="3" y="19" width="1" height="1" fill="rgba(143,182,255,1)"/>
    <rect x="4" y="19" width="1" height="1" fill="rgba(153,187,255,1)"/>
    <rect x="5" y="19" width="1" height="1" fill="rgba(158,192,255,1)"/>
    <rect x="6" y="19" width="1" height="1" fill="rgba(162,194,255,1)"/>
    <rect x="7" y="19" width="1" height="1" fill="rgba(167,197,255,1)"/>
    <rect x="8" y="19" width="1" height="1" fill="rgba(172,200,255,1)"/>
    <rect x="9" y="19" width="1" height="1" fill="rgba(174,203,255,1)"/>
    <rect x="10" y="19" width="2" height="1" fill="rgba(178,204,255,1)"/>
    <rect x="12" y="19" width="1" height="1" fill="rgba(60,31,0,1)"/>
    <rect x="13" y="19" width="1" height="1" fill="rgba(186,116,57,1)"/>
    <rect x="14" y="19" width="1" height="1" fill="rgba(182,115,55,1)"/>
    <rect x="15" y="19" width="1" height="1" fill="rgba(164,100,40,1)"/>
    <rect x="16" y="19" width="1" height="1" fill="rgba(126,68,8,1)"/>
    <rect x="17" y="19" width="1" height="1" fill="rgba(179,205,255,1)"/>
    <rect x="18" y="19" width="1" height="1" fill="rgba(176,203,255,1)"/>
    <rect x="19" y="19" width="1" height="1" fill="rgba(172,201,255,1)"/>
    <rect x="20" y="19" width="2" height="1" fill="rgba(169,199,255,1)"/>
    <rect x="22" y="19" width="1" height="1" fill="rgba(164,195,255,1)"/>
    <rect x="23" y="19" width="1" height="1" fill="rgba(159,192,255,1)"/>
    <rect x="24" y="19" width="1" height="1" fill="rgba(149,186,255,1)"/>
    <rect x="25" y="19" width="1" height="1" fill="rgba(145,183,255,1)"/>
    <rect x="26" y="19" width="1" height="1" fill="rgba(140,179,255,1)"/>
    <rect x="27" y="19" width="1" height="1" fill="rgba(136,177,255,1)"/>
    <rect x="0" y="20" width="2" height="1" fill="rgba(136,177,255,1)"/>
    <rect x="2" y="20" width="1" height="1" fill="rgba(141,180,255,1)"/>
    <rect x="3" y="20" width="1" height="1" fill="rgba(146,183,255,1)"/>
    <rect x="4" y="20" width="1" height="1" fill="rgba(156,190,255,1)"/>
    <rect x="5" y="20" width="1" height="1" fill="rgba(162,194,255,1)"/>
    <rect x="6" y="20" width="1" height="1" fill="rgba(167,197,255,1)"/>
    <rect x="7" y="20" width="1" height="1" fill="rgba(171,200,255,1)"/>
    <rect x="8" y="20" width="1" height="1" fill="rgba(81,41,0,1)"/>
    <rect x="9" y="20" width="1" height="1" fill="rgba(60,31,0,1)"/>
    <rect x="10" y="20" width="2" height="1" fill="rgba(56,28,0,1)"/>
    <rect x="12" y="20" width="1" height="1" fill="rgba(178,108,49,1)"/>
    <rect x="13" y="20" width="1" height="1" fill="rgba(186,116,57,1)"/>
    <rect x="14" y="20" width="1" height="1" fill="rgba(194,127,64,1)"/>
    <rect x="15" y="20" width="2" height="1" fill="rgba(197,130,67,1)"/>
    <rect x="17" y="20" width="1" height="1" fill="rgba(186,116,56,1)"/>
    <rect x="18" y="20" width="2" height="1" fill="rgba(150,84,26,1)"/>
    <rect x="20" y="20" width="2" height="1" fill="rgba(173,201,255,1)"/>
    <rect x="22" y="20" width="1" height="1" fill="rgba(169,198,255,1)"/>
    <rect x="23" y="20" width="1" height="1" fill="rgba(162,194,255,1)"/>
    <rect x="24" y="20" width="1" height="1" fill="rgba(153,188,255,1)"/>
    <rect x="25" y="20" width="1" height="1" fill="rgba(147,184,255,1)"/>
    <rect x="26" y="20" width="1" height="1" fill="rgba(142,182,255,1)"/>
    <rect x="27" y="20" width="1" height="1" fill="rgba(137,178,255,1)"/>
    <rect x="0" y="21" width="2" height="1" fill="rgba(136,177,255,1)"/>
    <rect x="2" y="21" width="1" height="1" fill="rgba(141,180,255,1)"/>
    <rect x="3" y="21" width="1" height="1" fill="rgba(146,183,255,1)"/>
    <rect x="4" y="21" width="1" height="1" fill="rgba(156,190,255,1)"/>
    <rect x="5" y="21" width="1" height="1" fill="rgba(162,194,255,1)"/>
    <rect x="6" y="21" width="1" height="1" fill="rgba(167,197,255,1)"/>
    <rect x="7" y="21" width="1" height="1" fill="rgba(171,200,255,1)"/>
    <rect x="8" y="21" width="1" height="1" fill="rgba(81,41,0,1)"/>
    <rect x="9" y="21" width="1" height="1" fill="rgba(60,31,0,1)"/>
    <rect x="10" y="21" width="2" height="1" fill="rgba(56,28,0,1)"/>
    <rect x="12" y="21" width="1" height="1" fill="rgba(178,108,49,1)"/>
    <rect x="13" y="21" width="1" height="1" fill="rgba(186,116,57,1)"/>
    <rect x="14" y="21" width="1" height="1" fill="rgba(194,127,64,1)"/>
    <rect x="15" y="21" width="2" height="1" fill="rgba(197,130,67,1)"/>
    <rect x="17" y="21" width="1" height="1" fill="rgba(186,116,56,1)"/>
    <rect x="18" y="21" width="2" height="1" fill="rgba(150,84,26,1)"/>
    <rect x="20" y="21" width="2" height="1" fill="rgba(173,201,255,1)"/>
    <rect x="22" y="21" width="1" height="1" fill="rgba(169,198,255,1)"/>
    <rect x="23" y="21" width="1" height="1" fill="rgba(162,194,255,1)"/>
    <rect x="24" y="21" width="1" height="1" fill="rgba(153,188,255,1)"/>
    <rect x="25" y="21" width="1" height="1" fill="rgba(147,184,255,1)"/>
    <rect x="26" y="21" width="1" height="1" fill="rgba(142,182,255,1)"/>
    <rect x="27" y="21" width="1" height="1" fill="rgba(137,178,255,1)"/>
    <rect x="0" y="22" width="2" height="1" fill="rgba(139,178,255,1)"/>
    <rect x="2" y="22" width="1" height="1" fill="rgba(143,182,255,1)"/>
    <rect x="3" y="22" width="1" height="1" fill="rgba(148,185,255,1)"/>
    <rect x="4" y="22" width="1" height="1" fill="rgba(159,192,255,1)"/>
    <rect x="5" y="22" width="1" height="1" fill="rgba(165,196,255,1)"/>
    <rect x="6" y="22" width="1" height="1" fill="rgba(81,41,0,1)"/>
    <rect x="7" y="22" width="1" height="1" fill="rgba(55,28,0,1)"/>
    <rect x="8" y="22" width="1" height="1" fill="rgba(130,69,10,1)"/>
    <rect x="9" y="22" width="1" height="1" fill="rgba(155,89,29,1)"/>
    <rect x="10" y="22" width="2" height="1" fill="rgba(178,108,49,1)"/>
    <rect x="12" y="22" width="1" height="1" fill="rgba(186,116,56,1)"/>
    <rect x="13" y="22" width="1" height="1" fill="rgba(196,129,66,1)"/>
    <rect x="14" y="22" width="1" height="1" fill="rgba(197,130,67,1)"/>
    <rect x="15" y="22" width="1" height="1" fill="rgba(196,129,66,1)"/>
    <rect x="16" y="22" width="1" height="1" fill="rgba(197,130,67,1)"/>
    <rect x="17" y="22" width="1" height="1" fill="rgba(196,129,66,1)"/>
    <rect x="18" y="22" width="2" height="1" fill="rgba(186,116,56,1)"/>
    <rect x="20" y="22" width="2" height="1" fill="rgba(150,84,26,1)"/>
    <rect x="22" y="22" width="1" height="1" fill="rgba(171,201,255,1)"/>
    <rect x="23" y="22" width="1" height="1" fill="rgba(166,197,255,1)"/>
    <rect x="24" y="22" width="1" height="1" fill="rgba(155,190,255,1)"/>
    <rect x="25" y="22" width="1" height="1" fill="rgba(150,186,255,1)"/>
    <rect x="26" y="22" width="1" height="1" fill="rgba(144,183,255,1)"/>
    <rect x="27" y="22" width="1" height="1" fill="rgba(140,179,255,1)"/>
    <rect x="0" y="23" width="2" height="1" fill="rgba(140,179,255,1)"/>
    <rect x="2" y="23" width="1" height="1" fill="rgba(145,183,255,1)"/>
    <rect x="3" y="23" width="1" height="1" fill="rgba(150,186,255,1)"/>
    <rect x="4" y="23" width="1" height="1" fill="rgba(162,194,255,1)"/>
    <rect x="5" y="23" width="1" height="1" fill="rgba(81,41,0,1)"/>
    <rect x="6" y="23" width="1" height="1" fill="rgba(131,70,11,1)"/>
    <rect x="7" y="23" width="1" height="1" fill="rgba(178,108,49,1)"/>
    <rect x="8" y="23" width="1" height="1" fill="rgba(179,108,49,1)"/>
    <rect x="9" y="23" width="1" height="1" fill="rgba(191,122,61,1)"/>
    <rect x="10" y="23" width="7" height="1" fill="rgba(197,130,67,1)"/>
    <rect x="17" y="23" width="3" height="1" fill="rgba(196,129,66,1)"/>
    <rect x="20" y="23" width="2" height="1" fill="rgba(186,116,56,1)"/>
    <rect x="22" y="23" width="1" height="1" fill="rgba(150,84,26,1)"/>
    <rect x="23" y="23" width="1" height="1" fill="rgba(169,199,255,1)"/>
    <rect x="24" y="23" width="1" height="1" fill="rgba(157,191,255,1)"/>
    <rect x="25" y="23" width="1" height="1" fill="rgba(152,187,255,1)"/>
    <rect x="26" y="23" width="1" height="1" fill="rgba(147,184,255,1)"/>
    <rect x="27" y="23" width="1" height="1" fill="rgba(141,181,255,1)"/>
    <rect x="0" y="24" width="2" height="1" fill="rgba(143,181,255,1)"/>
    <rect x="2" y="24" width="1" height="1" fill="rgba(149,185,255,1)"/>
    <rect x="3" y="24" width="1" height="1" fill="rgba(153,189,255,1)"/>
    <rect x="4" y="24" width="1" height="1" fill="rgba(81,41,0,1)"/>
    <rect x="5" y="24" width="1" height="1" fill="rgba(130,69,10,1)"/>
    <rect x="6" y="24" width="1" height="1" fill="rgba(179,108,49,1)"/>
    <rect x="7" y="24" width="1" height="1" fill="rgba(197,130,67,1)"/>
    <rect x="8" y="24" width="1" height="1" fill="rgba(136,75,16,1)"/>
    <rect x="9" y="24" width="1" height="1" fill="rgba(196,129,66,1)"/>
    <rect x="10" y="24" width="2" height="1" fill="rgba(196,129,67,1)"/>
    <rect x="12" y="24" width="1" height="1" fill="rgba(196,129,66,1)"/>
    <rect x="13" y="24" width="1" height="1" fill="rgba(194,127,64,1)"/>
    <rect x="14" y="24" width="1" height="1" fill="rgba(196,129,66,1)"/>
    <rect x="15" y="24" width="1" height="1" fill="rgba(197,130,67,1)"/>
    <rect x="16" y="24" width="1" height="1" fill="rgba(196,129,66,1)"/>
    <rect x="17" y="24" width="1" height="1" fill="rgba(197,130,67,1)"/>
    <rect x="18" y="24" width="1" height="1" fill="rgba(196,129,66,1)"/>
    <rect x="19" y="24" width="1" height="1" fill="rgba(162,97,37,1)"/>
    <rect x="20" y="24" width="2" height="1" fill="rgba(197,130,67,1)"/>
    <rect x="22" y="24" width="1" height="1" fill="rgba(186,116,57,1)"/>
    <rect x="23" y="24" width="1" height="1" fill="rgba(151,85,27,1)"/>
    <rect x="24" y="24" width="1" height="1" fill="rgba(161,193,255,1)"/>
    <rect x="25" y="24" width="1" height="1" fill="rgba(155,189,255,1)"/>
    <rect x="26" y="24" width="1" height="1" fill="rgba(149,185,255,1)"/>
    <rect x="27" y="24" width="1" height="1" fill="rgba(143,182,255,1)"/>
    <rect x="0" y="25" width="2" height="1" fill="rgba(143,182,255,1)"/>
    <rect x="2" y="25" width="1" height="1" fill="rgba(148,185,255,1)"/>
    <rect x="3" y="25" width="1" height="1" fill="rgba(155,189,255,1)"/>
    <rect x="4" y="25" width="1" height="1" fill="rgba(62,32,0,1)"/>
    <rect x="5" y="25" width="1" height="1" fill="rgba(132,69,11,1)"/>
    <rect x="6" y="25" width="1" height="1" fill="rgba(179,108,49,1)"/>
    <rect x="7" y="25" width="1" height="1" fill="rgba(196,129,66,1)"/>
    <rect x="8" y="25" width="1" height="1" fill="rgba(95,47,0,1)"/>
    <rect x="9" y="25" width="1" height="1" fill="rgba(170,103,44,1)"/>
    <rect x="10" y="25" width="2" height="1" fill="rgba(196,129,66,1)"/>
    <rect x="12" y="25" width="1" height="1" fill="rgba(194,127,64,1)"/>
    <rect x="13" y="25" width="1" height="1" fill="rgba(178,108,49,1)"/>
    <rect x="14" y="25" width="1" height="1" fill="rgba(194,127,64,1)"/>
    <rect x="15" y="25" width="1" height="1" fill="rgba(196,129,66,1)"/>
    <rect x="16" y="25" width="1" height="1" fill="rgba(196,129,67,1)"/>
    <rect x="17" y="25" width="1" height="1" fill="rgba(178,108,49,1)"/>
    <rect x="18" y="25" width="1" height="1" fill="rgba(196,129,66,1)"/>
    <rect x="19" y="25" width="1" height="1" fill="rgba(127,66,7,1)"/>
    <rect x="20" y="25" width="2" height="1" fill="rgba(177,109,49,1)"/>
    <rect x="22" y="25" width="1" height="1" fill="rgba(186,116,57,1)"/>
    <rect x="23" y="25" width="1" height="1" fill="rgba(151,85,27,1)"/>
    <rect x="24" y="25" width="1" height="1" fill="rgba(162,194,255,1)"/>
    <rect x="25" y="25" width="1" height="1" fill="rgba(156,191,255,1)"/>
    <rect x="26" y="25" width="1" height="1" fill="rgba(149,186,255,1)"/>
    <rect x="27" y="25" width="1" height="1" fill="rgba(145,182,255,1)"/>
    <rect x="0" y="26" width="2" height="1" fill="rgba(144,183,255,1)"/>
    <rect x="2" y="26" width="1" height="1" fill="rgba(149,186,255,1)"/>
    <rect x="3" y="26" width="1" height="1" fill="rgba(155,190,255,1)"/>
    <rect x="4" y="26" width="1" height="1" fill="rgba(47,24,0,1)"/>
    <rect x="5" y="26" width="1" height="1" fill="rgba(132,69,11,1)"/>
    <rect x="6" y="26" width="1" height="1" fill="rgba(178,108,49,1)"/>
    <rect x="7" y="26" width="1" height="1" fill="rgba(196,129,66,1)"/>
    <rect x="8" y="26" width="1" height="1" fill="rgba(95,47,0,1)"/>
    <rect x="9" y="26" width="1" height="1" fill="rgba(145,80,22,1)"/>
    <rect x="10" y="26" width="4" height="1" fill="rgba(194,127,64,1)"/>
    <rect x="14" y="26" width="1" height="1" fill="rgba(183,113,53,1)"/>
    <rect x="15" y="26" width="1" height="1" fill="rgba(199,134,72,1)"/>
    <rect x="16" y="26" width="1" height="1" fill="rgba(194,127,64,1)"/>
    <rect x="17" y="26" width="2" height="1" fill="rgba(197,130,67,1)"/>
    <rect x="19" y="26" width="1" height="1" fill="rgba(130,68,10,1)"/>
    <rect x="20" y="26" width="2" height="1" fill="rgba(196,129,67,1)"/>
    <rect x="22" y="26" width="1" height="1" fill="rgba(186,116,57,1)"/>
    <rect x="23" y="26" width="1" height="1" fill="rgba(151,85,27,1)"/>
    <rect x="24" y="26" width="1" height="1" fill="rgba(163,195,255,1)"/>
    <rect x="25" y="26" width="1" height="1" fill="rgba(156,190,255,1)"/>
    <rect x="26" y="26" width="1" height="1" fill="rgba(150,186,255,1)"/>
    <rect x="27" y="26" width="1" height="1" fill="rgba(144,183,255,1)"/>
    <rect x="0" y="27" width="2" height="1" fill="rgba(144,183,255,1)"/>
    <rect x="2" y="27" width="1" height="1" fill="rgba(149,186,255,1)"/>
    <rect x="3" y="27" width="1" height="1" fill="rgba(156,190,255,1)"/>
    <rect x="4" y="27" width="1" height="1" fill="rgba(47,24,0,1)"/>
    <rect x="5" y="27" width="1" height="1" fill="rgba(132,69,11,1)"/>
    <rect x="6" y="27" width="1" height="1" fill="rgba(178,108,49,1)"/>
    <rect x="7" y="27" width="1" height="1" fill="rgba(196,129,67,1)"/>
    <rect x="8" y="27" width="1" height="1" fill="rgba(95,47,0,1)"/>
    <rect x="9" y="27" width="1" height="1" fill="rgba(145,80,22,1)"/>
    <rect x="10" y="27" width="3" height="1" fill="rgba(196,129,66,1)"/>
    <rect x="13" y="27" width="1" height="1" fill="rgba(194,127,64,1)"/>
    <rect x="14" y="27" width="1" height="1" fill="rgba(179,108,49,1)"/>
    <rect x="15" y="27" width="1" height="1" fill="rgba(202,139,76,1)"/>
    <rect x="16" y="27" width="3" height="1" fill="rgba(196,129,66,1)"/>
    <rect x="19" y="27" width="1" height="1" fill="rgba(130,67,9,1)"/>
    <rect x="20" y="27" width="2" height="1" fill="rgba(196,129,66,1)"/>
    <rect x="22" y="27" width="1" height="1" fill="rgba(186,116,56,1)"/>
    <rect x="23" y="27" width="1" height="1" fill="rgba(151,85,27,1)"/>
    <rect x="24" y="27" width="1" height="1" fill="rgba(162,194,255,1)"/>
    <rect x="25" y="27" width="1" height="1" fill="rgba(156,190,255,1)"/>
    <rect x="26" y="27" width="1" height="1" fill="rgba(150,186,255,1)"/>
    <rect x="27" y="27" width="1" height="1" fill="rgba(144,183,255,1)"/>
  </g>
</svg>