<?xml version="1.0" encoding="UTF-8"?>
<!-- Generated from: Royal Red.png -->
<!-- Dimensions: 28x28 pixels (62 merged rects) -->
<!-- Rect size: 1 -->
<svg xmlns="http://www.w3.org/2000/svg" viewBox="0 0 28 28">
  <style>
    rect { shape-rendering: crispEdges; }
    svg { image-rendering: pixelated; image-rendering: -moz-crisp-edges; image-rendering: crisp-edges; }
  </style>
  <g id="pixels">
    <rect x="6" y="19" width="1" height="1" fill="rgba(125,0,5,1)"/>
    <rect x="7" y="19" width="1" height="1" fill="rgba(125,1,0,1)"/>
    <rect x="8" y="19" width="1" height="1" fill="rgba(125,0,2,1)"/>
    <rect x="9" y="19" width="2" height="1" fill="rgba(58,0,0,1)"/>
    <rect x="17" y="19" width="1" height="1" fill="rgba(144,0,2,1)"/>
    <rect x="18" y="19" width="1" height="1" fill="rgba(147,0,2,1)"/>
    <rect x="19" y="19" width="1" height="1" fill="rgba(58,0,0,1)"/>
    <rect x="4" y="20" width="1" height="1" fill="rgba(56,2,1,1)"/>
    <rect x="5" y="20" width="1" height="1" fill="rgba(211,0,1,1)"/>
    <rect x="6" y="20" width="2" height="1" fill="rgba(255,0,0,1)"/>
    <rect x="8" y="20" width="1" height="1" fill="rgba(255,0,4,1)"/>
    <rect x="9" y="20" width="1" height="1" fill="rgba(254,5,0,1)"/>
    <rect x="10" y="20" width="1" height="1" fill="rgba(253,6,0,1)"/>
    <rect x="11" y="20" width="1" height="1" fill="rgba(253,4,0,1)"/>
    <rect x="12" y="20" width="1" height="1" fill="rgba(125,0,2,1)"/>
    <rect x="16" y="20" width="1" height="1" fill="rgba(127,0,0,1)"/>
    <rect x="17" y="20" width="1" height="1" fill="rgba(253,11,0,1)"/>
    <rect x="18" y="20" width="1" height="1" fill="rgba(249,17,0,1)"/>
    <rect x="19" y="20" width="1" height="1" fill="rgba(255,4,0,1)"/>
    <rect x="20" y="20" width="1" height="1" fill="rgba(255,0,0,1)"/>
    <rect x="3" y="21" width="1" height="1" fill="rgba(141,1,9,1)"/>
    <rect x="4" y="21" width="1" height="1" fill="rgba(211,1,0,1)"/>
    <rect x="5" y="21" width="1" height="1" fill="rgba(254,5,0,1)"/>
    <rect x="9" y="21" width="1" height="1" fill="rgba(125,1,0,1)"/>
    <rect x="10" y="21" width="1" height="1" fill="rgba(255,0,0,1)"/>
    <rect x="11" y="21" width="1" height="1" fill="rgba(254,5,0,1)"/>
    <rect x="12" y="21" width="1" height="1" fill="rgba(253,7,0,1)"/>
    <rect x="13" y="21" width="3" height="1" fill="rgba(125,0,2,1)"/>
    <rect x="16" y="21" width="1" height="1" fill="rgba(255,0,0,1)"/>
    <rect x="17" y="21" width="1" height="1" fill="rgba(185,3,1,1)"/>
    <rect x="18" y="21" width="1" height="1" fill="rgba(184,7,1,1)"/>
    <rect x="2" y="22" width="1" height="1" fill="rgba(148,0,5,1)"/>
    <rect x="3" y="22" width="1" height="1" fill="rgba(236,0,0,1)"/>
    <rect x="4" y="22" width="1" height="1" fill="rgba(255,0,4,1)"/>
    <rect x="10" y="22" width="1" height="1" fill="rgba(125,0,0,1)"/>
    <rect x="11" y="22" width="1" height="1" fill="rgba(124,1,1,1)"/>
    <rect x="12" y="22" width="2" height="1" fill="rgba(254,5,0,1)"/>
    <rect x="14" y="22" width="1" height="1" fill="rgba(253,233,62,1)"/>
    <rect x="15" y="22" width="1" height="1" fill="rgba(255,0,4,1)"/>
    <rect x="16" y="22" width="1" height="1" fill="rgba(186,1,0,1)"/>
    <rect x="17" y="22" width="1" height="1" fill="rgba(125,1,1,1)"/>
    <rect x="2" y="23" width="1" height="1" fill="rgba(211,0,12,1)"/>
    <rect x="3" y="23" width="1" height="1" fill="rgba(254,5,0,1)"/>
    <rect x="4" y="23" width="1" height="1" fill="rgba(140,4,2,1)"/>
    <rect x="12" y="23" width="1" height="1" fill="rgba(125,4,0,1)"/>
    <rect x="13" y="23" width="1" height="1" fill="rgba(255,231,57,1)"/>
    <rect x="14" y="23" width="1" height="1" fill="rgba(255,206,10,1)"/>
    <rect x="15" y="23" width="1" height="1" fill="rgba(255,232,58,1)"/>
    <rect x="16" y="23" width="1" height="1" fill="rgba(127,0,0,1)"/>
    <rect x="1" y="24" width="1" height="1" fill="rgba(210,2,1,1)"/>
    <rect x="2" y="24" width="1" height="1" fill="rgba(233,4,0,1)"/>
    <rect x="3" y="24" width="1" height="1" fill="rgba(141,1,5,1)"/>
    <rect x="14" y="24" width="1" height="1" fill="rgba(253,233,58,1)"/>
    <rect x="1" y="25" width="1" height="1" fill="rgba(206,0,7,1)"/>
    <rect x="2" y="25" width="1" height="1" fill="rgba(255,0,0,1)"/>
    <rect x="3" y="25" width="1" height="1" fill="rgba(143,0,2,1)"/>
    <rect x="1" y="26" width="1" height="1" fill="rgba(212,0,2,1)"/>
    <rect x="2" y="26" width="1" height="1" fill="rgba(255,0,0,1)"/>
    <rect x="3" y="26" width="1" height="1" fill="rgba(143,0,1,1)"/>
    <rect x="1" y="27" width="1" height="1" fill="rgba(211,0,1,1)"/>
    <rect x="2" y="27" width="1" height="1" fill="rgba(255,0,0,1)"/>
    <rect x="3" y="27" width="1" height="1" fill="rgba(143,0,2,1)"/>
  </g>
</svg>