<svg shape-rendering="crispEdges" xmlns="http://www.w3.org/2000/svg" version="1.1" width="37" height="37"><style>rect { image-rendering: pixelated; }</style><rect x="11" y="21" width="1.025" height="1.025" fill="rgba(164,145,126,1.000)" /><rect x="6" y="22" width="1.025" height="1.025" fill="rgba(206,188,165,1.000)" /><rect x="9" y="22" width="1.025" height="1.025" fill="rgba(164,145,126,1.000)" /><rect x="10" y="22" width="1.025" height="1.025" fill="rgba(164,145,126,1.000)" /><rect x="11" y="22" width="1.025" height="1.025" fill="rgba(206,188,165,1.000)" /><rect x="12" y="22" width="1.025" height="1.025" fill="rgba(92,75,66,1.000)" /><rect x="7" y="23" width="1.025" height="1.025" fill="rgba(164,145,126,1.000)" /><rect x="8" y="23" width="1.025" height="1.025" fill="rgba(186,167,146,1.000)" /><rect x="9" y="23" width="1.025" height="1.025" fill="rgba(172,154,135,1.000)" /><rect x="10" y="23" width="1.025" height="1.025" fill="rgba(126,107,93,1.000)" /><rect x="11" y="23" width="1.025" height="1.025" fill="rgba(116,97,85,1.000)" /><rect x="12" y="23" width="1.025" height="1.025" fill="rgba(164,145,126,1.000)" /><rect x="13" y="23" width="1.025" height="1.025" fill="rgba(92,75,66,1.000)" /><rect x="25" y="23" width="1.025" height="1.025" fill="rgba(142,124,108,1.000)" /><rect x="5" y="24" width="1.025" height="1.025" fill="rgba(164,145,126,1.000)" /><rect x="6" y="24" width="1.025" height="1.025" fill="rgba(206,188,165,1.000)" /><rect x="7" y="24" width="1.025" height="1.025" fill="rgba(172,154,135,1.000)" /><rect x="8" y="24" width="1.025" height="1.025" fill="rgba(164,145,126,1.000)" /><rect x="9" y="24" width="1.025" height="1.025" fill="rgba(126,107,93,1.000)" /><rect x="10" y="24" width="1.025" height="1.025" fill="rgba(161,143,125,1.000)" /><rect x="11" y="24" width="1.025" height="1.025" fill="rgba(126,107,93,1.000)" /><rect x="12" y="24" width="1.025" height="1.025" fill="rgba(92,75,66,1.000)" /><rect x="13" y="24" width="1.025" height="1.025" fill="rgba(164,145,126,1.000)" /><rect x="21" y="24" width="1.025" height="1.025" fill="rgba(92,75,66,1.000)" /><rect x="22" y="24" width="1.025" height="1.025" fill="rgba(206,188,165,1.000)" /><rect x="23" y="24" width="1.025" height="1.025" fill="rgba(142,124,108,1.000)" /><rect x="24" y="24" width="1.025" height="1.025" fill="rgba(164,145,126,1.000)" /><rect x="4" y="25" width="1.025" height="1.025" fill="rgba(206,188,165,1.000)" /><rect x="5" y="25" width="1.025" height="1.025" fill="rgba(164,145,126,1.000)" /><rect x="6" y="25" width="1.025" height="1.025" fill="rgba(164,145,126,1.000)" /><rect x="7" y="25" width="1.025" height="1.025" fill="rgba(116,97,85,1.000)" /><rect x="8" y="25" width="1.025" height="1.025" fill="rgba(186,167,146,1.000)" /><rect x="9" y="25" width="1.025" height="1.025" fill="rgba(116,97,85,1.000)" /><rect x="10" y="25" width="1.025" height="1.025" fill="rgba(126,107,93,1.000)" /><rect x="11" y="25" width="1.025" height="1.025" fill="rgba(150,131,115,1.000)" /><rect x="12" y="25" width="1.025" height="1.025" fill="rgba(26,43,1,1.000)" /><rect x="13" y="25" width="1.025" height="1.025" fill="rgba(35,58,1,1.000)" /><rect x="19" y="25" width="1.025" height="1.025" fill="rgba(28,46,1,1.000)" /><rect x="20" y="25" width="1.025" height="1.025" fill="rgba(92,75,66,1.000)" /><rect x="21" y="25" width="1.025" height="1.025" fill="rgba(164,145,126,1.000)" /><rect x="22" y="25" width="1.025" height="1.025" fill="rgba(92,75,66,1.000)" /><rect x="23" y="25" width="1.025" height="1.025" fill="rgba(142,124,108,1.000)" /><rect x="24" y="25" width="1.025" height="1.025" fill="rgba(172,154,135,1.000)" /><rect x="25" y="25" width="1.025" height="1.025" fill="rgba(206,188,165,1.000)" /><rect x="4" y="26" width="1.025" height="1.025" fill="rgba(206,188,165,1.000)" /><rect x="5" y="26" width="1.025" height="1.025" fill="rgba(126,107,93,1.000)" /><rect x="6" y="26" width="1.025" height="1.025" fill="rgba(126,107,93,1.000)" /><rect x="7" y="26" width="1.025" height="1.025" fill="rgba(177,158,138,1.000)" /><rect x="8" y="26" width="1.025" height="1.025" fill="rgba(142,124,108,1.000)" /><rect x="9" y="26" width="1.025" height="1.025" fill="rgba(164,145,126,1.000)" /><rect x="10" y="26" width="1.025" height="1.025" fill="rgba(47,78,3,1.000)" /><rect x="11" y="26" width="1.025" height="1.025" fill="rgba(61,92,17,1.000)" /><rect x="12" y="26" width="1.025" height="1.025" fill="rgba(21,34,1,1.000)" /><rect x="13" y="26" width="1.025" height="1.025" fill="rgba(28,46,1,1.000)" /><rect x="19" y="26" width="1.025" height="1.025" fill="rgba(50,81,6,1.000)" /><rect x="20" y="26" width="1.025" height="1.025" fill="rgba(33,55,1,1.000)" /><rect x="21" y="26" width="1.025" height="1.025" fill="rgba(126,107,93,1.000)" /><rect x="22" y="26" width="1.025" height="1.025" fill="rgba(126,107,93,1.000)" /><rect x="23" y="26" width="1.025" height="1.025" fill="rgba(142,124,108,1.000)" /><rect x="24" y="26" width="1.025" height="1.025" fill="rgba(206,188,165,1.000)" /><rect x="25" y="26" width="1.025" height="1.025" fill="rgba(142,124,108,1.000)" /><rect x="26" y="26" width="1.025" height="1.025" fill="rgba(206,188,165,1.000)" /><rect x="4" y="27" width="1.025" height="1.025" fill="rgba(206,188,165,1.000)" /><rect x="5" y="27" width="1.025" height="1.025" fill="rgba(92,75,66,1.000)" /><rect x="6" y="27" width="1.025" height="1.025" fill="rgba(206,188,165,1.000)" /><rect x="7" y="27" width="1.025" height="1.025" fill="rgba(206,188,165,1.000)" /><rect x="8" y="27" width="1.025" height="1.025" fill="rgba(126,107,93,1.000)" /><rect x="9" y="27" width="1.025" height="1.025" fill="rgba(50,81,6,1.000)" /><rect x="10" y="27" width="1.025" height="1.025" fill="rgba(55,86,11,1.000)" /><rect x="11" y="27" width="1.025" height="1.025" fill="rgba(33,54,1,1.000)" /><rect x="12" y="27" width="1.025" height="1.025" fill="rgba(28,46,1,1.000)" /><rect x="19" y="27" width="1.025" height="1.025" fill="rgba(35,58,1,1.000)" /><rect x="20" y="27" width="1.025" height="1.025" fill="rgba(50,81,6,1.000)" /><rect x="21" y="27" width="1.025" height="1.025" fill="rgba(50,81,6,1.000)" /><rect x="22" y="27" width="1.025" height="1.025" fill="rgba(164,145,126,1.000)" /><rect x="23" y="27" width="1.025" height="1.025" fill="rgba(142,124,108,1.000)" /><rect x="24" y="27" width="1.025" height="1.025" fill="rgba(164,145,126,1.000)" /><rect x="25" y="27" width="1.025" height="1.025" fill="rgba(164,145,126,1.000)" /><rect x="4" y="28" width="1.025" height="1.025" fill="rgba(164,145,126,1.000)" /><rect x="5" y="28" width="1.025" height="1.025" fill="rgba(164,145,126,1.000)" /><rect x="6" y="28" width="1.025" height="1.025" fill="rgba(126,107,93,1.000)" /><rect x="7" y="28" width="1.025" height="1.025" fill="rgba(164,145,126,1.000)" /><rect x="8" y="28" width="1.025" height="1.025" fill="rgba(126,107,93,1.000)" /><rect x="9" y="28" width="1.025" height="1.025" fill="rgba(55,86,11,1.000)" /><rect x="10" y="28" width="1.025" height="1.025" fill="rgba(50,81,6,1.000)" /><rect x="11" y="28" width="1.025" height="1.025" fill="rgba(20,33,1,1.000)" /><rect x="12" y="28" width="1.025" height="1.025" fill="rgba(1,1,1,1.000)" /><rect x="13" y="28" width="1.025" height="1.025" fill="rgba(34,44,70,1.000)" /><rect x="19" y="28" width="1.025" height="1.025" fill="rgba(13,20,1,1.000)" /><rect x="20" y="28" width="1.025" height="1.025" fill="rgba(35,58,1,1.000)" /><rect x="21" y="28" width="1.025" height="1.025" fill="rgba(59,90,15,1.000)" /><rect x="22" y="28" width="1.025" height="1.025" fill="rgba(59,90,15,1.000)" /><rect x="23" y="28" width="1.025" height="1.025" fill="rgba(92,75,66,1.000)" /><rect x="24" y="28" width="1.025" height="1.025" fill="rgba(126,107,93,1.000)" /><rect x="25" y="28" width="1.025" height="1.025" fill="rgba(126,107,93,1.000)" /><rect x="26" y="28" width="1.025" height="1.025" fill="rgba(206,188,165,1.000)" /><rect x="3" y="29" width="1.025" height="1.025" fill="rgba(164,145,126,1.000)" /><rect x="5" y="29" width="1.025" height="1.025" fill="rgba(206,188,165,1.000)" /><rect x="6" y="29" width="1.025" height="1.025" fill="rgba(206,188,165,1.000)" /><rect x="7" y="29" width="1.025" height="1.025" fill="rgba(164,145,126,1.000)" /><rect x="8" y="29" width="1.025" height="1.025" fill="rgba(126,107,93,1.000)" /><rect x="9" y="29" width="1.025" height="1.025" fill="rgba(164,145,126,1.000)" /><rect x="10" y="29" width="1.025" height="1.025" fill="rgba(55,86,11,1.000)" /><rect x="11" y="29" width="1.025" height="1.025" fill="rgba(55,86,11,1.000)" /><rect x="12" y="29" width="1.025" height="1.025" fill="rgba(44,74,1,1.000)" /><rect x="13" y="29" width="1.025" height="1.025" fill="rgba(33,55,1,1.000)" /><rect x="14" y="29" width="1.025" height="1.025" fill="rgba(37,47,75,1.000)" /><rect x="19" y="29" width="1.025" height="1.025" fill="rgba(19,30,1,1.000)" /><rect x="20" y="29" width="1.025" height="1.025" fill="rgba(55,86,11,1.000)" /><rect x="21" y="29" width="1.025" height="1.025" fill="rgba(51,82,7,1.000)" /><rect x="22" y="29" width="1.025" height="1.025" fill="rgba(38,63,1,1.000)" /><rect x="23" y="29" width="1.025" height="1.025" fill="rgba(126,107,93,1.000)" /><rect x="24" y="29" width="1.025" height="1.025" fill="rgba(164,145,126,1.000)" /><rect x="5" y="30" width="1.025" height="1.025" fill="rgba(92,75,66,1.000)" /><rect x="6" y="30" width="1.025" height="1.025" fill="rgba(126,107,93,1.000)" /><rect x="7" y="30" width="1.025" height="1.025" fill="rgba(126,107,93,1.000)" /><rect x="8" y="30" width="1.025" height="1.025" fill="rgba(116,97,85,1.000)" /><rect x="9" y="30" width="1.025" height="1.025" fill="rgba(126,107,93,1.000)" /><rect x="10" y="30" width="1.025" height="1.025" fill="rgba(116,97,85,1.000)" /><rect x="11" y="30" width="1.025" height="1.025" fill="rgba(50,81,6,1.000)" /><rect x="12" y="30" width="1.025" height="1.025" fill="rgba(48,79,4,1.000)" /><rect x="13" y="30" width="1.025" height="1.025" fill="rgba(50,81,6,1.000)" /><rect x="14" y="30" width="1.025" height="1.025" fill="rgba(35,58,1,1.000)" /><rect x="15" y="30" width="1.025" height="1.025" fill="rgba(59,90,15,1.000)" /><rect x="18" y="30" width="1.025" height="1.025" fill="rgba(59,90,15,1.000)" /><rect x="19" y="30" width="1.025" height="1.025" fill="rgba(55,86,11,1.000)" /><rect x="20" y="30" width="1.025" height="1.025" fill="rgba(57,88,13,1.000)" /><rect x="21" y="30" width="1.025" height="1.025" fill="rgba(55,86,11,1.000)" /><rect x="22" y="30" width="1.025" height="1.025" fill="rgba(0,0,0,1.000)" /><rect x="23" y="30" width="1.025" height="1.025" fill="rgba(0,0,0,1.000)" /><rect x="24" y="30" width="1.025" height="1.025" fill="rgba(206,188,165,1.000)" /><rect x="25" y="30" width="1.025" height="1.025" fill="rgba(16,26,1,1.000)" /><rect x="4" y="31" width="1.025" height="1.025" fill="rgba(164,145,126,1.000)" /><rect x="6" y="31" width="1.025" height="1.025" fill="rgba(164,145,126,1.000)" /><rect x="7" y="31" width="1.025" height="1.025" fill="rgba(164,145,126,1.000)" /><rect x="8" y="31" width="1.025" height="1.025" fill="rgba(164,145,126,1.000)" /><rect x="9" y="31" width="1.025" height="1.025" fill="rgba(126,107,93,1.000)" /><rect x="10" y="31" width="1.025" height="1.025" fill="rgba(142,124,108,1.000)" /><rect x="11" y="31" width="1.025" height="1.025" fill="rgba(25,41,1,1.000)" /><rect x="12" y="31" width="1.025" height="1.025" fill="rgba(41,68,1,1.000)" /><rect x="13" y="31" width="1.025" height="1.025" fill="rgba(59,90,15,1.000)" /><rect x="14" y="31" width="1.025" height="1.025" fill="rgba(20,33,1,1.000)" /><rect x="15" y="31" width="1.025" height="1.025" fill="rgba(0,0,0,1.000)" /><rect x="16" y="31" width="1.025" height="1.025" fill="rgba(57,88,13,1.000)" /><rect x="18" y="31" width="1.025" height="1.025" fill="rgba(0,0,0,1.000)" /><rect x="19" y="31" width="1.025" height="1.025" fill="rgba(59,90,15,1.000)" /><rect x="20" y="31" width="1.025" height="1.025" fill="rgba(59,90,15,1.000)" /><rect x="21" y="31" width="1.025" height="1.025" fill="rgba(58,89,14,1.000)" /><rect x="22" y="31" width="1.025" height="1.025" fill="rgba(55,86,11,1.000)" /><rect x="23" y="31" width="1.025" height="1.025" fill="rgba(51,82,7,1.000)" /><rect x="24" y="31" width="1.025" height="1.025" fill="rgba(59,90,15,1.000)" /><rect x="25" y="31" width="1.025" height="1.025" fill="rgba(50,81,6,1.000)" /><rect x="26" y="31" width="1.025" height="1.025" fill="rgba(16,25,1,1.000)" /><rect x="5" y="32" width="1.025" height="1.025" fill="rgba(18,29,1,1.000)" /><rect x="6" y="32" width="1.025" height="1.025" fill="rgba(47,78,3,1.000)" /><rect x="7" y="32" width="1.025" height="1.025" fill="rgba(44,74,1,1.000)" /><rect x="8" y="32" width="1.025" height="1.025" fill="rgba(54,85,10,1.000)" /><rect x="9" y="32" width="1.025" height="1.025" fill="rgba(142,124,108,1.000)" /><rect x="10" y="32" width="1.025" height="1.025" fill="rgba(164,145,126,1.000)" /><rect x="11" y="32" width="1.025" height="1.025" fill="rgba(142,124,108,1.000)" /><rect x="12" y="32" width="1.025" height="1.025" fill="rgba(58,89,14,1.000)" /><rect x="13" y="32" width="1.025" height="1.025" fill="rgba(59,90,15,1.000)" /><rect x="14" y="32" width="1.025" height="1.025" fill="rgba(59,90,15,1.000)" /><rect x="15" y="32" width="1.025" height="1.025" fill="rgba(0,0,0,1.000)" /><rect x="16" y="32" width="1.025" height="1.025" fill="rgba(57,88,13,1.000)" /><rect x="17" y="32" width="1.025" height="1.025" fill="rgba(37,47,75,1.000)" /><rect x="18" y="32" width="1.025" height="1.025" fill="rgba(0,0,0,1.000)" /><rect x="19" y="32" width="1.025" height="1.025" fill="rgba(58,89,14,1.000)" /><rect x="20" y="32" width="1.025" height="1.025" fill="rgba(59,90,15,1.000)" /><rect x="21" y="32" width="1.025" height="1.025" fill="rgba(59,90,15,1.000)" /><rect x="22" y="32" width="1.025" height="1.025" fill="rgba(57,88,13,1.000)" /><rect x="23" y="32" width="1.025" height="1.025" fill="rgba(54,85,10,1.000)" /><rect x="24" y="32" width="1.025" height="1.025" fill="rgba(51,82,7,1.000)" /><rect x="25" y="32" width="1.025" height="1.025" fill="rgba(59,90,15,1.000)" /><rect x="26" y="32" width="1.025" height="1.025" fill="rgba(48,79,4,1.000)" /><rect x="27" y="32" width="1.025" height="1.025" fill="rgba(16,26,1,1.000)" /><rect x="4" y="33" width="1.025" height="1.025" fill="rgba(18,29,1,1.000)" /><rect x="5" y="33" width="1.025" height="1.025" fill="rgba(47,78,3,1.000)" /><rect x="6" y="33" width="1.025" height="1.025" fill="rgba(47,78,3,1.000)" /><rect x="7" y="33" width="1.025" height="1.025" fill="rgba(42,70,1,1.000)" /><rect x="8" y="33" width="1.025" height="1.025" fill="rgba(142,124,108,1.000)" /><rect x="9" y="33" width="1.025" height="1.025" fill="rgba(59,90,15,1.000)" /><rect x="10" y="33" width="1.025" height="1.025" fill="rgba(27,45,1,1.000)" /><rect x="11" y="33" width="1.025" height="1.025" fill="rgba(44,75,0,1.000)" /><rect x="12" y="33" width="1.025" height="1.025" fill="rgba(58,89,14,1.000)" /><rect x="13" y="33" width="1.025" height="1.025" fill="rgba(61,92,17,1.000)" /><rect x="14" y="33" width="1.025" height="1.025" fill="rgba(59,90,15,1.000)" /><rect x="15" y="33" width="1.025" height="1.025" fill="rgba(0,0,0,1.000)" /><rect x="16" y="33" width="1.025" height="1.025" fill="rgba(59,90,15,1.000)" /><rect x="17" y="33" width="1.025" height="1.025" fill="rgba(89,114,182,1.000)" /><rect x="18" y="33" width="1.025" height="1.025" fill="rgba(0,0,0,1.000)" /><rect x="19" y="33" width="1.025" height="1.025" fill="rgba(58,89,14,1.000)" /><rect x="20" y="33" width="1.025" height="1.025" fill="rgba(28,46,1,1.000)" /><rect x="21" y="33" width="1.025" height="1.025" fill="rgba(28,46,1,1.000)" /><rect x="22" y="33" width="1.025" height="1.025" fill="rgba(28,46,1,1.000)" /><rect x="23" y="33" width="1.025" height="1.025" fill="rgba(24,39,1,1.000)" /><rect x="24" y="33" width="1.025" height="1.025" fill="rgba(51,82,7,1.000)" /><rect x="25" y="33" width="1.025" height="1.025" fill="rgba(48,79,4,1.000)" /><rect x="26" y="33" width="1.025" height="1.025" fill="rgba(59,90,15,1.000)" /><rect x="27" y="33" width="1.025" height="1.025" fill="rgba(48,79,4,1.000)" /><rect x="28" y="33" width="1.025" height="1.025" fill="rgba(16,26,1,1.000)" /><rect x="3" y="34" width="1.025" height="1.025" fill="rgba(21,34,1,1.000)" /><rect x="4" y="34" width="1.025" height="1.025" fill="rgba(47,78,3,1.000)" /><rect x="5" y="34" width="1.025" height="1.025" fill="rgba(44,74,1,1.000)" /><rect x="6" y="34" width="1.025" height="1.025" fill="rgba(44,74,1,1.000)" /><rect x="7" y="34" width="1.025" height="1.025" fill="rgba(42,70,1,1.000)" /><rect x="8" y="34" width="1.025" height="1.025" fill="rgba(54,85,10,1.000)" /><rect x="9" y="34" width="1.025" height="1.025" fill="rgba(46,77,2,1.000)" /><rect x="10" y="34" width="1.025" height="1.025" fill="rgba(13,20,1,1.000)" /><rect x="11" y="34" width="1.025" height="1.025" fill="rgba(28,46,1,1.000)" /><rect x="12" y="34" width="1.025" height="1.025" fill="rgba(55,86,11,1.000)" /><rect x="13" y="34" width="1.025" height="1.025" fill="rgba(50,81,6,1.000)" /><rect x="14" y="34" width="1.025" height="1.025" fill="rgba(55,86,11,1.000)" /><rect x="15" y="34" width="1.025" height="1.025" fill="rgba(0,0,0,1.000)" /><rect x="16" y="34" width="1.025" height="1.025" fill="rgba(59,90,15,1.000)" /><rect x="17" y="34" width="1.025" height="1.025" fill="rgba(88,112,179,1.000)" /><rect x="18" y="34" width="1.025" height="1.025" fill="rgba(0,0,0,1.000)" /><rect x="19" y="34" width="1.025" height="1.025" fill="rgba(55,86,11,1.000)" /><rect x="20" y="34" width="1.025" height="1.025" fill="rgba(59,90,15,1.000)" /><rect x="21" y="34" width="1.025" height="1.025" fill="rgba(59,90,15,1.000)" /><rect x="22" y="34" width="1.025" height="1.025" fill="rgba(50,81,6,1.000)" /><rect x="23" y="34" width="1.025" height="1.025" fill="rgba(33,55,1,1.000)" /><rect x="24" y="34" width="1.025" height="1.025" fill="rgba(0,0,0,1.000)" /><rect x="25" y="34" width="1.025" height="1.025" fill="rgba(48,79,4,1.000)" /><rect x="26" y="34" width="1.025" height="1.025" fill="rgba(48,79,4,1.000)" /><rect x="27" y="34" width="1.025" height="1.025" fill="rgba(59,90,15,1.000)" /><rect x="28" y="34" width="1.025" height="1.025" fill="rgba(59,90,15,1.000)" /><rect x="29" y="34" width="1.025" height="1.025" fill="rgba(16,26,1,1.000)" /><rect x="2" y="35" width="1.025" height="1.025" fill="rgba(23,38,1,1.000)" /><rect x="3" y="35" width="1.025" height="1.025" fill="rgba(44,74,1,1.000)" /><rect x="4" y="35" width="1.025" height="1.025" fill="rgba(44,74,1,1.000)" /><rect x="5" y="35" width="1.025" height="1.025" fill="rgba(44,74,1,1.000)" /><rect x="6" y="35" width="1.025" height="1.025" fill="rgba(44,74,1,1.000)" /><rect x="7" y="35" width="1.025" height="1.025" fill="rgba(42,70,1,1.000)" /><rect x="8" y="35" width="1.025" height="1.025" fill="rgba(54,85,10,1.000)" /><rect x="9" y="35" width="1.025" height="1.025" fill="rgba(30,50,1,1.000)" /><rect x="10" y="35" width="1.025" height="1.025" fill="rgba(0,0,0,1.000)" /><rect x="11" y="35" width="1.025" height="1.025" fill="rgba(15,24,1,1.000)" /><rect x="12" y="35" width="1.025" height="1.025" fill="rgba(38,63,1,1.000)" /><rect x="13" y="35" width="1.025" height="1.025" fill="rgba(35,58,1,1.000)" /><rect x="14" y="35" width="1.025" height="1.025" fill="rgba(43,72,1,1.000)" /><rect x="15" y="35" width="1.025" height="1.025" fill="rgba(0,0,0,1.000)" /><rect x="16" y="35" width="1.025" height="1.025" fill="rgba(52,83,8,1.000)" /><rect x="17" y="35" width="1.025" height="1.025" fill="rgba(81,104,166,1.000)" /><rect x="18" y="35" width="1.025" height="1.025" fill="rgba(0,0,0,1.000)" /><rect x="19" y="35" width="1.025" height="1.025" fill="rgba(44,75,0,1.000)" /><rect x="20" y="35" width="1.025" height="1.025" fill="rgba(57,88,13,1.000)" /><rect x="21" y="35" width="1.025" height="1.025" fill="rgba(55,86,11,1.000)" /><rect x="22" y="35" width="1.025" height="1.025" fill="rgba(38,63,1,1.000)" /><rect x="23" y="35" width="1.025" height="1.025" fill="rgba(24,39,1,1.000)" /><rect x="24" y="35" width="1.025" height="1.025" fill="rgba(5,7,1,1.000)" /><rect x="25" y="35" width="1.025" height="1.025" fill="rgba(44,75,0,1.000)" /><rect x="26" y="35" width="1.025" height="1.025" fill="rgba(42,70,1,1.000)" /><rect x="27" y="35" width="1.025" height="1.025" fill="rgba(48,79,4,1.000)" /><rect x="28" y="35" width="1.025" height="1.025" fill="rgba(48,79,4,1.000)" /><rect x="29" y="35" width="1.025" height="1.025" fill="rgba(48,79,4,1.000)" /><rect x="30" y="35" width="1.025" height="1.025" fill="rgba(13,20,1,1.000)" /><rect x="2" y="36" width="1.025" height="1.025" fill="rgba(13,21,1,1.000)" /><rect x="3" y="36" width="1.025" height="1.025" fill="rgba(44,74,1,1.000)" /><rect x="4" y="36" width="1.025" height="1.025" fill="rgba(44,74,1,1.000)" /><rect x="5" y="36" width="1.025" height="1.025" fill="rgba(44,74,1,1.000)" /><rect x="6" y="36" width="1.025" height="1.025" fill="rgba(44,74,1,1.000)" /><rect x="7" y="36" width="1.025" height="1.025" fill="rgba(42,70,1,1.000)" /><rect x="8" y="36" width="1.025" height="1.025" fill="rgba(54,85,10,1.000)" /><rect x="9" y="36" width="1.025" height="1.025" fill="rgba(21,34,1,1.000)" /><rect x="10" y="36" width="1.025" height="1.025" fill="rgba(0,0,0,1.000)" /><rect x="11" y="36" width="1.025" height="1.025" fill="rgba(16,25,1,1.000)" /><rect x="12" y="36" width="1.025" height="1.025" fill="rgba(24,39,1,1.000)" /><rect x="13" y="36" width="1.025" height="1.025" fill="rgba(33,55,1,1.000)" /><rect x="14" y="36" width="1.025" height="1.025" fill="rgba(35,58,1,1.000)" /><rect x="15" y="36" width="1.025" height="1.025" fill="rgba(0,0,0,1.000)" /><rect x="16" y="36" width="1.025" height="1.025" fill="rgba(39,64,1,1.000)" /><rect x="17" y="36" width="1.025" height="1.025" fill="rgba(57,73,116,1.000)" /><rect x="18" y="36" width="1.025" height="1.025" fill="rgba(0,0,0,1.000)" /><rect x="19" y="36" width="1.025" height="1.025" fill="rgba(39,64,1,1.000)" /><rect x="20" y="36" width="1.025" height="1.025" fill="rgba(44,74,1,1.000)" /><rect x="21" y="36" width="1.025" height="1.025" fill="rgba(44,74,1,1.000)" /><rect x="22" y="36" width="1.025" height="1.025" fill="rgba(38,63,1,1.000)" /><rect x="23" y="36" width="1.025" height="1.025" fill="rgba(19,30,1,1.000)" /><rect x="24" y="36" width="1.025" height="1.025" fill="rgba(0,0,0,1.000)" /><rect x="25" y="36" width="1.025" height="1.025" fill="rgba(44,75,0,1.000)" /><rect x="26" y="36" width="1.025" height="1.025" fill="rgba(42,70,1,1.000)" /><rect x="27" y="36" width="1.025" height="1.025" fill="rgba(42,70,1,1.000)" /><rect x="28" y="36" width="1.025" height="1.025" fill="rgba(42,70,1,1.000)" /><rect x="29" y="36" width="1.025" height="1.025" fill="rgba(42,70,1,1.000)" /><rect x="30" y="36" width="1.025" height="1.025" fill="rgba(9,14,1,1.000)" /></svg>