<svg shape-rendering="crispEdges" xmlns="http://www.w3.org/2000/svg" version="1.1" width="37" height="37"><style>rect { image-rendering: pixelated; }</style><rect x="0" y="0" width="1.025" height="1.025" fill="rgba(159,139,125,1.000)" /><rect x="1" y="0" width="1.025" height="1.025" fill="rgba(156,138,124,1.000)" /><rect x="2" y="0" width="1.025" height="1.025" fill="rgba(162,147,132,1.000)" /><rect x="12" y="0" width="1.025" height="1.025" fill="rgba(71,59,50,0.925)" /><rect x="13" y="0" width="1.025" height="1.025" fill="rgba(117,97,83,0.910)" /><rect x="14" y="0" width="1.025" height="1.025" fill="rgba(152,134,117,0.890)" /><rect x="15" y="0" width="1.025" height="1.025" fill="rgba(160,133,120,0.882)" /><rect x="16" y="0" width="1.025" height="1.025" fill="rgba(102,80,67,0.871)" /><rect x="20" y="0" width="1.025" height="1.025" fill="rgba(154,132,119,0.976)" /><rect x="21" y="0" width="1.025" height="1.025" fill="rgba(153,128,114,0.976)" /><rect x="22" y="0" width="1.025" height="1.025" fill="rgba(137,105,94,0.980)" /><rect x="23" y="0" width="1.025" height="1.025" fill="rgba(137,96,87,0.992)" /><rect x="24" y="0" width="1.025" height="1.025" fill="rgba(128,86,78,0.996)" /><rect x="25" y="0" width="1.025" height="1.025" fill="rgba(122,85,74,1.000)" /><rect x="26" y="0" width="1.025" height="1.025" fill="rgba(156,120,110,1.000)" /><rect x="27" y="0" width="1.025" height="1.025" fill="rgba(120,95,81,1.000)" /><rect x="28" y="0" width="1.025" height="1.025" fill="rgba(149,117,102,1.000)" /><rect x="29" y="0" width="1.025" height="1.025" fill="rgba(170,142,129,1.000)" /><rect x="30" y="0" width="1.025" height="1.025" fill="rgba(161,152,134,1.000)" /><rect x="33" y="0" width="1.025" height="1.025" fill="rgba(150,128,113,1.000)" /><rect x="35" y="0" width="1.025" height="1.025" fill="rgba(156,136,119,1.000)" /><rect x="36" y="0" width="1.025" height="1.025" fill="rgba(171,162,148,1.000)" /><rect x="0" y="1" width="1.025" height="1.025" fill="rgba(160,138,125,1.000)" /><rect x="1" y="1" width="1.025" height="1.025" fill="rgba(151,125,113,1.000)" /><rect x="2" y="1" width="1.025" height="1.025" fill="rgba(166,150,137,1.000)" /><rect x="12" y="1" width="1.025" height="1.025" fill="rgba(145,127,110,0.878)" /><rect x="13" y="1" width="1.025" height="1.025" fill="rgba(109,86,71,0.859)" /><rect x="14" y="1" width="1.025" height="1.025" fill="rgba(95,75,59,0.835)" /><rect x="15" y="1" width="1.025" height="1.025" fill="rgba(122,93,80,0.812)" /><rect x="16" y="1" width="1.025" height="1.025" fill="rgba(169,152,138,0.792)" /><rect x="19" y="1" width="1.025" height="1.025" fill="rgba(83,64,57,0.937)" /><rect x="20" y="1" width="1.025" height="1.025" fill="rgba(117,94,81,0.980)" /><rect x="21" y="1" width="1.025" height="1.025" fill="rgba(168,147,129,0.961)" /><rect x="22" y="1" width="1.025" height="1.025" fill="rgba(150,129,112,0.969)" /><rect x="23" y="1" width="1.025" height="1.025" fill="rgba(127,106,90,0.980)" /><rect x="24" y="1" width="1.025" height="1.025" fill="rgba(157,130,116,0.984)" /><rect x="25" y="1" width="1.025" height="1.025" fill="rgba(116,84,72,0.992)" /><rect x="26" y="1" width="1.025" height="1.025" fill="rgba(134,84,77,0.996)" /><rect x="27" y="1" width="1.025" height="1.025" fill="rgba(159,134,118,1.000)" /><rect x="28" y="1" width="1.025" height="1.025" fill="rgba(125,89,76,1.000)" /><rect x="29" y="1" width="1.025" height="1.025" fill="rgba(168,131,122,1.000)" /><rect x="30" y="1" width="1.025" height="1.025" fill="rgba(101,80,65,1.000)" /><rect x="31" y="1" width="1.025" height="1.025" fill="rgba(101,80,65,1.000)" /><rect x="32" y="1" width="1.025" height="1.025" fill="rgba(174,154,138,1.000)" /><rect x="33" y="1" width="1.025" height="1.025" fill="rgba(93,71,56,1.000)" /><rect x="34" y="1" width="1.025" height="1.025" fill="rgba(101,79,64,1.000)" /><rect x="35" y="1" width="1.025" height="1.025" fill="rgba(164,144,128,1.000)" /><rect x="36" y="1" width="1.025" height="1.025" fill="rgba(158,140,123,1.000)" /><rect x="0" y="2" width="1.025" height="1.025" fill="rgba(158,135,124,1.000)" /><rect x="1" y="2" width="1.025" height="1.025" fill="rgba(150,128,116,1.000)" /><rect x="6" y="2" width="1.025" height="1.025" fill="rgba(165,143,130,0.984)" /><rect x="7" y="2" width="1.025" height="1.025" fill="rgba(164,154,133,0.969)" /><rect x="8" y="2" width="1.025" height="1.025" fill="rgba(117,97,78,0.949)" /><rect x="11" y="2" width="1.025" height="1.025" fill="rgba(166,152,135,0.867)" /><rect x="12" y="2" width="1.025" height="1.025" fill="rgba(160,140,124,0.827)" /><rect x="13" y="2" width="1.025" height="1.025" fill="rgba(105,77,64,0.780)" /><rect x="14" y="2" width="1.025" height="1.025" fill="rgba(123,93,80,0.745)" /><rect x="15" y="2" width="1.025" height="1.025" fill="rgba(121,82,73,0.714)" /><rect x="16" y="2" width="1.025" height="1.025" fill="rgba(166,131,120,0.686)" /><rect x="17" y="2" width="1.025" height="1.025" fill="rgba(157,156,136,0.675)" /><rect x="18" y="2" width="1.025" height="1.025" fill="rgba(101,80,69,0.675)" /><rect x="19" y="2" width="1.025" height="1.025" fill="rgba(103,82,71,0.969)" /><rect x="20" y="2" width="1.025" height="1.025" fill="rgba(149,127,113,0.957)" /><rect x="21" y="2" width="1.025" height="1.025" fill="rgba(133,112,94,0.933)" /><rect x="22" y="2" width="1.025" height="1.025" fill="rgba(153,131,113,0.949)" /><rect x="23" y="2" width="1.025" height="1.025" fill="rgba(162,140,124,0.965)" /><rect x="24" y="2" width="1.025" height="1.025" fill="rgba(157,135,120,0.973)" /><rect x="25" y="2" width="1.025" height="1.025" fill="rgba(127,106,90,0.980)" /><rect x="26" y="2" width="1.025" height="1.025" fill="rgba(121,101,83,0.992)" /><rect x="27" y="2" width="1.025" height="1.025" fill="rgba(120,84,70,0.996)" /><rect x="28" y="2" width="1.025" height="1.025" fill="rgba(158,133,116,1.000)" /><rect x="29" y="2" width="1.025" height="1.025" fill="rgba(104,67,57,1.000)" /><rect x="30" y="2" width="1.025" height="1.025" fill="rgba(111,90,74,1.000)" /><rect x="31" y="2" width="1.025" height="1.025" fill="rgba(115,93,77,1.000)" /><rect x="32" y="2" width="1.025" height="1.025" fill="rgba(101,78,63,1.000)" /><rect x="33" y="2" width="1.025" height="1.025" fill="rgba(133,110,94,1.000)" /><rect x="34" y="2" width="1.025" height="1.025" fill="rgba(161,136,123,1.000)" /><rect x="35" y="2" width="1.025" height="1.025" fill="rgba(101,79,64,1.000)" /><rect x="36" y="2" width="1.025" height="1.025" fill="rgba(160,140,123,1.000)" /><rect x="0" y="3" width="1.025" height="1.025" fill="rgba(155,133,120,1.000)" /><rect x="1" y="3" width="1.025" height="1.025" fill="rgba(133,110,98,1.000)" /><rect x="5" y="3" width="1.025" height="1.025" fill="rgba(93,72,63,0.984)" /><rect x="6" y="3" width="1.025" height="1.025" fill="rgba(147,124,111,0.973)" /><rect x="7" y="3" width="1.025" height="1.025" fill="rgba(162,157,136,0.949)" /><rect x="8" y="3" width="1.025" height="1.025" fill="rgba(164,144,126,0.918)" /><rect x="10" y="3" width="1.025" height="1.025" fill="rgba(116,104,94,0.851)" /><rect x="11" y="3" width="1.025" height="1.025" fill="rgba(158,143,124,0.804)" /><rect x="12" y="3" width="1.025" height="1.025" fill="rgba(160,143,125,0.745)" /><rect x="13" y="3" width="1.025" height="1.025" fill="rgba(152,135,117,0.690)" /><rect x="14" y="3" width="1.025" height="1.025" fill="rgba(159,144,127,0.639)" /><rect x="15" y="3" width="1.025" height="1.025" fill="rgba(163,142,127,0.592)" /><rect x="16" y="3" width="1.025" height="1.025" fill="rgba(149,105,97,0.565)" /><rect x="17" y="3" width="1.025" height="1.025" fill="rgba(156,139,122,0.545)" /><rect x="18" y="3" width="1.025" height="1.025" fill="rgba(140,124,108,0.675)" /><rect x="19" y="3" width="1.025" height="1.025" fill="rgba(150,135,120,0.933)" /><rect x="20" y="3" width="1.025" height="1.025" fill="rgba(151,134,120,0.918)" /><rect x="21" y="3" width="1.025" height="1.025" fill="rgba(166,146,127,0.890)" /><rect x="22" y="3" width="1.025" height="1.025" fill="rgba(159,137,119,0.914)" /><rect x="23" y="3" width="1.025" height="1.025" fill="rgba(161,141,124,0.937)" /><rect x="24" y="3" width="1.025" height="1.025" fill="rgba(158,138,121,0.965)" /><rect x="25" y="3" width="1.025" height="1.025" fill="rgba(177,156,141,0.969)" /><rect x="26" y="3" width="1.025" height="1.025" fill="rgba(160,140,124,0.988)" /><rect x="27" y="3" width="1.025" height="1.025" fill="rgba(87,64,49,0.992)" /><rect x="28" y="3" width="1.025" height="1.025" fill="rgba(148,125,112,0.992)" /><rect x="29" y="3" width="1.025" height="1.025" fill="rgba(102,76,66,1.000)" /><rect x="30" y="3" width="1.025" height="1.025" fill="rgba(116,94,79,1.000)" /><rect x="31" y="3" width="1.025" height="1.025" fill="rgba(164,135,122,1.000)" /><rect x="32" y="3" width="1.025" height="1.025" fill="rgba(151,127,110,1.000)" /><rect x="33" y="3" width="1.025" height="1.025" fill="rgba(162,133,118,1.000)" /><rect x="34" y="3" width="1.025" height="1.025" fill="rgba(165,138,122,1.000)" /><rect x="35" y="3" width="1.025" height="1.025" fill="rgba(102,79,64,1.000)" /><rect x="36" y="3" width="1.025" height="1.025" fill="rgba(162,141,125,1.000)" /><rect x="0" y="4" width="1.025" height="1.025" fill="rgba(158,133,118,1.000)" /><rect x="1" y="4" width="1.025" height="1.025" fill="rgba(163,148,132,1.000)" /><rect x="2" y="4" width="1.025" height="1.025" fill="rgba(116,90,78,0.996)" /><rect x="5" y="4" width="1.025" height="1.025" fill="rgba(142,120,109,0.976)" /><rect x="6" y="4" width="1.025" height="1.025" fill="rgba(154,111,101,0.953)" /><rect x="7" y="4" width="1.025" height="1.025" fill="rgba(127,103,86,0.922)" /><rect x="8" y="4" width="1.025" height="1.025" fill="rgba(181,164,146,0.886)" /><rect x="9" y="4" width="1.025" height="1.025" fill="rgba(122,108,97,0.843)" /><rect x="10" y="4" width="1.025" height="1.025" fill="rgba(164,149,136,0.784)" /><rect x="11" y="4" width="1.025" height="1.025" fill="rgba(98,80,64,0.718)" /><rect x="12" y="4" width="1.025" height="1.025" fill="rgba(97,74,59,0.643)" /><rect x="13" y="4" width="1.025" height="1.025" fill="rgba(134,107,90,0.573)" /><rect x="14" y="4" width="1.025" height="1.025" fill="rgba(160,130,115,0.510)" /><rect x="15" y="4" width="1.025" height="1.025" fill="rgba(169,134,118,0.455)" /><rect x="16" y="4" width="1.025" height="1.025" fill="rgba(136,100,83,0.420)" /><rect x="17" y="4" width="1.025" height="1.025" fill="rgba(153,97,86,0.400)" /><rect x="18" y="4" width="1.025" height="1.025" fill="rgba(131,101,84,0.553)" /><rect x="19" y="4" width="1.025" height="1.025" fill="rgba(146,121,108,0.855)" /><rect x="20" y="4" width="1.025" height="1.025" fill="rgba(142,120,105,0.855)" /><rect x="21" y="4" width="1.025" height="1.025" fill="rgba(157,144,125,0.835)" /><rect x="22" y="4" width="1.025" height="1.025" fill="rgba(147,122,108,0.871)" /><rect x="23" y="4" width="1.025" height="1.025" fill="rgba(133,111,96,0.894)" /><rect x="24" y="4" width="1.025" height="1.025" fill="rgba(131,111,95,0.925)" /><rect x="25" y="4" width="1.025" height="1.025" fill="rgba(174,156,139,0.957)" /><rect x="26" y="4" width="1.025" height="1.025" fill="rgba(166,146,130,0.969)" /><rect x="27" y="4" width="1.025" height="1.025" fill="rgba(90,70,56,0.980)" /><rect x="28" y="4" width="1.025" height="1.025" fill="rgba(139,119,105,0.992)" /><rect x="29" y="4" width="1.025" height="1.025" fill="rgba(161,141,127,0.992)" /><rect x="30" y="4" width="1.025" height="1.025" fill="rgba(98,76,63,0.988)" /><rect x="31" y="4" width="1.025" height="1.025" fill="rgba(163,137,122,0.996)" /><rect x="32" y="4" width="1.025" height="1.025" fill="rgba(170,147,131,0.992)" /><rect x="33" y="4" width="1.025" height="1.025" fill="rgba(160,133,117,1.000)" /><rect x="34" y="4" width="1.025" height="1.025" fill="rgba(99,74,60,1.000)" /><rect x="35" y="4" width="1.025" height="1.025" fill="rgba(145,93,86,1.000)" /><rect x="36" y="4" width="1.025" height="1.025" fill="rgba(132,112,93,1.000)" /><rect x="0" y="5" width="1.025" height="1.025" fill="rgba(108,76,64,1.000)" /><rect x="1" y="5" width="1.025" height="1.025" fill="rgba(162,138,121,1.000)" /><rect x="2" y="5" width="1.025" height="1.025" fill="rgba(175,166,148,0.996)" /><rect x="4" y="5" width="1.025" height="1.025" fill="rgba(86,65,56,0.976)" /><rect x="5" y="5" width="1.025" height="1.025" fill="rgba(152,138,123,0.961)" /><rect x="6" y="5" width="1.025" height="1.025" fill="rgba(154,125,109,0.937)" /><rect x="7" y="5" width="1.025" height="1.025" fill="rgba(106,91,70,0.902)" /><rect x="8" y="5" width="1.025" height="1.025" fill="rgba(164,151,134,0.851)" /><rect x="9" y="5" width="1.025" height="1.025" fill="rgba(114,96,82,0.792)" /><rect x="10" y="5" width="1.025" height="1.025" fill="rgba(160,143,129,0.722)" /><rect x="11" y="5" width="1.025" height="1.025" fill="rgba(156,138,124,0.318)" /><rect x="12" y="5" width="1.025" height="1.025" fill="rgba(148,128,109,0.271)" /><rect x="13" y="5" width="1.025" height="1.025" fill="rgba(140,100,85,0.227)" /><rect x="14" y="5" width="1.025" height="1.025" fill="rgba(146,97,86,0.188)" /><rect x="15" y="5" width="1.025" height="1.025" fill="rgba(158,98,88,0.161)" /><rect x="16" y="5" width="1.025" height="1.025" fill="rgba(94,54,38,0.278)" /><rect x="17" y="5" width="1.025" height="1.025" fill="rgba(81,56,29,0.263)" /><rect x="18" y="5" width="1.025" height="1.025" fill="rgba(121,105,81,0.420)" /><rect x="19" y="5" width="1.025" height="1.025" fill="rgba(132,124,103,0.741)" /><rect x="20" y="5" width="1.025" height="1.025" fill="rgba(166,159,139,0.761)" /><rect x="21" y="5" width="1.025" height="1.025" fill="rgba(158,136,121,0.749)" /><rect x="22" y="5" width="1.025" height="1.025" fill="rgba(95,63,51,0.804)" /><rect x="23" y="5" width="1.025" height="1.025" fill="rgba(151,126,111,0.851)" /><rect x="24" y="5" width="1.025" height="1.025" fill="rgba(149,128,111,0.898)" /><rect x="25" y="5" width="1.025" height="1.025" fill="rgba(168,150,134,0.929)" /><rect x="26" y="5" width="1.025" height="1.025" fill="rgba(163,147,129,0.957)" /><rect x="27" y="5" width="1.025" height="1.025" fill="rgba(151,132,118,0.973)" /><rect x="28" y="5" width="1.025" height="1.025" fill="rgba(119,102,90,0.980)" /><rect x="29" y="5" width="1.025" height="1.025" fill="rgba(135,114,102,0.969)" /><rect x="30" y="5" width="1.025" height="1.025" fill="rgba(161,143,129,0.949)" /><rect x="31" y="5" width="1.025" height="1.025" fill="rgba(100,78,63,0.992)" /><rect x="32" y="5" width="1.025" height="1.025" fill="rgba(161,139,124,0.925)" /><rect x="33" y="5" width="1.025" height="1.025" fill="rgba(95,73,58,0.996)" /><rect x="34" y="5" width="1.025" height="1.025" fill="rgba(154,137,118,0.953)" /><rect x="35" y="5" width="1.025" height="1.025" fill="rgba(169,153,133,0.980)" /><rect x="36" y="5" width="1.025" height="1.025" fill="rgba(145,125,106,0.996)" /><rect x="0" y="6" width="1.025" height="1.025" fill="rgba(104,72,62,1.000)" /><rect x="1" y="6" width="1.025" height="1.025" fill="rgba(149,101,92,0.996)" /><rect x="2" y="6" width="1.025" height="1.025" fill="rgba(161,147,130,0.996)" /><rect x="3" y="6" width="1.025" height="1.025" fill="rgba(158,150,133,0.984)" /><rect x="5" y="6" width="1.025" height="1.025" fill="rgba(165,140,125,0.949)" /><rect x="6" y="6" width="1.025" height="1.025" fill="rgba(112,97,79,0.914)" /><rect x="7" y="6" width="1.025" height="1.025" fill="rgba(126,112,95,0.871)" /><rect x="8" y="6" width="1.025" height="1.025" fill="rgba(127,111,94,0.812)" /><rect x="9" y="6" width="1.025" height="1.025" fill="rgba(110,90,74,0.733)" /><rect x="10" y="6" width="1.025" height="1.025" fill="rgba(130,110,96,0.161)" /><rect x="11" y="6" width="1.025" height="1.025" fill="rgba(114,94,78,0.031)" /><rect x="12" y="6" width="1.025" height="1.025" fill="rgba(160,128,114,0.027)" /><rect x="13" y="6" width="1.025" height="1.025" fill="rgba(159,96,88,0.020)" /><rect x="14" y="6" width="1.025" height="1.025" fill="rgba(123,87,64,0.016)" /><rect x="18" y="6" width="1.025" height="1.025" fill="rgba(147,139,82,0.275)" /><rect x="19" y="6" width="1.025" height="1.025" fill="rgba(118,99,78,0.596)" /><rect x="20" y="6" width="1.025" height="1.025" fill="rgba(111,92,73,0.643)" /><rect x="21" y="6" width="1.025" height="1.025" fill="rgba(135,107,94,0.659)" /><rect x="22" y="6" width="1.025" height="1.025" fill="rgba(133,91,82,0.725)" /><rect x="23" y="6" width="1.025" height="1.025" fill="rgba(134,110,96,0.792)" /><rect x="24" y="6" width="1.025" height="1.025" fill="rgba(149,134,116,0.847)" /><rect x="25" y="6" width="1.025" height="1.025" fill="rgba(159,139,122,0.894)" /><rect x="26" y="6" width="1.025" height="1.025" fill="rgba(160,133,120,0.929)" /><rect x="27" y="6" width="1.025" height="1.025" fill="rgba(162,139,124,0.949)" /><rect x="28" y="6" width="1.025" height="1.025" fill="rgba(157,142,126,0.937)" /><rect x="29" y="6" width="1.025" height="1.025" fill="rgba(127,106,89,0.898)" /><rect x="30" y="6" width="1.025" height="1.025" fill="rgba(152,127,111,0.835)" /><rect x="31" y="6" width="1.025" height="1.025" fill="rgba(104,79,65,0.780)" /><rect x="32" y="6" width="1.025" height="1.025" fill="rgba(93,71,56,0.973)" /><rect x="33" y="6" width="1.025" height="1.025" fill="rgba(119,99,85,0.776)" /><rect x="34" y="6" width="1.025" height="1.025" fill="rgba(159,139,123,0.835)" /><rect x="35" y="6" width="1.025" height="1.025" fill="rgba(162,139,124,0.898)" /><rect x="36" y="6" width="1.025" height="1.025" fill="rgba(168,148,132,0.965)" /><rect x="0" y="7" width="1.025" height="1.025" fill="rgba(96,65,58,1.000)" /><rect x="1" y="7" width="1.025" height="1.025" fill="rgba(135,96,84,0.996)" /><rect x="2" y="7" width="1.025" height="1.025" fill="rgba(151,98,84,0.988)" /><rect x="3" y="7" width="1.025" height="1.025" fill="rgba(138,110,90,0.976)" /><rect x="4" y="7" width="1.025" height="1.025" fill="rgba(164,126,113,0.961)" /><rect x="5" y="7" width="1.025" height="1.025" fill="rgba(131,104,90,0.933)" /><rect x="6" y="7" width="1.025" height="1.025" fill="rgba(151,136,118,0.894)" /><rect x="7" y="7" width="1.025" height="1.025" fill="rgba(111,93,75,0.835)" /><rect x="8" y="7" width="1.025" height="1.025" fill="rgba(125,107,90,0.761)" /><rect x="9" y="7" width="1.025" height="1.025" fill="rgba(163,142,127,0.165)" /><rect x="10" y="7" width="1.025" height="1.025" fill="rgba(140,115,103,0.031)" /><rect x="11" y="7" width="1.025" height="1.025" fill="rgba(146,118,104,0.027)" /><rect x="12" y="7" width="1.025" height="1.025" fill="rgba(142,103,89,0.020)" /><rect x="13" y="7" width="1.025" height="1.025" fill="rgba(93,69,39,0.016)" /><rect x="18" y="7" width="1.025" height="1.025" fill="rgba(152,136,112,0.106)" /><rect x="19" y="7" width="1.025" height="1.025" fill="rgba(132,114,97,0.384)" /><rect x="20" y="7" width="1.025" height="1.025" fill="rgba(157,142,118,0.510)" /><rect x="21" y="7" width="1.025" height="1.025" fill="rgba(157,141,121,0.545)" /><rect x="22" y="7" width="1.025" height="1.025" fill="rgba(125,92,83,0.635)" /><rect x="23" y="7" width="1.025" height="1.025" fill="rgba(161,136,122,0.725)" /><rect x="24" y="7" width="1.025" height="1.025" fill="rgba(174,160,143,0.792)" /><rect x="25" y="7" width="1.025" height="1.025" fill="rgba(153,133,117,0.855)" /><rect x="26" y="7" width="1.025" height="1.025" fill="rgba(100,66,56,0.902)" /><rect x="27" y="7" width="1.025" height="1.025" fill="rgba(90,59,46,0.910)" /><rect x="28" y="7" width="1.025" height="1.025" fill="rgba(107,87,66,0.867)" /><rect x="32" y="7" width="1.025" height="1.025" fill="rgba(100,78,65,0.459)" /><rect x="33" y="7" width="1.025" height="1.025" fill="rgba(152,131,118,0.498)" /><rect x="34" y="7" width="1.025" height="1.025" fill="rgba(168,148,136,0.592)" /><rect x="35" y="7" width="1.025" height="1.025" fill="rgba(143,121,109,0.729)" /><rect x="2" y="8" width="1.025" height="1.025" fill="rgba(161,133,121,0.984)" /><rect x="3" y="8" width="1.025" height="1.025" fill="rgba(156,131,117,0.969)" /><rect x="4" y="8" width="1.025" height="1.025" fill="rgba(93,71,55,0.949)" /><rect x="5" y="8" width="1.025" height="1.025" fill="rgba(150,125,110,0.914)" /><rect x="6" y="8" width="1.025" height="1.025" fill="rgba(113,83,72,0.871)" /><rect x="7" y="8" width="1.025" height="1.025" fill="rgba(158,131,117,0.804)" /><rect x="8" y="8" width="1.025" height="1.025" fill="rgba(161,146,128,0.357)" /><rect x="9" y="8" width="1.025" height="1.025" fill="rgba(132,117,100,0.035)" /><rect x="10" y="8" width="1.025" height="1.025" fill="rgba(170,140,128,0.027)" /><rect x="11" y="8" width="1.025" height="1.025" fill="rgba(114,68,57,0.024)" /><rect x="12" y="8" width="1.025" height="1.025" fill="rgba(90,61,43,0.016)" /><rect x="18" y="8" width="1.025" height="1.025" fill="rgba(151,142,89,0.063)" /><rect x="19" y="8" width="1.025" height="1.025" fill="rgba(155,143,102,0.263)" /><rect x="20" y="8" width="1.025" height="1.025" fill="rgba(79,68,37,0.349)" /><rect x="21" y="8" width="1.025" height="1.025" fill="rgba(149,134,112,0.443)" /><rect x="22" y="8" width="1.025" height="1.025" fill="rgba(165,142,131,0.545)" /><rect x="23" y="8" width="1.025" height="1.025" fill="rgba(155,134,118,0.643)" /><rect x="24" y="8" width="1.025" height="1.025" fill="rgba(165,161,141,0.741)" /><rect x="25" y="8" width="1.025" height="1.025" fill="rgba(149,140,115,0.812)" /><rect x="28" y="8" width="1.025" height="1.025" fill="rgba(166,157,125,0.761)" /><rect x="32" y="8" width="1.025" height="1.025" fill="rgba(164,143,128,0.157)" /><rect x="33" y="8" width="1.025" height="1.025" fill="rgba(112,89,76,0.184)" /><rect x="34" y="8" width="1.025" height="1.025" fill="rgba(158,136,124,0.294)" /><rect x="35" y="8" width="1.025" height="1.025" fill="rgba(150,128,116,0.455)" /><rect x="36" y="8" width="1.025" height="1.025" fill="rgba(112,93,83,0.655)" /><rect x="3" y="9" width="1.025" height="1.025" fill="rgba(156,133,120,0.965)" /><rect x="4" y="9" width="1.025" height="1.025" fill="rgba(158,137,122,0.941)" /><rect x="5" y="9" width="1.025" height="1.025" fill="rgba(167,144,129,0.902)" /><rect x="6" y="9" width="1.025" height="1.025" fill="rgba(115,86,73,0.843)" /><rect x="7" y="9" width="1.025" height="1.025" fill="rgba(150,121,108,0.773)" /><rect x="8" y="9" width="1.025" height="1.025" fill="rgba(151,136,117,0.165)" /><rect x="9" y="9" width="1.025" height="1.025" fill="rgba(146,129,111,0.016)" /><rect x="18" y="9" width="1.025" height="1.025" fill="rgba(199,185,145,0.024)" /><rect x="19" y="9" width="1.025" height="1.025" fill="rgba(123,114,73,0.165)" /><rect x="20" y="9" width="1.025" height="1.025" fill="rgba(150,135,104,0.247)" /><rect x="21" y="9" width="1.025" height="1.025" fill="rgba(106,76,56,0.345)" /><rect x="22" y="9" width="1.025" height="1.025" fill="rgba(131,96,87,0.459)" /><rect x="23" y="9" width="1.025" height="1.025" fill="rgba(160,128,117,0.569)" /><rect x="24" y="9" width="1.025" height="1.025" fill="rgba(144,125,104,0.675)" /><rect x="32" y="9" width="1.025" height="1.025" fill="rgba(114,94,77,0.020)" /><rect x="33" y="9" width="1.025" height="1.025" fill="rgba(139,114,100,0.031)" /><rect x="34" y="9" width="1.025" height="1.025" fill="rgba(106,84,72,0.078)" /><rect x="35" y="9" width="1.025" height="1.025" fill="rgba(153,130,117,0.200)" /><rect x="36" y="9" width="1.025" height="1.025" fill="rgba(139,118,108,0.384)" /><rect x="3" y="10" width="1.025" height="1.025" fill="rgba(150,129,116,0.961)" /><rect x="4" y="10" width="1.025" height="1.025" fill="rgba(150,130,114,0.929)" /><rect x="5" y="10" width="1.025" height="1.025" fill="rgba(163,140,128,0.886)" /><rect x="6" y="10" width="1.025" height="1.025" fill="rgba(144,121,110,0.824)" /><rect x="7" y="10" width="1.025" height="1.025" fill="rgba(132,107,95,0.741)" /><rect x="8" y="10" width="1.025" height="1.025" fill="rgba(133,116,100,0.078)" /><rect x="9" y="10" width="1.025" height="1.025" fill="rgba(127,107,87,0.004)" /><rect x="19" y="10" width="1.025" height="1.025" fill="rgba(144,121,94,0.098)" /><rect x="20" y="10" width="1.025" height="1.025" fill="rgba(123,80,63,0.184)" /><rect x="21" y="10" width="1.025" height="1.025" fill="rgba(133,93,71,0.271)" /><rect x="22" y="10" width="1.025" height="1.025" fill="rgba(127,82,62,0.380)" /><rect x="23" y="10" width="1.025" height="1.025" fill="rgba(82,62,47,0.502)" /><rect x="32" y="10" width="1.025" height="1.025" fill="rgba(132,115,99,0.004)" /><rect x="34" y="10" width="1.025" height="1.025" fill="rgba(152,132,115,0.012)" /><rect x="35" y="10" width="1.025" height="1.025" fill="rgba(125,106,99,0.051)" /><rect x="3" y="11" width="1.025" height="1.025" fill="rgba(124,105,94,0.957)" /><rect x="4" y="11" width="1.025" height="1.025" fill="rgba(160,137,122,0.922)" /><rect x="5" y="11" width="1.025" height="1.025" fill="rgba(162,141,125,0.875)" /><rect x="6" y="11" width="1.025" height="1.025" fill="rgba(132,107,93,0.812)" /><rect x="7" y="11" width="1.025" height="1.025" fill="rgba(145,120,106,0.361)" /><rect x="8" y="11" width="1.025" height="1.025" fill="rgba(150,130,114,0.016)" /><rect x="19" y="11" width="1.025" height="1.025" fill="rgba(180,143,90,0.063)" /><rect x="20" y="11" width="1.025" height="1.025" fill="rgba(135,84,60,0.118)" /><rect x="21" y="11" width="1.025" height="1.025" fill="rgba(134,92,70,0.208)" /><rect x="22" y="11" width="1.025" height="1.025" fill="rgba(86,56,30,0.318)" /><rect x="3" y="12" width="1.025" height="1.025" fill="rgba(148,130,118,0.957)" /><rect x="4" y="12" width="1.025" height="1.025" fill="rgba(100,79,68,0.922)" /><rect x="5" y="12" width="1.025" height="1.025" fill="rgba(136,119,108,0.871)" /><rect x="8" y="12" width="1.025" height="1.025" fill="rgba(61,51,42,0.016)" /><rect x="19" y="12" width="1.025" height="1.025" fill="rgba(157,121,78,0.035)" /><rect x="20" y="12" width="1.025" height="1.025" fill="rgba(126,82,65,0.086)" /><rect x="21" y="12" width="1.025" height="1.025" fill="rgba(137,95,74,0.169)" /><rect x="22" y="12" width="1.025" height="1.025" fill="rgba(129,130,96,0.271)" /><rect x="7" y="13" width="1.025" height="1.025" fill="rgba(87,87,86,0.353)" /><rect x="9" y="13" width="1.025" height="1.025" fill="rgba(148,126,117,0.004)" /><rect x="19" y="13" width="1.025" height="1.025" fill="rgba(170,132,95,0.024)" /><rect x="20" y="13" width="1.025" height="1.025" fill="rgba(135,97,74,0.067)" /><rect x="21" y="13" width="1.025" height="1.025" fill="rgba(111,84,23,0.137)" /><rect x="32" y="13" width="1.025" height="1.025" fill="rgba(187,184,143,0.004)" /><rect x="8" y="14" width="1.025" height="1.025" fill="rgba(121,107,97,0.016)" /><rect x="9" y="14" width="1.025" height="1.025" fill="rgba(157,123,111,0.012)" /><rect x="19" y="14" width="1.025" height="1.025" fill="rgba(233,218,105,0.016)" /><rect x="20" y="14" width="1.025" height="1.025" fill="rgba(99,88,55,0.059)" /><rect x="32" y="14" width="1.025" height="1.025" fill="rgba(176,185,164,0.016)" /><rect x="0" y="15" width="1.025" height="1.025" fill="rgba(150,148,132,0.992)" /><rect x="5" y="15" width="1.025" height="1.025" fill="rgba(125,109,98,0.875)" /><rect x="6" y="15" width="1.025" height="1.025" fill="rgba(138,120,105,0.804)" /><rect x="7" y="15" width="1.025" height="1.025" fill="rgba(94,77,59,0.361)" /><rect x="8" y="15" width="1.025" height="1.025" fill="rgba(84,69,54,0.016)" /><rect x="9" y="15" width="1.025" height="1.025" fill="rgba(155,130,118,0.012)" /><rect x="32" y="15" width="1.025" height="1.025" fill="rgba(180,190,143,0.012)" /><rect x="0" y="16" width="1.025" height="1.025" fill="rgba(165,163,143,0.992)" /><rect x="1" y="16" width="1.025" height="1.025" fill="rgba(67,57,56,0.988)" /><rect x="5" y="16" width="1.025" height="1.025" fill="rgba(110,91,80,0.886)" /><rect x="6" y="16" width="1.025" height="1.025" fill="rgba(152,132,116,0.827)" /><rect x="7" y="16" width="1.025" height="1.025" fill="rgba(144,124,108,0.745)" /><rect x="8" y="16" width="1.025" height="1.025" fill="rgba(138,118,102,0.161)" /><rect x="9" y="16" width="1.025" height="1.025" fill="rgba(150,130,114,0.016)" /><rect x="32" y="16" width="1.025" height="1.025" fill="rgba(141,147,99,0.004)" /><rect x="33" y="16" width="1.025" height="1.025" fill="rgba(143,135,107,0.004)" /><rect x="0" y="17" width="1.025" height="1.025" fill="rgba(160,149,130,0.992)" /><rect x="4" y="17" width="1.025" height="1.025" fill="rgba(56,39,32,0.937)" /><rect x="5" y="17" width="1.025" height="1.025" fill="rgba(131,117,99,0.898)" /><rect x="6" y="17" width="1.025" height="1.025" fill="rgba(73,61,53,0.843)" /><rect x="7" y="17" width="1.025" height="1.025" fill="rgba(136,117,103,0.769)" /><rect x="8" y="17" width="1.025" height="1.025" fill="rgba(137,116,103,0.337)" /><rect x="9" y="17" width="1.025" height="1.025" fill="rgba(135,114,102,0.141)" /><rect x="0" y="18" width="1.025" height="1.025" fill="rgba(159,134,121,0.996)" /><rect x="7" y="18" width="1.025" height="1.025" fill="rgba(120,98,85,0.796)" /><rect x="8" y="18" width="1.025" height="1.025" fill="rgba(160,137,124,0.722)" /><rect x="9" y="18" width="1.025" height="1.025" fill="rgba(146,121,107,0.310)" /><rect x="10" y="18" width="1.025" height="1.025" fill="rgba(135,98,82,0.255)" /><rect x="0" y="19" width="1.025" height="1.025" fill="rgba(89,66,48,1.000)" /><rect x="2" y="19" width="1.025" height="1.025" fill="rgba(160,145,130,0.984)" /><rect x="3" y="19" width="1.025" height="1.025" fill="rgba(91,74,59,0.973)" /><rect x="4" y="19" width="1.025" height="1.025" fill="rgba(117,103,88,0.953)" /><rect x="5" y="19" width="1.025" height="1.025" fill="rgba(139,125,108,0.925)" /><rect x="6" y="19" width="1.025" height="1.025" fill="rgba(96,76,60,0.886)" /><rect x="7" y="19" width="1.025" height="1.025" fill="rgba(178,155,144,0.831)" /><rect x="8" y="19" width="1.025" height="1.025" fill="rgba(123,94,84,0.765)" /><rect x="9" y="19" width="1.025" height="1.025" fill="rgba(122,97,82,0.678)" /><rect x="10" y="19" width="1.025" height="1.025" fill="rgba(130,108,93,0.294)" /><rect x="11" y="19" width="1.025" height="1.025" fill="rgba(70,60,32,0.243)" /><rect x="0" y="20" width="1.025" height="1.025" fill="rgba(108,80,64,1.000)" /><rect x="1" y="20" width="1.025" height="1.025" fill="rgba(138,111,95,0.996)" /><rect x="2" y="20" width="1.025" height="1.025" fill="rgba(155,132,119,0.992)" /><rect x="3" y="20" width="1.025" height="1.025" fill="rgba(118,98,84,0.980)" /><rect x="4" y="20" width="1.025" height="1.025" fill="rgba(160,154,136,0.961)" /><rect x="5" y="20" width="1.025" height="1.025" fill="rgba(162,157,136,0.941)" /><rect x="6" y="20" width="1.025" height="1.025" fill="rgba(98,75,62,0.910)" /><rect x="7" y="20" width="1.025" height="1.025" fill="rgba(115,94,81,0.859)" /><rect x="8" y="20" width="1.025" height="1.025" fill="rgba(126,108,94,0.808)" /><rect x="9" y="20" width="1.025" height="1.025" fill="rgba(121,103,89,0.737)" /><rect x="10" y="20" width="1.025" height="1.025" fill="rgba(130,110,96,0.659)" /><rect x="11" y="20" width="1.025" height="1.025" fill="rgba(92,78,59,0.576)" /><rect x="0" y="21" width="1.025" height="1.025" fill="rgba(170,154,132,1.000)" /><rect x="1" y="21" width="1.025" height="1.025" fill="rgba(154,115,104,1.000)" /><rect x="2" y="21" width="1.025" height="1.025" fill="rgba(138,105,94,0.992)" /><rect x="3" y="21" width="1.025" height="1.025" fill="rgba(156,134,121,0.980)" /><rect x="4" y="21" width="1.025" height="1.025" fill="rgba(158,140,123,0.969)" /><rect x="5" y="21" width="1.025" height="1.025" fill="rgba(123,103,87,0.953)" /><rect x="6" y="21" width="1.025" height="1.025" fill="rgba(132,109,96,0.925)" /><rect x="7" y="21" width="1.025" height="1.025" fill="rgba(97,77,63,0.890)" /><rect x="8" y="21" width="1.025" height="1.025" fill="rgba(123,104,90,0.843)" /><rect x="9" y="21" width="1.025" height="1.025" fill="rgba(124,106,91,0.796)" /><rect x="10" y="21" width="1.025" height="1.025" fill="rgba(127,105,92,0.725)" /><rect x="11" y="21" width="1.025" height="1.025" fill="rgba(115,81,74,0.659)" /><rect x="0" y="22" width="1.025" height="1.025" fill="rgba(150,97,90,1.000)" /><rect x="1" y="22" width="1.025" height="1.025" fill="rgba(144,100,90,1.000)" /><rect x="2" y="22" width="1.025" height="1.025" fill="rgba(168,135,124,0.996)" /><rect x="3" y="22" width="1.025" height="1.025" fill="rgba(135,114,97,0.988)" /><rect x="4" y="22" width="1.025" height="1.025" fill="rgba(156,136,120,0.976)" /><rect x="5" y="22" width="1.025" height="1.025" fill="rgba(157,137,121,0.965)" /><rect x="6" y="22" width="1.025" height="1.025" fill="rgba(150,127,115,0.941)" /><rect x="7" y="22" width="1.025" height="1.025" fill="rgba(145,125,111,0.910)" /><rect x="8" y="22" width="1.025" height="1.025" fill="rgba(156,139,124,0.882)" /><rect x="9" y="22" width="1.025" height="1.025" fill="rgba(143,130,113,0.843)" /><rect x="10" y="22" width="1.025" height="1.025" fill="rgba(94,73,60,0.792)" /><rect x="11" y="22" width="1.025" height="1.025" fill="rgba(149,103,93,0.737)" /><rect x="12" y="22" width="1.025" height="1.025" fill="rgba(89,63,42,0.675)" /><rect x="0" y="23" width="1.025" height="1.025" fill="rgba(126,104,89,1.000)" /><rect x="1" y="23" width="1.025" height="1.025" fill="rgba(155,134,118,1.000)" /><rect x="2" y="23" width="1.025" height="1.025" fill="rgba(150,130,113,0.996)" /><rect x="3" y="23" width="1.025" height="1.025" fill="rgba(116,96,80,0.988)" /><rect x="4" y="23" width="1.025" height="1.025" fill="rgba(109,87,71,0.988)" /><rect x="5" y="23" width="1.025" height="1.025" fill="rgba(111,88,73,0.976)" /><rect x="6" y="23" width="1.025" height="1.025" fill="rgba(117,95,82,0.961)" /><rect x="7" y="23" width="1.025" height="1.025" fill="rgba(130,117,101,0.941)" /><rect x="8" y="23" width="1.025" height="1.025" fill="rgba(175,160,144,0.910)" /><rect x="9" y="23" width="1.025" height="1.025" fill="rgba(134,116,102,0.882)" /><rect x="10" y="23" width="1.025" height="1.025" fill="rgba(162,144,130,0.847)" /><rect x="11" y="23" width="1.025" height="1.025" fill="rgba(111,86,72,0.800)" /><rect x="12" y="23" width="1.025" height="1.025" fill="rgba(122,81,67,0.757)" /><rect x="0" y="24" width="1.025" height="1.025" fill="rgba(132,110,97,1.000)" /><rect x="1" y="24" width="1.025" height="1.025" fill="rgba(123,102,89,1.000)" /><rect x="2" y="24" width="1.025" height="1.025" fill="rgba(159,139,123,1.000)" /><rect x="3" y="24" width="1.025" height="1.025" fill="rgba(162,141,125,0.996)" /><rect x="4" y="24" width="1.025" height="1.025" fill="rgba(160,145,127,0.992)" /><rect x="5" y="24" width="1.025" height="1.025" fill="rgba(173,159,142,0.984)" /><rect x="6" y="24" width="1.025" height="1.025" fill="rgba(141,126,111,0.976)" /><rect x="7" y="24" width="1.025" height="1.025" fill="rgba(117,92,81,0.957)" /><rect x="8" y="24" width="1.025" height="1.025" fill="rgba(120,95,83,0.937)" /><rect x="9" y="24" width="1.025" height="1.025" fill="rgba(162,140,127,0.914)" /><rect x="10" y="24" width="1.025" height="1.025" fill="rgba(132,115,100,0.886)" /><rect x="11" y="24" width="1.025" height="1.025" fill="rgba(130,110,94,0.859)" /><rect x="12" y="24" width="1.025" height="1.025" fill="rgba(159,145,124,0.824)" /><rect x="0" y="25" width="1.025" height="1.025" fill="rgba(121,106,91,1.000)" /><rect x="1" y="25" width="1.025" height="1.025" fill="rgba(108,87,74,1.000)" /><rect x="2" y="25" width="1.025" height="1.025" fill="rgba(170,148,135,1.000)" /><rect x="3" y="25" width="1.025" height="1.025" fill="rgba(124,101,88,0.996)" /><rect x="4" y="25" width="1.025" height="1.025" fill="rgba(150,129,116,0.996)" /><rect x="5" y="25" width="1.025" height="1.025" fill="rgba(118,98,84,0.992)" /><rect x="6" y="25" width="1.025" height="1.025" fill="rgba(155,133,120,0.984)" /><rect x="7" y="25" width="1.025" height="1.025" fill="rgba(126,101,89,0.976)" /><rect x="8" y="25" width="1.025" height="1.025" fill="rgba(91,74,60,0.961)" /><rect x="9" y="25" width="1.025" height="1.025" fill="rgba(157,148,131,0.941)" /><rect x="10" y="25" width="1.025" height="1.025" fill="rgba(90,72,56,0.922)" /><rect x="11" y="25" width="1.025" height="1.025" fill="rgba(170,156,137,0.902)" /><rect x="12" y="25" width="1.025" height="1.025" fill="rgba(153,139,118,0.882)" /><rect x="13" y="25" width="1.025" height="1.025" fill="rgba(151,106,93,0.855)" /><rect x="1" y="26" width="1.025" height="1.025" fill="rgba(99,78,65,1.000)" /><rect x="2" y="26" width="1.025" height="1.025" fill="rgba(117,94,81,1.000)" /><rect x="3" y="26" width="1.025" height="1.025" fill="rgba(98,73,61,1.000)" /><rect x="4" y="26" width="1.025" height="1.025" fill="rgba(156,135,121,0.996)" /><rect x="5" y="26" width="1.025" height="1.025" fill="rgba(104,84,70,0.996)" /><rect x="6" y="26" width="1.025" height="1.025" fill="rgba(160,140,126,0.988)" /><rect x="7" y="26" width="1.025" height="1.025" fill="rgba(88,62,51,0.984)" /><rect x="8" y="26" width="1.025" height="1.025" fill="rgba(147,122,110,0.976)" /><rect x="9" y="26" width="1.025" height="1.025" fill="rgba(142,127,112,0.965)" /><rect x="10" y="26" width="1.025" height="1.025" fill="rgba(159,142,124,0.949)" /><rect x="11" y="26" width="1.025" height="1.025" fill="rgba(139,128,109,0.933)" /><rect x="12" y="26" width="1.025" height="1.025" fill="rgba(161,131,120,0.918)" /><rect x="13" y="26" width="1.025" height="1.025" fill="rgba(154,139,134,0.902)" /><rect x="14" y="26" width="1.025" height="1.025" fill="rgba(146,105,91,0.894)" /><rect x="0" y="27" width="1.025" height="1.025" fill="rgba(95,80,72,1.000)" /><rect x="1" y="27" width="1.025" height="1.025" fill="rgba(152,130,117,1.000)" /><rect x="2" y="27" width="1.025" height="1.025" fill="rgba(134,111,98,1.000)" /><rect x="3" y="27" width="1.025" height="1.025" fill="rgba(146,121,109,1.000)" /><rect x="4" y="27" width="1.025" height="1.025" fill="rgba(96,90,72,1.000)" /><rect x="5" y="27" width="1.025" height="1.025" fill="rgba(161,155,138,1.000)" /><rect x="6" y="27" width="1.025" height="1.025" fill="rgba(109,98,81,0.996)" /><rect x="7" y="27" width="1.025" height="1.025" fill="rgba(115,94,81,0.992)" /><rect x="8" y="27" width="1.025" height="1.025" fill="rgba(119,101,87,0.988)" /><rect x="9" y="27" width="1.025" height="1.025" fill="rgba(155,137,123,0.980)" /><rect x="10" y="27" width="1.025" height="1.025" fill="rgba(158,141,123,0.976)" /><rect x="11" y="27" width="1.025" height="1.025" fill="rgba(158,140,123,0.961)" /><rect x="12" y="27" width="1.025" height="1.025" fill="rgba(161,141,124,0.949)" /><rect x="13" y="27" width="1.025" height="1.025" fill="rgba(154,132,117,0.941)" /><rect x="14" y="27" width="1.025" height="1.025" fill="rgba(176,151,137,0.933)" /><rect x="15" y="27" width="1.025" height="1.025" fill="rgba(95,63,38,0.922)" /><rect x="16" y="27" width="1.025" height="1.025" fill="rgba(125,91,74,0.914)" /><rect x="0" y="28" width="1.025" height="1.025" fill="rgba(135,113,99,1.000)" /><rect x="1" y="28" width="1.025" height="1.025" fill="rgba(107,84,72,1.000)" /><rect x="2" y="28" width="1.025" height="1.025" fill="rgba(112,90,77,1.000)" /><rect x="3" y="28" width="1.025" height="1.025" fill="rgba(135,113,101,1.000)" /><rect x="4" y="28" width="1.025" height="1.025" fill="rgba(173,162,145,1.000)" /><rect x="5" y="28" width="1.025" height="1.025" fill="rgba(153,141,125,1.000)" /><rect x="6" y="28" width="1.025" height="1.025" fill="rgba(98,84,69,1.000)" /><rect x="7" y="28" width="1.025" height="1.025" fill="rgba(121,100,87,0.996)" /><rect x="8" y="28" width="1.025" height="1.025" fill="rgba(140,122,108,0.992)" /><rect x="9" y="28" width="1.025" height="1.025" fill="rgba(162,145,130,0.984)" /><rect x="10" y="28" width="1.025" height="1.025" fill="rgba(161,143,127,0.984)" /><rect x="11" y="28" width="1.025" height="1.025" fill="rgba(158,141,123,0.980)" /><rect x="12" y="28" width="1.025" height="1.025" fill="rgba(158,138,122,0.973)" /><rect x="13" y="28" width="1.025" height="1.025" fill="rgba(126,108,92,0.965)" /><rect x="14" y="28" width="1.025" height="1.025" fill="rgba(121,105,87,0.957)" /><rect x="15" y="28" width="1.025" height="1.025" fill="rgba(142,131,119,0.957)" /><rect x="16" y="28" width="1.025" height="1.025" fill="rgba(146,94,87,0.949)" /><rect x="0" y="29" width="1.025" height="1.025" fill="rgba(163,145,131,1.000)" /><rect x="1" y="29" width="1.025" height="1.025" fill="rgba(151,128,116,1.000)" /><rect x="2" y="29" width="1.025" height="1.025" fill="rgba(153,130,117,1.000)" /><rect x="3" y="29" width="1.025" height="1.025" fill="rgba(140,118,105,1.000)" /><rect x="4" y="29" width="1.025" height="1.025" fill="rgba(156,135,121,1.000)" /><rect x="5" y="29" width="1.025" height="1.025" fill="rgba(156,135,120,1.000)" /><rect x="6" y="29" width="1.025" height="1.025" fill="rgba(108,90,76,1.000)" /><rect x="7" y="29" width="1.025" height="1.025" fill="rgba(150,129,117,1.000)" /><rect x="8" y="29" width="1.025" height="1.025" fill="rgba(62,52,51,0.996)" /><rect x="10" y="29" width="1.025" height="1.025" fill="rgba(67,56,50,0.992)" /><rect x="11" y="29" width="1.025" height="1.025" fill="rgba(122,107,95,0.992)" /><rect x="12" y="29" width="1.025" height="1.025" fill="rgba(151,130,117,0.984)" /><rect x="13" y="29" width="1.025" height="1.025" fill="rgba(156,135,120,0.980)" /><rect x="14" y="29" width="1.025" height="1.025" fill="rgba(160,135,119,0.980)" /><rect x="15" y="29" width="1.025" height="1.025" fill="rgba(159,136,116,0.980)" /><rect x="16" y="29" width="1.025" height="1.025" fill="rgba(138,105,100,0.973)" /><rect x="0" y="30" width="1.025" height="1.025" fill="rgba(101,80,67,1.000)" /><rect x="1" y="30" width="1.025" height="1.025" fill="rgba(165,142,130,1.000)" /><rect x="2" y="30" width="1.025" height="1.025" fill="rgba(129,108,95,1.000)" /><rect x="3" y="30" width="1.025" height="1.025" fill="rgba(145,123,110,1.000)" /><rect x="4" y="30" width="1.025" height="1.025" fill="rgba(130,108,96,1.000)" /><rect x="5" y="30" width="1.025" height="1.025" fill="rgba(170,149,136,1.000)" /><rect x="6" y="30" width="1.025" height="1.025" fill="rgba(157,136,123,1.000)" /><rect x="0" y="31" width="1.025" height="1.025" fill="rgba(98,76,61,1.000)" /><rect x="1" y="31" width="1.025" height="1.025" fill="rgba(118,95,82,1.000)" /><rect x="2" y="31" width="1.025" height="1.025" fill="rgba(156,135,122,1.000)" /><rect x="3" y="31" width="1.025" height="1.025" fill="rgba(138,118,104,1.000)" /><rect x="4" y="31" width="1.025" height="1.025" fill="rgba(130,110,96,1.000)" /><rect x="5" y="31" width="1.025" height="1.025" fill="rgba(123,103,89,1.000)" /><rect x="6" y="31" width="1.025" height="1.025" fill="rgba(149,127,113,1.000)" /><rect x="7" y="31" width="1.025" height="1.025" fill="rgba(159,137,124,1.000)" /><rect x="8" y="31" width="1.025" height="1.025" fill="rgba(125,110,97,1.000)" /><rect x="9" y="31" width="1.025" height="1.025" fill="rgba(84,70,62,1.000)" /><rect x="10" y="31" width="1.025" height="1.025" fill="rgba(94,80,71,1.000)" /><rect x="11" y="31" width="1.025" height="1.025" fill="rgba(112,98,89,1.000)" /><rect x="12" y="31" width="1.025" height="1.025" fill="rgba(114,101,92,0.996)" /><rect x="1" y="32" width="1.025" height="1.025" fill="rgba(129,109,93,1.000)" /><rect x="2" y="32" width="1.025" height="1.025" fill="rgba(143,121,106,1.000)" /><rect x="3" y="32" width="1.025" height="1.025" fill="rgba(163,142,123,1.000)" /><rect x="4" y="32" width="1.025" height="1.025" fill="rgba(163,146,136,1.000)" /><rect x="5" y="32" width="1.025" height="1.025" fill="rgba(173,160,148,1.000)" /><rect x="6" y="32" width="1.025" height="1.025" fill="rgba(167,153,140,1.000)" /><rect x="7" y="32" width="1.025" height="1.025" fill="rgba(147,133,118,1.000)" /><rect x="8" y="32" width="1.025" height="1.025" fill="rgba(158,138,119,1.000)" /><rect x="9" y="32" width="1.025" height="1.025" fill="rgba(161,140,121,1.000)" /><rect x="10" y="32" width="1.025" height="1.025" fill="rgba(142,121,104,1.000)" /><rect x="11" y="32" width="1.025" height="1.025" fill="rgba(139,124,106,1.000)" /><rect x="12" y="32" width="1.025" height="1.025" fill="rgba(121,104,90,1.000)" /><rect x="13" y="32" width="1.025" height="1.025" fill="rgba(165,136,125,1.000)" /><rect x="10" y="33" width="1.025" height="1.025" fill="rgba(69,53,49,1.000)" /><rect x="11" y="33" width="1.025" height="1.025" fill="rgba(121,88,81,1.000)" /><rect x="12" y="33" width="1.025" height="1.025" fill="rgba(104,71,62,1.000)" /></svg>