<svg shape-rendering="crispEdges" xmlns="http://www.w3.org/2000/svg" version="1.1" width="37" height="37"><style>rect { image-rendering: pixelated; }</style><rect x="13" y="4" width="1.025" height="1.025" fill="rgba(120,69,10,1.000)" /><rect x="14" y="4" width="1.025" height="1.025" fill="rgba(255,220,89,1.000)" /><rect x="15" y="4" width="1.025" height="1.025" fill="rgba(253,212,88,1.000)" /><rect x="16" y="4" width="1.025" height="1.025" fill="rgba(202,152,56,1.000)" /><rect x="17" y="4" width="1.025" height="1.025" fill="rgba(156,90,18,1.000)" /><rect x="18" y="4" width="1.025" height="1.025" fill="rgba(255,216,79,1.000)" /><rect x="19" y="4" width="1.025" height="1.025" fill="rgba(245,192,58,1.000)" /><rect x="20" y="4" width="1.025" height="1.025" fill="rgba(63,7,0,1.000)" /><rect x="12" y="5" width="1.025" height="1.025" fill="rgba(163,97,15,1.000)" /><rect x="13" y="5" width="1.025" height="1.025" fill="rgba(246,197,61,1.000)" /><rect x="14" y="5" width="1.025" height="1.025" fill="rgba(255,216,94,1.000)" /><rect x="15" y="5" width="1.025" height="1.025" fill="rgba(254,227,113,1.000)" /><rect x="16" y="5" width="1.025" height="1.025" fill="rgba(255,224,112,1.000)" /><rect x="17" y="5" width="1.025" height="1.025" fill="rgba(255,224,109,1.000)" /><rect x="18" y="5" width="1.025" height="1.025" fill="rgba(255,225,110,1.000)" /><rect x="19" y="5" width="1.025" height="1.025" fill="rgba(253,214,91,1.000)" /><rect x="20" y="5" width="1.025" height="1.025" fill="rgba(241,186,57,1.000)" /><rect x="21" y="5" width="1.025" height="1.025" fill="rgba(91,35,0,1.000)" /><rect x="22" y="5" width="1.025" height="1.025" fill="rgba(50,6,0,1.000)" /><rect x="23" y="5" width="1.025" height="1.025" fill="rgba(247,202,65,1.000)" /><rect x="24" y="5" width="1.025" height="1.025" fill="rgba(254,195,0,1.000)" /><rect x="11" y="6" width="1.025" height="1.025" fill="rgba(195,133,28,1.000)" /><rect x="12" y="6" width="1.025" height="1.025" fill="rgba(255,217,89,1.000)" /><rect x="13" y="6" width="1.025" height="1.025" fill="rgba(255,226,112,1.000)" /><rect x="14" y="6" width="1.025" height="1.025" fill="rgba(249,205,68,1.000)" /><rect x="15" y="6" width="1.025" height="1.025" fill="rgba(253,244,132,1.000)" /><rect x="16" y="6" width="1.025" height="1.025" fill="rgba(225,165,30,1.000)" /><rect x="17" y="6" width="1.025" height="1.025" fill="rgba(251,207,71,1.000)" /><rect x="18" y="6" width="1.025" height="1.025" fill="rgba(255,218,94,1.000)" /><rect x="19" y="6" width="1.025" height="1.025" fill="rgba(254,222,99,1.000)" /><rect x="20" y="6" width="1.025" height="1.025" fill="rgba(255,222,105,1.000)" /><rect x="21" y="6" width="1.025" height="1.025" fill="rgba(236,184,43,1.000)" /><rect x="22" y="6" width="1.025" height="1.025" fill="rgba(247,199,60,1.000)" /><rect x="23" y="6" width="1.025" height="1.025" fill="rgba(255,220,96,1.000)" /><rect x="24" y="6" width="1.025" height="1.025" fill="rgba(239,193,68,1.000)" /><rect x="25" y="6" width="1.025" height="1.025" fill="rgba(77,30,14,1.000)" /><rect x="10" y="7" width="1.025" height="1.025" fill="rgba(106,42,0,1.000)" /><rect x="11" y="7" width="1.025" height="1.025" fill="rgba(254,211,76,1.000)" /><rect x="12" y="7" width="1.025" height="1.025" fill="rgba(255,223,102,1.000)" /><rect x="13" y="7" width="1.025" height="1.025" fill="rgba(255,233,127,1.000)" /><rect x="14" y="7" width="1.025" height="1.025" fill="rgba(255,222,103,1.000)" /><rect x="15" y="7" width="1.025" height="1.025" fill="rgba(139,68,0,1.000)" /><rect x="16" y="7" width="1.025" height="1.025" fill="rgba(208,144,20,1.000)" /><rect x="17" y="7" width="1.025" height="1.025" fill="rgba(240,179,37,1.000)" /><rect x="18" y="7" width="1.025" height="1.025" fill="rgba(255,221,97,1.000)" /><rect x="19" y="7" width="1.025" height="1.025" fill="rgba(255,222,105,1.000)" /><rect x="20" y="7" width="1.025" height="1.025" fill="rgba(255,213,85,1.000)" /><rect x="21" y="7" width="1.025" height="1.025" fill="rgba(239,186,47,1.000)" /><rect x="22" y="7" width="1.025" height="1.025" fill="rgba(255,217,88,1.000)" /><rect x="23" y="7" width="1.025" height="1.025" fill="rgba(254,215,89,1.000)" /><rect x="24" y="7" width="1.025" height="1.025" fill="rgba(254,223,108,1.000)" /><rect x="25" y="7" width="1.025" height="1.025" fill="rgba(239,183,61,1.000)" /><rect x="10" y="8" width="1.025" height="1.025" fill="rgba(185,121,16,1.000)" /><rect x="11" y="8" width="1.025" height="1.025" fill="rgba(243,192,50,1.000)" /><rect x="12" y="8" width="1.025" height="1.025" fill="rgba(253,210,78,1.000)" /><rect x="13" y="8" width="1.025" height="1.025" fill="rgba(253,234,131,1.000)" /><rect x="14" y="8" width="1.025" height="1.025" fill="rgba(255,226,120,0.659)" /><rect x="15" y="8" width="1.025" height="1.025" fill="rgba(150,82,13,1.000)" /><rect x="16" y="8" width="1.025" height="1.025" fill="rgba(242,181,37,1.000)" /><rect x="17" y="8" width="1.025" height="1.025" fill="rgba(180,108,8,1.000)" /><rect x="18" y="8" width="1.025" height="1.025" fill="rgba(179,108,8,1.000)" /><rect x="19" y="8" width="1.025" height="1.025" fill="rgba(202,131,11,1.000)" /><rect x="20" y="8" width="1.025" height="1.025" fill="rgba(231,165,27,1.000)" /><rect x="21" y="8" width="1.025" height="1.025" fill="rgba(208,140,15,1.000)" /><rect x="22" y="8" width="1.025" height="1.025" fill="rgba(254,206,74,1.000)" /><rect x="23" y="8" width="1.025" height="1.025" fill="rgba(254,215,85,1.000)" /><rect x="24" y="8" width="1.025" height="1.025" fill="rgba(255,221,99,1.000)" /><rect x="25" y="8" width="1.025" height="1.025" fill="rgba(250,203,70,1.000)" /><rect x="26" y="8" width="1.025" height="1.025" fill="rgba(203,139,10,1.000)" /><rect x="10" y="9" width="1.025" height="1.025" fill="rgba(187,121,20,1.000)" /><rect x="11" y="9" width="1.025" height="1.025" fill="rgba(214,151,25,1.000)" /><rect x="12" y="9" width="1.025" height="1.025" fill="rgba(253,204,68,1.000)" /><rect x="13" y="9" width="1.025" height="1.025" fill="rgba(255,229,112,1.000)" /><rect x="14" y="9" width="1.025" height="1.025" fill="rgba(253,211,81,0.514)" /><rect x="15" y="9" width="1.025" height="1.025" fill="rgba(252,229,114,1.000)" /><rect x="16" y="9" width="1.025" height="1.025" fill="rgba(171,101,16,1.000)" /><rect x="23" y="9" width="1.025" height="1.025" fill="rgba(231,148,93,1.000)" /><rect x="24" y="9" width="1.025" height="1.025" fill="rgba(253,200,81,1.000)" /><rect x="25" y="9" width="1.025" height="1.025" fill="rgba(252,215,97,1.000)" /><rect x="26" y="9" width="1.025" height="1.025" fill="rgba(239,182,34,1.000)" /><rect x="9" y="10" width="1.025" height="1.025" fill="rgba(83,33,1,1.000)" /><rect x="10" y="10" width="1.025" height="1.025" fill="rgba(183,119,18,1.000)" /><rect x="11" y="10" width="1.025" height="1.025" fill="rgba(200,134,15,1.000)" /><rect x="12" y="10" width="1.025" height="1.025" fill="rgba(239,190,52,1.000)" /><rect x="13" y="10" width="1.025" height="1.025" fill="rgba(252,229,116,1.000)" /><rect x="14" y="10" width="1.025" height="1.025" fill="rgba(255,233,124,1.000)" /><rect x="15" y="10" width="1.025" height="1.025" fill="rgba(255,226,103,1.000)" /><rect x="16" y="10" width="1.025" height="1.025" fill="rgba(253,187,116,1.000)" /><rect x="24" y="10" width="1.025" height="1.025" fill="rgba(41,1,0,1.000)" /><rect x="25" y="10" width="1.025" height="1.025" fill="rgba(240,185,48,1.000)" /><rect x="26" y="10" width="1.025" height="1.025" fill="rgba(232,170,26,1.000)" /><rect x="8" y="11" width="1.025" height="1.025" fill="rgba(96,40,0,1.000)" /><rect x="9" y="11" width="1.025" height="1.025" fill="rgba(78,31,0,1.000)" /><rect x="10" y="11" width="1.025" height="1.025" fill="rgba(159,97,13,1.000)" /><rect x="11" y="11" width="1.025" height="1.025" fill="rgba(189,123,16,1.000)" /><rect x="12" y="11" width="1.025" height="1.025" fill="rgba(219,157,25,1.000)" /><rect x="13" y="11" width="1.025" height="1.025" fill="rgba(255,222,99,1.000)" /><rect x="14" y="11" width="1.025" height="1.025" fill="rgba(255,233,121,1.000)" /><rect x="15" y="11" width="1.025" height="1.025" fill="rgba(254,226,103,1.000)" /><rect x="16" y="11" width="1.025" height="1.025" fill="rgba(254,224,169,1.000)" /><rect x="24" y="11" width="1.025" height="1.025" fill="rgba(6,0,0,1.000)" /><rect x="25" y="11" width="1.025" height="1.025" fill="rgba(76,27,5,1.000)" /><rect x="26" y="11" width="1.025" height="1.025" fill="rgba(192,126,12,1.000)" /><rect x="7" y="12" width="1.025" height="1.025" fill="rgba(197,149,71,1.000)" /><rect x="8" y="12" width="1.025" height="1.025" fill="rgba(244,199,52,1.000)" /><rect x="9" y="12" width="1.025" height="1.025" fill="rgba(247,199,60,1.000)" /><rect x="10" y="12" width="1.025" height="1.025" fill="rgba(249,202,63,1.000)" /><rect x="11" y="12" width="1.025" height="1.025" fill="rgba(252,205,71,1.000)" /><rect x="12" y="12" width="1.025" height="1.025" fill="rgba(252,210,79,1.000)" /><rect x="13" y="12" width="1.025" height="1.025" fill="rgba(255,238,151,1.000)" /><rect x="14" y="12" width="1.025" height="1.025" fill="rgba(255,225,114,1.000)" /><rect x="15" y="12" width="1.025" height="1.025" fill="rgba(194,124,21,1.000)" /><rect x="24" y="12" width="1.025" height="1.025" fill="rgba(7,7,0,1.000)" /><rect x="25" y="12" width="1.025" height="1.025" fill="rgba(216,151,34,1.000)" /><rect x="26" y="12" width="1.025" height="1.025" fill="rgba(172,97,9,1.000)" /><rect x="7" y="13" width="1.025" height="1.025" fill="rgba(174,118,52,1.000)" /><rect x="8" y="13" width="1.025" height="1.025" fill="rgba(251,202,60,1.000)" /><rect x="9" y="13" width="1.025" height="1.025" fill="rgba(248,201,62,1.000)" /><rect x="10" y="13" width="1.025" height="1.025" fill="rgba(248,199,60,1.000)" /><rect x="11" y="13" width="1.025" height="1.025" fill="rgba(253,223,107,1.000)" /><rect x="12" y="13" width="1.025" height="1.025" fill="rgba(251,206,71,1.000)" /><rect x="13" y="13" width="1.025" height="1.025" fill="rgba(255,233,125,1.000)" /><rect x="14" y="13" width="1.025" height="1.025" fill="rgba(246,194,59,1.000)" /><rect x="15" y="13" width="1.025" height="1.025" fill="rgba(142,62,0,1.000)" /><rect x="24" y="13" width="1.025" height="1.025" fill="rgba(6,0,0,1.000)" /><rect x="25" y="13" width="1.025" height="1.025" fill="rgba(203,136,25,1.000)" /><rect x="26" y="13" width="1.025" height="1.025" fill="rgba(45,7,0,1.000)" /><rect x="27" y="13" width="1.025" height="1.025" fill="rgba(65,22,5,1.000)" /><rect x="7" y="14" width="1.025" height="1.025" fill="rgba(146,90,30,1.000)" /><rect x="8" y="14" width="1.025" height="1.025" fill="rgba(223,160,21,1.000)" /><rect x="9" y="14" width="1.025" height="1.025" fill="rgba(217,161,25,1.000)" /><rect x="10" y="14" width="1.025" height="1.025" fill="rgba(233,179,37,1.000)" /><rect x="11" y="14" width="1.025" height="1.025" fill="rgba(249,211,72,1.000)" /><rect x="12" y="14" width="1.025" height="1.025" fill="rgba(220,159,21,1.000)" /><rect x="13" y="14" width="1.025" height="1.025" fill="rgba(215,154,19,1.000)" /><rect x="14" y="14" width="1.025" height="1.025" fill="rgba(97,37,1,1.000)" /><rect x="15" y="14" width="1.025" height="1.025" fill="rgba(250,204,137,1.000)" /><rect x="24" y="14" width="1.025" height="1.025" fill="rgba(0,1,0,1.000)" /><rect x="25" y="14" width="1.025" height="1.025" fill="rgba(213,149,26,1.000)" /><rect x="26" y="14" width="1.025" height="1.025" fill="rgba(207,146,23,1.000)" /><rect x="27" y="14" width="1.025" height="1.025" fill="rgba(221,162,31,1.000)" /><rect x="28" y="14" width="1.025" height="1.025" fill="rgba(186,131,24,1.000)" /><rect x="8" y="15" width="1.025" height="1.025" fill="rgba(163,98,16,1.000)" /><rect x="9" y="15" width="1.025" height="1.025" fill="rgba(217,150,28,1.000)" /><rect x="10" y="15" width="1.025" height="1.025" fill="rgba(224,160,22,1.000)" /><rect x="11" y="15" width="1.025" height="1.025" fill="rgba(247,191,47,1.000)" /><rect x="12" y="15" width="1.025" height="1.025" fill="rgba(244,188,49,1.000)" /><rect x="13" y="15" width="1.025" height="1.025" fill="rgba(250,209,107,1.000)" /><rect x="14" y="15" width="1.025" height="1.025" fill="rgba(143,66,17,1.000)" /><rect x="24" y="15" width="1.025" height="1.025" fill="rgba(28,11,4,1.000)" /><rect x="25" y="15" width="1.025" height="1.025" fill="rgba(220,166,26,1.000)" /><rect x="26" y="15" width="1.025" height="1.025" fill="rgba(137,68,0,1.000)" /><rect x="27" y="15" width="1.025" height="1.025" fill="rgba(173,105,5,1.000)" /><rect x="28" y="15" width="1.025" height="1.025" fill="rgba(81,32,3,1.000)" /><rect x="8" y="16" width="1.025" height="1.025" fill="rgba(196,135,32,1.000)" /><rect x="9" y="16" width="1.025" height="1.025" fill="rgba(233,175,34,1.000)" /><rect x="10" y="16" width="1.025" height="1.025" fill="rgba(235,176,33,1.000)" /><rect x="11" y="16" width="1.025" height="1.025" fill="rgba(246,197,58,1.000)" /><rect x="12" y="16" width="1.025" height="1.025" fill="rgba(238,186,44,1.000)" /><rect x="13" y="16" width="1.025" height="1.025" fill="rgba(164,84,32,1.000)" /><rect x="24" y="16" width="1.025" height="1.025" fill="rgba(3,2,0,1.000)" /><rect x="25" y="16" width="1.025" height="1.025" fill="rgba(255,198,52,1.000)" /><rect x="26" y="16" width="1.025" height="1.025" fill="rgba(154,84,4,1.000)" /><rect x="27" y="16" width="1.025" height="1.025" fill="rgba(120,56,1,1.000)" /><rect x="28" y="16" width="1.025" height="1.025" fill="rgba(136,69,4,1.000)" /><rect x="7" y="17" width="1.025" height="1.025" fill="rgba(88,53,8,1.000)" /><rect x="8" y="17" width="1.025" height="1.025" fill="rgba(96,39,0,1.000)" /><rect x="9" y="17" width="1.025" height="1.025" fill="rgba(121,57,1,1.000)" /><rect x="10" y="17" width="1.025" height="1.025" fill="rgba(103,46,0,1.000)" /><rect x="11" y="17" width="1.025" height="1.025" fill="rgba(140,79,6,1.000)" /><rect x="12" y="17" width="1.025" height="1.025" fill="rgba(117,59,10,1.000)" /><rect x="13" y="17" width="1.025" height="1.025" fill="rgba(193,110,52,1.000)" /><rect x="24" y="17" width="1.025" height="1.025" fill="rgba(1,0,0,1.000)" /><rect x="25" y="17" width="1.025" height="1.025" fill="rgba(174,99,0,1.000)" /><rect x="26" y="17" width="1.025" height="1.025" fill="rgba(99,51,0,1.000)" /><rect x="27" y="17" width="1.025" height="1.025" fill="rgba(25,0,3,1.000)" /><rect x="28" y="17" width="1.025" height="1.025" fill="rgba(176,124,18,1.000)" /><rect x="7" y="18" width="1.025" height="1.025" fill="rgba(90,40,3,1.000)" /><rect x="8" y="18" width="1.025" height="1.025" fill="rgba(217,158,22,1.000)" /><rect x="9" y="18" width="1.025" height="1.025" fill="rgba(240,182,40,1.000)" /><rect x="10" y="18" width="1.025" height="1.025" fill="rgba(228,168,32,1.000)" /><rect x="11" y="18" width="1.025" height="1.025" fill="rgba(157,93,13,1.000)" /><rect x="12" y="18" width="1.025" height="1.025" fill="rgba(0,0,0,1.000)" /><rect x="13" y="18" width="1.025" height="1.025" fill="rgba(58,15,6,0.588)" /><rect x="24" y="18" width="1.025" height="1.025" fill="rgba(3,0,0,1.000)" /><rect x="25" y="18" width="1.025" height="1.025" fill="rgba(250,209,75,1.000)" /><rect x="26" y="18" width="1.025" height="1.025" fill="rgba(248,199,60,1.000)" /><rect x="27" y="18" width="1.025" height="1.025" fill="rgba(244,192,49,1.000)" /><rect x="28" y="18" width="1.025" height="1.025" fill="rgba(153,87,13,1.000)" /><rect x="8" y="19" width="1.025" height="1.025" fill="rgba(63,22,10,1.000)" /><rect x="9" y="19" width="1.025" height="1.025" fill="rgba(88,38,7,1.000)" /><rect x="10" y="19" width="1.025" height="1.025" fill="rgba(168,101,14,1.000)" /><rect x="11" y="19" width="1.025" height="1.025" fill="rgba(115,60,5,1.000)" /><rect x="12" y="19" width="1.025" height="1.025" fill="rgba(23,2,0,1.000)" /><rect x="13" y="19" width="1.025" height="1.025" fill="rgba(0,0,0,1.000)" /><rect x="24" y="19" width="1.025" height="1.025" fill="rgba(0,0,1,1.000)" /><rect x="25" y="19" width="1.025" height="1.025" fill="rgba(200,133,16,1.000)" /><rect x="26" y="19" width="1.025" height="1.025" fill="rgba(154,86,1,1.000)" /><rect x="27" y="19" width="1.025" height="1.025" fill="rgba(240,185,41,1.000)" /><rect x="28" y="19" width="1.025" height="1.025" fill="rgba(176,122,15,1.000)" /><rect x="9" y="20" width="1.025" height="1.025" fill="rgba(216,147,15,1.000)" /><rect x="10" y="20" width="1.025" height="1.025" fill="rgba(153,82,5,1.000)" /><rect x="11" y="20" width="1.025" height="1.025" fill="rgba(200,132,21,1.000)" /><rect x="12" y="20" width="1.025" height="1.025" fill="rgba(211,144,19,1.000)" /><rect x="13" y="20" width="1.025" height="1.025" fill="rgba(0,0,2,1.000)" /><rect x="24" y="20" width="1.025" height="1.025" fill="rgba(3,2,0,1.000)" /><rect x="25" y="20" width="1.025" height="1.025" fill="rgba(158,92,16,1.000)" /><rect x="26" y="20" width="1.025" height="1.025" fill="rgba(114,56,1,1.000)" /><rect x="27" y="20" width="1.025" height="1.025" fill="rgba(48,10,4,1.000)" /><rect x="10" y="21" width="1.025" height="1.025" fill="rgba(197,129,12,1.000)" /><rect x="11" y="21" width="1.025" height="1.025" fill="rgba(165,96,9,1.000)" /><rect x="12" y="21" width="1.025" height="1.025" fill="rgba(72,27,4,1.000)" /><rect x="13" y="21" width="1.025" height="1.025" fill="rgba(0,0,0,1.000)" /><rect x="24" y="21" width="1.025" height="1.025" fill="rgba(2,0,0,1.000)" /><rect x="25" y="21" width="1.025" height="1.025" fill="rgba(145,83,8,1.000)" /><rect x="10" y="22" width="1.025" height="1.025" fill="rgba(53,20,0,1.000)" /><rect x="11" y="22" width="1.025" height="1.025" fill="rgba(154,85,8,1.000)" /><rect x="12" y="22" width="1.025" height="1.025" fill="rgba(171,104,15,1.000)" /><rect x="13" y="22" width="1.025" height="1.025" fill="rgba(0,0,0,1.000)" /><rect x="24" y="22" width="1.025" height="1.025" fill="rgba(82,30,2,1.000)" /><rect x="12" y="23" width="1.025" height="1.025" fill="rgba(11,0,1,1.000)" /></svg>