<svg shape-rendering="crispEdges" xmlns="http://www.w3.org/2000/svg" version="1.1" width="37" height="37"><style>rect { image-rendering: pixelated; }</style><rect x="13" y="3" width="1.025" height="1.025" fill="rgba(97,47,16,1.000)" /><rect x="14" y="3" width="1.025" height="1.025" fill="rgba(84,45,16,1.000)" /><rect x="15" y="3" width="1.025" height="1.025" fill="rgba(100,54,20,1.000)" /><rect x="16" y="3" width="1.025" height="1.025" fill="rgba(85,36,11,1.000)" /><rect x="17" y="3" width="1.025" height="1.025" fill="rgba(81,32,4,1.000)" /><rect x="18" y="3" width="1.025" height="1.025" fill="rgba(7,0,0,1.000)" /><rect x="19" y="3" width="1.025" height="1.025" fill="rgba(0,0,0,1.000)" /><rect x="12" y="4" width="1.025" height="1.025" fill="rgba(60,16,2,1.000)" /><rect x="13" y="4" width="1.025" height="1.025" fill="rgba(102,42,2,1.000)" /><rect x="14" y="4" width="1.025" height="1.025" fill="rgba(122,59,6,1.000)" /><rect x="15" y="4" width="1.025" height="1.025" fill="rgba(123,53,7,1.000)" /><rect x="16" y="4" width="1.025" height="1.025" fill="rgba(119,46,4,1.000)" /><rect x="17" y="4" width="1.025" height="1.025" fill="rgba(114,53,10,1.000)" /><rect x="18" y="4" width="1.025" height="1.025" fill="rgba(69,23,0,1.000)" /><rect x="19" y="4" width="1.025" height="1.025" fill="rgba(61,26,0,1.000)" /><rect x="20" y="4" width="1.025" height="1.025" fill="rgba(0,0,1,1.000)" /><rect x="11" y="5" width="1.025" height="1.025" fill="rgba(0,0,0,1.000)" /><rect x="12" y="5" width="1.025" height="1.025" fill="rgba(62,23,0,1.000)" /><rect x="13" y="5" width="1.025" height="1.025" fill="rgba(92,37,1,1.000)" /><rect x="14" y="5" width="1.025" height="1.025" fill="rgba(93,40,1,1.000)" /><rect x="15" y="5" width="1.025" height="1.025" fill="rgba(120,55,12,1.000)" /><rect x="16" y="5" width="1.025" height="1.025" fill="rgba(56,15,0,1.000)" /><rect x="17" y="5" width="1.025" height="1.025" fill="rgba(54,18,1,1.000)" /><rect x="18" y="5" width="1.025" height="1.025" fill="rgba(37,10,0,1.000)" /><rect x="19" y="5" width="1.025" height="1.025" fill="rgba(36,15,0,1.000)" /><rect x="20" y="5" width="1.025" height="1.025" fill="rgba(0,0,1,1.000)" /><rect x="11" y="6" width="1.025" height="1.025" fill="rgba(0,0,0,1.000)" /><rect x="12" y="6" width="1.025" height="1.025" fill="rgba(72,32,9,1.000)" /><rect x="13" y="6" width="1.025" height="1.025" fill="rgba(66,27,3,1.000)" /><rect x="14" y="6" width="1.025" height="1.025" fill="rgba(41,14,1,1.000)" /><rect x="15" y="6" width="1.025" height="1.025" fill="rgba(30,4,0,1.000)" /><rect x="16" y="6" width="1.025" height="1.025" fill="rgba(74,25,0,1.000)" /><rect x="17" y="6" width="1.025" height="1.025" fill="rgba(77,28,0,1.000)" /><rect x="18" y="6" width="1.025" height="1.025" fill="rgba(76,26,0,1.000)" /><rect x="19" y="6" width="1.025" height="1.025" fill="rgba(70,22,0,1.000)" /><rect x="20" y="6" width="1.025" height="1.025" fill="rgba(72,26,3,1.000)" /><rect x="21" y="6" width="1.025" height="1.025" fill="rgba(11,0,0,1.000)" /><rect x="22" y="6" width="1.025" height="1.025" fill="rgba(1,3,0,1.000)" /><rect x="11" y="7" width="1.025" height="1.025" fill="rgba(0,0,0,1.000)" /><rect x="12" y="7" width="1.025" height="1.025" fill="rgba(0,0,2,1.000)" /><rect x="13" y="7" width="1.025" height="1.025" fill="rgba(65,30,7,1.000)" /><rect x="14" y="7" width="1.025" height="1.025" fill="rgba(83,37,8,1.000)" /><rect x="15" y="7" width="1.025" height="1.025" fill="rgba(119,49,4,1.000)" /><rect x="16" y="7" width="1.025" height="1.025" fill="rgba(145,75,26,1.000)" /><rect x="17" y="7" width="1.025" height="1.025" fill="rgba(113,40,0,1.000)" /><rect x="18" y="7" width="1.025" height="1.025" fill="rgba(144,76,31,1.000)" /><rect x="19" y="7" width="1.025" height="1.025" fill="rgba(125,57,16,1.000)" /><rect x="20" y="7" width="1.025" height="1.025" fill="rgba(79,24,1,1.000)" /><rect x="21" y="7" width="1.025" height="1.025" fill="rgba(134,67,18,1.000)" /><rect x="22" y="7" width="1.025" height="1.025" fill="rgba(117,53,14,1.000)" /><rect x="23" y="7" width="1.025" height="1.025" fill="rgba(56,21,4,1.000)" /><rect x="12" y="8" width="1.025" height="1.025" fill="rgba(97,42,15,1.000)" /><rect x="13" y="8" width="1.025" height="1.025" fill="rgba(91,32,2,1.000)" /><rect x="14" y="8" width="1.025" height="1.025" fill="rgba(112,41,5,1.000)" /><rect x="15" y="8" width="1.025" height="1.025" fill="rgba(87,27,0,1.000)" /><rect x="16" y="8" width="1.025" height="1.025" fill="rgba(116,50,6,1.000)" /><rect x="17" y="8" width="1.025" height="1.025" fill="rgba(113,42,5,1.000)" /><rect x="18" y="8" width="1.025" height="1.025" fill="rgba(149,72,21,1.000)" /><rect x="19" y="8" width="1.025" height="1.025" fill="rgba(145,72,19,1.000)" /><rect x="20" y="8" width="1.025" height="1.025" fill="rgba(110,54,19,1.000)" /><rect x="21" y="8" width="1.025" height="1.025" fill="rgba(113,48,8,1.000)" /><rect x="22" y="8" width="1.025" height="1.025" fill="rgba(84,31,1,1.000)" /><rect x="23" y="8" width="1.025" height="1.025" fill="rgba(101,33,1,1.000)" /><rect x="24" y="8" width="1.025" height="1.025" fill="rgba(54,18,0,1.000)" /><rect x="12" y="9" width="1.025" height="1.025" fill="rgba(93,46,13,1.000)" /><rect x="13" y="9" width="1.025" height="1.025" fill="rgba(108,40,1,1.000)" /><rect x="14" y="9" width="1.025" height="1.025" fill="rgba(123,52,9,1.000)" /><rect x="15" y="9" width="1.025" height="1.025" fill="rgba(123,53,8,1.000)" /><rect x="16" y="9" width="1.025" height="1.025" fill="rgba(58,19,0,1.000)" /><rect x="17" y="9" width="1.025" height="1.025" fill="rgba(110,44,2,1.000)" /><rect x="18" y="9" width="1.025" height="1.025" fill="rgba(96,36,0,1.000)" /><rect x="19" y="9" width="1.025" height="1.025" fill="rgba(123,53,8,1.000)" /><rect x="20" y="9" width="1.025" height="1.025" fill="rgba(158,83,34,1.000)" /><rect x="21" y="9" width="1.025" height="1.025" fill="rgba(99,35,3,1.000)" /><rect x="22" y="9" width="1.025" height="1.025" fill="rgba(57,19,0,1.000)" /><rect x="23" y="9" width="1.025" height="1.025" fill="rgba(98,32,1,1.000)" /><rect x="24" y="9" width="1.025" height="1.025" fill="rgba(69,21,0,1.000)" /><rect x="25" y="9" width="1.025" height="1.025" fill="rgba(9,9,1,1.000)" /><rect x="11" y="10" width="1.025" height="1.025" fill="rgba(13,2,0,1.000)" /><rect x="12" y="10" width="1.025" height="1.025" fill="rgba(87,36,7,1.000)" /><rect x="13" y="10" width="1.025" height="1.025" fill="rgba(102,33,2,1.000)" /><rect x="14" y="10" width="1.025" height="1.025" fill="rgba(117,47,8,1.000)" /><rect x="15" y="10" width="1.025" height="1.025" fill="rgba(118,47,8,1.000)" /><rect x="16" y="10" width="1.025" height="1.025" fill="rgba(217,124,66,1.000)" /><rect x="24" y="10" width="1.025" height="1.025" fill="rgba(89,27,1,1.000)" /><rect x="25" y="10" width="1.025" height="1.025" fill="rgba(58,20,2,1.000)" /><rect x="11" y="11" width="1.025" height="1.025" fill="rgba(12,3,0,1.000)" /><rect x="12" y="11" width="1.025" height="1.025" fill="rgba(88,38,9,1.000)" /><rect x="13" y="11" width="1.025" height="1.025" fill="rgba(84,23,0,1.000)" /><rect x="14" y="11" width="1.025" height="1.025" fill="rgba(73,16,0,1.000)" /><rect x="15" y="11" width="1.025" height="1.025" fill="rgba(100,33,4,1.000)" /><rect x="24" y="11" width="1.025" height="1.025" fill="rgba(201,103,52,1.000)" /><rect x="25" y="11" width="1.025" height="1.025" fill="rgba(32,4,0,1.000)" /><rect x="11" y="12" width="1.025" height="1.025" fill="rgba(14,4,0,1.000)" /><rect x="12" y="12" width="1.025" height="1.025" fill="rgba(48,21,2,1.000)" /><rect x="13" y="12" width="1.025" height="1.025" fill="rgba(76,22,0,1.000)" /><rect x="14" y="12" width="1.025" height="1.025" fill="rgba(97,36,3,1.000)" /><rect x="15" y="12" width="1.025" height="1.025" fill="rgba(197,96,47,1.000)" /><rect x="24" y="12" width="1.025" height="1.025" fill="rgba(52,13,1,1.000)" /><rect x="25" y="12" width="1.025" height="1.025" fill="rgba(16,2,0,1.000)" /><rect x="11" y="13" width="1.025" height="1.025" fill="rgba(9,3,0,1.000)" /><rect x="14" y="13" width="1.025" height="1.025" fill="rgba(68,21,0,1.000)" /><rect x="24" y="13" width="1.025" height="1.025" fill="rgba(111,51,16,1.000)" /><rect x="25" y="13" width="1.025" height="1.025" fill="rgba(3,5,6,1.000)" /><rect x="11" y="14" width="1.025" height="1.025" fill="rgba(0,1,0,1.000)" /><rect x="14" y="14" width="1.025" height="1.025" fill="rgba(25,4,0,1.000)" /><rect x="14" y="15" width="1.025" height="1.025" fill="rgba(82,23,2,1.000)" /></svg>