<svg shape-rendering="crispEdges" xmlns="http://www.w3.org/2000/svg" version="1.1" width="37" height="37"><style>rect { image-rendering: pixelated; }</style><rect x="13" y="3" width="1.025" height="1.025" fill="rgba(243,27,57,1.000)" /><rect x="14" y="3" width="1.025" height="1.025" fill="rgba(239,53,80,1.000)" /><rect x="15" y="3" width="1.025" height="1.025" fill="rgba(237,40,80,1.000)" /><rect x="16" y="3" width="1.025" height="1.025" fill="rgba(218,13,99,1.000)" /><rect x="17" y="3" width="1.025" height="1.025" fill="rgba(58,6,143,1.000)" /><rect x="18" y="3" width="1.025" height="1.025" fill="rgba(24,22,108,1.000)" /><rect x="19" y="3" width="1.025" height="1.025" fill="rgba(212,147,30,1.000)" /><rect x="12" y="4" width="1.025" height="1.025" fill="rgba(238,13,136,1.000)" /><rect x="13" y="4" width="1.025" height="1.025" fill="rgba(207,23,99,1.000)" /><rect x="14" y="4" width="1.025" height="1.025" fill="rgba(217,115,1,1.000)" /><rect x="15" y="4" width="1.025" height="1.025" fill="rgba(249,132,0,1.000)" /><rect x="16" y="4" width="1.025" height="1.025" fill="rgba(255,85,12,1.000)" /><rect x="17" y="4" width="1.025" height="1.025" fill="rgba(176,15,180,1.000)" /><rect x="18" y="4" width="1.025" height="1.025" fill="rgba(0,96,138,1.000)" /><rect x="19" y="4" width="1.025" height="1.025" fill="rgba(0,129,168,1.000)" /><rect x="20" y="4" width="1.025" height="1.025" fill="rgba(0,0,10,1.000)" /><rect x="11" y="5" width="1.025" height="1.025" fill="rgba(10,7,19,1.000)" /><rect x="12" y="5" width="1.025" height="1.025" fill="rgba(65,63,163,1.000)" /><rect x="13" y="5" width="1.025" height="1.025" fill="rgba(2,141,170,1.000)" /><rect x="14" y="5" width="1.025" height="1.025" fill="rgba(0,200,139,1.000)" /><rect x="15" y="5" width="1.025" height="1.025" fill="rgba(83,194,43,1.000)" /><rect x="16" y="5" width="1.025" height="1.025" fill="rgba(178,126,0,1.000)" /><rect x="17" y="5" width="1.025" height="1.025" fill="rgba(206,11,115,1.000)" /><rect x="18" y="5" width="1.025" height="1.025" fill="rgba(0,76,94,1.000)" /><rect x="19" y="5" width="1.025" height="1.025" fill="rgba(0,148,117,1.000)" /><rect x="20" y="5" width="1.025" height="1.025" fill="rgba(13,1,60,1.000)" /><rect x="11" y="6" width="1.025" height="1.025" fill="rgba(1,0,3,1.000)" /><rect x="12" y="6" width="1.025" height="1.025" fill="rgba(0,60,141,1.000)" /><rect x="13" y="6" width="1.025" height="1.025" fill="rgba(2,127,151,1.000)" /><rect x="14" y="6" width="1.025" height="1.025" fill="rgba(5,138,168,1.000)" /><rect x="15" y="6" width="1.025" height="1.025" fill="rgba(0,29,78,1.000)" /><rect x="16" y="6" width="1.025" height="1.025" fill="rgba(3,24,87,1.000)" /><rect x="17" y="6" width="1.025" height="1.025" fill="rgba(67,10,108,1.000)" /><rect x="18" y="6" width="1.025" height="1.025" fill="rgba(90,6,116,1.000)" /><rect x="19" y="6" width="1.025" height="1.025" fill="rgba(75,10,111,1.000)" /><rect x="20" y="6" width="1.025" height="1.025" fill="rgba(77,8,144,1.000)" /><rect x="21" y="6" width="1.025" height="1.025" fill="rgba(2,0,9,1.000)" /><rect x="22" y="6" width="1.025" height="1.025" fill="rgba(0,3,2,1.000)" /><rect x="11" y="7" width="1.025" height="1.025" fill="rgba(0,0,0,1.000)" /><rect x="12" y="7" width="1.025" height="1.025" fill="rgba(11,15,166,1.000)" /><rect x="13" y="7" width="1.025" height="1.025" fill="rgba(61,17,178,1.000)" /><rect x="14" y="7" width="1.025" height="1.025" fill="rgba(15,13,144,1.000)" /><rect x="15" y="7" width="1.025" height="1.025" fill="rgba(30,22,192,1.000)" /><rect x="16" y="7" width="1.025" height="1.025" fill="rgba(23,49,213,1.000)" /><rect x="17" y="7" width="1.025" height="1.025" fill="rgba(37,38,192,1.000)" /><rect x="18" y="7" width="1.025" height="1.025" fill="rgba(54,32,207,1.000)" /><rect x="19" y="7" width="1.025" height="1.025" fill="rgba(86,14,197,1.000)" /><rect x="20" y="7" width="1.025" height="1.025" fill="rgba(85,23,195,1.000)" /><rect x="21" y="7" width="1.025" height="1.025" fill="rgba(0,87,184,1.000)" /><rect x="22" y="7" width="1.025" height="1.025" fill="rgba(0,75,158,1.000)" /><rect x="23" y="7" width="1.025" height="1.025" fill="rgba(0,0,21,1.000)" /><rect x="12" y="8" width="1.025" height="1.025" fill="rgba(4,0,4,1.000)" /><rect x="13" y="8" width="1.025" height="1.025" fill="rgba(68,7,154,1.000)" /><rect x="14" y="8" width="1.025" height="1.025" fill="rgba(169,0,142,1.000)" /><rect x="15" y="8" width="1.025" height="1.025" fill="rgba(147,17,159,1.000)" /><rect x="16" y="8" width="1.025" height="1.025" fill="rgba(54,96,197,1.000)" /><rect x="17" y="8" width="1.025" height="1.025" fill="rgba(1,158,231,1.000)" /><rect x="18" y="8" width="1.025" height="1.025" fill="rgba(0,198,234,1.000)" /><rect x="19" y="8" width="1.025" height="1.025" fill="rgba(0,182,220,1.000)" /><rect x="20" y="8" width="1.025" height="1.025" fill="rgba(99,92,210,1.000)" /><rect x="21" y="8" width="1.025" height="1.025" fill="rgba(161,44,188,1.000)" /><rect x="22" y="8" width="1.025" height="1.025" fill="rgba(2,207,148,1.000)" /><rect x="23" y="8" width="1.025" height="1.025" fill="rgba(225,9,123,1.000)" /><rect x="24" y="8" width="1.025" height="1.025" fill="rgba(2,75,192,1.000)" /><rect x="12" y="9" width="1.025" height="1.025" fill="rgba(47,13,142,1.000)" /><rect x="13" y="9" width="1.025" height="1.025" fill="rgba(94,7,180,1.000)" /><rect x="14" y="9" width="1.025" height="1.025" fill="rgba(165,9,177,1.000)" /><rect x="15" y="9" width="1.025" height="1.025" fill="rgba(196,18,145,1.000)" /><rect x="16" y="9" width="1.025" height="1.025" fill="rgba(116,41,157,1.000)" /><rect x="17" y="9" width="1.025" height="1.025" fill="rgba(119,108,178,1.000)" /><rect x="18" y="9" width="1.025" height="1.025" fill="rgba(4,176,221,1.000)" /><rect x="19" y="9" width="1.025" height="1.025" fill="rgba(5,189,189,1.000)" /><rect x="20" y="9" width="1.025" height="1.025" fill="rgba(49,185,180,1.000)" /><rect x="21" y="9" width="1.025" height="1.025" fill="rgba(61,22,122,1.000)" /><rect x="22" y="9" width="1.025" height="1.025" fill="rgba(204,118,94,1.000)" /><rect x="23" y="9" width="1.025" height="1.025" fill="rgba(208,30,76,1.000)" /><rect x="24" y="9" width="1.025" height="1.025" fill="rgba(0,67,148,1.000)" /><rect x="25" y="9" width="1.025" height="1.025" fill="rgba(0,2,13,1.000)" /><rect x="11" y="10" width="1.025" height="1.025" fill="rgba(2,0,3,1.000)" /><rect x="12" y="10" width="1.025" height="1.025" fill="rgba(36,19,192,1.000)" /><rect x="13" y="10" width="1.025" height="1.025" fill="rgba(27,36,200,1.000)" /><rect x="14" y="10" width="1.025" height="1.025" fill="rgba(1,73,201,1.000)" /><rect x="15" y="10" width="1.025" height="1.025" fill="rgba(195,24,170,1.000)" /><rect x="16" y="10" width="1.025" height="1.025" fill="rgba(206,94,86,1.000)" /><rect x="24" y="10" width="1.025" height="1.025" fill="rgba(38,31,150,1.000)" /><rect x="25" y="10" width="1.025" height="1.025" fill="rgba(0,30,110,1.000)" /><rect x="11" y="11" width="1.025" height="1.025" fill="rgba(2,1,3,1.000)" /><rect x="12" y="11" width="1.025" height="1.025" fill="rgba(23,35,201,1.000)" /><rect x="13" y="11" width="1.025" height="1.025" fill="rgba(24,71,213,1.000)" /><rect x="14" y="11" width="1.025" height="1.025" fill="rgba(4,102,170,1.000)" /><rect x="15" y="11" width="1.025" height="1.025" fill="rgba(12,82,109,1.000)" /><rect x="24" y="11" width="1.025" height="1.025" fill="rgba(0,63,120,1.000)" /><rect x="25" y="11" width="1.025" height="1.025" fill="rgba(0,25,117,1.000)" /><rect x="11" y="12" width="1.025" height="1.025" fill="rgba(1,0,3,1.000)" /><rect x="12" y="12" width="1.025" height="1.025" fill="rgba(21,30,166,1.000)" /><rect x="13" y="12" width="1.025" height="1.025" fill="rgba(17,102,127,1.000)" /><rect x="14" y="12" width="1.025" height="1.025" fill="rgba(26,209,75,1.000)" /><rect x="15" y="12" width="1.025" height="1.025" fill="rgba(213,41,98,1.000)" /><rect x="24" y="12" width="1.025" height="1.025" fill="rgba(50,78,42,1.000)" /><rect x="25" y="12" width="1.025" height="1.025" fill="rgba(14,0,64,1.000)" /><rect x="11" y="13" width="1.025" height="1.025" fill="rgba(0,0,2,1.000)" /><rect x="14" y="13" width="1.025" height="1.025" fill="rgba(0,147,130,1.000)" /><rect x="24" y="13" width="1.025" height="1.025" fill="rgba(50,40,168,1.000)" /><rect x="25" y="13" width="1.025" height="1.025" fill="rgba(0,3,6,1.000)" /><rect x="11" y="14" width="1.025" height="1.025" fill="rgba(0,1,0,1.000)" /><rect x="14" y="14" width="1.025" height="1.025" fill="rgba(8,57,121,1.000)" /><rect x="14" y="15" width="1.025" height="1.025" fill="rgba(11,50,104,1.000)" /></svg>