<svg shape-rendering="crispEdges" xmlns="http://www.w3.org/2000/svg" version="1.1" width="37" height="37"><style>rect { image-rendering: pixelated; }</style><rect x="15" y="4" width="1.025" height="1.025" fill="rgba(181,135,32,1.000)" /><rect x="16" y="4" width="1.025" height="1.025" fill="rgba(160,110,19,1.000)" /><rect x="17" y="4" width="1.025" height="1.025" fill="rgba(199,151,34,1.000)" /><rect x="18" y="4" width="1.025" height="1.025" fill="rgba(178,131,31,1.000)" /><rect x="20" y="4" width="1.025" height="1.025" fill="rgba(249,195,58,1.000)" /><rect x="21" y="4" width="1.025" height="1.025" fill="rgba(253,216,64,1.000)" /><rect x="22" y="4" width="1.025" height="1.025" fill="rgba(208,152,38,1.000)" /><rect x="13" y="5" width="1.025" height="1.025" fill="rgba(185,136,34,1.000)" /><rect x="14" y="5" width="1.025" height="1.025" fill="rgba(181,134,34,1.000)" /><rect x="15" y="5" width="1.025" height="1.025" fill="rgba(236,193,44,1.000)" /><rect x="16" y="5" width="1.025" height="1.025" fill="rgba(246,207,46,1.000)" /><rect x="17" y="5" width="1.025" height="1.025" fill="rgba(244,207,41,1.000)" /><rect x="18" y="5" width="1.025" height="1.025" fill="rgba(220,169,38,1.000)" /><rect x="19" y="5" width="1.025" height="1.025" fill="rgba(162,115,27,1.000)" /><rect x="20" y="5" width="1.025" height="1.025" fill="rgba(171,129,33,1.000)" /><rect x="21" y="5" width="1.025" height="1.025" fill="rgba(211,160,39,1.000)" /><rect x="22" y="5" width="1.025" height="1.025" fill="rgba(242,206,43,1.000)" /><rect x="23" y="5" width="1.025" height="1.025" fill="rgba(196,140,25,1.000)" /><rect x="24" y="5" width="1.025" height="1.025" fill="rgba(203,145,39,1.000)" /><rect x="12" y="6" width="1.025" height="1.025" fill="rgba(186,137,35,1.000)" /><rect x="13" y="6" width="1.025" height="1.025" fill="rgba(233,188,47,1.000)" /><rect x="14" y="6" width="1.025" height="1.025" fill="rgba(233,190,48,1.000)" /><rect x="15" y="6" width="1.025" height="1.025" fill="rgba(198,144,33,1.000)" /><rect x="16" y="6" width="1.025" height="1.025" fill="rgba(167,113,27,1.000)" /><rect x="17" y="6" width="1.025" height="1.025" fill="rgba(239,202,45,1.000)" /><rect x="18" y="6" width="1.025" height="1.025" fill="rgba(254,226,51,1.000)" /><rect x="19" y="6" width="1.025" height="1.025" fill="rgba(197,143,27,1.000)" /><rect x="20" y="6" width="1.025" height="1.025" fill="rgba(202,152,38,1.000)" /><rect x="21" y="6" width="1.025" height="1.025" fill="rgba(146,107,24,1.000)" /><rect x="22" y="6" width="1.025" height="1.025" fill="rgba(218,168,40,1.000)" /><rect x="23" y="6" width="1.025" height="1.025" fill="rgba(255,230,55,1.000)" /><rect x="24" y="6" width="1.025" height="1.025" fill="rgba(252,218,51,1.000)" /><rect x="25" y="6" width="1.025" height="1.025" fill="rgba(191,144,34,1.000)" /><rect x="11" y="7" width="1.025" height="1.025" fill="rgba(181,132,34,1.000)" /><rect x="12" y="7" width="1.025" height="1.025" fill="rgba(241,204,51,1.000)" /><rect x="13" y="7" width="1.025" height="1.025" fill="rgba(228,186,44,1.000)" /><rect x="14" y="7" width="1.025" height="1.025" fill="rgba(175,131,32,1.000)" /><rect x="15" y="7" width="1.025" height="1.025" fill="rgba(237,190,37,1.000)" /><rect x="16" y="7" width="1.025" height="1.025" fill="rgba(254,226,52,1.000)" /><rect x="17" y="7" width="1.025" height="1.025" fill="rgba(173,121,22,1.000)" /><rect x="18" y="7" width="1.025" height="1.025" fill="rgba(233,191,46,1.000)" /><rect x="19" y="7" width="1.025" height="1.025" fill="rgba(252,225,54,1.000)" /><rect x="20" y="7" width="1.025" height="1.025" fill="rgba(252,217,44,1.000)" /><rect x="21" y="7" width="1.025" height="1.025" fill="rgba(175,119,28,1.000)" /><rect x="22" y="7" width="1.025" height="1.025" fill="rgba(226,186,41,1.000)" /><rect x="23" y="7" width="1.025" height="1.025" fill="rgba(216,156,24,1.000)" /><rect x="24" y="7" width="1.025" height="1.025" fill="rgba(208,157,36,1.000)" /><rect x="25" y="7" width="1.025" height="1.025" fill="rgba(251,218,56,1.000)" /><rect x="26" y="7" width="1.025" height="1.025" fill="rgba(206,154,38,1.000)" /><rect x="10" y="8" width="1.025" height="1.025" fill="rgba(150,112,32,1.000)" /><rect x="11" y="8" width="1.025" height="1.025" fill="rgba(232,190,47,1.000)" /><rect x="12" y="8" width="1.025" height="1.025" fill="rgba(212,163,40,1.000)" /><rect x="13" y="8" width="1.025" height="1.025" fill="rgba(161,119,30,1.000)" /><rect x="14" y="8" width="1.025" height="1.025" fill="rgba(243,196,39,1.000)" /><rect x="15" y="8" width="1.025" height="1.025" fill="rgba(250,215,48,1.000)" /><rect x="16" y="8" width="1.025" height="1.025" fill="rgba(229,177,44,1.000)" /><rect x="17" y="8" width="1.025" height="1.025" fill="rgba(202,154,41,1.000)" /><rect x="18" y="8" width="1.025" height="1.025" fill="rgba(165,121,31,1.000)" /><rect x="19" y="8" width="1.025" height="1.025" fill="rgba(224,173,45,1.000)" /><rect x="20" y="8" width="1.025" height="1.025" fill="rgba(217,171,39,1.000)" /><rect x="21" y="8" width="1.025" height="1.025" fill="rgba(213,159,39,1.000)" /><rect x="22" y="8" width="1.025" height="1.025" fill="rgba(202,154,37,1.000)" /><rect x="23" y="8" width="1.025" height="1.025" fill="rgba(255,229,53,1.000)" /><rect x="24" y="8" width="1.025" height="1.025" fill="rgba(252,220,58,1.000)" /><rect x="25" y="8" width="1.025" height="1.025" fill="rgba(190,144,35,1.000)" /><rect x="26" y="8" width="1.025" height="1.025" fill="rgba(248,214,56,1.000)" /><rect x="27" y="8" width="1.025" height="1.025" fill="rgba(206,149,37,1.000)" /><rect x="10" y="9" width="1.025" height="1.025" fill="rgba(147,111,30,1.000)" /><rect x="11" y="9" width="1.025" height="1.025" fill="rgba(238,197,50,1.000)" /><rect x="12" y="9" width="1.025" height="1.025" fill="rgba(152,112,29,1.000)" /><rect x="13" y="9" width="1.025" height="1.025" fill="rgba(224,173,38,1.000)" /><rect x="14" y="9" width="1.025" height="1.025" fill="rgba(255,223,52,1.000)" /><rect x="15" y="9" width="1.025" height="1.025" fill="rgba(208,160,33,1.000)" /><rect x="16" y="9" width="1.025" height="1.025" fill="rgba(153,123,35,1.000)" /><rect x="17" y="9" width="1.025" height="1.025" fill="rgba(158,117,32,1.000)" /><rect x="18" y="9" width="1.025" height="1.025" fill="rgba(218,169,40,1.000)" /><rect x="19" y="9" width="1.025" height="1.025" fill="rgba(194,145,32,1.000)" /><rect x="20" y="9" width="1.025" height="1.025" fill="rgba(198,148,35,1.000)" /><rect x="21" y="9" width="1.025" height="1.025" fill="rgba(219,170,45,1.000)" /><rect x="22" y="9" width="1.025" height="1.025" fill="rgba(188,138,32,1.000)" /><rect x="23" y="9" width="1.025" height="1.025" fill="rgba(181,140,33,1.000)" /><rect x="24" y="9" width="1.025" height="1.025" fill="rgba(219,174,43,1.000)" /><rect x="25" y="9" width="1.025" height="1.025" fill="rgba(251,217,49,1.000)" /><rect x="26" y="9" width="1.025" height="1.025" fill="rgba(182,140,35,1.000)" /><rect x="27" y="9" width="1.025" height="1.025" fill="rgba(231,188,47,1.000)" /><rect x="10" y="10" width="1.025" height="1.025" fill="rgba(140,103,27,1.000)" /><rect x="11" y="10" width="1.025" height="1.025" fill="rgba(235,194,48,1.000)" /><rect x="12" y="10" width="1.025" height="1.025" fill="rgba(147,110,29,1.000)" /><rect x="13" y="10" width="1.025" height="1.025" fill="rgba(251,209,44,1.000)" /><rect x="14" y="10" width="1.025" height="1.025" fill="rgba(226,178,41,1.000)" /><rect x="15" y="10" width="1.025" height="1.025" fill="rgba(130,98,21,1.000)" /><rect x="16" y="10" width="1.025" height="1.025" fill="rgba(229,177,44,1.000)" /><rect x="23" y="10" width="1.025" height="1.025" fill="rgba(181,122,59,1.000)" /><rect x="24" y="10" width="1.025" height="1.025" fill="rgba(151,116,28,1.000)" /><rect x="25" y="10" width="1.025" height="1.025" fill="rgba(255,225,55,1.000)" /><rect x="26" y="10" width="1.025" height="1.025" fill="rgba(161,121,31,1.000)" /><rect x="27" y="10" width="1.025" height="1.025" fill="rgba(246,211,53,1.000)" /><rect x="28" y="10" width="1.025" height="1.025" fill="rgba(230,180,38,1.000)" /><rect x="9" y="11" width="1.025" height="1.025" fill="rgba(146,104,21,1.000)" /><rect x="10" y="11" width="1.025" height="1.025" fill="rgba(210,158,36,1.000)" /><rect x="11" y="11" width="1.025" height="1.025" fill="rgba(214,164,39,1.000)" /><rect x="12" y="11" width="1.025" height="1.025" fill="rgba(154,115,31,1.000)" /><rect x="13" y="11" width="1.025" height="1.025" fill="rgba(254,218,51,1.000)" /><rect x="14" y="11" width="1.025" height="1.025" fill="rgba(198,154,39,1.000)" /><rect x="15" y="11" width="1.025" height="1.025" fill="rgba(117,85,20,1.000)" /><rect x="24" y="11" width="1.025" height="1.025" fill="rgba(138,106,32,1.000)" /><rect x="25" y="11" width="1.025" height="1.025" fill="rgba(250,212,48,1.000)" /><rect x="26" y="11" width="1.025" height="1.025" fill="rgba(187,136,31,1.000)" /><rect x="27" y="11" width="1.025" height="1.025" fill="rgba(220,172,39,1.000)" /><rect x="28" y="11" width="1.025" height="1.025" fill="rgba(251,218,49,1.000)" /><rect x="9" y="12" width="1.025" height="1.025" fill="rgba(142,103,22,1.000)" /><rect x="10" y="12" width="1.025" height="1.025" fill="rgba(240,195,39,1.000)" /><rect x="11" y="12" width="1.025" height="1.025" fill="rgba(150,110,29,1.000)" /><rect x="12" y="12" width="1.025" height="1.025" fill="rgba(184,132,32,1.000)" /><rect x="13" y="12" width="1.025" height="1.025" fill="rgba(245,207,50,1.000)" /><rect x="14" y="12" width="1.025" height="1.025" fill="rgba(182,143,37,1.000)" /><rect x="24" y="12" width="1.025" height="1.025" fill="rgba(127,92,23,1.000)" /><rect x="25" y="12" width="1.025" height="1.025" fill="rgba(204,152,39,1.000)" /><rect x="26" y="12" width="1.025" height="1.025" fill="rgba(252,216,46,1.000)" /><rect x="27" y="12" width="1.025" height="1.025" fill="rgba(200,149,32,1.000)" /><rect x="28" y="12" width="1.025" height="1.025" fill="rgba(252,214,47,1.000)" /><rect x="9" y="13" width="1.025" height="1.025" fill="rgba(136,97,20,1.000)" /><rect x="10" y="13" width="1.025" height="1.025" fill="rgba(248,212,48,1.000)" /><rect x="11" y="13" width="1.025" height="1.025" fill="rgba(142,104,23,1.000)" /><rect x="12" y="13" width="1.025" height="1.025" fill="rgba(243,199,41,1.000)" /><rect x="13" y="13" width="1.025" height="1.025" fill="rgba(228,187,47,1.000)" /><rect x="14" y="13" width="1.025" height="1.025" fill="rgba(137,104,23,1.000)" /><rect x="24" y="13" width="1.025" height="1.025" fill="rgba(114,82,14,1.000)" /><rect x="25" y="13" width="1.025" height="1.025" fill="rgba(174,131,33,1.000)" /><rect x="26" y="13" width="1.025" height="1.025" fill="rgba(254,227,52,1.000)" /><rect x="27" y="13" width="1.025" height="1.025" fill="rgba(182,138,33,1.000)" /><rect x="28" y="13" width="1.025" height="1.025" fill="rgba(242,195,39,1.000)" /><rect x="9" y="14" width="1.025" height="1.025" fill="rgba(135,97,22,1.000)" /><rect x="10" y="14" width="1.025" height="1.025" fill="rgba(241,195,41,1.000)" /><rect x="11" y="14" width="1.025" height="1.025" fill="rgba(139,99,21,1.000)" /><rect x="12" y="14" width="1.025" height="1.025" fill="rgba(249,211,44,1.000)" /><rect x="13" y="14" width="1.025" height="1.025" fill="rgba(193,148,37,1.000)" /><rect x="14" y="14" width="1.025" height="1.025" fill="rgba(151,111,29,1.000)" /><rect x="24" y="14" width="1.025" height="1.025" fill="rgba(129,91,22,1.000)" /><rect x="25" y="14" width="1.025" height="1.025" fill="rgba(175,132,35,1.000)" /><rect x="26" y="14" width="1.025" height="1.025" fill="rgba(248,207,41,1.000)" /><rect x="27" y="14" width="1.025" height="1.025" fill="rgba(198,146,36,1.000)" /><rect x="28" y="14" width="1.025" height="1.025" fill="rgba(249,204,45,1.000)" /><rect x="8" y="15" width="1.025" height="1.025" fill="rgba(114,80,11,1.000)" /><rect x="9" y="15" width="1.025" height="1.025" fill="rgba(238,191,36,1.000)" /><rect x="10" y="15" width="1.025" height="1.025" fill="rgba(194,145,36,1.000)" /><rect x="11" y="15" width="1.025" height="1.025" fill="rgba(140,100,20,1.000)" /><rect x="12" y="15" width="1.025" height="1.025" fill="rgba(253,217,50,1.000)" /><rect x="13" y="15" width="1.025" height="1.025" fill="rgba(175,133,33,1.000)" /><rect x="14" y="15" width="1.025" height="1.025" fill="rgba(128,95,22,1.000)" /><rect x="24" y="15" width="1.025" height="1.025" fill="rgba(126,90,21,1.000)" /><rect x="25" y="15" width="1.025" height="1.025" fill="rgba(166,127,32,1.000)" /><rect x="26" y="15" width="1.025" height="1.025" fill="rgba(248,207,43,1.000)" /><rect x="27" y="15" width="1.025" height="1.025" fill="rgba(203,153,33,1.000)" /><rect x="28" y="15" width="1.025" height="1.025" fill="rgba(251,207,44,1.000)" /><rect x="8" y="16" width="1.025" height="1.025" fill="rgba(107,77,10,1.000)" /><rect x="9" y="16" width="1.025" height="1.025" fill="rgba(247,209,48,1.000)" /><rect x="10" y="16" width="1.025" height="1.025" fill="rgba(147,112,27,1.000)" /><rect x="11" y="16" width="1.025" height="1.025" fill="rgba(161,119,28,1.000)" /><rect x="12" y="16" width="1.025" height="1.025" fill="rgba(247,210,53,1.000)" /><rect x="13" y="16" width="1.025" height="1.025" fill="rgba(164,125,30,1.000)" /><rect x="14" y="16" width="1.025" height="1.025" fill="rgba(128,95,22,1.000)" /><rect x="24" y="16" width="1.025" height="1.025" fill="rgba(114,79,15,1.000)" /><rect x="25" y="16" width="1.025" height="1.025" fill="rgba(175,134,35,1.000)" /><rect x="26" y="16" width="1.025" height="1.025" fill="rgba(251,213,47,1.000)" /><rect x="27" y="16" width="1.025" height="1.025" fill="rgba(173,131,30,1.000)" /><rect x="28" y="16" width="1.025" height="1.025" fill="rgba(240,193,36,1.000)" /><rect x="8" y="17" width="1.025" height="1.025" fill="rgba(104,71,7,1.000)" /><rect x="9" y="17" width="1.025" height="1.025" fill="rgba(248,208,51,1.000)" /><rect x="10" y="17" width="1.025" height="1.025" fill="rgba(127,94,21,1.000)" /><rect x="11" y="17" width="1.025" height="1.025" fill="rgba(212,161,37,1.000)" /><rect x="12" y="17" width="1.025" height="1.025" fill="rgba(238,196,47,1.000)" /><rect x="13" y="17" width="1.025" height="1.025" fill="rgba(164,125,30,1.000)" /><rect x="14" y="17" width="1.025" height="1.025" fill="rgba(136,94,15,1.000)" /><rect x="24" y="17" width="1.025" height="1.025" fill="rgba(105,74,12,1.000)" /><rect x="25" y="17" width="1.025" height="1.025" fill="rgba(168,126,32,1.000)" /><rect x="26" y="17" width="1.025" height="1.025" fill="rgba(251,214,48,1.000)" /><rect x="27" y="17" width="1.025" height="1.025" fill="rgba(154,120,27,1.000)" /><rect x="28" y="17" width="1.025" height="1.025" fill="rgba(245,201,41,1.000)" /><rect x="8" y="18" width="1.025" height="1.025" fill="rgba(111,77,15,1.000)" /><rect x="9" y="18" width="1.025" height="1.025" fill="rgba(242,197,42,1.000)" /><rect x="10" y="18" width="1.025" height="1.025" fill="rgba(127,94,19,1.000)" /><rect x="11" y="18" width="1.025" height="1.025" fill="rgba(240,194,38,1.000)" /><rect x="12" y="18" width="1.025" height="1.025" fill="rgba(237,193,51,1.000)" /><rect x="13" y="18" width="1.025" height="1.025" fill="rgba(164,125,30,1.000)" /><rect x="14" y="18" width="1.025" height="1.025" fill="rgba(81,55,6,1.000)" /><rect x="24" y="18" width="1.025" height="1.025" fill="rgba(111,78,16,1.000)" /><rect x="25" y="18" width="1.025" height="1.025" fill="rgba(173,132,34,1.000)" /><rect x="26" y="18" width="1.025" height="1.025" fill="rgba(246,204,43,1.000)" /><rect x="27" y="18" width="1.025" height="1.025" fill="rgba(146,111,24,1.000)" /><rect x="28" y="18" width="1.025" height="1.025" fill="rgba(243,201,41,1.000)" /><rect x="8" y="19" width="1.025" height="1.025" fill="rgba(105,74,13,1.000)" /><rect x="9" y="19" width="1.025" height="1.025" fill="rgba(235,188,35,1.000)" /><rect x="10" y="19" width="1.025" height="1.025" fill="rgba(129,91,17,1.000)" /><rect x="11" y="19" width="1.025" height="1.025" fill="rgba(245,203,40,1.000)" /><rect x="12" y="19" width="1.025" height="1.025" fill="rgba(182,139,33,1.000)" /><rect x="13" y="19" width="1.025" height="1.025" fill="rgba(164,125,30,1.000)" /><rect x="14" y="19" width="1.025" height="1.025" fill="rgba(81,55,6,1.000)" /><rect x="24" y="19" width="1.025" height="1.025" fill="rgba(96,65,13,1.000)" /><rect x="25" y="19" width="1.025" height="1.025" fill="rgba(180,137,32,1.000)" /><rect x="26" y="19" width="1.025" height="1.025" fill="rgba(239,194,35,1.000)" /><rect x="27" y="19" width="1.025" height="1.025" fill="rgba(148,115,26,1.000)" /><rect x="28" y="19" width="1.025" height="1.025" fill="rgba(234,194,45,1.000)" /><rect x="8" y="20" width="1.025" height="1.025" fill="rgba(111,77,12,1.000)" /><rect x="9" y="20" width="1.025" height="1.025" fill="rgba(247,205,47,1.000)" /><rect x="10" y="20" width="1.025" height="1.025" fill="rgba(113,77,14,1.000)" /><rect x="11" y="20" width="1.025" height="1.025" fill="rgba(248,206,44,1.000)" /><rect x="12" y="20" width="1.025" height="1.025" fill="rgba(152,111,26,1.000)" /><rect x="13" y="20" width="1.025" height="1.025" fill="rgba(136,94,15,1.000)" /><rect x="14" y="20" width="1.025" height="1.025" fill="rgba(36,22,2,1.000)" /><rect x="24" y="20" width="1.025" height="1.025" fill="rgba(78,57,5,1.000)" /><rect x="25" y="20" width="1.025" height="1.025" fill="rgba(168,127,29,1.000)" /><rect x="26" y="20" width="1.025" height="1.025" fill="rgba(234,185,34,1.000)" /><rect x="27" y="20" width="1.025" height="1.025" fill="rgba(143,106,25,1.000)" /><rect x="28" y="20" width="1.025" height="1.025" fill="rgba(214,165,39,1.000)" /><rect x="8" y="21" width="1.025" height="1.025" fill="rgba(117,84,16,1.000)" /><rect x="9" y="21" width="1.025" height="1.025" fill="rgba(241,201,46,1.000)" /><rect x="10" y="21" width="1.025" height="1.025" fill="rgba(114,79,13,1.000)" /><rect x="11" y="21" width="1.025" height="1.025" fill="rgba(244,203,49,1.000)" /><rect x="12" y="21" width="1.025" height="1.025" fill="rgba(144,106,23,1.000)" /><rect x="13" y="21" width="1.025" height="1.025" fill="rgba(211,166,44,1.000)" /><rect x="14" y="21" width="1.025" height="1.025" fill="rgba(81,55,6,1.000)" /><rect x="24" y="21" width="1.025" height="1.025" fill="rgba(97,73,14,1.000)" /><rect x="25" y="21" width="1.025" height="1.025" fill="rgba(205,155,41,1.000)" /><rect x="26" y="21" width="1.025" height="1.025" fill="rgba(249,209,47,1.000)" /><rect x="27" y="21" width="1.025" height="1.025" fill="rgba(157,121,28,1.000)" /><rect x="28" y="21" width="1.025" height="1.025" fill="rgba(210,162,38,1.000)" /><rect x="7" y="22" width="1.025" height="1.025" fill="rgba(75,38,0,1.000)" /><rect x="8" y="22" width="1.025" height="1.025" fill="rgba(223,172,48,1.000)" /><rect x="9" y="22" width="1.025" height="1.025" fill="rgba(219,170,41,1.000)" /><rect x="10" y="22" width="1.025" height="1.025" fill="rgba(109,78,13,1.000)" /><rect x="11" y="22" width="1.025" height="1.025" fill="rgba(237,190,33,1.000)" /><rect x="12" y="22" width="1.025" height="1.025" fill="rgba(129,93,18,1.000)" /><rect x="13" y="22" width="1.025" height="1.025" fill="rgba(236,199,49,1.000)" /><rect x="14" y="22" width="1.025" height="1.025" fill="rgba(103,73,14,1.000)" /><rect x="24" y="22" width="1.025" height="1.025" fill="rgba(117,86,15,1.000)" /><rect x="25" y="22" width="1.025" height="1.025" fill="rgba(201,152,35,1.000)" /><rect x="26" y="22" width="1.025" height="1.025" fill="rgba(250,208,45,1.000)" /><rect x="27" y="22" width="1.025" height="1.025" fill="rgba(170,134,36,1.000)" /><rect x="28" y="22" width="1.025" height="1.025" fill="rgba(255,228,71,1.000)" /><rect x="7" y="23" width="1.025" height="1.025" fill="rgba(103,72,12,1.000)" /><rect x="8" y="23" width="1.025" height="1.025" fill="rgba(244,206,52,1.000)" /><rect x="9" y="23" width="1.025" height="1.025" fill="rgba(138,102,19,1.000)" /><rect x="10" y="23" width="1.025" height="1.025" fill="rgba(124,92,20,1.000)" /><rect x="11" y="23" width="1.025" height="1.025" fill="rgba(244,200,40,1.000)" /><rect x="12" y="23" width="1.025" height="1.025" fill="rgba(116,84,15,1.000)" /><rect x="13" y="23" width="1.025" height="1.025" fill="rgba(241,203,54,1.000)" /><rect x="14" y="23" width="1.025" height="1.025" fill="rgba(120,88,18,1.000)" /><rect x="23" y="23" width="1.025" height="1.025" fill="rgba(155,116,30,1.000)" /><rect x="24" y="23" width="1.025" height="1.025" fill="rgba(187,140,33,1.000)" /><rect x="25" y="23" width="1.025" height="1.025" fill="rgba(182,138,32,1.000)" /><rect x="26" y="23" width="1.025" height="1.025" fill="rgba(248,210,49,1.000)" /><rect x="27" y="23" width="1.025" height="1.025" fill="rgba(159,123,30,1.000)" /><rect x="28" y="23" width="1.025" height="1.025" fill="rgba(251,209,59,1.000)" /><rect x="7" y="24" width="1.025" height="1.025" fill="rgba(106,73,12,1.000)" /><rect x="8" y="24" width="1.025" height="1.025" fill="rgba(235,191,53,1.000)" /><rect x="9" y="24" width="1.025" height="1.025" fill="rgba(135,101,24,1.000)" /><rect x="10" y="24" width="1.025" height="1.025" fill="rgba(97,71,10,1.000)" /><rect x="11" y="24" width="1.025" height="1.025" fill="rgba(241,195,39,1.000)" /><rect x="12" y="24" width="1.025" height="1.025" fill="rgba(118,85,16,1.000)" /><rect x="13" y="24" width="1.025" height="1.025" fill="rgba(233,196,51,1.000)" /><rect x="14" y="24" width="1.025" height="1.025" fill="rgba(124,92,17,1.000)" /><rect x="22" y="24" width="1.025" height="1.025" fill="rgba(70,47,3,1.000)" /><rect x="23" y="24" width="1.025" height="1.025" fill="rgba(159,121,34,1.000)" /><rect x="24" y="24" width="1.025" height="1.025" fill="rgba(212,163,39,1.000)" /><rect x="25" y="24" width="1.025" height="1.025" fill="rgba(115,87,15,1.000)" /><rect x="26" y="24" width="1.025" height="1.025" fill="rgba(248,207,45,1.000)" /><rect x="27" y="24" width="1.025" height="1.025" fill="rgba(151,118,28,1.000)" /><rect x="28" y="24" width="1.025" height="1.025" fill="rgba(249,209,60,1.000)" /><rect x="7" y="25" width="1.025" height="1.025" fill="rgba(103,72,12,1.000)" /><rect x="8" y="25" width="1.025" height="1.025" fill="rgba(244,206,52,1.000)" /><rect x="9" y="25" width="1.025" height="1.025" fill="rgba(138,102,19,1.000)" /><rect x="10" y="25" width="1.025" height="1.025" fill="rgba(124,92,20,1.000)" /><rect x="11" y="25" width="1.025" height="1.025" fill="rgba(244,200,40,1.000)" /><rect x="12" y="25" width="1.025" height="1.025" fill="rgba(116,84,15,1.000)" /><rect x="13" y="25" width="1.025" height="1.025" fill="rgba(241,203,54,1.000)" /><rect x="14" y="25" width="1.025" height="1.025" fill="rgba(120,88,18,1.000)" /><rect x="19" y="25" width="1.025" height="1.025" fill="rgba(70,47,3,1.000)" /><rect x="20" y="25" width="1.025" height="1.025" fill="rgba(159,121,34,1.000)" /><rect x="21" y="25" width="1.025" height="1.025" fill="rgba(212,163,39,1.000)" /><rect x="22" y="25" width="1.025" height="1.025" fill="rgba(70,47,3,1.000)" /><rect x="23" y="25" width="1.025" height="1.025" fill="rgba(159,121,34,1.000)" /><rect x="24" y="25" width="1.025" height="1.025" fill="rgba(212,163,39,1.000)" /><rect x="25" y="25" width="1.025" height="1.025" fill="rgba(113,80,13,1.000)" /><rect x="26" y="25" width="1.025" height="1.025" fill="rgba(240,194,41,1.000)" /><rect x="27" y="25" width="1.025" height="1.025" fill="rgba(172,130,32,1.000)" /><rect x="28" y="25" width="1.025" height="1.025" fill="rgba(249,207,58,1.000)" /><rect x="7" y="26" width="1.025" height="1.025" fill="rgba(106,73,12,1.000)" /><rect x="8" y="26" width="1.025" height="1.025" fill="rgba(235,191,53,1.000)" /><rect x="9" y="26" width="1.025" height="1.025" fill="rgba(135,101,24,1.000)" /><rect x="10" y="26" width="1.025" height="1.025" fill="rgba(97,71,10,1.000)" /><rect x="11" y="26" width="1.025" height="1.025" fill="rgba(241,195,39,1.000)" /><rect x="12" y="26" width="1.025" height="1.025" fill="rgba(118,85,16,1.000)" /><rect x="13" y="26" width="1.025" height="1.025" fill="rgba(233,196,51,1.000)" /><rect x="14" y="26" width="1.025" height="1.025" fill="rgba(124,92,17,1.000)" /><rect x="19" y="26" width="1.025" height="1.025" fill="rgba(78,58,7,1.000)" /><rect x="20" y="26" width="1.025" height="1.025" fill="rgba(167,128,36,1.000)" /><rect x="21" y="26" width="1.025" height="1.025" fill="rgba(230,189,45,1.000)" /><rect x="22" y="26" width="1.025" height="1.025" fill="rgba(78,58,7,1.000)" /><rect x="23" y="26" width="1.025" height="1.025" fill="rgba(167,128,36,1.000)" /><rect x="24" y="26" width="1.025" height="1.025" fill="rgba(230,189,45,1.000)" /><rect x="25" y="26" width="1.025" height="1.025" fill="rgba(106,75,14,1.000)" /><rect x="26" y="26" width="1.025" height="1.025" fill="rgba(218,170,39,1.000)" /><rect x="27" y="26" width="1.025" height="1.025" fill="rgba(234,190,44,1.000)" /><rect x="28" y="26" width="1.025" height="1.025" fill="rgba(250,203,57,1.000)" /><rect x="6" y="27" width="1.025" height="1.025" fill="rgba(106,73,12,1.000)" /><rect x="7" y="27" width="1.025" height="1.025" fill="rgba(235,191,53,1.000)" /><rect x="8" y="27" width="1.025" height="1.025" fill="rgba(135,101,24,1.000)" /><rect x="9" y="27" width="1.025" height="1.025" fill="rgba(97,71,10,1.000)" /><rect x="10" y="27" width="1.025" height="1.025" fill="rgba(241,195,39,1.000)" /><rect x="11" y="27" width="1.025" height="1.025" fill="rgba(118,85,16,1.000)" /><rect x="12" y="27" width="1.025" height="1.025" fill="rgba(233,196,51,1.000)" /><rect x="13" y="27" width="1.025" height="1.025" fill="rgba(124,92,17,1.000)" /><rect x="14" y="27" width="1.025" height="1.025" fill="rgba(63,34,9,1.000)" /><rect x="19" y="27" width="1.025" height="1.025" fill="rgba(57,36,38,1.000)" /><rect x="20" y="27" width="1.025" height="1.025" fill="rgba(159,124,36,1.000)" /><rect x="21" y="27" width="1.025" height="1.025" fill="rgba(228,188,50,1.000)" /><rect x="22" y="27" width="1.025" height="1.025" fill="rgba(57,36,38,1.000)" /><rect x="23" y="27" width="1.025" height="1.025" fill="rgba(159,124,36,1.000)" /><rect x="24" y="27" width="1.025" height="1.025" fill="rgba(228,188,50,1.000)" /><rect x="25" y="27" width="1.025" height="1.025" fill="rgba(98,67,10,1.000)" /><rect x="26" y="27" width="1.025" height="1.025" fill="rgba(208,161,37,1.000)" /><rect x="27" y="27" width="1.025" height="1.025" fill="rgba(254,229,57,1.000)" /><rect x="28" y="27" width="1.025" height="1.025" fill="rgba(249,200,58,1.000)" /><rect x="6" y="28" width="1.025" height="1.025" fill="rgba(97,68,8,1.000)" /><rect x="7" y="28" width="1.025" height="1.025" fill="rgba(217,170,41,1.000)" /><rect x="8" y="28" width="1.025" height="1.025" fill="rgba(95,72,10,1.000)" /><rect x="10" y="28" width="1.025" height="1.025" fill="rgba(235,184,35,1.000)" /><rect x="11" y="28" width="1.025" height="1.025" fill="rgba(107,75,13,1.000)" /><rect x="12" y="28" width="1.025" height="1.025" fill="rgba(240,202,52,1.000)" /><rect x="13" y="28" width="1.025" height="1.025" fill="rgba(140,105,21,1.000)" /><rect x="22" y="28" width="1.025" height="1.025" fill="rgba(42,11,54,1.000)" /><rect x="23" y="28" width="1.025" height="1.025" fill="rgba(154,123,32,1.000)" /><rect x="24" y="28" width="1.025" height="1.025" fill="rgba(191,146,36,1.000)" /><rect x="25" y="28" width="1.025" height="1.025" fill="rgba(78,49,6,1.000)" /><rect x="26" y="28" width="1.025" height="1.025" fill="rgba(194,145,35,1.000)" /><rect x="27" y="28" width="1.025" height="1.025" fill="rgba(252,219,51,1.000)" /><rect x="6" y="29" width="1.025" height="1.025" fill="rgba(94,65,9,1.000)" /><rect x="7" y="29" width="1.025" height="1.025" fill="rgba(211,161,39,1.000)" /><rect x="8" y="29" width="1.025" height="1.025" fill="rgba(27,5,36,1.000)" /><rect x="10" y="29" width="1.025" height="1.025" fill="rgba(242,199,37,1.000)" /><rect x="11" y="29" width="1.025" height="1.025" fill="rgba(110,77,14,1.000)" /><rect x="12" y="29" width="1.025" height="1.025" fill="rgba(213,165,40,1.000)" /><rect x="13" y="29" width="1.025" height="1.025" fill="rgba(198,151,36,1.000)" /><rect x="24" y="29" width="1.025" height="1.025" fill="rgba(159,120,27,1.000)" /><rect x="25" y="29" width="1.025" height="1.025" fill="rgba(79,51,7,1.000)" /><rect x="26" y="29" width="1.025" height="1.025" fill="rgba(179,134,34,1.000)" /><rect x="27" y="29" width="1.025" height="1.025" fill="rgba(253,220,54,1.000)" /><rect x="6" y="30" width="1.025" height="1.025" fill="rgba(96,68,11,1.000)" /><rect x="7" y="30" width="1.025" height="1.025" fill="rgba(169,124,30,1.000)" /><rect x="10" y="30" width="1.025" height="1.025" fill="rgba(241,195,39,1.000)" /><rect x="11" y="30" width="1.025" height="1.025" fill="rgba(84,54,9,1.000)" /><rect x="12" y="30" width="1.025" height="1.025" fill="rgba(186,139,35,1.000)" /><rect x="25" y="30" width="1.025" height="1.025" fill="rgba(86,61,9,1.000)" /><rect x="26" y="30" width="1.025" height="1.025" fill="rgba(170,127,32,1.000)" /><rect x="27" y="30" width="1.025" height="1.025" fill="rgba(236,195,43,1.000)" /><rect x="10" y="31" width="1.025" height="1.025" fill="rgba(227,173,34,1.000)" /><rect x="12" y="31" width="1.025" height="1.025" fill="rgba(159,123,30,1.000)" /><rect x="25" y="31" width="1.025" height="1.025" fill="rgba(31,8,43,1.000)" /><rect x="27" y="31" width="1.025" height="1.025" fill="rgba(231,185,39,1.000)" /><rect x="27" y="32" width="1.025" height="1.025" fill="rgba(246,197,56,1.000)" /></svg>