<svg shape-rendering="crispEdges" xmlns="http://www.w3.org/2000/svg" version="1.1" width="37" height="37"><style>rect { image-rendering: pixelated; }</style><rect x="15" y="4" width="1.025" height="1.025" fill="rgba(36,27,6,1.000)" /><rect x="16" y="4" width="1.025" height="1.025" fill="rgba(32,22,4,1.000)" /><rect x="17" y="4" width="1.025" height="1.025" fill="rgba(48,30,7,1.000)" /><rect x="18" y="4" width="1.025" height="1.025" fill="rgba(36,26,6,1.000)" /><rect x="20" y="4" width="1.025" height="1.025" fill="rgba(98,39,12,1.000)" /><rect x="21" y="4" width="1.025" height="1.025" fill="rgba(102,43,13,1.000)" /><rect x="22" y="4" width="1.025" height="1.025" fill="rgba(57,30,8,1.000)" /><rect x="13" y="5" width="1.025" height="1.025" fill="rgba(37,27,7,1.000)" /><rect x="14" y="5" width="1.025" height="1.025" fill="rgba(36,27,7,1.000)" /><rect x="15" y="5" width="1.025" height="1.025" fill="rgba(85,39,9,1.000)" /><rect x="16" y="5" width="1.025" height="1.025" fill="rgba(95,41,9,1.000)" /><rect x="17" y="5" width="1.025" height="1.025" fill="rgba(93,41,8,1.000)" /><rect x="18" y="5" width="1.025" height="1.025" fill="rgba(69,34,8,1.000)" /><rect x="19" y="5" width="1.025" height="1.025" fill="rgba(32,23,5,1.000)" /><rect x="20" y="5" width="1.025" height="1.025" fill="rgba(34,26,7,1.000)" /><rect x="21" y="5" width="1.025" height="1.025" fill="rgba(60,32,8,1.000)" /><rect x="22" y="5" width="1.025" height="1.025" fill="rgba(91,41,9,1.000)" /><rect x="23" y="5" width="1.025" height="1.025" fill="rgba(45,28,5,1.000)" /><rect x="24" y="5" width="1.025" height="1.025" fill="rgba(52,29,8,1.000)" /><rect x="12" y="6" width="1.025" height="1.025" fill="rgba(37,27,7,1.000)" /><rect x="13" y="6" width="1.025" height="1.025" fill="rgba(82,38,9,1.000)" /><rect x="14" y="6" width="1.025" height="1.025" fill="rgba(82,38,10,1.000)" /><rect x="15" y="6" width="1.025" height="1.025" fill="rgba(47,29,7,1.000)" /><rect x="16" y="6" width="1.025" height="1.025" fill="rgba(33,23,5,1.000)" /><rect x="17" y="6" width="1.025" height="1.025" fill="rgba(88,40,9,1.000)" /><rect x="18" y="6" width="1.025" height="1.025" fill="rgba(103,45,10,1.000)" /><rect x="19" y="6" width="1.025" height="1.025" fill="rgba(46,29,5,1.000)" /><rect x="20" y="6" width="1.025" height="1.025" fill="rgba(51,30,8,1.000)" /><rect x="21" y="6" width="1.025" height="1.025" fill="rgba(29,21,5,1.000)" /><rect x="22" y="6" width="1.025" height="1.025" fill="rgba(67,34,8,1.000)" /><rect x="23" y="6" width="1.025" height="1.025" fill="rgba(104,46,11,1.000)" /><rect x="24" y="6" width="1.025" height="1.025" fill="rgba(101,44,10,1.000)" /><rect x="25" y="6" width="1.025" height="1.025" fill="rgba(40,29,7,1.000)" /><rect x="11" y="7" width="1.025" height="1.025" fill="rgba(36,26,7,1.000)" /><rect x="12" y="7" width="1.025" height="1.025" fill="rgba(90,41,10,1.000)" /><rect x="13" y="7" width="1.025" height="1.025" fill="rgba(77,37,9,1.000)" /><rect x="14" y="7" width="1.025" height="1.025" fill="rgba(35,26,6,1.000)" /><rect x="15" y="7" width="1.025" height="1.025" fill="rgba(86,38,7,1.000)" /><rect x="16" y="7" width="1.025" height="1.025" fill="rgba(103,45,10,1.000)" /><rect x="17" y="7" width="1.025" height="1.025" fill="rgba(35,24,4,1.000)" /><rect x="18" y="7" width="1.025" height="1.025" fill="rgba(82,38,9,1.000)" /><rect x="19" y="7" width="1.025" height="1.025" fill="rgba(101,45,11,1.000)" /><rect x="20" y="7" width="1.025" height="1.025" fill="rgba(101,43,9,1.000)" /><rect x="21" y="7" width="1.025" height="1.025" fill="rgba(35,24,6,1.000)" /><rect x="22" y="7" width="1.025" height="1.025" fill="rgba(75,37,8,1.000)" /><rect x="23" y="7" width="1.025" height="1.025" fill="rgba(65,31,5,1.000)" /><rect x="24" y="7" width="1.025" height="1.025" fill="rgba(57,31,7,1.000)" /><rect x="25" y="7" width="1.025" height="1.025" fill="rgba(100,44,11,1.000)" /><rect x="26" y="7" width="1.025" height="1.025" fill="rgba(55,31,8,1.000)" /><rect x="10" y="8" width="1.025" height="1.025" fill="rgba(30,22,6,1.000)" /><rect x="11" y="8" width="1.025" height="1.025" fill="rgba(81,38,9,1.000)" /><rect x="12" y="8" width="1.025" height="1.025" fill="rgba(61,33,8,1.000)" /><rect x="13" y="8" width="1.025" height="1.025" fill="rgba(32,24,6,1.000)" /><rect x="14" y="8" width="1.025" height="1.025" fill="rgba(92,39,8,1.000)" /><rect x="15" y="8" width="1.025" height="1.025" fill="rgba(99,43,10,1.000)" /><rect x="16" y="8" width="1.025" height="1.025" fill="rgba(78,35,9,1.000)" /><rect x="17" y="8" width="1.025" height="1.025" fill="rgba(51,31,8,1.000)" /><rect x="18" y="8" width="1.025" height="1.025" fill="rgba(33,24,6,1.000)" /><rect x="19" y="8" width="1.025" height="1.025" fill="rgba(73,35,9,1.000)" /><rect x="20" y="8" width="1.025" height="1.025" fill="rgba(66,34,8,1.000)" /><rect x="21" y="8" width="1.025" height="1.025" fill="rgba(62,32,8,1.000)" /><rect x="22" y="8" width="1.025" height="1.025" fill="rgba(51,31,7,1.000)" /><rect x="23" y="8" width="1.025" height="1.025" fill="rgba(104,46,11,1.000)" /><rect x="24" y="8" width="1.025" height="1.025" fill="rgba(101,44,12,1.000)" /><rect x="25" y="8" width="1.025" height="1.025" fill="rgba(39,29,7,1.000)" /><rect x="26" y="8" width="1.025" height="1.025" fill="rgba(97,43,11,1.000)" /><rect x="27" y="8" width="1.025" height="1.025" fill="rgba(55,30,7,1.000)" /><rect x="10" y="9" width="1.025" height="1.025" fill="rgba(29,22,6,1.000)" /><rect x="11" y="9" width="1.025" height="1.025" fill="rgba(87,39,10,1.000)" /><rect x="12" y="9" width="1.025" height="1.025" fill="rgba(30,22,6,1.000)" /><rect x="13" y="9" width="1.025" height="1.025" fill="rgba(73,35,8,1.000)" /><rect x="14" y="9" width="1.025" height="1.025" fill="rgba(104,45,10,1.000)" /><rect x="15" y="9" width="1.025" height="1.025" fill="rgba(57,32,7,1.000)" /><rect x="16" y="9" width="1.025" height="1.025" fill="rgba(31,25,7,1.000)" /><rect x="17" y="9" width="1.025" height="1.025" fill="rgba(32,23,6,1.000)" /><rect x="18" y="9" width="1.025" height="1.025" fill="rgba(67,34,8,1.000)" /><rect x="19" y="9" width="1.025" height="1.025" fill="rgba(43,29,6,1.000)" /><rect x="20" y="9" width="1.025" height="1.025" fill="rgba(47,30,7,1.000)" /><rect x="21" y="9" width="1.025" height="1.025" fill="rgba(68,34,9,1.000)" /><rect x="22" y="9" width="1.025" height="1.025" fill="rgba(38,28,6,1.000)" /><rect x="23" y="9" width="1.025" height="1.025" fill="rgba(36,28,7,1.000)" /><rect x="24" y="9" width="1.025" height="1.025" fill="rgba(68,35,9,1.000)" /><rect x="25" y="9" width="1.025" height="1.025" fill="rgba(100,43,10,1.000)" /><rect x="26" y="9" width="1.025" height="1.025" fill="rgba(36,28,7,1.000)" /><rect x="27" y="9" width="1.025" height="1.025" fill="rgba(80,38,9,1.000)" /><rect x="10" y="10" width="1.025" height="1.025" fill="rgba(28,21,5,1.000)" /><rect x="11" y="10" width="1.025" height="1.025" fill="rgba(84,39,10,1.000)" /><rect x="12" y="10" width="1.025" height="1.025" fill="rgba(29,22,6,1.000)" /><rect x="13" y="10" width="1.025" height="1.025" fill="rgba(0,150,64,1.000)" /><rect x="14" y="10" width="1.025" height="1.025" fill="rgba(75,36,8,1.000)" /><rect x="15" y="10" width="1.025" height="1.025" fill="rgba(26,20,4,1.000)" /><rect x="16" y="10" width="1.025" height="1.025" fill="rgba(73,35,9,1.000)" /><rect x="23" y="10" width="1.025" height="1.025" fill="rgba(36,24,12,1.000)" /><rect x="24" y="10" width="1.025" height="1.025" fill="rgba(30,23,6,1.000)" /><rect x="25" y="10" width="1.025" height="1.025" fill="rgba(104,45,11,1.000)" /><rect x="26" y="10" width="1.025" height="1.025" fill="rgba(32,24,6,1.000)" /><rect x="27" y="10" width="1.025" height="1.025" fill="rgba(95,42,11,1.000)" /><rect x="28" y="10" width="1.025" height="1.025" fill="rgba(79,36,8,1.000)" /><rect x="9" y="11" width="1.025" height="1.025" fill="rgba(29,21,4,1.000)" /><rect x="10" y="11" width="1.025" height="1.025" fill="rgba(59,32,7,1.000)" /><rect x="11" y="11" width="1.025" height="1.025" fill="rgba(63,33,8,1.000)" /><rect x="12" y="11" width="1.025" height="1.025" fill="rgba(31,23,6,1.000)" /><rect x="13" y="11" width="1.025" height="1.025" fill="rgba(255,237,0,1.000)" /><rect x="14" y="11" width="1.025" height="1.025" fill="rgba(47,31,8,1.000)" /><rect x="15" y="11" width="1.025" height="1.025" fill="rgba(23,17,4,1.000)" /><rect x="24" y="11" width="1.025" height="1.025" fill="rgba(28,21,6,1.000)" /><rect x="25" y="11" width="1.025" height="1.025" fill="rgba(99,42,10,1.000)" /><rect x="26" y="11" width="1.025" height="1.025" fill="rgba(37,27,6,1.000)" /><rect x="27" y="11" width="1.025" height="1.025" fill="rgba(69,34,8,1.000)" /><rect x="28" y="11" width="1.025" height="1.025" fill="rgba(100,44,10,1.000)" /><rect x="9" y="12" width="1.025" height="1.025" fill="rgba(28,21,4,1.000)" /><rect x="10" y="12" width="1.025" height="1.025" fill="rgba(89,39,8,1.000)" /><rect x="11" y="12" width="1.025" height="1.025" fill="rgba(30,22,6,1.000)" /><rect x="12" y="12" width="1.025" height="1.025" fill="rgba(37,26,6,1.000)" /><rect x="13" y="12" width="1.025" height="1.025" fill="rgba(255,0,0,1.000)" /><rect x="14" y="12" width="1.025" height="1.025" fill="rgba(36,29,7,1.000)" /><rect x="24" y="12" width="1.025" height="1.025" fill="rgba(25,18,5,1.000)" /><rect x="25" y="12" width="1.025" height="1.025" fill="rgba(53,30,8,1.000)" /><rect x="26" y="12" width="1.025" height="1.025" fill="rgba(101,43,9,1.000)" /><rect x="27" y="12" width="1.025" height="1.025" fill="rgba(49,30,6,1.000)" /><rect x="28" y="12" width="1.025" height="1.025" fill="rgba(101,43,9,1.000)" /><rect x="9" y="13" width="1.025" height="1.025" fill="rgba(27,19,4,1.000)" /><rect x="10" y="13" width="1.025" height="1.025" fill="rgba(97,42,10,1.000)" /><rect x="11" y="13" width="1.025" height="1.025" fill="rgba(28,21,5,1.000)" /><rect x="12" y="13" width="1.025" height="1.025" fill="rgba(92,40,8,1.000)" /><rect x="13" y="13" width="1.025" height="1.025" fill="rgba(77,37,9,1.000)" /><rect x="14" y="13" width="1.025" height="1.025" fill="rgba(27,21,5,1.000)" /><rect x="24" y="13" width="1.025" height="1.025" fill="rgba(23,16,3,1.000)" /><rect x="25" y="13" width="1.025" height="1.025" fill="rgba(35,26,7,1.000)" /><rect x="26" y="13" width="1.025" height="1.025" fill="rgba(103,45,10,1.000)" /><rect x="27" y="13" width="1.025" height="1.025" fill="rgba(36,28,7,1.000)" /><rect x="28" y="13" width="1.025" height="1.025" fill="rgba(91,39,8,1.000)" /><rect x="9" y="14" width="1.025" height="1.025" fill="rgba(27,19,4,1.000)" /><rect x="10" y="14" width="1.025" height="1.025" fill="rgba(90,39,8,1.000)" /><rect x="11" y="14" width="1.025" height="1.025" fill="rgba(28,20,4,1.000)" /><rect x="12" y="14" width="1.025" height="1.025" fill="rgba(98,42,9,1.000)" /><rect x="13" y="14" width="1.025" height="1.025" fill="rgba(42,30,7,1.000)" /><rect x="14" y="14" width="1.025" height="1.025" fill="rgba(30,22,6,1.000)" /><rect x="24" y="14" width="1.025" height="1.025" fill="rgba(26,18,4,1.000)" /><rect x="25" y="14" width="1.025" height="1.025" fill="rgba(35,26,7,1.000)" /><rect x="26" y="14" width="1.025" height="1.025" fill="rgba(97,41,8,1.000)" /><rect x="27" y="14" width="1.025" height="1.025" fill="rgba(47,29,7,1.000)" /><rect x="28" y="14" width="1.025" height="1.025" fill="rgba(98,41,9,1.000)" /><rect x="8" y="15" width="1.025" height="1.025" fill="rgba(23,16,2,1.000)" /><rect x="9" y="15" width="1.025" height="1.025" fill="rgba(87,38,7,1.000)" /><rect x="10" y="15" width="1.025" height="1.025" fill="rgba(43,29,7,1.000)" /><rect x="11" y="15" width="1.025" height="1.025" fill="rgba(28,20,4,1.000)" /><rect x="12" y="15" width="1.025" height="1.025" fill="rgba(102,43,10,1.000)" /><rect x="13" y="15" width="1.025" height="1.025" fill="rgba(35,27,7,1.000)" /><rect x="14" y="15" width="1.025" height="1.025" fill="rgba(26,19,4,1.000)" /><rect x="24" y="15" width="1.025" height="1.025" fill="rgba(25,18,4,1.000)" /><rect x="25" y="15" width="1.025" height="1.025" fill="rgba(33,25,6,1.000)" /><rect x="26" y="15" width="1.025" height="1.025" fill="rgba(97,41,9,1.000)" /><rect x="27" y="15" width="1.025" height="1.025" fill="rgba(52,31,7,1.000)" /><rect x="28" y="15" width="1.025" height="1.025" fill="rgba(100,41,9,1.000)" /><rect x="8" y="16" width="1.025" height="1.025" fill="rgba(21,15,2,1.000)" /><rect x="9" y="16" width="1.025" height="1.025" fill="rgba(96,42,10,1.000)" /><rect x="10" y="16" width="1.025" height="1.025" fill="rgba(29,22,5,1.000)" /><rect x="11" y="16" width="1.025" height="1.025" fill="rgba(32,24,6,1.000)" /><rect x="12" y="16" width="1.025" height="1.025" fill="rgba(96,42,11,1.000)" /><rect x="13" y="16" width="1.025" height="1.025" fill="rgba(33,25,6,1.000)" /><rect x="14" y="16" width="1.025" height="1.025" fill="rgba(26,19,4,1.000)" /><rect x="24" y="16" width="1.025" height="1.025" fill="rgba(23,16,3,1.000)" /><rect x="25" y="16" width="1.025" height="1.025" fill="rgba(35,27,7,1.000)" /><rect x="26" y="16" width="1.025" height="1.025" fill="rgba(100,43,9,1.000)" /><rect x="27" y="16" width="1.025" height="1.025" fill="rgba(35,26,6,1.000)" /><rect x="28" y="16" width="1.025" height="1.025" fill="rgba(89,39,7,1.000)" /><rect x="8" y="17" width="1.025" height="1.025" fill="rgba(21,14,1,1.000)" /><rect x="9" y="17" width="1.025" height="1.025" fill="rgba(97,42,10,1.000)" /><rect x="10" y="17" width="1.025" height="1.025" fill="rgba(25,19,4,1.000)" /><rect x="11" y="17" width="1.025" height="1.025" fill="rgba(61,32,7,1.000)" /><rect x="12" y="17" width="1.025" height="1.025" fill="rgba(87,39,9,1.000)" /><rect x="13" y="17" width="1.025" height="1.025" fill="rgba(33,25,6,1.000)" /><rect x="14" y="17" width="1.025" height="1.025" fill="rgba(27,19,3,1.000)" /><rect x="24" y="17" width="1.025" height="1.025" fill="rgba(21,15,2,1.000)" /><rect x="25" y="17" width="1.025" height="1.025" fill="rgba(34,25,6,1.000)" /><rect x="26" y="17" width="1.025" height="1.025" fill="rgba(100,43,10,1.000)" /><rect x="27" y="17" width="1.025" height="1.025" fill="rgba(31,24,5,1.000)" /><rect x="28" y="17" width="1.025" height="1.025" fill="rgba(94,40,8,1.000)" /><rect x="8" y="18" width="1.025" height="1.025" fill="rgba(22,15,3,1.000)" /><rect x="9" y="18" width="1.025" height="1.025" fill="rgba(91,39,8,1.000)" /><rect x="10" y="18" width="1.025" height="1.025" fill="rgba(25,19,4,1.000)" /><rect x="11" y="18" width="1.025" height="1.025" fill="rgba(89,39,8,1.000)" /><rect x="12" y="18" width="1.025" height="1.025" fill="rgba(86,39,10,1.000)" /><rect x="13" y="18" width="1.025" height="1.025" fill="rgba(33,25,6,1.000)" /><rect x="14" y="18" width="1.025" height="1.025" fill="rgba(16,11,1,1.000)" /><rect x="24" y="18" width="1.025" height="1.025" fill="rgba(22,16,3,1.000)" /><rect x="25" y="18" width="1.025" height="1.025" fill="rgba(35,26,7,1.000)" /><rect x="26" y="18" width="1.025" height="1.025" fill="rgba(95,41,9,1.000)" /><rect x="27" y="18" width="1.025" height="1.025" fill="rgba(29,22,5,1.000)" /><rect x="28" y="18" width="1.025" height="1.025" fill="rgba(92,40,8,1.000)" /><rect x="8" y="19" width="1.025" height="1.025" fill="rgba(21,15,3,1.000)" /><rect x="9" y="19" width="1.025" height="1.025" fill="rgba(84,38,7,1.000)" /><rect x="10" y="19" width="1.025" height="1.025" fill="rgba(26,18,3,1.000)" /><rect x="11" y="19" width="1.025" height="1.025" fill="rgba(94,41,8,1.000)" /><rect x="12" y="19" width="1.025" height="1.025" fill="rgba(36,28,7,1.000)" /><rect x="13" y="19" width="1.025" height="1.025" fill="rgba(33,25,6,1.000)" /><rect x="14" y="19" width="1.025" height="1.025" fill="rgba(16,11,1,1.000)" /><rect x="24" y="19" width="1.025" height="1.025" fill="rgba(19,13,3,1.000)" /><rect x="25" y="19" width="1.025" height="1.025" fill="rgba(36,27,6,1.000)" /><rect x="26" y="19" width="1.025" height="1.025" fill="rgba(88,39,7,1.000)" /><rect x="27" y="19" width="1.025" height="1.025" fill="rgba(30,23,5,1.000)" /><rect x="28" y="19" width="1.025" height="1.025" fill="rgba(83,39,9,1.000)" /><rect x="8" y="20" width="1.025" height="1.025" fill="rgba(22,15,2,1.000)" /><rect x="9" y="20" width="1.025" height="1.025" fill="rgba(96,41,9,1.000)" /><rect x="10" y="20" width="1.025" height="1.025" fill="rgba(23,15,3,1.000)" /><rect x="11" y="20" width="1.025" height="1.025" fill="rgba(97,41,9,1.000)" /><rect x="12" y="20" width="1.025" height="1.025" fill="rgba(30,22,5,1.000)" /><rect x="13" y="20" width="1.025" height="1.025" fill="rgba(27,19,3,1.000)" /><rect x="14" y="20" width="1.025" height="1.025" fill="rgba(7,4,0,1.000)" /><rect x="24" y="20" width="1.025" height="1.025" fill="rgba(16,11,1,1.000)" /><rect x="25" y="20" width="1.025" height="1.025" fill="rgba(34,25,6,1.000)" /><rect x="26" y="20" width="1.025" height="1.025" fill="rgba(83,37,7,1.000)" /><rect x="27" y="20" width="1.025" height="1.025" fill="rgba(29,21,5,1.000)" /><rect x="28" y="20" width="1.025" height="1.025" fill="rgba(63,33,8,1.000)" /><rect x="8" y="21" width="1.025" height="1.025" fill="rgba(23,17,3,1.000)" /><rect x="9" y="21" width="1.025" height="1.025" fill="rgba(90,40,9,1.000)" /><rect x="10" y="21" width="1.025" height="1.025" fill="rgba(23,16,3,1.000)" /><rect x="11" y="21" width="1.025" height="1.025" fill="rgba(93,41,10,1.000)" /><rect x="12" y="21" width="1.025" height="1.025" fill="rgba(29,21,5,1.000)" /><rect x="13" y="21" width="1.025" height="1.025" fill="rgba(60,33,9,1.000)" /><rect x="14" y="21" width="1.025" height="1.025" fill="rgba(16,11,1,1.000)" /><rect x="24" y="21" width="1.025" height="1.025" fill="rgba(19,15,3,1.000)" /><rect x="25" y="21" width="1.025" height="1.025" fill="rgba(54,31,8,1.000)" /><rect x="26" y="21" width="1.025" height="1.025" fill="rgba(0,150,64,1.000)" /><rect x="27" y="21" width="1.025" height="1.025" fill="rgba(31,24,6,1.000)" /><rect x="28" y="21" width="1.025" height="1.025" fill="rgba(59,32,8,1.000)" /><rect x="7" y="22" width="1.025" height="1.025" fill="rgba(15,8,0,1.000)" /><rect x="8" y="22" width="1.025" height="1.025" fill="rgba(72,34,10,1.000)" /><rect x="9" y="22" width="1.025" height="1.025" fill="rgba(68,34,8,1.000)" /><rect x="10" y="22" width="1.025" height="1.025" fill="rgba(22,16,3,1.000)" /><rect x="11" y="22" width="1.025" height="1.025" fill="rgba(86,38,7,1.000)" /><rect x="12" y="22" width="1.025" height="1.025" fill="rgba(26,19,4,1.000)" /><rect x="13" y="22" width="1.025" height="1.025" fill="rgba(85,40,10,1.000)" /><rect x="14" y="22" width="1.025" height="1.025" fill="rgba(21,15,3,1.000)" /><rect x="24" y="22" width="1.025" height="1.025" fill="rgba(23,17,3,1.000)" /><rect x="25" y="22" width="1.025" height="1.025" fill="rgba(50,30,7,1.000)" /><rect x="26" y="22" width="1.025" height="1.025" fill="rgba(255,237,0,1.000)" /><rect x="27" y="22" width="1.025" height="1.025" fill="rgba(34,27,7,1.000)" /><rect x="28" y="22" width="1.025" height="1.025" fill="rgba(104,46,14,1.000)" /><rect x="7" y="23" width="1.025" height="1.025" fill="rgba(21,14,2,1.000)" /><rect x="8" y="23" width="1.025" height="1.025" fill="rgba(93,41,10,1.000)" /><rect x="9" y="23" width="1.025" height="1.025" fill="rgba(28,20,4,1.000)" /><rect x="10" y="23" width="1.025" height="1.025" fill="rgba(25,18,4,1.000)" /><rect x="11" y="23" width="1.025" height="1.025" fill="rgba(93,40,8,1.000)" /><rect x="12" y="23" width="1.025" height="1.025" fill="rgba(23,17,3,1.000)" /><rect x="13" y="23" width="1.025" height="1.025" fill="rgba(90,41,11,1.000)" /><rect x="14" y="23" width="1.025" height="1.025" fill="rgba(24,18,4,1.000)" /><rect x="23" y="23" width="1.025" height="1.025" fill="rgba(31,23,6,1.000)" /><rect x="24" y="23" width="1.025" height="1.025" fill="rgba(37,28,7,1.000)" /><rect x="25" y="23" width="1.025" height="1.025" fill="rgba(36,28,6,1.000)" /><rect x="26" y="23" width="1.025" height="1.025" fill="rgba(255,0,0,1.000)" /><rect x="27" y="23" width="1.025" height="1.025" fill="rgba(32,25,6,1.000)" /><rect x="28" y="23" width="1.025" height="1.025" fill="rgba(100,42,12,1.000)" /><rect x="7" y="24" width="1.025" height="1.025" fill="rgba(21,15,2,1.000)" /><rect x="8" y="24" width="1.025" height="1.025" fill="rgba(0,150,64,1.000)" /><rect x="9" y="24" width="1.025" height="1.025" fill="rgba(27,20,5,1.000)" /><rect x="10" y="24" width="1.025" height="1.025" fill="rgba(19,14,2,1.000)" /><rect x="11" y="24" width="1.025" height="1.025" fill="rgba(90,39,8,1.000)" /><rect x="12" y="24" width="1.025" height="1.025" fill="rgba(24,17,3,1.000)" /><rect x="13" y="24" width="1.025" height="1.025" fill="rgba(82,39,10,1.000)" /><rect x="14" y="24" width="1.025" height="1.025" fill="rgba(25,18,3,1.000)" /><rect x="22" y="24" width="1.025" height="1.025" fill="rgba(14,9,1,1.000)" /><rect x="23" y="24" width="1.025" height="1.025" fill="rgba(32,24,7,1.000)" /><rect x="24" y="24" width="1.025" height="1.025" fill="rgba(61,33,8,1.000)" /><rect x="25" y="24" width="1.025" height="1.025" fill="rgba(23,17,3,1.000)" /><rect x="26" y="24" width="1.025" height="1.025" fill="rgba(97,41,9,1.000)" /><rect x="27" y="24" width="1.025" height="1.025" fill="rgba(30,24,6,1.000)" /><rect x="28" y="24" width="1.025" height="1.025" fill="rgba(98,42,12,1.000)" /><rect x="7" y="25" width="1.025" height="1.025" fill="rgba(21,14,2,1.000)" /><rect x="8" y="25" width="1.025" height="1.025" fill="rgba(255,237,0,1.000)" /><rect x="9" y="25" width="1.025" height="1.025" fill="rgba(28,20,4,1.000)" /><rect x="10" y="25" width="1.025" height="1.025" fill="rgba(25,18,4,1.000)" /><rect x="11" y="25" width="1.025" height="1.025" fill="rgba(93,40,8,1.000)" /><rect x="12" y="25" width="1.025" height="1.025" fill="rgba(23,17,3,1.000)" /><rect x="13" y="25" width="1.025" height="1.025" fill="rgba(90,41,11,1.000)" /><rect x="14" y="25" width="1.025" height="1.025" fill="rgba(24,18,4,1.000)" /><rect x="19" y="25" width="1.025" height="1.025" fill="rgba(14,9,1,1.000)" /><rect x="20" y="25" width="1.025" height="1.025" fill="rgba(32,24,7,1.000)" /><rect x="21" y="25" width="1.025" height="1.025" fill="rgba(61,33,8,1.000)" /><rect x="22" y="25" width="1.025" height="1.025" fill="rgba(14,9,1,1.000)" /><rect x="23" y="25" width="1.025" height="1.025" fill="rgba(32,24,7,1.000)" /><rect x="24" y="25" width="1.025" height="1.025" fill="rgba(61,33,8,1.000)" /><rect x="25" y="25" width="1.025" height="1.025" fill="rgba(23,16,3,1.000)" /><rect x="26" y="25" width="1.025" height="1.025" fill="rgba(89,39,8,1.000)" /><rect x="27" y="25" width="1.025" height="1.025" fill="rgba(34,26,6,1.000)" /><rect x="28" y="25" width="1.025" height="1.025" fill="rgba(98,41,12,1.000)" /><rect x="7" y="26" width="1.025" height="1.025" fill="rgba(21,15,2,1.000)" /><rect x="8" y="26" width="1.025" height="1.025" fill="rgba(255,0,0,1.000)" /><rect x="9" y="26" width="1.025" height="1.025" fill="rgba(27,20,5,1.000)" /><rect x="10" y="26" width="1.025" height="1.025" fill="rgba(19,14,2,1.000)" /><rect x="11" y="26" width="1.025" height="1.025" fill="rgba(90,39,8,1.000)" /><rect x="12" y="26" width="1.025" height="1.025" fill="rgba(24,17,3,1.000)" /><rect x="13" y="26" width="1.025" height="1.025" fill="rgba(82,39,10,1.000)" /><rect x="14" y="26" width="1.025" height="1.025" fill="rgba(25,18,3,1.000)" /><rect x="19" y="26" width="1.025" height="1.025" fill="rgba(16,12,1,1.000)" /><rect x="20" y="26" width="1.025" height="1.025" fill="rgba(33,26,7,1.000)" /><rect x="21" y="26" width="1.025" height="1.025" fill="rgba(79,38,9,1.000)" /><rect x="22" y="26" width="1.025" height="1.025" fill="rgba(16,12,1,1.000)" /><rect x="23" y="26" width="1.025" height="1.025" fill="rgba(33,26,7,1.000)" /><rect x="24" y="26" width="1.025" height="1.025" fill="rgba(79,38,9,1.000)" /><rect x="25" y="26" width="1.025" height="1.025" fill="rgba(21,15,3,1.000)" /><rect x="26" y="26" width="1.025" height="1.025" fill="rgba(67,34,8,1.000)" /><rect x="27" y="26" width="1.025" height="1.025" fill="rgba(83,38,9,1.000)" /><rect x="28" y="26" width="1.025" height="1.025" fill="rgba(99,41,11,1.000)" /><rect x="6" y="27" width="1.025" height="1.025" fill="rgba(21,15,2,1.000)" /><rect x="7" y="27" width="1.025" height="1.025" fill="rgba(84,38,11,1.000)" /><rect x="8" y="27" width="1.025" height="1.025" fill="rgba(27,20,5,1.000)" /><rect x="9" y="27" width="1.025" height="1.025" fill="rgba(19,14,2,1.000)" /><rect x="10" y="27" width="1.025" height="1.025" fill="rgba(90,39,8,1.000)" /><rect x="11" y="27" width="1.025" height="1.025" fill="rgba(24,17,3,1.000)" /><rect x="12" y="27" width="1.025" height="1.025" fill="rgba(82,39,10,1.000)" /><rect x="13" y="27" width="1.025" height="1.025" fill="rgba(25,18,3,1.000)" /><rect x="14" y="27" width="1.025" height="1.025" fill="rgba(13,7,2,1.000)" /><rect x="19" y="27" width="1.025" height="1.025" fill="rgba(11,7,8,1.000)" /><rect x="20" y="27" width="1.025" height="1.025" fill="rgba(32,25,7,1.000)" /><rect x="21" y="27" width="1.025" height="1.025" fill="rgba(77,38,10,1.000)" /><rect x="22" y="27" width="1.025" height="1.025" fill="rgba(11,7,8,1.000)" /><rect x="23" y="27" width="1.025" height="1.025" fill="rgba(32,25,7,1.000)" /><rect x="24" y="27" width="1.025" height="1.025" fill="rgba(77,38,10,1.000)" /><rect x="25" y="27" width="1.025" height="1.025" fill="rgba(20,13,2,1.000)" /><rect x="26" y="27" width="1.025" height="1.025" fill="rgba(57,32,7,1.000)" /><rect x="27" y="27" width="1.025" height="1.025" fill="rgba(103,46,11,1.000)" /><rect x="28" y="27" width="1.025" height="1.025" fill="rgba(98,40,12,1.000)" /><rect x="6" y="28" width="1.025" height="1.025" fill="rgba(19,14,2,1.000)" /><rect x="7" y="28" width="1.025" height="1.025" fill="rgba(66,34,8,1.000)" /><rect x="8" y="28" width="1.025" height="1.025" fill="rgba(19,14,2,1.000)" /><rect x="10" y="28" width="1.025" height="1.025" fill="rgba(84,37,7,1.000)" /><rect x="11" y="28" width="1.025" height="1.025" fill="rgba(21,15,3,1.000)" /><rect x="12" y="28" width="1.025" height="1.025" fill="rgba(89,40,10,1.000)" /><rect x="13" y="28" width="1.025" height="1.025" fill="rgba(28,21,4,1.000)" /><rect x="22" y="28" width="1.025" height="1.025" fill="rgba(8,2,11,1.000)" /><rect x="23" y="28" width="1.025" height="1.025" fill="rgba(31,25,6,1.000)" /><rect x="24" y="28" width="1.025" height="1.025" fill="rgba(40,29,7,1.000)" /><rect x="25" y="28" width="1.025" height="1.025" fill="rgba(16,10,1,1.000)" /><rect x="26" y="28" width="1.025" height="1.025" fill="rgba(43,29,7,1.000)" /><rect x="27" y="28" width="1.025" height="1.025" fill="rgba(101,44,10,1.000)" /><rect x="6" y="29" width="1.025" height="1.025" fill="rgba(19,13,2,1.000)" /><rect x="7" y="29" width="1.025" height="1.025" fill="rgba(60,32,8,1.000)" /><rect x="8" y="29" width="1.025" height="1.025" fill="rgba(5,1,7,1.000)" /><rect x="10" y="29" width="1.025" height="1.025" fill="rgba(91,40,7,1.000)" /><rect x="11" y="29" width="1.025" height="1.025" fill="rgba(22,15,3,1.000)" /><rect x="12" y="29" width="1.025" height="1.025" fill="rgba(62,33,8,1.000)" /><rect x="13" y="29" width="1.025" height="1.025" fill="rgba(47,30,7,1.000)" /><rect x="24" y="29" width="1.025" height="1.025" fill="rgba(32,24,5,1.000)" /><rect x="25" y="29" width="1.025" height="1.025" fill="rgba(16,10,1,1.000)" /><rect x="26" y="29" width="1.025" height="1.025" fill="rgba(36,27,7,1.000)" /><rect x="27" y="29" width="1.025" height="1.025" fill="rgba(102,44,11,1.000)" /><rect x="6" y="30" width="1.025" height="1.025" fill="rgba(19,14,2,1.000)" /><rect x="7" y="30" width="1.025" height="1.025" fill="rgba(34,25,6,1.000)" /><rect x="10" y="30" width="1.025" height="1.025" fill="rgba(90,39,8,1.000)" /><rect x="11" y="30" width="1.025" height="1.025" fill="rgba(17,11,2,1.000)" /><rect x="12" y="30" width="1.025" height="1.025" fill="rgba(37,28,7,1.000)" /><rect x="25" y="30" width="1.025" height="1.025" fill="rgba(17,12,2,1.000)" /><rect x="26" y="30" width="1.025" height="1.025" fill="rgba(34,25,6,1.000)" /><rect x="27" y="30" width="1.025" height="1.025" fill="rgba(85,39,9,1.000)" /><rect x="10" y="31" width="1.025" height="1.025" fill="rgba(76,35,7,1.000)" /><rect x="12" y="31" width="1.025" height="1.025" fill="rgba(32,25,6,1.000)" /><rect x="25" y="31" width="1.025" height="1.025" fill="rgba(6,2,9,1.000)" /><rect x="27" y="31" width="1.025" height="1.025" fill="rgba(80,37,8,1.000)" /><rect x="27" y="32" width="1.025" height="1.025" fill="rgba(95,39,11,1.000)" /></svg>