<svg shape-rendering="crispEdges" xmlns="http://www.w3.org/2000/svg" version="1.1" width="37" height="37"><style>rect { image-rendering: pixelated; }</style><rect x="14" y="4" width="1.025" height="1.025" fill="rgba(83,21,2,1.000)" /><rect x="15" y="4" width="1.025" height="1.025" fill="rgba(194,122,12,1.000)" /><rect x="16" y="4" width="1.025" height="1.025" fill="rgba(248,199,64,1.000)" /><rect x="17" y="4" width="1.025" height="1.025" fill="rgba(194,122,12,1.000)" /><rect x="18" y="4" width="1.025" height="1.025" fill="rgba(248,199,64,1.000)" /><rect x="19" y="4" width="1.025" height="1.025" fill="rgba(201,140,19,1.000)" /><rect x="20" y="4" width="1.025" height="1.025" fill="rgba(120,59,5,1.000)" /><rect x="21" y="4" width="1.025" height="1.025" fill="rgba(255,216,96,1.000)" /><rect x="22" y="4" width="1.025" height="1.025" fill="rgba(255,216,96,1.000)" /><rect x="23" y="4" width="1.025" height="1.025" fill="rgba(253,199,0,1.000)" /><rect x="12" y="5" width="1.025" height="1.025" fill="rgba(198,128,18,1.000)" /><rect x="13" y="5" width="1.025" height="1.025" fill="rgba(245,201,53,1.000)" /><rect x="14" y="5" width="1.025" height="1.025" fill="rgba(255,213,79,1.000)" /><rect x="15" y="5" width="1.025" height="1.025" fill="rgba(254,206,68,1.000)" /><rect x="16" y="5" width="1.025" height="1.025" fill="rgba(254,212,77,1.000)" /><rect x="17" y="5" width="1.025" height="1.025" fill="rgba(253,208,71,1.000)" /><rect x="18" y="5" width="1.025" height="1.025" fill="rgba(248,190,56,1.000)" /><rect x="19" y="5" width="1.025" height="1.025" fill="rgba(244,184,55,1.000)" /><rect x="20" y="5" width="1.025" height="1.025" fill="rgba(255,216,96,1.000)" /><rect x="21" y="5" width="1.025" height="1.025" fill="rgba(255,216,96,1.000)" /><rect x="22" y="5" width="1.025" height="1.025" fill="rgba(252,211,75,1.000)" /><rect x="23" y="5" width="1.025" height="1.025" fill="rgba(233,168,35,1.000)" /><rect x="24" y="5" width="1.025" height="1.025" fill="rgba(128,61,0,1.000)" /><rect x="12" y="6" width="1.025" height="1.025" fill="rgba(194,122,12,1.000)" /><rect x="13" y="6" width="1.025" height="1.025" fill="rgba(251,211,78,1.000)" /><rect x="14" y="6" width="1.025" height="1.025" fill="rgba(253,204,66,1.000)" /><rect x="15" y="6" width="1.025" height="1.025" fill="rgba(249,202,62,1.000)" /><rect x="16" y="6" width="1.025" height="1.025" fill="rgba(246,192,45,1.000)" /><rect x="17" y="6" width="1.025" height="1.025" fill="rgba(248,191,44,1.000)" /><rect x="18" y="6" width="1.025" height="1.025" fill="rgba(243,187,45,1.000)" /><rect x="19" y="6" width="1.025" height="1.025" fill="rgba(230,170,33,1.000)" /><rect x="20" y="6" width="1.025" height="1.025" fill="rgba(201,140,19,1.000)" /><rect x="21" y="6" width="1.025" height="1.025" fill="rgba(234,171,32,1.000)" /><rect x="22" y="6" width="1.025" height="1.025" fill="rgba(255,216,88,1.000)" /><rect x="23" y="6" width="1.025" height="1.025" fill="rgba(254,204,71,1.000)" /><rect x="24" y="6" width="1.025" height="1.025" fill="rgba(201,140,19,1.000)" /><rect x="25" y="6" width="1.025" height="1.025" fill="rgba(254,201,0,1.000)" /><rect x="11" y="7" width="1.025" height="1.025" fill="rgba(194,122,12,1.000)" /><rect x="12" y="7" width="1.025" height="1.025" fill="rgba(199,143,14,1.000)" /><rect x="13" y="7" width="1.025" height="1.025" fill="rgba(255,211,78,1.000)" /><rect x="14" y="7" width="1.025" height="1.025" fill="rgba(250,200,60,1.000)" /><rect x="15" y="7" width="1.025" height="1.025" fill="rgba(255,220,99,1.000)" /><rect x="16" y="7" width="1.025" height="1.025" fill="rgba(254,222,100,1.000)" /><rect x="17" y="7" width="1.025" height="1.025" fill="rgba(255,211,74,1.000)" /><rect x="18" y="7" width="1.025" height="1.025" fill="rgba(244,191,51,1.000)" /><rect x="19" y="7" width="1.025" height="1.025" fill="rgba(243,188,46,1.000)" /><rect x="20" y="7" width="1.025" height="1.025" fill="rgba(248,195,52,1.000)" /><rect x="21" y="7" width="1.025" height="1.025" fill="rgba(247,192,55,1.000)" /><rect x="22" y="7" width="1.025" height="1.025" fill="rgba(253,234,124,1.000)" /><rect x="23" y="7" width="1.025" height="1.025" fill="rgba(254,225,111,1.000)" /><rect x="24" y="7" width="1.025" height="1.025" fill="rgba(249,202,70,1.000)" /><rect x="25" y="7" width="1.025" height="1.025" fill="rgba(201,140,19,1.000)" /><rect x="11" y="8" width="1.025" height="1.025" fill="rgba(237,176,33,1.000)" /><rect x="12" y="8" width="1.025" height="1.025" fill="rgba(243,195,62,1.000)" /><rect x="13" y="8" width="1.025" height="1.025" fill="rgba(255,218,95,1.000)" /><rect x="14" y="8" width="1.025" height="1.025" fill="rgba(254,210,75,1.000)" /><rect x="15" y="8" width="1.025" height="1.025" fill="rgba(255,226,101,1.000)" /><rect x="16" y="8" width="1.025" height="1.025" fill="rgba(254,213,84,1.000)" /><rect x="17" y="8" width="1.025" height="1.025" fill="rgba(235,183,53,1.000)" /><rect x="18" y="8" width="1.025" height="1.025" fill="rgba(255,221,98,1.000)" /><rect x="19" y="8" width="1.025" height="1.025" fill="rgba(253,218,91,1.000)" /><rect x="20" y="8" width="1.025" height="1.025" fill="rgba(255,231,101,1.000)" /><rect x="21" y="8" width="1.025" height="1.025" fill="rgba(239,182,42,1.000)" /><rect x="22" y="8" width="1.025" height="1.025" fill="rgba(254,231,124,1.000)" /><rect x="23" y="8" width="1.025" height="1.025" fill="rgba(255,231,118,1.000)" /><rect x="24" y="8" width="1.025" height="1.025" fill="rgba(253,213,84,1.000)" /><rect x="25" y="8" width="1.025" height="1.025" fill="rgba(241,185,46,1.000)" /><rect x="26" y="8" width="1.025" height="1.025" fill="rgba(108,48,4,1.000)" /><rect x="10" y="9" width="1.025" height="1.025" fill="rgba(176,116,30,1.000)" /><rect x="11" y="9" width="1.025" height="1.025" fill="rgba(253,201,59,1.000)" /><rect x="12" y="9" width="1.025" height="1.025" fill="rgba(255,218,86,1.000)" /><rect x="13" y="9" width="1.025" height="1.025" fill="rgba(255,224,102,1.000)" /><rect x="14" y="9" width="1.025" height="1.025" fill="rgba(250,203,60,1.000)" /><rect x="15" y="9" width="1.025" height="1.025" fill="rgba(253,223,108,1.000)" /><rect x="16" y="9" width="1.025" height="1.025" fill="rgba(189,121,7,1.000)" /><rect x="17" y="9" width="1.025" height="1.025" fill="rgba(173,99,5,1.000)" /><rect x="18" y="9" width="1.025" height="1.025" fill="rgba(255,210,85,1.000)" /><rect x="19" y="9" width="1.025" height="1.025" fill="rgba(249,195,57,1.000)" /><rect x="20" y="9" width="1.025" height="1.025" fill="rgba(219,151,16,1.000)" /><rect x="21" y="9" width="1.025" height="1.025" fill="rgba(194,122,12,1.000)" /><rect x="22" y="9" width="1.025" height="1.025" fill="rgba(244,185,48,1.000)" /><rect x="23" y="9" width="1.025" height="1.025" fill="rgba(173,105,14,1.000)" /><rect x="24" y="9" width="1.025" height="1.025" fill="rgba(236,174,46,1.000)" /><rect x="25" y="9" width="1.025" height="1.025" fill="rgba(246,196,57,1.000)" /><rect x="26" y="9" width="1.025" height="1.025" fill="rgba(108,47,2,1.000)" /><rect x="10" y="10" width="1.025" height="1.025" fill="rgba(205,141,16,1.000)" /><rect x="11" y="10" width="1.025" height="1.025" fill="rgba(252,199,63,1.000)" /><rect x="12" y="10" width="1.025" height="1.025" fill="rgba(255,229,120,1.000)" /><rect x="13" y="10" width="1.025" height="1.025" fill="rgba(234,170,28,1.000)" /><rect x="14" y="10" width="1.025" height="1.025" fill="rgba(253,207,75,1.000)" /><rect x="15" y="10" width="1.025" height="1.025" fill="rgba(187,109,16,1.000)" /><rect x="16" y="10" width="1.025" height="1.025" fill="rgba(199,129,18,1.000)" /><rect x="17" y="10" width="1.025" height="1.025" fill="rgba(150,87,11,1.000)" /><rect x="18" y="10" width="1.025" height="1.025" fill="rgba(146,78,5,1.000)" /><rect x="19" y="10" width="1.025" height="1.025" fill="rgba(157,86,15,1.000)" /><rect x="20" y="10" width="1.025" height="1.025" fill="rgba(164,91,14,1.000)" /><rect x="21" y="10" width="1.025" height="1.025" fill="rgba(136,67,10,1.000)" /><rect x="22" y="10" width="1.025" height="1.025" fill="rgba(178,109,19,1.000)" /><rect x="23" y="10" width="1.025" height="1.025" fill="rgba(113,53,2,1.000)" /><rect x="24" y="10" width="1.025" height="1.025" fill="rgba(117,54,3,1.000)" /><rect x="25" y="10" width="1.025" height="1.025" fill="rgba(194,127,19,1.000)" /><rect x="26" y="10" width="1.025" height="1.025" fill="rgba(224,164,35,1.000)" /><rect x="9" y="11" width="1.025" height="1.025" fill="rgba(254,215,0,1.000)" /><rect x="10" y="11" width="1.025" height="1.025" fill="rgba(234,179,33,1.000)" /><rect x="11" y="11" width="1.025" height="1.025" fill="rgba(240,188,43,1.000)" /><rect x="12" y="11" width="1.025" height="1.025" fill="rgba(255,214,79,1.000)" /><rect x="13" y="11" width="1.025" height="1.025" fill="rgba(237,173,28,1.000)" /><rect x="14" y="11" width="1.025" height="1.025" fill="rgba(252,224,110,1.000)" /><rect x="15" y="11" width="1.025" height="1.025" fill="rgba(178,100,26,1.000)" /><rect x="24" y="11" width="1.025" height="1.025" fill="rgba(248,199,64,1.000)" /><rect x="25" y="11" width="1.025" height="1.025" fill="rgba(202,137,25,1.000)" /><rect x="26" y="11" width="1.025" height="1.025" fill="rgba(238,184,47,1.000)" /><rect x="27" y="11" width="1.025" height="1.025" fill="rgba(238,184,47,1.000)" /><rect x="9" y="12" width="1.025" height="1.025" fill="rgba(114,49,11,1.000)" /><rect x="10" y="12" width="1.025" height="1.025" fill="rgba(244,189,56,1.000)" /><rect x="11" y="12" width="1.025" height="1.025" fill="rgba(248,197,58,1.000)" /><rect x="12" y="12" width="1.025" height="1.025" fill="rgba(252,208,73,1.000)" /><rect x="13" y="12" width="1.025" height="1.025" fill="rgba(245,187,46,1.000)" /><rect x="14" y="12" width="1.025" height="1.025" fill="rgba(252,229,117,1.000)" /><rect x="25" y="12" width="1.025" height="1.025" fill="rgba(117,53,14,1.000)" /><rect x="26" y="12" width="1.025" height="1.025" fill="rgba(248,199,64,1.000)" /><rect x="27" y="12" width="1.025" height="1.025" fill="rgba(254,217,96,1.000)" /><rect x="9" y="13" width="1.025" height="1.025" fill="rgba(223,156,31,1.000)" /><rect x="10" y="13" width="1.025" height="1.025" fill="rgba(254,211,83,1.000)" /><rect x="11" y="13" width="1.025" height="1.025" fill="rgba(255,224,108,1.000)" /><rect x="12" y="13" width="1.025" height="1.025" fill="rgba(239,184,42,1.000)" /><rect x="13" y="13" width="1.025" height="1.025" fill="rgba(255,231,121,1.000)" /><rect x="14" y="13" width="1.025" height="1.025" fill="rgba(250,202,67,1.000)" /><rect x="25" y="13" width="1.025" height="1.025" fill="rgba(178,108,16,1.000)" /><rect x="26" y="13" width="1.025" height="1.025" fill="rgba(254,217,96,1.000)" /><rect x="27" y="13" width="1.025" height="1.025" fill="rgba(194,122,12,1.000)" /><rect x="8" y="14" width="1.025" height="1.025" fill="rgba(196,129,11,1.000)" /><rect x="9" y="14" width="1.025" height="1.025" fill="rgba(246,184,43,1.000)" /><rect x="10" y="14" width="1.025" height="1.025" fill="rgba(255,227,115,1.000)" /><rect x="11" y="14" width="1.025" height="1.025" fill="rgba(252,203,68,1.000)" /><rect x="12" y="14" width="1.025" height="1.025" fill="rgba(191,138,19,1.000)" /><rect x="13" y="14" width="1.025" height="1.025" fill="rgba(254,229,119,1.000)" /><rect x="14" y="14" width="1.025" height="1.025" fill="rgba(236,173,27,1.000)" /><rect x="25" y="14" width="1.025" height="1.025" fill="rgba(205,142,29,1.000)" /><rect x="26" y="14" width="1.025" height="1.025" fill="rgba(255,216,96,1.000)" /><rect x="27" y="14" width="1.025" height="1.025" fill="rgba(59,7,0,1.000)" /><rect x="8" y="15" width="1.025" height="1.025" fill="rgba(226,159,24,1.000)" /><rect x="9" y="15" width="1.025" height="1.025" fill="rgba(255,227,112,1.000)" /><rect x="10" y="15" width="1.025" height="1.025" fill="rgba(239,174,28,1.000)" /><rect x="11" y="15" width="1.025" height="1.025" fill="rgba(204,133,15,1.000)" /><rect x="12" y="15" width="1.025" height="1.025" fill="rgba(237,185,52,1.000)" /><rect x="13" y="15" width="1.025" height="1.025" fill="rgba(255,225,118,1.000)" /><rect x="14" y="15" width="1.025" height="1.025" fill="rgba(229,165,41,1.000)" /><rect x="25" y="15" width="1.025" height="1.025" fill="rgba(201,135,22,1.000)" /><rect x="26" y="15" width="1.025" height="1.025" fill="rgba(247,198,65,1.000)" /><rect x="27" y="15" width="1.025" height="1.025" fill="rgba(226,169,31,1.000)" /><rect x="28" y="15" width="1.025" height="1.025" fill="rgba(238,184,47,1.000)" /><rect x="8" y="16" width="1.025" height="1.025" fill="rgba(242,190,48,1.000)" /><rect x="9" y="16" width="1.025" height="1.025" fill="rgba(255,221,95,1.000)" /><rect x="10" y="16" width="1.025" height="1.025" fill="rgba(235,174,28,1.000)" /><rect x="11" y="16" width="1.025" height="1.025" fill="rgba(212,143,16,1.000)" /><rect x="12" y="16" width="1.025" height="1.025" fill="rgba(252,214,89,1.000)" /><rect x="13" y="16" width="1.025" height="1.025" fill="rgba(118,52,5,1.000)" /><rect x="14" y="16" width="1.025" height="1.025" fill="rgba(140,72,12,1.000)" /><rect x="25" y="16" width="1.025" height="1.025" fill="rgba(182,113,19,1.000)" /><rect x="26" y="16" width="1.025" height="1.025" fill="rgba(248,193,54,1.000)" /><rect x="27" y="16" width="1.025" height="1.025" fill="rgba(229,174,32,1.000)" /><rect x="28" y="16" width="1.025" height="1.025" fill="rgba(255,216,96,1.000)" /><rect x="7" y="17" width="1.025" height="1.025" fill="rgba(209,160,59,1.000)" /><rect x="8" y="17" width="1.025" height="1.025" fill="rgba(226,165,26,1.000)" /><rect x="9" y="17" width="1.025" height="1.025" fill="rgba(252,205,60,1.000)" /><rect x="10" y="17" width="1.025" height="1.025" fill="rgba(248,189,48,1.000)" /><rect x="11" y="17" width="1.025" height="1.025" fill="rgba(232,169,27,1.000)" /><rect x="12" y="17" width="1.025" height="1.025" fill="rgba(254,231,131,1.000)" /><rect x="13" y="17" width="1.025" height="1.025" fill="rgba(166,97,21,1.000)" /><rect x="14" y="17" width="1.025" height="1.025" fill="rgba(105,47,15,1.000)" /><rect x="25" y="17" width="1.025" height="1.025" fill="rgba(172,107,19,1.000)" /><rect x="26" y="17" width="1.025" height="1.025" fill="rgba(245,192,53,1.000)" /><rect x="27" y="17" width="1.025" height="1.025" fill="rgba(247,195,57,1.000)" /><rect x="28" y="17" width="1.025" height="1.025" fill="rgba(86,31,1,1.000)" /><rect x="7" y="18" width="1.025" height="1.025" fill="rgba(239,189,81,1.000)" /><rect x="8" y="18" width="1.025" height="1.025" fill="rgba(224,161,22,1.000)" /><rect x="9" y="18" width="1.025" height="1.025" fill="rgba(214,149,19,1.000)" /><rect x="10" y="18" width="1.025" height="1.025" fill="rgba(251,207,68,1.000)" /><rect x="11" y="18" width="1.025" height="1.025" fill="rgba(241,185,41,1.000)" /><rect x="12" y="18" width="1.025" height="1.025" fill="rgba(242,203,78,1.000)" /><rect x="13" y="18" width="1.025" height="1.025" fill="rgba(249,190,77,1.000)" /><rect x="14" y="18" width="1.025" height="1.025" fill="rgba(128,60,19,1.000)" /><rect x="25" y="18" width="1.025" height="1.025" fill="rgba(183,115,20,1.000)" /><rect x="26" y="18" width="1.025" height="1.025" fill="rgba(237,182,41,1.000)" /><rect x="27" y="18" width="1.025" height="1.025" fill="rgba(247,200,66,1.000)" /><rect x="28" y="18" width="1.025" height="1.025" fill="rgba(90,33,0,1.000)" /><rect x="7" y="19" width="1.025" height="1.025" fill="rgba(238,188,83,1.000)" /><rect x="8" y="19" width="1.025" height="1.025" fill="rgba(205,137,12,1.000)" /><rect x="9" y="19" width="1.025" height="1.025" fill="rgba(187,121,20,1.000)" /><rect x="10" y="19" width="1.025" height="1.025" fill="rgba(254,221,102,1.000)" /><rect x="11" y="19" width="1.025" height="1.025" fill="rgba(249,196,54,1.000)" /><rect x="12" y="19" width="1.025" height="1.025" fill="rgba(223,173,41,1.000)" /><rect x="13" y="19" width="1.025" height="1.025" fill="rgba(250,199,78,1.000)" /><rect x="14" y="19" width="1.025" height="1.025" fill="rgba(171,98,34,1.000)" /><rect x="25" y="19" width="1.025" height="1.025" fill="rgba(157,88,19,1.000)" /><rect x="26" y="19" width="1.025" height="1.025" fill="rgba(230,171,32,1.000)" /><rect x="27" y="19" width="1.025" height="1.025" fill="rgba(255,216,96,1.000)" /><rect x="28" y="19" width="1.025" height="1.025" fill="rgba(204,148,7,1.000)" /><rect x="7" y="20" width="1.025" height="1.025" fill="rgba(57,15,0,1.000)" /><rect x="8" y="20" width="1.025" height="1.025" fill="rgba(185,119,10,1.000)" /><rect x="9" y="20" width="1.025" height="1.025" fill="rgba(194,122,12,1.000)" /><rect x="10" y="20" width="1.025" height="1.025" fill="rgba(249,206,76,1.000)" /><rect x="11" y="20" width="1.025" height="1.025" fill="rgba(213,149,15,1.000)" /><rect x="12" y="20" width="1.025" height="1.025" fill="rgba(185,122,3,1.000)" /><rect x="13" y="20" width="1.025" height="1.025" fill="rgba(253,210,87,1.000)" /><rect x="14" y="20" width="1.025" height="1.025" fill="rgba(213,148,26,1.000)" /><rect x="25" y="20" width="1.025" height="1.025" fill="rgba(130,64,13,1.000)" /><rect x="26" y="20" width="1.025" height="1.025" fill="rgba(219,160,29,1.000)" /><rect x="27" y="20" width="1.025" height="1.025" fill="rgba(52,10,1,1.000)" /><rect x="8" y="21" width="1.025" height="1.025" fill="rgba(43,16,2,1.000)" /><rect x="9" y="21" width="1.025" height="1.025" fill="rgba(67,22,3,1.000)" /><rect x="10" y="21" width="1.025" height="1.025" fill="rgba(140,75,5,1.000)" /><rect x="11" y="21" width="1.025" height="1.025" fill="rgba(168,99,8,1.000)" /><rect x="12" y="21" width="1.025" height="1.025" fill="rgba(172,110,11,1.000)" /><rect x="13" y="21" width="1.025" height="1.025" fill="rgba(231,171,29,1.000)" /><rect x="14" y="21" width="1.025" height="1.025" fill="rgba(208,145,20,1.000)" /><rect x="25" y="21" width="1.025" height="1.025" fill="rgba(201,139,19,1.000)" /><rect x="26" y="21" width="1.025" height="1.025" fill="rgba(169,106,16,1.000)" /><rect x="27" y="21" width="1.025" height="1.025" fill="rgba(255,243,32,1.000)" /><rect x="9" y="22" width="1.025" height="1.025" fill="rgba(82,28,10,1.000)" /><rect x="10" y="22" width="1.025" height="1.025" fill="rgba(178,112,4,1.000)" /><rect x="11" y="22" width="1.025" height="1.025" fill="rgba(152,79,8,1.000)" /><rect x="12" y="22" width="1.025" height="1.025" fill="rgba(119,62,14,1.000)" /><rect x="13" y="22" width="1.025" height="1.025" fill="rgba(216,148,26,1.000)" /><rect x="14" y="22" width="1.025" height="1.025" fill="rgba(166,100,17,1.000)" /><rect x="24" y="22" width="1.025" height="1.025" fill="rgba(218,155,28,1.000)" /><rect x="25" y="22" width="1.025" height="1.025" fill="rgba(68,33,7,1.000)" /><rect x="26" y="22" width="1.025" height="1.025" fill="rgba(74,26,21,1.000)" /></svg>