<svg shape-rendering="crispEdges" xmlns="http://www.w3.org/2000/svg" version="1.1" width="37" height="37"><style>rect { image-rendering: pixelated; }</style><rect x="14" y="4" width="1.025" height="1.025" fill="rgba(0,0,1,1.000)" /><rect x="15" y="4" width="1.025" height="1.025" fill="rgba(74,40,17,1.000)" /><rect x="16" y="4" width="1.025" height="1.025" fill="rgba(86,40,14,1.000)" /><rect x="17" y="4" width="1.025" height="1.025" fill="rgba(74,31,9,1.000)" /><rect x="18" y="4" width="1.025" height="1.025" fill="rgba(44,20,1,1.000)" /><rect x="19" y="4" width="1.025" height="1.025" fill="rgba(56,24,4,1.000)" /><rect x="20" y="4" width="1.025" height="1.025" fill="rgba(66,31,10,1.000)" /><rect x="21" y="4" width="1.025" height="1.025" fill="rgba(68,28,9,1.000)" /><rect x="22" y="4" width="1.025" height="1.025" fill="rgba(18,12,1,1.000)" /><rect x="23" y="4" width="1.025" height="1.025" fill="rgba(0,2,0,1.000)" /><rect x="12" y="5" width="1.025" height="1.025" fill="rgba(0,0,3,1.000)" /><rect x="13" y="5" width="1.025" height="1.025" fill="rgba(59,25,0,1.000)" /><rect x="14" y="5" width="1.025" height="1.025" fill="rgba(95,31,0,1.000)" /><rect x="15" y="5" width="1.025" height="1.025" fill="rgba(110,40,2,1.000)" /><rect x="16" y="5" width="1.025" height="1.025" fill="rgba(115,41,3,1.000)" /><rect x="17" y="5" width="1.025" height="1.025" fill="rgba(85,21,0,1.000)" /><rect x="18" y="5" width="1.025" height="1.025" fill="rgba(80,26,1,1.000)" /><rect x="19" y="5" width="1.025" height="1.025" fill="rgba(79,27,0,1.000)" /><rect x="20" y="5" width="1.025" height="1.025" fill="rgba(83,28,1,1.000)" /><rect x="21" y="5" width="1.025" height="1.025" fill="rgba(72,22,0,1.000)" /><rect x="22" y="5" width="1.025" height="1.025" fill="rgba(64,23,0,1.000)" /><rect x="23" y="5" width="1.025" height="1.025" fill="rgba(76,28,0,1.000)" /><rect x="24" y="5" width="1.025" height="1.025" fill="rgba(16,6,0,1.000)" /><rect x="12" y="6" width="1.025" height="1.025" fill="rgba(65,27,8,1.000)" /><rect x="13" y="6" width="1.025" height="1.025" fill="rgba(98,35,3,1.000)" /><rect x="14" y="6" width="1.025" height="1.025" fill="rgba(118,40,2,1.000)" /><rect x="15" y="6" width="1.025" height="1.025" fill="rgba(136,55,10,1.000)" /><rect x="16" y="6" width="1.025" height="1.025" fill="rgba(130,48,7,1.000)" /><rect x="17" y="6" width="1.025" height="1.025" fill="rgba(140,57,16,1.000)" /><rect x="18" y="6" width="1.025" height="1.025" fill="rgba(132,52,11,1.000)" /><rect x="19" y="6" width="1.025" height="1.025" fill="rgba(114,39,2,1.000)" /><rect x="20" y="6" width="1.025" height="1.025" fill="rgba(106,34,0,1.000)" /><rect x="21" y="6" width="1.025" height="1.025" fill="rgba(103,31,0,1.000)" /><rect x="22" y="6" width="1.025" height="1.025" fill="rgba(95,30,0,1.000)" /><rect x="23" y="6" width="1.025" height="1.025" fill="rgba(87,26,0,1.000)" /><rect x="24" y="6" width="1.025" height="1.025" fill="rgba(55,19,0,1.000)" /><rect x="25" y="6" width="1.025" height="1.025" fill="rgba(16,0,0,1.000)" /><rect x="11" y="7" width="1.025" height="1.025" fill="rgba(6,0,0,1.000)" /><rect x="12" y="7" width="1.025" height="1.025" fill="rgba(95,30,2,1.000)" /><rect x="13" y="7" width="1.025" height="1.025" fill="rgba(119,41,4,1.000)" /><rect x="14" y="7" width="1.025" height="1.025" fill="rgba(116,35,0,1.000)" /><rect x="15" y="7" width="1.025" height="1.025" fill="rgba(105,34,1,1.000)" /><rect x="16" y="7" width="1.025" height="1.025" fill="rgba(113,38,3,1.000)" /><rect x="17" y="7" width="1.025" height="1.025" fill="rgba(108,30,0,1.000)" /><rect x="18" y="7" width="1.025" height="1.025" fill="rgba(114,37,2,1.000)" /><rect x="19" y="7" width="1.025" height="1.025" fill="rgba(129,48,4,1.000)" /><rect x="20" y="7" width="1.025" height="1.025" fill="rgba(135,57,17,1.000)" /><rect x="21" y="7" width="1.025" height="1.025" fill="rgba(124,42,5,1.000)" /><rect x="22" y="7" width="1.025" height="1.025" fill="rgba(107,38,3,1.000)" /><rect x="23" y="7" width="1.025" height="1.025" fill="rgba(111,40,0,1.000)" /><rect x="24" y="7" width="1.025" height="1.025" fill="rgba(85,23,0,1.000)" /><rect x="25" y="7" width="1.025" height="1.025" fill="rgba(16,0,0,1.000)" /><rect x="11" y="8" width="1.025" height="1.025" fill="rgba(94,29,1,1.000)" /><rect x="12" y="8" width="1.025" height="1.025" fill="rgba(116,37,3,1.000)" /><rect x="13" y="8" width="1.025" height="1.025" fill="rgba(147,60,15,1.000)" /><rect x="14" y="8" width="1.025" height="1.025" fill="rgba(171,89,38,1.000)" /><rect x="15" y="8" width="1.025" height="1.025" fill="rgba(137,55,9,1.000)" /><rect x="16" y="8" width="1.025" height="1.025" fill="rgba(153,66,18,1.000)" /><rect x="17" y="8" width="1.025" height="1.025" fill="rgba(107,30,0,1.000)" /><rect x="18" y="8" width="1.025" height="1.025" fill="rgba(147,64,16,1.000)" /><rect x="19" y="8" width="1.025" height="1.025" fill="rgba(134,54,9,1.000)" /><rect x="20" y="8" width="1.025" height="1.025" fill="rgba(129,51,6,1.000)" /><rect x="21" y="8" width="1.025" height="1.025" fill="rgba(111,36,3,1.000)" /><rect x="22" y="8" width="1.025" height="1.025" fill="rgba(140,63,15,1.000)" /><rect x="23" y="8" width="1.025" height="1.025" fill="rgba(64,18,2,1.000)" /><rect x="24" y="8" width="1.025" height="1.025" fill="rgba(124,50,9,1.000)" /><rect x="25" y="8" width="1.025" height="1.025" fill="rgba(81,23,1,1.000)" /><rect x="26" y="8" width="1.025" height="1.025" fill="rgba(6,0,0,1.000)" /><rect x="10" y="9" width="1.025" height="1.025" fill="rgba(1,0,2,1.000)" /><rect x="11" y="9" width="1.025" height="1.025" fill="rgba(94,29,1,1.000)" /><rect x="12" y="9" width="1.025" height="1.025" fill="rgba(96,25,0,1.000)" /><rect x="13" y="9" width="1.025" height="1.025" fill="rgba(152,68,20,1.000)" /><rect x="14" y="9" width="1.025" height="1.025" fill="rgba(146,68,23,1.000)" /><rect x="15" y="9" width="1.025" height="1.025" fill="rgba(140,61,15,1.000)" /><rect x="16" y="9" width="1.025" height="1.025" fill="rgba(111,41,1,1.000)" /><rect x="17" y="9" width="1.025" height="1.025" fill="rgba(156,74,31,1.000)" /><rect x="18" y="9" width="1.025" height="1.025" fill="rgba(140,56,14,1.000)" /><rect x="19" y="9" width="1.025" height="1.025" fill="rgba(99,33,2,1.000)" /><rect x="20" y="9" width="1.025" height="1.025" fill="rgba(117,42,4,1.000)" /><rect x="21" y="9" width="1.025" height="1.025" fill="rgba(59,15,0,1.000)" /><rect x="22" y="9" width="1.025" height="1.025" fill="rgba(116,39,3,1.000)" /><rect x="23" y="9" width="1.025" height="1.025" fill="rgba(66,20,0,1.000)" /><rect x="24" y="9" width="1.025" height="1.025" fill="rgba(104,36,5,1.000)" /><rect x="25" y="9" width="1.025" height="1.025" fill="rgba(90,29,3,1.000)" /><rect x="26" y="9" width="1.025" height="1.025" fill="rgba(15,2,0,1.000)" /><rect x="10" y="10" width="1.025" height="1.025" fill="rgba(51,14,1,1.000)" /><rect x="11" y="10" width="1.025" height="1.025" fill="rgba(113,38,4,1.000)" /><rect x="12" y="10" width="1.025" height="1.025" fill="rgba(111,33,0,1.000)" /><rect x="13" y="10" width="1.025" height="1.025" fill="rgba(143,55,12,1.000)" /><rect x="14" y="10" width="1.025" height="1.025" fill="rgba(86,23,0,1.000)" /><rect x="15" y="10" width="1.025" height="1.025" fill="rgba(132,56,15,1.000)" /><rect x="16" y="10" width="1.025" height="1.025" fill="rgba(89,33,1,1.000)" /><rect x="17" y="10" width="1.025" height="1.025" fill="rgba(145,75,29,1.000)" /><rect x="18" y="10" width="1.025" height="1.025" fill="rgba(99,36,0,1.000)" /><rect x="19" y="10" width="1.025" height="1.025" fill="rgba(71,21,0,1.000)" /><rect x="20" y="10" width="1.025" height="1.025" fill="rgba(51,8,0,1.000)" /><rect x="21" y="10" width="1.025" height="1.025" fill="rgba(128,54,14,1.000)" /><rect x="22" y="10" width="1.025" height="1.025" fill="rgba(110,41,7,1.000)" /><rect x="23" y="10" width="1.025" height="1.025" fill="rgba(75,27,0,1.000)" /><rect x="24" y="10" width="1.025" height="1.025" fill="rgba(48,13,0,1.000)" /><rect x="25" y="10" width="1.025" height="1.025" fill="rgba(112,44,15,1.000)" /><rect x="26" y="10" width="1.025" height="1.025" fill="rgba(30,8,0,1.000)" /><rect x="9" y="11" width="1.025" height="1.025" fill="rgba(6,0,0,1.000)" /><rect x="10" y="11" width="1.025" height="1.025" fill="rgba(76,23,1,1.000)" /><rect x="11" y="11" width="1.025" height="1.025" fill="rgba(98,32,0,1.000)" /><rect x="12" y="11" width="1.025" height="1.025" fill="rgba(133,55,19,1.000)" /><rect x="13" y="11" width="1.025" height="1.025" fill="rgba(139,51,9,1.000)" /><rect x="14" y="11" width="1.025" height="1.025" fill="rgba(70,23,0,1.000)" /><rect x="15" y="11" width="1.025" height="1.025" fill="rgba(53,20,0,1.000)" /><rect x="24" y="11" width="1.025" height="1.025" fill="rgba(70,30,19,1.000)" /><rect x="25" y="11" width="1.025" height="1.025" fill="rgba(71,27,12,1.000)" /><rect x="26" y="11" width="1.025" height="1.025" fill="rgba(75,23,1,1.000)" /><rect x="27" y="11" width="1.025" height="1.025" fill="rgba(16,3,0,1.000)" /><rect x="9" y="12" width="1.025" height="1.025" fill="rgba(6,0,0,1.000)" /><rect x="10" y="12" width="1.025" height="1.025" fill="rgba(70,19,1,1.000)" /><rect x="11" y="12" width="1.025" height="1.025" fill="rgba(96,31,2,1.000)" /><rect x="12" y="12" width="1.025" height="1.025" fill="rgba(115,43,8,1.000)" /><rect x="13" y="12" width="1.025" height="1.025" fill="rgba(117,38,2,1.000)" /><rect x="14" y="12" width="1.025" height="1.025" fill="rgba(72,26,0,1.000)" /><rect x="25" y="12" width="1.025" height="1.025" fill="rgba(70,30,19,1.000)" /><rect x="26" y="12" width="1.025" height="1.025" fill="rgba(81,24,0,1.000)" /><rect x="27" y="12" width="1.025" height="1.025" fill="rgba(20,5,3,1.000)" /><rect x="9" y="13" width="1.025" height="1.025" fill="rgba(80,23,1,1.000)" /><rect x="10" y="13" width="1.025" height="1.025" fill="rgba(101,33,1,1.000)" /><rect x="11" y="13" width="1.025" height="1.025" fill="rgba(112,37,4,1.000)" /><rect x="12" y="13" width="1.025" height="1.025" fill="rgba(123,48,13,1.000)" /><rect x="13" y="13" width="1.025" height="1.025" fill="rgba(118,40,2,1.000)" /><rect x="14" y="13" width="1.025" height="1.025" fill="rgba(72,25,0,1.000)" /><rect x="25" y="13" width="1.025" height="1.025" fill="rgba(58,21,9,1.000)" /><rect x="26" y="13" width="1.025" height="1.025" fill="rgba(85,27,1,1.000)" /><rect x="27" y="13" width="1.025" height="1.025" fill="rgba(22,8,0,1.000)" /><rect x="8" y="14" width="1.025" height="1.025" fill="rgba(23,4,0,1.000)" /><rect x="9" y="14" width="1.025" height="1.025" fill="rgba(102,31,1,1.000)" /><rect x="10" y="14" width="1.025" height="1.025" fill="rgba(119,43,5,1.000)" /><rect x="11" y="14" width="1.025" height="1.025" fill="rgba(120,41,4,1.000)" /><rect x="12" y="14" width="1.025" height="1.025" fill="rgba(129,60,23,1.000)" /><rect x="13" y="14" width="1.025" height="1.025" fill="rgba(113,42,4,1.000)" /><rect x="14" y="14" width="1.025" height="1.025" fill="rgba(152,81,38,1.000)" /><rect x="25" y="14" width="1.025" height="1.025" fill="rgba(48,21,9,1.000)" /><rect x="26" y="14" width="1.025" height="1.025" fill="rgba(103,35,4,1.000)" /><rect x="27" y="14" width="1.025" height="1.025" fill="rgba(69,19,0,1.000)" /><rect x="8" y="15" width="1.025" height="1.025" fill="rgba(23,4,0,1.000)" /><rect x="9" y="15" width="1.025" height="1.025" fill="rgba(89,26,1,1.000)" /><rect x="10" y="15" width="1.025" height="1.025" fill="rgba(118,41,3,1.000)" /><rect x="11" y="15" width="1.025" height="1.025" fill="rgba(87,24,2,1.000)" /><rect x="12" y="15" width="1.025" height="1.025" fill="rgba(123,50,13,1.000)" /><rect x="13" y="15" width="1.025" height="1.025" fill="rgba(77,26,0,1.000)" /><rect x="14" y="15" width="1.025" height="1.025" fill="rgba(154,97,67,1.000)" /><rect x="25" y="15" width="1.025" height="1.025" fill="rgba(52,23,9,1.000)" /><rect x="26" y="15" width="1.025" height="1.025" fill="rgba(92,30,4,1.000)" /><rect x="27" y="15" width="1.025" height="1.025" fill="rgba(132,64,18,1.000)" /><rect x="28" y="15" width="1.025" height="1.025" fill="rgba(45,12,5,1.000)" /><rect x="8" y="16" width="1.025" height="1.025" fill="rgba(92,31,2,1.000)" /><rect x="9" y="16" width="1.025" height="1.025" fill="rgba(91,33,3,1.000)" /><rect x="10" y="16" width="1.025" height="1.025" fill="rgba(110,38,2,1.000)" /><rect x="11" y="16" width="1.025" height="1.025" fill="rgba(81,24,0,1.000)" /><rect x="12" y="16" width="1.025" height="1.025" fill="rgba(125,51,12,1.000)" /><rect x="13" y="16" width="1.025" height="1.025" fill="rgba(45,12,0,1.000)" /><rect x="14" y="16" width="1.025" height="1.025" fill="rgba(143,94,63,1.000)" /><rect x="25" y="16" width="1.025" height="1.025" fill="rgba(52,23,9,1.000)" /><rect x="26" y="16" width="1.025" height="1.025" fill="rgba(87,26,2,1.000)" /><rect x="27" y="16" width="1.025" height="1.025" fill="rgba(127,58,10,1.000)" /><rect x="28" y="16" width="1.025" height="1.025" fill="rgba(49,21,10,1.000)" /><rect x="7" y="17" width="1.025" height="1.025" fill="rgba(11,4,0,1.000)" /><rect x="8" y="17" width="1.025" height="1.025" fill="rgba(90,29,1,1.000)" /><rect x="9" y="17" width="1.025" height="1.025" fill="rgba(76,24,0,1.000)" /><rect x="10" y="17" width="1.025" height="1.025" fill="rgba(108,36,4,1.000)" /><rect x="11" y="17" width="1.025" height="1.025" fill="rgba(69,19,0,1.000)" /><rect x="12" y="17" width="1.025" height="1.025" fill="rgba(126,53,18,1.000)" /><rect x="13" y="17" width="1.025" height="1.025" fill="rgba(51,17,0,1.000)" /><rect x="14" y="17" width="1.025" height="1.025" fill="rgba(100,61,46,1.000)" /><rect x="25" y="17" width="1.025" height="1.025" fill="rgba(48,23,7,1.000)" /><rect x="26" y="17" width="1.025" height="1.025" fill="rgba(80,24,0,1.000)" /><rect x="27" y="17" width="1.025" height="1.025" fill="rgba(111,44,7,1.000)" /><rect x="28" y="17" width="1.025" height="1.025" fill="rgba(66,24,8,1.000)" /><rect x="7" y="18" width="1.025" height="1.025" fill="rgba(60,17,0,1.000)" /><rect x="8" y="18" width="1.025" height="1.025" fill="rgba(103,37,2,1.000)" /><rect x="9" y="18" width="1.025" height="1.025" fill="rgba(83,28,0,1.000)" /><rect x="10" y="18" width="1.025" height="1.025" fill="rgba(105,37,1,1.000)" /><rect x="11" y="18" width="1.025" height="1.025" fill="rgba(59,17,0,1.000)" /><rect x="12" y="18" width="1.025" height="1.025" fill="rgba(111,45,11,1.000)" /><rect x="13" y="18" width="1.025" height="1.025" fill="rgba(52,15,0,1.000)" /><rect x="14" y="18" width="1.025" height="1.025" fill="rgba(91,54,36,1.000)" /><rect x="25" y="18" width="1.025" height="1.025" fill="rgba(44,20,8,1.000)" /><rect x="26" y="18" width="1.025" height="1.025" fill="rgba(81,25,0,1.000)" /><rect x="27" y="18" width="1.025" height="1.025" fill="rgba(114,48,10,1.000)" /><rect x="28" y="18" width="1.025" height="1.025" fill="rgba(75,29,9,1.000)" /><rect x="7" y="19" width="1.025" height="1.025" fill="rgba(84,32,5,1.000)" /><rect x="8" y="19" width="1.025" height="1.025" fill="rgba(101,38,2,1.000)" /><rect x="9" y="19" width="1.025" height="1.025" fill="rgba(68,28,3,1.000)" /><rect x="10" y="19" width="1.025" height="1.025" fill="rgba(95,34,1,1.000)" /><rect x="11" y="19" width="1.025" height="1.025" fill="rgba(63,19,0,1.000)" /><rect x="12" y="19" width="1.025" height="1.025" fill="rgba(102,42,7,1.000)" /><rect x="13" y="19" width="1.025" height="1.025" fill="rgba(57,16,1,1.000)" /><rect x="14" y="19" width="1.025" height="1.025" fill="rgba(47,19,1,1.000)" /><rect x="25" y="19" width="1.025" height="1.025" fill="rgba(34,12,6,1.000)" /><rect x="26" y="19" width="1.025" height="1.025" fill="rgba(87,28,0,1.000)" /><rect x="27" y="19" width="1.025" height="1.025" fill="rgba(114,45,9,1.000)" /><rect x="28" y="19" width="1.025" height="1.025" fill="rgba(48,16,2,1.000)" /><rect x="7" y="20" width="1.025" height="1.025" fill="rgba(57,22,0,1.000)" /><rect x="8" y="20" width="1.025" height="1.025" fill="rgba(96,35,1,1.000)" /><rect x="9" y="20" width="1.025" height="1.025" fill="rgba(43,18,1,1.000)" /><rect x="10" y="20" width="1.025" height="1.025" fill="rgba(77,27,0,1.000)" /><rect x="11" y="20" width="1.025" height="1.025" fill="rgba(53,17,0,1.000)" /><rect x="12" y="20" width="1.025" height="1.025" fill="rgba(95,41,12,1.000)" /><rect x="13" y="20" width="1.025" height="1.025" fill="rgba(75,25,0,1.000)" /><rect x="14" y="20" width="1.025" height="1.025" fill="rgba(44,14,0,1.000)" /><rect x="25" y="20" width="1.025" height="1.025" fill="rgba(33,9,1,1.000)" /><rect x="26" y="20" width="1.025" height="1.025" fill="rgba(82,26,0,1.000)" /><rect x="27" y="20" width="1.025" height="1.025" fill="rgba(74,26,1,1.000)" /><rect x="8" y="21" width="1.025" height="1.025" fill="rgba(84,31,1,1.000)" /><rect x="9" y="21" width="1.025" height="1.025" fill="rgba(25,8,0,1.000)" /><rect x="10" y="21" width="1.025" height="1.025" fill="rgba(72,24,0,1.000)" /><rect x="11" y="21" width="1.025" height="1.025" fill="rgba(54,14,0,1.000)" /><rect x="12" y="21" width="1.025" height="1.025" fill="rgba(73,33,7,1.000)" /><rect x="13" y="21" width="1.025" height="1.025" fill="rgba(82,30,0,1.000)" /><rect x="14" y="21" width="1.025" height="1.025" fill="rgba(51,19,2,1.000)" /><rect x="25" y="21" width="1.025" height="1.025" fill="rgba(34,8,0,1.000)" /><rect x="26" y="21" width="1.025" height="1.025" fill="rgba(72,22,0,1.000)" /><rect x="27" y="21" width="1.025" height="1.025" fill="rgba(41,19,5,1.000)" /><rect x="9" y="22" width="1.025" height="1.025" fill="rgba(0,0,0,1.000)" /><rect x="10" y="22" width="1.025" height="1.025" fill="rgba(0,0,0,1.000)" /><rect x="11" y="22" width="1.025" height="1.025" fill="rgba(77,27,1,1.000)" /><rect x="12" y="22" width="1.025" height="1.025" fill="rgba(39,11,0,1.000)" /><rect x="13" y="22" width="1.025" height="1.025" fill="rgba(20,4,0,1.000)" /><rect x="14" y="22" width="1.025" height="1.025" fill="rgba(36,13,0,1.000)" /><rect x="24" y="22" width="1.025" height="1.025" fill="rgba(53,24,3,1.000)" /><rect x="25" y="22" width="1.025" height="1.025" fill="rgba(23,10,3,1.000)" /><rect x="26" y="22" width="1.025" height="1.025" fill="rgba(0,0,0,1.000)" /></svg>