<svg shape-rendering="crispEdges" xmlns="http://www.w3.org/2000/svg" version="1.1" width="37" height="37"><style>rect { image-rendering: pixelated; }</style><rect x="13" y="5" width="1.025" height="1.025" fill="rgba(144,80,1,1.000)" /><rect x="14" y="5" width="1.025" height="1.025" fill="rgba(255,211,65,1.000)" /><rect x="15" y="5" width="1.025" height="1.025" fill="rgba(237,181,39,1.000)" /><rect x="16" y="5" width="1.025" height="1.025" fill="rgba(231,177,22,1.000)" /><rect x="17" y="5" width="1.025" height="1.025" fill="rgba(223,165,20,1.000)" /><rect x="18" y="5" width="1.025" height="1.025" fill="rgba(227,164,23,1.000)" /><rect x="19" y="5" width="1.025" height="1.025" fill="rgba(230,165,37,1.000)" /><rect x="20" y="5" width="1.025" height="1.025" fill="rgba(245,195,40,1.000)" /><rect x="21" y="5" width="1.025" height="1.025" fill="rgba(194,135,18,1.000)" /><rect x="22" y="5" width="1.025" height="1.025" fill="rgba(144,80,1,1.000)" /><rect x="12" y="6" width="1.025" height="1.025" fill="rgba(144,80,1,1.000)" /><rect x="13" y="6" width="1.025" height="1.025" fill="rgba(207,147,26,1.000)" /><rect x="14" y="6" width="1.025" height="1.025" fill="rgba(248,200,61,1.000)" /><rect x="15" y="6" width="1.025" height="1.025" fill="rgba(251,205,75,1.000)" /><rect x="16" y="6" width="1.025" height="1.025" fill="rgba(253,210,79,1.000)" /><rect x="17" y="6" width="1.025" height="1.025" fill="rgba(238,182,40,1.000)" /><rect x="18" y="6" width="1.025" height="1.025" fill="rgba(230,172,36,1.000)" /><rect x="19" y="6" width="1.025" height="1.025" fill="rgba(144,80,1,1.000)" /><rect x="20" y="6" width="1.025" height="1.025" fill="rgba(253,198,50,1.000)" /><rect x="21" y="6" width="1.025" height="1.025" fill="rgba(236,182,44,1.000)" /><rect x="22" y="6" width="1.025" height="1.025" fill="rgba(232,170,30,1.000)" /><rect x="23" y="6" width="1.025" height="1.025" fill="rgba(195,130,1,1.000)" /><rect x="11" y="7" width="1.025" height="1.025" fill="rgba(77,29,29,1.000)" /><rect x="12" y="7" width="1.025" height="1.025" fill="rgba(240,188,49,1.000)" /><rect x="13" y="7" width="1.025" height="1.025" fill="rgba(237,177,36,1.000)" /><rect x="14" y="7" width="1.025" height="1.025" fill="rgba(255,224,105,1.000)" /><rect x="15" y="7" width="1.025" height="1.025" fill="rgba(253,233,130,1.000)" /><rect x="16" y="7" width="1.025" height="1.025" fill="rgba(255,222,102,1.000)" /><rect x="17" y="7" width="1.025" height="1.025" fill="rgba(255,225,110,1.000)" /><rect x="18" y="7" width="1.025" height="1.025" fill="rgba(254,222,104,1.000)" /><rect x="19" y="7" width="1.025" height="1.025" fill="rgba(249,204,67,1.000)" /><rect x="20" y="7" width="1.025" height="1.025" fill="rgba(164,90,15,1.000)" /><rect x="21" y="7" width="1.025" height="1.025" fill="rgba(247,204,65,1.000)" /><rect x="22" y="7" width="1.025" height="1.025" fill="rgba(247,198,59,1.000)" /><rect x="23" y="7" width="1.025" height="1.025" fill="rgba(188,123,28,1.000)" /><rect x="24" y="7" width="1.025" height="1.025" fill="rgba(255,197,2,1.000)" /><rect x="11" y="8" width="1.025" height="1.025" fill="rgba(214,154,15,1.000)" /><rect x="12" y="8" width="1.025" height="1.025" fill="rgba(251,209,80,1.000)" /><rect x="13" y="8" width="1.025" height="1.025" fill="rgba(253,218,91,1.000)" /><rect x="14" y="8" width="1.025" height="1.025" fill="rgba(254,228,111,1.000)" /><rect x="15" y="8" width="1.025" height="1.025" fill="rgba(255,226,114,1.000)" /><rect x="16" y="8" width="1.025" height="1.025" fill="rgba(252,212,85,1.000)" /><rect x="17" y="8" width="1.025" height="1.025" fill="rgba(250,207,70,1.000)" /><rect x="18" y="8" width="1.025" height="1.025" fill="rgba(255,229,121,1.000)" /><rect x="19" y="8" width="1.025" height="1.025" fill="rgba(252,226,109,1.000)" /><rect x="20" y="8" width="1.025" height="1.025" fill="rgba(255,228,111,1.000)" /><rect x="21" y="8" width="1.025" height="1.025" fill="rgba(189,112,22,1.000)" /><rect x="22" y="8" width="1.025" height="1.025" fill="rgba(240,184,51,1.000)" /><rect x="23" y="8" width="1.025" height="1.025" fill="rgba(250,206,73,1.000)" /><rect x="24" y="8" width="1.025" height="1.025" fill="rgba(148,97,11,1.000)" /><rect x="10" y="9" width="1.025" height="1.025" fill="rgba(77,35,11,1.000)" /><rect x="11" y="9" width="1.025" height="1.025" fill="rgba(194,128,16,1.000)" /><rect x="12" y="9" width="1.025" height="1.025" fill="rgba(255,212,82,1.000)" /><rect x="13" y="9" width="1.025" height="1.025" fill="rgba(254,208,72,1.000)" /><rect x="14" y="9" width="1.025" height="1.025" fill="rgba(255,227,113,1.000)" /><rect x="15" y="9" width="1.025" height="1.025" fill="rgba(253,209,80,1.000)" /><rect x="16" y="9" width="1.025" height="1.025" fill="rgba(254,223,103,1.000)" /><rect x="17" y="9" width="1.025" height="1.025" fill="rgba(255,236,132,1.000)" /><rect x="18" y="9" width="1.025" height="1.025" fill="rgba(254,222,103,1.000)" /><rect x="19" y="9" width="1.025" height="1.025" fill="rgba(253,234,138,1.000)" /><rect x="20" y="9" width="1.025" height="1.025" fill="rgba(253,214,95,1.000)" /><rect x="22" y="9" width="1.025" height="1.025" fill="rgba(252,182,114,1.000)" /><rect x="23" y="9" width="1.025" height="1.025" fill="rgba(230,176,79,1.000)" /><rect x="24" y="9" width="1.025" height="1.025" fill="rgba(250,200,69,1.000)" /><rect x="25" y="9" width="1.025" height="1.025" fill="rgba(246,208,100,1.000)" /><rect x="10" y="10" width="1.025" height="1.025" fill="rgba(51,17,11,1.000)" /><rect x="11" y="10" width="1.025" height="1.025" fill="rgba(235,180,37,1.000)" /><rect x="12" y="10" width="1.025" height="1.025" fill="rgba(236,178,33,1.000)" /><rect x="13" y="10" width="1.025" height="1.025" fill="rgba(246,194,51,1.000)" /><rect x="14" y="10" width="1.025" height="1.025" fill="rgba(253,213,89,1.000)" /><rect x="15" y="10" width="1.025" height="1.025" fill="rgba(255,231,128,1.000)" /><rect x="16" y="10" width="1.025" height="1.025" fill="rgba(254,232,126,1.000)" /><rect x="17" y="10" width="1.025" height="1.025" fill="rgba(252,210,83,1.000)" /><rect x="18" y="10" width="1.025" height="1.025" fill="rgba(255,223,103,1.000)" /><rect x="19" y="10" width="1.025" height="1.025" fill="rgba(113,50,0,1.000)" /><rect x="23" y="10" width="1.025" height="1.025" fill="rgba(66,14,0,1.000)" /><rect x="24" y="10" width="1.025" height="1.025" fill="rgba(236,177,51,1.000)" /><rect x="25" y="10" width="1.025" height="1.025" fill="rgba(236,172,83,1.000)" /><rect x="9" y="11" width="1.025" height="1.025" fill="rgba(77,28,2,1.000)" /><rect x="10" y="11" width="1.025" height="1.025" fill="rgba(196,133,19,1.000)" /><rect x="11" y="11" width="1.025" height="1.025" fill="rgba(251,205,68,1.000)" /><rect x="12" y="11" width="1.025" height="1.025" fill="rgba(231,168,28,1.000)" /><rect x="13" y="11" width="1.025" height="1.025" fill="rgba(243,193,55,1.000)" /><rect x="14" y="11" width="1.025" height="1.025" fill="rgba(254,234,132,1.000)" /><rect x="15" y="11" width="1.025" height="1.025" fill="rgba(242,184,40,1.000)" /><rect x="16" y="11" width="1.025" height="1.025" fill="rgba(225,163,27,1.000)" /><rect x="17" y="11" width="1.025" height="1.025" fill="rgba(186,112,6,1.000)" /><rect x="18" y="11" width="1.025" height="1.025" fill="rgba(197,126,10,1.000)" /><rect x="24" y="11" width="1.025" height="1.025" fill="rgba(125,56,16,1.000)" /><rect x="25" y="11" width="1.025" height="1.025" fill="rgba(160,89,22,1.000)" /><rect x="9" y="12" width="1.025" height="1.025" fill="rgba(69,28,1,1.000)" /><rect x="10" y="12" width="1.025" height="1.025" fill="rgba(183,121,16,1.000)" /><rect x="11" y="12" width="1.025" height="1.025" fill="rgba(254,220,86,1.000)" /><rect x="12" y="12" width="1.025" height="1.025" fill="rgba(253,211,77,1.000)" /><rect x="13" y="12" width="1.025" height="1.025" fill="rgba(255,228,101,1.000)" /><rect x="14" y="12" width="1.025" height="1.025" fill="rgba(237,177,24,1.000)" /><rect x="15" y="12" width="1.025" height="1.025" fill="rgba(243,183,35,1.000)" /><rect x="16" y="12" width="1.025" height="1.025" fill="rgba(132,64,0,1.000)" /><rect x="17" y="12" width="1.025" height="1.025" fill="rgba(131,69,8,1.000)" /><rect x="25" y="12" width="1.025" height="1.025" fill="rgba(134,74,10,1.000)" /><rect x="9" y="13" width="1.025" height="1.025" fill="rgba(104,49,5,1.000)" /><rect x="10" y="13" width="1.025" height="1.025" fill="rgba(195,131,19,1.000)" /><rect x="11" y="13" width="1.025" height="1.025" fill="rgba(168,102,0,1.000)" /><rect x="12" y="13" width="1.025" height="1.025" fill="rgba(175,104,0,1.000)" /><rect x="13" y="13" width="1.025" height="1.025" fill="rgba(158,92,0,1.000)" /><rect x="14" y="13" width="1.025" height="1.025" fill="rgba(198,131,20,1.000)" /><rect x="15" y="13" width="1.025" height="1.025" fill="rgba(171,106,27,1.000)" /><rect x="16" y="13" width="1.025" height="1.025" fill="rgba(0,0,0,1.000)" /><rect x="9" y="14" width="1.025" height="1.025" fill="rgba(164,94,9,1.000)" /><rect x="10" y="14" width="1.025" height="1.025" fill="rgba(196,133,22,1.000)" /><rect x="11" y="14" width="1.025" height="1.025" fill="rgba(216,157,21,1.000)" /><rect x="12" y="14" width="1.025" height="1.025" fill="rgba(254,218,91,1.000)" /><rect x="13" y="14" width="1.025" height="1.025" fill="rgba(250,201,57,1.000)" /><rect x="14" y="14" width="1.025" height="1.025" fill="rgba(112,51,1,1.000)" /><rect x="10" y="15" width="1.025" height="1.025" fill="rgba(223,161,51,1.000)" /><rect x="11" y="15" width="1.025" height="1.025" fill="rgba(104,49,5,1.000)" /><rect x="12" y="15" width="1.025" height="1.025" fill="rgba(120,55,5,1.000)" /><rect x="13" y="15" width="1.025" height="1.025" fill="rgba(134,70,1,1.000)" /><rect x="14" y="15" width="1.025" height="1.025" fill="rgba(226,164,23,1.000)" /><rect x="10" y="16" width="1.025" height="1.025" fill="rgba(73,26,14,1.000)" /><rect x="11" y="16" width="1.025" height="1.025" fill="rgba(243,189,43,1.000)" /><rect x="12" y="16" width="1.025" height="1.025" fill="rgba(128,65,0,1.000)" /><rect x="13" y="16" width="1.025" height="1.025" fill="rgba(234,172,25,1.000)" /><rect x="14" y="16" width="1.025" height="1.025" fill="rgba(116,56,1,1.000)" /><rect x="10" y="17" width="1.025" height="1.025" fill="rgba(65,25,6,1.000)" /><rect x="11" y="17" width="1.025" height="1.025" fill="rgba(244,186,39,1.000)" /><rect x="12" y="17" width="1.025" height="1.025" fill="rgba(164,94,9,1.000)" /><rect x="13" y="17" width="1.025" height="1.025" fill="rgba(227,166,22,1.000)" /><rect x="10" y="18" width="1.025" height="1.025" fill="rgba(164,94,9,1.000)" /><rect x="11" y="18" width="1.025" height="1.025" fill="rgba(104,49,5,1.000)" /><rect x="12" y="18" width="1.025" height="1.025" fill="rgba(165,99,5,1.000)" /><rect x="13" y="18" width="1.025" height="1.025" fill="rgba(234,174,30,1.000)" /><rect x="10" y="19" width="1.025" height="1.025" fill="rgba(164,94,9,1.000)" /><rect x="11" y="19" width="1.025" height="1.025" fill="rgba(160,91,1,1.000)" /><rect x="12" y="19" width="1.025" height="1.025" fill="rgba(104,49,5,1.000)" /><rect x="13" y="19" width="1.025" height="1.025" fill="rgba(83,29,1,1.000)" /><rect x="10" y="20" width="1.025" height="1.025" fill="rgba(104,49,5,1.000)" /><rect x="11" y="20" width="1.025" height="1.025" fill="rgba(234,170,21,1.000)" /><rect x="12" y="20" width="1.025" height="1.025" fill="rgba(159,91,5,1.000)" /><rect x="13" y="20" width="1.025" height="1.025" fill="rgba(255,222,99,1.000)" /><rect x="10" y="21" width="1.025" height="1.025" fill="rgba(253,246,42,1.000)" /><rect x="11" y="21" width="1.025" height="1.025" fill="rgba(104,49,5,1.000)" /><rect x="12" y="21" width="1.025" height="1.025" fill="rgba(104,49,5,1.000)" /><rect x="13" y="21" width="1.025" height="1.025" fill="rgba(254,217,91,1.000)" /><rect x="11" y="22" width="1.025" height="1.025" fill="rgba(186,120,0,1.000)" /><rect x="12" y="22" width="1.025" height="1.025" fill="rgba(88,37,0,1.000)" /><rect x="13" y="22" width="1.025" height="1.025" fill="rgba(233,172,26,1.000)" /><rect x="11" y="23" width="1.025" height="1.025" fill="rgba(69,27,0,1.000)" /><rect x="12" y="23" width="1.025" height="1.025" fill="rgba(228,171,25,1.000)" /><rect x="13" y="23" width="1.025" height="1.025" fill="rgba(255,221,94,1.000)" /><rect x="14" y="23" width="1.025" height="1.025" fill="rgba(125,56,2,1.000)" /><rect x="11" y="24" width="1.025" height="1.025" fill="rgba(250,216,39,1.000)" /><rect x="12" y="24" width="1.025" height="1.025" fill="rgba(209,140,22,1.000)" /><rect x="13" y="24" width="1.025" height="1.025" fill="rgba(112,52,11,1.000)" /><rect x="14" y="24" width="1.025" height="1.025" fill="rgba(253,218,101,1.000)" /><rect x="15" y="24" width="1.025" height="1.025" fill="rgba(182,106,30,1.000)" /><rect x="12" y="25" width="1.025" height="1.025" fill="rgba(97,43,4,1.000)" /><rect x="13" y="25" width="1.025" height="1.025" fill="rgba(234,170,17,1.000)" /><rect x="14" y="25" width="1.025" height="1.025" fill="rgba(253,206,61,1.000)" /><rect x="15" y="25" width="1.025" height="1.025" fill="rgba(174,105,11,1.000)" /><rect x="13" y="26" width="1.025" height="1.025" fill="rgba(233,167,30,1.000)" /><rect x="14" y="26" width="1.025" height="1.025" fill="rgba(185,120,9,1.000)" /><rect x="15" y="26" width="1.025" height="1.025" fill="rgba(106,48,3,1.000)" /><rect x="13" y="27" width="1.025" height="1.025" fill="rgba(69,24,2,1.000)" /><rect x="14" y="27" width="1.025" height="1.025" fill="rgba(176,106,11,1.000)" /><rect x="15" y="27" width="1.025" height="1.025" fill="rgba(64,24,5,1.000)" /><rect x="16" y="27" width="1.025" height="1.025" fill="rgba(250,184,93,1.000)" /><rect x="14" y="28" width="1.025" height="1.025" fill="rgba(162,94,15,1.000)" /><rect x="15" y="28" width="1.025" height="1.025" fill="rgba(159,92,12,1.000)" /><rect x="16" y="28" width="1.025" height="1.025" fill="rgba(254,185,100,1.000)" /><rect x="15" y="29" width="1.025" height="1.025" fill="rgba(233,167,30,1.000)" /><rect x="16" y="29" width="1.025" height="1.025" fill="rgba(15,0,5,1.000)" /><rect x="15" y="30" width="1.025" height="1.025" fill="rgba(33,2,2,1.000)" /><rect x="16" y="30" width="1.025" height="1.025" fill="rgba(88,37,0,1.000)" /><rect x="17" y="30" width="1.025" height="1.025" fill="rgba(164,86,28,1.000)" /><rect x="15" y="31" width="1.025" height="1.025" fill="rgba(199,128,19,1.000)" /><rect x="16" y="31" width="1.025" height="1.025" fill="rgba(250,196,58,1.000)" /><rect x="17" y="31" width="1.025" height="1.025" fill="rgba(93,35,4,1.000)" /><rect x="14" y="32" width="1.025" height="1.025" fill="rgba(250,196,58,1.000)" /><rect x="15" y="32" width="1.025" height="1.025" fill="rgba(186,120,0,1.000)" /><rect x="16" y="32" width="1.025" height="1.025" fill="rgba(33,2,2,1.000)" /><rect x="14" y="33" width="1.025" height="1.025" fill="rgba(33,2,2,1.000)" /><rect x="15" y="33" width="1.025" height="1.025" fill="rgba(187,127,11,1.000)" /><rect x="16" y="33" width="1.025" height="1.025" fill="rgba(107,49,3,1.000)" /><rect x="14" y="34" width="1.025" height="1.025" fill="rgba(186,120,0,1.000)" /><rect x="15" y="34" width="1.025" height="1.025" fill="rgba(107,49,3,1.000)" /><rect x="16" y="34" width="1.025" height="1.025" fill="rgba(107,49,3,1.000)" /><rect x="13" y="35" width="1.025" height="1.025" fill="rgba(187,127,11,1.000)" /><rect x="14" y="35" width="1.025" height="1.025" fill="rgba(33,2,2,1.000)" /><rect x="15" y="35" width="1.025" height="1.025" fill="rgba(187,127,11,1.000)" /><rect x="14" y="36" width="1.025" height="1.025" fill="rgba(187,127,11,1.000)" /></svg>