<svg shape-rendering="crispEdges" xmlns="http://www.w3.org/2000/svg" version="1.1" width="37" height="37"><style>rect { image-rendering: pixelated; }</style><rect x="13" y="5" width="1.025" height="1.025" fill="rgba(33,10,0,1.000)" /><rect x="14" y="5" width="1.025" height="1.025" fill="rgba(78,33,0,1.000)" /><rect x="15" y="5" width="1.025" height="1.025" fill="rgba(82,26,0,1.000)" /><rect x="16" y="5" width="1.025" height="1.025" fill="rgba(100,41,1,1.000)" /><rect x="17" y="5" width="1.025" height="1.025" fill="rgba(89,32,0,1.000)" /><rect x="18" y="5" width="1.025" height="1.025" fill="rgba(73,25,2,1.000)" /><rect x="19" y="5" width="1.025" height="1.025" fill="rgba(59,21,1,1.000)" /><rect x="20" y="5" width="1.025" height="1.025" fill="rgba(78,31,1,1.000)" /><rect x="21" y="5" width="1.025" height="1.025" fill="rgba(41,18,0,1.000)" /><rect x="22" y="5" width="1.025" height="1.025" fill="rgba(17,6,0,1.000)" /><rect x="12" y="6" width="1.025" height="1.025" fill="rgba(15,1,0,1.000)" /><rect x="13" y="6" width="1.025" height="1.025" fill="rgba(83,29,0,1.000)" /><rect x="14" y="6" width="1.025" height="1.025" fill="rgba(115,44,3,1.000)" /><rect x="15" y="6" width="1.025" height="1.025" fill="rgba(112,37,3,1.000)" /><rect x="16" y="6" width="1.025" height="1.025" fill="rgba(105,33,1,1.000)" /><rect x="17" y="6" width="1.025" height="1.025" fill="rgba(100,32,0,1.000)" /><rect x="18" y="6" width="1.025" height="1.025" fill="rgba(99,35,6,1.000)" /><rect x="19" y="6" width="1.025" height="1.025" fill="rgba(66,24,0,1.000)" /><rect x="20" y="6" width="1.025" height="1.025" fill="rgba(76,25,0,1.000)" /><rect x="21" y="6" width="1.025" height="1.025" fill="rgba(76,26,0,1.000)" /><rect x="22" y="6" width="1.025" height="1.025" fill="rgba(78,26,0,1.000)" /><rect x="23" y="6" width="1.025" height="1.025" fill="rgba(26,13,0,1.000)" /><rect x="11" y="7" width="1.025" height="1.025" fill="rgba(18,10,1,1.000)" /><rect x="12" y="7" width="1.025" height="1.025" fill="rgba(46,16,1,1.000)" /><rect x="13" y="7" width="1.025" height="1.025" fill="rgba(123,44,5,1.000)" /><rect x="14" y="7" width="1.025" height="1.025" fill="rgba(149,66,21,1.000)" /><rect x="15" y="7" width="1.025" height="1.025" fill="rgba(123,45,9,1.000)" /><rect x="16" y="7" width="1.025" height="1.025" fill="rgba(124,44,3,1.000)" /><rect x="17" y="7" width="1.025" height="1.025" fill="rgba(140,55,11,1.000)" /><rect x="18" y="7" width="1.025" height="1.025" fill="rgba(116,42,6,1.000)" /><rect x="19" y="7" width="1.025" height="1.025" fill="rgba(88,30,0,1.000)" /><rect x="20" y="7" width="1.025" height="1.025" fill="rgba(51,16,0,1.000)" /><rect x="21" y="7" width="1.025" height="1.025" fill="rgba(83,32,1,1.000)" /><rect x="22" y="7" width="1.025" height="1.025" fill="rgba(122,54,9,1.000)" /><rect x="23" y="7" width="1.025" height="1.025" fill="rgba(92,32,1,1.000)" /><rect x="24" y="7" width="1.025" height="1.025" fill="rgba(56,14,0,1.000)" /><rect x="11" y="8" width="1.025" height="1.025" fill="rgba(87,32,5,1.000)" /><rect x="12" y="8" width="1.025" height="1.025" fill="rgba(94,41,16,1.000)" /><rect x="13" y="8" width="1.025" height="1.025" fill="rgba(105,31,0,1.000)" /><rect x="14" y="8" width="1.025" height="1.025" fill="rgba(106,32,0,1.000)" /><rect x="15" y="8" width="1.025" height="1.025" fill="rgba(124,41,2,1.000)" /><rect x="16" y="8" width="1.025" height="1.025" fill="rgba(138,53,10,1.000)" /><rect x="17" y="8" width="1.025" height="1.025" fill="rgba(142,59,11,1.000)" /><rect x="18" y="8" width="1.025" height="1.025" fill="rgba(146,65,19,1.000)" /><rect x="19" y="8" width="1.025" height="1.025" fill="rgba(109,46,7,1.000)" /><rect x="20" y="8" width="1.025" height="1.025" fill="rgba(79,33,1,1.000)" /><rect x="21" y="8" width="1.025" height="1.025" fill="rgba(56,14,0,1.000)" /><rect x="22" y="8" width="1.025" height="1.025" fill="rgba(56,14,0,1.000)" /><rect x="23" y="8" width="1.025" height="1.025" fill="rgba(103,36,2,1.000)" /><rect x="24" y="8" width="1.025" height="1.025" fill="rgba(4,0,0,1.000)" /><rect x="10" y="9" width="1.025" height="1.025" fill="rgba(18,10,1,1.000)" /><rect x="11" y="9" width="1.025" height="1.025" fill="rgba(84,29,1,1.000)" /><rect x="12" y="9" width="1.025" height="1.025" fill="rgba(122,51,13,1.000)" /><rect x="13" y="9" width="1.025" height="1.025" fill="rgba(100,31,0,1.000)" /><rect x="14" y="9" width="1.025" height="1.025" fill="rgba(111,36,1,1.000)" /><rect x="15" y="9" width="1.025" height="1.025" fill="rgba(129,49,7,1.000)" /><rect x="16" y="9" width="1.025" height="1.025" fill="rgba(119,43,3,1.000)" /><rect x="17" y="9" width="1.025" height="1.025" fill="rgba(127,48,5,1.000)" /><rect x="18" y="9" width="1.025" height="1.025" fill="rgba(127,54,8,1.000)" /><rect x="19" y="9" width="1.025" height="1.025" fill="rgba(66,23,0,1.000)" /><rect x="20" y="9" width="1.025" height="1.025" fill="rgba(69,25,0,1.000)" /><rect x="22" y="9" width="1.025" height="1.025" fill="rgba(26,8,0,1.000)" /><rect x="23" y="9" width="1.025" height="1.025" fill="rgba(56,14,0,1.000)" /><rect x="24" y="9" width="1.025" height="1.025" fill="rgba(62,16,1,1.000)" /><rect x="25" y="9" width="1.025" height="1.025" fill="rgba(9,5,0,1.000)" /><rect x="10" y="10" width="1.025" height="1.025" fill="rgba(55,17,0,1.000)" /><rect x="11" y="10" width="1.025" height="1.025" fill="rgba(96,37,2,1.000)" /><rect x="12" y="10" width="1.025" height="1.025" fill="rgba(111,45,10,1.000)" /><rect x="13" y="10" width="1.025" height="1.025" fill="rgba(106,39,3,1.000)" /><rect x="14" y="10" width="1.025" height="1.025" fill="rgba(119,42,6,1.000)" /><rect x="15" y="10" width="1.025" height="1.025" fill="rgba(141,61,21,1.000)" /><rect x="16" y="10" width="1.025" height="1.025" fill="rgba(99,31,1,1.000)" /><rect x="17" y="10" width="1.025" height="1.025" fill="rgba(121,46,7,1.000)" /><rect x="18" y="10" width="1.025" height="1.025" fill="rgba(107,48,13,1.000)" /><rect x="19" y="10" width="1.025" height="1.025" fill="rgba(59,24,0,1.000)" /><rect x="23" y="10" width="1.025" height="1.025" fill="rgba(26,8,0,1.000)" /><rect x="24" y="10" width="1.025" height="1.025" fill="rgba(56,14,0,1.000)" /><rect x="25" y="10" width="1.025" height="1.025" fill="rgba(12,0,0,1.000)" /><rect x="9" y="11" width="1.025" height="1.025" fill="rgba(18,10,1,1.000)" /><rect x="10" y="11" width="1.025" height="1.025" fill="rgba(66,24,0,1.000)" /><rect x="11" y="11" width="1.025" height="1.025" fill="rgba(82,26,0,1.000)" /><rect x="12" y="11" width="1.025" height="1.025" fill="rgba(86,28,3,1.000)" /><rect x="13" y="11" width="1.025" height="1.025" fill="rgba(108,40,4,1.000)" /><rect x="14" y="11" width="1.025" height="1.025" fill="rgba(102,33,0,1.000)" /><rect x="15" y="11" width="1.025" height="1.025" fill="rgba(86,24,0,1.000)" /><rect x="16" y="11" width="1.025" height="1.025" fill="rgba(101,31,1,1.000)" /><rect x="17" y="11" width="1.025" height="1.025" fill="rgba(81,21,0,1.000)" /><rect x="18" y="11" width="1.025" height="1.025" fill="rgba(70,26,2,1.000)" /><rect x="24" y="11" width="1.025" height="1.025" fill="rgba(58,17,0,1.000)" /><rect x="25" y="11" width="1.025" height="1.025" fill="rgba(12,2,0,1.000)" /><rect x="9" y="12" width="1.025" height="1.025" fill="rgba(23,9,2,1.000)" /><rect x="10" y="12" width="1.025" height="1.025" fill="rgba(41,18,0,1.000)" /><rect x="11" y="12" width="1.025" height="1.025" fill="rgba(108,49,10,1.000)" /><rect x="12" y="12" width="1.025" height="1.025" fill="rgba(132,68,30,1.000)" /><rect x="13" y="12" width="1.025" height="1.025" fill="rgba(109,49,12,1.000)" /><rect x="14" y="12" width="1.025" height="1.025" fill="rgba(77,22,0,1.000)" /><rect x="15" y="12" width="1.025" height="1.025" fill="rgba(86,24,0,1.000)" /><rect x="16" y="12" width="1.025" height="1.025" fill="rgba(86,24,0,1.000)" /><rect x="17" y="12" width="1.025" height="1.025" fill="rgba(29,7,0,1.000)" /><rect x="25" y="12" width="1.025" height="1.025" fill="rgba(86,24,0,1.000)" /><rect x="9" y="13" width="1.025" height="1.025" fill="rgba(32,12,3,1.000)" /><rect x="10" y="13" width="1.025" height="1.025" fill="rgba(73,29,0,1.000)" /><rect x="11" y="13" width="1.025" height="1.025" fill="rgba(87,32,0,1.000)" /><rect x="12" y="13" width="1.025" height="1.025" fill="rgba(104,38,4,1.000)" /><rect x="13" y="13" width="1.025" height="1.025" fill="rgba(68,23,0,1.000)" /><rect x="14" y="13" width="1.025" height="1.025" fill="rgba(44,15,0,1.000)" /><rect x="15" y="13" width="1.025" height="1.025" fill="rgba(24,7,0,1.000)" /><rect x="16" y="13" width="1.025" height="1.025" fill="rgba(0,0,0,1.000)" /><rect x="9" y="14" width="1.025" height="1.025" fill="rgba(28,12,2,1.000)" /><rect x="10" y="14" width="1.025" height="1.025" fill="rgba(50,20,0,1.000)" /><rect x="11" y="14" width="1.025" height="1.025" fill="rgba(52,21,0,1.000)" /><rect x="12" y="14" width="1.025" height="1.025" fill="rgba(54,21,0,1.000)" /><rect x="13" y="14" width="1.025" height="1.025" fill="rgba(42,15,0,1.000)" /><rect x="14" y="14" width="1.025" height="1.025" fill="rgba(29,9,0,1.000)" /><rect x="10" y="15" width="1.025" height="1.025" fill="rgba(16,5,1,1.000)" /><rect x="11" y="15" width="1.025" height="1.025" fill="rgba(15,6,0,1.000)" /><rect x="12" y="15" width="1.025" height="1.025" fill="rgba(23,6,0,1.000)" /><rect x="13" y="15" width="1.025" height="1.025" fill="rgba(65,22,0,1.000)" /><rect x="14" y="15" width="1.025" height="1.025" fill="rgba(114,45,5,1.000)" /><rect x="10" y="16" width="1.025" height="1.025" fill="rgba(105,35,13,1.000)" /><rect x="11" y="16" width="1.025" height="1.025" fill="rgba(150,57,8,1.000)" /><rect x="12" y="16" width="1.025" height="1.025" fill="rgba(34,1,0,1.000)" /><rect x="13" y="16" width="1.025" height="1.025" fill="rgba(95,28,2,1.000)" /><rect x="14" y="16" width="1.025" height="1.025" fill="rgba(149,61,14,1.000)" /><rect x="10" y="17" width="1.025" height="1.025" fill="rgba(3,0,0,1.000)" /><rect x="11" y="17" width="1.025" height="1.025" fill="rgba(223,128,66,1.000)" /><rect x="12" y="17" width="1.025" height="1.025" fill="rgba(181,85,45,1.000)" /><rect x="13" y="17" width="1.025" height="1.025" fill="rgba(88,24,0,1.000)" /><rect x="10" y="18" width="1.025" height="1.025" fill="rgba(9,2,0,1.000)" /><rect x="11" y="18" width="1.025" height="1.025" fill="rgba(2,0,0,1.000)" /><rect x="12" y="18" width="1.025" height="1.025" fill="rgba(205,116,59,1.000)" /><rect x="13" y="18" width="1.025" height="1.025" fill="rgba(67,19,2,1.000)" /><rect x="10" y="19" width="1.025" height="1.025" fill="rgba(14,3,0,1.000)" /><rect x="11" y="19" width="1.025" height="1.025" fill="rgba(47,19,1,1.000)" /><rect x="12" y="19" width="1.025" height="1.025" fill="rgba(5,2,0,1.000)" /><rect x="13" y="19" width="1.025" height="1.025" fill="rgba(120,49,18,1.000)" /><rect x="10" y="20" width="1.025" height="1.025" fill="rgba(11,2,0,1.000)" /><rect x="11" y="20" width="1.025" height="1.025" fill="rgba(49,13,1,1.000)" /><rect x="12" y="20" width="1.025" height="1.025" fill="rgba(79,28,1,1.000)" /><rect x="13" y="20" width="1.025" height="1.025" fill="rgba(40,14,1,1.000)" /><rect x="10" y="21" width="1.025" height="1.025" fill="rgba(14,3,3,1.000)" /><rect x="11" y="21" width="1.025" height="1.025" fill="rgba(73,27,0,1.000)" /><rect x="12" y="21" width="1.025" height="1.025" fill="rgba(62,21,0,1.000)" /><rect x="13" y="21" width="1.025" height="1.025" fill="rgba(90,38,3,1.000)" /><rect x="11" y="22" width="1.025" height="1.025" fill="rgba(19,6,0,1.000)" /><rect x="12" y="22" width="1.025" height="1.025" fill="rgba(97,45,4,1.000)" /><rect x="13" y="22" width="1.025" height="1.025" fill="rgba(40,15,0,1.000)" /><rect x="11" y="23" width="1.025" height="1.025" fill="rgba(13,4,0,1.000)" /><rect x="12" y="23" width="1.025" height="1.025" fill="rgba(91,42,2,1.000)" /><rect x="13" y="23" width="1.025" height="1.025" fill="rgba(55,20,0,1.000)" /><rect x="14" y="23" width="1.025" height="1.025" fill="rgba(67,25,0,1.000)" /><rect x="11" y="24" width="1.025" height="1.025" fill="rgba(40,15,0,1.000)" /><rect x="12" y="24" width="1.025" height="1.025" fill="rgba(86,38,17,1.000)" /><rect x="13" y="24" width="1.025" height="1.025" fill="rgba(89,35,7,1.000)" /><rect x="14" y="24" width="1.025" height="1.025" fill="rgba(69,20,0,1.000)" /><rect x="15" y="24" width="1.025" height="1.025" fill="rgba(102,44,27,1.000)" /><rect x="12" y="25" width="1.025" height="1.025" fill="rgba(0,0,0,1.000)" /><rect x="13" y="25" width="1.025" height="1.025" fill="rgba(113,44,2,1.000)" /><rect x="14" y="25" width="1.025" height="1.025" fill="rgba(47,14,0,1.000)" /><rect x="15" y="25" width="1.025" height="1.025" fill="rgba(43,6,0,1.000)" /><rect x="13" y="26" width="1.025" height="1.025" fill="rgba(106,40,4,1.000)" /><rect x="14" y="26" width="1.025" height="1.025" fill="rgba(89,32,0,1.000)" /><rect x="15" y="26" width="1.025" height="1.025" fill="rgba(46,11,0,1.000)" /><rect x="13" y="27" width="1.025" height="1.025" fill="rgba(67,23,3,1.000)" /><rect x="14" y="27" width="1.025" height="1.025" fill="rgba(82,22,0,1.000)" /><rect x="15" y="27" width="1.025" height="1.025" fill="rgba(37,10,0,1.000)" /><rect x="16" y="27" width="1.025" height="1.025" fill="rgba(40,15,0,1.000)" /><rect x="14" y="28" width="1.025" height="1.025" fill="rgba(32,10,3,1.000)" /><rect x="15" y="28" width="1.025" height="1.025" fill="rgba(65,20,0,1.000)" /><rect x="16" y="28" width="1.025" height="1.025" fill="rgba(31,10,0,1.000)" /><rect x="15" y="29" width="1.025" height="1.025" fill="rgba(79,32,6,1.000)" /><rect x="16" y="29" width="1.025" height="1.025" fill="rgba(35,12,0,1.000)" /><rect x="15" y="30" width="1.025" height="1.025" fill="rgba(28,6,0,1.000)" /><rect x="16" y="30" width="1.025" height="1.025" fill="rgba(43,11,0,1.000)" /><rect x="17" y="30" width="1.025" height="1.025" fill="rgba(97,49,31,1.000)" /><rect x="15" y="31" width="1.025" height="1.025" fill="rgba(113,44,2,1.000)" /><rect x="16" y="31" width="1.025" height="1.025" fill="rgba(113,44,2,1.000)" /><rect x="17" y="31" width="1.025" height="1.025" fill="rgba(17,3,0,1.000)" /><rect x="14" y="32" width="1.025" height="1.025" fill="rgba(113,44,2,1.000)" /><rect x="15" y="32" width="1.025" height="1.025" fill="rgba(40,15,0,1.000)" /><rect x="16" y="32" width="1.025" height="1.025" fill="rgba(113,44,2,1.000)" /><rect x="14" y="33" width="1.025" height="1.025" fill="rgba(113,44,2,1.000)" /><rect x="15" y="33" width="1.025" height="1.025" fill="rgba(89,32,0,1.000)" /><rect x="16" y="33" width="1.025" height="1.025" fill="rgba(89,32,0,1.000)" /><rect x="14" y="34" width="1.025" height="1.025" fill="rgba(89,32,0,1.000)" /><rect x="15" y="34" width="1.025" height="1.025" fill="rgba(40,15,0,1.000)" /><rect x="16" y="34" width="1.025" height="1.025" fill="rgba(113,44,2,1.000)" /><rect x="13" y="35" width="1.025" height="1.025" fill="rgba(40,15,0,1.000)" /><rect x="14" y="35" width="1.025" height="1.025" fill="rgba(89,32,0,1.000)" /><rect x="15" y="35" width="1.025" height="1.025" fill="rgba(113,44,2,1.000)" /><rect x="14" y="36" width="1.025" height="1.025" fill="rgba(113,44,2,1.000)" /></svg>