<svg shape-rendering="crispEdges" xmlns="http://www.w3.org/2000/svg" version="1.1" width="37" height="37"><style>rect { image-rendering: pixelated; }</style><rect x="13" y="5" width="1.025" height="1.025" fill="rgba(15,0,17,1.000)" /><rect x="14" y="5" width="1.025" height="1.025" fill="rgba(111,11,126,1.000)" /><rect x="15" y="5" width="1.025" height="1.025" fill="rgba(153,4,146,1.000)" /><rect x="16" y="5" width="1.025" height="1.025" fill="rgba(200,11,133,1.000)" /><rect x="17" y="5" width="1.025" height="1.025" fill="rgba(190,8,140,1.000)" /><rect x="18" y="5" width="1.025" height="1.025" fill="rgba(67,9,170,1.000)" /><rect x="19" y="5" width="1.025" height="1.025" fill="rgba(65,14,176,1.000)" /><rect x="20" y="5" width="1.025" height="1.025" fill="rgba(58,21,175,1.000)" /><rect x="21" y="5" width="1.025" height="1.025" fill="rgba(57,10,139,1.000)" /><rect x="22" y="5" width="1.025" height="1.025" fill="rgba(2,0,3,1.000)" /><rect x="12" y="6" width="1.025" height="1.025" fill="rgba(34,8,104,1.000)" /><rect x="13" y="6" width="1.025" height="1.025" fill="rgba(95,12,174,1.000)" /><rect x="14" y="6" width="1.025" height="1.025" fill="rgba(144,10,177,1.000)" /><rect x="15" y="6" width="1.025" height="1.025" fill="rgba(240,15,171,1.000)" /><rect x="16" y="6" width="1.025" height="1.025" fill="rgba(219,9,185,1.000)" /><rect x="17" y="6" width="1.025" height="1.025" fill="rgba(138,21,198,1.000)" /><rect x="18" y="6" width="1.025" height="1.025" fill="rgba(72,18,195,1.000)" /><rect x="19" y="6" width="1.025" height="1.025" fill="rgba(20,34,171,1.000)" /><rect x="20" y="6" width="1.025" height="1.025" fill="rgba(52,10,103,1.000)" /><rect x="21" y="6" width="1.025" height="1.025" fill="rgba(39,47,215,1.000)" /><rect x="22" y="6" width="1.025" height="1.025" fill="rgba(108,20,165,1.000)" /><rect x="23" y="6" width="1.025" height="1.025" fill="rgba(29,11,9,1.000)" /><rect x="11" y="7" width="1.025" height="1.025" fill="rgba(0,0,7,1.000)" /><rect x="12" y="7" width="1.025" height="1.025" fill="rgba(84,18,200,1.000)" /><rect x="13" y="7" width="1.025" height="1.025" fill="rgba(208,10,169,1.000)" /><rect x="14" y="7" width="1.025" height="1.025" fill="rgba(236,18,179,1.000)" /><rect x="15" y="7" width="1.025" height="1.025" fill="rgba(174,24,216,1.000)" /><rect x="16" y="7" width="1.025" height="1.025" fill="rgba(123,40,219,1.000)" /><rect x="17" y="7" width="1.025" height="1.025" fill="rgba(100,57,223,1.000)" /><rect x="18" y="7" width="1.025" height="1.025" fill="rgba(4,116,223,1.000)" /><rect x="19" y="7" width="1.025" height="1.025" fill="rgba(0,109,199,1.000)" /><rect x="20" y="7" width="1.025" height="1.025" fill="rgba(1,105,157,1.000)" /><rect x="21" y="7" width="1.025" height="1.025" fill="rgba(0,157,168,1.000)" /><rect x="22" y="7" width="1.025" height="1.025" fill="rgba(41,144,192,1.000)" /><rect x="23" y="7" width="1.025" height="1.025" fill="rgba(82,39,198,1.000)" /><rect x="24" y="7" width="1.025" height="1.025" fill="rgba(61,4,15,1.000)" /><rect x="11" y="8" width="1.025" height="1.025" fill="rgba(45,9,159,1.000)" /><rect x="12" y="8" width="1.025" height="1.025" fill="rgba(72,23,221,1.000)" /><rect x="13" y="8" width="1.025" height="1.025" fill="rgba(199,32,214,1.000)" /><rect x="14" y="8" width="1.025" height="1.025" fill="rgba(167,16,203,1.000)" /><rect x="15" y="8" width="1.025" height="1.025" fill="rgba(49,65,225,1.000)" /><rect x="16" y="8" width="1.025" height="1.025" fill="rgba(4,112,241,1.000)" /><rect x="17" y="8" width="1.025" height="1.025" fill="rgba(0,175,201,1.000)" /><rect x="18" y="8" width="1.025" height="1.025" fill="rgba(9,174,186,1.000)" /><rect x="19" y="8" width="1.025" height="1.025" fill="rgba(13,214,80,1.000)" /><rect x="20" y="8" width="1.025" height="1.025" fill="rgba(74,220,47,1.000)" /><rect x="21" y="8" width="1.025" height="1.025" fill="rgba(55,95,176,1.000)" /><rect x="22" y="8" width="1.025" height="1.025" fill="rgba(55,189,78,1.000)" /><rect x="23" y="8" width="1.025" height="1.025" fill="rgba(57,107,184,1.000)" /><rect x="24" y="8" width="1.025" height="1.025" fill="rgba(39,32,128,1.000)" /><rect x="10" y="9" width="1.025" height="1.025" fill="rgba(51,14,151,1.000)" /><rect x="11" y="9" width="1.025" height="1.025" fill="rgba(83,23,210,1.000)" /><rect x="12" y="9" width="1.025" height="1.025" fill="rgba(119,15,197,1.000)" /><rect x="13" y="9" width="1.025" height="1.025" fill="rgba(65,61,220,1.000)" /><rect x="14" y="9" width="1.025" height="1.025" fill="rgba(3,168,203,1.000)" /><rect x="15" y="9" width="1.025" height="1.025" fill="rgba(0,186,172,1.000)" /><rect x="16" y="9" width="1.025" height="1.025" fill="rgba(29,225,65,1.000)" /><rect x="17" y="9" width="1.025" height="1.025" fill="rgba(71,221,67,1.000)" /><rect x="18" y="9" width="1.025" height="1.025" fill="rgba(255,237,0,1.000)" /><rect x="19" y="9" width="1.025" height="1.025" fill="rgba(238,38,151,1.000)" /><rect x="20" y="9" width="1.025" height="1.025" fill="rgba(205,34,225,1.000)" /><rect x="22" y="9" width="1.025" height="1.025" fill="rgba(179,32,44,1.000)" /><rect x="23" y="9" width="1.025" height="1.025" fill="rgba(144,18,202,1.000)" /><rect x="24" y="9" width="1.025" height="1.025" fill="rgba(28,167,100,1.000)" /><rect x="25" y="9" width="1.025" height="1.025" fill="rgba(5,15,3,1.000)" /><rect x="10" y="10" width="1.025" height="1.025" fill="rgba(79,5,159,1.000)" /><rect x="11" y="10" width="1.025" height="1.025" fill="rgba(163,10,178,1.000)" /><rect x="12" y="10" width="1.025" height="1.025" fill="rgba(93,19,201,1.000)" /><rect x="13" y="10" width="1.025" height="1.025" fill="rgba(1,132,206,1.000)" /><rect x="14" y="10" width="1.025" height="1.025" fill="rgba(0,189,154,1.000)" /><rect x="15" y="10" width="1.025" height="1.025" fill="rgba(23,200,121,1.000)" /><rect x="16" y="10" width="1.025" height="1.025" fill="rgba(154,217,11,1.000)" /><rect x="17" y="10" width="1.025" height="1.025" fill="rgba(255,237,0,1.000)" /><rect x="18" y="10" width="1.025" height="1.025" fill="rgba(242,96,3,1.000)" /><rect x="19" y="10" width="1.025" height="1.025" fill="rgba(108,38,113,1.000)" /><rect x="23" y="10" width="1.025" height="1.025" fill="rgba(141,8,163,1.000)" /><rect x="24" y="10" width="1.025" height="1.025" fill="rgba(2,115,20,1.000)" /><rect x="25" y="10" width="1.025" height="1.025" fill="rgba(3,0,2,1.000)" /><rect x="9" y="11" width="1.025" height="1.025" fill="rgba(52,16,148,1.000)" /><rect x="10" y="11" width="1.025" height="1.025" fill="rgba(59,12,173,1.000)" /><rect x="11" y="11" width="1.025" height="1.025" fill="rgba(73,19,189,1.000)" /><rect x="12" y="11" width="1.025" height="1.025" fill="rgba(25,25,184,1.000)" /><rect x="13" y="11" width="1.025" height="1.025" fill="rgba(0,78,171,1.000)" /><rect x="14" y="11" width="1.025" height="1.025" fill="rgba(7,184,71,1.000)" /><rect x="15" y="11" width="1.025" height="1.025" fill="rgba(173,136,0,1.000)" /><rect x="16" y="11" width="1.025" height="1.025" fill="rgba(250,100,0,1.000)" /><rect x="17" y="11" width="1.025" height="1.025" fill="rgba(255,52,1,1.000)" /><rect x="18" y="11" width="1.025" height="1.025" fill="rgba(133,25,95,1.000)" /><rect x="24" y="11" width="1.025" height="1.025" fill="rgba(83,97,34,1.000)" /><rect x="25" y="11" width="1.025" height="1.025" fill="rgba(2,2,2,1.000)" /><rect x="9" y="12" width="1.025" height="1.025" fill="rgba(25,27,178,1.000)" /><rect x="10" y="12" width="1.025" height="1.025" fill="rgba(1,56,189,1.000)" /><rect x="11" y="12" width="1.025" height="1.025" fill="rgba(18,113,214,1.000)" /><rect x="12" y="12" width="1.025" height="1.025" fill="rgba(5,174,139,1.000)" /><rect x="13" y="12" width="1.025" height="1.025" fill="rgba(33,173,25,1.000)" /><rect x="14" y="12" width="1.025" height="1.025" fill="rgba(35,175,0,1.000)" /><rect x="15" y="12" width="1.025" height="1.025" fill="rgba(255,237,0,1.000)" /><rect x="16" y="12" width="1.025" height="1.025" fill="rgba(193,0,10,1.000)" /><rect x="17" y="12" width="1.025" height="1.025" fill="rgba(0,45,117,1.000)" /><rect x="25" y="12" width="1.025" height="1.025" fill="rgba(0,3,0,1.000)" /><rect x="9" y="13" width="1.025" height="1.025" fill="rgba(146,6,112,1.000)" /><rect x="10" y="13" width="1.025" height="1.025" fill="rgba(162,85,6,1.000)" /><rect x="11" y="13" width="1.025" height="1.025" fill="rgba(133,129,0,1.000)" /><rect x="12" y="13" width="1.025" height="1.025" fill="rgba(255,74,25,1.000)" /><rect x="13" y="13" width="1.025" height="1.025" fill="rgba(228,7,116,1.000)" /><rect x="14" y="13" width="1.025" height="1.025" fill="rgba(228,0,36,1.000)" /><rect x="15" y="13" width="1.025" height="1.025" fill="rgba(14,0,95,1.000)" /><rect x="16" y="13" width="1.025" height="1.025" fill="rgba(0,0,0,1.000)" /><rect x="9" y="14" width="1.025" height="1.025" fill="rgba(174,15,144,1.000)" /><rect x="10" y="14" width="1.025" height="1.025" fill="rgba(174,0,140,1.000)" /><rect x="11" y="14" width="1.025" height="1.025" fill="rgba(140,6,147,1.000)" /><rect x="12" y="14" width="1.025" height="1.025" fill="rgba(143,27,178,1.000)" /><rect x="13" y="14" width="1.025" height="1.025" fill="rgba(154,5,143,1.000)" /><rect x="14" y="14" width="1.025" height="1.025" fill="rgba(59,5,112,1.000)" /><rect x="10" y="15" width="1.025" height="1.025" fill="rgba(31,5,155,1.000)" /><rect x="11" y="15" width="1.025" height="1.025" fill="rgba(37,12,23,1.000)" /><rect x="12" y="15" width="1.025" height="1.025" fill="rgba(40,4,78,1.000)" /><rect x="13" y="15" width="1.025" height="1.025" fill="rgba(79,8,119,1.000)" /><rect x="14" y="15" width="1.025" height="1.025" fill="rgba(86,12,110,1.000)" /><rect x="10" y="16" width="1.025" height="1.025" fill="rgba(62,0,116,1.000)" /><rect x="11" y="16" width="1.025" height="1.025" fill="rgba(248,57,0,1.000)" /><rect x="12" y="16" width="1.025" height="1.025" fill="rgba(255,74,25,1.000)" /><rect x="13" y="16" width="1.025" height="1.025" fill="rgba(37,128,205,1.000)" /><rect x="14" y="16" width="1.025" height="1.025" fill="rgba(97,43,113,1.000)" /><rect x="10" y="17" width="1.025" height="1.025" fill="rgba(49,4,0,1.000)" /><rect x="11" y="17" width="1.025" height="1.025" fill="rgba(255,74,25,1.000)" /><rect x="12" y="17" width="1.025" height="1.025" fill="rgba(230,0,126,1.000)" /><rect x="13" y="17" width="1.025" height="1.025" fill="rgba(9,38,101,1.000)" /><rect x="10" y="18" width="1.025" height="1.025" fill="rgba(2,1,1,1.000)" /><rect x="11" y="18" width="1.025" height="1.025" fill="rgba(3,4,3,1.000)" /><rect x="12" y="18" width="1.025" height="1.025" fill="rgba(230,0,126,1.000)" /><rect x="13" y="18" width="1.025" height="1.025" fill="rgba(44,4,112,1.000)" /><rect x="10" y="19" width="1.025" height="1.025" fill="rgba(4,0,2,1.000)" /><rect x="11" y="19" width="1.025" height="1.025" fill="rgba(230,0,126,1.000)" /><rect x="12" y="19" width="1.025" height="1.025" fill="rgba(51,14,151,1.000)" /><rect x="13" y="19" width="1.025" height="1.025" fill="rgba(66,4,116,1.000)" /><rect x="10" y="20" width="1.025" height="1.025" fill="rgba(0,0,0,1.000)" /><rect x="11" y="20" width="1.025" height="1.025" fill="rgba(25,27,178,1.000)" /><rect x="12" y="20" width="1.025" height="1.025" fill="rgba(70,18,22,1.000)" /><rect x="13" y="20" width="1.025" height="1.025" fill="rgba(6,1,55,1.000)" /><rect x="10" y="21" width="1.025" height="1.025" fill="rgba(2,0,5,1.000)" /><rect x="11" y="21" width="1.025" height="1.025" fill="rgba(4,116,223,1.000)" /><rect x="12" y="21" width="1.025" height="1.025" fill="rgba(114,25,116,1.000)" /><rect x="13" y="21" width="1.025" height="1.025" fill="rgba(18,167,151,1.000)" /><rect x="11" y="22" width="1.025" height="1.025" fill="rgba(1,1,2,1.000)" /><rect x="12" y="22" width="1.025" height="1.025" fill="rgba(0,34,107,1.000)" /><rect x="13" y="22" width="1.025" height="1.025" fill="rgba(255,237,0,1.000)" /><rect x="11" y="23" width="1.025" height="1.025" fill="rgba(0,1,1,1.000)" /><rect x="12" y="23" width="1.025" height="1.025" fill="rgba(118,107,13,1.000)" /><rect x="13" y="23" width="1.025" height="1.025" fill="rgba(65,28,106,1.000)" /><rect x="14" y="23" width="1.025" height="1.025" fill="rgba(176,0,42,1.000)" /><rect x="11" y="24" width="1.025" height="1.025" fill="rgba(6,13,13,1.000)" /><rect x="12" y="24" width="1.025" height="1.025" fill="rgba(255,237,0,1.000)" /><rect x="13" y="24" width="1.025" height="1.025" fill="rgba(76,109,6,1.000)" /><rect x="14" y="24" width="1.025" height="1.025" fill="rgba(5,63,188,1.000)" /><rect x="15" y="24" width="1.025" height="1.025" fill="rgba(139,45,66,1.000)" /><rect x="12" y="25" width="1.025" height="1.025" fill="rgba(231,37,32,1.000)" /><rect x="13" y="25" width="1.025" height="1.025" fill="rgba(254,36,3,1.000)" /><rect x="14" y="25" width="1.025" height="1.025" fill="rgba(78,81,150,1.000)" /><rect x="15" y="25" width="1.025" height="1.025" fill="rgba(70,18,22,1.000)" /><rect x="13" y="26" width="1.025" height="1.025" fill="rgba(52,78,95,1.000)" /><rect x="14" y="26" width="1.025" height="1.025" fill="rgba(18,94,87,1.000)" /><rect x="15" y="26" width="1.025" height="1.025" fill="rgba(97,15,103,1.000)" /><rect x="13" y="27" width="1.025" height="1.025" fill="rgba(7,70,126,1.000)" /><rect x="14" y="27" width="1.025" height="1.025" fill="rgba(18,108,114,1.000)" /><rect x="15" y="27" width="1.025" height="1.025" fill="rgba(130,51,43,1.000)" /><rect x="16" y="27" width="1.025" height="1.025" fill="rgba(223,156,77,1.000)" /><rect x="14" y="28" width="1.025" height="1.025" fill="rgba(6,3,26,1.000)" /><rect x="15" y="28" width="1.025" height="1.025" fill="rgba(0,76,126,1.000)" /><rect x="16" y="28" width="1.025" height="1.025" fill="rgba(255,237,0,1.000)" /><rect x="15" y="29" width="1.025" height="1.025" fill="rgba(51,130,198,1.000)" /><rect x="16" y="29" width="1.025" height="1.025" fill="rgba(61,5,46,1.000)" /><rect x="15" y="30" width="1.025" height="1.025" fill="rgba(32,0,0,1.000)" /><rect x="16" y="30" width="1.025" height="1.025" fill="rgba(72,19,60,1.000)" /><rect x="17" y="30" width="1.025" height="1.025" fill="rgba(98,25,26,1.000)" /><rect x="15" y="31" width="1.025" height="1.025" fill="rgba(177,5,0,1.000)" /><rect x="16" y="31" width="1.025" height="1.025" fill="rgba(67,111,159,1.000)" /><rect x="17" y="31" width="1.025" height="1.025" fill="rgba(29,0,4,1.000)" /><rect x="14" y="32" width="1.025" height="1.025" fill="rgba(199,32,214,1.000)" /><rect x="15" y="32" width="1.025" height="1.025" fill="rgba(167,16,203,1.000)" /><rect x="16" y="32" width="1.025" height="1.025" fill="rgba(49,65,225,1.000)" /><rect x="14" y="33" width="1.025" height="1.025" fill="rgba(65,61,220,1.000)" /><rect x="15" y="33" width="1.025" height="1.025" fill="rgba(3,168,203,1.000)" /><rect x="16" y="33" width="1.025" height="1.025" fill="rgba(0,186,172,1.000)" /><rect x="14" y="34" width="1.025" height="1.025" fill="rgba(1,132,206,1.000)" /><rect x="15" y="34" width="1.025" height="1.025" fill="rgba(0,189,154,1.000)" /><rect x="16" y="34" width="1.025" height="1.025" fill="rgba(23,200,121,1.000)" /><rect x="13" y="35" width="1.025" height="1.025" fill="rgba(25,25,184,1.000)" /><rect x="14" y="35" width="1.025" height="1.025" fill="rgba(0,78,171,1.000)" /><rect x="15" y="35" width="1.025" height="1.025" fill="rgba(7,184,71,1.000)" /><rect x="14" y="36" width="1.025" height="1.025" fill="rgba(33,173,25,1.000)" /></svg>