<svg shape-rendering="crispEdges" xmlns="http://www.w3.org/2000/svg" version="1.1" width="37" height="37"><style>rect { image-rendering: pixelated; }</style><rect x="14" y="4" width="1.025" height="1.025" fill="rgba(202,176,197,1.000)" /><rect x="15" y="4" width="1.025" height="1.025" fill="rgba(236,226,230,1.000)" /><rect x="16" y="4" width="1.025" height="1.025" fill="rgba(202,176,197,1.000)" /><rect x="17" y="4" width="1.025" height="1.025" fill="rgba(202,176,197,1.000)" /><rect x="18" y="4" width="1.025" height="1.025" fill="rgba(202,176,197,1.000)" /><rect x="20" y="4" width="1.025" height="1.025" fill="rgba(215,196,208,1.000)" /><rect x="21" y="4" width="1.025" height="1.025" fill="rgba(215,196,208,1.000)" /><rect x="22" y="4" width="1.025" height="1.025" fill="rgba(153,133,149,1.000)" /><rect x="12" y="5" width="1.025" height="1.025" fill="rgba(202,176,197,1.000)" /><rect x="13" y="5" width="1.025" height="1.025" fill="rgba(221,205,214,1.000)" /><rect x="14" y="5" width="1.025" height="1.025" fill="rgba(221,205,214,1.000)" /><rect x="15" y="5" width="1.025" height="1.025" fill="rgba(241,235,237,1.000)" /><rect x="16" y="5" width="1.025" height="1.025" fill="rgba(249,247,247,1.000)" /><rect x="17" y="5" width="1.025" height="1.025" fill="rgba(244,238,240,1.000)" /><rect x="18" y="5" width="1.025" height="1.025" fill="rgba(228,215,221,1.000)" /><rect x="19" y="5" width="1.025" height="1.025" fill="rgba(215,196,208,1.000)" /><rect x="20" y="5" width="1.025" height="1.025" fill="rgba(240,232,235,1.000)" /><rect x="21" y="5" width="1.025" height="1.025" fill="rgba(222,206,215,1.000)" /><rect x="22" y="5" width="1.025" height="1.025" fill="rgba(218,200,211,1.000)" /><rect x="23" y="5" width="1.025" height="1.025" fill="rgba(153,133,149,1.000)" /><rect x="11" y="6" width="1.025" height="1.025" fill="rgba(202,176,197,1.000)" /><rect x="12" y="6" width="1.025" height="1.025" fill="rgba(221,205,214,1.000)" /><rect x="13" y="6" width="1.025" height="1.025" fill="rgba(202,176,197,1.000)" /><rect x="14" y="6" width="1.025" height="1.025" fill="rgba(208,185,202,1.000)" /><rect x="15" y="6" width="1.025" height="1.025" fill="rgba(236,226,230,1.000)" /><rect x="16" y="6" width="1.025" height="1.025" fill="rgba(255,255,255,1.000)" /><rect x="17" y="6" width="1.025" height="1.025" fill="rgba(255,255,255,1.000)" /><rect x="18" y="6" width="1.025" height="1.025" fill="rgba(244,238,240,1.000)" /><rect x="19" y="6" width="1.025" height="1.025" fill="rgba(217,199,210,1.000)" /><rect x="20" y="6" width="1.025" height="1.025" fill="rgba(236,227,231,1.000)" /><rect x="21" y="6" width="1.025" height="1.025" fill="rgba(231,219,224,1.000)" /><rect x="22" y="6" width="1.025" height="1.025" fill="rgba(218,200,211,1.000)" /><rect x="23" y="6" width="1.025" height="1.025" fill="rgba(216,198,210,1.000)" /><rect x="24" y="6" width="1.025" height="1.025" fill="rgba(153,133,149,1.000)" /><rect x="11" y="7" width="1.025" height="1.025" fill="rgba(208,185,201,1.000)" /><rect x="12" y="7" width="1.025" height="1.025" fill="rgba(211,190,204,1.000)" /><rect x="13" y="7" width="1.025" height="1.025" fill="rgba(205,182,199,1.000)" /><rect x="14" y="7" width="1.025" height="1.025" fill="rgba(214,194,207,1.000)" /><rect x="15" y="7" width="1.025" height="1.025" fill="rgba(237,229,232,1.000)" /><rect x="16" y="7" width="1.025" height="1.025" fill="rgba(250,248,249,1.000)" /><rect x="17" y="7" width="1.025" height="1.025" fill="rgba(255,255,255,1.000)" /><rect x="18" y="7" width="1.025" height="1.025" fill="rgba(236,227,231,1.000)" /><rect x="19" y="7" width="1.025" height="1.025" fill="rgba(212,191,205,1.000)" /><rect x="20" y="7" width="1.025" height="1.025" fill="rgba(234,224,228,1.000)" /><rect x="21" y="7" width="1.025" height="1.025" fill="rgba(241,235,237,1.000)" /><rect x="22" y="7" width="1.025" height="1.025" fill="rgba(231,219,224,1.000)" /><rect x="23" y="7" width="1.025" height="1.025" fill="rgba(218,201,211,1.000)" /><rect x="24" y="7" width="1.025" height="1.025" fill="rgba(213,194,207,1.000)" /><rect x="25" y="7" width="1.025" height="1.025" fill="rgba(189,170,184,1.000)" /><rect x="8" y="8" width="1.025" height="1.025" fill="rgba(207,185,202,1.000)" /><rect x="9" y="8" width="1.025" height="1.025" fill="rgba(224,211,219,1.000)" /><rect x="10" y="8" width="1.025" height="1.025" fill="rgba(0,202,209,1.000)" /><rect x="11" y="8" width="1.025" height="1.025" fill="rgba(196,171,190,1.000)" /><rect x="12" y="8" width="1.025" height="1.025" fill="rgba(208,185,201,1.000)" /><rect x="13" y="8" width="1.025" height="1.025" fill="rgba(221,205,214,1.000)" /><rect x="14" y="8" width="1.025" height="1.025" fill="rgba(231,219,224,1.000)" /><rect x="15" y="8" width="1.025" height="1.025" fill="rgba(240,232,235,1.000)" /><rect x="16" y="8" width="1.025" height="1.025" fill="rgba(234,224,228,1.000)" /><rect x="17" y="8" width="1.025" height="1.025" fill="rgba(236,227,231,1.000)" /><rect x="18" y="8" width="1.025" height="1.025" fill="rgba(240,232,235,1.000)" /><rect x="19" y="8" width="1.025" height="1.025" fill="rgba(238,230,233,1.000)" /><rect x="20" y="8" width="1.025" height="1.025" fill="rgba(238,230,233,1.000)" /><rect x="21" y="8" width="1.025" height="1.025" fill="rgba(236,227,231,1.000)" /><rect x="22" y="8" width="1.025" height="1.025" fill="rgba(246,241,243,1.000)" /><rect x="23" y="8" width="1.025" height="1.025" fill="rgba(255,254,254,1.000)" /><rect x="24" y="8" width="1.025" height="1.025" fill="rgba(223,207,216,1.000)" /><rect x="25" y="8" width="1.025" height="1.025" fill="rgba(189,170,184,1.000)" /><rect x="26" y="8" width="1.025" height="1.025" fill="rgba(177,0,0,1.000)" /><rect x="27" y="8" width="1.025" height="1.025" fill="rgba(225,209,217,1.000)" /><rect x="7" y="9" width="1.025" height="1.025" fill="rgba(222,211,218,1.000)" /><rect x="8" y="9" width="1.025" height="1.025" fill="rgba(223,210,218,1.000)" /><rect x="9" y="9" width="1.025" height="1.025" fill="rgba(202,179,198,1.000)" /><rect x="10" y="9" width="1.025" height="1.025" fill="rgba(0,136,136,1.000)" /><rect x="11" y="9" width="1.025" height="1.025" fill="rgba(193,169,188,1.000)" /><rect x="12" y="9" width="1.025" height="1.025" fill="rgba(203,178,197,1.000)" /><rect x="13" y="9" width="1.025" height="1.025" fill="rgba(207,184,201,1.000)" /><rect x="14" y="9" width="1.025" height="1.025" fill="rgba(212,191,205,1.000)" /><rect x="15" y="9" width="1.025" height="1.025" fill="rgba(238,230,233,1.000)" /><rect x="16" y="9" width="1.025" height="1.025" fill="rgba(255,255,255,1.000)" /><rect x="17" y="9" width="1.025" height="1.025" fill="rgba(255,255,255,1.000)" /><rect x="18" y="9" width="1.025" height="1.025" fill="rgba(228,215,221,1.000)" /><rect x="19" y="9" width="1.025" height="1.025" fill="rgba(202,176,197,1.000)" /><rect x="21" y="9" width="1.025" height="1.025" fill="rgba(222,206,215,1.000)" /><rect x="22" y="9" width="1.025" height="1.025" fill="rgba(229,216,221,1.000)" /><rect x="23" y="9" width="1.025" height="1.025" fill="rgba(246,240,242,1.000)" /><rect x="24" y="9" width="1.025" height="1.025" fill="rgba(220,202,212,1.000)" /><rect x="25" y="9" width="1.025" height="1.025" fill="rgba(155,125,139,1.000)" /><rect x="26" y="9" width="1.025" height="1.025" fill="rgba(211,0,0,1.000)" /><rect x="27" y="9" width="1.025" height="1.025" fill="rgba(225,208,215,1.000)" /><rect x="28" y="9" width="1.025" height="1.025" fill="rgba(207,183,199,1.000)" /><rect x="6" y="10" width="1.025" height="1.025" fill="rgba(204,185,202,1.000)" /><rect x="7" y="10" width="1.025" height="1.025" fill="rgba(221,211,219,1.000)" /><rect x="8" y="10" width="1.025" height="1.025" fill="rgba(220,210,218,1.000)" /><rect x="9" y="10" width="1.025" height="1.025" fill="rgba(200,175,195,1.000)" /><rect x="10" y="10" width="1.025" height="1.025" fill="rgba(0,68,72,1.000)" /><rect x="11" y="10" width="1.025" height="1.025" fill="rgba(212,194,207,1.000)" /><rect x="12" y="10" width="1.025" height="1.025" fill="rgba(202,178,197,1.000)" /><rect x="13" y="10" width="1.025" height="1.025" fill="rgba(208,185,201,1.000)" /><rect x="14" y="10" width="1.025" height="1.025" fill="rgba(228,216,222,1.000)" /><rect x="15" y="10" width="1.025" height="1.025" fill="rgba(223,208,217,1.000)" /><rect x="16" y="10" width="1.025" height="1.025" fill="rgba(238,230,233,1.000)" /><rect x="17" y="10" width="1.025" height="1.025" fill="rgba(238,230,233,1.000)" /><rect x="18" y="10" width="1.025" height="1.025" fill="rgba(202,176,197,1.000)" /><rect x="23" y="10" width="1.025" height="1.025" fill="rgba(224,208,216,1.000)" /><rect x="24" y="10" width="1.025" height="1.025" fill="rgba(233,220,225,1.000)" /><rect x="25" y="10" width="1.025" height="1.025" fill="rgba(209,3,4,1.000)" /><rect x="26" y="10" width="1.025" height="1.025" fill="rgba(225,208,216,1.000)" /><rect x="27" y="10" width="1.025" height="1.025" fill="rgba(225,208,216,1.000)" /><rect x="28" y="10" width="1.025" height="1.025" fill="rgba(209,183,200,1.000)" /><rect x="6" y="11" width="1.025" height="1.025" fill="rgba(203,187,203,1.000)" /><rect x="7" y="11" width="1.025" height="1.025" fill="rgba(218,212,220,1.000)" /><rect x="10" y="11" width="1.025" height="1.025" fill="rgba(206,186,202,1.000)" /><rect x="11" y="11" width="1.025" height="1.025" fill="rgba(211,194,207,1.000)" /><rect x="12" y="11" width="1.025" height="1.025" fill="rgba(209,188,203,1.000)" /><rect x="13" y="11" width="1.025" height="1.025" fill="rgba(216,199,210,1.000)" /><rect x="14" y="11" width="1.025" height="1.025" fill="rgba(240,232,235,1.000)" /><rect x="15" y="11" width="1.025" height="1.025" fill="rgba(208,185,201,1.000)" /><rect x="16" y="11" width="1.025" height="1.025" fill="rgba(202,176,197,1.000)" /><rect x="17" y="11" width="1.025" height="1.025" fill="rgba(202,176,197,1.000)" /><rect x="24" y="11" width="1.025" height="1.025" fill="rgba(233,219,223,1.000)" /><rect x="27" y="11" width="1.025" height="1.025" fill="rgba(204,176,195,1.000)" /><rect x="28" y="11" width="1.025" height="1.025" fill="rgba(226,203,211,1.000)" /><rect x="29" y="11" width="1.025" height="1.025" fill="rgba(206,178,195,1.000)" /><rect x="5" y="12" width="1.025" height="1.025" fill="rgba(197,185,201,1.000)" /><rect x="6" y="12" width="1.025" height="1.025" fill="rgba(214,212,220,1.000)" /><rect x="7" y="12" width="1.025" height="1.025" fill="rgba(197,181,200,1.000)" /><rect x="10" y="12" width="1.025" height="1.025" fill="rgba(201,179,198,1.000)" /><rect x="11" y="12" width="1.025" height="1.025" fill="rgba(189,168,186,1.000)" /><rect x="12" y="12" width="1.025" height="1.025" fill="rgba(200,175,195,1.000)" /><rect x="13" y="12" width="1.025" height="1.025" fill="rgba(153,133,149,1.000)" /><rect x="14" y="12" width="1.025" height="1.025" fill="rgba(193,169,188,1.000)" /><rect x="15" y="12" width="1.025" height="1.025" fill="rgba(193,169,188,1.000)" /><rect x="27" y="12" width="1.025" height="1.025" fill="rgba(202,171,190,1.000)" /><rect x="28" y="12" width="1.025" height="1.025" fill="rgba(226,198,206,1.000)" /><rect x="29" y="12" width="1.025" height="1.025" fill="rgba(207,176,192,1.000)" /><rect x="5" y="13" width="1.025" height="1.025" fill="rgba(193,186,202,1.000)" /><rect x="6" y="13" width="1.025" height="1.025" fill="rgba(206,213,220,1.000)" /><rect x="7" y="13" width="1.025" height="1.025" fill="rgba(194,178,197,1.000)" /><rect x="10" y="13" width="1.025" height="1.025" fill="rgba(199,180,199,1.000)" /><rect x="11" y="13" width="1.025" height="1.025" fill="rgba(174,155,173,1.000)" /><rect x="27" y="13" width="1.025" height="1.025" fill="rgba(203,168,187,1.000)" /><rect x="28" y="13" width="1.025" height="1.025" fill="rgba(226,193,200,1.000)" /><rect x="29" y="13" width="1.025" height="1.025" fill="rgba(211,175,191,1.000)" /><rect x="5" y="14" width="1.025" height="1.025" fill="rgba(190,191,207,1.000)" /><rect x="6" y="14" width="1.025" height="1.025" fill="rgba(199,214,221,1.000)" /><rect x="7" y="14" width="1.025" height="1.025" fill="rgba(193,186,202,1.000)" /><rect x="10" y="14" width="1.025" height="1.025" fill="rgba(197,180,199,1.000)" /><rect x="11" y="14" width="1.025" height="1.025" fill="rgba(153,133,149,1.000)" /><rect x="28" y="14" width="1.025" height="1.025" fill="rgba(206,166,184,1.000)" /><rect x="29" y="14" width="1.025" height="1.025" fill="rgba(229,185,192,1.000)" /><rect x="30" y="14" width="1.025" height="1.025" fill="rgba(212,168,184,1.000)" /><rect x="4" y="15" width="1.025" height="1.025" fill="rgba(180,194,209,1.000)" /><rect x="5" y="15" width="1.025" height="1.025" fill="rgba(185,219,225,1.000)" /><rect x="6" y="15" width="1.025" height="1.025" fill="rgba(185,185,202,1.000)" /><rect x="7" y="15" width="1.025" height="1.025" fill="rgba(189,191,207,1.000)" /><rect x="10" y="15" width="1.025" height="1.025" fill="rgba(196,183,201,1.000)" /><rect x="27" y="15" width="1.025" height="1.025" fill="rgba(230,178,185,1.000)" /><rect x="28" y="15" width="1.025" height="1.025" fill="rgba(210,163,178,1.000)" /><rect x="29" y="15" width="1.025" height="1.025" fill="rgba(230,173,179,1.000)" /><rect x="30" y="15" width="1.025" height="1.025" fill="rgba(211,161,176,1.000)" /><rect x="4" y="16" width="1.025" height="1.025" fill="rgba(172,194,208,1.000)" /><rect x="5" y="16" width="1.025" height="1.025" fill="rgba(173,221,227,1.000)" /><rect x="6" y="16" width="1.025" height="1.025" fill="rgba(178,186,204,1.000)" /><rect x="7" y="16" width="1.025" height="1.025" fill="rgba(186,219,225,1.000)" /><rect x="10" y="16" width="1.025" height="1.025" fill="rgba(196,188,204,1.000)" /><rect x="27" y="16" width="1.025" height="1.025" fill="rgba(231,163,169,1.000)" /><rect x="28" y="16" width="1.025" height="1.025" fill="rgba(213,153,168,1.000)" /><rect x="29" y="16" width="1.025" height="1.025" fill="rgba(231,156,163,1.000)" /><rect x="30" y="16" width="1.025" height="1.025" fill="rgba(215,151,165,1.000)" /><rect x="4" y="17" width="1.025" height="1.025" fill="rgba(163,198,211,1.000)" /><rect x="5" y="17" width="1.025" height="1.025" fill="rgba(160,221,228,1.000)" /><rect x="6" y="17" width="1.025" height="1.025" fill="rgba(172,197,211,1.000)" /><rect x="7" y="17" width="1.025" height="1.025" fill="rgba(176,221,227,1.000)" /><rect x="8" y="17" width="1.025" height="1.025" fill="rgba(182,186,203,1.000)" /><rect x="10" y="17" width="1.025" height="1.025" fill="rgba(195,195,208,1.000)" /><rect x="11" y="17" width="1.025" height="1.025" fill="rgba(69,66,69,1.000)" /><rect x="27" y="17" width="1.025" height="1.025" fill="rgba(233,148,154,1.000)" /><rect x="28" y="17" width="1.025" height="1.025" fill="rgba(219,140,153,1.000)" /><rect x="29" y="17" width="1.025" height="1.025" fill="rgba(238,134,138,1.000)" /><rect x="30" y="17" width="1.025" height="1.025" fill="rgba(220,137,150,1.000)" /><rect x="4" y="18" width="1.025" height="1.025" fill="rgba(139,226,231,1.000)" /><rect x="5" y="18" width="1.025" height="1.025" fill="rgba(142,231,234,1.000)" /><rect x="6" y="18" width="1.025" height="1.025" fill="rgba(154,225,230,1.000)" /><rect x="7" y="18" width="1.025" height="1.025" fill="rgba(166,220,227,1.000)" /><rect x="8" y="18" width="1.025" height="1.025" fill="rgba(177,186,204,1.000)" /><rect x="11" y="18" width="1.025" height="1.025" fill="rgba(142,134,147,1.000)" /><rect x="12" y="18" width="1.025" height="1.025" fill="rgba(69,66,69,1.000)" /><rect x="27" y="18" width="1.025" height="1.025" fill="rgba(216,132,146,1.000)" /><rect x="28" y="18" width="1.025" height="1.025" fill="rgba(239,112,116,1.000)" /><rect x="29" y="18" width="1.025" height="1.025" fill="rgba(225,120,131,1.000)" /><rect x="30" y="18" width="1.025" height="1.025" fill="rgba(238,108,112,1.000)" /><rect x="31" y="18" width="1.025" height="1.025" fill="rgba(222,123,135,1.000)" /><rect x="3" y="19" width="1.025" height="1.025" fill="rgba(142,205,217,1.000)" /><rect x="4" y="19" width="1.025" height="1.025" fill="rgba(117,235,238,1.000)" /><rect x="5" y="19" width="1.025" height="1.025" fill="rgba(127,233,237,1.000)" /><rect x="6" y="19" width="1.025" height="1.025" fill="rgba(142,227,232,1.000)" /><rect x="7" y="19" width="1.025" height="1.025" fill="rgba(156,222,228,1.000)" /><rect x="8" y="19" width="1.025" height="1.025" fill="rgba(173,187,205,1.000)" /><rect x="12" y="19" width="1.025" height="1.025" fill="rgba(117,108,119,1.000)" /><rect x="27" y="19" width="1.025" height="1.025" fill="rgba(221,116,128,1.000)" /><rect x="28" y="19" width="1.025" height="1.025" fill="rgba(243,84,88,1.000)" /><rect x="29" y="19" width="1.025" height="1.025" fill="rgba(227,102,112,1.000)" /><rect x="30" y="19" width="1.025" height="1.025" fill="rgba(246,73,75,1.000)" /><rect x="31" y="19" width="1.025" height="1.025" fill="rgba(229,102,112,1.000)" /><rect x="3" y="20" width="1.025" height="1.025" fill="rgba(133,208,219,1.000)" /><rect x="4" y="20" width="1.025" height="1.025" fill="rgba(133,213,222,1.000)" /><rect x="5" y="20" width="1.025" height="1.025" fill="rgba(148,197,212,1.000)" /><rect x="6" y="20" width="1.025" height="1.025" fill="rgba(131,229,234,1.000)" /><rect x="7" y="20" width="1.025" height="1.025" fill="rgba(143,231,234,1.000)" /><rect x="8" y="20" width="1.025" height="1.025" fill="rgba(169,190,207,1.000)" /><rect x="27" y="20" width="1.025" height="1.025" fill="rgba(225,100,112,1.000)" /><rect x="28" y="20" width="1.025" height="1.025" fill="rgba(246,59,61,1.000)" /><rect x="29" y="20" width="1.025" height="1.025" fill="rgba(234,80,87,1.000)" /><rect x="30" y="20" width="1.025" height="1.025" fill="rgba(236,76,83,1.000)" /><rect x="31" y="20" width="1.025" height="1.025" fill="rgba(238,76,82,1.000)" /><rect x="3" y="21" width="1.025" height="1.025" fill="rgba(124,213,223,1.000)" /><rect x="4" y="21" width="1.025" height="1.025" fill="rgba(139,201,213,0.914)" /><rect x="5" y="21" width="1.025" height="1.025" fill="rgba(143,200,214,1.000)" /><rect x="6" y="21" width="1.025" height="1.025" fill="rgba(125,229,234,1.000)" /><rect x="7" y="21" width="1.025" height="1.025" fill="rgba(152,206,217,1.000)" /><rect x="8" y="21" width="1.025" height="1.025" fill="rgba(164,200,212,1.000)" /><rect x="27" y="21" width="1.025" height="1.025" fill="rgba(230,82,91,1.000)" /><rect x="28" y="21" width="1.025" height="1.025" fill="rgba(251,30,31,1.000)" /><rect x="29" y="21" width="1.025" height="1.025" fill="rgba(241,54,59,1.000)" /><rect x="30" y="21" width="1.025" height="1.025" fill="rgba(239,59,65,1.000)" /><rect x="31" y="21" width="1.025" height="1.025" fill="rgba(217,97,109,0.745)" /><rect x="3" y="22" width="1.025" height="1.025" fill="rgba(124,213,223,1.000)" /><rect x="4" y="22" width="1.025" height="1.025" fill="rgba(139,201,213,0.914)" /><rect x="5" y="22" width="1.025" height="1.025" fill="rgba(143,200,214,1.000)" /><rect x="6" y="22" width="1.025" height="1.025" fill="rgba(125,229,234,1.000)" /><rect x="7" y="22" width="1.025" height="1.025" fill="rgba(152,206,217,1.000)" /><rect x="8" y="22" width="1.025" height="1.025" fill="rgba(164,200,212,1.000)" /><rect x="27" y="22" width="1.025" height="1.025" fill="rgba(230,82,91,1.000)" /><rect x="28" y="22" width="1.025" height="1.025" fill="rgba(251,30,31,1.000)" /><rect x="29" y="22" width="1.025" height="1.025" fill="rgba(241,54,59,1.000)" /><rect x="30" y="22" width="1.025" height="1.025" fill="rgba(239,59,65,1.000)" /><rect x="31" y="22" width="1.025" height="1.025" fill="rgba(217,97,109,0.745)" /><rect x="3" y="23" width="1.025" height="1.025" fill="rgba(124,213,223,1.000)" /><rect x="4" y="23" width="1.025" height="1.025" fill="rgba(139,201,213,0.914)" /><rect x="5" y="23" width="1.025" height="1.025" fill="rgba(143,200,214,1.000)" /><rect x="6" y="23" width="1.025" height="1.025" fill="rgba(125,229,234,1.000)" /><rect x="7" y="23" width="1.025" height="1.025" fill="rgba(152,206,217,1.000)" /><rect x="8" y="23" width="1.025" height="1.025" fill="rgba(164,200,212,1.000)" /><rect x="27" y="23" width="1.025" height="1.025" fill="rgba(230,82,91,1.000)" /><rect x="28" y="23" width="1.025" height="1.025" fill="rgba(251,30,31,1.000)" /><rect x="29" y="23" width="1.025" height="1.025" fill="rgba(241,54,59,1.000)" /><rect x="30" y="23" width="1.025" height="1.025" fill="rgba(239,59,65,1.000)" /><rect x="31" y="23" width="1.025" height="1.025" fill="rgba(217,97,109,0.745)" /><rect x="3" y="24" width="1.025" height="1.025" fill="rgba(113,221,228,1.000)" /><rect x="5" y="24" width="1.025" height="1.025" fill="rgba(133,210,220,1.000)" /><rect x="7" y="24" width="1.025" height="1.025" fill="rgba(154,197,209,0.965)" /><rect x="8" y="24" width="1.025" height="1.025" fill="rgba(162,201,214,1.000)" /><rect x="27" y="24" width="1.025" height="1.025" fill="rgba(240,58,63,1.000)" /><rect x="28" y="24" width="1.025" height="1.025" fill="rgba(245,42,45,1.000)" /><rect x="29" y="24" width="1.025" height="1.025" fill="rgba(247,34,36,1.000)" /><rect x="30" y="24" width="1.025" height="1.025" fill="rgba(244,42,46,1.000)" /><rect x="3" y="25" width="1.025" height="1.025" fill="rgba(149,183,199,0.690)" /><rect x="5" y="25" width="1.025" height="1.025" fill="rgba(131,211,222,1.000)" /><rect x="7" y="25" width="1.025" height="1.025" fill="rgba(164,169,184,0.412)" /><rect x="8" y="25" width="1.025" height="1.025" fill="rgba(163,199,210,0.922)" /><rect x="27" y="25" width="1.025" height="1.025" fill="rgba(243,47,51,1.000)" /><rect x="28" y="25" width="1.025" height="1.025" fill="rgba(240,52,57,0.980)" /><rect x="29" y="25" width="1.025" height="1.025" fill="rgba(227,73,83,0.792)" /><rect x="30" y="25" width="1.025" height="1.025" fill="rgba(248,29,32,1.000)" /><rect x="27" y="26" width="1.025" height="1.025" fill="rgba(242,48,52,0.973)" /><rect x="28" y="26" width="1.025" height="1.025" fill="rgba(219,85,94,0.529)" /><rect x="30" y="26" width="1.025" height="1.025" fill="rgba(251,19,21,1.000)" /></svg>