<svg shape-rendering="crispEdges" xmlns="http://www.w3.org/2000/svg" version="1.1" width="37" height="37"><style>rect { image-rendering: pixelated; }</style><rect x="14" y="4" width="1.025" height="1.025" fill="rgba(128,69,16,1.000)" /><rect x="15" y="4" width="1.025" height="1.025" fill="rgba(91,38,6,1.000)" /><rect x="16" y="4" width="1.025" height="1.025" fill="rgba(81,37,10,1.000)" /><rect x="17" y="4" width="1.025" height="1.025" fill="rgba(62,22,7,1.000)" /><rect x="18" y="4" width="1.025" height="1.025" fill="rgba(57,28,13,1.000)" /><rect x="19" y="4" width="1.025" height="1.025" fill="rgba(28,10,9,1.000)" /><rect x="20" y="4" width="1.025" height="1.025" fill="rgba(34,12,10,1.000)" /><rect x="21" y="4" width="1.025" height="1.025" fill="rgba(33,12,8,1.000)" /><rect x="22" y="4" width="1.025" height="1.025" fill="rgba(92,32,0,1.000)" /><rect x="12" y="5" width="1.025" height="1.025" fill="rgba(64,15,4,1.000)" /><rect x="13" y="5" width="1.025" height="1.025" fill="rgba(188,126,26,1.000)" /><rect x="14" y="5" width="1.025" height="1.025" fill="rgba(239,188,51,1.000)" /><rect x="15" y="5" width="1.025" height="1.025" fill="rgba(250,203,63,1.000)" /><rect x="16" y="5" width="1.025" height="1.025" fill="rgba(252,204,73,1.000)" /><rect x="17" y="5" width="1.025" height="1.025" fill="rgba(251,201,64,1.000)" /><rect x="18" y="5" width="1.025" height="1.025" fill="rgba(253,207,71,1.000)" /><rect x="19" y="5" width="1.025" height="1.025" fill="rgba(255,228,104,1.000)" /><rect x="20" y="5" width="1.025" height="1.025" fill="rgba(255,221,99,1.000)" /><rect x="21" y="5" width="1.025" height="1.025" fill="rgba(247,196,58,1.000)" /><rect x="22" y="5" width="1.025" height="1.025" fill="rgba(252,204,71,1.000)" /><rect x="23" y="5" width="1.025" height="1.025" fill="rgba(194,133,48,1.000)" /><rect x="11" y="6" width="1.025" height="1.025" fill="rgba(138,59,0,1.000)" /><rect x="12" y="6" width="1.025" height="1.025" fill="rgba(167,98,15,1.000)" /><rect x="13" y="6" width="1.025" height="1.025" fill="rgba(236,179,41,1.000)" /><rect x="14" y="6" width="1.025" height="1.025" fill="rgba(253,231,123,1.000)" /><rect x="15" y="6" width="1.025" height="1.025" fill="rgba(254,230,124,1.000)" /><rect x="16" y="6" width="1.025" height="1.025" fill="rgba(252,214,86,1.000)" /><rect x="17" y="6" width="1.025" height="1.025" fill="rgba(255,232,123,1.000)" /><rect x="18" y="6" width="1.025" height="1.025" fill="rgba(255,225,108,1.000)" /><rect x="19" y="6" width="1.025" height="1.025" fill="rgba(252,212,79,1.000)" /><rect x="20" y="6" width="1.025" height="1.025" fill="rgba(253,210,78,1.000)" /><rect x="21" y="6" width="1.025" height="1.025" fill="rgba(251,211,80,1.000)" /><rect x="22" y="6" width="1.025" height="1.025" fill="rgba(255,226,104,1.000)" /><rect x="23" y="6" width="1.025" height="1.025" fill="rgba(230,171,43,1.000)" /><rect x="24" y="6" width="1.025" height="1.025" fill="rgba(226,160,41,1.000)" /><rect x="11" y="7" width="1.025" height="1.025" fill="rgba(193,134,25,1.000)" /><rect x="12" y="7" width="1.025" height="1.025" fill="rgba(234,175,38,1.000)" /><rect x="13" y="7" width="1.025" height="1.025" fill="rgba(255,219,92,1.000)" /><rect x="14" y="7" width="1.025" height="1.025" fill="rgba(254,219,92,1.000)" /><rect x="15" y="7" width="1.025" height="1.025" fill="rgba(254,222,100,1.000)" /><rect x="16" y="7" width="1.025" height="1.025" fill="rgba(255,212,86,1.000)" /><rect x="17" y="7" width="1.025" height="1.025" fill="rgba(254,224,110,1.000)" /><rect x="18" y="7" width="1.025" height="1.025" fill="rgba(255,227,110,1.000)" /><rect x="19" y="7" width="1.025" height="1.025" fill="rgba(255,219,103,1.000)" /><rect x="20" y="7" width="1.025" height="1.025" fill="rgba(254,215,94,1.000)" /><rect x="21" y="7" width="1.025" height="1.025" fill="rgba(155,83,8,1.000)" /><rect x="22" y="7" width="1.025" height="1.025" fill="rgba(255,229,122,1.000)" /><rect x="23" y="7" width="1.025" height="1.025" fill="rgba(254,218,100,1.000)" /><rect x="24" y="7" width="1.025" height="1.025" fill="rgba(255,215,93,1.000)" /><rect x="25" y="7" width="1.025" height="1.025" fill="rgba(127,78,16,1.000)" /><rect x="10" y="8" width="1.025" height="1.025" fill="rgba(63,23,24,1.000)" /><rect x="11" y="8" width="1.025" height="1.025" fill="rgba(215,153,17,1.000)" /><rect x="12" y="8" width="1.025" height="1.025" fill="rgba(236,180,36,1.000)" /><rect x="13" y="8" width="1.025" height="1.025" fill="rgba(253,216,86,1.000)" /><rect x="14" y="8" width="1.025" height="1.025" fill="rgba(254,226,102,1.000)" /><rect x="15" y="8" width="1.025" height="1.025" fill="rgba(252,199,63,1.000)" /><rect x="16" y="8" width="1.025" height="1.025" fill="rgba(254,234,128,1.000)" /><rect x="17" y="8" width="1.025" height="1.025" fill="rgba(255,230,119,1.000)" /><rect x="18" y="8" width="1.025" height="1.025" fill="rgba(255,228,118,1.000)" /><rect x="19" y="8" width="1.025" height="1.025" fill="rgba(253,211,90,1.000)" /><rect x="20" y="8" width="1.025" height="1.025" fill="rgba(139,69,11,1.000)" /><rect x="23" y="8" width="1.025" height="1.025" fill="rgba(253,216,105,1.000)" /><rect x="24" y="8" width="1.025" height="1.025" fill="rgba(255,230,124,1.000)" /><rect x="25" y="8" width="1.025" height="1.025" fill="rgba(243,188,61,1.000)" /><rect x="10" y="9" width="1.025" height="1.025" fill="rgba(80,31,13,1.000)" /><rect x="11" y="9" width="1.025" height="1.025" fill="rgba(232,173,29,1.000)" /><rect x="12" y="9" width="1.025" height="1.025" fill="rgba(255,216,87,1.000)" /><rect x="13" y="9" width="1.025" height="1.025" fill="rgba(255,232,127,1.000)" /><rect x="14" y="9" width="1.025" height="1.025" fill="rgba(254,211,82,1.000)" /><rect x="15" y="9" width="1.025" height="1.025" fill="rgba(253,211,84,1.000)" /><rect x="16" y="9" width="1.025" height="1.025" fill="rgba(254,225,109,1.000)" /><rect x="17" y="9" width="1.025" height="1.025" fill="rgba(255,220,107,1.000)" /><rect x="18" y="9" width="1.025" height="1.025" fill="rgba(247,203,61,1.000)" /><rect x="19" y="9" width="1.025" height="1.025" fill="rgba(110,46,1,1.000)" /><rect x="24" y="9" width="1.025" height="1.025" fill="rgba(254,211,105,1.000)" /><rect x="25" y="9" width="1.025" height="1.025" fill="rgba(250,207,83,1.000)" /><rect x="9" y="10" width="1.025" height="1.025" fill="rgba(251,232,85,1.000)" /><rect x="10" y="10" width="1.025" height="1.025" fill="rgba(178,111,14,1.000)" /><rect x="11" y="10" width="1.025" height="1.025" fill="rgba(236,180,37,1.000)" /><rect x="12" y="10" width="1.025" height="1.025" fill="rgba(254,211,77,1.000)" /><rect x="13" y="10" width="1.025" height="1.025" fill="rgba(254,216,86,1.000)" /><rect x="14" y="10" width="1.025" height="1.025" fill="rgba(254,222,102,1.000)" /><rect x="15" y="10" width="1.025" height="1.025" fill="rgba(255,226,109,1.000)" /><rect x="16" y="10" width="1.025" height="1.025" fill="rgba(234,186,55,1.000)" /><rect x="17" y="10" width="1.025" height="1.025" fill="rgba(206,141,22,1.000)" /><rect x="18" y="10" width="1.025" height="1.025" fill="rgba(126,58,8,1.000)" /><rect x="24" y="10" width="1.025" height="1.025" fill="rgba(116,50,3,1.000)" /><rect x="25" y="10" width="1.025" height="1.025" fill="rgba(230,173,42,1.000)" /><rect x="9" y="11" width="1.025" height="1.025" fill="rgba(255,245,80,1.000)" /><rect x="10" y="11" width="1.025" height="1.025" fill="rgba(221,161,20,1.000)" /><rect x="11" y="11" width="1.025" height="1.025" fill="rgba(229,170,27,1.000)" /><rect x="12" y="11" width="1.025" height="1.025" fill="rgba(251,198,63,1.000)" /><rect x="13" y="11" width="1.025" height="1.025" fill="rgba(242,193,47,1.000)" /><rect x="14" y="11" width="1.025" height="1.025" fill="rgba(254,214,87,1.000)" /><rect x="15" y="11" width="1.025" height="1.025" fill="rgba(254,216,92,1.000)" /><rect x="16" y="11" width="1.025" height="1.025" fill="rgba(128,60,0,1.000)" /><rect x="17" y="11" width="1.025" height="1.025" fill="rgba(133,66,6,1.000)" /><rect x="25" y="11" width="1.025" height="1.025" fill="rgba(132,72,0,1.000)" /><rect x="9" y="12" width="1.025" height="1.025" fill="rgba(250,224,89,1.000)" /><rect x="10" y="12" width="1.025" height="1.025" fill="rgba(204,143,17,1.000)" /><rect x="11" y="12" width="1.025" height="1.025" fill="rgba(229,170,32,1.000)" /><rect x="12" y="12" width="1.025" height="1.025" fill="rgba(222,166,23,1.000)" /><rect x="13" y="12" width="1.025" height="1.025" fill="rgba(249,198,58,1.000)" /><rect x="14" y="12" width="1.025" height="1.025" fill="rgba(252,207,72,1.000)" /><rect x="15" y="12" width="1.025" height="1.025" fill="rgba(223,165,26,1.000)" /><rect x="16" y="12" width="1.025" height="1.025" fill="rgba(233,149,80,1.000)" /><rect x="25" y="12" width="1.025" height="1.025" fill="rgba(6,0,0,1.000)" /><rect x="9" y="13" width="1.025" height="1.025" fill="rgba(59,14,0,1.000)" /><rect x="10" y="13" width="1.025" height="1.025" fill="rgba(212,149,20,1.000)" /><rect x="11" y="13" width="1.025" height="1.025" fill="rgba(243,191,50,1.000)" /><rect x="12" y="13" width="1.025" height="1.025" fill="rgba(208,144,11,1.000)" /><rect x="13" y="13" width="1.025" height="1.025" fill="rgba(254,218,85,1.000)" /><rect x="14" y="13" width="1.025" height="1.025" fill="rgba(245,191,42,1.000)" /><rect x="15" y="13" width="1.025" height="1.025" fill="rgba(174,109,14,1.000)" /><rect x="25" y="13" width="1.025" height="1.025" fill="rgba(11,5,0,1.000)" /><rect x="9" y="14" width="1.025" height="1.025" fill="rgba(73,23,0,1.000)" /><rect x="10" y="14" width="1.025" height="1.025" fill="rgba(213,152,20,1.000)" /><rect x="11" y="14" width="1.025" height="1.025" fill="rgba(248,201,63,1.000)" /><rect x="12" y="14" width="1.025" height="1.025" fill="rgba(217,153,16,1.000)" /><rect x="13" y="14" width="1.025" height="1.025" fill="rgba(255,221,99,1.000)" /><rect x="14" y="14" width="1.025" height="1.025" fill="rgba(221,162,26,1.000)" /><rect x="15" y="14" width="1.025" height="1.025" fill="rgba(111,54,9,1.000)" /><rect x="25" y="14" width="1.025" height="1.025" fill="rgba(18,6,0,1.000)" /><rect x="9" y="15" width="1.025" height="1.025" fill="rgba(63,12,0,1.000)" /><rect x="10" y="15" width="1.025" height="1.025" fill="rgba(220,158,25,1.000)" /><rect x="11" y="15" width="1.025" height="1.025" fill="rgba(248,204,67,1.000)" /><rect x="12" y="15" width="1.025" height="1.025" fill="rgba(223,162,22,1.000)" /><rect x="13" y="15" width="1.025" height="1.025" fill="rgba(253,223,106,1.000)" /><rect x="14" y="15" width="1.025" height="1.025" fill="rgba(220,140,53,1.000)" /><rect x="15" y="15" width="1.025" height="1.025" fill="rgba(118,57,16,1.000)" /><rect x="25" y="15" width="1.025" height="1.025" fill="rgba(17,6,0,1.000)" /><rect x="9" y="16" width="1.025" height="1.025" fill="rgba(150,87,0,1.000)" /><rect x="10" y="16" width="1.025" height="1.025" fill="rgba(253,209,68,1.000)" /><rect x="11" y="16" width="1.025" height="1.025" fill="rgba(228,176,31,1.000)" /><rect x="12" y="16" width="1.025" height="1.025" fill="rgba(242,189,46,1.000)" /><rect x="13" y="16" width="1.025" height="1.025" fill="rgba(255,223,110,1.000)" /><rect x="14" y="16" width="1.025" height="1.025" fill="rgba(125,65,10,1.000)" /><rect x="25" y="16" width="1.025" height="1.025" fill="rgba(63,12,0,1.000)" /><rect x="8" y="17" width="1.025" height="1.025" fill="rgba(99,43,6,1.000)" /><rect x="9" y="17" width="1.025" height="1.025" fill="rgba(152,85,0,1.000)" /><rect x="10" y="17" width="1.025" height="1.025" fill="rgba(250,200,61,1.000)" /><rect x="11" y="17" width="1.025" height="1.025" fill="rgba(213,150,8,1.000)" /><rect x="12" y="17" width="1.025" height="1.025" fill="rgba(243,186,40,1.000)" /><rect x="13" y="17" width="1.025" height="1.025" fill="rgba(255,230,128,1.000)" /><rect x="14" y="17" width="1.025" height="1.025" fill="rgba(97,33,0,1.000)" /><rect x="25" y="17" width="1.025" height="1.025" fill="rgba(150,87,0,1.000)" /><rect x="8" y="18" width="1.025" height="1.025" fill="rgba(92,32,3,1.000)" /><rect x="9" y="18" width="1.025" height="1.025" fill="rgba(179,114,6,1.000)" /><rect x="10" y="18" width="1.025" height="1.025" fill="rgba(245,192,53,1.000)" /><rect x="11" y="18" width="1.025" height="1.025" fill="rgba(208,144,4,1.000)" /><rect x="12" y="18" width="1.025" height="1.025" fill="rgba(241,187,42,1.000)" /><rect x="13" y="18" width="1.025" height="1.025" fill="rgba(254,232,126,1.000)" /><rect x="14" y="18" width="1.025" height="1.025" fill="rgba(173,94,40,1.000)" /><rect x="25" y="18" width="1.025" height="1.025" fill="rgba(152,85,0,1.000)" /><rect x="8" y="19" width="1.025" height="1.025" fill="rgba(65,24,3,1.000)" /><rect x="9" y="19" width="1.025" height="1.025" fill="rgba(181,115,14,1.000)" /><rect x="10" y="19" width="1.025" height="1.025" fill="rgba(251,195,55,1.000)" /><rect x="11" y="19" width="1.025" height="1.025" fill="rgba(216,154,6,1.000)" /><rect x="12" y="19" width="1.025" height="1.025" fill="rgba(248,203,61,1.000)" /><rect x="13" y="19" width="1.025" height="1.025" fill="rgba(253,232,130,1.000)" /><rect x="14" y="19" width="1.025" height="1.025" fill="rgba(123,59,12,1.000)" /><rect x="25" y="19" width="1.025" height="1.025" fill="rgba(179,114,6,1.000)" /><rect x="8" y="20" width="1.025" height="1.025" fill="rgba(71,26,5,1.000)" /><rect x="9" y="20" width="1.025" height="1.025" fill="rgba(188,125,19,1.000)" /><rect x="10" y="20" width="1.025" height="1.025" fill="rgba(247,188,52,1.000)" /><rect x="11" y="20" width="1.025" height="1.025" fill="rgba(219,153,8,1.000)" /><rect x="12" y="20" width="1.025" height="1.025" fill="rgba(252,211,76,1.000)" /><rect x="13" y="20" width="1.025" height="1.025" fill="rgba(255,233,129,1.000)" /><rect x="14" y="20" width="1.025" height="1.025" fill="rgba(114,53,12,1.000)" /><rect x="25" y="20" width="1.025" height="1.025" fill="rgba(181,115,14,1.000)" /><rect x="8" y="21" width="1.025" height="1.025" fill="rgba(102,44,8,1.000)" /><rect x="9" y="21" width="1.025" height="1.025" fill="rgba(194,130,12,1.000)" /><rect x="10" y="21" width="1.025" height="1.025" fill="rgba(238,179,38,1.000)" /><rect x="11" y="21" width="1.025" height="1.025" fill="rgba(224,163,17,1.000)" /><rect x="12" y="21" width="1.025" height="1.025" fill="rgba(254,215,87,1.000)" /><rect x="13" y="21" width="1.025" height="1.025" fill="rgba(254,229,121,1.000)" /><rect x="14" y="21" width="1.025" height="1.025" fill="rgba(117,57,12,1.000)" /><rect x="25" y="21" width="1.025" height="1.025" fill="rgba(188,125,19,1.000)" /><rect x="8" y="22" width="1.025" height="1.025" fill="rgba(166,101,10,1.000)" /><rect x="9" y="22" width="1.025" height="1.025" fill="rgba(190,123,5,1.000)" /><rect x="10" y="22" width="1.025" height="1.025" fill="rgba(251,194,45,1.000)" /><rect x="11" y="22" width="1.025" height="1.025" fill="rgba(206,143,8,1.000)" /><rect x="12" y="22" width="1.025" height="1.025" fill="rgba(245,196,62,1.000)" /><rect x="13" y="22" width="1.025" height="1.025" fill="rgba(255,225,110,1.000)" /><rect x="14" y="22" width="1.025" height="1.025" fill="rgba(136,71,13,1.000)" /><rect x="24" y="22" width="1.025" height="1.025" fill="rgba(14,0,0,1.000)" /><rect x="25" y="22" width="1.025" height="1.025" fill="rgba(194,130,12,1.000)" /><rect x="8" y="23" width="1.025" height="1.025" fill="rgba(189,123,16,1.000)" /><rect x="9" y="23" width="1.025" height="1.025" fill="rgba(155,92,0,1.000)" /><rect x="10" y="23" width="1.025" height="1.025" fill="rgba(252,199,48,1.000)" /><rect x="11" y="23" width="1.025" height="1.025" fill="rgba(227,164,26,1.000)" /><rect x="12" y="23" width="1.025" height="1.025" fill="rgba(221,157,18,1.000)" /><rect x="13" y="23" width="1.025" height="1.025" fill="rgba(254,219,94,1.000)" /><rect x="14" y="23" width="1.025" height="1.025" fill="rgba(126,60,16,1.000)" /><rect x="23" y="23" width="1.025" height="1.025" fill="rgba(150,72,22,1.000)" /><rect x="24" y="23" width="1.025" height="1.025" fill="rgba(172,106,15,1.000)" /><rect x="25" y="23" width="1.025" height="1.025" fill="rgba(190,123,5,1.000)" /><rect x="8" y="24" width="1.025" height="1.025" fill="rgba(191,128,17,1.000)" /><rect x="9" y="24" width="1.025" height="1.025" fill="rgba(167,103,2,1.000)" /><rect x="10" y="24" width="1.025" height="1.025" fill="rgba(232,169,36,1.000)" /><rect x="11" y="24" width="1.025" height="1.025" fill="rgba(214,144,21,1.000)" /><rect x="12" y="24" width="1.025" height="1.025" fill="rgba(212,146,17,1.000)" /><rect x="13" y="24" width="1.025" height="1.025" fill="rgba(253,215,90,1.000)" /><rect x="14" y="24" width="1.025" height="1.025" fill="rgba(132,64,9,1.000)" /><rect x="19" y="24" width="1.025" height="1.025" fill="rgba(0,0,0,1.000)" /><rect x="20" y="24" width="1.025" height="1.025" fill="rgba(0,0,0,1.000)" /><rect x="21" y="24" width="1.025" height="1.025" fill="rgba(0,0,1,1.000)" /><rect x="22" y="24" width="1.025" height="1.025" fill="rgba(37,6,1,1.000)" /><rect x="23" y="24" width="1.025" height="1.025" fill="rgba(104,47,2,1.000)" /><rect x="24" y="24" width="1.025" height="1.025" fill="rgba(143,80,5,1.000)" /><rect x="25" y="24" width="1.025" height="1.025" fill="rgba(155,92,0,1.000)" /><rect x="8" y="25" width="1.025" height="1.025" fill="rgba(201,134,21,1.000)" /><rect x="9" y="25" width="1.025" height="1.025" fill="rgba(144,80,10,1.000)" /><rect x="10" y="25" width="1.025" height="1.025" fill="rgba(183,123,35,1.000)" /><rect x="11" y="25" width="1.025" height="1.025" fill="rgba(145,79,4,1.000)" /><rect x="12" y="25" width="1.025" height="1.025" fill="rgba(203,140,17,1.000)" /><rect x="13" y="25" width="1.025" height="1.025" fill="rgba(251,210,75,1.000)" /><rect x="14" y="25" width="1.025" height="1.025" fill="rgba(102,47,4,1.000)" /><rect x="19" y="25" width="1.025" height="1.025" fill="rgba(175,101,55,1.000)" /><rect x="20" y="25" width="1.025" height="1.025" fill="rgba(0,0,0,1.000)" /><rect x="21" y="25" width="1.025" height="1.025" fill="rgba(33,4,27,1.000)" /><rect x="22" y="25" width="1.025" height="1.025" fill="rgba(7,1,0,1.000)" /><rect x="23" y="25" width="1.025" height="1.025" fill="rgba(53,16,0,1.000)" /><rect x="24" y="25" width="1.025" height="1.025" fill="rgba(130,68,3,1.000)" /><rect x="25" y="25" width="1.025" height="1.025" fill="rgba(167,103,2,1.000)" /><rect x="8" y="26" width="1.025" height="1.025" fill="rgba(209,141,22,1.000)" /><rect x="9" y="26" width="1.025" height="1.025" fill="rgba(115,57,6,1.000)" /><rect x="11" y="26" width="1.025" height="1.025" fill="rgba(89,47,15,1.000)" /><rect x="12" y="26" width="1.025" height="1.025" fill="rgba(203,139,20,1.000)" /><rect x="13" y="26" width="1.025" height="1.025" fill="rgba(252,206,73,1.000)" /><rect x="14" y="26" width="1.025" height="1.025" fill="rgba(83,33,0,1.000)" /><rect x="19" y="26" width="1.025" height="1.025" fill="rgba(140,70,29,1.000)" /><rect x="20" y="26" width="1.025" height="1.025" fill="rgba(59,21,5,1.000)" /><rect x="21" y="26" width="1.025" height="1.025" fill="rgba(18,4,11,1.000)" /><rect x="22" y="26" width="1.025" height="1.025" fill="rgba(50,12,46,1.000)" /><rect x="23" y="26" width="1.025" height="1.025" fill="rgba(0,0,0,1.000)" /><rect x="24" y="26" width="1.025" height="1.025" fill="rgba(182,116,43,1.000)" /><rect x="25" y="26" width="1.025" height="1.025" fill="rgba(144,80,10,1.000)" /><rect x="8" y="27" width="1.025" height="1.025" fill="rgba(75,18,50,1.000)" /><rect x="11" y="27" width="1.025" height="1.025" fill="rgba(2,0,0,1.000)" /><rect x="12" y="27" width="1.025" height="1.025" fill="rgba(181,118,21,1.000)" /><rect x="13" y="27" width="1.025" height="1.025" fill="rgba(251,199,68,1.000)" /><rect x="14" y="27" width="1.025" height="1.025" fill="rgba(156,79,30,1.000)" /><rect x="19" y="27" width="1.025" height="1.025" fill="rgba(177,98,41,1.000)" /><rect x="20" y="27" width="1.025" height="1.025" fill="rgba(128,60,19,1.000)" /><rect x="21" y="27" width="1.025" height="1.025" fill="rgba(4,0,0,1.000)" /><rect x="22" y="27" width="1.025" height="1.025" fill="rgba(59,15,49,1.000)" /><rect x="13" y="28" width="1.025" height="1.025" fill="rgba(243,189,58,1.000)" /><rect x="14" y="28" width="1.025" height="1.025" fill="rgba(238,161,69,1.000)" /></svg>