<svg shape-rendering="crispEdges" xmlns="http://www.w3.org/2000/svg" version="1.1" width="37" height="37"><style>rect { image-rendering: pixelated; }</style><rect x="14" y="4" width="1.025" height="1.025" fill="rgba(28,11,1,1.000)" /><rect x="15" y="4" width="1.025" height="1.025" fill="rgba(32,12,0,1.000)" /><rect x="16" y="4" width="1.025" height="1.025" fill="rgba(49,22,0,1.000)" /><rect x="17" y="4" width="1.025" height="1.025" fill="rgba(44,18,0,1.000)" /><rect x="18" y="4" width="1.025" height="1.025" fill="rgba(30,12,1,1.000)" /><rect x="19" y="4" width="1.025" height="1.025" fill="rgba(19,6,0,1.000)" /><rect x="20" y="4" width="1.025" height="1.025" fill="rgba(19,6,1,1.000)" /><rect x="21" y="4" width="1.025" height="1.025" fill="rgba(19,6,0,1.000)" /><rect x="22" y="4" width="1.025" height="1.025" fill="rgba(19,4,0,1.000)" /><rect x="12" y="5" width="1.025" height="1.025" fill="rgba(2,0,0,1.000)" /><rect x="13" y="5" width="1.025" height="1.025" fill="rgba(110,48,16,1.000)" /><rect x="14" y="5" width="1.025" height="1.025" fill="rgba(95,39,8,1.000)" /><rect x="15" y="5" width="1.025" height="1.025" fill="rgba(107,46,10,1.000)" /><rect x="16" y="5" width="1.025" height="1.025" fill="rgba(97,30,0,1.000)" /><rect x="17" y="5" width="1.025" height="1.025" fill="rgba(121,49,9,1.000)" /><rect x="18" y="5" width="1.025" height="1.025" fill="rgba(97,37,2,1.000)" /><rect x="19" y="5" width="1.025" height="1.025" fill="rgba(106,47,13,1.000)" /><rect x="20" y="5" width="1.025" height="1.025" fill="rgba(108,47,15,1.000)" /><rect x="21" y="5" width="1.025" height="1.025" fill="rgba(106,45,10,1.000)" /><rect x="22" y="5" width="1.025" height="1.025" fill="rgba(108,46,13,1.000)" /><rect x="23" y="5" width="1.025" height="1.025" fill="rgba(92,38,12,1.000)" /><rect x="11" y="6" width="1.025" height="1.025" fill="rgba(15,0,0,1.000)" /><rect x="12" y="6" width="1.025" height="1.025" fill="rgba(54,11,0,1.000)" /><rect x="13" y="6" width="1.025" height="1.025" fill="rgba(121,44,7,1.000)" /><rect x="14" y="6" width="1.025" height="1.025" fill="rgba(121,44,5,1.000)" /><rect x="15" y="6" width="1.025" height="1.025" fill="rgba(121,46,11,1.000)" /><rect x="16" y="6" width="1.025" height="1.025" fill="rgba(124,48,6,1.000)" /><rect x="17" y="6" width="1.025" height="1.025" fill="rgba(135,55,12,1.000)" /><rect x="18" y="6" width="1.025" height="1.025" fill="rgba(124,45,3,1.000)" /><rect x="19" y="6" width="1.025" height="1.025" fill="rgba(118,46,4,1.000)" /><rect x="20" y="6" width="1.025" height="1.025" fill="rgba(121,50,8,1.000)" /><rect x="21" y="6" width="1.025" height="1.025" fill="rgba(121,51,8,1.000)" /><rect x="22" y="6" width="1.025" height="1.025" fill="rgba(121,51,8,1.000)" /><rect x="23" y="6" width="1.025" height="1.025" fill="rgba(98,31,2,1.000)" /><rect x="24" y="6" width="1.025" height="1.025" fill="rgba(76,22,0,1.000)" /><rect x="11" y="7" width="1.025" height="1.025" fill="rgba(16,6,0,1.000)" /><rect x="12" y="7" width="1.025" height="1.025" fill="rgba(90,29,3,1.000)" /><rect x="13" y="7" width="1.025" height="1.025" fill="rgba(121,42,3,1.000)" /><rect x="14" y="7" width="1.025" height="1.025" fill="rgba(138,61,12,1.000)" /><rect x="15" y="7" width="1.025" height="1.025" fill="rgba(104,34,0,1.000)" /><rect x="16" y="7" width="1.025" height="1.025" fill="rgba(139,59,15,1.000)" /><rect x="17" y="7" width="1.025" height="1.025" fill="rgba(119,42,4,1.000)" /><rect x="18" y="7" width="1.025" height="1.025" fill="rgba(141,58,8,1.000)" /><rect x="19" y="7" width="1.025" height="1.025" fill="rgba(141,58,8,1.000)" /><rect x="20" y="7" width="1.025" height="1.025" fill="rgba(69,28,4,1.000)" /><rect x="21" y="7" width="1.025" height="1.025" fill="rgba(37,15,0,1.000)" /><rect x="22" y="7" width="1.025" height="1.025" fill="rgba(53,17,3,1.000)" /><rect x="23" y="7" width="1.025" height="1.025" fill="rgba(98,31,3,1.000)" /><rect x="24" y="7" width="1.025" height="1.025" fill="rgba(115,47,10,1.000)" /><rect x="25" y="7" width="1.025" height="1.025" fill="rgba(12,2,0,1.000)" /><rect x="10" y="8" width="1.025" height="1.025" fill="rgba(0,0,3,1.000)" /><rect x="11" y="8" width="1.025" height="1.025" fill="rgba(82,28,2,1.000)" /><rect x="12" y="8" width="1.025" height="1.025" fill="rgba(103,37,3,1.000)" /><rect x="13" y="8" width="1.025" height="1.025" fill="rgba(122,47,4,1.000)" /><rect x="14" y="8" width="1.025" height="1.025" fill="rgba(142,67,17,1.000)" /><rect x="15" y="8" width="1.025" height="1.025" fill="rgba(105,31,2,1.000)" /><rect x="16" y="8" width="1.025" height="1.025" fill="rgba(146,69,20,1.000)" /><rect x="17" y="8" width="1.025" height="1.025" fill="rgba(127,51,8,1.000)" /><rect x="18" y="8" width="1.025" height="1.025" fill="rgba(113,48,21,1.000)" /><rect x="19" y="8" width="1.025" height="1.025" fill="rgba(113,48,21,1.000)" /><rect x="20" y="8" width="1.025" height="1.025" fill="rgba(69,28,4,1.000)" /><rect x="23" y="8" width="1.025" height="1.025" fill="rgba(39,4,0,1.000)" /><rect x="24" y="8" width="1.025" height="1.025" fill="rgba(122,56,18,1.000)" /><rect x="25" y="8" width="1.025" height="1.025" fill="rgba(60,14,0,1.000)" /><rect x="10" y="9" width="1.025" height="1.025" fill="rgba(0,2,0,1.000)" /><rect x="11" y="9" width="1.025" height="1.025" fill="rgba(105,39,0,1.000)" /><rect x="12" y="9" width="1.025" height="1.025" fill="rgba(101,38,4,1.000)" /><rect x="13" y="9" width="1.025" height="1.025" fill="rgba(134,57,14,1.000)" /><rect x="14" y="9" width="1.025" height="1.025" fill="rgba(122,47,7,1.000)" /><rect x="15" y="9" width="1.025" height="1.025" fill="rgba(80,18,0,1.000)" /><rect x="16" y="9" width="1.025" height="1.025" fill="rgba(109,43,2,1.000)" /><rect x="17" y="9" width="1.025" height="1.025" fill="rgba(127,51,8,1.000)" /><rect x="18" y="9" width="1.025" height="1.025" fill="rgba(113,48,21,1.000)" /><rect x="19" y="9" width="1.025" height="1.025" fill="rgba(69,28,4,1.000)" /><rect x="24" y="9" width="1.025" height="1.025" fill="rgba(54,12,0,1.000)" /><rect x="25" y="9" width="1.025" height="1.025" fill="rgba(75,26,1,1.000)" /><rect x="9" y="10" width="1.025" height="1.025" fill="rgba(0,0,3,1.000)" /><rect x="10" y="10" width="1.025" height="1.025" fill="rgba(57,20,0,1.000)" /><rect x="11" y="10" width="1.025" height="1.025" fill="rgba(111,45,4,1.000)" /><rect x="12" y="10" width="1.025" height="1.025" fill="rgba(87,31,2,1.000)" /><rect x="13" y="10" width="1.025" height="1.025" fill="rgba(113,44,1,1.000)" /><rect x="14" y="10" width="1.025" height="1.025" fill="rgba(112,42,2,1.000)" /><rect x="15" y="10" width="1.025" height="1.025" fill="rgba(91,28,1,1.000)" /><rect x="16" y="10" width="1.025" height="1.025" fill="rgba(87,33,1,1.000)" /><rect x="17" y="10" width="1.025" height="1.025" fill="rgba(75,32,4,1.000)" /><rect x="18" y="10" width="1.025" height="1.025" fill="rgba(81,21,0,1.000)" /><rect x="24" y="10" width="1.025" height="1.025" fill="rgba(33,6,0,1.000)" /><rect x="25" y="10" width="1.025" height="1.025" fill="rgba(68,25,1,1.000)" /><rect x="9" y="11" width="1.025" height="1.025" fill="rgba(57,20,0,1.000)" /><rect x="10" y="11" width="1.025" height="1.025" fill="rgba(69,23,0,1.000)" /><rect x="11" y="11" width="1.025" height="1.025" fill="rgba(110,45,4,1.000)" /><rect x="12" y="11" width="1.025" height="1.025" fill="rgba(90,30,3,1.000)" /><rect x="13" y="11" width="1.025" height="1.025" fill="rgba(95,35,0,1.000)" /><rect x="14" y="11" width="1.025" height="1.025" fill="rgba(98,34,1,1.000)" /><rect x="15" y="11" width="1.025" height="1.025" fill="rgba(96,34,0,1.000)" /><rect x="16" y="11" width="1.025" height="1.025" fill="rgba(50,17,0,1.000)" /><rect x="17" y="11" width="1.025" height="1.025" fill="rgba(81,21,0,1.000)" /><rect x="25" y="11" width="1.025" height="1.025" fill="rgba(62,25,2,1.000)" /><rect x="9" y="12" width="1.025" height="1.025" fill="rgba(69,23,0,1.000)" /><rect x="10" y="12" width="1.025" height="1.025" fill="rgba(83,29,0,1.000)" /><rect x="11" y="12" width="1.025" height="1.025" fill="rgba(78,24,0,1.000)" /><rect x="12" y="12" width="1.025" height="1.025" fill="rgba(99,42,2,1.000)" /><rect x="13" y="12" width="1.025" height="1.025" fill="rgba(92,33,1,1.000)" /><rect x="14" y="12" width="1.025" height="1.025" fill="rgba(69,20,0,1.000)" /><rect x="15" y="12" width="1.025" height="1.025" fill="rgba(67,21,0,1.000)" /><rect x="16" y="12" width="1.025" height="1.025" fill="rgba(63,23,3,1.000)" /><rect x="25" y="12" width="1.025" height="1.025" fill="rgba(37,13,0,1.000)" /><rect x="9" y="13" width="1.025" height="1.025" fill="rgba(42,21,7,1.000)" /><rect x="10" y="13" width="1.025" height="1.025" fill="rgba(92,38,1,1.000)" /><rect x="11" y="13" width="1.025" height="1.025" fill="rgba(69,22,0,1.000)" /><rect x="12" y="13" width="1.025" height="1.025" fill="rgba(93,40,3,1.000)" /><rect x="13" y="13" width="1.025" height="1.025" fill="rgba(85,32,0,1.000)" /><rect x="14" y="13" width="1.025" height="1.025" fill="rgba(93,37,0,1.000)" /><rect x="15" y="13" width="1.025" height="1.025" fill="rgba(62,25,0,1.000)" /><rect x="25" y="13" width="1.025" height="1.025" fill="rgba(29,13,0,1.000)" /><rect x="9" y="14" width="1.025" height="1.025" fill="rgba(54,28,8,1.000)" /><rect x="10" y="14" width="1.025" height="1.025" fill="rgba(90,37,0,1.000)" /><rect x="11" y="14" width="1.025" height="1.025" fill="rgba(68,22,0,1.000)" /><rect x="12" y="14" width="1.025" height="1.025" fill="rgba(103,46,7,1.000)" /><rect x="13" y="14" width="1.025" height="1.025" fill="rgba(82,28,0,1.000)" /><rect x="14" y="14" width="1.025" height="1.025" fill="rgba(82,31,2,1.000)" /><rect x="15" y="14" width="1.025" height="1.025" fill="rgba(61,27,1,1.000)" /><rect x="25" y="14" width="1.025" height="1.025" fill="rgba(29,14,0,1.000)" /><rect x="9" y="15" width="1.025" height="1.025" fill="rgba(62,30,13,1.000)" /><rect x="10" y="15" width="1.025" height="1.025" fill="rgba(100,42,5,1.000)" /><rect x="11" y="15" width="1.025" height="1.025" fill="rgba(73,25,0,1.000)" /><rect x="12" y="15" width="1.025" height="1.025" fill="rgba(108,51,11,1.000)" /><rect x="13" y="15" width="1.025" height="1.025" fill="rgba(85,33,0,1.000)" /><rect x="14" y="15" width="1.025" height="1.025" fill="rgba(85,32,2,1.000)" /><rect x="15" y="15" width="1.025" height="1.025" fill="rgba(18,7,0,1.000)" /><rect x="25" y="15" width="1.025" height="1.025" fill="rgba(23,11,1,1.000)" /><rect x="9" y="16" width="1.025" height="1.025" fill="rgba(67,30,14,1.000)" /><rect x="10" y="16" width="1.025" height="1.025" fill="rgba(80,29,0,1.000)" /><rect x="11" y="16" width="1.025" height="1.025" fill="rgba(70,23,0,1.000)" /><rect x="12" y="16" width="1.025" height="1.025" fill="rgba(91,38,7,1.000)" /><rect x="13" y="16" width="1.025" height="1.025" fill="rgba(87,32,0,1.000)" /><rect x="14" y="16" width="1.025" height="1.025" fill="rgba(64,23,0,1.000)" /><rect x="25" y="16" width="1.025" height="1.025" fill="rgba(6,1,0,1.000)" /><rect x="8" y="17" width="1.025" height="1.025" fill="rgba(20,10,0,1.000)" /><rect x="9" y="17" width="1.025" height="1.025" fill="rgba(71,26,8,1.000)" /><rect x="10" y="17" width="1.025" height="1.025" fill="rgba(70,21,0,1.000)" /><rect x="11" y="17" width="1.025" height="1.025" fill="rgba(93,33,0,1.000)" /><rect x="12" y="17" width="1.025" height="1.025" fill="rgba(84,34,3,1.000)" /><rect x="13" y="17" width="1.025" height="1.025" fill="rgba(93,36,2,1.000)" /><rect x="14" y="17" width="1.025" height="1.025" fill="rgba(68,25,0,1.000)" /><rect x="25" y="17" width="1.025" height="1.025" fill="rgba(1,0,0,1.000)" /><rect x="8" y="18" width="1.025" height="1.025" fill="rgba(20,4,0,1.000)" /><rect x="9" y="18" width="1.025" height="1.025" fill="rgba(80,33,7,1.000)" /><rect x="10" y="18" width="1.025" height="1.025" fill="rgba(60,21,0,1.000)" /><rect x="11" y="18" width="1.025" height="1.025" fill="rgba(87,32,0,1.000)" /><rect x="12" y="18" width="1.025" height="1.025" fill="rgba(58,21,1,1.000)" /><rect x="13" y="18" width="1.025" height="1.025" fill="rgba(87,33,0,1.000)" /><rect x="14" y="18" width="1.025" height="1.025" fill="rgba(68,25,0,1.000)" /><rect x="25" y="18" width="1.025" height="1.025" fill="rgba(1,0,0,1.000)" /><rect x="8" y="19" width="1.025" height="1.025" fill="rgba(13,4,0,1.000)" /><rect x="9" y="19" width="1.025" height="1.025" fill="rgba(68,24,8,1.000)" /><rect x="10" y="19" width="1.025" height="1.025" fill="rgba(60,20,1,1.000)" /><rect x="11" y="19" width="1.025" height="1.025" fill="rgba(86,34,0,1.000)" /><rect x="12" y="19" width="1.025" height="1.025" fill="rgba(52,19,0,1.000)" /><rect x="13" y="19" width="1.025" height="1.025" fill="rgba(87,30,0,1.000)" /><rect x="14" y="19" width="1.025" height="1.025" fill="rgba(68,24,0,1.000)" /><rect x="25" y="19" width="1.025" height="1.025" fill="rgba(1,0,0,1.000)" /><rect x="8" y="20" width="1.025" height="1.025" fill="rgba(18,6,0,1.000)" /><rect x="9" y="20" width="1.025" height="1.025" fill="rgba(68,26,4,1.000)" /><rect x="10" y="20" width="1.025" height="1.025" fill="rgba(52,17,0,1.000)" /><rect x="11" y="20" width="1.025" height="1.025" fill="rgba(80,32,0,1.000)" /><rect x="12" y="20" width="1.025" height="1.025" fill="rgba(46,19,1,1.000)" /><rect x="13" y="20" width="1.025" height="1.025" fill="rgba(99,37,2,1.000)" /><rect x="14" y="20" width="1.025" height="1.025" fill="rgba(72,25,0,1.000)" /><rect x="25" y="20" width="1.025" height="1.025" fill="rgba(0,0,0,1.000)" /><rect x="8" y="21" width="1.025" height="1.025" fill="rgba(32,12,0,1.000)" /><rect x="9" y="21" width="1.025" height="1.025" fill="rgba(90,37,5,1.000)" /><rect x="10" y="21" width="1.025" height="1.025" fill="rgba(62,22,0,1.000)" /><rect x="11" y="21" width="1.025" height="1.025" fill="rgba(74,31,0,1.000)" /><rect x="12" y="21" width="1.025" height="1.025" fill="rgba(44,15,0,1.000)" /><rect x="13" y="21" width="1.025" height="1.025" fill="rgba(104,43,5,1.000)" /><rect x="14" y="21" width="1.025" height="1.025" fill="rgba(74,28,0,1.000)" /><rect x="25" y="21" width="1.025" height="1.025" fill="rgba(0,0,0,1.000)" /><rect x="8" y="22" width="1.025" height="1.025" fill="rgba(56,19,0,1.000)" /><rect x="9" y="22" width="1.025" height="1.025" fill="rgba(94,38,6,1.000)" /><rect x="10" y="22" width="1.025" height="1.025" fill="rgba(69,26,0,1.000)" /><rect x="11" y="22" width="1.025" height="1.025" fill="rgba(71,28,0,1.000)" /><rect x="12" y="22" width="1.025" height="1.025" fill="rgba(40,11,0,1.000)" /><rect x="13" y="22" width="1.025" height="1.025" fill="rgba(108,41,2,1.000)" /><rect x="14" y="22" width="1.025" height="1.025" fill="rgba(73,27,0,1.000)" /><rect x="24" y="22" width="1.025" height="1.025" fill="rgba(10,0,0,1.000)" /><rect x="25" y="22" width="1.025" height="1.025" fill="rgba(58,17,1,1.000)" /><rect x="8" y="23" width="1.025" height="1.025" fill="rgba(60,21,0,1.000)" /><rect x="9" y="23" width="1.025" height="1.025" fill="rgba(83,33,3,1.000)" /><rect x="10" y="23" width="1.025" height="1.025" fill="rgba(76,33,0,1.000)" /><rect x="11" y="23" width="1.025" height="1.025" fill="rgba(48,19,0,1.000)" /><rect x="12" y="23" width="1.025" height="1.025" fill="rgba(33,11,0,1.000)" /><rect x="13" y="23" width="1.025" height="1.025" fill="rgba(116,51,5,1.000)" /><rect x="14" y="23" width="1.025" height="1.025" fill="rgba(74,25,0,1.000)" /><rect x="23" y="23" width="1.025" height="1.025" fill="rgba(0,0,1,1.000)" /><rect x="24" y="23" width="1.025" height="1.025" fill="rgba(37,12,0,1.000)" /><rect x="25" y="23" width="1.025" height="1.025" fill="rgba(73,22,3,1.000)" /><rect x="8" y="24" width="1.025" height="1.025" fill="rgba(68,25,0,1.000)" /><rect x="9" y="24" width="1.025" height="1.025" fill="rgba(81,34,10,1.000)" /><rect x="10" y="24" width="1.025" height="1.025" fill="rgba(41,19,0,1.000)" /><rect x="11" y="24" width="1.025" height="1.025" fill="rgba(35,9,0,1.000)" /><rect x="12" y="24" width="1.025" height="1.025" fill="rgba(34,9,0,1.000)" /><rect x="13" y="24" width="1.025" height="1.025" fill="rgba(106,44,4,1.000)" /><rect x="14" y="24" width="1.025" height="1.025" fill="rgba(78,26,0,1.000)" /><rect x="19" y="24" width="1.025" height="1.025" fill="rgba(112,41,4,1.000)" /><rect x="20" y="24" width="1.025" height="1.025" fill="rgba(13,5,0,1.000)" /><rect x="21" y="24" width="1.025" height="1.025" fill="rgba(0,0,1,1.000)" /><rect x="22" y="24" width="1.025" height="1.025" fill="rgba(0,0,0,1.000)" /><rect x="23" y="24" width="1.025" height="1.025" fill="rgba(24,7,0,1.000)" /><rect x="24" y="24" width="1.025" height="1.025" fill="rgba(45,14,0,1.000)" /><rect x="25" y="24" width="1.025" height="1.025" fill="rgba(90,36,1,1.000)" /><rect x="8" y="25" width="1.025" height="1.025" fill="rgba(74,24,0,1.000)" /><rect x="9" y="25" width="1.025" height="1.025" fill="rgba(75,31,11,1.000)" /><rect x="10" y="25" width="1.025" height="1.025" fill="rgba(20,8,0,1.000)" /><rect x="11" y="25" width="1.025" height="1.025" fill="rgba(17,3,0,1.000)" /><rect x="12" y="25" width="1.025" height="1.025" fill="rgba(31,13,0,1.000)" /><rect x="13" y="25" width="1.025" height="1.025" fill="rgba(105,46,2,1.000)" /><rect x="14" y="25" width="1.025" height="1.025" fill="rgba(82,30,0,1.000)" /><rect x="19" y="25" width="1.025" height="1.025" fill="rgba(162,71,23,1.000)" /><rect x="20" y="25" width="1.025" height="1.025" fill="rgba(67,20,0,1.000)" /><rect x="21" y="25" width="1.025" height="1.025" fill="rgba(17,5,17,1.000)" /><rect x="22" y="25" width="1.025" height="1.025" fill="rgba(16,6,11,1.000)" /><rect x="23" y="25" width="1.025" height="1.025" fill="rgba(35,12,0,1.000)" /><rect x="24" y="25" width="1.025" height="1.025" fill="rgba(55,17,0,1.000)" /><rect x="25" y="25" width="1.025" height="1.025" fill="rgba(89,31,3,1.000)" /><rect x="8" y="26" width="1.025" height="1.025" fill="rgba(74,23,0,1.000)" /><rect x="9" y="26" width="1.025" height="1.025" fill="rgba(56,21,6,1.000)" /><rect x="10" y="26" width="1.025" height="1.025" fill="rgba(41,19,0,1.000)" /><rect x="11" y="26" width="1.025" height="1.025" fill="rgba(8,2,0,1.000)" /><rect x="12" y="26" width="1.025" height="1.025" fill="rgba(25,7,0,1.000)" /><rect x="13" y="26" width="1.025" height="1.025" fill="rgba(88,33,2,1.000)" /><rect x="14" y="26" width="1.025" height="1.025" fill="rgba(85,30,0,1.000)" /><rect x="19" y="26" width="1.025" height="1.025" fill="rgba(181,84,34,1.000)" /><rect x="20" y="26" width="1.025" height="1.025" fill="rgba(95,34,1,1.000)" /><rect x="21" y="26" width="1.025" height="1.025" fill="rgba(22,9,20,1.000)" /><rect x="22" y="26" width="1.025" height="1.025" fill="rgba(43,15,31,1.000)" /><rect x="23" y="26" width="1.025" height="1.025" fill="rgba(10,2,1,1.000)" /><rect x="24" y="26" width="1.025" height="1.025" fill="rgba(71,22,1,1.000)" /><rect x="25" y="26" width="1.025" height="1.025" fill="rgba(83,26,1,1.000)" /><rect x="8" y="27" width="1.025" height="1.025" fill="rgba(71,30,8,1.000)" /><rect x="10" y="27" width="1.025" height="1.025" fill="rgba(41,19,0,1.000)" /><rect x="11" y="27" width="1.025" height="1.025" fill="rgba(13,0,6,1.000)" /><rect x="12" y="27" width="1.025" height="1.025" fill="rgba(16,6,5,1.000)" /><rect x="13" y="27" width="1.025" height="1.025" fill="rgba(74,23,0,1.000)" /><rect x="14" y="27" width="1.025" height="1.025" fill="rgba(88,28,0,1.000)" /><rect x="19" y="27" width="1.025" height="1.025" fill="rgba(189,95,39,1.000)" /><rect x="20" y="27" width="1.025" height="1.025" fill="rgba(105,35,1,1.000)" /><rect x="21" y="27" width="1.025" height="1.025" fill="rgba(11,5,4,1.000)" /><rect x="22" y="27" width="1.025" height="1.025" fill="rgba(45,9,22,1.000)" /><rect x="13" y="28" width="1.025" height="1.025" fill="rgba(75,27,0,1.000)" /><rect x="14" y="28" width="1.025" height="1.025" fill="rgba(89,33,0,1.000)" /></svg>