<svg shape-rendering="crispEdges" xmlns="http://www.w3.org/2000/svg" version="1.1" width="37" height="37"><style>rect { image-rendering: pixelated; }</style><rect x="14" y="4" width="1.025" height="1.025" fill="rgba(2,1,15,1.000)" /><rect x="15" y="4" width="1.025" height="1.025" fill="rgba(5,0,0,1.000)" /><rect x="16" y="4" width="1.025" height="1.025" fill="rgba(16,4,2,1.000)" /><rect x="17" y="4" width="1.025" height="1.025" fill="rgba(1,0,1,1.000)" /><rect x="18" y="4" width="1.025" height="1.025" fill="rgba(1,2,7,1.000)" /><rect x="19" y="4" width="1.025" height="1.025" fill="rgba(0,0,7,1.000)" /><rect x="20" y="4" width="1.025" height="1.025" fill="rgba(0,0,4,1.000)" /><rect x="21" y="4" width="1.025" height="1.025" fill="rgba(0,0,15,1.000)" /><rect x="22" y="4" width="1.025" height="1.025" fill="rgba(1,0,0,1.000)" /><rect x="12" y="5" width="1.025" height="1.025" fill="rgba(0,0,4,1.000)" /><rect x="13" y="5" width="1.025" height="1.025" fill="rgba(91,10,189,1.000)" /><rect x="14" y="5" width="1.025" height="1.025" fill="rgba(88,19,191,1.000)" /><rect x="15" y="5" width="1.025" height="1.025" fill="rgba(186,35,196,1.000)" /><rect x="16" y="5" width="1.025" height="1.025" fill="rgba(122,26,205,1.000)" /><rect x="17" y="5" width="1.025" height="1.025" fill="rgba(86,34,195,1.000)" /><rect x="18" y="5" width="1.025" height="1.025" fill="rgba(3,90,223,1.000)" /><rect x="19" y="5" width="1.025" height="1.025" fill="rgba(14,115,224,1.000)" /><rect x="20" y="5" width="1.025" height="1.025" fill="rgba(15,121,152,1.000)" /><rect x="21" y="5" width="1.025" height="1.025" fill="rgba(42,62,142,1.000)" /><rect x="22" y="5" width="1.025" height="1.025" fill="rgba(125,102,111,1.000)" /><rect x="23" y="5" width="1.025" height="1.025" fill="rgba(30,117,223,1.000)" /><rect x="11" y="6" width="1.025" height="1.025" fill="rgba(2,0,0,1.000)" /><rect x="12" y="6" width="1.025" height="1.025" fill="rgba(32,4,144,1.000)" /><rect x="13" y="6" width="1.025" height="1.025" fill="rgba(114,26,224,1.000)" /><rect x="14" y="6" width="1.025" height="1.025" fill="rgba(157,40,224,1.000)" /><rect x="15" y="6" width="1.025" height="1.025" fill="rgba(145,39,215,1.000)" /><rect x="16" y="6" width="1.025" height="1.025" fill="rgba(67,75,224,1.000)" /><rect x="17" y="6" width="1.025" height="1.025" fill="rgba(9,148,233,1.000)" /><rect x="18" y="6" width="1.025" height="1.025" fill="rgba(23,188,162,1.000)" /><rect x="19" y="6" width="1.025" height="1.025" fill="rgba(45,210,45,1.000)" /><rect x="20" y="6" width="1.025" height="1.025" fill="rgba(199,188,0,1.000)" /><rect x="21" y="6" width="1.025" height="1.025" fill="rgba(95,63,149,1.000)" /><rect x="22" y="6" width="1.025" height="1.025" fill="rgba(228,107,83,1.000)" /><rect x="23" y="6" width="1.025" height="1.025" fill="rgba(50,181,63,1.000)" /><rect x="24" y="6" width="1.025" height="1.025" fill="rgba(3,78,199,1.000)" /><rect x="11" y="7" width="1.025" height="1.025" fill="rgba(0,5,12,1.000)" /><rect x="12" y="7" width="1.025" height="1.025" fill="rgba(33,23,191,1.000)" /><rect x="13" y="7" width="1.025" height="1.025" fill="rgba(219,44,207,1.000)" /><rect x="14" y="7" width="1.025" height="1.025" fill="rgba(254,55,175,1.000)" /><rect x="15" y="7" width="1.025" height="1.025" fill="rgba(128,42,186,1.000)" /><rect x="16" y="7" width="1.025" height="1.025" fill="rgba(37,107,234,1.000)" /><rect x="17" y="7" width="1.025" height="1.025" fill="rgba(0,181,201,1.000)" /><rect x="18" y="7" width="1.025" height="1.025" fill="rgba(206,199,11,1.000)" /><rect x="19" y="7" width="1.025" height="1.025" fill="rgba(229,157,0,1.000)" /><rect x="20" y="7" width="1.025" height="1.025" fill="rgba(249,90,29,1.000)" /><rect x="21" y="7" width="1.025" height="1.025" fill="rgba(171,90,46,1.000)" /><rect x="22" y="7" width="1.025" height="1.025" fill="rgba(219,106,126,1.000)" /><rect x="23" y="7" width="1.025" height="1.025" fill="rgba(203,147,14,1.000)" /><rect x="24" y="7" width="1.025" height="1.025" fill="rgba(0,153,212,1.000)" /><rect x="25" y="7" width="1.025" height="1.025" fill="rgba(0,24,81,1.000)" /><rect x="10" y="8" width="1.025" height="1.025" fill="rgba(0,0,15,1.000)" /><rect x="11" y="8" width="1.025" height="1.025" fill="rgba(32,27,141,1.000)" /><rect x="12" y="8" width="1.025" height="1.025" fill="rgba(32,30,204,1.000)" /><rect x="13" y="8" width="1.025" height="1.025" fill="rgba(249,58,180,1.000)" /><rect x="14" y="8" width="1.025" height="1.025" fill="rgba(254,66,185,1.000)" /><rect x="15" y="8" width="1.025" height="1.025" fill="rgba(81,48,216,1.000)" /><rect x="16" y="8" width="1.025" height="1.025" fill="rgba(23,131,248,1.000)" /><rect x="17" y="8" width="1.025" height="1.025" fill="rgba(39,206,97,1.000)" /><rect x="18" y="8" width="1.025" height="1.025" fill="rgba(244,140,1,1.000)" /><rect x="19" y="8" width="1.025" height="1.025" fill="rgba(249,64,53,1.000)" /><rect x="20" y="8" width="1.025" height="1.025" fill="rgba(101,60,121,1.000)" /><rect x="23" y="8" width="1.025" height="1.025" fill="rgba(146,4,119,1.000)" /><rect x="24" y="8" width="1.025" height="1.025" fill="rgba(129,207,49,1.000)" /><rect x="25" y="8" width="1.025" height="1.025" fill="rgba(1,156,126,1.000)" /><rect x="10" y="9" width="1.025" height="1.025" fill="rgba(4,5,23,1.000)" /><rect x="11" y="9" width="1.025" height="1.025" fill="rgba(29,49,201,1.000)" /><rect x="12" y="9" width="1.025" height="1.025" fill="rgba(65,55,229,1.000)" /><rect x="13" y="9" width="1.025" height="1.025" fill="rgba(252,55,193,1.000)" /><rect x="14" y="9" width="1.025" height="1.025" fill="rgba(172,43,212,1.000)" /><rect x="15" y="9" width="1.025" height="1.025" fill="rgba(15,124,212,1.000)" /><rect x="16" y="9" width="1.025" height="1.025" fill="rgba(68,203,57,1.000)" /><rect x="17" y="9" width="1.025" height="1.025" fill="rgba(184,154,14,1.000)" /><rect x="18" y="9" width="1.025" height="1.025" fill="rgba(197,30,74,1.000)" /><rect x="19" y="9" width="1.025" height="1.025" fill="rgba(134,59,55,1.000)" /><rect x="24" y="9" width="1.025" height="1.025" fill="rgba(216,28,151,1.000)" /><rect x="25" y="9" width="1.025" height="1.025" fill="rgba(56,118,59,1.000)" /><rect x="9" y="10" width="1.025" height="1.025" fill="rgba(0,0,6,1.000)" /><rect x="10" y="10" width="1.025" height="1.025" fill="rgba(2,20,113,1.000)" /><rect x="11" y="10" width="1.025" height="1.025" fill="rgba(51,56,219,1.000)" /><rect x="12" y="10" width="1.025" height="1.025" fill="rgba(99,51,226,1.000)" /><rect x="13" y="10" width="1.025" height="1.025" fill="rgba(201,35,177,1.000)" /><rect x="14" y="10" width="1.025" height="1.025" fill="rgba(149,53,203,1.000)" /><rect x="15" y="10" width="1.025" height="1.025" fill="rgba(58,205,126,1.000)" /><rect x="16" y="10" width="1.025" height="1.025" fill="rgba(212,154,0,1.000)" /><rect x="17" y="10" width="1.025" height="1.025" fill="rgba(248,86,30,1.000)" /><rect x="18" y="10" width="1.025" height="1.025" fill="rgba(104,61,100,1.000)" /><rect x="24" y="10" width="1.025" height="1.025" fill="rgba(141,0,53,1.000)" /><rect x="25" y="10" width="1.025" height="1.025" fill="rgba(125,20,66,1.000)" /><rect x="9" y="11" width="1.025" height="1.025" fill="rgba(0,0,9,1.000)" /><rect x="10" y="11" width="1.025" height="1.025" fill="rgba(8,39,157,1.000)" /><rect x="11" y="11" width="1.025" height="1.025" fill="rgba(64,55,225,1.000)" /><rect x="12" y="11" width="1.025" height="1.025" fill="rgba(178,33,208,1.000)" /><rect x="13" y="11" width="1.025" height="1.025" fill="rgba(126,38,203,1.000)" /><rect x="14" y="11" width="1.025" height="1.025" fill="rgba(69,64,201,1.000)" /><rect x="15" y="11" width="1.025" height="1.025" fill="rgba(129,200,24,1.000)" /><rect x="16" y="11" width="1.025" height="1.025" fill="rgba(253,48,28,1.000)" /><rect x="17" y="11" width="1.025" height="1.025" fill="rgba(75,18,125,1.000)" /><rect x="25" y="11" width="1.025" height="1.025" fill="rgba(137,32,67,1.000)" /><rect x="9" y="12" width="1.025" height="1.025" fill="rgba(0,0,23,1.000)" /><rect x="10" y="12" width="1.025" height="1.025" fill="rgba(10,57,199,1.000)" /><rect x="11" y="12" width="1.025" height="1.025" fill="rgba(52,49,216,1.000)" /><rect x="12" y="12" width="1.025" height="1.025" fill="rgba(207,38,190,1.000)" /><rect x="13" y="12" width="1.025" height="1.025" fill="rgba(33,81,218,1.000)" /><rect x="14" y="12" width="1.025" height="1.025" fill="rgba(4,156,131,1.000)" /><rect x="15" y="12" width="1.025" height="1.025" fill="rgba(207,131,10,1.000)" /><rect x="16" y="12" width="1.025" height="1.025" fill="rgba(150,9,145,1.000)" /><rect x="25" y="12" width="1.025" height="1.025" fill="rgba(114,8,34,1.000)" /><rect x="9" y="13" width="1.025" height="1.025" fill="rgba(0,39,93,1.000)" /><rect x="10" y="13" width="1.025" height="1.025" fill="rgba(11,92,210,1.000)" /><rect x="11" y="13" width="1.025" height="1.025" fill="rgba(90,45,204,1.000)" /><rect x="12" y="13" width="1.025" height="1.025" fill="rgba(172,25,176,1.000)" /><rect x="13" y="13" width="1.025" height="1.025" fill="rgba(1,153,182,1.000)" /><rect x="14" y="13" width="1.025" height="1.025" fill="rgba(99,192,2,1.000)" /><rect x="15" y="13" width="1.025" height="1.025" fill="rgba(198,7,15,1.000)" /><rect x="25" y="13" width="1.025" height="1.025" fill="rgba(127,16,27,1.000)" /><rect x="9" y="14" width="1.025" height="1.025" fill="rgba(0,65,134,1.000)" /><rect x="10" y="14" width="1.025" height="1.025" fill="rgba(16,83,205,1.000)" /><rect x="11" y="14" width="1.025" height="1.025" fill="rgba(102,45,205,1.000)" /><rect x="12" y="14" width="1.025" height="1.025" fill="rgba(147,16,178,1.000)" /><rect x="13" y="14" width="1.025" height="1.025" fill="rgba(1,177,147,1.000)" /><rect x="14" y="14" width="1.025" height="1.025" fill="rgba(91,183,22,1.000)" /><rect x="15" y="14" width="1.025" height="1.025" fill="rgba(194,2,25,1.000)" /><rect x="25" y="14" width="1.025" height="1.025" fill="rgba(131,22,20,1.000)" /><rect x="9" y="15" width="1.025" height="1.025" fill="rgba(8,80,195,1.000)" /><rect x="10" y="15" width="1.025" height="1.025" fill="rgba(49,75,213,1.000)" /><rect x="11" y="15" width="1.025" height="1.025" fill="rgba(132,44,209,1.000)" /><rect x="12" y="15" width="1.025" height="1.025" fill="rgba(87,14,163,1.000)" /><rect x="13" y="15" width="1.025" height="1.025" fill="rgba(4,205,101,1.000)" /><rect x="14" y="15" width="1.025" height="1.025" fill="rgba(225,153,0,1.000)" /><rect x="15" y="15" width="1.025" height="1.025" fill="rgba(216,77,64,1.000)" /><rect x="25" y="15" width="1.025" height="1.025" fill="rgba(183,24,37,1.000)" /><rect x="9" y="16" width="1.025" height="1.025" fill="rgba(41,99,222,1.000)" /><rect x="10" y="16" width="1.025" height="1.025" fill="rgba(124,61,216,1.000)" /><rect x="11" y="16" width="1.025" height="1.025" fill="rgba(124,21,194,1.000)" /><rect x="12" y="16" width="1.025" height="1.025" fill="rgba(21,32,160,1.000)" /><rect x="13" y="16" width="1.025" height="1.025" fill="rgba(62,195,49,1.000)" /><rect x="14" y="16" width="1.025" height="1.025" fill="rgba(209,107,3,1.000)" /><rect x="25" y="16" width="1.025" height="1.025" fill="rgba(4,156,131,1.000)" /><rect x="8" y="17" width="1.025" height="1.025" fill="rgba(0,0,2,1.000)" /><rect x="9" y="17" width="1.025" height="1.025" fill="rgba(31,102,227,1.000)" /><rect x="10" y="17" width="1.025" height="1.025" fill="rgba(130,30,201,1.000)" /><rect x="11" y="17" width="1.025" height="1.025" fill="rgba(144,13,177,1.000)" /><rect x="12" y="17" width="1.025" height="1.025" fill="rgba(15,24,133,1.000)" /><rect x="13" y="17" width="1.025" height="1.025" fill="rgba(141,193,14,1.000)" /><rect x="14" y="17" width="1.025" height="1.025" fill="rgba(240,71,34,1.000)" /><rect x="25" y="17" width="1.025" height="1.025" fill="rgba(99,192,2,1.000)" /><rect x="8" y="18" width="1.025" height="1.025" fill="rgba(0,0,0,1.000)" /><rect x="9" y="18" width="1.025" height="1.025" fill="rgba(43,110,226,1.000)" /><rect x="10" y="18" width="1.025" height="1.025" fill="rgba(171,21,178,1.000)" /><rect x="11" y="18" width="1.025" height="1.025" fill="rgba(122,10,154,1.000)" /><rect x="12" y="18" width="1.025" height="1.025" fill="rgba(10,19,130,1.000)" /><rect x="13" y="18" width="1.025" height="1.025" fill="rgba(168,188,0,1.000)" /><rect x="14" y="18" width="1.025" height="1.025" fill="rgba(239,25,101,1.000)" /><rect x="25" y="18" width="1.025" height="1.025" fill="rgba(91,183,22,1.000)" /><rect x="8" y="19" width="1.025" height="1.025" fill="rgba(0,0,2,1.000)" /><rect x="9" y="19" width="1.025" height="1.025" fill="rgba(43,98,217,1.000)" /><rect x="10" y="19" width="1.025" height="1.025" fill="rgba(197,14,177,1.000)" /><rect x="11" y="19" width="1.025" height="1.025" fill="rgba(106,11,145,1.000)" /><rect x="12" y="19" width="1.025" height="1.025" fill="rgba(5,42,155,1.000)" /><rect x="13" y="19" width="1.025" height="1.025" fill="rgba(210,165,0,1.000)" /><rect x="14" y="19" width="1.025" height="1.025" fill="rgba(240,13,95,1.000)" /><rect x="25" y="19" width="1.025" height="1.025" fill="rgba(225,153,0,1.000)" /><rect x="8" y="20" width="1.025" height="1.025" fill="rgba(0,0,4,1.000)" /><rect x="9" y="20" width="1.025" height="1.025" fill="rgba(61,69,192,1.000)" /><rect x="10" y="20" width="1.025" height="1.025" fill="rgba(158,6,163,1.000)" /><rect x="11" y="20" width="1.025" height="1.025" fill="rgba(59,10,123,1.000)" /><rect x="12" y="20" width="1.025" height="1.025" fill="rgba(0,87,203,1.000)" /><rect x="13" y="20" width="1.025" height="1.025" fill="rgba(249,153,0,1.000)" /><rect x="14" y="20" width="1.025" height="1.025" fill="rgba(217,5,100,1.000)" /><rect x="25" y="20" width="1.025" height="1.025" fill="rgba(209,107,3,1.000)" /><rect x="8" y="21" width="1.025" height="1.025" fill="rgba(4,8,33,1.000)" /><rect x="9" y="21" width="1.025" height="1.025" fill="rgba(135,35,152,1.000)" /><rect x="10" y="21" width="1.025" height="1.025" fill="rgba(135,9,150,1.000)" /><rect x="11" y="21" width="1.025" height="1.025" fill="rgba(51,22,126,1.000)" /><rect x="12" y="21" width="1.025" height="1.025" fill="rgba(0,92,181,1.000)" /><rect x="13" y="21" width="1.025" height="1.025" fill="rgba(217,158,1,1.000)" /><rect x="14" y="21" width="1.025" height="1.025" fill="rgba(192,4,104,1.000)" /><rect x="25" y="21" width="1.025" height="1.025" fill="rgba(240,71,34,1.000)" /><rect x="8" y="22" width="1.025" height="1.025" fill="rgba(0,20,55,1.000)" /><rect x="9" y="22" width="1.025" height="1.025" fill="rgba(134,20,140,1.000)" /><rect x="10" y="22" width="1.025" height="1.025" fill="rgba(136,5,139,1.000)" /><rect x="11" y="22" width="1.025" height="1.025" fill="rgba(56,18,130,1.000)" /><rect x="12" y="22" width="1.025" height="1.025" fill="rgba(0,98,155,1.000)" /><rect x="13" y="22" width="1.025" height="1.025" fill="rgba(250,134,0,1.000)" /><rect x="14" y="22" width="1.025" height="1.025" fill="rgba(212,6,81,1.000)" /><rect x="24" y="22" width="1.025" height="1.025" fill="rgba(13,6,59,1.000)" /><rect x="25" y="22" width="1.025" height="1.025" fill="rgba(239,25,101,1.000)" /><rect x="8" y="23" width="1.025" height="1.025" fill="rgba(2,65,109,1.000)" /><rect x="9" y="23" width="1.025" height="1.025" fill="rgba(119,17,118,1.000)" /><rect x="10" y="23" width="1.025" height="1.025" fill="rgba(127,7,135,1.000)" /><rect x="11" y="23" width="1.025" height="1.025" fill="rgba(72,17,147,1.000)" /><rect x="12" y="23" width="1.025" height="1.025" fill="rgba(0,114,156,1.000)" /><rect x="13" y="23" width="1.025" height="1.025" fill="rgba(250,149,0,1.000)" /><rect x="14" y="23" width="1.025" height="1.025" fill="rgba(213,2,72,1.000)" /><rect x="23" y="23" width="1.025" height="1.025" fill="rgba(58,2,49,1.000)" /><rect x="24" y="23" width="1.025" height="1.025" fill="rgba(56,2,48,1.000)" /><rect x="25" y="23" width="1.025" height="1.025" fill="rgba(240,13,95,1.000)" /><rect x="8" y="24" width="1.025" height="1.025" fill="rgba(0,73,123,1.000)" /><rect x="9" y="24" width="1.025" height="1.025" fill="rgba(120,3,117,1.000)" /><rect x="10" y="24" width="1.025" height="1.025" fill="rgba(90,2,87,1.000)" /><rect x="11" y="24" width="1.025" height="1.025" fill="rgba(52,2,118,1.000)" /><rect x="12" y="24" width="1.025" height="1.025" fill="rgba(0,78,144,1.000)" /><rect x="13" y="24" width="1.025" height="1.025" fill="rgba(238,142,0,1.000)" /><rect x="14" y="24" width="1.025" height="1.025" fill="rgba(223,3,37,1.000)" /><rect x="19" y="24" width="1.025" height="1.025" fill="rgba(0,0,0,1.000)" /><rect x="20" y="24" width="1.025" height="1.025" fill="rgba(0,20,55,1.000)" /><rect x="21" y="24" width="1.025" height="1.025" fill="rgba(134,20,140,1.000)" /><rect x="22" y="24" width="1.025" height="1.025" fill="rgba(136,5,139,1.000)" /><rect x="23" y="24" width="1.025" height="1.025" fill="rgba(42,62,142,1.000)" /><rect x="24" y="24" width="1.025" height="1.025" fill="rgba(107,1,66,1.000)" /><rect x="25" y="24" width="1.025" height="1.025" fill="rgba(217,5,100,1.000)" /><rect x="8" y="25" width="1.025" height="1.025" fill="rgba(22,69,112,1.000)" /><rect x="9" y="25" width="1.025" height="1.025" fill="rgba(129,3,105,1.000)" /><rect x="10" y="25" width="1.025" height="1.025" fill="rgba(99,2,74,1.000)" /><rect x="11" y="25" width="1.025" height="1.025" fill="rgba(66,0,105,1.000)" /><rect x="12" y="25" width="1.025" height="1.025" fill="rgba(0,81,143,1.000)" /><rect x="13" y="25" width="1.025" height="1.025" fill="rgba(200,163,0,1.000)" /><rect x="14" y="25" width="1.025" height="1.025" fill="rgba(212,1,53,1.000)" /><rect x="19" y="25" width="1.025" height="1.025" fill="rgba(0,0,0,1.000)" /><rect x="20" y="25" width="1.025" height="1.025" fill="rgba(2,65,109,1.000)" /><rect x="21" y="25" width="1.025" height="1.025" fill="rgba(119,17,118,1.000)" /><rect x="22" y="25" width="1.025" height="1.025" fill="rgba(127,7,135,1.000)" /><rect x="23" y="25" width="1.025" height="1.025" fill="rgba(23,188,162,1.000)" /><rect x="24" y="25" width="1.025" height="1.025" fill="rgba(127,0,105,1.000)" /><rect x="25" y="25" width="1.025" height="1.025" fill="rgba(192,4,104,1.000)" /><rect x="8" y="26" width="1.025" height="1.025" fill="rgba(70,48,103,1.000)" /><rect x="9" y="26" width="1.025" height="1.025" fill="rgba(50,4,26,1.000)" /><rect x="11" y="26" width="1.025" height="1.025" fill="rgba(3,6,63,1.000)" /><rect x="12" y="26" width="1.025" height="1.025" fill="rgba(0,63,126,1.000)" /><rect x="13" y="26" width="1.025" height="1.025" fill="rgba(174,176,2,1.000)" /><rect x="14" y="26" width="1.025" height="1.025" fill="rgba(208,0,58,1.000)" /><rect x="19" y="26" width="1.025" height="1.025" fill="rgba(0,0,0,1.000)" /><rect x="20" y="26" width="1.025" height="1.025" fill="rgba(0,73,123,1.000)" /><rect x="21" y="26" width="1.025" height="1.025" fill="rgba(120,3,117,1.000)" /><rect x="22" y="26" width="1.025" height="1.025" fill="rgba(90,2,87,1.000)" /><rect x="23" y="26" width="1.025" height="1.025" fill="rgba(23,131,248,1.000)" /><rect x="24" y="26" width="1.025" height="1.025" fill="rgba(0,0,8,1.000)" /><rect x="25" y="26" width="1.025" height="1.025" fill="rgba(212,6,81,1.000)" /><rect x="8" y="27" width="1.025" height="1.025" fill="rgba(96,63,125,1.000)" /><rect x="11" y="27" width="1.025" height="1.025" fill="rgba(15,1,60,1.000)" /><rect x="12" y="27" width="1.025" height="1.025" fill="rgba(1,43,126,1.000)" /><rect x="13" y="27" width="1.025" height="1.025" fill="rgba(72,179,75,1.000)" /><rect x="14" y="27" width="1.025" height="1.025" fill="rgba(219,0,87,1.000)" /><rect x="19" y="27" width="1.025" height="1.025" fill="rgba(5,3,6,1.000)" /><rect x="20" y="27" width="1.025" height="1.025" fill="rgba(22,69,112,1.000)" /><rect x="21" y="27" width="1.025" height="1.025" fill="rgba(129,3,105,1.000)" /><rect x="22" y="27" width="1.025" height="1.025" fill="rgba(99,2,74,1.000)" /><rect x="13" y="28" width="1.025" height="1.025" fill="rgba(41,130,130,1.000)" /><rect x="14" y="28" width="1.025" height="1.025" fill="rgba(183,5,136,1.000)" /></svg>