<svg shape-rendering="crispEdges" xmlns="http://www.w3.org/2000/svg" version="1.1" width="37" height="37"><style>rect { image-rendering: pixelated; }</style><rect x="15" y="3" width="1.025" height="1.025" fill="rgba(127,68,10,1.000)" /><rect x="16" y="3" width="1.025" height="1.025" fill="rgba(108,56,5,1.000)" /><rect x="17" y="3" width="1.025" height="1.025" fill="rgba(55,17,0,1.000)" /><rect x="18" y="3" width="1.025" height="1.025" fill="rgba(58,23,4,1.000)" /><rect x="19" y="3" width="1.025" height="1.025" fill="rgba(52,17,0,1.000)" /><rect x="20" y="3" width="1.025" height="1.025" fill="rgba(63,24,0,1.000)" /><rect x="13" y="4" width="1.025" height="1.025" fill="rgba(177,108,10,1.000)" /><rect x="14" y="4" width="1.025" height="1.025" fill="rgba(161,99,24,1.000)" /><rect x="15" y="4" width="1.025" height="1.025" fill="rgba(146,91,17,1.000)" /><rect x="16" y="4" width="1.025" height="1.025" fill="rgba(214,157,26,1.000)" /><rect x="17" y="4" width="1.025" height="1.025" fill="rgba(243,195,57,1.000)" /><rect x="18" y="4" width="1.025" height="1.025" fill="rgba(245,191,49,1.000)" /><rect x="19" y="4" width="1.025" height="1.025" fill="rgba(245,193,47,1.000)" /><rect x="20" y="4" width="1.025" height="1.025" fill="rgba(232,181,38,1.000)" /><rect x="21" y="4" width="1.025" height="1.025" fill="rgba(251,196,62,1.000)" /><rect x="22" y="4" width="1.025" height="1.025" fill="rgba(112,50,23,1.000)" /><rect x="23" y="4" width="1.025" height="1.025" fill="rgba(90,39,3,1.000)" /><rect x="10" y="5" width="1.025" height="1.025" fill="rgba(64,21,2,1.000)" /><rect x="11" y="5" width="1.025" height="1.025" fill="rgba(151,94,4,1.000)" /><rect x="12" y="5" width="1.025" height="1.025" fill="rgba(179,114,14,1.000)" /><rect x="13" y="5" width="1.025" height="1.025" fill="rgba(213,152,26,1.000)" /><rect x="14" y="5" width="1.025" height="1.025" fill="rgba(247,196,51,1.000)" /><rect x="15" y="5" width="1.025" height="1.025" fill="rgba(242,193,49,1.000)" /><rect x="16" y="5" width="1.025" height="1.025" fill="rgba(255,217,79,1.000)" /><rect x="17" y="5" width="1.025" height="1.025" fill="rgba(253,225,105,1.000)" /><rect x="18" y="5" width="1.025" height="1.025" fill="rgba(254,219,93,1.000)" /><rect x="19" y="5" width="1.025" height="1.025" fill="rgba(255,215,80,1.000)" /><rect x="20" y="5" width="1.025" height="1.025" fill="rgba(255,222,95,1.000)" /><rect x="21" y="5" width="1.025" height="1.025" fill="rgba(255,223,93,1.000)" /><rect x="22" y="5" width="1.025" height="1.025" fill="rgba(246,194,49,1.000)" /><rect x="23" y="5" width="1.025" height="1.025" fill="rgba(229,169,30,1.000)" /><rect x="24" y="5" width="1.025" height="1.025" fill="rgba(79,34,5,1.000)" /><rect x="9" y="6" width="1.025" height="1.025" fill="rgba(71,21,9,1.000)" /><rect x="10" y="6" width="1.025" height="1.025" fill="rgba(234,177,28,1.000)" /><rect x="11" y="6" width="1.025" height="1.025" fill="rgba(189,121,14,1.000)" /><rect x="12" y="6" width="1.025" height="1.025" fill="rgba(191,126,18,1.000)" /><rect x="13" y="6" width="1.025" height="1.025" fill="rgba(220,162,23,1.000)" /><rect x="14" y="6" width="1.025" height="1.025" fill="rgba(226,166,23,1.000)" /><rect x="15" y="6" width="1.025" height="1.025" fill="rgba(242,188,47,1.000)" /><rect x="16" y="6" width="1.025" height="1.025" fill="rgba(254,229,111,1.000)" /><rect x="17" y="6" width="1.025" height="1.025" fill="rgba(255,235,126,1.000)" /><rect x="18" y="6" width="1.025" height="1.025" fill="rgba(255,233,122,1.000)" /><rect x="19" y="6" width="1.025" height="1.025" fill="rgba(255,225,106,1.000)" /><rect x="20" y="6" width="1.025" height="1.025" fill="rgba(255,222,102,1.000)" /><rect x="21" y="6" width="1.025" height="1.025" fill="rgba(253,225,102,1.000)" /><rect x="22" y="6" width="1.025" height="1.025" fill="rgba(246,190,47,1.000)" /><rect x="23" y="6" width="1.025" height="1.025" fill="rgba(206,143,19,1.000)" /><rect x="24" y="6" width="1.025" height="1.025" fill="rgba(183,117,17,1.000)" /><rect x="25" y="6" width="1.025" height="1.025" fill="rgba(63,23,1,1.000)" /><rect x="8" y="7" width="1.025" height="1.025" fill="rgba(231,165,29,1.000)" /><rect x="9" y="7" width="1.025" height="1.025" fill="rgba(240,188,39,1.000)" /><rect x="10" y="7" width="1.025" height="1.025" fill="rgba(243,184,31,1.000)" /><rect x="11" y="7" width="1.025" height="1.025" fill="rgba(127,68,10,1.000)" /><rect x="12" y="7" width="1.025" height="1.025" fill="rgba(243,189,46,1.000)" /><rect x="13" y="7" width="1.025" height="1.025" fill="rgba(246,191,46,1.000)" /><rect x="14" y="7" width="1.025" height="1.025" fill="rgba(251,207,68,1.000)" /><rect x="15" y="7" width="1.025" height="1.025" fill="rgba(254,216,79,1.000)" /><rect x="16" y="7" width="1.025" height="1.025" fill="rgba(255,227,107,1.000)" /><rect x="17" y="7" width="1.025" height="1.025" fill="rgba(255,228,110,1.000)" /><rect x="18" y="7" width="1.025" height="1.025" fill="rgba(254,227,110,1.000)" /><rect x="19" y="7" width="1.025" height="1.025" fill="rgba(254,219,99,1.000)" /><rect x="20" y="7" width="1.025" height="1.025" fill="rgba(255,228,117,1.000)" /><rect x="21" y="7" width="1.025" height="1.025" fill="rgba(255,237,135,1.000)" /><rect x="22" y="7" width="1.025" height="1.025" fill="rgba(151,78,8,1.000)" /><rect x="23" y="7" width="1.025" height="1.025" fill="rgba(255,244,98,1.000)" /><rect x="24" y="7" width="1.025" height="1.025" fill="rgba(98,36,6,1.000)" /><rect x="25" y="7" width="1.025" height="1.025" fill="rgba(220,161,31,1.000)" /><rect x="7" y="8" width="1.025" height="1.025" fill="rgba(254,196,0,1.000)" /><rect x="8" y="8" width="1.025" height="1.025" fill="rgba(255,196,48,1.000)" /><rect x="9" y="8" width="1.025" height="1.025" fill="rgba(249,201,50,1.000)" /><rect x="10" y="8" width="1.025" height="1.025" fill="rgba(135,71,8,1.000)" /><rect x="11" y="8" width="1.025" height="1.025" fill="rgba(195,134,41,1.000)" /><rect x="12" y="8" width="1.025" height="1.025" fill="rgba(207,144,12,1.000)" /><rect x="13" y="8" width="1.025" height="1.025" fill="rgba(226,162,21,1.000)" /><rect x="14" y="8" width="1.025" height="1.025" fill="rgba(231,173,37,1.000)" /><rect x="15" y="8" width="1.025" height="1.025" fill="rgba(241,180,35,1.000)" /><rect x="16" y="8" width="1.025" height="1.025" fill="rgba(252,208,71,1.000)" /><rect x="17" y="8" width="1.025" height="1.025" fill="rgba(246,197,49,1.000)" /><rect x="18" y="8" width="1.025" height="1.025" fill="rgba(254,212,81,1.000)" /><rect x="19" y="8" width="1.025" height="1.025" fill="rgba(255,239,138,1.000)" /><rect x="20" y="8" width="1.025" height="1.025" fill="rgba(249,207,81,1.000)" /><rect x="21" y="8" width="1.025" height="1.025" fill="rgba(183,113,1,1.000)" /><rect x="24" y="8" width="1.025" height="1.025" fill="rgba(255,244,98,1.000)" /><rect x="25" y="8" width="1.025" height="1.025" fill="rgba(193,125,20,1.000)" /><rect x="7" y="9" width="1.025" height="1.025" fill="rgba(132,73,11,1.000)" /><rect x="8" y="9" width="1.025" height="1.025" fill="rgba(238,180,35,1.000)" /><rect x="9" y="9" width="1.025" height="1.025" fill="rgba(173,103,18,1.000)" /><rect x="10" y="9" width="1.025" height="1.025" fill="rgba(115,58,7,1.000)" /><rect x="11" y="9" width="1.025" height="1.025" fill="rgba(213,149,41,1.000)" /><rect x="12" y="9" width="1.025" height="1.025" fill="rgba(193,126,16,1.000)" /><rect x="13" y="9" width="1.025" height="1.025" fill="rgba(219,159,23,1.000)" /><rect x="14" y="9" width="1.025" height="1.025" fill="rgba(135,77,16,1.000)" /><rect x="15" y="9" width="1.025" height="1.025" fill="rgba(248,199,60,1.000)" /><rect x="16" y="9" width="1.025" height="1.025" fill="rgba(250,205,72,1.000)" /><rect x="17" y="9" width="1.025" height="1.025" fill="rgba(253,202,66,1.000)" /><rect x="18" y="9" width="1.025" height="1.025" fill="rgba(253,233,129,1.000)" /><rect x="19" y="9" width="1.025" height="1.025" fill="rgba(208,138,10,1.000)" /><rect x="20" y="9" width="1.025" height="1.025" fill="rgba(167,96,14,1.000)" /><rect x="24" y="9" width="1.025" height="1.025" fill="rgba(226,162,21,1.000)" /><rect x="25" y="9" width="1.025" height="1.025" fill="rgba(151,85,16,1.000)" /><rect x="7" y="10" width="1.025" height="1.025" fill="rgba(173,103,18,1.000)" /><rect x="8" y="10" width="1.025" height="1.025" fill="rgba(235,175,30,1.000)" /><rect x="9" y="10" width="1.025" height="1.025" fill="rgba(198,135,6,1.000)" /><rect x="10" y="10" width="1.025" height="1.025" fill="rgba(84,33,6,1.000)" /><rect x="11" y="10" width="1.025" height="1.025" fill="rgba(198,134,17,1.000)" /><rect x="12" y="10" width="1.025" height="1.025" fill="rgba(190,122,11,1.000)" /><rect x="13" y="10" width="1.025" height="1.025" fill="rgba(210,142,16,1.000)" /><rect x="14" y="10" width="1.025" height="1.025" fill="rgba(184,119,12,1.000)" /><rect x="15" y="10" width="1.025" height="1.025" fill="rgba(248,200,58,1.000)" /><rect x="16" y="10" width="1.025" height="1.025" fill="rgba(254,213,80,1.000)" /><rect x="17" y="10" width="1.025" height="1.025" fill="rgba(255,220,97,1.000)" /><rect x="18" y="10" width="1.025" height="1.025" fill="rgba(252,212,85,1.000)" /><rect x="19" y="10" width="1.025" height="1.025" fill="rgba(194,120,10,1.000)" /><rect x="25" y="10" width="1.025" height="1.025" fill="rgba(109,50,1,1.000)" /><rect x="7" y="11" width="1.025" height="1.025" fill="rgba(198,135,6,1.000)" /><rect x="8" y="11" width="1.025" height="1.025" fill="rgba(215,151,14,1.000)" /><rect x="9" y="11" width="1.025" height="1.025" fill="rgba(219,156,23,1.000)" /><rect x="10" y="11" width="1.025" height="1.025" fill="rgba(77,31,5,1.000)" /><rect x="11" y="11" width="1.025" height="1.025" fill="rgba(175,111,22,1.000)" /><rect x="12" y="11" width="1.025" height="1.025" fill="rgba(208,143,21,1.000)" /><rect x="13" y="11" width="1.025" height="1.025" fill="rgba(196,129,16,1.000)" /><rect x="14" y="11" width="1.025" height="1.025" fill="rgba(222,159,20,1.000)" /><rect x="15" y="11" width="1.025" height="1.025" fill="rgba(255,217,96,1.000)" /><rect x="16" y="11" width="1.025" height="1.025" fill="rgba(254,219,95,1.000)" /><rect x="17" y="11" width="1.025" height="1.025" fill="rgba(217,153,45,1.000)" /><rect x="18" y="11" width="1.025" height="1.025" fill="rgba(132,67,4,1.000)" /><rect x="25" y="11" width="1.025" height="1.025" fill="rgba(44,7,0,1.000)" /><rect x="7" y="12" width="1.025" height="1.025" fill="rgba(211,148,18,1.000)" /><rect x="8" y="12" width="1.025" height="1.025" fill="rgba(222,160,18,1.000)" /><rect x="9" y="12" width="1.025" height="1.025" fill="rgba(203,135,6,1.000)" /><rect x="10" y="12" width="1.025" height="1.025" fill="rgba(70,27,5,1.000)" /><rect x="11" y="12" width="1.025" height="1.025" fill="rgba(151,92,20,1.000)" /><rect x="12" y="12" width="1.025" height="1.025" fill="rgba(168,103,14,1.000)" /><rect x="13" y="12" width="1.025" height="1.025" fill="rgba(41,11,2,1.000)" /><rect x="14" y="12" width="1.025" height="1.025" fill="rgba(229,176,43,1.000)" /><rect x="15" y="12" width="1.025" height="1.025" fill="rgba(253,211,78,1.000)" /><rect x="16" y="12" width="1.025" height="1.025" fill="rgba(252,203,70,1.000)" /><rect x="17" y="12" width="1.025" height="1.025" fill="rgba(159,83,28,1.000)" /><rect x="7" y="13" width="1.025" height="1.025" fill="rgba(220,167,34,1.000)" /><rect x="8" y="13" width="1.025" height="1.025" fill="rgba(192,123,8,1.000)" /><rect x="9" y="13" width="1.025" height="1.025" fill="rgba(211,148,18,1.000)" /><rect x="10" y="13" width="1.025" height="1.025" fill="rgba(70,24,5,1.000)" /><rect x="11" y="13" width="1.025" height="1.025" fill="rgba(130,86,4,1.000)" /><rect x="13" y="13" width="1.025" height="1.025" fill="rgba(226,162,21,1.000)" /><rect x="14" y="13" width="1.025" height="1.025" fill="rgba(233,185,60,1.000)" /><rect x="15" y="13" width="1.025" height="1.025" fill="rgba(247,192,57,1.000)" /><rect x="16" y="13" width="1.025" height="1.025" fill="rgba(0,0,0,1.000)" /><rect x="7" y="14" width="1.025" height="1.025" fill="rgba(234,200,61,1.000)" /><rect x="8" y="14" width="1.025" height="1.025" fill="rgba(197,126,16,1.000)" /><rect x="9" y="14" width="1.025" height="1.025" fill="rgba(212,148,15,1.000)" /><rect x="10" y="14" width="1.025" height="1.025" fill="rgba(77,30,2,1.000)" /><rect x="13" y="14" width="1.025" height="1.025" fill="rgba(226,162,21,1.000)" /><rect x="14" y="14" width="1.025" height="1.025" fill="rgba(234,196,73,1.000)" /><rect x="15" y="14" width="1.025" height="1.025" fill="rgba(229,167,35,1.000)" /><rect x="7" y="15" width="1.025" height="1.025" fill="rgba(234,179,2,1.000)" /><rect x="8" y="15" width="1.025" height="1.025" fill="rgba(218,161,21,1.000)" /><rect x="9" y="15" width="1.025" height="1.025" fill="rgba(225,167,27,1.000)" /><rect x="10" y="15" width="1.025" height="1.025" fill="rgba(83,31,2,1.000)" /><rect x="13" y="15" width="1.025" height="1.025" fill="rgba(226,162,21,1.000)" /><rect x="14" y="15" width="1.025" height="1.025" fill="rgba(234,196,76,1.000)" /><rect x="15" y="15" width="1.025" height="1.025" fill="rgba(170,93,21,1.000)" /><rect x="7" y="16" width="1.025" height="1.025" fill="rgba(255,209,0,1.000)" /><rect x="8" y="16" width="1.025" height="1.025" fill="rgba(212,151,24,1.000)" /><rect x="9" y="16" width="1.025" height="1.025" fill="rgba(203,136,18,1.000)" /><rect x="10" y="16" width="1.025" height="1.025" fill="rgba(63,16,0,1.000)" /><rect x="13" y="16" width="1.025" height="1.025" fill="rgba(226,162,21,1.000)" /><rect x="14" y="16" width="1.025" height="1.025" fill="rgba(232,185,50,1.000)" /><rect x="15" y="16" width="1.025" height="1.025" fill="rgba(200,124,35,1.000)" /><rect x="7" y="17" width="1.025" height="1.025" fill="rgba(255,216,0,1.000)" /><rect x="8" y="17" width="1.025" height="1.025" fill="rgba(195,132,15,1.000)" /><rect x="9" y="17" width="1.025" height="1.025" fill="rgba(159,92,5,1.000)" /><rect x="10" y="17" width="1.025" height="1.025" fill="rgba(75,26,2,1.000)" /><rect x="13" y="17" width="1.025" height="1.025" fill="rgba(226,162,21,1.000)" /><rect x="14" y="17" width="1.025" height="1.025" fill="rgba(211,157,28,1.000)" /><rect x="15" y="17" width="1.025" height="1.025" fill="rgba(191,111,36,1.000)" /><rect x="7" y="18" width="1.025" height="1.025" fill="rgba(255,205,1,1.000)" /><rect x="8" y="18" width="1.025" height="1.025" fill="rgba(201,140,16,1.000)" /><rect x="9" y="18" width="1.025" height="1.025" fill="rgba(158,93,8,1.000)" /><rect x="10" y="18" width="1.025" height="1.025" fill="rgba(53,12,7,1.000)" /><rect x="13" y="18" width="1.025" height="1.025" fill="rgba(208,143,21,1.000)" /><rect x="14" y="18" width="1.025" height="1.025" fill="rgba(217,163,34,1.000)" /><rect x="15" y="18" width="1.025" height="1.025" fill="rgba(194,110,47,1.000)" /><rect x="7" y="19" width="1.025" height="1.025" fill="rgba(173,150,62,1.000)" /><rect x="9" y="19" width="1.025" height="1.025" fill="rgba(211,148,18,1.000)" /><rect x="13" y="19" width="1.025" height="1.025" fill="rgba(211,148,18,1.000)" /><rect x="14" y="19" width="1.025" height="1.025" fill="rgba(197,143,27,1.000)" /><rect x="15" y="19" width="1.025" height="1.025" fill="rgba(188,109,43,1.000)" /><rect x="9" y="20" width="1.025" height="1.025" fill="rgba(211,148,18,1.000)" /><rect x="13" y="20" width="1.025" height="1.025" fill="rgba(211,148,18,1.000)" /><rect x="14" y="20" width="1.025" height="1.025" fill="rgba(234,196,76,1.000)" /><rect x="13" y="21" width="1.025" height="1.025" fill="rgba(211,148,18,1.000)" /><rect x="14" y="21" width="1.025" height="1.025" fill="rgba(219,159,23,1.000)" /></svg>