<svg shape-rendering="crispEdges" xmlns="http://www.w3.org/2000/svg" version="1.1" width="37" height="37"><style>rect { image-rendering: pixelated; }</style><rect x="15" y="3" width="1.025" height="1.025" fill="rgba(22,10,0,1.000)" /><rect x="16" y="3" width="1.025" height="1.025" fill="rgba(22,10,0,1.000)" /><rect x="17" y="3" width="1.025" height="1.025" fill="rgba(15,4,0,1.000)" /><rect x="18" y="3" width="1.025" height="1.025" fill="rgba(18,6,0,1.000)" /><rect x="19" y="3" width="1.025" height="1.025" fill="rgba(16,4,0,1.000)" /><rect x="20" y="3" width="1.025" height="1.025" fill="rgba(15,4,0,1.000)" /><rect x="13" y="4" width="1.025" height="1.025" fill="rgba(41,15,0,1.000)" /><rect x="14" y="4" width="1.025" height="1.025" fill="rgba(46,19,4,1.000)" /><rect x="15" y="4" width="1.025" height="1.025" fill="rgba(53,23,5,1.000)" /><rect x="16" y="4" width="1.025" height="1.025" fill="rgba(83,30,1,1.000)" /><rect x="17" y="4" width="1.025" height="1.025" fill="rgba(98,39,10,1.000)" /><rect x="18" y="4" width="1.025" height="1.025" fill="rgba(90,28,1,1.000)" /><rect x="19" y="4" width="1.025" height="1.025" fill="rgba(85,30,2,1.000)" /><rect x="20" y="4" width="1.025" height="1.025" fill="rgba(63,26,2,1.000)" /><rect x="21" y="4" width="1.025" height="1.025" fill="rgba(56,26,12,1.000)" /><rect x="22" y="4" width="1.025" height="1.025" fill="rgba(0,0,2,1.000)" /><rect x="23" y="4" width="1.025" height="1.025" fill="rgba(0,0,0,1.000)" /><rect x="10" y="5" width="1.025" height="1.025" fill="rgba(8,1,0,1.000)" /><rect x="11" y="5" width="1.025" height="1.025" fill="rgba(5,1,0,1.000)" /><rect x="12" y="5" width="1.025" height="1.025" fill="rgba(17,5,0,1.000)" /><rect x="13" y="5" width="1.025" height="1.025" fill="rgba(72,29,0,1.000)" /><rect x="14" y="5" width="1.025" height="1.025" fill="rgba(85,32,0,1.000)" /><rect x="15" y="5" width="1.025" height="1.025" fill="rgba(97,33,0,1.000)" /><rect x="16" y="5" width="1.025" height="1.025" fill="rgba(128,49,4,1.000)" /><rect x="17" y="5" width="1.025" height="1.025" fill="rgba(114,41,3,1.000)" /><rect x="18" y="5" width="1.025" height="1.025" fill="rgba(106,32,0,1.000)" /><rect x="19" y="5" width="1.025" height="1.025" fill="rgba(128,47,4,1.000)" /><rect x="20" y="5" width="1.025" height="1.025" fill="rgba(109,36,0,1.000)" /><rect x="21" y="5" width="1.025" height="1.025" fill="rgba(113,42,2,1.000)" /><rect x="22" y="5" width="1.025" height="1.025" fill="rgba(53,17,0,1.000)" /><rect x="23" y="5" width="1.025" height="1.025" fill="rgba(76,28,2,1.000)" /><rect x="24" y="5" width="1.025" height="1.025" fill="rgba(19,8,0,1.000)" /><rect x="9" y="6" width="1.025" height="1.025" fill="rgba(16,3,0,1.000)" /><rect x="10" y="6" width="1.025" height="1.025" fill="rgba(109,47,7,1.000)" /><rect x="11" y="6" width="1.025" height="1.025" fill="rgba(32,9,0,1.000)" /><rect x="12" y="6" width="1.025" height="1.025" fill="rgba(40,14,0,1.000)" /><rect x="13" y="6" width="1.025" height="1.025" fill="rgba(103,39,0,1.000)" /><rect x="14" y="6" width="1.025" height="1.025" fill="rgba(121,48,5,1.000)" /><rect x="15" y="6" width="1.025" height="1.025" fill="rgba(126,47,6,1.000)" /><rect x="16" y="6" width="1.025" height="1.025" fill="rgba(104,35,2,1.000)" /><rect x="17" y="6" width="1.025" height="1.025" fill="rgba(125,49,6,1.000)" /><rect x="18" y="6" width="1.025" height="1.025" fill="rgba(130,49,3,1.000)" /><rect x="19" y="6" width="1.025" height="1.025" fill="rgba(123,41,3,1.000)" /><rect x="20" y="6" width="1.025" height="1.025" fill="rgba(141,55,10,1.000)" /><rect x="21" y="6" width="1.025" height="1.025" fill="rgba(99,37,1,1.000)" /><rect x="22" y="6" width="1.025" height="1.025" fill="rgba(85,29,0,1.000)" /><rect x="23" y="6" width="1.025" height="1.025" fill="rgba(87,34,8,1.000)" /><rect x="24" y="6" width="1.025" height="1.025" fill="rgba(75,22,0,1.000)" /><rect x="25" y="6" width="1.025" height="1.025" fill="rgba(17,6,0,1.000)" /><rect x="8" y="7" width="1.025" height="1.025" fill="rgba(6,0,1,1.000)" /><rect x="9" y="7" width="1.025" height="1.025" fill="rgba(104,33,1,1.000)" /><rect x="10" y="7" width="1.025" height="1.025" fill="rgba(90,32,7,1.000)" /><rect x="11" y="7" width="1.025" height="1.025" fill="rgba(28,8,0,1.000)" /><rect x="12" y="7" width="1.025" height="1.025" fill="rgba(63,25,0,1.000)" /><rect x="13" y="7" width="1.025" height="1.025" fill="rgba(102,31,0,1.000)" /><rect x="14" y="7" width="1.025" height="1.025" fill="rgba(111,35,0,1.000)" /><rect x="15" y="7" width="1.025" height="1.025" fill="rgba(96,30,0,1.000)" /><rect x="16" y="7" width="1.025" height="1.025" fill="rgba(121,41,4,1.000)" /><rect x="17" y="7" width="1.025" height="1.025" fill="rgba(159,71,21,1.000)" /><rect x="18" y="7" width="1.025" height="1.025" fill="rgba(116,37,0,1.000)" /><rect x="19" y="7" width="1.025" height="1.025" fill="rgba(162,75,29,1.000)" /><rect x="20" y="7" width="1.025" height="1.025" fill="rgba(139,56,17,1.000)" /><rect x="21" y="7" width="1.025" height="1.025" fill="rgba(139,56,17,1.000)" /><rect x="22" y="7" width="1.025" height="1.025" fill="rgba(11,0,0,1.000)" /><rect x="23" y="7" width="1.025" height="1.025" fill="rgba(40,9,0,1.000)" /><rect x="24" y="7" width="1.025" height="1.025" fill="rgba(92,33,9,1.000)" /><rect x="25" y="7" width="1.025" height="1.025" fill="rgba(74,20,0,1.000)" /><rect x="7" y="8" width="1.025" height="1.025" fill="rgba(9,0,8,1.000)" /><rect x="8" y="8" width="1.025" height="1.025" fill="rgba(134,50,8,1.000)" /><rect x="9" y="8" width="1.025" height="1.025" fill="rgba(120,39,4,1.000)" /><rect x="10" y="8" width="1.025" height="1.025" fill="rgba(11,0,0,1.000)" /><rect x="11" y="8" width="1.025" height="1.025" fill="rgba(51,20,0,1.000)" /><rect x="12" y="8" width="1.025" height="1.025" fill="rgba(97,37,2,1.000)" /><rect x="13" y="8" width="1.025" height="1.025" fill="rgba(123,44,3,1.000)" /><rect x="14" y="8" width="1.025" height="1.025" fill="rgba(101,34,1,1.000)" /><rect x="15" y="8" width="1.025" height="1.025" fill="rgba(71,13,1,1.000)" /><rect x="16" y="8" width="1.025" height="1.025" fill="rgba(127,47,6,1.000)" /><rect x="17" y="8" width="1.025" height="1.025" fill="rgba(116,40,0,1.000)" /><rect x="18" y="8" width="1.025" height="1.025" fill="rgba(135,50,6,1.000)" /><rect x="19" y="8" width="1.025" height="1.025" fill="rgba(129,55,9,1.000)" /><rect x="20" y="8" width="1.025" height="1.025" fill="rgba(129,55,9,1.000)" /><rect x="21" y="8" width="1.025" height="1.025" fill="rgba(21,2,0,1.000)" /><rect x="24" y="8" width="1.025" height="1.025" fill="rgba(35,8,0,1.000)" /><rect x="25" y="8" width="1.025" height="1.025" fill="rgba(81,22,0,1.000)" /><rect x="7" y="9" width="1.025" height="1.025" fill="rgba(71,25,4,1.000)" /><rect x="8" y="9" width="1.025" height="1.025" fill="rgba(126,46,6,1.000)" /><rect x="9" y="9" width="1.025" height="1.025" fill="rgba(106,33,3,1.000)" /><rect x="10" y="9" width="1.025" height="1.025" fill="rgba(4,0,0,1.000)" /><rect x="11" y="9" width="1.025" height="1.025" fill="rgba(58,20,0,1.000)" /><rect x="12" y="9" width="1.025" height="1.025" fill="rgba(104,38,8,1.000)" /><rect x="13" y="9" width="1.025" height="1.025" fill="rgba(100,35,2,1.000)" /><rect x="14" y="9" width="1.025" height="1.025" fill="rgba(72,25,0,1.000)" /><rect x="15" y="9" width="1.025" height="1.025" fill="rgba(80,20,0,1.000)" /><rect x="16" y="9" width="1.025" height="1.025" fill="rgba(123,43,4,1.000)" /><rect x="17" y="9" width="1.025" height="1.025" fill="rgba(143,54,11,1.000)" /><rect x="18" y="9" width="1.025" height="1.025" fill="rgba(123,48,9,1.000)" /><rect x="19" y="9" width="1.025" height="1.025" fill="rgba(123,48,9,1.000)" /><rect x="20" y="9" width="1.025" height="1.025" fill="rgba(58,19,0,1.000)" /><rect x="24" y="9" width="1.025" height="1.025" fill="rgba(25,6,0,1.000)" /><rect x="25" y="9" width="1.025" height="1.025" fill="rgba(78,23,0,1.000)" /><rect x="7" y="10" width="1.025" height="1.025" fill="rgba(89,33,16,1.000)" /><rect x="8" y="10" width="1.025" height="1.025" fill="rgba(125,44,4,1.000)" /><rect x="9" y="10" width="1.025" height="1.025" fill="rgba(99,32,0,1.000)" /><rect x="10" y="10" width="1.025" height="1.025" fill="rgba(2,0,0,1.000)" /><rect x="11" y="10" width="1.025" height="1.025" fill="rgba(54,20,1,1.000)" /><rect x="12" y="10" width="1.025" height="1.025" fill="rgba(68,22,0,1.000)" /><rect x="13" y="10" width="1.025" height="1.025" fill="rgba(96,34,1,1.000)" /><rect x="14" y="10" width="1.025" height="1.025" fill="rgba(55,20,0,1.000)" /><rect x="15" y="10" width="1.025" height="1.025" fill="rgba(85,23,0,1.000)" /><rect x="16" y="10" width="1.025" height="1.025" fill="rgba(105,35,2,1.000)" /><rect x="17" y="10" width="1.025" height="1.025" fill="rgba(117,41,2,1.000)" /><rect x="18" y="10" width="1.025" height="1.025" fill="rgba(117,41,2,1.000)" /><rect x="19" y="10" width="1.025" height="1.025" fill="rgba(63,27,0,1.000)" /><rect x="25" y="10" width="1.025" height="1.025" fill="rgba(48,11,0,1.000)" /><rect x="7" y="11" width="1.025" height="1.025" fill="rgba(88,32,12,1.000)" /><rect x="8" y="11" width="1.025" height="1.025" fill="rgba(123,40,4,1.000)" /><rect x="9" y="11" width="1.025" height="1.025" fill="rgba(91,25,2,1.000)" /><rect x="10" y="11" width="1.025" height="1.025" fill="rgba(0,0,0,1.000)" /><rect x="11" y="11" width="1.025" height="1.025" fill="rgba(57,20,0,1.000)" /><rect x="12" y="11" width="1.025" height="1.025" fill="rgba(72,26,2,1.000)" /><rect x="13" y="11" width="1.025" height="1.025" fill="rgba(44,15,1,1.000)" /><rect x="14" y="11" width="1.025" height="1.025" fill="rgba(58,18,0,1.000)" /><rect x="15" y="11" width="1.025" height="1.025" fill="rgba(105,34,2,1.000)" /><rect x="16" y="11" width="1.025" height="1.025" fill="rgba(101,36,1,1.000)" /><rect x="17" y="11" width="1.025" height="1.025" fill="rgba(85,23,0,1.000)" /><rect x="18" y="11" width="1.025" height="1.025" fill="rgba(80,31,0,1.000)" /><rect x="25" y="11" width="1.025" height="1.025" fill="rgba(23,3,0,1.000)" /><rect x="7" y="12" width="1.025" height="1.025" fill="rgba(85,28,13,1.000)" /><rect x="8" y="12" width="1.025" height="1.025" fill="rgba(128,45,4,1.000)" /><rect x="9" y="12" width="1.025" height="1.025" fill="rgba(96,27,0,1.000)" /><rect x="10" y="12" width="1.025" height="1.025" fill="rgba(1,0,1,1.000)" /><rect x="11" y="12" width="1.025" height="1.025" fill="rgba(34,12,0,1.000)" /><rect x="12" y="12" width="1.025" height="1.025" fill="rgba(43,14,1,1.000)" /><rect x="13" y="12" width="1.025" height="1.025" fill="rgba(32,11,0,1.000)" /><rect x="14" y="12" width="1.025" height="1.025" fill="rgba(66,26,1,1.000)" /><rect x="15" y="12" width="1.025" height="1.025" fill="rgba(109,40,4,1.000)" /><rect x="16" y="12" width="1.025" height="1.025" fill="rgba(67,21,0,1.000)" /><rect x="17" y="12" width="1.025" height="1.025" fill="rgba(39,12,0,1.000)" /><rect x="7" y="13" width="1.025" height="1.025" fill="rgba(94,35,17,1.000)" /><rect x="8" y="13" width="1.025" height="1.025" fill="rgba(126,43,5,1.000)" /><rect x="9" y="13" width="1.025" height="1.025" fill="rgba(100,30,4,1.000)" /><rect x="10" y="13" width="1.025" height="1.025" fill="rgba(2,0,0,1.000)" /><rect x="11" y="13" width="1.025" height="1.025" fill="rgba(4,0,0,1.000)" /><rect x="13" y="13" width="1.025" height="1.025" fill="rgba(33,10,0,1.000)" /><rect x="14" y="13" width="1.025" height="1.025" fill="rgba(66,25,0,1.000)" /><rect x="15" y="13" width="1.025" height="1.025" fill="rgba(112,45,15,1.000)" /><rect x="16" y="13" width="1.025" height="1.025" fill="rgba(0,0,0,1.000)" /><rect x="7" y="14" width="1.025" height="1.025" fill="rgba(84,37,16,1.000)" /><rect x="8" y="14" width="1.025" height="1.025" fill="rgba(125,41,7,1.000)" /><rect x="9" y="14" width="1.025" height="1.025" fill="rgba(100,31,1,1.000)" /><rect x="10" y="14" width="1.025" height="1.025" fill="rgba(1,0,0,1.000)" /><rect x="13" y="14" width="1.025" height="1.025" fill="rgba(37,11,0,1.000)" /><rect x="14" y="14" width="1.025" height="1.025" fill="rgba(79,30,0,1.000)" /><rect x="15" y="14" width="1.025" height="1.025" fill="rgba(89,37,8,1.000)" /><rect x="7" y="15" width="1.025" height="1.025" fill="rgba(40,14,0,1.000)" /><rect x="8" y="15" width="1.025" height="1.025" fill="rgba(95,36,0,1.000)" /><rect x="9" y="15" width="1.025" height="1.025" fill="rgba(92,29,1,1.000)" /><rect x="10" y="15" width="1.025" height="1.025" fill="rgba(4,0,0,1.000)" /><rect x="13" y="15" width="1.025" height="1.025" fill="rgba(43,15,0,1.000)" /><rect x="14" y="15" width="1.025" height="1.025" fill="rgba(89,34,4,1.000)" /><rect x="15" y="15" width="1.025" height="1.025" fill="rgba(71,24,8,1.000)" /><rect x="7" y="16" width="1.025" height="1.025" fill="rgba(54,15,6,1.000)" /><rect x="8" y="16" width="1.025" height="1.025" fill="rgba(90,33,2,1.000)" /><rect x="9" y="16" width="1.025" height="1.025" fill="rgba(98,33,3,1.000)" /><rect x="10" y="16" width="1.025" height="1.025" fill="rgba(10,0,0,1.000)" /><rect x="13" y="16" width="1.025" height="1.025" fill="rgba(47,14,0,1.000)" /><rect x="14" y="16" width="1.025" height="1.025" fill="rgba(83,33,1,1.000)" /><rect x="15" y="16" width="1.025" height="1.025" fill="rgba(50,11,0,1.000)" /><rect x="7" y="17" width="1.025" height="1.025" fill="rgba(57,23,3,1.000)" /><rect x="8" y="17" width="1.025" height="1.025" fill="rgba(85,30,0,1.000)" /><rect x="9" y="17" width="1.025" height="1.025" fill="rgba(86,27,2,1.000)" /><rect x="10" y="17" width="1.025" height="1.025" fill="rgba(5,0,0,1.000)" /><rect x="13" y="17" width="1.025" height="1.025" fill="rgba(55,20,0,1.000)" /><rect x="14" y="17" width="1.025" height="1.025" fill="rgba(87,32,1,1.000)" /><rect x="15" y="17" width="1.025" height="1.025" fill="rgba(23,0,0,1.000)" /><rect x="7" y="18" width="1.025" height="1.025" fill="rgba(61,19,8,1.000)" /><rect x="8" y="18" width="1.025" height="1.025" fill="rgba(83,27,0,1.000)" /><rect x="9" y="18" width="1.025" height="1.025" fill="rgba(72,22,0,1.000)" /><rect x="10" y="18" width="1.025" height="1.025" fill="rgba(0,0,0,1.000)" /><rect x="13" y="18" width="1.025" height="1.025" fill="rgba(53,19,2,1.000)" /><rect x="14" y="18" width="1.025" height="1.025" fill="rgba(88,34,0,1.000)" /><rect x="15" y="18" width="1.025" height="1.025" fill="rgba(26,0,0,1.000)" /><rect x="7" y="19" width="1.025" height="1.025" fill="rgba(73,31,12,1.000)" /><rect x="8" y="19" width="1.025" height="1.025" fill="rgba(84,32,0,1.000)" /><rect x="9" y="19" width="1.025" height="1.025" fill="rgba(67,23,1,1.000)" /><rect x="13" y="19" width="1.025" height="1.025" fill="rgba(66,25,0,1.000)" /><rect x="14" y="19" width="1.025" height="1.025" fill="rgba(74,26,0,1.000)" /><rect x="15" y="19" width="1.025" height="1.025" fill="rgba(9,0,0,1.000)" /><rect x="7" y="20" width="1.025" height="1.025" fill="rgba(86,38,24,1.000)" /><rect x="8" y="20" width="1.025" height="1.025" fill="rgba(69,22,0,1.000)" /><rect x="9" y="20" width="1.025" height="1.025" fill="rgba(10,2,0,1.000)" /><rect x="13" y="20" width="1.025" height="1.025" fill="rgba(72,26,0,1.000)" /><rect x="14" y="20" width="1.025" height="1.025" fill="rgba(66,20,0,1.000)" /><rect x="15" y="20" width="1.025" height="1.025" fill="rgba(17,0,0,1.000)" /><rect x="8" y="21" width="1.025" height="1.025" fill="rgba(0,0,0,1.000)" /><rect x="13" y="21" width="1.025" height="1.025" fill="rgba(63,23,0,1.000)" /><rect x="14" y="21" width="1.025" height="1.025" fill="rgba(53,22,0,1.000)" /><rect x="15" y="21" width="1.025" height="1.025" fill="rgba(50,7,0,1.000)" /><rect x="13" y="22" width="1.025" height="1.025" fill="rgba(71,32,0,1.000)" /><rect x="14" y="22" width="1.025" height="1.025" fill="rgba(40,16,0,1.000)" /><rect x="15" y="22" width="1.025" height="1.025" fill="rgba(190,98,41,1.000)" /><rect x="13" y="23" width="1.025" height="1.025" fill="rgba(68,28,1,1.000)" /></svg>