<svg shape-rendering="crispEdges" xmlns="http://www.w3.org/2000/svg" version="1.1" width="37" height="37"><style>rect { image-rendering: pixelated; }</style><rect x="14" y="4" width="1.025" height="1.025" fill="rgba(178,125,41,1.000)" /><rect x="15" y="4" width="1.025" height="1.025" fill="rgba(156,107,35,1.000)" /><rect x="16" y="4" width="1.025" height="1.025" fill="rgba(191,148,53,1.000)" /><rect x="17" y="4" width="1.025" height="1.025" fill="rgba(138,97,35,1.000)" /><rect x="18" y="4" width="1.025" height="1.025" fill="rgba(182,145,55,1.000)" /><rect x="19" y="4" width="1.025" height="1.025" fill="rgba(172,138,53,1.000)" /><rect x="20" y="4" width="1.025" height="1.025" fill="rgba(174,139,53,1.000)" /><rect x="21" y="4" width="1.025" height="1.025" fill="rgba(174,139,53,1.000)" /><rect x="22" y="4" width="1.025" height="1.025" fill="rgba(195,146,50,1.000)" /><rect x="12" y="5" width="1.025" height="1.025" fill="rgba(140,93,34,1.000)" /><rect x="13" y="5" width="1.025" height="1.025" fill="rgba(188,126,26,1.000)" /><rect x="14" y="5" width="1.025" height="1.025" fill="rgba(239,188,51,1.000)" /><rect x="15" y="5" width="1.025" height="1.025" fill="rgba(250,203,63,1.000)" /><rect x="16" y="5" width="1.025" height="1.025" fill="rgba(252,204,73,1.000)" /><rect x="17" y="5" width="1.025" height="1.025" fill="rgba(251,201,64,1.000)" /><rect x="18" y="5" width="1.025" height="1.025" fill="rgba(253,207,71,1.000)" /><rect x="19" y="5" width="1.025" height="1.025" fill="rgba(255,228,104,1.000)" /><rect x="20" y="5" width="1.025" height="1.025" fill="rgba(255,221,99,1.000)" /><rect x="21" y="5" width="1.025" height="1.025" fill="rgba(247,196,58,1.000)" /><rect x="22" y="5" width="1.025" height="1.025" fill="rgba(252,204,71,1.000)" /><rect x="23" y="5" width="1.025" height="1.025" fill="rgba(194,133,48,1.000)" /><rect x="11" y="6" width="1.025" height="1.025" fill="rgba(138,59,0,1.000)" /><rect x="12" y="6" width="1.025" height="1.025" fill="rgba(201,143,40,1.000)" /><rect x="13" y="6" width="1.025" height="1.025" fill="rgba(236,179,41,1.000)" /><rect x="14" y="6" width="1.025" height="1.025" fill="rgba(253,231,123,1.000)" /><rect x="15" y="6" width="1.025" height="1.025" fill="rgba(254,230,124,1.000)" /><rect x="16" y="6" width="1.025" height="1.025" fill="rgba(252,214,86,1.000)" /><rect x="17" y="6" width="1.025" height="1.025" fill="rgba(255,232,123,1.000)" /><rect x="18" y="6" width="1.025" height="1.025" fill="rgba(255,225,108,1.000)" /><rect x="19" y="6" width="1.025" height="1.025" fill="rgba(252,212,79,1.000)" /><rect x="20" y="6" width="1.025" height="1.025" fill="rgba(253,210,78,1.000)" /><rect x="21" y="6" width="1.025" height="1.025" fill="rgba(251,211,80,1.000)" /><rect x="22" y="6" width="1.025" height="1.025" fill="rgba(255,226,104,1.000)" /><rect x="23" y="6" width="1.025" height="1.025" fill="rgba(230,171,43,1.000)" /><rect x="24" y="6" width="1.025" height="1.025" fill="rgba(226,160,41,1.000)" /><rect x="11" y="7" width="1.025" height="1.025" fill="rgba(193,134,25,1.000)" /><rect x="12" y="7" width="1.025" height="1.025" fill="rgba(234,175,38,1.000)" /><rect x="13" y="7" width="1.025" height="1.025" fill="rgba(255,219,92,1.000)" /><rect x="14" y="7" width="1.025" height="1.025" fill="rgba(254,219,92,1.000)" /><rect x="15" y="7" width="1.025" height="1.025" fill="rgba(254,222,100,1.000)" /><rect x="16" y="7" width="1.025" height="1.025" fill="rgba(255,212,86,1.000)" /><rect x="17" y="7" width="1.025" height="1.025" fill="rgba(254,224,110,1.000)" /><rect x="18" y="7" width="1.025" height="1.025" fill="rgba(255,227,110,1.000)" /><rect x="19" y="7" width="1.025" height="1.025" fill="rgba(255,219,103,1.000)" /><rect x="20" y="7" width="1.025" height="1.025" fill="rgba(254,215,94,1.000)" /><rect x="21" y="7" width="1.025" height="1.025" fill="rgba(155,83,8,1.000)" /><rect x="22" y="7" width="1.025" height="1.025" fill="rgba(255,229,122,1.000)" /><rect x="23" y="7" width="1.025" height="1.025" fill="rgba(254,218,100,1.000)" /><rect x="24" y="7" width="1.025" height="1.025" fill="rgba(255,215,93,1.000)" /><rect x="25" y="7" width="1.025" height="1.025" fill="rgba(127,78,16,1.000)" /><rect x="10" y="8" width="1.025" height="1.025" fill="rgba(139,98,46,1.000)" /><rect x="11" y="8" width="1.025" height="1.025" fill="rgba(215,153,17,1.000)" /><rect x="12" y="8" width="1.025" height="1.025" fill="rgba(236,180,36,1.000)" /><rect x="13" y="8" width="1.025" height="1.025" fill="rgba(253,216,86,1.000)" /><rect x="14" y="8" width="1.025" height="1.025" fill="rgba(254,226,102,1.000)" /><rect x="15" y="8" width="1.025" height="1.025" fill="rgba(252,199,63,1.000)" /><rect x="16" y="8" width="1.025" height="1.025" fill="rgba(254,234,128,1.000)" /><rect x="17" y="8" width="1.025" height="1.025" fill="rgba(255,230,119,1.000)" /><rect x="18" y="8" width="1.025" height="1.025" fill="rgba(255,228,118,1.000)" /><rect x="19" y="8" width="1.025" height="1.025" fill="rgba(253,211,90,1.000)" /><rect x="20" y="8" width="1.025" height="1.025" fill="rgba(139,69,11,1.000)" /><rect x="21" y="8" width="1.025" height="1.025" fill="rgba(116,50,3,1.000)" /><rect x="22" y="8" width="1.025" height="1.025" fill="rgba(255,198,0,1.000)" /><rect x="23" y="8" width="1.025" height="1.025" fill="rgba(253,216,105,1.000)" /><rect x="24" y="8" width="1.025" height="1.025" fill="rgba(255,230,124,1.000)" /><rect x="25" y="8" width="1.025" height="1.025" fill="rgba(243,188,61,1.000)" /><rect x="10" y="9" width="1.025" height="1.025" fill="rgba(80,31,13,1.000)" /><rect x="11" y="9" width="1.025" height="1.025" fill="rgba(232,173,29,1.000)" /><rect x="12" y="9" width="1.025" height="1.025" fill="rgba(255,216,87,1.000)" /><rect x="13" y="9" width="1.025" height="1.025" fill="rgba(255,232,127,1.000)" /><rect x="14" y="9" width="1.025" height="1.025" fill="rgba(254,211,82,1.000)" /><rect x="15" y="9" width="1.025" height="1.025" fill="rgba(253,211,84,1.000)" /><rect x="16" y="9" width="1.025" height="1.025" fill="rgba(254,225,109,1.000)" /><rect x="17" y="9" width="1.025" height="1.025" fill="rgba(255,220,107,1.000)" /><rect x="18" y="9" width="1.025" height="1.025" fill="rgba(247,203,61,1.000)" /><rect x="19" y="9" width="1.025" height="1.025" fill="rgba(110,46,1,1.000)" /><rect x="21" y="9" width="1.025" height="1.025" fill="rgba(243,174,0,1.000)" /><rect x="22" y="9" width="1.025" height="1.025" fill="rgba(245,182,0,1.000)" /><rect x="23" y="9" width="1.025" height="1.025" fill="rgba(253,198,0,1.000)" /><rect x="24" y="9" width="1.025" height="1.025" fill="rgba(254,211,105,1.000)" /><rect x="25" y="9" width="1.025" height="1.025" fill="rgba(250,207,83,1.000)" /><rect x="10" y="10" width="1.025" height="1.025" fill="rgba(178,111,14,1.000)" /><rect x="11" y="10" width="1.025" height="1.025" fill="rgba(236,180,37,1.000)" /><rect x="12" y="10" width="1.025" height="1.025" fill="rgba(254,211,77,1.000)" /><rect x="13" y="10" width="1.025" height="1.025" fill="rgba(254,216,86,1.000)" /><rect x="14" y="10" width="1.025" height="1.025" fill="rgba(254,222,102,1.000)" /><rect x="15" y="10" width="1.025" height="1.025" fill="rgba(255,226,109,1.000)" /><rect x="16" y="10" width="1.025" height="1.025" fill="rgba(234,186,55,1.000)" /><rect x="17" y="10" width="1.025" height="1.025" fill="rgba(206,141,22,1.000)" /><rect x="18" y="10" width="1.025" height="1.025" fill="rgba(126,58,8,1.000)" /><rect x="23" y="10" width="1.025" height="1.025" fill="rgba(244,176,0,1.000)" /><rect x="24" y="10" width="1.025" height="1.025" fill="rgba(116,50,3,1.000)" /><rect x="25" y="10" width="1.025" height="1.025" fill="rgba(230,173,42,1.000)" /><rect x="8" y="11" width="1.025" height="1.025" fill="rgba(193,134,25,1.000)" /><rect x="9" y="11" width="1.025" height="1.025" fill="rgba(255,0,255,1.000)" /><rect x="10" y="11" width="1.025" height="1.025" fill="rgba(218,156,0,1.000)" /><rect x="11" y="11" width="1.025" height="1.025" fill="rgba(229,170,27,1.000)" /><rect x="12" y="11" width="1.025" height="1.025" fill="rgba(251,198,63,1.000)" /><rect x="13" y="11" width="1.025" height="1.025" fill="rgba(242,193,47,1.000)" /><rect x="14" y="11" width="1.025" height="1.025" fill="rgba(254,214,87,1.000)" /><rect x="15" y="11" width="1.025" height="1.025" fill="rgba(254,216,92,1.000)" /><rect x="16" y="11" width="1.025" height="1.025" fill="rgba(128,60,0,1.000)" /><rect x="17" y="11" width="1.025" height="1.025" fill="rgba(133,66,6,1.000)" /><rect x="24" y="11" width="1.025" height="1.025" fill="rgba(238,186,0,1.000)" /><rect x="25" y="11" width="1.025" height="1.025" fill="rgba(116,50,3,1.000)" /><rect x="26" y="11" width="1.025" height="1.025" fill="rgba(255,0,255,1.000)" /><rect x="7" y="12" width="1.025" height="1.025" fill="rgba(193,134,25,1.000)" /><rect x="8" y="12" width="1.025" height="1.025" fill="rgba(137,85,14,1.000)" /><rect x="9" y="12" width="1.025" height="1.025" fill="rgba(230,0,126,1.000)" /><rect x="10" y="12" width="1.025" height="1.025" fill="rgba(210,148,0,1.000)" /><rect x="11" y="12" width="1.025" height="1.025" fill="rgba(229,170,32,1.000)" /><rect x="12" y="12" width="1.025" height="1.025" fill="rgba(222,166,23,1.000)" /><rect x="13" y="12" width="1.025" height="1.025" fill="rgba(249,198,58,1.000)" /><rect x="14" y="12" width="1.025" height="1.025" fill="rgba(252,207,72,1.000)" /><rect x="15" y="12" width="1.025" height="1.025" fill="rgba(223,165,26,1.000)" /><rect x="25" y="12" width="1.025" height="1.025" fill="rgba(6,0,0,1.000)" /><rect x="26" y="12" width="1.025" height="1.025" fill="rgba(230,0,126,1.000)" /><rect x="27" y="12" width="1.025" height="1.025" fill="rgba(187,123,1,1.000)" /><rect x="28" y="12" width="1.025" height="1.025" fill="rgba(220,156,0,1.000)" /><rect x="6" y="13" width="1.025" height="1.025" fill="rgba(149,103,39,1.000)" /><rect x="7" y="13" width="1.025" height="1.025" fill="rgba(138,59,0,1.000)" /><rect x="8" y="13" width="1.025" height="1.025" fill="rgba(248,177,0,1.000)" /><rect x="9" y="13" width="1.025" height="1.025" fill="rgba(230,0,126,1.000)" /><rect x="10" y="13" width="1.025" height="1.025" fill="rgba(211,149,0,1.000)" /><rect x="11" y="13" width="1.025" height="1.025" fill="rgba(190,134,0,1.000)" /><rect x="12" y="13" width="1.025" height="1.025" fill="rgba(208,144,11,1.000)" /><rect x="25" y="13" width="1.025" height="1.025" fill="rgba(230,0,126,1.000)" /><rect x="26" y="13" width="1.025" height="1.025" fill="rgba(250,178,0,1.000)" /><rect x="27" y="13" width="1.025" height="1.025" fill="rgba(221,156,0,1.000)" /><rect x="28" y="13" width="1.025" height="1.025" fill="rgba(210,148,0,1.000)" /><rect x="6" y="14" width="1.025" height="1.025" fill="rgba(182,107,0,1.000)" /><rect x="7" y="14" width="1.025" height="1.025" fill="rgba(193,134,25,1.000)" /><rect x="8" y="14" width="1.025" height="1.025" fill="rgba(250,178,0,1.000)" /><rect x="10" y="14" width="1.025" height="1.025" fill="rgba(212,148,0,1.000)" /><rect x="11" y="14" width="1.025" height="1.025" fill="rgba(199,140,0,0.486)" /><rect x="26" y="14" width="1.025" height="1.025" fill="rgba(211,149,0,1.000)" /><rect x="27" y="14" width="1.025" height="1.025" fill="rgba(247,177,0,1.000)" /><rect x="28" y="14" width="1.025" height="1.025" fill="rgba(206,146,0,1.000)" /><rect x="29" y="14" width="1.025" height="1.025" fill="rgba(245,175,0,1.000)" /><rect x="5" y="15" width="1.025" height="1.025" fill="rgba(80,31,13,1.000)" /><rect x="6" y="15" width="1.025" height="1.025" fill="rgba(182,107,0,1.000)" /><rect x="7" y="15" width="1.025" height="1.025" fill="rgba(247,177,0,1.000)" /><rect x="8" y="15" width="1.025" height="1.025" fill="rgba(226,161,0,1.000)" /><rect x="10" y="15" width="1.025" height="1.025" fill="rgba(213,150,0,1.000)" /><rect x="26" y="15" width="1.025" height="1.025" fill="rgba(207,145,0,1.000)" /><rect x="27" y="15" width="1.025" height="1.025" fill="rgba(246,176,0,1.000)" /><rect x="28" y="15" width="1.025" height="1.025" fill="rgba(208,147,0,1.000)" /><rect x="29" y="15" width="1.025" height="1.025" fill="rgba(252,181,0,1.000)" /><rect x="5" y="16" width="1.025" height="1.025" fill="rgba(182,107,0,1.000)" /><rect x="6" y="16" width="1.025" height="1.025" fill="rgba(206,138,8,1.000)" /><rect x="7" y="16" width="1.025" height="1.025" fill="rgba(246,176,0,1.000)" /><rect x="8" y="16" width="1.025" height="1.025" fill="rgba(207,145,0,1.000)" /><rect x="10" y="16" width="1.025" height="1.025" fill="rgba(219,154,0,1.000)" /><rect x="26" y="16" width="1.025" height="1.025" fill="rgba(180,116,1,1.000)" /><rect x="27" y="16" width="1.025" height="1.025" fill="rgba(247,176,0,1.000)" /><rect x="28" y="16" width="1.025" height="1.025" fill="rgba(221,156,0,1.000)" /><rect x="29" y="16" width="1.025" height="1.025" fill="rgba(206,146,0,1.000)" /><rect x="5" y="17" width="1.025" height="1.025" fill="rgba(249,178,0,1.000)" /><rect x="6" y="17" width="1.025" height="1.025" fill="rgba(221,156,0,1.000)" /><rect x="7" y="17" width="1.025" height="1.025" fill="rgba(247,176,0,1.000)" /><rect x="8" y="17" width="1.025" height="1.025" fill="rgba(207,145,0,1.000)" /><rect x="10" y="17" width="1.025" height="1.025" fill="rgba(226,160,0,1.000)" /><rect x="11" y="17" width="1.025" height="1.025" fill="rgba(97,68,0,1.000)" /><rect x="27" y="17" width="1.025" height="1.025" fill="rgba(161,98,2,1.000)" /><rect x="28" y="17" width="1.025" height="1.025" fill="rgba(249,178,0,1.000)" /><rect x="29" y="17" width="1.025" height="1.025" fill="rgba(208,147,0,1.000)" /><rect x="30" y="17" width="1.025" height="1.025" fill="rgba(252,181,0,1.000)" /><rect x="4" y="18" width="1.025" height="1.025" fill="rgba(80,31,13,1.000)" /><rect x="5" y="18" width="1.025" height="1.025" fill="rgba(215,152,15,1.000)" /><rect x="6" y="18" width="1.025" height="1.025" fill="rgba(249,178,0,1.000)" /><rect x="7" y="18" width="1.025" height="1.025" fill="rgba(193,134,25,1.000)" /><rect x="11" y="18" width="1.025" height="1.025" fill="rgba(170,122,0,1.000)" /><rect x="12" y="18" width="1.025" height="1.025" fill="rgba(97,68,0,1.000)" /><rect x="27" y="18" width="1.025" height="1.025" fill="rgba(210,148,0,1.000)" /><rect x="28" y="18" width="1.025" height="1.025" fill="rgba(249,178,0,1.000)" /><rect x="29" y="18" width="1.025" height="1.025" fill="rgba(206,146,0,1.000)" /><rect x="30" y="18" width="1.025" height="1.025" fill="rgba(245,175,0,1.000)" /><rect x="4" y="19" width="1.025" height="1.025" fill="rgba(182,107,0,1.000)" /><rect x="5" y="19" width="1.025" height="1.025" fill="rgba(229,162,0,1.000)" /><rect x="6" y="19" width="1.025" height="1.025" fill="rgba(249,178,0,1.000)" /><rect x="7" y="19" width="1.025" height="1.025" fill="rgba(193,134,25,1.000)" /><rect x="12" y="19" width="1.025" height="1.025" fill="rgba(151,106,0,1.000)" /><rect x="27" y="19" width="1.025" height="1.025" fill="rgba(206,146,0,1.000)" /><rect x="28" y="19" width="1.025" height="1.025" fill="rgba(245,175,0,1.000)" /><rect x="29" y="19" width="1.025" height="1.025" fill="rgba(208,147,0,1.000)" /><rect x="30" y="19" width="1.025" height="1.025" fill="rgba(252,181,0,1.000)" /><rect x="4" y="20" width="1.025" height="1.025" fill="rgba(215,152,15,1.000)" /><rect x="5" y="20" width="1.025" height="1.025" fill="rgba(217,153,0,1.000)" /><rect x="6" y="20" width="1.025" height="1.025" fill="rgba(245,175,0,1.000)" /><rect x="7" y="20" width="1.025" height="1.025" fill="rgba(170,109,18,1.000)" /><rect x="27" y="20" width="1.025" height="1.025" fill="rgba(208,147,0,1.000)" /><rect x="28" y="20" width="1.025" height="1.025" fill="rgba(252,181,0,1.000)" /><rect x="29" y="20" width="1.025" height="1.025" fill="rgba(219,155,0,1.000)" /><rect x="30" y="20" width="1.025" height="1.025" fill="rgba(222,158,0,1.000)" /><rect x="4" y="21" width="1.025" height="1.025" fill="rgba(247,176,0,1.000)" /><rect x="5" y="21" width="1.025" height="1.025" fill="rgba(221,156,0,1.000)" /><rect x="6" y="21" width="1.025" height="1.025" fill="rgba(252,181,0,1.000)" /><rect x="7" y="21" width="1.025" height="1.025" fill="rgba(170,109,18,1.000)" /><rect x="8" y="21" width="1.025" height="1.025" fill="rgba(222,158,0,1.000)" /><rect x="27" y="21" width="1.025" height="1.025" fill="rgba(219,155,0,1.000)" /><rect x="28" y="21" width="1.025" height="1.025" fill="rgba(222,158,0,1.000)" /><rect x="29" y="21" width="1.025" height="1.025" fill="rgba(220,156,0,1.000)" /><rect x="30" y="21" width="1.025" height="1.025" fill="rgba(224,159,0,0.820)" /><rect x="31" y="21" width="1.025" height="1.025" fill="rgba(210,148,0,1.000)" /><rect x="3" y="22" width="1.025" height="1.025" fill="rgba(148,90,8,1.000)" /><rect x="4" y="22" width="1.025" height="1.025" fill="rgba(245,175,0,1.000)" /><rect x="5" y="22" width="1.025" height="1.025" fill="rgba(226,161,0,1.000)" /><rect x="6" y="22" width="1.025" height="1.025" fill="rgba(222,158,0,1.000)" /><rect x="7" y="22" width="1.025" height="1.025" fill="rgba(151,86,2,1.000)" /><rect x="8" y="22" width="1.025" height="1.025" fill="rgba(222,158,0,1.000)" /><rect x="27" y="22" width="1.025" height="1.025" fill="rgba(220,156,0,1.000)" /><rect x="28" y="22" width="1.025" height="1.025" fill="rgba(224,159,0,0.820)" /><rect x="29" y="22" width="1.025" height="1.025" fill="rgba(210,148,0,1.000)" /><rect x="30" y="22" width="1.025" height="1.025" fill="rgba(249,178,0,1.000)" /><rect x="31" y="22" width="1.025" height="1.025" fill="rgba(215,152,0,1.000)" /><rect x="3" y="23" width="1.025" height="1.025" fill="rgba(182,107,0,1.000)" /><rect x="4" y="23" width="1.025" height="1.025" fill="rgba(245,175,0,1.000)" /><rect x="5" y="23" width="1.025" height="1.025" fill="rgba(252,181,0,1.000)" /><rect x="6" y="23" width="1.025" height="1.025" fill="rgba(224,159,0,0.820)" /><rect x="7" y="23" width="1.025" height="1.025" fill="rgba(189,124,1,1.000)" /><rect x="8" y="23" width="1.025" height="1.025" fill="rgba(222,158,0,1.000)" /><rect x="27" y="23" width="1.025" height="1.025" fill="rgba(210,148,0,1.000)" /><rect x="28" y="23" width="1.025" height="1.025" fill="rgba(249,178,0,1.000)" /><rect x="29" y="23" width="1.025" height="1.025" fill="rgba(206,146,0,1.000)" /><rect x="30" y="23" width="1.025" height="1.025" fill="rgba(245,175,0,1.000)" /><rect x="31" y="23" width="1.025" height="1.025" fill="rgba(217,153,0,1.000)" /><rect x="3" y="24" width="1.025" height="1.025" fill="rgba(247,176,0,1.000)" /><rect x="4" y="24" width="1.025" height="1.025" fill="rgba(222,158,0,1.000)" /><rect x="5" y="24" width="1.025" height="1.025" fill="rgba(252,181,0,1.000)" /><rect x="6" y="24" width="1.025" height="1.025" fill="rgba(243,174,0,0.329)" /><rect x="7" y="24" width="1.025" height="1.025" fill="rgba(232,166,0,0.843)" /><rect x="8" y="24" width="1.025" height="1.025" fill="rgba(222,158,0,1.000)" /><rect x="27" y="24" width="1.025" height="1.025" fill="rgba(206,146,0,1.000)" /><rect x="28" y="24" width="1.025" height="1.025" fill="rgba(245,175,0,1.000)" /><rect x="29" y="24" width="1.025" height="1.025" fill="rgba(208,147,0,1.000)" /><rect x="30" y="24" width="1.025" height="1.025" fill="rgba(252,181,0,1.000)" /><rect x="31" y="24" width="1.025" height="1.025" fill="rgba(152,86,2,0.569)" /><rect x="3" y="25" width="1.025" height="1.025" fill="rgba(245,175,0,1.000)" /><rect x="5" y="25" width="1.025" height="1.025" fill="rgba(222,158,0,0.486)" /><rect x="7" y="25" width="1.025" height="1.025" fill="rgba(222,158,0,1.000)" /><rect x="8" y="25" width="1.025" height="1.025" fill="rgba(252,181,0,0.341)" /><rect x="27" y="25" width="1.025" height="1.025" fill="rgba(208,147,0,1.000)" /><rect x="28" y="25" width="1.025" height="1.025" fill="rgba(252,181,0,1.000)" /><rect x="29" y="25" width="1.025" height="1.025" fill="rgba(152,86,2,1.000)" /><rect x="30" y="25" width="1.025" height="1.025" fill="rgba(210,148,0,1.000)" /><rect x="3" y="26" width="1.025" height="1.025" fill="rgba(245,175,0,1.000)" /><rect x="5" y="26" width="1.025" height="1.025" fill="rgba(222,158,0,0.341)" /><rect x="7" y="26" width="1.025" height="1.025" fill="rgba(222,158,0,1.000)" /><rect x="8" y="26" width="1.025" height="1.025" fill="rgba(252,181,0,1.000)" /><rect x="27" y="26" width="1.025" height="1.025" fill="rgba(219,155,0,1.000)" /><rect x="28" y="26" width="1.025" height="1.025" fill="rgba(222,158,0,1.000)" /><rect x="29" y="26" width="1.025" height="1.025" fill="rgba(193,127,1,1.000)" /><rect x="30" y="26" width="1.025" height="1.025" fill="rgba(210,148,0,1.000)" /><rect x="27" y="27" width="1.025" height="1.025" fill="rgba(220,156,0,1.000)" /><rect x="28" y="27" width="1.025" height="1.025" fill="rgba(224,159,0,0.820)" /><rect x="29" y="27" width="1.025" height="1.025" fill="rgba(215,155,0,0.569)" /><rect x="30" y="27" width="1.025" height="1.025" fill="rgba(245,175,0,1.000)" /></svg>