<svg shape-rendering="crispEdges" xmlns="http://www.w3.org/2000/svg" version="1.1" width="37" height="37"><style>rect { image-rendering: pixelated; }</style><rect x="14" y="5" width="1.025" height="1.025" fill="rgba(242,88,0,1.000)" /><rect x="15" y="5" width="1.025" height="1.025" fill="rgba(255,105,0,1.000)" /><rect x="16" y="5" width="1.025" height="1.025" fill="rgba(255,112,0,1.000)" /><rect x="17" y="5" width="1.025" height="1.025" fill="rgba(252,107,0,1.000)" /><rect x="18" y="5" width="1.025" height="1.025" fill="rgba(238,97,0,1.000)" /><rect x="19" y="5" width="1.025" height="1.025" fill="rgba(230,85,0,1.000)" /><rect x="20" y="5" width="1.025" height="1.025" fill="rgba(255,103,0,1.000)" /><rect x="21" y="5" width="1.025" height="1.025" fill="rgba(237,91,0,1.000)" /><rect x="22" y="5" width="1.025" height="1.025" fill="rgba(232,88,0,1.000)" /><rect x="13" y="6" width="1.025" height="1.025" fill="rgba(215,71,0,1.000)" /><rect x="14" y="6" width="1.025" height="1.025" fill="rgba(222,78,0,1.000)" /><rect x="15" y="6" width="1.025" height="1.025" fill="rgba(253,99,0,1.000)" /><rect x="16" y="6" width="1.025" height="1.025" fill="rgba(255,119,0,1.000)" /><rect x="17" y="6" width="1.025" height="1.025" fill="rgba(255,126,0,1.000)" /><rect x="18" y="6" width="1.025" height="1.025" fill="rgba(250,108,0,1.000)" /><rect x="19" y="6" width="1.025" height="1.025" fill="rgba(231,87,0,1.000)" /><rect x="20" y="6" width="1.025" height="1.025" fill="rgba(253,100,0,1.000)" /><rect x="21" y="6" width="1.025" height="1.025" fill="rgba(245,97,0,1.000)" /><rect x="22" y="6" width="1.025" height="1.025" fill="rgba(235,86,0,1.000)" /><rect x="23" y="6" width="1.025" height="1.025" fill="rgba(234,85,0,1.000)" /><rect x="12" y="7" width="1.025" height="1.025" fill="rgba(228,80,0,1.000)" /><rect x="13" y="7" width="1.025" height="1.025" fill="rgba(220,75,0,1.000)" /><rect x="14" y="7" width="1.025" height="1.025" fill="rgba(232,82,0,1.000)" /><rect x="15" y="7" width="1.025" height="1.025" fill="rgba(253,102,0,1.000)" /><rect x="16" y="7" width="1.025" height="1.025" fill="rgba(255,113,0,1.000)" /><rect x="17" y="7" width="1.025" height="1.025" fill="rgba(255,118,0,1.000)" /><rect x="18" y="7" width="1.025" height="1.025" fill="rgba(246,103,0,1.000)" /><rect x="19" y="7" width="1.025" height="1.025" fill="rgba(223,83,0,1.000)" /><rect x="20" y="7" width="1.025" height="1.025" fill="rgba(250,100,0,1.000)" /><rect x="21" y="7" width="1.025" height="1.025" fill="rgba(255,105,0,1.000)" /><rect x="22" y="7" width="1.025" height="1.025" fill="rgba(250,96,0,1.000)" /><rect x="23" y="7" width="1.025" height="1.025" fill="rgba(231,89,0,1.000)" /><rect x="24" y="7" width="1.025" height="1.025" fill="rgba(222,85,0,1.000)" /><rect x="11" y="8" width="1.025" height="1.025" fill="rgba(203,72,0,1.000)" /><rect x="12" y="8" width="1.025" height="1.025" fill="rgba(217,79,0,1.000)" /><rect x="13" y="8" width="1.025" height="1.025" fill="rgba(241,88,0,1.000)" /><rect x="14" y="8" width="1.025" height="1.025" fill="rgba(254,94,0,1.000)" /><rect x="15" y="8" width="1.025" height="1.025" fill="rgba(255,103,0,1.000)" /><rect x="16" y="8" width="1.025" height="1.025" fill="rgba(255,98,0,1.000)" /><rect x="17" y="8" width="1.025" height="1.025" fill="rgba(255,100,0,1.000)" /><rect x="18" y="8" width="1.025" height="1.025" fill="rgba(255,103,0,1.000)" /><rect x="19" y="8" width="1.025" height="1.025" fill="rgba(255,102,0,1.000)" /><rect x="20" y="8" width="1.025" height="1.025" fill="rgba(255,102,0,1.000)" /><rect x="21" y="8" width="1.025" height="1.025" fill="rgba(255,100,0,1.000)" /><rect x="22" y="8" width="1.025" height="1.025" fill="rgba(255,109,0,1.000)" /><rect x="23" y="8" width="1.025" height="1.025" fill="rgba(255,119,0,1.000)" /><rect x="24" y="8" width="1.025" height="1.025" fill="rgba(231,94,0,1.000)" /><rect x="11" y="9" width="1.025" height="1.025" fill="rgba(200,72,0,1.000)" /><rect x="12" y="9" width="1.025" height="1.025" fill="rgba(212,74,0,1.000)" /><rect x="13" y="9" width="1.025" height="1.025" fill="rgba(223,76,0,1.000)" /><rect x="14" y="9" width="1.025" height="1.025" fill="rgba(229,81,0,1.000)" /><rect x="15" y="9" width="1.025" height="1.025" fill="rgba(255,102,0,1.000)" /><rect x="16" y="9" width="1.025" height="1.025" fill="rgba(255,118,0,1.000)" /><rect x="17" y="9" width="1.025" height="1.025" fill="rgba(255,118,0,1.000)" /><rect x="18" y="9" width="1.025" height="1.025" fill="rgba(246,94,0,1.000)" /><rect x="21" y="9" width="1.025" height="1.025" fill="rgba(243,89,0,1.000)" /><rect x="22" y="9" width="1.025" height="1.025" fill="rgba(245,96,0,1.000)" /><rect x="23" y="9" width="1.025" height="1.025" fill="rgba(253,110,0,1.000)" /><rect x="24" y="9" width="1.025" height="1.025" fill="rgba(227,91,0,1.000)" /><rect x="11" y="10" width="1.025" height="1.025" fill="rgba(231,83,0,1.000)" /><rect x="12" y="10" width="1.025" height="1.025" fill="rgba(214,73,0,1.000)" /><rect x="13" y="10" width="1.025" height="1.025" fill="rgba(222,77,0,1.000)" /><rect x="14" y="10" width="1.025" height="1.025" fill="rgba(245,95,0,1.000)" /><rect x="15" y="10" width="1.025" height="1.025" fill="rgba(242,90,0,1.000)" /><rect x="23" y="10" width="1.025" height="1.025" fill="rgba(244,91,0,1.000)" /><rect x="24" y="10" width="1.025" height="1.025" fill="rgba(238,102,0,1.000)" /><rect x="10" y="11" width="1.025" height="1.025" fill="rgba(218,79,0,1.000)" /><rect x="11" y="11" width="1.025" height="1.025" fill="rgba(227,83,0,1.000)" /><rect x="12" y="11" width="1.025" height="1.025" fill="rgba(226,79,0,1.000)" /><rect x="13" y="11" width="1.025" height="1.025" fill="rgba(235,85,0,1.000)" /><rect x="24" y="11" width="1.025" height="1.025" fill="rgba(238,102,0,1.000)" /><rect x="25" y="11" width="1.025" height="1.025" fill="rgba(172,60,0,1.000)" /><rect x="26" y="11" width="1.025" height="1.025" fill="rgba(248,90,0,1.000)" /><rect x="27" y="11" width="1.025" height="1.025" fill="rgba(211,75,0,1.000)" /><rect x="28" y="11" width="1.025" height="1.025" fill="rgba(247,91,0,1.000)" /><rect x="29" y="11" width="1.025" height="1.025" fill="rgba(216,76,0,1.000)" /><rect x="5" y="12" width="1.025" height="1.025" fill="rgba(216,76,0,1.000)" /><rect x="6" y="12" width="1.025" height="1.025" fill="rgba(247,91,0,1.000)" /><rect x="7" y="12" width="1.025" height="1.025" fill="rgba(211,75,0,1.000)" /><rect x="8" y="12" width="1.025" height="1.025" fill="rgba(248,90,0,1.000)" /><rect x="9" y="12" width="1.025" height="1.025" fill="rgba(172,60,0,1.000)" /><rect x="10" y="12" width="1.025" height="1.025" fill="rgba(210,75,0,1.000)" /><rect x="11" y="12" width="1.025" height="1.025" fill="rgba(198,73,0,1.000)" /><rect x="12" y="12" width="1.025" height="1.025" fill="rgba(206,72,0,1.000)" /><rect x="13" y="12" width="1.025" height="1.025" fill="rgba(175,61,0,1.000)" /><rect x="25" y="12" width="1.025" height="1.025" fill="rgba(172,60,0,1.000)" /><rect x="26" y="12" width="1.025" height="1.025" fill="rgba(248,90,0,1.000)" /><rect x="27" y="12" width="1.025" height="1.025" fill="rgba(207,73,0,1.000)" /><rect x="28" y="12" width="1.025" height="1.025" fill="rgba(246,89,0,1.000)" /><rect x="29" y="12" width="1.025" height="1.025" fill="rgba(215,76,0,1.000)" /><rect x="30" y="12" width="1.025" height="1.025" fill="rgba(210,75,0,1.000)" /><rect x="31" y="12" width="1.025" height="1.025" fill="rgba(249,90,0,1.000)" /><rect x="32" y="12" width="1.025" height="1.025" fill="rgba(215,76,0,1.000)" /><rect x="3" y="13" width="1.025" height="1.025" fill="rgba(215,76,0,1.000)" /><rect x="4" y="13" width="1.025" height="1.025" fill="rgba(249,90,0,1.000)" /><rect x="5" y="13" width="1.025" height="1.025" fill="rgba(210,75,0,1.000)" /><rect x="6" y="13" width="1.025" height="1.025" fill="rgba(246,89,0,1.000)" /><rect x="7" y="13" width="1.025" height="1.025" fill="rgba(207,73,0,1.000)" /><rect x="8" y="13" width="1.025" height="1.025" fill="rgba(248,90,0,1.000)" /><rect x="9" y="13" width="1.025" height="1.025" fill="rgba(172,60,0,1.000)" /><rect x="10" y="13" width="1.025" height="1.025" fill="rgba(211,75,0,1.000)" /><rect x="11" y="13" width="1.025" height="1.025" fill="rgba(190,68,0,1.000)" /><rect x="12" y="13" width="1.025" height="1.025" fill="rgba(171,60,0,0.486)" /><rect x="25" y="13" width="1.025" height="1.025" fill="rgba(173,61,0,1.000)" /><rect x="26" y="13" width="1.025" height="1.025" fill="rgba(250,91,0,1.000)" /><rect x="27" y="13" width="1.025" height="1.025" fill="rgba(207,73,0,1.000)" /><rect x="28" y="13" width="1.025" height="1.025" fill="rgba(247,90,0,1.000)" /><rect x="29" y="13" width="1.025" height="1.025" fill="rgba(221,79,0,1.000)" /><rect x="30" y="13" width="1.025" height="1.025" fill="rgba(206,74,0,1.000)" /><rect x="31" y="13" width="1.025" height="1.025" fill="rgba(245,89,0,1.000)" /><rect x="32" y="13" width="1.025" height="1.025" fill="rgba(217,77,0,1.000)" /><rect x="33" y="13" width="1.025" height="1.025" fill="rgba(222,80,0,1.000)" /><rect x="34" y="13" width="1.025" height="1.025" fill="rgba(226,82,0,1.000)" /><rect x="1" y="14" width="1.025" height="1.025" fill="rgba(221,79,0,1.000)" /><rect x="2" y="14" width="1.025" height="1.025" fill="rgba(252,93,0,1.000)" /><rect x="3" y="14" width="1.025" height="1.025" fill="rgba(208,74,0,1.000)" /><rect x="4" y="14" width="1.025" height="1.025" fill="rgba(245,89,0,1.000)" /><rect x="5" y="14" width="1.025" height="1.025" fill="rgba(206,74,0,1.000)" /><rect x="6" y="14" width="1.025" height="1.025" fill="rgba(247,90,0,1.000)" /><rect x="7" y="14" width="1.025" height="1.025" fill="rgba(207,73,0,1.000)" /><rect x="8" y="14" width="1.025" height="1.025" fill="rgba(250,91,0,1.000)" /><rect x="9" y="14" width="1.025" height="1.025" fill="rgba(173,61,0,1.000)" /><rect x="10" y="14" width="1.025" height="1.025" fill="rgba(212,74,0,1.000)" /><rect x="11" y="14" width="1.025" height="1.025" fill="rgba(199,70,0,0.486)" /><rect x="28" y="14" width="1.025" height="1.025" fill="rgba(209,75,0,1.000)" /><rect x="29" y="14" width="1.025" height="1.025" fill="rgba(249,90,0,1.000)" /><rect x="30" y="14" width="1.025" height="1.025" fill="rgba(208,74,0,1.000)" /><rect x="31" y="14" width="1.025" height="1.025" fill="rgba(252,93,0,1.000)" /><rect x="32" y="14" width="1.025" height="1.025" fill="rgba(221,79,0,1.000)" /><rect x="33" y="14" width="1.025" height="1.025" fill="rgba(224,80,0,0.820)" /><rect x="34" y="14" width="1.025" height="1.025" fill="rgba(215,80,0,0.569)" /><rect x="1" y="15" width="1.025" height="1.025" fill="rgba(226,82,0,1.000)" /><rect x="2" y="15" width="1.025" height="1.025" fill="rgba(222,80,0,1.000)" /><rect x="3" y="15" width="1.025" height="1.025" fill="rgba(219,78,0,1.000)" /><rect x="4" y="15" width="1.025" height="1.025" fill="rgba(252,93,0,1.000)" /><rect x="5" y="15" width="1.025" height="1.025" fill="rgba(208,74,0,1.000)" /><rect x="6" y="15" width="1.025" height="1.025" fill="rgba(209,75,0,1.000)" /><rect x="10" y="15" width="1.025" height="1.025" fill="rgba(213,76,0,1.000)" /><rect x="31" y="15" width="1.025" height="1.025" fill="rgba(222,80,0,1.000)" /><rect x="32" y="15" width="1.025" height="1.025" fill="rgba(219,78,0,1.000)" /><rect x="33" y="15" width="1.025" height="1.025" fill="rgba(222,80,0,1.000)" /><rect x="34" y="15" width="1.025" height="1.025" fill="rgba(226,82,0,1.000)" /><rect x="1" y="16" width="1.025" height="1.025" fill="rgba(215,80,0,0.569)" /><rect x="2" y="16" width="1.025" height="1.025" fill="rgba(224,80,0,0.820)" /><rect x="3" y="16" width="1.025" height="1.025" fill="rgba(220,79,0,1.000)" /><rect x="4" y="16" width="1.025" height="1.025" fill="rgba(222,80,0,1.000)" /><rect x="5" y="16" width="1.025" height="1.025" fill="rgba(219,78,0,1.000)" /><rect x="10" y="16" width="1.025" height="1.025" fill="rgba(219,77,0,1.000)" /><rect x="31" y="16" width="1.025" height="1.025" fill="rgba(224,80,0,0.820)" /><rect x="32" y="16" width="1.025" height="1.025" fill="rgba(220,79,0,1.000)" /><rect x="33" y="16" width="1.025" height="1.025" fill="rgba(224,80,0,0.820)" /><rect x="34" y="16" width="1.025" height="1.025" fill="rgba(215,80,0,0.569)" /><rect x="2" y="17" width="1.025" height="1.025" fill="rgba(243,89,0,0.329)" /><rect x="3" y="17" width="1.025" height="1.025" fill="rgba(230,84,0,0.933)" /><rect x="4" y="17" width="1.025" height="1.025" fill="rgba(224,80,0,0.820)" /><rect x="5" y="17" width="1.025" height="1.025" fill="rgba(220,79,0,1.000)" /><rect x="10" y="17" width="1.025" height="1.025" fill="rgba(226,81,0,1.000)" /><rect x="11" y="17" width="1.025" height="1.025" fill="rgba(97,34,0,1.000)" /><rect x="4" y="18" width="1.025" height="1.025" fill="rgba(243,89,0,0.329)" /><rect x="5" y="18" width="1.025" height="1.025" fill="rgba(232,84,0,0.843)" /><rect x="11" y="18" width="1.025" height="1.025" fill="rgba(170,62,0,1.000)" /><rect x="12" y="18" width="1.025" height="1.025" fill="rgba(97,34,0,1.000)" /><rect x="11" y="19" width="1.025" height="1.025" fill="rgba(201,72,0,1.000)" /><rect x="12" y="19" width="1.025" height="1.025" fill="rgba(151,53,0,1.000)" /></svg>