<svg shape-rendering="crispEdges" xmlns="http://www.w3.org/2000/svg" version="1.1" width="37" height="37"><style>rect { image-rendering: pixelated; }</style><rect x="13" y="4" width="1.025" height="1.025" fill="rgba(206,123,0,1.000)" /><rect x="14" y="4" width="1.025" height="1.025" fill="rgba(161,102,1,1.000)" /><rect x="15" y="4" width="1.025" height="1.025" fill="rgba(102,49,6,1.000)" /><rect x="16" y="4" width="1.025" height="1.025" fill="rgba(69,22,8,1.000)" /><rect x="17" y="4" width="1.025" height="1.025" fill="rgba(147,93,3,1.000)" /><rect x="18" y="4" width="1.025" height="1.025" fill="rgba(34,18,10,1.000)" /><rect x="19" y="4" width="1.025" height="1.025" fill="rgba(80,49,10,1.000)" /><rect x="20" y="4" width="1.025" height="1.025" fill="rgba(141,90,1,1.000)" /><rect x="21" y="4" width="1.025" height="1.025" fill="rgba(82,48,11,1.000)" /><rect x="22" y="4" width="1.025" height="1.025" fill="rgba(163,102,1,1.000)" /><rect x="12" y="5" width="1.025" height="1.025" fill="rgba(255,207,11,1.000)" /><rect x="13" y="5" width="1.025" height="1.025" fill="rgba(180,120,10,1.000)" /><rect x="14" y="5" width="1.025" height="1.025" fill="rgba(193,128,17,1.000)" /><rect x="15" y="5" width="1.025" height="1.025" fill="rgba(250,196,47,1.000)" /><rect x="16" y="5" width="1.025" height="1.025" fill="rgba(240,181,40,1.000)" /><rect x="17" y="5" width="1.025" height="1.025" fill="rgba(239,183,35,1.000)" /><rect x="18" y="5" width="1.025" height="1.025" fill="rgba(240,183,36,1.000)" /><rect x="19" y="5" width="1.025" height="1.025" fill="rgba(241,187,40,1.000)" /><rect x="20" y="5" width="1.025" height="1.025" fill="rgba(236,180,33,1.000)" /><rect x="21" y="5" width="1.025" height="1.025" fill="rgba(237,177,40,1.000)" /><rect x="22" y="5" width="1.025" height="1.025" fill="rgba(241,186,40,1.000)" /><rect x="23" y="5" width="1.025" height="1.025" fill="rgba(220,153,35,1.000)" /><rect x="12" y="6" width="1.025" height="1.025" fill="rgba(87,32,0,1.000)" /><rect x="13" y="6" width="1.025" height="1.025" fill="rgba(180,117,0,1.000)" /><rect x="14" y="6" width="1.025" height="1.025" fill="rgba(210,151,21,1.000)" /><rect x="15" y="6" width="1.025" height="1.025" fill="rgba(247,190,42,1.000)" /><rect x="16" y="6" width="1.025" height="1.025" fill="rgba(254,211,72,1.000)" /><rect x="17" y="6" width="1.025" height="1.025" fill="rgba(250,203,61,1.000)" /><rect x="18" y="6" width="1.025" height="1.025" fill="rgba(253,205,65,1.000)" /><rect x="19" y="6" width="1.025" height="1.025" fill="rgba(255,225,106,1.000)" /><rect x="20" y="6" width="1.025" height="1.025" fill="rgba(253,204,62,1.000)" /><rect x="21" y="6" width="1.025" height="1.025" fill="rgba(246,195,50,1.000)" /><rect x="22" y="6" width="1.025" height="1.025" fill="rgba(242,190,45,1.000)" /><rect x="23" y="6" width="1.025" height="1.025" fill="rgba(241,190,49,1.000)" /><rect x="24" y="6" width="1.025" height="1.025" fill="rgba(131,66,0,1.000)" /><rect x="11" y="7" width="1.025" height="1.025" fill="rgba(188,129,9,1.000)" /><rect x="12" y="7" width="1.025" height="1.025" fill="rgba(220,157,29,1.000)" /><rect x="13" y="7" width="1.025" height="1.025" fill="rgba(225,164,21,1.000)" /><rect x="14" y="7" width="1.025" height="1.025" fill="rgba(247,196,50,1.000)" /><rect x="15" y="7" width="1.025" height="1.025" fill="rgba(254,208,66,1.000)" /><rect x="16" y="7" width="1.025" height="1.025" fill="rgba(255,213,81,1.000)" /><rect x="17" y="7" width="1.025" height="1.025" fill="rgba(255,217,87,1.000)" /><rect x="18" y="7" width="1.025" height="1.025" fill="rgba(253,232,118,1.000)" /><rect x="19" y="7" width="1.025" height="1.025" fill="rgba(255,221,93,1.000)" /><rect x="20" y="7" width="1.025" height="1.025" fill="rgba(253,201,57,1.000)" /><rect x="21" y="7" width="1.025" height="1.025" fill="rgba(255,225,107,1.000)" /><rect x="22" y="7" width="1.025" height="1.025" fill="rgba(254,219,94,1.000)" /><rect x="23" y="7" width="1.025" height="1.025" fill="rgba(232,193,73,1.000)" /><rect x="24" y="7" width="1.025" height="1.025" fill="rgba(254,220,99,1.000)" /><rect x="25" y="7" width="1.025" height="1.025" fill="rgba(246,226,121,1.000)" /><rect x="10" y="8" width="1.025" height="1.025" fill="rgba(254,214,0,1.000)" /><rect x="11" y="8" width="1.025" height="1.025" fill="rgba(188,121,5,1.000)" /><rect x="12" y="8" width="1.025" height="1.025" fill="rgba(195,132,14,1.000)" /><rect x="13" y="8" width="1.025" height="1.025" fill="rgba(248,200,57,1.000)" /><rect x="14" y="8" width="1.025" height="1.025" fill="rgba(254,217,91,1.000)" /><rect x="15" y="8" width="1.025" height="1.025" fill="rgba(254,209,77,1.000)" /><rect x="16" y="8" width="1.025" height="1.025" fill="rgba(250,241,147,1.000)" /><rect x="17" y="8" width="1.025" height="1.025" fill="rgba(254,231,117,1.000)" /><rect x="18" y="8" width="1.025" height="1.025" fill="rgba(253,228,116,1.000)" /><rect x="19" y="8" width="1.025" height="1.025" fill="rgba(255,230,124,1.000)" /><rect x="20" y="8" width="1.025" height="1.025" fill="rgba(255,233,124,1.000)" /><rect x="21" y="8" width="1.025" height="1.025" fill="rgba(255,228,108,1.000)" /><rect x="22" y="8" width="1.025" height="1.025" fill="rgba(255,231,124,1.000)" /><rect x="23" y="8" width="1.025" height="1.025" fill="rgba(255,226,112,1.000)" /><rect x="24" y="8" width="1.025" height="1.025" fill="rgba(253,226,106,1.000)" /><rect x="25" y="8" width="1.025" height="1.025" fill="rgba(254,215,92,1.000)" /><rect x="26" y="8" width="1.025" height="1.025" fill="rgba(156,91,6,1.000)" /><rect x="10" y="9" width="1.025" height="1.025" fill="rgba(104,56,9,1.000)" /><rect x="11" y="9" width="1.025" height="1.025" fill="rgba(200,135,18,1.000)" /><rect x="12" y="9" width="1.025" height="1.025" fill="rgba(246,191,47,1.000)" /><rect x="13" y="9" width="1.025" height="1.025" fill="rgba(223,172,42,1.000)" /><rect x="14" y="9" width="1.025" height="1.025" fill="rgba(255,219,95,1.000)" /><rect x="15" y="9" width="1.025" height="1.025" fill="rgba(252,220,92,1.000)" /><rect x="16" y="9" width="1.025" height="1.025" fill="rgba(252,206,78,1.000)" /><rect x="17" y="9" width="1.025" height="1.025" fill="rgba(254,215,87,1.000)" /><rect x="18" y="9" width="1.025" height="1.025" fill="rgba(253,224,102,1.000)" /><rect x="19" y="9" width="1.025" height="1.025" fill="rgba(253,212,77,1.000)" /><rect x="20" y="9" width="1.025" height="1.025" fill="rgba(255,230,118,1.000)" /><rect x="21" y="9" width="1.025" height="1.025" fill="rgba(252,223,100,1.000)" /><rect x="22" y="9" width="1.025" height="1.025" fill="rgba(243,186,42,1.000)" /><rect x="23" y="9" width="1.025" height="1.025" fill="rgba(253,240,134,1.000)" /><rect x="24" y="9" width="1.025" height="1.025" fill="rgba(242,188,46,1.000)" /><rect x="25" y="9" width="1.025" height="1.025" fill="rgba(255,215,88,1.000)" /><rect x="26" y="9" width="1.025" height="1.025" fill="rgba(237,183,47,1.000)" /><rect x="10" y="10" width="1.025" height="1.025" fill="rgba(180,117,0,1.000)" /><rect x="11" y="10" width="1.025" height="1.025" fill="rgba(241,190,38,1.000)" /><rect x="12" y="10" width="1.025" height="1.025" fill="rgba(252,208,70,1.000)" /><rect x="13" y="10" width="1.025" height="1.025" fill="rgba(232,172,28,1.000)" /><rect x="14" y="10" width="1.025" height="1.025" fill="rgba(254,215,81,1.000)" /><rect x="15" y="10" width="1.025" height="1.025" fill="rgba(240,181,33,1.000)" /><rect x="17" y="10" width="1.025" height="1.025" fill="rgba(246,196,51,1.000)" /><rect x="19" y="10" width="1.025" height="1.025" fill="rgba(249,200,59,1.000)" /><rect x="21" y="10" width="1.025" height="1.025" fill="rgba(255,222,94,1.000)" /><rect x="25" y="10" width="1.025" height="1.025" fill="rgba(237,182,42,1.000)" /><rect x="10" y="11" width="1.025" height="1.025" fill="rgba(140,86,2,1.000)" /><rect x="11" y="11" width="1.025" height="1.025" fill="rgba(201,135,15,1.000)" /><rect x="12" y="11" width="1.025" height="1.025" fill="rgba(220,153,22,1.000)" /><rect x="13" y="11" width="1.025" height="1.025" fill="rgba(218,158,20,1.000)" /><rect x="14" y="11" width="1.025" height="1.025" fill="rgba(242,188,43,1.000)" /><rect x="25" y="11" width="1.025" height="1.025" fill="rgba(172,107,5,1.000)" /><rect x="10" y="12" width="1.025" height="1.025" fill="rgba(180,117,0,1.000)" /><rect x="11" y="12" width="1.025" height="1.025" fill="rgba(164,97,10,1.000)" /><rect x="12" y="12" width="1.025" height="1.025" fill="rgba(170,104,9,1.000)" /><rect x="13" y="12" width="1.025" height="1.025" fill="rgba(215,151,25,1.000)" /><rect x="14" y="12" width="1.025" height="1.025" fill="rgba(220,159,20,1.000)" /><rect x="24" y="12" width="1.025" height="1.025" fill="rgba(166,87,42,0.412)" /><rect x="25" y="12" width="1.025" height="1.025" fill="rgba(51,19,0,1.000)" /><rect x="10" y="13" width="1.025" height="1.025" fill="rgba(61,23,7,1.000)" /><rect x="11" y="13" width="1.025" height="1.025" fill="rgba(180,117,0,1.000)" /><rect x="14" y="13" width="1.025" height="1.025" fill="rgba(223,158,21,1.000)" /><rect x="11" y="14" width="1.025" height="1.025" fill="rgba(180,117,0,1.000)" /><rect x="14" y="14" width="1.025" height="1.025" fill="rgba(216,152,26,1.000)" /></svg>