<svg shape-rendering="crispEdges" xmlns="http://www.w3.org/2000/svg" version="1.1" width="37" height="37"><style>rect { image-rendering: pixelated; }</style><rect x="13" y="4" width="1.025" height="1.025" fill="rgba(36,10,79,1.000)" /><rect x="14" y="4" width="1.025" height="1.025" fill="rgba(45,5,86,1.000)" /><rect x="15" y="4" width="1.025" height="1.025" fill="rgba(61,7,86,1.000)" /><rect x="16" y="4" width="1.025" height="1.025" fill="rgba(59,10,107,1.000)" /><rect x="17" y="4" width="1.025" height="1.025" fill="rgba(58,9,99,1.000)" /><rect x="18" y="4" width="1.025" height="1.025" fill="rgba(21,9,94,1.000)" /><rect x="19" y="4" width="1.025" height="1.025" fill="rgba(3,15,85,1.000)" /><rect x="20" y="4" width="1.025" height="1.025" fill="rgba(0,16,76,1.000)" /><rect x="21" y="4" width="1.025" height="1.025" fill="rgba(13,20,103,1.000)" /><rect x="22" y="4" width="1.025" height="1.025" fill="rgba(16,24,113,1.000)" /><rect x="12" y="5" width="1.025" height="1.025" fill="rgba(44,16,2,1.000)" /><rect x="13" y="5" width="1.025" height="1.025" fill="rgba(71,18,151,1.000)" /><rect x="14" y="5" width="1.025" height="1.025" fill="rgba(88,9,168,1.000)" /><rect x="15" y="5" width="1.025" height="1.025" fill="rgba(122,12,171,1.000)" /><rect x="16" y="5" width="1.025" height="1.025" fill="rgba(116,20,207,1.000)" /><rect x="17" y="5" width="1.025" height="1.025" fill="rgba(115,18,194,1.000)" /><rect x="18" y="5" width="1.025" height="1.025" fill="rgba(42,18,186,1.000)" /><rect x="19" y="5" width="1.025" height="1.025" fill="rgba(5,30,169,1.000)" /><rect x="20" y="5" width="1.025" height="1.025" fill="rgba(0,30,146,1.000)" /><rect x="21" y="5" width="1.025" height="1.025" fill="rgba(26,40,199,1.000)" /><rect x="22" y="5" width="1.025" height="1.025" fill="rgba(32,48,219,1.000)" /><rect x="23" y="5" width="1.025" height="1.025" fill="rgba(2,0,5,1.000)" /><rect x="12" y="6" width="1.025" height="1.025" fill="rgba(75,15,146,1.000)" /><rect x="13" y="6" width="1.025" height="1.025" fill="rgba(89,13,199,1.000)" /><rect x="14" y="6" width="1.025" height="1.025" fill="rgba(116,23,203,1.000)" /><rect x="15" y="6" width="1.025" height="1.025" fill="rgba(157,15,181,1.000)" /><rect x="16" y="6" width="1.025" height="1.025" fill="rgba(117,31,208,1.000)" /><rect x="17" y="6" width="1.025" height="1.025" fill="rgba(116,36,212,1.000)" /><rect x="18" y="6" width="1.025" height="1.025" fill="rgba(59,56,213,1.000)" /><rect x="19" y="6" width="1.025" height="1.025" fill="rgba(3,74,201,1.000)" /><rect x="20" y="6" width="1.025" height="1.025" fill="rgba(9,74,208,1.000)" /><rect x="21" y="6" width="1.025" height="1.025" fill="rgba(4,155,230,1.000)" /><rect x="22" y="6" width="1.025" height="1.025" fill="rgba(34,131,198,1.000)" /><rect x="23" y="6" width="1.025" height="1.025" fill="rgba(4,186,236,1.000)" /><rect x="24" y="6" width="1.025" height="1.025" fill="rgba(3,3,0,1.000)" /><rect x="11" y="7" width="1.025" height="1.025" fill="rgba(2,0,11,1.000)" /><rect x="12" y="7" width="1.025" height="1.025" fill="rgba(12,33,187,1.000)" /><rect x="13" y="7" width="1.025" height="1.025" fill="rgba(90,21,216,1.000)" /><rect x="14" y="7" width="1.025" height="1.025" fill="rgba(212,20,171,1.000)" /><rect x="15" y="7" width="1.025" height="1.025" fill="rgba(120,38,190,1.000)" /><rect x="16" y="7" width="1.025" height="1.025" fill="rgba(31,122,229,1.000)" /><rect x="17" y="7" width="1.025" height="1.025" fill="rgba(0,188,210,1.000)" /><rect x="18" y="7" width="1.025" height="1.025" fill="rgba(1,152,244,1.000)" /><rect x="19" y="7" width="1.025" height="1.025" fill="rgba(0,186,207,1.000)" /><rect x="20" y="7" width="1.025" height="1.025" fill="rgba(0,200,204,1.000)" /><rect x="21" y="7" width="1.025" height="1.025" fill="rgba(20,205,131,1.000)" /><rect x="22" y="7" width="1.025" height="1.025" fill="rgba(48,209,68,1.000)" /><rect x="23" y="7" width="1.025" height="1.025" fill="rgba(9,204,126,1.000)" /><rect x="24" y="7" width="1.025" height="1.025" fill="rgba(8,167,58,1.000)" /><rect x="25" y="7" width="1.025" height="1.025" fill="rgba(0,0,0,1.000)" /><rect x="10" y="8" width="1.025" height="1.025" fill="rgba(70,14,122,1.000)" /><rect x="11" y="8" width="1.025" height="1.025" fill="rgba(0,119,158,1.000)" /><rect x="12" y="8" width="1.025" height="1.025" fill="rgba(20,50,199,1.000)" /><rect x="13" y="8" width="1.025" height="1.025" fill="rgba(207,10,183,1.000)" /><rect x="14" y="8" width="1.025" height="1.025" fill="rgba(227,18,166,1.000)" /><rect x="15" y="8" width="1.025" height="1.025" fill="rgba(11,156,224,1.000)" /><rect x="16" y="8" width="1.025" height="1.025" fill="rgba(59,85,205,1.000)" /><rect x="17" y="8" width="1.025" height="1.025" fill="rgba(50,99,68,1.000)" /><rect x="18" y="8" width="1.025" height="1.025" fill="rgba(29,231,69,1.000)" /><rect x="19" y="8" width="1.025" height="1.025" fill="rgba(63,125,154,1.000)" /><rect x="20" y="8" width="1.025" height="1.025" fill="rgba(39,114,151,1.000)" /><rect x="21" y="8" width="1.025" height="1.025" fill="rgba(240,144,0,1.000)" /><rect x="22" y="8" width="1.025" height="1.025" fill="rgba(170,54,203,1.000)" /><rect x="23" y="8" width="1.025" height="1.025" fill="rgba(157,3,190,1.000)" /><rect x="24" y="8" width="1.025" height="1.025" fill="rgba(159,6,152,1.000)" /><rect x="25" y="8" width="1.025" height="1.025" fill="rgba(77,10,148,1.000)" /><rect x="26" y="8" width="1.025" height="1.025" fill="rgba(6,3,1,1.000)" /><rect x="10" y="9" width="1.025" height="1.025" fill="rgba(127,12,103,1.000)" /><rect x="11" y="9" width="1.025" height="1.025" fill="rgba(0,119,148,1.000)" /><rect x="12" y="9" width="1.025" height="1.025" fill="rgba(39,28,175,1.000)" /><rect x="13" y="9" width="1.025" height="1.025" fill="rgba(202,9,168,1.000)" /><rect x="14" y="9" width="1.025" height="1.025" fill="rgba(231,20,158,1.000)" /><rect x="15" y="9" width="1.025" height="1.025" fill="rgba(3,121,178,1.000)" /><rect x="16" y="9" width="1.025" height="1.025" fill="rgba(61,39,67,1.000)" /><rect x="17" y="9" width="1.025" height="1.025" fill="rgba(74,76,84,1.000)" /><rect x="18" y="9" width="1.025" height="1.025" fill="rgba(40,54,132,1.000)" /><rect x="19" y="9" width="1.025" height="1.025" fill="rgba(3,112,137,1.000)" /><rect x="20" y="9" width="1.025" height="1.025" fill="rgba(232,59,65,1.000)" /><rect x="21" y="9" width="1.025" height="1.025" fill="rgba(223,38,158,1.000)" /><rect x="22" y="9" width="1.025" height="1.025" fill="rgba(97,42,146,1.000)" /><rect x="23" y="9" width="1.025" height="1.025" fill="rgba(250,120,90,1.000)" /><rect x="24" y="9" width="1.025" height="1.025" fill="rgba(191,118,90,1.000)" /><rect x="25" y="9" width="1.025" height="1.025" fill="rgba(3,112,137,1.000)" /><rect x="26" y="9" width="1.025" height="1.025" fill="rgba(6,4,3,1.000)" /><rect x="10" y="10" width="1.025" height="1.025" fill="rgba(136,11,100,1.000)" /><rect x="11" y="10" width="1.025" height="1.025" fill="rgba(0,113,128,1.000)" /><rect x="12" y="10" width="1.025" height="1.025" fill="rgba(52,17,168,1.000)" /><rect x="13" y="10" width="1.025" height="1.025" fill="rgba(222,4,127,1.000)" /><rect x="14" y="10" width="1.025" height="1.025" fill="rgba(235,5,116,1.000)" /><rect x="15" y="10" width="1.025" height="1.025" fill="rgba(35,82,120,1.000)" /><rect x="17" y="10" width="1.025" height="1.025" fill="rgba(29,231,69,1.000)" /><rect x="19" y="10" width="1.025" height="1.025" fill="rgba(3,112,137,1.000)" /><rect x="21" y="10" width="1.025" height="1.025" fill="rgba(240,118,77,1.000)" /><rect x="25" y="10" width="1.025" height="1.025" fill="rgba(0,31,44,1.000)" /><rect x="10" y="11" width="1.025" height="1.025" fill="rgba(139,12,95,1.000)" /><rect x="11" y="11" width="1.025" height="1.025" fill="rgba(4,95,125,1.000)" /><rect x="12" y="11" width="1.025" height="1.025" fill="rgba(49,11,187,1.000)" /><rect x="13" y="11" width="1.025" height="1.025" fill="rgba(216,0,134,1.000)" /><rect x="14" y="11" width="1.025" height="1.025" fill="rgba(225,2,108,1.000)" /><rect x="25" y="11" width="1.025" height="1.025" fill="rgba(73,40,20,1.000)" /><rect x="10" y="12" width="1.025" height="1.025" fill="rgba(141,3,70,1.000)" /><rect x="11" y="12" width="1.025" height="1.025" fill="rgba(2,84,105,1.000)" /><rect x="12" y="12" width="1.025" height="1.025" fill="rgba(0,25,187,1.000)" /><rect x="13" y="12" width="1.025" height="1.025" fill="rgba(174,0,118,1.000)" /><rect x="14" y="12" width="1.025" height="1.025" fill="rgba(76,9,139,1.000)" /><rect x="24" y="12" width="1.025" height="1.025" fill="rgba(76,6,130,1.000)" /><rect x="25" y="12" width="1.025" height="1.025" fill="rgba(0,0,2,1.000)" /><rect x="10" y="13" width="1.025" height="1.025" fill="rgba(135,1,65,1.000)" /><rect x="11" y="13" width="1.025" height="1.025" fill="rgba(0,90,92,1.000)" /><rect x="14" y="13" width="1.025" height="1.025" fill="rgba(101,47,122,1.000)" /><rect x="14" y="14" width="1.025" height="1.025" fill="rgba(103,27,114,1.000)" /></svg>