<svg shape-rendering="crispEdges" xmlns="http://www.w3.org/2000/svg" version="1.1" width="37" height="37"><style>rect { image-rendering: pixelated; }</style><rect x="14" y="6" width="1.025" height="1.025" fill="rgba(0,0,0,1.000)" /><rect x="15" y="6" width="1.025" height="1.025" fill="rgba(0,0,0,1.000)" /><rect x="16" y="6" width="1.025" height="1.025" fill="rgba(0,0,0,1.000)" /><rect x="17" y="6" width="1.025" height="1.025" fill="rgba(0,0,0,1.000)" /><rect x="18" y="6" width="1.025" height="1.025" fill="rgba(0,0,0,1.000)" /><rect x="19" y="6" width="1.025" height="1.025" fill="rgba(0,0,0,1.000)" /><rect x="20" y="6" width="1.025" height="1.025" fill="rgba(0,0,0,1.000)" /><rect x="21" y="6" width="1.025" height="1.025" fill="rgba(0,0,0,1.000)" /><rect x="22" y="6" width="1.025" height="1.025" fill="rgba(0,0,0,1.000)" /><rect x="13" y="7" width="1.025" height="1.025" fill="rgba(0,0,0,1.000)" /><rect x="14" y="7" width="1.025" height="1.025" fill="rgba(73,73,73,1.000)" /><rect x="15" y="7" width="1.025" height="1.025" fill="rgba(29,29,29,1.000)" /><rect x="16" y="7" width="1.025" height="1.025" fill="rgba(23,23,23,1.000)" /><rect x="17" y="7" width="1.025" height="1.025" fill="rgba(20,20,20,1.000)" /><rect x="18" y="7" width="1.025" height="1.025" fill="rgba(21,21,21,1.000)" /><rect x="19" y="7" width="1.025" height="1.025" fill="rgba(22,22,22,1.000)" /><rect x="20" y="7" width="1.025" height="1.025" fill="rgba(128,128,128,1.000)" /><rect x="21" y="7" width="1.025" height="1.025" fill="rgba(21,21,21,1.000)" /><rect x="22" y="7" width="1.025" height="1.025" fill="rgba(30,30,30,1.000)" /><rect x="23" y="7" width="1.025" height="1.025" fill="rgba(0,0,0,1.000)" /><rect x="12" y="8" width="1.025" height="1.025" fill="rgba(0,0,0,1.000)" /><rect x="13" y="8" width="1.025" height="1.025" fill="rgba(98,98,98,1.000)" /><rect x="14" y="8" width="1.025" height="1.025" fill="rgba(34,34,34,1.000)" /><rect x="15" y="8" width="1.025" height="1.025" fill="rgba(19,19,19,1.000)" /><rect x="16" y="8" width="1.025" height="1.025" fill="rgba(173,173,173,1.000)" /><rect x="17" y="8" width="1.025" height="1.025" fill="rgba(9,9,9,1.000)" /><rect x="18" y="8" width="1.025" height="1.025" fill="rgba(10,10,10,1.000)" /><rect x="19" y="8" width="1.025" height="1.025" fill="rgba(10,10,10,1.000)" /><rect x="20" y="8" width="1.025" height="1.025" fill="rgba(9,9,9,1.000)" /><rect x="21" y="8" width="1.025" height="1.025" fill="rgba(227,227,227,1.000)" /><rect x="22" y="8" width="1.025" height="1.025" fill="rgba(12,12,12,1.000)" /><rect x="23" y="8" width="1.025" height="1.025" fill="rgba(28,28,28,1.000)" /><rect x="24" y="8" width="1.025" height="1.025" fill="rgba(0,0,0,1.000)" /><rect x="12" y="9" width="1.025" height="1.025" fill="rgba(0,0,0,1.000)" /><rect x="13" y="9" width="1.025" height="1.025" fill="rgba(80,80,80,1.000)" /><rect x="14" y="9" width="1.025" height="1.025" fill="rgba(30,30,30,1.000)" /><rect x="15" y="9" width="1.025" height="1.025" fill="rgba(20,20,20,1.000)" /><rect x="16" y="9" width="1.025" height="1.025" fill="rgba(10,10,10,1.000)" /><rect x="17" y="9" width="1.025" height="1.025" fill="rgba(9,9,9,1.000)" /><rect x="18" y="9" width="1.025" height="1.025" fill="rgba(7,7,7,1.000)" /><rect x="19" y="9" width="1.025" height="1.025" fill="rgba(6,6,6,1.000)" /><rect x="20" y="9" width="1.025" height="1.025" fill="rgba(9,9,9,1.000)" /><rect x="21" y="9" width="1.025" height="1.025" fill="rgba(128,128,128,1.000)" /><rect x="22" y="9" width="1.025" height="1.025" fill="rgba(10,10,10,1.000)" /><rect x="23" y="9" width="1.025" height="1.025" fill="rgba(23,23,23,1.000)" /><rect x="24" y="9" width="1.025" height="1.025" fill="rgba(0,0,0,1.000)" /><rect x="12" y="10" width="1.025" height="1.025" fill="rgba(0,0,0,1.000)" /><rect x="13" y="10" width="1.025" height="1.025" fill="rgba(80,80,80,1.000)" /><rect x="14" y="10" width="1.025" height="1.025" fill="rgba(32,32,32,1.000)" /><rect x="15" y="10" width="1.025" height="1.025" fill="rgba(92,92,92,1.000)" /><rect x="16" y="10" width="1.025" height="1.025" fill="rgba(9,9,9,1.000)" /><rect x="17" y="10" width="1.025" height="1.025" fill="rgba(9,9,9,1.000)" /><rect x="18" y="10" width="1.025" height="1.025" fill="rgba(9,9,9,1.000)" /><rect x="19" y="10" width="1.025" height="1.025" fill="rgba(8,8,8,1.000)" /><rect x="20" y="10" width="1.025" height="1.025" fill="rgba(9,9,9,1.000)" /><rect x="21" y="10" width="1.025" height="1.025" fill="rgba(227,227,227,1.000)" /><rect x="22" y="10" width="1.025" height="1.025" fill="rgba(12,12,12,1.000)" /><rect x="23" y="10" width="1.025" height="1.025" fill="rgba(25,25,25,1.000)" /><rect x="24" y="10" width="1.025" height="1.025" fill="rgba(0,0,0,1.000)" /><rect x="12" y="11" width="1.025" height="1.025" fill="rgba(0,0,0,1.000)" /><rect x="13" y="11" width="1.025" height="1.025" fill="rgba(82,82,82,1.000)" /><rect x="14" y="11" width="1.025" height="1.025" fill="rgba(34,34,34,1.000)" /><rect x="15" y="11" width="1.025" height="1.025" fill="rgba(94,94,94,1.000)" /><rect x="16" y="11" width="1.025" height="1.025" fill="rgba(9,9,9,1.000)" /><rect x="17" y="11" width="1.025" height="1.025" fill="rgba(9,9,9,1.000)" /><rect x="18" y="11" width="1.025" height="1.025" fill="rgba(7,7,7,1.000)" /><rect x="19" y="11" width="1.025" height="1.025" fill="rgba(9,9,9,1.000)" /><rect x="20" y="11" width="1.025" height="1.025" fill="rgba(9,9,9,1.000)" /><rect x="21" y="11" width="1.025" height="1.025" fill="rgba(128,128,128,1.000)" /><rect x="22" y="11" width="1.025" height="1.025" fill="rgba(9,9,9,1.000)" /><rect x="23" y="11" width="1.025" height="1.025" fill="rgba(23,23,23,1.000)" /><rect x="24" y="11" width="1.025" height="1.025" fill="rgba(0,0,0,1.000)" /><rect x="12" y="12" width="1.025" height="1.025" fill="rgba(0,0,0,1.000)" /><rect x="13" y="12" width="1.025" height="1.025" fill="rgba(90,90,90,1.000)" /><rect x="14" y="12" width="1.025" height="1.025" fill="rgba(34,34,34,1.000)" /><rect x="15" y="12" width="1.025" height="1.025" fill="rgba(94,94,94,1.000)" /><rect x="16" y="12" width="1.025" height="1.025" fill="rgba(9,9,9,1.000)" /><rect x="17" y="12" width="1.025" height="1.025" fill="rgba(9,9,9,1.000)" /><rect x="18" y="12" width="1.025" height="1.025" fill="rgba(9,9,9,1.000)" /><rect x="19" y="12" width="1.025" height="1.025" fill="rgba(9,9,9,1.000)" /><rect x="20" y="12" width="1.025" height="1.025" fill="rgba(9,9,9,1.000)" /><rect x="21" y="12" width="1.025" height="1.025" fill="rgba(227,227,227,1.000)" /><rect x="22" y="12" width="1.025" height="1.025" fill="rgba(18,18,18,1.000)" /><rect x="23" y="12" width="1.025" height="1.025" fill="rgba(24,24,24,1.000)" /><rect x="24" y="12" width="1.025" height="1.025" fill="rgba(0,0,0,1.000)" /><rect x="12" y="13" width="1.025" height="1.025" fill="rgba(0,0,0,1.000)" /><rect x="13" y="13" width="1.025" height="1.025" fill="rgba(0,0,0,1.000)" /><rect x="14" y="13" width="1.025" height="1.025" fill="rgba(35,35,35,1.000)" /><rect x="15" y="13" width="1.025" height="1.025" fill="rgba(92,92,92,1.000)" /><rect x="16" y="13" width="1.025" height="1.025" fill="rgba(9,9,9,1.000)" /><rect x="17" y="13" width="1.025" height="1.025" fill="rgba(9,9,9,1.000)" /><rect x="18" y="13" width="1.025" height="1.025" fill="rgba(9,9,9,1.000)" /><rect x="19" y="13" width="1.025" height="1.025" fill="rgba(9,9,9,1.000)" /><rect x="20" y="13" width="1.025" height="1.025" fill="rgba(9,9,9,1.000)" /><rect x="21" y="13" width="1.025" height="1.025" fill="rgba(128,128,128,1.000)" /><rect x="22" y="13" width="1.025" height="1.025" fill="rgba(18,18,18,1.000)" /><rect x="23" y="13" width="1.025" height="1.025" fill="rgba(24,24,24,1.000)" /><rect x="24" y="13" width="1.025" height="1.025" fill="rgba(0,0,0,1.000)" /><rect x="11" y="14" width="1.025" height="1.025" fill="rgba(0,0,0,1.000)" /><rect x="12" y="14" width="1.025" height="1.025" fill="rgba(67,67,67,1.000)" /><rect x="13" y="14" width="1.025" height="1.025" fill="rgba(50,50,50,1.000)" /><rect x="14" y="14" width="1.025" height="1.025" fill="rgba(35,35,35,1.000)" /><rect x="15" y="14" width="1.025" height="1.025" fill="rgba(94,94,94,1.000)" /><rect x="16" y="14" width="1.025" height="1.025" fill="rgba(9,9,9,1.000)" /><rect x="17" y="14" width="1.025" height="1.025" fill="rgba(9,9,9,1.000)" /><rect x="18" y="14" width="1.025" height="1.025" fill="rgba(9,9,9,1.000)" /><rect x="19" y="14" width="1.025" height="1.025" fill="rgba(9,9,9,1.000)" /><rect x="20" y="14" width="1.025" height="1.025" fill="rgba(9,9,9,1.000)" /><rect x="21" y="14" width="1.025" height="1.025" fill="rgba(227,227,227,1.000)" /><rect x="22" y="14" width="1.025" height="1.025" fill="rgba(18,18,18,1.000)" /><rect x="23" y="14" width="1.025" height="1.025" fill="rgba(24,24,24,1.000)" /><rect x="24" y="14" width="1.025" height="1.025" fill="rgba(0,0,0,1.000)" /><rect x="11" y="15" width="1.025" height="1.025" fill="rgba(0,0,0,1.000)" /><rect x="12" y="15" width="1.025" height="1.025" fill="rgba(50,50,50,1.000)" /><rect x="13" y="15" width="1.025" height="1.025" fill="rgba(58,58,58,1.000)" /><rect x="14" y="15" width="1.025" height="1.025" fill="rgba(41,41,41,1.000)" /><rect x="15" y="15" width="1.025" height="1.025" fill="rgba(96,96,96,1.000)" /><rect x="16" y="15" width="1.025" height="1.025" fill="rgba(9,9,9,1.000)" /><rect x="17" y="15" width="1.025" height="1.025" fill="rgba(6,6,6,1.000)" /><rect x="18" y="15" width="1.025" height="1.025" fill="rgba(9,9,9,1.000)" /><rect x="19" y="15" width="1.025" height="1.025" fill="rgba(12,12,12,1.000)" /><rect x="20" y="15" width="1.025" height="1.025" fill="rgba(9,9,9,1.000)" /><rect x="21" y="15" width="1.025" height="1.025" fill="rgba(128,128,128,1.000)" /><rect x="22" y="15" width="1.025" height="1.025" fill="rgba(18,18,18,1.000)" /><rect x="23" y="15" width="1.025" height="1.025" fill="rgba(24,24,24,1.000)" /><rect x="24" y="15" width="1.025" height="1.025" fill="rgba(0,0,0,1.000)" /><rect x="11" y="16" width="1.025" height="1.025" fill="rgba(0,0,0,1.000)" /><rect x="12" y="16" width="1.025" height="1.025" fill="rgba(67,67,67,1.000)" /><rect x="13" y="16" width="1.025" height="1.025" fill="rgba(60,60,60,1.000)" /><rect x="14" y="16" width="1.025" height="1.025" fill="rgba(49,49,49,1.000)" /><rect x="15" y="16" width="1.025" height="1.025" fill="rgba(103,103,103,1.000)" /><rect x="16" y="16" width="1.025" height="1.025" fill="rgba(21,21,21,1.000)" /><rect x="17" y="16" width="1.025" height="1.025" fill="rgba(8,8,8,1.000)" /><rect x="18" y="16" width="1.025" height="1.025" fill="rgba(6,6,6,1.000)" /><rect x="19" y="16" width="1.025" height="1.025" fill="rgba(15,15,15,1.000)" /><rect x="20" y="16" width="1.025" height="1.025" fill="rgba(9,9,9,1.000)" /><rect x="21" y="16" width="1.025" height="1.025" fill="rgba(227,227,227,1.000)" /><rect x="22" y="16" width="1.025" height="1.025" fill="rgba(26,26,26,1.000)" /><rect x="23" y="16" width="1.025" height="1.025" fill="rgba(31,31,31,1.000)" /><rect x="24" y="16" width="1.025" height="1.025" fill="rgba(0,0,0,1.000)" /><rect x="12" y="17" width="1.025" height="1.025" fill="rgba(0,0,0,1.000)" /><rect x="13" y="17" width="1.025" height="1.025" fill="rgba(0,0,0,1.000)" /><rect x="14" y="17" width="1.025" height="1.025" fill="rgba(53,53,53,1.000)" /><rect x="15" y="17" width="1.025" height="1.025" fill="rgba(113,113,113,1.000)" /><rect x="16" y="17" width="1.025" height="1.025" fill="rgba(32,32,32,1.000)" /><rect x="17" y="17" width="1.025" height="1.025" fill="rgba(20,20,20,1.000)" /><rect x="18" y="17" width="1.025" height="1.025" fill="rgba(9,9,9,1.000)" /><rect x="19" y="17" width="1.025" height="1.025" fill="rgba(10,10,10,1.000)" /><rect x="20" y="17" width="1.025" height="1.025" fill="rgba(9,9,9,1.000)" /><rect x="21" y="17" width="1.025" height="1.025" fill="rgba(128,128,128,1.000)" /><rect x="22" y="17" width="1.025" height="1.025" fill="rgba(45,45,45,1.000)" /><rect x="23" y="17" width="1.025" height="1.025" fill="rgba(34,34,34,1.000)" /><rect x="24" y="17" width="1.025" height="1.025" fill="rgba(0,0,0,1.000)" /><rect x="13" y="18" width="1.025" height="1.025" fill="rgba(0,0,0,1.000)" /><rect x="14" y="18" width="1.025" height="1.025" fill="rgba(73,73,73,1.000)" /><rect x="15" y="18" width="1.025" height="1.025" fill="rgba(112,112,112,1.000)" /><rect x="16" y="18" width="1.025" height="1.025" fill="rgba(41,41,41,1.000)" /><rect x="17" y="18" width="1.025" height="1.025" fill="rgba(26,26,26,1.000)" /><rect x="18" y="18" width="1.025" height="1.025" fill="rgba(14,14,14,1.000)" /><rect x="23" y="18" width="1.025" height="1.025" fill="rgba(29,29,29,1.000)" /><rect x="24" y="18" width="1.025" height="1.025" fill="rgba(0,0,0,1.000)" /><rect x="13" y="19" width="1.025" height="1.025" fill="rgba(0,0,0,1.000)" /><rect x="14" y="19" width="1.025" height="1.025" fill="rgba(103,103,103,1.000)" /><rect x="15" y="19" width="1.025" height="1.025" fill="rgba(113,113,113,1.000)" /><rect x="16" y="19" width="1.025" height="1.025" fill="rgba(42,42,42,1.000)" /><rect x="17" y="19" width="1.025" height="1.025" fill="rgba(28,28,28,1.000)" /><rect x="24" y="19" width="1.025" height="1.025" fill="rgba(0,0,0,1.000)" /><rect x="13" y="20" width="1.025" height="1.025" fill="rgba(0,0,0,1.000)" /><rect x="14" y="20" width="1.025" height="1.025" fill="rgba(126,126,126,1.000)" /><rect x="15" y="20" width="1.025" height="1.025" fill="rgba(61,61,61,1.000)" /><rect x="16" y="20" width="1.025" height="1.025" fill="rgba(41,41,41,1.000)" /><rect x="17" y="20" width="1.025" height="1.025" fill="rgba(33,33,33,1.000)" /><rect x="24" y="20" width="1.025" height="1.025" fill="rgba(0,0,0,1.000)" /><rect x="13" y="21" width="1.025" height="1.025" fill="rgba(0,0,0,1.000)" /><rect x="14" y="21" width="1.025" height="1.025" fill="rgba(119,119,119,1.000)" /><rect x="15" y="21" width="1.025" height="1.025" fill="rgba(79,79,79,1.000)" /><rect x="16" y="21" width="1.025" height="1.025" fill="rgba(52,52,52,1.000)" /><rect x="17" y="21" width="1.025" height="1.025" fill="rgba(35,35,35,1.000)" /><rect x="24" y="21" width="1.025" height="1.025" fill="rgba(0,0,0,1.000)" /><rect x="13" y="22" width="1.025" height="1.025" fill="rgba(0,0,0,1.000)" /><rect x="14" y="22" width="1.025" height="1.025" fill="rgba(92,92,92,1.000)" /><rect x="15" y="22" width="1.025" height="1.025" fill="rgba(116,116,116,1.000)" /><rect x="16" y="22" width="1.025" height="1.025" fill="rgba(76,76,76,1.000)" /><rect x="17" y="22" width="1.025" height="1.025" fill="rgba(47,47,47,1.000)" /><rect x="18" y="22" width="1.025" height="1.025" fill="rgba(26,26,26,1.000)" /><rect x="23" y="22" width="1.025" height="1.025" fill="rgba(52,52,52,1.000)" /><rect x="24" y="22" width="1.025" height="1.025" fill="rgba(0,0,0,1.000)" /><rect x="13" y="23" width="1.025" height="1.025" fill="rgba(0,0,0,1.000)" /><rect x="14" y="23" width="1.025" height="1.025" fill="rgba(79,79,79,1.000)" /><rect x="15" y="23" width="1.025" height="1.025" fill="rgba(255,255,255,1.000)" /><rect x="16" y="23" width="1.025" height="1.025" fill="rgba(101,101,101,1.000)" /><rect x="17" y="23" width="1.025" height="1.025" fill="rgba(76,76,76,1.000)" /><rect x="18" y="23" width="1.025" height="1.025" fill="rgba(52,52,52,1.000)" /><rect x="19" y="23" width="1.025" height="1.025" fill="rgba(40,40,40,1.000)" /><rect x="20" y="23" width="1.025" height="1.025" fill="rgba(23,23,23,1.000)" /><rect x="21" y="23" width="1.025" height="1.025" fill="rgba(128,128,128,1.000)" /><rect x="22" y="23" width="1.025" height="1.025" fill="rgba(42,42,42,1.000)" /><rect x="23" y="23" width="1.025" height="1.025" fill="rgba(0,0,0,1.000)" /><rect x="13" y="24" width="1.025" height="1.025" fill="rgba(0,0,0,1.000)" /><rect x="14" y="24" width="1.025" height="1.025" fill="rgba(74,74,74,1.000)" /><rect x="15" y="24" width="1.025" height="1.025" fill="rgba(31,31,31,1.000)" /><rect x="16" y="24" width="1.025" height="1.025" fill="rgba(0,0,0,1.000)" /><rect x="17" y="24" width="1.025" height="1.025" fill="rgba(0,0,0,1.000)" /><rect x="18" y="24" width="1.025" height="1.025" fill="rgba(0,0,0,1.000)" /><rect x="19" y="24" width="1.025" height="1.025" fill="rgba(0,0,0,1.000)" /><rect x="20" y="24" width="1.025" height="1.025" fill="rgba(227,227,227,1.000)" /><rect x="21" y="24" width="1.025" height="1.025" fill="rgba(0,0,0,1.000)" /><rect x="22" y="24" width="1.025" height="1.025" fill="rgba(0,0,0,1.000)" /><rect x="13" y="25" width="1.025" height="1.025" fill="rgba(0,0,0,1.000)" /><rect x="14" y="25" width="1.025" height="1.025" fill="rgba(75,75,75,1.000)" /><rect x="15" y="25" width="1.025" height="1.025" fill="rgba(24,24,24,1.000)" /><rect x="16" y="25" width="1.025" height="1.025" fill="rgba(32,32,32,1.000)" /><rect x="17" y="25" width="1.025" height="1.025" fill="rgba(66,66,66,1.000)" /><rect x="18" y="25" width="1.025" height="1.025" fill="rgba(0,0,0,1.000)" /><rect x="20" y="25" width="1.025" height="1.025" fill="rgba(76,76,76,1.000)" /><rect x="14" y="26" width="1.025" height="1.025" fill="rgba(0,0,0,1.000)" /><rect x="15" y="26" width="1.025" height="1.025" fill="rgba(0,0,0,1.000)" /><rect x="16" y="26" width="1.025" height="1.025" fill="rgba(0,0,0,1.000)" /><rect x="17" y="26" width="1.025" height="1.025" fill="rgba(0,0,0,1.000)" /><rect x="18" y="26" width="1.025" height="1.025" fill="rgba(0,0,0,1.000)" /><rect x="20" y="26" width="1.025" height="1.025" fill="rgba(89,89,89,1.000)" /></svg>