<svg shape-rendering="crispEdges" xmlns="http://www.w3.org/2000/svg" version="1.1" width="37" height="37"><style>rect { image-rendering: pixelated; }</style><rect x="13" y="28" width="1.025" height="1.025" fill="rgba(1,255,255,1.000)" /><rect x="14" y="29" width="1.025" height="1.025" fill="rgba(0,248,254,1.000)" /><rect x="20" y="29" width="1.025" height="1.025" fill="rgba(0,248,253,1.000)" /><rect x="14" y="30" width="1.025" height="1.025" fill="rgba(0,238,251,1.000)" /><rect x="21" y="30" width="1.025" height="1.025" fill="rgba(0,238,251,1.000)" /><rect x="15" y="31" width="1.025" height="1.025" fill="rgba(0,226,248,1.000)" /><rect x="21" y="31" width="1.025" height="1.025" fill="rgba(0,226,248,1.000)" /><rect x="16" y="32" width="1.025" height="1.025" fill="rgba(0,214,245,1.000)" /><rect x="22" y="32" width="1.025" height="1.025" fill="rgba(0,214,244,1.000)" /><rect x="17" y="33" width="1.025" height="1.025" fill="rgba(0,201,241,1.000)" /><rect x="23" y="33" width="1.025" height="1.025" fill="rgba(0,200,241,1.000)" /><rect x="16" y="34" width="1.025" height="1.025" fill="rgba(0,187,237,1.000)" /><rect x="17" y="34" width="1.025" height="1.025" fill="rgba(0,187,237,1.000)" /><rect x="18" y="34" width="1.025" height="1.025" fill="rgba(0,188,237,1.000)" /><rect x="23" y="34" width="1.025" height="1.025" fill="rgba(0,187,236,1.000)" /><rect x="24" y="34" width="1.025" height="1.025" fill="rgba(0,188,237,1.000)" /><rect x="15" y="35" width="1.025" height="1.025" fill="rgba(0,176,233,1.000)" /><rect x="16" y="35" width="1.025" height="1.025" fill="rgba(0,176,233,1.000)" /><rect x="17" y="35" width="1.025" height="1.025" fill="rgba(0,176,233,1.000)" /><rect x="18" y="35" width="1.025" height="1.025" fill="rgba(0,176,233,1.000)" /><rect x="19" y="35" width="1.025" height="1.025" fill="rgba(0,176,233,1.000)" /><rect x="22" y="35" width="1.025" height="1.025" fill="rgba(0,175,233,1.000)" /><rect x="23" y="35" width="1.025" height="1.025" fill="rgba(0,176,233,1.000)" /><rect x="24" y="35" width="1.025" height="1.025" fill="rgba(0,175,233,1.000)" /><rect x="25" y="35" width="1.025" height="1.025" fill="rgba(0,176,233,1.000)" /><rect x="14" y="36" width="1.025" height="1.025" fill="rgba(0,165,230,1.000)" /><rect x="15" y="36" width="1.025" height="1.025" fill="rgba(0,166,230,1.000)" /><rect x="16" y="36" width="1.025" height="1.025" fill="rgba(0,166,230,1.000)" /><rect x="17" y="36" width="1.025" height="1.025" fill="rgba(0,165,230,1.000)" /><rect x="18" y="36" width="1.025" height="1.025" fill="rgba(0,166,230,1.000)" /><rect x="19" y="36" width="1.025" height="1.025" fill="rgba(0,166,230,1.000)" /><rect x="20" y="36" width="1.025" height="1.025" fill="rgba(17,168,222,0.698)" /><rect x="21" y="36" width="1.025" height="1.025" fill="rgba(15,168,223,0.698)" /><rect x="22" y="36" width="1.025" height="1.025" fill="rgba(0,166,230,1.000)" /><rect x="23" y="36" width="1.025" height="1.025" fill="rgba(0,166,230,1.000)" /><rect x="24" y="36" width="1.025" height="1.025" fill="rgba(0,166,230,1.000)" /><rect x="25" y="36" width="1.025" height="1.025" fill="rgba(0,166,229,1.000)" /><rect x="26" y="36" width="1.025" height="1.025" fill="rgba(0,166,230,1.000)" /></svg>