<svg shape-rendering="crispEdges" xmlns="http://www.w3.org/2000/svg" version="1.1" width="37" height="37"><style>rect { image-rendering: pixelated; }</style><rect x="13" y="28" width="1.025" height="1.025" fill="rgba(255,255,147,1.000)" /><rect x="14" y="29" width="1.025" height="1.025" fill="rgba(243,198,0,1.000)" /><rect x="20" y="29" width="1.025" height="1.025" fill="rgba(216,176,0,1.000)" /><rect x="14" y="30" width="1.025" height="1.025" fill="rgba(255,213,0,1.000)" /><rect x="21" y="30" width="1.025" height="1.025" fill="rgba(236,192,0,1.000)" /><rect x="15" y="31" width="1.025" height="1.025" fill="rgba(255,255,154,1.000)" /><rect x="21" y="31" width="1.025" height="1.025" fill="rgba(255,248,60,1.000)" /><rect x="16" y="32" width="1.025" height="1.025" fill="rgba(196,144,0,1.000)" /><rect x="22" y="32" width="1.025" height="1.025" fill="rgba(210,154,0,1.000)" /><rect x="17" y="33" width="1.025" height="1.025" fill="rgba(255,184,0,1.000)" /><rect x="22" y="33" width="1.025" height="1.025" fill="rgba(255,255,201,1.000)" /><rect x="23" y="33" width="1.025" height="1.025" fill="rgba(236,164,0,1.000)" /><rect x="16" y="34" width="1.025" height="1.025" fill="rgba(255,255,201,1.000)" /><rect x="17" y="34" width="1.025" height="1.025" fill="rgba(241,156,0,1.000)" /><rect x="18" y="34" width="1.025" height="1.025" fill="rgba(233,151,0,1.000)" /><rect x="23" y="34" width="1.025" height="1.025" fill="rgba(255,252,83,1.000)" /><rect x="24" y="34" width="1.025" height="1.025" fill="rgba(234,151,0,1.000)" /><rect x="15" y="35" width="1.025" height="1.025" fill="rgba(255,159,0,1.000)" /><rect x="16" y="35" width="1.025" height="1.025" fill="rgba(255,229,0,1.000)" /><rect x="17" y="35" width="1.025" height="1.025" fill="rgba(243,147,0,1.000)" /><rect x="18" y="35" width="1.025" height="1.025" fill="rgba(228,134,0,1.000)" /><rect x="19" y="35" width="1.025" height="1.025" fill="rgba(246,151,0,1.000)" /><rect x="22" y="35" width="1.025" height="1.025" fill="rgba(243,147,0,1.000)" /><rect x="23" y="35" width="1.025" height="1.025" fill="rgba(203,102,0,1.000)" /><rect x="24" y="35" width="1.025" height="1.025" fill="rgba(243,147,0,1.000)" /><rect x="25" y="35" width="1.025" height="1.025" fill="rgba(255,225,0,1.000)" /><rect x="14" y="36" width="1.025" height="1.025" fill="rgba(237,134,0,1.000)" /><rect x="15" y="36" width="1.025" height="1.025" fill="rgba(255,233,0,1.000)" /><rect x="16" y="36" width="1.025" height="1.025" fill="rgba(237,134,0,1.000)" /><rect x="17" y="36" width="1.025" height="1.025" fill="rgba(255,255,201,1.000)" /><rect x="18" y="36" width="1.025" height="1.025" fill="rgba(236,132,0,1.000)" /><rect x="19" y="36" width="1.025" height="1.025" fill="rgba(255,236,0,1.000)" /><rect x="20" y="36" width="1.025" height="1.025" fill="rgba(236,132,0,0.910)" /><rect x="21" y="36" width="1.025" height="1.025" fill="rgba(203,102,0,0.910)" /><rect x="22" y="36" width="1.025" height="1.025" fill="rgba(255,255,151,1.000)" /><rect x="23" y="36" width="1.025" height="1.025" fill="rgba(254,149,0,1.000)" /><rect x="24" y="36" width="1.025" height="1.025" fill="rgba(255,255,201,1.000)" /><rect x="25" y="36" width="1.025" height="1.025" fill="rgba(203,102,0,1.000)" /><rect x="26" y="36" width="1.025" height="1.025" fill="rgba(255,255,151,1.000)" /></svg>