<svg shape-rendering="crispEdges" xmlns="http://www.w3.org/2000/svg" version="1.1" width="37" height="37"><style>rect { image-rendering: pixelated; }</style><rect x="19" y="27" width="1.025" height="1.025" fill="rgba(81,58,39,1.000)" /><rect x="12" y="28" width="1.025" height="1.025" fill="rgba(70,52,40,1.000)" /><rect x="13" y="28" width="1.025" height="1.025" fill="rgba(212,123,18,1.000)" /><rect x="20" y="28" width="1.025" height="1.025" fill="rgba(189,140,82,1.000)" /><rect x="12" y="29" width="1.025" height="1.025" fill="rgba(0,0,0,0.800)" /><rect x="13" y="29" width="1.025" height="1.025" fill="rgba(157,108,50,1.000)" /><rect x="14" y="29" width="1.025" height="1.025" fill="rgba(177,128,70,1.000)" /><rect x="19" y="29" width="1.025" height="1.025" fill="rgba(0,0,0,0.800)" /><rect x="20" y="29" width="1.025" height="1.025" fill="rgba(155,107,49,1.000)" /><rect x="21" y="29" width="1.025" height="1.025" fill="rgba(189,140,82,1.000)" /><rect x="13" y="30" width="1.025" height="1.025" fill="rgba(0,0,0,0.800)" /><rect x="14" y="30" width="1.025" height="1.025" fill="rgba(140,100,56,1.000)" /><rect x="15" y="30" width="1.025" height="1.025" fill="rgba(213,120,11,1.000)" /><rect x="20" y="30" width="1.025" height="1.025" fill="rgba(0,0,0,0.800)" /><rect x="21" y="30" width="1.025" height="1.025" fill="rgba(81,58,39,1.000)" /><rect x="22" y="30" width="1.025" height="1.025" fill="rgba(218,129,24,1.000)" /><rect x="14" y="31" width="1.025" height="1.025" fill="rgba(0,0,0,0.800)" /><rect x="15" y="31" width="1.025" height="1.025" fill="rgba(66,49,37,1.000)" /><rect x="16" y="31" width="1.025" height="1.025" fill="rgba(120,89,57,1.000)" /><rect x="21" y="31" width="1.025" height="1.025" fill="rgba(0,0,0,0.800)" /><rect x="22" y="31" width="1.025" height="1.025" fill="rgba(121,90,58,1.000)" /><rect x="23" y="31" width="1.025" height="1.025" fill="rgba(147,108,63,1.000)" /><rect x="14" y="32" width="1.025" height="1.025" fill="rgba(0,0,0,0.800)" /><rect x="15" y="32" width="1.025" height="1.025" fill="rgba(147,108,63,1.000)" /><rect x="16" y="32" width="1.025" height="1.025" fill="rgba(192,144,85,1.000)" /><rect x="22" y="32" width="1.025" height="1.025" fill="rgba(34,24,12,1.000)" /><rect x="23" y="32" width="1.025" height="1.025" fill="rgba(187,139,81,1.000)" /><rect x="15" y="33" width="1.025" height="1.025" fill="rgba(0,0,0,0.800)" /><rect x="16" y="33" width="1.025" height="1.025" fill="rgba(147,108,63,1.000)" /><rect x="17" y="33" width="1.025" height="1.025" fill="rgba(71,53,42,1.000)" /><rect x="23" y="33" width="1.025" height="1.025" fill="rgba(24,18,12,1.000)" /><rect x="24" y="33" width="1.025" height="1.025" fill="rgba(223,127,14,1.000)" /><rect x="15" y="34" width="1.025" height="1.025" fill="rgba(0,0,0,0.800)" /><rect x="16" y="34" width="1.025" height="1.025" fill="rgba(186,138,79,1.000)" /><rect x="17" y="34" width="1.025" height="1.025" fill="rgba(199,151,93,1.000)" /><rect x="18" y="34" width="1.025" height="1.025" fill="rgba(202,153,95,1.000)" /><rect x="23" y="34" width="1.025" height="1.025" fill="rgba(0,0,0,0.800)" /><rect x="24" y="34" width="1.025" height="1.025" fill="rgba(196,147,89,1.000)" /><rect x="25" y="34" width="1.025" height="1.025" fill="rgba(55,42,36,1.000)" /><rect x="15" y="35" width="1.025" height="1.025" fill="rgba(0,0,0,0.800)" /><rect x="16" y="35" width="1.025" height="1.025" fill="rgba(195,146,88,1.000)" /><rect x="17" y="35" width="1.025" height="1.025" fill="rgba(55,42,36,1.000)" /><rect x="18" y="35" width="1.025" height="1.025" fill="rgba(200,152,94,1.000)" /><rect x="19" y="35" width="1.025" height="1.025" fill="rgba(205,157,98,1.000)" /><rect x="20" y="35" width="1.025" height="1.025" fill="rgba(128,97,65,1.000)" /><rect x="23" y="35" width="1.025" height="1.025" fill="rgba(0,0,0,0.800)" /><rect x="24" y="35" width="1.025" height="1.025" fill="rgba(55,42,36,1.000)" /><rect x="25" y="35" width="1.025" height="1.025" fill="rgba(179,130,72,1.000)" /><rect x="26" y="35" width="1.025" height="1.025" fill="rgba(147,108,63,1.000)" /><rect x="15" y="36" width="1.025" height="1.025" fill="rgba(0,0,0,0.800)" /><rect x="16" y="36" width="1.025" height="1.025" fill="rgba(55,42,36,1.000)" /><rect x="17" y="36" width="1.025" height="1.025" fill="rgba(178,111,36,1.000)" /><rect x="18" y="36" width="1.025" height="1.025" fill="rgba(146,111,72,1.000)" /><rect x="19" y="36" width="1.025" height="1.025" fill="rgba(205,157,98,1.000)" /><rect x="20" y="36" width="1.025" height="1.025" fill="rgba(91,70,51,1.000)" /><rect x="21" y="36" width="1.025" height="1.025" fill="rgba(203,119,20,1.000)" /><rect x="23" y="36" width="1.025" height="1.025" fill="rgba(0,0,0,0.800)" /><rect x="24" y="36" width="1.025" height="1.025" fill="rgba(216,127,21,1.000)" /><rect x="25" y="36" width="1.025" height="1.025" fill="rgba(114,83,51,1.000)" /><rect x="26" y="36" width="1.025" height="1.025" fill="rgba(138,102,64,1.000)" /><rect x="27" y="36" width="1.025" height="1.025" fill="rgba(221,125,12,1.000)" /></svg>