<svg shape-rendering="crispEdges" xmlns="http://www.w3.org/2000/svg" version="1.1" width="37" height="37"><style>rect { image-rendering: pixelated; }</style><rect x="13" y="28" width="1.025" height="1.025" fill="rgba(255,0,255,1.000)" /><rect x="14" y="29" width="1.025" height="1.025" fill="rgba(255,0,255,1.000)" /><rect x="20" y="29" width="1.025" height="1.025" fill="rgba(255,0,255,1.000)" /><rect x="14" y="30" width="1.025" height="1.025" fill="rgba(255,0,255,1.000)" /><rect x="21" y="30" width="1.025" height="1.025" fill="rgba(255,0,255,1.000)" /><rect x="15" y="31" width="1.025" height="1.025" fill="rgba(255,0,255,1.000)" /><rect x="21" y="31" width="1.025" height="1.025" fill="rgba(255,0,255,1.000)" /><rect x="16" y="32" width="1.025" height="1.025" fill="rgba(255,0,255,1.000)" /><rect x="22" y="32" width="1.025" height="1.025" fill="rgba(255,0,255,1.000)" /><rect x="17" y="33" width="1.025" height="1.025" fill="rgba(255,0,255,1.000)" /><rect x="23" y="33" width="1.025" height="1.025" fill="rgba(247,7,249,1.000)" /><rect x="16" y="34" width="1.025" height="1.025" fill="rgba(255,0,255,1.000)" /><rect x="17" y="34" width="1.025" height="1.025" fill="rgba(255,0,255,1.000)" /><rect x="18" y="34" width="1.025" height="1.025" fill="rgba(255,0,255,1.000)" /><rect x="22" y="34" width="1.025" height="1.025" fill="rgba(223,24,229,1.000)" /><rect x="23" y="34" width="1.025" height="1.025" fill="rgba(229,22,234,1.000)" /><rect x="24" y="34" width="1.025" height="1.025" fill="rgba(222,25,228,1.000)" /><rect x="15" y="35" width="1.025" height="1.025" fill="rgba(255,0,255,1.000)" /><rect x="16" y="35" width="1.025" height="1.025" fill="rgba(255,0,255,1.000)" /><rect x="17" y="35" width="1.025" height="1.025" fill="rgba(255,0,254,1.000)" /><rect x="18" y="35" width="1.025" height="1.025" fill="rgba(250,5,251,1.000)" /><rect x="19" y="35" width="1.025" height="1.025" fill="rgba(244,12,246,1.000)" /><rect x="21" y="35" width="1.025" height="1.025" fill="rgba(223,24,229,1.000)" /><rect x="22" y="35" width="1.025" height="1.025" fill="rgba(223,24,229,1.000)" /><rect x="23" y="35" width="1.025" height="1.025" fill="rgba(215,27,222,1.000)" /><rect x="24" y="35" width="1.025" height="1.025" fill="rgba(206,30,215,1.000)" /><rect x="25" y="35" width="1.025" height="1.025" fill="rgba(197,31,209,1.000)" /><rect x="14" y="36" width="1.025" height="1.025" fill="rgba(255,0,255,1.000)" /><rect x="15" y="36" width="1.025" height="1.025" fill="rgba(255,0,255,1.000)" /><rect x="16" y="36" width="1.025" height="1.025" fill="rgba(251,4,251,1.000)" /><rect x="17" y="36" width="1.025" height="1.025" fill="rgba(245,10,247,1.000)" /><rect x="18" y="36" width="1.025" height="1.025" fill="rgba(239,15,242,1.000)" /><rect x="19" y="36" width="1.025" height="1.025" fill="rgba(232,19,237,1.000)" /><rect x="20" y="36" width="1.025" height="1.025" fill="rgba(219,24,226,0.910)" /><rect x="21" y="36" width="1.025" height="1.025" fill="rgba(211,27,219,0.910)" /><rect x="22" y="36" width="1.025" height="1.025" fill="rgba(208,28,217,1.000)" /><rect x="23" y="36" width="1.025" height="1.025" fill="rgba(200,31,210,1.000)" /><rect x="24" y="36" width="1.025" height="1.025" fill="rgba(191,33,203,1.000)" /><rect x="25" y="36" width="1.025" height="1.025" fill="rgba(182,35,195,1.000)" /><rect x="26" y="36" width="1.025" height="1.025" fill="rgba(173,35,188,1.000)" /></svg>