<svg shape-rendering="crispEdges" xmlns="http://www.w3.org/2000/svg" version="1.1" width="37" height="37"><style>rect { image-rendering: pixelated; }</style><rect x="12" y="27" width="1.025" height="1.025" fill="rgba(134,0,93,1.000)" /><rect x="19" y="27" width="1.025" height="1.025" fill="rgba(115,0,79,0.922)" /><rect x="20" y="27" width="1.025" height="1.025" fill="rgba(106,0,73,1.000)" /><rect x="11" y="28" width="1.025" height="1.025" fill="rgba(131,0,89,1.000)" /><rect x="12" y="28" width="1.025" height="1.025" fill="rgba(208,0,143,1.000)" /><rect x="19" y="28" width="1.025" height="1.025" fill="rgba(236,0,162,0.753)" /><rect x="20" y="28" width="1.025" height="1.025" fill="rgba(236,0,162,1.000)" /><rect x="21" y="28" width="1.025" height="1.025" fill="rgba(106,0,73,1.000)" /><rect x="9" y="29" width="1.025" height="1.025" fill="rgba(118,0,82,1.000)" /><rect x="10" y="29" width="1.025" height="1.025" fill="rgba(99,0,69,1.000)" /><rect x="11" y="29" width="1.025" height="1.025" fill="rgba(190,0,131,1.000)" /><rect x="12" y="29" width="1.025" height="1.025" fill="rgba(208,0,143,1.000)" /><rect x="20" y="29" width="1.025" height="1.025" fill="rgba(236,0,162,1.000)" /><rect x="21" y="29" width="1.025" height="1.025" fill="rgba(139,0,95,1.000)" /><rect x="22" y="29" width="1.025" height="1.025" fill="rgba(97,0,67,1.000)" /><rect x="23" y="29" width="1.025" height="1.025" fill="rgba(106,0,73,1.000)" /><rect x="7" y="30" width="1.025" height="1.025" fill="rgba(125,0,86,1.000)" /><rect x="8" y="30" width="1.025" height="1.025" fill="rgba(113,0,78,1.000)" /><rect x="9" y="30" width="1.025" height="1.025" fill="rgba(219,0,150,1.000)" /><rect x="10" y="30" width="1.025" height="1.025" fill="rgba(178,0,122,1.000)" /><rect x="11" y="30" width="1.025" height="1.025" fill="rgba(210,0,144,1.000)" /><rect x="12" y="30" width="1.025" height="1.025" fill="rgba(131,0,89,1.000)" /><rect x="13" y="30" width="1.025" height="1.025" fill="rgba(106,0,73,1.000)" /><rect x="20" y="30" width="1.025" height="1.025" fill="rgba(139,0,95,1.000)" /><rect x="21" y="30" width="1.025" height="1.025" fill="rgba(234,0,161,1.000)" /><rect x="22" y="30" width="1.025" height="1.025" fill="rgba(192,0,132,1.000)" /><rect x="23" y="30" width="1.025" height="1.025" fill="rgba(203,0,139,1.000)" /><rect x="24" y="30" width="1.025" height="1.025" fill="rgba(102,0,70,1.000)" /><rect x="25" y="30" width="1.025" height="1.025" fill="rgba(106,0,73,1.000)" /><rect x="6" y="31" width="1.025" height="1.025" fill="rgba(131,0,90,1.000)" /><rect x="7" y="31" width="1.025" height="1.025" fill="rgba(160,0,110,1.000)" /><rect x="8" y="31" width="1.025" height="1.025" fill="rgba(227,0,156,1.000)" /><rect x="9" y="31" width="1.025" height="1.025" fill="rgba(237,0,164,1.000)" /><rect x="10" y="31" width="1.025" height="1.025" fill="rgba(142,0,97,1.000)" /><rect x="11" y="31" width="1.025" height="1.025" fill="rgba(116,0,79,1.000)" /><rect x="12" y="31" width="1.025" height="1.025" fill="rgba(169,0,116,1.000)" /><rect x="13" y="31" width="1.025" height="1.025" fill="rgba(232,0,160,1.000)" /><rect x="14" y="31" width="1.025" height="1.025" fill="rgba(131,0,89,1.000)" /><rect x="20" y="31" width="1.025" height="1.025" fill="rgba(165,0,114,1.000)" /><rect x="21" y="31" width="1.025" height="1.025" fill="rgba(156,0,107,1.000)" /><rect x="22" y="31" width="1.025" height="1.025" fill="rgba(151,0,104,1.000)" /><rect x="23" y="31" width="1.025" height="1.025" fill="rgba(220,0,151,1.000)" /><rect x="24" y="31" width="1.025" height="1.025" fill="rgba(236,0,162,1.000)" /><rect x="25" y="31" width="1.025" height="1.025" fill="rgba(217,0,150,1.000)" /><rect x="26" y="31" width="1.025" height="1.025" fill="rgba(103,0,70,1.000)" /><rect x="5" y="32" width="1.025" height="1.025" fill="rgba(113,0,78,1.000)" /><rect x="6" y="32" width="1.025" height="1.025" fill="rgba(210,0,144,1.000)" /><rect x="7" y="32" width="1.025" height="1.025" fill="rgba(203,0,139,1.000)" /><rect x="8" y="32" width="1.025" height="1.025" fill="rgba(225,0,155,1.000)" /><rect x="9" y="32" width="1.025" height="1.025" fill="rgba(237,0,164,1.000)" /><rect x="10" y="32" width="1.025" height="1.025" fill="rgba(234,0,161,1.000)" /><rect x="11" y="32" width="1.025" height="1.025" fill="rgba(224,0,154,1.000)" /><rect x="12" y="32" width="1.025" height="1.025" fill="rgba(234,0,161,1.000)" /><rect x="13" y="32" width="1.025" height="1.025" fill="rgba(236,0,162,1.000)" /><rect x="14" y="32" width="1.025" height="1.025" fill="rgba(236,0,162,1.000)" /><rect x="15" y="32" width="1.025" height="1.025" fill="rgba(106,0,73,1.000)" /><rect x="19" y="32" width="1.025" height="1.025" fill="rgba(144,0,99,1.000)" /><rect x="20" y="32" width="1.025" height="1.025" fill="rgba(236,0,162,1.000)" /><rect x="21" y="32" width="1.025" height="1.025" fill="rgba(236,0,162,1.000)" /><rect x="22" y="32" width="1.025" height="1.025" fill="rgba(230,0,159,1.000)" /><rect x="23" y="32" width="1.025" height="1.025" fill="rgba(225,0,156,1.000)" /><rect x="24" y="32" width="1.025" height="1.025" fill="rgba(220,0,151,1.000)" /><rect x="25" y="32" width="1.025" height="1.025" fill="rgba(237,0,164,1.000)" /><rect x="26" y="32" width="1.025" height="1.025" fill="rgba(212,0,146,1.000)" /><rect x="27" y="32" width="1.025" height="1.025" fill="rgba(106,0,73,1.000)" /><rect x="5" y="33" width="1.025" height="1.025" fill="rgba(125,0,86,1.000)" /><rect x="6" y="33" width="1.025" height="1.025" fill="rgba(210,0,144,1.000)" /><rect x="7" y="33" width="1.025" height="1.025" fill="rgba(194,0,134,1.000)" /><rect x="8" y="33" width="1.025" height="1.025" fill="rgba(229,0,157,1.000)" /><rect x="9" y="33" width="1.025" height="1.025" fill="rgba(208,0,143,1.000)" /><rect x="10" y="33" width="1.025" height="1.025" fill="rgba(147,0,101,1.000)" /><rect x="11" y="33" width="1.025" height="1.025" fill="rgba(204,0,140,1.000)" /><rect x="12" y="33" width="1.025" height="1.025" fill="rgba(234,0,161,1.000)" /><rect x="13" y="33" width="1.025" height="1.025" fill="rgba(239,0,165,1.000)" /><rect x="14" y="33" width="1.025" height="1.025" fill="rgba(237,0,164,1.000)" /><rect x="15" y="33" width="1.025" height="1.025" fill="rgba(176,0,121,1.000)" /><rect x="19" y="33" width="1.025" height="1.025" fill="rgba(169,0,116,1.000)" /><rect x="20" y="33" width="1.025" height="1.025" fill="rgba(236,0,162,1.000)" /><rect x="21" y="33" width="1.025" height="1.025" fill="rgba(236,0,162,1.000)" /><rect x="22" y="33" width="1.025" height="1.025" fill="rgba(236,0,162,1.000)" /><rect x="23" y="33" width="1.025" height="1.025" fill="rgba(208,0,143,1.000)" /><rect x="24" y="33" width="1.025" height="1.025" fill="rgba(139,0,95,1.000)" /><rect x="25" y="33" width="1.025" height="1.025" fill="rgba(237,0,164,1.000)" /><rect x="26" y="33" width="1.025" height="1.025" fill="rgba(212,0,146,1.000)" /><rect x="27" y="33" width="1.025" height="1.025" fill="rgba(98,0,67,1.000)" /><rect x="5" y="34" width="1.025" height="1.025" fill="rgba(125,0,86,1.000)" /><rect x="6" y="34" width="1.025" height="1.025" fill="rgba(210,0,144,1.000)" /><rect x="7" y="34" width="1.025" height="1.025" fill="rgba(194,0,134,1.000)" /><rect x="8" y="34" width="1.025" height="1.025" fill="rgba(229,0,157,1.000)" /><rect x="9" y="34" width="1.025" height="1.025" fill="rgba(208,0,143,1.000)" /><rect x="10" y="34" width="1.025" height="1.025" fill="rgba(89,0,62,1.000)" /><rect x="11" y="34" width="1.025" height="1.025" fill="rgba(152,0,105,1.000)" /><rect x="12" y="34" width="1.025" height="1.025" fill="rgba(227,0,156,1.000)" /><rect x="13" y="34" width="1.025" height="1.025" fill="rgba(215,0,148,1.000)" /><rect x="14" y="34" width="1.025" height="1.025" fill="rgba(229,0,157,1.000)" /><rect x="15" y="34" width="1.025" height="1.025" fill="rgba(239,0,165,1.000)" /><rect x="16" y="34" width="1.025" height="1.025" fill="rgba(144,0,99,1.000)" /><rect x="18" y="34" width="1.025" height="1.025" fill="rgba(120,0,82,1.000)" /><rect x="19" y="34" width="1.025" height="1.025" fill="rgba(230,0,158,1.000)" /><rect x="20" y="34" width="1.025" height="1.025" fill="rgba(237,0,164,1.000)" /><rect x="21" y="34" width="1.025" height="1.025" fill="rgba(236,0,162,1.000)" /><rect x="22" y="34" width="1.025" height="1.025" fill="rgba(215,0,148,1.000)" /><rect x="23" y="34" width="1.025" height="1.025" fill="rgba(169,0,116,1.000)" /><rect x="24" y="34" width="1.025" height="1.025" fill="rgba(0,0,0,1.000)" /><rect x="25" y="34" width="1.025" height="1.025" fill="rgba(214,0,147,1.000)" /><rect x="26" y="34" width="1.025" height="1.025" fill="rgba(212,0,146,1.000)" /><rect x="27" y="34" width="1.025" height="1.025" fill="rgba(87,0,60,1.000)" /><rect x="5" y="35" width="1.025" height="1.025" fill="rgba(125,0,86,1.000)" /><rect x="6" y="35" width="1.025" height="1.025" fill="rgba(210,0,144,1.000)" /><rect x="7" y="35" width="1.025" height="1.025" fill="rgba(194,0,134,1.000)" /><rect x="8" y="35" width="1.025" height="1.025" fill="rgba(229,0,157,1.000)" /><rect x="9" y="35" width="1.025" height="1.025" fill="rgba(208,0,143,1.000)" /><rect x="10" y="35" width="1.025" height="1.025" fill="rgba(0,0,0,1.000)" /><rect x="11" y="35" width="1.025" height="1.025" fill="rgba(99,0,69,1.000)" /><rect x="12" y="35" width="1.025" height="1.025" fill="rgba(183,0,126,1.000)" /><rect x="13" y="35" width="1.025" height="1.025" fill="rgba(173,0,119,1.000)" /><rect x="14" y="35" width="1.025" height="1.025" fill="rgba(198,0,135,1.000)" /><rect x="15" y="35" width="1.025" height="1.025" fill="rgba(230,0,159,1.000)" /><rect x="16" y="35" width="1.025" height="1.025" fill="rgba(222,0,153,1.000)" /><rect x="17" y="35" width="1.025" height="1.025" fill="rgba(116,0,79,1.000)" /><rect x="18" y="35" width="1.025" height="1.025" fill="rgba(176,0,121,1.000)" /><rect x="19" y="35" width="1.025" height="1.025" fill="rgba(204,0,140,1.000)" /><rect x="20" y="35" width="1.025" height="1.025" fill="rgba(230,0,159,1.000)" /><rect x="21" y="35" width="1.025" height="1.025" fill="rgba(229,0,157,1.000)" /><rect x="22" y="35" width="1.025" height="1.025" fill="rgba(182,0,125,1.000)" /><rect x="23" y="35" width="1.025" height="1.025" fill="rgba(139,0,95,1.000)" /><rect x="24" y="35" width="1.025" height="1.025" fill="rgba(47,0,28,1.000)" /><rect x="25" y="35" width="1.025" height="1.025" fill="rgba(205,0,142,1.000)" /><rect x="26" y="35" width="1.025" height="1.025" fill="rgba(195,0,134,1.000)" /><rect x="27" y="35" width="1.025" height="1.025" fill="rgba(72,0,47,1.000)" /><rect x="5" y="36" width="1.025" height="1.025" fill="rgba(134,0,92,1.000)" /><rect x="6" y="36" width="1.025" height="1.025" fill="rgba(202,0,139,1.000)" /><rect x="7" y="36" width="1.025" height="1.025" fill="rgba(194,0,134,1.000)" /><rect x="8" y="36" width="1.025" height="1.025" fill="rgba(225,0,156,1.000)" /><rect x="9" y="36" width="1.025" height="1.025" fill="rgba(160,0,110,1.000)" /><rect x="10" y="36" width="1.025" height="1.025" fill="rgba(0,0,0,1.000)" /><rect x="11" y="36" width="1.025" height="1.025" fill="rgba(103,0,70,1.000)" /><rect x="12" y="36" width="1.025" height="1.025" fill="rgba(139,0,95,1.000)" /><rect x="13" y="36" width="1.025" height="1.025" fill="rgba(169,0,116,1.000)" /><rect x="14" y="36" width="1.025" height="1.025" fill="rgba(171,0,118,1.000)" /><rect x="15" y="36" width="1.025" height="1.025" fill="rgba(183,0,126,1.000)" /><rect x="16" y="36" width="1.025" height="1.025" fill="rgba(212,0,146,1.000)" /><rect x="17" y="36" width="1.025" height="1.025" fill="rgba(116,0,79,1.000)" /><rect x="18" y="36" width="1.025" height="1.025" fill="rgba(204,0,141,1.000)" /><rect x="19" y="36" width="1.025" height="1.025" fill="rgba(185,0,127,1.000)" /><rect x="20" y="36" width="1.025" height="1.025" fill="rgba(203,0,139,1.000)" /><rect x="21" y="36" width="1.025" height="1.025" fill="rgba(200,0,138,1.000)" /><rect x="22" y="36" width="1.025" height="1.025" fill="rgba(183,0,126,1.000)" /><rect x="23" y="36" width="1.025" height="1.025" fill="rgba(115,0,79,1.000)" /><rect x="24" y="36" width="1.025" height="1.025" fill="rgba(0,0,0,1.000)" /><rect x="25" y="36" width="1.025" height="1.025" fill="rgba(205,0,142,1.000)" /><rect x="26" y="36" width="1.025" height="1.025" fill="rgba(195,0,134,1.000)" /><rect x="27" y="36" width="1.025" height="1.025" fill="rgba(0,0,0,1.000)" /></svg>