<svg shape-rendering="crispEdges" xmlns="http://www.w3.org/2000/svg" version="1.1" width="37" height="37"><style>rect { image-rendering: pixelated; }</style><rect x="11" y="28" width="1.025" height="1.025" fill="rgba(63,63,63,1.000)" /><rect x="12" y="28" width="1.025" height="1.025" fill="rgba(50,50,50,1.000)" /><rect x="13" y="28" width="1.025" height="1.025" fill="rgba(105,105,105,1.000)" /><rect x="19" y="28" width="1.025" height="1.025" fill="rgba(137,137,137,1.000)" /><rect x="20" y="28" width="1.025" height="1.025" fill="rgba(48,48,48,1.000)" /><rect x="21" y="28" width="1.025" height="1.025" fill="rgba(73,73,73,1.000)" /><rect x="9" y="29" width="1.025" height="1.025" fill="rgba(61,61,61,1.000)" /><rect x="10" y="29" width="1.025" height="1.025" fill="rgba(42,42,42,1.000)" /><rect x="11" y="29" width="1.025" height="1.025" fill="rgba(142,142,142,1.000)" /><rect x="12" y="29" width="1.025" height="1.025" fill="rgba(144,144,144,1.000)" /><rect x="13" y="29" width="1.025" height="1.025" fill="rgba(86,86,86,1.000)" /><rect x="14" y="29" width="1.025" height="1.025" fill="rgba(49,49,49,1.000)" /><rect x="15" y="29" width="1.025" height="1.025" fill="rgba(139,139,139,1.000)" /><rect x="16" y="29" width="1.025" height="1.025" fill="rgba(38,38,38,1.000)" /><rect x="17" y="29" width="1.025" height="1.025" fill="rgba(137,137,137,1.000)" /><rect x="18" y="29" width="1.025" height="1.025" fill="rgba(37,37,37,1.000)" /><rect x="19" y="29" width="1.025" height="1.025" fill="rgba(70,70,70,1.000)" /><rect x="20" y="29" width="1.025" height="1.025" fill="rgba(160,160,160,1.000)" /><rect x="21" y="29" width="1.025" height="1.025" fill="rgba(135,135,135,1.000)" /><rect x="22" y="29" width="1.025" height="1.025" fill="rgba(45,45,45,1.000)" /><rect x="23" y="29" width="1.025" height="1.025" fill="rgba(51,51,51,1.000)" /><rect x="7" y="30" width="1.025" height="1.025" fill="rgba(68,68,68,1.000)" /><rect x="8" y="30" width="1.025" height="1.025" fill="rgba(57,57,57,1.000)" /><rect x="9" y="30" width="1.025" height="1.025" fill="rgba(171,171,171,1.000)" /><rect x="10" y="30" width="1.025" height="1.025" fill="rgba(195,195,195,1.000)" /><rect x="11" y="30" width="1.025" height="1.025" fill="rgba(167,167,167,1.000)" /><rect x="12" y="30" width="1.025" height="1.025" fill="rgba(185,185,185,1.000)" /><rect x="13" y="30" width="1.025" height="1.025" fill="rgba(159,159,159,1.000)" /><rect x="14" y="30" width="1.025" height="1.025" fill="rgba(183,183,183,1.000)" /><rect x="15" y="30" width="1.025" height="1.025" fill="rgba(110,110,110,1.000)" /><rect x="16" y="30" width="1.025" height="1.025" fill="rgba(176,176,176,1.000)" /><rect x="17" y="30" width="1.025" height="1.025" fill="rgba(125,125,125,1.000)" /><rect x="18" y="30" width="1.025" height="1.025" fill="rgba(176,176,176,1.000)" /><rect x="19" y="30" width="1.025" height="1.025" fill="rgba(174,174,174,1.000)" /><rect x="20" y="30" width="1.025" height="1.025" fill="rgba(191,191,191,1.000)" /><rect x="21" y="30" width="1.025" height="1.025" fill="rgba(213,213,213,1.000)" /><rect x="22" y="30" width="1.025" height="1.025" fill="rgba(180,180,180,1.000)" /><rect x="23" y="30" width="1.025" height="1.025" fill="rgba(176,176,176,1.000)" /><rect x="24" y="30" width="1.025" height="1.025" fill="rgba(47,47,47,1.000)" /><rect x="25" y="30" width="1.025" height="1.025" fill="rgba(51,51,51,1.000)" /><rect x="6" y="31" width="1.025" height="1.025" fill="rgba(75,75,75,1.000)" /><rect x="7" y="31" width="1.025" height="1.025" fill="rgba(107,107,107,1.000)" /><rect x="8" y="31" width="1.025" height="1.025" fill="rgba(194,194,194,1.000)" /><rect x="9" y="31" width="1.025" height="1.025" fill="rgba(218,218,218,1.000)" /><rect x="10" y="31" width="1.025" height="1.025" fill="rgba(215,215,215,1.000)" /><rect x="11" y="31" width="1.025" height="1.025" fill="rgba(204,204,204,1.000)" /><rect x="12" y="31" width="1.025" height="1.025" fill="rgba(184,184,184,1.000)" /><rect x="13" y="31" width="1.025" height="1.025" fill="rgba(203,203,203,1.000)" /><rect x="14" y="31" width="1.025" height="1.025" fill="rgba(191,191,191,1.000)" /><rect x="15" y="31" width="1.025" height="1.025" fill="rgba(218,218,218,1.000)" /><rect x="16" y="31" width="1.025" height="1.025" fill="rgba(199,199,199,1.000)" /><rect x="17" y="31" width="1.025" height="1.025" fill="rgba(209,209,209,1.000)" /><rect x="18" y="31" width="1.025" height="1.025" fill="rgba(194,194,194,1.000)" /><rect x="19" y="31" width="1.025" height="1.025" fill="rgba(197,197,197,1.000)" /><rect x="20" y="31" width="1.025" height="1.025" fill="rgba(216,216,216,1.000)" /><rect x="21" y="31" width="1.025" height="1.025" fill="rgba(184,184,184,1.000)" /><rect x="22" y="31" width="1.025" height="1.025" fill="rgba(201,201,201,1.000)" /><rect x="23" y="31" width="1.025" height="1.025" fill="rgba(182,182,182,1.000)" /><rect x="24" y="31" width="1.025" height="1.025" fill="rgba(216,216,216,1.000)" /><rect x="25" y="31" width="1.025" height="1.025" fill="rgba(185,185,185,1.000)" /><rect x="26" y="31" width="1.025" height="1.025" fill="rgba(48,48,48,1.000)" /><rect x="5" y="32" width="1.025" height="1.025" fill="rgba(55,55,55,1.000)" /><rect x="6" y="32" width="1.025" height="1.025" fill="rgba(171,171,171,1.000)" /><rect x="7" y="32" width="1.025" height="1.025" fill="rgba(156,156,156,1.000)" /><rect x="8" y="32" width="1.025" height="1.025" fill="rgba(206,206,206,1.000)" /><rect x="9" y="32" width="1.025" height="1.025" fill="rgba(218,218,218,1.000)" /><rect x="10" y="32" width="1.025" height="1.025" fill="rgba(212,212,212,1.000)" /><rect x="11" y="32" width="1.025" height="1.025" fill="rgba(174,174,174,1.000)" /><rect x="12" y="32" width="1.025" height="1.025" fill="rgba(210,210,210,1.000)" /><rect x="13" y="32" width="1.025" height="1.025" fill="rgba(216,216,216,1.000)" /><rect x="14" y="32" width="1.025" height="1.025" fill="rgba(221,221,221,1.000)" /><rect x="15" y="32" width="1.025" height="1.025" fill="rgba(206,206,206,1.000)" /><rect x="16" y="32" width="1.025" height="1.025" fill="rgba(202,202,202,1.000)" /><rect x="17" y="32" width="1.025" height="1.025" fill="rgba(159,159,159,1.000)" /><rect x="18" y="32" width="1.025" height="1.025" fill="rgba(212,212,212,1.000)" /><rect x="19" y="32" width="1.025" height="1.025" fill="rgba(213,213,213,1.000)" /><rect x="20" y="32" width="1.025" height="1.025" fill="rgba(216,216,216,1.000)" /><rect x="21" y="32" width="1.025" height="1.025" fill="rgba(214,214,214,1.000)" /><rect x="22" y="32" width="1.025" height="1.025" fill="rgba(183,183,183,1.000)" /><rect x="23" y="32" width="1.025" height="1.025" fill="rgba(133,133,133,1.000)" /><rect x="24" y="32" width="1.025" height="1.025" fill="rgba(190,190,190,1.000)" /><rect x="25" y="32" width="1.025" height="1.025" fill="rgba(218,218,218,1.000)" /><rect x="26" y="32" width="1.025" height="1.025" fill="rgba(178,178,178,1.000)" /><rect x="27" y="32" width="1.025" height="1.025" fill="rgba(51,51,51,1.000)" /><rect x="4" y="33" width="1.025" height="1.025" fill="rgba(57,57,57,1.000)" /><rect x="5" y="33" width="1.025" height="1.025" fill="rgba(171,171,171,1.000)" /><rect x="6" y="33" width="1.025" height="1.025" fill="rgba(175,175,175,1.000)" /><rect x="7" y="33" width="1.025" height="1.025" fill="rgba(183,183,183,1.000)" /><rect x="8" y="33" width="1.025" height="1.025" fill="rgba(203,203,203,1.000)" /><rect x="9" y="33" width="1.025" height="1.025" fill="rgba(207,207,207,1.000)" /><rect x="10" y="33" width="1.025" height="1.025" fill="rgba(84,84,84,1.000)" /><rect x="11" y="33" width="1.025" height="1.025" fill="rgba(178,178,178,1.000)" /><rect x="12" y="33" width="1.025" height="1.025" fill="rgba(212,212,212,1.000)" /><rect x="13" y="33" width="1.025" height="1.025" fill="rgba(221,221,221,1.000)" /><rect x="14" y="33" width="1.025" height="1.025" fill="rgba(218,218,218,1.000)" /><rect x="15" y="33" width="1.025" height="1.025" fill="rgba(221,221,221,1.000)" /><rect x="16" y="33" width="1.025" height="1.025" fill="rgba(210,210,210,1.000)" /><rect x="17" y="33" width="1.025" height="1.025" fill="rgba(205,205,205,1.000)" /><rect x="18" y="33" width="1.025" height="1.025" fill="rgba(147,147,147,1.000)" /><rect x="19" y="33" width="1.025" height="1.025" fill="rgba(216,216,216,1.000)" /><rect x="20" y="33" width="1.025" height="1.025" fill="rgba(216,216,216,1.000)" /><rect x="21" y="33" width="1.025" height="1.025" fill="rgba(197,197,197,1.000)" /><rect x="22" y="33" width="1.025" height="1.025" fill="rgba(216,216,216,1.000)" /><rect x="23" y="33" width="1.025" height="1.025" fill="rgba(171,171,171,1.000)" /><rect x="24" y="33" width="1.025" height="1.025" fill="rgba(82,82,82,1.000)" /><rect x="25" y="33" width="1.025" height="1.025" fill="rgba(180,180,180,1.000)" /><rect x="26" y="33" width="1.025" height="1.025" fill="rgba(218,218,218,1.000)" /><rect x="27" y="33" width="1.025" height="1.025" fill="rgba(178,178,178,1.000)" /><rect x="28" y="33" width="1.025" height="1.025" fill="rgba(49,49,49,1.000)" /><rect x="4" y="34" width="1.025" height="1.025" fill="rgba(68,68,68,1.000)" /><rect x="5" y="34" width="1.025" height="1.025" fill="rgba(186,186,186,1.000)" /><rect x="6" y="34" width="1.025" height="1.025" fill="rgba(155,155,155,1.000)" /><rect x="7" y="34" width="1.025" height="1.025" fill="rgba(161,161,161,1.000)" /><rect x="8" y="34" width="1.025" height="1.025" fill="rgba(199,199,199,1.000)" /><rect x="9" y="34" width="1.025" height="1.025" fill="rgba(183,183,183,1.000)" /><rect x="10" y="34" width="1.025" height="1.025" fill="rgba(37,37,37,1.000)" /><rect x="11" y="34" width="1.025" height="1.025" fill="rgba(93,93,93,1.000)" /><rect x="12" y="34" width="1.025" height="1.025" fill="rgba(201,201,201,1.000)" /><rect x="13" y="34" width="1.025" height="1.025" fill="rgba(186,186,186,1.000)" /><rect x="14" y="34" width="1.025" height="1.025" fill="rgba(203,203,203,1.000)" /><rect x="15" y="34" width="1.025" height="1.025" fill="rgba(202,202,202,1.000)" /><rect x="16" y="34" width="1.025" height="1.025" fill="rgba(216,216,216,1.000)" /><rect x="17" y="34" width="1.025" height="1.025" fill="rgba(221,221,221,1.000)" /><rect x="18" y="34" width="1.025" height="1.025" fill="rgba(175,175,175,1.000)" /><rect x="19" y="34" width="1.025" height="1.025" fill="rgba(79,79,79,1.000)" /><rect x="20" y="34" width="1.025" height="1.025" fill="rgba(223,223,223,1.000)" /><rect x="21" y="34" width="1.025" height="1.025" fill="rgba(216,216,216,1.000)" /><rect x="22" y="34" width="1.025" height="1.025" fill="rgba(202,202,202,1.000)" /><rect x="23" y="34" width="1.025" height="1.025" fill="rgba(201,201,201,1.000)" /><rect x="24" y="34" width="1.025" height="1.025" fill="rgba(107,107,107,1.000)" /><rect x="25" y="34" width="1.025" height="1.025" fill="rgba(142,142,142,1.000)" /><rect x="26" y="34" width="1.025" height="1.025" fill="rgba(0,0,0,1.000)" /><rect x="27" y="34" width="1.025" height="1.025" fill="rgba(200,200,200,1.000)" /><rect x="28" y="34" width="1.025" height="1.025" fill="rgba(51,51,51,1.000)" /><rect x="4" y="35" width="1.025" height="1.025" fill="rgba(72,72,72,1.000)" /><rect x="5" y="35" width="1.025" height="1.025" fill="rgba(149,149,149,1.000)" /><rect x="6" y="35" width="1.025" height="1.025" fill="rgba(175,175,175,1.000)" /><rect x="7" y="35" width="1.025" height="1.025" fill="rgba(151,151,151,1.000)" /><rect x="8" y="35" width="1.025" height="1.025" fill="rgba(199,199,199,1.000)" /><rect x="9" y="35" width="1.025" height="1.025" fill="rgba(106,106,106,1.000)" /><rect x="10" y="35" width="1.025" height="1.025" fill="rgba(0,0,0,1.000)" /><rect x="11" y="35" width="1.025" height="1.025" fill="rgba(45,45,45,1.000)" /><rect x="12" y="35" width="1.025" height="1.025" fill="rgba(165,165,165,1.000)" /><rect x="13" y="35" width="1.025" height="1.025" fill="rgba(122,122,122,1.000)" /><rect x="14" y="35" width="1.025" height="1.025" fill="rgba(156,156,156,1.000)" /><rect x="15" y="35" width="1.025" height="1.025" fill="rgba(213,213,213,1.000)" /><rect x="16" y="35" width="1.025" height="1.025" fill="rgba(196,196,196,1.000)" /><rect x="17" y="35" width="1.025" height="1.025" fill="rgba(185,185,185,1.000)" /><rect x="18" y="35" width="1.025" height="1.025" fill="rgba(184,184,184,1.000)" /><rect x="19" y="35" width="1.025" height="1.025" fill="rgba(133,133,133,1.000)" /><rect x="20" y="35" width="1.025" height="1.025" fill="rgba(72,72,72,1.000)" /><rect x="21" y="35" width="1.025" height="1.025" fill="rgba(207,207,207,1.000)" /><rect x="22" y="35" width="1.025" height="1.025" fill="rgba(189,189,189,1.000)" /><rect x="23" y="35" width="1.025" height="1.025" fill="rgba(180,180,180,1.000)" /><rect x="24" y="35" width="1.025" height="1.025" fill="rgba(142,142,142,1.000)" /><rect x="25" y="35" width="1.025" height="1.025" fill="rgba(138,138,138,1.000)" /><rect x="26" y="35" width="1.025" height="1.025" fill="rgba(109,109,109,1.000)" /><rect x="27" y="35" width="1.025" height="1.025" fill="rgba(76,76,76,1.000)" /><rect x="28" y="35" width="1.025" height="1.025" fill="rgba(35,35,35,1.000)" /><rect x="4" y="36" width="1.025" height="1.025" fill="rgba(42,42,42,1.000)" /><rect x="5" y="36" width="1.025" height="1.025" fill="rgba(175,175,175,1.000)" /><rect x="6" y="36" width="1.025" height="1.025" fill="rgba(155,155,155,1.000)" /><rect x="7" y="36" width="1.025" height="1.025" fill="rgba(151,151,151,1.000)" /><rect x="8" y="36" width="1.025" height="1.025" fill="rgba(199,199,199,1.000)" /><rect x="9" y="36" width="1.025" height="1.025" fill="rgba(68,68,68,1.000)" /><rect x="10" y="36" width="1.025" height="1.025" fill="rgba(0,0,0,1.000)" /><rect x="11" y="36" width="1.025" height="1.025" fill="rgba(48,48,48,1.000)" /><rect x="12" y="36" width="1.025" height="1.025" fill="rgba(82,82,82,1.000)" /><rect x="13" y="36" width="1.025" height="1.025" fill="rgba(118,118,118,1.000)" /><rect x="14" y="36" width="1.025" height="1.025" fill="rgba(141,141,141,1.000)" /><rect x="15" y="36" width="1.025" height="1.025" fill="rgba(136,136,136,1.000)" /><rect x="16" y="36" width="1.025" height="1.025" fill="rgba(148,148,148,1.000)" /><rect x="17" y="36" width="1.025" height="1.025" fill="rgba(166,166,166,1.000)" /><rect x="18" y="36" width="1.025" height="1.025" fill="rgba(137,137,137,1.000)" /><rect x="19" y="36" width="1.025" height="1.025" fill="rgba(114,114,114,1.000)" /><rect x="20" y="36" width="1.025" height="1.025" fill="rgba(129,129,129,1.000)" /><rect x="21" y="36" width="1.025" height="1.025" fill="rgba(30,30,30,1.000)" /><rect x="22" y="36" width="1.025" height="1.025" fill="rgba(130,130,130,1.000)" /><rect x="23" y="36" width="1.025" height="1.025" fill="rgba(126,126,126,1.000)" /><rect x="24" y="36" width="1.025" height="1.025" fill="rgba(97,97,97,1.000)" /><rect x="25" y="36" width="1.025" height="1.025" fill="rgba(163,163,163,1.000)" /><rect x="26" y="36" width="1.025" height="1.025" fill="rgba(138,138,138,1.000)" /><rect x="27" y="36" width="1.025" height="1.025" fill="rgba(65,65,65,1.000)" /><rect x="28" y="36" width="1.025" height="1.025" fill="rgba(0,0,0,1.000)" /></svg>