<svg shape-rendering="crispEdges" xmlns="http://www.w3.org/2000/svg" version="1.1" width="37" height="37"><style>rect { image-rendering: pixelated; }</style><rect x="10" y="28" width="1.025" height="1.025" fill="rgba(0,160,220,1.000)" /><rect x="11" y="28" width="1.025" height="1.025" fill="rgba(0,136,205,1.000)" /><rect x="19" y="28" width="1.025" height="1.025" fill="rgba(0,168,230,1.000)" /><rect x="11" y="29" width="1.025" height="1.025" fill="rgba(0,113,188,1.000)" /><rect x="12" y="29" width="1.025" height="1.025" fill="rgba(0,152,216,1.000)" /><rect x="19" y="29" width="1.025" height="1.025" fill="rgba(0,112,186,1.000)" /><rect x="20" y="29" width="1.025" height="1.025" fill="rgba(0,168,230,1.000)" /><rect x="12" y="30" width="1.025" height="1.025" fill="rgba(0,105,180,1.000)" /><rect x="13" y="30" width="1.025" height="1.025" fill="rgba(0,155,213,1.000)" /><rect x="20" y="30" width="1.025" height="1.025" fill="rgba(0,120,192,1.000)" /><rect x="21" y="30" width="1.025" height="1.025" fill="rgba(0,168,230,1.000)" /><rect x="13" y="31" width="1.025" height="1.025" fill="rgba(0,105,180,1.000)" /><rect x="14" y="31" width="1.025" height="1.025" fill="rgba(0,165,226,1.000)" /><rect x="21" y="31" width="1.025" height="1.025" fill="rgba(0,168,230,1.000)" /><rect x="13" y="32" width="1.025" height="1.025" fill="rgba(0,105,180,1.000)" /><rect x="14" y="32" width="1.025" height="1.025" fill="rgba(0,171,236,1.000)" /><rect x="21" y="32" width="1.025" height="1.025" fill="rgba(0,133,206,1.000)" /><rect x="22" y="32" width="1.025" height="1.025" fill="rgba(0,166,229,1.000)" /><rect x="13" y="33" width="1.025" height="1.025" fill="rgba(0,128,201,1.000)" /><rect x="14" y="33" width="1.025" height="1.025" fill="rgba(0,164,227,1.000)" /><rect x="15" y="33" width="1.025" height="1.025" fill="rgba(0,169,233,1.000)" /><rect x="21" y="33" width="1.025" height="1.025" fill="rgba(0,133,206,1.000)" /><rect x="22" y="33" width="1.025" height="1.025" fill="rgba(0,166,229,1.000)" /><rect x="13" y="34" width="1.025" height="1.025" fill="rgba(0,105,180,1.000)" /><rect x="14" y="34" width="1.025" height="1.025" fill="rgba(0,164,227,1.000)" /><rect x="15" y="34" width="1.025" height="1.025" fill="rgba(0,178,245,1.000)" /><rect x="16" y="34" width="1.025" height="1.025" fill="rgba(0,182,251,1.000)" /><rect x="21" y="34" width="1.025" height="1.025" fill="rgba(0,170,234,1.000)" /><rect x="22" y="34" width="1.025" height="1.025" fill="rgba(0,176,241,1.000)" /><rect x="23" y="34" width="1.025" height="1.025" fill="rgba(0,163,222,1.000)" /><rect x="12" y="35" width="1.025" height="1.025" fill="rgba(0,105,180,1.000)" /><rect x="13" y="35" width="1.025" height="1.025" fill="rgba(0,145,217,1.000)" /><rect x="14" y="35" width="1.025" height="1.025" fill="rgba(0,173,239,1.000)" /><rect x="15" y="35" width="1.025" height="1.025" fill="rgba(0,178,245,1.000)" /><rect x="16" y="35" width="1.025" height="1.025" fill="rgba(0,179,246,1.000)" /><rect x="17" y="35" width="1.025" height="1.025" fill="rgba(0,185,253,1.000)" /><rect x="18" y="35" width="1.025" height="1.025" fill="rgba(0,184,252,1.000)" /><rect x="20" y="35" width="1.025" height="1.025" fill="rgba(0,147,218,1.000)" /><rect x="21" y="35" width="1.025" height="1.025" fill="rgba(0,175,239,1.000)" /><rect x="22" y="35" width="1.025" height="1.025" fill="rgba(0,163,225,1.000)" /><rect x="23" y="35" width="1.025" height="1.025" fill="rgba(0,158,216,1.000)" /><rect x="24" y="35" width="1.025" height="1.025" fill="rgba(0,147,201,1.000)" /><rect x="11" y="36" width="1.025" height="1.025" fill="rgba(0,105,180,1.000)" /><rect x="12" y="36" width="1.025" height="1.025" fill="rgba(0,125,198,1.000)" /><rect x="13" y="36" width="1.025" height="1.025" fill="rgba(0,164,227,1.000)" /><rect x="14" y="36" width="1.025" height="1.025" fill="rgba(0,164,227,1.000)" /><rect x="15" y="36" width="1.025" height="1.025" fill="rgba(0,183,252,1.000)" /><rect x="16" y="36" width="1.025" height="1.025" fill="rgba(0,181,249,1.000)" /><rect x="17" y="36" width="1.025" height="1.025" fill="rgba(0,185,253,1.000)" /><rect x="18" y="36" width="1.025" height="1.025" fill="rgba(0,185,253,1.000)" /><rect x="19" y="36" width="1.025" height="1.025" fill="rgba(0,183,252,1.000)" /><rect x="20" y="36" width="1.025" height="1.025" fill="rgba(0,141,213,1.000)" /><rect x="21" y="36" width="1.025" height="1.025" fill="rgba(0,173,239,1.000)" /><rect x="22" y="36" width="1.025" height="1.025" fill="rgba(0,158,217,1.000)" /><rect x="23" y="36" width="1.025" height="1.025" fill="rgba(0,152,210,1.000)" /><rect x="24" y="36" width="1.025" height="1.025" fill="rgba(0,144,198,1.000)" /><rect x="25" y="36" width="1.025" height="1.025" fill="rgba(0,144,198,1.000)" /></svg>