<svg shape-rendering="crispEdges" xmlns="http://www.w3.org/2000/svg" version="1.1" width="37" height="37"><style>rect { image-rendering: pixelated; }</style><rect x="10" y="28" width="1.025" height="1.025" fill="rgba(152,0,255,1.000)" /><rect x="11" y="28" width="1.025" height="1.025" fill="rgba(143,0,240,1.000)" /><rect x="19" y="28" width="1.025" height="1.025" fill="rgba(152,0,255,1.000)" /><rect x="11" y="29" width="1.025" height="1.025" fill="rgba(113,0,189,1.000)" /><rect x="12" y="29" width="1.025" height="1.025" fill="rgba(152,0,255,1.000)" /><rect x="19" y="29" width="1.025" height="1.025" fill="rgba(111,0,185,1.000)" /><rect x="20" y="29" width="1.025" height="1.025" fill="rgba(152,0,255,1.000)" /><rect x="12" y="30" width="1.025" height="1.025" fill="rgba(102,0,170,1.000)" /><rect x="13" y="30" width="1.025" height="1.025" fill="rgba(152,0,255,1.000)" /><rect x="20" y="30" width="1.025" height="1.025" fill="rgba(121,0,202,1.000)" /><rect x="21" y="30" width="1.025" height="1.025" fill="rgba(152,0,255,1.000)" /><rect x="13" y="31" width="1.025" height="1.025" fill="rgba(102,0,170,1.000)" /><rect x="14" y="31" width="1.025" height="1.025" fill="rgba(152,0,255,1.000)" /><rect x="21" y="31" width="1.025" height="1.025" fill="rgba(152,0,255,1.000)" /><rect x="13" y="32" width="1.025" height="1.025" fill="rgba(102,0,170,1.000)" /><rect x="14" y="32" width="1.025" height="1.025" fill="rgba(153,2,255,1.000)" /><rect x="21" y="32" width="1.025" height="1.025" fill="rgba(141,0,236,1.000)" /><rect x="22" y="32" width="1.025" height="1.025" fill="rgba(152,0,255,1.000)" /><rect x="13" y="33" width="1.025" height="1.025" fill="rgba(134,0,225,1.000)" /><rect x="14" y="33" width="1.025" height="1.025" fill="rgba(152,0,255,1.000)" /><rect x="15" y="33" width="1.025" height="1.025" fill="rgba(153,1,255,1.000)" /><rect x="21" y="33" width="1.025" height="1.025" fill="rgba(141,0,236,1.000)" /><rect x="22" y="33" width="1.025" height="1.025" fill="rgba(152,0,255,1.000)" /><rect x="13" y="34" width="1.025" height="1.025" fill="rgba(102,0,170,1.000)" /><rect x="14" y="34" width="1.025" height="1.025" fill="rgba(152,0,255,1.000)" /><rect x="15" y="34" width="1.025" height="1.025" fill="rgba(155,7,255,1.000)" /><rect x="16" y="34" width="1.025" height="1.025" fill="rgba(156,9,255,1.000)" /><rect x="21" y="34" width="1.025" height="1.025" fill="rgba(153,2,255,1.000)" /><rect x="22" y="34" width="1.025" height="1.025" fill="rgba(154,5,255,1.000)" /><rect x="23" y="34" width="1.025" height="1.025" fill="rgba(152,0,255,1.000)" /><rect x="12" y="35" width="1.025" height="1.025" fill="rgba(102,0,170,1.000)" /><rect x="13" y="35" width="1.025" height="1.025" fill="rgba(152,0,255,1.000)" /><rect x="14" y="35" width="1.025" height="1.025" fill="rgba(153,2,255,1.000)" /><rect x="15" y="35" width="1.025" height="1.025" fill="rgba(155,7,255,1.000)" /><rect x="16" y="35" width="1.025" height="1.025" fill="rgba(155,7,255,1.000)" /><rect x="17" y="35" width="1.025" height="1.025" fill="rgba(157,11,255,1.000)" /><rect x="18" y="35" width="1.025" height="1.025" fill="rgba(156,10,255,1.000)" /><rect x="20" y="35" width="1.025" height="1.025" fill="rgba(152,0,255,1.000)" /><rect x="21" y="35" width="1.025" height="1.025" fill="rgba(154,4,255,1.000)" /><rect x="22" y="35" width="1.025" height="1.025" fill="rgba(152,0,255,1.000)" /><rect x="23" y="35" width="1.025" height="1.025" fill="rgba(152,0,255,1.000)" /><rect x="24" y="35" width="1.025" height="1.025" fill="rgba(146,0,245,1.000)" /><rect x="11" y="36" width="1.025" height="1.025" fill="rgba(102,0,170,1.000)" /><rect x="12" y="36" width="1.025" height="1.025" fill="rgba(130,0,218,1.000)" /><rect x="13" y="36" width="1.025" height="1.025" fill="rgba(152,0,255,1.000)" /><rect x="14" y="36" width="1.025" height="1.025" fill="rgba(152,0,255,1.000)" /><rect x="15" y="36" width="1.025" height="1.025" fill="rgba(156,10,255,1.000)" /><rect x="16" y="36" width="1.025" height="1.025" fill="rgba(156,8,255,1.000)" /><rect x="17" y="36" width="1.025" height="1.025" fill="rgba(157,11,255,1.000)" /><rect x="18" y="36" width="1.025" height="1.025" fill="rgba(157,11,255,1.000)" /><rect x="19" y="36" width="1.025" height="1.025" fill="rgba(156,10,255,1.000)" /><rect x="20" y="36" width="1.025" height="1.025" fill="rgba(152,0,255,1.000)" /><rect x="21" y="36" width="1.025" height="1.025" fill="rgba(153,2,255,1.000)" /><rect x="22" y="36" width="1.025" height="1.025" fill="rgba(152,0,255,1.000)" /><rect x="23" y="36" width="1.025" height="1.025" fill="rgba(152,0,255,1.000)" /><rect x="24" y="36" width="1.025" height="1.025" fill="rgba(142,0,238,1.000)" /><rect x="25" y="36" width="1.025" height="1.025" fill="rgba(142,0,238,1.000)" /></svg>