<svg shape-rendering="crispEdges" xmlns="http://www.w3.org/2000/svg" version="1.1" width="37" height="37"><style>rect { image-rendering: pixelated; }</style><rect x="10" y="28" width="1.025" height="1.025" fill="rgba(255,0,0,1.000)" /><rect x="11" y="28" width="1.025" height="1.025" fill="rgba(240,0,0,1.000)" /><rect x="19" y="28" width="1.025" height="1.025" fill="rgba(255,0,0,1.000)" /><rect x="11" y="29" width="1.025" height="1.025" fill="rgba(189,0,0,1.000)" /><rect x="12" y="29" width="1.025" height="1.025" fill="rgba(255,0,0,1.000)" /><rect x="19" y="29" width="1.025" height="1.025" fill="rgba(185,0,0,1.000)" /><rect x="20" y="29" width="1.025" height="1.025" fill="rgba(255,0,0,1.000)" /><rect x="12" y="30" width="1.025" height="1.025" fill="rgba(170,0,0,1.000)" /><rect x="13" y="30" width="1.025" height="1.025" fill="rgba(255,0,0,1.000)" /><rect x="20" y="30" width="1.025" height="1.025" fill="rgba(202,0,0,1.000)" /><rect x="21" y="30" width="1.025" height="1.025" fill="rgba(255,0,0,1.000)" /><rect x="13" y="31" width="1.025" height="1.025" fill="rgba(170,0,0,1.000)" /><rect x="14" y="31" width="1.025" height="1.025" fill="rgba(255,0,0,1.000)" /><rect x="21" y="31" width="1.025" height="1.025" fill="rgba(255,0,0,1.000)" /><rect x="13" y="32" width="1.025" height="1.025" fill="rgba(170,0,0,1.000)" /><rect x="14" y="32" width="1.025" height="1.025" fill="rgba(255,2,2,1.000)" /><rect x="21" y="32" width="1.025" height="1.025" fill="rgba(236,0,0,1.000)" /><rect x="22" y="32" width="1.025" height="1.025" fill="rgba(255,0,0,1.000)" /><rect x="13" y="33" width="1.025" height="1.025" fill="rgba(225,0,0,1.000)" /><rect x="14" y="33" width="1.025" height="1.025" fill="rgba(255,0,0,1.000)" /><rect x="15" y="33" width="1.025" height="1.025" fill="rgba(255,1,1,1.000)" /><rect x="21" y="33" width="1.025" height="1.025" fill="rgba(236,0,0,1.000)" /><rect x="22" y="33" width="1.025" height="1.025" fill="rgba(255,0,0,1.000)" /><rect x="13" y="34" width="1.025" height="1.025" fill="rgba(170,0,0,1.000)" /><rect x="14" y="34" width="1.025" height="1.025" fill="rgba(255,0,0,1.000)" /><rect x="15" y="34" width="1.025" height="1.025" fill="rgba(255,7,7,1.000)" /><rect x="16" y="34" width="1.025" height="1.025" fill="rgba(255,9,9,1.000)" /><rect x="21" y="34" width="1.025" height="1.025" fill="rgba(255,2,2,1.000)" /><rect x="22" y="34" width="1.025" height="1.025" fill="rgba(255,5,5,1.000)" /><rect x="23" y="34" width="1.025" height="1.025" fill="rgba(255,0,0,1.000)" /><rect x="12" y="35" width="1.025" height="1.025" fill="rgba(170,0,0,1.000)" /><rect x="13" y="35" width="1.025" height="1.025" fill="rgba(255,0,0,1.000)" /><rect x="14" y="35" width="1.025" height="1.025" fill="rgba(255,2,2,1.000)" /><rect x="15" y="35" width="1.025" height="1.025" fill="rgba(255,7,7,1.000)" /><rect x="16" y="35" width="1.025" height="1.025" fill="rgba(255,7,7,1.000)" /><rect x="17" y="35" width="1.025" height="1.025" fill="rgba(255,11,11,1.000)" /><rect x="18" y="35" width="1.025" height="1.025" fill="rgba(255,10,10,1.000)" /><rect x="20" y="35" width="1.025" height="1.025" fill="rgba(255,0,0,1.000)" /><rect x="21" y="35" width="1.025" height="1.025" fill="rgba(255,4,4,1.000)" /><rect x="22" y="35" width="1.025" height="1.025" fill="rgba(255,0,0,1.000)" /><rect x="23" y="35" width="1.025" height="1.025" fill="rgba(255,0,0,1.000)" /><rect x="24" y="35" width="1.025" height="1.025" fill="rgba(245,0,0,1.000)" /><rect x="11" y="36" width="1.025" height="1.025" fill="rgba(170,0,0,1.000)" /><rect x="12" y="36" width="1.025" height="1.025" fill="rgba(218,0,0,1.000)" /><rect x="13" y="36" width="1.025" height="1.025" fill="rgba(255,0,0,1.000)" /><rect x="14" y="36" width="1.025" height="1.025" fill="rgba(255,0,0,1.000)" /><rect x="15" y="36" width="1.025" height="1.025" fill="rgba(255,10,10,1.000)" /><rect x="16" y="36" width="1.025" height="1.025" fill="rgba(255,8,8,1.000)" /><rect x="17" y="36" width="1.025" height="1.025" fill="rgba(255,11,11,1.000)" /><rect x="18" y="36" width="1.025" height="1.025" fill="rgba(255,11,11,1.000)" /><rect x="19" y="36" width="1.025" height="1.025" fill="rgba(255,10,10,1.000)" /><rect x="20" y="36" width="1.025" height="1.025" fill="rgba(255,0,0,1.000)" /><rect x="21" y="36" width="1.025" height="1.025" fill="rgba(255,2,2,1.000)" /><rect x="22" y="36" width="1.025" height="1.025" fill="rgba(255,0,0,1.000)" /><rect x="23" y="36" width="1.025" height="1.025" fill="rgba(255,0,0,1.000)" /><rect x="24" y="36" width="1.025" height="1.025" fill="rgba(238,0,0,1.000)" /><rect x="25" y="36" width="1.025" height="1.025" fill="rgba(238,0,0,1.000)" /></svg>