<svg shape-rendering="crispEdges" xmlns="http://www.w3.org/2000/svg" version="1.1" width="37" height="37"><style>rect { image-rendering: pixelated; }</style><rect x="10" y="25" width="1.025" height="1.025" fill="rgba(131,118,104,1.000)" /><rect x="12" y="25" width="1.025" height="1.025" fill="rgba(135,96,56,1.000)" /><rect x="21" y="25" width="1.025" height="1.025" fill="rgba(135,122,108,1.000)" /><rect x="9" y="26" width="1.025" height="1.025" fill="rgba(179,144,93,1.000)" /><rect x="10" y="26" width="1.025" height="1.025" fill="rgba(120,86,51,1.000)" /><rect x="11" y="26" width="1.025" height="1.025" fill="rgba(56,40,23,1.000)" /><rect x="12" y="26" width="1.025" height="1.025" fill="rgba(90,67,37,1.000)" /><rect x="19" y="26" width="1.025" height="1.025" fill="rgba(92,70,39,1.000)" /><rect x="20" y="26" width="1.025" height="1.025" fill="rgba(86,63,39,1.000)" /><rect x="21" y="26" width="1.025" height="1.025" fill="rgba(46,35,19,1.000)" /><rect x="22" y="26" width="1.025" height="1.025" fill="rgba(83,61,37,1.000)" /><rect x="8" y="27" width="1.025" height="1.025" fill="rgba(47,37,23,1.000)" /><rect x="9" y="27" width="1.025" height="1.025" fill="rgba(129,93,55,1.000)" /><rect x="10" y="27" width="1.025" height="1.025" fill="rgba(135,103,58,1.000)" /><rect x="11" y="27" width="1.025" height="1.025" fill="rgba(192,116,27,1.000)" /><rect x="12" y="27" width="1.025" height="1.025" fill="rgba(244,77,145,1.000)" /><rect x="19" y="27" width="1.025" height="1.025" fill="rgba(158,91,78,1.000)" /><rect x="20" y="27" width="1.025" height="1.025" fill="rgba(42,31,18,1.000)" /><rect x="21" y="27" width="1.025" height="1.025" fill="rgba(197,119,28,1.000)" /><rect x="22" y="27" width="1.025" height="1.025" fill="rgba(152,109,63,1.000)" /><rect x="23" y="27" width="1.025" height="1.025" fill="rgba(44,31,18,1.000)" /><rect x="7" y="28" width="1.025" height="1.025" fill="rgba(190,119,35,1.000)" /><rect x="8" y="28" width="1.025" height="1.025" fill="rgba(144,122,86,1.000)" /><rect x="9" y="28" width="1.025" height="1.025" fill="rgba(123,89,52,1.000)" /><rect x="10" y="28" width="1.025" height="1.025" fill="rgba(107,82,48,1.000)" /><rect x="11" y="28" width="1.025" height="1.025" fill="rgba(33,24,14,1.000)" /><rect x="12" y="28" width="1.025" height="1.025" fill="rgba(92,70,39,1.000)" /><rect x="13" y="28" width="1.025" height="1.025" fill="rgba(243,130,178,1.000)" /><rect x="19" y="28" width="1.025" height="1.025" fill="rgba(174,75,96,1.000)" /><rect x="20" y="28" width="1.025" height="1.025" fill="rgba(130,96,56,1.000)" /><rect x="21" y="28" width="1.025" height="1.025" fill="rgba(44,33,19,1.000)" /><rect x="22" y="28" width="1.025" height="1.025" fill="rgba(170,129,70,1.000)" /><rect x="23" y="28" width="1.025" height="1.025" fill="rgba(107,78,47,1.000)" /><rect x="24" y="28" width="1.025" height="1.025" fill="rgba(56,42,28,1.000)" /><rect x="8" y="29" width="1.025" height="1.025" fill="rgba(56,42,28,1.000)" /><rect x="9" y="29" width="1.025" height="1.025" fill="rgba(89,65,40,1.000)" /><rect x="10" y="29" width="1.025" height="1.025" fill="rgba(131,96,56,1.000)" /><rect x="11" y="29" width="1.025" height="1.025" fill="rgba(84,61,36,1.000)" /><rect x="12" y="29" width="1.025" height="1.025" fill="rgba(55,42,26,1.000)" /><rect x="13" y="29" width="1.025" height="1.025" fill="rgba(243,130,178,1.000)" /><rect x="19" y="29" width="1.025" height="1.025" fill="rgba(243,130,178,1.000)" /><rect x="20" y="29" width="1.025" height="1.025" fill="rgba(97,73,42,1.000)" /><rect x="21" y="29" width="1.025" height="1.025" fill="rgba(133,98,58,1.000)" /><rect x="22" y="29" width="1.025" height="1.025" fill="rgba(95,72,44,1.000)" /><rect x="23" y="29" width="1.025" height="1.025" fill="rgba(56,42,28,1.000)" /><rect x="24" y="29" width="1.025" height="1.025" fill="rgba(52,37,22,1.000)" /><rect x="7" y="30" width="1.025" height="1.025" fill="rgba(176,153,109,1.000)" /><rect x="8" y="30" width="1.025" height="1.025" fill="rgba(17,13,9,1.000)" /><rect x="9" y="30" width="1.025" height="1.025" fill="rgba(89,65,40,1.000)" /><rect x="10" y="30" width="1.025" height="1.025" fill="rgba(135,103,58,1.000)" /><rect x="11" y="30" width="1.025" height="1.025" fill="rgba(131,96,56,1.000)" /><rect x="12" y="30" width="1.025" height="1.025" fill="rgba(104,79,47,1.000)" /><rect x="13" y="30" width="1.025" height="1.025" fill="rgba(96,73,42,1.000)" /><rect x="14" y="30" width="1.025" height="1.025" fill="rgba(244,106,187,1.000)" /><rect x="19" y="30" width="1.025" height="1.025" fill="rgba(243,130,178,1.000)" /><rect x="20" y="30" width="1.025" height="1.025" fill="rgba(110,84,49,1.000)" /><rect x="21" y="30" width="1.025" height="1.025" fill="rgba(108,82,49,1.000)" /><rect x="22" y="30" width="1.025" height="1.025" fill="rgba(87,64,38,1.000)" /><rect x="23" y="30" width="1.025" height="1.025" fill="rgba(19,14,10,1.000)" /><rect x="24" y="30" width="1.025" height="1.025" fill="rgba(191,115,25,1.000)" /><rect x="7" y="31" width="1.025" height="1.025" fill="rgba(36,25,13,1.000)" /><rect x="8" y="31" width="1.025" height="1.025" fill="rgba(194,117,27,1.000)" /><rect x="9" y="31" width="1.025" height="1.025" fill="rgba(51,39,26,1.000)" /><rect x="10" y="31" width="1.025" height="1.025" fill="rgba(89,66,40,1.000)" /><rect x="11" y="31" width="1.025" height="1.025" fill="rgba(130,96,56,1.000)" /><rect x="12" y="31" width="1.025" height="1.025" fill="rgba(36,28,16,1.000)" /><rect x="13" y="31" width="1.025" height="1.025" fill="rgba(107,82,48,1.000)" /><rect x="14" y="31" width="1.025" height="1.025" fill="rgba(127,92,53,1.000)" /><rect x="15" y="31" width="1.025" height="1.025" fill="rgba(243,130,178,1.000)" /><rect x="19" y="31" width="1.025" height="1.025" fill="rgba(243,130,178,1.000)" /><rect x="20" y="31" width="1.025" height="1.025" fill="rgba(38,29,17,1.000)" /><rect x="21" y="31" width="1.025" height="1.025" fill="rgba(93,71,42,1.000)" /><rect x="22" y="31" width="1.025" height="1.025" fill="rgba(56,42,28,1.000)" /><rect x="23" y="31" width="1.025" height="1.025" fill="rgba(135,98,56,1.000)" /><rect x="24" y="31" width="1.025" height="1.025" fill="rgba(32,22,12,1.000)" /><rect x="25" y="31" width="1.025" height="1.025" fill="rgba(125,91,52,1.000)" /><rect x="6" y="32" width="1.025" height="1.025" fill="rgba(92,68,41,1.000)" /><rect x="7" y="32" width="1.025" height="1.025" fill="rgba(124,89,51,1.000)" /><rect x="8" y="32" width="1.025" height="1.025" fill="rgba(32,22,12,1.000)" /><rect x="9" y="32" width="1.025" height="1.025" fill="rgba(125,91,53,1.000)" /><rect x="10" y="32" width="1.025" height="1.025" fill="rgba(51,39,26,1.000)" /><rect x="11" y="32" width="1.025" height="1.025" fill="rgba(72,54,33,1.000)" /><rect x="12" y="32" width="1.025" height="1.025" fill="rgba(186,112,24,1.000)" /><rect x="13" y="32" width="1.025" height="1.025" fill="rgba(38,29,17,1.000)" /><rect x="14" y="32" width="1.025" height="1.025" fill="rgba(115,82,47,1.000)" /><rect x="15" y="32" width="1.025" height="1.025" fill="rgba(244,106,187,1.000)" /><rect x="19" y="32" width="1.025" height="1.025" fill="rgba(243,110,166,1.000)" /><rect x="20" y="32" width="1.025" height="1.025" fill="rgba(188,114,25,1.000)" /><rect x="21" y="32" width="1.025" height="1.025" fill="rgba(37,27,16,1.000)" /><rect x="22" y="32" width="1.025" height="1.025" fill="rgba(56,42,28,1.000)" /><rect x="23" y="32" width="1.025" height="1.025" fill="rgba(130,95,55,1.000)" /><rect x="24" y="32" width="1.025" height="1.025" fill="rgba(115,82,47,1.000)" /><rect x="25" y="32" width="1.025" height="1.025" fill="rgba(142,103,60,1.000)" /><rect x="27" y="32" width="1.025" height="1.025" fill="rgba(121,107,93,1.000)" /><rect x="6" y="33" width="1.025" height="1.025" fill="rgba(95,70,42,1.000)" /><rect x="7" y="33" width="1.025" height="1.025" fill="rgba(137,98,56,1.000)" /><rect x="8" y="33" width="1.025" height="1.025" fill="rgba(110,78,43,1.000)" /><rect x="9" y="33" width="1.025" height="1.025" fill="rgba(91,64,34,1.000)" /><rect x="10" y="33" width="1.025" height="1.025" fill="rgba(144,105,60,1.000)" /><rect x="11" y="33" width="1.025" height="1.025" fill="rgba(51,39,26,1.000)" /><rect x="12" y="33" width="1.025" height="1.025" fill="rgba(33,24,14,1.000)" /><rect x="13" y="33" width="1.025" height="1.025" fill="rgba(112,85,51,1.000)" /><rect x="14" y="33" width="1.025" height="1.025" fill="rgba(112,85,51,1.000)" /><rect x="15" y="33" width="1.025" height="1.025" fill="rgba(244,106,187,1.000)" /><rect x="19" y="33" width="1.025" height="1.025" fill="rgba(243,110,166,1.000)" /><rect x="20" y="33" width="1.025" height="1.025" fill="rgba(38,29,17,1.000)" /><rect x="21" y="33" width="1.025" height="1.025" fill="rgba(56,42,28,1.000)" /><rect x="22" y="33" width="1.025" height="1.025" fill="rgba(97,69,37,1.000)" /><rect x="23" y="33" width="1.025" height="1.025" fill="rgba(103,73,40,1.000)" /><rect x="24" y="33" width="1.025" height="1.025" fill="rgba(140,102,59,1.000)" /><rect x="25" y="33" width="1.025" height="1.025" fill="rgba(137,98,56,1.000)" /><rect x="26" y="33" width="1.025" height="1.025" fill="rgba(121,87,49,1.000)" /><rect x="5" y="34" width="1.025" height="1.025" fill="rgba(79,59,36,1.000)" /><rect x="6" y="34" width="1.025" height="1.025" fill="rgba(51,37,22,1.000)" /><rect x="7" y="34" width="1.025" height="1.025" fill="rgba(130,93,53,1.000)" /><rect x="8" y="34" width="1.025" height="1.025" fill="rgba(147,107,62,1.000)" /><rect x="9" y="34" width="1.025" height="1.025" fill="rgba(125,89,51,1.000)" /><rect x="10" y="34" width="1.025" height="1.025" fill="rgba(96,68,37,1.000)" /><rect x="11" y="34" width="1.025" height="1.025" fill="rgba(121,86,50,1.000)" /><rect x="12" y="34" width="1.025" height="1.025" fill="rgba(56,42,28,1.000)" /><rect x="13" y="34" width="1.025" height="1.025" fill="rgba(113,85,51,1.000)" /><rect x="14" y="34" width="1.025" height="1.025" fill="rgba(112,85,51,1.000)" /><rect x="15" y="34" width="1.025" height="1.025" fill="rgba(243,110,166,1.000)" /><rect x="19" y="34" width="1.025" height="1.025" fill="rgba(243,110,166,1.000)" /><rect x="20" y="34" width="1.025" height="1.025" fill="rgba(56,42,28,1.000)" /><rect x="21" y="34" width="1.025" height="1.025" fill="rgba(112,80,45,1.000)" /><rect x="22" y="34" width="1.025" height="1.025" fill="rgba(99,70,38,1.000)" /><rect x="23" y="34" width="1.025" height="1.025" fill="rgba(156,114,67,1.000)" /><rect x="24" y="34" width="1.025" height="1.025" fill="rgba(156,114,67,1.000)" /><rect x="25" y="34" width="1.025" height="1.025" fill="rgba(44,31,18,1.000)" /><rect x="26" y="34" width="1.025" height="1.025" fill="rgba(147,107,62,1.000)" /><rect x="27" y="34" width="1.025" height="1.025" fill="rgba(46,33,19,1.000)" /><rect x="5" y="35" width="1.025" height="1.025" fill="rgba(104,76,46,1.000)" /><rect x="6" y="35" width="1.025" height="1.025" fill="rgba(194,117,27,1.000)" /><rect x="7" y="35" width="1.025" height="1.025" fill="rgba(56,42,23,1.000)" /><rect x="8" y="35" width="1.025" height="1.025" fill="rgba(163,123,69,1.000)" /><rect x="9" y="35" width="1.025" height="1.025" fill="rgba(135,96,56,1.000)" /><rect x="10" y="35" width="1.025" height="1.025" fill="rgba(40,29,16,1.000)" /><rect x="11" y="35" width="1.025" height="1.025" fill="rgba(129,93,53,1.000)" /><rect x="12" y="35" width="1.025" height="1.025" fill="rgba(101,72,39,1.000)" /><rect x="13" y="35" width="1.025" height="1.025" fill="rgba(56,42,28,1.000)" /><rect x="14" y="35" width="1.025" height="1.025" fill="rgba(37,29,17,1.000)" /><rect x="15" y="35" width="1.025" height="1.025" fill="rgba(244,77,145,1.000)" /><rect x="19" y="35" width="1.025" height="1.025" fill="rgba(244,77,145,1.000)" /><rect x="20" y="35" width="1.025" height="1.025" fill="rgba(56,42,28,1.000)" /><rect x="21" y="35" width="1.025" height="1.025" fill="rgba(39,28,16,1.000)" /><rect x="22" y="35" width="1.025" height="1.025" fill="rgba(196,118,28,1.000)" /><rect x="23" y="35" width="1.025" height="1.025" fill="rgba(135,96,56,1.000)" /><rect x="24" y="35" width="1.025" height="1.025" fill="rgba(51,36,22,1.000)" /><rect x="25" y="35" width="1.025" height="1.025" fill="rgba(198,121,29,1.000)" /><rect x="26" y="35" width="1.025" height="1.025" fill="rgba(163,123,69,1.000)" /><rect x="27" y="35" width="1.025" height="1.025" fill="rgba(135,96,56,1.000)" /><rect x="5" y="36" width="1.025" height="1.025" fill="rgba(83,64,40,1.000)" /><rect x="6" y="36" width="1.025" height="1.025" fill="rgba(47,34,19,1.000)" /><rect x="7" y="36" width="1.025" height="1.025" fill="rgba(140,100,58,1.000)" /><rect x="8" y="36" width="1.025" height="1.025" fill="rgba(156,112,65,1.000)" /><rect x="9" y="36" width="1.025" height="1.025" fill="rgba(126,89,51,1.000)" /><rect x="10" y="36" width="1.025" height="1.025" fill="rgba(200,123,31,1.000)" /><rect x="11" y="36" width="1.025" height="1.025" fill="rgba(58,45,27,1.000)" /><rect x="12" y="36" width="1.025" height="1.025" fill="rgba(140,100,58,1.000)" /><rect x="13" y="36" width="1.025" height="1.025" fill="rgba(56,42,28,1.000)" /><rect x="14" y="36" width="1.025" height="1.025" fill="rgba(103,77,47,1.000)" /><rect x="15" y="36" width="1.025" height="1.025" fill="rgba(244,77,145,1.000)" /><rect x="19" y="36" width="1.025" height="1.025" fill="rgba(244,77,145,1.000)" /><rect x="20" y="36" width="1.025" height="1.025" fill="rgba(70,50,29,1.000)" /><rect x="21" y="36" width="1.025" height="1.025" fill="rgba(140,100,58,1.000)" /><rect x="22" y="36" width="1.025" height="1.025" fill="rgba(58,45,27,1.000)" /><rect x="23" y="36" width="1.025" height="1.025" fill="rgba(170,133,78,1.000)" /><rect x="24" y="36" width="1.025" height="1.025" fill="rgba(156,112,65,1.000)" /><rect x="25" y="36" width="1.025" height="1.025" fill="rgba(47,34,19,1.000)" /><rect x="26" y="36" width="1.025" height="1.025" fill="rgba(156,112,65,1.000)" /><rect x="27" y="36" width="1.025" height="1.025" fill="rgba(140,100,58,1.000)" /></svg>