<svg shape-rendering="crispEdges" xmlns="http://www.w3.org/2000/svg" version="1.1" width="37" height="37"><style>rect { image-rendering: pixelated; }</style><rect x="12" y="27" width="1.025" height="1.025" fill="rgba(71,0,0,1.000)" /><rect x="13" y="27" width="1.025" height="1.025" fill="rgba(71,0,0,1.000)" /><rect x="19" y="27" width="1.025" height="1.025" fill="rgba(0,0,0,1.000)" /><rect x="20" y="27" width="1.025" height="1.025" fill="rgba(255,0,0,1.000)" /><rect x="9" y="28" width="1.025" height="1.025" fill="rgba(0,68,72,1.000)" /><rect x="10" y="28" width="1.025" height="1.025" fill="rgba(0,68,72,1.000)" /><rect x="11" y="28" width="1.025" height="1.025" fill="rgba(0,68,72,1.000)" /><rect x="12" y="28" width="1.025" height="1.025" fill="rgba(177,0,0,1.000)" /><rect x="13" y="28" width="1.025" height="1.025" fill="rgba(255,0,0,1.000)" /><rect x="14" y="28" width="1.025" height="1.025" fill="rgba(71,0,0,1.000)" /><rect x="19" y="28" width="1.025" height="1.025" fill="rgba(71,0,0,1.000)" /><rect x="20" y="28" width="1.025" height="1.025" fill="rgba(177,0,0,1.000)" /><rect x="21" y="28" width="1.025" height="1.025" fill="rgba(71,0,0,1.000)" /><rect x="22" y="28" width="1.025" height="1.025" fill="rgba(71,0,0,1.000)" /><rect x="7" y="29" width="1.025" height="1.025" fill="rgba(0,68,72,1.000)" /><rect x="8" y="29" width="1.025" height="1.025" fill="rgba(0,136,136,1.000)" /><rect x="9" y="29" width="1.025" height="1.025" fill="rgba(0,202,209,1.000)" /><rect x="10" y="29" width="1.025" height="1.025" fill="rgba(0,202,209,1.000)" /><rect x="11" y="29" width="1.025" height="1.025" fill="rgba(0,68,72,1.000)" /><rect x="12" y="29" width="1.025" height="1.025" fill="rgba(0,68,72,1.000)" /><rect x="13" y="29" width="1.025" height="1.025" fill="rgba(255,0,0,1.000)" /><rect x="14" y="29" width="1.025" height="1.025" fill="rgba(177,0,0,1.000)" /><rect x="15" y="29" width="1.025" height="1.025" fill="rgba(71,0,0,1.000)" /><rect x="18" y="29" width="1.025" height="1.025" fill="rgba(71,0,0,1.000)" /><rect x="19" y="29" width="1.025" height="1.025" fill="rgba(177,0,0,1.000)" /><rect x="20" y="29" width="1.025" height="1.025" fill="rgba(255,0,0,1.000)" /><rect x="21" y="29" width="1.025" height="1.025" fill="rgba(211,0,0,1.000)" /><rect x="22" y="29" width="1.025" height="1.025" fill="rgba(211,0,0,1.000)" /><rect x="23" y="29" width="1.025" height="1.025" fill="rgba(71,0,0,1.000)" /><rect x="24" y="29" width="1.025" height="1.025" fill="rgba(71,0,0,1.000)" /><rect x="6" y="30" width="1.025" height="1.025" fill="rgba(0,68,72,1.000)" /><rect x="7" y="30" width="1.025" height="1.025" fill="rgba(0,202,209,1.000)" /><rect x="8" y="30" width="1.025" height="1.025" fill="rgba(0,213,218,1.000)" /><rect x="9" y="30" width="1.025" height="1.025" fill="rgba(0,136,136,1.000)" /><rect x="10" y="30" width="1.025" height="1.025" fill="rgba(0,68,72,1.000)" /><rect x="11" y="30" width="1.025" height="1.025" fill="rgba(0,221,226,1.000)" /><rect x="12" y="30" width="1.025" height="1.025" fill="rgba(0,221,226,1.000)" /><rect x="13" y="30" width="1.025" height="1.025" fill="rgba(0,68,72,1.000)" /><rect x="14" y="30" width="1.025" height="1.025" fill="rgba(177,0,0,1.000)" /><rect x="15" y="30" width="1.025" height="1.025" fill="rgba(255,0,0,1.000)" /><rect x="17" y="30" width="1.025" height="1.025" fill="rgba(71,0,0,1.000)" /><rect x="18" y="30" width="1.025" height="1.025" fill="rgba(255,0,0,1.000)" /><rect x="19" y="30" width="1.025" height="1.025" fill="rgba(177,0,0,1.000)" /><rect x="20" y="30" width="1.025" height="1.025" fill="rgba(211,0,0,1.000)" /><rect x="21" y="30" width="1.025" height="1.025" fill="rgba(221,0,0,1.000)" /><rect x="22" y="30" width="1.025" height="1.025" fill="rgba(255,0,0,1.000)" /><rect x="23" y="30" width="1.025" height="1.025" fill="rgba(113,0,0,1.000)" /><rect x="24" y="30" width="1.025" height="1.025" fill="rgba(49,14,14,1.000)" /><rect x="25" y="30" width="1.025" height="1.025" fill="rgba(71,0,0,1.000)" /><rect x="5" y="31" width="1.025" height="1.025" fill="rgba(0,68,72,1.000)" /><rect x="6" y="31" width="1.025" height="1.025" fill="rgba(0,202,209,1.000)" /><rect x="7" y="31" width="1.025" height="1.025" fill="rgba(0,213,218,1.000)" /><rect x="8" y="31" width="1.025" height="1.025" fill="rgba(0,213,218,1.000)" /><rect x="9" y="31" width="1.025" height="1.025" fill="rgba(0,136,136,1.000)" /><rect x="10" y="31" width="1.025" height="1.025" fill="rgba(0,68,72,1.000)" /><rect x="11" y="31" width="1.025" height="1.025" fill="rgba(0,221,226,1.000)" /><rect x="12" y="31" width="1.025" height="1.025" fill="rgba(0,221,226,1.000)" /><rect x="13" y="31" width="1.025" height="1.025" fill="rgba(0,221,226,1.000)" /><rect x="14" y="31" width="1.025" height="1.025" fill="rgba(0,68,72,1.000)" /><rect x="15" y="31" width="1.025" height="1.025" fill="rgba(255,0,0,1.000)" /><rect x="17" y="31" width="1.025" height="1.025" fill="rgba(177,0,0,1.000)" /><rect x="18" y="31" width="1.025" height="1.025" fill="rgba(255,0,0,1.000)" /><rect x="19" y="31" width="1.025" height="1.025" fill="rgba(211,0,0,1.000)" /><rect x="20" y="31" width="1.025" height="1.025" fill="rgba(221,0,0,1.000)" /><rect x="21" y="31" width="1.025" height="1.025" fill="rgba(255,0,0,1.000)" /><rect x="22" y="31" width="1.025" height="1.025" fill="rgba(255,0,0,1.000)" /><rect x="23" y="31" width="1.025" height="1.025" fill="rgba(113,0,0,1.000)" /><rect x="24" y="31" width="1.025" height="1.025" fill="rgba(227,0,0,1.000)" /><rect x="25" y="31" width="1.025" height="1.025" fill="rgba(177,0,0,1.000)" /><rect x="26" y="31" width="1.025" height="1.025" fill="rgba(71,0,0,1.000)" /><rect x="4" y="32" width="1.025" height="1.025" fill="rgba(0,68,72,1.000)" /><rect x="5" y="32" width="1.025" height="1.025" fill="rgba(0,169,180,1.000)" /><rect x="6" y="32" width="1.025" height="1.025" fill="rgba(0,224,230,1.000)" /><rect x="7" y="32" width="1.025" height="1.025" fill="rgba(0,253,253,1.000)" /><rect x="8" y="32" width="1.025" height="1.025" fill="rgba(0,213,218,1.000)" /><rect x="9" y="32" width="1.025" height="1.025" fill="rgba(0,68,72,1.000)" /><rect x="10" y="32" width="1.025" height="1.025" fill="rgba(0,221,226,1.000)" /><rect x="11" y="32" width="1.025" height="1.025" fill="rgba(0,221,226,1.000)" /><rect x="12" y="32" width="1.025" height="1.025" fill="rgba(0,255,255,1.000)" /><rect x="13" y="32" width="1.025" height="1.025" fill="rgba(0,255,255,1.000)" /><rect x="14" y="32" width="1.025" height="1.025" fill="rgba(0,221,226,1.000)" /><rect x="15" y="32" width="1.025" height="1.025" fill="rgba(0,221,226,1.000)" /><rect x="16" y="32" width="1.025" height="1.025" fill="rgba(14,14,14,1.000)" /><rect x="17" y="32" width="1.025" height="1.025" fill="rgba(177,0,0,1.000)" /><rect x="18" y="32" width="1.025" height="1.025" fill="rgba(211,0,0,1.000)" /><rect x="19" y="32" width="1.025" height="1.025" fill="rgba(221,0,0,1.000)" /><rect x="20" y="32" width="1.025" height="1.025" fill="rgba(255,0,0,1.000)" /><rect x="21" y="32" width="1.025" height="1.025" fill="rgba(255,0,0,1.000)" /><rect x="22" y="32" width="1.025" height="1.025" fill="rgba(255,0,0,1.000)" /><rect x="23" y="32" width="1.025" height="1.025" fill="rgba(113,0,0,1.000)" /><rect x="24" y="32" width="1.025" height="1.025" fill="rgba(227,0,0,1.000)" /><rect x="25" y="32" width="1.025" height="1.025" fill="rgba(255,0,0,1.000)" /><rect x="26" y="32" width="1.025" height="1.025" fill="rgba(177,0,0,1.000)" /><rect x="27" y="32" width="1.025" height="1.025" fill="rgba(71,0,0,1.000)" /><rect x="3" y="33" width="1.025" height="1.025" fill="rgba(0,108,115,1.000)" /><rect x="4" y="33" width="1.025" height="1.025" fill="rgba(0,169,180,1.000)" /><rect x="5" y="33" width="1.025" height="1.025" fill="rgba(0,229,232,1.000)" /><rect x="6" y="33" width="1.025" height="1.025" fill="rgba(0,255,255,1.000)" /><rect x="7" y="33" width="1.025" height="1.025" fill="rgba(0,255,255,1.000)" /><rect x="8" y="33" width="1.025" height="1.025" fill="rgba(0,213,218,1.000)" /><rect x="9" y="33" width="1.025" height="1.025" fill="rgba(0,68,72,1.000)" /><rect x="10" y="33" width="1.025" height="1.025" fill="rgba(0,221,226,1.000)" /><rect x="11" y="33" width="1.025" height="1.025" fill="rgba(0,255,255,1.000)" /><rect x="12" y="33" width="1.025" height="1.025" fill="rgba(0,255,255,1.000)" /><rect x="13" y="33" width="1.025" height="1.025" fill="rgba(0,255,255,1.000)" /><rect x="14" y="33" width="1.025" height="1.025" fill="rgba(0,255,255,1.000)" /><rect x="15" y="33" width="1.025" height="1.025" fill="rgba(0,255,255,1.000)" /><rect x="16" y="33" width="1.025" height="1.025" fill="rgba(255,237,0,1.000)" /><rect x="17" y="33" width="1.025" height="1.025" fill="rgba(211,0,0,1.000)" /><rect x="18" y="33" width="1.025" height="1.025" fill="rgba(221,0,0,1.000)" /><rect x="19" y="33" width="1.025" height="1.025" fill="rgba(255,0,0,1.000)" /><rect x="20" y="33" width="1.025" height="1.025" fill="rgba(255,0,0,1.000)" /><rect x="21" y="33" width="1.025" height="1.025" fill="rgba(255,0,0,1.000)" /><rect x="22" y="33" width="1.025" height="1.025" fill="rgba(255,0,0,1.000)" /><rect x="23" y="33" width="1.025" height="1.025" fill="rgba(113,0,0,1.000)" /><rect x="24" y="33" width="1.025" height="1.025" fill="rgba(227,0,0,1.000)" /><rect x="25" y="33" width="1.025" height="1.025" fill="rgba(255,0,0,1.000)" /><rect x="26" y="33" width="1.025" height="1.025" fill="rgba(255,237,0,1.000)" /><rect x="27" y="33" width="1.025" height="1.025" fill="rgba(255,237,0,1.000)" /><rect x="28" y="33" width="1.025" height="1.025" fill="rgba(71,0,0,1.000)" /><rect x="3" y="34" width="1.025" height="1.025" fill="rgba(0,68,72,1.000)" /><rect x="4" y="34" width="1.025" height="1.025" fill="rgba(0,169,180,1.000)" /><rect x="5" y="34" width="1.025" height="1.025" fill="rgba(0,228,230,1.000)" /><rect x="6" y="34" width="1.025" height="1.025" fill="rgba(0,255,255,1.000)" /><rect x="7" y="34" width="1.025" height="1.025" fill="rgba(0,255,255,1.000)" /><rect x="8" y="34" width="1.025" height="1.025" fill="rgba(0,213,218,1.000)" /><rect x="9" y="34" width="1.025" height="1.025" fill="rgba(0,68,72,1.000)" /><rect x="10" y="34" width="1.025" height="1.025" fill="rgba(0,221,226,1.000)" /><rect x="11" y="34" width="1.025" height="1.025" fill="rgba(0,255,255,1.000)" /><rect x="12" y="34" width="1.025" height="1.025" fill="rgba(0,255,255,1.000)" /><rect x="13" y="34" width="1.025" height="1.025" fill="rgba(0,255,255,1.000)" /><rect x="14" y="34" width="1.025" height="1.025" fill="rgba(0,255,255,1.000)" /><rect x="15" y="34" width="1.025" height="1.025" fill="rgba(0,255,255,1.000)" /><rect x="16" y="34" width="1.025" height="1.025" fill="rgba(255,255,0,1.000)" /><rect x="17" y="34" width="1.025" height="1.025" fill="rgba(221,0,0,1.000)" /><rect x="18" y="34" width="1.025" height="1.025" fill="rgba(221,0,0,1.000)" /><rect x="19" y="34" width="1.025" height="1.025" fill="rgba(255,0,0,1.000)" /><rect x="20" y="34" width="1.025" height="1.025" fill="rgba(255,0,0,1.000)" /><rect x="21" y="34" width="1.025" height="1.025" fill="rgba(255,0,0,1.000)" /><rect x="22" y="34" width="1.025" height="1.025" fill="rgba(255,0,0,1.000)" /><rect x="23" y="34" width="1.025" height="1.025" fill="rgba(113,0,0,1.000)" /><rect x="24" y="34" width="1.025" height="1.025" fill="rgba(221,0,0,1.000)" /><rect x="25" y="34" width="1.025" height="1.025" fill="rgba(255,237,0,1.000)" /><rect x="26" y="34" width="1.025" height="1.025" fill="rgba(255,237,0,1.000)" /><rect x="27" y="34" width="1.025" height="1.025" fill="rgba(200,0,0,1.000)" /><rect x="28" y="34" width="1.025" height="1.025" fill="rgba(71,0,0,1.000)" /><rect x="2" y="35" width="1.025" height="1.025" fill="rgba(0,68,72,1.000)" /><rect x="3" y="35" width="1.025" height="1.025" fill="rgba(0,187,196,1.000)" /><rect x="4" y="35" width="1.025" height="1.025" fill="rgba(0,187,196,1.000)" /><rect x="5" y="35" width="1.025" height="1.025" fill="rgba(0,231,236,1.000)" /><rect x="6" y="35" width="1.025" height="1.025" fill="rgba(0,255,255,1.000)" /><rect x="7" y="35" width="1.025" height="1.025" fill="rgba(0,255,255,1.000)" /><rect x="8" y="35" width="1.025" height="1.025" fill="rgba(0,213,218,1.000)" /><rect x="9" y="35" width="1.025" height="1.025" fill="rgba(0,68,72,1.000)" /><rect x="10" y="35" width="1.025" height="1.025" fill="rgba(0,221,226,1.000)" /><rect x="11" y="35" width="1.025" height="1.025" fill="rgba(0,255,255,1.000)" /><rect x="12" y="35" width="1.025" height="1.025" fill="rgba(0,255,255,1.000)" /><rect x="13" y="35" width="1.025" height="1.025" fill="rgba(0,255,255,1.000)" /><rect x="14" y="35" width="1.025" height="1.025" fill="rgba(0,255,255,1.000)" /><rect x="15" y="35" width="1.025" height="1.025" fill="rgba(0,255,255,1.000)" /><rect x="16" y="35" width="1.025" height="1.025" fill="rgba(255,237,0,1.000)" /><rect x="17" y="35" width="1.025" height="1.025" fill="rgba(211,0,0,1.000)" /><rect x="18" y="35" width="1.025" height="1.025" fill="rgba(221,0,0,1.000)" /><rect x="19" y="35" width="1.025" height="1.025" fill="rgba(255,0,0,1.000)" /><rect x="20" y="35" width="1.025" height="1.025" fill="rgba(255,0,0,1.000)" /><rect x="21" y="35" width="1.025" height="1.025" fill="rgba(255,0,0,1.000)" /><rect x="22" y="35" width="1.025" height="1.025" fill="rgba(255,0,0,1.000)" /><rect x="23" y="35" width="1.025" height="1.025" fill="rgba(113,0,0,1.000)" /><rect x="24" y="35" width="1.025" height="1.025" fill="rgba(227,0,0,1.000)" /><rect x="25" y="35" width="1.025" height="1.025" fill="rgba(255,0,0,1.000)" /><rect x="26" y="35" width="1.025" height="1.025" fill="rgba(255,0,0,1.000)" /><rect x="27" y="35" width="1.025" height="1.025" fill="rgba(211,0,0,1.000)" /><rect x="28" y="35" width="1.025" height="1.025" fill="rgba(213,0,0,1.000)" /><rect x="29" y="35" width="1.025" height="1.025" fill="rgba(71,0,0,1.000)" /><rect x="2" y="36" width="1.025" height="1.025" fill="rgba(0,68,72,1.000)" /><rect x="3" y="36" width="1.025" height="1.025" fill="rgba(0,136,136,1.000)" /><rect x="4" y="36" width="1.025" height="1.025" fill="rgba(0,187,196,1.000)" /><rect x="5" y="36" width="1.025" height="1.025" fill="rgba(0,221,226,1.000)" /><rect x="6" y="36" width="1.025" height="1.025" fill="rgba(0,255,255,1.000)" /><rect x="7" y="36" width="1.025" height="1.025" fill="rgba(0,255,255,1.000)" /><rect x="8" y="36" width="1.025" height="1.025" fill="rgba(0,213,218,1.000)" /><rect x="9" y="36" width="1.025" height="1.025" fill="rgba(0,68,72,1.000)" /><rect x="10" y="36" width="1.025" height="1.025" fill="rgba(0,221,226,1.000)" /><rect x="11" y="36" width="1.025" height="1.025" fill="rgba(0,255,255,1.000)" /><rect x="12" y="36" width="1.025" height="1.025" fill="rgba(0,255,255,1.000)" /><rect x="13" y="36" width="1.025" height="1.025" fill="rgba(0,255,255,1.000)" /><rect x="14" y="36" width="1.025" height="1.025" fill="rgba(24,24,24,1.000)" /><rect x="15" y="36" width="1.025" height="1.025" fill="rgba(0,255,255,1.000)" /><rect x="16" y="36" width="1.025" height="1.025" fill="rgba(255,255,0,1.000)" /><rect x="17" y="36" width="1.025" height="1.025" fill="rgba(211,0,0,1.000)" /><rect x="18" y="36" width="1.025" height="1.025" fill="rgba(221,0,0,1.000)" /><rect x="19" y="36" width="1.025" height="1.025" fill="rgba(255,0,0,1.000)" /><rect x="20" y="36" width="1.025" height="1.025" fill="rgba(255,0,0,1.000)" /><rect x="21" y="36" width="1.025" height="1.025" fill="rgba(255,0,0,1.000)" /><rect x="22" y="36" width="1.025" height="1.025" fill="rgba(255,0,0,1.000)" /><rect x="23" y="36" width="1.025" height="1.025" fill="rgba(113,0,0,1.000)" /><rect x="24" y="36" width="1.025" height="1.025" fill="rgba(211,0,0,1.000)" /><rect x="25" y="36" width="1.025" height="1.025" fill="rgba(255,0,0,1.000)" /><rect x="26" y="36" width="1.025" height="1.025" fill="rgba(255,237,0,1.000)" /><rect x="27" y="36" width="1.025" height="1.025" fill="rgba(255,237,0,1.000)" /><rect x="28" y="36" width="1.025" height="1.025" fill="rgba(255,237,0,1.000)" /><rect x="29" y="36" width="1.025" height="1.025" fill="rgba(113,0,0,1.000)" /></svg>