<svg shape-rendering="crispEdges" xmlns="http://www.w3.org/2000/svg" version="1.1" width="37" height="37"><style>rect { image-rendering: pixelated; }</style><rect x="14" y="32" width="1.025" height="1.025" fill="rgba(84,17,52,1.000)" /><rect x="15" y="32" width="1.025" height="1.025" fill="rgba(84,17,52,1.000)" /><rect x="16" y="32" width="1.025" height="1.025" fill="rgba(89,16,54,1.000)" /><rect x="17" y="32" width="1.025" height="1.025" fill="rgba(95,14,57,1.000)" /><rect x="18" y="32" width="1.025" height="1.025" fill="rgba(98,14,57,1.000)" /><rect x="22" y="32" width="1.025" height="1.025" fill="rgba(96,14,57,1.000)" /><rect x="23" y="32" width="1.025" height="1.025" fill="rgba(101,13,59,1.000)" /><rect x="24" y="32" width="1.025" height="1.025" fill="rgba(108,12,61,1.000)" /><rect x="25" y="32" width="1.025" height="1.025" fill="rgba(119,9,67,1.000)" /><rect x="13" y="33" width="1.025" height="1.025" fill="rgba(84,17,52,1.000)" /><rect x="14" y="33" width="1.025" height="1.025" fill="rgba(254,194,226,1.000)" /><rect x="15" y="33" width="1.025" height="1.025" fill="rgba(165,0,86,1.000)" /><rect x="16" y="33" width="1.025" height="1.025" fill="rgba(246,220,233,1.000)" /><rect x="17" y="33" width="1.025" height="1.025" fill="rgba(154,0,81,1.000)" /><rect x="18" y="33" width="1.025" height="1.025" fill="rgba(166,0,84,1.000)" /><rect x="19" y="33" width="1.025" height="1.025" fill="rgba(100,13,59,1.000)" /><rect x="21" y="33" width="1.025" height="1.025" fill="rgba(88,16,53,1.000)" /><rect x="22" y="33" width="1.025" height="1.025" fill="rgba(212,85,148,1.000)" /><rect x="23" y="33" width="1.025" height="1.025" fill="rgba(246,220,233,1.000)" /><rect x="24" y="33" width="1.025" height="1.025" fill="rgba(165,0,86,1.000)" /><rect x="25" y="33" width="1.025" height="1.025" fill="rgba(225,80,157,1.000)" /><rect x="26" y="33" width="1.025" height="1.025" fill="rgba(152,3,81,1.000)" /><rect x="12" y="34" width="1.025" height="1.025" fill="rgba(84,17,52,1.000)" /><rect x="13" y="34" width="1.025" height="1.025" fill="rgba(255,24,145,1.000)" /><rect x="14" y="34" width="1.025" height="1.025" fill="rgba(188,0,98,1.000)" /><rect x="15" y="34" width="1.025" height="1.025" fill="rgba(165,0,86,1.000)" /><rect x="16" y="34" width="1.025" height="1.025" fill="rgba(154,0,81,1.000)" /><rect x="17" y="34" width="1.025" height="1.025" fill="rgba(201,89,147,1.000)" /><rect x="18" y="34" width="1.025" height="1.025" fill="rgba(166,0,84,1.000)" /><rect x="19" y="34" width="1.025" height="1.025" fill="rgba(247,219,235,1.000)" /><rect x="20" y="34" width="1.025" height="1.025" fill="rgba(103,13,59,1.000)" /><rect x="21" y="34" width="1.025" height="1.025" fill="rgba(134,0,68,1.000)" /><rect x="22" y="34" width="1.025" height="1.025" fill="rgba(165,0,86,1.000)" /><rect x="23" y="34" width="1.025" height="1.025" fill="rgba(154,0,81,1.000)" /><rect x="24" y="34" width="1.025" height="1.025" fill="rgba(237,200,217,1.000)" /><rect x="25" y="34" width="1.025" height="1.025" fill="rgba(159,0,83,1.000)" /><rect x="26" y="34" width="1.025" height="1.025" fill="rgba(255,225,240,1.000)" /><rect x="27" y="34" width="1.025" height="1.025" fill="rgba(165,0,86,1.000)" /><rect x="6" y="35" width="1.025" height="1.025" fill="rgba(109,0,149,0.941)" /><rect x="7" y="35" width="1.025" height="1.025" fill="rgba(109,0,149,0.918)" /><rect x="8" y="35" width="1.025" height="1.025" fill="rgba(109,0,149,0.831)" /><rect x="9" y="35" width="1.025" height="1.025" fill="rgba(109,0,149,0.831)" /><rect x="12" y="35" width="1.025" height="1.025" fill="rgba(84,17,52,1.000)" /><rect x="13" y="35" width="1.025" height="1.025" fill="rgba(255,225,240,1.000)" /><rect x="14" y="35" width="1.025" height="1.025" fill="rgba(190,0,100,1.000)" /><rect x="15" y="35" width="1.025" height="1.025" fill="rgba(220,82,156,1.000)" /><rect x="16" y="35" width="1.025" height="1.025" fill="rgba(170,0,89,1.000)" /><rect x="17" y="35" width="1.025" height="1.025" fill="rgba(149,0,78,1.000)" /><rect x="18" y="35" width="1.025" height="1.025" fill="rgba(174,0,90,1.000)" /><rect x="19" y="35" width="1.025" height="1.025" fill="rgba(157,0,81,1.000)" /><rect x="20" y="35" width="1.025" height="1.025" fill="rgba(245,72,162,1.000)" /><rect x="21" y="35" width="1.025" height="1.025" fill="rgba(214,84,150,1.000)" /><rect x="22" y="35" width="1.025" height="1.025" fill="rgba(170,0,89,1.000)" /><rect x="23" y="35" width="1.025" height="1.025" fill="rgba(170,0,89,1.000)" /><rect x="24" y="35" width="1.025" height="1.025" fill="rgba(150,0,77,1.000)" /><rect x="25" y="35" width="1.025" height="1.025" fill="rgba(228,79,155,1.000)" /><rect x="26" y="35" width="1.025" height="1.025" fill="rgba(245,0,128,1.000)" /><rect x="27" y="35" width="1.025" height="1.025" fill="rgba(165,0,86,1.000)" /><rect x="6" y="36" width="1.025" height="1.025" fill="rgba(109,0,149,0.996)" /><rect x="7" y="36" width="1.025" height="1.025" fill="rgba(109,0,149,0.996)" /><rect x="8" y="36" width="1.025" height="1.025" fill="rgba(109,0,149,0.988)" /><rect x="9" y="36" width="1.025" height="1.025" fill="rgba(109,0,149,0.988)" /><rect x="11" y="36" width="1.025" height="1.025" fill="rgba(84,17,52,1.000)" /><rect x="12" y="36" width="1.025" height="1.025" fill="rgba(166,0,84,1.000)" /><rect x="13" y="36" width="1.025" height="1.025" fill="rgba(255,16,140,1.000)" /><rect x="14" y="36" width="1.025" height="1.025" fill="rgba(190,0,100,1.000)" /><rect x="15" y="36" width="1.025" height="1.025" fill="rgba(166,0,84,1.000)" /><rect x="16" y="36" width="1.025" height="1.025" fill="rgba(237,200,217,1.000)" /><rect x="17" y="36" width="1.025" height="1.025" fill="rgba(165,0,86,1.000)" /><rect x="18" y="36" width="1.025" height="1.025" fill="rgba(255,70,165,1.000)" /><rect x="19" y="36" width="1.025" height="1.025" fill="rgba(165,0,86,1.000)" /><rect x="20" y="36" width="1.025" height="1.025" fill="rgba(191,0,98,1.000)" /><rect x="21" y="36" width="1.025" height="1.025" fill="rgba(168,0,87,1.000)" /><rect x="22" y="36" width="1.025" height="1.025" fill="rgba(191,0,98,1.000)" /><rect x="23" y="36" width="1.025" height="1.025" fill="rgba(237,200,217,1.000)" /><rect x="24" y="36" width="1.025" height="1.025" fill="rgba(118,0,60,1.000)" /><rect x="25" y="36" width="1.025" height="1.025" fill="rgba(175,0,90,1.000)" /><rect x="26" y="36" width="1.025" height="1.025" fill="rgba(118,0,60,1.000)" /><rect x="27" y="36" width="1.025" height="1.025" fill="rgba(165,0,86,1.000)" /></svg>