<svg shape-rendering="crispEdges" xmlns="http://www.w3.org/2000/svg" version="1.1" width="37" height="37"><style>rect { image-rendering: pixelated; }</style><rect x="14" y="32" width="1.025" height="1.025" fill="rgba(0,0,0,1.000)" /><rect x="15" y="32" width="1.025" height="1.025" fill="rgba(12,12,12,1.000)" /><rect x="16" y="32" width="1.025" height="1.025" fill="rgba(12,12,12,1.000)" /><rect x="17" y="32" width="1.025" height="1.025" fill="rgba(14,14,14,1.000)" /><rect x="18" y="32" width="1.025" height="1.025" fill="rgba(15,15,15,1.000)" /><rect x="22" y="32" width="1.025" height="1.025" fill="rgba(0,0,0,1.000)" /><rect x="23" y="32" width="1.025" height="1.025" fill="rgba(16,16,16,1.000)" /><rect x="24" y="32" width="1.025" height="1.025" fill="rgba(18,18,18,1.000)" /><rect x="25" y="32" width="1.025" height="1.025" fill="rgba(20,20,20,1.000)" /><rect x="13" y="33" width="1.025" height="1.025" fill="rgba(12,12,12,1.000)" /><rect x="14" y="33" width="1.025" height="1.025" fill="rgba(22,22,22,1.000)" /><rect x="15" y="33" width="1.025" height="1.025" fill="rgba(37,37,37,1.000)" /><rect x="16" y="33" width="1.025" height="1.025" fill="rgba(37,37,37,1.000)" /><rect x="17" y="33" width="1.025" height="1.025" fill="rgba(32,32,32,1.000)" /><rect x="18" y="33" width="1.025" height="1.025" fill="rgba(38,38,38,1.000)" /><rect x="19" y="33" width="1.025" height="1.025" fill="rgba(15,15,15,1.000)" /><rect x="21" y="33" width="1.025" height="1.025" fill="rgba(0,0,0,1.000)" /><rect x="22" y="33" width="1.025" height="1.025" fill="rgba(37,37,37,1.000)" /><rect x="23" y="33" width="1.025" height="1.025" fill="rgba(37,37,37,1.000)" /><rect x="24" y="33" width="1.025" height="1.025" fill="rgba(28,28,28,1.000)" /><rect x="25" y="33" width="1.025" height="1.025" fill="rgba(38,38,38,1.000)" /><rect x="26" y="33" width="1.025" height="1.025" fill="rgba(32,32,32,1.000)" /><rect x="12" y="34" width="1.025" height="1.025" fill="rgba(12,12,12,1.000)" /><rect x="13" y="34" width="1.025" height="1.025" fill="rgba(22,22,22,1.000)" /><rect x="14" y="34" width="1.025" height="1.025" fill="rgba(51,51,51,1.000)" /><rect x="15" y="34" width="1.025" height="1.025" fill="rgba(37,37,37,1.000)" /><rect x="16" y="34" width="1.025" height="1.025" fill="rgba(32,32,32,1.000)" /><rect x="17" y="34" width="1.025" height="1.025" fill="rgba(28,28,28,1.000)" /><rect x="18" y="34" width="1.025" height="1.025" fill="rgba(38,38,38,1.000)" /><rect x="19" y="34" width="1.025" height="1.025" fill="rgba(38,38,38,1.000)" /><rect x="20" y="34" width="1.025" height="1.025" fill="rgba(0,0,0,1.000)" /><rect x="21" y="34" width="1.025" height="1.025" fill="rgba(32,32,32,1.000)" /><rect x="22" y="34" width="1.025" height="1.025" fill="rgba(37,37,37,1.000)" /><rect x="23" y="34" width="1.025" height="1.025" fill="rgba(32,32,32,1.000)" /><rect x="24" y="34" width="1.025" height="1.025" fill="rgba(28,28,28,1.000)" /><rect x="25" y="34" width="1.025" height="1.025" fill="rgba(33,33,33,1.000)" /><rect x="26" y="34" width="1.025" height="1.025" fill="rgba(38,38,38,1.000)" /><rect x="6" y="35" width="1.025" height="1.025" fill="rgba(32,27,34,0.941)" /><rect x="7" y="35" width="1.025" height="1.025" fill="rgba(0,0,0,1.000)" /><rect x="8" y="35" width="1.025" height="1.025" fill="rgba(0,0,0,1.000)" /><rect x="9" y="35" width="1.025" height="1.025" fill="rgba(37,37,37,1.000)" /><rect x="10" y="35" width="1.025" height="1.025" fill="rgba(51,51,51,1.000)" /><rect x="12" y="35" width="1.025" height="1.025" fill="rgba(12,12,12,1.000)" /><rect x="13" y="35" width="1.025" height="1.025" fill="rgba(22,22,22,1.000)" /><rect x="14" y="35" width="1.025" height="1.025" fill="rgba(51,51,51,1.000)" /><rect x="15" y="35" width="1.025" height="1.025" fill="rgba(37,37,37,1.000)" /><rect x="16" y="35" width="1.025" height="1.025" fill="rgba(38,38,38,1.000)" /><rect x="17" y="35" width="1.025" height="1.025" fill="rgba(28,28,28,1.000)" /><rect x="18" y="35" width="1.025" height="1.025" fill="rgba(42,42,42,1.000)" /><rect x="19" y="35" width="1.025" height="1.025" fill="rgba(32,32,32,1.000)" /><rect x="20" y="35" width="1.025" height="1.025" fill="rgba(25,25,25,1.000)" /><rect x="21" y="35" width="1.025" height="1.025" fill="rgba(38,38,38,1.000)" /><rect x="22" y="35" width="1.025" height="1.025" fill="rgba(38,38,38,1.000)" /><rect x="23" y="35" width="1.025" height="1.025" fill="rgba(38,38,38,1.000)" /><rect x="24" y="35" width="1.025" height="1.025" fill="rgba(28,28,28,1.000)" /><rect x="25" y="35" width="1.025" height="1.025" fill="rgba(38,38,38,1.000)" /><rect x="26" y="35" width="1.025" height="1.025" fill="rgba(18,18,18,1.000)" /><rect x="6" y="36" width="1.025" height="1.025" fill="rgba(28,28,28,0.996)" /><rect x="7" y="36" width="1.025" height="1.025" fill="rgba(0,0,0,1.000)" /><rect x="8" y="36" width="1.025" height="1.025" fill="rgba(0,0,0,1.000)" /><rect x="9" y="36" width="1.025" height="1.025" fill="rgba(37,37,37,1.000)" /><rect x="10" y="36" width="1.025" height="1.025" fill="rgba(51,51,51,1.000)" /><rect x="11" y="36" width="1.025" height="1.025" fill="rgba(12,12,12,1.000)" /><rect x="12" y="36" width="1.025" height="1.025" fill="rgba(6,6,6,1.000)" /><rect x="13" y="36" width="1.025" height="1.025" fill="rgba(51,51,51,1.000)" /><rect x="14" y="36" width="1.025" height="1.025" fill="rgba(51,51,51,1.000)" /><rect x="15" y="36" width="1.025" height="1.025" fill="rgba(38,38,38,1.000)" /><rect x="16" y="36" width="1.025" height="1.025" fill="rgba(38,38,38,1.000)" /><rect x="17" y="36" width="1.025" height="1.025" fill="rgba(37,37,37,1.000)" /><rect x="18" y="36" width="1.025" height="1.025" fill="rgba(42,42,42,1.000)" /><rect x="19" y="36" width="1.025" height="1.025" fill="rgba(37,37,37,1.000)" /><rect x="20" y="36" width="1.025" height="1.025" fill="rgba(51,51,51,1.000)" /><rect x="21" y="36" width="1.025" height="1.025" fill="rgba(38,38,38,1.000)" /><rect x="22" y="36" width="1.025" height="1.025" fill="rgba(51,51,51,1.000)" /><rect x="23" y="36" width="1.025" height="1.025" fill="rgba(51,51,51,1.000)" /><rect x="24" y="36" width="1.025" height="1.025" fill="rgba(38,38,38,1.000)" /><rect x="25" y="36" width="1.025" height="1.025" fill="rgba(38,38,38,1.000)" /><rect x="26" y="36" width="1.025" height="1.025" fill="rgba(18,18,18,1.000)" /></svg>