<svg shape-rendering="crispEdges" xmlns="http://www.w3.org/2000/svg" version="1.1" width="37" height="37"><style>rect { image-rendering: pixelated; }</style><rect x="13" y="28" width="1.025" height="1.025" fill="rgba(18,18,18,1.000)" /><rect x="14" y="29" width="1.025" height="1.025" fill="rgba(18,18,18,1.000)" /><rect x="20" y="29" width="1.025" height="1.025" fill="rgba(18,18,18,1.000)" /><rect x="14" y="30" width="1.025" height="1.025" fill="rgba(18,18,18,1.000)" /><rect x="21" y="30" width="1.025" height="1.025" fill="rgba(18,18,18,1.000)" /><rect x="15" y="31" width="1.025" height="1.025" fill="rgba(18,18,18,1.000)" /><rect x="21" y="31" width="1.025" height="1.025" fill="rgba(18,18,18,1.000)" /><rect x="16" y="32" width="1.025" height="1.025" fill="rgba(18,18,18,1.000)" /><rect x="22" y="32" width="1.025" height="1.025" fill="rgba(18,18,18,1.000)" /><rect x="16" y="33" width="1.025" height="1.025" fill="rgba(13,13,13,1.000)" /><rect x="17" y="33" width="1.025" height="1.025" fill="rgba(18,18,18,1.000)" /><rect x="22" y="33" width="1.025" height="1.025" fill="rgba(18,18,18,1.000)" /><rect x="23" y="33" width="1.025" height="1.025" fill="rgba(18,18,18,1.000)" /><rect x="15" y="34" width="1.025" height="1.025" fill="rgba(18,18,18,1.000)" /><rect x="16" y="34" width="1.025" height="1.025" fill="rgba(18,18,18,1.000)" /><rect x="17" y="34" width="1.025" height="1.025" fill="rgba(18,18,18,0.600)" /><rect x="18" y="34" width="1.025" height="1.025" fill="rgba(18,18,18,1.000)" /><rect x="21" y="34" width="1.025" height="1.025" fill="rgba(18,18,18,1.000)" /><rect x="22" y="34" width="1.025" height="1.025" fill="rgba(17,17,17,1.000)" /><rect x="23" y="34" width="1.025" height="1.025" fill="rgba(18,18,18,0.600)" /><rect x="24" y="34" width="1.025" height="1.025" fill="rgba(17,17,17,1.000)" /><rect x="14" y="35" width="1.025" height="1.025" fill="rgba(18,18,18,1.000)" /><rect x="15" y="35" width="1.025" height="1.025" fill="rgba(18,18,18,1.000)" /><rect x="16" y="35" width="1.025" height="1.025" fill="rgba(18,18,18,0.600)" /><rect x="17" y="35" width="1.025" height="1.025" fill="rgba(18,18,18,1.000)" /><rect x="18" y="35" width="1.025" height="1.025" fill="rgba(18,18,18,0.600)" /><rect x="19" y="35" width="1.025" height="1.025" fill="rgba(20,20,20,1.000)" /><rect x="20" y="35" width="1.025" height="1.025" fill="rgba(18,18,18,1.000)" /><rect x="21" y="35" width="1.025" height="1.025" fill="rgba(17,17,17,1.000)" /><rect x="22" y="35" width="1.025" height="1.025" fill="rgba(17,17,17,0.600)" /><rect x="23" y="35" width="1.025" height="1.025" fill="rgba(16,16,16,1.000)" /><rect x="24" y="35" width="1.025" height="1.025" fill="rgba(14,14,14,0.600)" /><rect x="25" y="35" width="1.025" height="1.025" fill="rgba(13,13,13,1.000)" /><rect x="13" y="36" width="1.025" height="1.025" fill="rgba(18,18,18,1.000)" /><rect x="14" y="36" width="1.025" height="1.025" fill="rgba(18,18,18,1.000)" /><rect x="15" y="36" width="1.025" height="1.025" fill="rgba(18,18,18,0.600)" /><rect x="16" y="36" width="1.025" height="1.025" fill="rgba(18,18,18,1.000)" /><rect x="17" y="36" width="1.025" height="1.025" fill="rgba(18,18,18,0.600)" /><rect x="18" y="36" width="1.025" height="1.025" fill="rgba(18,18,18,1.000)" /><rect x="19" y="36" width="1.025" height="1.025" fill="rgba(18,18,18,0.600)" /><rect x="20" y="36" width="1.025" height="1.025" fill="rgba(16,16,16,1.000)" /><rect x="21" y="36" width="1.025" height="1.025" fill="rgba(16,16,16,0.600)" /><rect x="22" y="36" width="1.025" height="1.025" fill="rgba(14,14,14,1.000)" /><rect x="23" y="36" width="1.025" height="1.025" fill="rgba(13,13,13,0.600)" /><rect x="24" y="36" width="1.025" height="1.025" fill="rgba(11,11,11,1.000)" /><rect x="25" y="36" width="1.025" height="1.025" fill="rgba(9,9,9,0.600)" /><rect x="26" y="36" width="1.025" height="1.025" fill="rgba(0,0,0,1.000)" /><rect x="27" y="36" width="1.025" height="1.025" fill="rgba(18,18,18,1.000)" /></svg>