<svg shape-rendering="crispEdges" xmlns="http://www.w3.org/2000/svg" version="1.1" width="37" height="37"><style>rect { image-rendering: pixelated; }</style><rect x="10" y="27" width="1.025" height="1.025" fill="rgba(154,0,28,1.000)" /><rect x="11" y="27" width="1.025" height="1.025" fill="rgba(134,0,0,1.000)" /><rect x="12" y="27" width="1.025" height="1.025" fill="rgba(166,0,48,1.000)" /><rect x="19" y="27" width="1.025" height="1.025" fill="rgba(230,19,151,1.000)" /><rect x="20" y="27" width="1.025" height="1.025" fill="rgba(129,0,0,1.000)" /><rect x="21" y="27" width="1.025" height="1.025" fill="rgba(161,0,39,1.000)" /><rect x="8" y="28" width="1.025" height="1.025" fill="rgba(136,0,0,1.000)" /><rect x="9" y="28" width="1.025" height="1.025" fill="rgba(103,0,0,1.000)" /><rect x="10" y="28" width="1.025" height="1.025" fill="rgba(226,0,145,1.000)" /><rect x="11" y="28" width="1.025" height="1.025" fill="rgba(223,0,140,1.000)" /><rect x="12" y="28" width="1.025" height="1.025" fill="rgba(218,0,132,1.000)" /><rect x="19" y="28" width="1.025" height="1.025" fill="rgba(207,63,117,0.588)" /><rect x="20" y="28" width="1.025" height="1.025" fill="rgba(245,107,175,1.000)" /><rect x="21" y="28" width="1.025" height="1.025" fill="rgba(223,0,140,1.000)" /><rect x="22" y="28" width="1.025" height="1.025" fill="rgba(99,0,0,1.000)" /><rect x="23" y="28" width="1.025" height="1.025" fill="rgba(117,0,0,1.000)" /><rect x="6" y="29" width="1.025" height="1.025" fill="rgba(148,0,18,1.000)" /><rect x="7" y="29" width="1.025" height="1.025" fill="rgba(129,0,0,1.000)" /><rect x="8" y="29" width="1.025" height="1.025" fill="rgba(250,138,183,1.000)" /><rect x="9" y="29" width="1.025" height="1.025" fill="rgba(251,162,197,1.000)" /><rect x="10" y="29" width="1.025" height="1.025" fill="rgba(224,0,142,1.000)" /><rect x="11" y="29" width="1.025" height="1.025" fill="rgba(250,138,183,1.000)" /><rect x="12" y="29" width="1.025" height="1.025" fill="rgba(250,138,183,1.000)" /><rect x="13" y="29" width="1.025" height="1.025" fill="rgba(218,0,132,1.000)" /><rect x="19" y="29" width="1.025" height="1.025" fill="rgba(200,0,102,1.000)" /><rect x="20" y="29" width="1.025" height="1.025" fill="rgba(251,162,197,1.000)" /><rect x="21" y="29" width="1.025" height="1.025" fill="rgba(240,75,166,1.000)" /><rect x="22" y="29" width="1.025" height="1.025" fill="rgba(251,162,197,1.000)" /><rect x="23" y="29" width="1.025" height="1.025" fill="rgba(240,75,166,1.000)" /><rect x="24" y="29" width="1.025" height="1.025" fill="rgba(107,0,0,1.000)" /><rect x="25" y="29" width="1.025" height="1.025" fill="rgba(117,0,0,1.000)" /><rect x="5" y="30" width="1.025" height="1.025" fill="rgba(156,0,31,1.000)" /><rect x="6" y="30" width="1.025" height="1.025" fill="rgba(194,0,92,1.000)" /><rect x="7" y="30" width="1.025" height="1.025" fill="rgba(250,138,183,1.000)" /><rect x="8" y="30" width="1.025" height="1.025" fill="rgba(250,138,183,1.000)" /><rect x="9" y="30" width="1.025" height="1.025" fill="rgba(250,138,183,1.000)" /><rect x="10" y="30" width="1.025" height="1.025" fill="rgba(250,138,183,1.000)" /><rect x="11" y="30" width="1.025" height="1.025" fill="rgba(222,0,138,1.000)" /><rect x="12" y="30" width="1.025" height="1.025" fill="rgba(251,162,197,1.000)" /><rect x="13" y="30" width="1.025" height="1.025" fill="rgba(250,138,183,1.000)" /><rect x="14" y="30" width="1.025" height="1.025" fill="rgba(218,0,132,1.000)" /><rect x="19" y="30" width="1.025" height="1.025" fill="rgba(200,0,102,1.000)" /><rect x="20" y="30" width="1.025" height="1.025" fill="rgba(250,138,183,1.000)" /><rect x="21" y="30" width="1.025" height="1.025" fill="rgba(239,69,165,1.000)" /><rect x="22" y="30" width="1.025" height="1.025" fill="rgba(250,138,183,1.000)" /><rect x="23" y="30" width="1.025" height="1.025" fill="rgba(250,138,183,1.000)" /><rect x="24" y="30" width="1.025" height="1.025" fill="rgba(250,138,183,1.000)" /><rect x="25" y="30" width="1.025" height="1.025" fill="rgba(250,138,183,1.000)" /><rect x="26" y="30" width="1.025" height="1.025" fill="rgba(110,0,0,1.000)" /><rect x="4" y="31" width="1.025" height="1.025" fill="rgba(129,0,0,1.000)" /><rect x="5" y="31" width="1.025" height="1.025" fill="rgba(247,119,178,1.000)" /><rect x="6" y="31" width="1.025" height="1.025" fill="rgba(240,75,166,1.000)" /><rect x="7" y="31" width="1.025" height="1.025" fill="rgba(251,162,197,1.000)" /><rect x="8" y="31" width="1.025" height="1.025" fill="rgba(250,138,183,1.000)" /><rect x="9" y="31" width="1.025" height="1.025" fill="rgba(250,138,183,1.000)" /><rect x="10" y="31" width="1.025" height="1.025" fill="rgba(251,162,197,1.000)" /><rect x="11" y="31" width="1.025" height="1.025" fill="rgba(250,138,183,1.000)" /><rect x="12" y="31" width="1.025" height="1.025" fill="rgba(234,44,158,1.000)" /><rect x="13" y="31" width="1.025" height="1.025" fill="rgba(250,138,183,1.000)" /><rect x="14" y="31" width="1.025" height="1.025" fill="rgba(250,138,183,1.000)" /><rect x="15" y="31" width="1.025" height="1.025" fill="rgba(218,0,132,1.000)" /><rect x="18" y="31" width="1.025" height="1.025" fill="rgba(200,0,102,1.000)" /><rect x="19" y="31" width="1.025" height="1.025" fill="rgba(250,138,183,1.000)" /><rect x="20" y="31" width="1.025" height="1.025" fill="rgba(245,107,175,1.000)" /><rect x="21" y="31" width="1.025" height="1.025" fill="rgba(240,75,166,1.000)" /><rect x="22" y="31" width="1.025" height="1.025" fill="rgba(250,138,183,1.000)" /><rect x="23" y="31" width="1.025" height="1.025" fill="rgba(250,138,183,1.000)" /><rect x="24" y="31" width="1.025" height="1.025" fill="rgba(251,162,197,1.000)" /><rect x="25" y="31" width="1.025" height="1.025" fill="rgba(250,138,183,1.000)" /><rect x="26" y="31" width="1.025" height="1.025" fill="rgba(251,162,197,1.000)" /><rect x="27" y="31" width="1.025" height="1.025" fill="rgba(117,0,0,1.000)" /><rect x="3" y="32" width="1.025" height="1.025" fill="rgba(129,0,0,1.000)" /><rect x="4" y="32" width="1.025" height="1.025" fill="rgba(247,119,178,1.000)" /><rect x="5" y="32" width="1.025" height="1.025" fill="rgba(247,119,178,1.000)" /><rect x="6" y="32" width="1.025" height="1.025" fill="rgba(230,19,151,1.000)" /><rect x="7" y="32" width="1.025" height="1.025" fill="rgba(250,138,183,1.000)" /><rect x="8" y="32" width="1.025" height="1.025" fill="rgba(250,138,183,1.000)" /><rect x="9" y="32" width="1.025" height="1.025" fill="rgba(176,0,64,1.000)" /><rect x="10" y="32" width="1.025" height="1.025" fill="rgba(241,82,168,1.000)" /><rect x="11" y="32" width="1.025" height="1.025" fill="rgba(250,138,183,1.000)" /><rect x="12" y="32" width="1.025" height="1.025" fill="rgba(251,162,197,1.000)" /><rect x="13" y="32" width="1.025" height="1.025" fill="rgba(234,44,158,1.000)" /><rect x="14" y="32" width="1.025" height="1.025" fill="rgba(250,138,183,1.000)" /><rect x="15" y="32" width="1.025" height="1.025" fill="rgba(251,162,197,1.000)" /><rect x="16" y="32" width="1.025" height="1.025" fill="rgba(218,0,132,1.000)" /><rect x="18" y="32" width="1.025" height="1.025" fill="rgba(200,0,102,1.000)" /><rect x="19" y="32" width="1.025" height="1.025" fill="rgba(245,107,175,1.000)" /><rect x="20" y="32" width="1.025" height="1.025" fill="rgba(241,82,168,1.000)" /><rect x="21" y="32" width="1.025" height="1.025" fill="rgba(250,138,183,1.000)" /><rect x="22" y="32" width="1.025" height="1.025" fill="rgba(251,162,197,1.000)" /><rect x="23" y="32" width="1.025" height="1.025" fill="rgba(246,113,176,1.000)" /><rect x="24" y="32" width="1.025" height="1.025" fill="rgba(166,0,48,1.000)" /><rect x="25" y="32" width="1.025" height="1.025" fill="rgba(250,138,183,1.000)" /><rect x="26" y="32" width="1.025" height="1.025" fill="rgba(250,138,183,1.000)" /><rect x="27" y="32" width="1.025" height="1.025" fill="rgba(250,138,183,1.000)" /><rect x="28" y="32" width="1.025" height="1.025" fill="rgba(117,0,0,1.000)" /><rect x="2" y="33" width="1.025" height="1.025" fill="rgba(166,0,48,1.000)" /><rect x="3" y="33" width="1.025" height="1.025" fill="rgba(230,19,151,1.000)" /><rect x="4" y="33" width="1.025" height="1.025" fill="rgba(247,119,178,1.000)" /><rect x="5" y="33" width="1.025" height="1.025" fill="rgba(239,69,165,1.000)" /><rect x="6" y="33" width="1.025" height="1.025" fill="rgba(230,19,151,1.000)" /><rect x="7" y="33" width="1.025" height="1.025" fill="rgba(250,138,183,1.000)" /><rect x="8" y="33" width="1.025" height="1.025" fill="rgba(247,133,190,1.000)" /><rect x="9" y="33" width="1.025" height="1.025" fill="rgba(77,0,0,1.000)" /><rect x="10" y="33" width="1.025" height="1.025" fill="rgba(182,0,74,1.000)" /><rect x="11" y="33" width="1.025" height="1.025" fill="rgba(250,138,183,1.000)" /><rect x="12" y="33" width="1.025" height="1.025" fill="rgba(250,138,183,1.000)" /><rect x="13" y="33" width="1.025" height="1.025" fill="rgba(250,138,183,1.000)" /><rect x="14" y="33" width="1.025" height="1.025" fill="rgba(229,8,160,1.000)" /><rect x="15" y="33" width="1.025" height="1.025" fill="rgba(250,138,183,1.000)" /><rect x="16" y="33" width="1.025" height="1.025" fill="rgba(250,138,183,1.000)" /><rect x="17" y="33" width="1.025" height="1.025" fill="rgba(200,0,102,1.000)" /><rect x="18" y="33" width="1.025" height="1.025" fill="rgba(250,138,183,1.000)" /><rect x="19" y="33" width="1.025" height="1.025" fill="rgba(232,31,155,1.000)" /><rect x="20" y="33" width="1.025" height="1.025" fill="rgba(247,119,178,1.000)" /><rect x="21" y="33" width="1.025" height="1.025" fill="rgba(250,138,183,1.000)" /><rect x="22" y="33" width="1.025" height="1.025" fill="rgba(250,138,183,1.000)" /><rect x="23" y="33" width="1.025" height="1.025" fill="rgba(203,0,107,1.000)" /><rect x="24" y="33" width="1.025" height="1.025" fill="rgba(0,0,0,1.000)" /><rect x="25" y="33" width="1.025" height="1.025" fill="rgba(250,138,183,1.000)" /><rect x="26" y="33" width="1.025" height="1.025" fill="rgba(251,162,197,1.000)" /><rect x="27" y="33" width="1.025" height="1.025" fill="rgba(250,138,183,1.000)" /><rect x="28" y="33" width="1.025" height="1.025" fill="rgba(118,0,0,1.000)" /><rect x="2" y="34" width="1.025" height="1.025" fill="rgba(129,0,0,1.000)" /><rect x="3" y="34" width="1.025" height="1.025" fill="rgba(230,19,151,1.000)" /><rect x="4" y="34" width="1.025" height="1.025" fill="rgba(240,81,178,1.000)" /><rect x="5" y="34" width="1.025" height="1.025" fill="rgba(239,69,165,1.000)" /><rect x="6" y="34" width="1.025" height="1.025" fill="rgba(231,22,163,1.000)" /><rect x="7" y="34" width="1.025" height="1.025" fill="rgba(250,138,183,1.000)" /><rect x="8" y="34" width="1.025" height="1.025" fill="rgba(193,0,90,1.000)" /><rect x="9" y="34" width="1.025" height="1.025" fill="rgba(0,0,0,1.000)" /><rect x="10" y="34" width="1.025" height="1.025" fill="rgba(103,0,0,1.000)" /><rect x="11" y="34" width="1.025" height="1.025" fill="rgba(219,0,133,1.000)" /><rect x="12" y="34" width="1.025" height="1.025" fill="rgba(208,0,115,1.000)" /><rect x="13" y="34" width="1.025" height="1.025" fill="rgba(234,44,158,1.000)" /><rect x="14" y="34" width="1.025" height="1.025" fill="rgba(250,138,183,1.000)" /><rect x="15" y="34" width="1.025" height="1.025" fill="rgba(222,0,138,1.000)" /><rect x="16" y="34" width="1.025" height="1.025" fill="rgba(250,138,183,1.000)" /><rect x="17" y="34" width="1.025" height="1.025" fill="rgba(166,0,48,1.000)" /><rect x="18" y="34" width="1.025" height="1.025" fill="rgba(246,125,189,1.000)" /><rect x="19" y="34" width="1.025" height="1.025" fill="rgba(233,38,156,1.000)" /><rect x="20" y="34" width="1.025" height="1.025" fill="rgba(250,138,183,1.000)" /><rect x="21" y="34" width="1.025" height="1.025" fill="rgba(251,162,197,1.000)" /><rect x="22" y="34" width="1.025" height="1.025" fill="rgba(218,0,132,1.000)" /><rect x="23" y="34" width="1.025" height="1.025" fill="rgba(166,0,48,1.000)" /><rect x="24" y="34" width="1.025" height="1.025" fill="rgba(0,0,0,1.000)" /><rect x="25" y="34" width="1.025" height="1.025" fill="rgba(243,94,171,1.000)" /><rect x="26" y="34" width="1.025" height="1.025" fill="rgba(231,25,153,1.000)" /><rect x="27" y="34" width="1.025" height="1.025" fill="rgba(250,138,183,1.000)" /><rect x="28" y="34" width="1.025" height="1.025" fill="rgba(68,0,0,1.000)" /><rect x="2" y="35" width="1.025" height="1.025" fill="rgba(95,0,0,1.000)" /><rect x="3" y="35" width="1.025" height="1.025" fill="rgba(230,19,151,1.000)" /><rect x="4" y="35" width="1.025" height="1.025" fill="rgba(239,69,165,1.000)" /><rect x="5" y="35" width="1.025" height="1.025" fill="rgba(239,69,165,1.000)" /><rect x="6" y="35" width="1.025" height="1.025" fill="rgba(230,19,151,1.000)" /><rect x="7" y="35" width="1.025" height="1.025" fill="rgba(250,138,183,1.000)" /><rect x="8" y="35" width="1.025" height="1.025" fill="rgba(148,0,18,1.000)" /><rect x="9" y="35" width="1.025" height="1.025" fill="rgba(0,0,0,1.000)" /><rect x="10" y="35" width="1.025" height="1.025" fill="rgba(110,0,0,1.000)" /><rect x="11" y="35" width="1.025" height="1.025" fill="rgba(166,0,48,1.000)" /><rect x="12" y="35" width="1.025" height="1.025" fill="rgba(203,0,107,1.000)" /><rect x="13" y="35" width="1.025" height="1.025" fill="rgba(206,0,112,1.000)" /><rect x="14" y="35" width="1.025" height="1.025" fill="rgba(220,0,144,1.000)" /><rect x="15" y="35" width="1.025" height="1.025" fill="rgba(250,138,183,1.000)" /><rect x="16" y="35" width="1.025" height="1.025" fill="rgba(166,0,48,1.000)" /><rect x="17" y="35" width="1.025" height="1.025" fill="rgba(250,138,183,1.000)" /><rect x="18" y="35" width="1.025" height="1.025" fill="rgba(240,75,166,1.000)" /><rect x="19" y="35" width="1.025" height="1.025" fill="rgba(235,50,160,1.000)" /><rect x="20" y="35" width="1.025" height="1.025" fill="rgba(240,75,166,1.000)" /><rect x="21" y="35" width="1.025" height="1.025" fill="rgba(238,63,163,1.000)" /><rect x="22" y="35" width="1.025" height="1.025" fill="rgba(220,0,144,1.000)" /><rect x="23" y="35" width="1.025" height="1.025" fill="rgba(132,0,0,1.000)" /><rect x="24" y="35" width="1.025" height="1.025" fill="rgba(0,0,0,1.000)" /><rect x="25" y="35" width="1.025" height="1.025" fill="rgba(244,110,185,1.000)" /><rect x="26" y="35" width="1.025" height="1.025" fill="rgba(231,25,153,1.000)" /><rect x="27" y="35" width="1.025" height="1.025" fill="rgba(231,25,153,1.000)" /><rect x="28" y="35" width="1.025" height="1.025" fill="rgba(231,25,153,1.000)" /><rect x="29" y="35" width="1.025" height="1.025" fill="rgba(68,0,0,1.000)" /><rect x="2" y="36" width="1.025" height="1.025" fill="rgba(95,0,0,1.000)" /><rect x="3" y="36" width="1.025" height="1.025" fill="rgba(239,69,165,1.000)" /><rect x="4" y="36" width="1.025" height="1.025" fill="rgba(239,69,165,1.000)" /><rect x="5" y="36" width="1.025" height="1.025" fill="rgba(231,22,163,1.000)" /><rect x="6" y="36" width="1.025" height="1.025" fill="rgba(230,19,151,1.000)" /><rect x="7" y="36" width="1.025" height="1.025" fill="rgba(195,0,94,1.000)" /><rect x="8" y="36" width="1.025" height="1.025" fill="rgba(148,0,18,1.000)" /><rect x="9" y="36" width="1.025" height="1.025" fill="rgba(0,0,0,1.000)" /><rect x="10" y="36" width="1.025" height="1.025" fill="rgba(77,0,0,1.000)" /><rect x="11" y="36" width="1.025" height="1.025" fill="rgba(110,0,0,1.000)" /><rect x="12" y="36" width="1.025" height="1.025" fill="rgba(167,0,52,1.000)" /><rect x="13" y="36" width="1.025" height="1.025" fill="rgba(203,0,107,1.000)" /><rect x="14" y="36" width="1.025" height="1.025" fill="rgba(227,0,146,1.000)" /><rect x="15" y="36" width="1.025" height="1.025" fill="rgba(166,0,48,1.000)" /><rect x="16" y="36" width="1.025" height="1.025" fill="rgba(250,138,183,1.000)" /><rect x="17" y="36" width="1.025" height="1.025" fill="rgba(250,138,183,1.000)" /><rect x="18" y="36" width="1.025" height="1.025" fill="rgba(233,38,156,1.000)" /><rect x="19" y="36" width="1.025" height="1.025" fill="rgba(250,138,183,1.000)" /><rect x="20" y="36" width="1.025" height="1.025" fill="rgba(240,75,166,1.000)" /><rect x="21" y="36" width="1.025" height="1.025" fill="rgba(219,0,133,1.000)" /><rect x="22" y="36" width="1.025" height="1.025" fill="rgba(132,0,0,1.000)" /><rect x="23" y="36" width="1.025" height="1.025" fill="rgba(132,0,0,1.000)" /><rect x="24" y="36" width="1.025" height="1.025" fill="rgba(77,0,0,1.000)" /><rect x="25" y="36" width="1.025" height="1.025" fill="rgba(243,94,171,1.000)" /><rect x="26" y="36" width="1.025" height="1.025" fill="rgba(231,25,153,1.000)" /><rect x="27" y="36" width="1.025" height="1.025" fill="rgba(231,25,153,1.000)" /><rect x="28" y="36" width="1.025" height="1.025" fill="rgba(232,29,166,1.000)" /><rect x="29" y="36" width="1.025" height="1.025" fill="rgba(68,0,0,1.000)" /></svg>