<svg shape-rendering="crispEdges" xmlns="http://www.w3.org/2000/svg" version="1.1" width="37" height="37"><style>rect { image-rendering: pixelated; }</style><rect x="14" y="24" width="1.025" height="1.025" fill="rgba(35,35,35,1.000)" /><rect x="15" y="24" width="1.025" height="1.025" fill="rgba(0,0,0,1.000)" /><rect x="14" y="25" width="1.025" height="1.025" fill="rgba(35,35,35,1.000)" /><rect x="15" y="25" width="1.025" height="1.025" fill="rgba(181,181,181,1.000)" /><rect x="16" y="25" width="1.025" height="1.025" fill="rgba(240,240,240,1.000)" /><rect x="17" y="25" width="1.025" height="1.025" fill="rgba(0,0,0,1.000)" /><rect x="18" y="25" width="1.025" height="1.025" fill="rgba(181,181,181,1.000)" /><rect x="19" y="25" width="1.025" height="1.025" fill="rgba(240,240,240,1.000)" /><rect x="14" y="26" width="1.025" height="1.025" fill="rgba(71,71,71,1.000)" /><rect x="15" y="26" width="1.025" height="1.025" fill="rgba(204,204,204,1.000)" /><rect x="16" y="26" width="1.025" height="1.025" fill="rgba(255,255,255,1.000)" /><rect x="17" y="26" width="1.025" height="1.025" fill="rgba(255,255,255,1.000)" /><rect x="18" y="26" width="1.025" height="1.025" fill="rgba(255,255,255,1.000)" /><rect x="19" y="26" width="1.025" height="1.025" fill="rgba(255,255,255,1.000)" /><rect x="14" y="27" width="1.025" height="1.025" fill="rgba(70,70,70,0.710)" /><rect x="15" y="27" width="1.025" height="1.025" fill="rgba(204,204,204,1.000)" /><rect x="16" y="27" width="1.025" height="1.025" fill="rgba(255,255,255,1.000)" /><rect x="17" y="27" width="1.025" height="1.025" fill="rgba(0,0,0,1.000)" /><rect x="18" y="27" width="1.025" height="1.025" fill="rgba(204,204,204,1.000)" /><rect x="19" y="27" width="1.025" height="1.025" fill="rgba(255,255,255,1.000)" /><rect x="10" y="34" width="1.025" height="1.025" fill="rgba(221,221,221,1.000)" /><rect x="4" y="35" width="1.025" height="1.025" fill="rgba(0,0,0,0.784)" /><rect x="5" y="35" width="1.025" height="1.025" fill="rgba(0,0,0,0.639)" /><rect x="10" y="35" width="1.025" height="1.025" fill="rgba(221,221,221,1.000)" /><rect x="11" y="35" width="1.025" height="1.025" fill="rgba(206,206,206,1.000)" /><rect x="12" y="35" width="1.025" height="1.025" fill="rgba(255,255,255,1.000)" /><rect x="17" y="35" width="1.025" height="1.025" fill="rgba(255,255,255,1.000)" /><rect x="18" y="35" width="1.025" height="1.025" fill="rgba(185,185,185,1.000)" /><rect x="19" y="35" width="1.025" height="1.025" fill="rgba(212,212,212,1.000)" /><rect x="25" y="35" width="1.025" height="1.025" fill="rgba(255,255,255,1.000)" /><rect x="3" y="36" width="1.025" height="1.025" fill="rgba(0,0,0,0.784)" /><rect x="4" y="36" width="1.025" height="1.025" fill="rgba(0,0,0,0.784)" /><rect x="5" y="36" width="1.025" height="1.025" fill="rgba(0,0,0,0.784)" /><rect x="11" y="36" width="1.025" height="1.025" fill="rgba(240,240,240,1.000)" /><rect x="12" y="36" width="1.025" height="1.025" fill="rgba(240,240,240,1.000)" /><rect x="13" y="36" width="1.025" height="1.025" fill="rgba(255,255,255,1.000)" /><rect x="14" y="36" width="1.025" height="1.025" fill="rgba(255,255,255,1.000)" /><rect x="15" y="36" width="1.025" height="1.025" fill="rgba(255,255,255,1.000)" /><rect x="16" y="36" width="1.025" height="1.025" fill="rgba(255,255,255,1.000)" /><rect x="17" y="36" width="1.025" height="1.025" fill="rgba(255,255,255,1.000)" /><rect x="18" y="36" width="1.025" height="1.025" fill="rgba(216,216,216,1.000)" /><rect x="19" y="36" width="1.025" height="1.025" fill="rgba(240,240,240,1.000)" /><rect x="20" y="36" width="1.025" height="1.025" fill="rgba(240,240,240,1.000)" /><rect x="21" y="36" width="1.025" height="1.025" fill="rgba(255,255,255,1.000)" /><rect x="22" y="36" width="1.025" height="1.025" fill="rgba(255,255,255,1.000)" /><rect x="23" y="36" width="1.025" height="1.025" fill="rgba(255,255,255,1.000)" /><rect x="24" y="36" width="1.025" height="1.025" fill="rgba(255,255,255,1.000)" /><rect x="25" y="36" width="1.025" height="1.025" fill="rgba(255,255,255,1.000)" /></svg>