<svg shape-rendering="crispEdges" xmlns="http://www.w3.org/2000/svg" version="1.1" width="37" height="37"><style>rect { image-rendering: pixelated; }</style><rect x="12" y="25" width="1.025" height="1.025" fill="rgba(0,0,0,1.000)" /><rect x="12" y="26" width="1.025" height="1.025" fill="rgba(0,0,0,1.000)" /><rect x="14" y="26" width="1.025" height="1.025" fill="rgba(0,0,0,1.000)" /><rect x="15" y="26" width="1.025" height="1.025" fill="rgba(0,0,0,1.000)" /><rect x="18" y="26" width="1.025" height="1.025" fill="rgba(0,0,0,1.000)" /><rect x="19" y="26" width="1.025" height="1.025" fill="rgba(0,0,0,1.000)" /><rect x="10" y="27" width="1.025" height="1.025" fill="rgba(0,0,0,1.000)" /><rect x="11" y="27" width="1.025" height="1.025" fill="rgba(0,0,0,1.000)" /><rect x="12" y="27" width="1.025" height="1.025" fill="rgba(40,40,40,1.000)" /><rect x="14" y="27" width="1.025" height="1.025" fill="rgba(0,0,0,1.000)" /><rect x="15" y="27" width="1.025" height="1.025" fill="rgba(0,0,0,1.000)" /><rect x="16" y="27" width="1.025" height="1.025" fill="rgba(43,43,43,1.000)" /><rect x="17" y="27" width="1.025" height="1.025" fill="rgba(0,0,0,1.000)" /><rect x="18" y="27" width="1.025" height="1.025" fill="rgba(0,0,0,1.000)" /><rect x="19" y="27" width="1.025" height="1.025" fill="rgba(0,0,0,1.000)" /><rect x="8" y="28" width="1.025" height="1.025" fill="rgba(0,0,0,1.000)" /><rect x="9" y="28" width="1.025" height="1.025" fill="rgba(0,0,0,1.000)" /><rect x="10" y="28" width="1.025" height="1.025" fill="rgba(235,233,224,1.000)" /><rect x="11" y="28" width="1.025" height="1.025" fill="rgba(0,0,0,1.000)" /><rect x="12" y="28" width="1.025" height="1.025" fill="rgba(40,40,40,1.000)" /><rect x="14" y="28" width="1.025" height="1.025" fill="rgba(0,0,0,1.000)" /><rect x="15" y="28" width="1.025" height="1.025" fill="rgba(0,0,0,1.000)" /><rect x="16" y="28" width="1.025" height="1.025" fill="rgba(23,23,23,1.000)" /><rect x="17" y="28" width="1.025" height="1.025" fill="rgba(30,30,30,1.000)" /><rect x="18" y="28" width="1.025" height="1.025" fill="rgba(0,0,0,1.000)" /><rect x="19" y="28" width="1.025" height="1.025" fill="rgba(0,0,0,1.000)" /><rect x="20" y="28" width="1.025" height="1.025" fill="rgba(43,43,43,1.000)" /><rect x="21" y="28" width="1.025" height="1.025" fill="rgba(0,0,0,1.000)" /><rect x="22" y="28" width="1.025" height="1.025" fill="rgba(0,0,0,1.000)" /><rect x="23" y="28" width="1.025" height="1.025" fill="rgba(0,0,0,1.000)" /><rect x="6" y="29" width="1.025" height="1.025" fill="rgba(0,0,0,1.000)" /><rect x="7" y="29" width="1.025" height="1.025" fill="rgba(0,0,0,1.000)" /><rect x="8" y="29" width="1.025" height="1.025" fill="rgba(88,73,0,1.000)" /><rect x="9" y="29" width="1.025" height="1.025" fill="rgba(88,73,0,1.000)" /><rect x="10" y="29" width="1.025" height="1.025" fill="rgba(88,73,0,1.000)" /><rect x="11" y="29" width="1.025" height="1.025" fill="rgba(0,0,0,1.000)" /><rect x="12" y="29" width="1.025" height="1.025" fill="rgba(33,33,33,1.000)" /><rect x="14" y="29" width="1.025" height="1.025" fill="rgba(0,0,0,0.800)" /><rect x="15" y="29" width="1.025" height="1.025" fill="rgba(0,0,0,0.800)" /><rect x="18" y="29" width="1.025" height="1.025" fill="rgba(0,0,0,1.000)" /><rect x="19" y="29" width="1.025" height="1.025" fill="rgba(0,0,0,1.000)" /><rect x="20" y="29" width="1.025" height="1.025" fill="rgba(29,29,29,1.000)" /><rect x="21" y="29" width="1.025" height="1.025" fill="rgba(30,30,30,1.000)" /><rect x="22" y="29" width="1.025" height="1.025" fill="rgba(0,0,0,1.000)" /><rect x="23" y="29" width="1.025" height="1.025" fill="rgba(110,91,0,1.000)" /><rect x="24" y="29" width="1.025" height="1.025" fill="rgba(0,0,0,1.000)" /><rect x="25" y="29" width="1.025" height="1.025" fill="rgba(0,0,0,1.000)" /><rect x="5" y="30" width="1.025" height="1.025" fill="rgba(0,0,0,1.000)" /><rect x="6" y="30" width="1.025" height="1.025" fill="rgba(236,230,204,1.000)" /><rect x="7" y="30" width="1.025" height="1.025" fill="rgba(122,101,0,1.000)" /><rect x="8" y="30" width="1.025" height="1.025" fill="rgba(237,235,224,1.000)" /><rect x="9" y="30" width="1.025" height="1.025" fill="rgba(110,91,0,1.000)" /><rect x="10" y="30" width="1.025" height="1.025" fill="rgba(124,103,0,1.000)" /><rect x="11" y="30" width="1.025" height="1.025" fill="rgba(238,235,224,1.000)" /><rect x="12" y="30" width="1.025" height="1.025" fill="rgba(0,0,0,1.000)" /><rect x="13" y="30" width="1.025" height="1.025" fill="rgba(26,26,26,1.000)" /><rect x="19" y="30" width="1.025" height="1.025" fill="rgba(83,83,83,1.000)" /><rect x="20" y="30" width="1.025" height="1.025" fill="rgba(23,23,23,1.000)" /><rect x="21" y="30" width="1.025" height="1.025" fill="rgba(0,0,0,1.000)" /><rect x="22" y="30" width="1.025" height="1.025" fill="rgba(88,73,0,1.000)" /><rect x="23" y="30" width="1.025" height="1.025" fill="rgba(169,158,102,1.000)" /><rect x="24" y="30" width="1.025" height="1.025" fill="rgba(122,101,0,1.000)" /><rect x="25" y="30" width="1.025" height="1.025" fill="rgba(178,164,102,1.000)" /><rect x="26" y="30" width="1.025" height="1.025" fill="rgba(0,0,0,1.000)" /><rect x="4" y="31" width="1.025" height="1.025" fill="rgba(0,0,0,1.000)" /><rect x="5" y="31" width="1.025" height="1.025" fill="rgba(250,207,0,1.000)" /><rect x="6" y="31" width="1.025" height="1.025" fill="rgba(148,122,0,1.000)" /><rect x="7" y="31" width="1.025" height="1.025" fill="rgba(122,101,0,1.000)" /><rect x="8" y="31" width="1.025" height="1.025" fill="rgba(110,91,0,1.000)" /><rect x="9" y="31" width="1.025" height="1.025" fill="rgba(161,151,102,1.000)" /><rect x="10" y="31" width="1.025" height="1.025" fill="rgba(124,103,0,1.000)" /><rect x="11" y="31" width="1.025" height="1.025" fill="rgba(114,94,0,1.000)" /><rect x="12" y="31" width="1.025" height="1.025" fill="rgba(0,0,0,1.000)" /><rect x="13" y="31" width="1.025" height="1.025" fill="rgba(24,24,24,1.000)" /><rect x="14" y="31" width="1.025" height="1.025" fill="rgba(0,0,0,1.000)" /><rect x="20" y="31" width="1.025" height="1.025" fill="rgba(23,23,23,1.000)" /><rect x="21" y="31" width="1.025" height="1.025" fill="rgba(0,0,0,1.000)" /><rect x="22" y="31" width="1.025" height="1.025" fill="rgba(118,98,0,1.000)" /><rect x="23" y="31" width="1.025" height="1.025" fill="rgba(122,101,0,1.000)" /><rect x="24" y="31" width="1.025" height="1.025" fill="rgba(224,221,204,1.000)" /><rect x="25" y="31" width="1.025" height="1.025" fill="rgba(116,96,0,1.000)" /><rect x="26" y="31" width="1.025" height="1.025" fill="rgba(214,177,0,1.000)" /><rect x="27" y="31" width="1.025" height="1.025" fill="rgba(0,0,0,1.000)" /><rect x="4" y="32" width="1.025" height="1.025" fill="rgba(0,0,0,1.000)" /><rect x="5" y="32" width="1.025" height="1.025" fill="rgba(253,248,224,1.000)" /><rect x="6" y="32" width="1.025" height="1.025" fill="rgba(150,124,0,1.000)" /><rect x="7" y="32" width="1.025" height="1.025" fill="rgba(174,161,102,1.000)" /><rect x="8" y="32" width="1.025" height="1.025" fill="rgba(128,106,0,1.000)" /><rect x="9" y="32" width="1.025" height="1.025" fill="rgba(104,86,0,1.000)" /><rect x="10" y="32" width="1.025" height="1.025" fill="rgba(132,109,0,1.000)" /><rect x="11" y="32" width="1.025" height="1.025" fill="rgba(114,94,0,1.000)" /><rect x="12" y="32" width="1.025" height="1.025" fill="rgba(0,0,0,1.000)" /><rect x="13" y="32" width="1.025" height="1.025" fill="rgba(0,0,0,1.000)" /><rect x="14" y="32" width="1.025" height="1.025" fill="rgba(23,23,23,1.000)" /><rect x="20" y="32" width="1.025" height="1.025" fill="rgba(0,0,0,1.000)" /><rect x="21" y="32" width="1.025" height="1.025" fill="rgba(0,0,0,1.000)" /><rect x="22" y="32" width="1.025" height="1.025" fill="rgba(170,158,102,1.000)" /><rect x="23" y="32" width="1.025" height="1.025" fill="rgba(128,106,0,1.000)" /><rect x="24" y="32" width="1.025" height="1.025" fill="rgba(106,88,0,1.000)" /><rect x="25" y="32" width="1.025" height="1.025" fill="rgba(180,167,102,1.000)" /><rect x="26" y="32" width="1.025" height="1.025" fill="rgba(212,175,0,1.000)" /><rect x="27" y="32" width="1.025" height="1.025" fill="rgba(0,0,0,1.000)" /><rect x="4" y="33" width="1.025" height="1.025" fill="rgba(0,0,0,1.000)" /><rect x="5" y="33" width="1.025" height="1.025" fill="rgba(242,200,0,1.000)" /><rect x="6" y="33" width="1.025" height="1.025" fill="rgba(150,124,0,1.000)" /><rect x="7" y="33" width="1.025" height="1.025" fill="rgba(124,103,0,1.000)" /><rect x="8" y="33" width="1.025" height="1.025" fill="rgba(156,129,0,1.000)" /><rect x="9" y="33" width="1.025" height="1.025" fill="rgba(0,0,0,1.000)" /><rect x="10" y="33" width="1.025" height="1.025" fill="rgba(200,184,102,1.000)" /><rect x="11" y="33" width="1.025" height="1.025" fill="rgba(122,101,0,1.000)" /><rect x="12" y="33" width="1.025" height="1.025" fill="rgba(126,104,0,1.000)" /><rect x="13" y="33" width="1.025" height="1.025" fill="rgba(0,0,0,1.000)" /><rect x="14" y="33" width="1.025" height="1.025" fill="rgba(21,21,21,1.000)" /><rect x="15" y="33" width="1.025" height="1.025" fill="rgba(0,0,0,1.000)" /><rect x="21" y="33" width="1.025" height="1.025" fill="rgba(0,0,0,1.000)" /><rect x="22" y="33" width="1.025" height="1.025" fill="rgba(126,104,0,1.000)" /><rect x="23" y="33" width="1.025" height="1.025" fill="rgba(152,126,0,1.000)" /><rect x="24" y="33" width="1.025" height="1.025" fill="rgba(70,58,0,1.000)" /><rect x="25" y="33" width="1.025" height="1.025" fill="rgba(134,111,0,1.000)" /><rect x="26" y="33" width="1.025" height="1.025" fill="rgba(210,174,0,1.000)" /><rect x="27" y="33" width="1.025" height="1.025" fill="rgba(0,0,0,1.000)" /><rect x="4" y="34" width="1.025" height="1.025" fill="rgba(0,0,0,1.000)" /><rect x="5" y="34" width="1.025" height="1.025" fill="rgba(242,200,0,1.000)" /><rect x="6" y="34" width="1.025" height="1.025" fill="rgba(192,176,102,1.000)" /><rect x="7" y="34" width="1.025" height="1.025" fill="rgba(126,104,0,1.000)" /><rect x="8" y="34" width="1.025" height="1.025" fill="rgba(162,134,0,1.000)" /><rect x="9" y="34" width="1.025" height="1.025" fill="rgba(0,0,0,1.000)" /><rect x="10" y="34" width="1.025" height="1.025" fill="rgba(204,169,0,1.000)" /><rect x="11" y="34" width="1.025" height="1.025" fill="rgba(144,119,0,1.000)" /><rect x="12" y="34" width="1.025" height="1.025" fill="rgba(192,176,102,1.000)" /><rect x="13" y="34" width="1.025" height="1.025" fill="rgba(0,0,0,1.000)" /><rect x="14" y="34" width="1.025" height="1.025" fill="rgba(0,0,0,1.000)" /><rect x="15" y="34" width="1.025" height="1.025" fill="rgba(0,0,0,1.000)" /><rect x="21" y="34" width="1.025" height="1.025" fill="rgba(0,0,0,1.000)" /><rect x="22" y="34" width="1.025" height="1.025" fill="rgba(190,175,102,1.000)" /><rect x="23" y="34" width="1.025" height="1.025" fill="rgba(172,142,0,1.000)" /><rect x="24" y="34" width="1.025" height="1.025" fill="rgba(70,58,0,1.000)" /><rect x="25" y="34" width="1.025" height="1.025" fill="rgba(126,104,0,1.000)" /><rect x="26" y="34" width="1.025" height="1.025" fill="rgba(250,245,224,1.000)" /><rect x="27" y="34" width="1.025" height="1.025" fill="rgba(0,0,0,1.000)" /><rect x="4" y="35" width="1.025" height="1.025" fill="rgba(0,0,0,1.000)" /><rect x="5" y="35" width="1.025" height="1.025" fill="rgba(238,197,0,1.000)" /><rect x="6" y="35" width="1.025" height="1.025" fill="rgba(146,121,0,1.000)" /><rect x="7" y="35" width="1.025" height="1.025" fill="rgba(124,103,0,1.000)" /><rect x="8" y="35" width="1.025" height="1.025" fill="rgba(243,239,224,1.000)" /><rect x="9" y="35" width="1.025" height="1.025" fill="rgba(0,0,0,1.000)" /><rect x="10" y="35" width="1.025" height="1.025" fill="rgba(200,165,0,1.000)" /><rect x="11" y="35" width="1.025" height="1.025" fill="rgba(174,144,0,1.000)" /><rect x="12" y="35" width="1.025" height="1.025" fill="rgba(152,126,0,1.000)" /><rect x="13" y="35" width="1.025" height="1.025" fill="rgba(150,124,0,1.000)" /><rect x="14" y="35" width="1.025" height="1.025" fill="rgba(0,0,0,1.000)" /><rect x="15" y="35" width="1.025" height="1.025" fill="rgba(0,0,0,1.000)" /><rect x="22" y="35" width="1.025" height="1.025" fill="rgba(136,113,0,1.000)" /><rect x="23" y="35" width="1.025" height="1.025" fill="rgba(188,156,0,1.000)" /><rect x="24" y="35" width="1.025" height="1.025" fill="rgba(70,58,0,1.000)" /><rect x="25" y="35" width="1.025" height="1.025" fill="rgba(126,104,0,1.000)" /><rect x="26" y="35" width="1.025" height="1.025" fill="rgba(204,169,0,1.000)" /><rect x="27" y="35" width="1.025" height="1.025" fill="rgba(0,0,0,1.000)" /><rect x="4" y="36" width="1.025" height="1.025" fill="rgba(0,0,0,1.000)" /><rect x="5" y="36" width="1.025" height="1.025" fill="rgba(253,248,224,1.000)" /><rect x="6" y="36" width="1.025" height="1.025" fill="rgba(146,121,0,1.000)" /><rect x="7" y="36" width="1.025" height="1.025" fill="rgba(124,103,0,1.000)" /><rect x="8" y="36" width="1.025" height="1.025" fill="rgba(154,127,0,1.000)" /><rect x="9" y="36" width="1.025" height="1.025" fill="rgba(0,0,0,1.000)" /><rect x="10" y="36" width="1.025" height="1.025" fill="rgba(200,165,0,1.000)" /><rect x="11" y="36" width="1.025" height="1.025" fill="rgba(245,242,224,1.000)" /><rect x="12" y="36" width="1.025" height="1.025" fill="rgba(152,126,0,1.000)" /><rect x="13" y="36" width="1.025" height="1.025" fill="rgba(192,176,102,1.000)" /><rect x="14" y="36" width="1.025" height="1.025" fill="rgba(152,126,0,1.000)" /><rect x="15" y="36" width="1.025" height="1.025" fill="rgba(0,0,0,1.000)" /><rect x="16" y="36" width="1.025" height="1.025" fill="rgba(0,0,0,1.000)" /><rect x="22" y="36" width="1.025" height="1.025" fill="rgba(0,0,0,1.000)" /><rect x="23" y="36" width="1.025" height="1.025" fill="rgba(188,156,0,1.000)" /><rect x="24" y="36" width="1.025" height="1.025" fill="rgba(70,58,0,1.000)" /><rect x="25" y="36" width="1.025" height="1.025" fill="rgba(178,164,102,1.000)" /><rect x="26" y="36" width="1.025" height="1.025" fill="rgba(204,169,0,1.000)" /><rect x="27" y="36" width="1.025" height="1.025" fill="rgba(0,0,0,1.000)" /></svg>