<svg shape-rendering="crispEdges" xmlns="http://www.w3.org/2000/svg" version="1.1" width="37" height="37"><style>rect { image-rendering: pixelated; }</style><rect x="10" y="28" width="1.025" height="1.025" fill="rgba(251,210,0,1.000)" /><rect x="11" y="28" width="1.025" height="1.025" fill="rgba(243,146,0,1.000)" /><rect x="19" y="28" width="1.025" height="1.025" fill="rgba(96,235,237,1.000)" /><rect x="11" y="29" width="1.025" height="1.025" fill="rgba(255,237,0,1.000)" /><rect x="12" y="29" width="1.025" height="1.025" fill="rgba(92,230,233,1.000)" /><rect x="19" y="29" width="1.025" height="1.025" fill="rgba(81,218,221,1.000)" /><rect x="20" y="29" width="1.025" height="1.025" fill="rgba(138,226,230,1.000)" /><rect x="12" y="30" width="1.025" height="1.025" fill="rgba(78,215,219,1.000)" /><rect x="13" y="30" width="1.025" height="1.025" fill="rgba(91,229,232,1.000)" /><rect x="20" y="30" width="1.025" height="1.025" fill="rgba(249,191,0,1.000)" /><rect x="21" y="30" width="1.025" height="1.025" fill="rgba(255,237,0,1.000)" /><rect x="13" y="31" width="1.025" height="1.025" fill="rgba(78,215,219,1.000)" /><rect x="14" y="31" width="1.025" height="1.025" fill="rgba(138,224,228,1.000)" /><rect x="21" y="31" width="1.025" height="1.025" fill="rgba(243,146,0,1.000)" /><rect x="13" y="32" width="1.025" height="1.025" fill="rgba(78,215,219,1.000)" /><rect x="14" y="32" width="1.025" height="1.025" fill="rgba(142,228,233,1.000)" /><rect x="21" y="32" width="1.025" height="1.025" fill="rgba(251,210,0,1.000)" /><rect x="22" y="32" width="1.025" height="1.025" fill="rgba(255,237,0,1.000)" /><rect x="13" y="33" width="1.025" height="1.025" fill="rgba(175,224,77,1.000)" /><rect x="14" y="33" width="1.025" height="1.025" fill="rgba(96,234,236,1.000)" /><rect x="15" y="33" width="1.025" height="1.025" fill="rgba(140,228,232,1.000)" /><rect x="21" y="33" width="1.025" height="1.025" fill="rgba(89,226,229,1.000)" /><rect x="22" y="33" width="1.025" height="1.025" fill="rgba(138,226,230,1.000)" /><rect x="13" y="34" width="1.025" height="1.025" fill="rgba(243,146,0,1.000)" /><rect x="14" y="34" width="1.025" height="1.025" fill="rgba(255,237,0,1.000)" /><rect x="15" y="34" width="1.025" height="1.025" fill="rgba(102,240,243,1.000)" /><rect x="16" y="34" width="1.025" height="1.025" fill="rgba(149,236,240,1.000)" /><rect x="21" y="34" width="1.025" height="1.025" fill="rgba(98,236,239,1.000)" /><rect x="22" y="34" width="1.025" height="1.025" fill="rgba(145,232,235,1.000)" /><rect x="23" y="34" width="1.025" height="1.025" fill="rgba(135,222,226,1.000)" /><rect x="12" y="35" width="1.025" height="1.025" fill="rgba(243,146,0,1.000)" /><rect x="13" y="35" width="1.025" height="1.025" fill="rgba(243,146,0,1.000)" /><rect x="14" y="35" width="1.025" height="1.025" fill="rgba(255,237,0,1.000)" /><rect x="15" y="35" width="1.025" height="1.025" fill="rgba(71,244,246,1.000)" /><rect x="16" y="35" width="1.025" height="1.025" fill="rgba(146,233,238,1.000)" /><rect x="17" y="35" width="1.025" height="1.025" fill="rgba(150,238,241,1.000)" /><rect x="18" y="35" width="1.025" height="1.025" fill="rgba(149,236,240,1.000)" /><rect x="20" y="35" width="1.025" height="1.025" fill="rgba(93,231,234,1.000)" /><rect x="21" y="35" width="1.025" height="1.025" fill="rgba(100,238,240,1.000)" /><rect x="22" y="35" width="1.025" height="1.025" fill="rgba(249,191,0,1.000)" /><rect x="23" y="35" width="1.025" height="1.025" fill="rgba(132,219,223,1.000)" /><rect x="24" y="35" width="1.025" height="1.025" fill="rgba(125,212,215,1.000)" /><rect x="11" y="36" width="1.025" height="1.025" fill="rgba(78,215,219,1.000)" /><rect x="12" y="36" width="1.025" height="1.025" fill="rgba(249,191,0,1.000)" /><rect x="13" y="36" width="1.025" height="1.025" fill="rgba(255,237,0,1.000)" /><rect x="14" y="36" width="1.025" height="1.025" fill="rgba(96,234,236,1.000)" /><rect x="15" y="36" width="1.025" height="1.025" fill="rgba(51,249,250,1.000)" /><rect x="16" y="36" width="1.025" height="1.025" fill="rgba(103,241,244,1.000)" /><rect x="17" y="36" width="1.025" height="1.025" fill="rgba(105,243,245,1.000)" /><rect x="18" y="36" width="1.025" height="1.025" fill="rgba(105,243,245,1.000)" /><rect x="19" y="36" width="1.025" height="1.025" fill="rgba(149,236,240,1.000)" /><rect x="20" y="36" width="1.025" height="1.025" fill="rgba(91,229,232,1.000)" /><rect x="21" y="36" width="1.025" height="1.025" fill="rgba(251,210,0,1.000)" /><rect x="22" y="36" width="1.025" height="1.025" fill="rgba(243,146,0,1.000)" /><rect x="23" y="36" width="1.025" height="1.025" fill="rgba(255,237,0,1.000)" /><rect x="24" y="36" width="1.025" height="1.025" fill="rgba(122,210,213,1.000)" /><rect x="25" y="36" width="1.025" height="1.025" fill="rgba(122,210,213,1.000)" /></svg>