<svg shape-rendering="crispEdges" xmlns="http://www.w3.org/2000/svg" version="1.1" width="37" height="37"><style>rect { image-rendering: pixelated; }</style><rect x="11" y="28" width="1.025" height="1.025" fill="rgba(17,17,17,1.000)" /><rect x="12" y="28" width="1.025" height="1.025" fill="rgba(10,10,10,1.000)" /><rect x="19" y="28" width="1.025" height="1.025" fill="rgba(11,11,11,1.000)" /><rect x="20" y="28" width="1.025" height="1.025" fill="rgba(11,11,11,1.000)" /><rect x="21" y="28" width="1.025" height="1.025" fill="rgba(8,8,8,1.000)" /><rect x="10" y="29" width="1.025" height="1.025" fill="rgba(8,8,8,1.000)" /><rect x="11" y="29" width="1.025" height="1.025" fill="rgba(44,44,44,1.000)" /><rect x="12" y="29" width="1.025" height="1.025" fill="rgba(44,44,44,1.000)" /><rect x="13" y="29" width="1.025" height="1.025" fill="rgba(10,10,10,1.000)" /><rect x="20" y="29" width="1.025" height="1.025" fill="rgba(10,10,10,1.000)" /><rect x="21" y="29" width="1.025" height="1.025" fill="rgba(64,64,64,1.000)" /><rect x="22" y="29" width="1.025" height="1.025" fill="rgba(8,8,8,1.000)" /><rect x="11" y="30" width="1.025" height="1.025" fill="rgba(8,8,8,1.000)" /><rect x="12" y="30" width="1.025" height="1.025" fill="rgba(57,57,57,1.000)" /><rect x="13" y="30" width="1.025" height="1.025" fill="rgba(58,58,58,1.000)" /><rect x="14" y="30" width="1.025" height="1.025" fill="rgba(10,10,10,1.000)" /><rect x="20" y="30" width="1.025" height="1.025" fill="rgba(10,10,10,1.000)" /><rect x="21" y="30" width="1.025" height="1.025" fill="rgba(64,64,64,1.000)" /><rect x="22" y="30" width="1.025" height="1.025" fill="rgba(8,8,8,1.000)" /><rect x="11" y="31" width="1.025" height="1.025" fill="rgba(8,8,8,1.000)" /><rect x="12" y="31" width="1.025" height="1.025" fill="rgba(67,67,67,1.000)" /><rect x="13" y="31" width="1.025" height="1.025" fill="rgba(68,68,68,1.000)" /><rect x="14" y="31" width="1.025" height="1.025" fill="rgba(10,10,10,1.000)" /><rect x="20" y="31" width="1.025" height="1.025" fill="rgba(10,10,10,1.000)" /><rect x="21" y="31" width="1.025" height="1.025" fill="rgba(68,68,68,1.000)" /><rect x="22" y="31" width="1.025" height="1.025" fill="rgba(8,8,8,1.000)" /><rect x="11" y="32" width="1.025" height="1.025" fill="rgba(8,8,8,1.000)" /><rect x="12" y="32" width="1.025" height="1.025" fill="rgba(68,68,68,1.000)" /><rect x="13" y="32" width="1.025" height="1.025" fill="rgba(69,69,69,1.000)" /><rect x="14" y="32" width="1.025" height="1.025" fill="rgba(69,69,69,1.000)" /><rect x="15" y="32" width="1.025" height="1.025" fill="rgba(10,10,10,1.000)" /><rect x="19" y="32" width="1.025" height="1.025" fill="rgba(10,10,10,1.000)" /><rect x="20" y="32" width="1.025" height="1.025" fill="rgba(69,69,69,1.000)" /><rect x="21" y="32" width="1.025" height="1.025" fill="rgba(69,69,69,1.000)" /><rect x="22" y="32" width="1.025" height="1.025" fill="rgba(66,66,66,1.000)" /><rect x="23" y="32" width="1.025" height="1.025" fill="rgba(8,8,8,1.000)" /><rect x="11" y="33" width="1.025" height="1.025" fill="rgba(8,8,8,1.000)" /><rect x="12" y="33" width="1.025" height="1.025" fill="rgba(68,68,68,1.000)" /><rect x="13" y="33" width="1.025" height="1.025" fill="rgba(71,71,71,1.000)" /><rect x="14" y="33" width="1.025" height="1.025" fill="rgba(70,70,70,1.000)" /><rect x="15" y="33" width="1.025" height="1.025" fill="rgba(69,69,69,1.000)" /><rect x="16" y="33" width="1.025" height="1.025" fill="rgba(10,10,10,1.000)" /><rect x="17" y="33" width="1.025" height="1.025" fill="rgba(10,10,10,1.000)" /><rect x="18" y="33" width="1.025" height="1.025" fill="rgba(10,10,10,1.000)" /><rect x="19" y="33" width="1.025" height="1.025" fill="rgba(68,68,68,1.000)" /><rect x="20" y="33" width="1.025" height="1.025" fill="rgba(69,69,69,1.000)" /><rect x="21" y="33" width="1.025" height="1.025" fill="rgba(69,69,69,1.000)" /><rect x="22" y="33" width="1.025" height="1.025" fill="rgba(69,69,69,1.000)" /><rect x="23" y="33" width="1.025" height="1.025" fill="rgba(8,8,8,1.000)" /><rect x="11" y="34" width="1.025" height="1.025" fill="rgba(27,27,27,1.000)" /><rect x="12" y="34" width="1.025" height="1.025" fill="rgba(64,64,64,1.000)" /><rect x="13" y="34" width="1.025" height="1.025" fill="rgba(58,58,58,1.000)" /><rect x="14" y="34" width="1.025" height="1.025" fill="rgba(65,65,65,1.000)" /><rect x="15" y="34" width="1.025" height="1.025" fill="rgba(71,71,71,1.000)" /><rect x="16" y="34" width="1.025" height="1.025" fill="rgba(69,69,69,1.000)" /><rect x="17" y="34" width="1.025" height="1.025" fill="rgba(69,69,69,1.000)" /><rect x="18" y="34" width="1.025" height="1.025" fill="rgba(55,55,55,1.000)" /><rect x="19" y="34" width="1.025" height="1.025" fill="rgba(64,64,64,1.000)" /><rect x="20" y="34" width="1.025" height="1.025" fill="rgba(70,70,70,1.000)" /><rect x="21" y="34" width="1.025" height="1.025" fill="rgba(69,69,69,1.000)" /><rect x="22" y="34" width="1.025" height="1.025" fill="rgba(58,58,58,1.000)" /><rect x="23" y="34" width="1.025" height="1.025" fill="rgba(35,35,35,1.000)" /><rect x="24" y="34" width="1.025" height="1.025" fill="rgba(21,21,21,0.973)" /><rect x="10" y="35" width="1.025" height="1.025" fill="rgba(0,0,0,1.000)" /><rect x="11" y="35" width="1.025" height="1.025" fill="rgba(4,4,4,1.000)" /><rect x="12" y="35" width="1.025" height="1.025" fill="rgba(42,42,42,1.000)" /><rect x="13" y="35" width="1.025" height="1.025" fill="rgba(37,37,37,1.000)" /><rect x="14" y="35" width="1.025" height="1.025" fill="rgba(49,49,49,1.000)" /><rect x="15" y="35" width="1.025" height="1.025" fill="rgba(66,66,66,1.000)" /><rect x="16" y="35" width="1.025" height="1.025" fill="rgba(66,66,66,1.000)" /><rect x="17" y="35" width="1.025" height="1.025" fill="rgba(61,61,61,1.000)" /><rect x="18" y="35" width="1.025" height="1.025" fill="rgba(61,61,61,1.000)" /><rect x="19" y="35" width="1.025" height="1.025" fill="rgba(19,19,19,1.000)" /><rect x="20" y="35" width="1.025" height="1.025" fill="rgba(52,52,52,1.000)" /><rect x="21" y="35" width="1.025" height="1.025" fill="rgba(66,66,66,1.000)" /><rect x="22" y="35" width="1.025" height="1.025" fill="rgba(65,65,65,1.000)" /><rect x="23" y="35" width="1.025" height="1.025" fill="rgba(41,41,41,1.000)" /><rect x="24" y="35" width="1.025" height="1.025" fill="rgba(21,21,21,1.000)" /><rect x="25" y="35" width="1.025" height="1.025" fill="rgba(0,0,0,1.000)" /><rect x="10" y="36" width="1.025" height="1.025" fill="rgba(0,0,0,1.000)" /><rect x="11" y="36" width="1.025" height="1.025" fill="rgba(6,6,6,1.000)" /><rect x="12" y="36" width="1.025" height="1.025" fill="rgba(21,21,21,1.000)" /><rect x="13" y="36" width="1.025" height="1.025" fill="rgba(35,35,35,1.000)" /><rect x="14" y="36" width="1.025" height="1.025" fill="rgba(36,36,36,1.000)" /><rect x="15" y="36" width="1.025" height="1.025" fill="rgba(42,42,42,1.000)" /><rect x="16" y="36" width="1.025" height="1.025" fill="rgba(42,42,42,1.000)" /><rect x="17" y="36" width="1.025" height="1.025" fill="rgba(44,44,44,1.000)" /><rect x="18" y="36" width="1.025" height="1.025" fill="rgba(44,44,44,1.000)" /><rect x="19" y="36" width="1.025" height="1.025" fill="rgba(37,37,37,1.000)" /><rect x="20" y="36" width="1.025" height="1.025" fill="rgba(17,17,17,1.000)" /><rect x="21" y="36" width="1.025" height="1.025" fill="rgba(43,43,43,1.000)" /><rect x="22" y="36" width="1.025" height="1.025" fill="rgba(51,51,51,1.000)" /><rect x="23" y="36" width="1.025" height="1.025" fill="rgba(51,51,51,1.000)" /><rect x="24" y="36" width="1.025" height="1.025" fill="rgba(42,42,42,1.000)" /><rect x="25" y="36" width="1.025" height="1.025" fill="rgba(11,11,11,1.000)" /><rect x="26" y="36" width="1.025" height="1.025" fill="rgba(0,0,0,1.000)" /></svg>