<svg shape-rendering="crispEdges" xmlns="http://www.w3.org/2000/svg" version="1.1" width="37" height="37"><style>rect { image-rendering: pixelated; }</style><rect x="11" y="28" width="1.025" height="1.025" fill="rgba(194,194,194,1.000)" /><rect x="12" y="28" width="1.025" height="1.025" fill="rgba(178,178,178,1.000)" /><rect x="19" y="28" width="1.025" height="1.025" fill="rgba(180,180,180,1.000)" /><rect x="20" y="28" width="1.025" height="1.025" fill="rgba(180,180,180,1.000)" /><rect x="21" y="28" width="1.025" height="1.025" fill="rgba(171,171,171,1.000)" /><rect x="10" y="29" width="1.025" height="1.025" fill="rgba(171,171,171,1.000)" /><rect x="11" y="29" width="1.025" height="1.025" fill="rgba(226,226,226,1.000)" /><rect x="12" y="29" width="1.025" height="1.025" fill="rgba(226,226,226,1.000)" /><rect x="13" y="29" width="1.025" height="1.025" fill="rgba(178,178,178,1.000)" /><rect x="20" y="29" width="1.025" height="1.025" fill="rgba(178,178,178,1.000)" /><rect x="21" y="29" width="1.025" height="1.025" fill="rgba(244,244,244,1.000)" /><rect x="22" y="29" width="1.025" height="1.025" fill="rgba(171,171,171,1.000)" /><rect x="11" y="30" width="1.025" height="1.025" fill="rgba(171,171,171,1.000)" /><rect x="12" y="30" width="1.025" height="1.025" fill="rgba(239,239,239,1.000)" /><rect x="13" y="30" width="1.025" height="1.025" fill="rgba(239,239,239,1.000)" /><rect x="14" y="30" width="1.025" height="1.025" fill="rgba(178,178,178,1.000)" /><rect x="20" y="30" width="1.025" height="1.025" fill="rgba(178,178,178,1.000)" /><rect x="21" y="30" width="1.025" height="1.025" fill="rgba(244,244,244,1.000)" /><rect x="22" y="30" width="1.025" height="1.025" fill="rgba(171,171,171,1.000)" /><rect x="11" y="31" width="1.025" height="1.025" fill="rgba(171,171,171,1.000)" /><rect x="12" y="31" width="1.025" height="1.025" fill="rgba(246,246,246,1.000)" /><rect x="13" y="31" width="1.025" height="1.025" fill="rgba(247,247,247,1.000)" /><rect x="14" y="31" width="1.025" height="1.025" fill="rgba(178,178,178,1.000)" /><rect x="20" y="31" width="1.025" height="1.025" fill="rgba(178,178,178,1.000)" /><rect x="21" y="31" width="1.025" height="1.025" fill="rgba(247,247,247,1.000)" /><rect x="22" y="31" width="1.025" height="1.025" fill="rgba(171,171,171,1.000)" /><rect x="11" y="32" width="1.025" height="1.025" fill="rgba(171,171,171,1.000)" /><rect x="12" y="32" width="1.025" height="1.025" fill="rgba(247,247,247,1.000)" /><rect x="13" y="32" width="1.025" height="1.025" fill="rgba(247,247,247,1.000)" /><rect x="14" y="32" width="1.025" height="1.025" fill="rgba(247,247,247,1.000)" /><rect x="15" y="32" width="1.025" height="1.025" fill="rgba(178,178,178,1.000)" /><rect x="19" y="32" width="1.025" height="1.025" fill="rgba(178,178,178,1.000)" /><rect x="20" y="32" width="1.025" height="1.025" fill="rgba(247,247,247,1.000)" /><rect x="21" y="32" width="1.025" height="1.025" fill="rgba(247,247,247,1.000)" /><rect x="22" y="32" width="1.025" height="1.025" fill="rgba(245,245,245,1.000)" /><rect x="23" y="32" width="1.025" height="1.025" fill="rgba(171,171,171,1.000)" /><rect x="11" y="33" width="1.025" height="1.025" fill="rgba(171,171,171,1.000)" /><rect x="12" y="33" width="1.025" height="1.025" fill="rgba(247,247,247,1.000)" /><rect x="13" y="33" width="1.025" height="1.025" fill="rgba(248,248,248,1.000)" /><rect x="14" y="33" width="1.025" height="1.025" fill="rgba(248,248,248,1.000)" /><rect x="15" y="33" width="1.025" height="1.025" fill="rgba(247,247,247,1.000)" /><rect x="16" y="33" width="1.025" height="1.025" fill="rgba(178,178,178,1.000)" /><rect x="17" y="33" width="1.025" height="1.025" fill="rgba(178,178,178,1.000)" /><rect x="18" y="33" width="1.025" height="1.025" fill="rgba(178,178,178,1.000)" /><rect x="19" y="33" width="1.025" height="1.025" fill="rgba(247,247,247,1.000)" /><rect x="20" y="33" width="1.025" height="1.025" fill="rgba(247,247,247,1.000)" /><rect x="21" y="33" width="1.025" height="1.025" fill="rgba(247,247,247,1.000)" /><rect x="22" y="33" width="1.025" height="1.025" fill="rgba(247,247,247,1.000)" /><rect x="23" y="33" width="1.025" height="1.025" fill="rgba(171,171,171,1.000)" /><rect x="11" y="34" width="1.025" height="1.025" fill="rgba(208,208,208,1.000)" /><rect x="12" y="34" width="1.025" height="1.025" fill="rgba(244,244,244,1.000)" /><rect x="13" y="34" width="1.025" height="1.025" fill="rgba(239,239,239,1.000)" /><rect x="14" y="34" width="1.025" height="1.025" fill="rgba(244,244,244,1.000)" /><rect x="15" y="34" width="1.025" height="1.025" fill="rgba(248,248,248,1.000)" /><rect x="16" y="34" width="1.025" height="1.025" fill="rgba(247,247,247,1.000)" /><rect x="17" y="34" width="1.025" height="1.025" fill="rgba(247,247,247,1.000)" /><rect x="18" y="34" width="1.025" height="1.025" fill="rgba(237,237,237,1.000)" /><rect x="19" y="34" width="1.025" height="1.025" fill="rgba(244,244,244,1.000)" /><rect x="20" y="34" width="1.025" height="1.025" fill="rgba(248,248,248,1.000)" /><rect x="21" y="34" width="1.025" height="1.025" fill="rgba(247,247,247,1.000)" /><rect x="22" y="34" width="1.025" height="1.025" fill="rgba(239,239,239,1.000)" /><rect x="23" y="34" width="1.025" height="1.025" fill="rgba(218,218,218,1.000)" /><rect x="24" y="34" width="1.025" height="1.025" fill="rgba(85,85,85,0.871)" /><rect x="10" y="35" width="1.025" height="1.025" fill="rgba(85,85,85,1.000)" /><rect x="11" y="35" width="1.025" height="1.025" fill="rgba(160,160,160,1.000)" /><rect x="12" y="35" width="1.025" height="1.025" fill="rgba(225,225,225,1.000)" /><rect x="13" y="35" width="1.025" height="1.025" fill="rgba(220,220,220,1.000)" /><rect x="14" y="35" width="1.025" height="1.025" fill="rgba(232,232,232,1.000)" /><rect x="15" y="35" width="1.025" height="1.025" fill="rgba(245,245,245,1.000)" /><rect x="16" y="35" width="1.025" height="1.025" fill="rgba(245,245,245,1.000)" /><rect x="17" y="35" width="1.025" height="1.025" fill="rgba(242,242,242,1.000)" /><rect x="18" y="35" width="1.025" height="1.025" fill="rgba(242,242,242,1.000)" /><rect x="19" y="35" width="1.025" height="1.025" fill="rgba(196,196,196,1.000)" /><rect x="20" y="35" width="1.025" height="1.025" fill="rgba(234,234,234,1.000)" /><rect x="21" y="35" width="1.025" height="1.025" fill="rgba(245,245,245,1.000)" /><rect x="22" y="35" width="1.025" height="1.025" fill="rgba(244,244,244,1.000)" /><rect x="23" y="35" width="1.025" height="1.025" fill="rgba(224,224,224,1.000)" /><rect x="24" y="35" width="1.025" height="1.025" fill="rgba(200,200,200,1.000)" /><rect x="25" y="35" width="1.025" height="1.025" fill="rgba(85,85,85,1.000)" /><rect x="10" y="36" width="1.025" height="1.025" fill="rgba(85,85,85,1.000)" /><rect x="11" y="36" width="1.025" height="1.025" fill="rgba(165,165,165,1.000)" /><rect x="12" y="36" width="1.025" height="1.025" fill="rgba(200,200,200,1.000)" /><rect x="13" y="36" width="1.025" height="1.025" fill="rgba(218,218,218,1.000)" /><rect x="14" y="36" width="1.025" height="1.025" fill="rgba(219,219,219,1.000)" /><rect x="15" y="36" width="1.025" height="1.025" fill="rgba(225,225,225,1.000)" /><rect x="16" y="36" width="1.025" height="1.025" fill="rgba(225,225,225,1.000)" /><rect x="17" y="36" width="1.025" height="1.025" fill="rgba(226,226,226,1.000)" /><rect x="18" y="36" width="1.025" height="1.025" fill="rgba(226,226,226,1.000)" /><rect x="19" y="36" width="1.025" height="1.025" fill="rgba(220,220,220,1.000)" /><rect x="20" y="36" width="1.025" height="1.025" fill="rgba(193,193,193,1.000)" /><rect x="21" y="36" width="1.025" height="1.025" fill="rgba(226,226,226,1.000)" /><rect x="22" y="36" width="1.025" height="1.025" fill="rgba(234,234,234,1.000)" /><rect x="23" y="36" width="1.025" height="1.025" fill="rgba(233,233,233,1.000)" /><rect x="24" y="36" width="1.025" height="1.025" fill="rgba(225,225,225,1.000)" /><rect x="25" y="36" width="1.025" height="1.025" fill="rgba(181,181,181,1.000)" /><rect x="26" y="36" width="1.025" height="1.025" fill="rgba(85,85,85,1.000)" /></svg>