<svg shape-rendering="crispEdges" xmlns="http://www.w3.org/2000/svg" version="1.1" width="37" height="37"><style>rect { image-rendering: pixelated; }</style><rect x="22" y="32" width="1.025" height="1.025" fill="rgba(245,166,0,1.000)" /><rect x="28" y="32" width="1.025" height="1.025" fill="rgba(245,166,0,1.000)" /><rect x="21" y="33" width="1.025" height="1.025" fill="rgba(244,158,0,1.000)" /><rect x="22" y="33" width="1.025" height="1.025" fill="rgba(250,201,0,1.000)" /><rect x="23" y="33" width="1.025" height="1.025" fill="rgba(255,237,0,1.000)" /><rect x="27" y="33" width="1.025" height="1.025" fill="rgba(245,166,0,1.000)" /><rect x="28" y="33" width="1.025" height="1.025" fill="rgba(250,201,0,1.000)" /><rect x="29" y="33" width="1.025" height="1.025" fill="rgba(255,237,0,1.000)" /><rect x="21" y="34" width="1.025" height="1.025" fill="rgba(250,201,0,1.000)" /><rect x="22" y="34" width="1.025" height="1.025" fill="rgba(255,237,0,1.000)" /><rect x="27" y="34" width="1.025" height="1.025" fill="rgba(250,201,0,1.000)" /><rect x="28" y="34" width="1.025" height="1.025" fill="rgba(255,237,0,1.000)" /><rect x="18" y="35" width="1.025" height="1.025" fill="rgba(230,1,82,1.000)" /><rect x="19" y="35" width="1.025" height="1.025" fill="rgba(237,11,96,1.000)" /><rect x="20" y="35" width="1.025" height="1.025" fill="rgba(255,237,0,1.000)" /><rect x="24" y="35" width="1.025" height="1.025" fill="rgba(229,0,81,1.000)" /><rect x="25" y="35" width="1.025" height="1.025" fill="rgba(237,11,96,1.000)" /><rect x="26" y="35" width="1.025" height="1.025" fill="rgba(255,237,0,1.000)" /><rect x="17" y="36" width="1.025" height="1.025" fill="rgba(229,0,81,1.000)" /><rect x="18" y="36" width="1.025" height="1.025" fill="rgba(245,22,111,1.000)" /><rect x="19" y="36" width="1.025" height="1.025" fill="rgba(255,237,0,1.000)" /><rect x="20" y="36" width="1.025" height="1.025" fill="rgba(245,22,111,1.000)" /><rect x="23" y="36" width="1.025" height="1.025" fill="rgba(231,2,84,1.000)" /><rect x="24" y="36" width="1.025" height="1.025" fill="rgba(245,22,111,1.000)" /><rect x="25" y="36" width="1.025" height="1.025" fill="rgba(255,237,0,1.000)" /><rect x="26" y="36" width="1.025" height="1.025" fill="rgba(245,22,111,1.000)" /></svg>