<svg shape-rendering="crispEdges" xmlns="http://www.w3.org/2000/svg" version="1.1" width="37" height="37"><style>rect { image-rendering: pixelated; }</style><rect x="15" y="32" width="1.025" height="1.025" fill="rgba(245,23,0,1.000)" /><rect x="21" y="32" width="1.025" height="1.025" fill="rgba(245,23,0,1.000)" /><rect x="14" y="33" width="1.025" height="1.025" fill="rgba(255,88,0,1.000)" /><rect x="15" y="33" width="1.025" height="1.025" fill="rgba(250,55,0,1.000)" /><rect x="16" y="33" width="1.025" height="1.025" fill="rgba(244,15,0,1.000)" /><rect x="20" y="33" width="1.025" height="1.025" fill="rgba(255,88,0,1.000)" /><rect x="21" y="33" width="1.025" height="1.025" fill="rgba(250,55,0,1.000)" /><rect x="22" y="33" width="1.025" height="1.025" fill="rgba(245,23,0,1.000)" /><rect x="15" y="34" width="1.025" height="1.025" fill="rgba(255,88,0,1.000)" /><rect x="16" y="34" width="1.025" height="1.025" fill="rgba(250,55,0,1.000)" /><rect x="21" y="34" width="1.025" height="1.025" fill="rgba(255,88,0,1.000)" /><rect x="22" y="34" width="1.025" height="1.025" fill="rgba(250,55,0,1.000)" /><rect x="17" y="35" width="1.025" height="1.025" fill="rgba(255,88,0,1.000)" /><rect x="18" y="35" width="1.025" height="1.025" fill="rgba(58,58,58,1.000)" /><rect x="19" y="35" width="1.025" height="1.025" fill="rgba(44,44,44,1.000)" /><rect x="23" y="35" width="1.025" height="1.025" fill="rgba(255,88,0,1.000)" /><rect x="24" y="35" width="1.025" height="1.025" fill="rgba(58,58,58,1.000)" /><rect x="25" y="35" width="1.025" height="1.025" fill="rgba(40,40,40,1.000)" /><rect x="17" y="36" width="1.025" height="1.025" fill="rgba(71,71,71,1.000)" /><rect x="18" y="36" width="1.025" height="1.025" fill="rgba(255,88,0,1.000)" /><rect x="19" y="36" width="1.025" height="1.025" fill="rgba(71,71,71,1.000)" /><rect x="20" y="36" width="1.025" height="1.025" fill="rgba(40,40,40,1.000)" /><rect x="23" y="36" width="1.025" height="1.025" fill="rgba(71,71,71,1.000)" /><rect x="24" y="36" width="1.025" height="1.025" fill="rgba(255,88,0,1.000)" /><rect x="25" y="36" width="1.025" height="1.025" fill="rgba(71,71,71,1.000)" /><rect x="26" y="36" width="1.025" height="1.025" fill="rgba(45,45,45,1.000)" /></svg>