<svg shape-rendering="crispEdges" xmlns="http://www.w3.org/2000/svg" version="1.1" width="37" height="37"><style>rect { image-rendering: pixelated; }</style><rect x="20" y="32" width="1.025" height="1.025" fill="rgba(248,245,243,0.988)" /><rect x="22" y="32" width="1.025" height="1.025" fill="rgba(249,245,243,0.988)" /><rect x="12" y="33" width="1.025" height="1.025" fill="rgba(249,245,243,1.000)" /><rect x="15" y="33" width="1.025" height="1.025" fill="rgba(249,245,243,1.000)" /><rect x="17" y="33" width="1.025" height="1.025" fill="rgba(255,255,255,0.043)" /><rect x="18" y="33" width="1.025" height="1.025" fill="rgba(254,252,252,0.973)" /><rect x="19" y="33" width="1.025" height="1.025" fill="rgba(246,246,246,0.973)" /><rect x="20" y="33" width="1.025" height="1.025" fill="rgba(239,234,233,0.992)" /><rect x="21" y="33" width="1.025" height="1.025" fill="rgba(239,237,237,0.965)" /><rect x="22" y="33" width="1.025" height="1.025" fill="rgba(240,239,239,0.965)" /><rect x="23" y="33" width="1.025" height="1.025" fill="rgba(243,245,243,0.933)" /><rect x="10" y="34" width="1.025" height="1.025" fill="rgba(166,166,166,1.000)" /><rect x="11" y="34" width="1.025" height="1.025" fill="rgba(249,237,227,1.000)" /><rect x="12" y="34" width="1.025" height="1.025" fill="rgba(254,242,231,1.000)" /><rect x="13" y="34" width="1.025" height="1.025" fill="rgba(158,158,158,1.000)" /><rect x="14" y="34" width="1.025" height="1.025" fill="rgba(255,255,255,0.980)" /><rect x="15" y="34" width="1.025" height="1.025" fill="rgba(255,254,255,0.984)" /><rect x="16" y="34" width="1.025" height="1.025" fill="rgba(254,254,254,0.984)" /><rect x="17" y="34" width="1.025" height="1.025" fill="rgba(246,248,246,0.996)" /><rect x="18" y="34" width="1.025" height="1.025" fill="rgba(237,237,236,1.000)" /><rect x="19" y="34" width="1.025" height="1.025" fill="rgba(209,209,210,1.000)" /><rect x="20" y="34" width="1.025" height="1.025" fill="rgba(207,206,206,1.000)" /><rect x="21" y="34" width="1.025" height="1.025" fill="rgba(209,207,209,1.000)" /><rect x="22" y="34" width="1.025" height="1.025" fill="rgba(207,207,209,1.000)" /><rect x="23" y="34" width="1.025" height="1.025" fill="rgba(226,226,224,0.996)" /><rect x="24" y="34" width="1.025" height="1.025" fill="rgba(226,226,223,1.000)" /><rect x="25" y="34" width="1.025" height="1.025" fill="rgba(209,209,210,1.000)" /><rect x="10" y="35" width="1.025" height="1.025" fill="rgba(55,55,55,1.000)" /><rect x="11" y="35" width="1.025" height="1.025" fill="rgba(239,239,239,1.000)" /><rect x="12" y="35" width="1.025" height="1.025" fill="rgba(251,249,249,1.000)" /><rect x="13" y="35" width="1.025" height="1.025" fill="rgba(248,246,246,0.996)" /><rect x="14" y="35" width="1.025" height="1.025" fill="rgba(248,246,248,1.000)" /><rect x="15" y="35" width="1.025" height="1.025" fill="rgba(248,249,248,1.000)" /><rect x="16" y="35" width="1.025" height="1.025" fill="rgba(242,240,240,1.000)" /><rect x="17" y="35" width="1.025" height="1.025" fill="rgba(191,189,191,1.000)" /><rect x="18" y="35" width="1.025" height="1.025" fill="rgba(199,199,199,1.000)" /><rect x="19" y="35" width="1.025" height="1.025" fill="rgba(209,207,207,1.000)" /><rect x="20" y="35" width="1.025" height="1.025" fill="rgba(219,217,217,1.000)" /><rect x="21" y="35" width="1.025" height="1.025" fill="rgba(223,221,221,1.000)" /><rect x="22" y="35" width="1.025" height="1.025" fill="rgba(179,176,177,1.000)" /><rect x="23" y="35" width="1.025" height="1.025" fill="rgba(179,176,177,1.000)" /><rect x="24" y="35" width="1.025" height="1.025" fill="rgba(191,189,191,1.000)" /><rect x="25" y="35" width="1.025" height="1.025" fill="rgba(207,209,209,0.980)" /><rect x="10" y="36" width="1.025" height="1.025" fill="rgba(14,14,14,1.000)" /><rect x="11" y="36" width="1.025" height="1.025" fill="rgba(195,196,196,1.000)" /><rect x="12" y="36" width="1.025" height="1.025" fill="rgba(219,219,220,1.000)" /><rect x="13" y="36" width="1.025" height="1.025" fill="rgba(206,207,207,1.000)" /><rect x="14" y="36" width="1.025" height="1.025" fill="rgba(176,175,176,1.000)" /><rect x="15" y="36" width="1.025" height="1.025" fill="rgba(176,177,177,1.000)" /><rect x="16" y="36" width="1.025" height="1.025" fill="rgba(179,176,177,1.000)" /><rect x="17" y="36" width="1.025" height="1.025" fill="rgba(183,181,183,1.000)" /><rect x="18" y="36" width="1.025" height="1.025" fill="rgba(224,224,223,1.000)" /><rect x="19" y="36" width="1.025" height="1.025" fill="rgba(236,233,233,1.000)" /><rect x="20" y="36" width="1.025" height="1.025" fill="rgba(239,237,239,1.000)" /><rect x="21" y="36" width="1.025" height="1.025" fill="rgba(245,245,242,1.000)" /><rect x="22" y="36" width="1.025" height="1.025" fill="rgba(248,246,246,1.000)" /><rect x="23" y="36" width="1.025" height="1.025" fill="rgba(249,248,248,1.000)" /><rect x="24" y="36" width="1.025" height="1.025" fill="rgba(236,236,236,1.000)" /><rect x="25" y="36" width="1.025" height="1.025" fill="rgba(189,189,191,0.996)" /><rect x="26" y="36" width="1.025" height="1.025" fill="rgba(176,176,177,0.961)" /></svg>