<svg shape-rendering="crispEdges" xmlns="http://www.w3.org/2000/svg" version="1.1" width="37" height="37"><style>rect { image-rendering: pixelated; }</style><rect x="11" y="28" width="1.025" height="1.025" fill="rgba(124,124,124,1.000)" /><rect x="12" y="28" width="1.025" height="1.025" fill="rgba(110,110,110,1.000)" /><rect x="13" y="28" width="1.025" height="1.025" fill="rgba(98,98,98,1.000)" /><rect x="19" y="28" width="1.025" height="1.025" fill="rgba(89,89,89,1.000)" /><rect x="20" y="28" width="1.025" height="1.025" fill="rgba(106,106,106,1.000)" /><rect x="21" y="28" width="1.025" height="1.025" fill="rgba(129,129,129,1.000)" /><rect x="9" y="29" width="1.025" height="1.025" fill="rgba(111,111,111,1.000)" /><rect x="10" y="29" width="1.025" height="1.025" fill="rgba(90,90,90,1.000)" /><rect x="11" y="29" width="1.025" height="1.025" fill="rgba(194,194,194,1.000)" /><rect x="12" y="29" width="1.025" height="1.025" fill="rgba(190,190,190,1.000)" /><rect x="13" y="29" width="1.025" height="1.025" fill="rgba(197,197,197,1.000)" /><rect x="14" y="29" width="1.025" height="1.025" fill="rgba(105,105,105,1.000)" /><rect x="19" y="29" width="1.025" height="1.025" fill="rgba(98,98,98,1.000)" /><rect x="20" y="29" width="1.025" height="1.025" fill="rgba(190,190,190,1.000)" /><rect x="21" y="29" width="1.025" height="1.025" fill="rgba(190,190,190,1.000)" /><rect x="22" y="29" width="1.025" height="1.025" fill="rgba(88,88,88,1.000)" /><rect x="23" y="29" width="1.025" height="1.025" fill="rgba(98,98,98,1.000)" /><rect x="7" y="30" width="1.025" height="1.025" fill="rgba(119,119,119,1.000)" /><rect x="8" y="30" width="1.025" height="1.025" fill="rgba(106,106,106,1.000)" /><rect x="9" y="30" width="1.025" height="1.025" fill="rgba(230,230,230,1.000)" /><rect x="10" y="30" width="1.025" height="1.025" fill="rgba(231,231,231,1.000)" /><rect x="11" y="30" width="1.025" height="1.025" fill="rgba(219,219,219,1.000)" /><rect x="12" y="30" width="1.025" height="1.025" fill="rgba(223,223,223,1.000)" /><rect x="13" y="30" width="1.025" height="1.025" fill="rgba(225,225,225,1.000)" /><rect x="14" y="30" width="1.025" height="1.025" fill="rgba(230,230,230,1.000)" /><rect x="15" y="30" width="1.025" height="1.025" fill="rgba(89,89,89,1.000)" /><rect x="19" y="30" width="1.025" height="1.025" fill="rgba(110,110,110,1.000)" /><rect x="20" y="30" width="1.025" height="1.025" fill="rgba(242,242,242,1.000)" /><rect x="21" y="30" width="1.025" height="1.025" fill="rgba(239,239,239,1.000)" /><rect x="22" y="30" width="1.025" height="1.025" fill="rgba(223,223,223,1.000)" /><rect x="23" y="30" width="1.025" height="1.025" fill="rgba(209,209,209,1.000)" /><rect x="24" y="30" width="1.025" height="1.025" fill="rgba(92,92,92,1.000)" /><rect x="25" y="30" width="1.025" height="1.025" fill="rgba(98,98,98,1.000)" /><rect x="6" y="31" width="1.025" height="1.025" fill="rgba(125,125,125,1.000)" /><rect x="7" y="31" width="1.025" height="1.025" fill="rgba(159,159,159,1.000)" /><rect x="8" y="31" width="1.025" height="1.025" fill="rgba(239,239,239,1.000)" /><rect x="9" y="31" width="1.025" height="1.025" fill="rgba(253,253,253,1.000)" /><rect x="10" y="31" width="1.025" height="1.025" fill="rgba(246,246,246,1.000)" /><rect x="11" y="31" width="1.025" height="1.025" fill="rgba(236,236,236,1.000)" /><rect x="12" y="31" width="1.025" height="1.025" fill="rgba(246,246,246,1.000)" /><rect x="13" y="31" width="1.025" height="1.025" fill="rgba(248,248,248,1.000)" /><rect x="14" y="31" width="1.025" height="1.025" fill="rgba(246,246,246,1.000)" /><rect x="15" y="31" width="1.025" height="1.025" fill="rgba(248,248,248,1.000)" /><rect x="16" y="31" width="1.025" height="1.025" fill="rgba(105,105,105,1.000)" /><rect x="18" y="31" width="1.025" height="1.025" fill="rgba(89,89,89,1.000)" /><rect x="19" y="31" width="1.025" height="1.025" fill="rgba(251,251,251,1.000)" /><rect x="20" y="31" width="1.025" height="1.025" fill="rgba(251,251,251,1.000)" /><rect x="21" y="31" width="1.025" height="1.025" fill="rgba(248,248,248,1.000)" /><rect x="22" y="31" width="1.025" height="1.025" fill="rgba(239,239,239,1.000)" /><rect x="23" y="31" width="1.025" height="1.025" fill="rgba(231,231,231,1.000)" /><rect x="24" y="31" width="1.025" height="1.025" fill="rgba(251,251,251,1.000)" /><rect x="25" y="31" width="1.025" height="1.025" fill="rgba(227,227,227,1.000)" /><rect x="26" y="31" width="1.025" height="1.025" fill="rgba(93,93,93,1.000)" /><rect x="5" y="32" width="1.025" height="1.025" fill="rgba(106,106,106,1.000)" /><rect x="6" y="32" width="1.025" height="1.025" fill="rgba(218,218,218,1.000)" /><rect x="7" y="32" width="1.025" height="1.025" fill="rgba(209,209,209,1.000)" /><rect x="8" y="32" width="1.025" height="1.025" fill="rgba(237,237,237,1.000)" /><rect x="9" y="32" width="1.025" height="1.025" fill="rgba(253,253,253,1.000)" /><rect x="10" y="32" width="1.025" height="1.025" fill="rgba(248,248,248,1.000)" /><rect x="11" y="32" width="1.025" height="1.025" fill="rgba(236,236,236,1.000)" /><rect x="12" y="32" width="1.025" height="1.025" fill="rgba(248,248,248,1.000)" /><rect x="13" y="32" width="1.025" height="1.025" fill="rgba(251,251,251,1.000)" /><rect x="14" y="32" width="1.025" height="1.025" fill="rgba(251,251,251,1.000)" /><rect x="15" y="32" width="1.025" height="1.025" fill="rgba(251,251,251,1.000)" /><rect x="16" y="32" width="1.025" height="1.025" fill="rgba(246,246,246,1.000)" /><rect x="17" y="32" width="1.025" height="1.025" fill="rgba(105,105,105,1.000)" /><rect x="18" y="32" width="1.025" height="1.025" fill="rgba(244,244,244,1.000)" /><rect x="19" y="32" width="1.025" height="1.025" fill="rgba(248,248,248,1.000)" /><rect x="20" y="32" width="1.025" height="1.025" fill="rgba(251,251,251,1.000)" /><rect x="21" y="32" width="1.025" height="1.025" fill="rgba(251,251,251,1.000)" /><rect x="22" y="32" width="1.025" height="1.025" fill="rgba(244,244,244,1.000)" /><rect x="23" y="32" width="1.025" height="1.025" fill="rgba(238,238,238,1.000)" /><rect x="24" y="32" width="1.025" height="1.025" fill="rgba(231,231,231,1.000)" /><rect x="25" y="32" width="1.025" height="1.025" fill="rgba(253,253,253,1.000)" /><rect x="26" y="32" width="1.025" height="1.025" fill="rgba(222,222,222,1.000)" /><rect x="27" y="32" width="1.025" height="1.025" fill="rgba(98,98,98,1.000)" /><rect x="5" y="33" width="1.025" height="1.025" fill="rgba(119,119,119,1.000)" /><rect x="6" y="33" width="1.025" height="1.025" fill="rgba(219,219,219,1.000)" /><rect x="7" y="33" width="1.025" height="1.025" fill="rgba(199,199,199,1.000)" /><rect x="8" y="33" width="1.025" height="1.025" fill="rgba(242,242,242,1.000)" /><rect x="9" y="33" width="1.025" height="1.025" fill="rgba(216,216,216,1.000)" /><rect x="10" y="33" width="1.025" height="1.025" fill="rgba(143,143,143,1.000)" /><rect x="11" y="33" width="1.025" height="1.025" fill="rgba(211,211,211,1.000)" /><rect x="12" y="33" width="1.025" height="1.025" fill="rgba(248,248,248,1.000)" /><rect x="13" y="33" width="1.025" height="1.025" fill="rgba(255,255,255,1.000)" /><rect x="14" y="33" width="1.025" height="1.025" fill="rgba(253,253,253,1.000)" /><rect x="15" y="33" width="1.025" height="1.025" fill="rgba(251,251,251,1.000)" /><rect x="16" y="33" width="1.025" height="1.025" fill="rgba(251,251,251,1.000)" /><rect x="17" y="33" width="1.025" height="1.025" fill="rgba(255,255,255,1.000)" /><rect x="18" y="33" width="1.025" height="1.025" fill="rgba(242,242,242,1.000)" /><rect x="19" y="33" width="1.025" height="1.025" fill="rgba(248,248,248,1.000)" /><rect x="20" y="33" width="1.025" height="1.025" fill="rgba(251,251,251,1.000)" /><rect x="21" y="33" width="1.025" height="1.025" fill="rgba(251,251,251,1.000)" /><rect x="22" y="33" width="1.025" height="1.025" fill="rgba(251,251,251,1.000)" /><rect x="23" y="33" width="1.025" height="1.025" fill="rgba(216,216,216,1.000)" /><rect x="24" y="33" width="1.025" height="1.025" fill="rgba(134,134,134,1.000)" /><rect x="25" y="33" width="1.025" height="1.025" fill="rgba(223,223,223,1.000)" /><rect x="26" y="33" width="1.025" height="1.025" fill="rgba(222,222,222,1.000)" /><rect x="27" y="33" width="1.025" height="1.025" fill="rgba(89,89,89,1.000)" /><rect x="5" y="34" width="1.025" height="1.025" fill="rgba(128,128,128,1.000)" /><rect x="6" y="34" width="1.025" height="1.025" fill="rgba(209,209,209,1.000)" /><rect x="7" y="34" width="1.025" height="1.025" fill="rgba(199,199,199,1.000)" /><rect x="8" y="34" width="1.025" height="1.025" fill="rgba(238,238,238,1.000)" /><rect x="9" y="34" width="1.025" height="1.025" fill="rgba(158,158,158,1.000)" /><rect x="10" y="34" width="1.025" height="1.025" fill="rgba(79,79,79,1.000)" /><rect x="11" y="34" width="1.025" height="1.025" fill="rgba(149,149,149,1.000)" /><rect x="12" y="34" width="1.025" height="1.025" fill="rgba(239,239,239,1.000)" /><rect x="13" y="34" width="1.025" height="1.025" fill="rgba(225,225,225,1.000)" /><rect x="14" y="34" width="1.025" height="1.025" fill="rgba(242,242,242,1.000)" /><rect x="15" y="34" width="1.025" height="1.025" fill="rgba(255,255,255,1.000)" /><rect x="16" y="34" width="1.025" height="1.025" fill="rgba(251,251,251,1.000)" /><rect x="17" y="34" width="1.025" height="1.025" fill="rgba(251,251,251,1.000)" /><rect x="18" y="34" width="1.025" height="1.025" fill="rgba(219,219,219,1.000)" /><rect x="19" y="34" width="1.025" height="1.025" fill="rgba(239,239,239,1.000)" /><rect x="20" y="34" width="1.025" height="1.025" fill="rgba(253,253,253,1.000)" /><rect x="21" y="34" width="1.025" height="1.025" fill="rgba(251,251,251,1.000)" /><rect x="22" y="34" width="1.025" height="1.025" fill="rgba(225,225,225,1.000)" /><rect x="23" y="34" width="1.025" height="1.025" fill="rgba(168,168,168,1.000)" /><rect x="24" y="34" width="1.025" height="1.025" fill="rgba(0,0,0,1.000)" /><rect x="25" y="34" width="1.025" height="1.025" fill="rgba(213,213,213,1.000)" /><rect x="26" y="34" width="1.025" height="1.025" fill="rgba(200,200,200,1.000)" /><rect x="27" y="34" width="1.025" height="1.025" fill="rgba(77,77,77,1.000)" /><rect x="5" y="35" width="1.025" height="1.025" fill="rgba(86,86,86,1.000)" /><rect x="6" y="35" width="1.025" height="1.025" fill="rgba(90,90,90,1.000)" /><rect x="7" y="35" width="1.025" height="1.025" fill="rgba(98,98,98,1.000)" /><rect x="8" y="35" width="1.025" height="1.025" fill="rgba(79,79,79,1.000)" /><rect x="9" y="35" width="1.025" height="1.025" fill="rgba(119,119,119,1.000)" /><rect x="10" y="35" width="1.025" height="1.025" fill="rgba(0,0,0,1.000)" /><rect x="11" y="35" width="1.025" height="1.025" fill="rgba(90,90,90,1.000)" /><rect x="12" y="35" width="1.025" height="1.025" fill="rgba(186,186,186,1.000)" /><rect x="13" y="35" width="1.025" height="1.025" fill="rgba(173,173,173,1.000)" /><rect x="14" y="35" width="1.025" height="1.025" fill="rgba(203,203,203,1.000)" /><rect x="15" y="35" width="1.025" height="1.025" fill="rgba(203,203,203,1.000)" /><rect x="16" y="35" width="1.025" height="1.025" fill="rgba(244,244,244,1.000)" /><rect x="17" y="35" width="1.025" height="1.025" fill="rgba(233,233,233,1.000)" /><rect x="18" y="35" width="1.025" height="1.025" fill="rgba(233,233,233,1.000)" /><rect x="19" y="35" width="1.025" height="1.025" fill="rgba(177,177,177,1.000)" /><rect x="20" y="35" width="1.025" height="1.025" fill="rgba(211,211,211,1.000)" /><rect x="21" y="35" width="1.025" height="1.025" fill="rgba(244,244,244,1.000)" /><rect x="22" y="35" width="1.025" height="1.025" fill="rgba(242,242,242,1.000)" /><rect x="23" y="35" width="1.025" height="1.025" fill="rgba(184,184,184,1.000)" /><rect x="24" y="35" width="1.025" height="1.025" fill="rgba(134,134,134,1.000)" /><rect x="25" y="35" width="1.025" height="1.025" fill="rgba(39,39,39,1.000)" /><rect x="26" y="35" width="1.025" height="1.025" fill="rgba(62,62,62,1.000)" /><rect x="27" y="35" width="1.025" height="1.025" fill="rgba(62,62,62,1.000)" /><rect x="10" y="36" width="1.025" height="1.025" fill="rgba(0,0,0,1.000)" /><rect x="11" y="36" width="1.025" height="1.025" fill="rgba(93,93,93,1.000)" /><rect x="12" y="36" width="1.025" height="1.025" fill="rgba(134,134,134,1.000)" /><rect x="13" y="36" width="1.025" height="1.025" fill="rgba(169,169,169,1.000)" /><rect x="14" y="36" width="1.025" height="1.025" fill="rgba(172,172,172,1.000)" /><rect x="15" y="36" width="1.025" height="1.025" fill="rgba(172,172,172,1.000)" /><rect x="16" y="36" width="1.025" height="1.025" fill="rgba(172,172,172,1.000)" /><rect x="17" y="36" width="1.025" height="1.025" fill="rgba(186,186,186,1.000)" /><rect x="18" y="36" width="1.025" height="1.025" fill="rgba(190,190,190,1.000)" /><rect x="19" y="36" width="1.025" height="1.025" fill="rgba(186,186,186,1.000)" /><rect x="20" y="36" width="1.025" height="1.025" fill="rgba(163,163,163,1.000)" /><rect x="21" y="36" width="1.025" height="1.025" fill="rgba(188,188,188,1.000)" /><rect x="22" y="36" width="1.025" height="1.025" fill="rgba(209,209,209,1.000)" /><rect x="23" y="36" width="1.025" height="1.025" fill="rgba(207,207,207,1.000)" /><rect x="24" y="36" width="1.025" height="1.025" fill="rgba(186,186,186,1.000)" /><rect x="25" y="36" width="1.025" height="1.025" fill="rgba(108,108,108,1.000)" /><rect x="26" y="36" width="1.025" height="1.025" fill="rgba(0,0,0,1.000)" /></svg>