<svg shape-rendering="crispEdges" xmlns="http://www.w3.org/2000/svg" version="1.1" width="37" height="37"><style>rect { image-rendering: pixelated; }</style><rect x="11" y="28" width="1.025" height="1.025" fill="rgba(54,166,185,0.996)" /><rect x="12" y="28" width="1.025" height="1.025" fill="rgba(80,122,131,0.996)" /><rect x="13" y="28" width="1.025" height="1.025" fill="rgba(225,237,239,1.000)" /><rect x="19" y="28" width="1.025" height="1.025" fill="rgba(230,239,241,1.000)" /><rect x="20" y="28" width="1.025" height="1.025" fill="rgba(77,117,125,0.996)" /><rect x="21" y="28" width="1.025" height="1.025" fill="rgba(95,142,153,0.996)" /><rect x="9" y="29" width="1.025" height="1.025" fill="rgba(92,133,141,0.996)" /><rect x="10" y="29" width="1.025" height="1.025" fill="rgba(76,108,115,0.996)" /><rect x="11" y="29" width="1.025" height="1.025" fill="rgba(181,202,204,0.996)" /><rect x="12" y="29" width="1.025" height="1.025" fill="rgba(184,192,188,0.855)" /><rect x="13" y="29" width="1.025" height="1.025" fill="rgba(230,231,229,0.984)" /><rect x="14" y="29" width="1.025" height="1.025" fill="rgba(247,249,248,1.000)" /><rect x="15" y="29" width="1.025" height="1.025" fill="rgba(251,245,240,0.984)" /><rect x="16" y="29" width="1.025" height="1.025" fill="rgba(249,236,228,0.941)" /><rect x="17" y="29" width="1.025" height="1.025" fill="rgba(250,238,228,0.941)" /><rect x="18" y="29" width="1.025" height="1.025" fill="rgba(252,244,236,0.973)" /><rect x="19" y="29" width="1.025" height="1.025" fill="rgba(148,169,172,0.996)" /><rect x="20" y="29" width="1.025" height="1.025" fill="rgba(188,194,189,0.804)" /><rect x="21" y="29" width="1.025" height="1.025" fill="rgba(187,195,190,0.820)" /><rect x="22" y="29" width="1.025" height="1.025" fill="rgba(58,84,88,0.843)" /><rect x="23" y="29" width="1.025" height="1.025" fill="rgba(72,109,116,0.996)" /><rect x="8" y="30" width="1.025" height="1.025" fill="rgba(96,141,150,0.996)" /><rect x="9" y="30" width="1.025" height="1.025" fill="rgba(236,232,227,0.922)" /><rect x="10" y="30" width="1.025" height="1.025" fill="rgba(230,226,219,0.867)" /><rect x="11" y="30" width="1.025" height="1.025" fill="rgba(217,216,209,0.835)" /><rect x="12" y="30" width="1.025" height="1.025" fill="rgba(222,218,211,0.804)" /><rect x="13" y="30" width="1.025" height="1.025" fill="rgba(223,220,211,0.769)" /><rect x="14" y="30" width="1.025" height="1.025" fill="rgba(229,224,214,0.737)" /><rect x="15" y="30" width="1.025" height="1.025" fill="rgba(209,231,229,0.973)" /><rect x="16" y="30" width="1.025" height="1.025" fill="rgba(251,230,210,0.663)" /><rect x="17" y="30" width="1.025" height="1.025" fill="rgba(247,229,215,0.835)" /><rect x="18" y="30" width="1.025" height="1.025" fill="rgba(247,224,203,0.592)" /><rect x="19" y="30" width="1.025" height="1.025" fill="rgba(185,226,229,0.980)" /><rect x="20" y="30" width="1.025" height="1.025" fill="rgba(242,232,222,0.729)" /><rect x="21" y="30" width="1.025" height="1.025" fill="rgba(237,229,220,0.765)" /><rect x="22" y="30" width="1.025" height="1.025" fill="rgba(220,216,209,0.792)" /><rect x="23" y="30" width="1.025" height="1.025" fill="rgba(205,208,201,0.831)" /><rect x="24" y="30" width="1.025" height="1.025" fill="rgba(61,88,94,0.863)" /><rect x="25" y="30" width="1.025" height="1.025" fill="rgba(72,116,126,0.996)" /><rect x="7" y="31" width="1.025" height="1.025" fill="rgba(101,147,157,0.996)" /><rect x="8" y="31" width="1.025" height="1.025" fill="rgba(187,198,195,0.925)" /><rect x="9" y="31" width="1.025" height="1.025" fill="rgba(253,246,238,0.867)" /><rect x="10" y="31" width="1.025" height="1.025" fill="rgba(245,239,230,0.831)" /><rect x="11" y="31" width="1.025" height="1.025" fill="rgba(235,229,220,0.784)" /><rect x="12" y="31" width="1.025" height="1.025" fill="rgba(246,236,224,0.631)" /><rect x="13" y="31" width="1.025" height="1.025" fill="rgba(248,238,227,0.694)" /><rect x="14" y="31" width="1.025" height="1.025" fill="rgba(249,237,224,0.506)" /><rect x="15" y="31" width="1.025" height="1.025" fill="rgba(250,238,225,0.478)" /><rect x="16" y="31" width="1.025" height="1.025" fill="rgba(228,216,202,0.455)" /><rect x="17" y="31" width="1.025" height="1.025" fill="rgba(251,228,206,0.533)" /><rect x="18" y="31" width="1.025" height="1.025" fill="rgba(242,244,244,1.000)" /><rect x="19" y="31" width="1.025" height="1.025" fill="rgba(253,242,229,0.529)" /><rect x="20" y="31" width="1.025" height="1.025" fill="rgba(252,241,230,0.616)" /><rect x="21" y="31" width="1.025" height="1.025" fill="rgba(248,237,225,0.573)" /><rect x="22" y="31" width="1.025" height="1.025" fill="rgba(252,249,244,0.984)" /><rect x="23" y="31" width="1.025" height="1.025" fill="rgba(230,225,215,0.780)" /><rect x="24" y="31" width="1.025" height="1.025" fill="rgba(247,237,228,0.820)" /><rect x="25" y="31" width="1.025" height="1.025" fill="rgba(186,194,196,0.863)" /><rect x="26" y="31" width="1.025" height="1.025" fill="rgba(68,110,121,0.996)" /><rect x="6" y="32" width="1.025" height="1.025" fill="rgba(80,121,130,0.996)" /><rect x="7" y="32" width="1.025" height="1.025" fill="rgba(211,212,210,0.937)" /><rect x="8" y="32" width="1.025" height="1.025" fill="rgba(205,208,204,0.875)" /><rect x="9" y="32" width="1.025" height="1.025" fill="rgba(253,244,236,0.839)" /><rect x="10" y="32" width="1.025" height="1.025" fill="rgba(248,239,229,0.788)" /><rect x="11" y="32" width="1.025" height="1.025" fill="rgba(237,230,221,0.737)" /><rect x="12" y="32" width="1.025" height="1.025" fill="rgba(249,241,231,0.671)" /><rect x="13" y="32" width="1.025" height="1.025" fill="rgba(253,246,238,0.839)" /><rect x="14" y="32" width="1.025" height="1.025" fill="rgba(252,240,227,0.384)" /><rect x="15" y="32" width="1.025" height="1.025" fill="rgba(253,242,230,0.541)" /><rect x="16" y="32" width="1.025" height="1.025" fill="rgba(242,228,216,0.514)" /><rect x="17" y="32" width="1.025" height="1.025" fill="rgba(207,194,183,0.475)" /><rect x="18" y="32" width="1.025" height="1.025" fill="rgba(245,235,222,0.478)" /><rect x="19" y="32" width="1.025" height="1.025" fill="rgba(249,238,226,0.420)" /><rect x="20" y="32" width="1.025" height="1.025" fill="rgba(252,241,228,0.545)" /><rect x="21" y="32" width="1.025" height="1.025" fill="rgba(252,240,228,0.596)" /><rect x="22" y="32" width="1.025" height="1.025" fill="rgba(241,231,220,0.659)" /><rect x="23" y="32" width="1.025" height="1.025" fill="rgba(225,217,209,0.714)" /><rect x="24" y="32" width="1.025" height="1.025" fill="rgba(229,223,215,0.780)" /><rect x="25" y="32" width="1.025" height="1.025" fill="rgba(209,209,209,0.827)" /><rect x="26" y="32" width="1.025" height="1.025" fill="rgba(180,215,232,0.863)" /><rect x="27" y="32" width="1.025" height="1.025" fill="rgba(72,115,126,0.996)" /><rect x="6" y="33" width="1.025" height="1.025" fill="rgba(69,178,194,1.000)" /><rect x="7" y="33" width="1.025" height="1.025" fill="rgba(220,218,215,0.937)" /><rect x="8" y="33" width="1.025" height="1.025" fill="rgba(197,202,198,0.859)" /><rect x="9" y="33" width="1.025" height="1.025" fill="rgba(214,214,207,0.808)" /><rect x="10" y="33" width="1.025" height="1.025" fill="rgba(136,154,151,0.745)" /><rect x="11" y="33" width="1.025" height="1.025" fill="rgba(212,210,202,0.678)" /><rect x="12" y="33" width="1.025" height="1.025" fill="rgba(246,234,222,0.600)" /><rect x="13" y="33" width="1.025" height="1.025" fill="rgba(253,241,227,0.518)" /><rect x="14" y="33" width="1.025" height="1.025" fill="rgba(254,242,229,0.384)" /><rect x="15" y="33" width="1.025" height="1.025" fill="rgba(252,240,227,0.416)" /><rect x="16" y="33" width="1.025" height="1.025" fill="rgba(248,233,218,0.380)" /><rect x="17" y="33" width="1.025" height="1.025" fill="rgba(111,123,125,0.580)" /><rect x="18" y="33" width="1.025" height="1.025" fill="rgba(242,230,215,0.380)" /><rect x="19" y="33" width="1.025" height="1.025" fill="rgba(249,239,226,0.408)" /><rect x="20" y="33" width="1.025" height="1.025" fill="rgba(252,241,227,0.451)" /><rect x="21" y="33" width="1.025" height="1.025" fill="rgba(248,234,220,0.420)" /><rect x="22" y="33" width="1.025" height="1.025" fill="rgba(241,228,217,0.580)" /><rect x="23" y="33" width="1.025" height="1.025" fill="rgba(162,172,175,0.655)" /><rect x="24" y="33" width="1.025" height="1.025" fill="rgba(210,204,195,0.729)" /><rect x="25" y="33" width="1.025" height="1.025" fill="rgba(247,234,225,0.788)" /><rect x="26" y="33" width="1.025" height="1.025" fill="rgba(178,188,190,0.839)" /><rect x="27" y="33" width="1.025" height="1.025" fill="rgba(65,105,116,0.996)" /><rect x="6" y="34" width="1.025" height="1.025" fill="rgba(111,156,165,1.000)" /><rect x="7" y="34" width="1.025" height="1.025" fill="rgba(204,204,201,0.910)" /><rect x="8" y="34" width="1.025" height="1.025" fill="rgba(197,201,197,0.835)" /><rect x="9" y="34" width="1.025" height="1.025" fill="rgba(139,172,177,0.992)" /><rect x="10" y="34" width="1.025" height="1.025" fill="rgba(50,71,75,0.698)" /><rect x="11" y="34" width="1.025" height="1.025" fill="rgba(149,162,156,0.620)" /><rect x="12" y="34" width="1.025" height="1.025" fill="rgba(231,219,209,0.529)" /><rect x="13" y="34" width="1.025" height="1.025" fill="rgba(222,213,202,0.451)" /><rect x="14" y="34" width="1.025" height="1.025" fill="rgba(242,231,217,0.380)" /><rect x="15" y="34" width="1.025" height="1.025" fill="rgba(252,236,222,0.329)" /><rect x="16" y="34" width="1.025" height="1.025" fill="rgba(249,234,219,0.302)" /><rect x="17" y="34" width="1.025" height="1.025" fill="rgba(241,224,211,0.290)" /><rect x="18" y="34" width="1.025" height="1.025" fill="rgba(154,161,163,0.216)" /><rect x="19" y="34" width="1.025" height="1.025" fill="rgba(164,164,155,0.612)" /><rect x="20" y="34" width="1.025" height="1.025" fill="rgba(252,237,222,0.365)" /><rect x="21" y="34" width="1.025" height="1.025" fill="rgba(243,226,213,0.353)" /><rect x="22" y="34" width="1.025" height="1.025" fill="rgba(212,204,194,0.506)" /><rect x="23" y="34" width="1.025" height="1.025" fill="rgba(160,168,162,0.592)" /><rect x="24" y="34" width="1.025" height="1.025" fill="rgba(139,147,148,0.678)" /><rect x="25" y="34" width="1.025" height="1.025" fill="rgba(173,184,179,0.757)" /><rect x="26" y="34" width="1.025" height="1.025" fill="rgba(155,170,174,0.816)" /><rect x="27" y="34" width="1.025" height="1.025" fill="rgba(56,91,102,0.996)" /><rect x="6" y="35" width="1.025" height="1.025" fill="rgba(58,131,143,0.996)" /><rect x="7" y="35" width="1.025" height="1.025" fill="rgba(90,119,125,0.996)" /><rect x="8" y="35" width="1.025" height="1.025" fill="rgba(94,125,130,0.996)" /><rect x="9" y="35" width="1.025" height="1.025" fill="rgba(70,177,191,0.992)" /><rect x="10" y="35" width="1.025" height="1.025" fill="rgba(58,58,58,0.698)" /><rect x="11" y="35" width="1.025" height="1.025" fill="rgba(140,139,132,0.600)" /><rect x="12" y="35" width="1.025" height="1.025" fill="rgba(183,182,175,0.475)" /><rect x="13" y="35" width="1.025" height="1.025" fill="rgba(173,173,166,0.384)" /><rect x="14" y="35" width="1.025" height="1.025" fill="rgba(201,192,183,0.314)" /><rect x="15" y="35" width="1.025" height="1.025" fill="rgba(241,230,221,0.812)" /><rect x="16" y="35" width="1.025" height="1.025" fill="rgba(230,216,203,0.235)" /><rect x="17" y="35" width="1.025" height="1.025" fill="rgba(223,209,197,0.220)" /><rect x="18" y="35" width="1.025" height="1.025" fill="rgba(186,184,175,0.227)" /><rect x="19" y="35" width="1.025" height="1.025" fill="rgba(140,149,151,0.188)" /><rect x="20" y="35" width="1.025" height="1.025" fill="rgba(234,219,206,0.302)" /><rect x="21" y="35" width="1.025" height="1.025" fill="rgba(238,224,211,0.365)" /><rect x="22" y="35" width="1.025" height="1.025" fill="rgba(194,191,182,0.443)" /><rect x="23" y="35" width="1.025" height="1.025" fill="rgba(134,147,145,0.533)" /><rect x="24" y="35" width="1.025" height="1.025" fill="rgba(43,54,54,0.984)" /><rect x="25" y="35" width="1.025" height="1.025" fill="rgba(54,82,89,0.988)" /><rect x="26" y="35" width="1.025" height="1.025" fill="rgba(53,75,80,0.992)" /><rect x="27" y="35" width="1.025" height="1.025" fill="rgba(27,133,152,0.992)" /><rect x="10" y="36" width="1.025" height="1.025" fill="rgba(0,0,0,0.631)" /><rect x="11" y="36" width="1.025" height="1.025" fill="rgba(134,134,129,0.561)" /><rect x="12" y="36" width="1.025" height="1.025" fill="rgba(131,143,138,0.427)" /><rect x="13" y="36" width="1.025" height="1.025" fill="rgba(169,170,163,0.349)" /><rect x="14" y="36" width="1.025" height="1.025" fill="rgba(173,172,164,0.275)" /><rect x="15" y="36" width="1.025" height="1.025" fill="rgba(184,178,168,0.220)" /><rect x="16" y="36" width="1.025" height="1.025" fill="rgba(188,183,172,0.192)" /><rect x="17" y="36" width="1.025" height="1.025" fill="rgba(173,174,164,0.180)" /><rect x="18" y="36" width="1.025" height="1.025" fill="rgba(170,171,162,0.192)" /><rect x="19" y="36" width="1.025" height="1.025" fill="rgba(215,200,196,0.235)" /><rect x="20" y="36" width="1.025" height="1.025" fill="rgba(61,81,85,0.796)" /><rect x="21" y="36" width="1.025" height="1.025" fill="rgba(204,198,187,0.322)" /><rect x="22" y="36" width="1.025" height="1.025" fill="rgba(218,211,201,0.616)" /><rect x="23" y="36" width="1.025" height="1.025" fill="rgba(137,144,139,0.498)" /><rect x="24" y="36" width="1.025" height="1.025" fill="rgba(20,15,13,0.984)" /><rect x="25" y="36" width="1.025" height="1.025" fill="rgba(219,200,196,0.486)" /><rect x="26" y="36" width="1.025" height="1.025" fill="rgba(141,141,141,0.353)" /></svg>