<svg shape-rendering="crispEdges" xmlns="http://www.w3.org/2000/svg" version="1.1" width="37" height="37"><style>rect { image-rendering: pixelated; }</style><rect x="12" y="27" width="1.025" height="1.025" fill="rgba(0,136,205,1.000)" /><rect x="19" y="27" width="1.025" height="1.025" fill="rgba(0,136,205,1.000)" /><rect x="12" y="28" width="1.025" height="1.025" fill="rgba(0,136,205,1.000)" /><rect x="20" y="28" width="1.025" height="1.025" fill="rgba(0,168,230,1.000)" /><rect x="13" y="29" width="1.025" height="1.025" fill="rgba(0,152,216,1.000)" /><rect x="21" y="29" width="1.025" height="1.025" fill="rgba(0,168,230,1.000)" /><rect x="14" y="30" width="1.025" height="1.025" fill="rgba(0,155,213,1.000)" /><rect x="21" y="30" width="1.025" height="1.025" fill="rgba(0,168,230,1.000)" /><rect x="15" y="31" width="1.025" height="1.025" fill="rgba(0,165,226,1.000)" /><rect x="22" y="31" width="1.025" height="1.025" fill="rgba(0,168,230,1.000)" /><rect x="16" y="32" width="1.025" height="1.025" fill="rgba(0,171,236,1.000)" /><rect x="22" y="32" width="1.025" height="1.025" fill="rgba(0,166,229,1.000)" /><rect x="17" y="33" width="1.025" height="1.025" fill="rgba(0,164,227,1.000)" /><rect x="23" y="33" width="1.025" height="1.025" fill="rgba(0,166,229,1.000)" /><rect x="18" y="34" width="1.025" height="1.025" fill="rgba(0,164,227,1.000)" /><rect x="24" y="34" width="1.025" height="1.025" fill="rgba(0,176,241,1.000)" /><rect x="18" y="35" width="1.025" height="1.025" fill="rgba(0,173,239,1.000)" /><rect x="19" y="35" width="1.025" height="1.025" fill="rgba(0,178,245,1.000)" /><rect x="24" y="35" width="1.025" height="1.025" fill="rgba(0,173,239,1.000)" /><rect x="25" y="35" width="1.025" height="1.025" fill="rgba(0,158,216,1.000)" /><rect x="17" y="36" width="1.025" height="1.025" fill="rgba(0,164,227,1.000)" /><rect x="18" y="36" width="1.025" height="1.025" fill="rgba(0,164,227,1.000)" /><rect x="19" y="36" width="1.025" height="1.025" fill="rgba(0,183,252,1.000)" /><rect x="20" y="36" width="1.025" height="1.025" fill="rgba(0,181,249,1.000)" /><rect x="23" y="36" width="1.025" height="1.025" fill="rgba(0,164,227,1.000)" /><rect x="24" y="36" width="1.025" height="1.025" fill="rgba(0,158,217,1.000)" /><rect x="25" y="36" width="1.025" height="1.025" fill="rgba(0,152,210,1.000)" /><rect x="26" y="36" width="1.025" height="1.025" fill="rgba(0,144,198,1.000)" /></svg>