<svg shape-rendering="crispEdges" xmlns="http://www.w3.org/2000/svg" version="1.1" width="37" height="37"><style>rect { image-rendering: pixelated; }</style><rect x="12" y="12" width="1.025" height="1.025" fill="rgba(0,0,0,0.192)" /><rect x="13" y="12" width="1.025" height="1.025" fill="rgba(228,183,0,1.000)" /><rect x="14" y="12" width="1.025" height="1.025" fill="rgba(255,205,0,1.000)" /><rect x="15" y="12" width="1.025" height="1.025" fill="rgba(255,205,0,1.000)" /><rect x="16" y="12" width="1.025" height="1.025" fill="rgba(255,205,0,1.000)" /><rect x="17" y="12" width="1.025" height="1.025" fill="rgba(255,205,0,1.000)" /><rect x="18" y="12" width="1.025" height="1.025" fill="rgba(255,205,0,1.000)" /><rect x="19" y="12" width="1.025" height="1.025" fill="rgba(255,205,0,1.000)" /><rect x="20" y="12" width="1.025" height="1.025" fill="rgba(255,205,0,1.000)" /><rect x="21" y="12" width="1.025" height="1.025" fill="rgba(255,205,0,1.000)" /><rect x="22" y="12" width="1.025" height="1.025" fill="rgba(255,205,0,1.000)" /><rect x="23" y="12" width="1.025" height="1.025" fill="rgba(255,205,0,1.000)" /><rect x="24" y="12" width="1.025" height="1.025" fill="rgba(228,183,0,1.000)" /><rect x="25" y="12" width="1.025" height="1.025" fill="rgba(228,183,0,1.000)" /><rect x="26" y="12" width="1.025" height="1.025" fill="rgba(206,166,0,1.000)" /><rect x="11" y="13" width="1.025" height="1.025" fill="rgba(206,166,0,1.000)" /><rect x="12" y="13" width="1.025" height="1.025" fill="rgba(206,166,0,1.000)" /><rect x="14" y="13" width="1.025" height="1.025" fill="rgba(0,0,0,0.400)" /><rect x="15" y="13" width="1.025" height="1.025" fill="rgba(255,217,0,1.000)" /><rect x="16" y="13" width="1.025" height="1.025" fill="rgba(255,217,0,1.000)" /><rect x="17" y="13" width="1.025" height="1.025" fill="rgba(255,217,0,1.000)" /><rect x="18" y="13" width="1.025" height="1.025" fill="rgba(255,218,9,1.000)" /><rect x="19" y="13" width="1.025" height="1.025" fill="rgba(255,225,51,1.000)" /><rect x="20" y="13" width="1.025" height="1.025" fill="rgba(255,229,77,1.000)" /><rect x="21" y="13" width="1.025" height="1.025" fill="rgba(255,232,95,1.000)" /><rect x="22" y="13" width="1.025" height="1.025" fill="rgba(255,233,109,1.000)" /><rect x="23" y="13" width="1.025" height="1.025" fill="rgba(255,236,121,1.000)" /><rect x="24" y="13" width="1.025" height="1.025" fill="rgba(255,251,229,1.000)" /><rect x="25" y="13" width="1.025" height="1.025" fill="rgba(255,239,149,1.000)" /><rect x="9" y="14" width="1.025" height="1.025" fill="rgba(255,255,255,1.000)" /><rect x="10" y="14" width="1.025" height="1.025" fill="rgba(255,255,255,1.000)" /><rect x="14" y="14" width="1.025" height="1.025" fill="rgba(0,0,0,0.208)" /><rect x="15" y="14" width="1.025" height="1.025" fill="rgba(255,217,0,1.000)" /><rect x="16" y="14" width="1.025" height="1.025" fill="rgba(255,217,0,1.000)" /><rect x="17" y="14" width="1.025" height="1.025" fill="rgba(255,217,0,1.000)" /><rect x="18" y="14" width="1.025" height="1.025" fill="rgba(255,221,33,1.000)" /><rect x="19" y="14" width="1.025" height="1.025" fill="rgba(255,227,65,1.000)" /><rect x="20" y="14" width="1.025" height="1.025" fill="rgba(255,230,85,1.000)" /><rect x="21" y="14" width="1.025" height="1.025" fill="rgba(255,232,101,1.000)" /><rect x="22" y="14" width="1.025" height="1.025" fill="rgba(255,234,113,1.000)" /><rect x="23" y="14" width="1.025" height="1.025" fill="rgba(255,241,159,1.000)" /><rect x="24" y="14" width="1.025" height="1.025" fill="rgba(255,241,157,1.000)" /><rect x="25" y="14" width="1.025" height="1.025" fill="rgba(255,239,141,1.000)" /><rect x="14" y="15" width="1.025" height="1.025" fill="rgba(0,0,0,0.259)" /><rect x="15" y="15" width="1.025" height="1.025" fill="rgba(255,217,0,1.000)" /><rect x="16" y="15" width="1.025" height="1.025" fill="rgba(255,217,0,1.000)" /><rect x="17" y="15" width="1.025" height="1.025" fill="rgba(255,217,0,1.000)" /><rect x="18" y="15" width="1.025" height="1.025" fill="rgba(255,224,49,1.000)" /><rect x="19" y="15" width="1.025" height="1.025" fill="rgba(255,228,75,1.000)" /><rect x="20" y="15" width="1.025" height="1.025" fill="rgba(255,232,95,1.000)" /><rect x="21" y="15" width="1.025" height="1.025" fill="rgba(255,233,109,1.000)" /><rect x="22" y="15" width="1.025" height="1.025" fill="rgba(255,239,147,1.000)" /><rect x="23" y="15" width="1.025" height="1.025" fill="rgba(255,239,147,1.000)" /><rect x="24" y="15" width="1.025" height="1.025" fill="rgba(255,240,151,1.000)" /><rect x="25" y="15" width="1.025" height="1.025" fill="rgba(255,237,133,1.000)" /><rect x="14" y="16" width="1.025" height="1.025" fill="rgba(0,0,0,0.165)" /><rect x="15" y="16" width="1.025" height="1.025" fill="rgba(255,217,0,1.000)" /><rect x="16" y="16" width="1.025" height="1.025" fill="rgba(255,217,0,1.000)" /><rect x="17" y="16" width="1.025" height="1.025" fill="rgba(255,222,31,1.000)" /><rect x="18" y="16" width="1.025" height="1.025" fill="rgba(255,226,61,1.000)" /><rect x="19" y="16" width="1.025" height="1.025" fill="rgba(255,229,83,1.000)" /><rect x="20" y="16" width="1.025" height="1.025" fill="rgba(255,232,101,1.000)" /><rect x="21" y="16" width="1.025" height="1.025" fill="rgba(255,241,165,1.000)" /><rect x="22" y="16" width="1.025" height="1.025" fill="rgba(255,237,133,1.000)" /><rect x="23" y="16" width="1.025" height="1.025" fill="rgba(255,241,159,1.000)" /><rect x="24" y="16" width="1.025" height="1.025" fill="rgba(255,238,143,1.000)" /><rect x="25" y="16" width="1.025" height="1.025" fill="rgba(255,236,121,1.000)" /><rect x="14" y="17" width="1.025" height="1.025" fill="rgba(0,0,0,0.208)" /><rect x="15" y="17" width="1.025" height="1.025" fill="rgba(255,217,0,1.000)" /><rect x="16" y="17" width="1.025" height="1.025" fill="rgba(255,217,0,1.000)" /><rect x="17" y="17" width="1.025" height="1.025" fill="rgba(255,224,45,1.000)" /><rect x="18" y="17" width="1.025" height="1.025" fill="rgba(255,228,73,1.000)" /><rect x="19" y="17" width="1.025" height="1.025" fill="rgba(255,231,93,1.000)" /><rect x="20" y="17" width="1.025" height="1.025" fill="rgba(255,244,179,1.000)" /><rect x="21" y="17" width="1.025" height="1.025" fill="rgba(255,235,117,1.000)" /><rect x="22" y="17" width="1.025" height="1.025" fill="rgba(255,238,145,1.000)" /><rect x="23" y="17" width="1.025" height="1.025" fill="rgba(255,240,153,1.000)" /><rect x="24" y="17" width="1.025" height="1.025" fill="rgba(255,237,135,1.000)" /><rect x="25" y="17" width="1.025" height="1.025" fill="rgba(255,234,111,1.000)" /><rect x="15" y="18" width="1.025" height="1.025" fill="rgba(0,0,0,0.133)" /><rect x="16" y="18" width="1.025" height="1.025" fill="rgba(255,221,23,1.000)" /><rect x="17" y="18" width="1.025" height="1.025" fill="rgba(255,227,59,1.000)" /><rect x="18" y="18" width="1.025" height="1.025" fill="rgba(255,229,81,1.000)" /><rect x="19" y="18" width="1.025" height="1.025" fill="rgba(255,243,175,1.000)" /><rect x="20" y="18" width="1.025" height="1.025" fill="rgba(255,234,111,1.000)" /><rect x="21" y="18" width="1.025" height="1.025" fill="rgba(255,236,129,1.000)" /><rect x="22" y="18" width="1.025" height="1.025" fill="rgba(255,241,157,1.000)" /><rect x="23" y="18" width="1.025" height="1.025" fill="rgba(255,238,145,1.000)" /><rect x="24" y="18" width="1.025" height="1.025" fill="rgba(255,235,123,1.000)" /><rect x="25" y="18" width="1.025" height="1.025" fill="rgba(255,232,95,1.000)" /><rect x="16" y="19" width="1.025" height="1.025" fill="rgba(0,0,0,0.208)" /><rect x="17" y="19" width="1.025" height="1.025" fill="rgba(0,0,0,0.208)" /><rect x="18" y="19" width="1.025" height="1.025" fill="rgba(0,0,0,0.208)" /><rect x="19" y="19" width="1.025" height="1.025" fill="rgba(0,0,0,0.208)" /><rect x="20" y="19" width="1.025" height="1.025" fill="rgba(0,0,0,0.208)" /><rect x="21" y="19" width="1.025" height="1.025" fill="rgba(0,0,0,0.208)" /><rect x="22" y="19" width="1.025" height="1.025" fill="rgba(0,0,0,0.208)" /><rect x="23" y="19" width="1.025" height="1.025" fill="rgba(0,0,0,0.208)" /></svg>