<svg shape-rendering="crispEdges" xmlns="http://www.w3.org/2000/svg" version="1.1" width="37" height="37"><style>rect { image-rendering: pixelated; }</style><rect x="11" y="13" width="1.025" height="1.025" fill="rgba(0,0,0,1.000)" /><rect x="12" y="13" width="1.025" height="1.025" fill="rgba(0,0,0,1.000)" /><rect x="13" y="14" width="1.025" height="1.025" fill="rgba(0,0,0,1.000)" /><rect x="14" y="14" width="1.025" height="1.025" fill="rgba(0,0,0,1.000)" /><rect x="15" y="15" width="1.025" height="1.025" fill="rgba(0,0,0,1.000)" /><rect x="16" y="15" width="1.025" height="1.025" fill="rgba(0,0,0,1.000)" /><rect x="17" y="15" width="1.025" height="1.025" fill="rgba(0,0,0,1.000)" /><rect x="18" y="15" width="1.025" height="1.025" fill="rgba(0,0,0,1.000)" /><rect x="19" y="15" width="1.025" height="1.025" fill="rgba(0,0,0,1.000)" /><rect x="20" y="15" width="1.025" height="1.025" fill="rgba(0,0,0,1.000)" /><rect x="22" y="15" width="1.025" height="1.025" fill="rgba(0,0,0,1.000)" /><rect x="23" y="15" width="1.025" height="1.025" fill="rgba(0,0,0,1.000)" /><rect x="24" y="15" width="1.025" height="1.025" fill="rgba(0,0,0,1.000)" /><rect x="25" y="15" width="1.025" height="1.025" fill="rgba(0,0,0,1.000)" /><rect x="16" y="16" width="1.025" height="1.025" fill="rgba(0,0,0,1.000)" /><rect x="17" y="16" width="1.025" height="1.025" fill="rgba(67,67,67,1.000)" /><rect x="18" y="16" width="1.025" height="1.025" fill="rgba(76,76,76,1.000)" /><rect x="19" y="16" width="1.025" height="1.025" fill="rgba(84,84,84,1.000)" /><rect x="20" y="16" width="1.025" height="1.025" fill="rgba(0,0,0,1.000)" /><rect x="21" y="16" width="1.025" height="1.025" fill="rgba(0,0,0,1.000)" /><rect x="22" y="16" width="1.025" height="1.025" fill="rgba(0,0,0,1.000)" /><rect x="23" y="16" width="1.025" height="1.025" fill="rgba(83,83,83,1.000)" /><rect x="24" y="16" width="1.025" height="1.025" fill="rgba(84,84,84,1.000)" /><rect x="25" y="16" width="1.025" height="1.025" fill="rgba(83,83,83,1.000)" /><rect x="26" y="16" width="1.025" height="1.025" fill="rgba(0,0,0,1.000)" /><rect x="16" y="17" width="1.025" height="1.025" fill="rgba(0,0,0,1.000)" /><rect x="17" y="17" width="1.025" height="1.025" fill="rgba(84,84,84,1.000)" /><rect x="18" y="17" width="1.025" height="1.025" fill="rgba(76,76,76,1.000)" /><rect x="19" y="17" width="1.025" height="1.025" fill="rgba(84,84,84,1.000)" /><rect x="20" y="17" width="1.025" height="1.025" fill="rgba(0,0,0,1.000)" /><rect x="22" y="17" width="1.025" height="1.025" fill="rgba(0,0,0,1.000)" /><rect x="23" y="17" width="1.025" height="1.025" fill="rgba(102,102,102,1.000)" /><rect x="24" y="17" width="1.025" height="1.025" fill="rgba(102,102,102,1.000)" /><rect x="25" y="17" width="1.025" height="1.025" fill="rgba(83,83,83,1.000)" /><rect x="26" y="17" width="1.025" height="1.025" fill="rgba(0,0,0,1.000)" /><rect x="17" y="18" width="1.025" height="1.025" fill="rgba(0,0,0,1.000)" /><rect x="18" y="18" width="1.025" height="1.025" fill="rgba(0,0,0,1.000)" /><rect x="19" y="18" width="1.025" height="1.025" fill="rgba(0,0,0,1.000)" /><rect x="23" y="18" width="1.025" height="1.025" fill="rgba(0,0,0,1.000)" /><rect x="24" y="18" width="1.025" height="1.025" fill="rgba(0,0,0,1.000)" /><rect x="25" y="18" width="1.025" height="1.025" fill="rgba(0,0,0,1.000)" /></svg>