<svg shape-rendering="crispEdges" xmlns="http://www.w3.org/2000/svg" version="1.1" width="37" height="37"><style>rect { image-rendering: pixelated; }</style><rect x="17" y="12" width="1.025" height="1.025" fill="rgba(0,0,0,1.000)" /><rect x="18" y="12" width="1.025" height="1.025" fill="rgba(0,0,0,1.000)" /><rect x="22" y="12" width="1.025" height="1.025" fill="rgba(0,0,0,1.000)" /><rect x="23" y="12" width="1.025" height="1.025" fill="rgba(0,0,0,1.000)" /><rect x="16" y="13" width="1.025" height="1.025" fill="rgba(0,0,0,1.000)" /><rect x="17" y="13" width="1.025" height="1.025" fill="rgba(51,51,51,1.000)" /><rect x="18" y="13" width="1.025" height="1.025" fill="rgba(255,255,255,1.000)" /><rect x="19" y="13" width="1.025" height="1.025" fill="rgba(0,0,0,1.000)" /><rect x="21" y="13" width="1.025" height="1.025" fill="rgba(0,0,0,1.000)" /><rect x="22" y="13" width="1.025" height="1.025" fill="rgba(51,51,51,1.000)" /><rect x="23" y="13" width="1.025" height="1.025" fill="rgba(255,255,255,1.000)" /><rect x="24" y="13" width="1.025" height="1.025" fill="rgba(0,0,0,1.000)" /><rect x="16" y="14" width="1.025" height="1.025" fill="rgba(0,0,0,1.000)" /><rect x="17" y="14" width="1.025" height="1.025" fill="rgba(0,0,0,1.000)" /><rect x="18" y="14" width="1.025" height="1.025" fill="rgba(51,51,51,1.000)" /><rect x="19" y="14" width="1.025" height="1.025" fill="rgba(0,0,0,1.000)" /><rect x="21" y="14" width="1.025" height="1.025" fill="rgba(0,0,0,1.000)" /><rect x="22" y="14" width="1.025" height="1.025" fill="rgba(0,0,0,1.000)" /><rect x="23" y="14" width="1.025" height="1.025" fill="rgba(51,51,51,1.000)" /><rect x="24" y="14" width="1.025" height="1.025" fill="rgba(0,0,0,1.000)" /><rect x="17" y="15" width="1.025" height="1.025" fill="rgba(0,0,0,1.000)" /><rect x="18" y="15" width="1.025" height="1.025" fill="rgba(0,0,0,1.000)" /><rect x="22" y="15" width="1.025" height="1.025" fill="rgba(0,0,0,1.000)" /><rect x="23" y="15" width="1.025" height="1.025" fill="rgba(0,0,0,1.000)" /></svg>