<svg shape-rendering="crispEdges" xmlns="http://www.w3.org/2000/svg" version="1.1" width="37" height="37"><style>rect { image-rendering: pixelated; }</style><rect x="11" y="13" width="1.025" height="1.025" fill="rgba(0,0,0,1.000)" /><rect x="12" y="13" width="1.025" height="1.025" fill="rgba(0,0,0,1.000)" /><rect x="13" y="13" width="1.025" height="1.025" fill="rgba(0,0,0,1.000)" /><rect x="14" y="13" width="1.025" height="1.025" fill="rgba(0,0,0,1.000)" /><rect x="15" y="13" width="1.025" height="1.025" fill="rgba(0,0,0,1.000)" /><rect x="16" y="13" width="1.025" height="1.025" fill="rgba(0,0,0,1.000)" /><rect x="17" y="13" width="1.025" height="1.025" fill="rgba(0,0,0,1.000)" /><rect x="18" y="13" width="1.025" height="1.025" fill="rgba(0,0,0,1.000)" /><rect x="19" y="13" width="1.025" height="1.025" fill="rgba(0,0,0,1.000)" /><rect x="20" y="13" width="1.025" height="1.025" fill="rgba(0,0,0,1.000)" /><rect x="21" y="13" width="1.025" height="1.025" fill="rgba(0,0,0,1.000)" /><rect x="22" y="13" width="1.025" height="1.025" fill="rgba(0,0,0,1.000)" /><rect x="23" y="13" width="1.025" height="1.025" fill="rgba(0,0,0,1.000)" /><rect x="24" y="13" width="1.025" height="1.025" fill="rgba(0,0,0,1.000)" /><rect x="25" y="13" width="1.025" height="1.025" fill="rgba(0,0,0,1.000)" /><rect x="26" y="13" width="1.025" height="1.025" fill="rgba(0,0,0,1.000)" /><rect x="10" y="14" width="1.025" height="1.025" fill="rgba(0,0,0,1.000)" /><rect x="11" y="14" width="1.025" height="1.025" fill="rgba(246,230,29,1.000)" /><rect x="14" y="14" width="1.025" height="1.025" fill="rgba(0,0,0,1.000)" /><rect x="15" y="14" width="1.025" height="1.025" fill="rgba(3,123,156,0.651)" /><rect x="16" y="14" width="1.025" height="1.025" fill="rgba(4,142,203,0.651)" /><rect x="17" y="14" width="1.025" height="1.025" fill="rgba(4,144,207,0.620)" /><rect x="18" y="14" width="1.025" height="1.025" fill="rgba(5,146,250,0.471)" /><rect x="19" y="14" width="1.025" height="1.025" fill="rgba(5,165,244,0.651)" /><rect x="20" y="14" width="1.025" height="1.025" fill="rgba(0,0,0,1.000)" /><rect x="21" y="14" width="1.025" height="1.025" fill="rgba(5,165,244,0.651)" /><rect x="22" y="14" width="1.025" height="1.025" fill="rgba(5,165,244,0.651)" /><rect x="23" y="14" width="1.025" height="1.025" fill="rgba(5,145,247,0.651)" /><rect x="24" y="14" width="1.025" height="1.025" fill="rgba(5,166,244,0.651)" /><rect x="25" y="14" width="1.025" height="1.025" fill="rgba(5,166,244,0.651)" /><rect x="26" y="14" width="1.025" height="1.025" fill="rgba(0,0,0,1.000)" /><rect x="10" y="15" width="1.025" height="1.025" fill="rgba(0,0,0,1.000)" /><rect x="11" y="15" width="1.025" height="1.025" fill="rgba(235,153,29,1.000)" /><rect x="15" y="15" width="1.025" height="1.025" fill="rgba(0,0,0,1.000)" /><rect x="16" y="15" width="1.025" height="1.025" fill="rgba(4,142,203,0.651)" /><rect x="17" y="15" width="1.025" height="1.025" fill="rgba(4,142,203,0.635)" /><rect x="18" y="15" width="1.025" height="1.025" fill="rgba(4,142,203,0.502)" /><rect x="19" y="15" width="1.025" height="1.025" fill="rgba(0,0,0,1.000)" /><rect x="21" y="15" width="1.025" height="1.025" fill="rgba(0,0,0,1.000)" /><rect x="22" y="15" width="1.025" height="1.025" fill="rgba(5,165,244,0.651)" /><rect x="23" y="15" width="1.025" height="1.025" fill="rgba(5,165,244,0.651)" /><rect x="24" y="15" width="1.025" height="1.025" fill="rgba(5,145,247,0.651)" /><rect x="25" y="15" width="1.025" height="1.025" fill="rgba(0,0,0,1.000)" /><rect x="11" y="16" width="1.025" height="1.025" fill="rgba(246,230,29,1.000)" /><rect x="16" y="16" width="1.025" height="1.025" fill="rgba(0,0,0,1.000)" /><rect x="17" y="16" width="1.025" height="1.025" fill="rgba(0,0,0,1.000)" /><rect x="18" y="16" width="1.025" height="1.025" fill="rgba(0,0,0,1.000)" /><rect x="22" y="16" width="1.025" height="1.025" fill="rgba(0,0,0,1.000)" /><rect x="23" y="16" width="1.025" height="1.025" fill="rgba(0,0,0,1.000)" /><rect x="24" y="16" width="1.025" height="1.025" fill="rgba(0,0,0,1.000)" /><rect x="11" y="17" width="1.025" height="1.025" fill="rgba(235,153,29,1.000)" /><rect x="11" y="18" width="1.025" height="1.025" fill="rgba(246,230,29,1.000)" /><rect x="11" y="19" width="1.025" height="1.025" fill="rgba(235,153,29,1.000)" /><rect x="11" y="20" width="1.025" height="1.025" fill="rgba(246,230,29,1.000)" /><rect x="11" y="21" width="1.025" height="1.025" fill="rgba(235,153,29,1.000)" /><rect x="11" y="22" width="1.025" height="1.025" fill="rgba(246,230,29,1.000)" /><rect x="11" y="23" width="1.025" height="1.025" fill="rgba(235,153,29,1.000)" /><rect x="12" y="24" width="1.025" height="1.025" fill="rgba(246,230,29,1.000)" /><rect x="12" y="25" width="1.025" height="1.025" fill="rgba(235,153,29,1.000)" /><rect x="20" y="25" width="1.025" height="1.025" fill="rgba(235,153,29,1.000)" /><rect x="19" y="26" width="1.025" height="1.025" fill="rgba(246,230,29,1.000)" /></svg>