<svg shape-rendering="crispEdges" xmlns="http://www.w3.org/2000/svg" version="1.1" width="37" height="37"><style>rect { image-rendering: pixelated; }</style><rect x="15" y="11" width="1.025" height="1.025" fill="rgba(0,175,249,0.910)" /><rect x="16" y="11" width="1.025" height="1.025" fill="rgba(0,177,249,0.890)" /><rect x="17" y="11" width="1.025" height="1.025" fill="rgba(0,177,249,0.890)" /><rect x="18" y="11" width="1.025" height="1.025" fill="rgba(0,175,249,0.890)" /><rect x="19" y="11" width="1.025" height="1.025" fill="rgba(0,175,249,0.894)" /><rect x="23" y="11" width="1.025" height="1.025" fill="rgba(0,177,248,0.945)" /><rect x="24" y="11" width="1.025" height="1.025" fill="rgba(0,177,249,0.933)" /><rect x="25" y="11" width="1.025" height="1.025" fill="rgba(0,175,248,0.941)" /><rect x="26" y="11" width="1.025" height="1.025" fill="rgba(0,177,249,0.969)" /><rect x="14" y="12" width="1.025" height="1.025" fill="rgba(90,160,232,0.906)" /><rect x="15" y="12" width="1.025" height="1.025" fill="rgba(90,160,232,0.871)" /><rect x="16" y="12" width="1.025" height="1.025" fill="rgba(92,160,232,0.843)" /><rect x="17" y="12" width="1.025" height="1.025" fill="rgba(92,160,232,0.831)" /><rect x="18" y="12" width="1.025" height="1.025" fill="rgba(92,160,232,0.835)" /><rect x="19" y="12" width="1.025" height="1.025" fill="rgba(92,160,234,0.859)" /><rect x="20" y="12" width="1.025" height="1.025" fill="rgba(92,160,232,0.875)" /><rect x="22" y="12" width="1.025" height="1.025" fill="rgba(90,160,232,0.878)" /><rect x="23" y="12" width="1.025" height="1.025" fill="rgba(90,160,234,0.851)" /><rect x="24" y="12" width="1.025" height="1.025" fill="rgba(92,160,232,0.835)" /><rect x="25" y="12" width="1.025" height="1.025" fill="rgba(92,160,232,0.847)" /><rect x="26" y="12" width="1.025" height="1.025" fill="rgba(92,161,232,0.878)" /><rect x="27" y="12" width="1.025" height="1.025" fill="rgba(92,161,234,0.941)" /><rect x="11" y="13" width="1.025" height="1.025" fill="rgba(255,150,0,1.000)" /><rect x="12" y="13" width="1.025" height="1.025" fill="rgba(255,163,0,1.000)" /><rect x="13" y="13" width="1.025" height="1.025" fill="rgba(255,177,0,1.000)" /><rect x="14" y="13" width="1.025" height="1.025" fill="rgba(255,230,0,1.000)" /><rect x="15" y="13" width="1.025" height="1.025" fill="rgba(165,137,215,0.792)" /><rect x="16" y="13" width="1.025" height="1.025" fill="rgba(165,137,214,0.761)" /><rect x="17" y="13" width="1.025" height="1.025" fill="rgba(165,139,214,0.745)" /><rect x="18" y="13" width="1.025" height="1.025" fill="rgba(165,137,215,0.753)" /><rect x="19" y="13" width="1.025" height="1.025" fill="rgba(165,137,215,0.780)" /><rect x="20" y="13" width="1.025" height="1.025" fill="rgba(255,177,0,1.000)" /><rect x="21" y="13" width="1.025" height="1.025" fill="rgba(255,230,0,1.000)" /><rect x="22" y="13" width="1.025" height="1.025" fill="rgba(255,230,0,1.000)" /><rect x="23" y="13" width="1.025" height="1.025" fill="rgba(165,139,215,0.808)" /><rect x="24" y="13" width="1.025" height="1.025" fill="rgba(165,139,215,0.808)" /><rect x="25" y="13" width="1.025" height="1.025" fill="rgba(165,139,214,0.808)" /><rect x="26" y="13" width="1.025" height="1.025" fill="rgba(165,139,214,0.808)" /><rect x="27" y="13" width="1.025" height="1.025" fill="rgba(255,230,0,1.000)" /><rect x="10" y="14" width="1.025" height="1.025" fill="rgba(255,144,0,1.000)" /><rect x="14" y="14" width="1.025" height="1.025" fill="rgba(209,107,195,0.792)" /><rect x="15" y="14" width="1.025" height="1.025" fill="rgba(208,107,195,0.733)" /><rect x="16" y="14" width="1.025" height="1.025" fill="rgba(208,107,195,0.725)" /><rect x="17" y="14" width="1.025" height="1.025" fill="rgba(209,107,195,0.725)" /><rect x="18" y="14" width="1.025" height="1.025" fill="rgba(208,107,195,0.725)" /><rect x="19" y="14" width="1.025" height="1.025" fill="rgba(208,107,195,0.718)" /><rect x="20" y="14" width="1.025" height="1.025" fill="rgba(208,107,195,0.686)" /><rect x="22" y="14" width="1.025" height="1.025" fill="rgba(208,107,195,0.776)" /><rect x="23" y="14" width="1.025" height="1.025" fill="rgba(209,107,195,0.804)" /><rect x="24" y="14" width="1.025" height="1.025" fill="rgba(208,107,195,0.808)" /><rect x="25" y="14" width="1.025" height="1.025" fill="rgba(209,107,195,0.808)" /><rect x="26" y="14" width="1.025" height="1.025" fill="rgba(209,107,195,0.808)" /><rect x="27" y="14" width="1.025" height="1.025" fill="rgba(208,107,195,0.812)" /><rect x="10" y="15" width="1.025" height="1.025" fill="rgba(255,144,0,1.000)" /><rect x="14" y="15" width="1.025" height="1.025" fill="rgba(237,56,177,0.745)" /><rect x="15" y="15" width="1.025" height="1.025" fill="rgba(237,56,177,0.725)" /><rect x="16" y="15" width="1.025" height="1.025" fill="rgba(239,54,177,0.725)" /><rect x="17" y="15" width="1.025" height="1.025" fill="rgba(239,54,177,0.725)" /><rect x="18" y="15" width="1.025" height="1.025" fill="rgba(237,56,177,0.725)" /><rect x="19" y="15" width="1.025" height="1.025" fill="rgba(237,54,177,0.714)" /><rect x="20" y="15" width="1.025" height="1.025" fill="rgba(237,56,177,0.631)" /><rect x="22" y="15" width="1.025" height="1.025" fill="rgba(239,54,177,0.769)" /><rect x="23" y="15" width="1.025" height="1.025" fill="rgba(237,54,177,0.808)" /><rect x="24" y="15" width="1.025" height="1.025" fill="rgba(237,54,177,0.808)" /><rect x="25" y="15" width="1.025" height="1.025" fill="rgba(237,54,177,0.808)" /><rect x="26" y="15" width="1.025" height="1.025" fill="rgba(237,54,177,0.808)" /><rect x="27" y="15" width="1.025" height="1.025" fill="rgba(237,56,177,0.808)" /><rect x="15" y="16" width="1.025" height="1.025" fill="rgba(255,0,160,0.725)" /><rect x="16" y="16" width="1.025" height="1.025" fill="rgba(255,0,160,0.725)" /><rect x="17" y="16" width="1.025" height="1.025" fill="rgba(255,0,160,0.725)" /><rect x="18" y="16" width="1.025" height="1.025" fill="rgba(255,0,161,0.725)" /><rect x="19" y="16" width="1.025" height="1.025" fill="rgba(255,0,160,0.714)" /><rect x="23" y="16" width="1.025" height="1.025" fill="rgba(255,0,160,0.808)" /><rect x="24" y="16" width="1.025" height="1.025" fill="rgba(255,0,160,0.808)" /><rect x="25" y="16" width="1.025" height="1.025" fill="rgba(255,0,160,0.808)" /><rect x="26" y="16" width="1.025" height="1.025" fill="rgba(255,0,160,0.808)" /></svg>