<svg shape-rendering="crispEdges" xmlns="http://www.w3.org/2000/svg" version="1.1" width="37" height="37"><style>rect { image-rendering: pixelated; }</style><rect x="15" y="11" width="1.025" height="1.025" fill="rgba(0,0,0,1.000)" /><rect x="16" y="11" width="1.025" height="1.025" fill="rgba(0,0,0,1.000)" /><rect x="17" y="11" width="1.025" height="1.025" fill="rgba(0,0,0,1.000)" /><rect x="18" y="11" width="1.025" height="1.025" fill="rgba(0,0,0,1.000)" /><rect x="19" y="11" width="1.025" height="1.025" fill="rgba(0,0,0,1.000)" /><rect x="23" y="11" width="1.025" height="1.025" fill="rgba(0,0,0,1.000)" /><rect x="24" y="11" width="1.025" height="1.025" fill="rgba(0,0,0,1.000)" /><rect x="25" y="11" width="1.025" height="1.025" fill="rgba(0,0,0,1.000)" /><rect x="26" y="11" width="1.025" height="1.025" fill="rgba(0,0,0,1.000)" /><rect x="14" y="12" width="1.025" height="1.025" fill="rgba(0,0,0,1.000)" /><rect x="15" y="12" width="1.025" height="1.025" fill="rgba(187,50,220,1.000)" /><rect x="16" y="12" width="1.025" height="1.025" fill="rgba(234,48,255,1.000)" /><rect x="17" y="12" width="1.025" height="1.025" fill="rgba(234,48,255,1.000)" /><rect x="18" y="12" width="1.025" height="1.025" fill="rgba(236,51,255,1.000)" /><rect x="19" y="12" width="1.025" height="1.025" fill="rgba(255,81,250,1.000)" /><rect x="20" y="12" width="1.025" height="1.025" fill="rgba(0,0,0,1.000)" /><rect x="22" y="12" width="1.025" height="1.025" fill="rgba(0,0,0,1.000)" /><rect x="23" y="12" width="1.025" height="1.025" fill="rgba(242,77,255,1.000)" /><rect x="24" y="12" width="1.025" height="1.025" fill="rgba(255,79,251,1.000)" /><rect x="25" y="12" width="1.025" height="1.025" fill="rgba(255,79,251,1.000)" /><rect x="26" y="12" width="1.025" height="1.025" fill="rgba(242,77,255,1.000)" /><rect x="27" y="12" width="1.025" height="1.025" fill="rgba(0,0,0,1.000)" /><rect x="11" y="13" width="1.025" height="1.025" fill="rgba(0,0,0,1.000)" /><rect x="12" y="13" width="1.025" height="1.025" fill="rgba(0,0,0,1.000)" /><rect x="13" y="13" width="1.025" height="1.025" fill="rgba(0,0,0,1.000)" /><rect x="14" y="13" width="1.025" height="1.025" fill="rgba(0,0,0,1.000)" /><rect x="15" y="13" width="1.025" height="1.025" fill="rgba(187,50,220,1.000)" /><rect x="16" y="13" width="1.025" height="1.025" fill="rgba(234,48,255,1.000)" /><rect x="17" y="13" width="1.025" height="1.025" fill="rgba(234,48,255,1.000)" /><rect x="18" y="13" width="1.025" height="1.025" fill="rgba(234,48,255,1.000)" /><rect x="19" y="13" width="1.025" height="1.025" fill="rgba(234,48,255,1.000)" /><rect x="20" y="13" width="1.025" height="1.025" fill="rgba(0,0,0,1.000)" /><rect x="21" y="13" width="1.025" height="1.025" fill="rgba(0,0,0,1.000)" /><rect x="22" y="13" width="1.025" height="1.025" fill="rgba(0,0,0,1.000)" /><rect x="23" y="13" width="1.025" height="1.025" fill="rgba(242,77,255,1.000)" /><rect x="24" y="13" width="1.025" height="1.025" fill="rgba(242,77,255,1.000)" /><rect x="25" y="13" width="1.025" height="1.025" fill="rgba(242,77,255,1.000)" /><rect x="26" y="13" width="1.025" height="1.025" fill="rgba(255,79,251,1.000)" /><rect x="27" y="13" width="1.025" height="1.025" fill="rgba(0,0,0,1.000)" /><rect x="10" y="14" width="1.025" height="1.025" fill="rgba(0,0,0,1.000)" /><rect x="14" y="14" width="1.025" height="1.025" fill="rgba(0,0,0,1.000)" /><rect x="15" y="14" width="1.025" height="1.025" fill="rgba(187,50,220,1.000)" /><rect x="16" y="14" width="1.025" height="1.025" fill="rgba(234,48,255,1.000)" /><rect x="17" y="14" width="1.025" height="1.025" fill="rgba(234,48,255,1.000)" /><rect x="18" y="14" width="1.025" height="1.025" fill="rgba(234,48,255,1.000)" /><rect x="19" y="14" width="1.025" height="1.025" fill="rgba(234,48,255,1.000)" /><rect x="20" y="14" width="1.025" height="1.025" fill="rgba(0,0,0,1.000)" /><rect x="22" y="14" width="1.025" height="1.025" fill="rgba(0,0,0,1.000)" /><rect x="23" y="14" width="1.025" height="1.025" fill="rgba(242,77,255,1.000)" /><rect x="24" y="14" width="1.025" height="1.025" fill="rgba(242,77,255,1.000)" /><rect x="25" y="14" width="1.025" height="1.025" fill="rgba(242,77,255,1.000)" /><rect x="26" y="14" width="1.025" height="1.025" fill="rgba(255,79,251,1.000)" /><rect x="27" y="14" width="1.025" height="1.025" fill="rgba(0,0,0,1.000)" /><rect x="10" y="15" width="1.025" height="1.025" fill="rgba(0,0,0,1.000)" /><rect x="14" y="15" width="1.025" height="1.025" fill="rgba(0,0,0,1.000)" /><rect x="15" y="15" width="1.025" height="1.025" fill="rgba(250,80,255,1.000)" /><rect x="16" y="15" width="1.025" height="1.025" fill="rgba(234,48,255,1.000)" /><rect x="17" y="15" width="1.025" height="1.025" fill="rgba(234,48,255,1.000)" /><rect x="18" y="15" width="1.025" height="1.025" fill="rgba(255,81,250,1.000)" /><rect x="19" y="15" width="1.025" height="1.025" fill="rgba(255,81,250,1.000)" /><rect x="20" y="15" width="1.025" height="1.025" fill="rgba(0,0,0,1.000)" /><rect x="22" y="15" width="1.025" height="1.025" fill="rgba(0,0,0,1.000)" /><rect x="23" y="15" width="1.025" height="1.025" fill="rgba(255,152,250,1.000)" /><rect x="24" y="15" width="1.025" height="1.025" fill="rgba(255,152,250,1.000)" /><rect x="25" y="15" width="1.025" height="1.025" fill="rgba(255,152,250,1.000)" /><rect x="26" y="15" width="1.025" height="1.025" fill="rgba(255,78,253,1.000)" /><rect x="27" y="15" width="1.025" height="1.025" fill="rgba(0,0,0,1.000)" /><rect x="15" y="16" width="1.025" height="1.025" fill="rgba(0,0,0,1.000)" /><rect x="16" y="16" width="1.025" height="1.025" fill="rgba(0,0,0,1.000)" /><rect x="17" y="16" width="1.025" height="1.025" fill="rgba(0,0,0,1.000)" /><rect x="18" y="16" width="1.025" height="1.025" fill="rgba(0,0,0,1.000)" /><rect x="19" y="16" width="1.025" height="1.025" fill="rgba(0,0,0,1.000)" /><rect x="23" y="16" width="1.025" height="1.025" fill="rgba(0,0,0,1.000)" /><rect x="24" y="16" width="1.025" height="1.025" fill="rgba(0,0,0,1.000)" /><rect x="25" y="16" width="1.025" height="1.025" fill="rgba(0,0,0,1.000)" /><rect x="26" y="16" width="1.025" height="1.025" fill="rgba(0,0,0,1.000)" /></svg>