<svg shape-rendering="crispEdges" xmlns="http://www.w3.org/2000/svg" version="1.1" width="37" height="37"><style>rect { image-rendering: pixelated; }</style><rect x="15" y="11" width="1.025" height="1.025" fill="rgba(249,230,3,0.302)" /><rect x="16" y="11" width="1.025" height="1.025" fill="rgba(253,235,0,0.996)" /><rect x="17" y="11" width="1.025" height="1.025" fill="rgba(254,191,0,1.000)" /><rect x="20" y="11" width="1.025" height="1.025" fill="rgba(249,230,3,0.514)" /><rect x="21" y="11" width="1.025" height="1.025" fill="rgba(249,231,1,0.984)" /><rect x="22" y="11" width="1.025" height="1.025" fill="rgba(241,176,3,0.961)" /><rect x="14" y="12" width="1.025" height="1.025" fill="rgba(249,230,3,0.302)" /><rect x="15" y="12" width="1.025" height="1.025" fill="rgba(249,231,1,0.984)" /><rect x="16" y="12" width="1.025" height="1.025" fill="rgba(255,165,0,1.000)" /><rect x="17" y="12" width="1.025" height="1.025" fill="rgba(255,165,0,1.000)" /><rect x="19" y="12" width="1.025" height="1.025" fill="rgba(249,230,3,0.514)" /><rect x="20" y="12" width="1.025" height="1.025" fill="rgba(250,186,1,0.988)" /><rect x="21" y="12" width="1.025" height="1.025" fill="rgba(255,165,0,1.000)" /><rect x="22" y="12" width="1.025" height="1.025" fill="rgba(255,165,0,1.000)" /><rect x="15" y="13" width="1.025" height="1.025" fill="rgba(249,230,3,0.514)" /><rect x="16" y="13" width="1.025" height="1.025" fill="rgba(0,255,255,1.000)" /><rect x="17" y="13" width="1.025" height="1.025" fill="rgba(0,207,241,1.000)" /><rect x="20" y="13" width="1.025" height="1.025" fill="rgba(249,230,3,0.659)" /><rect x="21" y="13" width="1.025" height="1.025" fill="rgba(0,255,255,1.000)" /><rect x="22" y="13" width="1.025" height="1.025" fill="rgba(0,207,241,1.000)" /><rect x="16" y="14" width="1.025" height="1.025" fill="rgba(0,0,0,0.439)" /><rect x="21" y="14" width="1.025" height="1.025" fill="rgba(0,0,0,0.439)" /></svg>