<svg shape-rendering="crispEdges" xmlns="http://www.w3.org/2000/svg" version="1.1" width="37" height="37"><style>rect { image-rendering: pixelated; }</style><rect x="12" y="13" width="1.025" height="1.025" fill="rgba(17,17,15,1.000)" /><rect x="13" y="13" width="1.025" height="1.025" fill="rgba(17,17,15,1.000)" /><rect x="14" y="13" width="1.025" height="1.025" fill="rgba(17,17,15,1.000)" /><rect x="15" y="13" width="1.025" height="1.025" fill="rgba(198,142,0,1.000)" /><rect x="16" y="13" width="1.025" height="1.025" fill="rgba(0,0,0,1.000)" /><rect x="17" y="13" width="1.025" height="1.025" fill="rgba(63,65,62,1.000)" /><rect x="18" y="13" width="1.025" height="1.025" fill="rgba(26,26,26,1.000)" /><rect x="19" y="13" width="1.025" height="1.025" fill="rgba(15,15,15,1.000)" /><rect x="20" y="13" width="1.025" height="1.025" fill="rgba(0,2,1,1.000)" /><rect x="21" y="13" width="1.025" height="1.025" fill="rgba(242,175,0,1.000)" /><rect x="22" y="13" width="1.025" height="1.025" fill="rgba(28,26,29,1.000)" /><rect x="23" y="13" width="1.025" height="1.025" fill="rgba(66,65,63,1.000)" /><rect x="24" y="13" width="1.025" height="1.025" fill="rgba(28,26,27,1.000)" /><rect x="25" y="13" width="1.025" height="1.025" fill="rgba(15,13,14,1.000)" /><rect x="26" y="13" width="1.025" height="1.025" fill="rgba(27,27,27,1.000)" /><rect x="11" y="14" width="1.025" height="1.025" fill="rgba(17,17,15,1.000)" /><rect x="12" y="14" width="1.025" height="1.025" fill="rgba(39,33,30,1.000)" /><rect x="13" y="14" width="1.025" height="1.025" fill="rgba(39,33,30,1.000)" /><rect x="14" y="14" width="1.025" height="1.025" fill="rgba(39,33,30,1.000)" /><rect x="15" y="14" width="1.025" height="1.025" fill="rgba(242,175,0,1.000)" /><rect x="16" y="14" width="1.025" height="1.025" fill="rgba(0,0,0,1.000)" /><rect x="17" y="14" width="1.025" height="1.025" fill="rgba(26,26,26,1.000)" /><rect x="18" y="14" width="1.025" height="1.025" fill="rgba(64,64,64,1.000)" /><rect x="19" y="14" width="1.025" height="1.025" fill="rgba(26,26,26,1.000)" /><rect x="20" y="14" width="1.025" height="1.025" fill="rgba(14,16,15,1.000)" /><rect x="22" y="14" width="1.025" height="1.025" fill="rgba(16,16,16,1.000)" /><rect x="23" y="14" width="1.025" height="1.025" fill="rgba(29,29,29,1.000)" /><rect x="24" y="14" width="1.025" height="1.025" fill="rgba(62,62,62,1.000)" /><rect x="25" y="14" width="1.025" height="1.025" fill="rgba(27,27,27,1.000)" /><rect x="26" y="14" width="1.025" height="1.025" fill="rgba(16,16,16,1.000)" /><rect x="11" y="15" width="1.025" height="1.025" fill="rgba(17,17,15,1.000)" /><rect x="16" y="15" width="1.025" height="1.025" fill="rgba(17,17,17,1.000)" /><rect x="17" y="15" width="1.025" height="1.025" fill="rgba(17,17,17,1.000)" /><rect x="18" y="15" width="1.025" height="1.025" fill="rgba(26,26,26,1.000)" /><rect x="19" y="15" width="1.025" height="1.025" fill="rgba(64,64,64,1.000)" /><rect x="20" y="15" width="1.025" height="1.025" fill="rgba(25,25,25,1.000)" /><rect x="22" y="15" width="1.025" height="1.025" fill="rgba(0,0,0,1.000)" /><rect x="23" y="15" width="1.025" height="1.025" fill="rgba(16,16,16,1.000)" /><rect x="24" y="15" width="1.025" height="1.025" fill="rgba(26,26,26,1.000)" /><rect x="25" y="15" width="1.025" height="1.025" fill="rgba(66,66,66,1.000)" /><rect x="26" y="15" width="1.025" height="1.025" fill="rgba(27,27,27,1.000)" /><rect x="17" y="16" width="1.025" height="1.025" fill="rgba(2,1,0,1.000)" /><rect x="18" y="16" width="1.025" height="1.025" fill="rgba(16,16,16,1.000)" /><rect x="19" y="16" width="1.025" height="1.025" fill="rgba(25,25,25,1.000)" /><rect x="23" y="16" width="1.025" height="1.025" fill="rgba(2,1,0,1.000)" /><rect x="24" y="16" width="1.025" height="1.025" fill="rgba(16,16,14,1.000)" /><rect x="25" y="16" width="1.025" height="1.025" fill="rgba(27,27,27,1.000)" /></svg>