<svg shape-rendering="crispEdges" xmlns="http://www.w3.org/2000/svg" version="1.1" width="37" height="37"><style>rect { image-rendering: pixelated; }</style><rect x="11" y="2" width="1.025" height="1.025" fill="rgba(219,0,167,1.000)" /><rect x="12" y="2" width="1.025" height="1.025" fill="rgba(255,2,179,1.000)" /><rect x="23" y="2" width="1.025" height="1.025" fill="rgba(219,0,167,1.000)" /><rect x="24" y="2" width="1.025" height="1.025" fill="rgba(255,2,179,1.000)" /><rect x="11" y="3" width="1.025" height="1.025" fill="rgba(219,0,167,1.000)" /><rect x="12" y="3" width="1.025" height="1.025" fill="rgba(219,0,167,1.000)" /><rect x="13" y="3" width="1.025" height="1.025" fill="rgba(255,2,179,1.000)" /><rect x="22" y="3" width="1.025" height="1.025" fill="rgba(219,0,167,1.000)" /><rect x="23" y="3" width="1.025" height="1.025" fill="rgba(255,2,179,1.000)" /><rect x="24" y="3" width="1.025" height="1.025" fill="rgba(255,2,179,1.000)" /><rect x="11" y="4" width="1.025" height="1.025" fill="rgba(219,0,167,1.000)" /><rect x="12" y="4" width="1.025" height="1.025" fill="rgba(255,2,179,1.000)" /><rect x="13" y="4" width="1.025" height="1.025" fill="rgba(219,0,167,1.000)" /><rect x="14" y="4" width="1.025" height="1.025" fill="rgba(255,2,179,1.000)" /><rect x="21" y="4" width="1.025" height="1.025" fill="rgba(219,0,167,1.000)" /><rect x="22" y="4" width="1.025" height="1.025" fill="rgba(255,2,179,1.000)" /><rect x="23" y="4" width="1.025" height="1.025" fill="rgba(219,0,167,1.000)" /><rect x="24" y="4" width="1.025" height="1.025" fill="rgba(255,2,179,1.000)" /><rect x="11" y="5" width="1.025" height="1.025" fill="rgba(219,0,167,1.000)" /><rect x="12" y="5" width="1.025" height="1.025" fill="rgba(255,2,179,1.000)" /><rect x="13" y="5" width="1.025" height="1.025" fill="rgba(219,0,167,1.000)" /><rect x="14" y="5" width="1.025" height="1.025" fill="rgba(219,0,167,1.000)" /><rect x="15" y="5" width="1.025" height="1.025" fill="rgba(219,0,167,1.000)" /><rect x="16" y="5" width="1.025" height="1.025" fill="rgba(219,0,167,1.000)" /><rect x="17" y="5" width="1.025" height="1.025" fill="rgba(226,0,169,1.000)" /><rect x="18" y="5" width="1.025" height="1.025" fill="rgba(219,0,167,1.000)" /><rect x="19" y="5" width="1.025" height="1.025" fill="rgba(219,0,167,1.000)" /><rect x="20" y="5" width="1.025" height="1.025" fill="rgba(226,0,169,1.000)" /><rect x="21" y="5" width="1.025" height="1.025" fill="rgba(255,2,179,1.000)" /><rect x="22" y="5" width="1.025" height="1.025" fill="rgba(219,0,167,1.000)" /><rect x="23" y="5" width="1.025" height="1.025" fill="rgba(219,0,167,1.000)" /><rect x="24" y="5" width="1.025" height="1.025" fill="rgba(255,2,179,1.000)" /><rect x="11" y="6" width="1.025" height="1.025" fill="rgba(219,0,167,1.000)" /><rect x="12" y="6" width="1.025" height="1.025" fill="rgba(255,2,179,1.000)" /><rect x="13" y="6" width="1.025" height="1.025" fill="rgba(255,2,179,1.000)" /><rect x="14" y="6" width="1.025" height="1.025" fill="rgba(255,2,179,1.000)" /><rect x="15" y="6" width="1.025" height="1.025" fill="rgba(255,2,179,1.000)" /><rect x="23" y="6" width="1.025" height="1.025" fill="rgba(255,2,179,1.000)" /><rect x="24" y="6" width="1.025" height="1.025" fill="rgba(255,2,179,1.000)" /><rect x="11" y="7" width="1.025" height="1.025" fill="rgba(219,0,167,1.000)" /><rect x="12" y="7" width="1.025" height="1.025" fill="rgba(255,2,179,1.000)" /><rect x="13" y="7" width="1.025" height="1.025" fill="rgba(255,2,179,1.000)" /><rect x="24" y="7" width="1.025" height="1.025" fill="rgba(255,2,179,1.000)" /><rect x="11" y="8" width="1.025" height="1.025" fill="rgba(219,0,167,1.000)" /><rect x="12" y="8" width="1.025" height="1.025" fill="rgba(255,2,179,1.000)" /><rect x="13" y="8" width="1.025" height="1.025" fill="rgba(219,0,167,0.102)" /><rect x="11" y="9" width="1.025" height="1.025" fill="rgba(219,0,167,1.000)" /><rect x="12" y="9" width="1.025" height="1.025" fill="rgba(255,2,179,1.000)" /><rect x="24" y="9" width="1.025" height="1.025" fill="rgba(91,14,71,1.000)" /><rect x="25" y="9" width="1.025" height="1.025" fill="rgba(255,23,196,1.000)" /><rect x="11" y="10" width="1.025" height="1.025" fill="rgba(219,0,167,1.000)" /><rect x="12" y="10" width="1.025" height="1.025" fill="rgba(255,2,179,1.000)" /><rect x="24" y="10" width="1.025" height="1.025" fill="rgba(91,14,71,1.000)" /><rect x="25" y="10" width="1.025" height="1.025" fill="rgba(255,23,196,1.000)" /><rect x="11" y="11" width="1.025" height="1.025" fill="rgba(219,0,167,1.000)" /><rect x="12" y="11" width="1.025" height="1.025" fill="rgba(255,2,179,1.000)" /><rect x="24" y="11" width="1.025" height="1.025" fill="rgba(143,0,107,1.000)" /><rect x="25" y="11" width="1.025" height="1.025" fill="rgba(255,23,196,1.000)" /><rect x="10" y="12" width="1.025" height="1.025" fill="rgba(255,0,184,1.000)" /><rect x="11" y="12" width="1.025" height="1.025" fill="rgba(255,5,184,1.000)" /><rect x="12" y="12" width="1.025" height="1.025" fill="rgba(255,23,196,1.000)" /><rect x="13" y="12" width="1.025" height="1.025" fill="rgba(219,0,167,1.000)" /><rect x="24" y="12" width="1.025" height="1.025" fill="rgba(171,1,127,1.000)" /><rect x="25" y="12" width="1.025" height="1.025" fill="rgba(219,0,167,1.000)" /><rect x="9" y="13" width="1.025" height="1.025" fill="rgba(255,7,184,1.000)" /><rect x="10" y="13" width="1.025" height="1.025" fill="rgba(255,14,178,1.000)" /><rect x="11" y="13" width="1.025" height="1.025" fill="rgba(255,23,181,1.000)" /><rect x="12" y="13" width="1.025" height="1.025" fill="rgba(255,53,190,1.000)" /><rect x="13" y="13" width="1.025" height="1.025" fill="rgba(255,7,191,1.000)" /><rect x="14" y="13" width="1.025" height="1.025" fill="rgba(228,0,155,1.000)" /><rect x="25" y="13" width="1.025" height="1.025" fill="rgba(228,0,155,1.000)" /><rect x="26" y="13" width="1.025" height="1.025" fill="rgba(255,7,191,1.000)" /><rect x="9" y="14" width="1.025" height="1.025" fill="rgba(255,11,184,1.000)" /><rect x="10" y="14" width="1.025" height="1.025" fill="rgba(255,16,178,1.000)" /><rect x="11" y="14" width="1.025" height="1.025" fill="rgba(255,16,178,1.000)" /><rect x="12" y="14" width="1.025" height="1.025" fill="rgba(255,33,184,1.000)" /><rect x="13" y="14" width="1.025" height="1.025" fill="rgba(255,9,192,1.000)" /><rect x="14" y="14" width="1.025" height="1.025" fill="rgba(219,0,153,1.000)" /><rect x="25" y="14" width="1.025" height="1.025" fill="rgba(219,0,153,1.000)" /><rect x="26" y="14" width="1.025" height="1.025" fill="rgba(255,9,192,1.000)" /><rect x="9" y="15" width="1.025" height="1.025" fill="rgba(255,2,179,1.000)" /><rect x="10" y="15" width="1.025" height="1.025" fill="rgba(255,19,179,1.000)" /><rect x="11" y="15" width="1.025" height="1.025" fill="rgba(255,16,178,1.000)" /><rect x="12" y="15" width="1.025" height="1.025" fill="rgba(255,16,178,1.000)" /><rect x="13" y="15" width="1.025" height="1.025" fill="rgba(255,11,192,1.000)" /><rect x="14" y="15" width="1.025" height="1.025" fill="rgba(229,0,156,1.000)" /><rect x="25" y="15" width="1.025" height="1.025" fill="rgba(229,0,156,1.000)" /><rect x="26" y="15" width="1.025" height="1.025" fill="rgba(255,11,192,1.000)" /><rect x="9" y="16" width="1.025" height="1.025" fill="rgba(255,2,179,1.000)" /><rect x="10" y="16" width="1.025" height="1.025" fill="rgba(255,21,180,1.000)" /><rect x="11" y="16" width="1.025" height="1.025" fill="rgba(255,16,178,1.000)" /><rect x="12" y="16" width="1.025" height="1.025" fill="rgba(255,16,178,1.000)" /><rect x="13" y="16" width="1.025" height="1.025" fill="rgba(255,8,191,1.000)" /><rect x="14" y="16" width="1.025" height="1.025" fill="rgba(225,0,153,1.000)" /><rect x="25" y="16" width="1.025" height="1.025" fill="rgba(225,0,153,1.000)" /><rect x="26" y="16" width="1.025" height="1.025" fill="rgba(255,8,191,1.000)" /><rect x="9" y="17" width="1.025" height="1.025" fill="rgba(255,8,183,1.000)" /><rect x="10" y="17" width="1.025" height="1.025" fill="rgba(255,17,179,1.000)" /><rect x="11" y="17" width="1.025" height="1.025" fill="rgba(255,32,184,1.000)" /><rect x="12" y="17" width="1.025" height="1.025" fill="rgba(255,33,184,1.000)" /><rect x="13" y="17" width="1.025" height="1.025" fill="rgba(249,0,187,1.000)" /><rect x="14" y="17" width="1.025" height="1.025" fill="rgba(203,0,138,1.000)" /><rect x="25" y="17" width="1.025" height="1.025" fill="rgba(203,0,138,1.000)" /><rect x="26" y="17" width="1.025" height="1.025" fill="rgba(249,0,187,1.000)" /><rect x="10" y="18" width="1.025" height="1.025" fill="rgba(255,5,180,1.000)" /><rect x="11" y="18" width="1.025" height="1.025" fill="rgba(255,17,179,1.000)" /><rect x="12" y="18" width="1.025" height="1.025" fill="rgba(255,6,192,1.000)" /><rect x="13" y="18" width="1.025" height="1.025" fill="rgba(205,0,139,1.000)" /><rect x="25" y="18" width="1.025" height="1.025" fill="rgba(205,0,139,1.000)" /></svg>