<svg shape-rendering="crispEdges" xmlns="http://www.w3.org/2000/svg" version="1.1" width="37" height="37"><style>rect { image-rendering: pixelated; }</style><rect x="15" y="4" width="1.025" height="1.025" fill="rgba(224,224,0,1.000)" /><rect x="16" y="4" width="1.025" height="1.025" fill="rgba(224,224,0,1.000)" /><rect x="17" y="4" width="1.025" height="1.025" fill="rgba(224,224,0,1.000)" /><rect x="18" y="4" width="1.025" height="1.025" fill="rgba(224,224,0,1.000)" /><rect x="19" y="4" width="1.025" height="1.025" fill="rgba(0,248,253,1.000)" /><rect x="20" y="4" width="1.025" height="1.025" fill="rgba(0,248,253,1.000)" /><rect x="21" y="4" width="1.025" height="1.025" fill="rgba(0,248,253,1.000)" /><rect x="22" y="4" width="1.025" height="1.025" fill="rgba(0,248,253,1.000)" /><rect x="23" y="4" width="1.025" height="1.025" fill="rgba(0,248,253,1.000)" /><rect x="14" y="5" width="1.025" height="1.025" fill="rgba(224,224,0,1.000)" /><rect x="15" y="5" width="1.025" height="1.025" fill="rgba(224,224,0,1.000)" /><rect x="16" y="5" width="1.025" height="1.025" fill="rgba(224,224,0,1.000)" /><rect x="17" y="5" width="1.025" height="1.025" fill="rgba(224,224,0,1.000)" /><rect x="18" y="5" width="1.025" height="1.025" fill="rgba(0,248,253,1.000)" /><rect x="19" y="5" width="1.025" height="1.025" fill="rgba(0,248,253,1.000)" /><rect x="20" y="5" width="1.025" height="1.025" fill="rgba(0,248,253,1.000)" /><rect x="21" y="5" width="1.025" height="1.025" fill="rgba(0,248,253,1.000)" /><rect x="22" y="5" width="1.025" height="1.025" fill="rgba(0,248,253,1.000)" /><rect x="23" y="5" width="1.025" height="1.025" fill="rgba(0,248,253,1.000)" /><rect x="24" y="5" width="1.025" height="1.025" fill="rgba(0,248,253,1.000)" /><rect x="13" y="6" width="1.025" height="1.025" fill="rgba(161,149,64,1.000)" /><rect x="14" y="6" width="1.025" height="1.025" fill="rgba(224,224,0,1.000)" /><rect x="15" y="6" width="1.025" height="1.025" fill="rgba(224,224,0,1.000)" /><rect x="16" y="6" width="1.025" height="1.025" fill="rgba(224,224,0,1.000)" /><rect x="17" y="6" width="1.025" height="1.025" fill="rgba(224,224,0,1.000)" /><rect x="18" y="6" width="1.025" height="1.025" fill="rgba(0,248,253,1.000)" /><rect x="19" y="6" width="1.025" height="1.025" fill="rgba(0,248,253,1.000)" /><rect x="20" y="6" width="1.025" height="1.025" fill="rgba(0,248,253,1.000)" /><rect x="21" y="6" width="1.025" height="1.025" fill="rgba(0,248,253,1.000)" /><rect x="22" y="6" width="1.025" height="1.025" fill="rgba(0,248,253,1.000)" /><rect x="23" y="6" width="1.025" height="1.025" fill="rgba(0,248,253,1.000)" /><rect x="24" y="6" width="1.025" height="1.025" fill="rgba(0,248,253,1.000)" /><rect x="13" y="7" width="1.025" height="1.025" fill="rgba(161,149,64,1.000)" /><rect x="14" y="7" width="1.025" height="1.025" fill="rgba(224,224,0,1.000)" /><rect x="15" y="7" width="1.025" height="1.025" fill="rgba(224,224,0,1.000)" /><rect x="16" y="7" width="1.025" height="1.025" fill="rgba(224,224,0,1.000)" /><rect x="17" y="7" width="1.025" height="1.025" fill="rgba(224,224,0,1.000)" /><rect x="18" y="7" width="1.025" height="1.025" fill="rgba(0,248,253,1.000)" /><rect x="19" y="7" width="1.025" height="1.025" fill="rgba(0,248,253,1.000)" /><rect x="20" y="7" width="1.025" height="1.025" fill="rgba(0,248,253,1.000)" /><rect x="21" y="7" width="1.025" height="1.025" fill="rgba(0,248,253,1.000)" /><rect x="22" y="7" width="1.025" height="1.025" fill="rgba(0,248,253,1.000)" /><rect x="23" y="7" width="1.025" height="1.025" fill="rgba(0,248,253,1.000)" /><rect x="24" y="7" width="1.025" height="1.025" fill="rgba(0,248,253,1.000)" /><rect x="25" y="7" width="1.025" height="1.025" fill="rgba(0,248,253,1.000)" /><rect x="12" y="8" width="1.025" height="1.025" fill="rgba(161,149,64,1.000)" /><rect x="13" y="8" width="1.025" height="1.025" fill="rgba(161,149,64,1.000)" /><rect x="14" y="8" width="1.025" height="1.025" fill="rgba(224,224,0,1.000)" /><rect x="15" y="8" width="1.025" height="1.025" fill="rgba(224,224,0,1.000)" /><rect x="16" y="8" width="1.025" height="1.025" fill="rgba(224,224,0,1.000)" /><rect x="17" y="8" width="1.025" height="1.025" fill="rgba(224,224,0,1.000)" /><rect x="18" y="8" width="1.025" height="1.025" fill="rgba(0,248,253,1.000)" /><rect x="19" y="8" width="1.025" height="1.025" fill="rgba(0,248,253,1.000)" /><rect x="20" y="8" width="1.025" height="1.025" fill="rgba(0,248,253,1.000)" /><rect x="21" y="8" width="1.025" height="1.025" fill="rgba(0,248,253,1.000)" /><rect x="22" y="8" width="1.025" height="1.025" fill="rgba(0,248,253,1.000)" /><rect x="23" y="8" width="1.025" height="1.025" fill="rgba(0,248,253,1.000)" /><rect x="24" y="8" width="1.025" height="1.025" fill="rgba(0,248,253,1.000)" /><rect x="25" y="8" width="1.025" height="1.025" fill="rgba(0,248,253,1.000)" /><rect x="12" y="9" width="1.025" height="1.025" fill="rgba(161,149,64,1.000)" /><rect x="13" y="9" width="1.025" height="1.025" fill="rgba(161,149,64,1.000)" /><rect x="14" y="9" width="1.025" height="1.025" fill="rgba(224,224,0,1.000)" /><rect x="15" y="9" width="1.025" height="1.025" fill="rgba(224,224,0,1.000)" /><rect x="16" y="9" width="1.025" height="1.025" fill="rgba(224,224,0,1.000)" /><rect x="17" y="9" width="1.025" height="1.025" fill="rgba(224,224,0,1.000)" /><rect x="18" y="9" width="1.025" height="1.025" fill="rgba(0,220,224,1.000)" /><rect x="19" y="9" width="1.025" height="1.025" fill="rgba(0,248,253,1.000)" /><rect x="20" y="9" width="1.025" height="1.025" fill="rgba(0,220,224,1.000)" /><rect x="21" y="9" width="1.025" height="1.025" fill="rgba(40,177,172,1.000)" /><rect x="22" y="9" width="1.025" height="1.025" fill="rgba(40,177,172,1.000)" /><rect x="23" y="9" width="1.025" height="1.025" fill="rgba(40,177,172,1.000)" /><rect x="24" y="9" width="1.025" height="1.025" fill="rgba(40,177,172,1.000)" /><rect x="25" y="9" width="1.025" height="1.025" fill="rgba(40,177,172,1.000)" /><rect x="26" y="9" width="1.025" height="1.025" fill="rgba(40,177,172,1.000)" /><rect x="27" y="9" width="1.025" height="1.025" fill="rgba(40,177,172,1.000)" /><rect x="28" y="9" width="1.025" height="1.025" fill="rgba(40,177,172,1.000)" /><rect x="12" y="10" width="1.025" height="1.025" fill="rgba(161,149,64,1.000)" /><rect x="13" y="10" width="1.025" height="1.025" fill="rgba(161,149,64,1.000)" /><rect x="14" y="10" width="1.025" height="1.025" fill="rgba(161,149,64,1.000)" /><rect x="15" y="10" width="1.025" height="1.025" fill="rgba(161,149,64,1.000)" /><rect x="16" y="10" width="1.025" height="1.025" fill="rgba(224,224,0,1.000)" /><rect x="17" y="10" width="1.025" height="1.025" fill="rgba(224,224,0,1.000)" /><rect x="18" y="10" width="1.025" height="1.025" fill="rgba(0,220,224,1.000)" /><rect x="19" y="10" width="1.025" height="1.025" fill="rgba(0,233,238,1.000)" /><rect x="20" y="10" width="1.025" height="1.025" fill="rgba(0,233,238,1.000)" /><rect x="21" y="10" width="1.025" height="1.025" fill="rgba(0,233,238,1.000)" /><rect x="22" y="10" width="1.025" height="1.025" fill="rgba(0,233,238,1.000)" /><rect x="23" y="10" width="1.025" height="1.025" fill="rgba(0,233,238,1.000)" /><rect x="24" y="10" width="1.025" height="1.025" fill="rgba(0,233,238,1.000)" /><rect x="25" y="10" width="1.025" height="1.025" fill="rgba(0,233,238,1.000)" /><rect x="26" y="10" width="1.025" height="1.025" fill="rgba(0,233,238,1.000)" /><rect x="27" y="10" width="1.025" height="1.025" fill="rgba(0,233,238,1.000)" /><rect x="28" y="10" width="1.025" height="1.025" fill="rgba(0,233,238,1.000)" /><rect x="29" y="10" width="1.025" height="1.025" fill="rgba(0,233,238,1.000)" /></svg>