<svg shape-rendering="crispEdges" xmlns="http://www.w3.org/2000/svg" version="1.1" width="37" height="37"><style>rect { image-rendering: pixelated; }</style><rect x="14" y="5" width="1.025" height="1.025" fill="rgba(211,211,211,1.000)" /><rect x="15" y="5" width="1.025" height="1.025" fill="rgba(211,211,211,1.000)" /><rect x="16" y="5" width="1.025" height="1.025" fill="rgba(211,211,211,1.000)" /><rect x="17" y="5" width="1.025" height="1.025" fill="rgba(211,211,211,1.000)" /><rect x="18" y="5" width="1.025" height="1.025" fill="rgba(211,211,211,1.000)" /><rect x="19" y="5" width="1.025" height="1.025" fill="rgba(219,219,219,1.000)" /><rect x="20" y="5" width="1.025" height="1.025" fill="rgba(211,211,211,1.000)" /><rect x="21" y="5" width="1.025" height="1.025" fill="rgba(219,219,219,1.000)" /><rect x="22" y="5" width="1.025" height="1.025" fill="rgba(223,223,223,1.000)" /><rect x="13" y="6" width="1.025" height="1.025" fill="rgba(211,211,211,1.000)" /><rect x="14" y="6" width="1.025" height="1.025" fill="rgba(235,235,235,1.000)" /><rect x="15" y="6" width="1.025" height="1.025" fill="rgba(235,235,235,1.000)" /><rect x="16" y="6" width="1.025" height="1.025" fill="rgba(235,235,235,1.000)" /><rect x="17" y="6" width="1.025" height="1.025" fill="rgba(235,235,235,1.000)" /><rect x="18" y="6" width="1.025" height="1.025" fill="rgba(235,235,235,1.000)" /><rect x="19" y="6" width="1.025" height="1.025" fill="rgba(235,235,235,1.000)" /><rect x="20" y="6" width="1.025" height="1.025" fill="rgba(235,235,235,1.000)" /><rect x="21" y="6" width="1.025" height="1.025" fill="rgba(235,235,235,1.000)" /><rect x="22" y="6" width="1.025" height="1.025" fill="rgba(235,235,235,1.000)" /><rect x="23" y="6" width="1.025" height="1.025" fill="rgba(227,227,227,1.000)" /><rect x="12" y="7" width="1.025" height="1.025" fill="rgba(211,211,211,1.000)" /><rect x="13" y="7" width="1.025" height="1.025" fill="rgba(235,235,235,1.000)" /><rect x="23" y="7" width="1.025" height="1.025" fill="rgba(235,235,235,1.000)" /><rect x="11" y="8" width="1.025" height="1.025" fill="rgba(198,198,198,1.000)" /><rect x="12" y="8" width="1.025" height="1.025" fill="rgba(235,235,235,1.000)" /><rect x="11" y="9" width="1.025" height="1.025" fill="rgba(198,198,198,1.000)" /><rect x="11" y="10" width="1.025" height="1.025" fill="rgba(211,211,211,1.000)" /><rect x="11" y="11" width="1.025" height="1.025" fill="rgba(211,211,211,1.000)" /><rect x="11" y="12" width="1.025" height="1.025" fill="rgba(211,211,211,1.000)" /><rect x="11" y="13" width="1.025" height="1.025" fill="rgba(222,222,222,1.000)" /></svg>