<svg shape-rendering="crispEdges" xmlns="http://www.w3.org/2000/svg" version="1.1" width="37" height="37"><style>rect { image-rendering: pixelated; }</style><rect x="12" y="8" width="1.025" height="1.025" fill="rgba(91,0,92,1.000)" /><rect x="13" y="8" width="1.025" height="1.025" fill="rgba(91,0,92,1.000)" /><rect x="14" y="8" width="1.025" height="1.025" fill="rgba(91,0,92,1.000)" /><rect x="15" y="8" width="1.025" height="1.025" fill="rgba(146,0,145,1.000)" /><rect x="16" y="8" width="1.025" height="1.025" fill="rgba(146,0,145,1.000)" /><rect x="17" y="8" width="1.025" height="1.025" fill="rgba(146,0,145,1.000)" /><rect x="18" y="8" width="1.025" height="1.025" fill="rgba(181,0,190,1.000)" /><rect x="19" y="8" width="1.025" height="1.025" fill="rgba(181,0,190,1.000)" /><rect x="20" y="8" width="1.025" height="1.025" fill="rgba(181,0,190,1.000)" /><rect x="21" y="8" width="1.025" height="1.025" fill="rgba(181,0,190,1.000)" /><rect x="22" y="8" width="1.025" height="1.025" fill="rgba(146,0,147,1.000)" /><rect x="23" y="8" width="1.025" height="1.025" fill="rgba(146,0,147,1.000)" /><rect x="24" y="8" width="1.025" height="1.025" fill="rgba(111,0,111,1.000)" /><rect x="25" y="8" width="1.025" height="1.025" fill="rgba(111,0,111,1.000)" /><rect x="12" y="9" width="1.025" height="1.025" fill="rgba(255,109,252,1.000)" /><rect x="13" y="9" width="1.025" height="1.025" fill="rgba(255,123,251,1.000)" /><rect x="14" y="9" width="1.025" height="1.025" fill="rgba(255,123,251,1.000)" /><rect x="15" y="9" width="1.025" height="1.025" fill="rgba(245,237,255,1.000)" /><rect x="16" y="9" width="1.025" height="1.025" fill="rgba(245,237,255,1.000)" /><rect x="17" y="9" width="1.025" height="1.025" fill="rgba(245,237,255,1.000)" /><rect x="18" y="9" width="1.025" height="1.025" fill="rgba(245,237,255,1.000)" /><rect x="19" y="9" width="1.025" height="1.025" fill="rgba(249,245,255,1.000)" /><rect x="20" y="9" width="1.025" height="1.025" fill="rgba(249,245,255,1.000)" /><rect x="21" y="9" width="1.025" height="1.025" fill="rgba(249,245,255,1.000)" /><rect x="22" y="9" width="1.025" height="1.025" fill="rgba(249,245,255,1.000)" /><rect x="23" y="9" width="1.025" height="1.025" fill="rgba(245,237,255,1.000)" /><rect x="24" y="9" width="1.025" height="1.025" fill="rgba(245,237,255,1.000)" /><rect x="25" y="9" width="1.025" height="1.025" fill="rgba(255,124,252,1.000)" /><rect x="11" y="10" width="1.025" height="1.025" fill="rgba(89,0,90,1.000)" /><rect x="12" y="10" width="1.025" height="1.025" fill="rgba(255,109,252,1.000)" /><rect x="13" y="10" width="1.025" height="1.025" fill="rgba(255,123,251,1.000)" /><rect x="14" y="10" width="1.025" height="1.025" fill="rgba(255,123,251,1.000)" /><rect x="15" y="10" width="1.025" height="1.025" fill="rgba(245,237,255,1.000)" /><rect x="16" y="10" width="1.025" height="1.025" fill="rgba(245,237,255,1.000)" /><rect x="17" y="10" width="1.025" height="1.025" fill="rgba(245,237,255,1.000)" /><rect x="18" y="10" width="1.025" height="1.025" fill="rgba(245,237,255,1.000)" /><rect x="19" y="10" width="1.025" height="1.025" fill="rgba(249,245,255,1.000)" /><rect x="20" y="10" width="1.025" height="1.025" fill="rgba(249,245,255,1.000)" /><rect x="21" y="10" width="1.025" height="1.025" fill="rgba(249,245,255,1.000)" /><rect x="22" y="10" width="1.025" height="1.025" fill="rgba(249,245,255,1.000)" /><rect x="23" y="10" width="1.025" height="1.025" fill="rgba(245,237,255,1.000)" /><rect x="24" y="10" width="1.025" height="1.025" fill="rgba(245,237,255,1.000)" /><rect x="25" y="10" width="1.025" height="1.025" fill="rgba(255,124,252,1.000)" /><rect x="8" y="11" width="1.025" height="1.025" fill="rgba(146,0,147,1.000)" /><rect x="9" y="11" width="1.025" height="1.025" fill="rgba(146,0,147,1.000)" /><rect x="10" y="11" width="1.025" height="1.025" fill="rgba(89,0,90,1.000)" /><rect x="11" y="11" width="1.025" height="1.025" fill="rgba(89,0,90,1.000)" /><rect x="12" y="11" width="1.025" height="1.025" fill="rgba(110,0,112,1.000)" /><rect x="13" y="11" width="1.025" height="1.025" fill="rgba(110,0,112,1.000)" /><rect x="14" y="11" width="1.025" height="1.025" fill="rgba(110,0,112,1.000)" /><rect x="15" y="11" width="1.025" height="1.025" fill="rgba(144,0,146,1.000)" /><rect x="16" y="11" width="1.025" height="1.025" fill="rgba(144,0,146,1.000)" /><rect x="17" y="11" width="1.025" height="1.025" fill="rgba(144,0,146,1.000)" /><rect x="18" y="11" width="1.025" height="1.025" fill="rgba(181,0,190,1.000)" /><rect x="19" y="11" width="1.025" height="1.025" fill="rgba(181,0,190,1.000)" /><rect x="20" y="11" width="1.025" height="1.025" fill="rgba(181,0,190,1.000)" /><rect x="21" y="11" width="1.025" height="1.025" fill="rgba(181,0,190,1.000)" /><rect x="22" y="11" width="1.025" height="1.025" fill="rgba(146,0,147,1.000)" /><rect x="23" y="11" width="1.025" height="1.025" fill="rgba(146,0,147,1.000)" /><rect x="24" y="11" width="1.025" height="1.025" fill="rgba(111,0,111,1.000)" /><rect x="25" y="11" width="1.025" height="1.025" fill="rgba(111,0,111,1.000)" /><rect x="9" y="12" width="1.025" height="1.025" fill="rgba(110,0,112,1.000)" /><rect x="10" y="12" width="1.025" height="1.025" fill="rgba(110,0,112,1.000)" /><rect x="8" y="13" width="1.025" height="1.025" fill="rgba(144,0,146,1.000)" /><rect x="9" y="13" width="1.025" height="1.025" fill="rgba(110,0,112,1.000)" /><rect x="7" y="14" width="1.025" height="1.025" fill="rgba(89,0,90,1.000)" /><rect x="8" y="14" width="1.025" height="1.025" fill="rgba(144,0,146,1.000)" /><rect x="9" y="14" width="1.025" height="1.025" fill="rgba(110,0,112,1.000)" /><rect x="6" y="15" width="1.025" height="1.025" fill="rgba(89,0,90,1.000)" /><rect x="7" y="15" width="1.025" height="1.025" fill="rgba(89,0,90,1.000)" /><rect x="6" y="16" width="1.025" height="1.025" fill="rgba(89,0,90,1.000)" /></svg>