<svg shape-rendering="crispEdges" xmlns="http://www.w3.org/2000/svg" version="1.1" width="37" height="37"><style>rect { image-rendering: pixelated; }</style><rect x="14" y="2" width="1.025" height="1.025" fill="rgba(23,23,23,1.000)" /><rect x="15" y="2" width="1.025" height="1.025" fill="rgba(28,28,28,1.000)" /><rect x="16" y="2" width="1.025" height="1.025" fill="rgba(33,33,33,1.000)" /><rect x="17" y="2" width="1.025" height="1.025" fill="rgba(226,226,226,1.000)" /><rect x="18" y="2" width="1.025" height="1.025" fill="rgba(255,255,255,1.000)" /><rect x="19" y="2" width="1.025" height="1.025" fill="rgba(255,255,255,1.000)" /><rect x="20" y="2" width="1.025" height="1.025" fill="rgba(255,255,255,1.000)" /><rect x="21" y="2" width="1.025" height="1.025" fill="rgba(255,255,255,1.000)" /><rect x="22" y="2" width="1.025" height="1.025" fill="rgba(255,255,255,1.000)" /><rect x="23" y="2" width="1.025" height="1.025" fill="rgba(255,255,255,1.000)" /><rect x="13" y="3" width="1.025" height="1.025" fill="rgba(20,20,20,1.000)" /><rect x="15" y="3" width="1.025" height="1.025" fill="rgba(32,32,32,1.000)" /><rect x="17" y="3" width="1.025" height="1.025" fill="rgba(248,248,248,1.000)" /><rect x="18" y="3" width="1.025" height="1.025" fill="rgba(255,255,255,1.000)" /><rect x="19" y="3" width="1.025" height="1.025" fill="rgba(255,255,255,1.000)" /><rect x="20" y="3" width="1.025" height="1.025" fill="rgba(255,255,255,1.000)" /><rect x="21" y="3" width="1.025" height="1.025" fill="rgba(255,255,255,1.000)" /><rect x="22" y="3" width="1.025" height="1.025" fill="rgba(255,255,255,1.000)" /><rect x="23" y="3" width="1.025" height="1.025" fill="rgba(255,255,255,1.000)" /><rect x="24" y="3" width="1.025" height="1.025" fill="rgba(239,239,239,1.000)" /><rect x="12" y="4" width="1.025" height="1.025" fill="rgba(20,20,20,1.000)" /><rect x="14" y="4" width="1.025" height="1.025" fill="rgba(33,33,33,1.000)" /><rect x="15" y="4" width="1.025" height="1.025" fill="rgba(28,28,28,1.000)" /><rect x="16" y="4" width="1.025" height="1.025" fill="rgba(199,199,199,1.000)" /><rect x="17" y="4" width="1.025" height="1.025" fill="rgba(255,255,255,1.000)" /><rect x="18" y="4" width="1.025" height="1.025" fill="rgba(255,255,255,1.000)" /><rect x="19" y="4" width="1.025" height="1.025" fill="rgba(255,255,255,1.000)" /><rect x="20" y="4" width="1.025" height="1.025" fill="rgba(255,255,255,1.000)" /><rect x="21" y="4" width="1.025" height="1.025" fill="rgba(255,255,255,1.000)" /><rect x="22" y="4" width="1.025" height="1.025" fill="rgba(255,255,255,1.000)" /><rect x="23" y="4" width="1.025" height="1.025" fill="rgba(255,255,255,1.000)" /><rect x="24" y="4" width="1.025" height="1.025" fill="rgba(239,239,239,1.000)" /><rect x="25" y="4" width="1.025" height="1.025" fill="rgba(255,255,255,1.000)" /><rect x="12" y="5" width="1.025" height="1.025" fill="rgba(20,20,20,1.000)" /><rect x="13" y="5" width="1.025" height="1.025" fill="rgba(27,27,27,1.000)" /><rect x="15" y="5" width="1.025" height="1.025" fill="rgba(41,41,41,1.000)" /><rect x="16" y="5" width="1.025" height="1.025" fill="rgba(229,229,229,1.000)" /><rect x="17" y="5" width="1.025" height="1.025" fill="rgba(255,255,255,1.000)" /><rect x="18" y="5" width="1.025" height="1.025" fill="rgba(255,255,255,1.000)" /><rect x="19" y="5" width="1.025" height="1.025" fill="rgba(255,255,255,1.000)" /><rect x="20" y="5" width="1.025" height="1.025" fill="rgba(255,255,255,1.000)" /><rect x="21" y="5" width="1.025" height="1.025" fill="rgba(255,255,255,1.000)" /><rect x="22" y="5" width="1.025" height="1.025" fill="rgba(255,255,255,1.000)" /><rect x="23" y="5" width="1.025" height="1.025" fill="rgba(255,255,255,1.000)" /><rect x="24" y="5" width="1.025" height="1.025" fill="rgba(239,239,239,1.000)" /><rect x="25" y="5" width="1.025" height="1.025" fill="rgba(255,255,255,1.000)" /><rect x="12" y="6" width="1.025" height="1.025" fill="rgba(20,20,20,1.000)" /><rect x="14" y="6" width="1.025" height="1.025" fill="rgba(33,33,33,1.000)" /><rect x="16" y="6" width="1.025" height="1.025" fill="rgba(199,199,199,1.000)" /><rect x="17" y="6" width="1.025" height="1.025" fill="rgba(255,255,255,1.000)" /><rect x="18" y="6" width="1.025" height="1.025" fill="rgba(255,255,255,1.000)" /><rect x="19" y="6" width="1.025" height="1.025" fill="rgba(255,255,255,1.000)" /><rect x="20" y="6" width="1.025" height="1.025" fill="rgba(255,255,255,1.000)" /><rect x="21" y="6" width="1.025" height="1.025" fill="rgba(255,255,255,1.000)" /><rect x="22" y="6" width="1.025" height="1.025" fill="rgba(255,255,255,1.000)" /><rect x="23" y="6" width="1.025" height="1.025" fill="rgba(255,255,255,1.000)" /><rect x="24" y="6" width="1.025" height="1.025" fill="rgba(249,249,249,1.000)" /><rect x="25" y="6" width="1.025" height="1.025" fill="rgba(255,255,255,1.000)" /><rect x="12" y="7" width="1.025" height="1.025" fill="rgba(20,20,20,1.000)" /><rect x="13" y="7" width="1.025" height="1.025" fill="rgba(27,27,27,1.000)" /><rect x="15" y="7" width="1.025" height="1.025" fill="rgba(41,41,41,1.000)" /><rect x="16" y="7" width="1.025" height="1.025" fill="rgba(229,229,229,1.000)" /><rect x="17" y="7" width="1.025" height="1.025" fill="rgba(255,255,255,1.000)" /><rect x="18" y="7" width="1.025" height="1.025" fill="rgba(255,255,255,1.000)" /><rect x="19" y="7" width="1.025" height="1.025" fill="rgba(255,255,255,1.000)" /><rect x="20" y="7" width="1.025" height="1.025" fill="rgba(255,255,255,1.000)" /><rect x="21" y="7" width="1.025" height="1.025" fill="rgba(255,255,255,1.000)" /><rect x="22" y="7" width="1.025" height="1.025" fill="rgba(255,255,255,1.000)" /><rect x="23" y="7" width="1.025" height="1.025" fill="rgba(255,255,255,1.000)" /><rect x="24" y="7" width="1.025" height="1.025" fill="rgba(255,255,255,1.000)" /><rect x="25" y="7" width="1.025" height="1.025" fill="rgba(255,255,255,1.000)" /><rect x="12" y="8" width="1.025" height="1.025" fill="rgba(20,20,20,1.000)" /><rect x="14" y="8" width="1.025" height="1.025" fill="rgba(33,33,33,1.000)" /><rect x="16" y="8" width="1.025" height="1.025" fill="rgba(205,205,205,1.000)" /><rect x="17" y="8" width="1.025" height="1.025" fill="rgba(214,214,214,1.000)" /><rect x="18" y="8" width="1.025" height="1.025" fill="rgba(49,49,49,1.000)" /><rect x="19" y="8" width="1.025" height="1.025" fill="rgba(49,49,49,1.000)" /><rect x="20" y="8" width="1.025" height="1.025" fill="rgba(49,49,49,1.000)" /><rect x="21" y="8" width="1.025" height="1.025" fill="rgba(49,49,49,1.000)" /><rect x="22" y="8" width="1.025" height="1.025" fill="rgba(49,49,49,1.000)" /><rect x="23" y="8" width="1.025" height="1.025" fill="rgba(49,49,49,1.000)" /><rect x="24" y="8" width="1.025" height="1.025" fill="rgba(49,49,49,1.000)" /><rect x="25" y="8" width="1.025" height="1.025" fill="rgba(49,49,49,1.000)" /><rect x="12" y="9" width="1.025" height="1.025" fill="rgba(21,21,21,1.000)" /><rect x="13" y="9" width="1.025" height="1.025" fill="rgba(27,27,27,1.000)" /><rect x="15" y="9" width="1.025" height="1.025" fill="rgba(40,40,40,1.000)" /><rect x="16" y="9" width="1.025" height="1.025" fill="rgba(71,71,71,1.000)" /><rect x="17" y="9" width="1.025" height="1.025" fill="rgba(71,71,71,1.000)" /><rect x="18" y="9" width="1.025" height="1.025" fill="rgba(70,70,70,1.000)" /><rect x="19" y="9" width="1.025" height="1.025" fill="rgba(59,59,59,1.000)" /><rect x="20" y="9" width="1.025" height="1.025" fill="rgba(59,59,59,1.000)" /><rect x="21" y="9" width="1.025" height="1.025" fill="rgba(59,59,59,1.000)" /><rect x="22" y="9" width="1.025" height="1.025" fill="rgba(59,59,59,1.000)" /><rect x="23" y="9" width="1.025" height="1.025" fill="rgba(59,59,59,1.000)" /><rect x="24" y="9" width="1.025" height="1.025" fill="rgba(59,59,59,1.000)" /><rect x="25" y="9" width="1.025" height="1.025" fill="rgba(59,59,59,1.000)" /><rect x="26" y="9" width="1.025" height="1.025" fill="rgba(59,59,59,1.000)" /><rect x="27" y="9" width="1.025" height="1.025" fill="rgba(59,59,59,1.000)" /><rect x="28" y="9" width="1.025" height="1.025" fill="rgba(59,59,59,1.000)" /><rect x="12" y="10" width="1.025" height="1.025" fill="rgba(21,21,21,1.000)" /><rect x="13" y="10" width="1.025" height="1.025" fill="rgba(21,21,21,1.000)" /><rect x="14" y="10" width="1.025" height="1.025" fill="rgba(21,21,21,1.000)" /><rect x="15" y="10" width="1.025" height="1.025" fill="rgba(49,49,49,1.000)" /></svg>