<svg shape-rendering="crispEdges" xmlns="http://www.w3.org/2000/svg" version="1.1" width="37" height="37"><style>rect { image-rendering: pixelated; }</style><rect x="14" y="3" width="1.025" height="1.025" fill="rgba(130,0,84,1.000)" /><rect x="15" y="3" width="1.025" height="1.025" fill="rgba(173,0,139,1.000)" /><rect x="16" y="3" width="1.025" height="1.025" fill="rgba(146,0,94,1.000)" /><rect x="17" y="3" width="1.025" height="1.025" fill="rgba(255,207,238,1.000)" /><rect x="18" y="3" width="1.025" height="1.025" fill="rgba(255,255,255,1.000)" /><rect x="19" y="3" width="1.025" height="1.025" fill="rgba(255,255,255,1.000)" /><rect x="20" y="3" width="1.025" height="1.025" fill="rgba(255,255,255,1.000)" /><rect x="21" y="3" width="1.025" height="1.025" fill="rgba(255,255,255,1.000)" /><rect x="22" y="3" width="1.025" height="1.025" fill="rgba(255,255,255,1.000)" /><rect x="23" y="3" width="1.025" height="1.025" fill="rgba(255,255,255,1.000)" /><rect x="13" y="4" width="1.025" height="1.025" fill="rgba(164,0,133,1.000)" /><rect x="15" y="4" width="1.025" height="1.025" fill="rgba(178,0,142,1.000)" /><rect x="17" y="4" width="1.025" height="1.025" fill="rgba(255,243,251,1.000)" /><rect x="18" y="4" width="1.025" height="1.025" fill="rgba(255,255,255,1.000)" /><rect x="19" y="4" width="1.025" height="1.025" fill="rgba(235,0,179,1.000)" /><rect x="20" y="4" width="1.025" height="1.025" fill="rgba(255,255,255,1.000)" /><rect x="21" y="4" width="1.025" height="1.025" fill="rgba(241,0,202,1.000)" /><rect x="22" y="4" width="1.025" height="1.025" fill="rgba(255,255,255,1.000)" /><rect x="23" y="4" width="1.025" height="1.025" fill="rgba(255,255,255,1.000)" /><rect x="24" y="4" width="1.025" height="1.025" fill="rgba(255,229,246,1.000)" /><rect x="12" y="5" width="1.025" height="1.025" fill="rgba(124,0,80,1.000)" /><rect x="14" y="5" width="1.025" height="1.025" fill="rgba(202,0,177,1.000)" /><rect x="15" y="5" width="1.025" height="1.025" fill="rgba(173,0,139,1.000)" /><rect x="16" y="5" width="1.025" height="1.025" fill="rgba(255,163,223,1.000)" /><rect x="17" y="5" width="1.025" height="1.025" fill="rgba(255,255,255,1.000)" /><rect x="18" y="5" width="1.025" height="1.025" fill="rgba(255,255,255,1.000)" /><rect x="19" y="5" width="1.025" height="1.025" fill="rgba(235,0,179,1.000)" /><rect x="20" y="5" width="1.025" height="1.025" fill="rgba(226,0,146,1.000)" /><rect x="21" y="5" width="1.025" height="1.025" fill="rgba(226,0,146,1.000)" /><rect x="22" y="5" width="1.025" height="1.025" fill="rgba(245,0,218,1.000)" /><rect x="23" y="5" width="1.025" height="1.025" fill="rgba(226,0,146,1.000)" /><rect x="24" y="5" width="1.025" height="1.025" fill="rgba(245,0,218,1.000)" /><rect x="25" y="5" width="1.025" height="1.025" fill="rgba(255,255,255,1.000)" /><rect x="12" y="6" width="1.025" height="1.025" fill="rgba(124,0,80,1.000)" /><rect x="13" y="6" width="1.025" height="1.025" fill="rgba(172,0,138,1.000)" /><rect x="15" y="6" width="1.025" height="1.025" fill="rgba(189,0,150,1.000)" /><rect x="16" y="6" width="1.025" height="1.025" fill="rgba(255,213,240,1.000)" /><rect x="17" y="6" width="1.025" height="1.025" fill="rgba(255,255,255,1.000)" /><rect x="18" y="6" width="1.025" height="1.025" fill="rgba(255,255,255,1.000)" /><rect x="19" y="6" width="1.025" height="1.025" fill="rgba(226,0,146,1.000)" /><rect x="20" y="6" width="1.025" height="1.025" fill="rgba(255,255,255,1.000)" /><rect x="21" y="6" width="1.025" height="1.025" fill="rgba(235,0,179,1.000)" /><rect x="22" y="6" width="1.025" height="1.025" fill="rgba(255,255,255,1.000)" /><rect x="23" y="6" width="1.025" height="1.025" fill="rgba(226,0,146,1.000)" /><rect x="24" y="6" width="1.025" height="1.025" fill="rgba(255,255,255,1.000)" /><rect x="25" y="6" width="1.025" height="1.025" fill="rgba(255,255,255,1.000)" /><rect x="12" y="7" width="1.025" height="1.025" fill="rgba(164,0,133,1.000)" /><rect x="14" y="7" width="1.025" height="1.025" fill="rgba(146,0,94,1.000)" /><rect x="16" y="7" width="1.025" height="1.025" fill="rgba(255,114,233,1.000)" /><rect x="17" y="7" width="1.025" height="1.025" fill="rgba(255,255,255,1.000)" /><rect x="18" y="7" width="1.025" height="1.025" fill="rgba(255,255,255,1.000)" /><rect x="19" y="7" width="1.025" height="1.025" fill="rgba(245,0,218,1.000)" /><rect x="20" y="7" width="1.025" height="1.025" fill="rgba(255,255,255,1.000)" /><rect x="21" y="7" width="1.025" height="1.025" fill="rgba(226,0,146,1.000)" /><rect x="22" y="7" width="1.025" height="1.025" fill="rgba(255,255,255,1.000)" /><rect x="23" y="7" width="1.025" height="1.025" fill="rgba(245,0,218,1.000)" /><rect x="24" y="7" width="1.025" height="1.025" fill="rgba(255,255,255,1.000)" /><rect x="25" y="7" width="1.025" height="1.025" fill="rgba(255,255,255,1.000)" /><rect x="12" y="8" width="1.025" height="1.025" fill="rgba(164,0,133,1.000)" /><rect x="13" y="8" width="1.025" height="1.025" fill="rgba(136,0,88,1.000)" /><rect x="15" y="8" width="1.025" height="1.025" fill="rgba(189,0,150,1.000)" /><rect x="16" y="8" width="1.025" height="1.025" fill="rgba(255,213,240,1.000)" /><rect x="17" y="8" width="1.025" height="1.025" fill="rgba(255,255,255,1.000)" /><rect x="18" y="8" width="1.025" height="1.025" fill="rgba(255,255,255,1.000)" /><rect x="19" y="8" width="1.025" height="1.025" fill="rgba(255,255,255,1.000)" /><rect x="20" y="8" width="1.025" height="1.025" fill="rgba(255,255,255,1.000)" /><rect x="21" y="8" width="1.025" height="1.025" fill="rgba(255,255,255,1.000)" /><rect x="22" y="8" width="1.025" height="1.025" fill="rgba(255,255,255,1.000)" /><rect x="23" y="8" width="1.025" height="1.025" fill="rgba(255,177,227,1.000)" /><rect x="24" y="8" width="1.025" height="1.025" fill="rgba(255,255,255,1.000)" /><rect x="25" y="8" width="1.025" height="1.025" fill="rgba(255,255,255,1.000)" /><rect x="12" y="9" width="1.025" height="1.025" fill="rgba(124,0,80,1.000)" /><rect x="14" y="9" width="1.025" height="1.025" fill="rgba(179,0,143,1.000)" /><rect x="16" y="9" width="1.025" height="1.025" fill="rgba(255,173,226,1.000)" /><rect x="17" y="9" width="1.025" height="1.025" fill="rgba(255,131,238,1.000)" /><rect x="18" y="9" width="1.025" height="1.025" fill="rgba(197,0,154,1.000)" /><rect x="19" y="9" width="1.025" height="1.025" fill="rgba(215,0,184,1.000)" /><rect x="20" y="9" width="1.025" height="1.025" fill="rgba(215,0,184,1.000)" /><rect x="21" y="9" width="1.025" height="1.025" fill="rgba(215,0,184,1.000)" /><rect x="22" y="9" width="1.025" height="1.025" fill="rgba(227,0,205,1.000)" /><rect x="23" y="9" width="1.025" height="1.025" fill="rgba(227,0,205,1.000)" /><rect x="24" y="9" width="1.025" height="1.025" fill="rgba(241,0,231,1.000)" /><rect x="25" y="9" width="1.025" height="1.025" fill="rgba(241,0,231,1.000)" /><rect x="12" y="10" width="1.025" height="1.025" fill="rgba(165,0,134,1.000)" /><rect x="13" y="10" width="1.025" height="1.025" fill="rgba(172,0,138,1.000)" /><rect x="15" y="10" width="1.025" height="1.025" fill="rgba(158,0,102,1.000)" /><rect x="16" y="10" width="1.025" height="1.025" fill="rgba(208,0,135,1.000)" /><rect x="17" y="10" width="1.025" height="1.025" fill="rgba(208,0,135,1.000)" /><rect x="18" y="10" width="1.025" height="1.025" fill="rgba(206,0,133,1.000)" /><rect x="19" y="10" width="1.025" height="1.025" fill="rgba(188,0,122,1.000)" /><rect x="20" y="10" width="1.025" height="1.025" fill="rgba(188,0,122,1.000)" /><rect x="21" y="10" width="1.025" height="1.025" fill="rgba(208,0,162,1.000)" /><rect x="22" y="10" width="1.025" height="1.025" fill="rgba(208,0,162,1.000)" /><rect x="23" y="10" width="1.025" height="1.025" fill="rgba(208,0,162,1.000)" /><rect x="24" y="10" width="1.025" height="1.025" fill="rgba(208,0,162,1.000)" /><rect x="25" y="10" width="1.025" height="1.025" fill="rgba(222,0,190,1.000)" /><rect x="26" y="10" width="1.025" height="1.025" fill="rgba(222,0,190,1.000)" /><rect x="27" y="10" width="1.025" height="1.025" fill="rgba(222,0,190,1.000)" /><rect x="28" y="10" width="1.025" height="1.025" fill="rgba(222,0,190,1.000)" /><rect x="12" y="11" width="1.025" height="1.025" fill="rgba(126,0,82,1.000)" /><rect x="13" y="11" width="1.025" height="1.025" fill="rgba(165,0,134,1.000)" /><rect x="14" y="11" width="1.025" height="1.025" fill="rgba(126,0,82,1.000)" /><rect x="15" y="11" width="1.025" height="1.025" fill="rgba(172,0,111,1.000)" /></svg>