<svg shape-rendering="crispEdges" xmlns="http://www.w3.org/2000/svg" version="1.1" width="37" height="37"><style>rect { image-rendering: pixelated; }</style><rect x="17" y="3" width="1.025" height="1.025" fill="rgba(246,0,143,1.000)" /><rect x="18" y="3" width="1.025" height="1.025" fill="rgba(228,0,133,1.000)" /><rect x="19" y="3" width="1.025" height="1.025" fill="rgba(228,0,133,1.000)" /><rect x="20" y="3" width="1.025" height="1.025" fill="rgba(232,0,136,1.000)" /><rect x="21" y="3" width="1.025" height="1.025" fill="rgba(234,0,137,1.000)" /><rect x="15" y="4" width="1.025" height="1.025" fill="rgba(211,0,125,1.000)" /><rect x="16" y="4" width="1.025" height="1.025" fill="rgba(234,0,137,1.000)" /><rect x="17" y="4" width="1.025" height="1.025" fill="rgba(243,0,143,1.000)" /><rect x="18" y="4" width="1.025" height="1.025" fill="rgba(249,0,146,1.000)" /><rect x="19" y="4" width="1.025" height="1.025" fill="rgba(250,0,146,1.000)" /><rect x="20" y="4" width="1.025" height="1.025" fill="rgba(250,0,146,1.000)" /><rect x="21" y="4" width="1.025" height="1.025" fill="rgba(225,0,132,1.000)" /><rect x="22" y="4" width="1.025" height="1.025" fill="rgba(228,0,133,1.000)" /><rect x="23" y="4" width="1.025" height="1.025" fill="rgba(228,0,133,1.000)" /><rect x="14" y="5" width="1.025" height="1.025" fill="rgba(211,0,125,1.000)" /><rect x="15" y="5" width="1.025" height="1.025" fill="rgba(214,0,126,1.000)" /><rect x="16" y="5" width="1.025" height="1.025" fill="rgba(214,0,126,1.000)" /><rect x="17" y="5" width="1.025" height="1.025" fill="rgba(240,0,141,1.000)" /><rect x="18" y="5" width="1.025" height="1.025" fill="rgba(249,0,146,1.000)" /><rect x="19" y="5" width="1.025" height="1.025" fill="rgba(249,0,146,1.000)" /><rect x="20" y="5" width="1.025" height="1.025" fill="rgba(249,0,146,1.000)" /><rect x="21" y="5" width="1.025" height="1.025" fill="rgba(225,0,132,1.000)" /><rect x="22" y="5" width="1.025" height="1.025" fill="rgba(228,0,133,1.000)" /><rect x="23" y="5" width="1.025" height="1.025" fill="rgba(228,0,133,1.000)" /><rect x="24" y="5" width="1.025" height="1.025" fill="rgba(232,0,136,1.000)" /><rect x="12" y="6" width="1.025" height="1.025" fill="rgba(209,0,123,1.000)" /><rect x="13" y="6" width="1.025" height="1.025" fill="rgba(209,0,123,1.000)" /><rect x="14" y="6" width="1.025" height="1.025" fill="rgba(211,0,125,1.000)" /><rect x="15" y="6" width="1.025" height="1.025" fill="rgba(214,0,126,1.000)" /><rect x="16" y="6" width="1.025" height="1.025" fill="rgba(214,0,126,1.000)" /><rect x="17" y="6" width="1.025" height="1.025" fill="rgba(218,0,128,1.000)" /><rect x="18" y="6" width="1.025" height="1.025" fill="rgba(246,0,143,1.000)" /><rect x="19" y="6" width="1.025" height="1.025" fill="rgba(246,0,143,1.000)" /><rect x="20" y="6" width="1.025" height="1.025" fill="rgba(249,0,146,1.000)" /><rect x="21" y="6" width="1.025" height="1.025" fill="rgba(225,0,132,1.000)" /><rect x="22" y="6" width="1.025" height="1.025" fill="rgba(228,0,133,1.000)" /><rect x="23" y="6" width="1.025" height="1.025" fill="rgba(249,0,146,1.000)" /><rect x="24" y="6" width="1.025" height="1.025" fill="rgba(232,0,136,1.000)" /><rect x="25" y="6" width="1.025" height="1.025" fill="rgba(234,0,137,1.000)" /><rect x="11" y="7" width="1.025" height="1.025" fill="rgba(218,0,128,1.000)" /><rect x="12" y="7" width="1.025" height="1.025" fill="rgba(221,0,129,1.000)" /><rect x="13" y="7" width="1.025" height="1.025" fill="rgba(214,0,126,1.000)" /><rect x="14" y="7" width="1.025" height="1.025" fill="rgba(211,0,125,1.000)" /><rect x="15" y="7" width="1.025" height="1.025" fill="rgba(221,0,129,1.000)" /><rect x="16" y="7" width="1.025" height="1.025" fill="rgba(225,0,132,1.000)" /><rect x="17" y="7" width="1.025" height="1.025" fill="rgba(228,0,133,1.000)" /><rect x="18" y="7" width="1.025" height="1.025" fill="rgba(255,0,149,1.000)" /><rect x="19" y="7" width="1.025" height="1.025" fill="rgba(255,0,152,1.000)" /><rect x="20" y="7" width="1.025" height="1.025" fill="rgba(255,0,152,1.000)" /><rect x="21" y="7" width="1.025" height="1.025" fill="rgba(255,0,152,1.000)" /><rect x="22" y="7" width="1.025" height="1.025" fill="rgba(236,0,138,1.000)" /><rect x="23" y="7" width="1.025" height="1.025" fill="rgba(240,0,141,1.000)" /><rect x="24" y="7" width="1.025" height="1.025" fill="rgba(255,0,152,1.000)" /><rect x="25" y="7" width="1.025" height="1.025" fill="rgba(240,0,141,1.000)" /><rect x="26" y="7" width="1.025" height="1.025" fill="rgba(232,0,136,1.000)" /><rect x="11" y="8" width="1.025" height="1.025" fill="rgba(225,0,132,1.000)" /><rect x="12" y="8" width="1.025" height="1.025" fill="rgba(225,0,132,1.000)" /><rect x="13" y="8" width="1.025" height="1.025" fill="rgba(225,0,132,1.000)" /><rect x="14" y="8" width="1.025" height="1.025" fill="rgba(225,0,132,1.000)" /><rect x="15" y="8" width="1.025" height="1.025" fill="rgba(218,0,128,1.000)" /><rect x="16" y="8" width="1.025" height="1.025" fill="rgba(225,0,132,1.000)" /><rect x="17" y="8" width="1.025" height="1.025" fill="rgba(255,0,152,1.000)" /><rect x="18" y="8" width="1.025" height="1.025" fill="rgba(255,0,164,1.000)" /><rect x="19" y="8" width="1.025" height="1.025" fill="rgba(255,0,172,1.000)" /><rect x="20" y="8" width="1.025" height="1.025" fill="rgba(255,0,166,1.000)" /><rect x="21" y="8" width="1.025" height="1.025" fill="rgba(255,0,163,1.000)" /><rect x="22" y="8" width="1.025" height="1.025" fill="rgba(255,0,166,1.000)" /><rect x="23" y="8" width="1.025" height="1.025" fill="rgba(255,0,157,1.000)" /><rect x="24" y="8" width="1.025" height="1.025" fill="rgba(240,0,141,1.000)" /><rect x="25" y="8" width="1.025" height="1.025" fill="rgba(240,0,141,1.000)" /><rect x="26" y="8" width="1.025" height="1.025" fill="rgba(243,0,143,1.000)" /><rect x="27" y="8" width="1.025" height="1.025" fill="rgba(228,0,133,1.000)" /><rect x="10" y="9" width="1.025" height="1.025" fill="rgba(211,0,125,1.000)" /><rect x="11" y="9" width="1.025" height="1.025" fill="rgba(234,0,137,1.000)" /><rect x="12" y="9" width="1.025" height="1.025" fill="rgba(234,0,137,1.000)" /><rect x="13" y="9" width="1.025" height="1.025" fill="rgba(228,0,133,1.000)" /><rect x="14" y="9" width="1.025" height="1.025" fill="rgba(232,0,136,1.000)" /><rect x="15" y="9" width="1.025" height="1.025" fill="rgba(255,0,159,1.000)" /><rect x="16" y="9" width="1.025" height="1.025" fill="rgba(255,0,161,1.000)" /><rect x="17" y="9" width="1.025" height="1.025" fill="rgba(25,25,25,1.000)" /><rect x="18" y="9" width="1.025" height="1.025" fill="rgba(25,25,25,1.000)" /><rect x="19" y="9" width="1.025" height="1.025" fill="rgba(25,25,25,1.000)" /><rect x="20" y="9" width="1.025" height="1.025" fill="rgba(25,25,25,1.000)" /><rect x="21" y="9" width="1.025" height="1.025" fill="rgba(25,25,25,1.000)" /><rect x="22" y="9" width="1.025" height="1.025" fill="rgba(25,25,25,1.000)" /><rect x="23" y="9" width="1.025" height="1.025" fill="rgba(25,25,25,1.000)" /><rect x="24" y="9" width="1.025" height="1.025" fill="rgba(255,0,166,1.000)" /><rect x="25" y="9" width="1.025" height="1.025" fill="rgba(255,0,157,1.000)" /><rect x="26" y="9" width="1.025" height="1.025" fill="rgba(243,0,143,1.000)" /><rect x="27" y="9" width="1.025" height="1.025" fill="rgba(228,0,133,1.000)" /><rect x="10" y="10" width="1.025" height="1.025" fill="rgba(214,0,126,1.000)" /><rect x="11" y="10" width="1.025" height="1.025" fill="rgba(240,0,141,1.000)" /><rect x="12" y="10" width="1.025" height="1.025" fill="rgba(234,0,137,1.000)" /><rect x="13" y="10" width="1.025" height="1.025" fill="rgba(234,0,137,1.000)" /><rect x="14" y="10" width="1.025" height="1.025" fill="rgba(255,0,162,1.000)" /><rect x="15" y="10" width="1.025" height="1.025" fill="rgba(25,25,25,1.000)" /><rect x="16" y="10" width="1.025" height="1.025" fill="rgba(25,25,25,1.000)" /><rect x="24" y="10" width="1.025" height="1.025" fill="rgba(25,25,25,1.000)" /><rect x="25" y="10" width="1.025" height="1.025" fill="rgba(126,14,79,1.000)" /><rect x="26" y="10" width="1.025" height="1.025" fill="rgba(255,0,167,1.000)" /><rect x="27" y="10" width="1.025" height="1.025" fill="rgba(255,0,157,1.000)" /><rect x="28" y="10" width="1.025" height="1.025" fill="rgba(232,0,136,1.000)" /><rect x="10" y="11" width="1.025" height="1.025" fill="rgba(243,0,143,1.000)" /><rect x="11" y="11" width="1.025" height="1.025" fill="rgba(243,0,143,1.000)" /><rect x="12" y="11" width="1.025" height="1.025" fill="rgba(255,0,159,1.000)" /><rect x="13" y="11" width="1.025" height="1.025" fill="rgba(142,12,88,1.000)" /><rect x="14" y="11" width="1.025" height="1.025" fill="rgba(25,25,25,1.000)" /><rect x="15" y="11" width="1.025" height="1.025" fill="rgba(25,25,25,1.000)" /><rect x="24" y="11" width="1.025" height="1.025" fill="rgba(63,14,42,1.000)" /><rect x="25" y="11" width="1.025" height="1.025" fill="rgba(42,20,32,1.000)" /><rect x="26" y="11" width="1.025" height="1.025" fill="rgba(142,12,88,1.000)" /><rect x="27" y="11" width="1.025" height="1.025" fill="rgba(255,0,154,1.000)" /><rect x="28" y="11" width="1.025" height="1.025" fill="rgba(249,0,146,1.000)" /><rect x="9" y="12" width="1.025" height="1.025" fill="rgba(214,0,126,1.000)" /><rect x="10" y="12" width="1.025" height="1.025" fill="rgba(243,0,143,1.000)" /><rect x="11" y="12" width="1.025" height="1.025" fill="rgba(255,0,159,1.000)" /><rect x="12" y="12" width="1.025" height="1.025" fill="rgba(126,14,79,1.000)" /><rect x="13" y="12" width="1.025" height="1.025" fill="rgba(25,25,25,1.000)" /><rect x="14" y="12" width="1.025" height="1.025" fill="rgba(25,25,25,1.000)" /><rect x="25" y="12" width="1.025" height="1.025" fill="rgba(42,20,32,1.000)" /><rect x="26" y="12" width="1.025" height="1.025" fill="rgba(142,12,88,1.000)" /><rect x="27" y="12" width="1.025" height="1.025" fill="rgba(255,0,159,1.000)" /><rect x="28" y="12" width="1.025" height="1.025" fill="rgba(243,0,143,1.000)" /><rect x="9" y="13" width="1.025" height="1.025" fill="rgba(218,0,128,1.000)" /><rect x="10" y="13" width="1.025" height="1.025" fill="rgba(255,0,159,1.000)" /><rect x="11" y="13" width="1.025" height="1.025" fill="rgba(126,14,79,1.000)" /><rect x="12" y="13" width="1.025" height="1.025" fill="rgba(25,25,25,1.000)" /><rect x="13" y="13" width="1.025" height="1.025" fill="rgba(25,25,25,1.000)" /><rect x="25" y="13" width="1.025" height="1.025" fill="rgba(25,25,25,1.000)" /><rect x="26" y="13" width="1.025" height="1.025" fill="rgba(42,20,32,1.000)" /><rect x="27" y="13" width="1.025" height="1.025" fill="rgba(142,12,88,1.000)" /><rect x="28" y="13" width="1.025" height="1.025" fill="rgba(243,0,143,1.000)" /><rect x="9" y="14" width="1.025" height="1.025" fill="rgba(196,0,116,1.000)" /><rect x="10" y="14" width="1.025" height="1.025" fill="rgba(255,0,160,1.000)" /><rect x="11" y="14" width="1.025" height="1.025" fill="rgba(126,14,79,1.000)" /><rect x="12" y="14" width="1.025" height="1.025" fill="rgba(25,25,25,1.000)" /><rect x="25" y="14" width="1.025" height="1.025" fill="rgba(63,14,42,1.000)" /><rect x="26" y="14" width="1.025" height="1.025" fill="rgba(42,20,32,1.000)" /><rect x="27" y="14" width="1.025" height="1.025" fill="rgba(142,12,88,1.000)" /><rect x="28" y="14" width="1.025" height="1.025" fill="rgba(255,0,152,1.000)" /><rect x="8" y="15" width="1.025" height="1.025" fill="rgba(211,0,125,1.000)" /><rect x="9" y="15" width="1.025" height="1.025" fill="rgba(218,0,128,1.000)" /><rect x="10" y="15" width="1.025" height="1.025" fill="rgba(255,0,162,1.000)" /><rect x="11" y="15" width="1.025" height="1.025" fill="rgba(126,14,79,1.000)" /><rect x="12" y="15" width="1.025" height="1.025" fill="rgba(25,25,25,1.000)" /><rect x="25" y="15" width="1.025" height="1.025" fill="rgba(42,20,32,1.000)" /><rect x="26" y="15" width="1.025" height="1.025" fill="rgba(42,20,32,1.000)" /><rect x="27" y="15" width="1.025" height="1.025" fill="rgba(142,12,88,1.000)" /><rect x="28" y="15" width="1.025" height="1.025" fill="rgba(255,0,152,1.000)" /><rect x="29" y="15" width="1.025" height="1.025" fill="rgba(200,0,119,1.000)" /><rect x="8" y="16" width="1.025" height="1.025" fill="rgba(196,0,116,1.000)" /><rect x="9" y="16" width="1.025" height="1.025" fill="rgba(252,0,148,1.000)" /><rect x="10" y="16" width="1.025" height="1.025" fill="rgba(114,16,72,1.000)" /><rect x="11" y="16" width="1.025" height="1.025" fill="rgba(25,25,25,1.000)" /><rect x="25" y="16" width="1.025" height="1.025" fill="rgba(25,25,25,1.000)" /><rect x="26" y="16" width="1.025" height="1.025" fill="rgba(42,20,32,1.000)" /><rect x="27" y="16" width="1.025" height="1.025" fill="rgba(142,12,88,1.000)" /><rect x="28" y="16" width="1.025" height="1.025" fill="rgba(255,0,149,1.000)" /><rect x="29" y="16" width="1.025" height="1.025" fill="rgba(236,0,138,1.000)" /><rect x="8" y="17" width="1.025" height="1.025" fill="rgba(196,0,116,1.000)" /><rect x="9" y="17" width="1.025" height="1.025" fill="rgba(255,0,154,1.000)" /><rect x="10" y="17" width="1.025" height="1.025" fill="rgba(114,16,72,1.000)" /><rect x="11" y="17" width="1.025" height="1.025" fill="rgba(25,25,25,1.000)" /><rect x="25" y="17" width="1.025" height="1.025" fill="rgba(42,20,32,1.000)" /><rect x="26" y="17" width="1.025" height="1.025" fill="rgba(25,25,25,1.000)" /><rect x="27" y="17" width="1.025" height="1.025" fill="rgba(63,14,42,1.000)" /><rect x="28" y="17" width="1.025" height="1.025" fill="rgba(100,12,63,1.000)" /><rect x="29" y="17" width="1.025" height="1.025" fill="rgba(203,0,120,1.000)" /><rect x="8" y="18" width="1.025" height="1.025" fill="rgba(196,0,116,1.000)" /><rect x="9" y="18" width="1.025" height="1.025" fill="rgba(240,0,141,1.000)" /><rect x="10" y="18" width="1.025" height="1.025" fill="rgba(114,16,72,1.000)" /><rect x="11" y="18" width="1.025" height="1.025" fill="rgba(42,20,32,1.000)" /><rect x="12" y="18" width="1.025" height="1.025" fill="rgba(25,25,25,1.000)" /><rect x="25" y="18" width="1.025" height="1.025" fill="rgba(25,25,25,1.000)" /><rect x="26" y="18" width="1.025" height="1.025" fill="rgba(25,25,25,1.000)" /><rect x="27" y="18" width="1.025" height="1.025" fill="rgba(63,14,42,1.000)" /><rect x="28" y="18" width="1.025" height="1.025" fill="rgba(114,16,72,1.000)" /><rect x="29" y="18" width="1.025" height="1.025" fill="rgba(240,0,141,1.000)" /><rect x="8" y="19" width="1.025" height="1.025" fill="rgba(196,0,116,1.000)" /><rect x="9" y="19" width="1.025" height="1.025" fill="rgba(255,0,154,1.000)" /><rect x="10" y="19" width="1.025" height="1.025" fill="rgba(114,16,72,1.000)" /><rect x="11" y="19" width="1.025" height="1.025" fill="rgba(42,20,32,1.000)" /><rect x="12" y="19" width="1.025" height="1.025" fill="rgba(25,25,25,1.000)" /><rect x="13" y="19" width="1.025" height="1.025" fill="rgba(25,25,25,1.000)" /><rect x="25" y="19" width="1.025" height="1.025" fill="rgba(42,20,32,1.000)" /><rect x="26" y="19" width="1.025" height="1.025" fill="rgba(25,25,25,1.000)" /><rect x="27" y="19" width="1.025" height="1.025" fill="rgba(63,14,42,1.000)" /><rect x="28" y="19" width="1.025" height="1.025" fill="rgba(114,16,72,1.000)" /><rect x="29" y="19" width="1.025" height="1.025" fill="rgba(214,0,126,1.000)" /><rect x="8" y="20" width="1.025" height="1.025" fill="rgba(196,0,116,1.000)" /><rect x="9" y="20" width="1.025" height="1.025" fill="rgba(214,0,126,1.000)" /><rect x="10" y="20" width="1.025" height="1.025" fill="rgba(126,14,79,1.000)" /><rect x="11" y="20" width="1.025" height="1.025" fill="rgba(63,14,42,1.000)" /><rect x="12" y="20" width="1.025" height="1.025" fill="rgba(25,25,25,1.000)" /><rect x="13" y="20" width="1.025" height="1.025" fill="rgba(25,25,25,1.000)" /><rect x="24" y="20" width="1.025" height="1.025" fill="rgba(25,25,25,1.000)" /><rect x="25" y="20" width="1.025" height="1.025" fill="rgba(42,20,32,1.000)" /><rect x="26" y="20" width="1.025" height="1.025" fill="rgba(25,25,25,1.000)" /><rect x="27" y="20" width="1.025" height="1.025" fill="rgba(63,14,42,1.000)" /><rect x="28" y="20" width="1.025" height="1.025" fill="rgba(114,16,72,1.000)" /><rect x="29" y="20" width="1.025" height="1.025" fill="rgba(228,0,133,1.000)" /><rect x="8" y="21" width="1.025" height="1.025" fill="rgba(196,0,116,1.000)" /><rect x="9" y="21" width="1.025" height="1.025" fill="rgba(203,0,120,1.000)" /><rect x="10" y="21" width="1.025" height="1.025" fill="rgba(255,0,162,1.000)" /><rect x="11" y="21" width="1.025" height="1.025" fill="rgba(114,16,72,1.000)" /><rect x="12" y="21" width="1.025" height="1.025" fill="rgba(63,14,42,1.000)" /><rect x="13" y="21" width="1.025" height="1.025" fill="rgba(25,25,25,1.000)" /><rect x="24" y="21" width="1.025" height="1.025" fill="rgba(25,25,25,1.000)" /><rect x="25" y="21" width="1.025" height="1.025" fill="rgba(42,20,32,1.000)" /><rect x="26" y="21" width="1.025" height="1.025" fill="rgba(25,25,25,1.000)" /><rect x="27" y="21" width="1.025" height="1.025" fill="rgba(63,14,42,1.000)" /><rect x="28" y="21" width="1.025" height="1.025" fill="rgba(114,16,72,1.000)" /><rect x="29" y="21" width="1.025" height="1.025" fill="rgba(196,0,116,1.000)" /><rect x="8" y="22" width="1.025" height="1.025" fill="rgba(196,0,116,1.000)" /><rect x="9" y="22" width="1.025" height="1.025" fill="rgba(209,0,123,1.000)" /><rect x="10" y="22" width="1.025" height="1.025" fill="rgba(214,0,126,1.000)" /><rect x="11" y="22" width="1.025" height="1.025" fill="rgba(126,14,79,1.000)" /><rect x="12" y="22" width="1.025" height="1.025" fill="rgba(63,14,42,1.000)" /><rect x="13" y="22" width="1.025" height="1.025" fill="rgba(25,25,25,1.000)" /><rect x="24" y="22" width="1.025" height="1.025" fill="rgba(25,25,25,1.000)" /><rect x="25" y="22" width="1.025" height="1.025" fill="rgba(25,25,25,1.000)" /><rect x="26" y="22" width="1.025" height="1.025" fill="rgba(25,25,25,1.000)" /><rect x="27" y="22" width="1.025" height="1.025" fill="rgba(126,14,79,1.000)" /><rect x="28" y="22" width="1.025" height="1.025" fill="rgba(243,0,143,1.000)" /><rect x="29" y="22" width="1.025" height="1.025" fill="rgba(234,0,137,1.000)" /><rect x="9" y="23" width="1.025" height="1.025" fill="rgba(196,0,116,1.000)" /><rect x="10" y="23" width="1.025" height="1.025" fill="rgba(203,0,120,1.000)" /><rect x="11" y="23" width="1.025" height="1.025" fill="rgba(243,0,143,1.000)" /><rect x="12" y="23" width="1.025" height="1.025" fill="rgba(142,12,88,1.000)" /><rect x="13" y="23" width="1.025" height="1.025" fill="rgba(25,25,25,1.000)" /><rect x="23" y="23" width="1.025" height="1.025" fill="rgba(25,25,25,1.000)" /><rect x="24" y="23" width="1.025" height="1.025" fill="rgba(25,25,25,1.000)" /><rect x="25" y="23" width="1.025" height="1.025" fill="rgba(25,25,25,1.000)" /><rect x="26" y="23" width="1.025" height="1.025" fill="rgba(142,12,88,1.000)" /><rect x="27" y="23" width="1.025" height="1.025" fill="rgba(126,14,79,1.000)" /><rect x="28" y="23" width="1.025" height="1.025" fill="rgba(218,0,128,1.000)" /><rect x="9" y="24" width="1.025" height="1.025" fill="rgba(196,0,116,1.000)" /><rect x="10" y="24" width="1.025" height="1.025" fill="rgba(209,0,123,1.000)" /><rect x="11" y="24" width="1.025" height="1.025" fill="rgba(214,0,126,1.000)" /><rect x="12" y="24" width="1.025" height="1.025" fill="rgba(255,0,159,1.000)" /><rect x="13" y="24" width="1.025" height="1.025" fill="rgba(126,14,79,1.000)" /><rect x="19" y="24" width="1.025" height="1.025" fill="rgba(63,14,42,1.000)" /><rect x="20" y="24" width="1.025" height="1.025" fill="rgba(63,14,42,1.000)" /><rect x="21" y="24" width="1.025" height="1.025" fill="rgba(63,14,42,1.000)" /><rect x="22" y="24" width="1.025" height="1.025" fill="rgba(25,25,25,1.000)" /><rect x="23" y="24" width="1.025" height="1.025" fill="rgba(25,25,25,1.000)" /><rect x="24" y="24" width="1.025" height="1.025" fill="rgba(142,12,88,1.000)" /><rect x="25" y="24" width="1.025" height="1.025" fill="rgba(126,14,79,1.000)" /><rect x="26" y="24" width="1.025" height="1.025" fill="rgba(228,0,133,1.000)" /><rect x="27" y="24" width="1.025" height="1.025" fill="rgba(240,0,141,1.000)" /><rect x="28" y="24" width="1.025" height="1.025" fill="rgba(225,0,132,1.000)" /><rect x="10" y="25" width="1.025" height="1.025" fill="rgba(196,0,116,1.000)" /><rect x="11" y="25" width="1.025" height="1.025" fill="rgba(203,0,120,1.000)" /><rect x="12" y="25" width="1.025" height="1.025" fill="rgba(214,0,126,1.000)" /><rect x="13" y="25" width="1.025" height="1.025" fill="rgba(255,0,160,1.000)" /><rect x="18" y="25" width="1.025" height="1.025" fill="rgba(25,25,25,1.000)" /><rect x="19" y="25" width="1.025" height="1.025" fill="rgba(25,25,25,1.000)" /><rect x="20" y="25" width="1.025" height="1.025" fill="rgba(25,25,25,1.000)" /><rect x="21" y="25" width="1.025" height="1.025" fill="rgba(25,25,25,1.000)" /><rect x="22" y="25" width="1.025" height="1.025" fill="rgba(126,14,79,1.000)" /><rect x="23" y="25" width="1.025" height="1.025" fill="rgba(126,14,79,1.000)" /><rect x="24" y="25" width="1.025" height="1.025" fill="rgba(255,0,158,1.000)" /><rect x="25" y="25" width="1.025" height="1.025" fill="rgba(249,0,146,1.000)" /><rect x="26" y="25" width="1.025" height="1.025" fill="rgba(218,0,128,1.000)" /><rect x="27" y="25" width="1.025" height="1.025" fill="rgba(209,0,123,1.000)" /><rect x="10" y="26" width="1.025" height="1.025" fill="rgba(196,0,116,1.000)" /><rect x="11" y="26" width="1.025" height="1.025" fill="rgba(203,0,120,1.000)" /><rect x="12" y="26" width="1.025" height="1.025" fill="rgba(203,0,120,1.000)" /><rect x="13" y="26" width="1.025" height="1.025" fill="rgba(214,0,126,1.000)" /><rect x="14" y="26" width="1.025" height="1.025" fill="rgba(255,0,164,1.000)" /><rect x="18" y="26" width="1.025" height="1.025" fill="rgba(25,25,25,1.000)" /><rect x="19" y="26" width="1.025" height="1.025" fill="rgba(25,25,25,1.000)" /><rect x="20" y="26" width="1.025" height="1.025" fill="rgba(126,14,79,1.000)" /><rect x="21" y="26" width="1.025" height="1.025" fill="rgba(126,14,79,1.000)" /><rect x="22" y="26" width="1.025" height="1.025" fill="rgba(255,0,158,1.000)" /><rect x="23" y="26" width="1.025" height="1.025" fill="rgba(255,0,149,1.000)" /><rect x="24" y="26" width="1.025" height="1.025" fill="rgba(232,0,136,1.000)" /><rect x="25" y="26" width="1.025" height="1.025" fill="rgba(225,0,132,1.000)" /><rect x="26" y="26" width="1.025" height="1.025" fill="rgba(214,0,126,1.000)" /><rect x="11" y="27" width="1.025" height="1.025" fill="rgba(196,0,116,1.000)" /><rect x="12" y="27" width="1.025" height="1.025" fill="rgba(209,0,123,1.000)" /><rect x="13" y="27" width="1.025" height="1.025" fill="rgba(209,0,123,1.000)" /><rect x="14" y="27" width="1.025" height="1.025" fill="rgba(255,0,157,1.000)" /><rect x="15" y="27" width="1.025" height="1.025" fill="rgba(255,0,163,1.000)" /><rect x="18" y="27" width="1.025" height="1.025" fill="rgba(25,25,25,1.000)" /><rect x="19" y="27" width="1.025" height="1.025" fill="rgba(126,14,79,1.000)" /><rect x="20" y="27" width="1.025" height="1.025" fill="rgba(255,0,162,1.000)" /><rect x="21" y="27" width="1.025" height="1.025" fill="rgba(255,0,149,1.000)" /><rect x="22" y="27" width="1.025" height="1.025" fill="rgba(225,0,132,1.000)" /><rect x="23" y="27" width="1.025" height="1.025" fill="rgba(218,0,128,1.000)" /><rect x="24" y="27" width="1.025" height="1.025" fill="rgba(214,0,126,1.000)" /><rect x="25" y="27" width="1.025" height="1.025" fill="rgba(218,0,128,1.000)" /><rect x="11" y="28" width="1.025" height="1.025" fill="rgba(178,0,106,1.000)" /><rect x="12" y="28" width="1.025" height="1.025" fill="rgba(166,0,99,1.000)" /><rect x="13" y="28" width="1.025" height="1.025" fill="rgba(166,0,99,1.000)" /><rect x="14" y="28" width="1.025" height="1.025" fill="rgba(166,0,99,1.000)" /><rect x="15" y="28" width="1.025" height="1.025" fill="rgba(255,0,159,1.000)" /><rect x="16" y="28" width="1.025" height="1.025" fill="rgba(255,0,159,1.000)" /><rect x="18" y="28" width="1.025" height="1.025" fill="rgba(255,0,159,1.000)" /><rect x="19" y="28" width="1.025" height="1.025" fill="rgba(255,0,159,1.000)" /><rect x="20" y="28" width="1.025" height="1.025" fill="rgba(221,0,129,1.000)" /><rect x="21" y="28" width="1.025" height="1.025" fill="rgba(221,0,129,1.000)" /><rect x="22" y="28" width="1.025" height="1.025" fill="rgba(221,0,129,1.000)" /><rect x="23" y="28" width="1.025" height="1.025" fill="rgba(166,0,99,1.000)" /><rect x="9" y="29" width="1.025" height="1.025" fill="rgba(166,0,99,1.000)" /><rect x="10" y="29" width="1.025" height="1.025" fill="rgba(142,12,88,1.000)" /><rect x="11" y="29" width="1.025" height="1.025" fill="rgba(166,0,99,1.000)" /><rect x="12" y="29" width="1.025" height="1.025" fill="rgba(236,0,138,1.000)" /><rect x="13" y="29" width="1.025" height="1.025" fill="rgba(221,0,129,1.000)" /><rect x="14" y="29" width="1.025" height="1.025" fill="rgba(221,0,129,1.000)" /><rect x="15" y="29" width="1.025" height="1.025" fill="rgba(221,0,129,1.000)" /><rect x="16" y="29" width="1.025" height="1.025" fill="rgba(166,0,99,1.000)" /><rect x="17" y="29" width="1.025" height="1.025" fill="rgba(255,0,159,1.000)" /><rect x="18" y="29" width="1.025" height="1.025" fill="rgba(255,0,159,1.000)" /><rect x="19" y="29" width="1.025" height="1.025" fill="rgba(166,0,99,1.000)" /><rect x="20" y="29" width="1.025" height="1.025" fill="rgba(236,0,138,1.000)" /><rect x="21" y="29" width="1.025" height="1.025" fill="rgba(236,0,138,1.000)" /><rect x="22" y="29" width="1.025" height="1.025" fill="rgba(192,0,114,1.000)" /><rect x="23" y="29" width="1.025" height="1.025" fill="rgba(153,5,93,1.000)" /><rect x="7" y="30" width="1.025" height="1.025" fill="rgba(174,0,104,1.000)" /><rect x="8" y="30" width="1.025" height="1.025" fill="rgba(159,2,97,1.000)" /><rect x="9" y="30" width="1.025" height="1.025" fill="rgba(221,0,129,1.000)" /><rect x="10" y="30" width="1.025" height="1.025" fill="rgba(246,0,143,1.000)" /><rect x="11" y="30" width="1.025" height="1.025" fill="rgba(255,0,152,1.000)" /><rect x="12" y="30" width="1.025" height="1.025" fill="rgba(255,0,152,1.000)" /><rect x="13" y="30" width="1.025" height="1.025" fill="rgba(255,0,153,1.000)" /><rect x="14" y="30" width="1.025" height="1.025" fill="rgba(255,0,159,1.000)" /><rect x="15" y="30" width="1.025" height="1.025" fill="rgba(255,0,159,1.000)" /><rect x="16" y="30" width="1.025" height="1.025" fill="rgba(166,0,99,1.000)" /><rect x="17" y="30" width="1.025" height="1.025" fill="rgba(255,0,159,1.000)" /><rect x="18" y="30" width="1.025" height="1.025" fill="rgba(255,0,159,1.000)" /><rect x="19" y="30" width="1.025" height="1.025" fill="rgba(166,0,99,1.000)" /><rect x="20" y="30" width="1.025" height="1.025" fill="rgba(255,0,159,1.000)" /><rect x="21" y="30" width="1.025" height="1.025" fill="rgba(255,0,158,1.000)" /><rect x="22" y="30" width="1.025" height="1.025" fill="rgba(255,0,152,1.000)" /><rect x="23" y="30" width="1.025" height="1.025" fill="rgba(250,0,146,1.000)" /><rect x="24" y="30" width="1.025" height="1.025" fill="rgba(147,5,89,1.000)" /><rect x="25" y="30" width="1.025" height="1.025" fill="rgba(153,5,93,1.000)" /><rect x="6" y="31" width="1.025" height="1.025" fill="rgba(183,0,108,1.000)" /><rect x="7" y="31" width="1.025" height="1.025" fill="rgba(211,0,125,1.000)" /><rect x="8" y="31" width="1.025" height="1.025" fill="rgba(246,0,143,1.000)" /><rect x="9" y="31" width="1.025" height="1.025" fill="rgba(255,0,159,1.000)" /><rect x="10" y="31" width="1.025" height="1.025" fill="rgba(255,0,159,1.000)" /><rect x="11" y="31" width="1.025" height="1.025" fill="rgba(255,0,157,1.000)" /><rect x="12" y="31" width="1.025" height="1.025" fill="rgba(255,0,159,1.000)" /><rect x="13" y="31" width="1.025" height="1.025" fill="rgba(255,0,160,1.000)" /><rect x="14" y="31" width="1.025" height="1.025" fill="rgba(255,0,159,1.000)" /><rect x="15" y="31" width="1.025" height="1.025" fill="rgba(255,0,160,1.000)" /><rect x="16" y="31" width="1.025" height="1.025" fill="rgba(166,0,99,1.000)" /><rect x="17" y="31" width="1.025" height="1.025" fill="rgba(255,0,159,1.000)" /><rect x="18" y="31" width="1.025" height="1.025" fill="rgba(255,0,159,1.000)" /><rect x="19" y="31" width="1.025" height="1.025" fill="rgba(166,0,99,1.000)" /><rect x="20" y="31" width="1.025" height="1.025" fill="rgba(255,0,159,1.000)" /><rect x="21" y="31" width="1.025" height="1.025" fill="rgba(255,0,160,1.000)" /><rect x="22" y="31" width="1.025" height="1.025" fill="rgba(255,0,158,1.000)" /><rect x="23" y="31" width="1.025" height="1.025" fill="rgba(255,0,154,1.000)" /><rect x="24" y="31" width="1.025" height="1.025" fill="rgba(255,0,159,1.000)" /><rect x="25" y="31" width="1.025" height="1.025" fill="rgba(255,0,153,1.000)" /><rect x="26" y="31" width="1.025" height="1.025" fill="rgba(147,5,89,1.000)" /><rect x="5" y="32" width="1.025" height="1.025" fill="rgba(159,2,97,1.000)" /><rect x="6" y="32" width="1.025" height="1.025" fill="rgba(246,0,143,1.000)" /><rect x="7" y="32" width="1.025" height="1.025" fill="rgba(250,0,146,1.000)" /><rect x="8" y="32" width="1.025" height="1.025" fill="rgba(255,0,158,1.000)" /><rect x="9" y="32" width="1.025" height="1.025" fill="rgba(255,0,159,1.000)" /><rect x="10" y="32" width="1.025" height="1.025" fill="rgba(255,0,160,1.000)" /><rect x="11" y="32" width="1.025" height="1.025" fill="rgba(255,0,157,1.000)" /><rect x="12" y="32" width="1.025" height="1.025" fill="rgba(255,0,160,1.000)" /><rect x="13" y="32" width="1.025" height="1.025" fill="rgba(255,0,159,1.000)" /><rect x="14" y="32" width="1.025" height="1.025" fill="rgba(255,0,159,1.000)" /><rect x="15" y="32" width="1.025" height="1.025" fill="rgba(255,0,159,1.000)" /><rect x="16" y="32" width="1.025" height="1.025" fill="rgba(166,0,99,1.000)" /><rect x="17" y="32" width="1.025" height="1.025" fill="rgba(255,0,159,1.000)" /><rect x="18" y="32" width="1.025" height="1.025" fill="rgba(255,0,159,1.000)" /><rect x="19" y="32" width="1.025" height="1.025" fill="rgba(166,0,99,1.000)" /><rect x="20" y="32" width="1.025" height="1.025" fill="rgba(255,0,159,1.000)" /><rect x="21" y="32" width="1.025" height="1.025" fill="rgba(255,0,159,1.000)" /><rect x="22" y="32" width="1.025" height="1.025" fill="rgba(255,0,159,1.000)" /><rect x="23" y="32" width="1.025" height="1.025" fill="rgba(255,0,158,1.000)" /><rect x="24" y="32" width="1.025" height="1.025" fill="rgba(255,0,154,1.000)" /><rect x="25" y="32" width="1.025" height="1.025" fill="rgba(255,0,159,1.000)" /><rect x="26" y="32" width="1.025" height="1.025" fill="rgba(255,0,152,1.000)" /><rect x="27" y="32" width="1.025" height="1.025" fill="rgba(153,5,93,1.000)" /><rect x="4" y="33" width="1.025" height="1.025" fill="rgba(159,2,97,1.000)" /><rect x="5" y="33" width="1.025" height="1.025" fill="rgba(246,0,143,1.000)" /><rect x="6" y="33" width="1.025" height="1.025" fill="rgba(255,0,152,1.000)" /><rect x="7" y="33" width="1.025" height="1.025" fill="rgba(246,0,143,1.000)" /><rect x="8" y="33" width="1.025" height="1.025" fill="rgba(255,0,158,1.000)" /><rect x="9" y="33" width="1.025" height="1.025" fill="rgba(255,0,159,1.000)" /><rect x="10" y="33" width="1.025" height="1.025" fill="rgba(200,0,119,1.000)" /><rect x="11" y="33" width="1.025" height="1.025" fill="rgba(252,0,148,1.000)" /><rect x="12" y="33" width="1.025" height="1.025" fill="rgba(255,0,160,1.000)" /><rect x="13" y="33" width="1.025" height="1.025" fill="rgba(255,0,159,1.000)" /><rect x="14" y="33" width="1.025" height="1.025" fill="rgba(255,0,159,1.000)" /><rect x="15" y="33" width="1.025" height="1.025" fill="rgba(255,0,159,1.000)" /><rect x="16" y="33" width="1.025" height="1.025" fill="rgba(166,0,99,1.000)" /><rect x="17" y="33" width="1.025" height="1.025" fill="rgba(255,0,159,1.000)" /><rect x="18" y="33" width="1.025" height="1.025" fill="rgba(255,0,158,1.000)" /><rect x="19" y="33" width="1.025" height="1.025" fill="rgba(166,0,99,1.000)" /><rect x="20" y="33" width="1.025" height="1.025" fill="rgba(255,0,159,1.000)" /><rect x="21" y="33" width="1.025" height="1.025" fill="rgba(255,0,159,1.000)" /><rect x="22" y="33" width="1.025" height="1.025" fill="rgba(255,0,159,1.000)" /><rect x="23" y="33" width="1.025" height="1.025" fill="rgba(255,0,149,1.000)" /><rect x="24" y="33" width="1.025" height="1.025" fill="rgba(188,0,111,1.000)" /><rect x="25" y="33" width="1.025" height="1.025" fill="rgba(255,0,152,1.000)" /><rect x="26" y="33" width="1.025" height="1.025" fill="rgba(255,0,159,1.000)" /><rect x="27" y="33" width="1.025" height="1.025" fill="rgba(255,0,152,1.000)" /><rect x="28" y="33" width="1.025" height="1.025" fill="rgba(153,5,93,1.000)" /><rect x="4" y="34" width="1.025" height="1.025" fill="rgba(174,0,104,1.000)" /><rect x="5" y="34" width="1.025" height="1.025" fill="rgba(255,0,152,1.000)" /><rect x="6" y="34" width="1.025" height="1.025" fill="rgba(250,0,146,1.000)" /><rect x="7" y="34" width="1.025" height="1.025" fill="rgba(246,0,143,1.000)" /><rect x="8" y="34" width="1.025" height="1.025" fill="rgba(255,0,158,1.000)" /><rect x="9" y="34" width="1.025" height="1.025" fill="rgba(255,0,149,1.000)" /><rect x="10" y="34" width="1.025" height="1.025" fill="rgba(114,16,72,1.000)" /><rect x="11" y="34" width="1.025" height="1.025" fill="rgba(203,0,120,1.000)" /><rect x="12" y="34" width="1.025" height="1.025" fill="rgba(255,0,158,1.000)" /><rect x="13" y="34" width="1.025" height="1.025" fill="rgba(255,0,153,1.000)" /><rect x="14" y="34" width="1.025" height="1.025" fill="rgba(255,0,158,1.000)" /><rect x="15" y="34" width="1.025" height="1.025" fill="rgba(255,0,159,1.000)" /><rect x="16" y="34" width="1.025" height="1.025" fill="rgba(166,0,99,1.000)" /><rect x="17" y="34" width="1.025" height="1.025" fill="rgba(255,0,159,1.000)" /><rect x="18" y="34" width="1.025" height="1.025" fill="rgba(255,0,152,1.000)" /><rect x="19" y="34" width="1.025" height="1.025" fill="rgba(166,0,99,1.000)" /><rect x="20" y="34" width="1.025" height="1.025" fill="rgba(255,0,159,1.000)" /><rect x="21" y="34" width="1.025" height="1.025" fill="rgba(255,0,159,1.000)" /><rect x="22" y="34" width="1.025" height="1.025" fill="rgba(255,0,153,1.000)" /><rect x="23" y="34" width="1.025" height="1.025" fill="rgba(221,0,129,1.000)" /><rect x="24" y="34" width="1.025" height="1.025" fill="rgba(25,25,25,1.000)" /><rect x="25" y="34" width="1.025" height="1.025" fill="rgba(255,0,152,1.000)" /><rect x="26" y="34" width="1.025" height="1.025" fill="rgba(255,0,152,1.000)" /><rect x="27" y="34" width="1.025" height="1.025" fill="rgba(255,0,159,1.000)" /><rect x="28" y="34" width="1.025" height="1.025" fill="rgba(153,5,93,1.000)" /><rect x="4" y="35" width="1.025" height="1.025" fill="rgba(183,0,108,1.000)" /><rect x="5" y="35" width="1.025" height="1.025" fill="rgba(250,0,146,1.000)" /><rect x="6" y="35" width="1.025" height="1.025" fill="rgba(250,0,146,1.000)" /><rect x="7" y="35" width="1.025" height="1.025" fill="rgba(246,0,143,1.000)" /><rect x="8" y="35" width="1.025" height="1.025" fill="rgba(255,0,158,1.000)" /><rect x="9" y="35" width="1.025" height="1.025" fill="rgba(211,0,125,1.000)" /><rect x="10" y="35" width="1.025" height="1.025" fill="rgba(25,25,25,1.000)" /><rect x="11" y="35" width="1.025" height="1.025" fill="rgba(142,12,88,1.000)" /><rect x="12" y="35" width="1.025" height="1.025" fill="rgba(234,0,137,1.000)" /><rect x="13" y="35" width="1.025" height="1.025" fill="rgba(225,0,132,1.000)" /><rect x="14" y="35" width="1.025" height="1.025" fill="rgba(249,0,146,1.000)" /><rect x="15" y="35" width="1.025" height="1.025" fill="rgba(255,0,159,1.000)" /><rect x="16" y="35" width="1.025" height="1.025" fill="rgba(166,0,99,1.000)" /><rect x="17" y="35" width="1.025" height="1.025" fill="rgba(255,0,157,1.000)" /><rect x="18" y="35" width="1.025" height="1.025" fill="rgba(228,0,133,1.000)" /><rect x="19" y="35" width="1.025" height="1.025" fill="rgba(166,0,99,1.000)" /><rect x="20" y="35" width="1.025" height="1.025" fill="rgba(255,0,159,1.000)" /><rect x="21" y="35" width="1.025" height="1.025" fill="rgba(255,0,158,1.000)" /><rect x="22" y="35" width="1.025" height="1.025" fill="rgba(234,0,137,1.000)" /><rect x="23" y="35" width="1.025" height="1.025" fill="rgba(188,0,111,1.000)" /><rect x="24" y="35" width="1.025" height="1.025" fill="rgba(25,25,25,1.000)" /><rect x="25" y="35" width="1.025" height="1.025" fill="rgba(252,0,148,1.000)" /><rect x="26" y="35" width="1.025" height="1.025" fill="rgba(246,0,143,1.000)" /><rect x="27" y="35" width="1.025" height="1.025" fill="rgba(255,0,152,1.000)" /><rect x="28" y="35" width="1.025" height="1.025" fill="rgba(114,16,72,1.000)" /><rect x="4" y="36" width="1.025" height="1.025" fill="rgba(126,14,79,1.000)" /><rect x="5" y="36" width="1.025" height="1.025" fill="rgba(250,0,146,1.000)" /><rect x="6" y="36" width="1.025" height="1.025" fill="rgba(250,0,146,1.000)" /><rect x="7" y="36" width="1.025" height="1.025" fill="rgba(246,0,143,1.000)" /><rect x="8" y="36" width="1.025" height="1.025" fill="rgba(255,0,158,1.000)" /><rect x="9" y="36" width="1.025" height="1.025" fill="rgba(174,0,104,1.000)" /><rect x="10" y="36" width="1.025" height="1.025" fill="rgba(25,25,25,1.000)" /><rect x="11" y="36" width="1.025" height="1.025" fill="rgba(147,5,89,1.000)" /><rect x="12" y="36" width="1.025" height="1.025" fill="rgba(188,0,111,1.000)" /><rect x="13" y="36" width="1.025" height="1.025" fill="rgba(221,0,129,1.000)" /><rect x="14" y="36" width="1.025" height="1.025" fill="rgba(225,0,132,1.000)" /><rect x="15" y="36" width="1.025" height="1.025" fill="rgba(234,0,137,1.000)" /><rect x="16" y="36" width="1.025" height="1.025" fill="rgba(166,0,99,1.000)" /><rect x="17" y="36" width="1.025" height="1.025" fill="rgba(214,0,126,1.000)" /><rect x="18" y="36" width="1.025" height="1.025" fill="rgba(214,0,126,1.000)" /><rect x="19" y="36" width="1.025" height="1.025" fill="rgba(166,0,99,1.000)" /><rect x="20" y="36" width="1.025" height="1.025" fill="rgba(250,0,146,1.000)" /><rect x="21" y="36" width="1.025" height="1.025" fill="rgba(250,0,146,1.000)" /><rect x="22" y="36" width="1.025" height="1.025" fill="rgba(234,0,137,1.000)" /><rect x="23" y="36" width="1.025" height="1.025" fill="rgba(166,0,99,1.000)" /><rect x="24" y="36" width="1.025" height="1.025" fill="rgba(25,25,25,1.000)" /><rect x="25" y="36" width="1.025" height="1.025" fill="rgba(252,0,148,1.000)" /><rect x="26" y="36" width="1.025" height="1.025" fill="rgba(246,0,143,1.000)" /><rect x="27" y="36" width="1.025" height="1.025" fill="rgba(246,0,143,1.000)" /><rect x="28" y="36" width="1.025" height="1.025" fill="rgba(63,14,42,1.000)" /></svg>