<svg shape-rendering="crispEdges" xmlns="http://www.w3.org/2000/svg" version="1.1" width="37" height="37"><style>rect { image-rendering: pixelated; }</style><rect x="5" y="0" width="1.025" height="1.025" fill="rgba(250,211,0,1.000)" /><rect x="7" y="0" width="1.025" height="1.025" fill="rgba(250,211,0,1.000)" /><rect x="6" y="1" width="1.025" height="1.025" fill="rgba(250,211,0,1.000)" /><rect x="7" y="1" width="1.025" height="1.025" fill="rgba(255,255,0,1.000)" /><rect x="8" y="1" width="1.025" height="1.025" fill="rgba(255,255,0,1.000)" /><rect x="9" y="1" width="1.025" height="1.025" fill="rgba(255,0,255,1.000)" /><rect x="10" y="1" width="1.025" height="1.025" fill="rgba(255,0,255,1.000)" /><rect x="25" y="1" width="1.025" height="1.025" fill="rgba(255,0,255,1.000)" /><rect x="26" y="1" width="1.025" height="1.025" fill="rgba(255,0,255,1.000)" /><rect x="27" y="1" width="1.025" height="1.025" fill="rgba(255,0,255,1.000)" /><rect x="28" y="1" width="1.025" height="1.025" fill="rgba(250,211,0,1.000)" /><rect x="30" y="1" width="1.025" height="1.025" fill="rgba(255,255,0,1.000)" /><rect x="32" y="1" width="1.025" height="1.025" fill="rgba(255,255,0,1.000)" /><rect x="5" y="2" width="1.025" height="1.025" fill="rgba(255,255,0,1.000)" /><rect x="6" y="2" width="1.025" height="1.025" fill="rgba(255,255,0,1.000)" /><rect x="7" y="2" width="1.025" height="1.025" fill="rgba(255,255,0,1.000)" /><rect x="8" y="2" width="1.025" height="1.025" fill="rgba(250,211,0,1.000)" /><rect x="9" y="2" width="1.025" height="1.025" fill="rgba(250,211,0,1.000)" /><rect x="11" y="2" width="1.025" height="1.025" fill="rgba(255,0,255,1.000)" /><rect x="12" y="2" width="1.025" height="1.025" fill="rgba(255,0,255,1.000)" /><rect x="24" y="2" width="1.025" height="1.025" fill="rgba(255,0,255,1.000)" /><rect x="28" y="2" width="1.025" height="1.025" fill="rgba(255,0,255,1.000)" /><rect x="29" y="2" width="1.025" height="1.025" fill="rgba(255,255,0,1.000)" /><rect x="30" y="2" width="1.025" height="1.025" fill="rgba(250,211,0,1.000)" /><rect x="31" y="2" width="1.025" height="1.025" fill="rgba(255,255,0,1.000)" /><rect x="6" y="3" width="1.025" height="1.025" fill="rgba(255,255,0,1.000)" /><rect x="7" y="3" width="1.025" height="1.025" fill="rgba(250,211,0,1.000)" /><rect x="8" y="3" width="1.025" height="1.025" fill="rgba(255,255,0,1.000)" /><rect x="13" y="3" width="1.025" height="1.025" fill="rgba(255,0,255,1.000)" /><rect x="23" y="3" width="1.025" height="1.025" fill="rgba(255,0,255,1.000)" /><rect x="28" y="3" width="1.025" height="1.025" fill="rgba(255,255,0,1.000)" /><rect x="29" y="3" width="1.025" height="1.025" fill="rgba(255,255,0,1.000)" /><rect x="30" y="3" width="1.025" height="1.025" fill="rgba(255,255,0,1.000)" /><rect x="31" y="3" width="1.025" height="1.025" fill="rgba(255,255,0,1.000)" /><rect x="32" y="3" width="1.025" height="1.025" fill="rgba(255,255,0,1.000)" /><rect x="5" y="4" width="1.025" height="1.025" fill="rgba(250,211,0,1.000)" /><rect x="7" y="4" width="1.025" height="1.025" fill="rgba(255,255,0,1.000)" /><rect x="9" y="4" width="1.025" height="1.025" fill="rgba(255,255,0,1.000)" /><rect x="14" y="4" width="1.025" height="1.025" fill="rgba(255,0,255,1.000)" /><rect x="22" y="4" width="1.025" height="1.025" fill="rgba(255,0,255,1.000)" /><rect x="29" y="4" width="1.025" height="1.025" fill="rgba(250,211,0,1.000)" /><rect x="30" y="4" width="1.025" height="1.025" fill="rgba(255,255,0,1.000)" /><rect x="31" y="4" width="1.025" height="1.025" fill="rgba(250,211,0,1.000)" /><rect x="14" y="5" width="1.025" height="1.025" fill="rgba(228,0,254,1.000)" /><rect x="15" y="5" width="1.025" height="1.025" fill="rgba(228,0,254,1.000)" /><rect x="16" y="5" width="1.025" height="1.025" fill="rgba(228,0,254,1.000)" /><rect x="17" y="5" width="1.025" height="1.025" fill="rgba(222,0,254,1.000)" /><rect x="18" y="5" width="1.025" height="1.025" fill="rgba(220,0,254,1.000)" /><rect x="19" y="5" width="1.025" height="1.025" fill="rgba(218,0,254,1.000)" /><rect x="20" y="5" width="1.025" height="1.025" fill="rgba(216,0,254,1.000)" /><rect x="21" y="5" width="1.025" height="1.025" fill="rgba(216,0,254,1.000)" /><rect x="22" y="5" width="1.025" height="1.025" fill="rgba(212,0,254,1.000)" /><rect x="28" y="5" width="1.025" height="1.025" fill="rgba(250,211,0,1.000)" /><rect x="30" y="5" width="1.025" height="1.025" fill="rgba(255,255,0,1.000)" /><rect x="32" y="5" width="1.025" height="1.025" fill="rgba(250,211,0,1.000)" /><rect x="13" y="6" width="1.025" height="1.025" fill="rgba(204,0,254,1.000)" /><rect x="23" y="6" width="1.025" height="1.025" fill="rgba(178,0,254,1.000)" /><rect x="12" y="7" width="1.025" height="1.025" fill="rgba(170,0,254,1.000)" /><rect x="11" y="8" width="1.025" height="1.025" fill="rgba(144,0,254,1.000)" /><rect x="11" y="9" width="1.025" height="1.025" fill="rgba(114,0,254,1.000)" /><rect x="11" y="10" width="1.025" height="1.025" fill="rgba(92,0,254,1.000)" /><rect x="11" y="11" width="1.025" height="1.025" fill="rgba(90,0,254,1.000)" /><rect x="11" y="12" width="1.025" height="1.025" fill="rgba(90,0,254,1.000)" /></svg>