<svg shape-rendering="crispEdges" xmlns="http://www.w3.org/2000/svg" version="1.1" width="37" height="37"><style>rect { image-rendering: pixelated; }</style><rect x="12" y="8" width="1.025" height="1.025" fill="rgba(219,156,0,1.000)" /><rect x="13" y="8" width="1.025" height="1.025" fill="rgba(214,150,0,1.000)" /><rect x="15" y="8" width="1.025" height="1.025" fill="rgba(190,139,59,1.000)" /><rect x="17" y="8" width="1.025" height="1.025" fill="rgba(215,151,0,1.000)" /><rect x="19" y="8" width="1.025" height="1.025" fill="rgba(255,179,0,1.000)" /><rect x="21" y="8" width="1.025" height="1.025" fill="rgba(255,180,0,1.000)" /><rect x="23" y="8" width="1.025" height="1.025" fill="rgba(202,141,6,1.000)" /><rect x="24" y="8" width="1.025" height="1.025" fill="rgba(215,150,0,1.000)" /><rect x="11" y="9" width="1.025" height="1.025" fill="rgba(219,156,0,1.000)" /><rect x="12" y="9" width="1.025" height="1.025" fill="rgba(133,95,2,1.000)" /><rect x="13" y="9" width="1.025" height="1.025" fill="rgba(167,117,0,1.000)" /><rect x="14" y="9" width="1.025" height="1.025" fill="rgba(167,117,0,1.000)" /><rect x="15" y="9" width="1.025" height="1.025" fill="rgba(198,138,1,1.000)" /><rect x="16" y="9" width="1.025" height="1.025" fill="rgba(218,153,2,1.000)" /><rect x="17" y="9" width="1.025" height="1.025" fill="rgba(217,153,2,1.000)" /><rect x="18" y="9" width="1.025" height="1.025" fill="rgba(255,180,0,1.000)" /><rect x="19" y="9" width="1.025" height="1.025" fill="rgba(253,195,59,1.000)" /><rect x="20" y="9" width="1.025" height="1.025" fill="rgba(253,195,59,1.000)" /><rect x="21" y="9" width="1.025" height="1.025" fill="rgba(253,194,58,1.000)" /><rect x="22" y="9" width="1.025" height="1.025" fill="rgba(255,180,0,1.000)" /><rect x="23" y="9" width="1.025" height="1.025" fill="rgba(255,179,0,1.000)" /><rect x="24" y="9" width="1.025" height="1.025" fill="rgba(255,179,6,1.000)" /><rect x="11" y="10" width="1.025" height="1.025" fill="rgba(219,156,0,1.000)" /><rect x="12" y="10" width="1.025" height="1.025" fill="rgba(166,116,0,1.000)" /><rect x="13" y="10" width="1.025" height="1.025" fill="rgba(219,156,0,1.000)" /><rect x="14" y="10" width="1.025" height="1.025" fill="rgba(219,156,0,1.000)" /><rect x="15" y="10" width="1.025" height="1.025" fill="rgba(217,153,2,1.000)" /><rect x="16" y="10" width="1.025" height="1.025" fill="rgba(217,153,2,1.000)" /><rect x="17" y="10" width="1.025" height="1.025" fill="rgba(255,180,0,1.000)" /><rect x="18" y="10" width="1.025" height="1.025" fill="rgba(255,179,0,1.000)" /><rect x="19" y="10" width="1.025" height="1.025" fill="rgba(255,180,0,1.000)" /><rect x="20" y="10" width="1.025" height="1.025" fill="rgba(254,195,59,1.000)" /><rect x="21" y="10" width="1.025" height="1.025" fill="rgba(253,195,59,1.000)" /><rect x="22" y="10" width="1.025" height="1.025" fill="rgba(253,195,59,1.000)" /><rect x="23" y="10" width="1.025" height="1.025" fill="rgba(255,179,6,1.000)" /><rect x="24" y="10" width="1.025" height="1.025" fill="rgba(255,180,0,1.000)" /><rect x="25" y="10" width="1.025" height="1.025" fill="rgba(255,180,0,1.000)" /><rect x="20" y="11" width="1.025" height="1.025" fill="rgba(215,150,0,1.000)" /><rect x="19" y="12" width="1.025" height="1.025" fill="rgba(214,149,0,1.000)" /><rect x="20" y="12" width="1.025" height="1.025" fill="rgba(192,0,3,1.000)" /><rect x="21" y="12" width="1.025" height="1.025" fill="rgba(254,178,0,1.000)" /><rect x="20" y="13" width="1.025" height="1.025" fill="rgba(232,117,10,1.000)" /></svg>