<svg shape-rendering="crispEdges" xmlns="http://www.w3.org/2000/svg" version="1.1" width="37" height="37"><style>rect { image-rendering: pixelated; }</style><rect x="15" y="2" width="1.025" height="1.025" fill="rgba(6,7,6,1.000)" /><rect x="16" y="2" width="1.025" height="1.025" fill="rgba(8,9,9,1.000)" /><rect x="17" y="2" width="1.025" height="1.025" fill="rgba(5,6,6,1.000)" /><rect x="18" y="2" width="1.025" height="1.025" fill="rgba(3,2,3,1.000)" /><rect x="19" y="2" width="1.025" height="1.025" fill="rgba(2,2,1,1.000)" /><rect x="20" y="2" width="1.025" height="1.025" fill="rgba(1,1,1,1.000)" /><rect x="21" y="2" width="1.025" height="1.025" fill="rgba(1,0,0,1.000)" /><rect x="14" y="3" width="1.025" height="1.025" fill="rgba(13,13,13,1.000)" /><rect x="15" y="3" width="1.025" height="1.025" fill="rgba(21,21,22,1.000)" /><rect x="16" y="3" width="1.025" height="1.025" fill="rgba(17,17,16,1.000)" /><rect x="17" y="3" width="1.025" height="1.025" fill="rgba(12,12,12,1.000)" /><rect x="18" y="3" width="1.025" height="1.025" fill="rgba(7,7,8,1.000)" /><rect x="19" y="3" width="1.025" height="1.025" fill="rgba(4,5,4,1.000)" /><rect x="20" y="3" width="1.025" height="1.025" fill="rgba(2,2,2,1.000)" /><rect x="21" y="3" width="1.025" height="1.025" fill="rgba(1,1,1,1.000)" /><rect x="22" y="3" width="1.025" height="1.025" fill="rgba(1,0,0,1.000)" /><rect x="23" y="3" width="1.025" height="1.025" fill="rgba(0,1,0,1.000)" /><rect x="13" y="4" width="1.025" height="1.025" fill="rgba(0,0,0,1.000)" /><rect x="14" y="4" width="1.025" height="1.025" fill="rgba(36,35,36,1.000)" /><rect x="15" y="4" width="1.025" height="1.025" fill="rgba(30,30,31,1.000)" /><rect x="16" y="4" width="1.025" height="1.025" fill="rgba(25,25,25,1.000)" /><rect x="17" y="4" width="1.025" height="1.025" fill="rgba(19,20,20,1.000)" /><rect x="18" y="4" width="1.025" height="1.025" fill="rgba(15,15,15,1.000)" /><rect x="19" y="4" width="1.025" height="1.025" fill="rgba(10,10,10,1.000)" /><rect x="20" y="4" width="1.025" height="1.025" fill="rgba(7,6,6,1.000)" /><rect x="21" y="4" width="1.025" height="1.025" fill="rgba(4,4,3,1.000)" /><rect x="22" y="4" width="1.025" height="1.025" fill="rgba(2,2,1,1.000)" /><rect x="23" y="4" width="1.025" height="1.025" fill="rgba(1,0,1,1.000)" /><rect x="24" y="4" width="1.025" height="1.025" fill="rgba(1,0,0,1.000)" /><rect x="13" y="5" width="1.025" height="1.025" fill="rgba(0,0,0,1.000)" /><rect x="14" y="5" width="1.025" height="1.025" fill="rgba(45,44,44,1.000)" /><rect x="15" y="5" width="1.025" height="1.025" fill="rgba(39,39,39,1.000)" /><rect x="16" y="5" width="1.025" height="1.025" fill="rgba(33,34,34,1.000)" /><rect x="17" y="5" width="1.025" height="1.025" fill="rgba(29,29,29,1.000)" /><rect x="18" y="5" width="1.025" height="1.025" fill="rgba(23,23,23,1.000)" /><rect x="19" y="5" width="1.025" height="1.025" fill="rgba(19,18,18,1.000)" /><rect x="20" y="5" width="1.025" height="1.025" fill="rgba(13,14,13,1.000)" /><rect x="21" y="5" width="1.025" height="1.025" fill="rgba(8,9,9,1.000)" /><rect x="22" y="5" width="1.025" height="1.025" fill="rgba(6,5,6,1.000)" /><rect x="23" y="5" width="1.025" height="1.025" fill="rgba(3,3,3,1.000)" /><rect x="24" y="5" width="1.025" height="1.025" fill="rgba(2,2,2,1.000)" /><rect x="13" y="6" width="1.025" height="1.025" fill="rgba(0,0,0,1.000)" /><rect x="14" y="6" width="1.025" height="1.025" fill="rgba(52,53,53,1.000)" /><rect x="15" y="6" width="1.025" height="1.025" fill="rgba(48,47,48,1.000)" /><rect x="16" y="6" width="1.025" height="1.025" fill="rgba(42,43,43,1.000)" /><rect x="17" y="6" width="1.025" height="1.025" fill="rgba(37,37,37,1.000)" /><rect x="18" y="6" width="1.025" height="1.025" fill="rgba(32,32,32,1.000)" /><rect x="19" y="6" width="1.025" height="1.025" fill="rgba(27,27,27,1.000)" /><rect x="20" y="6" width="1.025" height="1.025" fill="rgba(21,21,21,1.000)" /><rect x="21" y="6" width="1.025" height="1.025" fill="rgba(17,16,17,1.000)" /><rect x="22" y="6" width="1.025" height="1.025" fill="rgba(12,12,12,1.000)" /><rect x="23" y="6" width="1.025" height="1.025" fill="rgba(8,7,8,1.000)" /><rect x="24" y="6" width="1.025" height="1.025" fill="rgba(5,4,5,1.000)" /><rect x="13" y="7" width="1.025" height="1.025" fill="rgba(130,130,130,1.000)" /><rect x="14" y="7" width="1.025" height="1.025" fill="rgba(61,61,61,1.000)" /><rect x="15" y="7" width="1.025" height="1.025" fill="rgba(56,56,56,1.000)" /><rect x="16" y="7" width="1.025" height="1.025" fill="rgba(51,51,51,1.000)" /><rect x="17" y="7" width="1.025" height="1.025" fill="rgba(46,46,46,1.000)" /><rect x="18" y="7" width="1.025" height="1.025" fill="rgba(41,41,41,1.000)" /><rect x="19" y="7" width="1.025" height="1.025" fill="rgba(35,35,36,1.000)" /><rect x="20" y="7" width="1.025" height="1.025" fill="rgba(31,30,30,1.000)" /><rect x="21" y="7" width="1.025" height="1.025" fill="rgba(25,25,25,1.000)" /><rect x="22" y="7" width="1.025" height="1.025" fill="rgba(20,20,20,1.000)" /><rect x="23" y="7" width="1.025" height="1.025" fill="rgba(15,15,15,1.000)" /><rect x="24" y="7" width="1.025" height="1.025" fill="rgba(255,255,255,1.000)" /><rect x="4" y="8" width="1.025" height="1.025" fill="rgba(0,0,0,1.000)" /><rect x="5" y="8" width="1.025" height="1.025" fill="rgba(0,0,0,1.000)" /><rect x="6" y="8" width="1.025" height="1.025" fill="rgba(0,0,0,1.000)" /><rect x="7" y="8" width="1.025" height="1.025" fill="rgba(0,0,0,1.000)" /><rect x="8" y="8" width="1.025" height="1.025" fill="rgba(0,0,0,1.000)" /><rect x="9" y="8" width="1.025" height="1.025" fill="rgba(0,0,0,1.000)" /><rect x="10" y="8" width="1.025" height="1.025" fill="rgba(0,0,0,1.000)" /><rect x="11" y="8" width="1.025" height="1.025" fill="rgba(0,0,0,1.000)" /><rect x="12" y="8" width="1.025" height="1.025" fill="rgba(0,0,0,1.000)" /><rect x="13" y="8" width="1.025" height="1.025" fill="rgba(0,0,0,1.000)" /><rect x="14" y="8" width="1.025" height="1.025" fill="rgba(156,156,156,1.000)" /><rect x="15" y="8" width="1.025" height="1.025" fill="rgba(181,181,180,1.000)" /><rect x="16" y="8" width="1.025" height="1.025" fill="rgba(203,203,203,1.000)" /><rect x="17" y="8" width="1.025" height="1.025" fill="rgba(223,223,223,1.000)" /><rect x="18" y="8" width="1.025" height="1.025" fill="rgba(240,241,241,1.000)" /><rect x="19" y="8" width="1.025" height="1.025" fill="rgba(252,252,252,1.000)" /><rect x="20" y="8" width="1.025" height="1.025" fill="rgba(254,255,255,1.000)" /><rect x="21" y="8" width="1.025" height="1.025" fill="rgba(255,255,255,1.000)" /><rect x="22" y="8" width="1.025" height="1.025" fill="rgba(255,255,255,1.000)" /><rect x="23" y="8" width="1.025" height="1.025" fill="rgba(255,255,255,1.000)" /><rect x="24" y="8" width="1.025" height="1.025" fill="rgba(0,0,0,1.000)" /><rect x="25" y="8" width="1.025" height="1.025" fill="rgba(0,0,0,1.000)" /><rect x="26" y="8" width="1.025" height="1.025" fill="rgba(0,0,0,1.000)" /><rect x="27" y="8" width="1.025" height="1.025" fill="rgba(0,0,0,1.000)" /><rect x="28" y="8" width="1.025" height="1.025" fill="rgba(0,0,0,1.000)" /><rect x="29" y="8" width="1.025" height="1.025" fill="rgba(0,0,0,1.000)" /><rect x="30" y="8" width="1.025" height="1.025" fill="rgba(0,0,0,1.000)" /><rect x="31" y="8" width="1.025" height="1.025" fill="rgba(0,0,0,1.000)" /><rect x="32" y="8" width="1.025" height="1.025" fill="rgba(0,0,0,1.000)" /><rect x="33" y="8" width="1.025" height="1.025" fill="rgba(0,0,0,1.000)" /><rect x="2" y="9" width="1.025" height="1.025" fill="rgba(0,0,0,1.000)" /><rect x="3" y="9" width="1.025" height="1.025" fill="rgba(0,0,0,1.000)" /><rect x="4" y="9" width="1.025" height="1.025" fill="rgba(0,0,0,1.000)" /><rect x="5" y="9" width="1.025" height="1.025" fill="rgba(0,0,0,1.000)" /><rect x="6" y="9" width="1.025" height="1.025" fill="rgba(0,0,0,1.000)" /><rect x="7" y="9" width="1.025" height="1.025" fill="rgba(0,0,0,1.000)" /><rect x="8" y="9" width="1.025" height="1.025" fill="rgba(0,0,0,1.000)" /><rect x="9" y="9" width="1.025" height="1.025" fill="rgba(0,0,0,1.000)" /><rect x="10" y="9" width="1.025" height="1.025" fill="rgba(0,0,0,1.000)" /><rect x="11" y="9" width="1.025" height="1.025" fill="rgba(0,0,0,1.000)" /><rect x="12" y="9" width="1.025" height="1.025" fill="rgba(0,0,0,1.000)" /><rect x="13" y="9" width="1.025" height="1.025" fill="rgba(0,0,0,1.000)" /><rect x="14" y="9" width="1.025" height="1.025" fill="rgba(0,0,0,1.000)" /><rect x="15" y="9" width="1.025" height="1.025" fill="rgba(0,0,0,1.000)" /><rect x="16" y="9" width="1.025" height="1.025" fill="rgba(0,0,0,1.000)" /><rect x="17" y="9" width="1.025" height="1.025" fill="rgba(0,0,0,1.000)" /><rect x="18" y="9" width="1.025" height="1.025" fill="rgba(0,0,0,1.000)" /><rect x="19" y="9" width="1.025" height="1.025" fill="rgba(0,0,0,1.000)" /><rect x="20" y="9" width="1.025" height="1.025" fill="rgba(0,0,0,1.000)" /><rect x="21" y="9" width="1.025" height="1.025" fill="rgba(0,0,0,1.000)" /><rect x="22" y="9" width="1.025" height="1.025" fill="rgba(0,0,0,1.000)" /><rect x="23" y="9" width="1.025" height="1.025" fill="rgba(0,0,0,1.000)" /><rect x="24" y="9" width="1.025" height="1.025" fill="rgba(0,0,0,1.000)" /><rect x="25" y="9" width="1.025" height="1.025" fill="rgba(0,0,0,1.000)" /><rect x="26" y="9" width="1.025" height="1.025" fill="rgba(0,0,0,1.000)" /><rect x="27" y="9" width="1.025" height="1.025" fill="rgba(0,0,0,1.000)" /><rect x="28" y="9" width="1.025" height="1.025" fill="rgba(0,0,0,1.000)" /><rect x="29" y="9" width="1.025" height="1.025" fill="rgba(0,0,0,1.000)" /><rect x="30" y="9" width="1.025" height="1.025" fill="rgba(0,0,0,1.000)" /><rect x="31" y="9" width="1.025" height="1.025" fill="rgba(0,0,0,1.000)" /><rect x="32" y="9" width="1.025" height="1.025" fill="rgba(0,0,0,1.000)" /><rect x="33" y="9" width="1.025" height="1.025" fill="rgba(0,0,0,1.000)" /><rect x="34" y="9" width="1.025" height="1.025" fill="rgba(0,0,0,1.000)" /><rect x="35" y="9" width="1.025" height="1.025" fill="rgba(0,0,0,1.000)" /><rect x="4" y="10" width="1.025" height="1.025" fill="rgba(6,6,6,1.000)" /><rect x="5" y="10" width="1.025" height="1.025" fill="rgba(6,6,6,1.000)" /><rect x="6" y="10" width="1.025" height="1.025" fill="rgba(6,6,6,1.000)" /><rect x="7" y="10" width="1.025" height="1.025" fill="rgba(6,6,6,1.000)" /><rect x="8" y="10" width="1.025" height="1.025" fill="rgba(6,6,6,1.000)" /><rect x="9" y="10" width="1.025" height="1.025" fill="rgba(5,6,6,1.000)" /><rect x="10" y="10" width="1.025" height="1.025" fill="rgba(6,6,6,1.000)" /><rect x="11" y="10" width="1.025" height="1.025" fill="rgba(6,6,6,1.000)" /><rect x="12" y="10" width="1.025" height="1.025" fill="rgba(6,6,5,1.000)" /><rect x="13" y="10" width="1.025" height="1.025" fill="rgba(6,6,6,1.000)" /><rect x="14" y="10" width="1.025" height="1.025" fill="rgba(6,6,6,1.000)" /><rect x="15" y="10" width="1.025" height="1.025" fill="rgba(6,6,6,1.000)" /><rect x="16" y="10" width="1.025" height="1.025" fill="rgba(6,6,6,1.000)" /><rect x="17" y="10" width="1.025" height="1.025" fill="rgba(6,6,6,1.000)" /><rect x="18" y="10" width="1.025" height="1.025" fill="rgba(6,6,5,1.000)" /><rect x="19" y="10" width="1.025" height="1.025" fill="rgba(6,6,6,1.000)" /><rect x="20" y="10" width="1.025" height="1.025" fill="rgba(6,6,6,1.000)" /><rect x="21" y="10" width="1.025" height="1.025" fill="rgba(6,6,6,1.000)" /><rect x="22" y="10" width="1.025" height="1.025" fill="rgba(6,6,6,1.000)" /><rect x="23" y="10" width="1.025" height="1.025" fill="rgba(6,6,6,1.000)" /><rect x="24" y="10" width="1.025" height="1.025" fill="rgba(5,6,6,1.000)" /><rect x="25" y="10" width="1.025" height="1.025" fill="rgba(6,6,6,1.000)" /><rect x="26" y="10" width="1.025" height="1.025" fill="rgba(6,6,6,1.000)" /><rect x="27" y="10" width="1.025" height="1.025" fill="rgba(6,6,6,1.000)" /><rect x="28" y="10" width="1.025" height="1.025" fill="rgba(6,6,6,1.000)" /><rect x="29" y="10" width="1.025" height="1.025" fill="rgba(6,6,6,1.000)" /><rect x="30" y="10" width="1.025" height="1.025" fill="rgba(6,5,6,1.000)" /><rect x="31" y="10" width="1.025" height="1.025" fill="rgba(6,6,6,1.000)" /><rect x="32" y="10" width="1.025" height="1.025" fill="rgba(6,5,6,1.000)" /><rect x="33" y="10" width="1.025" height="1.025" fill="rgba(6,6,6,1.000)" /><rect x="9" y="11" width="1.025" height="1.025" fill="rgba(43,43,43,1.000)" /><rect x="10" y="11" width="1.025" height="1.025" fill="rgba(43,43,43,1.000)" /><rect x="11" y="11" width="1.025" height="1.025" fill="rgba(43,43,43,1.000)" /><rect x="12" y="11" width="1.025" height="1.025" fill="rgba(43,43,43,1.000)" /><rect x="13" y="11" width="1.025" height="1.025" fill="rgba(43,43,43,1.000)" /><rect x="14" y="11" width="1.025" height="1.025" fill="rgba(43,43,43,1.000)" /><rect x="15" y="11" width="1.025" height="1.025" fill="rgba(43,43,43,1.000)" /><rect x="16" y="11" width="1.025" height="1.025" fill="rgba(43,43,43,1.000)" /><rect x="17" y="11" width="1.025" height="1.025" fill="rgba(43,43,43,1.000)" /><rect x="18" y="11" width="1.025" height="1.025" fill="rgba(43,43,43,1.000)" /><rect x="19" y="11" width="1.025" height="1.025" fill="rgba(43,43,43,1.000)" /><rect x="20" y="11" width="1.025" height="1.025" fill="rgba(44,43,43,1.000)" /><rect x="21" y="11" width="1.025" height="1.025" fill="rgba(43,43,43,1.000)" /><rect x="22" y="11" width="1.025" height="1.025" fill="rgba(44,43,43,1.000)" /><rect x="23" y="11" width="1.025" height="1.025" fill="rgba(43,43,43,1.000)" /><rect x="24" y="11" width="1.025" height="1.025" fill="rgba(43,43,43,1.000)" /><rect x="25" y="11" width="1.025" height="1.025" fill="rgba(43,43,43,1.000)" /><rect x="26" y="11" width="1.025" height="1.025" fill="rgba(43,43,43,1.000)" /><rect x="27" y="11" width="1.025" height="1.025" fill="rgba(43,43,43,1.000)" /><rect x="28" y="11" width="1.025" height="1.025" fill="rgba(43,43,44,1.000)" /></svg>