<svg shape-rendering="crispEdges" xmlns="http://www.w3.org/2000/svg" version="1.1" width="37" height="37"><style>rect { image-rendering: pixelated; }</style><rect x="15" y="3" width="1.025" height="1.025" fill="rgba(186,134,0,1.000)" /><rect x="16" y="3" width="1.025" height="1.025" fill="rgba(238,186,0,1.000)" /><rect x="17" y="3" width="1.025" height="1.025" fill="rgba(202,149,0,1.000)" /><rect x="18" y="3" width="1.025" height="1.025" fill="rgba(226,178,0,1.000)" /><rect x="19" y="3" width="1.025" height="1.025" fill="rgba(182,134,0,1.000)" /><rect x="20" y="3" width="1.025" height="1.025" fill="rgba(237,188,0,1.000)" /><rect x="21" y="3" width="1.025" height="1.025" fill="rgba(238,180,0,1.000)" /><rect x="22" y="3" width="1.025" height="1.025" fill="rgba(255,212,0,1.000)" /><rect x="14" y="4" width="1.025" height="1.025" fill="rgba(169,120,0,1.000)" /><rect x="15" y="4" width="1.025" height="1.025" fill="rgba(223,172,0,1.000)" /><rect x="16" y="4" width="1.025" height="1.025" fill="rgba(197,144,0,1.000)" /><rect x="17" y="4" width="1.025" height="1.025" fill="rgba(237,187,0,1.000)" /><rect x="18" y="4" width="1.025" height="1.025" fill="rgba(189,138,0,1.000)" /><rect x="19" y="4" width="1.025" height="1.025" fill="rgba(213,168,0,1.000)" /><rect x="20" y="4" width="1.025" height="1.025" fill="rgba(193,144,0,1.000)" /><rect x="21" y="4" width="1.025" height="1.025" fill="rgba(255,206,0,1.000)" /><rect x="22" y="4" width="1.025" height="1.025" fill="rgba(252,190,0,1.000)" /><rect x="23" y="4" width="1.025" height="1.025" fill="rgba(255,213,0,1.000)" /><rect x="13" y="5" width="1.025" height="1.025" fill="rgba(156,108,0,1.000)" /><rect x="14" y="5" width="1.025" height="1.025" fill="rgba(202,154,0,1.000)" /><rect x="15" y="5" width="1.025" height="1.025" fill="rgba(180,128,0,1.000)" /><rect x="16" y="5" width="1.025" height="1.025" fill="rgba(226,175,0,1.000)" /><rect x="17" y="5" width="1.025" height="1.025" fill="rgba(198,144,0,1.000)" /><rect x="18" y="5" width="1.025" height="1.025" fill="rgba(243,188,0,1.000)" /><rect x="19" y="5" width="1.025" height="1.025" fill="rgba(203,150,0,1.000)" /><rect x="20" y="5" width="1.025" height="1.025" fill="rgba(245,192,0,1.000)" /><rect x="21" y="5" width="1.025" height="1.025" fill="rgba(215,159,0,1.000)" /><rect x="22" y="5" width="1.025" height="1.025" fill="rgba(255,213,0,1.000)" /><rect x="23" y="5" width="1.025" height="1.025" fill="rgba(239,180,0,1.000)" /><rect x="24" y="5" width="1.025" height="1.025" fill="rgba(255,213,0,1.000)" /><rect x="13" y="6" width="1.025" height="1.025" fill="rgba(184,137,0,1.000)" /><rect x="14" y="6" width="1.025" height="1.025" fill="rgba(162,112,0,1.000)" /><rect x="15" y="6" width="1.025" height="1.025" fill="rgba(206,155,0,1.000)" /><rect x="16" y="6" width="1.025" height="1.025" fill="rgba(179,127,0,1.000)" /><rect x="17" y="6" width="1.025" height="1.025" fill="rgba(232,179,0,1.000)" /><rect x="18" y="6" width="1.025" height="1.025" fill="rgba(222,163,0,1.000)" /><rect x="19" y="6" width="1.025" height="1.025" fill="rgba(255,208,0,1.000)" /><rect x="20" y="6" width="1.025" height="1.025" fill="rgba(223,165,0,1.000)" /><rect x="21" y="6" width="1.025" height="1.025" fill="rgba(245,194,0,1.000)" /><rect x="22" y="6" width="1.025" height="1.025" fill="rgba(206,152,0,1.000)" /><rect x="23" y="6" width="1.025" height="1.025" fill="rgba(252,198,0,1.000)" /><rect x="24" y="6" width="1.025" height="1.025" fill="rgba(215,162,0,1.000)" /><rect x="13" y="7" width="1.025" height="1.025" fill="rgba(0,0,0,1.000)" /><rect x="14" y="7" width="1.025" height="1.025" fill="rgba(176,130,0,1.000)" /><rect x="15" y="7" width="1.025" height="1.025" fill="rgba(159,109,0,1.000)" /><rect x="16" y="7" width="1.025" height="1.025" fill="rgba(206,156,0,1.000)" /><rect x="17" y="7" width="1.025" height="1.025" fill="rgba(193,138,0,1.000)" /><rect x="18" y="7" width="1.025" height="1.025" fill="rgba(255,206,0,1.000)" /><rect x="19" y="7" width="1.025" height="1.025" fill="rgba(252,187,0,1.000)" /><rect x="20" y="7" width="1.025" height="1.025" fill="rgba(255,208,0,1.000)" /><rect x="21" y="7" width="1.025" height="1.025" fill="rgba(200,146,0,1.000)" /><rect x="22" y="7" width="1.025" height="1.025" fill="rgba(226,176,0,1.000)" /><rect x="23" y="7" width="1.025" height="1.025" fill="rgba(193,142,0,1.000)" /><rect x="24" y="7" width="1.025" height="1.025" fill="rgba(125,125,125,1.000)" /><rect x="3" y="8" width="1.025" height="1.025" fill="rgba(0,0,0,1.000)" /><rect x="4" y="8" width="1.025" height="1.025" fill="rgba(159,116,0,1.000)" /><rect x="5" y="8" width="1.025" height="1.025" fill="rgba(186,146,0,1.000)" /><rect x="6" y="8" width="1.025" height="1.025" fill="rgba(149,108,0,1.000)" /><rect x="7" y="8" width="1.025" height="1.025" fill="rgba(179,141,0,1.000)" /><rect x="8" y="8" width="1.025" height="1.025" fill="rgba(151,110,0,1.000)" /><rect x="9" y="8" width="1.025" height="1.025" fill="rgba(182,144,0,1.000)" /><rect x="10" y="8" width="1.025" height="1.025" fill="rgba(148,108,0,1.000)" /><rect x="11" y="8" width="1.025" height="1.025" fill="rgba(175,138,0,1.000)" /><rect x="12" y="8" width="1.025" height="1.025" fill="rgba(151,112,0,1.000)" /><rect x="13" y="8" width="1.025" height="1.025" fill="rgba(0,0,0,1.000)" /><rect x="14" y="8" width="1.025" height="1.025" fill="rgba(0,0,0,1.000)" /><rect x="15" y="8" width="1.025" height="1.025" fill="rgba(0,0,0,1.000)" /><rect x="16" y="8" width="1.025" height="1.025" fill="rgba(0,0,0,1.000)" /><rect x="17" y="8" width="1.025" height="1.025" fill="rgba(1,0,0,1.000)" /><rect x="18" y="8" width="1.025" height="1.025" fill="rgba(3,3,3,1.000)" /><rect x="19" y="8" width="1.025" height="1.025" fill="rgba(15,14,14,1.000)" /><rect x="20" y="8" width="1.025" height="1.025" fill="rgba(32,32,32,1.000)" /><rect x="21" y="8" width="1.025" height="1.025" fill="rgba(52,52,52,1.000)" /><rect x="22" y="8" width="1.025" height="1.025" fill="rgba(74,74,75,1.000)" /><rect x="23" y="8" width="1.025" height="1.025" fill="rgba(99,99,99,1.000)" /><rect x="24" y="8" width="1.025" height="1.025" fill="rgba(125,125,124,1.000)" /><rect x="25" y="8" width="1.025" height="1.025" fill="rgba(231,183,0,1.000)" /><rect x="26" y="8" width="1.025" height="1.025" fill="rgba(194,145,0,1.000)" /><rect x="27" y="8" width="1.025" height="1.025" fill="rgba(232,183,0,1.000)" /><rect x="28" y="8" width="1.025" height="1.025" fill="rgba(200,150,0,1.000)" /><rect x="29" y="8" width="1.025" height="1.025" fill="rgba(245,194,0,1.000)" /><rect x="30" y="8" width="1.025" height="1.025" fill="rgba(213,160,0,1.000)" /><rect x="31" y="8" width="1.025" height="1.025" fill="rgba(255,202,0,1.000)" /><rect x="32" y="8" width="1.025" height="1.025" fill="rgba(218,163,0,1.000)" /><rect x="33" y="8" width="1.025" height="1.025" fill="rgba(255,204,0,1.000)" /><rect x="34" y="8" width="1.025" height="1.025" fill="rgba(125,125,125,1.000)" /><rect x="35" y="8" width="1.025" height="1.025" fill="rgba(125,125,125,1.000)" /><rect x="2" y="9" width="1.025" height="1.025" fill="rgba(0,0,0,1.000)" /><rect x="3" y="9" width="1.025" height="1.025" fill="rgba(158,114,0,1.000)" /><rect x="4" y="9" width="1.025" height="1.025" fill="rgba(186,146,0,1.000)" /><rect x="5" y="9" width="1.025" height="1.025" fill="rgba(159,116,0,1.000)" /><rect x="6" y="9" width="1.025" height="1.025" fill="rgba(192,151,0,1.000)" /><rect x="7" y="9" width="1.025" height="1.025" fill="rgba(163,120,0,1.000)" /><rect x="8" y="9" width="1.025" height="1.025" fill="rgba(188,150,0,1.000)" /><rect x="9" y="9" width="1.025" height="1.025" fill="rgba(164,121,0,1.000)" /><rect x="10" y="9" width="1.025" height="1.025" fill="rgba(197,156,0,1.000)" /><rect x="11" y="9" width="1.025" height="1.025" fill="rgba(169,125,0,1.000)" /><rect x="12" y="9" width="1.025" height="1.025" fill="rgba(210,166,0,1.000)" /><rect x="13" y="9" width="1.025" height="1.025" fill="rgba(187,141,0,1.000)" /><rect x="14" y="9" width="1.025" height="1.025" fill="rgba(0,0,0,1.000)" /><rect x="15" y="9" width="1.025" height="1.025" fill="rgba(0,0,0,1.000)" /><rect x="16" y="9" width="1.025" height="1.025" fill="rgba(0,0,0,1.000)" /><rect x="17" y="9" width="1.025" height="1.025" fill="rgba(0,0,0,1.000)" /><rect x="18" y="9" width="1.025" height="1.025" fill="rgba(3,4,3,1.000)" /><rect x="19" y="9" width="1.025" height="1.025" fill="rgba(14,15,14,1.000)" /><rect x="20" y="9" width="1.025" height="1.025" fill="rgba(31,32,31,1.000)" /><rect x="21" y="9" width="1.025" height="1.025" fill="rgba(52,52,52,1.000)" /><rect x="22" y="9" width="1.025" height="1.025" fill="rgba(75,74,74,1.000)" /><rect x="23" y="9" width="1.025" height="1.025" fill="rgba(99,99,99,1.000)" /><rect x="24" y="9" width="1.025" height="1.025" fill="rgba(230,182,0,1.000)" /><rect x="25" y="9" width="1.025" height="1.025" fill="rgba(194,145,0,1.000)" /><rect x="26" y="9" width="1.025" height="1.025" fill="rgba(230,182,0,1.000)" /><rect x="27" y="9" width="1.025" height="1.025" fill="rgba(198,149,0,1.000)" /><rect x="28" y="9" width="1.025" height="1.025" fill="rgba(246,196,0,1.000)" /><rect x="29" y="9" width="1.025" height="1.025" fill="rgba(223,168,0,1.000)" /><rect x="30" y="9" width="1.025" height="1.025" fill="rgba(255,214,0,1.000)" /><rect x="31" y="9" width="1.025" height="1.025" fill="rgba(238,179,0,1.000)" /><rect x="32" y="9" width="1.025" height="1.025" fill="rgba(255,213,0,1.000)" /><rect x="33" y="9" width="1.025" height="1.025" fill="rgba(239,182,0,1.000)" /><rect x="34" y="9" width="1.025" height="1.025" fill="rgba(255,213,0,1.000)" /><rect x="35" y="9" width="1.025" height="1.025" fill="rgba(232,176,0,1.000)" /><rect x="36" y="9" width="1.025" height="1.025" fill="rgba(125,125,125,1.000)" /><rect x="3" y="10" width="1.025" height="1.025" fill="rgba(0,0,0,1.000)" /><rect x="4" y="10" width="1.025" height="1.025" fill="rgba(163,119,0,1.000)" /><rect x="5" y="10" width="1.025" height="1.025" fill="rgba(198,155,0,1.000)" /><rect x="6" y="10" width="1.025" height="1.025" fill="rgba(168,124,0,1.000)" /><rect x="7" y="10" width="1.025" height="1.025" fill="rgba(200,158,0,1.000)" /><rect x="8" y="10" width="1.025" height="1.025" fill="rgba(168,123,0,1.000)" /><rect x="9" y="10" width="1.025" height="1.025" fill="rgba(208,163,0,1.000)" /><rect x="10" y="10" width="1.025" height="1.025" fill="rgba(178,130,0,1.000)" /><rect x="11" y="10" width="1.025" height="1.025" fill="rgba(218,172,0,1.000)" /><rect x="12" y="10" width="1.025" height="1.025" fill="rgba(189,140,0,1.000)" /><rect x="13" y="10" width="1.025" height="1.025" fill="rgba(235,184,0,1.000)" /><rect x="14" y="10" width="1.025" height="1.025" fill="rgba(200,149,0,1.000)" /><rect x="15" y="10" width="1.025" height="1.025" fill="rgba(239,188,0,1.000)" /><rect x="16" y="10" width="1.025" height="1.025" fill="rgba(203,151,0,1.000)" /><rect x="17" y="10" width="1.025" height="1.025" fill="rgba(243,192,0,1.000)" /><rect x="18" y="10" width="1.025" height="1.025" fill="rgba(212,159,0,1.000)" /><rect x="19" y="10" width="1.025" height="1.025" fill="rgba(252,200,0,1.000)" /><rect x="20" y="10" width="1.025" height="1.025" fill="rgba(209,158,0,1.000)" /><rect x="21" y="10" width="1.025" height="1.025" fill="rgba(243,192,0,1.000)" /><rect x="22" y="10" width="1.025" height="1.025" fill="rgba(202,150,0,1.000)" /><rect x="23" y="10" width="1.025" height="1.025" fill="rgba(236,186,0,1.000)" /><rect x="24" y="10" width="1.025" height="1.025" fill="rgba(196,145,0,1.000)" /><rect x="25" y="10" width="1.025" height="1.025" fill="rgba(227,179,0,1.000)" /><rect x="26" y="10" width="1.025" height="1.025" fill="rgba(190,141,0,1.000)" /><rect x="27" y="10" width="1.025" height="1.025" fill="rgba(232,183,0,1.000)" /><rect x="28" y="10" width="1.025" height="1.025" fill="rgba(208,155,0,1.000)" /><rect x="29" y="10" width="1.025" height="1.025" fill="rgba(255,208,0,1.000)" /><rect x="30" y="10" width="1.025" height="1.025" fill="rgba(237,179,0,1.000)" /><rect x="31" y="10" width="1.025" height="1.025" fill="rgba(255,212,0,1.000)" /><rect x="32" y="10" width="1.025" height="1.025" fill="rgba(242,183,0,1.000)" /><rect x="33" y="10" width="1.025" height="1.025" fill="rgba(255,212,0,1.000)" /><rect x="34" y="10" width="1.025" height="1.025" fill="rgba(125,125,125,1.000)" /><rect x="35" y="10" width="1.025" height="1.025" fill="rgba(125,125,125,1.000)" /><rect x="4" y="11" width="1.025" height="1.025" fill="rgba(0,0,0,1.000)" /><rect x="5" y="11" width="1.025" height="1.025" fill="rgba(0,0,0,1.000)" /><rect x="6" y="11" width="1.025" height="1.025" fill="rgba(0,0,0,1.000)" /><rect x="7" y="11" width="1.025" height="1.025" fill="rgba(0,0,0,1.000)" /><rect x="8" y="11" width="1.025" height="1.025" fill="rgba(0,0,0,1.000)" /><rect x="9" y="11" width="1.025" height="1.025" fill="rgba(158,109,0,1.000)" /><rect x="10" y="11" width="1.025" height="1.025" fill="rgba(199,152,0,1.000)" /><rect x="11" y="11" width="1.025" height="1.025" fill="rgba(172,120,0,1.000)" /><rect x="12" y="11" width="1.025" height="1.025" fill="rgba(218,166,0,1.000)" /><rect x="13" y="11" width="1.025" height="1.025" fill="rgba(190,135,0,1.000)" /><rect x="14" y="11" width="1.025" height="1.025" fill="rgba(237,182,0,1.000)" /><rect x="15" y="11" width="1.025" height="1.025" fill="rgba(199,142,0,1.000)" /><rect x="16" y="11" width="1.025" height="1.025" fill="rgba(239,183,0,1.000)" /><rect x="17" y="11" width="1.025" height="1.025" fill="rgba(199,142,0,1.000)" /><rect x="18" y="11" width="1.025" height="1.025" fill="rgba(238,183,0,1.000)" /><rect x="19" y="11" width="1.025" height="1.025" fill="rgba(199,144,0,1.000)" /><rect x="20" y="11" width="1.025" height="1.025" fill="rgba(239,183,0,1.000)" /><rect x="21" y="11" width="1.025" height="1.025" fill="rgba(199,142,0,1.000)" /><rect x="22" y="11" width="1.025" height="1.025" fill="rgba(236,180,0,1.000)" /><rect x="23" y="11" width="1.025" height="1.025" fill="rgba(189,134,0,1.000)" /><rect x="24" y="11" width="1.025" height="1.025" fill="rgba(216,165,0,1.000)" /><rect x="25" y="11" width="1.025" height="1.025" fill="rgba(172,121,0,1.000)" /><rect x="26" y="11" width="1.025" height="1.025" fill="rgba(204,155,0,1.000)" /><rect x="27" y="11" width="1.025" height="1.025" fill="rgba(172,121,0,1.000)" /><rect x="28" y="11" width="1.025" height="1.025" fill="rgba(216,165,0,1.000)" /><rect x="29" y="11" width="1.025" height="1.025" fill="rgba(74,74,75,1.000)" /><rect x="30" y="11" width="1.025" height="1.025" fill="rgba(74,74,75,1.000)" /><rect x="31" y="11" width="1.025" height="1.025" fill="rgba(74,74,75,1.000)" /><rect x="32" y="11" width="1.025" height="1.025" fill="rgba(74,74,75,1.000)" /><rect x="33" y="11" width="1.025" height="1.025" fill="rgba(74,74,75,1.000)" /><rect x="9" y="12" width="1.025" height="1.025" fill="rgba(0,0,0,1.000)" /><rect x="10" y="12" width="1.025" height="1.025" fill="rgba(0,0,0,1.000)" /><rect x="11" y="12" width="1.025" height="1.025" fill="rgba(0,0,0,1.000)" /><rect x="12" y="12" width="1.025" height="1.025" fill="rgba(0,0,0,1.000)" /><rect x="13" y="12" width="1.025" height="1.025" fill="rgba(0,0,0,1.000)" /><rect x="14" y="12" width="1.025" height="1.025" fill="rgba(0,0,0,1.000)" /><rect x="15" y="12" width="1.025" height="1.025" fill="rgba(0,0,0,1.000)" /><rect x="16" y="12" width="1.025" height="1.025" fill="rgba(0,0,0,1.000)" /><rect x="17" y="12" width="1.025" height="1.025" fill="rgba(0,0,0,1.000)" /><rect x="18" y="12" width="1.025" height="1.025" fill="rgba(0,0,0,1.000)" /><rect x="19" y="12" width="1.025" height="1.025" fill="rgba(0,0,0,1.000)" /><rect x="20" y="12" width="1.025" height="1.025" fill="rgba(0,0,0,1.000)" /><rect x="21" y="12" width="1.025" height="1.025" fill="rgba(0,0,0,1.000)" /><rect x="22" y="12" width="1.025" height="1.025" fill="rgba(0,0,0,1.000)" /><rect x="23" y="12" width="1.025" height="1.025" fill="rgba(0,0,0,1.000)" /><rect x="24" y="12" width="1.025" height="1.025" fill="rgba(0,0,0,1.000)" /><rect x="25" y="12" width="1.025" height="1.025" fill="rgba(0,0,0,1.000)" /><rect x="26" y="12" width="1.025" height="1.025" fill="rgba(0,0,0,1.000)" /><rect x="27" y="12" width="1.025" height="1.025" fill="rgba(0,0,0,1.000)" /><rect x="28" y="12" width="1.025" height="1.025" fill="rgba(0,0,0,1.000)" /></svg>