<svg shape-rendering="crispEdges" xmlns="http://www.w3.org/2000/svg" version="1.1" width="37" height="37"><style>rect { image-rendering: pixelated; }</style><rect x="13" y="4" width="1.025" height="1.025" fill="rgba(0,0,0,1.000)" /><rect x="14" y="4" width="1.025" height="1.025" fill="rgba(0,0,0,1.000)" /><rect x="15" y="4" width="1.025" height="1.025" fill="rgba(0,0,0,1.000)" /><rect x="16" y="4" width="1.025" height="1.025" fill="rgba(0,0,0,1.000)" /><rect x="17" y="4" width="1.025" height="1.025" fill="rgba(0,0,0,1.000)" /><rect x="18" y="4" width="1.025" height="1.025" fill="rgba(0,0,0,1.000)" /><rect x="19" y="4" width="1.025" height="1.025" fill="rgba(0,0,0,1.000)" /><rect x="20" y="4" width="1.025" height="1.025" fill="rgba(0,0,0,1.000)" /><rect x="21" y="4" width="1.025" height="1.025" fill="rgba(0,0,0,1.000)" /><rect x="22" y="4" width="1.025" height="1.025" fill="rgba(0,0,0,1.000)" /><rect x="23" y="4" width="1.025" height="1.025" fill="rgba(0,0,0,1.000)" /><rect x="24" y="4" width="1.025" height="1.025" fill="rgba(0,0,0,1.000)" /><rect x="12" y="5" width="1.025" height="1.025" fill="rgba(52,52,52,1.000)" /><rect x="13" y="5" width="1.025" height="1.025" fill="rgba(52,52,52,1.000)" /><rect x="14" y="5" width="1.025" height="1.025" fill="rgba(74,74,74,1.000)" /><rect x="15" y="5" width="1.025" height="1.025" fill="rgba(50,50,50,1.000)" /><rect x="16" y="5" width="1.025" height="1.025" fill="rgba(0,0,0,1.000)" /><rect x="17" y="5" width="1.025" height="1.025" fill="rgba(0,0,0,1.000)" /><rect x="18" y="5" width="1.025" height="1.025" fill="rgba(0,0,0,1.000)" /><rect x="19" y="5" width="1.025" height="1.025" fill="rgba(0,0,0,1.000)" /><rect x="20" y="5" width="1.025" height="1.025" fill="rgba(0,0,0,1.000)" /><rect x="21" y="5" width="1.025" height="1.025" fill="rgba(0,0,0,1.000)" /><rect x="22" y="5" width="1.025" height="1.025" fill="rgba(0,0,0,1.000)" /><rect x="23" y="5" width="1.025" height="1.025" fill="rgba(64,64,64,1.000)" /><rect x="24" y="5" width="1.025" height="1.025" fill="rgba(122,122,122,1.000)" /><rect x="25" y="5" width="1.025" height="1.025" fill="rgba(0,0,0,1.000)" /><rect x="12" y="6" width="1.025" height="1.025" fill="rgba(0,0,0,1.000)" /><rect x="13" y="6" width="1.025" height="1.025" fill="rgba(0,0,0,1.000)" /><rect x="14" y="6" width="1.025" height="1.025" fill="rgba(0,0,0,1.000)" /><rect x="15" y="6" width="1.025" height="1.025" fill="rgba(78,78,78,1.000)" /><rect x="16" y="6" width="1.025" height="1.025" fill="rgba(83,83,83,1.000)" /><rect x="17" y="6" width="1.025" height="1.025" fill="rgba(93,93,93,1.000)" /><rect x="18" y="6" width="1.025" height="1.025" fill="rgba(66,66,66,1.000)" /><rect x="19" y="6" width="1.025" height="1.025" fill="rgba(0,0,0,1.000)" /><rect x="20" y="6" width="1.025" height="1.025" fill="rgba(0,0,0,1.000)" /><rect x="21" y="6" width="1.025" height="1.025" fill="rgba(0,0,0,1.000)" /><rect x="22" y="6" width="1.025" height="1.025" fill="rgba(78,78,78,1.000)" /><rect x="23" y="6" width="1.025" height="1.025" fill="rgba(122,122,122,1.000)" /><rect x="24" y="6" width="1.025" height="1.025" fill="rgba(0,0,0,1.000)" /><rect x="25" y="6" width="1.025" height="1.025" fill="rgba(0,0,0,1.000)" /><rect x="12" y="7" width="1.025" height="1.025" fill="rgba(0,0,0,1.000)" /><rect x="13" y="7" width="1.025" height="1.025" fill="rgba(0,0,0,1.000)" /><rect x="14" y="7" width="1.025" height="1.025" fill="rgba(0,0,0,1.000)" /><rect x="15" y="7" width="1.025" height="1.025" fill="rgba(0,0,0,1.000)" /><rect x="16" y="7" width="1.025" height="1.025" fill="rgba(0,0,0,1.000)" /><rect x="17" y="7" width="1.025" height="1.025" fill="rgba(0,0,0,1.000)" /><rect x="18" y="7" width="1.025" height="1.025" fill="rgba(93,93,93,1.000)" /><rect x="19" y="7" width="1.025" height="1.025" fill="rgba(108,108,108,1.000)" /><rect x="20" y="7" width="1.025" height="1.025" fill="rgba(110,110,110,1.000)" /><rect x="21" y="7" width="1.025" height="1.025" fill="rgba(114,114,114,1.000)" /><rect x="22" y="7" width="1.025" height="1.025" fill="rgba(98,98,98,1.000)" /><rect x="23" y="7" width="1.025" height="1.025" fill="rgba(0,0,0,1.000)" /><rect x="24" y="7" width="1.025" height="1.025" fill="rgba(0,0,0,1.000)" /><rect x="25" y="7" width="1.025" height="1.025" fill="rgba(0,0,0,1.000)" /><rect x="12" y="8" width="1.025" height="1.025" fill="rgba(0,0,0,1.000)" /><rect x="13" y="8" width="1.025" height="1.025" fill="rgba(0,0,0,1.000)" /><rect x="14" y="8" width="1.025" height="1.025" fill="rgba(0,0,0,1.000)" /><rect x="15" y="8" width="1.025" height="1.025" fill="rgba(0,0,0,1.000)" /><rect x="16" y="8" width="1.025" height="1.025" fill="rgba(0,0,0,1.000)" /><rect x="17" y="8" width="1.025" height="1.025" fill="rgba(0,0,0,1.000)" /><rect x="18" y="8" width="1.025" height="1.025" fill="rgba(0,0,0,1.000)" /><rect x="19" y="8" width="1.025" height="1.025" fill="rgba(0,0,0,1.000)" /><rect x="20" y="8" width="1.025" height="1.025" fill="rgba(0,0,0,1.000)" /><rect x="21" y="8" width="1.025" height="1.025" fill="rgba(0,0,0,1.000)" /><rect x="22" y="8" width="1.025" height="1.025" fill="rgba(0,0,0,1.000)" /><rect x="23" y="8" width="1.025" height="1.025" fill="rgba(0,0,0,1.000)" /><rect x="24" y="8" width="1.025" height="1.025" fill="rgba(0,0,0,1.000)" /><rect x="25" y="8" width="1.025" height="1.025" fill="rgba(0,0,0,1.000)" /><rect x="12" y="9" width="1.025" height="1.025" fill="rgba(0,0,0,1.000)" /><rect x="13" y="9" width="1.025" height="1.025" fill="rgba(0,0,0,1.000)" /><rect x="14" y="9" width="1.025" height="1.025" fill="rgba(0,0,0,1.000)" /><rect x="15" y="9" width="1.025" height="1.025" fill="rgba(0,0,0,1.000)" /><rect x="16" y="9" width="1.025" height="1.025" fill="rgba(0,0,0,1.000)" /><rect x="17" y="9" width="1.025" height="1.025" fill="rgba(0,0,0,1.000)" /><rect x="18" y="9" width="1.025" height="1.025" fill="rgba(0,0,0,1.000)" /><rect x="19" y="9" width="1.025" height="1.025" fill="rgba(0,0,0,1.000)" /><rect x="20" y="9" width="1.025" height="1.025" fill="rgba(0,0,0,1.000)" /><rect x="21" y="9" width="1.025" height="1.025" fill="rgba(0,0,0,1.000)" /><rect x="22" y="9" width="1.025" height="1.025" fill="rgba(0,0,0,1.000)" /><rect x="23" y="9" width="1.025" height="1.025" fill="rgba(0,0,0,1.000)" /><rect x="24" y="9" width="1.025" height="1.025" fill="rgba(0,0,0,1.000)" /><rect x="25" y="9" width="1.025" height="1.025" fill="rgba(0,0,0,1.000)" /><rect x="13" y="10" width="1.025" height="1.025" fill="rgba(0,0,0,0.502)" /><rect x="15" y="10" width="1.025" height="1.025" fill="rgba(0,0,0,0.502)" /><rect x="17" y="10" width="1.025" height="1.025" fill="rgba(0,0,0,0.502)" /><rect x="19" y="10" width="1.025" height="1.025" fill="rgba(0,0,0,0.502)" /><rect x="21" y="10" width="1.025" height="1.025" fill="rgba(0,0,0,0.502)" /><rect x="23" y="10" width="1.025" height="1.025" fill="rgba(0,0,0,0.502)" /><rect x="25" y="10" width="1.025" height="1.025" fill="rgba(0,0,0,0.502)" /><rect x="14" y="11" width="1.025" height="1.025" fill="rgba(0,0,0,0.502)" /><rect x="18" y="11" width="1.025" height="1.025" fill="rgba(0,0,0,0.502)" /><rect x="22" y="11" width="1.025" height="1.025" fill="rgba(0,0,0,0.502)" /><rect x="13" y="12" width="1.025" height="1.025" fill="rgba(0,0,0,0.502)" /><rect x="15" y="12" width="1.025" height="1.025" fill="rgba(0,0,0,0.502)" /><rect x="17" y="12" width="1.025" height="1.025" fill="rgba(0,0,0,0.502)" /><rect x="19" y="12" width="1.025" height="1.025" fill="rgba(0,0,0,0.502)" /><rect x="21" y="12" width="1.025" height="1.025" fill="rgba(0,0,0,0.502)" /><rect x="23" y="12" width="1.025" height="1.025" fill="rgba(0,0,0,0.502)" /><rect x="25" y="12" width="1.025" height="1.025" fill="rgba(0,0,0,0.502)" /><rect x="16" y="13" width="1.025" height="1.025" fill="rgba(0,0,0,0.502)" /><rect x="20" y="13" width="1.025" height="1.025" fill="rgba(0,0,0,0.502)" /><rect x="24" y="13" width="1.025" height="1.025" fill="rgba(0,0,0,0.502)" /><rect x="13" y="14" width="1.025" height="1.025" fill="rgba(0,0,0,0.502)" /><rect x="15" y="14" width="1.025" height="1.025" fill="rgba(0,0,0,0.502)" /><rect x="17" y="14" width="1.025" height="1.025" fill="rgba(0,0,0,0.502)" /><rect x="19" y="14" width="1.025" height="1.025" fill="rgba(0,0,0,0.502)" /><rect x="21" y="14" width="1.025" height="1.025" fill="rgba(0,0,0,0.502)" /><rect x="23" y="14" width="1.025" height="1.025" fill="rgba(0,0,0,0.502)" /><rect x="25" y="14" width="1.025" height="1.025" fill="rgba(0,0,0,0.502)" /><rect x="14" y="15" width="1.025" height="1.025" fill="rgba(0,0,0,0.502)" /><rect x="18" y="15" width="1.025" height="1.025" fill="rgba(0,0,0,0.502)" /><rect x="22" y="15" width="1.025" height="1.025" fill="rgba(0,0,0,0.502)" /><rect x="13" y="16" width="1.025" height="1.025" fill="rgba(0,0,0,0.502)" /><rect x="15" y="16" width="1.025" height="1.025" fill="rgba(0,0,0,0.502)" /><rect x="17" y="16" width="1.025" height="1.025" fill="rgba(0,0,0,0.502)" /><rect x="19" y="16" width="1.025" height="1.025" fill="rgba(0,0,0,0.502)" /><rect x="21" y="16" width="1.025" height="1.025" fill="rgba(0,0,0,0.502)" /><rect x="23" y="16" width="1.025" height="1.025" fill="rgba(0,0,0,0.502)" /><rect x="25" y="16" width="1.025" height="1.025" fill="rgba(0,0,0,0.502)" /><rect x="16" y="17" width="1.025" height="1.025" fill="rgba(0,0,0,0.502)" /><rect x="20" y="17" width="1.025" height="1.025" fill="rgba(0,0,0,0.502)" /><rect x="24" y="17" width="1.025" height="1.025" fill="rgba(0,0,0,0.502)" /></svg>