<svg shape-rendering="crispEdges" xmlns="http://www.w3.org/2000/svg" version="1.1" width="37" height="37"><style>rect { image-rendering: pixelated; }</style><rect x="12" y="26" width="1.025" height="1.025" fill="rgba(98,98,98,1.000)" /><rect x="12" y="27" width="1.025" height="1.025" fill="rgba(71,71,71,1.000)" /><rect x="19" y="27" width="1.025" height="1.025" fill="rgba(102,102,102,1.000)" /><rect x="12" y="28" width="1.025" height="1.025" fill="rgba(45,45,45,1.000)" /><rect x="15" y="28" width="1.025" height="1.025" fill="rgba(0,0,0,1.000)" /><rect x="16" y="28" width="1.025" height="1.025" fill="rgba(102,102,102,1.000)" /><rect x="19" y="28" width="1.025" height="1.025" fill="rgba(64,64,64,1.000)" /><rect x="20" y="28" width="1.025" height="1.025" fill="rgba(127,127,127,1.000)" /><rect x="21" y="28" width="1.025" height="1.025" fill="rgba(102,102,102,1.000)" /><rect x="22" y="28" width="1.025" height="1.025" fill="rgba(64,64,64,1.000)" /><rect x="12" y="29" width="1.025" height="1.025" fill="rgba(0,0,0,1.000)" /><rect x="13" y="29" width="1.025" height="1.025" fill="rgba(0,0,0,1.000)" /><rect x="14" y="29" width="1.025" height="1.025" fill="rgba(26,26,26,1.000)" /><rect x="15" y="29" width="1.025" height="1.025" fill="rgba(26,26,26,1.000)" /><rect x="16" y="29" width="1.025" height="1.025" fill="rgba(0,0,0,1.000)" /><rect x="17" y="29" width="1.025" height="1.025" fill="rgba(64,64,64,1.000)" /><rect x="19" y="29" width="1.025" height="1.025" fill="rgba(127,127,127,1.000)" /><rect x="20" y="29" width="1.025" height="1.025" fill="rgba(26,26,26,1.000)" /><rect x="21" y="29" width="1.025" height="1.025" fill="rgba(26,26,26,1.000)" /><rect x="22" y="29" width="1.025" height="1.025" fill="rgba(102,102,102,1.000)" /><rect x="23" y="29" width="1.025" height="1.025" fill="rgba(64,64,64,1.000)" /><rect x="13" y="30" width="1.025" height="1.025" fill="rgba(0,0,0,1.000)" /><rect x="14" y="30" width="1.025" height="1.025" fill="rgba(26,26,26,1.000)" /><rect x="15" y="30" width="1.025" height="1.025" fill="rgba(26,26,26,1.000)" /><rect x="16" y="30" width="1.025" height="1.025" fill="rgba(0,0,0,1.000)" /><rect x="17" y="30" width="1.025" height="1.025" fill="rgba(64,64,64,1.000)" /><rect x="19" y="30" width="1.025" height="1.025" fill="rgba(127,127,127,1.000)" /><rect x="20" y="30" width="1.025" height="1.025" fill="rgba(26,26,26,1.000)" /><rect x="21" y="30" width="1.025" height="1.025" fill="rgba(0,0,0,1.000)" /><rect x="22" y="30" width="1.025" height="1.025" fill="rgba(102,102,102,1.000)" /><rect x="23" y="30" width="1.025" height="1.025" fill="rgba(64,64,64,1.000)" /><rect x="14" y="31" width="1.025" height="1.025" fill="rgba(26,26,26,1.000)" /><rect x="15" y="31" width="1.025" height="1.025" fill="rgba(26,26,26,1.000)" /><rect x="16" y="31" width="1.025" height="1.025" fill="rgba(0,0,0,1.000)" /><rect x="17" y="31" width="1.025" height="1.025" fill="rgba(64,64,64,1.000)" /><rect x="19" y="31" width="1.025" height="1.025" fill="rgba(102,102,102,1.000)" /><rect x="20" y="31" width="1.025" height="1.025" fill="rgba(26,26,26,1.000)" /><rect x="21" y="31" width="1.025" height="1.025" fill="rgba(0,0,0,1.000)" /><rect x="22" y="31" width="1.025" height="1.025" fill="rgba(102,102,102,1.000)" /><rect x="23" y="31" width="1.025" height="1.025" fill="rgba(64,64,64,1.000)" /><rect x="15" y="32" width="1.025" height="1.025" fill="rgba(26,26,26,1.000)" /><rect x="16" y="32" width="1.025" height="1.025" fill="rgba(64,64,64,1.000)" /><rect x="20" y="32" width="1.025" height="1.025" fill="rgba(102,102,102,1.000)" /><rect x="21" y="32" width="1.025" height="1.025" fill="rgba(102,102,102,1.000)" /></svg>