<svg shape-rendering="crispEdges" xmlns="http://www.w3.org/2000/svg" version="1.1" width="37" height="37"><style>rect { image-rendering: pixelated; }</style><rect x="15" y="14" width="1.025" height="1.025" fill="rgba(50,50,0,0.004)" /><rect x="13" y="15" width="1.025" height="1.025" fill="rgba(54,26,12,0.016)" /><rect x="14" y="15" width="1.025" height="1.025" fill="rgba(55,33,13,0.220)" /><rect x="15" y="15" width="1.025" height="1.025" fill="rgba(63,38,15,0.133)" /><rect x="16" y="15" width="1.025" height="1.025" fill="rgba(74,46,18,0.051)" /><rect x="17" y="15" width="1.025" height="1.025" fill="rgba(68,54,9,0.024)" /><rect x="20" y="15" width="1.025" height="1.025" fill="rgba(255,255,255,0.714)" /><rect x="21" y="15" width="1.025" height="1.025" fill="rgba(255,255,255,0.361)" /><rect x="13" y="16" width="1.025" height="1.025" fill="rgba(50,31,15,0.020)" /><rect x="14" y="16" width="1.025" height="1.025" fill="rgba(50,30,11,0.447)" /><rect x="15" y="16" width="1.025" height="1.025" fill="rgba(56,35,13,0.302)" /><rect x="16" y="16" width="1.025" height="1.025" fill="rgba(63,41,16,0.165)" /><rect x="17" y="16" width="1.025" height="1.025" fill="rgba(70,43,17,0.059)" /><rect x="18" y="16" width="1.025" height="1.025" fill="rgba(73,40,23,0.024)" /><rect x="21" y="16" width="1.025" height="1.025" fill="rgba(255,255,255,0.741)" /><rect x="13" y="17" width="1.025" height="1.025" fill="rgba(46,30,13,0.012)" /><rect x="14" y="17" width="1.025" height="1.025" fill="rgba(50,32,12,0.345)" /><rect x="15" y="17" width="1.025" height="1.025" fill="rgba(51,30,12,0.459)" /><rect x="16" y="17" width="1.025" height="1.025" fill="rgba(59,37,15,0.400)" /><rect x="17" y="17" width="1.025" height="1.025" fill="rgba(67,42,17,0.235)" /><rect x="18" y="17" width="1.025" height="1.025" fill="rgba(74,46,17,0.102)" /><rect x="13" y="18" width="1.025" height="1.025" fill="rgba(40,19,19,0.008)" /><rect x="14" y="18" width="1.025" height="1.025" fill="rgba(50,32,12,0.153)" /><rect x="15" y="18" width="1.025" height="1.025" fill="rgba(50,32,12,0.231)" /><rect x="16" y="18" width="1.025" height="1.025" fill="rgba(55,34,13,0.400)" /><rect x="17" y="18" width="1.025" height="1.025" fill="rgba(63,39,16,0.447)" /><rect x="18" y="18" width="1.025" height="1.025" fill="rgba(69,43,17,0.278)" /><rect x="13" y="19" width="1.025" height="1.025" fill="rgba(40,40,0,0.004)" /><rect x="14" y="19" width="1.025" height="1.025" fill="rgba(46,29,10,0.082)" /><rect x="15" y="19" width="1.025" height="1.025" fill="rgba(50,33,12,0.102)" /><rect x="16" y="19" width="1.025" height="1.025" fill="rgba(54,34,12,0.180)" /><rect x="17" y="19" width="1.025" height="1.025" fill="rgba(62,38,15,0.263)" /><rect x="18" y="19" width="1.025" height="1.025" fill="rgba(63,41,16,0.329)" /><rect x="14" y="20" width="1.025" height="1.025" fill="rgba(56,36,11,0.031)" /><rect x="15" y="20" width="1.025" height="1.025" fill="rgba(43,28,10,0.051)" /><rect x="16" y="20" width="1.025" height="1.025" fill="rgba(56,34,13,0.071)" /><rect x="17" y="20" width="1.025" height="1.025" fill="rgba(59,37,13,0.106)" /><rect x="18" y="20" width="1.025" height="1.025" fill="rgba(59,35,15,0.176)" /><rect x="15" y="21" width="1.025" height="1.025" fill="rgba(60,40,12,0.020)" /><rect x="16" y="21" width="1.025" height="1.025" fill="rgba(50,32,12,0.035)" /><rect x="17" y="21" width="1.025" height="1.025" fill="rgba(56,35,13,0.039)" /><rect x="18" y="21" width="1.025" height="1.025" fill="rgba(63,39,16,0.063)" /><rect x="16" y="22" width="1.025" height="1.025" fill="rgba(62,38,15,0.020)" /><rect x="17" y="22" width="1.025" height="1.025" fill="rgba(42,26,11,0.039)" /><rect x="18" y="22" width="1.025" height="1.025" fill="rgba(56,36,14,0.039)" /></svg>