<svg shape-rendering="crispEdges" xmlns="http://www.w3.org/2000/svg" version="1.1" width="37" height="37"><style>rect { image-rendering: pixelated; }</style><rect x="27" y="27" width="1.025" height="1.025" fill="rgba(30,30,30,0.949)" /><rect x="28" y="27" width="1.025" height="1.025" fill="rgba(52,52,52,0.973)" /><rect x="29" y="27" width="1.025" height="1.025" fill="rgba(33,33,33,0.984)" /><rect x="30" y="27" width="1.025" height="1.025" fill="rgba(56,56,56,0.988)" /><rect x="31" y="27" width="1.025" height="1.025" fill="rgba(37,37,37,0.988)" /><rect x="32" y="27" width="1.025" height="1.025" fill="rgba(60,60,60,0.996)" /><rect x="25" y="28" width="1.025" height="1.025" fill="rgba(25,25,25,0.898)" /><rect x="26" y="28" width="1.025" height="1.025" fill="rgba(44,44,44,0.949)" /><rect x="27" y="28" width="1.025" height="1.025" fill="rgba(48,48,48,0.984)" /><rect x="28" y="28" width="1.025" height="1.025" fill="rgba(52,52,52,1.000)" /><rect x="29" y="28" width="1.025" height="1.025" fill="rgba(33,33,33,1.000)" /><rect x="30" y="28" width="1.025" height="1.025" fill="rgba(56,56,56,1.000)" /><rect x="31" y="28" width="1.025" height="1.025" fill="rgba(37,37,37,1.000)" /><rect x="32" y="28" width="1.025" height="1.025" fill="rgba(61,61,61,1.000)" /><rect x="33" y="28" width="1.025" height="1.025" fill="rgba(62,62,62,1.000)" /><rect x="34" y="28" width="1.025" height="1.025" fill="rgba(63,63,63,1.000)" /><rect x="24" y="29" width="1.025" height="1.025" fill="rgba(40,40,40,0.882)" /><rect x="25" y="29" width="1.025" height="1.025" fill="rgba(41,41,41,0.969)" /><rect x="26" y="29" width="1.025" height="1.025" fill="rgba(30,30,30,0.996)" /><rect x="27" y="29" width="1.025" height="1.025" fill="rgba(48,48,48,0.996)" /><rect x="28" y="29" width="1.025" height="1.025" fill="rgba(53,53,53,1.000)" /><rect x="29" y="29" width="1.025" height="1.025" fill="rgba(35,35,35,1.000)" /><rect x="30" y="29" width="1.025" height="1.025" fill="rgba(56,56,56,1.000)" /><rect x="31" y="29" width="1.025" height="1.025" fill="rgba(37,37,37,1.000)" /><rect x="32" y="29" width="1.025" height="1.025" fill="rgba(62,62,62,1.000)" /><rect x="33" y="29" width="1.025" height="1.025" fill="rgba(63,63,63,1.000)" /><rect x="34" y="29" width="1.025" height="1.025" fill="rgba(39,39,39,0.996)" /><rect x="35" y="29" width="1.025" height="1.025" fill="rgba(66,66,66,1.000)" /><rect x="23" y="30" width="1.025" height="1.025" fill="rgba(39,39,39,0.875)" /><rect x="24" y="30" width="1.025" height="1.025" fill="rgba(27,27,27,0.969)" /><rect x="25" y="30" width="1.025" height="1.025" fill="rgba(42,42,42,1.000)" /><rect x="26" y="30" width="1.025" height="1.025" fill="rgba(44,44,44,1.000)" /><rect x="27" y="30" width="1.025" height="1.025" fill="rgba(31,31,31,1.000)" /><rect x="28" y="30" width="1.025" height="1.025" fill="rgba(52,52,52,1.000)" /><rect x="29" y="30" width="1.025" height="1.025" fill="rgba(35,35,35,1.000)" /><rect x="30" y="30" width="1.025" height="1.025" fill="rgba(58,58,58,1.000)" /><rect x="31" y="30" width="1.025" height="1.025" fill="rgba(37,37,37,1.000)" /><rect x="32" y="30" width="1.025" height="1.025" fill="rgba(63,63,63,1.000)" /><rect x="33" y="30" width="1.025" height="1.025" fill="rgba(39,39,39,1.000)" /><rect x="34" y="30" width="1.025" height="1.025" fill="rgba(65,65,65,1.000)" /><rect x="35" y="30" width="1.025" height="1.025" fill="rgba(66,66,66,1.000)" /><rect x="36" y="30" width="1.025" height="1.025" fill="rgba(40,40,40,1.000)" /><rect x="22" y="31" width="1.025" height="1.025" fill="rgba(40,40,40,0.863)" /><rect x="23" y="31" width="1.025" height="1.025" fill="rgba(40,40,40,0.969)" /><rect x="24" y="31" width="1.025" height="1.025" fill="rgba(41,41,41,1.000)" /><rect x="25" y="31" width="1.025" height="1.025" fill="rgba(29,29,29,1.000)" /><rect x="26" y="31" width="1.025" height="1.025" fill="rgba(46,46,46,1.000)" /><rect x="27" y="31" width="1.025" height="1.025" fill="rgba(31,31,31,1.000)" /><rect x="28" y="31" width="1.025" height="1.025" fill="rgba(53,53,53,1.000)" /><rect x="29" y="31" width="1.025" height="1.025" fill="rgba(36,36,36,1.000)" /><rect x="30" y="31" width="1.025" height="1.025" fill="rgba(60,60,60,1.000)" /><rect x="31" y="31" width="1.025" height="1.025" fill="rgba(37,37,37,1.000)" /><rect x="32" y="31" width="1.025" height="1.025" fill="rgba(62,62,62,1.000)" /><rect x="33" y="31" width="1.025" height="1.025" fill="rgba(39,39,39,1.000)" /><rect x="34" y="31" width="1.025" height="1.025" fill="rgba(66,66,66,1.000)" /><rect x="35" y="31" width="1.025" height="1.025" fill="rgba(40,40,40,1.000)" /><rect x="36" y="31" width="1.025" height="1.025" fill="rgba(67,67,67,1.000)" /><rect x="22" y="32" width="1.025" height="1.025" fill="rgba(25,25,25,0.933)" /><rect x="23" y="32" width="1.025" height="1.025" fill="rgba(27,27,27,0.996)" /><rect x="24" y="32" width="1.025" height="1.025" fill="rgba(43,43,43,1.000)" /><rect x="25" y="32" width="1.025" height="1.025" fill="rgba(45,45,45,1.000)" /><rect x="26" y="32" width="1.025" height="1.025" fill="rgba(30,30,30,1.000)" /><rect x="27" y="32" width="1.025" height="1.025" fill="rgba(49,49,49,1.000)" /><rect x="28" y="32" width="1.025" height="1.025" fill="rgba(22,22,22,1.000)" /><rect x="29" y="32" width="1.025" height="1.025" fill="rgba(75,75,75,1.000)" /><rect x="30" y="32" width="1.025" height="1.025" fill="rgba(31,31,31,1.000)" /><rect x="31" y="32" width="1.025" height="1.025" fill="rgba(90,90,90,1.000)" /><rect x="32" y="32" width="1.025" height="1.025" fill="rgba(39,39,39,1.000)" /><rect x="33" y="32" width="1.025" height="1.025" fill="rgba(65,65,65,1.000)" /><rect x="34" y="32" width="1.025" height="1.025" fill="rgba(40,40,40,1.000)" /><rect x="35" y="32" width="1.025" height="1.025" fill="rgba(66,66,66,1.000)" /><rect x="36" y="32" width="1.025" height="1.025" fill="rgba(67,67,67,1.000)" /><rect x="21" y="33" width="1.025" height="1.025" fill="rgba(45,45,45,0.886)" /><rect x="22" y="33" width="1.025" height="1.025" fill="rgba(43,43,43,0.961)" /><rect x="23" y="33" width="1.025" height="1.025" fill="rgba(43,43,43,0.996)" /><rect x="24" y="33" width="1.025" height="1.025" fill="rgba(28,28,28,1.000)" /><rect x="25" y="33" width="1.025" height="1.025" fill="rgba(30,30,30,1.000)" /><rect x="26" y="33" width="1.025" height="1.025" fill="rgba(47,47,47,1.000)" /><rect x="27" y="33" width="1.025" height="1.025" fill="rgba(18,18,18,1.000)" /><rect x="28" y="33" width="1.025" height="1.025" fill="rgba(21,21,21,1.000)" /><rect x="29" y="33" width="1.025" height="1.025" fill="rgba(74,74,74,1.000)" /><rect x="30" y="33" width="1.025" height="1.025" fill="rgba(29,29,29,1.000)" /><rect x="31" y="33" width="1.025" height="1.025" fill="rgba(32,32,32,1.000)" /><rect x="32" y="33" width="1.025" height="1.025" fill="rgba(95,95,95,1.000)" /><rect x="33" y="33" width="1.025" height="1.025" fill="rgba(39,39,39,1.000)" /><rect x="34" y="33" width="1.025" height="1.025" fill="rgba(66,66,66,1.000)" /><rect x="35" y="33" width="1.025" height="1.025" fill="rgba(40,40,40,1.000)" /><rect x="36" y="33" width="1.025" height="1.025" fill="rgba(40,40,40,1.000)" /><rect x="22" y="34" width="1.025" height="1.025" fill="rgba(47,47,47,0.918)" /><rect x="23" y="34" width="1.025" height="1.025" fill="rgba(26,26,26,0.953)" /><rect x="24" y="34" width="1.025" height="1.025" fill="rgba(47,47,47,0.984)" /><rect x="25" y="34" width="1.025" height="1.025" fill="rgba(48,48,48,0.992)" /><rect x="26" y="34" width="1.025" height="1.025" fill="rgba(19,19,19,1.000)" /><rect x="27" y="34" width="1.025" height="1.025" fill="rgba(61,61,61,1.000)" /><rect x="28" y="34" width="1.025" height="1.025" fill="rgba(22,22,22,1.000)" /><rect x="29" y="34" width="1.025" height="1.025" fill="rgba(78,78,78,1.000)" /><rect x="30" y="34" width="1.025" height="1.025" fill="rgba(28,28,28,1.000)" /><rect x="31" y="34" width="1.025" height="1.025" fill="rgba(90,90,90,1.000)" /><rect x="32" y="34" width="1.025" height="1.025" fill="rgba(33,33,33,1.000)" /><rect x="33" y="34" width="1.025" height="1.025" fill="rgba(99,99,99,1.000)" /><rect x="34" y="34" width="1.025" height="1.025" fill="rgba(40,40,40,1.000)" /><rect x="35" y="34" width="1.025" height="1.025" fill="rgba(66,66,66,1.000)" /><rect x="36" y="34" width="1.025" height="1.025" fill="rgba(67,67,67,1.000)" /><rect x="24" y="35" width="1.025" height="1.025" fill="rgba(28,28,28,0.918)" /><rect x="25" y="35" width="1.025" height="1.025" fill="rgba(29,29,29,0.941)" /><rect x="26" y="35" width="1.025" height="1.025" fill="rgba(63,63,63,0.961)" /><rect x="27" y="35" width="1.025" height="1.025" fill="rgba(22,22,22,0.984)" /><rect x="28" y="35" width="1.025" height="1.025" fill="rgba(74,74,74,1.000)" /><rect x="29" y="35" width="1.025" height="1.025" fill="rgba(23,23,23,1.000)" /><rect x="30" y="35" width="1.025" height="1.025" fill="rgba(81,81,81,1.000)" /><rect x="31" y="35" width="1.025" height="1.025" fill="rgba(30,30,30,1.000)" /><rect x="32" y="35" width="1.025" height="1.025" fill="rgba(96,96,96,1.000)" /><rect x="33" y="35" width="1.025" height="1.025" fill="rgba(36,36,36,1.000)" /><rect x="34" y="35" width="1.025" height="1.025" fill="rgba(66,66,66,0.996)" /><rect x="35" y="35" width="1.025" height="1.025" fill="rgba(66,66,66,1.000)" /><rect x="27" y="36" width="1.025" height="1.025" fill="rgba(76,76,76,0.980)" /><rect x="28" y="36" width="1.025" height="1.025" fill="rgba(22,22,22,1.000)" /><rect x="29" y="36" width="1.025" height="1.025" fill="rgba(2,2,2,1.000)" /><rect x="30" y="36" width="1.025" height="1.025" fill="rgba(27,27,27,1.000)" /><rect x="31" y="36" width="1.025" height="1.025" fill="rgba(91,91,91,1.000)" /><rect x="32" y="36" width="1.025" height="1.025" fill="rgba(33,33,33,0.996)" /></svg>