<svg shape-rendering="crispEdges" xmlns="http://www.w3.org/2000/svg" version="1.1" width="37" height="37"><style>rect { image-rendering: pixelated; }</style><rect x="12" y="17" width="1.025" height="1.025" fill="rgba(43,43,43,1.000)" /><rect x="13" y="17" width="1.025" height="1.025" fill="rgba(23,23,23,1.000)" /><rect x="14" y="17" width="1.025" height="1.025" fill="rgba(13,13,13,1.000)" /><rect x="25" y="17" width="1.025" height="1.025" fill="rgba(13,13,13,1.000)" /><rect x="13" y="18" width="1.025" height="1.025" fill="rgba(43,43,43,1.000)" /><rect x="14" y="18" width="1.025" height="1.025" fill="rgba(38,38,38,1.000)" /><rect x="15" y="18" width="1.025" height="1.025" fill="rgba(31,31,31,1.000)" /><rect x="16" y="18" width="1.025" height="1.025" fill="rgba(13,13,13,1.000)" /><rect x="24" y="18" width="1.025" height="1.025" fill="rgba(0,0,0,1.000)" /><rect x="25" y="18" width="1.025" height="1.025" fill="rgba(43,43,43,1.000)" /><rect x="15" y="19" width="1.025" height="1.025" fill="rgba(23,23,23,1.000)" /><rect x="16" y="19" width="1.025" height="1.025" fill="rgba(31,31,31,1.000)" /><rect x="17" y="19" width="1.025" height="1.025" fill="rgba(13,13,13,1.000)" /><rect x="20" y="19" width="1.025" height="1.025" fill="rgba(255,10,1,1.000)" /><rect x="21" y="19" width="1.025" height="1.025" fill="rgba(255,56,23,1.000)" /><rect x="24" y="19" width="1.025" height="1.025" fill="rgba(23,23,23,1.000)" /><rect x="25" y="19" width="1.025" height="1.025" fill="rgba(23,23,23,1.000)" /><rect x="17" y="20" width="1.025" height="1.025" fill="rgba(31,31,31,1.000)" /><rect x="18" y="20" width="1.025" height="1.025" fill="rgba(0,0,0,1.000)" /><rect x="19" y="20" width="1.025" height="1.025" fill="rgba(196,0,0,1.000)" /><rect x="20" y="20" width="1.025" height="1.025" fill="rgba(255,67,30,1.000)" /><rect x="21" y="20" width="1.025" height="1.025" fill="rgba(248,0,0,1.000)" /><rect x="22" y="20" width="1.025" height="1.025" fill="rgba(255,40,16,1.000)" /><rect x="23" y="20" width="1.025" height="1.025" fill="rgba(23,23,23,1.000)" /><rect x="24" y="20" width="1.025" height="1.025" fill="rgba(64,64,64,0.675)" /><rect x="19" y="21" width="1.025" height="1.025" fill="rgba(196,0,0,1.000)" /><rect x="20" y="21" width="1.025" height="1.025" fill="rgba(248,0,0,1.000)" /><rect x="21" y="21" width="1.025" height="1.025" fill="rgba(248,0,0,1.000)" /><rect x="22" y="21" width="1.025" height="1.025" fill="rgba(255,40,16,1.000)" /><rect x="20" y="22" width="1.025" height="1.025" fill="rgba(196,0,0,1.000)" /><rect x="21" y="22" width="1.025" height="1.025" fill="rgba(196,0,0,1.000)" /></svg>