<svg shape-rendering="crispEdges" xmlns="http://www.w3.org/2000/svg" version="1.1" width="37" height="37"><style>rect { image-rendering: pixelated; }</style><rect x="21" y="27" width="1.025" height="1.025" fill="rgba(0,159,227,0.004)" /><rect x="22" y="27" width="1.025" height="1.025" fill="rgba(0,159,227,0.008)" /><rect x="23" y="27" width="1.025" height="1.025" fill="rgba(0,159,227,0.008)" /><rect x="24" y="27" width="1.025" height="1.025" fill="rgba(0,159,227,0.004)" /><rect x="25" y="27" width="1.025" height="1.025" fill="rgba(0,159,227,0.004)" /><rect x="26" y="27" width="1.025" height="1.025" fill="rgba(0,159,227,0.004)" /><rect x="18" y="28" width="1.025" height="1.025" fill="rgba(0,159,227,0.004)" /><rect x="19" y="28" width="1.025" height="1.025" fill="rgba(0,159,227,0.008)" /><rect x="20" y="28" width="1.025" height="1.025" fill="rgba(0,159,227,0.012)" /><rect x="21" y="28" width="1.025" height="1.025" fill="rgba(0,159,227,0.024)" /><rect x="22" y="28" width="1.025" height="1.025" fill="rgba(0,159,227,0.027)" /><rect x="23" y="28" width="1.025" height="1.025" fill="rgba(0,159,227,0.031)" /><rect x="24" y="28" width="1.025" height="1.025" fill="rgba(0,159,227,0.027)" /><rect x="25" y="28" width="1.025" height="1.025" fill="rgba(0,159,227,0.020)" /><rect x="26" y="28" width="1.025" height="1.025" fill="rgba(0,159,227,0.016)" /><rect x="27" y="28" width="1.025" height="1.025" fill="rgba(0,159,227,0.012)" /><rect x="28" y="28" width="1.025" height="1.025" fill="rgba(0,159,227,0.004)" /><rect x="17" y="29" width="1.025" height="1.025" fill="rgba(0,159,227,0.004)" /><rect x="18" y="29" width="1.025" height="1.025" fill="rgba(0,159,227,0.012)" /><rect x="19" y="29" width="1.025" height="1.025" fill="rgba(0,159,227,0.024)" /><rect x="20" y="29" width="1.025" height="1.025" fill="rgba(0,159,227,0.043)" /><rect x="21" y="29" width="1.025" height="1.025" fill="rgba(0,159,227,0.063)" /><rect x="22" y="29" width="1.025" height="1.025" fill="rgba(0,159,227,0.075)" /><rect x="23" y="29" width="1.025" height="1.025" fill="rgba(0,159,227,0.082)" /><rect x="24" y="29" width="1.025" height="1.025" fill="rgba(0,159,227,0.078)" /><rect x="25" y="29" width="1.025" height="1.025" fill="rgba(0,159,227,0.067)" /><rect x="26" y="29" width="1.025" height="1.025" fill="rgba(0,159,227,0.043)" /><rect x="27" y="29" width="1.025" height="1.025" fill="rgba(0,159,227,0.027)" /><rect x="28" y="29" width="1.025" height="1.025" fill="rgba(0,159,227,0.012)" /><rect x="29" y="29" width="1.025" height="1.025" fill="rgba(0,159,227,0.008)" /><rect x="15" y="30" width="1.025" height="1.025" fill="rgba(0,159,227,0.008)" /><rect x="16" y="30" width="1.025" height="1.025" fill="rgba(0,159,227,0.020)" /><rect x="17" y="30" width="1.025" height="1.025" fill="rgba(0,159,227,0.020)" /><rect x="18" y="30" width="1.025" height="1.025" fill="rgba(0,159,227,0.031)" /><rect x="19" y="30" width="1.025" height="1.025" fill="rgba(0,159,227,0.055)" /><rect x="20" y="30" width="1.025" height="1.025" fill="rgba(0,159,227,0.094)" /><rect x="21" y="30" width="1.025" height="1.025" fill="rgba(0,159,227,0.133)" /><rect x="22" y="30" width="1.025" height="1.025" fill="rgba(0,159,227,0.169)" /><rect x="23" y="30" width="1.025" height="1.025" fill="rgba(0,159,228,0.184)" /><rect x="24" y="30" width="1.025" height="1.025" fill="rgba(0,159,227,0.176)" /><rect x="25" y="30" width="1.025" height="1.025" fill="rgba(0,159,227,0.149)" /><rect x="26" y="30" width="1.025" height="1.025" fill="rgba(0,159,227,0.110)" /><rect x="27" y="30" width="1.025" height="1.025" fill="rgba(0,159,227,0.075)" /><rect x="28" y="30" width="1.025" height="1.025" fill="rgba(0,159,227,0.043)" /><rect x="29" y="30" width="1.025" height="1.025" fill="rgba(0,159,227,0.020)" /><rect x="30" y="30" width="1.025" height="1.025" fill="rgba(0,159,227,0.004)" /><rect x="31" y="30" width="1.025" height="1.025" fill="rgba(0,159,227,0.016)" /><rect x="32" y="30" width="1.025" height="1.025" fill="rgba(0,159,227,0.016)" /><rect x="33" y="30" width="1.025" height="1.025" fill="rgba(0,159,227,0.016)" /><rect x="13" y="31" width="1.025" height="1.025" fill="rgba(0,159,227,0.008)" /><rect x="14" y="31" width="1.025" height="1.025" fill="rgba(0,159,227,0.039)" /><rect x="15" y="31" width="1.025" height="1.025" fill="rgba(0,159,227,0.094)" /><rect x="16" y="31" width="1.025" height="1.025" fill="rgba(0,159,227,0.129)" /><rect x="17" y="31" width="1.025" height="1.025" fill="rgba(0,159,227,0.098)" /><rect x="18" y="31" width="1.025" height="1.025" fill="rgba(0,159,227,0.082)" /><rect x="19" y="31" width="1.025" height="1.025" fill="rgba(0,159,227,0.114)" /><rect x="20" y="31" width="1.025" height="1.025" fill="rgba(0,159,227,0.180)" /><rect x="21" y="31" width="1.025" height="1.025" fill="rgba(0,160,228,0.243)" /><rect x="22" y="31" width="1.025" height="1.025" fill="rgba(0,160,228,0.318)" /><rect x="23" y="31" width="1.025" height="1.025" fill="rgba(0,160,228,0.353)" /><rect x="24" y="31" width="1.025" height="1.025" fill="rgba(0,160,228,0.341)" /><rect x="25" y="31" width="1.025" height="1.025" fill="rgba(0,160,228,0.278)" /><rect x="26" y="31" width="1.025" height="1.025" fill="rgba(0,160,228,0.224)" /><rect x="27" y="31" width="1.025" height="1.025" fill="rgba(0,159,227,0.188)" /><rect x="28" y="31" width="1.025" height="1.025" fill="rgba(0,159,227,0.165)" /><rect x="29" y="31" width="1.025" height="1.025" fill="rgba(0,159,227,0.106)" /><rect x="30" y="31" width="1.025" height="1.025" fill="rgba(0,159,227,0.071)" /><rect x="31" y="31" width="1.025" height="1.025" fill="rgba(0,159,227,0.129)" /><rect x="32" y="31" width="1.025" height="1.025" fill="rgba(0,159,227,0.196)" /><rect x="33" y="31" width="1.025" height="1.025" fill="rgba(0,159,227,0.145)" /><rect x="34" y="31" width="1.025" height="1.025" fill="rgba(0,159,227,0.051)" /><rect x="13" y="32" width="1.025" height="1.025" fill="rgba(0,159,227,0.031)" /><rect x="14" y="32" width="1.025" height="1.025" fill="rgba(0,159,227,0.149)" /><rect x="15" y="32" width="1.025" height="1.025" fill="rgba(0,159,227,0.302)" /><rect x="16" y="32" width="1.025" height="1.025" fill="rgba(0,159,227,0.361)" /><rect x="17" y="32" width="1.025" height="1.025" fill="rgba(0,159,227,0.275)" /><rect x="18" y="32" width="1.025" height="1.025" fill="rgba(0,159,227,0.176)" /><rect x="19" y="32" width="1.025" height="1.025" fill="rgba(0,159,227,0.200)" /><rect x="20" y="32" width="1.025" height="1.025" fill="rgba(0,160,228,0.278)" /><rect x="21" y="32" width="1.025" height="1.025" fill="rgba(0,160,228,0.380)" /><rect x="22" y="32" width="1.025" height="1.025" fill="rgba(0,160,228,0.478)" /><rect x="23" y="32" width="1.025" height="1.025" fill="rgba(0,160,228,0.541)" /><rect x="24" y="32" width="1.025" height="1.025" fill="rgba(0,160,228,0.518)" /><rect x="25" y="32" width="1.025" height="1.025" fill="rgba(0,160,228,0.431)" /><rect x="26" y="32" width="1.025" height="1.025" fill="rgba(0,160,228,0.376)" /><rect x="27" y="32" width="1.025" height="1.025" fill="rgba(0,160,228,0.392)" /><rect x="28" y="32" width="1.025" height="1.025" fill="rgba(0,160,228,0.392)" /><rect x="29" y="32" width="1.025" height="1.025" fill="rgba(0,159,227,0.306)" /><rect x="30" y="32" width="1.025" height="1.025" fill="rgba(0,159,227,0.255)" /><rect x="31" y="32" width="1.025" height="1.025" fill="rgba(0,159,227,0.435)" /><rect x="32" y="32" width="1.025" height="1.025" fill="rgba(0,159,227,0.557)" /><rect x="33" y="32" width="1.025" height="1.025" fill="rgba(0,159,227,0.478)" /><rect x="34" y="32" width="1.025" height="1.025" fill="rgba(0,159,227,0.231)" /><rect x="35" y="32" width="1.025" height="1.025" fill="rgba(0,159,227,0.047)" /><rect x="13" y="33" width="1.025" height="1.025" fill="rgba(0,159,227,0.067)" /><rect x="14" y="33" width="1.025" height="1.025" fill="rgba(0,159,227,0.243)" /><rect x="15" y="33" width="1.025" height="1.025" fill="rgba(0,159,227,0.455)" /><rect x="16" y="33" width="1.025" height="1.025" fill="rgba(0,159,227,0.502)" /><rect x="17" y="33" width="1.025" height="1.025" fill="rgba(0,160,228,0.424)" /><rect x="18" y="33" width="1.025" height="1.025" fill="rgba(0,160,228,0.282)" /><rect x="19" y="33" width="1.025" height="1.025" fill="rgba(0,160,228,0.282)" /><rect x="20" y="33" width="1.025" height="1.025" fill="rgba(0,160,228,0.376)" /><rect x="21" y="33" width="1.025" height="1.025" fill="rgba(0,160,229,0.471)" /><rect x="22" y="33" width="1.025" height="1.025" fill="rgba(0,161,229,0.573)" /><rect x="23" y="33" width="1.025" height="1.025" fill="rgba(0,161,229,0.612)" /><rect x="24" y="33" width="1.025" height="1.025" fill="rgba(0,164,232,1.000)" /><rect x="25" y="33" width="1.025" height="1.025" fill="rgba(0,160,229,0.529)" /><rect x="26" y="33" width="1.025" height="1.025" fill="rgba(0,160,228,0.494)" /><rect x="27" y="33" width="1.025" height="1.025" fill="rgba(0,160,228,0.537)" /><rect x="28" y="33" width="1.025" height="1.025" fill="rgba(0,160,228,0.553)" /><rect x="29" y="33" width="1.025" height="1.025" fill="rgba(0,164,232,1.000)" /><rect x="30" y="33" width="1.025" height="1.025" fill="rgba(0,159,227,0.471)" /><rect x="31" y="33" width="1.025" height="1.025" fill="rgba(0,159,227,0.682)" /><rect x="32" y="33" width="1.025" height="1.025" fill="rgba(0,159,227,0.784)" /><rect x="33" y="33" width="1.025" height="1.025" fill="rgba(0,159,227,0.745)" /><rect x="34" y="33" width="1.025" height="1.025" fill="rgba(0,159,227,0.443)" /><rect x="35" y="33" width="1.025" height="1.025" fill="rgba(0,159,227,0.118)" /><rect x="36" y="33" width="1.025" height="1.025" fill="rgba(0,159,227,0.004)" /><rect x="13" y="34" width="1.025" height="1.025" fill="rgba(0,159,227,0.063)" /><rect x="14" y="34" width="1.025" height="1.025" fill="rgba(0,159,227,0.231)" /><rect x="15" y="34" width="1.025" height="1.025" fill="rgba(0,163,232,1.000)" /><rect x="16" y="34" width="1.025" height="1.025" fill="rgba(0,249,253,1.000)" /><rect x="17" y="34" width="1.025" height="1.025" fill="rgba(0,160,228,0.431)" /><rect x="18" y="34" width="1.025" height="1.025" fill="rgba(0,240,251,1.000)" /><rect x="19" y="34" width="1.025" height="1.025" fill="rgba(0,236,249,1.000)" /><rect x="20" y="34" width="1.025" height="1.025" fill="rgba(0,162,230,1.000)" /><rect x="21" y="34" width="1.025" height="1.025" fill="rgba(0,161,229,0.510)" /><rect x="22" y="34" width="1.025" height="1.025" fill="rgba(0,161,229,0.580)" /><rect x="23" y="34" width="1.025" height="1.025" fill="rgba(0,164,232,1.000)" /><rect x="24" y="34" width="1.025" height="1.025" fill="rgba(0,230,248,1.000)" /><rect x="25" y="34" width="1.025" height="1.025" fill="rgba(0,232,249,1.000)" /><rect x="26" y="34" width="1.025" height="1.025" fill="rgba(0,161,229,0.529)" /><rect x="27" y="34" width="1.025" height="1.025" fill="rgba(0,161,229,0.576)" /><rect x="28" y="34" width="1.025" height="1.025" fill="rgba(0,164,233,1.000)" /><rect x="29" y="34" width="1.025" height="1.025" fill="rgba(0,247,253,1.000)" /><rect x="30" y="34" width="1.025" height="1.025" fill="rgba(0,159,227,0.510)" /><rect x="31" y="34" width="1.025" height="1.025" fill="rgba(0,159,227,0.714)" /><rect x="32" y="34" width="1.025" height="1.025" fill="rgba(0,167,236,1.000)" /><rect x="33" y="34" width="1.025" height="1.025" fill="rgba(0,255,255,1.000)" /><rect x="34" y="34" width="1.025" height="1.025" fill="rgba(0,159,227,0.498)" /><rect x="35" y="34" width="1.025" height="1.025" fill="rgba(0,159,227,0.149)" /><rect x="36" y="34" width="1.025" height="1.025" fill="rgba(0,159,227,0.008)" /><rect x="12" y="35" width="1.025" height="1.025" fill="rgba(0,159,227,0.004)" /><rect x="13" y="35" width="1.025" height="1.025" fill="rgba(0,159,227,0.031)" /><rect x="14" y="35" width="1.025" height="1.025" fill="rgba(120,191,205,1.000)" /><rect x="15" y="35" width="1.025" height="1.025" fill="rgba(109,187,204,1.000)" /><rect x="16" y="35" width="1.025" height="1.025" fill="rgba(85,174,196,1.000)" /><rect x="17" y="35" width="1.025" height="1.025" fill="rgba(80,177,201,1.000)" /><rect x="18" y="35" width="1.025" height="1.025" fill="rgba(70,179,203,1.000)" /><rect x="19" y="35" width="1.025" height="1.025" fill="rgba(65,180,207,1.000)" /><rect x="20" y="35" width="1.025" height="1.025" fill="rgba(60,179,208,1.000)" /><rect x="21" y="35" width="1.025" height="1.025" fill="rgba(57,178,209,1.000)" /><rect x="22" y="35" width="1.025" height="1.025" fill="rgba(56,178,208,1.000)" /><rect x="23" y="35" width="1.025" height="1.025" fill="rgba(56,177,208,1.000)" /><rect x="24" y="35" width="1.025" height="1.025" fill="rgba(56,177,208,1.000)" /><rect x="25" y="35" width="1.025" height="1.025" fill="rgba(57,178,208,1.000)" /><rect x="26" y="35" width="1.025" height="1.025" fill="rgba(61,178,207,1.000)" /><rect x="27" y="35" width="1.025" height="1.025" fill="rgba(66,177,205,1.000)" /><rect x="28" y="35" width="1.025" height="1.025" fill="rgba(75,177,202,1.000)" /><rect x="29" y="35" width="1.025" height="1.025" fill="rgba(85,178,200,1.000)" /><rect x="30" y="35" width="1.025" height="1.025" fill="rgba(93,178,198,1.000)" /><rect x="31" y="35" width="1.025" height="1.025" fill="rgba(98,175,196,1.000)" /><rect x="32" y="35" width="1.025" height="1.025" fill="rgba(100,173,194,1.000)" /><rect x="33" y="35" width="1.025" height="1.025" fill="rgba(119,185,202,1.000)" /><rect x="34" y="35" width="1.025" height="1.025" fill="rgba(122,189,203,1.000)" /><rect x="35" y="35" width="1.025" height="1.025" fill="rgba(0,159,227,0.086)" /><rect x="36" y="35" width="1.025" height="1.025" fill="rgba(0,159,227,0.008)" /><rect x="12" y="36" width="1.025" height="1.025" fill="rgba(0,159,227,0.004)" /><rect x="13" y="36" width="1.025" height="1.025" fill="rgba(0,159,227,0.012)" /><rect x="14" y="36" width="1.025" height="1.025" fill="rgba(0,159,227,0.059)" /><rect x="15" y="36" width="1.025" height="1.025" fill="rgba(156,192,203,1.000)" /><rect x="16" y="36" width="1.025" height="1.025" fill="rgba(140,185,200,1.000)" /><rect x="17" y="36" width="1.025" height="1.025" fill="rgba(124,180,198,1.000)" /><rect x="18" y="36" width="1.025" height="1.025" fill="rgba(112,180,201,1.000)" /><rect x="19" y="36" width="1.025" height="1.025" fill="rgba(121,193,215,1.000)" /><rect x="20" y="36" width="1.025" height="1.025" fill="rgba(100,182,208,1.000)" /><rect x="21" y="36" width="1.025" height="1.025" fill="rgba(95,181,208,1.000)" /><rect x="22" y="36" width="1.025" height="1.025" fill="rgba(106,190,215,1.000)" /><rect x="23" y="36" width="1.025" height="1.025" fill="rgba(93,181,208,1.000)" /><rect x="24" y="36" width="1.025" height="1.025" fill="rgba(94,181,208,1.000)" /><rect x="25" y="36" width="1.025" height="1.025" fill="rgba(106,190,215,1.000)" /><rect x="26" y="36" width="1.025" height="1.025" fill="rgba(109,192,215,1.000)" /><rect x="27" y="36" width="1.025" height="1.025" fill="rgba(111,186,209,1.000)" /><rect x="28" y="36" width="1.025" height="1.025" fill="rgba(123,188,208,1.000)" /><rect x="29" y="36" width="1.025" height="1.025" fill="rgba(147,195,211,1.000)" /><rect x="30" y="36" width="1.025" height="1.025" fill="rgba(149,191,203,1.000)" /><rect x="31" y="36" width="1.025" height="1.025" fill="rgba(151,188,200,1.000)" /><rect x="32" y="36" width="1.025" height="1.025" fill="rgba(148,186,198,1.000)" /><rect x="33" y="36" width="1.025" height="1.025" fill="rgba(132,172,186,1.000)" /><rect x="34" y="36" width="1.025" height="1.025" fill="rgba(0,159,227,0.118)" /><rect x="35" y="36" width="1.025" height="1.025" fill="rgba(0,159,227,0.020)" /></svg>