<svg shape-rendering="crispEdges" xmlns="http://www.w3.org/2000/svg" version="1.1" width="37" height="37"><style>rect { image-rendering: pixelated; }</style><rect x="25" y="17" width="1.025" height="1.025" fill="rgba(255,98,207,0.761)" /><rect x="26" y="17" width="1.025" height="1.025" fill="rgba(255,98,207,0.761)" /><rect x="27" y="17" width="1.025" height="1.025" fill="rgba(255,98,207,0.788)" /><rect x="24" y="18" width="1.025" height="1.025" fill="rgba(255,98,207,0.675)" /><rect x="25" y="18" width="1.025" height="1.025" fill="rgba(255,98,207,0.580)" /><rect x="26" y="18" width="1.025" height="1.025" fill="rgba(255,98,207,0.569)" /><rect x="27" y="18" width="1.025" height="1.025" fill="rgba(255,98,207,0.663)" /><rect x="28" y="18" width="1.025" height="1.025" fill="rgba(255,98,207,0.761)" /><rect x="23" y="19" width="1.025" height="1.025" fill="rgba(255,98,207,0.694)" /><rect x="24" y="19" width="1.025" height="1.025" fill="rgba(255,98,207,0.502)" /><rect x="25" y="19" width="1.025" height="1.025" fill="rgba(255,98,207,0.318)" /><rect x="26" y="19" width="1.025" height="1.025" fill="rgba(255,98,207,0.306)" /><rect x="27" y="19" width="1.025" height="1.025" fill="rgba(255,98,207,0.471)" /><rect x="28" y="19" width="1.025" height="1.025" fill="rgba(255,98,207,0.678)" /><rect x="29" y="19" width="1.025" height="1.025" fill="rgba(255,98,207,0.792)" /><rect x="22" y="20" width="1.025" height="1.025" fill="rgba(255,0,177,0.910)" /><rect x="23" y="20" width="1.025" height="1.025" fill="rgba(255,98,207,0.659)" /><rect x="24" y="20" width="1.025" height="1.025" fill="rgba(255,98,207,0.412)" /><rect x="25" y="20" width="1.025" height="1.025" fill="rgba(255,98,207,0.204)" /><rect x="26" y="20" width="1.025" height="1.025" fill="rgba(255,98,207,0.192)" /><rect x="27" y="20" width="1.025" height="1.025" fill="rgba(255,98,207,0.373)" /><rect x="28" y="20" width="1.025" height="1.025" fill="rgba(255,98,207,0.627)" /><rect x="29" y="20" width="1.025" height="1.025" fill="rgba(255,98,207,0.780)" /><rect x="23" y="21" width="1.025" height="1.025" fill="rgba(255,98,207,0.694)" /><rect x="24" y="21" width="1.025" height="1.025" fill="rgba(255,98,207,0.486)" /><rect x="25" y="21" width="1.025" height="1.025" fill="rgba(255,98,207,0.294)" /><rect x="26" y="21" width="1.025" height="1.025" fill="rgba(255,98,207,0.278)" /><rect x="27" y="21" width="1.025" height="1.025" fill="rgba(255,98,207,0.455)" /><rect x="28" y="21" width="1.025" height="1.025" fill="rgba(255,98,207,0.667)" /><rect x="29" y="21" width="1.025" height="1.025" fill="rgba(255,98,207,0.792)" /><rect x="24" y="22" width="1.025" height="1.025" fill="rgba(255,98,207,0.655)" /><rect x="25" y="22" width="1.025" height="1.025" fill="rgba(255,98,207,0.553)" /><rect x="26" y="22" width="1.025" height="1.025" fill="rgba(255,98,207,0.541)" /><rect x="27" y="22" width="1.025" height="1.025" fill="rgba(255,98,207,0.639)" /><rect x="28" y="22" width="1.025" height="1.025" fill="rgba(255,98,207,0.749)" /><rect x="25" y="23" width="1.025" height="1.025" fill="rgba(255,98,207,0.745)" /><rect x="26" y="23" width="1.025" height="1.025" fill="rgba(255,98,207,0.745)" /><rect x="27" y="23" width="1.025" height="1.025" fill="rgba(255,98,207,0.773)" /></svg>