<svg shape-rendering="crispEdges" xmlns="http://www.w3.org/2000/svg" version="1.1" width="37" height="37"><style>rect { image-rendering: pixelated; }</style><rect x="11" y="28" width="1.025" height="1.025" fill="rgba(124,0,0,1.000)" /><rect x="12" y="28" width="1.025" height="1.025" fill="rgba(172,0,0,1.000)" /><rect x="13" y="28" width="1.025" height="1.025" fill="rgba(236,236,236,1.000)" /><rect x="19" y="28" width="1.025" height="1.025" fill="rgba(187,187,187,1.000)" /><rect x="20" y="28" width="1.025" height="1.025" fill="rgba(98,0,0,1.000)" /><rect x="21" y="28" width="1.025" height="1.025" fill="rgba(133,0,0,1.000)" /><rect x="9" y="29" width="1.025" height="1.025" fill="rgba(142,0,0,1.000)" /><rect x="10" y="29" width="1.025" height="1.025" fill="rgba(126,0,0,1.000)" /><rect x="11" y="29" width="1.025" height="1.025" fill="rgba(217,217,217,1.000)" /><rect x="12" y="29" width="1.025" height="1.025" fill="rgba(200,0,0,1.000)" /><rect x="13" y="29" width="1.025" height="1.025" fill="rgba(227,6,19,1.000)" /><rect x="14" y="29" width="1.025" height="1.025" fill="rgba(219,219,219,1.000)" /><rect x="15" y="29" width="1.025" height="1.025" fill="rgba(255,255,255,1.000)" /><rect x="16" y="29" width="1.025" height="1.025" fill="rgba(203,203,203,1.000)" /><rect x="17" y="29" width="1.025" height="1.025" fill="rgba(255,255,255,1.000)" /><rect x="18" y="29" width="1.025" height="1.025" fill="rgba(203,203,203,1.000)" /><rect x="19" y="29" width="1.025" height="1.025" fill="rgba(227,6,19,1.000)" /><rect x="20" y="29" width="1.025" height="1.025" fill="rgba(211,0,3,1.000)" /><rect x="21" y="29" width="1.025" height="1.025" fill="rgba(227,227,227,1.000)" /><rect x="22" y="29" width="1.025" height="1.025" fill="rgba(92,0,0,1.000)" /><rect x="23" y="29" width="1.025" height="1.025" fill="rgba(102,0,0,1.000)" /><rect x="7" y="30" width="1.025" height="1.025" fill="rgba(123,0,0,1.000)" /><rect x="8" y="30" width="1.025" height="1.025" fill="rgba(139,0,0,1.000)" /><rect x="9" y="30" width="1.025" height="1.025" fill="rgba(244,244,244,1.000)" /><rect x="10" y="30" width="1.025" height="1.025" fill="rgba(245,245,245,1.000)" /><rect x="11" y="30" width="1.025" height="1.025" fill="rgba(189,0,0,1.000)" /><rect x="12" y="30" width="1.025" height="1.025" fill="rgba(227,6,19,1.000)" /><rect x="13" y="30" width="1.025" height="1.025" fill="rgba(227,6,19,1.000)" /><rect x="14" y="30" width="1.025" height="1.025" fill="rgba(227,6,19,1.000)" /><rect x="15" y="30" width="1.025" height="1.025" fill="rgba(225,4,17,1.000)" /><rect x="16" y="30" width="1.025" height="1.025" fill="rgba(225,1,13,1.000)" /><rect x="17" y="30" width="1.025" height="1.025" fill="rgba(227,6,19,1.000)" /><rect x="18" y="30" width="1.025" height="1.025" fill="rgba(225,2,14,1.000)" /><rect x="19" y="30" width="1.025" height="1.025" fill="rgba(226,5,18,1.000)" /><rect x="20" y="30" width="1.025" height="1.025" fill="rgba(226,5,18,1.000)" /><rect x="21" y="30" width="1.025" height="1.025" fill="rgba(223,2,15,1.000)" /><rect x="22" y="30" width="1.025" height="1.025" fill="rgba(239,239,239,1.000)" /><rect x="23" y="30" width="1.025" height="1.025" fill="rgba(228,228,228,1.000)" /><rect x="24" y="30" width="1.025" height="1.025" fill="rgba(96,0,0,1.000)" /><rect x="25" y="30" width="1.025" height="1.025" fill="rgba(102,0,0,1.000)" /><rect x="6" y="31" width="1.025" height="1.025" fill="rgba(129,0,0,1.000)" /><rect x="7" y="31" width="1.025" height="1.025" fill="rgba(187,187,187,1.000)" /><rect x="8" y="31" width="1.025" height="1.025" fill="rgba(251,251,251,1.000)" /><rect x="9" y="31" width="1.025" height="1.025" fill="rgba(227,6,19,1.000)" /><rect x="10" y="31" width="1.025" height="1.025" fill="rgba(227,6,19,1.000)" /><rect x="11" y="31" width="1.025" height="1.025" fill="rgba(249,249,249,1.000)" /><rect x="12" y="31" width="1.025" height="1.025" fill="rgba(227,6,19,1.000)" /><rect x="13" y="31" width="1.025" height="1.025" fill="rgba(227,6,19,1.000)" /><rect x="14" y="31" width="1.025" height="1.025" fill="rgba(227,6,19,1.000)" /><rect x="15" y="31" width="1.025" height="1.025" fill="rgba(225,4,17,1.000)" /><rect x="16" y="31" width="1.025" height="1.025" fill="rgba(225,1,13,1.000)" /><rect x="17" y="31" width="1.025" height="1.025" fill="rgba(227,6,19,1.000)" /><rect x="18" y="31" width="1.025" height="1.025" fill="rgba(226,4,15,1.000)" /><rect x="19" y="31" width="1.025" height="1.025" fill="rgba(226,5,18,1.000)" /><rect x="20" y="31" width="1.025" height="1.025" fill="rgba(227,6,19,1.000)" /><rect x="21" y="31" width="1.025" height="1.025" fill="rgba(227,6,19,1.000)" /><rect x="22" y="31" width="1.025" height="1.025" fill="rgba(223,2,15,1.000)" /><rect x="23" y="31" width="1.025" height="1.025" fill="rgba(217,0,9,1.000)" /><rect x="24" y="31" width="1.025" height="1.025" fill="rgba(255,255,255,1.000)" /><rect x="25" y="31" width="1.025" height="1.025" fill="rgba(214,0,6,1.000)" /><rect x="26" y="31" width="1.025" height="1.025" fill="rgba(97,0,0,1.000)" /><rect x="5" y="32" width="1.025" height="1.025" fill="rgba(110,0,0,1.000)" /><rect x="6" y="32" width="1.025" height="1.025" fill="rgba(236,236,236,1.000)" /><rect x="7" y="32" width="1.025" height="1.025" fill="rgba(200,0,0,1.000)" /><rect x="8" y="32" width="1.025" height="1.025" fill="rgba(222,1,14,1.000)" /><rect x="9" y="32" width="1.025" height="1.025" fill="rgba(255,255,255,1.000)" /><rect x="10" y="32" width="1.025" height="1.025" fill="rgba(255,255,255,1.000)" /><rect x="11" y="32" width="1.025" height="1.025" fill="rgba(221,0,13,1.000)" /><rect x="12" y="32" width="1.025" height="1.025" fill="rgba(227,6,19,1.000)" /><rect x="13" y="32" width="1.025" height="1.025" fill="rgba(227,6,19,1.000)" /><rect x="14" y="32" width="1.025" height="1.025" fill="rgba(227,6,19,1.000)" /><rect x="15" y="32" width="1.025" height="1.025" fill="rgba(227,6,19,1.000)" /><rect x="16" y="32" width="1.025" height="1.025" fill="rgba(227,6,19,1.000)" /><rect x="17" y="32" width="1.025" height="1.025" fill="rgba(227,6,19,1.000)" /><rect x="18" y="32" width="1.025" height="1.025" fill="rgba(227,6,19,1.000)" /><rect x="19" y="32" width="1.025" height="1.025" fill="rgba(227,6,19,1.000)" /><rect x="20" y="32" width="1.025" height="1.025" fill="rgba(227,6,19,1.000)" /><rect x="21" y="32" width="1.025" height="1.025" fill="rgba(227,6,19,1.000)" /><rect x="22" y="32" width="1.025" height="1.025" fill="rgba(227,6,19,1.000)" /><rect x="23" y="32" width="1.025" height="1.025" fill="rgba(222,1,14,1.000)" /><rect x="24" y="32" width="1.025" height="1.025" fill="rgba(217,0,9,1.000)" /><rect x="25" y="32" width="1.025" height="1.025" fill="rgba(255,255,255,1.000)" /><rect x="26" y="32" width="1.025" height="1.025" fill="rgba(211,0,3,1.000)" /><rect x="27" y="32" width="1.025" height="1.025" fill="rgba(102,0,0,1.000)" /><rect x="5" y="33" width="1.025" height="1.025" fill="rgba(123,0,0,1.000)" /><rect x="6" y="33" width="1.025" height="1.025" fill="rgba(236,236,236,1.000)" /><rect x="7" y="33" width="1.025" height="1.025" fill="rgba(192,0,0,1.000)" /><rect x="8" y="33" width="1.025" height="1.025" fill="rgba(254,254,254,1.000)" /><rect x="9" y="33" width="1.025" height="1.025" fill="rgba(206,0,0,1.000)" /><rect x="10" y="33" width="1.025" height="1.025" fill="rgba(146,0,0,1.000)" /><rect x="11" y="33" width="1.025" height="1.025" fill="rgba(202,0,0,1.000)" /><rect x="12" y="33" width="1.025" height="1.025" fill="rgba(227,6,19,1.000)" /><rect x="13" y="33" width="1.025" height="1.025" fill="rgba(227,6,19,1.000)" /><rect x="14" y="33" width="1.025" height="1.025" fill="rgba(227,6,19,1.000)" /><rect x="15" y="33" width="1.025" height="1.025" fill="rgba(227,6,19,1.000)" /><rect x="16" y="33" width="1.025" height="1.025" fill="rgba(227,6,19,1.000)" /><rect x="17" y="33" width="1.025" height="1.025" fill="rgba(227,6,19,1.000)" /><rect x="18" y="33" width="1.025" height="1.025" fill="rgba(138,0,0,1.000)" /><rect x="19" y="33" width="1.025" height="1.025" fill="rgba(226,5,18,1.000)" /><rect x="20" y="33" width="1.025" height="1.025" fill="rgba(226,5,18,1.000)" /><rect x="21" y="33" width="1.025" height="1.025" fill="rgba(255,248,248,1.000)" /><rect x="22" y="33" width="1.025" height="1.025" fill="rgba(255,255,255,1.000)" /><rect x="23" y="33" width="1.025" height="1.025" fill="rgba(255,255,255,1.000)" /><rect x="24" y="33" width="1.025" height="1.025" fill="rgba(138,0,0,1.000)" /><rect x="25" y="33" width="1.025" height="1.025" fill="rgba(211,0,3,1.000)" /><rect x="26" y="33" width="1.025" height="1.025" fill="rgba(239,239,239,1.000)" /><rect x="27" y="33" width="1.025" height="1.025" fill="rgba(116,0,0,1.000)" /><rect x="5" y="34" width="1.025" height="1.025" fill="rgba(132,0,0,1.000)" /><rect x="6" y="34" width="1.025" height="1.025" fill="rgba(228,228,228,1.000)" /><rect x="7" y="34" width="1.025" height="1.025" fill="rgba(192,0,0,1.000)" /><rect x="8" y="34" width="1.025" height="1.025" fill="rgba(250,250,250,1.000)" /><rect x="9" y="34" width="1.025" height="1.025" fill="rgba(158,0,0,1.000)" /><rect x="10" y="34" width="1.025" height="1.025" fill="rgba(81,0,0,1.000)" /><rect x="11" y="34" width="1.025" height="1.025" fill="rgba(150,0,0,1.000)" /><rect x="12" y="34" width="1.025" height="1.025" fill="rgba(223,2,15,1.000)" /><rect x="13" y="34" width="1.025" height="1.025" fill="rgba(212,0,4,1.000)" /><rect x="14" y="34" width="1.025" height="1.025" fill="rgba(226,5,18,1.000)" /><rect x="15" y="34" width="1.025" height="1.025" fill="rgba(227,6,19,1.000)" /><rect x="16" y="34" width="1.025" height="1.025" fill="rgba(227,6,19,1.000)" /><rect x="17" y="34" width="1.025" height="1.025" fill="rgba(227,6,19,1.000)" /><rect x="18" y="34" width="1.025" height="1.025" fill="rgba(113,0,0,1.000)" /><rect x="19" y="34" width="1.025" height="1.025" fill="rgba(16,0,0,1.000)" /><rect x="20" y="34" width="1.025" height="1.025" fill="rgba(208,0,0,1.000)" /><rect x="21" y="34" width="1.025" height="1.025" fill="rgba(208,0,0,1.000)" /><rect x="22" y="34" width="1.025" height="1.025" fill="rgba(246,241,241,1.000)" /><rect x="23" y="34" width="1.025" height="1.025" fill="rgba(197,3,9,1.000)" /><rect x="24" y="34" width="1.025" height="1.025" fill="rgba(170,3,9,1.000)" /><rect x="25" y="34" width="1.025" height="1.025" fill="rgba(16,0,0,1.000)" /><rect x="26" y="34" width="1.025" height="1.025" fill="rgba(221,221,221,1.000)" /><rect x="27" y="34" width="1.025" height="1.025" fill="rgba(79,0,0,1.000)" /><rect x="5" y="35" width="1.025" height="1.025" fill="rgba(132,0,0,1.000)" /><rect x="6" y="35" width="1.025" height="1.025" fill="rgba(228,228,228,1.000)" /><rect x="7" y="35" width="1.025" height="1.025" fill="rgba(192,0,0,1.000)" /><rect x="8" y="35" width="1.025" height="1.025" fill="rgba(250,250,250,1.000)" /><rect x="9" y="35" width="1.025" height="1.025" fill="rgba(158,0,0,1.000)" /><rect x="10" y="35" width="1.025" height="1.025" fill="rgba(0,0,0,1.000)" /><rect x="11" y="35" width="1.025" height="1.025" fill="rgba(94,0,0,1.000)" /><rect x="12" y="35" width="1.025" height="1.025" fill="rgba(181,0,0,1.000)" /><rect x="13" y="35" width="1.025" height="1.025" fill="rgba(171,0,0,1.000)" /><rect x="14" y="35" width="1.025" height="1.025" fill="rgba(196,0,0,1.000)" /><rect x="15" y="35" width="1.025" height="1.025" fill="rgba(227,6,19,1.000)" /><rect x="16" y="35" width="1.025" height="1.025" fill="rgba(227,6,19,1.000)" /><rect x="17" y="35" width="1.025" height="1.025" fill="rgba(227,6,19,1.000)" /><rect x="18" y="35" width="1.025" height="1.025" fill="rgba(218,0,10,1.000)" /><rect x="19" y="35" width="1.025" height="1.025" fill="rgba(113,0,0,1.000)" /><rect x="20" y="35" width="1.025" height="1.025" fill="rgba(16,0,0,1.000)" /><rect x="21" y="35" width="1.025" height="1.025" fill="rgba(202,0,0,1.000)" /><rect x="22" y="35" width="1.025" height="1.025" fill="rgba(226,5,18,1.000)" /><rect x="23" y="35" width="1.025" height="1.025" fill="rgba(226,5,18,1.000)" /><rect x="24" y="35" width="1.025" height="1.025" fill="rgba(198,4,14,1.000)" /><rect x="25" y="35" width="1.025" height="1.025" fill="rgba(113,0,0,1.000)" /><rect x="26" y="35" width="1.025" height="1.025" fill="rgba(16,0,0,1.000)" /><rect x="27" y="35" width="1.025" height="1.025" fill="rgba(79,0,0,1.000)" /><rect x="5" y="36" width="1.025" height="1.025" fill="rgba(132,0,0,1.000)" /><rect x="6" y="36" width="1.025" height="1.025" fill="rgba(228,228,228,1.000)" /><rect x="7" y="36" width="1.025" height="1.025" fill="rgba(192,0,0,1.000)" /><rect x="8" y="36" width="1.025" height="1.025" fill="rgba(250,250,250,1.000)" /><rect x="9" y="36" width="1.025" height="1.025" fill="rgba(158,0,0,1.000)" /><rect x="10" y="36" width="1.025" height="1.025" fill="rgba(0,0,0,1.000)" /><rect x="11" y="36" width="1.025" height="1.025" fill="rgba(97,0,0,1.000)" /><rect x="12" y="36" width="1.025" height="1.025" fill="rgba(138,0,0,1.000)" /><rect x="13" y="36" width="1.025" height="1.025" fill="rgba(167,0,0,1.000)" /><rect x="14" y="36" width="1.025" height="1.025" fill="rgba(171,0,0,1.000)" /><rect x="15" y="36" width="1.025" height="1.025" fill="rgba(181,0,0,1.000)" /><rect x="16" y="36" width="1.025" height="1.025" fill="rgba(181,0,0,1.000)" /><rect x="17" y="36" width="1.025" height="1.025" fill="rgba(181,0,0,1.000)" /><rect x="18" y="36" width="1.025" height="1.025" fill="rgba(185,0,0,1.000)" /><rect x="19" y="36" width="1.025" height="1.025" fill="rgba(170,3,9,1.000)" /><rect x="20" y="36" width="1.025" height="1.025" fill="rgba(113,0,0,1.000)" /><rect x="21" y="36" width="1.025" height="1.025" fill="rgba(16,0,0,1.000)" /><rect x="22" y="36" width="1.025" height="1.025" fill="rgba(199,0,0,1.000)" /><rect x="23" y="36" width="1.025" height="1.025" fill="rgba(199,0,0,1.000)" /><rect x="24" y="36" width="1.025" height="1.025" fill="rgba(198,4,14,1.000)" /><rect x="25" y="36" width="1.025" height="1.025" fill="rgba(170,3,9,1.000)" /><rect x="26" y="36" width="1.025" height="1.025" fill="rgba(113,0,0,1.000)" /><rect x="27" y="36" width="1.025" height="1.025" fill="rgba(16,0,0,1.000)" /></svg>