<svg shape-rendering="crispEdges" xmlns="http://www.w3.org/2000/svg" version="1.1" width="37" height="37"><style>rect { image-rendering: pixelated; }</style><rect x="24" y="0" width="1.025" height="1.025" fill="rgba(29,29,29,1.000)" /><rect x="29" y="0" width="1.025" height="1.025" fill="rgba(0,0,0,1.000)" /><rect x="32" y="0" width="1.025" height="1.025" fill="rgba(0,0,0,1.000)" /><rect x="35" y="0" width="1.025" height="1.025" fill="rgba(29,29,29,1.000)" /><rect x="36" y="0" width="1.025" height="1.025" fill="rgba(29,29,29,1.000)" /><rect x="24" y="1" width="1.025" height="1.025" fill="rgba(0,0,0,1.000)" /><rect x="25" y="1" width="1.025" height="1.025" fill="rgba(29,29,29,1.000)" /><rect x="26" y="1" width="1.025" height="1.025" fill="rgba(29,29,29,1.000)" /><rect x="29" y="1" width="1.025" height="1.025" fill="rgba(0,0,0,1.000)" /><rect x="32" y="1" width="1.025" height="1.025" fill="rgba(0,0,0,1.000)" /><rect x="33" y="1" width="1.025" height="1.025" fill="rgba(29,29,29,1.000)" /><rect x="34" y="1" width="1.025" height="1.025" fill="rgba(29,29,29,1.000)" /><rect x="35" y="1" width="1.025" height="1.025" fill="rgba(0,0,0,1.000)" /><rect x="24" y="2" width="1.025" height="1.025" fill="rgba(62,0,5,1.000)" /><rect x="25" y="2" width="1.025" height="1.025" fill="rgba(62,0,5,1.000)" /><rect x="26" y="2" width="1.025" height="1.025" fill="rgba(0,0,0,1.000)" /><rect x="27" y="2" width="1.025" height="1.025" fill="rgba(29,29,29,1.000)" /><rect x="29" y="2" width="1.025" height="1.025" fill="rgba(0,0,0,1.000)" /><rect x="30" y="2" width="1.025" height="1.025" fill="rgba(29,29,29,1.000)" /><rect x="31" y="2" width="1.025" height="1.025" fill="rgba(29,29,29,1.000)" /><rect x="32" y="2" width="1.025" height="1.025" fill="rgba(0,0,0,1.000)" /><rect x="33" y="2" width="1.025" height="1.025" fill="rgba(0,0,0,1.000)" /><rect x="34" y="2" width="1.025" height="1.025" fill="rgba(62,0,5,1.000)" /><rect x="35" y="2" width="1.025" height="1.025" fill="rgba(62,0,5,1.000)" /><rect x="25" y="3" width="1.025" height="1.025" fill="rgba(62,0,5,1.000)" /><rect x="26" y="3" width="1.025" height="1.025" fill="rgba(62,0,5,1.000)" /><rect x="27" y="3" width="1.025" height="1.025" fill="rgba(0,0,0,1.000)" /><rect x="28" y="3" width="1.025" height="1.025" fill="rgba(29,29,29,1.000)" /><rect x="29" y="3" width="1.025" height="1.025" fill="rgba(0,0,0,1.000)" /><rect x="30" y="3" width="1.025" height="1.025" fill="rgba(64,0,255,1.000)" /><rect x="31" y="3" width="1.025" height="1.025" fill="rgba(0,0,0,1.000)" /><rect x="32" y="3" width="1.025" height="1.025" fill="rgba(129,56,149,1.000)" /><rect x="33" y="3" width="1.025" height="1.025" fill="rgba(62,0,5,1.000)" /><rect x="34" y="3" width="1.025" height="1.025" fill="rgba(62,0,5,1.000)" /><rect x="25" y="4" width="1.025" height="1.025" fill="rgba(62,0,5,1.000)" /><rect x="26" y="4" width="1.025" height="1.025" fill="rgba(62,0,5,1.000)" /><rect x="27" y="4" width="1.025" height="1.025" fill="rgba(0,0,0,1.000)" /><rect x="28" y="4" width="1.025" height="1.025" fill="rgba(0,0,0,1.000)" /><rect x="29" y="4" width="1.025" height="1.025" fill="rgba(0,0,0,1.000)" /><rect x="30" y="4" width="1.025" height="1.025" fill="rgba(0,0,0,1.000)" /><rect x="31" y="4" width="1.025" height="1.025" fill="rgba(0,0,0,1.000)" /><rect x="32" y="4" width="1.025" height="1.025" fill="rgba(0,0,0,1.000)" /><rect x="33" y="4" width="1.025" height="1.025" fill="rgba(62,0,5,1.000)" /><rect x="34" y="4" width="1.025" height="1.025" fill="rgba(62,0,5,1.000)" /><rect x="26" y="5" width="1.025" height="1.025" fill="rgba(62,0,5,1.000)" /><rect x="27" y="5" width="1.025" height="1.025" fill="rgba(62,0,5,1.000)" /><rect x="28" y="5" width="1.025" height="1.025" fill="rgba(0,0,0,1.000)" /><rect x="29" y="5" width="1.025" height="1.025" fill="rgba(0,0,0,1.000)" /><rect x="30" y="5" width="1.025" height="1.025" fill="rgba(0,0,0,1.000)" /><rect x="31" y="5" width="1.025" height="1.025" fill="rgba(0,0,0,1.000)" /><rect x="32" y="5" width="1.025" height="1.025" fill="rgba(0,0,0,1.000)" /><rect x="33" y="5" width="1.025" height="1.025" fill="rgba(62,0,5,1.000)" /><rect x="28" y="6" width="1.025" height="1.025" fill="rgba(0,0,0,1.000)" /><rect x="29" y="6" width="1.025" height="1.025" fill="rgba(0,0,0,1.000)" /><rect x="30" y="6" width="1.025" height="1.025" fill="rgba(0,0,0,1.000)" /><rect x="31" y="6" width="1.025" height="1.025" fill="rgba(0,0,0,1.000)" /><rect x="32" y="6" width="1.025" height="1.025" fill="rgba(0,0,0,1.000)" /><rect x="29" y="7" width="1.025" height="1.025" fill="rgba(0,0,0,1.000)" /><rect x="30" y="7" width="1.025" height="1.025" fill="rgba(0,0,0,1.000)" /><rect x="31" y="7" width="1.025" height="1.025" fill="rgba(0,0,0,1.000)" /></svg>