<svg shape-rendering="crispEdges" xmlns="http://www.w3.org/2000/svg" version="1.1" width="37" height="37"><style>rect { image-rendering: pixelated; }</style><rect x="16" y="13" width="1.025" height="1.025" fill="rgba(52,0,222,0.322)" /><rect x="17" y="13" width="1.025" height="1.025" fill="rgba(52,0,222,0.400)" /><rect x="18" y="13" width="1.025" height="1.025" fill="rgba(52,0,222,0.400)" /><rect x="21" y="13" width="1.025" height="1.025" fill="rgba(52,0,222,0.322)" /><rect x="22" y="13" width="1.025" height="1.025" fill="rgba(52,0,222,0.400)" /><rect x="23" y="13" width="1.025" height="1.025" fill="rgba(52,0,222,0.400)" /><rect x="11" y="14" width="1.025" height="1.025" fill="rgba(0,0,0,1.000)" /><rect x="12" y="14" width="1.025" height="1.025" fill="rgba(0,0,0,1.000)" /><rect x="13" y="14" width="1.025" height="1.025" fill="rgba(0,0,0,1.000)" /><rect x="14" y="14" width="1.025" height="1.025" fill="rgba(0,0,0,1.000)" /><rect x="15" y="14" width="1.025" height="1.025" fill="rgba(0,0,0,1.000)" /><rect x="16" y="14" width="1.025" height="1.025" fill="rgba(52,0,222,0.800)" /><rect x="17" y="14" width="1.025" height="1.025" fill="rgba(52,0,222,0.498)" /><rect x="18" y="14" width="1.025" height="1.025" fill="rgba(52,0,222,0.498)" /><rect x="19" y="14" width="1.025" height="1.025" fill="rgba(51,51,51,1.000)" /><rect x="20" y="14" width="1.025" height="1.025" fill="rgba(51,51,51,1.000)" /><rect x="21" y="14" width="1.025" height="1.025" fill="rgba(52,0,222,0.800)" /><rect x="22" y="14" width="1.025" height="1.025" fill="rgba(52,0,222,0.498)" /><rect x="23" y="14" width="1.025" height="1.025" fill="rgba(52,0,222,0.498)" /><rect x="24" y="14" width="1.025" height="1.025" fill="rgba(102,102,102,1.000)" /><rect x="10" y="15" width="1.025" height="1.025" fill="rgba(0,0,0,1.000)" /><rect x="16" y="15" width="1.025" height="1.025" fill="rgba(52,0,222,1.000)" /><rect x="17" y="15" width="1.025" height="1.025" fill="rgba(52,0,222,0.498)" /><rect x="18" y="15" width="1.025" height="1.025" fill="rgba(52,0,222,1.000)" /><rect x="21" y="15" width="1.025" height="1.025" fill="rgba(52,0,222,1.000)" /><rect x="22" y="15" width="1.025" height="1.025" fill="rgba(52,0,222,0.498)" /><rect x="23" y="15" width="1.025" height="1.025" fill="rgba(52,0,222,1.000)" /><rect x="10" y="16" width="1.025" height="1.025" fill="rgba(9,14,10,1.000)" /></svg>