<svg xmlns="http://www.w3.org/2000/svg" width="37.925" height="37.925" style="image-rendering: pixelated;" shape-rendering="crispEdges">
<rect x="13.325" y="12.299999999999999" width="1.025" height="1.025" fill="rgba(255,215,19,1.00)" />
<rect x="14.349999999999998" y="12.299999999999999" width="1.025" height="1.025" fill="rgba(255,215,19,1.00)" />
<rect x="15.374999999999998" y="12.299999999999999" width="1.025" height="1.025" fill="rgba(255,215,19,1.00)" />
<rect x="16.4" y="12.299999999999999" width="1.025" height="1.025" fill="rgba(255,215,19,1.00)" />
<rect x="17.424999999999997" y="12.299999999999999" width="1.025" height="1.025" fill="rgba(255,215,19,1.00)" />
<rect x="18.45" y="12.299999999999999" width="1.025" height="1.025" fill="rgba(255,215,19,1.00)" />
<rect x="19.474999999999998" y="12.299999999999999" width="1.025" height="1.025" fill="rgba(255,215,19,1.00)" />
<rect x="20.5" y="12.299999999999999" width="1.025" height="1.025" fill="rgba(255,215,19,1.00)" />
<rect x="21.525" y="12.299999999999999" width="1.025" height="1.025" fill="rgba(255,203,17,1.00)" />
<rect x="22.549999999999997" y="12.299999999999999" width="1.025" height="1.025" fill="rgba(255,188,15,1.00)" />
<rect x="23.575" y="12.299999999999999" width="1.025" height="1.025" fill="rgba(255,168,13,1.00)" />
<rect x="24.599999999999998" y="12.299999999999999" width="1.025" height="1.025" fill="rgba(255,149,10,1.00)" />
<rect x="25.624999999999996" y="12.299999999999999" width="1.025" height="1.025" fill="rgba(255,128,8,1.00)" />
<rect x="26.65" y="12.299999999999999" width="1.025" height="1.025" fill="rgba(255,116,6,1.00)" />
<rect x="11.274999999999999" y="13.325" width="1.025" height="1.025" fill="rgba(255,215,19,1.00)" />
<rect x="12.299999999999999" y="13.325" width="1.025" height="1.025" fill="rgba(255,215,19,1.00)" />
<rect x="15.374999999999998" y="13.325" width="1.025" height="1.025" fill="rgba(255,215,19,1.00)" />
<rect x="16.4" y="13.325" width="1.025" height="1.025" fill="rgba(76,64,6,1.00)" />
<rect x="17.424999999999997" y="13.325" width="1.025" height="1.025" fill="rgba(76,64,6,1.00)" />
<rect x="18.45" y="13.325" width="1.025" height="1.025" fill="rgba(38,36,16,1.00)" />
<rect x="19.474999999999998" y="13.325" width="1.025" height="1.025" fill="rgba(19,15,1,1.00)" />
<rect x="20.5" y="13.325" width="1.025" height="1.025" fill="rgba(0,0,0,1.00)" />
<rect x="21.525" y="13.325" width="1.025" height="1.025" fill="rgba(255,168,13,1.00)" />
<rect x="22.549999999999997" y="13.325" width="1.025" height="1.025" fill="rgba(76,44,3,1.00)" />
<rect x="23.575" y="13.325" width="1.025" height="1.025" fill="rgba(38,19,1,1.00)" />
<rect x="24.599999999999998" y="13.325" width="1.025" height="1.025" fill="rgba(19,8,0,1.00)" />
<rect x="25.624999999999996" y="13.325" width="1.025" height="1.025" fill="rgba(0,0,0,1.00)" />
<rect x="26.65" y="13.325" width="1.025" height="1.025" fill="rgba(255,136,8,1.00)" />
<rect x="16.4" y="14.349999999999998" width="1.025" height="1.025" fill="rgba(255,215,19,1.00)" />
<rect x="17.424999999999997" y="14.349999999999998" width="1.025" height="1.025" fill="rgba(76,71,32,1.00)" />
<rect x="18.45" y="14.349999999999998" width="1.025" height="1.025" fill="rgba(76,56,4,1.00)" />
<rect x="19.474999999999998" y="14.349999999999998" width="1.025" height="1.025" fill="rgba(38,25,2,1.00)" />
<rect x="20.5" y="14.349999999999998" width="1.025" height="1.025" fill="rgba(255,149,10,1.00)" />
<rect x="21.525" y="14.349999999999998" width="1.025" height="1.025" fill="rgba(255,203,17,1.00)" />
<rect x="22.549999999999997" y="14.349999999999998" width="1.025" height="1.025" fill="rgba(76,32,1,1.00)" />
<rect x="23.575" y="14.349999999999998" width="1.025" height="1.025" fill="rgba(76,26,1,1.00)" />
<rect x="24.599999999999998" y="14.349999999999998" width="1.025" height="1.025" fill="rgba(38,22,13,1.00)" />
<rect x="25.624999999999996" y="14.349999999999998" width="1.025" height="1.025" fill="rgba(255,149,10,1.00)" />
<rect x="17.424999999999997" y="15.374999999999998" width="1.025" height="1.025" fill="rgba(255,168,13,1.00)" />
<rect x="18.45" y="15.374999999999998" width="1.025" height="1.025" fill="rgba(255,149,10,1.00)" />
<rect x="19.474999999999998" y="15.374999999999998" width="1.025" height="1.025" fill="rgba(255,128,8,1.00)" />
<rect x="22.549999999999997" y="15.374999999999998" width="1.025" height="1.025" fill="rgba(255,203,17,1.00)" />
<rect x="23.575" y="15.374999999999998" width="1.025" height="1.025" fill="rgba(255,188,15,1.00)" />
<rect x="24.599999999999998" y="15.374999999999998" width="1.025" height="1.025" fill="rgba(255,168,13,1.00)" />
</svg>