<svg xmlns="http://www.w3.org/2000/svg" width="37.925" height="37.925" style="image-rendering: pixelated;" shape-rendering="crispEdges">
<rect x="19.474999999999998" y="18.45" width="1.025" height="1.025" fill="rgba(250,229,129,1.00)" />
<rect x="20.5" y="18.45" width="1.025" height="1.025" fill="rgba(252,238,129,1.00)" />
<rect x="21.525" y="18.45" width="1.025" height="1.025" fill="rgba(252,241,129,1.00)" />
<rect x="22.549999999999997" y="18.45" width="1.025" height="1.025" fill="rgba(249,233,127,1.00)" />
<rect x="18.45" y="19.474999999999998" width="1.025" height="1.025" fill="rgba(234,205,95,0.81)" />
<rect x="19.474999999999998" y="19.474999999999998" width="1.025" height="1.025" fill="rgba(251,226,104,0.81)" />
<rect x="20.5" y="19.474999999999998" width="1.025" height="1.025" fill="rgba(253,232,104,0.81)" />
<rect x="21.525" y="19.474999999999998" width="1.025" height="1.025" fill="rgba(252,238,129,1.00)" />
<rect x="22.549999999999997" y="19.474999999999998" width="1.025" height="1.025" fill="rgba(245,228,125,1.00)" />
<rect x="23.575" y="19.474999999999998" width="1.025" height="1.025" fill="rgba(229,206,115,1.00)" />
<rect x="17.424999999999997" y="20.5" width="1.025" height="1.025" fill="rgba(227,197,93,0.81)" />
<rect x="18.45" y="20.5" width="1.025" height="1.025" fill="rgba(252,222,104,0.81)" />
<rect x="23.575" y="20.5" width="1.025" height="1.025" fill="rgba(252,230,129,1.00)" />
<rect x="24.599999999999998" y="20.5" width="1.025" height="1.025" fill="rgba(249,233,127,1.00)" />
<rect x="17.424999999999997" y="21.525" width="1.025" height="1.025" fill="rgba(234,205,95,0.81)" />
<rect x="18.45" y="21.525" width="1.025" height="1.025" fill="rgba(232,202,95,0.81)" />
<rect x="23.575" y="21.525" width="1.025" height="1.025" fill="rgba(252,231,129,1.00)" />
<rect x="24.599999999999998" y="21.525" width="1.025" height="1.025" fill="rgba(245,228,125,1.00)" />
<rect x="17.424999999999997" y="22.549999999999997" width="1.025" height="1.025" fill="rgba(252,222,104,0.81)" />
<rect x="18.45" y="22.549999999999997" width="1.025" height="1.025" fill="rgba(245,218,99,0.81)" />
<rect x="23.575" y="22.549999999999997" width="1.025" height="1.025" fill="rgba(252,230,129,1.00)" />
<rect x="24.599999999999998" y="22.549999999999997" width="1.025" height="1.025" fill="rgba(252,231,129,1.00)" />
<rect x="17.424999999999997" y="23.575" width="1.025" height="1.025" fill="rgba(232,202,95,0.81)" />
<rect x="18.45" y="23.575" width="1.025" height="1.025" fill="rgba(253,226,104,0.81)" />
<rect x="23.575" y="23.575" width="1.025" height="1.025" fill="rgba(252,238,129,1.00)" />
<rect x="24.599999999999998" y="23.575" width="1.025" height="1.025" fill="rgba(245,224,125,1.00)" />
<rect x="17.424999999999997" y="24.599999999999998" width="1.025" height="1.025" fill="rgba(245,218,99,0.81)" />
</svg>