<svg xmlns="http://www.w3.org/2000/svg" width="37.925" height="37.925" style="image-rendering: pixelated;" shape-rendering="crispEdges">
<rect x="12.299999999999999" y="7.174999999999999" width="1.025" height="1.025" fill="rgba(231,206,117,1.00)" />
<rect x="23.575" y="7.174999999999999" width="1.025" height="1.025" fill="rgba(235,214,118,1.00)" />
<rect x="11.274999999999999" y="8.2" width="1.025" height="1.025" fill="rgba(213,191,106,1.00)" />
<rect x="12.299999999999999" y="8.2" width="1.025" height="1.025" fill="rgba(223,201,112,1.00)" />
<rect x="13.325" y="8.2" width="1.025" height="1.025" fill="rgba(242,219,123,1.00)" />
<rect x="14.349999999999998" y="8.2" width="1.025" height="1.025" fill="rgba(255,208,26,1.00)" />
<rect x="15.374999999999998" y="8.2" width="1.025" height="1.025" fill="rgba(255,73,58,1.00)" />
<rect x="16.4" y="8.2" width="1.025" height="1.025" fill="rgba(255,10,68,1.00)" />
<rect x="17.424999999999997" y="8.2" width="1.025" height="1.025" fill="rgba(255,36,54,1.00)" />
<rect x="18.45" y="8.2" width="1.025" height="1.025" fill="rgba(255,206,14,1.00)" />
<rect x="19.474999999999998" y="8.2" width="1.025" height="1.025" fill="rgba(255,100,60,1.00)" />
<rect x="20.5" y="8.2" width="1.025" height="1.025" fill="rgba(255,54,69,1.00)" />
<rect x="21.525" y="8.2" width="1.025" height="1.025" fill="rgba(255,208,24,1.00)" />
<rect x="22.549999999999997" y="8.2" width="1.025" height="1.025" fill="rgba(255,204,5,1.00)" />
<rect x="23.575" y="8.2" width="1.025" height="1.025" fill="rgba(255,93,51,1.00)" />
<rect x="24.599999999999998" y="8.2" width="1.025" height="1.025" fill="rgba(240,223,122,1.00)" />
<rect x="11.274999999999999" y="9.225" width="1.025" height="1.025" fill="rgba(210,189,105,1.00)" />
<rect x="12.299999999999999" y="9.225" width="1.025" height="1.025" fill="rgba(220,195,110,1.00)" />
<rect x="13.325" y="9.225" width="1.025" height="1.025" fill="rgba(255,174,5,1.00)" />
<rect x="14.349999999999998" y="9.225" width="1.025" height="1.025" fill="rgba(255,5,112,1.00)" />
<rect x="15.374999999999998" y="9.225" width="1.025" height="1.025" fill="rgba(251,187,0,1.00)" />
<rect x="16.4" y="9.225" width="1.025" height="1.025" fill="rgba(248,79,35,1.00)" />
<rect x="17.424999999999997" y="9.225" width="1.025" height="1.025" fill="rgba(255,202,4,1.00)" />
<rect x="18.45" y="9.225" width="1.025" height="1.025" fill="rgba(255,202,4,1.00)" />
<rect x="19.474999999999998" y="9.225" width="1.025" height="1.025" fill="rgba(255,203,8,1.00)" />
<rect x="20.5" y="9.225" width="1.025" height="1.025" fill="rgba(255,88,45,1.00)" />
<rect x="21.525" y="9.225" width="1.025" height="1.025" fill="rgba(255,202,1,1.00)" />
<rect x="22.549999999999997" y="9.225" width="1.025" height="1.025" fill="rgba(255,14,58,1.00)" />
<rect x="23.575" y="9.225" width="1.025" height="1.025" fill="rgba(255,87,44,1.00)" />
<rect x="24.599999999999998" y="9.225" width="1.025" height="1.025" fill="rgba(238,220,120,1.00)" />
<rect x="11.274999999999999" y="10.25" width="1.025" height="1.025" fill="rgba(235,211,118,1.00)" />
<rect x="12.299999999999999" y="10.25" width="1.025" height="1.025" fill="rgba(231,150,29,1.00)" />
<rect x="13.325" y="10.25" width="1.025" height="1.025" fill="rgba(251,75,43,1.00)" />
<rect x="14.349999999999998" y="10.25" width="1.025" height="1.025" fill="rgba(248,0,58,1.00)" />
<rect x="15.374999999999998" y="10.25" width="1.025" height="1.025" fill="rgba(255,202,4,1.00)" />
<rect x="16.4" y="10.25" width="1.025" height="1.025" fill="rgba(255,83,41,1.00)" />
<rect x="17.424999999999997" y="10.25" width="1.025" height="1.025" fill="rgba(255,203,8,1.00)" />
<rect x="18.45" y="10.25" width="1.025" height="1.025" fill="rgba(255,22,64,1.00)" />
<rect x="19.474999999999998" y="10.25" width="1.025" height="1.025" fill="rgba(255,202,1,1.00)" />
<rect x="20.5" y="10.25" width="1.025" height="1.025" fill="rgba(255,3,62,1.00)" />
<rect x="21.525" y="10.25" width="1.025" height="1.025" fill="rgba(255,204,9,1.00)" />
<rect x="22.549999999999997" y="10.25" width="1.025" height="1.025" fill="rgba(255,92,50,1.00)" />
<rect x="23.575" y="10.25" width="1.025" height="1.025" fill="rgba(255,206,15,1.00)" />
<rect x="24.599999999999998" y="10.25" width="1.025" height="1.025" fill="rgba(255,20,64,1.00)" />
<rect x="10.25" y="11.274999999999999" width="1.025" height="1.025" fill="rgba(224,201,112,1.00)" />
<rect x="11.274999999999999" y="11.274999999999999" width="1.025" height="1.025" fill="rgba(231,208,117,1.00)" />
<rect x="12.299999999999999" y="11.274999999999999" width="1.025" height="1.025" fill="rgba(230,205,115,1.00)" />
<rect x="13.325" y="11.274999999999999" width="1.025" height="1.025" fill="rgba(238,214,120,1.00)" />
<rect x="24.599999999999998" y="11.274999999999999" width="1.025" height="1.025" fill="rgba(248,233,127,1.00)" />
<rect x="10.25" y="12.299999999999999" width="1.025" height="1.025" fill="rgba(217,195,108,1.00)" />
<rect x="11.274999999999999" y="12.299999999999999" width="1.025" height="1.025" fill="rgba(208,188,103,1.00)" />
<rect x="12.299999999999999" y="12.299999999999999" width="1.025" height="1.025" fill="rgba(215,192,106,1.00)" />
<rect x="13.325" y="12.299999999999999" width="1.025" height="1.025" fill="rgba(189,168,92,1.00)" />
<rect x="24.599999999999998" y="12.299999999999999" width="1.025" height="1.025" fill="rgba(245,230,125,1.00)" />
<rect x="10.25" y="13.325" width="1.025" height="1.025" fill="rgba(219,195,110,1.00)" />
<rect x="11.274999999999999" y="13.325" width="1.025" height="1.025" fill="rgba(202,181,100,1.00)" />
<rect x="12.299999999999999" y="13.325" width="1.025" height="1.025" fill="rgba(179,148,44,0.49)" />
<rect x="24.599999999999998" y="13.325" width="1.025" height="1.025" fill="rgba(249,235,127,1.00)" />
<rect x="10.25" y="14.349999999999998" width="1.025" height="1.025" fill="rgba(220,195,110,1.00)" />
<rect x="11.274999999999999" y="14.349999999999998" width="1.025" height="1.025" fill="rgba(204,170,51,0.49)" />
<rect x="24.599999999999998" y="14.349999999999998" width="1.025" height="1.025" fill="rgba(248,233,127,1.00)" />
<rect x="10.25" y="15.374999999999998" width="1.025" height="1.025" fill="rgba(220,197,110,1.00)" />
<rect x="24.599999999999998" y="15.374999999999998" width="1.025" height="1.025" fill="rgba(245,231,125,1.00)" />
<rect x="10.25" y="16.4" width="1.025" height="1.025" fill="rgba(225,201,113,1.00)" />
<rect x="24.599999999999998" y="16.4" width="1.025" height="1.025" fill="rgba(243,228,123,1.00)" />
<rect x="10.25" y="17.424999999999997" width="1.025" height="1.025" fill="rgba(230,206,115,1.00)" />
<rect x="11.274999999999999" y="17.424999999999997" width="1.025" height="1.025" fill="rgba(118,103,51,1.00)" />
<rect x="24.599999999999998" y="17.424999999999997" width="1.025" height="1.025" fill="rgba(241,224,122,1.00)" />
<rect x="10.25" y="18.45" width="1.025" height="1.025" fill="rgba(224,201,112,1.00)" />
<rect x="11.274999999999999" y="18.45" width="1.025" height="1.025" fill="rgba(187,167,90,1.00)" />
<rect x="12.299999999999999" y="18.45" width="1.025" height="1.025" fill="rgba(118,103,51,1.00)" />
<rect x="24.599999999999998" y="18.45" width="1.025" height="1.025" fill="rgba(241,224,122,1.00)" />
<rect x="10.25" y="19.474999999999998" width="1.025" height="1.025" fill="rgba(221,199,110,1.00)" />
<rect x="11.274999999999999" y="19.474999999999998" width="1.025" height="1.025" fill="rgba(211,189,105,1.00)" />
<rect x="12.299999999999999" y="19.474999999999998" width="1.025" height="1.025" fill="rgba(170,151,81,1.00)" />
<rect x="24.599999999999998" y="19.474999999999998" width="1.025" height="1.025" fill="rgba(236,219,120,1.00)" />
<rect x="10.25" y="20.5" width="1.025" height="1.025" fill="rgba(224,201,112,1.00)" />
<rect x="11.274999999999999" y="20.5" width="1.025" height="1.025" fill="rgba(247,223,125,1.00)" />
<rect x="12.299999999999999" y="20.5" width="1.025" height="1.025" fill="rgba(188,167,92,1.00)" />
<rect x="24.599999999999998" y="20.5" width="1.025" height="1.025" fill="rgba(229,208,115,1.00)" />
<rect x="10.25" y="21.525" width="1.025" height="1.025" fill="rgba(226,202,113,1.00)" />
<rect x="11.274999999999999" y="21.525" width="1.025" height="1.025" fill="rgba(249,224,127,1.00)" />
<rect x="12.299999999999999" y="21.525" width="1.025" height="1.025" fill="rgba(189,168,92,1.00)" />
<rect x="24.599999999999998" y="21.525" width="1.025" height="1.025" fill="rgba(229,208,115,1.00)" />
<rect x="10.25" y="22.549999999999997" width="1.025" height="1.025" fill="rgba(223,199,112,1.00)" />
<rect x="11.274999999999999" y="22.549999999999997" width="1.025" height="1.025" fill="rgba(245,221,125,1.00)" />
<rect x="12.299999999999999" y="22.549999999999997" width="1.025" height="1.025" fill="rgba(219,195,110,1.00)" />
<rect x="24.599999999999998" y="22.549999999999997" width="1.025" height="1.025" fill="rgba(224,202,112,1.00)" />
<rect x="10.25" y="23.575" width="1.025" height="1.025" fill="rgba(223,200,112,1.00)" />
<rect x="11.274999999999999" y="23.575" width="1.025" height="1.025" fill="rgba(245,221,125,1.00)" />
<rect x="12.299999999999999" y="23.575" width="1.025" height="1.025" fill="rgba(217,193,108,1.00)" />
<rect x="24.599999999999998" y="23.575" width="1.025" height="1.025" fill="rgba(217,193,108,1.00)" />
<rect x="10.25" y="24.599999999999998" width="1.025" height="1.025" fill="rgba(226,202,113,1.00)" />
<rect x="11.274999999999999" y="24.599999999999998" width="1.025" height="1.025" fill="rgba(245,221,125,1.00)" />
<rect x="12.299999999999999" y="24.599999999999998" width="1.025" height="1.025" fill="rgba(217,193,108,1.00)" />
<rect x="19.474999999999998" y="24.599999999999998" width="1.025" height="1.025" fill="rgba(64,58,8,1.00)" />
<rect x="20.5" y="24.599999999999998" width="1.025" height="1.025" fill="rgba(64,58,8,1.00)" />
<rect x="21.525" y="24.599999999999998" width="1.025" height="1.025" fill="rgba(62,55,5,1.00)" />
<rect x="22.549999999999997" y="24.599999999999998" width="1.025" height="1.025" fill="rgba(62,53,5,1.00)" />
<rect x="23.575" y="24.599999999999998" width="1.025" height="1.025" fill="rgba(252,238,129,1.00)" />
<rect x="24.599999999999998" y="24.599999999999998" width="1.025" height="1.025" fill="rgba(217,193,108,1.00)" />
<rect x="10.25" y="25.624999999999996" width="1.025" height="1.025" fill="rgba(226,202,113,1.00)" />
<rect x="11.274999999999999" y="25.624999999999996" width="1.025" height="1.025" fill="rgba(248,224,127,1.00)" />
<rect x="12.299999999999999" y="25.624999999999996" width="1.025" height="1.025" fill="rgba(217,195,108,1.00)" />
<rect x="19.474999999999998" y="25.624999999999996" width="1.025" height="1.025" fill="rgba(170,151,81,1.00)" />
<rect x="20.5" y="25.624999999999996" width="1.025" height="1.025" fill="rgba(174,156,82,1.00)" />
<rect x="21.525" y="25.624999999999996" width="1.025" height="1.025" fill="rgba(206,187,101,1.00)" />
<rect x="22.549999999999997" y="25.624999999999996" width="1.025" height="1.025" fill="rgba(219,195,110,1.00)" />
<rect x="23.575" y="25.624999999999996" width="1.025" height="1.025" fill="rgba(219,195,110,1.00)" />
<rect x="24.599999999999998" y="25.624999999999996" width="1.025" height="1.025" fill="rgba(217,193,108,1.00)" />
<rect x="10.25" y="26.65" width="1.025" height="1.025" fill="rgba(223,200,112,1.00)" />
<rect x="11.274999999999999" y="26.65" width="1.025" height="1.025" fill="rgba(248,224,127,1.00)" />
<rect x="12.299999999999999" y="26.65" width="1.025" height="1.025" fill="rgba(217,195,108,1.00)" />
<rect x="19.474999999999998" y="26.65" width="1.025" height="1.025" fill="rgba(189,168,92,1.00)" />
<rect x="20.5" y="26.65" width="1.025" height="1.025" fill="rgba(235,213,118,1.00)" />
<rect x="21.525" y="26.65" width="1.025" height="1.025" fill="rgba(241,219,122,1.00)" />
<rect x="22.549999999999997" y="26.65" width="1.025" height="1.025" fill="rgba(229,205,115,1.00)" />
<rect x="24.599999999999998" y="26.65" width="1.025" height="1.025" fill="rgba(245,228,125,1.00)" />
<rect x="10.25" y="27.674999999999997" width="1.025" height="1.025" fill="rgba(223,200,112,1.00)" />
<rect x="11.274999999999999" y="27.674999999999997" width="1.025" height="1.025" fill="rgba(245,220,123,1.00)" />
<rect x="12.299999999999999" y="27.674999999999997" width="1.025" height="1.025" fill="rgba(215,192,106,1.00)" />
<rect x="19.474999999999998" y="27.674999999999997" width="1.025" height="1.025" fill="rgba(217,193,108,1.00)" />
<rect x="20.5" y="27.674999999999997" width="1.025" height="1.025" fill="rgba(223,201,112,1.00)" />
<rect x="21.525" y="27.674999999999997" width="1.025" height="1.025" fill="rgba(240,217,122,1.00)" />
<rect x="22.549999999999997" y="27.674999999999997" width="1.025" height="1.025" fill="rgba(233,208,117,1.00)" />
<rect x="10.25" y="28.699999999999996" width="1.025" height="1.025" fill="rgba(226,202,113,1.00)" />
<rect x="12.299999999999999" y="28.699999999999996" width="1.025" height="1.025" fill="rgba(217,193,108,1.00)" />
<rect x="21.525" y="28.699999999999996" width="1.025" height="1.025" fill="rgba(220,199,110,1.00)" />
<rect x="22.549999999999997" y="28.699999999999996" width="1.025" height="1.025" fill="rgba(217,193,108,1.00)" />
</svg>