<svg xmlns="http://www.w3.org/2000/svg" width="37.925" height="37.925" style="image-rendering: pixelated;" shape-rendering="crispEdges">
<rect x="17.425" y="2.050" width="1.025" height="1.025" fill="rgba(105,255,255,0.400)" />
<rect x="20.500" y="2.050" width="1.025" height="1.025" fill="rgba(105,255,255,0.400)" />
<rect x="15.375" y="3.075" width="1.025" height="1.025" fill="rgba(105,255,255,0.400)" />
<rect x="16.400" y="3.075" width="1.025" height="1.025" fill="rgba(105,255,255,0.400)" />
<rect x="17.425" y="3.075" width="1.025" height="1.025" fill="rgba(105,255,255,0.400)" />
<rect x="19.475" y="3.075" width="1.025" height="1.025" fill="rgba(105,255,255,0.400)" />
<rect x="20.500" y="3.075" width="1.025" height="1.025" fill="rgba(105,255,255,0.639)" />
<rect x="21.525" y="3.075" width="1.025" height="1.025" fill="rgba(105,255,255,0.400)" />
<rect x="25.625" y="3.075" width="1.025" height="1.025" fill="rgba(105,255,255,0.400)" />
<rect x="13.325" y="4.100" width="1.025" height="1.025" fill="rgba(105,255,255,0.400)" />
<rect x="15.375" y="4.100" width="1.025" height="1.025" fill="rgba(255,255,0,1.000)" />
<rect x="16.400" y="4.100" width="1.025" height="1.025" fill="rgba(255,220,0,1.000)" />
<rect x="17.425" y="4.100" width="1.025" height="1.025" fill="rgba(255,255,0,1.000)" />
<rect x="18.450" y="4.100" width="1.025" height="1.025" fill="rgba(255,255,0,1.000)" />
<rect x="20.500" y="4.100" width="1.025" height="1.025" fill="rgba(255,255,0,1.000)" />
<rect x="21.525" y="4.100" width="1.025" height="1.025" fill="rgba(255,255,0,1.000)" />
<rect x="22.550" y="4.100" width="1.025" height="1.025" fill="rgba(255,255,0,1.000)" />
<rect x="23.575" y="4.100" width="1.025" height="1.025" fill="rgba(105,255,255,0.400)" />
<rect x="24.600" y="4.100" width="1.025" height="1.025" fill="rgba(105,255,255,0.784)" />
<rect x="9.225" y="5.125" width="1.025" height="1.025" fill="rgba(105,255,255,0.400)" />
<rect x="12.300" y="5.125" width="1.025" height="1.025" fill="rgba(105,255,255,0.400)" />
<rect x="13.325" y="5.125" width="1.025" height="1.025" fill="rgba(255,255,0,1.000)" />
<rect x="14.350" y="5.125" width="1.025" height="1.025" fill="rgba(255,255,0,1.000)" />
<rect x="15.375" y="5.125" width="1.025" height="1.025" fill="rgba(255,255,0,1.000)" />
<rect x="16.400" y="5.125" width="1.025" height="1.025" fill="rgba(255,255,0,1.000)" />
<rect x="17.425" y="5.125" width="1.025" height="1.025" fill="rgba(255,255,0,1.000)" />
<rect x="18.450" y="5.125" width="1.025" height="1.025" fill="rgba(255,255,0,1.000)" />
<rect x="19.475" y="5.125" width="1.025" height="1.025" fill="rgba(255,230,0,1.000)" />
<rect x="20.500" y="5.125" width="1.025" height="1.025" fill="rgba(255,255,0,1.000)" />
<rect x="21.525" y="5.125" width="1.025" height="1.025" fill="rgba(255,255,0,1.000)" />
<rect x="22.550" y="5.125" width="1.025" height="1.025" fill="rgba(255,255,0,1.000)" />
<rect x="23.575" y="5.125" width="1.025" height="1.025" fill="rgba(255,255,0,1.000)" />
<rect x="24.600" y="5.125" width="1.025" height="1.025" fill="rgba(255,255,0,1.000)" />
<rect x="25.625" y="5.125" width="1.025" height="1.025" fill="rgba(105,255,255,0.388)" />
<rect x="11.275" y="6.150" width="1.025" height="1.025" fill="rgba(105,255,255,0.639)" />
<rect x="12.300" y="6.150" width="1.025" height="1.025" fill="rgba(255,255,0,1.000)" />
<rect x="13.325" y="6.150" width="1.025" height="1.025" fill="rgba(255,255,0,1.000)" />
<rect x="14.350" y="6.150" width="1.025" height="1.025" fill="rgba(255,255,0,1.000)" />
<rect x="15.375" y="6.150" width="1.025" height="1.025" fill="rgba(255,255,0,1.000)" />
<rect x="16.400" y="6.150" width="1.025" height="1.025" fill="rgba(255,226,0,1.000)" />
<rect x="17.425" y="6.150" width="1.025" height="1.025" fill="rgba(255,255,0,1.000)" />
<rect x="18.450" y="6.150" width="1.025" height="1.025" fill="rgba(255,255,0,1.000)" />
<rect x="19.475" y="6.150" width="1.025" height="1.025" fill="rgba(255,255,0,1.000)" />
<rect x="20.500" y="6.150" width="1.025" height="1.025" fill="rgba(255,255,0,1.000)" />
<rect x="21.525" y="6.150" width="1.025" height="1.025" fill="rgba(255,214,0,1.000)" />
<rect x="22.550" y="6.150" width="1.025" height="1.025" fill="rgba(255,255,0,1.000)" />
<rect x="23.575" y="6.150" width="1.025" height="1.025" fill="rgba(255,255,0,1.000)" />
<rect x="24.600" y="6.150" width="1.025" height="1.025" fill="rgba(255,255,0,1.000)" />
<rect x="25.625" y="6.150" width="1.025" height="1.025" fill="rgba(255,255,0,1.000)" />
<rect x="26.650" y="6.150" width="1.025" height="1.025" fill="rgba(105,255,255,0.200)" />
<rect x="28.700" y="6.150" width="1.025" height="1.025" fill="rgba(105,255,255,0.141)" />
<rect x="10.250" y="7.175" width="1.025" height="1.025" fill="rgba(105,255,255,0.400)" />
<rect x="11.275" y="7.175" width="1.025" height="1.025" fill="rgba(255,255,0,1.000)" />
<rect x="12.300" y="7.175" width="1.025" height="1.025" fill="rgba(255,255,0,1.000)" />
<rect x="13.325" y="7.175" width="1.025" height="1.025" fill="rgba(255,255,0,1.000)" />
<rect x="14.350" y="7.175" width="1.025" height="1.025" fill="rgba(255,255,0,1.000)" />
<rect x="15.375" y="7.175" width="1.025" height="1.025" fill="rgba(255,255,0,1.000)" />
<rect x="16.400" y="7.175" width="1.025" height="1.025" fill="rgba(255,255,0,1.000)" />
<rect x="17.425" y="7.175" width="1.025" height="1.025" fill="rgba(255,242,0,1.000)" />
<rect x="18.450" y="7.175" width="1.025" height="1.025" fill="rgba(255,255,0,1.000)" />
<rect x="19.475" y="7.175" width="1.025" height="1.025" fill="rgba(255,255,0,1.000)" />
<rect x="20.500" y="7.175" width="1.025" height="1.025" fill="rgba(255,255,0,1.000)" />
<rect x="21.525" y="7.175" width="1.025" height="1.025" fill="rgba(255,238,0,1.000)" />
<rect x="22.550" y="7.175" width="1.025" height="1.025" fill="rgba(255,255,0,1.000)" />
<rect x="23.575" y="7.175" width="1.025" height="1.025" fill="rgba(255,255,0,1.000)" />
<rect x="24.600" y="7.175" width="1.025" height="1.025" fill="rgba(255,255,0,1.000)" />
<rect x="25.625" y="7.175" width="1.025" height="1.025" fill="rgba(255,255,0,1.000)" />
<rect x="26.650" y="7.175" width="1.025" height="1.025" fill="rgba(255,255,0,1.000)" />
<rect x="27.675" y="7.175" width="1.025" height="1.025" fill="rgba(105,255,255,0.125)" />
<rect x="9.225" y="8.200" width="1.025" height="1.025" fill="rgba(105,255,255,0.400)" />
<rect x="10.250" y="8.200" width="1.025" height="1.025" fill="rgba(255,224,0,1.000)" />
<rect x="11.275" y="8.200" width="1.025" height="1.025" fill="rgba(255,255,0,1.000)" />
<rect x="12.300" y="8.200" width="1.025" height="1.025" fill="rgba(255,255,0,1.000)" />
<rect x="13.325" y="8.200" width="1.025" height="1.025" fill="rgba(255,238,0,1.000)" />
<rect x="14.350" y="8.200" width="1.025" height="1.025" fill="rgba(255,255,0,1.000)" />
<rect x="15.375" y="8.200" width="1.025" height="1.025" fill="rgba(255,255,0,1.000)" />
<rect x="16.400" y="8.200" width="1.025" height="1.025" fill="rgba(255,255,0,1.000)" />
<rect x="17.425" y="8.200" width="1.025" height="1.025" fill="rgba(255,255,0,1.000)" />
<rect x="18.450" y="8.200" width="1.025" height="1.025" fill="rgba(255,242,0,1.000)" />
<rect x="19.475" y="8.200" width="1.025" height="1.025" fill="rgba(255,255,0,1.000)" />
<rect x="20.500" y="8.200" width="1.025" height="1.025" fill="rgba(255,255,0,1.000)" />
<rect x="21.525" y="8.200" width="1.025" height="1.025" fill="rgba(255,255,0,1.000)" />
<rect x="22.550" y="8.200" width="1.025" height="1.025" fill="rgba(255,255,0,1.000)" />
<rect x="23.575" y="8.200" width="1.025" height="1.025" fill="rgba(255,255,0,1.000)" />
<rect x="24.600" y="8.200" width="1.025" height="1.025" fill="rgba(255,255,0,1.000)" />
<rect x="25.625" y="8.200" width="1.025" height="1.025" fill="rgba(255,255,0,1.000)" />
<rect x="26.650" y="8.200" width="1.025" height="1.025" fill="rgba(255,255,0,1.000)" />
<rect x="27.675" y="8.200" width="1.025" height="1.025" fill="rgba(255,255,0,1.000)" />
<rect x="28.700" y="8.200" width="1.025" height="1.025" fill="rgba(105,255,255,0.122)" />
<rect x="10.250" y="9.225" width="1.025" height="1.025" fill="rgba(255,222,0,1.000)" />
<rect x="11.275" y="9.225" width="1.025" height="1.025" fill="rgba(255,255,0,1.000)" />
<rect x="12.300" y="9.225" width="1.025" height="1.025" fill="rgba(255,224,0,1.000)" />
<rect x="13.325" y="9.225" width="1.025" height="1.025" fill="rgba(255,255,0,1.000)" />
<rect x="14.350" y="9.225" width="1.025" height="1.025" fill="rgba(255,255,0,1.000)" />
<rect x="15.375" y="9.225" width="1.025" height="1.025" fill="rgba(255,255,0,1.000)" />
<rect x="16.400" y="9.225" width="1.025" height="1.025" fill="rgba(255,246,0,1.000)" />
<rect x="17.425" y="9.225" width="1.025" height="1.025" fill="rgba(255,234,0,1.000)" />
<rect x="18.450" y="9.225" width="1.025" height="1.025" fill="rgba(255,255,0,1.000)" />
<rect x="19.475" y="9.225" width="1.025" height="1.025" fill="rgba(255,255,0,1.000)" />
<rect x="20.500" y="9.225" width="1.025" height="1.025" fill="rgba(255,255,0,1.000)" />
<rect x="21.525" y="9.225" width="1.025" height="1.025" fill="rgba(255,255,0,1.000)" />
<rect x="22.550" y="9.225" width="1.025" height="1.025" fill="rgba(255,255,0,1.000)" />
<rect x="23.575" y="9.225" width="1.025" height="1.025" fill="rgba(255,255,0,1.000)" />
<rect x="24.600" y="9.225" width="1.025" height="1.025" fill="rgba(255,255,0,1.000)" />
<rect x="25.625" y="9.225" width="1.025" height="1.025" fill="rgba(255,255,0,1.000)" />
<rect x="26.650" y="9.225" width="1.025" height="1.025" fill="rgba(255,255,0,1.000)" />
<rect x="27.675" y="9.225" width="1.025" height="1.025" fill="rgba(255,255,0,1.000)" />
<rect x="28.700" y="9.225" width="1.025" height="1.025" fill="rgba(105,255,255,0.122)" />
<rect x="29.725" y="9.225" width="1.025" height="1.025" fill="rgba(105,255,255,0.122)" />
<rect x="9.225" y="10.250" width="1.025" height="1.025" fill="rgba(105,255,255,0.639)" />
<rect x="10.250" y="10.250" width="1.025" height="1.025" fill="rgba(255,206,0,1.000)" />
<rect x="11.275" y="10.250" width="1.025" height="1.025" fill="rgba(255,255,0,1.000)" />
<rect x="12.300" y="10.250" width="1.025" height="1.025" fill="rgba(255,220,0,1.000)" />
<rect x="13.325" y="10.250" width="1.025" height="1.025" fill="rgba(255,255,0,1.000)" />
<rect x="14.350" y="10.250" width="1.025" height="1.025" fill="rgba(255,255,0,1.000)" />
<rect x="15.375" y="10.250" width="1.025" height="1.025" fill="rgba(255,196,0,1.000)" />
<rect x="16.400" y="10.250" width="1.025" height="1.025" fill="rgba(255,255,0,1.000)" />
<rect x="23.575" y="10.250" width="1.025" height="1.025" fill="rgba(255,244,0,1.000)" />
<rect x="24.600" y="10.250" width="1.025" height="1.025" fill="rgba(255,232,0,1.000)" />
<rect x="25.625" y="10.250" width="1.025" height="1.025" fill="rgba(255,255,0,1.000)" />
<rect x="26.650" y="10.250" width="1.025" height="1.025" fill="rgba(255,242,0,1.000)" />
<rect x="27.675" y="10.250" width="1.025" height="1.025" fill="rgba(255,255,0,1.000)" />
<rect x="28.700" y="10.250" width="1.025" height="1.025" fill="rgba(255,255,0,1.000)" />
<rect x="29.725" y="10.250" width="1.025" height="1.025" fill="rgba(105,255,255,0.122)" />
<rect x="9.225" y="11.275" width="1.025" height="1.025" fill="rgba(255,208,0,1.000)" />
<rect x="10.250" y="11.275" width="1.025" height="1.025" fill="rgba(255,255,0,1.000)" />
<rect x="11.275" y="11.275" width="1.025" height="1.025" fill="rgba(255,255,0,1.000)" />
<rect x="12.300" y="11.275" width="1.025" height="1.025" fill="rgba(255,230,0,1.000)" />
<rect x="13.325" y="11.275" width="1.025" height="1.025" fill="rgba(255,255,0,1.000)" />
<rect x="14.350" y="11.275" width="1.025" height="1.025" fill="rgba(255,255,0,1.000)" />
<rect x="15.375" y="11.275" width="1.025" height="1.025" fill="rgba(234,170,0,1.000)" />
<rect x="24.600" y="11.275" width="1.025" height="1.025" fill="rgba(255,212,0,1.000)" />
<rect x="25.625" y="11.275" width="1.025" height="1.025" fill="rgba(255,255,0,1.000)" />
<rect x="26.650" y="11.275" width="1.025" height="1.025" fill="rgba(255,255,0,1.000)" />
<rect x="27.675" y="11.275" width="1.025" height="1.025" fill="rgba(255,255,0,1.000)" />
<rect x="28.700" y="11.275" width="1.025" height="1.025" fill="rgba(255,255,0,1.000)" />
<rect x="29.725" y="11.275" width="1.025" height="1.025" fill="rgba(105,255,255,0.122)" />
<rect x="8.200" y="12.300" width="1.025" height="1.025" fill="rgba(105,255,255,0.639)" />
<rect x="9.225" y="12.300" width="1.025" height="1.025" fill="rgba(255,206,0,1.000)" />
<rect x="10.250" y="12.300" width="1.025" height="1.025" fill="rgba(255,255,0,1.000)" />
<rect x="11.275" y="12.300" width="1.025" height="1.025" fill="rgba(255,220,0,1.000)" />
<rect x="12.300" y="12.300" width="1.025" height="1.025" fill="rgba(255,255,0,1.000)" />
<rect x="13.325" y="12.300" width="1.025" height="1.025" fill="rgba(255,255,0,1.000)" />
<rect x="14.350" y="12.300" width="1.025" height="1.025" fill="rgba(255,255,0,1.000)" />
<rect x="24.600" y="12.300" width="1.025" height="1.025" fill="rgba(254,184,0,1.000)" />
<rect x="25.625" y="12.300" width="1.025" height="1.025" fill="rgba(255,255,0,1.000)" />
<rect x="26.650" y="12.300" width="1.025" height="1.025" fill="rgba(255,255,0,1.000)" />
<rect x="27.675" y="12.300" width="1.025" height="1.025" fill="rgba(255,255,0,1.000)" />
<rect x="28.700" y="12.300" width="1.025" height="1.025" fill="rgba(255,255,0,1.000)" />
<rect x="9.225" y="13.325" width="1.025" height="1.025" fill="rgba(255,194,0,1.000)" />
<rect x="10.250" y="13.325" width="1.025" height="1.025" fill="rgba(255,255,0,1.000)" />
<rect x="11.275" y="13.325" width="1.025" height="1.025" fill="rgba(255,208,0,1.000)" />
<rect x="12.300" y="13.325" width="1.025" height="1.025" fill="rgba(255,255,0,1.000)" />
<rect x="13.325" y="13.325" width="1.025" height="1.025" fill="rgba(255,255,0,1.000)" />
<rect x="14.350" y="13.325" width="1.025" height="1.025" fill="rgba(255,208,0,1.000)" />
<rect x="24.600" y="13.325" width="1.025" height="1.025" fill="rgba(228,164,0,1.000)" />
<rect x="25.625" y="13.325" width="1.025" height="1.025" fill="rgba(255,255,0,1.000)" />
<rect x="26.650" y="13.325" width="1.025" height="1.025" fill="rgba(255,255,0,1.000)" />
<rect x="27.675" y="13.325" width="1.025" height="1.025" fill="rgba(255,255,0,1.000)" />
<rect x="28.700" y="13.325" width="1.025" height="1.025" fill="rgba(255,255,0,1.000)" />
<rect x="29.725" y="13.325" width="1.025" height="1.025" fill="rgba(105,255,255,0.188)" />
<rect x="8.200" y="14.350" width="1.025" height="1.025" fill="rgba(105,255,255,0.639)" />
<rect x="9.225" y="14.350" width="1.025" height="1.025" fill="rgba(255,194,0,1.000)" />
<rect x="10.250" y="14.350" width="1.025" height="1.025" fill="rgba(255,255,0,1.000)" />
<rect x="11.275" y="14.350" width="1.025" height="1.025" fill="rgba(255,198,0,1.000)" />
<rect x="12.300" y="14.350" width="1.025" height="1.025" fill="rgba(255,255,0,1.000)" />
<rect x="13.325" y="14.350" width="1.025" height="1.025" fill="rgba(255,255,0,1.000)" />
<rect x="14.350" y="14.350" width="1.025" height="1.025" fill="rgba(255,222,0,1.000)" />
<rect x="24.600" y="14.350" width="1.025" height="1.025" fill="rgba(255,182,0,1.000)" />
<rect x="25.625" y="14.350" width="1.025" height="1.025" fill="rgba(255,255,0,1.000)" />
<rect x="26.650" y="14.350" width="1.025" height="1.025" fill="rgba(255,255,0,1.000)" />
<rect x="27.675" y="14.350" width="1.025" height="1.025" fill="rgba(255,255,0,1.000)" />
<rect x="28.700" y="14.350" width="1.025" height="1.025" fill="rgba(255,255,0,1.000)" />
<rect x="29.725" y="14.350" width="1.025" height="1.025" fill="rgba(105,255,255,0.455)" />
<rect x="30.750" y="14.350" width="1.025" height="1.025" fill="rgba(105,255,255,0.294)" />
<rect x="6.150" y="15.375" width="1.025" height="1.025" fill="rgba(105,255,255,0.400)" />
<rect x="7.175" y="15.375" width="1.025" height="1.025" fill="rgba(105,255,255,0.639)" />
<rect x="8.200" y="15.375" width="1.025" height="1.025" fill="rgba(228,160,0,1.000)" />
<rect x="9.225" y="15.375" width="1.025" height="1.025" fill="rgba(255,255,0,1.000)" />
<rect x="10.250" y="15.375" width="1.025" height="1.025" fill="rgba(255,255,0,1.000)" />
<rect x="11.275" y="15.375" width="1.025" height="1.025" fill="rgba(255,200,0,1.000)" />
<rect x="12.300" y="15.375" width="1.025" height="1.025" fill="rgba(255,255,0,1.000)" />
<rect x="13.325" y="15.375" width="1.025" height="1.025" fill="rgba(255,255,0,1.000)" />
<rect x="14.350" y="15.375" width="1.025" height="1.025" fill="rgba(255,190,0,1.000)" />
<rect x="24.600" y="15.375" width="1.025" height="1.025" fill="rgba(252,180,0,1.000)" />
<rect x="25.625" y="15.375" width="1.025" height="1.025" fill="rgba(255,254,0,1.000)" />
<rect x="26.650" y="15.375" width="1.025" height="1.025" fill="rgba(255,255,0,1.000)" />
<rect x="27.675" y="15.375" width="1.025" height="1.025" fill="rgba(255,255,0,1.000)" />
<rect x="28.700" y="15.375" width="1.025" height="1.025" fill="rgba(255,255,0,1.000)" />
<rect x="29.725" y="15.375" width="1.025" height="1.025" fill="rgba(105,255,255,0.341)" />
<rect x="7.175" y="16.400" width="1.025" height="1.025" fill="rgba(105,255,255,0.400)" />
<rect x="8.200" y="16.400" width="1.025" height="1.025" fill="rgba(214,154,0,1.000)" />
<rect x="9.225" y="16.400" width="1.025" height="1.025" fill="rgba(255,255,0,1.000)" />
<rect x="10.250" y="16.400" width="1.025" height="1.025" fill="rgba(255,224,0,1.000)" />
<rect x="11.275" y="16.400" width="1.025" height="1.025" fill="rgba(255,238,0,1.000)" />
<rect x="12.300" y="16.400" width="1.025" height="1.025" fill="rgba(255,255,0,1.000)" />
<rect x="13.325" y="16.400" width="1.025" height="1.025" fill="rgba(255,250,0,1.000)" />
<rect x="14.350" y="16.400" width="1.025" height="1.025" fill="rgba(255,190,0,1.000)" />
<rect x="24.600" y="16.400" width="1.025" height="1.025" fill="rgba(228,158,0,1.000)" />
<rect x="25.625" y="16.400" width="1.025" height="1.025" fill="rgba(255,255,0,1.000)" />
<rect x="26.650" y="16.400" width="1.025" height="1.025" fill="rgba(255,255,0,1.000)" />
<rect x="27.675" y="16.400" width="1.025" height="1.025" fill="rgba(255,255,0,1.000)" />
<rect x="28.700" y="16.400" width="1.025" height="1.025" fill="rgba(255,255,0,1.000)" />
<rect x="29.725" y="16.400" width="1.025" height="1.025" fill="rgba(105,255,255,0.357)" />
<rect x="8.200" y="17.425" width="1.025" height="1.025" fill="rgba(208,142,0,1.000)" />
<rect x="9.225" y="17.425" width="1.025" height="1.025" fill="rgba(255,255,0,1.000)" />
<rect x="10.250" y="17.425" width="1.025" height="1.025" fill="rgba(254,188,0,1.000)" />
<rect x="11.275" y="17.425" width="1.025" height="1.025" fill="rgba(255,255,0,1.000)" />
<rect x="12.300" y="17.425" width="1.025" height="1.025" fill="rgba(255,255,0,1.000)" />
<rect x="13.325" y="17.425" width="1.025" height="1.025" fill="rgba(255,250,0,1.000)" />
<rect x="14.350" y="17.425" width="1.025" height="1.025" fill="rgba(255,188,0,1.000)" />
<rect x="24.600" y="17.425" width="1.025" height="1.025" fill="rgba(210,148,0,1.000)" />
<rect x="25.625" y="17.425" width="1.025" height="1.025" fill="rgba(255,252,0,1.000)" />
<rect x="26.650" y="17.425" width="1.025" height="1.025" fill="rgba(255,255,0,1.000)" />
<rect x="27.675" y="17.425" width="1.025" height="1.025" fill="rgba(255,240,0,1.000)" />
<rect x="28.700" y="17.425" width="1.025" height="1.025" fill="rgba(255,255,0,1.000)" />
<rect x="7.175" y="18.450" width="1.025" height="1.025" fill="rgba(105,255,255,0.400)" />
<rect x="8.200" y="18.450" width="1.025" height="1.025" fill="rgba(222,154,0,1.000)" />
<rect x="9.225" y="18.450" width="1.025" height="1.025" fill="rgba(255,255,0,1.000)" />
<rect x="10.250" y="18.450" width="1.025" height="1.025" fill="rgba(254,188,0,1.000)" />
<rect x="11.275" y="18.450" width="1.025" height="1.025" fill="rgba(255,255,0,1.000)" />
<rect x="12.300" y="18.450" width="1.025" height="1.025" fill="rgba(255,255,0,1.000)" />
<rect x="13.325" y="18.450" width="1.025" height="1.025" fill="rgba(255,250,0,1.000)" />
<rect x="14.350" y="18.450" width="1.025" height="1.025" fill="rgba(162,110,0,1.000)" />
<rect x="24.600" y="18.450" width="1.025" height="1.025" fill="rgba(222,156,0,1.000)" />
<rect x="25.625" y="18.450" width="1.025" height="1.025" fill="rgba(255,255,0,1.000)" />
<rect x="26.650" y="18.450" width="1.025" height="1.025" fill="rgba(255,255,0,1.000)" />
<rect x="27.675" y="18.450" width="1.025" height="1.025" fill="rgba(255,222,0,1.000)" />
<rect x="28.700" y="18.450" width="1.025" height="1.025" fill="rgba(255,255,0,1.000)" />
<rect x="29.725" y="18.450" width="1.025" height="1.025" fill="rgba(105,255,255,0.090)" />
<rect x="7.175" y="19.475" width="1.025" height="1.025" fill="rgba(105,255,255,0.400)" />
<rect x="8.200" y="19.475" width="1.025" height="1.025" fill="rgba(210,148,0,1.000)" />
<rect x="9.225" y="19.475" width="1.025" height="1.025" fill="rgba(255,255,0,1.000)" />
<rect x="10.250" y="19.475" width="1.025" height="1.025" fill="rgba(255,182,0,1.000)" />
<rect x="11.275" y="19.475" width="1.025" height="1.025" fill="rgba(255,255,0,1.000)" />
<rect x="12.300" y="19.475" width="1.025" height="1.025" fill="rgba(255,255,0,1.000)" />
<rect x="13.325" y="19.475" width="1.025" height="1.025" fill="rgba(255,250,0,1.000)" />
<rect x="14.350" y="19.475" width="1.025" height="1.025" fill="rgba(162,110,0,1.000)" />
<rect x="24.600" y="19.475" width="1.025" height="1.025" fill="rgba(192,130,0,1.000)" />
<rect x="25.625" y="19.475" width="1.025" height="1.025" fill="rgba(255,255,0,1.000)" />
<rect x="26.650" y="19.475" width="1.025" height="1.025" fill="rgba(255,255,0,1.000)" />
<rect x="27.675" y="19.475" width="1.025" height="1.025" fill="rgba(255,230,0,1.000)" />
<rect x="28.700" y="19.475" width="1.025" height="1.025" fill="rgba(255,255,0,1.000)" />
<rect x="8.200" y="20.500" width="1.025" height="1.025" fill="rgba(222,154,0,1.000)" />
<rect x="9.225" y="20.500" width="1.025" height="1.025" fill="rgba(255,255,0,1.000)" />
<rect x="10.250" y="20.500" width="1.025" height="1.025" fill="rgba(226,154,0,1.000)" />
<rect x="11.275" y="20.500" width="1.025" height="1.025" fill="rgba(255,255,0,1.000)" />
<rect x="12.300" y="20.500" width="1.025" height="1.025" fill="rgba(255,222,0,1.000)" />
<rect x="13.325" y="20.500" width="1.025" height="1.025" fill="rgba(255,188,0,1.000)" />
<rect x="14.350" y="20.500" width="1.025" height="1.025" fill="rgba(72,44,0,1.000)" />
<rect x="24.600" y="20.500" width="1.025" height="1.025" fill="rgba(156,114,0,1.000)" />
<rect x="25.625" y="20.500" width="1.025" height="1.025" fill="rgba(255,254,0,1.000)" />
<rect x="26.650" y="20.500" width="1.025" height="1.025" fill="rgba(255,255,0,1.000)" />
<rect x="27.675" y="20.500" width="1.025" height="1.025" fill="rgba(255,212,0,1.000)" />
<rect x="28.700" y="20.500" width="1.025" height="1.025" fill="rgba(255,255,0,1.000)" />
<rect x="29.725" y="20.500" width="1.025" height="1.025" fill="rgba(105,255,255,0.090)" />
<rect x="7.175" y="21.525" width="1.025" height="1.025" fill="rgba(105,255,255,0.400)" />
<rect x="8.200" y="21.525" width="1.025" height="1.025" fill="rgba(234,168,0,1.000)" />
<rect x="9.225" y="21.525" width="1.025" height="1.025" fill="rgba(255,255,0,1.000)" />
<rect x="10.250" y="21.525" width="1.025" height="1.025" fill="rgba(228,158,0,1.000)" />
<rect x="11.275" y="21.525" width="1.025" height="1.025" fill="rgba(255,255,0,1.000)" />
<rect x="12.300" y="21.525" width="1.025" height="1.025" fill="rgba(255,212,0,1.000)" />
<rect x="13.325" y="21.525" width="1.025" height="1.025" fill="rgba(255,255,0,1.000)" />
<rect x="14.350" y="21.525" width="1.025" height="1.025" fill="rgba(162,110,0,1.000)" />
<rect x="24.600" y="21.525" width="1.025" height="1.025" fill="rgba(194,146,0,1.000)" />
<rect x="25.625" y="21.525" width="1.025" height="1.025" fill="rgba(255,255,0,1.000)" />
<rect x="26.650" y="21.525" width="1.025" height="1.025" fill="rgba(255,255,0,1.000)" />
<rect x="27.675" y="21.525" width="1.025" height="1.025" fill="rgba(255,242,0,1.000)" />
<rect x="28.700" y="21.525" width="1.025" height="1.025" fill="rgba(255,255,0,1.000)" />
<rect x="29.725" y="21.525" width="1.025" height="1.025" fill="rgba(105,255,255,0.090)" />
<rect x="30.750" y="21.525" width="1.025" height="1.025" fill="rgba(105,255,255,0.231)" />
<rect x="7.175" y="22.550" width="1.025" height="1.025" fill="rgba(150,76,0,1.000)" />
<rect x="8.200" y="22.550" width="1.025" height="1.025" fill="rgba(255,255,0,1.000)" />
<rect x="9.225" y="22.550" width="1.025" height="1.025" fill="rgba(255,255,0,1.000)" />
<rect x="10.250" y="22.550" width="1.025" height="1.025" fill="rgba(218,156,0,1.000)" />
<rect x="11.275" y="22.550" width="1.025" height="1.025" fill="rgba(255,255,0,1.000)" />
<rect x="12.300" y="22.550" width="1.025" height="1.025" fill="rgba(255,186,0,1.000)" />
<rect x="13.325" y="22.550" width="1.025" height="1.025" fill="rgba(255,255,0,1.000)" />
<rect x="14.350" y="22.550" width="1.025" height="1.025" fill="rgba(206,146,0,1.000)" />
<rect x="24.600" y="22.550" width="1.025" height="1.025" fill="rgba(234,172,0,1.000)" />
<rect x="25.625" y="22.550" width="1.025" height="1.025" fill="rgba(255,255,0,1.000)" />
<rect x="26.650" y="22.550" width="1.025" height="1.025" fill="rgba(255,255,0,1.000)" />
<rect x="27.675" y="22.550" width="1.025" height="1.025" fill="rgba(255,255,0,1.000)" />
<rect x="28.700" y="22.550" width="1.025" height="1.025" fill="rgba(255,255,0,1.000)" />
<rect x="29.725" y="22.550" width="1.025" height="1.025" fill="rgba(105,255,255,0.165)" />
<rect x="30.750" y="22.550" width="1.025" height="1.025" fill="rgba(105,255,255,0.086)" />
<rect x="6.150" y="23.575" width="1.025" height="1.025" fill="rgba(105,255,255,0.400)" />
<rect x="7.175" y="23.575" width="1.025" height="1.025" fill="rgba(206,144,0,1.000)" />
<rect x="8.200" y="23.575" width="1.025" height="1.025" fill="rgba(255,255,0,1.000)" />
<rect x="9.225" y="23.575" width="1.025" height="1.025" fill="rgba(255,204,0,1.000)" />
<rect x="10.250" y="23.575" width="1.025" height="1.025" fill="rgba(248,184,0,1.000)" />
<rect x="11.275" y="23.575" width="1.025" height="1.025" fill="rgba(255,255,0,1.000)" />
<rect x="12.300" y="23.575" width="1.025" height="1.025" fill="rgba(232,168,0,1.000)" />
<rect x="13.325" y="23.575" width="1.025" height="1.025" fill="rgba(255,255,0,1.000)" />
<rect x="14.350" y="23.575" width="1.025" height="1.025" fill="rgba(240,176,0,1.000)" />
<rect x="23.575" y="23.575" width="1.025" height="1.025" fill="rgba(255,232,0,1.000)" />
<rect x="24.600" y="23.575" width="1.025" height="1.025" fill="rgba(255,255,0,1.000)" />
<rect x="25.625" y="23.575" width="1.025" height="1.025" fill="rgba(255,255,0,1.000)" />
<rect x="26.650" y="23.575" width="1.025" height="1.025" fill="rgba(255,255,0,1.000)" />
<rect x="27.675" y="23.575" width="1.025" height="1.025" fill="rgba(255,246,0,1.000)" />
<rect x="28.700" y="23.575" width="1.025" height="1.025" fill="rgba(255,255,0,1.000)" />
<rect x="29.725" y="23.575" width="1.025" height="1.025" fill="rgba(105,255,255,0.314)" />
<rect x="6.150" y="24.600" width="1.025" height="1.025" fill="rgba(105,255,255,0.639)" />
<rect x="7.175" y="24.600" width="1.025" height="1.025" fill="rgba(212,146,0,1.000)" />
<rect x="8.200" y="24.600" width="1.025" height="1.025" fill="rgba(255,255,0,1.000)" />
<rect x="9.225" y="24.600" width="1.025" height="1.025" fill="rgba(255,202,0,1.000)" />
<rect x="10.250" y="24.600" width="1.025" height="1.025" fill="rgba(194,142,0,1.000)" />
<rect x="11.275" y="24.600" width="1.025" height="1.025" fill="rgba(255,255,0,1.000)" />
<rect x="12.300" y="24.600" width="1.025" height="1.025" fill="rgba(236,170,0,1.000)" />
<rect x="13.325" y="24.600" width="1.025" height="1.025" fill="rgba(255,255,0,1.000)" />
<rect x="14.350" y="24.600" width="1.025" height="1.025" fill="rgba(248,184,0,1.000)" />
<rect x="22.550" y="24.600" width="1.025" height="1.025" fill="rgba(140,94,0,1.000)" />
<rect x="23.575" y="24.600" width="1.025" height="1.025" fill="rgba(255,242,0,1.000)" />
<rect x="24.600" y="24.600" width="1.025" height="1.025" fill="rgba(255,255,0,1.000)" />
<rect x="25.625" y="24.600" width="1.025" height="1.025" fill="rgba(230,174,0,1.000)" />
<rect x="26.650" y="24.600" width="1.025" height="1.025" fill="rgba(255,255,0,1.000)" />
<rect x="27.675" y="24.600" width="1.025" height="1.025" fill="rgba(255,236,0,1.000)" />
<rect x="28.700" y="24.600" width="1.025" height="1.025" fill="rgba(255,255,0,1.000)" />
<rect x="29.725" y="24.600" width="1.025" height="1.025" fill="rgba(105,255,255,0.165)" />
<rect x="5.125" y="25.625" width="1.025" height="1.025" fill="rgba(105,255,255,0.400)" />
<rect x="7.175" y="25.625" width="1.025" height="1.025" fill="rgba(206,144,0,1.000)" />
<rect x="8.200" y="25.625" width="1.025" height="1.025" fill="rgba(255,255,0,1.000)" />
<rect x="9.225" y="25.625" width="1.025" height="1.025" fill="rgba(255,204,0,1.000)" />
<rect x="10.250" y="25.625" width="1.025" height="1.025" fill="rgba(248,184,0,1.000)" />
<rect x="11.275" y="25.625" width="1.025" height="1.025" fill="rgba(255,255,0,1.000)" />
<rect x="12.300" y="25.625" width="1.025" height="1.025" fill="rgba(232,168,0,1.000)" />
<rect x="13.325" y="25.625" width="1.025" height="1.025" fill="rgba(255,255,0,1.000)" />
<rect x="14.350" y="25.625" width="1.025" height="1.025" fill="rgba(240,176,0,1.000)" />
<rect x="19.475" y="25.625" width="1.025" height="1.025" fill="rgba(140,94,0,1.000)" />
<rect x="20.500" y="25.625" width="1.025" height="1.025" fill="rgba(255,242,0,1.000)" />
<rect x="21.525" y="25.625" width="1.025" height="1.025" fill="rgba(255,255,0,1.000)" />
<rect x="22.550" y="25.625" width="1.025" height="1.025" fill="rgba(140,94,0,1.000)" />
<rect x="23.575" y="25.625" width="1.025" height="1.025" fill="rgba(255,242,0,1.000)" />
<rect x="24.600" y="25.625" width="1.025" height="1.025" fill="rgba(255,255,0,1.000)" />
<rect x="25.625" y="25.625" width="1.025" height="1.025" fill="rgba(226,160,0,1.000)" />
<rect x="26.650" y="25.625" width="1.025" height="1.025" fill="rgba(255,255,0,1.000)" />
<rect x="27.675" y="25.625" width="1.025" height="1.025" fill="rgba(255,255,0,1.000)" />
<rect x="28.700" y="25.625" width="1.025" height="1.025" fill="rgba(255,255,0,1.000)" />
<rect x="29.725" y="25.625" width="1.025" height="1.025" fill="rgba(105,255,255,0.082)" />
<rect x="6.150" y="26.650" width="1.025" height="1.025" fill="rgba(105,255,255,0.400)" />
<rect x="7.175" y="26.650" width="1.025" height="1.025" fill="rgba(212,146,0,1.000)" />
<rect x="8.200" y="26.650" width="1.025" height="1.025" fill="rgba(255,255,0,1.000)" />
<rect x="9.225" y="26.650" width="1.025" height="1.025" fill="rgba(255,202,0,1.000)" />
<rect x="10.250" y="26.650" width="1.025" height="1.025" fill="rgba(194,142,0,1.000)" />
<rect x="11.275" y="26.650" width="1.025" height="1.025" fill="rgba(255,255,0,1.000)" />
<rect x="12.300" y="26.650" width="1.025" height="1.025" fill="rgba(236,170,0,1.000)" />
<rect x="13.325" y="26.650" width="1.025" height="1.025" fill="rgba(255,255,0,1.000)" />
<rect x="14.350" y="26.650" width="1.025" height="1.025" fill="rgba(248,184,0,1.000)" />
<rect x="19.475" y="26.650" width="1.025" height="1.025" fill="rgba(156,116,0,1.000)" />
<rect x="20.500" y="26.650" width="1.025" height="1.025" fill="rgba(255,255,0,1.000)" />
<rect x="21.525" y="26.650" width="1.025" height="1.025" fill="rgba(255,255,0,1.000)" />
<rect x="22.550" y="26.650" width="1.025" height="1.025" fill="rgba(156,116,0,1.000)" />
<rect x="23.575" y="26.650" width="1.025" height="1.025" fill="rgba(255,255,0,1.000)" />
<rect x="24.600" y="26.650" width="1.025" height="1.025" fill="rgba(255,255,0,1.000)" />
<rect x="25.625" y="26.650" width="1.025" height="1.025" fill="rgba(212,150,0,1.000)" />
<rect x="26.650" y="26.650" width="1.025" height="1.025" fill="rgba(255,255,0,1.000)" />
<rect x="27.675" y="26.650" width="1.025" height="1.025" fill="rgba(255,255,0,1.000)" />
<rect x="28.700" y="26.650" width="1.025" height="1.025" fill="rgba(255,255,0,1.000)" />
<rect x="29.725" y="26.650" width="1.025" height="1.025" fill="rgba(105,255,255,0.082)" />
<rect x="6.150" y="27.675" width="1.025" height="1.025" fill="rgba(212,146,0,1.000)" />
<rect x="7.175" y="27.675" width="1.025" height="1.025" fill="rgba(255,255,0,1.000)" />
<rect x="8.200" y="27.675" width="1.025" height="1.025" fill="rgba(255,202,0,1.000)" />
<rect x="9.225" y="27.675" width="1.025" height="1.025" fill="rgba(194,142,0,1.000)" />
<rect x="10.250" y="27.675" width="1.025" height="1.025" fill="rgba(255,255,0,1.000)" />
<rect x="11.275" y="27.675" width="1.025" height="1.025" fill="rgba(236,170,0,1.000)" />
<rect x="12.300" y="27.675" width="1.025" height="1.025" fill="rgba(255,255,0,1.000)" />
<rect x="13.325" y="27.675" width="1.025" height="1.025" fill="rgba(248,184,0,1.000)" />
<rect x="14.350" y="27.675" width="1.025" height="1.025" fill="rgba(126,68,0,1.000)" />
<rect x="19.475" y="27.675" width="1.025" height="1.025" fill="rgba(114,72,0,1.000)" />
<rect x="20.500" y="27.675" width="1.025" height="1.025" fill="rgba(255,248,0,1.000)" />
<rect x="21.525" y="27.675" width="1.025" height="1.025" fill="rgba(255,255,0,1.000)" />
<rect x="22.550" y="27.675" width="1.025" height="1.025" fill="rgba(114,72,0,1.000)" />
<rect x="23.575" y="27.675" width="1.025" height="1.025" fill="rgba(255,248,0,1.000)" />
<rect x="24.600" y="27.675" width="1.025" height="1.025" fill="rgba(255,255,0,1.000)" />
<rect x="25.625" y="27.675" width="1.025" height="1.025" fill="rgba(196,134,0,1.000)" />
<rect x="26.650" y="27.675" width="1.025" height="1.025" fill="rgba(255,255,0,1.000)" />
<rect x="27.675" y="27.675" width="1.025" height="1.025" fill="rgba(255,255,0,1.000)" />
<rect x="28.700" y="27.675" width="1.025" height="1.025" fill="rgba(255,255,0,1.000)" />
<rect x="29.725" y="27.675" width="1.025" height="1.025" fill="rgba(105,255,255,0.282)" />
<rect x="5.125" y="28.700" width="1.025" height="1.025" fill="rgba(105,255,255,0.400)" />
<rect x="6.150" y="28.700" width="1.025" height="1.025" fill="rgba(194,136,0,1.000)" />
<rect x="7.175" y="28.700" width="1.025" height="1.025" fill="rgba(255,255,0,1.000)" />
<rect x="8.200" y="28.700" width="1.025" height="1.025" fill="rgba(190,144,0,1.000)" />
<rect x="10.250" y="28.700" width="1.025" height="1.025" fill="rgba(255,255,0,1.000)" />
<rect x="11.275" y="28.700" width="1.025" height="1.025" fill="rgba(214,150,0,1.000)" />
<rect x="12.300" y="28.700" width="1.025" height="1.025" fill="rgba(255,255,0,1.000)" />
<rect x="13.325" y="28.700" width="1.025" height="1.025" fill="rgba(255,210,0,1.000)" />
<rect x="22.550" y="28.700" width="1.025" height="1.025" fill="rgba(84,22,0,1.000)" />
<rect x="23.575" y="28.700" width="1.025" height="1.025" fill="rgba(255,246,0,1.000)" />
<rect x="24.600" y="28.700" width="1.025" height="1.025" fill="rgba(255,255,0,1.000)" />
<rect x="25.625" y="28.700" width="1.025" height="1.025" fill="rgba(156,98,0,1.000)" />
<rect x="26.650" y="28.700" width="1.025" height="1.025" fill="rgba(255,255,0,1.000)" />
<rect x="27.675" y="28.700" width="1.025" height="1.025" fill="rgba(255,255,0,1.000)" />
<rect x="28.700" y="28.700" width="1.025" height="1.025" fill="rgba(105,255,255,0.298)" />
<rect x="4.100" y="29.725" width="1.025" height="1.025" fill="rgba(105,255,255,0.400)" />
<rect x="5.125" y="29.725" width="1.025" height="1.025" fill="rgba(105,255,255,0.639)" />
<rect x="6.150" y="29.725" width="1.025" height="1.025" fill="rgba(188,130,0,1.000)" />
<rect x="7.175" y="29.725" width="1.025" height="1.025" fill="rgba(255,255,0,1.000)" />
<rect x="8.200" y="29.725" width="1.025" height="1.025" fill="rgba(54,10,0,1.000)" />
<rect x="10.250" y="29.725" width="1.025" height="1.025" fill="rgba(255,255,0,1.000)" />
<rect x="11.275" y="29.725" width="1.025" height="1.025" fill="rgba(220,154,0,1.000)" />
<rect x="12.300" y="29.725" width="1.025" height="1.025" fill="rgba(255,255,0,1.000)" />
<rect x="13.325" y="29.725" width="1.025" height="1.025" fill="rgba(255,255,0,1.000)" />
<rect x="24.600" y="29.725" width="1.025" height="1.025" fill="rgba(255,240,0,1.000)" />
<rect x="25.625" y="29.725" width="1.025" height="1.025" fill="rgba(158,102,0,1.000)" />
<rect x="26.650" y="29.725" width="1.025" height="1.025" fill="rgba(255,255,0,1.000)" />
<rect x="27.675" y="29.725" width="1.025" height="1.025" fill="rgba(255,255,0,1.000)" />
<rect x="28.700" y="29.725" width="1.025" height="1.025" fill="rgba(105,255,255,0.243)" />
<rect x="5.125" y="30.750" width="1.025" height="1.025" fill="rgba(105,255,255,0.400)" />
<rect x="6.150" y="30.750" width="1.025" height="1.025" fill="rgba(192,136,0,1.000)" />
<rect x="7.175" y="30.750" width="1.025" height="1.025" fill="rgba(255,248,0,1.000)" />
<rect x="10.250" y="30.750" width="1.025" height="1.025" fill="rgba(255,255,0,1.000)" />
<rect x="11.275" y="30.750" width="1.025" height="1.025" fill="rgba(168,108,0,1.000)" />
<rect x="12.300" y="30.750" width="1.025" height="1.025" fill="rgba(255,255,0,1.000)" />
<rect x="25.625" y="30.750" width="1.025" height="1.025" fill="rgba(172,122,0,1.000)" />
<rect x="26.650" y="30.750" width="1.025" height="1.025" fill="rgba(255,254,0,1.000)" />
<rect x="27.675" y="30.750" width="1.025" height="1.025" fill="rgba(255,255,0,1.000)" />
<rect x="28.700" y="30.750" width="1.025" height="1.025" fill="rgba(105,255,255,0.090)" />
<rect x="10.250" y="31.775" width="1.025" height="1.025" fill="rgba(255,255,0,1.000)" />
<rect x="12.300" y="31.775" width="1.025" height="1.025" fill="rgba(255,246,0,1.000)" />
<rect x="25.625" y="31.775" width="1.025" height="1.025" fill="rgba(62,16,0,1.000)" />
<rect x="27.675" y="31.775" width="1.025" height="1.025" fill="rgba(255,255,0,1.000)" />
<rect x="27.675" y="32.800" width="1.025" height="1.025" fill="rgba(255,255,0,1.000)" />
</svg>