<svg xmlns="http://www.w3.org/2000/svg" width="37.925" height="37.925" style="image-rendering: pixelated;" shape-rendering="crispEdges">
<rect x="13.325" y="27.675" width="1.025" height="1.025" fill="rgba(202,216,10,1.000)" />
<rect x="19.475" y="27.675" width="1.025" height="1.025" fill="rgba(205,220,9,1.000)" />
<rect x="10.250" y="28.700" width="1.025" height="1.025" fill="rgba(202,216,10,1.000)" />
<rect x="14.350" y="28.700" width="1.025" height="1.025" fill="rgba(215,230,18,1.000)" />
<rect x="19.475" y="28.700" width="1.025" height="1.025" fill="rgba(239,255,33,1.000)" />
<rect x="20.500" y="28.700" width="1.025" height="1.025" fill="rgba(206,221,13,1.000)" />
<rect x="11.275" y="29.725" width="1.025" height="1.025" fill="rgba(202,216,10,1.000)" />
<rect x="15.375" y="29.725" width="1.025" height="1.025" fill="rgba(224,239,24,1.000)" />
<rect x="19.475" y="29.725" width="1.025" height="1.025" fill="rgba(239,255,33,1.000)" />
<rect x="21.525" y="29.725" width="1.025" height="1.025" fill="rgba(224,239,24,1.000)" />
<rect x="12.300" y="30.750" width="1.025" height="1.025" fill="rgba(223,239,15,1.000)" />
<rect x="16.400" y="30.750" width="1.025" height="1.025" fill="rgba(239,255,33,1.000)" />
<rect x="19.475" y="30.750" width="1.025" height="1.025" fill="rgba(224,239,24,1.000)" />
<rect x="22.550" y="30.750" width="1.025" height="1.025" fill="rgba(239,255,33,1.000)" />
<rect x="13.325" y="31.775" width="1.025" height="1.025" fill="rgba(224,239,22,1.000)" />
<rect x="17.425" y="31.775" width="1.025" height="1.025" fill="rgba(239,255,33,1.000)" />
<rect x="20.500" y="31.775" width="1.025" height="1.025" fill="rgba(239,255,33,1.000)" />
<rect x="23.575" y="31.775" width="1.025" height="1.025" fill="rgba(239,255,33,1.000)" />
<rect x="14.350" y="32.800" width="1.025" height="1.025" fill="rgba(240,255,38,1.000)" />
<rect x="18.450" y="32.800" width="1.025" height="1.025" fill="rgba(239,255,33,1.000)" />
<rect x="20.500" y="32.800" width="1.025" height="1.025" fill="rgba(239,255,33,1.000)" />
<rect x="24.600" y="32.800" width="1.025" height="1.025" fill="rgba(239,255,32,1.000)" />
<rect x="15.375" y="33.825" width="1.025" height="1.025" fill="rgba(239,255,30,1.000)" />
<rect x="19.475" y="33.825" width="1.025" height="1.025" fill="rgba(239,255,33,1.000)" />
<rect x="20.500" y="33.825" width="1.025" height="1.025" fill="rgba(239,255,33,1.000)" />
<rect x="24.600" y="33.825" width="1.025" height="1.025" fill="rgba(202,216,10,1.000)" />
<rect x="16.400" y="34.850" width="1.025" height="1.025" fill="rgba(202,216,10,1.000)" />
<rect x="20.500" y="34.850" width="1.025" height="1.025" fill="rgba(202,216,10,1.000)" />
<rect x="21.525" y="34.850" width="1.025" height="1.025" fill="rgba(240,255,43,1.000)" />
<rect x="25.625" y="34.850" width="1.025" height="1.025" fill="rgba(202,216,10,1.000)" />
<rect x="16.400" y="35.875" width="1.025" height="1.025" fill="rgba(202,216,10,1.000)" />
<rect x="17.425" y="35.875" width="1.025" height="1.025" fill="rgba(240,255,47,1.000)" />
<rect x="21.525" y="35.875" width="1.025" height="1.025" fill="rgba(202,216,10,1.000)" />
<rect x="22.550" y="35.875" width="1.025" height="1.025" fill="rgba(239,255,21,1.000)" />
<rect x="25.625" y="35.875" width="1.025" height="1.025" fill="rgba(202,216,10,1.000)" />
<rect x="26.650" y="35.875" width="1.025" height="1.025" fill="rgba(240,255,40,1.000)" />
<rect x="15.375" y="36.900" width="1.025" height="1.025" fill="rgba(202,216,10,1.000)" />
<rect x="16.400" y="36.900" width="1.025" height="1.025" fill="rgba(239,255,30,1.000)" />
<rect x="17.425" y="36.900" width="1.025" height="1.025" fill="rgba(241,255,54,1.000)" />
<rect x="18.450" y="36.900" width="1.025" height="1.025" fill="rgba(241,255,50,1.000)" />
<rect x="20.500" y="36.900" width="1.025" height="1.025" fill="rgba(202,216,10,1.000)" />
<rect x="21.525" y="36.900" width="1.025" height="1.025" fill="rgba(239,255,21,1.000)" />
<rect x="22.550" y="36.900" width="1.025" height="1.025" fill="rgba(238,255,15,1.000)" />
<rect x="23.575" y="36.900" width="1.025" height="1.025" fill="rgba(237,255,4,1.000)" />
<rect x="25.625" y="36.900" width="1.025" height="1.025" fill="rgba(202,216,10,1.000)" />
<rect x="26.650" y="36.900" width="1.025" height="1.025" fill="rgba(239,255,21,1.000)" />
<rect x="27.675" y="36.900" width="1.025" height="1.025" fill="rgba(238,255,15,1.000)" />
</svg>