<?xml version="1.0" encoding="utf-8" ?>
<svg baseProfile="full" height="37.925" shape-rendering="crispEdges" style="image-rendering: pixelated" version="1.1" width="37.925" xmlns="http://www.w3.org/2000/svg" xmlns:ev="http://www.w3.org/2001/xml-events" xmlns:xlink="http://www.w3.org/1999/xlink"><defs /><rect fill="#393939" fill-opacity="1.0" height="1.025" width="1.025" x="18.45" y="19.474999999999998" /><rect fill="#393939" fill-opacity="1.0" height="1.025" width="1.025" x="19.474999999999998" y="19.474999999999998" /><rect fill="#242424" fill-opacity="1.0" height="1.025" width="1.025" x="20.5" y="19.474999999999998" /><rect fill="#282828" fill-opacity="1.0" height="1.025" width="1.025" x="21.525" y="19.474999999999998" /><rect fill="#282828" fill-opacity="1.0" height="1.025" width="1.025" x="22.549999999999997" y="19.474999999999998" /><rect fill="#282828" fill-opacity="1.0" height="1.025" width="1.025" x="23.575" y="19.474999999999998" /><rect fill="#393939" fill-opacity="1.0" height="1.025" width="1.025" x="17.424999999999997" y="20.5" /><rect fill="#242424" fill-opacity="1.0" height="1.025" width="1.025" x="18.45" y="20.5" /><rect fill="#282828" fill-opacity="1.0" height="1.025" width="1.025" x="23.575" y="20.5" /><rect fill="#393939" fill-opacity="1.0" height="1.025" width="1.025" x="17.424999999999997" y="21.525" /><rect fill="#393939" fill-opacity="1.0" height="1.025" width="1.025" x="18.45" y="21.525" /><rect fill="#282828" fill-opacity="1.0" height="1.025" width="1.025" x="23.575" y="21.525" /><rect fill="#282828" fill-opacity="1.0" height="1.025" width="1.025" x="17.424999999999997" y="22.549999999999997" /><rect fill="#393939" fill-opacity="1.0" height="1.025" width="1.025" x="18.45" y="22.549999999999997" /><rect fill="#393939" fill-opacity="1.0" height="1.025" width="1.025" x="19.474999999999998" y="22.549999999999997" /><rect fill="#2d2d2d" fill-opacity="1.0" height="1.025" width="1.025" x="20.5" y="22.549999999999997" /><rect fill="#282828" fill-opacity="1.0" height="1.025" width="1.025" x="21.525" y="22.549999999999997" /><rect fill="#282828" fill-opacity="1.0" height="1.025" width="1.025" x="22.549999999999997" y="22.549999999999997" /><rect fill="#282828" fill-opacity="1.0" height="1.025" width="1.025" x="23.575" y="22.549999999999997" /><rect fill="#363636" fill-opacity="1.0" height="1.025" width="1.025" x="18.45" y="23.575" /><rect fill="#393939" fill-opacity="1.0" height="1.025" width="1.025" x="19.474999999999998" y="23.575" /><rect fill="#393939" fill-opacity="1.0" height="1.025" width="1.025" x="20.5" y="23.575" /><rect fill="#2d2d2d" fill-opacity="1.0" height="1.025" width="1.025" x="21.525" y="23.575" /><rect fill="#282828" fill-opacity="1.0" height="1.025" width="1.025" x="22.549999999999997" y="23.575" /><rect fill="#282828" fill-opacity="1.0" height="1.025" width="1.025" x="23.575" y="23.575" /><rect fill="#282828" fill-opacity="1.0" height="1.025" width="1.025" x="19.474999999999998" y="24.599999999999998" /><rect fill="#393939" fill-opacity="1.0" height="1.025" width="1.025" x="20.5" y="24.599999999999998" /><rect fill="#393939" fill-opacity="1.0" height="1.025" width="1.025" x="21.525" y="24.599999999999998" /><rect fill="#282828" fill-opacity="1.0" height="1.025" width="1.025" x="22.549999999999997" y="24.599999999999998" /><rect fill="#2a2a2a" fill-opacity="1.0" height="1.025" width="1.025" x="20.5" y="25.624999999999996" /><rect fill="#2a2a2a" fill-opacity="1.0" height="1.025" width="1.025" x="21.525" y="25.624999999999996" /></svg>