<?xml version="1.0" encoding="utf-8" ?>
<svg baseProfile="full" height="37.925" shape-rendering="crispEdges" style="image-rendering: pixelated" version="1.1" width="37.925" xmlns="http://www.w3.org/2000/svg" xmlns:ev="http://www.w3.org/2001/xml-events" xmlns:xlink="http://www.w3.org/1999/xlink"><defs /><rect fill="#020202" fill-opacity="1.0" height="1.025" width="1.025" x="13.325" y="15.374999999999998" /><rect fill="#020202" fill-opacity="1.0" height="1.025" width="1.025" x="13.325" y="16.4" /><rect fill="#0b0b0b" fill-opacity="1.0" height="1.025" width="1.025" x="14.349999999999998" y="16.4" /><rect fill="#020202" fill-opacity="1.0" height="1.025" width="1.025" x="13.325" y="17.424999999999997" /><rect fill="#161616" fill-opacity="1.0" height="1.025" width="1.025" x="14.349999999999998" y="17.424999999999997" /><rect fill="#020202" fill-opacity="1.0" height="1.025" width="1.025" x="13.325" y="18.45" /><rect fill="#0b0b0b" fill-opacity="1.0" height="1.025" width="1.025" x="14.349999999999998" y="18.45" /><rect fill="#1c1c1c" fill-opacity="1.0" height="1.025" width="1.025" x="24.599999999999998" y="18.45" /><rect fill="#282828" fill-opacity="1.0" height="1.025" width="1.025" x="25.624999999999996" y="18.45" /><rect fill="#020202" fill-opacity="1.0" height="1.025" width="1.025" x="13.325" y="19.474999999999998" /><rect fill="#0b0b0b" fill-opacity="1.0" height="1.025" width="1.025" x="14.349999999999998" y="19.474999999999998" /><rect fill="#1d1d1d" fill-opacity="1.0" height="1.025" width="1.025" x="15.374999999999998" y="19.474999999999998" /><rect fill="#282828" fill-opacity="1.0" height="1.025" width="1.025" x="16.4" y="19.474999999999998" /><rect fill="#282828" fill-opacity="1.0" height="1.025" width="1.025" x="24.599999999999998" y="19.474999999999998" /><rect fill="#282828" fill-opacity="1.0" height="1.025" width="1.025" x="25.624999999999996" y="19.474999999999998" /><rect fill="#020202" fill-opacity="1.0" height="1.025" width="1.025" x="13.325" y="20.5" /><rect fill="#0e0e0e" fill-opacity="1.0" height="1.025" width="1.025" x="14.349999999999998" y="20.5" /><rect fill="#171717" fill-opacity="1.0" height="1.025" width="1.025" x="15.374999999999998" y="20.5" /><rect fill="#282828" fill-opacity="1.0" height="1.025" width="1.025" x="16.4" y="20.5" /><rect fill="#393939" fill-opacity="1.0" height="1.025" width="1.025" x="17.424999999999997" y="20.5" /><rect fill="#1c1c1c" fill-opacity="1.0" height="1.025" width="1.025" x="24.599999999999998" y="20.5" /><rect fill="#282828" fill-opacity="1.0" height="1.025" width="1.025" x="25.624999999999996" y="20.5" /><rect fill="#020202" fill-opacity="1.0" height="1.025" width="1.025" x="13.325" y="21.525" /><rect fill="#0e0e0e" fill-opacity="1.0" height="1.025" width="1.025" x="14.349999999999998" y="21.525" /><rect fill="#171717" fill-opacity="1.0" height="1.025" width="1.025" x="15.374999999999998" y="21.525" /><rect fill="#282828" fill-opacity="1.0" height="1.025" width="1.025" x="16.4" y="21.525" /><rect fill="#393939" fill-opacity="1.0" height="1.025" width="1.025" x="17.424999999999997" y="21.525" /><rect fill="#1c1c1c" fill-opacity="1.0" height="1.025" width="1.025" x="24.599999999999998" y="21.525" /><rect fill="#282828" fill-opacity="1.0" height="1.025" width="1.025" x="25.624999999999996" y="21.525" /><rect fill="#0e0e0e" fill-opacity="1.0" height="1.025" width="1.025" x="14.349999999999998" y="22.549999999999997" /><rect fill="#171717" fill-opacity="1.0" height="1.025" width="1.025" x="15.374999999999998" y="22.549999999999997" /><rect fill="#282828" fill-opacity="1.0" height="1.025" width="1.025" x="16.4" y="22.549999999999997" /><rect fill="#393939" fill-opacity="1.0" height="1.025" width="1.025" x="17.424999999999997" y="22.549999999999997" /><rect fill="#282828" fill-opacity="1.0" height="1.025" width="1.025" x="23.575" y="22.549999999999997" /><rect fill="#282828" fill-opacity="1.0" height="1.025" width="1.025" x="24.599999999999998" y="22.549999999999997" /><rect fill="#282828" fill-opacity="1.0" height="1.025" width="1.025" x="25.624999999999996" y="22.549999999999997" /><rect fill="#171717" fill-opacity="1.0" height="1.025" width="1.025" x="15.374999999999998" y="23.575" /><rect fill="#282828" fill-opacity="1.0" height="1.025" width="1.025" x="16.4" y="23.575" /><rect fill="#282828" fill-opacity="1.0" height="1.025" width="1.025" x="17.424999999999997" y="23.575" /><rect fill="#282828" fill-opacity="1.0" height="1.025" width="1.025" x="23.575" y="23.575" /><rect fill="#282828" fill-opacity="1.0" height="1.025" width="1.025" x="24.599999999999998" y="23.575" /></svg>