<?xml version="1.0" encoding="utf-8" ?>
<svg baseProfile="full" height="37.925" shape-rendering="crispEdges" style="image-rendering: pixelated" version="1.1" width="37.925" xmlns="http://www.w3.org/2000/svg" xmlns:ev="http://www.w3.org/2001/xml-events" xmlns:xlink="http://www.w3.org/1999/xlink"><defs /><rect fill="#121212" fill-opacity="1.0" height="1.025" width="1.025" x="24.599999999999998" y="10.25" /><rect fill="#121212" fill-opacity="1.0" height="1.025" width="1.025" x="23.575" y="11.274999999999999" /><rect fill="#121212" fill-opacity="1.0" height="1.025" width="1.025" x="21.525" y="12.299999999999999" /><rect fill="#121212" fill-opacity="1.0" height="1.025" width="1.025" x="22.549999999999997" y="12.299999999999999" /><rect fill="#121212" fill-opacity="1.0" height="1.025" width="1.025" x="14.349999999999998" y="13.325" /><rect fill="#121212" fill-opacity="1.0" height="1.025" width="1.025" x="15.374999999999998" y="13.325" /><rect fill="#181818" fill-opacity="1.0" height="1.025" width="1.025" x="16.4" y="13.325" /><rect fill="#1e1e1e" fill-opacity="1.0" height="1.025" width="1.025" x="17.424999999999997" y="13.325" /><rect fill="#282828" fill-opacity="1.0" height="1.025" width="1.025" x="18.45" y="13.325" /><rect fill="#272727" fill-opacity="1.0" height="1.025" width="1.025" x="19.474999999999998" y="13.325" /><rect fill="#121212" fill-opacity="1.0" height="1.025" width="1.025" x="20.5" y="13.325" /><rect fill="#121212" fill-opacity="1.0" height="1.025" width="1.025" x="15.374999999999998" y="14.349999999999998" /><rect fill="#181818" fill-opacity="1.0" height="1.025" width="1.025" x="16.4" y="14.349999999999998" /><rect fill="#1e1e1e" fill-opacity="1.0" height="1.025" width="1.025" x="17.424999999999997" y="14.349999999999998" /><rect fill="#282828" fill-opacity="1.0" height="1.025" width="1.025" x="18.45" y="14.349999999999998" /><rect fill="#272727" fill-opacity="1.0" height="1.025" width="1.025" x="19.474999999999998" y="14.349999999999998" /><rect fill="#e30613" fill-opacity="1.0" height="1.025" width="1.025" x="22.549999999999997" y="14.349999999999998" /><rect fill="#ff0000" fill-opacity="1.0" height="1.025" width="1.025" x="23.575" y="14.349999999999998" /><rect fill="#121212" fill-opacity="1.0" height="1.025" width="1.025" x="15.374999999999998" y="15.374999999999998" /><rect fill="#181818" fill-opacity="1.0" height="1.025" width="1.025" x="16.4" y="15.374999999999998" /><rect fill="#1e1e1e" fill-opacity="1.0" height="1.025" width="1.025" x="17.424999999999997" y="15.374999999999998" /><rect fill="#1e1e1e" fill-opacity="1.0" height="1.025" width="1.025" x="18.45" y="15.374999999999998" /><rect fill="#272727" fill-opacity="1.0" height="1.025" width="1.025" x="19.474999999999998" y="15.374999999999998" /><rect fill="#181818" fill-opacity="1.0" height="1.025" width="1.025" x="16.4" y="16.4" /><rect fill="#181818" fill-opacity="1.0" height="1.025" width="1.025" x="17.424999999999997" y="16.4" /><rect fill="#1e1e1e" fill-opacity="1.0" height="1.025" width="1.025" x="18.45" y="16.4" /></svg>