<?xml version="1.0" encoding="utf-8" ?>
<svg baseProfile="full" height="37.925" shape-rendering="crispEdges" style="image-rendering: pixelated" version="1.1" width="37.925" xmlns="http://www.w3.org/2000/svg" xmlns:ev="http://www.w3.org/2001/xml-events" xmlns:xlink="http://www.w3.org/1999/xlink"><defs /><rect fill="#cacaca" fill-opacity="1.0" height="1.025" width="1.025" x="11.274999999999999" y="12.299999999999999" /><rect fill="#cacaca" fill-opacity="1.0" height="1.025" width="1.025" x="12.299999999999999" y="12.299999999999999" /><rect fill="#cacaca" fill-opacity="1.0" height="1.025" width="1.025" x="13.325" y="12.299999999999999" /><rect fill="#cacaca" fill-opacity="1.0" height="1.025" width="1.025" x="14.349999999999998" y="12.299999999999999" /><rect fill="#fbfbfb" fill-opacity="1.0" height="1.025" width="1.025" x="15.374999999999998" y="12.299999999999999" /><rect fill="#eaeaea" fill-opacity="1.0" height="1.025" width="1.025" x="16.4" y="12.299999999999999" /><rect fill="#eaeaea" fill-opacity="1.0" height="1.025" width="1.025" x="17.424999999999997" y="12.299999999999999" /><rect fill="#eaeaea" fill-opacity="1.0" height="1.025" width="1.025" x="18.45" y="12.299999999999999" /><rect fill="#eaeaea" fill-opacity="1.0" height="1.025" width="1.025" x="19.474999999999998" y="12.299999999999999" /><rect fill="#eaeaea" fill-opacity="1.0" height="1.025" width="1.025" x="20.5" y="12.299999999999999" /><rect fill="#eaeaea" fill-opacity="1.0" height="1.025" width="1.025" x="21.525" y="12.299999999999999" /><rect fill="#eaeaea" fill-opacity="1.0" height="1.025" width="1.025" x="22.549999999999997" y="12.299999999999999" /><rect fill="#eaeaea" fill-opacity="1.0" height="1.025" width="1.025" x="23.575" y="12.299999999999999" /><rect fill="#eaeaea" fill-opacity="1.0" height="1.025" width="1.025" x="24.599999999999998" y="12.299999999999999" /><rect fill="#eaeaea" fill-opacity="1.0" height="1.025" width="1.025" x="25.624999999999996" y="12.299999999999999" /><rect fill="#eaeaea" fill-opacity="1.0" height="1.025" width="1.025" x="10.25" y="13.325" /><rect fill="#eaeaea" fill-opacity="1.0" height="1.025" width="1.025" x="11.274999999999999" y="13.325" /><rect fill="#cacaca" fill-opacity="1.0" height="1.025" width="1.025" x="13.325" y="13.325" /><rect fill="#cacaca" fill-opacity="1.0" height="1.025" width="1.025" x="14.349999999999998" y="13.325" /><rect fill="#ffffff" fill-opacity="1.0" height="1.025" width="1.025" x="15.374999999999998" y="13.325" /><rect fill="#15ffff" fill-opacity="0.8627450980392157" height="1.025" width="1.025" x="16.4" y="13.325" /><rect fill="#15ffff" fill-opacity="0.8196078431372549" height="1.025" width="1.025" x="17.424999999999997" y="13.325" /><rect fill="#15ffff" fill-opacity="0.807843137254902" height="1.025" width="1.025" x="18.45" y="13.325" /><rect fill="#91d0ff" fill-opacity="1.0" height="1.025" width="1.025" x="19.474999999999998" y="13.325" /><rect fill="#ffffff" fill-opacity="1.0" height="1.025" width="1.025" x="20.5" y="13.325" /><rect fill="#ff0607" fill-opacity="0.7647058823529411" height="1.025" width="1.025" x="21.525" y="13.325" /><rect fill="#ff0607" fill-opacity="0.7372549019607844" height="1.025" width="1.025" x="22.549999999999997" y="13.325" /><rect fill="#ff0607" fill-opacity="0.7294117647058823" height="1.025" width="1.025" x="23.575" y="13.325" /><rect fill="#ff0607" fill-opacity="0.7098039215686275" height="1.025" width="1.025" x="24.599999999999998" y="13.325" /><rect fill="#ffffff" fill-opacity="1.0" height="1.025" width="1.025" x="25.624999999999996" y="13.325" /><rect fill="#eaeaea" fill-opacity="1.0" height="1.025" width="1.025" x="10.25" y="14.349999999999998" /><rect fill="#ffffff" fill-opacity="1.0" height="1.025" width="1.025" x="15.374999999999998" y="14.349999999999998" /><rect fill="#15ffff" fill-opacity="0.8745098039215686" height="1.025" width="1.025" x="16.4" y="14.349999999999998" /><rect fill="#15ffff" fill-opacity="0.792156862745098" height="1.025" width="1.025" x="17.424999999999997" y="14.349999999999998" /><rect fill="#15ffff" fill-opacity="0.792156862745098" height="1.025" width="1.025" x="18.45" y="14.349999999999998" /><rect fill="#8fcffd" fill-opacity="0.996078431372549" height="1.025" width="1.025" x="19.474999999999998" y="14.349999999999998" /><rect fill="#fcfcfc" fill-opacity="1.0" height="1.025" width="1.025" x="20.5" y="14.349999999999998" /><rect fill="#ff0607" fill-opacity="0.792156862745098" height="1.025" width="1.025" x="21.525" y="14.349999999999998" /><rect fill="#ff0607" fill-opacity="0.7098039215686275" height="1.025" width="1.025" x="22.549999999999997" y="14.349999999999998" /><rect fill="#ff0607" fill-opacity="0.7098039215686275" height="1.025" width="1.025" x="23.575" y="14.349999999999998" /><rect fill="#ff0607" fill-opacity="0.7098039215686275" height="1.025" width="1.025" x="24.599999999999998" y="14.349999999999998" /><rect fill="#ffffff" fill-opacity="1.0" height="1.025" width="1.025" x="25.624999999999996" y="14.349999999999998" /><rect fill="#ffffff" fill-opacity="1.0" height="1.025" width="1.025" x="15.374999999999998" y="15.374999999999998" /><rect fill="#23fefc" fill-opacity="1.0" height="1.025" width="1.025" x="16.4" y="15.374999999999998" /><rect fill="#15ffff" fill-opacity="0.9411764705882353" height="1.025" width="1.025" x="17.424999999999997" y="15.374999999999998" /><rect fill="#91d0ff" fill-opacity="1.0" height="1.025" width="1.025" x="18.45" y="15.374999999999998" /><rect fill="#91d0ff" fill-opacity="1.0" height="1.025" width="1.025" x="19.474999999999998" y="15.374999999999998" /><rect fill="#ffffff" fill-opacity="1.0" height="1.025" width="1.025" x="20.5" y="15.374999999999998" /><rect fill="#f92a21" fill-opacity="1.0" height="1.025" width="1.025" x="21.525" y="15.374999999999998" /><rect fill="#ff0607" fill-opacity="0.8588235294117647" height="1.025" width="1.025" x="22.549999999999997" y="15.374999999999998" /><rect fill="#ff0607" fill-opacity="0.8627450980392157" height="1.025" width="1.025" x="23.575" y="15.374999999999998" /><rect fill="#ea0506" fill-opacity="1.0" height="1.025" width="1.025" x="24.599999999999998" y="15.374999999999998" /><rect fill="#ffffff" fill-opacity="1.0" height="1.025" width="1.025" x="25.624999999999996" y="15.374999999999998" /><rect fill="#ffffff" fill-opacity="1.0" height="1.025" width="1.025" x="16.4" y="16.4" /><rect fill="#ffffff" fill-opacity="1.0" height="1.025" width="1.025" x="17.424999999999997" y="16.4" /><rect fill="#ffffff" fill-opacity="1.0" height="1.025" width="1.025" x="18.45" y="16.4" /><rect fill="#f6f6f6" fill-opacity="1.0" height="1.025" width="1.025" x="19.474999999999998" y="16.4" /><rect fill="#ffffff" fill-opacity="1.0" height="1.025" width="1.025" x="21.525" y="16.4" /><rect fill="#ffffff" fill-opacity="1.0" height="1.025" width="1.025" x="22.549999999999997" y="16.4" /><rect fill="#ffffff" fill-opacity="1.0" height="1.025" width="1.025" x="23.575" y="16.4" /><rect fill="#ffffff" fill-opacity="1.0" height="1.025" width="1.025" x="24.599999999999998" y="16.4" /></svg>