<?xml version="1.0" encoding="utf-8" ?>
<svg baseProfile="full" height="37.925" shape-rendering="crispEdges" style="image-rendering: pixelated" version="1.1" width="37.925" xmlns="http://www.w3.org/2000/svg" xmlns:ev="http://www.w3.org/2001/xml-events" xmlns:xlink="http://www.w3.org/1999/xlink"><defs /><rect fill="#191919" fill-opacity="1.0" height="1.025" width="1.025" x="15.374999999999998" y="10.25" /><rect fill="#282828" fill-opacity="1.0" height="1.025" width="1.025" x="16.4" y="10.25" /><rect fill="#343434" fill-opacity="1.0" height="1.025" width="1.025" x="17.424999999999997" y="10.25" /><rect fill="#343434" fill-opacity="1.0" height="1.025" width="1.025" x="18.45" y="10.25" /><rect fill="#343434" fill-opacity="1.0" height="1.025" width="1.025" x="19.474999999999998" y="10.25" /><rect fill="#343434" fill-opacity="1.0" height="1.025" width="1.025" x="20.5" y="10.25" /><rect fill="#343434" fill-opacity="1.0" height="1.025" width="1.025" x="21.525" y="10.25" /><rect fill="#282828" fill-opacity="1.0" height="1.025" width="1.025" x="22.549999999999997" y="10.25" /><rect fill="#282828" fill-opacity="1.0" height="1.025" width="1.025" x="23.575" y="10.25" /><rect fill="#191919" fill-opacity="1.0" height="1.025" width="1.025" x="24.599999999999998" y="10.25" /><rect fill="#4d4d4d" fill-opacity="1.0" height="1.025" width="1.025" x="14.349999999999998" y="11.274999999999999" /><rect fill="#26271f" fill-opacity="1.0" height="1.025" width="1.025" x="15.374999999999998" y="11.274999999999999" /><rect fill="#393c2d" fill-opacity="1.0" height="1.025" width="1.025" x="16.4" y="11.274999999999999" /><rect fill="#474b40" fill-opacity="1.0" height="1.025" width="1.025" x="17.424999999999997" y="11.274999999999999" /><rect fill="#474b3f" fill-opacity="1.0" height="1.025" width="1.025" x="18.45" y="11.274999999999999" /><rect fill="#484b41" fill-opacity="1.0" height="1.025" width="1.025" x="19.474999999999998" y="11.274999999999999" /><rect fill="#484a40" fill-opacity="1.0" height="1.025" width="1.025" x="20.5" y="11.274999999999999" /><rect fill="#474a40" fill-opacity="1.0" height="1.025" width="1.025" x="21.525" y="11.274999999999999" /><rect fill="#3d4035" fill-opacity="1.0" height="1.025" width="1.025" x="22.549999999999997" y="11.274999999999999" /><rect fill="#393b2a" fill-opacity="1.0" height="1.025" width="1.025" x="23.575" y="11.274999999999999" /><rect fill="#2e3029" fill-opacity="1.0" height="1.025" width="1.025" x="24.599999999999998" y="11.274999999999999" /><rect fill="#4b4b4b" fill-opacity="0.8784313725490196" height="1.025" width="1.025" x="25.624999999999996" y="11.274999999999999" /><rect fill="#191919" fill-opacity="1.0" height="1.025" width="1.025" x="13.325" y="12.299999999999999" /><rect fill="#1e1f1c" fill-opacity="1.0" height="1.025" width="1.025" x="14.349999999999998" y="12.299999999999999" /><rect fill="#00f1f1" fill-opacity="0.7176470588235294" height="1.025" width="1.025" x="15.374999999999998" y="12.299999999999999" /><rect fill="#00fdfd" fill-opacity="0.4" height="1.025" width="1.025" x="16.4" y="12.299999999999999" /><rect fill="#25ffff" fill-opacity="0.28627450980392155" height="1.025" width="1.025" x="17.424999999999997" y="12.299999999999999" /><rect fill="#32ffff" fill-opacity="0.28627450980392155" height="1.025" width="1.025" x="18.45" y="12.299999999999999" /><rect fill="#3dffff" fill-opacity="0.28627450980392155" height="1.025" width="1.025" x="19.474999999999998" y="12.299999999999999" /><rect fill="#3effff" fill-opacity="0.28627450980392155" height="1.025" width="1.025" x="20.5" y="12.299999999999999" /><rect fill="#ff5858" fill-opacity="0.7215686274509804" height="1.025" width="1.025" x="21.525" y="12.299999999999999" /><rect fill="#ff4f4f" fill-opacity="0.8117647058823529" height="1.025" width="1.025" x="22.549999999999997" y="12.299999999999999" /><rect fill="#ff5d5d" fill-opacity="0.6588235294117647" height="1.025" width="1.025" x="23.575" y="12.299999999999999" /><rect fill="#ff5d5d" fill-opacity="0.6588235294117647" height="1.025" width="1.025" x="24.599999999999998" y="12.299999999999999" /><rect fill="#ad0000" fill-opacity="0.996078431372549" height="1.025" width="1.025" x="25.624999999999996" y="12.299999999999999" /><rect fill="#191919" fill-opacity="1.0" height="1.025" width="1.025" x="26.65" y="12.299999999999999" /><rect fill="#000000" fill-opacity="1.0" height="1.025" width="1.025" x="10.25" y="13.325" /><rect fill="#171717" fill-opacity="1.0" height="1.025" width="1.025" x="11.274999999999999" y="13.325" /><rect fill="#191919" fill-opacity="1.0" height="1.025" width="1.025" x="12.299999999999999" y="13.325" /><rect fill="#191919" fill-opacity="1.0" height="1.025" width="1.025" x="13.325" y="13.325" /><rect fill="#1e1f1b" fill-opacity="1.0" height="1.025" width="1.025" x="14.349999999999998" y="13.325" /><rect fill="#00e4e4" fill-opacity="0.8431372549019608" height="1.025" width="1.025" x="15.374999999999998" y="13.325" /><rect fill="#00fdfd" fill-opacity="0.4823529411764706" height="1.025" width="1.025" x="16.4" y="13.325" /><rect fill="#00fdfd" fill-opacity="0.4823529411764706" height="1.025" width="1.025" x="17.424999999999997" y="13.325" /><rect fill="#22ffff" fill-opacity="0.28627450980392155" height="1.025" width="1.025" x="18.45" y="13.325" /><rect fill="#32ffff" fill-opacity="0.28627450980392155" height="1.025" width="1.025" x="19.474999999999998" y="13.325" /><rect fill="#3effff" fill-opacity="0.28627450980392155" height="1.025" width="1.025" x="20.5" y="13.325" /><rect fill="#ff5555" fill-opacity="0.7529411764705882" height="1.025" width="1.025" x="21.525" y="13.325" /><rect fill="#ff4f4f" fill-opacity="0.8117647058823529" height="1.025" width="1.025" x="22.549999999999997" y="13.325" /><rect fill="#ff6464" fill-opacity="0.4823529411764706" height="1.025" width="1.025" x="23.575" y="13.325" /><rect fill="#ff5d5d" fill-opacity="0.6588235294117647" height="1.025" width="1.025" x="24.599999999999998" y="13.325" /><rect fill="#ad0000" fill-opacity="0.996078431372549" height="1.025" width="1.025" x="25.624999999999996" y="13.325" /><rect fill="#191919" fill-opacity="1.0" height="1.025" width="1.025" x="26.65" y="13.325" /><rect fill="#000000" fill-opacity="1.0" height="1.025" width="1.025" x="10.25" y="14.349999999999998" /><rect fill="#171717" fill-opacity="1.0" height="1.025" width="1.025" x="11.274999999999999" y="14.349999999999998" /><rect fill="#191919" fill-opacity="1.0" height="1.025" width="1.025" x="12.299999999999999" y="14.349999999999998" /><rect fill="#191919" fill-opacity="1.0" height="1.025" width="1.025" x="13.325" y="14.349999999999998" /><rect fill="#1e1f1c" fill-opacity="1.0" height="1.025" width="1.025" x="14.349999999999998" y="14.349999999999998" /><rect fill="#00e4e4" fill-opacity="0.8431372549019608" height="1.025" width="1.025" x="15.374999999999998" y="14.349999999999998" /><rect fill="#00fdfd" fill-opacity="0.4823529411764706" height="1.025" width="1.025" x="16.4" y="14.349999999999998" /><rect fill="#00fdfd" fill-opacity="0.4823529411764706" height="1.025" width="1.025" x="17.424999999999997" y="14.349999999999998" /><rect fill="#00fdfd" fill-opacity="0.4823529411764706" height="1.025" width="1.025" x="18.45" y="14.349999999999998" /><rect fill="#10ffff" fill-opacity="0.28627450980392155" height="1.025" width="1.025" x="19.474999999999998" y="14.349999999999998" /><rect fill="#32ffff" fill-opacity="0.28627450980392155" height="1.025" width="1.025" x="20.5" y="14.349999999999998" /><rect fill="#ff5555" fill-opacity="0.7529411764705882" height="1.025" width="1.025" x="21.525" y="14.349999999999998" /><rect fill="#ff4d4d" fill-opacity="0.8274509803921568" height="1.025" width="1.025" x="22.549999999999997" y="14.349999999999998" /><rect fill="#ff5858" fill-opacity="0.7215686274509804" height="1.025" width="1.025" x="23.575" y="14.349999999999998" /><rect fill="#ff6464" fill-opacity="0.4823529411764706" height="1.025" width="1.025" x="24.599999999999998" y="14.349999999999998" /><rect fill="#ac0000" fill-opacity="0.996078431372549" height="1.025" width="1.025" x="25.624999999999996" y="14.349999999999998" /><rect fill="#191919" fill-opacity="1.0" height="1.025" width="1.025" x="26.65" y="14.349999999999998" /><rect fill="#191919" fill-opacity="1.0" height="1.025" width="1.025" x="13.325" y="15.374999999999998" /><rect fill="#1e1f1b" fill-opacity="1.0" height="1.025" width="1.025" x="14.349999999999998" y="15.374999999999998" /><rect fill="#00d1d1" fill-opacity="0.9529411764705882" height="1.025" width="1.025" x="15.374999999999998" y="15.374999999999998" /><rect fill="#00ecec" fill-opacity="0.7764705882352941" height="1.025" width="1.025" x="16.4" y="15.374999999999998" /><rect fill="#00fdfd" fill-opacity="0.4823529411764706" height="1.025" width="1.025" x="17.424999999999997" y="15.374999999999998" /><rect fill="#00fdfd" fill-opacity="0.4823529411764706" height="1.025" width="1.025" x="18.45" y="15.374999999999998" /><rect fill="#00fdfd" fill-opacity="0.4823529411764706" height="1.025" width="1.025" x="19.474999999999998" y="15.374999999999998" /><rect fill="#14ffff" fill-opacity="0.28627450980392155" height="1.025" width="1.025" x="20.5" y="15.374999999999998" /><rect fill="#ff4444" fill-opacity="0.8901960784313725" height="1.025" width="1.025" x="21.525" y="15.374999999999998" /><rect fill="#ff4646" fill-opacity="0.8784313725490196" height="1.025" width="1.025" x="22.549999999999997" y="15.374999999999998" /><rect fill="#ff5555" fill-opacity="0.7529411764705882" height="1.025" width="1.025" x="23.575" y="15.374999999999998" /><rect fill="#ff5959" fill-opacity="0.7098039215686275" height="1.025" width="1.025" x="24.599999999999998" y="15.374999999999998" /><rect fill="#ac0000" fill-opacity="0.996078431372549" height="1.025" width="1.025" x="25.624999999999996" y="15.374999999999998" /><rect fill="#191919" fill-opacity="1.0" height="1.025" width="1.025" x="26.65" y="15.374999999999998" /><rect fill="#191919" fill-opacity="1.0" height="1.025" width="1.025" x="13.325" y="16.4" /><rect fill="#1e1f1c" fill-opacity="1.0" height="1.025" width="1.025" x="14.349999999999998" y="16.4" /><rect fill="#00d1d1" fill-opacity="0.9529411764705882" height="1.025" width="1.025" x="15.374999999999998" y="16.4" /><rect fill="#00d1d1" fill-opacity="0.9529411764705882" height="1.025" width="1.025" x="16.4" y="16.4" /><rect fill="#00f1f1" fill-opacity="0.7176470588235294" height="1.025" width="1.025" x="17.424999999999997" y="16.4" /><rect fill="#00fdfd" fill-opacity="0.4823529411764706" height="1.025" width="1.025" x="18.45" y="16.4" /><rect fill="#00fdfd" fill-opacity="0.4" height="1.025" width="1.025" x="19.474999999999998" y="16.4" /><rect fill="#343434" fill-opacity="1.0" height="1.025" width="1.025" x="20.5" y="16.4" /><rect fill="#343434" fill-opacity="1.0" height="1.025" width="1.025" x="21.525" y="16.4" /><rect fill="#ff4040" fill-opacity="0.9098039215686274" height="1.025" width="1.025" x="22.549999999999997" y="16.4" /><rect fill="#ff5050" fill-opacity="0.803921568627451" height="1.025" width="1.025" x="23.575" y="16.4" /><rect fill="#ff4242" fill-opacity="0.9019607843137255" height="1.025" width="1.025" x="24.599999999999998" y="16.4" /><rect fill="#ad0000" fill-opacity="0.996078431372549" height="1.025" width="1.025" x="25.624999999999996" y="16.4" /><rect fill="#191919" fill-opacity="1.0" height="1.025" width="1.025" x="26.65" y="16.4" /><rect fill="#4b4b4b" fill-opacity="0.8784313725490196" height="1.025" width="1.025" x="14.349999999999998" y="17.424999999999997" /><rect fill="#191919" fill-opacity="1.0" height="1.025" width="1.025" x="15.374999999999998" y="17.424999999999997" /><rect fill="#282828" fill-opacity="1.0" height="1.025" width="1.025" x="16.4" y="17.424999999999997" /><rect fill="#282828" fill-opacity="1.0" height="1.025" width="1.025" x="17.424999999999997" y="17.424999999999997" /><rect fill="#1e1e1e" fill-opacity="1.0" height="1.025" width="1.025" x="18.45" y="17.424999999999997" /><rect fill="#131313" fill-opacity="1.0" height="1.025" width="1.025" x="19.474999999999998" y="17.424999999999997" /><rect fill="#343434" fill-opacity="1.0" height="1.025" width="1.025" x="22.549999999999997" y="17.424999999999997" /><rect fill="#282828" fill-opacity="1.0" height="1.025" width="1.025" x="23.575" y="17.424999999999997" /><rect fill="#282828" fill-opacity="1.0" height="1.025" width="1.025" x="24.599999999999998" y="17.424999999999997" /><rect fill="#656565" fill-opacity="0.7529411764705882" height="1.025" width="1.025" x="25.624999999999996" y="17.424999999999997" /></svg>