<?xml version="1.0" encoding="utf-8" ?>
<svg baseProfile="full" height="37.925" shape-rendering="crispEdges" style="image-rendering: pixelated" version="1.1" width="37.925" xmlns="http://www.w3.org/2000/svg" xmlns:ev="http://www.w3.org/2001/xml-events" xmlns:xlink="http://www.w3.org/1999/xlink"><defs /><rect fill="#ffff00" fill-opacity="1.0" height="1.025" width="1.025" x="16.4" y="12.299999999999999" /><rect fill="#ffed00" fill-opacity="1.0" height="1.025" width="1.025" x="17.424999999999997" y="12.299999999999999" /><rect fill="#fff67d" fill-opacity="1.0" height="1.025" width="1.025" x="18.45" y="12.299999999999999" /><rect fill="#ffff00" fill-opacity="1.0" height="1.025" width="1.025" x="15.374999999999998" y="13.325" /><rect fill="#00ffff" fill-opacity="1.0" height="1.025" width="1.025" x="16.4" y="13.325" /><rect fill="#00ffff" fill-opacity="0.4980392156862745" height="1.025" width="1.025" x="17.424999999999997" y="13.325" /><rect fill="#00ffff" fill-opacity="0.4980392156862745" height="1.025" width="1.025" x="18.45" y="13.325" /><rect fill="#ffed00" fill-opacity="1.0" height="1.025" width="1.025" x="19.474999999999998" y="13.325" /><rect fill="#ffff7d" fill-opacity="1.0" height="1.025" width="1.025" x="15.374999999999998" y="14.349999999999998" /><rect fill="#00ffff" fill-opacity="1.0" height="1.025" width="1.025" x="16.4" y="14.349999999999998" /><rect fill="#00ffff" fill-opacity="0.4980392156862745" height="1.025" width="1.025" x="17.424999999999997" y="14.349999999999998" /><rect fill="#00ffff" fill-opacity="0.4980392156862745" height="1.025" width="1.025" x="18.45" y="14.349999999999998" /><rect fill="#ffed00" fill-opacity="1.0" height="1.025" width="1.025" x="19.474999999999998" y="14.349999999999998" /><rect fill="#ffffca" fill-opacity="1.0" height="1.025" width="1.025" x="15.374999999999998" y="15.374999999999998" /><rect fill="#00ffff" fill-opacity="1.0" height="1.025" width="1.025" x="16.4" y="15.374999999999998" /><rect fill="#00ffff" fill-opacity="0.4980392156862745" height="1.025" width="1.025" x="17.424999999999997" y="15.374999999999998" /><rect fill="#00ffff" fill-opacity="1.0" height="1.025" width="1.025" x="18.45" y="15.374999999999998" /><rect fill="#ffed00" fill-opacity="1.0" height="1.025" width="1.025" x="19.474999999999998" y="15.374999999999998" /><rect fill="#ffff00" fill-opacity="1.0" height="1.025" width="1.025" x="16.4" y="16.4" /><rect fill="#ffff00" fill-opacity="1.0" height="1.025" width="1.025" x="17.424999999999997" y="16.4" /><rect fill="#ffed00" fill-opacity="1.0" height="1.025" width="1.025" x="18.45" y="16.4" /><rect fill="#ffed00" fill-opacity="1.0" height="1.025" width="1.025" x="15.374999999999998" y="17.424999999999997" /><rect fill="#ffff00" fill-opacity="1.0" height="1.025" width="1.025" x="15.374999999999998" y="18.45" /><rect fill="#ffed00" fill-opacity="1.0" height="1.025" width="1.025" x="15.374999999999998" y="19.474999999999998" /><rect fill="#ffff00" fill-opacity="1.0" height="1.025" width="1.025" x="14.349999999999998" y="20.5" /><rect fill="#ffff00" fill-opacity="1.0" height="1.025" width="1.025" x="12.299999999999999" y="21.525" /><rect fill="#ffed00" fill-opacity="1.0" height="1.025" width="1.025" x="13.325" y="21.525" /></svg>