<?xml version="1.0" encoding="utf-8" ?>
<svg baseProfile="full" height="37.925" shape-rendering="crispEdges" style="image-rendering: pixelated" version="1.1" width="37.925" xmlns="http://www.w3.org/2000/svg" xmlns:ev="http://www.w3.org/2001/xml-events" xmlns:xlink="http://www.w3.org/1999/xlink"><defs /><rect fill="#090909" fill-opacity="1.0" height="1.025" width="1.025" x="12.299999999999999" y="12.299999999999999" /><rect fill="#090909" fill-opacity="1.0" height="1.025" width="1.025" x="13.325" y="12.299999999999999" /><rect fill="#090909" fill-opacity="1.0" height="1.025" width="1.025" x="14.349999999999998" y="12.299999999999999" /><rect fill="#090909" fill-opacity="1.0" height="1.025" width="1.025" x="15.374999999999998" y="12.299999999999999" /><rect fill="#404241" fill-opacity="1.0" height="1.025" width="1.025" x="16.4" y="12.299999999999999" /><rect fill="#090909" fill-opacity="1.0" height="1.025" width="1.025" x="17.424999999999997" y="12.299999999999999" /><rect fill="#090909" fill-opacity="1.0" height="1.025" width="1.025" x="18.45" y="12.299999999999999" /><rect fill="#090909" fill-opacity="1.0" height="1.025" width="1.025" x="19.474999999999998" y="12.299999999999999" /><rect fill="#e5e5e5" fill-opacity="1.0" height="1.025" width="1.025" x="20.5" y="12.299999999999999" /><rect fill="#090909" fill-opacity="1.0" height="1.025" width="1.025" x="21.525" y="12.299999999999999" /><rect fill="#3e3f43" fill-opacity="1.0" height="1.025" width="1.025" x="22.549999999999997" y="12.299999999999999" /><rect fill="#0b060a" fill-opacity="1.0" height="1.025" width="1.025" x="23.575" y="12.299999999999999" /><rect fill="#0a0a08" fill-opacity="1.0" height="1.025" width="1.025" x="24.599999999999998" y="12.299999999999999" /><rect fill="#0a0a08" fill-opacity="1.0" height="1.025" width="1.025" x="25.624999999999996" y="12.299999999999999" /><rect fill="#090e0a" fill-opacity="1.0" height="1.025" width="1.025" x="11.274999999999999" y="13.325" /><rect fill="#090909" fill-opacity="1.0" height="1.025" width="1.025" x="15.374999999999998" y="13.325" /><rect fill="#00ffff" fill-opacity="1.0" height="1.025" width="1.025" x="16.4" y="13.325" /><rect fill="#00ffff" fill-opacity="0.4980392156862745" height="1.025" width="1.025" x="17.424999999999997" y="13.325" /><rect fill="#00ffff" fill-opacity="0.4980392156862745" height="1.025" width="1.025" x="18.45" y="13.325" /><rect fill="#090909" fill-opacity="1.0" height="1.025" width="1.025" x="19.474999999999998" y="13.325" /><rect fill="#cccccc" fill-opacity="1.0" height="1.025" width="1.025" x="20.5" y="13.325" /><rect fill="#09090b" fill-opacity="1.0" height="1.025" width="1.025" x="21.525" y="13.325" /><rect fill="#00ffff" fill-opacity="0.4980392156862745" height="1.025" width="1.025" x="22.549999999999997" y="13.325" /><rect fill="#00ffff" fill-opacity="1.0" height="1.025" width="1.025" x="23.575" y="13.325" /><rect fill="#00ffff" fill-opacity="0.4980392156862745" height="1.025" width="1.025" x="24.599999999999998" y="13.325" /><rect fill="#090909" fill-opacity="1.0" height="1.025" width="1.025" x="25.624999999999996" y="13.325" /><rect fill="#0a080b" fill-opacity="1.0" height="1.025" width="1.025" x="15.374999999999998" y="14.349999999999998" /><rect fill="#00ffff" fill-opacity="1.0" height="1.025" width="1.025" x="16.4" y="14.349999999999998" /><rect fill="#00ffff" fill-opacity="0.4980392156862745" height="1.025" width="1.025" x="17.424999999999997" y="14.349999999999998" /><rect fill="#00ffff" fill-opacity="1.0" height="1.025" width="1.025" x="18.45" y="14.349999999999998" /><rect fill="#090909" fill-opacity="1.0" height="1.025" width="1.025" x="19.474999999999998" y="14.349999999999998" /><rect fill="#09090b" fill-opacity="1.0" height="1.025" width="1.025" x="21.525" y="14.349999999999998" /><rect fill="#00ffff" fill-opacity="0.4980392156862745" height="1.025" width="1.025" x="22.549999999999997" y="14.349999999999998" /><rect fill="#00ffff" fill-opacity="1.0" height="1.025" width="1.025" x="23.575" y="14.349999999999998" /><rect fill="#00ffff" fill-opacity="0.4980392156862745" height="1.025" width="1.025" x="24.599999999999998" y="14.349999999999998" /><rect fill="#0a0a0a" fill-opacity="1.0" height="1.025" width="1.025" x="25.624999999999996" y="14.349999999999998" /><rect fill="#08090b" fill-opacity="1.0" height="1.025" width="1.025" x="16.4" y="15.374999999999998" /><rect fill="#090909" fill-opacity="1.0" height="1.025" width="1.025" x="17.424999999999997" y="15.374999999999998" /><rect fill="#090909" fill-opacity="1.0" height="1.025" width="1.025" x="18.45" y="15.374999999999998" /><rect fill="#0e070e" fill-opacity="1.0" height="1.025" width="1.025" x="22.549999999999997" y="15.374999999999998" /><rect fill="#0a080b" fill-opacity="1.0" height="1.025" width="1.025" x="23.575" y="15.374999999999998" /><rect fill="#09090b" fill-opacity="1.0" height="1.025" width="1.025" x="24.599999999999998" y="15.374999999999998" /></svg>