<?xml version="1.0" encoding="utf-8" ?>
<svg baseProfile="full" height="37.925" shape-rendering="crispEdges" style="image-rendering: pixelated" version="1.1" width="37.925" xmlns="http://www.w3.org/2000/svg" xmlns:ev="http://www.w3.org/2001/xml-events" xmlns:xlink="http://www.w3.org/1999/xlink"><defs /><rect fill="#161616" fill-opacity="0.8901960784313725" height="1.025" width="1.025" x="15.374999999999998" y="7.174999999999999" /><rect fill="#161616" fill-opacity="0.7411764705882353" height="1.025" width="1.025" x="17.424999999999997" y="7.174999999999999" /><rect fill="#040301" fill-opacity="0.6705882352941176" height="1.025" width="1.025" x="19.474999999999998" y="7.174999999999999" /><rect fill="#212121" fill-opacity="0.7450980392156863" height="1.025" width="1.025" x="21.525" y="7.174999999999999" /><rect fill="#161616" fill-opacity="0.8941176470588236" height="1.025" width="1.025" x="14.349999999999998" y="8.2" /><rect fill="#040301" fill-opacity="0.6392156862745098" height="1.025" width="1.025" x="16.4" y="8.2" /><rect fill="#040301" fill-opacity="0.40784313725490196" height="1.025" width="1.025" x="18.45" y="8.2" /><rect fill="#212121" fill-opacity="0.41568627450980394" height="1.025" width="1.025" x="20.5" y="8.2" /><rect fill="#0a0a0a" fill-opacity="0.5803921568627451" height="1.025" width="1.025" x="22.549999999999997" y="8.2" /><rect fill="#0a0a0a" fill-opacity="0.9333333333333333" height="1.025" width="1.025" x="13.325" y="9.225" /><rect fill="#040301" fill-opacity="0.6431372549019608" height="1.025" width="1.025" x="15.374999999999998" y="9.225" /><rect fill="#212121" fill-opacity="0.24313725490196078" height="1.025" width="1.025" x="17.424999999999997" y="9.225" /><rect fill="#0a0a0a" fill-opacity="0.13725490196078433" height="1.025" width="1.025" x="19.474999999999998" y="9.225" /><rect fill="#0a0a0a" fill-opacity="0.2196078431372549" height="1.025" width="1.025" x="21.525" y="9.225" /><rect fill="#0a0a0a" fill-opacity="0.4392156862745098" height="1.025" width="1.025" x="23.575" y="9.225" /><rect fill="#161616" fill-opacity="0.7568627450980392" height="1.025" width="1.025" x="14.349999999999998" y="10.25" /><rect fill="#161616" fill-opacity="0.8980392156862745" height="1.025" width="1.025" x="13.325" y="11.274999999999999" /><rect fill="#161616" fill-opacity="0.06274509803921569" height="1.025" width="1.025" x="23.575" y="11.274999999999999" /><rect fill="#161616" fill-opacity="0.7372549019607844" height="1.025" width="1.025" x="14.349999999999998" y="12.299999999999999" /></svg>