<?xml version="1.0" encoding="utf-8" ?>
<svg baseProfile="full" height="37.925" shape-rendering="crispEdges" style="image-rendering: pixelated" version="1.1" width="37.925" xmlns="http://www.w3.org/2000/svg" xmlns:ev="http://www.w3.org/2001/xml-events" xmlns:xlink="http://www.w3.org/1999/xlink"><defs /><rect fill="#00ffff" fill-opacity="1.0" height="1.025" width="1.025" x="14.349999999999998" y="1.025" /><rect fill="#ff0000" fill-opacity="1.0" height="1.025" width="1.025" x="16.4" y="1.025" /><rect fill="#00ffff" fill-opacity="1.0" height="1.025" width="1.025" x="17.424999999999997" y="1.025" /><rect fill="#00ffff" fill-opacity="1.0" height="1.025" width="1.025" x="19.474999999999998" y="1.025" /><rect fill="#ff0000" fill-opacity="1.0" height="1.025" width="1.025" x="21.525" y="1.025" /><rect fill="#00ffff" fill-opacity="1.0" height="1.025" width="1.025" x="22.549999999999997" y="1.025" /><rect fill="#ff0000" fill-opacity="1.0" height="1.025" width="1.025" x="24.599999999999998" y="1.025" /><rect fill="#00ffff" fill-opacity="1.0" height="1.025" width="1.025" x="10.25" y="2.05" /><rect fill="#ff0000" fill-opacity="1.0" height="1.025" width="1.025" x="12.299999999999999" y="2.05" /><rect fill="#161618" fill-opacity="1.0" height="1.025" width="1.025" x="15.374999999999998" y="2.05" /><rect fill="#00ffff" fill-opacity="1.0" height="1.025" width="1.025" x="16.4" y="2.05" /><rect fill="#ff0000" fill-opacity="1.0" height="1.025" width="1.025" x="17.424999999999997" y="2.05" /><rect fill="#212224" fill-opacity="1.0" height="1.025" width="1.025" x="18.45" y="2.05" /><rect fill="#00ffff" fill-opacity="1.0" height="1.025" width="1.025" x="19.474999999999998" y="2.05" /><rect fill="#141517" fill-opacity="1.0" height="1.025" width="1.025" x="20.5" y="2.05" /><rect fill="#00ffff" fill-opacity="1.0" height="1.025" width="1.025" x="21.525" y="2.05" /><rect fill="#231f1c" fill-opacity="1.0" height="1.025" width="1.025" x="23.575" y="2.05" /><rect fill="#00ffff" fill-opacity="1.0" height="1.025" width="1.025" x="24.599999999999998" y="2.05" /><rect fill="#ff0000" fill-opacity="1.0" height="1.025" width="1.025" x="26.65" y="2.05" /><rect fill="#222222" fill-opacity="1.0" height="1.025" width="1.025" x="11.274999999999999" y="3.0749999999999997" /><rect fill="#ff0000" fill-opacity="1.0" height="1.025" width="1.025" x="13.325" y="3.0749999999999997" /><rect fill="#00ffff" fill-opacity="1.0" height="1.025" width="1.025" x="14.349999999999998" y="3.0749999999999997" /><rect fill="#181713" fill-opacity="1.0" height="1.025" width="1.025" x="16.4" y="3.0749999999999997" /><rect fill="#0a0a0a" fill-opacity="1.0" height="1.025" width="1.025" x="17.424999999999997" y="3.0749999999999997" /><rect fill="#00ffff" fill-opacity="1.0" height="1.025" width="1.025" x="18.45" y="3.0749999999999997" /><rect fill="#00ffff" fill-opacity="1.0" height="1.025" width="1.025" x="19.474999999999998" y="3.0749999999999997" /><rect fill="#161616" fill-opacity="1.0" height="1.025" width="1.025" x="20.5" y="3.0749999999999997" /><rect fill="#00ffff" fill-opacity="1.0" height="1.025" width="1.025" x="21.525" y="3.0749999999999997" /><rect fill="#17161b" fill-opacity="1.0" height="1.025" width="1.025" x="22.549999999999997" y="3.0749999999999997" /><rect fill="#00ffff" fill-opacity="1.0" height="1.025" width="1.025" x="23.575" y="3.0749999999999997" /><rect fill="#141613" fill-opacity="1.0" height="1.025" width="1.025" x="25.624999999999996" y="3.0749999999999997" /><rect fill="#00ffff" fill-opacity="1.0" height="1.025" width="1.025" x="8.2" y="4.1" /><rect fill="#ff0000" fill-opacity="1.0" height="1.025" width="1.025" x="10.25" y="4.1" /><rect fill="#0b0b0b" fill-opacity="1.0" height="1.025" width="1.025" x="12.299999999999999" y="4.1" /><rect fill="#00ffff" fill-opacity="1.0" height="1.025" width="1.025" x="13.325" y="4.1" /><rect fill="#00ffff" fill-opacity="1.0" height="1.025" width="1.025" x="14.349999999999998" y="4.1" /><rect fill="#0b0b0d" fill-opacity="1.0" height="1.025" width="1.025" x="15.374999999999998" y="4.1" /><rect fill="#00ffff" fill-opacity="1.0" height="1.025" width="1.025" x="16.4" y="4.1" /><rect fill="#161616" fill-opacity="1.0" height="1.025" width="1.025" x="17.424999999999997" y="4.1" /><rect fill="#0b0b0d" fill-opacity="1.0" height="1.025" width="1.025" x="18.45" y="4.1" /><rect fill="#161618" fill-opacity="1.0" height="1.025" width="1.025" x="19.474999999999998" y="4.1" /><rect fill="#050505" fill-opacity="1.0" height="1.025" width="1.025" x="20.5" y="4.1" /><rect fill="#212121" fill-opacity="1.0" height="1.025" width="1.025" x="21.525" y="4.1" /><rect fill="#212121" fill-opacity="1.0" height="1.025" width="1.025" x="22.549999999999997" y="4.1" /><rect fill="#00ffff" fill-opacity="1.0" height="1.025" width="1.025" x="23.575" y="4.1" /><rect fill="#171916" fill-opacity="1.0" height="1.025" width="1.025" x="24.599999999999998" y="4.1" /><rect fill="#ff0000" fill-opacity="1.0" height="1.025" width="1.025" x="25.624999999999996" y="4.1" /><rect fill="#00ffff" fill-opacity="1.0" height="1.025" width="1.025" x="26.65" y="4.1" /><rect fill="#ff0000" fill-opacity="1.0" height="1.025" width="1.025" x="28.699999999999996" y="4.1" /><rect fill="#231e24" fill-opacity="1.0" height="1.025" width="1.025" x="9.225" y="5.125" /><rect fill="#00ffff" fill-opacity="1.0" height="1.025" width="1.025" x="10.25" y="5.125" /><rect fill="#00ffff" fill-opacity="1.0" height="1.025" width="1.025" x="11.274999999999999" y="5.125" /><rect fill="#00ffff" fill-opacity="1.0" height="1.025" width="1.025" x="12.299999999999999" y="5.125" /><rect fill="#1f2120" fill-opacity="1.0" height="1.025" width="1.025" x="13.325" y="5.125" /><rect fill="#1f2120" fill-opacity="1.0" height="1.025" width="1.025" x="14.349999999999998" y="5.125" /><rect fill="#141416" fill-opacity="1.0" height="1.025" width="1.025" x="15.374999999999998" y="5.125" /><rect fill="#0c0c0a" fill-opacity="1.0" height="1.025" width="1.025" x="16.4" y="5.125" /><rect fill="#151515" fill-opacity="1.0" height="1.025" width="1.025" x="17.424999999999997" y="5.125" /><rect fill="#0a0a0a" fill-opacity="1.0" height="1.025" width="1.025" x="18.45" y="5.125" /><rect fill="#212121" fill-opacity="1.0" height="1.025" width="1.025" x="19.474999999999998" y="5.125" /><rect fill="#161616" fill-opacity="1.0" height="1.025" width="1.025" x="20.5" y="5.125" /><rect fill="#161616" fill-opacity="1.0" height="1.025" width="1.025" x="21.525" y="5.125" /><rect fill="#212121" fill-opacity="1.0" height="1.025" width="1.025" x="22.549999999999997" y="5.125" /><rect fill="#181818" fill-opacity="1.0" height="1.025" width="1.025" x="23.575" y="5.125" /><rect fill="#030303" fill-opacity="1.0" height="1.025" width="1.025" x="24.599999999999998" y="5.125" /><rect fill="#202123" fill-opacity="1.0" height="1.025" width="1.025" x="25.624999999999996" y="5.125" /><rect fill="#15161b" fill-opacity="1.0" height="1.025" width="1.025" x="27.674999999999997" y="5.125" /><rect fill="#00ffff" fill-opacity="1.0" height="1.025" width="1.025" x="8.2" y="6.1499999999999995" /><rect fill="#00ffff" fill-opacity="1.0" height="1.025" width="1.025" x="9.225" y="6.1499999999999995" /><rect fill="#ff0000" fill-opacity="1.0" height="1.025" width="1.025" x="10.25" y="6.1499999999999995" /><rect fill="#171717" fill-opacity="1.0" height="1.025" width="1.025" x="11.274999999999999" y="6.1499999999999995" /><rect fill="#212121" fill-opacity="1.0" height="1.025" width="1.025" x="12.299999999999999" y="6.1499999999999995" /><rect fill="#0a0a0a" fill-opacity="1.0" height="1.025" width="1.025" x="13.325" y="6.1499999999999995" /><rect fill="#212121" fill-opacity="1.0" height="1.025" width="1.025" x="14.349999999999998" y="6.1499999999999995" /><rect fill="#151515" fill-opacity="1.0" height="1.025" width="1.025" x="15.374999999999998" y="6.1499999999999995" /><rect fill="#222222" fill-opacity="1.0" height="1.025" width="1.025" x="16.4" y="6.1499999999999995" /><rect fill="#0a0a0a" fill-opacity="1.0" height="1.025" width="1.025" x="17.424999999999997" y="6.1499999999999995" /><rect fill="#202020" fill-opacity="1.0" height="1.025" width="1.025" x="18.45" y="6.1499999999999995" /><rect fill="#171717" fill-opacity="1.0" height="1.025" width="1.025" x="19.474999999999998" y="6.1499999999999995" /><rect fill="#090909" fill-opacity="1.0" height="1.025" width="1.025" x="20.5" y="6.1499999999999995" /><rect fill="#212121" fill-opacity="1.0" height="1.025" width="1.025" x="21.525" y="6.1499999999999995" /><rect fill="#0a0a0a" fill-opacity="1.0" height="1.025" width="1.025" x="22.549999999999997" y="6.1499999999999995" /><rect fill="#0a0a0a" fill-opacity="1.0" height="1.025" width="1.025" x="23.575" y="6.1499999999999995" /><rect fill="#212121" fill-opacity="1.0" height="1.025" width="1.025" x="24.599999999999998" y="6.1499999999999995" /><rect fill="#00ffff" fill-opacity="1.0" height="1.025" width="1.025" x="25.624999999999996" y="6.1499999999999995" /><rect fill="#171518" fill-opacity="1.0" height="1.025" width="1.025" x="26.65" y="6.1499999999999995" /><rect fill="#ff0000" fill-opacity="1.0" height="1.025" width="1.025" x="27.674999999999997" y="6.1499999999999995" /><rect fill="#00ffff" fill-opacity="1.0" height="1.025" width="1.025" x="7.174999999999999" y="7.174999999999999" /><rect fill="#0c0c0c" fill-opacity="1.0" height="1.025" width="1.025" x="9.225" y="7.174999999999999" /><rect fill="#151515" fill-opacity="1.0" height="1.025" width="1.025" x="10.25" y="7.174999999999999" /><rect fill="#00ffff" fill-opacity="1.0" height="1.025" width="1.025" x="11.274999999999999" y="7.174999999999999" /><rect fill="#212121" fill-opacity="1.0" height="1.025" width="1.025" x="12.299999999999999" y="7.174999999999999" /><rect fill="#212121" fill-opacity="1.0" height="1.025" width="1.025" x="13.325" y="7.174999999999999" /><rect fill="#0a0a0a" fill-opacity="1.0" height="1.025" width="1.025" x="14.349999999999998" y="7.174999999999999" /><rect fill="#212121" fill-opacity="1.0" height="1.025" width="1.025" x="15.374999999999998" y="7.174999999999999" /><rect fill="#0b0b0b" fill-opacity="1.0" height="1.025" width="1.025" x="16.4" y="7.174999999999999" /><rect fill="#161616" fill-opacity="1.0" height="1.025" width="1.025" x="17.424999999999997" y="7.174999999999999" /><rect fill="#161616" fill-opacity="1.0" height="1.025" width="1.025" x="18.45" y="7.174999999999999" /><rect fill="#0a0a0a" fill-opacity="1.0" height="1.025" width="1.025" x="19.474999999999998" y="7.174999999999999" /><rect fill="#161616" fill-opacity="1.0" height="1.025" width="1.025" x="20.5" y="7.174999999999999" /><rect fill="#0a0a0a" fill-opacity="1.0" height="1.025" width="1.025" x="21.525" y="7.174999999999999" /><rect fill="#161616" fill-opacity="1.0" height="1.025" width="1.025" x="22.549999999999997" y="7.174999999999999" /><rect fill="#212121" fill-opacity="1.0" height="1.025" width="1.025" x="23.575" y="7.174999999999999" /><rect fill="#161616" fill-opacity="1.0" height="1.025" width="1.025" x="24.599999999999998" y="7.174999999999999" /><rect fill="#161616" fill-opacity="1.0" height="1.025" width="1.025" x="25.624999999999996" y="7.174999999999999" /><rect fill="#080403" fill-opacity="1.0" height="1.025" width="1.025" x="26.65" y="7.174999999999999" /><rect fill="#0a0809" fill-opacity="1.0" height="1.025" width="1.025" x="8.2" y="8.2" /><rect fill="#151618" fill-opacity="1.0" height="1.025" width="1.025" x="10.25" y="8.2" /><rect fill="#040404" fill-opacity="1.0" height="1.025" width="1.025" x="11.274999999999999" y="8.2" /><rect fill="#161616" fill-opacity="1.0" height="1.025" width="1.025" x="12.299999999999999" y="8.2" /><rect fill="#161616" fill-opacity="1.0" height="1.025" width="1.025" x="13.325" y="8.2" /><rect fill="#212121" fill-opacity="1.0" height="1.025" width="1.025" x="14.349999999999998" y="8.2" /><rect fill="#161616" fill-opacity="1.0" height="1.025" width="1.025" x="15.374999999999998" y="8.2" /><rect fill="#212121" fill-opacity="1.0" height="1.025" width="1.025" x="16.4" y="8.2" /><rect fill="#161616" fill-opacity="1.0" height="1.025" width="1.025" x="17.424999999999997" y="8.2" /><rect fill="#0a0a0a" fill-opacity="1.0" height="1.025" width="1.025" x="18.45" y="8.2" /><rect fill="#0a0a0a" fill-opacity="1.0" height="1.025" width="1.025" x="19.474999999999998" y="8.2" /><rect fill="#161616" fill-opacity="1.0" height="1.025" width="1.025" x="20.5" y="8.2" /><rect fill="#161616" fill-opacity="1.0" height="1.025" width="1.025" x="21.525" y="8.2" /><rect fill="#212121" fill-opacity="1.0" height="1.025" width="1.025" x="22.549999999999997" y="8.2" /><rect fill="#0a0a0a" fill-opacity="1.0" height="1.025" width="1.025" x="23.575" y="8.2" /><rect fill="#0a0a0a" fill-opacity="1.0" height="1.025" width="1.025" x="24.599999999999998" y="8.2" /><rect fill="#212121" fill-opacity="1.0" height="1.025" width="1.025" x="25.624999999999996" y="8.2" /><rect fill="#ff0000" fill-opacity="1.0" height="1.025" width="1.025" x="26.65" y="8.2" /><rect fill="#ff0000" fill-opacity="1.0" height="1.025" width="1.025" x="27.674999999999997" y="8.2" /><rect fill="#00ffff" fill-opacity="1.0" height="1.025" width="1.025" x="10.25" y="9.225" /><rect fill="#161616" fill-opacity="1.0" height="1.025" width="1.025" x="11.274999999999999" y="9.225" /><rect fill="#040404" fill-opacity="1.0" height="1.025" width="1.025" x="12.299999999999999" y="9.225" /><rect fill="#161616" fill-opacity="1.0" height="1.025" width="1.025" x="13.325" y="9.225" /><rect fill="#0a0a0a" fill-opacity="1.0" height="1.025" width="1.025" x="14.349999999999998" y="9.225" /><rect fill="#212121" fill-opacity="1.0" height="1.025" width="1.025" x="15.374999999999998" y="9.225" /><rect fill="#161616" fill-opacity="1.0" height="1.025" width="1.025" x="16.4" y="9.225" /><rect fill="#212121" fill-opacity="1.0" height="1.025" width="1.025" x="17.424999999999997" y="9.225" /><rect fill="#161616" fill-opacity="1.0" height="1.025" width="1.025" x="18.45" y="9.225" /><rect fill="#212121" fill-opacity="1.0" height="1.025" width="1.025" x="19.474999999999998" y="9.225" /><rect fill="#212121" fill-opacity="1.0" height="1.025" width="1.025" x="20.5" y="9.225" /><rect fill="#0a0a0a" fill-opacity="1.0" height="1.025" width="1.025" x="21.525" y="9.225" /><rect fill="#0a0a0a" fill-opacity="1.0" height="1.025" width="1.025" x="22.549999999999997" y="9.225" /><rect fill="#212121" fill-opacity="1.0" height="1.025" width="1.025" x="23.575" y="9.225" /><rect fill="#0a0a0a" fill-opacity="1.0" height="1.025" width="1.025" x="24.599999999999998" y="9.225" /><rect fill="#161616" fill-opacity="1.0" height="1.025" width="1.025" x="25.624999999999996" y="9.225" /><rect fill="#212123" fill-opacity="1.0" height="1.025" width="1.025" x="26.65" y="9.225" /><rect fill="#ff0000" fill-opacity="1.0" height="1.025" width="1.025" x="28.699999999999996" y="9.225" /><rect fill="#00ffff" fill-opacity="1.0" height="1.025" width="1.025" x="9.225" y="10.25" /><rect fill="#00ffff" fill-opacity="1.0" height="1.025" width="1.025" x="10.25" y="10.25" /><rect fill="#040404" fill-opacity="1.0" height="1.025" width="1.025" x="11.274999999999999" y="10.25" /><rect fill="#161616" fill-opacity="1.0" height="1.025" width="1.025" x="12.299999999999999" y="10.25" /><rect fill="#161616" fill-opacity="1.0" height="1.025" width="1.025" x="13.325" y="10.25" /><rect fill="#161616" fill-opacity="1.0" height="1.025" width="1.025" x="14.349999999999998" y="10.25" /><rect fill="#0a0a0a" fill-opacity="1.0" height="1.025" width="1.025" x="15.374999999999998" y="10.25" /><rect fill="#171717" fill-opacity="1.0" height="1.025" width="1.025" x="16.4" y="10.25" /><rect fill="#212121" fill-opacity="1.0" height="1.025" width="1.025" x="17.424999999999997" y="10.25" /><rect fill="#0a0a0a" fill-opacity="1.0" height="1.025" width="1.025" x="18.45" y="10.25" /><rect fill="#0a0a0a" fill-opacity="1.0" height="1.025" width="1.025" x="19.474999999999998" y="10.25" /><rect fill="#0a0a0a" fill-opacity="1.0" height="1.025" width="1.025" x="20.5" y="10.25" /><rect fill="#212121" fill-opacity="1.0" height="1.025" width="1.025" x="21.525" y="10.25" /><rect fill="#0a0a0a" fill-opacity="1.0" height="1.025" width="1.025" x="22.549999999999997" y="10.25" /><rect fill="#0a0a0a" fill-opacity="1.0" height="1.025" width="1.025" x="23.575" y="10.25" /><rect fill="#0b090a" fill-opacity="1.0" height="1.025" width="1.025" x="25.624999999999996" y="10.25" /><rect fill="#ff0000" fill-opacity="1.0" height="1.025" width="1.025" x="26.65" y="10.25" /><rect fill="#131514" fill-opacity="1.0" height="1.025" width="1.025" x="27.674999999999997" y="10.25" /><rect fill="#00ffff" fill-opacity="1.0" height="1.025" width="1.025" x="8.2" y="11.274999999999999" /><rect fill="#050304" fill-opacity="1.0" height="1.025" width="1.025" x="10.25" y="11.274999999999999" /><rect fill="#040404" fill-opacity="1.0" height="1.025" width="1.025" x="11.274999999999999" y="11.274999999999999" /><rect fill="#040404" fill-opacity="1.0" height="1.025" width="1.025" x="12.299999999999999" y="11.274999999999999" /><rect fill="#0b0b0b" fill-opacity="1.0" height="1.025" width="1.025" x="13.325" y="11.274999999999999" /><rect fill="#0b0b0b" fill-opacity="1.0" height="1.025" width="1.025" x="14.349999999999998" y="11.274999999999999" /><rect fill="#212121" fill-opacity="1.0" height="1.025" width="1.025" x="15.374999999999998" y="11.274999999999999" /><rect fill="#050505" fill-opacity="1.0" height="1.025" width="1.025" x="17.424999999999997" y="11.274999999999999" /><rect fill="#050505" fill-opacity="1.0" height="1.025" width="1.025" x="21.525" y="11.274999999999999" /><rect fill="#212121" fill-opacity="1.0" height="1.025" width="1.025" x="23.575" y="11.274999999999999" /><rect fill="#191718" fill-opacity="1.0" height="1.025" width="1.025" x="25.624999999999996" y="11.274999999999999" /><rect fill="#ff0000" fill-opacity="1.0" height="1.025" width="1.025" x="26.65" y="11.274999999999999" /><rect fill="#0c0a0b" fill-opacity="1.0" height="1.025" width="1.025" x="9.225" y="12.299999999999999" /><rect fill="#00ffff" fill-opacity="1.0" height="1.025" width="1.025" x="11.274999999999999" y="12.299999999999999" /><rect fill="#040404" fill-opacity="1.0" height="1.025" width="1.025" x="12.299999999999999" y="12.299999999999999" /><rect fill="#0a0a0a" fill-opacity="1.0" height="1.025" width="1.025" x="13.325" y="12.299999999999999" /><rect fill="#1f1f21" fill-opacity="1.0" height="1.025" width="1.025" x="15.374999999999998" y="12.299999999999999" /><rect fill="#040406" fill-opacity="1.0" height="1.025" width="1.025" x="18.45" y="12.299999999999999" /><rect fill="#212322" fill-opacity="1.0" height="1.025" width="1.025" x="25.624999999999996" y="12.299999999999999" /><rect fill="#ff0000" fill-opacity="1.0" height="1.025" width="1.025" x="27.674999999999997" y="12.299999999999999" /><rect fill="#00ffff" fill-opacity="1.0" height="1.025" width="1.025" x="11.274999999999999" y="13.325" /><rect fill="#040404" fill-opacity="1.0" height="1.025" width="1.025" x="12.299999999999999" y="13.325" /><rect fill="#211f20" fill-opacity="1.0" height="1.025" width="1.025" x="14.349999999999998" y="13.325" /><rect fill="#010002" fill-opacity="1.0" height="1.025" width="1.025" x="26.65" y="13.325" /><rect fill="#00ffff" fill-opacity="1.0" height="1.025" width="1.025" x="10.25" y="14.349999999999998" /><rect fill="#040404" fill-opacity="1.0" height="1.025" width="1.025" x="12.299999999999999" y="14.349999999999998" /></svg>