<?xml version="1.0" encoding="utf-8" ?>
<svg baseProfile="full" height="37.925" shape-rendering="crispEdges" style="image-rendering: pixelated" version="1.1" width="37.925" xmlns="http://www.w3.org/2000/svg" xmlns:ev="http://www.w3.org/2001/xml-events" xmlns:xlink="http://www.w3.org/1999/xlink"><defs /><rect fill="#161616" fill-opacity="1.0" height="1.025" width="1.025" x="14.349999999999998" y="5.125" /><rect fill="#161616" fill-opacity="1.0" height="1.025" width="1.025" x="15.374999999999998" y="5.125" /><rect fill="#161616" fill-opacity="1.0" height="1.025" width="1.025" x="16.4" y="5.125" /><rect fill="#0a0a0a" fill-opacity="1.0" height="1.025" width="1.025" x="17.424999999999997" y="5.125" /><rect fill="#161616" fill-opacity="1.0" height="1.025" width="1.025" x="18.45" y="5.125" /><rect fill="#0a0a0a" fill-opacity="1.0" height="1.025" width="1.025" x="19.474999999999998" y="5.125" /><rect fill="#161616" fill-opacity="1.0" height="1.025" width="1.025" x="20.5" y="5.125" /><rect fill="#212121" fill-opacity="1.0" height="1.025" width="1.025" x="21.525" y="5.125" /><rect fill="#0a0a0a" fill-opacity="1.0" height="1.025" width="1.025" x="22.549999999999997" y="5.125" /><rect fill="#161616" fill-opacity="1.0" height="1.025" width="1.025" x="13.325" y="6.1499999999999995" /><rect fill="#161616" fill-opacity="1.0" height="1.025" width="1.025" x="14.349999999999998" y="6.1499999999999995" /><rect fill="#161616" fill-opacity="1.0" height="1.025" width="1.025" x="15.374999999999998" y="6.1499999999999995" /><rect fill="#0a0a0a" fill-opacity="1.0" height="1.025" width="1.025" x="16.4" y="6.1499999999999995" /><rect fill="#161616" fill-opacity="1.0" height="1.025" width="1.025" x="17.424999999999997" y="6.1499999999999995" /><rect fill="#161616" fill-opacity="1.0" height="1.025" width="1.025" x="18.45" y="6.1499999999999995" /><rect fill="#161616" fill-opacity="1.0" height="1.025" width="1.025" x="19.474999999999998" y="6.1499999999999995" /><rect fill="#212121" fill-opacity="1.0" height="1.025" width="1.025" x="20.5" y="6.1499999999999995" /><rect fill="#0a0a0a" fill-opacity="1.0" height="1.025" width="1.025" x="21.525" y="6.1499999999999995" /><rect fill="#161616" fill-opacity="1.0" height="1.025" width="1.025" x="22.549999999999997" y="6.1499999999999995" /><rect fill="#212121" fill-opacity="1.0" height="1.025" width="1.025" x="23.575" y="6.1499999999999995" /><rect fill="#161616" fill-opacity="1.0" height="1.025" width="1.025" x="12.299999999999999" y="7.174999999999999" /><rect fill="#161616" fill-opacity="1.0" height="1.025" width="1.025" x="13.325" y="7.174999999999999" /><rect fill="#0a0a0a" fill-opacity="1.0" height="1.025" width="1.025" x="14.349999999999998" y="7.174999999999999" /><rect fill="#161616" fill-opacity="1.0" height="1.025" width="1.025" x="15.374999999999998" y="7.174999999999999" /><rect fill="#161616" fill-opacity="1.0" height="1.025" width="1.025" x="16.4" y="7.174999999999999" /><rect fill="#161616" fill-opacity="1.0" height="1.025" width="1.025" x="17.424999999999997" y="7.174999999999999" /><rect fill="#040301" fill-opacity="1.0" height="1.025" width="1.025" x="18.45" y="7.174999999999999" /><rect fill="#040301" fill-opacity="1.0" height="1.025" width="1.025" x="19.474999999999998" y="7.174999999999999" /><rect fill="#0a0a0a" fill-opacity="1.0" height="1.025" width="1.025" x="20.5" y="7.174999999999999" /><rect fill="#212121" fill-opacity="1.0" height="1.025" width="1.025" x="21.525" y="7.174999999999999" /><rect fill="#212121" fill-opacity="1.0" height="1.025" width="1.025" x="22.549999999999997" y="7.174999999999999" /><rect fill="#0a0a0a" fill-opacity="1.0" height="1.025" width="1.025" x="23.575" y="7.174999999999999" /><rect fill="#0a0a0a" fill-opacity="1.0" height="1.025" width="1.025" x="24.599999999999998" y="7.174999999999999" /><rect fill="#040301" fill-opacity="1.0" height="1.025" width="1.025" x="11.274999999999999" y="8.2" /><rect fill="#161616" fill-opacity="1.0" height="1.025" width="1.025" x="12.299999999999999" y="8.2" /><rect fill="#0a0a0a" fill-opacity="1.0" height="1.025" width="1.025" x="13.325" y="8.2" /><rect fill="#161616" fill-opacity="1.0" height="1.025" width="1.025" x="14.349999999999998" y="8.2" /><rect fill="#161616" fill-opacity="1.0" height="1.025" width="1.025" x="15.374999999999998" y="8.2" /><rect fill="#040301" fill-opacity="1.0" height="1.025" width="1.025" x="16.4" y="8.2" /><rect fill="#040301" fill-opacity="1.0" height="1.025" width="1.025" x="17.424999999999997" y="8.2" /><rect fill="#040301" fill-opacity="1.0" height="1.025" width="1.025" x="18.45" y="8.2" /><rect fill="#212121" fill-opacity="1.0" height="1.025" width="1.025" x="19.474999999999998" y="8.2" /><rect fill="#212121" fill-opacity="1.0" height="1.025" width="1.025" x="20.5" y="8.2" /><rect fill="#0a0a0a" fill-opacity="1.0" height="1.025" width="1.025" x="21.525" y="8.2" /><rect fill="#0a0a0a" fill-opacity="1.0" height="1.025" width="1.025" x="22.549999999999997" y="8.2" /><rect fill="#212121" fill-opacity="1.0" height="1.025" width="1.025" x="23.575" y="8.2" /><rect fill="#0a0a0a" fill-opacity="1.0" height="1.025" width="1.025" x="24.599999999999998" y="8.2" /><rect fill="#040301" fill-opacity="1.0" height="1.025" width="1.025" x="11.274999999999999" y="9.225" /><rect fill="#212121" fill-opacity="1.0" height="1.025" width="1.025" x="12.299999999999999" y="9.225" /><rect fill="#0a0a0a" fill-opacity="1.0" height="1.025" width="1.025" x="13.325" y="9.225" /><rect fill="#161616" fill-opacity="1.0" height="1.025" width="1.025" x="14.349999999999998" y="9.225" /><rect fill="#040301" fill-opacity="1.0" height="1.025" width="1.025" x="15.374999999999998" y="9.225" /><rect fill="#040301" fill-opacity="1.0" height="1.025" width="1.025" x="16.4" y="9.225" /><rect fill="#212121" fill-opacity="1.0" height="1.025" width="1.025" x="17.424999999999997" y="9.225" /><rect fill="#0a0a0a" fill-opacity="1.0" height="1.025" width="1.025" x="18.45" y="9.225" /><rect fill="#0a0a0a" fill-opacity="1.0" height="1.025" width="1.025" x="21.525" y="9.225" /><rect fill="#0a0a0a" fill-opacity="1.0" height="1.025" width="1.025" x="22.549999999999997" y="9.225" /><rect fill="#0a0a0a" fill-opacity="1.0" height="1.025" width="1.025" x="23.575" y="9.225" /><rect fill="#212121" fill-opacity="1.0" height="1.025" width="1.025" x="11.274999999999999" y="10.25" /><rect fill="#040404" fill-opacity="1.0" height="1.025" width="1.025" x="12.299999999999999" y="10.25" /><rect fill="#161616" fill-opacity="1.0" height="1.025" width="1.025" x="13.325" y="10.25" /><rect fill="#161616" fill-opacity="1.0" height="1.025" width="1.025" x="14.349999999999998" y="10.25" /><rect fill="#040301" fill-opacity="1.0" height="1.025" width="1.025" x="15.374999999999998" y="10.25" /><rect fill="#0a0a0a" fill-opacity="1.0" height="1.025" width="1.025" x="23.575" y="10.25" /><rect fill="#000000" fill-opacity="1.0" height="1.025" width="1.025" x="10.25" y="11.274999999999999" /><rect fill="#212121" fill-opacity="1.0" height="1.025" width="1.025" x="11.274999999999999" y="11.274999999999999" /><rect fill="#040404" fill-opacity="1.0" height="1.025" width="1.025" x="12.299999999999999" y="11.274999999999999" /><rect fill="#161616" fill-opacity="1.0" height="1.025" width="1.025" x="13.325" y="11.274999999999999" /><rect fill="#000000" fill-opacity="1.0" height="1.025" width="1.025" x="10.25" y="12.299999999999999" /><rect fill="#212121" fill-opacity="1.0" height="1.025" width="1.025" x="11.274999999999999" y="12.299999999999999" /><rect fill="#040404" fill-opacity="1.0" height="1.025" width="1.025" x="12.299999999999999" y="12.299999999999999" /><rect fill="#0a0a0a" fill-opacity="1.0" height="1.025" width="1.025" x="13.325" y="12.299999999999999" /><rect fill="#000000" fill-opacity="1.0" height="1.025" width="1.025" x="10.25" y="13.325" /><rect fill="#212121" fill-opacity="1.0" height="1.025" width="1.025" x="11.274999999999999" y="13.325" /><rect fill="#000000" fill-opacity="1.0" height="1.025" width="1.025" x="10.25" y="14.349999999999998" /><rect fill="#000000" fill-opacity="1.0" height="1.025" width="1.025" x="10.25" y="15.374999999999998" /><rect fill="#000000" fill-opacity="1.0" height="1.025" width="1.025" x="10.25" y="16.4" /><rect fill="#000000" fill-opacity="1.0" height="1.025" width="1.025" x="10.25" y="17.424999999999997" /><rect fill="#0a0a0a" fill-opacity="1.0" height="1.025" width="1.025" x="11.274999999999999" y="17.424999999999997" /><rect fill="#000000" fill-opacity="1.0" height="1.025" width="1.025" x="10.25" y="18.45" /><rect fill="#0a0a0a" fill-opacity="1.0" height="1.025" width="1.025" x="11.274999999999999" y="18.45" /><rect fill="#212121" fill-opacity="1.0" height="1.025" width="1.025" x="12.299999999999999" y="18.45" /><rect fill="#000000" fill-opacity="1.0" height="1.025" width="1.025" x="10.25" y="19.474999999999998" /><rect fill="#0a0a0a" fill-opacity="1.0" height="1.025" width="1.025" x="11.274999999999999" y="19.474999999999998" /><rect fill="#212121" fill-opacity="1.0" height="1.025" width="1.025" x="12.299999999999999" y="19.474999999999998" /><rect fill="#000000" fill-opacity="1.0" height="1.025" width="1.025" x="10.25" y="20.5" /><rect fill="#0a0a0a" fill-opacity="1.0" height="1.025" width="1.025" x="11.274999999999999" y="20.5" /><rect fill="#212121" fill-opacity="1.0" height="1.025" width="1.025" x="12.299999999999999" y="20.5" /><rect fill="#000000" fill-opacity="1.0" height="1.025" width="1.025" x="10.25" y="21.525" /><rect fill="#0a0a0a" fill-opacity="1.0" height="1.025" width="1.025" x="11.274999999999999" y="21.525" /><rect fill="#212121" fill-opacity="1.0" height="1.025" width="1.025" x="12.299999999999999" y="21.525" /><rect fill="#000000" fill-opacity="1.0" height="1.025" width="1.025" x="10.25" y="22.549999999999997" /><rect fill="#0a0a0a" fill-opacity="1.0" height="1.025" width="1.025" x="11.274999999999999" y="22.549999999999997" /><rect fill="#212121" fill-opacity="1.0" height="1.025" width="1.025" x="12.299999999999999" y="22.549999999999997" /><rect fill="#000000" fill-opacity="1.0" height="1.025" width="1.025" x="10.25" y="23.575" /><rect fill="#0a0a0a" fill-opacity="1.0" height="1.025" width="1.025" x="11.274999999999999" y="23.575" /><rect fill="#212121" fill-opacity="1.0" height="1.025" width="1.025" x="12.299999999999999" y="23.575" /><rect fill="#0a0a0a" fill-opacity="1.0" height="1.025" width="1.025" x="23.575" y="23.575" /><rect fill="#000000" fill-opacity="1.0" height="1.025" width="1.025" x="10.25" y="24.599999999999998" /><rect fill="#0a0a0a" fill-opacity="1.0" height="1.025" width="1.025" x="11.274999999999999" y="24.599999999999998" /><rect fill="#212121" fill-opacity="1.0" height="1.025" width="1.025" x="12.299999999999999" y="24.599999999999998" /><rect fill="#212121" fill-opacity="1.0" height="1.025" width="1.025" x="19.474999999999998" y="24.599999999999998" /><rect fill="#0a0a0a" fill-opacity="1.0" height="1.025" width="1.025" x="20.5" y="24.599999999999998" /><rect fill="#0a0a0a" fill-opacity="1.0" height="1.025" width="1.025" x="21.525" y="24.599999999999998" /><rect fill="#0a0a0a" fill-opacity="1.0" height="1.025" width="1.025" x="22.549999999999997" y="24.599999999999998" /><rect fill="#0a0a0a" fill-opacity="1.0" height="1.025" width="1.025" x="23.575" y="24.599999999999998" /><rect fill="#000000" fill-opacity="1.0" height="1.025" width="1.025" x="10.25" y="25.624999999999996" /><rect fill="#0a0a0a" fill-opacity="1.0" height="1.025" width="1.025" x="11.274999999999999" y="25.624999999999996" /><rect fill="#212121" fill-opacity="1.0" height="1.025" width="1.025" x="12.299999999999999" y="25.624999999999996" /><rect fill="#212121" fill-opacity="1.0" height="1.025" width="1.025" x="19.474999999999998" y="25.624999999999996" /><rect fill="#0a0a0a" fill-opacity="1.0" height="1.025" width="1.025" x="20.5" y="25.624999999999996" /><rect fill="#0a0a0a" fill-opacity="1.0" height="1.025" width="1.025" x="21.525" y="25.624999999999996" /><rect fill="#0a0a0a" fill-opacity="1.0" height="1.025" width="1.025" x="22.549999999999997" y="25.624999999999996" /><rect fill="#0a0a0a" fill-opacity="1.0" height="1.025" width="1.025" x="23.575" y="25.624999999999996" /></svg>