<?xml version="1.0" encoding="utf-8" ?>
<svg baseProfile="full" height="37.925" shape-rendering="crispEdges" style="image-rendering: pixelated" version="1.1" width="37.925" xmlns="http://www.w3.org/2000/svg" xmlns:ev="http://www.w3.org/2001/xml-events" xmlns:xlink="http://www.w3.org/1999/xlink"><defs /><rect fill="#040301" fill-opacity="1.0" height="1.025" width="1.025" x="11.274999999999999" y="9.225" /><rect fill="#212121" fill-opacity="1.0" height="1.025" width="1.025" x="12.299999999999999" y="9.225" /><rect fill="#0a0a0a" fill-opacity="1.0" height="1.025" width="1.025" x="13.325" y="9.225" /><rect fill="#0a0a0a" fill-opacity="1.0" height="1.025" width="1.025" x="24.599999999999998" y="9.225" /><rect fill="#161616" fill-opacity="1.0" height="1.025" width="1.025" x="25.624999999999996" y="9.225" /><rect fill="#040301" fill-opacity="1.0" height="1.025" width="1.025" x="10.25" y="10.25" /><rect fill="#040301" fill-opacity="1.0" height="1.025" width="1.025" x="11.274999999999999" y="10.25" /><rect fill="#161616" fill-opacity="1.0" height="1.025" width="1.025" x="12.299999999999999" y="10.25" /><rect fill="#161616" fill-opacity="1.0" height="1.025" width="1.025" x="13.325" y="10.25" /><rect fill="#161616" fill-opacity="1.0" height="1.025" width="1.025" x="14.349999999999998" y="10.25" /><rect fill="#212121" fill-opacity="1.0" height="1.025" width="1.025" x="24.599999999999998" y="10.25" /><rect fill="#0a0a0a" fill-opacity="1.0" height="1.025" width="1.025" x="25.624999999999996" y="10.25" /><rect fill="#0a0a0a" fill-opacity="1.0" height="1.025" width="1.025" x="26.65" y="10.25" /><rect fill="#040301" fill-opacity="1.0" height="1.025" width="1.025" x="10.25" y="11.274999999999999" /><rect fill="#161616" fill-opacity="1.0" height="1.025" width="1.025" x="11.274999999999999" y="11.274999999999999" /><rect fill="#161616" fill-opacity="1.0" height="1.025" width="1.025" x="12.299999999999999" y="11.274999999999999" /><rect fill="#161616" fill-opacity="1.0" height="1.025" width="1.025" x="13.325" y="11.274999999999999" /><rect fill="#0a0a0a" fill-opacity="1.0" height="1.025" width="1.025" x="14.349999999999998" y="11.274999999999999" /><rect fill="#0a0a0a" fill-opacity="1.0" height="1.025" width="1.025" x="24.599999999999998" y="11.274999999999999" /><rect fill="#161616" fill-opacity="1.0" height="1.025" width="1.025" x="25.624999999999996" y="11.274999999999999" /><rect fill="#212121" fill-opacity="1.0" height="1.025" width="1.025" x="26.65" y="11.274999999999999" /><rect fill="#161616" fill-opacity="1.0" height="1.025" width="1.025" x="10.25" y="12.299999999999999" /><rect fill="#161616" fill-opacity="1.0" height="1.025" width="1.025" x="11.274999999999999" y="12.299999999999999" /><rect fill="#0a0a0a" fill-opacity="1.0" height="1.025" width="1.025" x="12.299999999999999" y="12.299999999999999" /><rect fill="#161616" fill-opacity="1.0" height="1.025" width="1.025" x="13.325" y="12.299999999999999" /><rect fill="#161616" fill-opacity="1.0" height="1.025" width="1.025" x="14.349999999999998" y="12.299999999999999" /><rect fill="#212121" fill-opacity="1.0" height="1.025" width="1.025" x="24.599999999999998" y="12.299999999999999" /><rect fill="#212121" fill-opacity="1.0" height="1.025" width="1.025" x="25.624999999999996" y="12.299999999999999" /><rect fill="#0a0a0a" fill-opacity="1.0" height="1.025" width="1.025" x="26.65" y="12.299999999999999" /><rect fill="#0a0a0a" fill-opacity="1.0" height="1.025" width="1.025" x="11.274999999999999" y="13.325" /><rect fill="#161616" fill-opacity="1.0" height="1.025" width="1.025" x="12.299999999999999" y="13.325" /><rect fill="#161616" fill-opacity="1.0" height="1.025" width="1.025" x="13.325" y="13.325" /><rect fill="#0a0a0a" fill-opacity="1.0" height="1.025" width="1.025" x="24.599999999999998" y="13.325" /><rect fill="#0a0a0a" fill-opacity="1.0" height="1.025" width="1.025" x="25.624999999999996" y="13.325" /><rect fill="#0a0a0a" fill-opacity="1.0" height="1.025" width="1.025" x="24.599999999999998" y="14.349999999999998" /></svg>