<?xml version="1.0" encoding="utf-8" ?>
<svg baseProfile="full" height="37.925" shape-rendering="crispEdges" style="image-rendering: pixelated" version="1.1" width="37.925" xmlns="http://www.w3.org/2000/svg" xmlns:ev="http://www.w3.org/2001/xml-events" xmlns:xlink="http://www.w3.org/1999/xlink"><defs /><rect fill="#00ffff" fill-opacity="1.0" height="1.025" width="1.025" x="12.299999999999999" y="13.325" /><rect fill="#00ffff" fill-opacity="1.0" height="1.025" width="1.025" x="13.325" y="13.325" /><rect fill="#00ffff" fill-opacity="1.0" height="1.025" width="1.025" x="14.349999999999998" y="14.349999999999998" /><rect fill="#00ffff" fill-opacity="1.0" height="1.025" width="1.025" x="15.374999999999998" y="15.374999999999998" /><rect fill="#00ffff" fill-opacity="1.0" height="1.025" width="1.025" x="16.4" y="16.4" /><rect fill="#00ffff" fill-opacity="1.0" height="1.025" width="1.025" x="18.45" y="16.4" /><rect fill="#00ffff" fill-opacity="1.0" height="1.025" width="1.025" x="19.474999999999998" y="16.4" /><rect fill="#00ffff" fill-opacity="1.0" height="1.025" width="1.025" x="20.5" y="16.4" /><rect fill="#00ffff" fill-opacity="1.0" height="1.025" width="1.025" x="21.525" y="16.4" /><rect fill="#00f2f2" fill-opacity="1.0" height="1.025" width="1.025" x="22.549999999999997" y="16.4" /><rect fill="#00ffff" fill-opacity="1.0" height="1.025" width="1.025" x="16.4" y="17.424999999999997" /><rect fill="#00ffff" fill-opacity="1.0" height="1.025" width="1.025" x="17.424999999999997" y="17.424999999999997" /><rect fill="#00f2f2" fill-opacity="1.0" height="1.025" width="1.025" x="18.45" y="17.424999999999997" /><rect fill="#00f2f2" fill-opacity="1.0" height="1.025" width="1.025" x="19.474999999999998" y="17.424999999999997" /><rect fill="#00f2f2" fill-opacity="1.0" height="1.025" width="1.025" x="20.5" y="17.424999999999997" /><rect fill="#00f2f2" fill-opacity="1.0" height="1.025" width="1.025" x="21.525" y="17.424999999999997" /><rect fill="#00f2f2" fill-opacity="1.0" height="1.025" width="1.025" x="22.549999999999997" y="17.424999999999997" /><rect fill="#00e5e5" fill-opacity="1.0" height="1.025" width="1.025" x="23.575" y="17.424999999999997" /><rect fill="#00f2f2" fill-opacity="1.0" height="1.025" width="1.025" x="24.599999999999998" y="17.424999999999997" /><rect fill="#00ffff" fill-opacity="1.0" height="1.025" width="1.025" x="16.4" y="18.45" /><rect fill="#00f2f2" fill-opacity="1.0" height="1.025" width="1.025" x="17.424999999999997" y="18.45" /><rect fill="#00d8d8" fill-opacity="1.0" height="1.025" width="1.025" x="18.45" y="18.45" /><rect fill="#00d2d2" fill-opacity="1.0" height="1.025" width="1.025" x="19.474999999999998" y="18.45" /><rect fill="#00d2d2" fill-opacity="1.0" height="1.025" width="1.025" x="20.5" y="18.45" /><rect fill="#00d2d2" fill-opacity="1.0" height="1.025" width="1.025" x="21.525" y="18.45" /><rect fill="#00d2d2" fill-opacity="1.0" height="1.025" width="1.025" x="22.549999999999997" y="18.45" /><rect fill="#00dcdc" fill-opacity="1.0" height="1.025" width="1.025" x="23.575" y="18.45" /><rect fill="#00f2f2" fill-opacity="1.0" height="1.025" width="1.025" x="24.599999999999998" y="18.45" /><rect fill="#00ffff" fill-opacity="1.0" height="1.025" width="1.025" x="16.4" y="19.474999999999998" /><rect fill="#00f2f2" fill-opacity="1.0" height="1.025" width="1.025" x="17.424999999999997" y="19.474999999999998" /><rect fill="#00e5e5" fill-opacity="1.0" height="1.025" width="1.025" x="18.45" y="19.474999999999998" /><rect fill="#00e5e5" fill-opacity="1.0" height="1.025" width="1.025" x="19.474999999999998" y="19.474999999999998" /><rect fill="#00e5e5" fill-opacity="1.0" height="1.025" width="1.025" x="20.5" y="19.474999999999998" /><rect fill="#00e5e5" fill-opacity="1.0" height="1.025" width="1.025" x="21.525" y="19.474999999999998" /><rect fill="#00e5e5" fill-opacity="1.0" height="1.025" width="1.025" x="22.549999999999997" y="19.474999999999998" /><rect fill="#00e5e5" fill-opacity="1.0" height="1.025" width="1.025" x="23.575" y="19.474999999999998" /><rect fill="#00f2f2" fill-opacity="1.0" height="1.025" width="1.025" x="24.599999999999998" y="19.474999999999998" /><rect fill="#00ffff" fill-opacity="1.0" height="1.025" width="1.025" x="16.4" y="20.5" /><rect fill="#00d8d8" fill-opacity="1.0" height="1.025" width="1.025" x="17.424999999999997" y="20.5" /><rect fill="#00d2d2" fill-opacity="1.0" height="1.025" width="1.025" x="18.45" y="20.5" /><rect fill="#00d2d2" fill-opacity="1.0" height="1.025" width="1.025" x="19.474999999999998" y="20.5" /><rect fill="#00d2d2" fill-opacity="1.0" height="1.025" width="1.025" x="20.5" y="20.5" /><rect fill="#00d2d2" fill-opacity="1.0" height="1.025" width="1.025" x="21.525" y="20.5" /><rect fill="#00d2d2" fill-opacity="1.0" height="1.025" width="1.025" x="22.549999999999997" y="20.5" /><rect fill="#00dcdc" fill-opacity="1.0" height="1.025" width="1.025" x="23.575" y="20.5" /><rect fill="#00e5e5" fill-opacity="1.0" height="1.025" width="1.025" x="24.599999999999998" y="20.5" /><rect fill="#00ffff" fill-opacity="1.0" height="1.025" width="1.025" x="16.4" y="21.525" /><rect fill="#00f2f2" fill-opacity="1.0" height="1.025" width="1.025" x="17.424999999999997" y="21.525" /><rect fill="#00e5e5" fill-opacity="1.0" height="1.025" width="1.025" x="18.45" y="21.525" /><rect fill="#00e5e5" fill-opacity="1.0" height="1.025" width="1.025" x="19.474999999999998" y="21.525" /><rect fill="#00e5e5" fill-opacity="1.0" height="1.025" width="1.025" x="20.5" y="21.525" /><rect fill="#00e5e5" fill-opacity="1.0" height="1.025" width="1.025" x="21.525" y="21.525" /><rect fill="#00e5e5" fill-opacity="1.0" height="1.025" width="1.025" x="22.549999999999997" y="21.525" /><rect fill="#00e5e5" fill-opacity="1.0" height="1.025" width="1.025" x="23.575" y="21.525" /><rect fill="#00f2f2" fill-opacity="1.0" height="1.025" width="1.025" x="24.599999999999998" y="21.525" /><rect fill="#00ffff" fill-opacity="1.0" height="1.025" width="1.025" x="12.299999999999999" y="22.549999999999997" /><rect fill="#00ffff" fill-opacity="1.0" height="1.025" width="1.025" x="13.325" y="22.549999999999997" /><rect fill="#00ffff" fill-opacity="1.0" height="1.025" width="1.025" x="14.349999999999998" y="22.549999999999997" /><rect fill="#00ffff" fill-opacity="1.0" height="1.025" width="1.025" x="15.374999999999998" y="22.549999999999997" /><rect fill="#00ffff" fill-opacity="1.0" height="1.025" width="1.025" x="16.4" y="22.549999999999997" /><rect fill="#00d8d8" fill-opacity="1.0" height="1.025" width="1.025" x="17.424999999999997" y="22.549999999999997" /><rect fill="#00d2d2" fill-opacity="1.0" height="1.025" width="1.025" x="18.45" y="22.549999999999997" /><rect fill="#00d2d2" fill-opacity="1.0" height="1.025" width="1.025" x="19.474999999999998" y="22.549999999999997" /><rect fill="#00d2d2" fill-opacity="1.0" height="1.025" width="1.025" x="20.5" y="22.549999999999997" /><rect fill="#00d2d2" fill-opacity="1.0" height="1.025" width="1.025" x="21.525" y="22.549999999999997" /><rect fill="#00d2d2" fill-opacity="1.0" height="1.025" width="1.025" x="22.549999999999997" y="22.549999999999997" /><rect fill="#00dcdc" fill-opacity="1.0" height="1.025" width="1.025" x="23.575" y="22.549999999999997" /><rect fill="#00e5e5" fill-opacity="1.0" height="1.025" width="1.025" x="24.599999999999998" y="22.549999999999997" /><rect fill="#00ffff" fill-opacity="1.0" height="1.025" width="1.025" x="16.4" y="23.575" /><rect fill="#00f2f2" fill-opacity="1.0" height="1.025" width="1.025" x="17.424999999999997" y="23.575" /><rect fill="#00f2f2" fill-opacity="1.0" height="1.025" width="1.025" x="18.45" y="23.575" /><rect fill="#00e5e5" fill-opacity="1.0" height="1.025" width="1.025" x="19.474999999999998" y="23.575" /><rect fill="#00e5e5" fill-opacity="1.0" height="1.025" width="1.025" x="20.5" y="23.575" /><rect fill="#00e5e5" fill-opacity="1.0" height="1.025" width="1.025" x="21.525" y="23.575" /><rect fill="#00e5e5" fill-opacity="1.0" height="1.025" width="1.025" x="22.549999999999997" y="23.575" /><rect fill="#00f2f2" fill-opacity="1.0" height="1.025" width="1.025" x="23.575" y="23.575" /><rect fill="#00ffff" fill-opacity="1.0" height="1.025" width="1.025" x="17.424999999999997" y="24.599999999999998" /><rect fill="#00f2f2" fill-opacity="1.0" height="1.025" width="1.025" x="18.45" y="24.599999999999998" /><rect fill="#00f2f2" fill-opacity="1.0" height="1.025" width="1.025" x="19.474999999999998" y="24.599999999999998" /><rect fill="#00f2f2" fill-opacity="1.0" height="1.025" width="1.025" x="20.5" y="24.599999999999998" /><rect fill="#00f2f2" fill-opacity="1.0" height="1.025" width="1.025" x="21.525" y="24.599999999999998" /><rect fill="#00f2f2" fill-opacity="1.0" height="1.025" width="1.025" x="22.549999999999997" y="24.599999999999998" /></svg>