<?xml version="1.0" encoding="utf-8" ?>
<svg baseProfile="full" height="37.925" shape-rendering="crispEdges" style="image-rendering: pixelated" version="1.1" width="37.925" xmlns="http://www.w3.org/2000/svg" xmlns:ev="http://www.w3.org/2001/xml-events" xmlns:xlink="http://www.w3.org/1999/xlink"><defs /><rect fill="#f7f7f7" fill-opacity="0.5019607843137255" height="1.025" width="1.025" x="31.775" y="1.025" /><rect fill="#f7f7f7" fill-opacity="0.5019607843137255" height="1.025" width="1.025" x="31.775" y="2.05" /><rect fill="#f7f7f7" fill-opacity="0.5019607843137255" height="1.025" width="1.025" x="31.775" y="3.0749999999999997" /><rect fill="#f7f7f7" fill-opacity="0.5019607843137255" height="1.025" width="1.025" x="31.775" y="4.1" /><rect fill="#f7f7f7" fill-opacity="0.5019607843137255" height="1.025" width="1.025" x="31.775" y="5.125" /><rect fill="#f7f7f7" fill-opacity="0.5019607843137255" height="1.025" width="1.025" x="32.8" y="5.125" /><rect fill="#f7f7f7" fill-opacity="0.7529411764705882" height="1.025" width="1.025" x="32.8" y="6.1499999999999995" /><rect fill="#f7f7f7" fill-opacity="0.5019607843137255" height="1.025" width="1.025" x="32.8" y="7.174999999999999" /><rect fill="#f7f7f7" fill-opacity="0.5019607843137255" height="1.025" width="1.025" x="32.8" y="9.225" /><rect fill="#f7f7f7" fill-opacity="0.8784313725490196" height="1.025" width="1.025" x="30.749999999999996" y="11.274999999999999" /><rect fill="#f7f7f7" fill-opacity="0.7529411764705882" height="1.025" width="1.025" x="30.749999999999996" y="13.325" /><rect fill="#f7f7f7" fill-opacity="0.8784313725490196" height="1.025" width="1.025" x="30.749999999999996" y="16.4" /><rect fill="#f7f7f7" fill-opacity="0.8784313725490196" height="1.025" width="1.025" x="30.749999999999996" y="19.474999999999998" /><rect fill="#343434" fill-opacity="1.0" height="1.025" width="1.025" x="22.549999999999997" y="20.5" /><rect fill="#343434" fill-opacity="1.0" height="1.025" width="1.025" x="23.575" y="20.5" /><rect fill="#2d2d2d" fill-opacity="1.0" height="1.025" width="1.025" x="24.599999999999998" y="20.5" /><rect fill="#1e1e1e" fill-opacity="1.0" height="1.025" width="1.025" x="24.599999999999998" y="21.525" /><rect fill="#353535" fill-opacity="1.0" height="1.025" width="1.025" x="25.624999999999996" y="21.525" /><rect fill="#282828" fill-opacity="1.0" height="1.025" width="1.025" x="29.724999999999998" y="21.525" /><rect fill="#202020" fill-opacity="1.0" height="1.025" width="1.025" x="30.749999999999996" y="21.525" /><rect fill="#1c1c1c" fill-opacity="1.0" height="1.025" width="1.025" x="31.775" y="21.525" /><rect fill="#141414" fill-opacity="1.0" height="1.025" width="1.025" x="32.8" y="21.525" /><rect fill="#1f1f1f" fill-opacity="1.0" height="1.025" width="1.025" x="24.599999999999998" y="22.549999999999997" /><rect fill="#353535" fill-opacity="1.0" height="1.025" width="1.025" x="25.624999999999996" y="22.549999999999997" /><rect fill="#474747" fill-opacity="1.0" height="1.025" width="1.025" x="29.724999999999998" y="22.549999999999997" /><rect fill="#353535" fill-opacity="1.0" height="1.025" width="1.025" x="30.749999999999996" y="22.549999999999997" /><rect fill="#333333" fill-opacity="1.0" height="1.025" width="1.025" x="31.775" y="22.549999999999997" /><rect fill="#252525" fill-opacity="1.0" height="1.025" width="1.025" x="32.8" y="22.549999999999997" /><rect fill="#1e1e1e" fill-opacity="1.0" height="1.025" width="1.025" x="24.599999999999998" y="23.575" /><rect fill="#353535" fill-opacity="1.0" height="1.025" width="1.025" x="25.624999999999996" y="23.575" /><rect fill="#464646" fill-opacity="1.0" height="1.025" width="1.025" x="29.724999999999998" y="23.575" /><rect fill="#353535" fill-opacity="1.0" height="1.025" width="1.025" x="30.749999999999996" y="23.575" /><rect fill="#343434" fill-opacity="1.0" height="1.025" width="1.025" x="31.775" y="23.575" /><rect fill="#252525" fill-opacity="1.0" height="1.025" width="1.025" x="32.8" y="23.575" /><rect fill="#1e1e1e" fill-opacity="1.0" height="1.025" width="1.025" x="25.624999999999996" y="24.599999999999998" /><rect fill="#373737" fill-opacity="1.0" height="1.025" width="1.025" x="26.65" y="24.599999999999998" /><rect fill="#353535" fill-opacity="1.0" height="1.025" width="1.025" x="27.674999999999997" y="24.599999999999998" /><rect fill="#474747" fill-opacity="1.0" height="1.025" width="1.025" x="28.699999999999996" y="24.599999999999998" /><rect fill="#353535" fill-opacity="1.0" height="1.025" width="1.025" x="29.724999999999998" y="24.599999999999998" /><rect fill="#353535" fill-opacity="1.0" height="1.025" width="1.025" x="30.749999999999996" y="24.599999999999998" /><rect fill="#343434" fill-opacity="1.0" height="1.025" width="1.025" x="31.775" y="24.599999999999998" /><rect fill="#252525" fill-opacity="1.0" height="1.025" width="1.025" x="32.8" y="24.599999999999998" /><rect fill="#181818" fill-opacity="1.0" height="1.025" width="1.025" x="26.65" y="25.624999999999996" /><rect fill="#1f1f1f" fill-opacity="1.0" height="1.025" width="1.025" x="27.674999999999997" y="25.624999999999996" /><rect fill="#353535" fill-opacity="1.0" height="1.025" width="1.025" x="28.699999999999996" y="25.624999999999996" /><rect fill="#353535" fill-opacity="1.0" height="1.025" width="1.025" x="29.724999999999998" y="25.624999999999996" /><rect fill="#353535" fill-opacity="1.0" height="1.025" width="1.025" x="30.749999999999996" y="25.624999999999996" /><rect fill="#343434" fill-opacity="1.0" height="1.025" width="1.025" x="31.775" y="25.624999999999996" /><rect fill="#262626" fill-opacity="1.0" height="1.025" width="1.025" x="32.8" y="25.624999999999996" /><rect fill="#1e1e1e" fill-opacity="1.0" height="1.025" width="1.025" x="28.699999999999996" y="26.65" /><rect fill="#1e1e1e" fill-opacity="1.0" height="1.025" width="1.025" x="29.724999999999998" y="26.65" /><rect fill="#1e1e1e" fill-opacity="1.0" height="1.025" width="1.025" x="30.749999999999996" y="26.65" /><rect fill="#1b1b1b" fill-opacity="1.0" height="1.025" width="1.025" x="31.775" y="26.65" /></svg>