<?xml version="1.0" encoding="utf-8" ?>
<svg baseProfile="full" height="37.925" shape-rendering="crispEdges" style="image-rendering: pixelated" version="1.1" width="37.925" xmlns="http://www.w3.org/2000/svg" xmlns:ev="http://www.w3.org/2001/xml-events" xmlns:xlink="http://www.w3.org/1999/xlink"><defs /><rect fill="#ffffff" fill-opacity="0.2" height="1.025" width="1.025" x="24.599999999999998" y="11.274999999999999" /><rect fill="#ffffff" fill-opacity="0.2" height="1.025" width="1.025" x="24.599999999999998" y="12.299999999999999" /><rect fill="#ffffff" fill-opacity="0.2" height="1.025" width="1.025" x="24.599999999999998" y="13.325" /><rect fill="#ffffff" fill-opacity="0.2" height="1.025" width="1.025" x="25.624999999999996" y="13.325" /><rect fill="#ffffff" fill-opacity="0.2" height="1.025" width="1.025" x="27.674999999999997" y="13.325" /><rect fill="#ffffff" fill-opacity="0.2" height="1.025" width="1.025" x="25.624999999999996" y="14.349999999999998" /><rect fill="#ffffff" fill-opacity="0.2" height="1.025" width="1.025" x="26.65" y="14.349999999999998" /><rect fill="#ffffff" fill-opacity="0.3607843137254902" height="1.025" width="1.025" x="28.699999999999996" y="14.349999999999998" /><rect fill="#ffffff" fill-opacity="0.2" height="1.025" width="1.025" x="29.724999999999998" y="14.349999999999998" /><rect fill="#ffffff" fill-opacity="0.2" height="1.025" width="1.025" x="26.65" y="15.374999999999998" /><rect fill="#ffffff" fill-opacity="0.2" height="1.025" width="1.025" x="28.699999999999996" y="15.374999999999998" /><rect fill="#ffffff" fill-opacity="0.2" height="1.025" width="1.025" x="26.65" y="16.4" /><rect fill="#ffffff" fill-opacity="0.2" height="1.025" width="1.025" x="27.674999999999997" y="16.4" /><rect fill="#ffffff" fill-opacity="0.6" height="1.025" width="1.025" x="28.699999999999996" y="16.4" /><rect fill="#ffffff" fill-opacity="0.5019607843137255" height="1.025" width="1.025" x="27.674999999999997" y="17.424999999999997" /><rect fill="#ffffff" fill-opacity="0.2" height="1.025" width="1.025" x="28.699999999999996" y="17.424999999999997" /><rect fill="#ffffff" fill-opacity="0.5019607843137255" height="1.025" width="1.025" x="27.674999999999997" y="18.45" /><rect fill="#ffffff" fill-opacity="0.2" height="1.025" width="1.025" x="28.699999999999996" y="18.45" /><rect fill="#ffffff" fill-opacity="0.5019607843137255" height="1.025" width="1.025" x="28.699999999999996" y="19.474999999999998" /><rect fill="#791c3b" fill-opacity="0.4980392156862745" height="1.025" width="1.025" x="20.5" y="20.5" /><rect fill="#7a1d3c" fill-opacity="1.0" height="1.025" width="1.025" x="21.525" y="20.5" /><rect fill="#935e36" fill-opacity="1.0" height="1.025" width="1.025" x="22.549999999999997" y="20.5" /><rect fill="#000000" fill-opacity="1.0" height="1.025" width="1.025" x="23.575" y="20.5" /><rect fill="#000000" fill-opacity="1.0" height="1.025" width="1.025" x="24.599999999999998" y="20.5" /><rect fill="#000000" fill-opacity="1.0" height="1.025" width="1.025" x="25.624999999999996" y="20.5" /><rect fill="#000000" fill-opacity="1.0" height="1.025" width="1.025" x="26.65" y="20.5" /><rect fill="#000000" fill-opacity="1.0" height="1.025" width="1.025" x="27.674999999999997" y="20.5" /><rect fill="#00ffff" fill-opacity="1.0" height="1.025" width="1.025" x="28.699999999999996" y="20.5" /></svg>