<?xml version="1.0" encoding="utf-8" ?>
<svg baseProfile="full" height="37.925" shape-rendering="crispEdges" style="image-rendering: pixelated" version="1.1" width="37.925" xmlns="http://www.w3.org/2000/svg" xmlns:ev="http://www.w3.org/2001/xml-events" xmlns:xlink="http://www.w3.org/1999/xlink"><defs /><rect fill="#000000" fill-opacity="1.0" height="1.025" width="1.025" x="12.299999999999999" y="27.674999999999997" /><rect fill="#000000" fill-opacity="1.0" height="1.025" width="1.025" x="11.274999999999999" y="28.699999999999996" /><rect fill="#272727" fill-opacity="1.0" height="1.025" width="1.025" x="12.299999999999999" y="28.699999999999996" /><rect fill="#161616" fill-opacity="1.0" height="1.025" width="1.025" x="13.325" y="28.699999999999996" /><rect fill="#000000" fill-opacity="1.0" height="1.025" width="1.025" x="19.474999999999998" y="28.699999999999996" /><rect fill="#000000" fill-opacity="1.0" height="1.025" width="1.025" x="20.5" y="28.699999999999996" /><rect fill="#000000" fill-opacity="1.0" height="1.025" width="1.025" x="21.525" y="28.699999999999996" /><rect fill="#000000" fill-opacity="1.0" height="1.025" width="1.025" x="9.225" y="29.724999999999998" /><rect fill="#000000" fill-opacity="1.0" height="1.025" width="1.025" x="10.25" y="29.724999999999998" /><rect fill="#1a1a1a" fill-opacity="1.0" height="1.025" width="1.025" x="11.274999999999999" y="29.724999999999998" /><rect fill="#232323" fill-opacity="1.0" height="1.025" width="1.025" x="12.299999999999999" y="29.724999999999998" /><rect fill="#242424" fill-opacity="1.0" height="1.025" width="1.025" x="13.325" y="29.724999999999998" /><rect fill="#000000" fill-opacity="1.0" height="1.025" width="1.025" x="14.349999999999998" y="29.724999999999998" /><rect fill="#000000" fill-opacity="1.0" height="1.025" width="1.025" x="19.474999999999998" y="29.724999999999998" /><rect fill="#252525" fill-opacity="1.0" height="1.025" width="1.025" x="20.5" y="29.724999999999998" /><rect fill="#212121" fill-opacity="1.0" height="1.025" width="1.025" x="21.525" y="29.724999999999998" /><rect fill="#000000" fill-opacity="1.0" height="1.025" width="1.025" x="22.549999999999997" y="29.724999999999998" /><rect fill="#000000" fill-opacity="1.0" height="1.025" width="1.025" x="23.575" y="29.724999999999998" /><rect fill="#000000" fill-opacity="1.0" height="1.025" width="1.025" x="7.174999999999999" y="30.749999999999996" /><rect fill="#000000" fill-opacity="1.0" height="1.025" width="1.025" x="8.2" y="30.749999999999996" /><rect fill="#1f1f1f" fill-opacity="1.0" height="1.025" width="1.025" x="9.225" y="30.749999999999996" /><rect fill="#212121" fill-opacity="1.0" height="1.025" width="1.025" x="10.25" y="30.749999999999996" /><rect fill="#1f1f1f" fill-opacity="1.0" height="1.025" width="1.025" x="11.274999999999999" y="30.749999999999996" /><rect fill="#272727" fill-opacity="1.0" height="1.025" width="1.025" x="12.299999999999999" y="30.749999999999996" /><rect fill="#272727" fill-opacity="1.0" height="1.025" width="1.025" x="13.325" y="30.749999999999996" /><rect fill="#282828" fill-opacity="1.0" height="1.025" width="1.025" x="14.349999999999998" y="30.749999999999996" /><rect fill="#000000" fill-opacity="1.0" height="1.025" width="1.025" x="15.374999999999998" y="30.749999999999996" /><rect fill="#000000" fill-opacity="1.0" height="1.025" width="1.025" x="19.474999999999998" y="30.749999999999996" /><rect fill="#282828" fill-opacity="1.0" height="1.025" width="1.025" x="20.5" y="30.749999999999996" /><rect fill="#272727" fill-opacity="1.0" height="1.025" width="1.025" x="21.525" y="30.749999999999996" /><rect fill="#232323" fill-opacity="1.0" height="1.025" width="1.025" x="22.549999999999997" y="30.749999999999996" /><rect fill="#1f1f1f" fill-opacity="1.0" height="1.025" width="1.025" x="23.575" y="30.749999999999996" /><rect fill="#000000" fill-opacity="1.0" height="1.025" width="1.025" x="24.599999999999998" y="30.749999999999996" /><rect fill="#000000" fill-opacity="1.0" height="1.025" width="1.025" x="25.624999999999996" y="30.749999999999996" /><rect fill="#000000" fill-opacity="1.0" height="1.025" width="1.025" x="6.1499999999999995" y="31.775" /><rect fill="#000000" fill-opacity="1.0" height="1.025" width="1.025" x="7.174999999999999" y="31.775" /><rect fill="#1d1d1d" fill-opacity="1.0" height="1.025" width="1.025" x="8.2" y="31.775" /><rect fill="#232323" fill-opacity="1.0" height="1.025" width="1.025" x="9.225" y="31.775" /><rect fill="#232323" fill-opacity="1.0" height="1.025" width="1.025" x="10.25" y="31.775" /><rect fill="#212121" fill-opacity="1.0" height="1.025" width="1.025" x="11.274999999999999" y="31.775" /><rect fill="#242424" fill-opacity="1.0" height="1.025" width="1.025" x="12.299999999999999" y="31.775" /><rect fill="#252525" fill-opacity="1.0" height="1.025" width="1.025" x="13.325" y="31.775" /><rect fill="#272727" fill-opacity="1.0" height="1.025" width="1.025" x="14.349999999999998" y="31.775" /><rect fill="#252525" fill-opacity="1.0" height="1.025" width="1.025" x="15.374999999999998" y="31.775" /><rect fill="#000000" fill-opacity="1.0" height="1.025" width="1.025" x="16.4" y="31.775" /><rect fill="#000000" fill-opacity="1.0" height="1.025" width="1.025" x="18.45" y="31.775" /><rect fill="#272727" fill-opacity="1.0" height="1.025" width="1.025" x="19.474999999999998" y="31.775" /><rect fill="#272727" fill-opacity="1.0" height="1.025" width="1.025" x="20.5" y="31.775" /><rect fill="#272727" fill-opacity="1.0" height="1.025" width="1.025" x="21.525" y="31.775" /><rect fill="#242424" fill-opacity="1.0" height="1.025" width="1.025" x="22.549999999999997" y="31.775" /><rect fill="#232323" fill-opacity="1.0" height="1.025" width="1.025" x="23.575" y="31.775" /><rect fill="#242424" fill-opacity="1.0" height="1.025" width="1.025" x="24.599999999999998" y="31.775" /><rect fill="#1f1f1f" fill-opacity="1.0" height="1.025" width="1.025" x="25.624999999999996" y="31.775" /><rect fill="#000000" fill-opacity="1.0" height="1.025" width="1.025" x="26.65" y="31.775" /><rect fill="#000000" fill-opacity="1.0" height="1.025" width="1.025" x="5.125" y="32.8" /><rect fill="#131313" fill-opacity="1.0" height="1.025" width="1.025" x="6.1499999999999995" y="32.8" /><rect fill="#121212" fill-opacity="1.0" height="1.025" width="1.025" x="7.174999999999999" y="32.8" /><rect fill="#1a1a1a" fill-opacity="1.0" height="1.025" width="1.025" x="8.2" y="32.8" /><rect fill="#212121" fill-opacity="1.0" height="1.025" width="1.025" x="9.225" y="32.8" /><rect fill="#212121" fill-opacity="1.0" height="1.025" width="1.025" x="10.25" y="32.8" /><rect fill="#1d1d1d" fill-opacity="1.0" height="1.025" width="1.025" x="11.274999999999999" y="32.8" /><rect fill="#232323" fill-opacity="1.0" height="1.025" width="1.025" x="12.299999999999999" y="32.8" /><rect fill="#242424" fill-opacity="1.0" height="1.025" width="1.025" x="13.325" y="32.8" /><rect fill="#252525" fill-opacity="1.0" height="1.025" width="1.025" x="14.349999999999998" y="32.8" /><rect fill="#242424" fill-opacity="1.0" height="1.025" width="1.025" x="15.374999999999998" y="32.8" /><rect fill="#242424" fill-opacity="1.0" height="1.025" width="1.025" x="16.4" y="32.8" /><rect fill="#000000" fill-opacity="1.0" height="1.025" width="1.025" x="17.424999999999997" y="32.8" /><rect fill="#252525" fill-opacity="1.0" height="1.025" width="1.025" x="18.45" y="32.8" /><rect fill="#252525" fill-opacity="1.0" height="1.025" width="1.025" x="19.474999999999998" y="32.8" /><rect fill="#242424" fill-opacity="1.0" height="1.025" width="1.025" x="20.5" y="32.8" /><rect fill="#242424" fill-opacity="1.0" height="1.025" width="1.025" x="21.525" y="32.8" /><rect fill="#232323" fill-opacity="1.0" height="1.025" width="1.025" x="22.549999999999997" y="32.8" /><rect fill="#232323" fill-opacity="1.0" height="1.025" width="1.025" x="23.575" y="32.8" /><rect fill="#1f1f1f" fill-opacity="1.0" height="1.025" width="1.025" x="24.599999999999998" y="32.8" /><rect fill="#232323" fill-opacity="1.0" height="1.025" width="1.025" x="25.624999999999996" y="32.8" /><rect fill="#1a1a1a" fill-opacity="1.0" height="1.025" width="1.025" x="26.65" y="32.8" /><rect fill="#000000" fill-opacity="1.0" height="1.025" width="1.025" x="27.674999999999997" y="32.8" /><rect fill="#000000" fill-opacity="1.0" height="1.025" width="1.025" x="5.125" y="33.824999999999996" /><rect fill="#121212" fill-opacity="1.0" height="1.025" width="1.025" x="6.1499999999999995" y="33.824999999999996" /><rect fill="#0c0c0c" fill-opacity="1.0" height="1.025" width="1.025" x="7.174999999999999" y="33.824999999999996" /><rect fill="#1a1a1a" fill-opacity="1.0" height="1.025" width="1.025" x="8.2" y="33.824999999999996" /><rect fill="#131313" fill-opacity="1.0" height="1.025" width="1.025" x="9.225" y="33.824999999999996" /><rect fill="#000000" fill-opacity="1.0" height="1.025" width="1.025" x="10.25" y="33.824999999999996" /><rect fill="#161616" fill-opacity="1.0" height="1.025" width="1.025" x="11.274999999999999" y="33.824999999999996" /><rect fill="#1f1f1f" fill-opacity="1.0" height="1.025" width="1.025" x="12.299999999999999" y="33.824999999999996" /><rect fill="#232323" fill-opacity="1.0" height="1.025" width="1.025" x="13.325" y="33.824999999999996" /><rect fill="#242424" fill-opacity="1.0" height="1.025" width="1.025" x="14.349999999999998" y="33.824999999999996" /><rect fill="#232323" fill-opacity="1.0" height="1.025" width="1.025" x="15.374999999999998" y="33.824999999999996" /><rect fill="#232323" fill-opacity="1.0" height="1.025" width="1.025" x="16.4" y="33.824999999999996" /><rect fill="#242424" fill-opacity="1.0" height="1.025" width="1.025" x="17.424999999999997" y="33.824999999999996" /><rect fill="#212121" fill-opacity="1.0" height="1.025" width="1.025" x="18.45" y="33.824999999999996" /><rect fill="#232323" fill-opacity="1.0" height="1.025" width="1.025" x="19.474999999999998" y="33.824999999999996" /><rect fill="#232323" fill-opacity="1.0" height="1.025" width="1.025" x="20.5" y="33.824999999999996" /><rect fill="#232323" fill-opacity="1.0" height="1.025" width="1.025" x="21.525" y="33.824999999999996" /><rect fill="#232323" fill-opacity="1.0" height="1.025" width="1.025" x="22.549999999999997" y="33.824999999999996" /><rect fill="#1a1a1a" fill-opacity="1.0" height="1.025" width="1.025" x="23.575" y="33.824999999999996" /><rect fill="#000000" fill-opacity="1.0" height="1.025" width="1.025" x="24.599999999999998" y="33.824999999999996" /><rect fill="#1a1a1a" fill-opacity="1.0" height="1.025" width="1.025" x="25.624999999999996" y="33.824999999999996" /><rect fill="#191919" fill-opacity="1.0" height="1.025" width="1.025" x="26.65" y="33.824999999999996" /><rect fill="#000000" fill-opacity="1.0" height="1.025" width="1.025" x="27.674999999999997" y="33.824999999999996" /><rect fill="#000000" fill-opacity="1.0" height="1.025" width="1.025" x="5.125" y="34.849999999999994" /><rect fill="#0c0c0c" fill-opacity="1.0" height="1.025" width="1.025" x="6.1499999999999995" y="34.849999999999994" /><rect fill="#0b0b0b" fill-opacity="1.0" height="1.025" width="1.025" x="7.174999999999999" y="34.849999999999994" /><rect fill="#161616" fill-opacity="1.0" height="1.025" width="1.025" x="8.2" y="34.849999999999994" /><rect fill="#000000" fill-opacity="1.0" height="1.025" width="1.025" x="9.225" y="34.849999999999994" /><rect fill="#000000" fill-opacity="1.0" height="1.025" width="1.025" x="10.25" y="34.849999999999994" /><rect fill="#000000" fill-opacity="1.0" height="1.025" width="1.025" x="11.274999999999999" y="34.849999999999994" /><rect fill="#1a1a1a" fill-opacity="1.0" height="1.025" width="1.025" x="12.299999999999999" y="34.849999999999994" /><rect fill="#191919" fill-opacity="1.0" height="1.025" width="1.025" x="13.325" y="34.849999999999994" /><rect fill="#1d1d1d" fill-opacity="1.0" height="1.025" width="1.025" x="14.349999999999998" y="34.849999999999994" /><rect fill="#212121" fill-opacity="1.0" height="1.025" width="1.025" x="15.374999999999998" y="34.849999999999994" /><rect fill="#212121" fill-opacity="1.0" height="1.025" width="1.025" x="16.4" y="34.849999999999994" /><rect fill="#212121" fill-opacity="1.0" height="1.025" width="1.025" x="17.424999999999997" y="34.849999999999994" /><rect fill="#1a1a1a" fill-opacity="1.0" height="1.025" width="1.025" x="18.45" y="34.849999999999994" /><rect fill="#1f1f1f" fill-opacity="1.0" height="1.025" width="1.025" x="19.474999999999998" y="34.849999999999994" /><rect fill="#232323" fill-opacity="1.0" height="1.025" width="1.025" x="20.5" y="34.849999999999994" /><rect fill="#1f1f1f" fill-opacity="1.0" height="1.025" width="1.025" x="21.525" y="34.849999999999994" /><rect fill="#1a1a1a" fill-opacity="1.0" height="1.025" width="1.025" x="22.549999999999997" y="34.849999999999994" /><rect fill="#050505" fill-opacity="1.0" height="1.025" width="1.025" x="23.575" y="34.849999999999994" /><rect fill="#000000" fill-opacity="1.0" height="1.025" width="1.025" x="24.599999999999998" y="34.849999999999994" /><rect fill="#131313" fill-opacity="1.0" height="1.025" width="1.025" x="25.624999999999996" y="34.849999999999994" /><rect fill="#0e0e0e" fill-opacity="1.0" height="1.025" width="1.025" x="26.65" y="34.849999999999994" /><rect fill="#000000" fill-opacity="1.0" height="1.025" width="1.025" x="27.674999999999997" y="34.849999999999994" /><rect fill="#000000" fill-opacity="1.0" height="1.025" width="1.025" x="5.125" y="35.875" /><rect fill="#040404" fill-opacity="1.0" height="1.025" width="1.025" x="6.1499999999999995" y="35.875" /><rect fill="#040404" fill-opacity="1.0" height="1.025" width="1.025" x="7.174999999999999" y="35.875" /><rect fill="#040404" fill-opacity="1.0" height="1.025" width="1.025" x="8.2" y="35.875" /><rect fill="#070707" fill-opacity="1.0" height="1.025" width="1.025" x="9.225" y="35.875" /><rect fill="#000000" fill-opacity="1.0" height="1.025" width="1.025" x="10.25" y="35.875" /><rect fill="#000000" fill-opacity="1.0" height="1.025" width="1.025" x="11.274999999999999" y="35.875" /><rect fill="#0c0c0c" fill-opacity="1.0" height="1.025" width="1.025" x="12.299999999999999" y="35.875" /><rect fill="#020202" fill-opacity="1.0" height="1.025" width="1.025" x="13.325" y="35.875" /><rect fill="#121212" fill-opacity="1.0" height="1.025" width="1.025" x="14.349999999999998" y="35.875" /><rect fill="#1d1d1d" fill-opacity="1.0" height="1.025" width="1.025" x="15.374999999999998" y="35.875" /><rect fill="#1a1a1a" fill-opacity="1.0" height="1.025" width="1.025" x="16.4" y="35.875" /><rect fill="#1a1a1a" fill-opacity="1.0" height="1.025" width="1.025" x="17.424999999999997" y="35.875" /><rect fill="#0b0b0b" fill-opacity="1.0" height="1.025" width="1.025" x="18.45" y="35.875" /><rect fill="#131313" fill-opacity="1.0" height="1.025" width="1.025" x="19.474999999999998" y="35.875" /><rect fill="#1d1d1d" fill-opacity="1.0" height="1.025" width="1.025" x="20.5" y="35.875" /><rect fill="#1a1a1a" fill-opacity="1.0" height="1.025" width="1.025" x="21.525" y="35.875" /><rect fill="#0b0b0b" fill-opacity="1.0" height="1.025" width="1.025" x="22.549999999999997" y="35.875" /><rect fill="#000000" fill-opacity="1.0" height="1.025" width="1.025" x="23.575" y="35.875" /><rect fill="#000000" fill-opacity="1.0" height="1.025" width="1.025" x="24.599999999999998" y="35.875" /><rect fill="#070707" fill-opacity="1.0" height="1.025" width="1.025" x="25.624999999999996" y="35.875" /><rect fill="#070707" fill-opacity="1.0" height="1.025" width="1.025" x="26.65" y="35.875" /><rect fill="#000000" fill-opacity="1.0" height="1.025" width="1.025" x="27.674999999999997" y="35.875" /><rect fill="#000000" fill-opacity="1.0" height="1.025" width="1.025" x="10.25" y="36.9" /><rect fill="#000000" fill-opacity="1.0" height="1.025" width="1.025" x="11.274999999999999" y="36.9" /><rect fill="#000000" fill-opacity="1.0" height="1.025" width="1.025" x="12.299999999999999" y="36.9" /><rect fill="#000000" fill-opacity="1.0" height="1.025" width="1.025" x="13.325" y="36.9" /><rect fill="#000000" fill-opacity="1.0" height="1.025" width="1.025" x="14.349999999999998" y="36.9" /><rect fill="#0b0b0b" fill-opacity="1.0" height="1.025" width="1.025" x="15.374999999999998" y="36.9" /><rect fill="#0b0b0b" fill-opacity="1.0" height="1.025" width="1.025" x="16.4" y="36.9" /><rect fill="#000000" fill-opacity="1.0" height="1.025" width="1.025" x="17.424999999999997" y="36.9" /><rect fill="#000000" fill-opacity="1.0" height="1.025" width="1.025" x="18.45" y="36.9" /><rect fill="#0c0c0c" fill-opacity="1.0" height="1.025" width="1.025" x="19.474999999999998" y="36.9" /><rect fill="#121212" fill-opacity="1.0" height="1.025" width="1.025" x="20.5" y="36.9" /><rect fill="#0e0e0e" fill-opacity="1.0" height="1.025" width="1.025" x="21.525" y="36.9" /><rect fill="#0b0b0b" fill-opacity="1.0" height="1.025" width="1.025" x="22.549999999999997" y="36.9" /><rect fill="#000000" fill-opacity="1.0" height="1.025" width="1.025" x="23.575" y="36.9" /><rect fill="#000000" fill-opacity="1.0" height="1.025" width="1.025" x="24.599999999999998" y="36.9" /></svg>