<?xml version="1.0" encoding="utf-8" ?>
<svg baseProfile="full" height="37.925" shape-rendering="crispEdges" style="image-rendering: pixelated" version="1.1" width="37.925" xmlns="http://www.w3.org/2000/svg" xmlns:ev="http://www.w3.org/2001/xml-events" xmlns:xlink="http://www.w3.org/1999/xlink"><defs /><rect fill="#000000" fill-opacity="1.0" height="1.025" width="1.025" x="11.274999999999999" y="28.699999999999996" /><rect fill="#000000" fill-opacity="1.0" height="1.025" width="1.025" x="12.299999999999999" y="28.699999999999996" /><rect fill="#000000" fill-opacity="1.0" height="1.025" width="1.025" x="13.325" y="28.699999999999996" /><rect fill="#000000" fill-opacity="1.0" height="1.025" width="1.025" x="19.474999999999998" y="28.699999999999996" /><rect fill="#000000" fill-opacity="1.0" height="1.025" width="1.025" x="20.5" y="28.699999999999996" /><rect fill="#000000" fill-opacity="1.0" height="1.025" width="1.025" x="21.525" y="28.699999999999996" /><rect fill="#000000" fill-opacity="1.0" height="1.025" width="1.025" x="9.225" y="29.724999999999998" /><rect fill="#000000" fill-opacity="1.0" height="1.025" width="1.025" x="10.25" y="29.724999999999998" /><rect fill="#989898" fill-opacity="1.0" height="1.025" width="1.025" x="11.274999999999999" y="29.724999999999998" /><rect fill="#a1a0a0" fill-opacity="1.0" height="1.025" width="1.025" x="12.299999999999999" y="29.724999999999998" /><rect fill="#a2a2a0" fill-opacity="1.0" height="1.025" width="1.025" x="13.325" y="29.724999999999998" /><rect fill="#000000" fill-opacity="1.0" height="1.025" width="1.025" x="14.349999999999998" y="29.724999999999998" /><rect fill="#000000" fill-opacity="1.0" height="1.025" width="1.025" x="19.474999999999998" y="29.724999999999998" /><rect fill="#acacac" fill-opacity="1.0" height="1.025" width="1.025" x="20.5" y="29.724999999999998" /><rect fill="#a2a2a2" fill-opacity="1.0" height="1.025" width="1.025" x="21.525" y="29.724999999999998" /><rect fill="#000000" fill-opacity="1.0" height="1.025" width="1.025" x="22.549999999999997" y="29.724999999999998" /><rect fill="#000000" fill-opacity="1.0" height="1.025" width="1.025" x="23.575" y="29.724999999999998" /><rect fill="#000000" fill-opacity="1.0" height="1.025" width="1.025" x="7.174999999999999" y="30.749999999999996" /><rect fill="#000000" fill-opacity="1.0" height="1.025" width="1.025" x="8.2" y="30.749999999999996" /><rect fill="#a9a9ab" fill-opacity="1.0" height="1.025" width="1.025" x="9.225" y="30.749999999999996" /><rect fill="#acacac" fill-opacity="1.0" height="1.025" width="1.025" x="10.25" y="30.749999999999996" /><rect fill="#a6a5a6" fill-opacity="1.0" height="1.025" width="1.025" x="11.274999999999999" y="30.749999999999996" /><rect fill="#b5b4b5" fill-opacity="1.0" height="1.025" width="1.025" x="12.299999999999999" y="30.749999999999996" /><rect fill="#b5b5b8" fill-opacity="1.0" height="1.025" width="1.025" x="13.325" y="30.749999999999996" /><rect fill="#b5b4b6" fill-opacity="1.0" height="1.025" width="1.025" x="14.349999999999998" y="30.749999999999996" /><rect fill="#000000" fill-opacity="1.0" height="1.025" width="1.025" x="15.374999999999998" y="30.749999999999996" /><rect fill="#000000" fill-opacity="1.0" height="1.025" width="1.025" x="19.474999999999998" y="30.749999999999996" /><rect fill="#b5b5b8" fill-opacity="1.0" height="1.025" width="1.025" x="20.5" y="30.749999999999996" /><rect fill="#b4b4b5" fill-opacity="1.0" height="1.025" width="1.025" x="21.525" y="30.749999999999996" /><rect fill="#a9a9ab" fill-opacity="1.0" height="1.025" width="1.025" x="22.549999999999997" y="30.749999999999996" /><rect fill="#a1a1a1" fill-opacity="1.0" height="1.025" width="1.025" x="23.575" y="30.749999999999996" /><rect fill="#000000" fill-opacity="1.0" height="1.025" width="1.025" x="24.599999999999998" y="30.749999999999996" /><rect fill="#000000" fill-opacity="1.0" height="1.025" width="1.025" x="25.624999999999996" y="30.749999999999996" /><rect fill="#000000" fill-opacity="1.0" height="1.025" width="1.025" x="6.1499999999999995" y="31.775" /><rect fill="#7d7d7d" fill-opacity="1.0" height="1.025" width="1.025" x="7.174999999999999" y="31.775" /><rect fill="#acacae" fill-opacity="1.0" height="1.025" width="1.025" x="8.2" y="31.775" /><rect fill="#b1b1b1" fill-opacity="1.0" height="1.025" width="1.025" x="9.225" y="31.775" /><rect fill="#b2b2b2" fill-opacity="1.0" height="1.025" width="1.025" x="10.25" y="31.775" /><rect fill="#aeaeaf" fill-opacity="1.0" height="1.025" width="1.025" x="11.274999999999999" y="31.775" /><rect fill="#b4b4b4" fill-opacity="1.0" height="1.025" width="1.025" x="12.299999999999999" y="31.775" /><rect fill="#b4b4b5" fill-opacity="1.0" height="1.025" width="1.025" x="13.325" y="31.775" /><rect fill="#b4b4b5" fill-opacity="1.0" height="1.025" width="1.025" x="14.349999999999998" y="31.775" /><rect fill="#b4b4b4" fill-opacity="1.0" height="1.025" width="1.025" x="15.374999999999998" y="31.775" /><rect fill="#000000" fill-opacity="1.0" height="1.025" width="1.025" x="16.4" y="31.775" /><rect fill="#000000" fill-opacity="1.0" height="1.025" width="1.025" x="18.45" y="31.775" /><rect fill="#b5b4b5" fill-opacity="1.0" height="1.025" width="1.025" x="19.474999999999998" y="31.775" /><rect fill="#b5b5b5" fill-opacity="1.0" height="1.025" width="1.025" x="20.5" y="31.775" /><rect fill="#b5b5b5" fill-opacity="1.0" height="1.025" width="1.025" x="21.525" y="31.775" /><rect fill="#b2b2b2" fill-opacity="1.0" height="1.025" width="1.025" x="22.549999999999997" y="31.775" /><rect fill="#aeacae" fill-opacity="1.0" height="1.025" width="1.025" x="23.575" y="31.775" /><rect fill="#b4b4b4" fill-opacity="1.0" height="1.025" width="1.025" x="24.599999999999998" y="31.775" /><rect fill="#a9a9a9" fill-opacity="1.0" height="1.025" width="1.025" x="25.624999999999996" y="31.775" /><rect fill="#000000" fill-opacity="1.0" height="1.025" width="1.025" x="26.65" y="31.775" /><rect fill="#000000" fill-opacity="1.0" height="1.025" width="1.025" x="5.125" y="32.8" /><rect fill="#9e9e9e" fill-opacity="1.0" height="1.025" width="1.025" x="6.1499999999999995" y="32.8" /><rect fill="#9a9a9a" fill-opacity="1.0" height="1.025" width="1.025" x="7.174999999999999" y="32.8" /><rect fill="#ababab" fill-opacity="1.0" height="1.025" width="1.025" x="8.2" y="32.8" /><rect fill="#afafb1" fill-opacity="1.0" height="1.025" width="1.025" x="9.225" y="32.8" /><rect fill="#b1b1b1" fill-opacity="1.0" height="1.025" width="1.025" x="10.25" y="32.8" /><rect fill="#acacae" fill-opacity="1.0" height="1.025" width="1.025" x="11.274999999999999" y="32.8" /><rect fill="#b2b2b2" fill-opacity="1.0" height="1.025" width="1.025" x="12.299999999999999" y="32.8" /><rect fill="#b2b2b4" fill-opacity="1.0" height="1.025" width="1.025" x="13.325" y="32.8" /><rect fill="#b4b4b4" fill-opacity="1.0" height="1.025" width="1.025" x="14.349999999999998" y="32.8" /><rect fill="#b4b4b4" fill-opacity="1.0" height="1.025" width="1.025" x="15.374999999999998" y="32.8" /><rect fill="#b4b4b4" fill-opacity="1.0" height="1.025" width="1.025" x="16.4" y="32.8" /><rect fill="#000000" fill-opacity="1.0" height="1.025" width="1.025" x="17.424999999999997" y="32.8" /><rect fill="#b4b4b4" fill-opacity="1.0" height="1.025" width="1.025" x="18.45" y="32.8" /><rect fill="#b4b4b4" fill-opacity="1.0" height="1.025" width="1.025" x="19.474999999999998" y="32.8" /><rect fill="#b4b4b4" fill-opacity="1.0" height="1.025" width="1.025" x="20.5" y="32.8" /><rect fill="#b4b4b4" fill-opacity="1.0" height="1.025" width="1.025" x="21.525" y="32.8" /><rect fill="#b4b4b4" fill-opacity="1.0" height="1.025" width="1.025" x="22.549999999999997" y="32.8" /><rect fill="#afafaf" fill-opacity="1.0" height="1.025" width="1.025" x="23.575" y="32.8" /><rect fill="#ababab" fill-opacity="1.0" height="1.025" width="1.025" x="24.599999999999998" y="32.8" /><rect fill="#b1b1b2" fill-opacity="1.0" height="1.025" width="1.025" x="25.624999999999996" y="32.8" /><rect fill="#a5a5a5" fill-opacity="1.0" height="1.025" width="1.025" x="26.65" y="32.8" /><rect fill="#000000" fill-opacity="1.0" height="1.025" width="1.025" x="27.674999999999997" y="32.8" /><rect fill="#000000" fill-opacity="1.0" height="1.025" width="1.025" x="5.125" y="33.824999999999996" /><rect fill="#9c9c9c" fill-opacity="1.0" height="1.025" width="1.025" x="6.1499999999999995" y="33.824999999999996" /><rect fill="#929292" fill-opacity="1.0" height="1.025" width="1.025" x="7.174999999999999" y="33.824999999999996" /><rect fill="#acacac" fill-opacity="1.0" height="1.025" width="1.025" x="8.2" y="33.824999999999996" /><rect fill="#9e9e9e" fill-opacity="1.0" height="1.025" width="1.025" x="9.225" y="33.824999999999996" /><rect fill="#727273" fill-opacity="1.0" height="1.025" width="1.025" x="10.25" y="33.824999999999996" /><rect fill="#9c9c9c" fill-opacity="1.0" height="1.025" width="1.025" x="11.274999999999999" y="33.824999999999996" /><rect fill="#b1b1b1" fill-opacity="1.0" height="1.025" width="1.025" x="12.299999999999999" y="33.824999999999996" /><rect fill="#b1b1b1" fill-opacity="1.0" height="1.025" width="1.025" x="13.325" y="33.824999999999996" /><rect fill="#b1b1b2" fill-opacity="1.0" height="1.025" width="1.025" x="14.349999999999998" y="33.824999999999996" /><rect fill="#b2b2b2" fill-opacity="1.0" height="1.025" width="1.025" x="15.374999999999998" y="33.824999999999996" /><rect fill="#b2b2b2" fill-opacity="1.0" height="1.025" width="1.025" x="16.4" y="33.824999999999996" /><rect fill="#b2b2b2" fill-opacity="1.0" height="1.025" width="1.025" x="17.424999999999997" y="33.824999999999996" /><rect fill="#b1b1b2" fill-opacity="1.0" height="1.025" width="1.025" x="18.45" y="33.824999999999996" /><rect fill="#b2b2b2" fill-opacity="1.0" height="1.025" width="1.025" x="19.474999999999998" y="33.824999999999996" /><rect fill="#b2b2b2" fill-opacity="1.0" height="1.025" width="1.025" x="20.5" y="33.824999999999996" /><rect fill="#b2b2b2" fill-opacity="1.0" height="1.025" width="1.025" x="21.525" y="33.824999999999996" /><rect fill="#b1b1b2" fill-opacity="1.0" height="1.025" width="1.025" x="22.549999999999997" y="33.824999999999996" /><rect fill="#a1a1a1" fill-opacity="1.0" height="1.025" width="1.025" x="23.575" y="33.824999999999996" /><rect fill="#6d6d6d" fill-opacity="1.0" height="1.025" width="1.025" x="24.599999999999998" y="33.824999999999996" /><rect fill="#a2a2a5" fill-opacity="1.0" height="1.025" width="1.025" x="25.624999999999996" y="33.824999999999996" /><rect fill="#a2a2a2" fill-opacity="1.0" height="1.025" width="1.025" x="26.65" y="33.824999999999996" /><rect fill="#000000" fill-opacity="1.0" height="1.025" width="1.025" x="27.674999999999997" y="33.824999999999996" /><rect fill="#000000" fill-opacity="1.0" height="1.025" width="1.025" x="5.125" y="34.849999999999994" /><rect fill="#959595" fill-opacity="1.0" height="1.025" width="1.025" x="6.1499999999999995" y="34.849999999999994" /><rect fill="#919191" fill-opacity="1.0" height="1.025" width="1.025" x="7.174999999999999" y="34.849999999999994" /><rect fill="#a8a8a8" fill-opacity="1.0" height="1.025" width="1.025" x="8.2" y="34.849999999999994" /><rect fill="#7a797a" fill-opacity="1.0" height="1.025" width="1.025" x="9.225" y="34.849999999999994" /><rect fill="#000000" fill-opacity="1.0" height="1.025" width="1.025" x="10.25" y="34.849999999999994" /><rect fill="#747474" fill-opacity="1.0" height="1.025" width="1.025" x="11.274999999999999" y="34.849999999999994" /><rect fill="#acacac" fill-opacity="1.0" height="1.025" width="1.025" x="12.299999999999999" y="34.849999999999994" /><rect fill="#a5a5a5" fill-opacity="1.0" height="1.025" width="1.025" x="13.325" y="34.849999999999994" /><rect fill="#afafaf" fill-opacity="1.0" height="1.025" width="1.025" x="14.349999999999998" y="34.849999999999994" /><rect fill="#b1b1b1" fill-opacity="1.0" height="1.025" width="1.025" x="15.374999999999998" y="34.849999999999994" /><rect fill="#b1b1b1" fill-opacity="1.0" height="1.025" width="1.025" x="16.4" y="34.849999999999994" /><rect fill="#b1b1b1" fill-opacity="1.0" height="1.025" width="1.025" x="17.424999999999997" y="34.849999999999994" /><rect fill="#a1a1a2" fill-opacity="1.0" height="1.025" width="1.025" x="18.45" y="34.849999999999994" /><rect fill="#aeaeaf" fill-opacity="1.0" height="1.025" width="1.025" x="19.474999999999998" y="34.849999999999994" /><rect fill="#b1b1b1" fill-opacity="1.0" height="1.025" width="1.025" x="20.5" y="34.849999999999994" /><rect fill="#b1b1b1" fill-opacity="1.0" height="1.025" width="1.025" x="21.525" y="34.849999999999994" /><rect fill="#a5a5a5" fill-opacity="1.0" height="1.025" width="1.025" x="22.549999999999997" y="34.849999999999994" /><rect fill="#838383" fill-opacity="1.0" height="1.025" width="1.025" x="23.575" y="34.849999999999994" /><rect fill="#000000" fill-opacity="1.0" height="1.025" width="1.025" x="24.599999999999998" y="34.849999999999994" /><rect fill="#9b9b9b" fill-opacity="1.0" height="1.025" width="1.025" x="25.624999999999996" y="34.849999999999994" /><rect fill="#949494" fill-opacity="1.0" height="1.025" width="1.025" x="26.65" y="34.849999999999994" /><rect fill="#000000" fill-opacity="1.0" height="1.025" width="1.025" x="27.674999999999997" y="34.849999999999994" /><rect fill="#000000" fill-opacity="1.0" height="1.025" width="1.025" x="5.125" y="35.875" /><rect fill="#000000" fill-opacity="1.0" height="1.025" width="1.025" x="6.1499999999999995" y="35.875" /><rect fill="#000000" fill-opacity="1.0" height="1.025" width="1.025" x="7.174999999999999" y="35.875" /><rect fill="#000000" fill-opacity="1.0" height="1.025" width="1.025" x="8.2" y="35.875" /><rect fill="#000000" fill-opacity="1.0" height="1.025" width="1.025" x="9.225" y="35.875" /><rect fill="#000000" fill-opacity="1.0" height="1.025" width="1.025" x="10.25" y="35.875" /><rect fill="#4d4d4d" fill-opacity="1.0" height="1.025" width="1.025" x="11.274999999999999" y="35.875" /><rect fill="#8b8b8b" fill-opacity="1.0" height="1.025" width="1.025" x="12.299999999999999" y="35.875" /><rect fill="#838383" fill-opacity="1.0" height="1.025" width="1.025" x="13.325" y="35.875" /><rect fill="#969696" fill-opacity="1.0" height="1.025" width="1.025" x="14.349999999999998" y="35.875" /><rect fill="#aeaeaf" fill-opacity="1.0" height="1.025" width="1.025" x="15.374999999999998" y="35.875" /><rect fill="#a9a9a9" fill-opacity="1.0" height="1.025" width="1.025" x="16.4" y="35.875" /><rect fill="#a9a9a9" fill-opacity="1.0" height="1.025" width="1.025" x="17.424999999999997" y="35.875" /><rect fill="#868688" fill-opacity="1.0" height="1.025" width="1.025" x="18.45" y="35.875" /><rect fill="#9b9b9c" fill-opacity="1.0" height="1.025" width="1.025" x="19.474999999999998" y="35.875" /><rect fill="#afafaf" fill-opacity="1.0" height="1.025" width="1.025" x="20.5" y="35.875" /><rect fill="#aeaeae" fill-opacity="1.0" height="1.025" width="1.025" x="21.525" y="35.875" /><rect fill="#8b8b8b" fill-opacity="1.0" height="1.025" width="1.025" x="22.549999999999997" y="35.875" /><rect fill="#6b6b6d" fill-opacity="1.0" height="1.025" width="1.025" x="23.575" y="35.875" /><rect fill="#000000" fill-opacity="1.0" height="1.025" width="1.025" x="24.599999999999998" y="35.875" /><rect fill="#000000" fill-opacity="1.0" height="1.025" width="1.025" x="25.624999999999996" y="35.875" /><rect fill="#000000" fill-opacity="1.0" height="1.025" width="1.025" x="26.65" y="35.875" /><rect fill="#000000" fill-opacity="1.0" height="1.025" width="1.025" x="27.674999999999997" y="35.875" /><rect fill="#000000" fill-opacity="1.0" height="1.025" width="1.025" x="10.25" y="36.9" /><rect fill="#4e4e4e" fill-opacity="1.0" height="1.025" width="1.025" x="11.274999999999999" y="36.9" /><rect fill="#6a6a6a" fill-opacity="1.0" height="1.025" width="1.025" x="12.299999999999999" y="36.9" /><rect fill="#7f7f7f" fill-opacity="1.0" height="1.025" width="1.025" x="13.325" y="36.9" /><rect fill="#838383" fill-opacity="1.0" height="1.025" width="1.025" x="14.349999999999998" y="36.9" /><rect fill="#8b8a8b" fill-opacity="1.0" height="1.025" width="1.025" x="15.374999999999998" y="36.9" /><rect fill="#8e8e8e" fill-opacity="1.0" height="1.025" width="1.025" x="16.4" y="36.9" /><rect fill="#7d7d7e" fill-opacity="1.0" height="1.025" width="1.025" x="17.424999999999997" y="36.9" /><rect fill="#7e7e7e" fill-opacity="1.0" height="1.025" width="1.025" x="18.45" y="36.9" /><rect fill="#8b8b8b" fill-opacity="1.0" height="1.025" width="1.025" x="19.474999999999998" y="36.9" /><rect fill="#989898" fill-opacity="1.0" height="1.025" width="1.025" x="20.5" y="36.9" /><rect fill="#989698" fill-opacity="1.0" height="1.025" width="1.025" x="21.525" y="36.9" /><rect fill="#8a8a8a" fill-opacity="1.0" height="1.025" width="1.025" x="22.549999999999997" y="36.9" /><rect fill="#595959" fill-opacity="1.0" height="1.025" width="1.025" x="23.575" y="36.9" /><rect fill="#000000" fill-opacity="1.0" height="1.025" width="1.025" x="24.599999999999998" y="36.9" /></svg>