<svg xmlns="http://www.w3.org/2000/svg" width="37.925" height="37.925" shape-rendering="crispEdges" style="image-rendering: pixelated;">
<rect x="12.300" y="26.650" width="1.025" height="1.025" fill="#fff2bd" fill-opacity="1.000" />
<rect x="19.475" y="26.650" width="1.025" height="1.025" fill="#ffeea7" fill-opacity="1.000" />
<rect x="20.500" y="26.650" width="1.025" height="1.025" fill="#ffeea9" fill-opacity="1.000" />
<rect x="12.300" y="27.675" width="1.025" height="1.025" fill="#ffdc47" fill-opacity="1.000" />
<rect x="19.475" y="27.675" width="1.025" height="1.025" fill="#fffde1" fill-opacity="1.000" />
<rect x="20.500" y="27.675" width="1.025" height="1.025" fill="#fff9af" fill-opacity="1.000" />
<rect x="21.525" y="27.675" width="1.025" height="1.025" fill="#ffce0a" fill-opacity="1.000" />
<rect x="11.275" y="28.700" width="1.025" height="1.025" fill="#ffe73c" fill-opacity="1.000" />
<rect x="12.300" y="28.700" width="1.025" height="1.025" fill="#fffabc" fill-opacity="1.000" />
<rect x="13.325" y="28.700" width="1.025" height="1.025" fill="#ffd321" fill-opacity="1.000" />
<rect x="19.475" y="28.700" width="1.025" height="1.025" fill="#ffdc46" fill-opacity="1.000" />
<rect x="20.500" y="28.700" width="1.025" height="1.025" fill="#6c4700" fill-opacity="0.624" />
<rect x="21.525" y="28.700" width="1.025" height="1.025" fill="#ffec0a" fill-opacity="1.000" />
<rect x="10.250" y="29.725" width="1.025" height="1.025" fill="#6c4700" fill-opacity="0.251" />
<rect x="11.275" y="29.725" width="1.025" height="1.025" fill="#fff47c" fill-opacity="1.000" />
<rect x="12.300" y="29.725" width="1.025" height="1.025" fill="#6c4700" fill-opacity="0.749" />
<rect x="13.325" y="29.725" width="1.025" height="1.025" fill="#ffee21" fill-opacity="1.000" />
<rect x="18.450" y="29.725" width="1.025" height="1.025" fill="#6c4700" fill-opacity="0.376" />
<rect x="19.475" y="29.725" width="1.025" height="1.025" fill="#fff68f" fill-opacity="1.000" />
<rect x="20.500" y="29.725" width="1.025" height="1.025" fill="#6c4700" fill-opacity="0.624" />
<rect x="21.525" y="29.725" width="1.025" height="1.025" fill="#fffcce" fill-opacity="1.000" />
<rect x="22.550" y="29.725" width="1.025" height="1.025" fill="#6c4700" fill-opacity="0.376" />
<rect x="23.575" y="29.725" width="1.025" height="1.025" fill="#6c4700" fill-opacity="0.063" />
<rect x="10.250" y="30.750" width="1.025" height="1.025" fill="#6c4700" fill-opacity="0.251" />
<rect x="11.275" y="30.750" width="1.025" height="1.025" fill="#fff14c" fill-opacity="1.000" />
<rect x="12.300" y="30.750" width="1.025" height="1.025" fill="#ffd52b" fill-opacity="1.000" />
<rect x="13.325" y="30.750" width="1.025" height="1.025" fill="#ffeb00" fill-opacity="1.000" />
<rect x="14.350" y="30.750" width="1.025" height="1.025" fill="#ffd739" fill-opacity="1.000" />
<rect x="18.450" y="30.750" width="1.025" height="1.025" fill="#ffde57" fill-opacity="1.000" />
<rect x="19.475" y="30.750" width="1.025" height="1.025" fill="#ffdf40" fill-opacity="1.000" />
<rect x="20.500" y="30.750" width="1.025" height="1.025" fill="#ffd736" fill-opacity="1.000" />
<rect x="21.525" y="30.750" width="1.025" height="1.025" fill="#ffeb00" fill-opacity="1.000" />
<rect x="22.550" y="30.750" width="1.025" height="1.025" fill="#ffcc00" fill-opacity="1.000" />
<rect x="23.575" y="30.750" width="1.025" height="1.025" fill="#6c4700" fill-opacity="0.188" />
<rect x="10.250" y="31.775" width="1.025" height="1.025" fill="#6c4700" fill-opacity="0.251" />
<rect x="11.275" y="31.775" width="1.025" height="1.025" fill="#fff584" fill-opacity="1.000" />
<rect x="12.300" y="31.775" width="1.025" height="1.025" fill="#ffee2b" fill-opacity="1.000" />
<rect x="13.325" y="31.775" width="1.025" height="1.025" fill="#6c4700" fill-opacity="0.686" />
<rect x="14.350" y="31.775" width="1.025" height="1.025" fill="#ffed17" fill-opacity="1.000" />
<rect x="15.375" y="31.775" width="1.025" height="1.025" fill="#fff085" fill-opacity="1.000" />
<rect x="16.400" y="31.775" width="1.025" height="1.025" fill="#ffeb0b" fill-opacity="1.000" />
<rect x="17.425" y="31.775" width="1.025" height="1.025" fill="#ffeca2" fill-opacity="1.000" />
<rect x="18.450" y="31.775" width="1.025" height="1.025" fill="#fff9b4" fill-opacity="1.000" />
<rect x="19.475" y="31.775" width="1.025" height="1.025" fill="#6c4700" fill-opacity="0.749" />
<rect x="20.500" y="31.775" width="1.025" height="1.025" fill="#ffef36" fill-opacity="1.000" />
<rect x="21.525" y="31.775" width="1.025" height="1.025" fill="#6c4700" fill-opacity="0.749" />
<rect x="22.550" y="31.775" width="1.025" height="1.025" fill="#ffeb00" fill-opacity="1.000" />
<rect x="23.575" y="31.775" width="1.025" height="1.025" fill="#6c4700" fill-opacity="0.251" />
<rect x="10.250" y="32.800" width="1.025" height="1.025" fill="#6c4700" fill-opacity="0.251" />
<rect x="11.275" y="32.800" width="1.025" height="1.025" fill="#fff040" fill-opacity="1.000" />
<rect x="12.300" y="32.800" width="1.025" height="1.025" fill="#fffabb" fill-opacity="1.000" />
<rect x="13.325" y="32.800" width="1.025" height="1.025" fill="#ffd52e" fill-opacity="1.000" />
<rect x="14.350" y="32.800" width="1.025" height="1.025" fill="#6c4700" fill-opacity="0.686" />
<rect x="15.375" y="32.800" width="1.025" height="1.025" fill="#fff042" fill-opacity="1.000" />
<rect x="16.400" y="32.800" width="1.025" height="1.025" fill="#fff8ab" fill-opacity="1.000" />
<rect x="17.425" y="32.800" width="1.025" height="1.025" fill="#ca7305" fill-opacity="1.000" />
<rect x="18.450" y="32.800" width="1.025" height="1.025" fill="#fde239" fill-opacity="1.000" />
<rect x="19.475" y="32.800" width="1.025" height="1.025" fill="#ffd324" fill-opacity="1.000" />
<rect x="20.500" y="32.800" width="1.025" height="1.025" fill="#ffef39" fill-opacity="1.000" />
<rect x="21.525" y="32.800" width="1.025" height="1.025" fill="#ffcc00" fill-opacity="1.000" />
<rect x="22.550" y="32.800" width="1.025" height="1.025" fill="#fffbc7" fill-opacity="1.000" />
<rect x="23.575" y="32.800" width="1.025" height="1.025" fill="#6c4700" fill-opacity="0.251" />
<rect x="10.250" y="33.825" width="1.025" height="1.025" fill="#6c4700" fill-opacity="0.188" />
<rect x="11.275" y="33.825" width="1.025" height="1.025" fill="#ffed1e" fill-opacity="1.000" />
<rect x="12.300" y="33.825" width="1.025" height="1.025" fill="#ffce0b" fill-opacity="1.000" />
<rect x="13.325" y="33.825" width="1.025" height="1.025" fill="#ffec13" fill-opacity="1.000" />
<rect x="14.350" y="33.825" width="1.025" height="1.025" fill="#ffd52e" fill-opacity="1.000" />
<rect x="15.375" y="33.825" width="1.025" height="1.025" fill="#ffd117" fill-opacity="1.000" />
<rect x="16.400" y="33.825" width="1.025" height="1.025" fill="#b7770d" fill-opacity="1.000" />
<rect x="17.425" y="33.825" width="1.025" height="1.025" fill="#e28700" fill-opacity="1.000" />
<rect x="18.450" y="33.825" width="1.025" height="1.025" fill="#f1b406" fill-opacity="1.000" />
<rect x="19.475" y="33.825" width="1.025" height="1.025" fill="#fff03c" fill-opacity="1.000" />
<rect x="20.500" y="33.825" width="1.025" height="1.025" fill="#6c4700" fill-opacity="0.749" />
<rect x="21.525" y="33.825" width="1.025" height="1.025" fill="#ffeb00" fill-opacity="1.000" />
<rect x="22.550" y="33.825" width="1.025" height="1.025" fill="#ffd71b" fill-opacity="1.000" />
<rect x="23.575" y="33.825" width="1.025" height="1.025" fill="#6c4700" fill-opacity="0.188" />
<rect x="10.250" y="34.850" width="1.025" height="1.025" fill="#6c4700" fill-opacity="0.063" />
<rect x="11.275" y="34.850" width="1.025" height="1.025" fill="#6c4700" fill-opacity="0.376" />
<rect x="12.300" y="34.850" width="1.025" height="1.025" fill="#ffec0b" fill-opacity="1.000" />
<rect x="13.325" y="34.850" width="1.025" height="1.025" fill="#ffcc00" fill-opacity="1.000" />
<rect x="14.350" y="34.850" width="1.025" height="1.025" fill="#ffee26" fill-opacity="1.000" />
<rect x="15.375" y="34.850" width="1.025" height="1.025" fill="#fff68f" fill-opacity="1.000" />
<rect x="16.400" y="34.850" width="1.025" height="1.025" fill="#ffee2b" fill-opacity="1.000" />
<rect x="17.425" y="34.850" width="1.025" height="1.025" fill="#d18205" fill-opacity="1.000" />
<rect x="18.450" y="34.850" width="1.025" height="1.025" fill="#ffeb00" fill-opacity="1.000" />
<rect x="19.475" y="34.850" width="1.025" height="1.025" fill="#ffcc00" fill-opacity="1.000" />
<rect x="20.500" y="34.850" width="1.025" height="1.025" fill="#ffe000" fill-opacity="1.000" />
<rect x="21.525" y="34.850" width="1.025" height="1.025" fill="#ffd819" fill-opacity="1.000" />
<rect x="22.550" y="34.850" width="1.025" height="1.025" fill="#6c4700" fill-opacity="0.376" />
<rect x="23.575" y="34.850" width="1.025" height="1.025" fill="#6c4700" fill-opacity="0.063" />
<rect x="11.275" y="35.875" width="1.025" height="1.025" fill="#6c4700" fill-opacity="0.188" />
<rect x="12.300" y="35.875" width="1.025" height="1.025" fill="#ffd100" fill-opacity="1.000" />
<rect x="13.325" y="35.875" width="1.025" height="1.025" fill="#ffeb00" fill-opacity="1.000" />
<rect x="14.350" y="35.875" width="1.025" height="1.025" fill="#ffcc00" fill-opacity="1.000" />
<rect x="15.375" y="35.875" width="1.025" height="1.025" fill="#ffde1d" fill-opacity="1.000" />
<rect x="16.400" y="35.875" width="1.025" height="1.025" fill="#ffcc00" fill-opacity="1.000" />
<rect x="17.425" y="35.875" width="1.025" height="1.025" fill="#d58c05" fill-opacity="1.000" />
<rect x="18.450" y="35.875" width="1.025" height="1.025" fill="#ffcc00" fill-opacity="1.000" />
<rect x="19.475" y="35.875" width="1.025" height="1.025" fill="#ffeb00" fill-opacity="1.000" />
<rect x="20.500" y="35.875" width="1.025" height="1.025" fill="#ffd918" fill-opacity="1.000" />
<rect x="21.525" y="35.875" width="1.025" height="1.025" fill="#ffeb00" fill-opacity="1.000" />
<rect x="22.550" y="35.875" width="1.025" height="1.025" fill="#6c4700" fill-opacity="0.188" />
<rect x="11.275" y="36.900" width="1.025" height="1.025" fill="#6c4700" fill-opacity="0.063" />
<rect x="12.300" y="36.900" width="1.025" height="1.025" fill="#6c4700" fill-opacity="0.188" />
<rect x="13.325" y="36.900" width="1.025" height="1.025" fill="#daab00" fill-opacity="1.000" />
<rect x="14.350" y="36.900" width="1.025" height="1.025" fill="#daab00" fill-opacity="1.000" />
<rect x="15.375" y="36.900" width="1.025" height="1.025" fill="#daab00" fill-opacity="1.000" />
<rect x="16.400" y="36.900" width="1.025" height="1.025" fill="#daab00" fill-opacity="1.000" />
<rect x="17.425" y="36.900" width="1.025" height="1.025" fill="#daab00" fill-opacity="1.000" />
<rect x="18.450" y="36.900" width="1.025" height="1.025" fill="#c89a00" fill-opacity="1.000" />
<rect x="19.475" y="36.900" width="1.025" height="1.025" fill="#ffcc00" fill-opacity="1.000" />
<rect x="20.500" y="36.900" width="1.025" height="1.025" fill="#ffcc00" fill-opacity="1.000" />
<rect x="21.525" y="36.900" width="1.025" height="1.025" fill="#6c4700" fill-opacity="0.314" />
<rect x="22.550" y="36.900" width="1.025" height="1.025" fill="#6c4700" fill-opacity="0.063" />
</svg>