<svg xmlns="http://www.w3.org/2000/svg" width="37.925" height="37.925" shape-rendering="crispEdges" style="image-rendering: pixelated;">
<rect x="18.450" y="3.075" width="1.025" height="1.025" fill="#1c130e" fill-opacity="1.000" />
<rect x="19.475" y="3.075" width="1.025" height="1.025" fill="#1c130e" fill-opacity="1.000" />
<rect x="20.500" y="3.075" width="1.025" height="1.025" fill="#1c130e" fill-opacity="1.000" />
<rect x="21.525" y="3.075" width="1.025" height="1.025" fill="#2a1d15" fill-opacity="1.000" />
<rect x="22.550" y="3.075" width="1.025" height="1.025" fill="#0c0806" fill-opacity="1.000" />
<rect x="23.575" y="3.075" width="1.025" height="1.025" fill="#1c130e" fill-opacity="1.000" />
<rect x="15.375" y="4.100" width="1.025" height="1.025" fill="#1c130e" fill-opacity="1.000" />
<rect x="16.400" y="4.100" width="1.025" height="1.025" fill="#2a1d15" fill-opacity="1.000" />
<rect x="17.425" y="4.100" width="1.025" height="1.025" fill="#1c130e" fill-opacity="1.000" />
<rect x="18.450" y="4.100" width="1.025" height="1.025" fill="#1c130e" fill-opacity="1.000" />
<rect x="19.475" y="4.100" width="1.025" height="1.025" fill="#030202" fill-opacity="1.000" />
<rect x="20.500" y="4.100" width="1.025" height="1.025" fill="#030202" fill-opacity="1.000" />
<rect x="21.525" y="4.100" width="1.025" height="1.025" fill="#0c0806" fill-opacity="1.000" />
<rect x="22.550" y="4.100" width="1.025" height="1.025" fill="#2a1d15" fill-opacity="1.000" />
<rect x="23.575" y="4.100" width="1.025" height="1.025" fill="#2a1d15" fill-opacity="1.000" />
<rect x="14.350" y="5.125" width="1.025" height="1.025" fill="#030202" fill-opacity="1.000" />
<rect x="15.375" y="5.125" width="1.025" height="1.025" fill="#030202" fill-opacity="1.000" />
<rect x="16.400" y="5.125" width="1.025" height="1.025" fill="#1c130e" fill-opacity="1.000" />
<rect x="17.425" y="5.125" width="1.025" height="1.025" fill="#1c130e" fill-opacity="1.000" />
<rect x="18.450" y="5.125" width="1.025" height="1.025" fill="#0c0806" fill-opacity="1.000" />
<rect x="19.475" y="5.125" width="1.025" height="1.025" fill="#030202" fill-opacity="1.000" />
<rect x="20.500" y="5.125" width="1.025" height="1.025" fill="#2a1d15" fill-opacity="1.000" />
<rect x="21.525" y="5.125" width="1.025" height="1.025" fill="#1c130e" fill-opacity="1.000" />
<rect x="22.550" y="5.125" width="1.025" height="1.025" fill="#1c130e" fill-opacity="1.000" />
<rect x="23.575" y="5.125" width="1.025" height="1.025" fill="#0c0806" fill-opacity="1.000" />
<rect x="13.325" y="6.150" width="1.025" height="1.025" fill="#030202" fill-opacity="1.000" />
<rect x="14.350" y="6.150" width="1.025" height="1.025" fill="#030202" fill-opacity="1.000" />
<rect x="15.375" y="6.150" width="1.025" height="1.025" fill="#1c130e" fill-opacity="1.000" />
<rect x="16.400" y="6.150" width="1.025" height="1.025" fill="#1c130e" fill-opacity="1.000" />
<rect x="17.425" y="6.150" width="1.025" height="1.025" fill="#0c0806" fill-opacity="1.000" />
<rect x="18.450" y="6.150" width="1.025" height="1.025" fill="#0c0806" fill-opacity="1.000" />
<rect x="19.475" y="6.150" width="1.025" height="1.025" fill="#2a1d15" fill-opacity="1.000" />
<rect x="20.500" y="6.150" width="1.025" height="1.025" fill="#1c130e" fill-opacity="1.000" />
<rect x="21.525" y="6.150" width="1.025" height="1.025" fill="#0c0806" fill-opacity="1.000" />
<rect x="22.550" y="6.150" width="1.025" height="1.025" fill="#0c0806" fill-opacity="1.000" />
<rect x="23.575" y="6.150" width="1.025" height="1.025" fill="#1c130e" fill-opacity="1.000" />
<rect x="12.300" y="7.175" width="1.025" height="1.025" fill="#030202" fill-opacity="1.000" />
<rect x="13.325" y="7.175" width="1.025" height="1.025" fill="#2a1d15" fill-opacity="1.000" />
<rect x="14.350" y="7.175" width="1.025" height="1.025" fill="#1c130e" fill-opacity="1.000" />
<rect x="15.375" y="7.175" width="1.025" height="1.025" fill="#1c130e" fill-opacity="1.000" />
<rect x="16.400" y="7.175" width="1.025" height="1.025" fill="#1c130e" fill-opacity="1.000" />
<rect x="17.425" y="7.175" width="1.025" height="1.025" fill="#0c0806" fill-opacity="1.000" />
<rect x="18.450" y="7.175" width="1.025" height="1.025" fill="#0c0806" fill-opacity="1.000" />
<rect x="19.475" y="7.175" width="1.025" height="1.025" fill="#0c0806" fill-opacity="1.000" />
<rect x="20.500" y="7.175" width="1.025" height="1.025" fill="#0c0806" fill-opacity="1.000" />
<rect x="21.525" y="7.175" width="1.025" height="1.025" fill="#1c130e" fill-opacity="1.000" />
<rect x="22.550" y="7.175" width="1.025" height="1.025" fill="#0c0806" fill-opacity="1.000" />
<rect x="23.575" y="7.175" width="1.025" height="1.025" fill="#1c130e" fill-opacity="1.000" />
<rect x="12.300" y="8.200" width="1.025" height="1.025" fill="#1c130e" fill-opacity="1.000" />
<rect x="13.325" y="8.200" width="1.025" height="1.025" fill="#2a1d15" fill-opacity="1.000" />
<rect x="14.350" y="8.200" width="1.025" height="1.025" fill="#1c130e" fill-opacity="1.000" />
<rect x="12.300" y="11.275" width="1.025" height="1.025" fill="#1c130e" fill-opacity="1.000" />
<rect x="13.325" y="11.275" width="1.025" height="1.025" fill="#0c0806" fill-opacity="1.000" />
<rect x="14.350" y="11.275" width="1.025" height="1.025" fill="#1c130e" fill-opacity="1.000" />
<rect x="15.375" y="11.275" width="1.025" height="1.025" fill="#1c130e" fill-opacity="1.000" />
<rect x="24.600" y="11.275" width="1.025" height="1.025" fill="#1c130e" fill-opacity="1.000" />
<rect x="25.625" y="11.275" width="1.025" height="1.025" fill="#1c130e" fill-opacity="1.000" />
<rect x="12.300" y="12.300" width="1.025" height="1.025" fill="#0c0806" fill-opacity="1.000" />
<rect x="13.325" y="12.300" width="1.025" height="1.025" fill="#1c130e" fill-opacity="1.000" />
<rect x="14.350" y="12.300" width="1.025" height="1.025" fill="#0c0806" fill-opacity="1.000" />
<rect x="15.375" y="12.300" width="1.025" height="1.025" fill="#1c130e" fill-opacity="1.000" />
<rect x="24.600" y="12.300" width="1.025" height="1.025" fill="#0c0806" fill-opacity="1.000" />
<rect x="25.625" y="12.300" width="1.025" height="1.025" fill="#1c130e" fill-opacity="1.000" />
<rect x="12.300" y="13.325" width="1.025" height="1.025" fill="#1c130e" fill-opacity="1.000" />
<rect x="13.325" y="13.325" width="1.025" height="1.025" fill="#1c130e" fill-opacity="1.000" />
<rect x="14.350" y="13.325" width="1.025" height="1.025" fill="#1c130e" fill-opacity="1.000" />
<rect x="15.375" y="13.325" width="1.025" height="1.025" fill="#2a1d15" fill-opacity="1.000" />
<rect x="24.600" y="13.325" width="1.025" height="1.025" fill="#1c130e" fill-opacity="1.000" />
<rect x="25.625" y="13.325" width="1.025" height="1.025" fill="#2a1d15" fill-opacity="1.000" />
<rect x="14.350" y="14.350" width="1.025" height="1.025" fill="#030202" fill-opacity="1.000" />
<rect x="15.375" y="14.350" width="1.025" height="1.025" fill="#0c0806" fill-opacity="1.000" />
<rect x="25.625" y="14.350" width="1.025" height="1.025" fill="#0c0806" fill-opacity="1.000" />
<rect x="15.375" y="15.375" width="1.025" height="1.025" fill="#2a1d15" fill-opacity="1.000" />
</svg>