<svg xmlns="http://www.w3.org/2000/svg" width="37.925" height="37.925" shape-rendering="crispEdges" style="image-rendering: pixelated;">
<rect x="13.325" y="15.375" width="1.025" height="1.025" fill="#0c0806" fill-opacity="1.000" />
<rect x="13.325" y="16.400" width="1.025" height="1.025" fill="#1c130e" fill-opacity="1.000" />
<rect x="13.325" y="17.425" width="1.025" height="1.025" fill="#0c0806" fill-opacity="1.000" />
<rect x="13.325" y="18.450" width="1.025" height="1.025" fill="#0c0806" fill-opacity="1.000" />
<rect x="14.350" y="18.450" width="1.025" height="1.025" fill="#1c130e" fill-opacity="1.000" />
<rect x="14.350" y="19.475" width="1.025" height="1.025" fill="#1c130e" fill-opacity="1.000" />
<rect x="15.375" y="19.475" width="1.025" height="1.025" fill="#1c130e" fill-opacity="1.000" />
<rect x="16.400" y="19.475" width="1.025" height="1.025" fill="#0c0806" fill-opacity="1.000" />
<rect x="17.425" y="19.475" width="1.025" height="1.025" fill="#030202" fill-opacity="1.000" />
<rect x="18.450" y="19.475" width="1.025" height="1.025" fill="#030202" fill-opacity="1.000" />
<rect x="19.475" y="19.475" width="1.025" height="1.025" fill="#030202" fill-opacity="1.000" />
<rect x="20.500" y="19.475" width="1.025" height="1.025" fill="#1c130e" fill-opacity="1.000" />
<rect x="21.525" y="19.475" width="1.025" height="1.025" fill="#030202" fill-opacity="1.000" />
<rect x="22.550" y="19.475" width="1.025" height="1.025" fill="#1c130e" fill-opacity="1.000" />
<rect x="23.575" y="19.475" width="1.025" height="1.025" fill="#0c0806" fill-opacity="1.000" />
<rect x="14.350" y="20.500" width="1.025" height="1.025" fill="#1c130e" fill-opacity="1.000" />
<rect x="15.375" y="20.500" width="1.025" height="1.025" fill="#1c130e" fill-opacity="1.000" />
<rect x="16.400" y="20.500" width="1.025" height="1.025" fill="#1c130e" fill-opacity="1.000" />
<rect x="17.425" y="20.500" width="1.025" height="1.025" fill="#030202" fill-opacity="1.000" />
<rect x="24.600" y="20.500" width="1.025" height="1.025" fill="#2a1d15" fill-opacity="1.000" />
<rect x="14.350" y="21.525" width="1.025" height="1.025" fill="#1c130e" fill-opacity="1.000" />
<rect x="15.375" y="21.525" width="1.025" height="1.025" fill="#1c130e" fill-opacity="1.000" />
<rect x="16.400" y="21.525" width="1.025" height="1.025" fill="#1c130e" fill-opacity="1.000" />
<rect x="17.425" y="21.525" width="1.025" height="1.025" fill="#1c130e" fill-opacity="1.000" />
<rect x="24.600" y="21.525" width="1.025" height="1.025" fill="#030202" fill-opacity="1.000" />
<rect x="15.375" y="22.550" width="1.025" height="1.025" fill="#2a1d15" fill-opacity="1.000" />
<rect x="16.400" y="22.550" width="1.025" height="1.025" fill="#1c130e" fill-opacity="1.000" />
<rect x="17.425" y="22.550" width="1.025" height="1.025" fill="#0c0806" fill-opacity="1.000" />
<rect x="18.450" y="22.550" width="1.025" height="1.025" fill="#1c130e" fill-opacity="1.000" />
<rect x="23.575" y="22.550" width="1.025" height="1.025" fill="#030202" fill-opacity="1.000" />
<rect x="24.600" y="22.550" width="1.025" height="1.025" fill="#1c130e" fill-opacity="1.000" />
<rect x="16.400" y="23.575" width="1.025" height="1.025" fill="#1c130e" fill-opacity="1.000" />
<rect x="17.425" y="23.575" width="1.025" height="1.025" fill="#1c130e" fill-opacity="1.000" />
<rect x="18.450" y="23.575" width="1.025" height="1.025" fill="#0c0806" fill-opacity="1.000" />
<rect x="19.475" y="23.575" width="1.025" height="1.025" fill="#1c130e" fill-opacity="1.000" />
<rect x="20.500" y="23.575" width="1.025" height="1.025" fill="#1c130e" fill-opacity="1.000" />
<rect x="21.525" y="23.575" width="1.025" height="1.025" fill="#2a1d15" fill-opacity="1.000" />
<rect x="22.550" y="23.575" width="1.025" height="1.025" fill="#1c130e" fill-opacity="1.000" />
<rect x="23.575" y="23.575" width="1.025" height="1.025" fill="#1c130e" fill-opacity="1.000" />
<rect x="17.425" y="24.600" width="1.025" height="1.025" fill="#1c130e" fill-opacity="1.000" />
<rect x="18.450" y="24.600" width="1.025" height="1.025" fill="#1c130e" fill-opacity="1.000" />
<rect x="19.475" y="24.600" width="1.025" height="1.025" fill="#1c130e" fill-opacity="1.000" />
<rect x="20.500" y="24.600" width="1.025" height="1.025" fill="#030202" fill-opacity="1.000" />
<rect x="21.525" y="24.600" width="1.025" height="1.025" fill="#1c130e" fill-opacity="1.000" />
<rect x="22.550" y="24.600" width="1.025" height="1.025" fill="#0c0806" fill-opacity="1.000" />
</svg>