<svg xmlns="http://www.w3.org/2000/svg" width="37.925" height="37.925" shape-rendering="crispEdges" style="image-rendering: pixelated;">
<rect x="18.450" y="2.050" width="1.025" height="1.025" fill="#52322a" fill-opacity="1.000" />
<rect x="19.475" y="2.050" width="1.025" height="1.025" fill="#7f362a" fill-opacity="1.000" />
<rect x="14.350" y="3.075" width="1.025" height="1.025" fill="#ca573c" fill-opacity="1.000" />
<rect x="15.375" y="3.075" width="1.025" height="1.025" fill="#856e50" fill-opacity="1.000" />
<rect x="16.400" y="3.075" width="1.025" height="1.025" fill="#bf9f6e" fill-opacity="1.000" />
<rect x="17.425" y="3.075" width="1.025" height="1.025" fill="#705740" fill-opacity="1.000" />
<rect x="18.450" y="3.075" width="1.025" height="1.025" fill="#ce5b40" fill-opacity="1.000" />
<rect x="19.475" y="3.075" width="1.025" height="1.025" fill="#c5543a" fill-opacity="1.000" />
<rect x="20.500" y="3.075" width="1.025" height="1.025" fill="#df1a13" fill-opacity="1.000" />
<rect x="21.525" y="3.075" width="1.025" height="1.025" fill="#c7553b" fill-opacity="1.000" />
<rect x="22.550" y="3.075" width="1.025" height="1.025" fill="#d05c40" fill-opacity="1.000" />
<rect x="23.575" y="3.075" width="1.025" height="1.025" fill="#7d6247" fill-opacity="1.000" />
<rect x="13.325" y="4.100" width="1.025" height="1.025" fill="#c6a471" fill-opacity="1.000" />
<rect x="14.350" y="4.100" width="1.025" height="1.025" fill="#c2a270" fill-opacity="1.000" />
<rect x="15.375" y="4.100" width="1.025" height="1.025" fill="#8f7857" fill-opacity="1.000" />
<rect x="16.400" y="4.100" width="1.025" height="1.025" fill="#c9a77d" fill-opacity="1.000" />
<rect x="17.425" y="4.100" width="1.025" height="1.025" fill="#907959" fill-opacity="1.000" />
<rect x="18.450" y="4.100" width="1.025" height="1.025" fill="#cead78" fill-opacity="1.000" />
<rect x="19.475" y="4.100" width="1.025" height="1.025" fill="#ceab77" fill-opacity="1.000" />
<rect x="20.500" y="4.100" width="1.025" height="1.025" fill="#e01d14" fill-opacity="1.000" />
<rect x="21.525" y="4.100" width="1.025" height="1.025" fill="#ceac77" fill-opacity="1.000" />
<rect x="22.550" y="4.100" width="1.025" height="1.025" fill="#cfac79" fill-opacity="1.000" />
<rect x="23.575" y="4.100" width="1.025" height="1.025" fill="#8e7758" fill-opacity="1.000" />
<rect x="24.600" y="4.100" width="1.025" height="1.025" fill="#c8a67d" fill-opacity="1.000" />
<rect x="12.300" y="5.125" width="1.025" height="1.025" fill="#cdab76" fill-opacity="1.000" />
<rect x="13.325" y="5.125" width="1.025" height="1.025" fill="#cdab76" fill-opacity="1.000" />
<rect x="14.350" y="5.125" width="1.025" height="1.025" fill="#caa874" fill-opacity="1.000" />
<rect x="15.375" y="5.125" width="1.025" height="1.025" fill="#81664a" fill-opacity="1.000" />
<rect x="16.400" y="5.125" width="1.025" height="1.025" fill="#d6b98b" fill-opacity="1.000" />
<rect x="17.425" y="5.125" width="1.025" height="1.025" fill="#8f7857" fill-opacity="1.000" />
<rect x="18.450" y="5.125" width="1.025" height="1.025" fill="#ccab76" fill-opacity="1.000" />
<rect x="19.475" y="5.125" width="1.025" height="1.025" fill="#cdaa76" fill-opacity="1.000" />
<rect x="20.500" y="5.125" width="1.025" height="1.025" fill="#df1b13" fill-opacity="1.000" />
<rect x="21.525" y="5.125" width="1.025" height="1.025" fill="#ceab77" fill-opacity="1.000" />
<rect x="22.550" y="5.125" width="1.025" height="1.025" fill="#cdab77" fill-opacity="1.000" />
<rect x="23.575" y="5.125" width="1.025" height="1.025" fill="#8e7756" fill-opacity="1.000" />
<rect x="24.600" y="5.125" width="1.025" height="1.025" fill="#d6b88a" fill-opacity="1.000" />
<rect x="25.625" y="5.125" width="1.025" height="1.025" fill="#83684b" fill-opacity="1.000" />
<rect x="12.300" y="6.150" width="1.025" height="1.025" fill="#ceab77" fill-opacity="1.000" />
<rect x="13.325" y="6.150" width="1.025" height="1.025" fill="#4d4235" fill-opacity="1.000" />
<rect x="14.350" y="6.150" width="1.025" height="1.025" fill="#4d4235" fill-opacity="1.000" />
<rect x="15.375" y="6.150" width="1.025" height="1.025" fill="#413229" fill-opacity="1.000" />
<rect x="16.400" y="6.150" width="1.025" height="1.025" fill="#96856a" fill-opacity="1.000" />
<rect x="17.425" y="6.150" width="1.025" height="1.025" fill="#4f4437" fill-opacity="1.000" />
<rect x="18.450" y="6.150" width="1.025" height="1.025" fill="#4e4336" fill-opacity="1.000" />
<rect x="19.475" y="6.150" width="1.025" height="1.025" fill="#4f4437" fill-opacity="1.000" />
<rect x="20.500" y="6.150" width="1.025" height="1.025" fill="#4f4437" fill-opacity="1.000" />
<rect x="21.525" y="6.150" width="1.025" height="1.025" fill="#4f4437" fill-opacity="1.000" />
<rect x="22.550" y="6.150" width="1.025" height="1.025" fill="#4e4336" fill-opacity="1.000" />
<rect x="23.575" y="6.150" width="1.025" height="1.025" fill="#4e4236" fill-opacity="1.000" />
<rect x="24.600" y="6.150" width="1.025" height="1.025" fill="#958369" fill-opacity="1.000" />
<rect x="25.625" y="6.150" width="1.025" height="1.025" fill="#4e4337" fill-opacity="1.000" />
<rect x="12.300" y="7.175" width="1.025" height="1.025" fill="#4b3f33" fill-opacity="1.000" />
<rect x="13.325" y="7.175" width="1.025" height="1.025" fill="#b8a587" fill-opacity="1.000" />
<rect x="14.350" y="7.175" width="1.025" height="1.025" fill="#d0b995" fill-opacity="1.000" />
<rect x="15.375" y="7.175" width="1.025" height="1.025" fill="#8a755e" fill-opacity="1.000" />
<rect x="16.400" y="7.175" width="1.025" height="1.025" fill="#ddc59e" fill-opacity="1.000" />
<rect x="17.425" y="7.175" width="1.025" height="1.025" fill="#958369" fill-opacity="1.000" />
<rect x="18.450" y="7.175" width="1.025" height="1.025" fill="#dcc49d" fill-opacity="1.000" />
<rect x="19.475" y="7.175" width="1.025" height="1.025" fill="#ddc59e" fill-opacity="1.000" />
<rect x="20.500" y="7.175" width="1.025" height="1.025" fill="#e85e56" fill-opacity="1.000" />
<rect x="21.525" y="7.175" width="1.025" height="1.025" fill="#dcc39d" fill-opacity="1.000" />
<rect x="22.550" y="7.175" width="1.025" height="1.025" fill="#dbc09b" fill-opacity="1.000" />
<rect x="23.575" y="7.175" width="1.025" height="1.025" fill="#938167" fill-opacity="1.000" />
<rect x="24.600" y="7.175" width="1.025" height="1.025" fill="#dbc29c" fill-opacity="1.000" />
<rect x="25.625" y="7.175" width="1.025" height="1.025" fill="#958369" fill-opacity="1.000" />
<rect x="12.300" y="8.200" width="1.025" height="1.025" fill="#cbb190" fill-opacity="1.000" />
<rect x="13.325" y="8.200" width="1.025" height="1.025" fill="#4a3d32" fill-opacity="1.000" />
<rect x="14.350" y="8.200" width="1.025" height="1.025" fill="#4c4135" fill-opacity="1.000" />
<rect x="15.375" y="8.200" width="1.025" height="1.025" fill="#43352c" fill-opacity="1.000" />
<rect x="16.400" y="8.200" width="1.025" height="1.025" fill="#948369" fill-opacity="1.000" />
<rect x="17.425" y="8.200" width="1.025" height="1.025" fill="#4d4135" fill-opacity="1.000" />
<rect x="18.450" y="8.200" width="1.025" height="1.025" fill="#4d4235" fill-opacity="1.000" />
<rect x="19.475" y="8.200" width="1.025" height="1.025" fill="#4d4235" fill-opacity="1.000" />
<rect x="20.500" y="8.200" width="1.025" height="1.025" fill="#4d4135" fill-opacity="1.000" />
<rect x="21.525" y="8.200" width="1.025" height="1.025" fill="#4d4135" fill-opacity="1.000" />
<rect x="22.550" y="8.200" width="1.025" height="1.025" fill="#4d4135" fill-opacity="1.000" />
<rect x="23.575" y="8.200" width="1.025" height="1.025" fill="#4c4034" fill-opacity="1.000" />
<rect x="24.600" y="8.200" width="1.025" height="1.025" fill="#948268" fill-opacity="1.000" />
<rect x="25.625" y="8.200" width="1.025" height="1.025" fill="#4e4436" fill-opacity="1.000" />
<rect x="12.300" y="9.225" width="1.025" height="1.025" fill="#90724e" fill-opacity="1.000" />
<rect x="13.325" y="9.225" width="1.025" height="1.025" fill="#0f0b06" fill-opacity="1.000" />
<rect x="14.350" y="9.225" width="1.025" height="1.025" fill="#796345" fill-opacity="1.000" />
<rect x="15.375" y="9.225" width="1.025" height="1.025" fill="#796247" fill-opacity="1.000" />
<rect x="16.400" y="9.225" width="1.025" height="1.025" fill="#c3a77e" fill-opacity="1.000" />
<rect x="17.425" y="9.225" width="1.025" height="1.025" fill="#836e50" fill-opacity="1.000" />
<rect x="18.450" y="9.225" width="1.025" height="1.025" fill="#715d47" fill-opacity="1.000" />
<rect x="19.475" y="9.225" width="1.025" height="1.025" fill="#bb996d" fill-opacity="1.000" />
<rect x="20.500" y="9.225" width="1.025" height="1.025" fill="#b5956b" fill-opacity="1.000" />
<rect x="21.525" y="9.225" width="1.025" height="1.025" fill="#cb0808" fill-opacity="1.000" />
<rect x="22.550" y="9.225" width="1.025" height="1.025" fill="#9b7f5b" fill-opacity="1.000" />
<rect x="23.575" y="9.225" width="1.025" height="1.025" fill="#ab8d64" fill-opacity="1.000" />
<rect x="24.600" y="9.225" width="1.025" height="1.025" fill="#7b654d" fill-opacity="1.000" />
<rect x="25.625" y="9.225" width="1.025" height="1.025" fill="#c3a681" fill-opacity="1.000" />
<rect x="26.650" y="9.225" width="1.025" height="1.025" fill="#6e5b46" fill-opacity="1.000" />
<rect x="12.300" y="10.250" width="1.025" height="1.025" fill="#692e09" fill-opacity="1.000" />
<rect x="13.325" y="10.250" width="1.025" height="1.025" fill="#0e0805" fill-opacity="1.000" />
<rect x="14.350" y="10.250" width="1.025" height="1.025" fill="#7a6445" fill-opacity="1.000" />
<rect x="15.375" y="10.250" width="1.025" height="1.025" fill="#6e5b43" fill-opacity="1.000" />
<rect x="16.400" y="10.250" width="1.025" height="1.025" fill="#b19878" fill-opacity="1.000" />
<rect x="17.425" y="10.250" width="1.025" height="1.025" fill="#6b5844" fill-opacity="1.000" />
<rect x="18.450" y="10.250" width="1.025" height="1.025" fill="#ab120d" fill-opacity="1.000" />
<rect x="19.475" y="10.250" width="1.025" height="1.025" fill="#a9120c" fill-opacity="1.000" />
<rect x="20.500" y="10.250" width="1.025" height="1.025" fill="#a8110b" fill-opacity="1.000" />
<rect x="21.525" y="10.250" width="1.025" height="1.025" fill="#b40f0d" fill-opacity="1.000" />
<rect x="22.550" y="10.250" width="1.025" height="1.025" fill="#b40f0e" fill-opacity="1.000" />
<rect x="23.575" y="10.250" width="1.025" height="1.025" fill="#bd0e0f" fill-opacity="1.000" />
<rect x="24.600" y="10.250" width="1.025" height="1.025" fill="#bd0f0f" fill-opacity="1.000" />
<rect x="25.625" y="10.250" width="1.025" height="1.025" fill="#bd0f10" fill-opacity="1.000" />
<rect x="26.650" y="10.250" width="1.025" height="1.025" fill="#ac2518" fill-opacity="1.000" />
<rect x="27.675" y="10.250" width="1.025" height="1.025" fill="#333333" fill-opacity="1.000" />
<rect x="16.400" y="11.275" width="1.025" height="1.025" fill="#9c0d0a" fill-opacity="1.000" />
<rect x="17.425" y="11.275" width="1.025" height="1.025" fill="#a40e0a" fill-opacity="1.000" />
<rect x="18.450" y="11.275" width="1.025" height="1.025" fill="#a70f0b" fill-opacity="1.000" />
<rect x="25.625" y="11.275" width="1.025" height="1.025" fill="#4a0301" fill-opacity="1.000" />
<rect x="26.650" y="11.275" width="1.025" height="1.025" fill="#a70e10" fill-opacity="1.000" />
<rect x="27.675" y="11.275" width="1.025" height="1.025" fill="#a4100f" fill-opacity="1.000" />
</svg>