<svg xmlns="http://www.w3.org/2000/svg" width="37.925" height="37.925" shape-rendering="crispEdges" style="image-rendering: pixelated;">
<rect x="12.300" y="27.675" width="1.025" height="1.025" fill="#3d322d" fill-opacity="1.000" />
<rect x="19.475" y="27.675" width="1.025" height="1.025" fill="#3d322d" fill-opacity="1.000" />
<rect x="11.275" y="28.700" width="1.025" height="1.025" fill="#856d4d" fill-opacity="1.000" />
<rect x="12.300" y="28.700" width="1.025" height="1.025" fill="#bb996b" fill-opacity="1.000" />
<rect x="13.325" y="28.700" width="1.025" height="1.025" fill="#3d322d" fill-opacity="1.000" />
<rect x="14.350" y="28.700" width="1.025" height="1.025" fill="#5f4b37" fill-opacity="0.753" />
<rect x="15.375" y="28.700" width="1.025" height="1.025" fill="#453830" fill-opacity="0.929" />
<rect x="16.400" y="28.700" width="1.025" height="1.025" fill="#5d4a36" fill-opacity="0.753" />
<rect x="17.425" y="28.700" width="1.025" height="1.025" fill="#60372b" fill-opacity="0.753" />
<rect x="18.450" y="28.700" width="1.025" height="1.025" fill="#544437" fill-opacity="0.835" />
<rect x="19.475" y="28.700" width="1.025" height="1.025" fill="#be9869" fill-opacity="1.000" />
<rect x="20.500" y="28.700" width="1.025" height="1.025" fill="#725d42" fill-opacity="1.000" />
<rect x="21.525" y="28.700" width="1.025" height="1.025" fill="#8b7250" fill-opacity="1.000" />
<rect x="9.225" y="29.725" width="1.025" height="1.025" fill="#927653" fill-opacity="1.000" />
<rect x="10.250" y="29.725" width="1.025" height="1.025" fill="#b23929" fill-opacity="1.000" />
<rect x="11.275" y="29.725" width="1.025" height="1.025" fill="#c84b35" fill-opacity="1.000" />
<rect x="12.300" y="29.725" width="1.025" height="1.025" fill="#7b644b" fill-opacity="1.000" />
<rect x="13.325" y="29.725" width="1.025" height="1.025" fill="#ba986a" fill-opacity="1.000" />
<rect x="14.350" y="29.725" width="1.025" height="1.025" fill="#715c46" fill-opacity="1.000" />
<rect x="15.375" y="29.725" width="1.025" height="1.025" fill="#ca4d37" fill-opacity="1.000" />
<rect x="16.400" y="29.725" width="1.025" height="1.025" fill="#c04531" fill-opacity="1.000" />
<rect x="17.425" y="29.725" width="1.025" height="1.025" fill="#dd0505" fill-opacity="1.000" />
<rect x="18.450" y="29.725" width="1.025" height="1.025" fill="#c24632" fill-opacity="1.000" />
<rect x="19.475" y="29.725" width="1.025" height="1.025" fill="#cd4f38" fill-opacity="1.000" />
<rect x="20.500" y="29.725" width="1.025" height="1.025" fill="#7f684e" fill-opacity="1.000" />
<rect x="21.525" y="29.725" width="1.025" height="1.025" fill="#caac85" fill-opacity="1.000" />
<rect x="22.550" y="29.725" width="1.025" height="1.025" fill="#554536" fill-opacity="1.000" />
<rect x="23.575" y="29.725" width="1.025" height="1.025" fill="#a93224" fill-opacity="1.000" />
<rect x="7.175" y="30.750" width="1.025" height="1.025" fill="#dd0505" fill-opacity="1.000" />
<rect x="8.200" y="30.750" width="1.025" height="1.025" fill="#8f7552" fill-opacity="1.000" />
<rect x="9.225" y="30.750" width="1.025" height="1.025" fill="#c4a071" fill-opacity="1.000" />
<rect x="10.250" y="30.750" width="1.025" height="1.025" fill="#c5a171" fill-opacity="1.000" />
<rect x="11.275" y="30.750" width="1.025" height="1.025" fill="#be9c6e" fill-opacity="1.000" />
<rect x="12.300" y="30.750" width="1.025" height="1.025" fill="#846c51" fill-opacity="1.000" />
<rect x="13.325" y="30.750" width="1.025" height="1.025" fill="#d3b48a" fill-opacity="1.000" />
<rect x="14.350" y="30.750" width="1.025" height="1.025" fill="#846c51" fill-opacity="1.000" />
<rect x="15.375" y="30.750" width="1.025" height="1.025" fill="#c9a574" fill-opacity="1.000" />
<rect x="16.400" y="30.750" width="1.025" height="1.025" fill="#c9a373" fill-opacity="1.000" />
<rect x="17.425" y="30.750" width="1.025" height="1.025" fill="#dd0505" fill-opacity="1.000" />
<rect x="18.450" y="30.750" width="1.025" height="1.025" fill="#c9a473" fill-opacity="1.000" />
<rect x="19.475" y="30.750" width="1.025" height="1.025" fill="#caa575" fill-opacity="1.000" />
<rect x="20.500" y="30.750" width="1.025" height="1.025" fill="#836b51" fill-opacity="1.000" />
<rect x="21.525" y="30.750" width="1.025" height="1.025" fill="#d2b38a" fill-opacity="1.000" />
<rect x="22.550" y="30.750" width="1.025" height="1.025" fill="#7f684e" fill-opacity="1.000" />
<rect x="23.575" y="30.750" width="1.025" height="1.025" fill="#b9986b" fill-opacity="1.000" />
<rect x="24.600" y="30.750" width="1.025" height="1.025" fill="#705c41" fill-opacity="1.000" />
<rect x="25.625" y="30.750" width="1.025" height="1.025" fill="#756043" fill-opacity="1.000" />
<rect x="6.150" y="31.775" width="1.025" height="1.025" fill="#886f4e" fill-opacity="1.000" />
<rect x="7.175" y="31.775" width="1.025" height="1.025" fill="#dd0505" fill-opacity="1.000" />
<rect x="8.200" y="31.775" width="1.025" height="1.025" fill="#c9a474" fill-opacity="1.000" />
<rect x="9.225" y="31.775" width="1.025" height="1.025" fill="#cba675" fill-opacity="1.000" />
<rect x="10.250" y="31.775" width="1.025" height="1.025" fill="#cba675" fill-opacity="1.000" />
<rect x="11.275" y="31.775" width="1.025" height="1.025" fill="#c7a373" fill-opacity="1.000" />
<rect x="12.300" y="31.775" width="1.025" height="1.025" fill="#846c51" fill-opacity="1.000" />
<rect x="13.325" y="31.775" width="1.025" height="1.025" fill="#d3b48a" fill-opacity="1.000" />
<rect x="14.350" y="31.775" width="1.025" height="1.025" fill="#846c51" fill-opacity="1.000" />
<rect x="15.375" y="31.775" width="1.025" height="1.025" fill="#c9a574" fill-opacity="1.000" />
<rect x="16.400" y="31.775" width="1.025" height="1.025" fill="#c9a373" fill-opacity="1.000" />
<rect x="17.425" y="31.775" width="1.025" height="1.025" fill="#dd0505" fill-opacity="1.000" />
<rect x="18.450" y="31.775" width="1.025" height="1.025" fill="#caa574" fill-opacity="1.000" />
<rect x="19.475" y="31.775" width="1.025" height="1.025" fill="#caa575" fill-opacity="1.000" />
<rect x="20.500" y="31.775" width="1.025" height="1.025" fill="#846c51" fill-opacity="1.000" />
<rect x="21.525" y="31.775" width="1.025" height="1.025" fill="#d3b48a" fill-opacity="1.000" />
<rect x="22.550" y="31.775" width="1.025" height="1.025" fill="#836b50" fill-opacity="1.000" />
<rect x="23.575" y="31.775" width="1.025" height="1.025" fill="#c5a171" fill-opacity="1.000" />
<rect x="24.600" y="31.775" width="1.025" height="1.025" fill="#cba675" fill-opacity="1.000" />
<rect x="25.625" y="31.775" width="1.025" height="1.025" fill="#c29f70" fill-opacity="1.000" />
<rect x="26.650" y="31.775" width="1.025" height="1.025" fill="#dd0505" fill-opacity="1.000" />
<rect x="5.125" y="32.800" width="1.025" height="1.025" fill="#7b6447" fill-opacity="1.000" />
<rect x="6.150" y="32.800" width="1.025" height="1.025" fill="#be9c6e" fill-opacity="1.000" />
<rect x="7.175" y="32.800" width="1.025" height="1.025" fill="#dd0505" fill-opacity="1.000" />
<rect x="8.200" y="32.800" width="1.025" height="1.025" fill="#c8a373" fill-opacity="1.000" />
<rect x="9.225" y="32.800" width="1.025" height="1.025" fill="#cba675" fill-opacity="1.000" />
<rect x="10.250" y="32.800" width="1.025" height="1.025" fill="#3d322d" fill-opacity="1.000" />
<rect x="11.275" y="32.800" width="1.025" height="1.025" fill="#3d322d" fill-opacity="1.000" />
<rect x="12.300" y="32.800" width="1.025" height="1.025" fill="#3d322d" fill-opacity="1.000" />
<rect x="13.325" y="32.800" width="1.025" height="1.025" fill="#8c7a66" fill-opacity="1.000" />
<rect x="14.350" y="32.800" width="1.025" height="1.025" fill="#3d322d" fill-opacity="1.000" />
<rect x="15.375" y="32.800" width="1.025" height="1.025" fill="#3d322d" fill-opacity="1.000" />
<rect x="16.400" y="32.800" width="1.025" height="1.025" fill="#3d322d" fill-opacity="1.000" />
<rect x="17.425" y="32.800" width="1.025" height="1.025" fill="#3d322d" fill-opacity="1.000" />
<rect x="18.450" y="32.800" width="1.025" height="1.025" fill="#3d322d" fill-opacity="1.000" />
<rect x="19.475" y="32.800" width="1.025" height="1.025" fill="#3d322d" fill-opacity="1.000" />
<rect x="20.500" y="32.800" width="1.025" height="1.025" fill="#3d322d" fill-opacity="1.000" />
<rect x="21.525" y="32.800" width="1.025" height="1.025" fill="#8c7a66" fill-opacity="1.000" />
<rect x="22.550" y="32.800" width="1.025" height="1.025" fill="#3d322d" fill-opacity="1.000" />
<rect x="23.575" y="32.800" width="1.025" height="1.025" fill="#3d322d" fill-opacity="1.000" />
<rect x="24.600" y="32.800" width="1.025" height="1.025" fill="#c5a171" fill-opacity="1.000" />
<rect x="25.625" y="32.800" width="1.025" height="1.025" fill="#cba675" fill-opacity="1.000" />
<rect x="26.650" y="32.800" width="1.025" height="1.025" fill="#dd0505" fill-opacity="1.000" />
<rect x="27.675" y="32.800" width="1.025" height="1.025" fill="#6c5b48" fill-opacity="1.000" />
<rect x="5.125" y="33.825" width="1.025" height="1.025" fill="#3d322d" fill-opacity="1.000" />
<rect x="6.150" y="33.825" width="1.025" height="1.025" fill="#3d322d" fill-opacity="1.000" />
<rect x="7.175" y="33.825" width="1.025" height="1.025" fill="#3d322d" fill-opacity="1.000" />
<rect x="8.200" y="33.825" width="1.025" height="1.025" fill="#3d322d" fill-opacity="1.000" />
<rect x="9.225" y="33.825" width="1.025" height="1.025" fill="#3d322d" fill-opacity="1.000" />
<rect x="10.250" y="33.825" width="1.025" height="1.025" fill="#b4a188" fill-opacity="1.000" />
<rect x="11.275" y="33.825" width="1.025" height="1.025" fill="#cfb798" fill-opacity="1.000" />
<rect x="12.300" y="33.825" width="1.025" height="1.025" fill="#8b7965" fill-opacity="1.000" />
<rect x="13.325" y="33.825" width="1.025" height="1.025" fill="#dbc19f" fill-opacity="1.000" />
<rect x="14.350" y="33.825" width="1.025" height="1.025" fill="#8b7965" fill-opacity="1.000" />
<rect x="15.375" y="33.825" width="1.025" height="1.025" fill="#dbc19f" fill-opacity="1.000" />
<rect x="16.400" y="33.825" width="1.025" height="1.025" fill="#dbc19f" fill-opacity="1.000" />
<rect x="17.425" y="33.825" width="1.025" height="1.025" fill="#e75050" fill-opacity="1.000" />
<rect x="18.450" y="33.825" width="1.025" height="1.025" fill="#dac09f" fill-opacity="1.000" />
<rect x="19.475" y="33.825" width="1.025" height="1.025" fill="#dbc19f" fill-opacity="1.000" />
<rect x="20.500" y="33.825" width="1.025" height="1.025" fill="#8b7965" fill-opacity="1.000" />
<rect x="21.525" y="33.825" width="1.025" height="1.025" fill="#dbc19f" fill-opacity="1.000" />
<rect x="22.550" y="33.825" width="1.025" height="1.025" fill="#8b7965" fill-opacity="1.000" />
<rect x="23.575" y="33.825" width="1.025" height="1.025" fill="#d1b999" fill-opacity="1.000" />
<rect x="24.600" y="33.825" width="1.025" height="1.025" fill="#8e7552" fill-opacity="1.000" />
<rect x="25.625" y="33.825" width="1.025" height="1.025" fill="#3d322d" fill-opacity="1.000" />
<rect x="26.650" y="33.825" width="1.025" height="1.025" fill="#4e4035" fill-opacity="1.000" />
<rect x="27.675" y="33.825" width="1.025" height="1.025" fill="#745f48" fill-opacity="1.000" />
<rect x="5.125" y="34.850" width="1.025" height="1.025" fill="#b4a188" fill-opacity="1.000" />
<rect x="6.150" y="34.850" width="1.025" height="1.025" fill="#b4a188" fill-opacity="1.000" />
<rect x="7.175" y="34.850" width="1.025" height="1.025" fill="#cfb798" fill-opacity="1.000" />
<rect x="8.200" y="34.850" width="1.025" height="1.025" fill="#cfb798" fill-opacity="1.000" />
<rect x="9.225" y="34.850" width="1.025" height="1.025" fill="#cfb798" fill-opacity="1.000" />
<rect x="10.250" y="34.850" width="1.025" height="1.025" fill="#3d322d" fill-opacity="1.000" />
<rect x="11.275" y="34.850" width="1.025" height="1.025" fill="#3d322d" fill-opacity="1.000" />
<rect x="12.300" y="34.850" width="1.025" height="1.025" fill="#3d322d" fill-opacity="1.000" />
<rect x="13.325" y="34.850" width="1.025" height="1.025" fill="#8c7a66" fill-opacity="1.000" />
<rect x="14.350" y="34.850" width="1.025" height="1.025" fill="#3d322d" fill-opacity="1.000" />
<rect x="15.375" y="34.850" width="1.025" height="1.025" fill="#3d322d" fill-opacity="1.000" />
<rect x="16.400" y="34.850" width="1.025" height="1.025" fill="#3d322d" fill-opacity="1.000" />
<rect x="17.425" y="34.850" width="1.025" height="1.025" fill="#3d322d" fill-opacity="1.000" />
<rect x="18.450" y="34.850" width="1.025" height="1.025" fill="#3d322d" fill-opacity="1.000" />
<rect x="19.475" y="34.850" width="1.025" height="1.025" fill="#3d322d" fill-opacity="1.000" />
<rect x="20.500" y="34.850" width="1.025" height="1.025" fill="#3d322d" fill-opacity="1.000" />
<rect x="21.525" y="34.850" width="1.025" height="1.025" fill="#8c7a66" fill-opacity="1.000" />
<rect x="22.550" y="34.850" width="1.025" height="1.025" fill="#3d322d" fill-opacity="1.000" />
<rect x="23.575" y="34.850" width="1.025" height="1.025" fill="#3d322d" fill-opacity="1.000" />
<rect x="24.600" y="34.850" width="1.025" height="1.025" fill="#30271c" fill-opacity="1.000" />
<rect x="25.625" y="34.850" width="1.025" height="1.025" fill="#d1b999" fill-opacity="1.000" />
<rect x="26.650" y="34.850" width="1.025" height="1.025" fill="#d1b999" fill-opacity="1.000" />
<rect x="27.675" y="34.850" width="1.025" height="1.025" fill="#d1b999" fill-opacity="1.000" />
<rect x="5.125" y="35.875" width="1.025" height="1.025" fill="#987b55" fill-opacity="1.000" />
<rect x="6.150" y="35.875" width="1.025" height="1.025" fill="#6f5a40" fill-opacity="1.000" />
<rect x="7.175" y="35.875" width="1.025" height="1.025" fill="#9d7f58" fill-opacity="1.000" />
<rect x="8.200" y="35.875" width="1.025" height="1.025" fill="#796244" fill-opacity="1.000" />
<rect x="9.225" y="35.875" width="1.025" height="1.025" fill="#927653" fill-opacity="1.000" />
<rect x="10.250" y="35.875" width="1.025" height="1.025" fill="#000000" fill-opacity="1.000" />
<rect x="11.275" y="35.875" width="1.025" height="1.025" fill="#6f5a40" fill-opacity="1.000" />
<rect x="12.300" y="35.875" width="1.025" height="1.025" fill="#755f48" fill-opacity="1.000" />
<rect x="13.325" y="35.875" width="1.025" height="1.025" fill="#c1a47f" fill-opacity="1.000" />
<rect x="14.350" y="35.875" width="1.025" height="1.025" fill="#79634b" fill-opacity="1.000" />
<rect x="15.375" y="35.875" width="1.025" height="1.025" fill="#cba675" fill-opacity="1.000" />
<rect x="16.400" y="35.875" width="1.025" height="1.025" fill="#c5a172" fill-opacity="1.000" />
<rect x="17.425" y="35.875" width="1.025" height="1.025" fill="#dd0505" fill-opacity="1.000" />
<rect x="18.450" y="35.875" width="1.025" height="1.025" fill="#a88961" fill-opacity="1.000" />
<rect x="19.475" y="35.875" width="1.025" height="1.025" fill="#ba986b" fill-opacity="1.000" />
<rect x="20.500" y="35.875" width="1.025" height="1.025" fill="#846c51" fill-opacity="1.000" />
<rect x="21.525" y="35.875" width="1.025" height="1.025" fill="#d3b38a" fill-opacity="1.000" />
<rect x="22.550" y="35.875" width="1.025" height="1.025" fill="#745f48" fill-opacity="1.000" />
<rect x="23.575" y="35.875" width="1.025" height="1.025" fill="#8e7552" fill-opacity="1.000" />
<rect x="24.600" y="35.875" width="1.025" height="1.025" fill="#3c3122" fill-opacity="1.000" />
<rect x="25.625" y="35.875" width="1.025" height="1.025" fill="#30271c" fill-opacity="1.000" />
<rect x="26.650" y="35.875" width="1.025" height="1.025" fill="#453829" fill-opacity="1.000" />
<rect x="27.675" y="35.875" width="1.025" height="1.025" fill="#745f48" fill-opacity="1.000" />
<rect x="10.250" y="36.900" width="1.025" height="1.025" fill="#000000" fill-opacity="1.000" />
<rect x="11.275" y="36.900" width="1.025" height="1.025" fill="#715c41" fill-opacity="1.000" />
<rect x="12.300" y="36.900" width="1.025" height="1.025" fill="#65533f" fill-opacity="1.000" />
<rect x="13.325" y="36.900" width="1.025" height="1.025" fill="#bfa37f" fill-opacity="1.000" />
<rect x="14.350" y="36.900" width="1.025" height="1.025" fill="#715c46" fill-opacity="1.000" />
<rect x="15.375" y="36.900" width="1.025" height="1.025" fill="#ad8d64" fill-opacity="1.000" />
<rect x="16.400" y="36.900" width="1.025" height="1.025" fill="#af8f65" fill-opacity="1.000" />
<rect x="17.425" y="36.900" width="1.025" height="1.025" fill="#dd0505" fill-opacity="1.000" />
<rect x="18.450" y="36.900" width="1.025" height="1.025" fill="#a0835c" fill-opacity="1.000" />
<rect x="19.475" y="36.900" width="1.025" height="1.025" fill="#ae8f64" fill-opacity="1.000" />
<rect x="20.500" y="36.900" width="1.025" height="1.025" fill="#7b654c" fill-opacity="1.000" />
<rect x="21.525" y="36.900" width="1.025" height="1.025" fill="#caac85" fill-opacity="1.000" />
<rect x="22.550" y="36.900" width="1.025" height="1.025" fill="#755f48" fill-opacity="1.000" />
<rect x="23.575" y="36.900" width="1.025" height="1.025" fill="#7d6648" fill-opacity="1.000" />
<rect x="24.600" y="36.900" width="1.025" height="1.025" fill="#0c0a07" fill-opacity="1.000" />
</svg>