<svg xmlns="http://www.w3.org/2000/svg" width="37.925" height="37.925" shape-rendering="crispEdges" style="image-rendering: pixelated;">
<rect x="23.575" y="2.050" width="1.025" height="1.025" fill="#fffed6" fill-opacity="0.486" />
<rect x="23.575" y="3.075" width="1.025" height="1.025" fill="#fffed6" fill-opacity="0.698" />
<rect x="20.500" y="4.100" width="1.025" height="1.025" fill="#fffed6" fill-opacity="0.400" />
<rect x="23.575" y="4.100" width="1.025" height="1.025" fill="#fffed6" fill-opacity="1.000" />
<rect x="26.650" y="4.100" width="1.025" height="1.025" fill="#fffed6" fill-opacity="0.400" />
<rect x="21.525" y="5.125" width="1.025" height="1.025" fill="#fffed6" fill-opacity="0.639" />
<rect x="23.575" y="5.125" width="1.025" height="1.025" fill="#fffed6" fill-opacity="1.000" />
<rect x="25.625" y="5.125" width="1.025" height="1.025" fill="#fffed6" fill-opacity="0.639" />
<rect x="22.550" y="6.150" width="1.025" height="1.025" fill="#fffed6" fill-opacity="0.639" />
<rect x="23.575" y="6.150" width="1.025" height="1.025" fill="#fffed6" fill-opacity="1.000" />
<rect x="24.600" y="6.150" width="1.025" height="1.025" fill="#fffed6" fill-opacity="0.639" />
<rect x="19.475" y="7.175" width="1.025" height="1.025" fill="#fffed6" fill-opacity="0.486" />
<rect x="20.500" y="7.175" width="1.025" height="1.025" fill="#fffed6" fill-opacity="0.698" />
<rect x="21.525" y="7.175" width="1.025" height="1.025" fill="#fffed6" fill-opacity="1.000" />
<rect x="22.550" y="7.175" width="1.025" height="1.025" fill="#fffed6" fill-opacity="1.000" />
<rect x="23.575" y="7.175" width="1.025" height="1.025" fill="#fffed6" fill-opacity="0.486" />
<rect x="24.600" y="7.175" width="1.025" height="1.025" fill="#fffed6" fill-opacity="1.000" />
<rect x="25.625" y="7.175" width="1.025" height="1.025" fill="#fffed6" fill-opacity="1.000" />
<rect x="26.650" y="7.175" width="1.025" height="1.025" fill="#fffed6" fill-opacity="0.698" />
<rect x="27.675" y="7.175" width="1.025" height="1.025" fill="#fffed6" fill-opacity="0.486" />
<rect x="22.550" y="8.200" width="1.025" height="1.025" fill="#fffed6" fill-opacity="0.639" />
<rect x="23.575" y="8.200" width="1.025" height="1.025" fill="#fffed6" fill-opacity="1.000" />
<rect x="24.600" y="8.200" width="1.025" height="1.025" fill="#fffed6" fill-opacity="0.639" />
<rect x="21.525" y="9.225" width="1.025" height="1.025" fill="#fffed6" fill-opacity="0.400" />
<rect x="23.575" y="9.225" width="1.025" height="1.025" fill="#fffed6" fill-opacity="1.000" />
<rect x="25.625" y="9.225" width="1.025" height="1.025" fill="#fffed6" fill-opacity="0.784" />
<rect x="20.500" y="10.250" width="1.025" height="1.025" fill="#fffed6" fill-opacity="0.400" />
<rect x="23.575" y="10.250" width="1.025" height="1.025" fill="#fffed6" fill-opacity="1.000" />
<rect x="26.650" y="10.250" width="1.025" height="1.025" fill="#fffed6" fill-opacity="0.400" />
<rect x="23.575" y="11.275" width="1.025" height="1.025" fill="#fffed6" fill-opacity="0.698" />
<rect x="23.575" y="12.300" width="1.025" height="1.025" fill="#fffed6" fill-opacity="0.486" />
</svg>