<svg xmlns="http://www.w3.org/2000/svg" width="37.925" height="37.925" shape-rendering="crispEdges" style="image-rendering: pixelated;">
<rect x="30.750" y="0.000" width="1.025" height="1.025" fill="#7f5122" fill-opacity="1.000" />
<rect x="31.775" y="0.000" width="1.025" height="1.025" fill="#af8655" fill-opacity="1.000" />
<rect x="29.725" y="1.025" width="1.025" height="1.025" fill="#966a39" fill-opacity="1.000" />
<rect x="30.750" y="1.025" width="1.025" height="1.025" fill="#7f5122" fill-opacity="1.000" />
<rect x="31.775" y="1.025" width="1.025" height="1.025" fill="#683c11" fill-opacity="1.000" />
<rect x="32.800" y="1.025" width="1.025" height="1.025" fill="#7f5122" fill-opacity="1.000" />
<rect x="36.900" y="1.025" width="1.025" height="1.025" fill="#ffffff" fill-opacity="0.200" />
<rect x="29.725" y="2.050" width="1.025" height="1.025" fill="#683c11" fill-opacity="1.000" />
<rect x="30.750" y="2.050" width="1.025" height="1.025" fill="#683c11" fill-opacity="1.000" />
<rect x="31.775" y="2.050" width="1.025" height="1.025" fill="#af8655" fill-opacity="1.000" />
<rect x="32.800" y="2.050" width="1.025" height="1.025" fill="#966a39" fill-opacity="1.000" />
<rect x="33.825" y="2.050" width="1.025" height="1.025" fill="#7f5122" fill-opacity="1.000" />
<rect x="26.650" y="3.075" width="1.025" height="1.025" fill="#ffffff" fill-opacity="0.675" />
<rect x="28.700" y="3.075" width="1.025" height="1.025" fill="#fff6ac" fill-opacity="0.443" />
<rect x="30.750" y="3.075" width="1.025" height="1.025" fill="#af8655" fill-opacity="1.000" />
<rect x="31.775" y="3.075" width="1.025" height="1.025" fill="#966a39" fill-opacity="1.000" />
<rect x="32.800" y="3.075" width="1.025" height="1.025" fill="#7f5122" fill-opacity="1.000" />
<rect x="33.825" y="3.075" width="1.025" height="1.025" fill="#af8655" fill-opacity="1.000" />
<rect x="34.850" y="3.075" width="1.025" height="1.025" fill="#fff288" fill-opacity="0.553" />
<rect x="28.700" y="4.100" width="1.025" height="1.025" fill="#ffffff" fill-opacity="0.302" />
<rect x="29.725" y="4.100" width="1.025" height="1.025" fill="#fff6ac" fill-opacity="0.443" />
<rect x="30.750" y="4.100" width="1.025" height="1.025" fill="#ffffff" fill-opacity="0.302" />
<rect x="32.800" y="4.100" width="1.025" height="1.025" fill="#966a39" fill-opacity="1.000" />
<rect x="33.825" y="4.100" width="1.025" height="1.025" fill="#ffffff" fill-opacity="0.553" />
<rect x="34.850" y="4.100" width="1.025" height="1.025" fill="#fff6ac" fill-opacity="0.443" />
<rect x="30.750" y="5.125" width="1.025" height="1.025" fill="#ffffff" fill-opacity="0.553" />
<rect x="31.775" y="5.125" width="1.025" height="1.025" fill="#ffffff" fill-opacity="0.714" />
<rect x="32.800" y="5.125" width="1.025" height="1.025" fill="#fff6ac" fill-opacity="0.443" />
<rect x="33.825" y="5.125" width="1.025" height="1.025" fill="#ffffff" fill-opacity="0.302" />
<rect x="30.750" y="6.150" width="1.025" height="1.025" fill="#fff6ac" fill-opacity="0.443" />
<rect x="31.775" y="6.150" width="1.025" height="1.025" fill="#ffffff" fill-opacity="0.302" />
<rect x="32.800" y="6.150" width="1.025" height="1.025" fill="#fff288" fill-opacity="0.553" />
<rect x="33.825" y="6.150" width="1.025" height="1.025" fill="#ffffff" fill-opacity="0.302" />
<rect x="36.900" y="6.150" width="1.025" height="1.025" fill="#ffffff" fill-opacity="0.592" />
<rect x="30.750" y="7.175" width="1.025" height="1.025" fill="#fffce4" fill-opacity="0.714" />
<rect x="31.775" y="7.175" width="1.025" height="1.025" fill="#fff6ac" fill-opacity="0.443" />
<rect x="32.800" y="7.175" width="1.025" height="1.025" fill="#ffffff" fill-opacity="0.302" />
<rect x="31.775" y="8.200" width="1.025" height="1.025" fill="#ffffff" fill-opacity="0.643" />
<rect x="32.800" y="8.200" width="1.025" height="1.025" fill="#ffffff" fill-opacity="0.773" />
<rect x="34.850" y="8.200" width="1.025" height="1.025" fill="#ffffff" fill-opacity="0.361" />
<rect x="30.750" y="9.225" width="1.025" height="1.025" fill="#ffffff" fill-opacity="0.361" />
<rect x="31.775" y="9.225" width="1.025" height="1.025" fill="#ffffff" fill-opacity="0.302" />
<rect x="32.800" y="9.225" width="1.025" height="1.025" fill="#fff6ac" fill-opacity="0.443" />
<rect x="31.775" y="10.250" width="1.025" height="1.025" fill="#fff6ac" fill-opacity="0.443" />
<rect x="32.800" y="10.250" width="1.025" height="1.025" fill="#fff7b5" fill-opacity="0.773" />
<rect x="31.775" y="11.275" width="1.025" height="1.025" fill="#ffffff" fill-opacity="0.643" />
<rect x="32.800" y="11.275" width="1.025" height="1.025" fill="#ffffff" fill-opacity="0.302" />
<rect x="31.775" y="12.300" width="1.025" height="1.025" fill="#ffffff" fill-opacity="0.443" />
<rect x="32.800" y="12.300" width="1.025" height="1.025" fill="#fff6ac" fill-opacity="0.443" />
<rect x="34.850" y="12.300" width="1.025" height="1.025" fill="#ffffff" fill-opacity="0.200" />
<rect x="31.775" y="13.325" width="1.025" height="1.025" fill="#fff6ac" fill-opacity="0.443" />
<rect x="32.800" y="13.325" width="1.025" height="1.025" fill="#fff9c7" fill-opacity="0.820" />
<rect x="31.775" y="14.350" width="1.025" height="1.025" fill="#fffdeb" fill-opacity="0.773" />
<rect x="32.800" y="14.350" width="1.025" height="1.025" fill="#fffbda" fill-opacity="0.643" />
<rect x="31.775" y="15.375" width="1.025" height="1.025" fill="#fffcde" fill-opacity="0.820" />
<rect x="32.800" y="15.375" width="1.025" height="1.025" fill="#fff288" fill-opacity="0.553" />
<rect x="31.775" y="16.400" width="1.025" height="1.025" fill="#ffffff" fill-opacity="0.553" />
<rect x="32.800" y="16.400" width="1.025" height="1.025" fill="#fffdeb" fill-opacity="0.773" />
<rect x="30.750" y="17.425" width="1.025" height="1.025" fill="#ffffff" fill-opacity="0.361" />
<rect x="31.775" y="17.425" width="1.025" height="1.025" fill="#ffffff" fill-opacity="0.835" />
<rect x="32.800" y="17.425" width="1.025" height="1.025" fill="#ffffff" fill-opacity="0.553" />
<rect x="29.725" y="18.450" width="1.025" height="1.025" fill="#ffffff" fill-opacity="0.741" />
<rect x="30.750" y="18.450" width="1.025" height="1.025" fill="#001f07" fill-opacity="1.000" />
<rect x="31.775" y="18.450" width="1.025" height="1.025" fill="#004a0e" fill-opacity="1.000" />
<rect x="32.800" y="18.450" width="1.025" height="1.025" fill="#006114" fill-opacity="1.000" />
<rect x="33.825" y="18.450" width="1.025" height="1.025" fill="#ffffff" fill-opacity="0.592" />
<rect x="29.725" y="19.475" width="1.025" height="1.025" fill="#001706" fill-opacity="1.000" />
<rect x="30.750" y="19.475" width="1.025" height="1.025" fill="#002e09" fill-opacity="1.000" />
<rect x="31.775" y="19.475" width="1.025" height="1.025" fill="#006115" fill-opacity="1.000" />
<rect x="32.800" y="19.475" width="1.025" height="1.025" fill="#009e28" fill-opacity="1.000" />
<rect x="33.825" y="19.475" width="1.025" height="1.025" fill="#47bd6b" fill-opacity="0.918" />
<rect x="34.850" y="19.475" width="1.025" height="1.025" fill="#ffffff" fill-opacity="0.675" />
<rect x="29.725" y="20.500" width="1.025" height="1.025" fill="#facc01" fill-opacity="1.000" />
<rect x="30.750" y="20.500" width="1.025" height="1.025" fill="#002108" fill-opacity="1.000" />
<rect x="31.775" y="20.500" width="1.025" height="1.025" fill="#002f0a" fill-opacity="1.000" />
<rect x="32.800" y="20.500" width="1.025" height="1.025" fill="#00791c" fill-opacity="1.000" />
<rect x="34.850" y="20.500" width="1.025" height="1.025" fill="#ffffff" fill-opacity="0.675" />
<rect x="28.700" y="21.525" width="1.025" height="1.025" fill="#faa004" fill-opacity="1.000" />
<rect x="30.750" y="21.525" width="1.025" height="1.025" fill="#fcc628" fill-opacity="1.000" />
<rect x="31.775" y="21.525" width="1.025" height="1.025" fill="#fee27a" fill-opacity="1.000" />
<rect x="32.800" y="21.525" width="1.025" height="1.025" fill="#fff599" fill-opacity="1.000" />
<rect x="30.750" y="22.550" width="1.025" height="1.025" fill="#fdce22" fill-opacity="1.000" />
<rect x="31.775" y="22.550" width="1.025" height="1.025" fill="#ffeb54" fill-opacity="1.000" />
<rect x="32.800" y="22.550" width="1.025" height="1.025" fill="#ffea52" fill-opacity="1.000" />
<rect x="34.850" y="22.550" width="1.025" height="1.025" fill="#ffffff" fill-opacity="0.592" />
<rect x="30.750" y="23.575" width="1.025" height="1.025" fill="#fdcb0e" fill-opacity="1.000" />
<rect x="31.775" y="23.575" width="1.025" height="1.025" fill="#ffec47" fill-opacity="1.000" />
<rect x="32.800" y="23.575" width="1.025" height="1.025" fill="#ffe54b" fill-opacity="1.000" />
<rect x="30.750" y="24.600" width="1.025" height="1.025" fill="#fdc50e" fill-opacity="1.000" />
<rect x="31.775" y="24.600" width="1.025" height="1.025" fill="#fecc0b" fill-opacity="1.000" />
<rect x="32.800" y="24.600" width="1.025" height="1.025" fill="#ffce0e" fill-opacity="1.000" />
<rect x="30.750" y="25.625" width="1.025" height="1.025" fill="#ffc90e" fill-opacity="1.000" />
<rect x="31.775" y="25.625" width="1.025" height="1.025" fill="#ffbe09" fill-opacity="1.000" />
<rect x="32.800" y="25.625" width="1.025" height="1.025" fill="#ffb409" fill-opacity="1.000" />
<rect x="30.750" y="26.650" width="1.025" height="1.025" fill="#f7a910" fill-opacity="1.000" />
<rect x="31.775" y="26.650" width="1.025" height="1.025" fill="#f9a307" fill-opacity="1.000" />
<rect x="32.800" y="26.650" width="1.025" height="1.025" fill="#faa004" fill-opacity="1.000" />
<rect x="29.725" y="27.675" width="1.025" height="1.025" fill="#f7a910" fill-opacity="1.000" />
<rect x="30.750" y="27.675" width="1.025" height="1.025" fill="#ffc90e" fill-opacity="1.000" />
<rect x="31.775" y="27.675" width="1.025" height="1.025" fill="#ffbe09" fill-opacity="1.000" />
<rect x="32.800" y="27.675" width="1.025" height="1.025" fill="#ffec47" fill-opacity="1.000" />
<rect x="33.825" y="27.675" width="1.025" height="1.025" fill="#ffec47" fill-opacity="1.000" />
<rect x="28.700" y="28.700" width="1.025" height="1.025" fill="#001806" fill-opacity="1.000" />
<rect x="29.725" y="28.700" width="1.025" height="1.025" fill="#002e09" fill-opacity="1.000" />
<rect x="30.750" y="28.700" width="1.025" height="1.025" fill="#006115" fill-opacity="1.000" />
<rect x="31.775" y="28.700" width="1.025" height="1.025" fill="#009e28" fill-opacity="1.000" />
<rect x="32.800" y="28.700" width="1.025" height="1.025" fill="#07ab3e" fill-opacity="1.000" />
<rect x="33.825" y="28.700" width="1.025" height="1.025" fill="#27bc63" fill-opacity="1.000" />
<rect x="34.850" y="28.700" width="1.025" height="1.025" fill="#00a22d" fill-opacity="1.000" />
<rect x="27.675" y="29.725" width="1.025" height="1.025" fill="#002108" fill-opacity="1.000" />
<rect x="28.700" y="29.725" width="1.025" height="1.025" fill="#00380c" fill-opacity="1.000" />
<rect x="29.725" y="29.725" width="1.025" height="1.025" fill="#004610" fill-opacity="1.000" />
<rect x="30.750" y="29.725" width="1.025" height="1.025" fill="#006115" fill-opacity="1.000" />
<rect x="31.775" y="29.725" width="1.025" height="1.025" fill="#07ab3e" fill-opacity="1.000" />
<rect x="32.800" y="29.725" width="1.025" height="1.025" fill="#11b24c" fill-opacity="1.000" />
<rect x="33.825" y="29.725" width="1.025" height="1.025" fill="#27bc63" fill-opacity="1.000" />
<rect x="34.850" y="29.725" width="1.025" height="1.025" fill="#0bae43" fill-opacity="1.000" />
<rect x="35.875" y="29.725" width="1.025" height="1.025" fill="#009e28" fill-opacity="1.000" />
<rect x="27.675" y="30.750" width="1.025" height="1.025" fill="#002e09" fill-opacity="1.000" />
<rect x="28.700" y="30.750" width="1.025" height="1.025" fill="#002809" fill-opacity="1.000" />
<rect x="29.725" y="30.750" width="1.025" height="1.025" fill="#005a15" fill-opacity="1.000" />
<rect x="30.750" y="30.750" width="1.025" height="1.025" fill="#009e28" fill-opacity="1.000" />
<rect x="31.775" y="30.750" width="1.025" height="1.025" fill="#07ab3e" fill-opacity="1.000" />
<rect x="32.800" y="30.750" width="1.025" height="1.025" fill="#11b24c" fill-opacity="1.000" />
<rect x="33.825" y="30.750" width="1.025" height="1.025" fill="#27bc63" fill-opacity="1.000" />
<rect x="34.850" y="30.750" width="1.025" height="1.025" fill="#27bc63" fill-opacity="1.000" />
<rect x="35.875" y="30.750" width="1.025" height="1.025" fill="#0bae43" fill-opacity="1.000" />
<rect x="26.650" y="31.775" width="1.025" height="1.025" fill="#002108" fill-opacity="1.000" />
<rect x="27.675" y="31.775" width="1.025" height="1.025" fill="#00380c" fill-opacity="1.000" />
<rect x="28.700" y="31.775" width="1.025" height="1.025" fill="#004610" fill-opacity="1.000" />
<rect x="29.725" y="31.775" width="1.025" height="1.025" fill="#005a15" fill-opacity="1.000" />
<rect x="30.750" y="31.775" width="1.025" height="1.025" fill="#009e28" fill-opacity="1.000" />
<rect x="31.775" y="31.775" width="1.025" height="1.025" fill="#07ab3e" fill-opacity="1.000" />
<rect x="32.800" y="31.775" width="1.025" height="1.025" fill="#11b24c" fill-opacity="1.000" />
<rect x="33.825" y="31.775" width="1.025" height="1.025" fill="#27bc63" fill-opacity="1.000" />
<rect x="34.850" y="31.775" width="1.025" height="1.025" fill="#27bc63" fill-opacity="1.000" />
<rect x="35.875" y="31.775" width="1.025" height="1.025" fill="#0bae43" fill-opacity="1.000" />
<rect x="36.900" y="31.775" width="1.025" height="1.025" fill="#009e28" fill-opacity="1.000" />
<rect x="26.650" y="32.800" width="1.025" height="1.025" fill="#002e09" fill-opacity="1.000" />
<rect x="27.675" y="32.800" width="1.025" height="1.025" fill="#0c110d" fill-opacity="1.000" />
<rect x="28.700" y="32.800" width="1.025" height="1.025" fill="#004610" fill-opacity="1.000" />
<rect x="29.725" y="32.800" width="1.025" height="1.025" fill="#005a15" fill-opacity="1.000" />
<rect x="30.750" y="32.800" width="1.025" height="1.025" fill="#009e28" fill-opacity="1.000" />
<rect x="31.775" y="32.800" width="1.025" height="1.025" fill="#07ab3e" fill-opacity="1.000" />
<rect x="32.800" y="32.800" width="1.025" height="1.025" fill="#11b24c" fill-opacity="1.000" />
<rect x="33.825" y="32.800" width="1.025" height="1.025" fill="#27bc63" fill-opacity="1.000" />
<rect x="34.850" y="32.800" width="1.025" height="1.025" fill="#27bc63" fill-opacity="1.000" />
<rect x="35.875" y="32.800" width="1.025" height="1.025" fill="#101e15" fill-opacity="1.000" />
<rect x="36.900" y="32.800" width="1.025" height="1.025" fill="#009e28" fill-opacity="1.000" />
<rect x="26.650" y="33.825" width="1.025" height="1.025" fill="#002e09" fill-opacity="1.000" />
<rect x="27.675" y="33.825" width="1.025" height="1.025" fill="#0d0d0d" fill-opacity="1.000" />
<rect x="28.700" y="33.825" width="1.025" height="1.025" fill="#0c130d" fill-opacity="1.000" />
<rect x="29.725" y="33.825" width="1.025" height="1.025" fill="#005a15" fill-opacity="1.000" />
<rect x="30.750" y="33.825" width="1.025" height="1.025" fill="#009e28" fill-opacity="1.000" />
<rect x="31.775" y="33.825" width="1.025" height="1.025" fill="#0c1c12" fill-opacity="1.000" />
<rect x="32.800" y="33.825" width="1.025" height="1.025" fill="#11b24c" fill-opacity="1.000" />
<rect x="33.825" y="33.825" width="1.025" height="1.025" fill="#27bc63" fill-opacity="1.000" />
<rect x="34.850" y="33.825" width="1.025" height="1.025" fill="#101e15" fill-opacity="1.000" />
<rect x="35.875" y="33.825" width="1.025" height="1.025" fill="#101e15" fill-opacity="1.000" />
<rect x="36.900" y="33.825" width="1.025" height="1.025" fill="#009e28" fill-opacity="1.000" />
<rect x="26.650" y="34.850" width="1.025" height="1.025" fill="#002e09" fill-opacity="1.000" />
<rect x="27.675" y="34.850" width="1.025" height="1.025" fill="#0c110d" fill-opacity="1.000" />
<rect x="28.700" y="34.850" width="1.025" height="1.025" fill="#0d0d0d" fill-opacity="1.000" />
<rect x="29.725" y="34.850" width="1.025" height="1.025" fill="#0c150e" fill-opacity="1.000" />
<rect x="30.750" y="34.850" width="1.025" height="1.025" fill="#0c1b10" fill-opacity="1.000" />
<rect x="31.775" y="34.850" width="1.025" height="1.025" fill="#e7b80e" fill-opacity="1.000" />
<rect x="32.800" y="34.850" width="1.025" height="1.025" fill="#0d1d13" fill-opacity="1.000" />
<rect x="33.825" y="34.850" width="1.025" height="1.025" fill="#101e15" fill-opacity="1.000" />
<rect x="34.850" y="34.850" width="1.025" height="1.025" fill="#0d0d0d" fill-opacity="1.000" />
<rect x="35.875" y="34.850" width="1.025" height="1.025" fill="#0d0e0e" fill-opacity="1.000" />
<rect x="36.900" y="34.850" width="1.025" height="1.025" fill="#009e28" fill-opacity="1.000" />
<rect x="26.650" y="35.875" width="1.025" height="1.025" fill="#002e09" fill-opacity="1.000" />
<rect x="27.675" y="35.875" width="1.025" height="1.025" fill="#0c110d" fill-opacity="1.000" />
<rect x="28.700" y="35.875" width="1.025" height="1.025" fill="#0d0d0d" fill-opacity="1.000" />
<rect x="29.725" y="35.875" width="1.025" height="1.025" fill="#0d0e0d" fill-opacity="1.000" />
<rect x="30.750" y="35.875" width="1.025" height="1.025" fill="#e7b70e" fill-opacity="1.000" />
<rect x="31.775" y="35.875" width="1.025" height="1.025" fill="#e7b70e" fill-opacity="1.000" />
<rect x="32.800" y="35.875" width="1.025" height="1.025" fill="#e7b80e" fill-opacity="1.000" />
<rect x="33.825" y="35.875" width="1.025" height="1.025" fill="#101e15" fill-opacity="1.000" />
<rect x="34.850" y="35.875" width="1.025" height="1.025" fill="#101e15" fill-opacity="1.000" />
<rect x="35.875" y="35.875" width="1.025" height="1.025" fill="#101e15" fill-opacity="1.000" />
<rect x="36.900" y="35.875" width="1.025" height="1.025" fill="#009e28" fill-opacity="1.000" />
<rect x="26.650" y="36.900" width="1.025" height="1.025" fill="#002e09" fill-opacity="1.000" />
<rect x="27.675" y="36.900" width="1.025" height="1.025" fill="#0c110d" fill-opacity="1.000" />
<rect x="28.700" y="36.900" width="1.025" height="1.025" fill="#89700d" fill-opacity="1.000" />
<rect x="29.725" y="36.900" width="1.025" height="1.025" fill="#ac8b0d" fill-opacity="1.000" />
<rect x="30.750" y="36.900" width="1.025" height="1.025" fill="#0c1b10" fill-opacity="1.000" />
<rect x="31.775" y="36.900" width="1.025" height="1.025" fill="#565010" fill-opacity="1.000" />
<rect x="32.800" y="36.900" width="1.025" height="1.025" fill="#0d1d13" fill-opacity="1.000" />
<rect x="33.825" y="36.900" width="1.025" height="1.025" fill="#8b7511" fill-opacity="1.000" />
<rect x="34.850" y="36.900" width="1.025" height="1.025" fill="#8b7511" fill-opacity="1.000" />
<rect x="35.875" y="36.900" width="1.025" height="1.025" fill="#101e15" fill-opacity="1.000" />
<rect x="36.900" y="36.900" width="1.025" height="1.025" fill="#009e28" fill-opacity="1.000" />
</svg>