<svg xmlns="http://www.w3.org/2000/svg" width="37.925" height="37.925" shape-rendering="crispEdges" style="image-rendering: pixelated;">
<rect x="19.475" y="28.700" width="1.025" height="1.025" fill="#1e371d" fill-opacity="1.000" />
<rect x="20.500" y="28.700" width="1.025" height="1.025" fill="#5d1510" fill-opacity="1.000" />
<rect x="21.525" y="28.700" width="1.025" height="1.025" fill="#411714" fill-opacity="1.000" />
<rect x="19.475" y="29.725" width="1.025" height="1.025" fill="#1e371d" fill-opacity="1.000" />
<rect x="20.500" y="29.725" width="1.025" height="1.025" fill="#411714" fill-opacity="1.000" />
<rect x="18.450" y="30.750" width="1.025" height="1.025" fill="#154722" fill-opacity="1.000" />
<rect x="19.475" y="30.750" width="1.025" height="1.025" fill="#70130d" fill-opacity="1.000" />
<rect x="20.500" y="30.750" width="1.025" height="1.025" fill="#1a1a1a" fill-opacity="1.000" />
<rect x="17.425" y="31.775" width="1.025" height="1.025" fill="#0f5225" fill-opacity="1.000" />
<rect x="18.450" y="31.775" width="1.025" height="1.025" fill="#5d1510" fill-opacity="1.000" />
<rect x="19.475" y="31.775" width="1.025" height="1.025" fill="#fff59d" fill-opacity="1.000" />
<rect x="20.500" y="31.775" width="1.025" height="1.025" fill="#fbb425" fill-opacity="1.000" />
<rect x="21.525" y="31.775" width="1.025" height="1.025" fill="#372614" fill-opacity="1.000" />
<rect x="16.400" y="32.800" width="1.025" height="1.025" fill="#154722" fill-opacity="1.000" />
<rect x="17.425" y="32.800" width="1.025" height="1.025" fill="#5d1510" fill-opacity="1.000" />
<rect x="18.450" y="32.800" width="1.025" height="1.025" fill="#fdc94c" fill-opacity="1.000" />
<rect x="19.475" y="32.800" width="1.025" height="1.025" fill="#fff59d" fill-opacity="1.000" />
<rect x="20.500" y="32.800" width="1.025" height="1.025" fill="#fff59d" fill-opacity="1.000" />
<rect x="21.525" y="32.800" width="1.025" height="1.025" fill="#3d322d" fill-opacity="1.000" />
<rect x="22.550" y="32.800" width="1.025" height="1.025" fill="#464433" fill-opacity="1.000" />
<rect x="15.375" y="33.825" width="1.025" height="1.025" fill="#154722" fill-opacity="1.000" />
<rect x="16.400" y="33.825" width="1.025" height="1.025" fill="#70130d" fill-opacity="1.000" />
<rect x="17.425" y="33.825" width="1.025" height="1.025" fill="#fdc94c" fill-opacity="1.000" />
<rect x="18.450" y="33.825" width="1.025" height="1.025" fill="#3d322d" fill-opacity="1.000" />
<rect x="19.475" y="33.825" width="1.025" height="1.025" fill="#fff59d" fill-opacity="1.000" />
<rect x="20.500" y="33.825" width="1.025" height="1.025" fill="#3d322d" fill-opacity="1.000" />
<rect x="21.525" y="33.825" width="1.025" height="1.025" fill="#eee593" fill-opacity="1.000" />
<rect x="22.550" y="33.825" width="1.025" height="1.025" fill="#6f5724" fill-opacity="1.000" />
<rect x="13.325" y="34.850" width="1.025" height="1.025" fill="#2b2116" fill-opacity="1.000" />
<rect x="14.350" y="34.850" width="1.025" height="1.025" fill="#094f27" fill-opacity="1.000" />
<rect x="15.375" y="34.850" width="1.025" height="1.025" fill="#70130d" fill-opacity="1.000" />
<rect x="16.400" y="34.850" width="1.025" height="1.025" fill="#f5c247" fill-opacity="1.000" />
<rect x="17.425" y="34.850" width="1.025" height="1.025" fill="#fcf29b" fill-opacity="1.000" />
<rect x="18.450" y="34.850" width="1.025" height="1.025" fill="#fff59d" fill-opacity="1.000" />
<rect x="19.475" y="34.850" width="1.025" height="1.025" fill="#fdd300" fill-opacity="1.000" />
<rect x="20.500" y="34.850" width="1.025" height="1.025" fill="#f3e996" fill-opacity="1.000" />
<rect x="21.525" y="34.850" width="1.025" height="1.025" fill="#cdc57e" fill-opacity="1.000" />
<rect x="22.550" y="34.850" width="1.025" height="1.025" fill="#4b4a17" fill-opacity="1.000" />
<rect x="10.250" y="35.875" width="1.025" height="1.025" fill="#0f5225" fill-opacity="0.514" />
<rect x="11.275" y="35.875" width="1.025" height="1.025" fill="#0f5225" fill-opacity="1.000" />
<rect x="12.300" y="35.875" width="1.025" height="1.025" fill="#0f5225" fill-opacity="1.000" />
<rect x="13.325" y="35.875" width="1.025" height="1.025" fill="#094f27" fill-opacity="1.000" />
<rect x="14.350" y="35.875" width="1.025" height="1.025" fill="#70130d" fill-opacity="1.000" />
<rect x="15.375" y="35.875" width="1.025" height="1.025" fill="#fab325" fill-opacity="1.000" />
<rect x="16.400" y="35.875" width="1.025" height="1.025" fill="#d3cb82" fill-opacity="1.000" />
<rect x="17.425" y="35.875" width="1.025" height="1.025" fill="#c3af6a" fill-opacity="1.000" />
<rect x="18.450" y="35.875" width="1.025" height="1.025" fill="#3d322d" fill-opacity="1.000" />
<rect x="19.475" y="35.875" width="1.025" height="1.025" fill="#fef49c" fill-opacity="1.000" />
<rect x="20.500" y="35.875" width="1.025" height="1.025" fill="#3d322d" fill-opacity="1.000" />
<rect x="21.525" y="35.875" width="1.025" height="1.025" fill="#b3ac6e" fill-opacity="1.000" />
<rect x="22.550" y="35.875" width="1.025" height="1.025" fill="#1a1a1a" fill-opacity="1.000" />
<rect x="9.225" y="36.900" width="1.025" height="1.025" fill="#8e8857" fill-opacity="0.302" />
<rect x="10.250" y="36.900" width="1.025" height="1.025" fill="#65180e" fill-opacity="1.000" />
<rect x="11.275" y="36.900" width="1.025" height="1.025" fill="#5d1510" fill-opacity="1.000" />
<rect x="12.300" y="36.900" width="1.025" height="1.025" fill="#7d120b" fill-opacity="1.000" />
<rect x="13.325" y="36.900" width="1.025" height="1.025" fill="#e3c25e" fill-opacity="1.000" />
<rect x="14.350" y="36.900" width="1.025" height="1.025" fill="#f4ac20" fill-opacity="1.000" />
<rect x="15.375" y="36.900" width="1.025" height="1.025" fill="#3d322d" fill-opacity="1.000" />
<rect x="16.400" y="36.900" width="1.025" height="1.025" fill="#c9c17c" fill-opacity="1.000" />
<rect x="17.425" y="36.900" width="1.025" height="1.025" fill="#3d322d" fill-opacity="1.000" />
<rect x="18.450" y="36.900" width="1.025" height="1.025" fill="#e9e08f" fill-opacity="1.000" />
<rect x="19.475" y="36.900" width="1.025" height="1.025" fill="#e8df8f" fill-opacity="1.000" />
<rect x="20.500" y="36.900" width="1.025" height="1.025" fill="#d9d086" fill-opacity="1.000" />
<rect x="21.525" y="36.900" width="1.025" height="1.025" fill="#573f17" fill-opacity="1.000" />
</svg>