<svg xmlns="http://www.w3.org/2000/svg" width="37.925" height="37.925" shape-rendering="crispEdges" style="image-rendering: pixelated;">
<rect x="18.450" y="2.050" width="1.025" height="1.025" fill="#f2a100" fill-opacity="1.000" />
<rect x="19.475" y="2.050" width="1.025" height="1.025" fill="#ffdb00" fill-opacity="1.000" />
<rect x="14.350" y="3.075" width="1.025" height="1.025" fill="#facc01" fill-opacity="1.000" />
<rect x="15.375" y="3.075" width="1.025" height="1.025" fill="#fbd408" fill-opacity="1.000" />
<rect x="16.400" y="3.075" width="1.025" height="1.025" fill="#fde450" fill-opacity="1.000" />
<rect x="17.425" y="3.075" width="1.025" height="1.025" fill="#ffe359" fill-opacity="1.000" />
<rect x="18.450" y="3.075" width="1.025" height="1.025" fill="#fde450" fill-opacity="1.000" />
<rect x="19.475" y="3.075" width="1.025" height="1.025" fill="#fde450" fill-opacity="1.000" />
<rect x="20.500" y="3.075" width="1.025" height="1.025" fill="#ffe359" fill-opacity="1.000" />
<rect x="21.525" y="3.075" width="1.025" height="1.025" fill="#ffe359" fill-opacity="1.000" />
<rect x="22.550" y="3.075" width="1.025" height="1.025" fill="#ffd646" fill-opacity="1.000" />
<rect x="23.575" y="3.075" width="1.025" height="1.025" fill="#ffbd13" fill-opacity="1.000" />
<rect x="13.325" y="4.100" width="1.025" height="1.025" fill="#f4c000" fill-opacity="1.000" />
<rect x="14.350" y="4.100" width="1.025" height="1.025" fill="#fee100" fill-opacity="1.000" />
<rect x="15.375" y="4.100" width="1.025" height="1.025" fill="#ffea4a" fill-opacity="1.000" />
<rect x="16.400" y="4.100" width="1.025" height="1.025" fill="#fff397" fill-opacity="1.000" />
<rect x="17.425" y="4.100" width="1.025" height="1.025" fill="#fff599" fill-opacity="1.000" />
<rect x="18.450" y="4.100" width="1.025" height="1.025" fill="#fff397" fill-opacity="1.000" />
<rect x="19.475" y="4.100" width="1.025" height="1.025" fill="#e8b653" fill-opacity="1.000" />
<rect x="20.500" y="4.100" width="1.025" height="1.025" fill="#97edf9" fill-opacity="1.000" />
<rect x="21.525" y="4.100" width="1.025" height="1.025" fill="#02d5f1" fill-opacity="1.000" />
<rect x="22.550" y="4.100" width="1.025" height="1.025" fill="#fff198" fill-opacity="1.000" />
<rect x="23.575" y="4.100" width="1.025" height="1.025" fill="#ffe26b" fill-opacity="1.000" />
<rect x="24.600" y="4.100" width="1.025" height="1.025" fill="#fec007" fill-opacity="1.000" />
<rect x="12.300" y="5.125" width="1.025" height="1.025" fill="#fce000" fill-opacity="1.000" />
<rect x="13.325" y="5.125" width="1.025" height="1.025" fill="#fcdd00" fill-opacity="1.000" />
<rect x="14.350" y="5.125" width="1.025" height="1.025" fill="#ffde00" fill-opacity="1.000" />
<rect x="15.375" y="5.125" width="1.025" height="1.025" fill="#ffe734" fill-opacity="1.000" />
<rect x="16.400" y="5.125" width="1.025" height="1.025" fill="#ffeb54" fill-opacity="1.000" />
<rect x="17.425" y="5.125" width="1.025" height="1.025" fill="#ffea52" fill-opacity="1.000" />
<rect x="18.450" y="5.125" width="1.025" height="1.025" fill="#e8b422" fill-opacity="1.000" />
<rect x="19.475" y="5.125" width="1.025" height="1.025" fill="#02d5f1" fill-opacity="1.000" />
<rect x="20.500" y="5.125" width="1.025" height="1.025" fill="#ffea52" fill-opacity="1.000" />
<rect x="21.525" y="5.125" width="1.025" height="1.025" fill="#f2c739" fill-opacity="1.000" />
<rect x="22.550" y="5.125" width="1.025" height="1.025" fill="#ffffff" fill-opacity="1.000" />
<rect x="23.575" y="5.125" width="1.025" height="1.025" fill="#ffdb39" fill-opacity="1.000" />
<rect x="24.600" y="5.125" width="1.025" height="1.025" fill="#ffde4a" fill-opacity="1.000" />
<rect x="25.625" y="5.125" width="1.025" height="1.025" fill="#fff195" fill-opacity="1.000" />
<rect x="12.300" y="6.150" width="1.025" height="1.025" fill="#ffe800" fill-opacity="1.000" />
<rect x="13.325" y="6.150" width="1.025" height="1.025" fill="#ffdb00" fill-opacity="1.000" />
<rect x="14.350" y="6.150" width="1.025" height="1.025" fill="#ffde00" fill-opacity="1.000" />
<rect x="15.375" y="6.150" width="1.025" height="1.025" fill="#ffe734" fill-opacity="1.000" />
<rect x="16.400" y="6.150" width="1.025" height="1.025" fill="#ffeb54" fill-opacity="1.000" />
<rect x="17.425" y="6.150" width="1.025" height="1.025" fill="#ffea52" fill-opacity="1.000" />
<rect x="18.450" y="6.150" width="1.025" height="1.025" fill="#e8b31e" fill-opacity="1.000" />
<rect x="19.475" y="6.150" width="1.025" height="1.025" fill="#97edf9" fill-opacity="1.000" />
<rect x="20.500" y="6.150" width="1.025" height="1.025" fill="#ffea52" fill-opacity="1.000" />
<rect x="21.525" y="6.150" width="1.025" height="1.025" fill="#f2c435" fill-opacity="1.000" />
<rect x="22.550" y="6.150" width="1.025" height="1.025" fill="#02d5f1" fill-opacity="1.000" />
<rect x="23.575" y="6.150" width="1.025" height="1.025" fill="#ffdb39" fill-opacity="1.000" />
<rect x="24.600" y="6.150" width="1.025" height="1.025" fill="#ffe034" fill-opacity="1.000" />
<rect x="25.625" y="6.150" width="1.025" height="1.025" fill="#ffe649" fill-opacity="1.000" />
<rect x="12.300" y="7.175" width="1.025" height="1.025" fill="#e9ba06" fill-opacity="1.000" />
<rect x="13.325" y="7.175" width="1.025" height="1.025" fill="#ffc800" fill-opacity="1.000" />
<rect x="14.350" y="7.175" width="1.025" height="1.025" fill="#ffd500" fill-opacity="1.000" />
<rect x="15.375" y="7.175" width="1.025" height="1.025" fill="#ffe414" fill-opacity="1.000" />
<rect x="16.400" y="7.175" width="1.025" height="1.025" fill="#ffec47" fill-opacity="1.000" />
<rect x="17.425" y="7.175" width="1.025" height="1.025" fill="#ffe54b" fill-opacity="1.000" />
<rect x="18.450" y="7.175" width="1.025" height="1.025" fill="#f2c70e" fill-opacity="1.000" />
<rect x="19.475" y="7.175" width="1.025" height="1.025" fill="#02d5f1" fill-opacity="1.000" />
<rect x="20.500" y="7.175" width="1.025" height="1.025" fill="#ffffff" fill-opacity="1.000" />
<rect x="21.525" y="7.175" width="1.025" height="1.025" fill="#02d5f1" fill-opacity="1.000" />
<rect x="22.550" y="7.175" width="1.025" height="1.025" fill="#97edf9" fill-opacity="1.000" />
<rect x="23.575" y="7.175" width="1.025" height="1.025" fill="#ffca13" fill-opacity="1.000" />
<rect x="24.600" y="7.175" width="1.025" height="1.025" fill="#ffd213" fill-opacity="1.000" />
<rect x="25.625" y="7.175" width="1.025" height="1.025" fill="#ffe937" fill-opacity="1.000" />
<rect x="12.300" y="8.200" width="1.025" height="1.025" fill="#bd780d" fill-opacity="1.000" />
<rect x="13.325" y="8.200" width="1.025" height="1.025" fill="#f2a100" fill-opacity="1.000" />
<rect x="14.350" y="8.200" width="1.025" height="1.025" fill="#ffca02" fill-opacity="1.000" />
<rect x="15.375" y="8.200" width="1.025" height="1.025" fill="#ffd914" fill-opacity="1.000" />
<rect x="16.400" y="8.200" width="1.025" height="1.025" fill="#ffd70d" fill-opacity="1.000" />
<rect x="17.425" y="8.200" width="1.025" height="1.025" fill="#ffce0e" fill-opacity="1.000" />
<rect x="18.450" y="8.200" width="1.025" height="1.025" fill="#e8ab0d" fill-opacity="1.000" />
<rect x="19.475" y="8.200" width="1.025" height="1.025" fill="#97edf9" fill-opacity="1.000" />
<rect x="20.500" y="8.200" width="1.025" height="1.025" fill="#ffc20b" fill-opacity="1.000" />
<rect x="21.525" y="8.200" width="1.025" height="1.025" fill="#e89f08" fill-opacity="1.000" />
<rect x="22.550" y="8.200" width="1.025" height="1.025" fill="#02d5f1" fill-opacity="1.000" />
<rect x="23.575" y="8.200" width="1.025" height="1.025" fill="#ffc00e" fill-opacity="1.000" />
<rect x="24.600" y="8.200" width="1.025" height="1.025" fill="#ffca13" fill-opacity="1.000" />
<rect x="25.625" y="8.200" width="1.025" height="1.025" fill="#fff307" fill-opacity="1.000" />
<rect x="12.300" y="9.225" width="1.025" height="1.025" fill="#8d4a0d" fill-opacity="1.000" />
<rect x="13.325" y="9.225" width="1.025" height="1.025" fill="#cb6300" fill-opacity="1.000" />
<rect x="14.350" y="9.225" width="1.025" height="1.025" fill="#f9b501" fill-opacity="1.000" />
<rect x="15.375" y="9.225" width="1.025" height="1.025" fill="#ffc90e" fill-opacity="1.000" />
<rect x="16.400" y="9.225" width="1.025" height="1.025" fill="#ffbe09" fill-opacity="1.000" />
<rect x="17.425" y="9.225" width="1.025" height="1.025" fill="#ffe000" fill-opacity="1.000" />
<rect x="18.450" y="9.225" width="1.025" height="1.025" fill="#ffe000" fill-opacity="1.000" />
<rect x="19.475" y="9.225" width="1.025" height="1.025" fill="#ffe000" fill-opacity="1.000" />
<rect x="20.500" y="9.225" width="1.025" height="1.025" fill="#ffe000" fill-opacity="1.000" />
<rect x="21.525" y="9.225" width="1.025" height="1.025" fill="#ffe000" fill-opacity="1.000" />
<rect x="22.550" y="9.225" width="1.025" height="1.025" fill="#ffe000" fill-opacity="1.000" />
<rect x="23.575" y="9.225" width="1.025" height="1.025" fill="#ffe000" fill-opacity="1.000" />
<rect x="24.600" y="9.225" width="1.025" height="1.025" fill="#ffe000" fill-opacity="1.000" />
<rect x="25.625" y="9.225" width="1.025" height="1.025" fill="#ffe000" fill-opacity="1.000" />
<rect x="26.650" y="9.225" width="1.025" height="1.025" fill="#ffea03" fill-opacity="1.000" />
<rect x="12.300" y="10.250" width="1.025" height="1.025" fill="#6d2d05" fill-opacity="1.000" />
<rect x="13.325" y="10.250" width="1.025" height="1.025" fill="#b44b02" fill-opacity="1.000" />
<rect x="14.350" y="10.250" width="1.025" height="1.025" fill="#ebab21" fill-opacity="1.000" />
<rect x="15.375" y="10.250" width="1.025" height="1.025" fill="#f7a910" fill-opacity="1.000" />
<rect x="16.400" y="10.250" width="1.025" height="1.025" fill="#ffd600" fill-opacity="1.000" />
<rect x="17.425" y="10.250" width="1.025" height="1.025" fill="#fed400" fill-opacity="1.000" />
<rect x="18.450" y="10.250" width="1.025" height="1.025" fill="#ecbe00" fill-opacity="1.000" />
<rect x="19.475" y="10.250" width="1.025" height="1.025" fill="#ce9a00" fill-opacity="1.000" />
<rect x="20.500" y="10.250" width="1.025" height="1.025" fill="#ba7e00" fill-opacity="1.000" />
<rect x="21.525" y="10.250" width="1.025" height="1.025" fill="#b67400" fill-opacity="1.000" />
<rect x="22.550" y="10.250" width="1.025" height="1.025" fill="#c47a00" fill-opacity="1.000" />
<rect x="23.575" y="10.250" width="1.025" height="1.025" fill="#da8f00" fill-opacity="1.000" />
<rect x="24.600" y="10.250" width="1.025" height="1.025" fill="#ecb407" fill-opacity="1.000" />
<rect x="25.625" y="10.250" width="1.025" height="1.025" fill="#f4c805" fill-opacity="1.000" />
<rect x="26.650" y="10.250" width="1.025" height="1.025" fill="#fbdd04" fill-opacity="1.000" />
<rect x="27.675" y="10.250" width="1.025" height="1.025" fill="#fee903" fill-opacity="1.000" />
<rect x="28.700" y="10.250" width="1.025" height="1.025" fill="#ffea03" fill-opacity="1.000" />
<rect x="16.400" y="11.275" width="1.025" height="1.025" fill="#120000" fill-opacity="1.000" />
<rect x="17.425" y="11.275" width="1.025" height="1.025" fill="#8b0400" fill-opacity="1.000" />
<rect x="18.450" y="11.275" width="1.025" height="1.025" fill="#c44600" fill-opacity="1.000" />
<rect x="25.625" y="11.275" width="1.025" height="1.025" fill="#4b0200" fill-opacity="1.000" />
<rect x="26.650" y="11.275" width="1.025" height="1.025" fill="#8b0400" fill-opacity="1.000" />
<rect x="27.675" y="11.275" width="1.025" height="1.025" fill="#c44600" fill-opacity="1.000" />
</svg>