<svg xmlns="http://www.w3.org/2000/svg" width="37.925" height="37.925" shape-rendering="crispEdges" style="image-rendering: pixelated;">
<rect x="13.325" y="14.350" width="1.025" height="1.025" fill="#630200" fill-opacity="1.000" />
<rect x="13.325" y="15.375" width="1.025" height="1.025" fill="#660200" fill-opacity="1.000" />
<rect x="14.350" y="15.375" width="1.025" height="1.025" fill="#b73900" fill-opacity="1.000" />
<rect x="13.325" y="16.400" width="1.025" height="1.025" fill="#6d0200" fill-opacity="1.000" />
<rect x="14.350" y="16.400" width="1.025" height="1.025" fill="#be5700" fill-opacity="1.000" />
<rect x="13.325" y="17.425" width="1.025" height="1.025" fill="#862e00" fill-opacity="1.000" />
<rect x="14.350" y="17.425" width="1.025" height="1.025" fill="#d68000" fill-opacity="1.000" />
<rect x="15.375" y="17.425" width="1.025" height="1.025" fill="#c65d01" fill-opacity="1.000" />
<rect x="24.600" y="17.425" width="1.025" height="1.025" fill="#f3ca19" fill-opacity="1.000" />
<rect x="13.325" y="18.450" width="1.025" height="1.025" fill="#c17102" fill-opacity="1.000" />
<rect x="14.350" y="18.450" width="1.025" height="1.025" fill="#f1b703" fill-opacity="1.000" />
<rect x="15.375" y="18.450" width="1.025" height="1.025" fill="#f8c70b" fill-opacity="1.000" />
<rect x="16.400" y="18.450" width="1.025" height="1.025" fill="#de8f01" fill-opacity="1.000" />
<rect x="17.425" y="18.450" width="1.025" height="1.025" fill="#eaa206" fill-opacity="1.000" />
<rect x="18.450" y="18.450" width="1.025" height="1.025" fill="#fff5b1" fill-opacity="1.000" />
<rect x="23.575" y="18.450" width="1.025" height="1.025" fill="#e49c04" fill-opacity="1.000" />
<rect x="24.600" y="18.450" width="1.025" height="1.025" fill="#ffdc01" fill-opacity="1.000" />
<rect x="13.325" y="19.475" width="1.025" height="1.025" fill="#efb315" fill-opacity="1.000" />
<rect x="14.350" y="19.475" width="1.025" height="1.025" fill="#fdcc32" fill-opacity="1.000" />
<rect x="15.375" y="19.475" width="1.025" height="1.025" fill="#fedc5d" fill-opacity="1.000" />
<rect x="16.400" y="19.475" width="1.025" height="1.025" fill="#ffee4c" fill-opacity="1.000" />
<rect x="17.425" y="19.475" width="1.025" height="1.025" fill="#ffc01d" fill-opacity="1.000" />
<rect x="18.450" y="19.475" width="1.025" height="1.025" fill="#ffc20e" fill-opacity="1.000" />
<rect x="19.475" y="19.475" width="1.025" height="1.025" fill="#ffe47e" fill-opacity="1.000" />
<rect x="20.500" y="19.475" width="1.025" height="1.025" fill="#fff29d" fill-opacity="1.000" />
<rect x="21.525" y="19.475" width="1.025" height="1.025" fill="#f8da3e" fill-opacity="1.000" />
<rect x="22.550" y="19.475" width="1.025" height="1.025" fill="#e4ab18" fill-opacity="1.000" />
<rect x="23.575" y="19.475" width="1.025" height="1.025" fill="#f2cc0b" fill-opacity="1.000" />
<rect x="24.600" y="19.475" width="1.025" height="1.025" fill="#ffcd04" fill-opacity="1.000" />
<rect x="13.325" y="20.500" width="1.025" height="1.025" fill="#fbd408" fill-opacity="1.000" />
<rect x="14.350" y="20.500" width="1.025" height="1.025" fill="#fde450" fill-opacity="1.000" />
<rect x="15.375" y="20.500" width="1.025" height="1.025" fill="#ffe359" fill-opacity="1.000" />
<rect x="16.400" y="20.500" width="1.025" height="1.025" fill="#ffd646" fill-opacity="1.000" />
<rect x="17.425" y="20.500" width="1.025" height="1.025" fill="#ffbd13" fill-opacity="1.000" />
<rect x="23.575" y="20.500" width="1.025" height="1.025" fill="#fff84d" fill-opacity="1.000" />
<rect x="24.600" y="20.500" width="1.025" height="1.025" fill="#f5db37" fill-opacity="1.000" />
<rect x="13.325" y="21.525" width="1.025" height="1.025" fill="#d68000" fill-opacity="1.000" />
<rect x="14.350" y="21.525" width="1.025" height="1.025" fill="#fff397" fill-opacity="1.000" />
<rect x="15.375" y="21.525" width="1.025" height="1.025" fill="#fff599" fill-opacity="1.000" />
<rect x="16.400" y="21.525" width="1.025" height="1.025" fill="#fff198" fill-opacity="1.000" />
<rect x="17.425" y="21.525" width="1.025" height="1.025" fill="#ffe26b" fill-opacity="1.000" />
<rect x="18.450" y="21.525" width="1.025" height="1.025" fill="#ffde4a" fill-opacity="1.000" />
<rect x="23.575" y="21.525" width="1.025" height="1.025" fill="#ffe209" fill-opacity="1.000" />
<rect x="24.600" y="21.525" width="1.025" height="1.025" fill="#ffea24" fill-opacity="1.000" />
<rect x="13.325" y="22.550" width="1.025" height="1.025" fill="#630200" fill-opacity="1.000" />
<rect x="14.350" y="22.550" width="1.025" height="1.025" fill="#ffeb54" fill-opacity="1.000" />
<rect x="15.375" y="22.550" width="1.025" height="1.025" fill="#ffea52" fill-opacity="1.000" />
<rect x="16.400" y="22.550" width="1.025" height="1.025" fill="#ffe342" fill-opacity="1.000" />
<rect x="17.425" y="22.550" width="1.025" height="1.025" fill="#ffdb39" fill-opacity="1.000" />
<rect x="18.450" y="22.550" width="1.025" height="1.025" fill="#ffe034" fill-opacity="1.000" />
<rect x="19.475" y="22.550" width="1.025" height="1.025" fill="#ffe649" fill-opacity="1.000" />
<rect x="20.500" y="22.550" width="1.025" height="1.025" fill="#ffe849" fill-opacity="1.000" />
<rect x="21.525" y="22.550" width="1.025" height="1.025" fill="#ffed35" fill-opacity="1.000" />
<rect x="22.550" y="22.550" width="1.025" height="1.025" fill="#ffe839" fill-opacity="1.000" />
<rect x="23.575" y="22.550" width="1.025" height="1.025" fill="#ffda02" fill-opacity="1.000" />
<rect x="24.600" y="22.550" width="1.025" height="1.025" fill="#ffdc01" fill-opacity="1.000" />
<rect x="14.350" y="23.575" width="1.025" height="1.025" fill="#630200" fill-opacity="1.000" />
<rect x="15.375" y="23.575" width="1.025" height="1.025" fill="#fedd43" fill-opacity="1.000" />
<rect x="16.400" y="23.575" width="1.025" height="1.025" fill="#ffeaa3" fill-opacity="1.000" />
<rect x="17.425" y="23.575" width="1.025" height="1.025" fill="#ffca13" fill-opacity="1.000" />
<rect x="18.450" y="23.575" width="1.025" height="1.025" fill="#ffd213" fill-opacity="1.000" />
<rect x="19.475" y="23.575" width="1.025" height="1.025" fill="#ffe937" fill-opacity="1.000" />
<rect x="20.500" y="23.575" width="1.025" height="1.025" fill="#ffec38" fill-opacity="1.000" />
<rect x="21.525" y="23.575" width="1.025" height="1.025" fill="#ffeb1e" fill-opacity="1.000" />
<rect x="22.550" y="23.575" width="1.025" height="1.025" fill="#ffe998" fill-opacity="1.000" />
<rect x="23.575" y="23.575" width="1.025" height="1.025" fill="#ffd20c" fill-opacity="1.000" />
<rect x="24.600" y="23.575" width="1.025" height="1.025" fill="#ffcd04" fill-opacity="1.000" />
<rect x="15.375" y="24.600" width="1.025" height="1.025" fill="#cc650f" fill-opacity="1.000" />
<rect x="16.400" y="24.600" width="1.025" height="1.025" fill="#feca25" fill-opacity="1.000" />
<rect x="17.425" y="24.600" width="1.025" height="1.025" fill="#ffe26b" fill-opacity="1.000" />
<rect x="18.450" y="24.600" width="1.025" height="1.025" fill="#ffde4a" fill-opacity="1.000" />
<rect x="19.475" y="24.600" width="1.025" height="1.025" fill="#fff307" fill-opacity="1.000" />
<rect x="20.500" y="24.600" width="1.025" height="1.025" fill="#fff302" fill-opacity="1.000" />
<rect x="21.525" y="24.600" width="1.025" height="1.025" fill="#ffee0b" fill-opacity="1.000" />
<rect x="22.550" y="24.600" width="1.025" height="1.025" fill="#ffdd2e" fill-opacity="1.000" />
<rect x="23.575" y="24.600" width="1.025" height="1.025" fill="#fff373" fill-opacity="1.000" />
<rect x="16.400" y="25.625" width="1.025" height="1.025" fill="#cc650f" fill-opacity="1.000" />
<rect x="17.425" y="25.625" width="1.025" height="1.025" fill="#fed637" fill-opacity="1.000" />
<rect x="18.450" y="25.625" width="1.025" height="1.025" fill="#ffe034" fill-opacity="1.000" />
<rect x="19.475" y="25.625" width="1.025" height="1.025" fill="#ffe649" fill-opacity="1.000" />
<rect x="20.500" y="25.625" width="1.025" height="1.025" fill="#ffea03" fill-opacity="1.000" />
<rect x="21.525" y="25.625" width="1.025" height="1.025" fill="#ffdf00" fill-opacity="1.000" />
<rect x="22.550" y="25.625" width="1.025" height="1.025" fill="#fdc005" fill-opacity="1.000" />
<rect x="17.425" y="26.650" width="1.025" height="1.025" fill="#d17a0f" fill-opacity="1.000" />
<rect x="18.450" y="26.650" width="1.025" height="1.025" fill="#f0b221" fill-opacity="1.000" />
<rect x="19.475" y="26.650" width="1.025" height="1.025" fill="#ffe937" fill-opacity="1.000" />
<rect x="20.500" y="26.650" width="1.025" height="1.025" fill="#ffe201" fill-opacity="1.000" />
<rect x="21.525" y="26.650" width="1.025" height="1.025" fill="#ffc701" fill-opacity="1.000" />
</svg>