<svg xmlns="http://www.w3.org/2000/svg" width="37.925" height="37.925" shape-rendering="crispEdges" style="image-rendering: pixelated;">
<rect x="32.800" y="15.375" width="1.025" height="1.025" fill="#ffe998" fill-opacity="0.200" />
<rect x="35.875" y="18.450" width="1.025" height="1.025" fill="#ffe998" fill-opacity="0.400" />
<rect x="29.725" y="20.500" width="1.025" height="1.025" fill="#ffe998" fill-opacity="0.400" />
<rect x="33.825" y="21.525" width="1.025" height="1.025" fill="#ffe998" fill-opacity="0.400" />
<rect x="30.750" y="24.600" width="1.025" height="1.025" fill="#ffe998" fill-opacity="1.000" />
<rect x="33.825" y="24.600" width="1.025" height="1.025" fill="#ffe998" fill-opacity="0.400" />
<rect x="30.750" y="27.675" width="1.025" height="1.025" fill="#ffe94c" fill-opacity="1.000" />
<rect x="31.775" y="27.675" width="1.025" height="1.025" fill="#ffe964" fill-opacity="1.000" />
<rect x="32.800" y="27.675" width="1.025" height="1.025" fill="#ffe849" fill-opacity="1.000" />
<rect x="33.825" y="27.675" width="1.025" height="1.025" fill="#ffe980" fill-opacity="1.000" />
<rect x="34.850" y="27.675" width="1.025" height="1.025" fill="#fffaa2" fill-opacity="1.000" />
<rect x="30.750" y="28.700" width="1.025" height="1.025" fill="#ffe94c" fill-opacity="1.000" />
<rect x="31.775" y="28.700" width="1.025" height="1.025" fill="#ffe964" fill-opacity="1.000" />
<rect x="32.800" y="28.700" width="1.025" height="1.025" fill="#ffe96f" fill-opacity="1.000" />
<rect x="33.825" y="28.700" width="1.025" height="1.025" fill="#ffe980" fill-opacity="1.000" />
<rect x="34.850" y="28.700" width="1.025" height="1.025" fill="#fffaa2" fill-opacity="1.000" />
<rect x="30.750" y="29.725" width="1.025" height="1.025" fill="#ffe839" fill-opacity="1.000" />
<rect x="31.775" y="29.725" width="1.025" height="1.025" fill="#ffed35" fill-opacity="1.000" />
<rect x="32.800" y="29.725" width="1.025" height="1.025" fill="#ffe849" fill-opacity="1.000" />
<rect x="33.825" y="29.725" width="1.025" height="1.025" fill="#ffe998" fill-opacity="1.000" />
<rect x="34.850" y="29.725" width="1.025" height="1.025" fill="#fffaa2" fill-opacity="1.000" />
<rect x="30.750" y="30.750" width="1.025" height="1.025" fill="#ffe998" fill-opacity="1.000" />
<rect x="31.775" y="30.750" width="1.025" height="1.025" fill="#ffeb1e" fill-opacity="1.000" />
<rect x="32.800" y="30.750" width="1.025" height="1.025" fill="#ffec38" fill-opacity="1.000" />
<rect x="33.825" y="30.750" width="1.025" height="1.025" fill="#ffe96f" fill-opacity="1.000" />
<rect x="34.850" y="30.750" width="1.025" height="1.025" fill="#fffaa2" fill-opacity="1.000" />
<rect x="30.750" y="31.775" width="1.025" height="1.025" fill="#ffdd2e" fill-opacity="1.000" />
<rect x="31.775" y="31.775" width="1.025" height="1.025" fill="#ffee0b" fill-opacity="1.000" />
<rect x="32.800" y="31.775" width="1.025" height="1.025" fill="#fff302" fill-opacity="1.000" />
<rect x="33.825" y="31.775" width="1.025" height="1.025" fill="#ffe96f" fill-opacity="1.000" />
<rect x="34.850" y="31.775" width="1.025" height="1.025" fill="#fffaa2" fill-opacity="1.000" />
<rect x="30.750" y="32.800" width="1.025" height="1.025" fill="#fdc005" fill-opacity="1.000" />
<rect x="31.775" y="32.800" width="1.025" height="1.025" fill="#ffdf00" fill-opacity="1.000" />
<rect x="32.800" y="32.800" width="1.025" height="1.025" fill="#ffea03" fill-opacity="1.000" />
<rect x="33.825" y="32.800" width="1.025" height="1.025" fill="#ffe96f" fill-opacity="1.000" />
<rect x="34.850" y="32.800" width="1.025" height="1.025" fill="#fffaa2" fill-opacity="1.000" />
<rect x="30.750" y="33.825" width="1.025" height="1.025" fill="#faa406" fill-opacity="1.000" />
<rect x="31.775" y="33.825" width="1.025" height="1.025" fill="#ffc701" fill-opacity="1.000" />
<rect x="32.800" y="33.825" width="1.025" height="1.025" fill="#ffe201" fill-opacity="1.000" />
<rect x="33.825" y="33.825" width="1.025" height="1.025" fill="#ffe956" fill-opacity="1.000" />
<rect x="34.850" y="33.825" width="1.025" height="1.025" fill="#fffaa2" fill-opacity="1.000" />
<rect x="31.775" y="34.850" width="1.025" height="1.025" fill="#faa406" fill-opacity="1.000" />
<rect x="32.800" y="34.850" width="1.025" height="1.025" fill="#ffc701" fill-opacity="1.000" />
<rect x="33.825" y="34.850" width="1.025" height="1.025" fill="#ffe956" fill-opacity="1.000" />
<rect x="32.800" y="35.875" width="1.025" height="1.025" fill="#fcc73c" fill-opacity="1.000" />
<rect x="32.800" y="36.900" width="1.025" height="1.025" fill="#fedb5a" fill-opacity="1.000" />
</svg>