<svg xmlns="http://www.w3.org/2000/svg" width="37.925" height="37.925" shape-rendering="crispEdges" style="image-rendering: pixelated;">
<rect x="16.400" y="12.300" width="1.025" height="1.025" fill="#f49c00" fill-opacity="1.000" />
<rect x="17.425" y="12.300" width="1.025" height="1.025" fill="#f7aa00" fill-opacity="1.000" />
<rect x="18.450" y="12.300" width="1.025" height="1.025" fill="#fac804" fill-opacity="1.000" />
<rect x="19.475" y="12.300" width="1.025" height="1.025" fill="#ffc709" fill-opacity="1.000" />
<rect x="20.500" y="12.300" width="1.025" height="1.025" fill="#ffae00" fill-opacity="1.000" />
<rect x="21.525" y="12.300" width="1.025" height="1.025" fill="#ff8300" fill-opacity="1.000" />
<rect x="22.550" y="12.300" width="1.025" height="1.025" fill="#fd8700" fill-opacity="1.000" />
<rect x="23.575" y="12.300" width="1.025" height="1.025" fill="#ff9c00" fill-opacity="1.000" />
<rect x="24.600" y="12.300" width="1.025" height="1.025" fill="#ffad00" fill-opacity="1.000" />
<rect x="25.625" y="12.300" width="1.025" height="1.025" fill="#ffb800" fill-opacity="1.000" />
<rect x="11.275" y="13.325" width="1.025" height="1.025" fill="#680800" fill-opacity="1.000" />
<rect x="12.300" y="13.325" width="1.025" height="1.025" fill="#da7e00" fill-opacity="1.000" />
<rect x="13.325" y="13.325" width="1.025" height="1.025" fill="#f0b900" fill-opacity="1.000" />
<rect x="14.350" y="13.325" width="1.025" height="1.025" fill="#f9c100" fill-opacity="1.000" />
<rect x="15.375" y="13.325" width="1.025" height="1.025" fill="#f9bc00" fill-opacity="1.000" />
<rect x="16.400" y="13.325" width="1.025" height="1.025" fill="#e37601" fill-opacity="1.000" />
<rect x="17.425" y="13.325" width="1.025" height="1.025" fill="#ca6901" fill-opacity="1.000" />
<rect x="18.450" y="13.325" width="1.025" height="1.025" fill="#d77001" fill-opacity="1.000" />
<rect x="19.475" y="13.325" width="1.025" height="1.025" fill="#ffe6af" fill-opacity="1.000" />
<rect x="20.500" y="13.325" width="1.025" height="1.025" fill="#ffe24b" fill-opacity="1.000" />
<rect x="21.525" y="13.325" width="1.025" height="1.025" fill="#ffc417" fill-opacity="1.000" />
<rect x="22.550" y="13.325" width="1.025" height="1.025" fill="#ffbd01" fill-opacity="1.000" />
<rect x="23.575" y="13.325" width="1.025" height="1.025" fill="#b85f01" fill-opacity="1.000" />
<rect x="24.600" y="13.325" width="1.025" height="1.025" fill="#a75701" fill-opacity="1.000" />
<rect x="25.625" y="13.325" width="1.025" height="1.025" fill="#ffe2a8" fill-opacity="1.000" />
<rect x="26.650" y="13.325" width="1.025" height="1.025" fill="#ffe116" fill-opacity="1.000" />
<rect x="10.250" y="14.350" width="1.025" height="1.025" fill="#3a0000" fill-opacity="1.000" />
<rect x="12.300" y="14.350" width="1.025" height="1.025" fill="#ffbf00" fill-opacity="1.000" />
<rect x="13.325" y="14.350" width="1.025" height="1.025" fill="#ffdc00" fill-opacity="1.000" />
<rect x="14.350" y="14.350" width="1.025" height="1.025" fill="#ffd100" fill-opacity="1.000" />
<rect x="15.375" y="14.350" width="1.025" height="1.025" fill="#ffb800" fill-opacity="1.000" />
<rect x="16.400" y="14.350" width="1.025" height="1.025" fill="#e07401" fill-opacity="1.000" />
<rect x="17.425" y="14.350" width="1.025" height="1.025" fill="#c56601" fill-opacity="1.000" />
<rect x="18.450" y="14.350" width="1.025" height="1.025" fill="#ffc370" fill-opacity="1.000" />
<rect x="19.475" y="14.350" width="1.025" height="1.025" fill="#ca6901" fill-opacity="1.000" />
<rect x="20.500" y="14.350" width="1.025" height="1.025" fill="#ffc700" fill-opacity="1.000" />
<rect x="22.550" y="14.350" width="1.025" height="1.025" fill="#ffc100" fill-opacity="1.000" />
<rect x="23.575" y="14.350" width="1.025" height="1.025" fill="#a75701" fill-opacity="1.000" />
<rect x="24.600" y="14.350" width="1.025" height="1.025" fill="#f4bb6b" fill-opacity="1.000" />
<rect x="25.625" y="14.350" width="1.025" height="1.025" fill="#9d5201" fill-opacity="1.000" />
<rect x="26.650" y="14.350" width="1.025" height="1.025" fill="#ffd100" fill-opacity="1.000" />
<rect x="10.250" y="15.375" width="1.025" height="1.025" fill="#700b00" fill-opacity="1.000" />
<rect x="15.375" y="15.375" width="1.025" height="1.025" fill="#ff9500" fill-opacity="1.000" />
<rect x="16.400" y="15.375" width="1.025" height="1.025" fill="#884701" fill-opacity="1.000" />
<rect x="17.425" y="15.375" width="1.025" height="1.025" fill="#ffd18a" fill-opacity="1.000" />
<rect x="18.450" y="15.375" width="1.025" height="1.025" fill="#9a5001" fill-opacity="1.000" />
<rect x="19.475" y="15.375" width="1.025" height="1.025" fill="#934d01" fill-opacity="1.000" />
<rect x="20.500" y="15.375" width="1.025" height="1.025" fill="#ffd45a" fill-opacity="1.000" />
<rect x="22.550" y="15.375" width="1.025" height="1.025" fill="#ffa700" fill-opacity="1.000" />
<rect x="23.575" y="15.375" width="1.025" height="1.025" fill="#bc9e6b" fill-opacity="1.000" />
<rect x="24.600" y="15.375" width="1.025" height="1.025" fill="#412201" fill-opacity="1.000" />
<rect x="25.625" y="15.375" width="1.025" height="1.025" fill="#a15401" fill-opacity="1.000" />
<rect x="26.650" y="15.375" width="1.025" height="1.025" fill="#ffd24b" fill-opacity="1.000" />
<rect x="16.400" y="16.400" width="1.025" height="1.025" fill="#ff9900" fill-opacity="1.000" />
<rect x="17.425" y="16.400" width="1.025" height="1.025" fill="#ffb400" fill-opacity="1.000" />
<rect x="18.450" y="16.400" width="1.025" height="1.025" fill="#ffaf00" fill-opacity="1.000" />
<rect x="19.475" y="16.400" width="1.025" height="1.025" fill="#ffa000" fill-opacity="1.000" />
<rect x="23.575" y="16.400" width="1.025" height="1.025" fill="#ffe700" fill-opacity="1.000" />
<rect x="24.600" y="16.400" width="1.025" height="1.025" fill="#ffe700" fill-opacity="1.000" />
<rect x="25.625" y="16.400" width="1.025" height="1.025" fill="#ffdc00" fill-opacity="1.000" />
</svg>