<svg xmlns="http://www.w3.org/2000/svg" width="37.925" height="37.925" shape-rendering="crispEdges" style="image-rendering: pixelated;">
<rect x="6.150" y="0.000" width="1.025" height="1.025" fill="#dc9811" fill-opacity="1.000" />
<rect x="7.175" y="0.000" width="1.025" height="1.025" fill="#fffed6" fill-opacity="1.000" />
<rect x="10.250" y="0.000" width="1.025" height="1.025" fill="#dc9811" fill-opacity="1.000" />
<rect x="21.525" y="0.000" width="1.025" height="1.025" fill="#fff984" fill-opacity="1.000" />
<rect x="25.625" y="0.000" width="1.025" height="1.025" fill="#ffda02" fill-opacity="1.000" />
<rect x="35.875" y="0.000" width="1.025" height="1.025" fill="#dc9811" fill-opacity="1.000" />
<rect x="6.150" y="1.025" width="1.025" height="1.025" fill="#dc9811" fill-opacity="1.000" />
<rect x="7.175" y="1.025" width="1.025" height="1.025" fill="#fffed6" fill-opacity="1.000" />
<rect x="10.250" y="1.025" width="1.025" height="1.025" fill="#dc9811" fill-opacity="1.000" />
<rect x="21.525" y="1.025" width="1.025" height="1.025" fill="#fff984" fill-opacity="1.000" />
<rect x="25.625" y="1.025" width="1.025" height="1.025" fill="#ffda02" fill-opacity="1.000" />
<rect x="27.675" y="1.025" width="1.025" height="1.025" fill="#fff984" fill-opacity="1.000" />
<rect x="31.775" y="1.025" width="1.025" height="1.025" fill="#feed04" fill-opacity="1.000" />
<rect x="35.875" y="1.025" width="1.025" height="1.025" fill="#dc9811" fill-opacity="1.000" />
<rect x="1.025" y="2.050" width="1.025" height="1.025" fill="#ffda02" fill-opacity="1.000" />
<rect x="7.175" y="2.050" width="1.025" height="1.025" fill="#dc9811" fill-opacity="1.000" />
<rect x="16.400" y="2.050" width="1.025" height="1.025" fill="#ffda02" fill-opacity="1.000" />
<rect x="27.675" y="2.050" width="1.025" height="1.025" fill="#fff984" fill-opacity="1.000" />
<rect x="31.775" y="2.050" width="1.025" height="1.025" fill="#feed04" fill-opacity="1.000" />
<rect x="1.025" y="3.075" width="1.025" height="1.025" fill="#ffda02" fill-opacity="1.000" />
<rect x="7.175" y="3.075" width="1.025" height="1.025" fill="#dc9811" fill-opacity="1.000" />
<rect x="16.400" y="3.075" width="1.025" height="1.025" fill="#ffda02" fill-opacity="1.000" />
<rect x="19.475" y="3.075" width="1.025" height="1.025" fill="#ffda02" fill-opacity="1.000" />
<rect x="1.025" y="4.100" width="1.025" height="1.025" fill="#dc9811" fill-opacity="1.000" />
<rect x="12.300" y="4.100" width="1.025" height="1.025" fill="#fff984" fill-opacity="1.000" />
<rect x="19.475" y="4.100" width="1.025" height="1.025" fill="#ffda02" fill-opacity="1.000" />
<rect x="12.300" y="5.125" width="1.025" height="1.025" fill="#fff984" fill-opacity="1.000" />
<rect x="26.650" y="6.150" width="1.025" height="1.025" fill="#feed04" fill-opacity="1.000" />
<rect x="36.900" y="6.150" width="1.025" height="1.025" fill="#ffda02" fill-opacity="1.000" />
<rect x="24.600" y="7.175" width="1.025" height="1.025" fill="#fff984" fill-opacity="1.000" />
<rect x="26.650" y="7.175" width="1.025" height="1.025" fill="#feed04" fill-opacity="1.000" />
<rect x="31.775" y="7.175" width="1.025" height="1.025" fill="#dc9811" fill-opacity="1.000" />
<rect x="36.900" y="7.175" width="1.025" height="1.025" fill="#ffda02" fill-opacity="1.000" />
<rect x="7.175" y="8.200" width="1.025" height="1.025" fill="#dc9811" fill-opacity="1.000" />
<rect x="24.600" y="8.200" width="1.025" height="1.025" fill="#fff984" fill-opacity="1.000" />
<rect x="31.775" y="8.200" width="1.025" height="1.025" fill="#dc9811" fill-opacity="1.000" />
<rect x="7.175" y="9.225" width="1.025" height="1.025" fill="#dc9811" fill-opacity="1.000" />
<rect x="4.100" y="10.250" width="1.025" height="1.025" fill="#fff984" fill-opacity="1.000" />
<rect x="13.325" y="10.250" width="1.025" height="1.025" fill="#ffda02" fill-opacity="1.000" />
<rect x="34.850" y="10.250" width="1.025" height="1.025" fill="#ffda02" fill-opacity="1.000" />
<rect x="1.025" y="11.275" width="1.025" height="1.025" fill="#dc9811" fill-opacity="1.000" />
<rect x="4.100" y="11.275" width="1.025" height="1.025" fill="#fff984" fill-opacity="1.000" />
<rect x="13.325" y="11.275" width="1.025" height="1.025" fill="#fffed6" fill-opacity="1.000" />
<rect x="28.700" y="11.275" width="1.025" height="1.025" fill="#fff984" fill-opacity="1.000" />
<rect x="34.850" y="11.275" width="1.025" height="1.025" fill="#ffda02" fill-opacity="1.000" />
<rect x="1.025" y="12.300" width="1.025" height="1.025" fill="#dc9811" fill-opacity="1.000" />
<rect x="8.200" y="12.300" width="1.025" height="1.025" fill="#fff984" fill-opacity="1.000" />
<rect x="28.700" y="12.300" width="1.025" height="1.025" fill="#fff984" fill-opacity="1.000" />
<rect x="8.200" y="13.325" width="1.025" height="1.025" fill="#fff984" fill-opacity="1.000" />
<rect x="13.325" y="14.350" width="1.025" height="1.025" fill="#ffda02" fill-opacity="1.000" />
<rect x="33.825" y="14.350" width="1.025" height="1.025" fill="#feed04" fill-opacity="1.000" />
<rect x="13.325" y="15.375" width="1.025" height="1.025" fill="#ffda02" fill-opacity="1.000" />
<rect x="31.775" y="15.375" width="1.025" height="1.025" fill="#fff984" fill-opacity="1.000" />
<rect x="33.825" y="15.375" width="1.025" height="1.025" fill="#feed04" fill-opacity="1.000" />
<rect x="0.000" y="16.400" width="1.025" height="1.025" fill="#dc9811" fill-opacity="1.000" />
<rect x="12.300" y="16.400" width="1.025" height="1.025" fill="#dc9811" fill-opacity="1.000" />
<rect x="27.675" y="16.400" width="1.025" height="1.025" fill="#fff984" fill-opacity="1.000" />
<rect x="31.775" y="16.400" width="1.025" height="1.025" fill="#fff984" fill-opacity="1.000" />
<rect x="0.000" y="17.425" width="1.025" height="1.025" fill="#dc9811" fill-opacity="1.000" />
<rect x="12.300" y="17.425" width="1.025" height="1.025" fill="#dc9811" fill-opacity="1.000" />
<rect x="27.675" y="17.425" width="1.025" height="1.025" fill="#fff984" fill-opacity="1.000" />
<rect x="4.100" y="18.450" width="1.025" height="1.025" fill="#dc9811" fill-opacity="1.000" />
<rect x="9.225" y="18.450" width="1.025" height="1.025" fill="#ffda02" fill-opacity="1.000" />
<rect x="4.100" y="19.475" width="1.025" height="1.025" fill="#dc9811" fill-opacity="1.000" />
<rect x="9.225" y="19.475" width="1.025" height="1.025" fill="#ffda02" fill-opacity="1.000" />
<rect x="10.250" y="20.500" width="1.025" height="1.025" fill="#ffda02" fill-opacity="1.000" />
<rect x="34.850" y="20.500" width="1.025" height="1.025" fill="#dc9811" fill-opacity="1.000" />
<rect x="10.250" y="21.525" width="1.025" height="1.025" fill="#ffda02" fill-opacity="1.000" />
<rect x="27.675" y="21.525" width="1.025" height="1.025" fill="#ffda02" fill-opacity="1.000" />
<rect x="30.750" y="21.525" width="1.025" height="1.025" fill="#fffed6" fill-opacity="1.000" />
<rect x="34.850" y="21.525" width="1.025" height="1.025" fill="#dc9811" fill-opacity="1.000" />
<rect x="7.175" y="22.550" width="1.025" height="1.025" fill="#ffda02" fill-opacity="1.000" />
<rect x="8.200" y="22.550" width="1.025" height="1.025" fill="#dc9811" fill-opacity="1.000" />
<rect x="27.675" y="22.550" width="1.025" height="1.025" fill="#ffda02" fill-opacity="1.000" />
<rect x="30.750" y="22.550" width="1.025" height="1.025" fill="#fffed6" fill-opacity="1.000" />
<rect x="7.175" y="23.575" width="1.025" height="1.025" fill="#ffda02" fill-opacity="1.000" />
<rect x="8.200" y="23.575" width="1.025" height="1.025" fill="#dc9811" fill-opacity="1.000" />
<rect x="16.400" y="23.575" width="1.025" height="1.025" fill="#ffda02" fill-opacity="1.000" />
<rect x="2.050" y="24.600" width="1.025" height="1.025" fill="#fff984" fill-opacity="1.000" />
<rect x="9.225" y="24.600" width="1.025" height="1.025" fill="#feed04" fill-opacity="1.000" />
<rect x="16.400" y="24.600" width="1.025" height="1.025" fill="#ffda02" fill-opacity="1.000" />
<rect x="21.525" y="24.600" width="1.025" height="1.025" fill="#fff984" fill-opacity="1.000" />
<rect x="26.650" y="24.600" width="1.025" height="1.025" fill="#feed04" fill-opacity="1.000" />
<rect x="2.050" y="25.625" width="1.025" height="1.025" fill="#fff984" fill-opacity="1.000" />
<rect x="9.225" y="25.625" width="1.025" height="1.025" fill="#feed04" fill-opacity="1.000" />
<rect x="14.350" y="25.625" width="1.025" height="1.025" fill="#fff984" fill-opacity="1.000" />
<rect x="21.525" y="25.625" width="1.025" height="1.025" fill="#fff984" fill-opacity="1.000" />
<rect x="24.600" y="25.625" width="1.025" height="1.025" fill="#fff984" fill-opacity="1.000" />
<rect x="26.650" y="25.625" width="1.025" height="1.025" fill="#feed04" fill-opacity="1.000" />
<rect x="14.350" y="26.650" width="1.025" height="1.025" fill="#fff984" fill-opacity="1.000" />
<rect x="15.375" y="26.650" width="1.025" height="1.025" fill="#dc9811" fill-opacity="1.000" />
<rect x="24.600" y="26.650" width="1.025" height="1.025" fill="#fff984" fill-opacity="1.000" />
<rect x="36.900" y="26.650" width="1.025" height="1.025" fill="#dc9811" fill-opacity="1.000" />
<rect x="7.175" y="27.675" width="1.025" height="1.025" fill="#fff984" fill-opacity="1.000" />
<rect x="15.375" y="27.675" width="1.025" height="1.025" fill="#dc9811" fill-opacity="1.000" />
<rect x="20.500" y="27.675" width="1.025" height="1.025" fill="#fffed6" fill-opacity="1.000" />
<rect x="23.575" y="27.675" width="1.025" height="1.025" fill="#ffda02" fill-opacity="1.000" />
<rect x="36.900" y="27.675" width="1.025" height="1.025" fill="#dc9811" fill-opacity="1.000" />
<rect x="7.175" y="28.700" width="1.025" height="1.025" fill="#fff984" fill-opacity="1.000" />
<rect x="20.500" y="28.700" width="1.025" height="1.025" fill="#fffed6" fill-opacity="1.000" />
<rect x="23.575" y="28.700" width="1.025" height="1.025" fill="#ffda02" fill-opacity="1.000" />
<rect x="27.675" y="28.700" width="1.025" height="1.025" fill="#fff984" fill-opacity="1.000" />
<rect x="33.825" y="28.700" width="1.025" height="1.025" fill="#fff984" fill-opacity="1.000" />
<rect x="3.075" y="29.725" width="1.025" height="1.025" fill="#dc9811" fill-opacity="1.000" />
<rect x="27.675" y="29.725" width="1.025" height="1.025" fill="#fff984" fill-opacity="1.000" />
<rect x="30.750" y="29.725" width="1.025" height="1.025" fill="#dc9811" fill-opacity="1.000" />
<rect x="33.825" y="29.725" width="1.025" height="1.025" fill="#fff984" fill-opacity="1.000" />
<rect x="3.075" y="30.750" width="1.025" height="1.025" fill="#dc9811" fill-opacity="1.000" />
<rect x="10.250" y="30.750" width="1.025" height="1.025" fill="#ffda02" fill-opacity="1.000" />
<rect x="14.350" y="30.750" width="1.025" height="1.025" fill="#fffed6" fill-opacity="1.000" />
<rect x="30.750" y="30.750" width="1.025" height="1.025" fill="#dc9811" fill-opacity="1.000" />
<rect x="10.250" y="31.775" width="1.025" height="1.025" fill="#ffda02" fill-opacity="1.000" />
<rect x="14.350" y="31.775" width="1.025" height="1.025" fill="#fffed6" fill-opacity="1.000" />
<rect x="7.175" y="32.800" width="1.025" height="1.025" fill="#fff984" fill-opacity="1.000" />
<rect x="1.025" y="33.825" width="1.025" height="1.025" fill="#dc9811" fill-opacity="1.000" />
<rect x="7.175" y="33.825" width="1.025" height="1.025" fill="#fff984" fill-opacity="1.000" />
<rect x="21.525" y="33.825" width="1.025" height="1.025" fill="#ffda02" fill-opacity="1.000" />
<rect x="25.625" y="33.825" width="1.025" height="1.025" fill="#ffda02" fill-opacity="1.000" />
<rect x="1.025" y="34.850" width="1.025" height="1.025" fill="#dc9811" fill-opacity="1.000" />
<rect x="14.350" y="34.850" width="1.025" height="1.025" fill="#ffda02" fill-opacity="1.000" />
<rect x="21.525" y="34.850" width="1.025" height="1.025" fill="#ffda02" fill-opacity="1.000" />
<rect x="25.625" y="34.850" width="1.025" height="1.025" fill="#ffda02" fill-opacity="1.000" />
<rect x="29.725" y="34.850" width="1.025" height="1.025" fill="#dc9811" fill-opacity="1.000" />
<rect x="33.825" y="34.850" width="1.025" height="1.025" fill="#fff984" fill-opacity="1.000" />
<rect x="14.350" y="35.875" width="1.025" height="1.025" fill="#ffda02" fill-opacity="1.000" />
<rect x="33.825" y="35.875" width="1.025" height="1.025" fill="#fff984" fill-opacity="1.000" />
</svg>