<svg xmlns="http://www.w3.org/2000/svg" width="37.925" height="37.925" shape-rendering="crispEdges" style="image-rendering: pixelated;">
<rect x="12.300" y="27.675" width="1.025" height="1.025" fill="#dc9811" fill-opacity="1.000" />
<rect x="19.475" y="27.675" width="1.025" height="1.025" fill="#fff984" fill-opacity="1.000" />
<rect x="12.300" y="28.700" width="1.025" height="1.025" fill="#ffcc00" fill-opacity="1.000" />
<rect x="13.325" y="28.700" width="1.025" height="1.025" fill="#fff984" fill-opacity="1.000" />
<rect x="19.475" y="28.700" width="1.025" height="1.025" fill="#ffda02" fill-opacity="1.000" />
<rect x="20.500" y="28.700" width="1.025" height="1.025" fill="#fff984" fill-opacity="1.000" />
<rect x="13.325" y="29.725" width="1.025" height="1.025" fill="#ffcc00" fill-opacity="1.000" />
<rect x="14.350" y="29.725" width="1.025" height="1.025" fill="#fff984" fill-opacity="1.000" />
<rect x="20.500" y="29.725" width="1.025" height="1.025" fill="#ffcc00" fill-opacity="1.000" />
<rect x="14.350" y="30.750" width="1.025" height="1.025" fill="#ffcc00" fill-opacity="1.000" />
<rect x="15.375" y="30.750" width="1.025" height="1.025" fill="#fff984" fill-opacity="1.000" />
<rect x="19.475" y="30.750" width="1.025" height="1.025" fill="#dc9811" fill-opacity="1.000" />
<rect x="20.500" y="30.750" width="1.025" height="1.025" fill="#fff984" fill-opacity="1.000" />
<rect x="15.375" y="31.775" width="1.025" height="1.025" fill="#dc9811" fill-opacity="1.000" />
<rect x="16.400" y="31.775" width="1.025" height="1.025" fill="#ffcc00" fill-opacity="1.000" />
<rect x="18.450" y="31.775" width="1.025" height="1.025" fill="#ffcc00" fill-opacity="1.000" />
<rect x="19.475" y="31.775" width="1.025" height="1.025" fill="#fff984" fill-opacity="1.000" />
<rect x="17.425" y="32.800" width="1.025" height="1.025" fill="#dc9811" fill-opacity="1.000" />
<rect x="16.400" y="33.825" width="1.025" height="1.025" fill="#dc9811" fill-opacity="1.000" />
<rect x="17.425" y="33.825" width="1.025" height="1.025" fill="#ffcc00" fill-opacity="1.000" />
<rect x="18.450" y="33.825" width="1.025" height="1.025" fill="#fff984" fill-opacity="1.000" />
<rect x="17.425" y="34.850" width="1.025" height="1.025" fill="#ffda02" fill-opacity="1.000" />
<rect x="17.425" y="35.875" width="1.025" height="1.025" fill="#ffcc00" fill-opacity="1.000" />
</svg>