<svg xmlns="http://www.w3.org/2000/svg" width="37.925" height="37.925" shape-rendering="crispEdges" style="image-rendering: pixelated;">
<rect x="24.600" y="10.250" width="1.025" height="1.025" fill="#b46a0e" fill-opacity="1.000" />
<rect x="23.575" y="11.275" width="1.025" height="1.025" fill="#d29907" fill-opacity="1.000" />
<rect x="21.525" y="12.300" width="1.025" height="1.025" fill="#bf7816" fill-opacity="1.000" />
<rect x="22.550" y="12.300" width="1.025" height="1.025" fill="#c88d1f" fill-opacity="1.000" />
<rect x="12.300" y="13.325" width="1.025" height="1.025" fill="#280100" fill-opacity="0.835" />
<rect x="13.325" y="13.325" width="1.025" height="1.025" fill="#4c1802" fill-opacity="0.867" />
<rect x="14.350" y="13.325" width="1.025" height="1.025" fill="#844c09" fill-opacity="1.000" />
<rect x="15.375" y="13.325" width="1.025" height="1.025" fill="#9a5606" fill-opacity="1.000" />
<rect x="16.400" y="13.325" width="1.025" height="1.025" fill="#ad6a0e" fill-opacity="1.000" />
<rect x="17.425" y="13.325" width="1.025" height="1.025" fill="#c89525" fill-opacity="1.000" />
<rect x="18.450" y="13.325" width="1.025" height="1.025" fill="#d8af2e" fill-opacity="1.000" />
<rect x="19.475" y="13.325" width="1.025" height="1.025" fill="#dbad23" fill-opacity="1.000" />
<rect x="20.500" y="13.325" width="1.025" height="1.025" fill="#d6a120" fill-opacity="1.000" />
<rect x="15.375" y="14.350" width="1.025" height="1.025" fill="#9f5701" fill-opacity="1.000" />
<rect x="16.400" y="14.350" width="1.025" height="1.025" fill="#dcaf15" fill-opacity="1.000" />
<rect x="17.425" y="14.350" width="1.025" height="1.025" fill="#f0dc5c" fill-opacity="1.000" />
<rect x="18.450" y="14.350" width="1.025" height="1.025" fill="#fdfceb" fill-opacity="1.000" />
<rect x="19.475" y="14.350" width="1.025" height="1.025" fill="#fdea7c" fill-opacity="1.000" />
<rect x="15.375" y="15.375" width="1.025" height="1.025" fill="#c04b01" fill-opacity="1.000" />
<rect x="16.400" y="15.375" width="1.025" height="1.025" fill="#c57f0a" fill-opacity="1.000" />
<rect x="17.425" y="15.375" width="1.025" height="1.025" fill="#efcf23" fill-opacity="1.000" />
<rect x="18.450" y="15.375" width="1.025" height="1.025" fill="#edc610" fill-opacity="1.000" />
<rect x="19.475" y="15.375" width="1.025" height="1.025" fill="#f3d06a" fill-opacity="1.000" />
<rect x="16.400" y="16.400" width="1.025" height="1.025" fill="#bc3e03" fill-opacity="1.000" />
<rect x="17.425" y="16.400" width="1.025" height="1.025" fill="#ca6105" fill-opacity="1.000" />
<rect x="18.450" y="16.400" width="1.025" height="1.025" fill="#dd9607" fill-opacity="1.000" />
</svg>