<svg xmlns="http://www.w3.org/2000/svg" width="37.925" height="37.925" shape-rendering="crispEdges" style="image-rendering: pixelated;">
<rect x="12.300" y="2.050" width="1.025" height="1.025" fill="#a80000" fill-opacity="1.000" />
<rect x="13.325" y="2.050" width="1.025" height="1.025" fill="#560000" fill-opacity="1.000" />
<rect x="14.350" y="2.050" width="1.025" height="1.025" fill="#771800" fill-opacity="1.000" />
<rect x="15.375" y="2.050" width="1.025" height="1.025" fill="#c17102" fill-opacity="1.000" />
<rect x="16.400" y="2.050" width="1.025" height="1.025" fill="#f1b703" fill-opacity="1.000" />
<rect x="17.425" y="2.050" width="1.025" height="1.025" fill="#f8c70b" fill-opacity="1.000" />
<rect x="18.450" y="2.050" width="1.025" height="1.025" fill="#f9c002" fill-opacity="1.000" />
<rect x="19.475" y="2.050" width="1.025" height="1.025" fill="#ffc50b" fill-opacity="1.000" />
<rect x="20.500" y="2.050" width="1.025" height="1.025" fill="#e7af16" fill-opacity="1.000" />
<rect x="21.525" y="2.050" width="1.025" height="1.025" fill="#e5a909" fill-opacity="1.000" />
<rect x="22.550" y="2.050" width="1.025" height="1.025" fill="#f6a607" fill-opacity="1.000" />
<rect x="11.275" y="3.075" width="1.025" height="1.025" fill="#5e0000" fill-opacity="1.000" />
<rect x="12.300" y="3.075" width="1.025" height="1.025" fill="#660000" fill-opacity="1.000" />
<rect x="13.325" y="3.075" width="1.025" height="1.025" fill="#c45800" fill-opacity="1.000" />
<rect x="14.350" y="3.075" width="1.025" height="1.025" fill="#e19303" fill-opacity="1.000" />
<rect x="15.375" y="3.075" width="1.025" height="1.025" fill="#efb315" fill-opacity="1.000" />
<rect x="16.400" y="3.075" width="1.025" height="1.025" fill="#fdcc32" fill-opacity="1.000" />
<rect x="17.425" y="3.075" width="1.025" height="1.025" fill="#fedc5d" fill-opacity="1.000" />
<rect x="18.450" y="3.075" width="1.025" height="1.025" fill="#ffed4f" fill-opacity="1.000" />
<rect x="19.475" y="3.075" width="1.025" height="1.025" fill="#ffe47e" fill-opacity="1.000" />
<rect x="20.500" y="3.075" width="1.025" height="1.025" fill="#ffef80" fill-opacity="1.000" />
<rect x="21.525" y="3.075" width="1.025" height="1.025" fill="#ffe47e" fill-opacity="1.000" />
<rect x="22.550" y="3.075" width="1.025" height="1.025" fill="#fff29d" fill-opacity="1.000" />
<rect x="23.575" y="3.075" width="1.025" height="1.025" fill="#f9c428" fill-opacity="1.000" />
<rect x="11.275" y="4.100" width="1.025" height="1.025" fill="#980000" fill-opacity="1.000" />
<rect x="13.325" y="4.100" width="1.025" height="1.025" fill="#d46d00" fill-opacity="1.000" />
<rect x="14.350" y="4.100" width="1.025" height="1.025" fill="#facc01" fill-opacity="1.000" />
<rect x="15.375" y="4.100" width="1.025" height="1.025" fill="#fbd408" fill-opacity="1.000" />
<rect x="16.400" y="4.100" width="1.025" height="1.025" fill="#fde450" fill-opacity="1.000" />
<rect x="17.425" y="4.100" width="1.025" height="1.025" fill="#ffe359" fill-opacity="1.000" />
<rect x="18.450" y="4.100" width="1.025" height="1.025" fill="#ffde4c" fill-opacity="1.000" />
<rect x="19.475" y="4.100" width="1.025" height="1.025" fill="#ffe03d" fill-opacity="1.000" />
<rect x="20.500" y="4.100" width="1.025" height="1.025" fill="#ffde29" fill-opacity="1.000" />
<rect x="21.525" y="4.100" width="1.025" height="1.025" fill="#ffd82d" fill-opacity="1.000" />
<rect x="22.550" y="4.100" width="1.025" height="1.025" fill="#ffde29" fill-opacity="1.000" />
<rect x="23.575" y="4.100" width="1.025" height="1.025" fill="#fdc510" fill-opacity="1.000" />
<rect x="10.250" y="5.125" width="1.025" height="1.025" fill="#aa0000" fill-opacity="1.000" />
<rect x="13.325" y="5.125" width="1.025" height="1.025" fill="#d46d00" fill-opacity="1.000" />
<rect x="14.350" y="5.125" width="1.025" height="1.025" fill="#f5b101" fill-opacity="1.000" />
<rect x="15.375" y="5.125" width="1.025" height="1.025" fill="#fbd408" fill-opacity="1.000" />
<rect x="16.400" y="5.125" width="1.025" height="1.025" fill="#fde450" fill-opacity="1.000" />
<rect x="17.425" y="5.125" width="1.025" height="1.025" fill="#ffea52" fill-opacity="1.000" />
<rect x="18.450" y="5.125" width="1.025" height="1.025" fill="#ffeb54" fill-opacity="1.000" />
<rect x="19.475" y="5.125" width="1.025" height="1.025" fill="#ffe94d" fill-opacity="1.000" />
<rect x="20.500" y="5.125" width="1.025" height="1.025" fill="#ffe849" fill-opacity="1.000" />
<rect x="21.525" y="5.125" width="1.025" height="1.025" fill="#ffe849" fill-opacity="1.000" />
<rect x="22.550" y="5.125" width="1.025" height="1.025" fill="#ffea50" fill-opacity="1.000" />
<rect x="23.575" y="5.125" width="1.025" height="1.025" fill="#ffed35" fill-opacity="1.000" />
<rect x="24.600" y="5.125" width="1.025" height="1.025" fill="#fff06a" fill-opacity="1.000" />
<rect x="10.250" y="6.150" width="1.025" height="1.025" fill="#b80000" fill-opacity="1.000" />
<rect x="12.300" y="6.150" width="1.025" height="1.025" fill="#e08c00" fill-opacity="1.000" />
<rect x="13.325" y="6.150" width="1.025" height="1.025" fill="#f7bb01" fill-opacity="1.000" />
<rect x="14.350" y="6.150" width="1.025" height="1.025" fill="#fbd408" fill-opacity="1.000" />
<rect x="15.375" y="6.150" width="1.025" height="1.025" fill="#fde450" fill-opacity="1.000" />
<rect x="16.400" y="6.150" width="1.025" height="1.025" fill="#ffeb54" fill-opacity="1.000" />
<rect x="17.425" y="6.150" width="1.025" height="1.025" fill="#ffea52" fill-opacity="1.000" />
<rect x="18.450" y="6.150" width="1.025" height="1.025" fill="#ffeb54" fill-opacity="1.000" />
<rect x="19.475" y="6.150" width="1.025" height="1.025" fill="#ffe849" fill-opacity="1.000" />
<rect x="20.500" y="6.150" width="1.025" height="1.025" fill="#ffe849" fill-opacity="1.000" />
<rect x="21.525" y="6.150" width="1.025" height="1.025" fill="#ffe849" fill-opacity="1.000" />
<rect x="22.550" y="6.150" width="1.025" height="1.025" fill="#ffe94d" fill-opacity="1.000" />
<rect x="23.575" y="6.150" width="1.025" height="1.025" fill="#ffec41" fill-opacity="1.000" />
<rect x="24.600" y="6.150" width="1.025" height="1.025" fill="#fdcd25" fill-opacity="1.000" />
<rect x="10.250" y="7.175" width="1.025" height="1.025" fill="#b80000" fill-opacity="1.000" />
<rect x="12.300" y="7.175" width="1.025" height="1.025" fill="#cf6a02" fill-opacity="1.000" />
<rect x="13.325" y="7.175" width="1.025" height="1.025" fill="#fab800" fill-opacity="1.000" />
<rect x="14.350" y="7.175" width="1.025" height="1.025" fill="#ffd500" fill-opacity="1.000" />
<rect x="15.375" y="7.175" width="1.025" height="1.025" fill="#ffe414" fill-opacity="1.000" />
<rect x="16.400" y="7.175" width="1.025" height="1.025" fill="#ffec47" fill-opacity="1.000" />
<rect x="17.425" y="7.175" width="1.025" height="1.025" fill="#ffe74f" fill-opacity="1.000" />
<rect x="18.450" y="7.175" width="1.025" height="1.025" fill="#ffec4c" fill-opacity="1.000" />
<rect x="19.475" y="7.175" width="1.025" height="1.025" fill="#ffe951" fill-opacity="1.000" />
<rect x="20.500" y="7.175" width="1.025" height="1.025" fill="#ffec43" fill-opacity="1.000" />
<rect x="21.525" y="7.175" width="1.025" height="1.025" fill="#ffec38" fill-opacity="1.000" />
<rect x="22.550" y="7.175" width="1.025" height="1.025" fill="#ffec4a" fill-opacity="1.000" />
<rect x="23.575" y="7.175" width="1.025" height="1.025" fill="#ffeb34" fill-opacity="1.000" />
<rect x="24.600" y="7.175" width="1.025" height="1.025" fill="#fed33e" fill-opacity="1.000" />
<rect x="10.250" y="8.200" width="1.025" height="1.025" fill="#b80000" fill-opacity="1.000" />
<rect x="12.300" y="8.200" width="1.025" height="1.025" fill="#bd780d" fill-opacity="1.000" />
<rect x="13.325" y="8.200" width="1.025" height="1.025" fill="#f2a100" fill-opacity="1.000" />
<rect x="14.350" y="8.200" width="1.025" height="1.025" fill="#ffca02" fill-opacity="1.000" />
<rect x="15.375" y="8.200" width="1.025" height="1.025" fill="#ffd914" fill-opacity="1.000" />
<rect x="16.400" y="8.200" width="1.025" height="1.025" fill="#ffd70d" fill-opacity="1.000" />
<rect x="17.425" y="8.200" width="1.025" height="1.025" fill="#ffce0e" fill-opacity="1.000" />
<rect x="18.450" y="8.200" width="1.025" height="1.025" fill="#ffdf29" fill-opacity="1.000" />
<rect x="19.475" y="8.200" width="1.025" height="1.025" fill="#ffe13b" fill-opacity="1.000" />
<rect x="20.500" y="8.200" width="1.025" height="1.025" fill="#ffee37" fill-opacity="1.000" />
<rect x="21.525" y="8.200" width="1.025" height="1.025" fill="#fff023" fill-opacity="1.000" />
<rect x="22.550" y="8.200" width="1.025" height="1.025" fill="#ffee37" fill-opacity="1.000" />
<rect x="23.575" y="8.200" width="1.025" height="1.025" fill="#ffed28" fill-opacity="1.000" />
<rect x="24.600" y="8.200" width="1.025" height="1.025" fill="#ffdd2e" fill-opacity="1.000" />
<rect x="25.625" y="8.200" width="1.025" height="1.025" fill="#fcc02d" fill-opacity="1.000" />
<rect x="10.250" y="9.225" width="1.025" height="1.025" fill="#b80000" fill-opacity="1.000" />
<rect x="12.300" y="9.225" width="1.025" height="1.025" fill="#8d4a0d" fill-opacity="1.000" />
<rect x="13.325" y="9.225" width="1.025" height="1.025" fill="#cb6300" fill-opacity="1.000" />
<rect x="14.350" y="9.225" width="1.025" height="1.025" fill="#f9b501" fill-opacity="1.000" />
<rect x="15.375" y="9.225" width="1.025" height="1.025" fill="#ffc90e" fill-opacity="1.000" />
<rect x="16.400" y="9.225" width="1.025" height="1.025" fill="#ffbe09" fill-opacity="1.000" />
<rect x="17.425" y="9.225" width="1.025" height="1.025" fill="#ffb409" fill-opacity="1.000" />
<rect x="18.450" y="9.225" width="1.025" height="1.025" fill="#ffd027" fill-opacity="1.000" />
<rect x="19.475" y="9.225" width="1.025" height="1.025" fill="#ffca27" fill-opacity="1.000" />
<rect x="20.500" y="9.225" width="1.025" height="1.025" fill="#ffdb39" fill-opacity="1.000" />
<rect x="21.525" y="9.225" width="1.025" height="1.025" fill="#ffea23" fill-opacity="1.000" />
<rect x="22.550" y="9.225" width="1.025" height="1.025" fill="#ffea23" fill-opacity="1.000" />
<rect x="23.575" y="9.225" width="1.025" height="1.025" fill="#ffe422" fill-opacity="1.000" />
<rect x="24.600" y="9.225" width="1.025" height="1.025" fill="#fdc005" fill-opacity="1.000" />
<rect x="25.625" y="9.225" width="1.025" height="1.025" fill="#fecf30" fill-opacity="1.000" />
<rect x="10.250" y="10.250" width="1.025" height="1.025" fill="#bc0000" fill-opacity="1.000" />
<rect x="12.300" y="10.250" width="1.025" height="1.025" fill="#6d2d05" fill-opacity="1.000" />
<rect x="13.325" y="10.250" width="1.025" height="1.025" fill="#b44b02" fill-opacity="1.000" />
<rect x="14.350" y="10.250" width="1.025" height="1.025" fill="#ebab21" fill-opacity="1.000" />
<rect x="15.375" y="10.250" width="1.025" height="1.025" fill="#cc5504" fill-opacity="1.000" />
<rect x="16.400" y="10.250" width="1.025" height="1.025" fill="#d56302" fill-opacity="1.000" />
<rect x="17.425" y="10.250" width="1.025" height="1.025" fill="#e37902" fill-opacity="1.000" />
<rect x="18.450" y="10.250" width="1.025" height="1.025" fill="#e37b04" fill-opacity="1.000" />
<rect x="19.475" y="10.250" width="1.025" height="1.025" fill="#faa004" fill-opacity="1.000" />
<rect x="20.500" y="10.250" width="1.025" height="1.025" fill="#f9a307" fill-opacity="1.000" />
<rect x="21.525" y="10.250" width="1.025" height="1.025" fill="#faa004" fill-opacity="1.000" />
<rect x="22.550" y="10.250" width="1.025" height="1.025" fill="#ffe201" fill-opacity="1.000" />
<rect x="23.575" y="10.250" width="1.025" height="1.025" fill="#ffd522" fill-opacity="1.000" />
<rect x="24.600" y="10.250" width="1.025" height="1.025" fill="#faa406" fill-opacity="1.000" />
<rect x="9.225" y="11.275" width="1.025" height="1.025" fill="#d20000" fill-opacity="1.000" />
<rect x="10.250" y="11.275" width="1.025" height="1.025" fill="#c60000" fill-opacity="1.000" />
<rect x="12.300" y="11.275" width="1.025" height="1.025" fill="#4b0200" fill-opacity="1.000" />
<rect x="13.325" y="11.275" width="1.025" height="1.025" fill="#7a1a00" fill-opacity="1.000" />
<rect x="14.350" y="11.275" width="1.025" height="1.025" fill="#c13e00" fill-opacity="1.000" />
<rect x="8.200" y="12.300" width="1.025" height="1.025" fill="#c60000" fill-opacity="1.000" />
<rect x="9.225" y="12.300" width="1.025" height="1.025" fill="#be0000" fill-opacity="1.000" />
<rect x="12.300" y="12.300" width="1.025" height="1.025" fill="#250100" fill-opacity="1.000" />
<rect x="9.225" y="13.325" width="1.025" height="1.025" fill="#b20000" fill-opacity="1.000" />
</svg>