<svg xmlns="http://www.w3.org/2000/svg" width="37.925" height="37.925" shape-rendering="crispEdges" style="image-rendering: pixelated;">
<rect x="17.425" y="3.075" width="1.025" height="1.025" fill="#f9cc25" fill-opacity="1.000" />
<rect x="18.450" y="3.075" width="1.025" height="1.025" fill="#facf19" fill-opacity="1.000" />
<rect x="19.475" y="3.075" width="1.025" height="1.025" fill="#ffc411" fill-opacity="1.000" />
<rect x="20.500" y="3.075" width="1.025" height="1.025" fill="#ffeb85" fill-opacity="1.000" />
<rect x="21.525" y="3.075" width="1.025" height="1.025" fill="#edbd33" fill-opacity="1.000" />
<rect x="15.375" y="4.100" width="1.025" height="1.025" fill="#edb015" fill-opacity="1.000" />
<rect x="16.400" y="4.100" width="1.025" height="1.025" fill="#fdcb30" fill-opacity="1.000" />
<rect x="17.425" y="4.100" width="1.025" height="1.025" fill="#fedb5b" fill-opacity="1.000" />
<rect x="18.450" y="4.100" width="1.025" height="1.025" fill="#ffed4a" fill-opacity="1.000" />
<rect x="19.475" y="4.100" width="1.025" height="1.025" fill="#ffc01d" fill-opacity="1.000" />
<rect x="20.500" y="4.100" width="1.025" height="1.025" fill="#ffc413" fill-opacity="1.000" />
<rect x="21.525" y="4.100" width="1.025" height="1.025" fill="#fee37d" fill-opacity="1.000" />
<rect x="22.550" y="4.100" width="1.025" height="1.025" fill="#fef19d" fill-opacity="1.000" />
<rect x="23.575" y="4.100" width="1.025" height="1.025" fill="#f3d340" fill-opacity="1.000" />
<rect x="14.350" y="5.125" width="1.025" height="1.025" fill="#f7bc02" fill-opacity="1.000" />
<rect x="15.375" y="5.125" width="1.025" height="1.025" fill="#f9c908" fill-opacity="1.000" />
<rect x="16.400" y="5.125" width="1.025" height="1.025" fill="#feda40" fill-opacity="1.000" />
<rect x="17.425" y="5.125" width="1.025" height="1.025" fill="#ffe05a" fill-opacity="1.000" />
<rect x="18.450" y="5.125" width="1.025" height="1.025" fill="#ffe045" fill-opacity="1.000" />
<rect x="19.475" y="5.125" width="1.025" height="1.025" fill="#ffba0f" fill-opacity="1.000" />
<rect x="20.500" y="5.125" width="1.025" height="1.025" fill="#feba00" fill-opacity="1.000" />
<rect x="21.525" y="5.125" width="1.025" height="1.025" fill="#ffd639" fill-opacity="1.000" />
<rect x="22.550" y="5.125" width="1.025" height="1.025" fill="#ffe343" fill-opacity="1.000" />
<rect x="23.575" y="5.125" width="1.025" height="1.025" fill="#fcd819" fill-opacity="1.000" />
<rect x="24.600" y="5.125" width="1.025" height="1.025" fill="#f7d828" fill-opacity="1.000" />
<rect x="12.300" y="6.150" width="1.025" height="1.025" fill="#f7c700" fill-opacity="1.000" />
<rect x="13.325" y="6.150" width="1.025" height="1.025" fill="#face00" fill-opacity="1.000" />
<rect x="14.350" y="6.150" width="1.025" height="1.025" fill="#fdd601" fill-opacity="1.000" />
<rect x="15.375" y="6.150" width="1.025" height="1.025" fill="#fddb14" fill-opacity="1.000" />
<rect x="16.400" y="6.150" width="1.025" height="1.025" fill="#fde962" fill-opacity="1.000" />
<rect x="17.425" y="6.150" width="1.025" height="1.025" fill="#ffe766" fill-opacity="1.000" />
<rect x="18.450" y="6.150" width="1.025" height="1.025" fill="#ffd957" fill-opacity="1.000" />
<rect x="19.475" y="6.150" width="1.025" height="1.025" fill="#ffc424" fill-opacity="1.000" />
<rect x="20.500" y="6.150" width="1.025" height="1.025" fill="#fec513" fill-opacity="1.000" />
<rect x="21.525" y="6.150" width="1.025" height="1.025" fill="#ffd123" fill-opacity="1.000" />
<rect x="22.550" y="6.150" width="1.025" height="1.025" fill="#ffd819" fill-opacity="1.000" />
<rect x="23.575" y="6.150" width="1.025" height="1.025" fill="#ffe02d" fill-opacity="1.000" />
<rect x="24.600" y="6.150" width="1.025" height="1.025" fill="#fff042" fill-opacity="1.000" />
<rect x="25.625" y="6.150" width="1.025" height="1.025" fill="#fff847" fill-opacity="1.000" />
<rect x="11.275" y="7.175" width="1.025" height="1.025" fill="#f4d000" fill-opacity="1.000" />
<rect x="12.300" y="7.175" width="1.025" height="1.025" fill="#fbdb00" fill-opacity="1.000" />
<rect x="13.325" y="7.175" width="1.025" height="1.025" fill="#fbdb00" fill-opacity="1.000" />
<rect x="14.350" y="7.175" width="1.025" height="1.025" fill="#fedf00" fill-opacity="1.000" />
<rect x="15.375" y="7.175" width="1.025" height="1.025" fill="#ffe843" fill-opacity="1.000" />
<rect x="16.400" y="7.175" width="1.025" height="1.025" fill="#fff294" fill-opacity="1.000" />
<rect x="17.425" y="7.175" width="1.025" height="1.025" fill="#fff496" fill-opacity="1.000" />
<rect x="18.450" y="7.175" width="1.025" height="1.025" fill="#ffee94" fill-opacity="1.000" />
<rect x="19.475" y="7.175" width="1.025" height="1.025" fill="#ffde63" fill-opacity="1.000" />
<rect x="20.500" y="7.175" width="1.025" height="1.025" fill="#ffda43" fill-opacity="1.000" />
<rect x="21.525" y="7.175" width="1.025" height="1.025" fill="#ffed88" fill-opacity="1.000" />
<rect x="22.550" y="7.175" width="1.025" height="1.025" fill="#ffef87" fill-opacity="1.000" />
<rect x="23.575" y="7.175" width="1.025" height="1.025" fill="#fff28d" fill-opacity="1.000" />
<rect x="24.600" y="7.175" width="1.025" height="1.025" fill="#fff167" fill-opacity="1.000" />
<rect x="25.625" y="7.175" width="1.025" height="1.025" fill="#ffe614" fill-opacity="1.000" />
<rect x="26.650" y="7.175" width="1.025" height="1.025" fill="#fee929" fill-opacity="1.000" />
<rect x="11.275" y="8.200" width="1.025" height="1.025" fill="#ffed00" fill-opacity="1.000" />
<rect x="12.300" y="8.200" width="1.025" height="1.025" fill="#ffec00" fill-opacity="1.000" />
<rect x="13.325" y="8.200" width="1.025" height="1.025" fill="#fee100" fill-opacity="1.000" />
<rect x="14.350" y="8.200" width="1.025" height="1.025" fill="#ffe200" fill-opacity="1.000" />
<rect x="15.375" y="8.200" width="1.025" height="1.025" fill="#ffeb49" fill-opacity="1.000" />
<rect x="16.400" y="8.200" width="1.025" height="1.025" fill="#fff180" fill-opacity="1.000" />
<rect x="17.425" y="8.200" width="1.025" height="1.025" fill="#fff27f" fill-opacity="1.000" />
<rect x="18.450" y="8.200" width="1.025" height="1.025" fill="#ffed75" fill-opacity="1.000" />
<rect x="19.475" y="8.200" width="1.025" height="1.025" fill="#ffe156" fill-opacity="1.000" />
<rect x="20.500" y="8.200" width="1.025" height="1.025" fill="#ffe13d" fill-opacity="1.000" />
<rect x="21.525" y="8.200" width="1.025" height="1.025" fill="#ffef78" fill-opacity="1.000" />
<rect x="22.550" y="8.200" width="1.025" height="1.025" fill="#fff17c" fill-opacity="1.000" />
<rect x="23.575" y="8.200" width="1.025" height="1.025" fill="#fff475" fill-opacity="1.000" />
<rect x="24.600" y="8.200" width="1.025" height="1.025" fill="#ffed50" fill-opacity="1.000" />
<rect x="25.625" y="8.200" width="1.025" height="1.025" fill="#ffdd00" fill-opacity="1.000" />
<rect x="26.650" y="8.200" width="1.025" height="1.025" fill="#ffe612" fill-opacity="1.000" />
<rect x="27.675" y="8.200" width="1.025" height="1.025" fill="#ffe91d" fill-opacity="1.000" />
<rect x="10.250" y="9.225" width="1.025" height="1.025" fill="#ffe100" fill-opacity="1.000" />
<rect x="11.275" y="9.225" width="1.025" height="1.025" fill="#ffef05" fill-opacity="1.000" />
<rect x="12.300" y="9.225" width="1.025" height="1.025" fill="#fee500" fill-opacity="1.000" />
<rect x="13.325" y="9.225" width="1.025" height="1.025" fill="#ffda00" fill-opacity="1.000" />
<rect x="14.350" y="9.225" width="1.025" height="1.025" fill="#ffdd00" fill-opacity="1.000" />
<rect x="15.375" y="9.225" width="1.025" height="1.025" fill="#ffe730" fill-opacity="1.000" />
<rect x="16.400" y="9.225" width="1.025" height="1.025" fill="#ffeb4f" fill-opacity="1.000" />
<rect x="17.425" y="9.225" width="1.025" height="1.025" fill="#301911" fill-opacity="1.000" />
<rect x="18.450" y="9.225" width="1.025" height="1.025" fill="#30180e" fill-opacity="1.000" />
<rect x="19.475" y="9.225" width="1.025" height="1.025" fill="#30170e" fill-opacity="1.000" />
<rect x="20.500" y="9.225" width="1.025" height="1.025" fill="#30180d" fill-opacity="1.000" />
<rect x="21.525" y="9.225" width="1.025" height="1.025" fill="#2d1810" fill-opacity="1.000" />
<rect x="22.550" y="9.225" width="1.025" height="1.025" fill="#301910" fill-opacity="1.000" />
<rect x="23.575" y="9.225" width="1.025" height="1.025" fill="#2d190a" fill-opacity="1.000" />
<rect x="24.600" y="9.225" width="1.025" height="1.025" fill="#ffe83f" fill-opacity="1.000" />
<rect x="25.625" y="9.225" width="1.025" height="1.025" fill="#ffd902" fill-opacity="1.000" />
<rect x="26.650" y="9.225" width="1.025" height="1.025" fill="#ffda00" fill-opacity="1.000" />
<rect x="27.675" y="9.225" width="1.025" height="1.025" fill="#ffe700" fill-opacity="1.000" />
<rect x="10.250" y="10.250" width="1.025" height="1.025" fill="#ffe001" fill-opacity="1.000" />
<rect x="11.275" y="10.250" width="1.025" height="1.025" fill="#ffeb27" fill-opacity="1.000" />
<rect x="12.300" y="10.250" width="1.025" height="1.025" fill="#f3cd04" fill-opacity="1.000" />
<rect x="13.325" y="10.250" width="1.025" height="1.025" fill="#ffd100" fill-opacity="1.000" />
<rect x="14.350" y="10.250" width="1.025" height="1.025" fill="#ffd800" fill-opacity="1.000" />
<rect x="15.375" y="10.250" width="1.025" height="1.025" fill="#2d1805" fill-opacity="1.000" />
<rect x="16.400" y="10.250" width="1.025" height="1.025" fill="#2d1910" fill-opacity="1.000" />
<rect x="24.600" y="10.250" width="1.025" height="1.025" fill="#2d191c" fill-opacity="1.000" />
<rect x="25.625" y="10.250" width="1.025" height="1.025" fill="#4a1600" fill-opacity="1.000" />
<rect x="26.650" y="10.250" width="1.025" height="1.025" fill="#ffd701" fill-opacity="1.000" />
<rect x="27.675" y="10.250" width="1.025" height="1.025" fill="#ffdc00" fill-opacity="1.000" />
<rect x="28.700" y="10.250" width="1.025" height="1.025" fill="#ffe00a" fill-opacity="1.000" />
<rect x="10.250" y="11.275" width="1.025" height="1.025" fill="#ffdd01" fill-opacity="1.000" />
<rect x="11.275" y="11.275" width="1.025" height="1.025" fill="#ffed3f" fill-opacity="1.000" />
<rect x="12.300" y="11.275" width="1.025" height="1.025" fill="#daa109" fill-opacity="1.000" />
<rect x="13.325" y="11.275" width="1.025" height="1.025" fill="#4d1300" fill-opacity="1.000" />
<rect x="14.350" y="11.275" width="1.025" height="1.025" fill="#2d1600" fill-opacity="1.000" />
<rect x="15.375" y="11.275" width="1.025" height="1.025" fill="#2d1803" fill-opacity="1.000" />
<rect x="24.600" y="11.275" width="1.025" height="1.025" fill="#391822" fill-opacity="1.000" />
<rect x="25.625" y="11.275" width="1.025" height="1.025" fill="#36170b" fill-opacity="1.000" />
<rect x="26.650" y="11.275" width="1.025" height="1.025" fill="#491302" fill-opacity="1.000" />
<rect x="27.675" y="11.275" width="1.025" height="1.025" fill="#ffde0d" fill-opacity="1.000" />
<rect x="28.700" y="11.275" width="1.025" height="1.025" fill="#ffe206" fill-opacity="1.000" />
<rect x="9.225" y="12.300" width="1.025" height="1.025" fill="#ffcb00" fill-opacity="1.000" />
<rect x="10.250" y="12.300" width="1.025" height="1.025" fill="#ffdc02" fill-opacity="1.000" />
<rect x="11.275" y="12.300" width="1.025" height="1.025" fill="#fff449" fill-opacity="1.000" />
<rect x="12.300" y="12.300" width="1.025" height="1.025" fill="#370d05" fill-opacity="1.000" />
<rect x="13.325" y="12.300" width="1.025" height="1.025" fill="#2e1100" fill-opacity="1.000" />
<rect x="14.350" y="12.300" width="1.025" height="1.025" fill="#301600" fill-opacity="1.000" />
<rect x="25.625" y="12.300" width="1.025" height="1.025" fill="#361a1c" fill-opacity="1.000" />
<rect x="26.650" y="12.300" width="1.025" height="1.025" fill="#400f04" fill-opacity="1.000" />
<rect x="27.675" y="12.300" width="1.025" height="1.025" fill="#ffec24" fill-opacity="1.000" />
<rect x="28.700" y="12.300" width="1.025" height="1.025" fill="#ffe106" fill-opacity="1.000" />
<rect x="9.225" y="13.325" width="1.025" height="1.025" fill="#ffcc00" fill-opacity="1.000" />
<rect x="10.250" y="13.325" width="1.025" height="1.025" fill="#ffdc02" fill-opacity="1.000" />
<rect x="11.275" y="13.325" width="1.025" height="1.025" fill="#4a1a28" fill-opacity="1.000" />
<rect x="12.300" y="13.325" width="1.025" height="1.025" fill="#1e0a03" fill-opacity="1.000" />
<rect x="13.325" y="13.325" width="1.025" height="1.025" fill="#290d00" fill-opacity="1.000" />
<rect x="25.625" y="13.325" width="1.025" height="1.025" fill="#301923" fill-opacity="1.000" />
<rect x="26.650" y="13.325" width="1.025" height="1.025" fill="#250c03" fill-opacity="1.000" />
<rect x="27.675" y="13.325" width="1.025" height="1.025" fill="#4d1a13" fill-opacity="1.000" />
<rect x="28.700" y="13.325" width="1.025" height="1.025" fill="#ffe005" fill-opacity="1.000" />
<rect x="9.225" y="14.350" width="1.025" height="1.025" fill="#ffca00" fill-opacity="1.000" />
<rect x="10.250" y="14.350" width="1.025" height="1.025" fill="#ffdd03" fill-opacity="1.000" />
<rect x="11.275" y="14.350" width="1.025" height="1.025" fill="#4a1a41" fill-opacity="1.000" />
<rect x="12.300" y="14.350" width="1.025" height="1.025" fill="#180603" fill-opacity="1.000" />
<rect x="25.625" y="14.350" width="1.025" height="1.025" fill="#391935" fill-opacity="1.000" />
<rect x="26.650" y="14.350" width="1.025" height="1.025" fill="#1e0803" fill-opacity="1.000" />
<rect x="27.675" y="14.350" width="1.025" height="1.025" fill="#4d1a1a" fill-opacity="1.000" />
<rect x="28.700" y="14.350" width="1.025" height="1.025" fill="#ffe005" fill-opacity="1.000" />
<rect x="8.200" y="15.375" width="1.025" height="1.025" fill="#d68600" fill-opacity="1.000" />
<rect x="9.225" y="15.375" width="1.025" height="1.025" fill="#fec800" fill-opacity="1.000" />
<rect x="10.250" y="15.375" width="1.025" height="1.025" fill="#ffdf05" fill-opacity="1.000" />
<rect x="11.275" y="15.375" width="1.025" height="1.025" fill="#4a1b56" fill-opacity="1.000" />
<rect x="12.300" y="15.375" width="1.025" height="1.025" fill="#150501" fill-opacity="1.000" />
<rect x="25.625" y="15.375" width="1.025" height="1.025" fill="#361a39" fill-opacity="1.000" />
<rect x="26.650" y="15.375" width="1.025" height="1.025" fill="#1a0501" fill-opacity="1.000" />
<rect x="27.675" y="15.375" width="1.025" height="1.025" fill="#4d1a20" fill-opacity="1.000" />
<rect x="28.700" y="15.375" width="1.025" height="1.025" fill="#ffe005" fill-opacity="1.000" />
<rect x="29.725" y="15.375" width="1.025" height="1.025" fill="#fffff7" fill-opacity="1.000" />
<rect x="8.200" y="16.400" width="1.025" height="1.025" fill="#d58500" fill-opacity="1.000" />
<rect x="9.225" y="16.400" width="1.025" height="1.025" fill="#fec900" fill-opacity="1.000" />
<rect x="10.250" y="16.400" width="1.025" height="1.025" fill="#441801" fill-opacity="1.000" />
<rect x="11.275" y="16.400" width="1.025" height="1.025" fill="#301b38" fill-opacity="1.000" />
<rect x="25.625" y="16.400" width="1.025" height="1.025" fill="#301a35" fill-opacity="1.000" />
<rect x="26.650" y="16.400" width="1.025" height="1.025" fill="#190502" fill-opacity="1.000" />
<rect x="27.675" y="16.400" width="1.025" height="1.025" fill="#4d1a20" fill-opacity="1.000" />
<rect x="28.700" y="16.400" width="1.025" height="1.025" fill="#ffe005" fill-opacity="1.000" />
<rect x="29.725" y="16.400" width="1.025" height="1.025" fill="#fffff9" fill-opacity="1.000" />
<rect x="8.200" y="17.425" width="1.025" height="1.025" fill="#d47e00" fill-opacity="1.000" />
<rect x="9.225" y="17.425" width="1.025" height="1.025" fill="#ffca00" fill-opacity="1.000" />
<rect x="10.250" y="17.425" width="1.025" height="1.025" fill="#441801" fill-opacity="1.000" />
<rect x="11.275" y="17.425" width="1.025" height="1.025" fill="#301a2d" fill-opacity="1.000" />
<rect x="25.625" y="17.425" width="1.025" height="1.025" fill="#361933" fill-opacity="1.000" />
<rect x="26.650" y="17.425" width="1.025" height="1.025" fill="#1a0802" fill-opacity="1.000" />
<rect x="27.675" y="17.425" width="1.025" height="1.025" fill="#391a13" fill-opacity="1.000" />
<rect x="28.700" y="17.425" width="1.025" height="1.025" fill="#411801" fill-opacity="1.000" />
<rect x="29.725" y="17.425" width="1.025" height="1.025" fill="#fffdc9" fill-opacity="1.000" />
<rect x="8.200" y="18.450" width="1.025" height="1.025" fill="#d67e00" fill-opacity="1.000" />
<rect x="9.225" y="18.450" width="1.025" height="1.025" fill="#ffcc00" fill-opacity="1.000" />
<rect x="10.250" y="18.450" width="1.025" height="1.025" fill="#441701" fill-opacity="1.000" />
<rect x="11.275" y="18.450" width="1.025" height="1.025" fill="#361a21" fill-opacity="1.000" />
<rect x="12.300" y="18.450" width="1.025" height="1.025" fill="#1a0903" fill-opacity="1.000" />
<rect x="25.625" y="18.450" width="1.025" height="1.025" fill="#301927" fill-opacity="1.000" />
<rect x="26.650" y="18.450" width="1.025" height="1.025" fill="#200a03" fill-opacity="1.000" />
<rect x="27.675" y="18.450" width="1.025" height="1.025" fill="#391a10" fill-opacity="1.000" />
<rect x="28.700" y="18.450" width="1.025" height="1.025" fill="#441801" fill-opacity="1.000" />
<rect x="29.725" y="18.450" width="1.025" height="1.025" fill="#fffb96" fill-opacity="1.000" />
<rect x="8.200" y="19.475" width="1.025" height="1.025" fill="#d27c00" fill-opacity="1.000" />
<rect x="9.225" y="19.475" width="1.025" height="1.025" fill="#ffcd00" fill-opacity="1.000" />
<rect x="10.250" y="19.475" width="1.025" height="1.025" fill="#441701" fill-opacity="1.000" />
<rect x="11.275" y="19.475" width="1.025" height="1.025" fill="#361a14" fill-opacity="1.000" />
<rect x="12.300" y="19.475" width="1.025" height="1.025" fill="#230c03" fill-opacity="1.000" />
<rect x="13.325" y="19.475" width="1.025" height="1.025" fill="#2d1000" fill-opacity="1.000" />
<rect x="25.625" y="19.475" width="1.025" height="1.025" fill="#36191c" fill-opacity="1.000" />
<rect x="26.650" y="19.475" width="1.025" height="1.025" fill="#270f03" fill-opacity="1.000" />
<rect x="27.675" y="19.475" width="1.025" height="1.025" fill="#39190a" fill-opacity="1.000" />
<rect x="28.700" y="19.475" width="1.025" height="1.025" fill="#441801" fill-opacity="1.000" />
<rect x="29.725" y="19.475" width="1.025" height="1.025" fill="#fff671" fill-opacity="1.000" />
<rect x="8.200" y="20.500" width="1.025" height="1.025" fill="#c47100" fill-opacity="1.000" />
<rect x="9.225" y="20.500" width="1.025" height="1.025" fill="#ffcc00" fill-opacity="1.000" />
<rect x="10.250" y="20.500" width="1.025" height="1.025" fill="#4a1701" fill-opacity="1.000" />
<rect x="11.275" y="20.500" width="1.025" height="1.025" fill="#391910" fill-opacity="1.000" />
<rect x="12.300" y="20.500" width="1.025" height="1.025" fill="#291002" fill-opacity="1.000" />
<rect x="13.325" y="20.500" width="1.025" height="1.025" fill="#301300" fill-opacity="1.000" />
<rect x="24.600" y="20.500" width="1.025" height="1.025" fill="#30181a" fill-opacity="1.000" />
<rect x="25.625" y="20.500" width="1.025" height="1.025" fill="#36180e" fill-opacity="1.000" />
<rect x="26.650" y="20.500" width="1.025" height="1.025" fill="#2d1202" fill-opacity="1.000" />
<rect x="27.675" y="20.500" width="1.025" height="1.025" fill="#391804" fill-opacity="1.000" />
<rect x="28.700" y="20.500" width="1.025" height="1.025" fill="#441802" fill-opacity="1.000" />
<rect x="29.725" y="20.500" width="1.025" height="1.025" fill="#ffef61" fill-opacity="1.000" />
<rect x="8.200" y="21.525" width="1.025" height="1.025" fill="#b05a00" fill-opacity="1.000" />
<rect x="9.225" y="21.525" width="1.025" height="1.025" fill="#fccb00" fill-opacity="1.000" />
<rect x="10.250" y="21.525" width="1.025" height="1.025" fill="#ffe201" fill-opacity="1.000" />
<rect x="11.275" y="21.525" width="1.025" height="1.025" fill="#44190d" fill-opacity="1.000" />
<rect x="12.300" y="21.525" width="1.025" height="1.025" fill="#361501" fill-opacity="1.000" />
<rect x="13.325" y="21.525" width="1.025" height="1.025" fill="#301600" fill-opacity="1.000" />
<rect x="24.600" y="21.525" width="1.025" height="1.025" fill="#30191b" fill-opacity="1.000" />
<rect x="25.625" y="21.525" width="1.025" height="1.025" fill="#361703" fill-opacity="1.000" />
<rect x="26.650" y="21.525" width="1.025" height="1.025" fill="#301600" fill-opacity="1.000" />
<rect x="27.675" y="21.525" width="1.025" height="1.025" fill="#391700" fill-opacity="1.000" />
<rect x="28.700" y="21.525" width="1.025" height="1.025" fill="#441802" fill-opacity="1.000" />
<rect x="29.725" y="21.525" width="1.025" height="1.025" fill="#ffe242" fill-opacity="1.000" />
<rect x="8.200" y="22.550" width="1.025" height="1.025" fill="#903d00" fill-opacity="1.000" />
<rect x="9.225" y="22.550" width="1.025" height="1.025" fill="#ebb200" fill-opacity="1.000" />
<rect x="10.250" y="22.550" width="1.025" height="1.025" fill="#ffe300" fill-opacity="1.000" />
<rect x="11.275" y="22.550" width="1.025" height="1.025" fill="#4a1906" fill-opacity="1.000" />
<rect x="12.300" y="22.550" width="1.025" height="1.025" fill="#391800" fill-opacity="1.000" />
<rect x="13.325" y="22.550" width="1.025" height="1.025" fill="#301700" fill-opacity="1.000" />
<rect x="24.600" y="22.550" width="1.025" height="1.025" fill="#301917" fill-opacity="1.000" />
<rect x="25.625" y="22.550" width="1.025" height="1.025" fill="#301600" fill-opacity="1.000" />
<rect x="26.650" y="22.550" width="1.025" height="1.025" fill="#301800" fill-opacity="1.000" />
<rect x="27.675" y="22.550" width="1.025" height="1.025" fill="#4a1801" fill-opacity="1.000" />
<rect x="28.700" y="22.550" width="1.025" height="1.025" fill="#fede10" fill-opacity="1.000" />
<rect x="29.725" y="22.550" width="1.025" height="1.025" fill="#ecbf27" fill-opacity="1.000" />
<rect x="9.225" y="23.575" width="1.025" height="1.025" fill="#d18c00" fill-opacity="1.000" />
<rect x="10.250" y="23.575" width="1.025" height="1.025" fill="#ffdd00" fill-opacity="1.000" />
<rect x="11.275" y="23.575" width="1.025" height="1.025" fill="#fff002" fill-opacity="1.000" />
<rect x="12.300" y="23.575" width="1.025" height="1.025" fill="#4d1900" fill-opacity="1.000" />
<rect x="13.325" y="23.575" width="1.025" height="1.025" fill="#301800" fill-opacity="1.000" />
<rect x="23.575" y="23.575" width="1.025" height="1.025" fill="#301a18" fill-opacity="1.000" />
<rect x="24.600" y="23.575" width="1.025" height="1.025" fill="#301912" fill-opacity="1.000" />
<rect x="25.625" y="23.575" width="1.025" height="1.025" fill="#301700" fill-opacity="1.000" />
<rect x="26.650" y="23.575" width="1.025" height="1.025" fill="#4d1805" fill-opacity="1.000" />
<rect x="27.675" y="23.575" width="1.025" height="1.025" fill="#4a1909" fill-opacity="1.000" />
<rect x="28.700" y="23.575" width="1.025" height="1.025" fill="#fad91c" fill-opacity="1.000" />
<rect x="9.225" y="24.600" width="1.025" height="1.025" fill="#aa5800" fill-opacity="1.000" />
<rect x="10.250" y="24.600" width="1.025" height="1.025" fill="#e1ad00" fill-opacity="1.000" />
<rect x="11.275" y="24.600" width="1.025" height="1.025" fill="#fcda00" fill-opacity="1.000" />
<rect x="12.300" y="24.600" width="1.025" height="1.025" fill="#ffea00" fill-opacity="1.000" />
<rect x="13.325" y="24.600" width="1.025" height="1.025" fill="#4a1800" fill-opacity="1.000" />
<rect x="19.475" y="24.600" width="1.025" height="1.025" fill="#391715" fill-opacity="1.000" />
<rect x="20.500" y="24.600" width="1.025" height="1.025" fill="#39170d" fill-opacity="1.000" />
<rect x="21.525" y="24.600" width="1.025" height="1.025" fill="#39181a" fill-opacity="1.000" />
<rect x="22.550" y="24.600" width="1.025" height="1.025" fill="#301916" fill-opacity="1.000" />
<rect x="23.575" y="24.600" width="1.025" height="1.025" fill="#2d1917" fill-opacity="1.000" />
<rect x="24.600" y="24.600" width="1.025" height="1.025" fill="#4d1a20" fill-opacity="1.000" />
<rect x="25.625" y="24.600" width="1.025" height="1.025" fill="#4a190a" fill-opacity="1.000" />
<rect x="26.650" y="24.600" width="1.025" height="1.025" fill="#fde722" fill-opacity="1.000" />
<rect x="27.675" y="24.600" width="1.025" height="1.025" fill="#ffeb27" fill-opacity="1.000" />
<rect x="28.700" y="24.600" width="1.025" height="1.025" fill="#cfa633" fill-opacity="1.000" />
<rect x="10.250" y="25.625" width="1.025" height="1.025" fill="#ab6904" fill-opacity="1.000" />
<rect x="11.275" y="25.625" width="1.025" height="1.025" fill="#e2a600" fill-opacity="1.000" />
<rect x="12.300" y="25.625" width="1.025" height="1.025" fill="#f4c700" fill-opacity="1.000" />
<rect x="13.325" y="25.625" width="1.025" height="1.025" fill="#facf00" fill-opacity="1.000" />
<rect x="18.450" y="25.625" width="1.025" height="1.025" fill="#2d1817" fill-opacity="1.000" />
<rect x="19.475" y="25.625" width="1.025" height="1.025" fill="#30160d" fill-opacity="1.000" />
<rect x="20.500" y="25.625" width="1.025" height="1.025" fill="#301608" fill-opacity="1.000" />
<rect x="21.525" y="25.625" width="1.025" height="1.025" fill="#301711" fill-opacity="1.000" />
<rect x="22.550" y="25.625" width="1.025" height="1.025" fill="#4a1819" fill-opacity="1.000" />
<rect x="23.575" y="25.625" width="1.025" height="1.025" fill="#4a181d" fill-opacity="1.000" />
<rect x="24.600" y="25.625" width="1.025" height="1.025" fill="#feef50" fill-opacity="1.000" />
<rect x="25.625" y="25.625" width="1.025" height="1.025" fill="#fef237" fill-opacity="1.000" />
<rect x="26.650" y="25.625" width="1.025" height="1.025" fill="#eed537" fill-opacity="1.000" />
<rect x="27.675" y="25.625" width="1.025" height="1.025" fill="#f4df2a" fill-opacity="1.000" />
<rect x="10.250" y="26.650" width="1.025" height="1.025" fill="#70301a" fill-opacity="1.000" />
<rect x="11.275" y="26.650" width="1.025" height="1.025" fill="#b76c00" fill-opacity="1.000" />
<rect x="12.300" y="26.650" width="1.025" height="1.025" fill="#cc8f00" fill-opacity="1.000" />
<rect x="13.325" y="26.650" width="1.025" height="1.025" fill="#f0ad00" fill-opacity="1.000" />
<rect x="14.350" y="26.650" width="1.025" height="1.025" fill="#ffca02" fill-opacity="1.000" />
<rect x="18.450" y="26.650" width="1.025" height="1.025" fill="#2d1811" fill-opacity="1.000" />
<rect x="19.475" y="26.650" width="1.025" height="1.025" fill="#301406" fill-opacity="1.000" />
<rect x="20.500" y="26.650" width="1.025" height="1.025" fill="#4a1300" fill-opacity="1.000" />
<rect x="21.525" y="26.650" width="1.025" height="1.025" fill="#4a1719" fill-opacity="1.000" />
<rect x="22.550" y="26.650" width="1.025" height="1.025" fill="#ffe850" fill-opacity="1.000" />
<rect x="23.575" y="26.650" width="1.025" height="1.025" fill="#fddb26" fill-opacity="1.000" />
<rect x="24.600" y="26.650" width="1.025" height="1.025" fill="#f8db31" fill-opacity="1.000" />
<rect x="25.625" y="26.650" width="1.025" height="1.025" fill="#fbea38" fill-opacity="1.000" />
<rect x="26.650" y="26.650" width="1.025" height="1.025" fill="#b58e43" fill-opacity="1.000" />
<rect x="11.275" y="27.675" width="1.025" height="1.025" fill="#7f320c" fill-opacity="1.000" />
<rect x="12.300" y="27.675" width="1.025" height="1.025" fill="#8e470e" fill-opacity="1.000" />
<rect x="13.325" y="27.675" width="1.025" height="1.025" fill="#c76f00" fill-opacity="1.000" />
<rect x="14.350" y="27.675" width="1.025" height="1.025" fill="#dc9002" fill-opacity="1.000" />
<rect x="15.375" y="27.675" width="1.025" height="1.025" fill="#f1b609" fill-opacity="1.000" />
<rect x="18.450" y="27.675" width="1.025" height="1.025" fill="#2d180c" fill-opacity="1.000" />
<rect x="19.475" y="27.675" width="1.025" height="1.025" fill="#481305" fill-opacity="1.000" />
<rect x="20.500" y="27.675" width="1.025" height="1.025" fill="#fdc421" fill-opacity="1.000" />
<rect x="21.525" y="27.675" width="1.025" height="1.025" fill="#fad54f" fill-opacity="1.000" />
<rect x="22.550" y="27.675" width="1.025" height="1.025" fill="#fae263" fill-opacity="1.000" />
<rect x="23.575" y="27.675" width="1.025" height="1.025" fill="#dcb430" fill-opacity="1.000" />
<rect x="24.600" y="27.675" width="1.025" height="1.025" fill="#d2a629" fill-opacity="1.000" />
<rect x="25.625" y="27.675" width="1.025" height="1.025" fill="#d8b42a" fill-opacity="1.000" />
<rect x="11.275" y="28.700" width="1.025" height="1.025" fill="#792600" fill-opacity="1.000" />
<rect x="12.300" y="28.700" width="1.025" height="1.025" fill="#7d2700" fill-opacity="1.000" />
<rect x="13.325" y="28.700" width="1.025" height="1.025" fill="#9a3a00" fill-opacity="1.000" />
<rect x="14.350" y="28.700" width="1.025" height="1.025" fill="#ad5502" fill-opacity="1.000" />
<rect x="15.375" y="28.700" width="1.025" height="1.025" fill="#de980d" fill-opacity="1.000" />
<rect x="16.400" y="28.700" width="1.025" height="1.025" fill="#f9c213" fill-opacity="1.000" />
<rect x="18.450" y="28.700" width="1.025" height="1.025" fill="#fddd3f" fill-opacity="1.000" />
<rect x="19.475" y="28.700" width="1.025" height="1.025" fill="#fbbf13" fill-opacity="1.000" />
<rect x="20.500" y="28.700" width="1.025" height="1.025" fill="#fbda5d" fill-opacity="1.000" />
<rect x="21.525" y="28.700" width="1.025" height="1.025" fill="#dfb34e" fill-opacity="1.000" />
<rect x="22.550" y="28.700" width="1.025" height="1.025" fill="#e8c560" fill-opacity="1.000" />
<rect x="23.575" y="28.700" width="1.025" height="1.025" fill="#88673b" fill-opacity="1.000" />
<rect x="9.225" y="29.725" width="1.025" height="1.025" fill="#823600" fill-opacity="1.000" />
<rect x="10.250" y="29.725" width="1.025" height="1.025" fill="#8e4400" fill-opacity="1.000" />
<rect x="11.275" y="29.725" width="1.025" height="1.025" fill="#bf6400" fill-opacity="1.000" />
<rect x="12.300" y="29.725" width="1.025" height="1.025" fill="#de9003" fill-opacity="1.000" />
<rect x="13.325" y="29.725" width="1.025" height="1.025" fill="#dd9c12" fill-opacity="1.000" />
<rect x="14.350" y="29.725" width="1.025" height="1.025" fill="#e8b02a" fill-opacity="1.000" />
<rect x="15.375" y="29.725" width="1.025" height="1.025" fill="#f9d457" fill-opacity="1.000" />
<rect x="16.400" y="29.725" width="1.025" height="1.025" fill="#fffff7" fill-opacity="1.000" />
<rect x="17.425" y="29.725" width="1.025" height="1.025" fill="#fec11b" fill-opacity="1.000" />
<rect x="18.450" y="29.725" width="1.025" height="1.025" fill="#fec20d" fill-opacity="1.000" />
<rect x="19.475" y="29.725" width="1.025" height="1.025" fill="#fffff7" fill-opacity="1.000" />
<rect x="20.500" y="29.725" width="1.025" height="1.025" fill="#fdef9e" fill-opacity="1.000" />
<rect x="21.525" y="29.725" width="1.025" height="1.025" fill="#f1c62d" fill-opacity="1.000" />
<rect x="22.550" y="29.725" width="1.025" height="1.025" fill="#e9b921" fill-opacity="1.000" />
<rect x="23.575" y="29.725" width="1.025" height="1.025" fill="#f3ce12" fill-opacity="1.000" />
<rect x="7.175" y="30.750" width="1.025" height="1.025" fill="#822c00" fill-opacity="1.000" />
<rect x="8.200" y="30.750" width="1.025" height="1.025" fill="#924b00" fill-opacity="1.000" />
<rect x="9.225" y="30.750" width="1.025" height="1.025" fill="#d28700" fill-opacity="1.000" />
<rect x="10.250" y="30.750" width="1.025" height="1.025" fill="#ebb400" fill-opacity="1.000" />
<rect x="11.275" y="30.750" width="1.025" height="1.025" fill="#f4c000" fill-opacity="1.000" />
<rect x="12.300" y="30.750" width="1.025" height="1.025" fill="#facc01" fill-opacity="1.000" />
<rect x="13.325" y="30.750" width="1.025" height="1.025" fill="#f8d008" fill-opacity="1.000" />
<rect x="14.350" y="30.750" width="1.025" height="1.025" fill="#fce24f" fill-opacity="1.000" />
<rect x="15.375" y="30.750" width="1.025" height="1.025" fill="#ffe259" fill-opacity="1.000" />
<rect x="16.400" y="30.750" width="1.025" height="1.025" fill="#fffff9" fill-opacity="1.000" />
<rect x="17.425" y="30.750" width="1.025" height="1.025" fill="#ffbd13" fill-opacity="1.000" />
<rect x="18.450" y="30.750" width="1.025" height="1.025" fill="#fec007" fill-opacity="1.000" />
<rect x="19.475" y="30.750" width="1.025" height="1.025" fill="#fffff9" fill-opacity="1.000" />
<rect x="20.500" y="30.750" width="1.025" height="1.025" fill="#fcd51e" fill-opacity="1.000" />
<rect x="21.525" y="30.750" width="1.025" height="1.025" fill="#fdd715" fill-opacity="1.000" />
<rect x="22.550" y="30.750" width="1.025" height="1.025" fill="#fade2c" fill-opacity="1.000" />
<rect x="23.575" y="30.750" width="1.025" height="1.025" fill="#fff84d" fill-opacity="1.000" />
<rect x="24.600" y="30.750" width="1.025" height="1.025" fill="#f5db37" fill-opacity="1.000" />
<rect x="25.625" y="30.750" width="1.025" height="1.025" fill="#ffee1a" fill-opacity="1.000" />
<rect x="6.150" y="31.775" width="1.025" height="1.025" fill="#5f2000" fill-opacity="1.000" />
<rect x="7.175" y="31.775" width="1.025" height="1.025" fill="#ac5800" fill-opacity="1.000" />
<rect x="8.200" y="31.775" width="1.025" height="1.025" fill="#edba00" fill-opacity="1.000" />
<rect x="9.225" y="31.775" width="1.025" height="1.025" fill="#f8dc00" fill-opacity="1.000" />
<rect x="10.250" y="31.775" width="1.025" height="1.025" fill="#fce000" fill-opacity="1.000" />
<rect x="11.275" y="31.775" width="1.025" height="1.025" fill="#fcdd00" fill-opacity="1.000" />
<rect x="12.300" y="31.775" width="1.025" height="1.025" fill="#fee100" fill-opacity="1.000" />
<rect x="13.325" y="31.775" width="1.025" height="1.025" fill="#fee94a" fill-opacity="1.000" />
<rect x="14.350" y="31.775" width="1.025" height="1.025" fill="#fff397" fill-opacity="1.000" />
<rect x="15.375" y="31.775" width="1.025" height="1.025" fill="#fff599" fill-opacity="1.000" />
<rect x="16.400" y="31.775" width="1.025" height="1.025" fill="#fffdc9" fill-opacity="1.000" />
<rect x="17.425" y="31.775" width="1.025" height="1.025" fill="#ffe26b" fill-opacity="1.000" />
<rect x="18.450" y="31.775" width="1.025" height="1.025" fill="#ffde4a" fill-opacity="1.000" />
<rect x="19.475" y="31.775" width="1.025" height="1.025" fill="#fffdc9" fill-opacity="1.000" />
<rect x="20.500" y="31.775" width="1.025" height="1.025" fill="#fef295" fill-opacity="1.000" />
<rect x="21.525" y="31.775" width="1.025" height="1.025" fill="#fff596" fill-opacity="1.000" />
<rect x="22.550" y="31.775" width="1.025" height="1.025" fill="#ffef69" fill-opacity="1.000" />
<rect x="23.575" y="31.775" width="1.025" height="1.025" fill="#ffe209" fill-opacity="1.000" />
<rect x="24.600" y="31.775" width="1.025" height="1.025" fill="#ffea24" fill-opacity="1.000" />
<rect x="25.625" y="31.775" width="1.025" height="1.025" fill="#ffe930" fill-opacity="1.000" />
<rect x="26.650" y="31.775" width="1.025" height="1.025" fill="#f3d328" fill-opacity="1.000" />
<rect x="5.125" y="32.800" width="1.025" height="1.025" fill="#8b3800" fill-opacity="1.000" />
<rect x="6.150" y="32.800" width="1.025" height="1.025" fill="#8b3800" fill-opacity="1.000" />
<rect x="7.175" y="32.800" width="1.025" height="1.025" fill="#e4aa00" fill-opacity="1.000" />
<rect x="8.200" y="32.800" width="1.025" height="1.025" fill="#ffdf00" fill-opacity="1.000" />
<rect x="9.225" y="32.800" width="1.025" height="1.025" fill="#ffee01" fill-opacity="1.000" />
<rect x="10.250" y="32.800" width="1.025" height="1.025" fill="#ffe800" fill-opacity="1.000" />
<rect x="11.275" y="32.800" width="1.025" height="1.025" fill="#ffdb00" fill-opacity="1.000" />
<rect x="12.300" y="32.800" width="1.025" height="1.025" fill="#ffde00" fill-opacity="1.000" />
<rect x="13.325" y="32.800" width="1.025" height="1.025" fill="#ffe734" fill-opacity="1.000" />
<rect x="14.350" y="32.800" width="1.025" height="1.025" fill="#ffeb54" fill-opacity="1.000" />
<rect x="15.375" y="32.800" width="1.025" height="1.025" fill="#ffea52" fill-opacity="1.000" />
<rect x="16.400" y="32.800" width="1.025" height="1.025" fill="#fffb96" fill-opacity="1.000" />
<rect x="17.425" y="32.800" width="1.025" height="1.025" fill="#ffdb39" fill-opacity="1.000" />
<rect x="18.450" y="32.800" width="1.025" height="1.025" fill="#ffe034" fill-opacity="1.000" />
<rect x="19.475" y="32.800" width="1.025" height="1.025" fill="#fffb96" fill-opacity="1.000" />
<rect x="20.500" y="32.800" width="1.025" height="1.025" fill="#ffe849" fill-opacity="1.000" />
<rect x="21.525" y="32.800" width="1.025" height="1.025" fill="#ffed35" fill-opacity="1.000" />
<rect x="22.550" y="32.800" width="1.025" height="1.025" fill="#ffe839" fill-opacity="1.000" />
<rect x="23.575" y="32.800" width="1.025" height="1.025" fill="#ffda02" fill-opacity="1.000" />
<rect x="24.600" y="32.800" width="1.025" height="1.025" fill="#ffdc01" fill-opacity="1.000" />
<rect x="25.625" y="32.800" width="1.025" height="1.025" fill="#ffe803" fill-opacity="1.000" />
<rect x="26.650" y="32.800" width="1.025" height="1.025" fill="#ffdd12" fill-opacity="1.000" />
<rect x="27.675" y="32.800" width="1.025" height="1.025" fill="#ffd20f" fill-opacity="1.000" />
<rect x="4.100" y="33.825" width="1.025" height="1.025" fill="#5e1e00" fill-opacity="1.000" />
<rect x="5.125" y="33.825" width="1.025" height="1.025" fill="#b15c00" fill-opacity="1.000" />
<rect x="6.150" y="33.825" width="1.025" height="1.025" fill="#fac700" fill-opacity="1.000" />
<rect x="7.175" y="33.825" width="1.025" height="1.025" fill="#fac700" fill-opacity="1.000" />
<rect x="8.200" y="33.825" width="1.025" height="1.025" fill="#ffde01" fill-opacity="1.000" />
<rect x="9.225" y="33.825" width="1.025" height="1.025" fill="#ffea37" fill-opacity="1.000" />
<rect x="10.250" y="33.825" width="1.025" height="1.025" fill="#e9ba06" fill-opacity="1.000" />
<rect x="11.275" y="33.825" width="1.025" height="1.025" fill="#ffc800" fill-opacity="1.000" />
<rect x="12.300" y="33.825" width="1.025" height="1.025" fill="#ffd500" fill-opacity="1.000" />
<rect x="13.325" y="33.825" width="1.025" height="1.025" fill="#ffe414" fill-opacity="1.000" />
<rect x="14.350" y="33.825" width="1.025" height="1.025" fill="#ffec47" fill-opacity="1.000" />
<rect x="15.375" y="33.825" width="1.025" height="1.025" fill="#ffe54b" fill-opacity="1.000" />
<rect x="16.400" y="33.825" width="1.025" height="1.025" fill="#fff671" fill-opacity="1.000" />
<rect x="17.425" y="33.825" width="1.025" height="1.025" fill="#ffe880" fill-opacity="1.000" />
<rect x="18.450" y="33.825" width="1.025" height="1.025" fill="#ffea9b" fill-opacity="1.000" />
<rect x="19.475" y="33.825" width="1.025" height="1.025" fill="#fff671" fill-opacity="1.000" />
<rect x="20.500" y="33.825" width="1.025" height="1.025" fill="#ffeb73" fill-opacity="1.000" />
<rect x="21.525" y="33.825" width="1.025" height="1.025" fill="#ffeb37" fill-opacity="1.000" />
<rect x="22.550" y="33.825" width="1.025" height="1.025" fill="#ffe998" fill-opacity="1.000" />
<rect x="23.575" y="33.825" width="1.025" height="1.025" fill="#ffd20c" fill-opacity="1.000" />
<rect x="24.600" y="33.825" width="1.025" height="1.025" fill="#ffcd04" fill-opacity="1.000" />
<rect x="25.625" y="33.825" width="1.025" height="1.025" fill="#ffda02" fill-opacity="1.000" />
<rect x="26.650" y="33.825" width="1.025" height="1.025" fill="#ffe108" fill-opacity="1.000" />
<rect x="27.675" y="33.825" width="1.025" height="1.025" fill="#ffe553" fill-opacity="1.000" />
<rect x="28.700" y="33.825" width="1.025" height="1.025" fill="#ffe553" fill-opacity="1.000" />
<rect x="4.100" y="34.850" width="1.025" height="1.025" fill="#622100" fill-opacity="1.000" />
<rect x="5.125" y="34.850" width="1.025" height="1.025" fill="#d27f00" fill-opacity="1.000" />
<rect x="6.150" y="34.850" width="1.025" height="1.025" fill="#ffcb00" fill-opacity="1.000" />
<rect x="7.175" y="34.850" width="1.025" height="1.025" fill="#ffcb00" fill-opacity="1.000" />
<rect x="8.200" y="34.850" width="1.025" height="1.025" fill="#ffdc02" fill-opacity="1.000" />
<rect x="9.225" y="34.850" width="1.025" height="1.025" fill="#fff44a" fill-opacity="1.000" />
<rect x="10.250" y="34.850" width="1.025" height="1.025" fill="#bd780d" fill-opacity="1.000" />
<rect x="11.275" y="34.850" width="1.025" height="1.025" fill="#f2a100" fill-opacity="1.000" />
<rect x="12.300" y="34.850" width="1.025" height="1.025" fill="#ffca02" fill-opacity="1.000" />
<rect x="13.325" y="34.850" width="1.025" height="1.025" fill="#ffd914" fill-opacity="1.000" />
<rect x="14.350" y="34.850" width="1.025" height="1.025" fill="#ffd70d" fill-opacity="1.000" />
<rect x="15.375" y="34.850" width="1.025" height="1.025" fill="#ffce0e" fill-opacity="1.000" />
<rect x="16.400" y="34.850" width="1.025" height="1.025" fill="#ffef61" fill-opacity="1.000" />
<rect x="17.425" y="34.850" width="1.025" height="1.025" fill="#ffcb18" fill-opacity="1.000" />
<rect x="18.450" y="34.850" width="1.025" height="1.025" fill="#ffc91d" fill-opacity="1.000" />
<rect x="19.475" y="34.850" width="1.025" height="1.025" fill="#ffef61" fill-opacity="1.000" />
<rect x="20.500" y="34.850" width="1.025" height="1.025" fill="#ffde12" fill-opacity="1.000" />
<rect x="21.525" y="34.850" width="1.025" height="1.025" fill="#ffe70f" fill-opacity="1.000" />
<rect x="22.550" y="34.850" width="1.025" height="1.025" fill="#ffdd2e" fill-opacity="1.000" />
<rect x="23.575" y="34.850" width="1.025" height="1.025" fill="#fff373" fill-opacity="1.000" />
<rect x="24.600" y="34.850" width="1.025" height="1.025" fill="#d08e0b" fill-opacity="1.000" />
<rect x="25.625" y="34.850" width="1.025" height="1.025" fill="#ffec25" fill-opacity="1.000" />
<rect x="26.650" y="34.850" width="1.025" height="1.025" fill="#ffe106" fill-opacity="1.000" />
<rect x="27.675" y="34.850" width="1.025" height="1.025" fill="#fff66e" fill-opacity="1.000" />
<rect x="28.700" y="34.850" width="1.025" height="1.025" fill="#fff66e" fill-opacity="1.000" />
<rect x="4.100" y="35.875" width="1.025" height="1.025" fill="#631a00" fill-opacity="1.000" />
<rect x="5.125" y="35.875" width="1.025" height="1.025" fill="#d27800" fill-opacity="1.000" />
<rect x="6.150" y="35.875" width="1.025" height="1.025" fill="#ffcb00" fill-opacity="1.000" />
<rect x="7.175" y="35.875" width="1.025" height="1.025" fill="#ffcb00" fill-opacity="1.000" />
<rect x="8.200" y="35.875" width="1.025" height="1.025" fill="#ffdc02" fill-opacity="1.000" />
<rect x="9.225" y="35.875" width="1.025" height="1.025" fill="#fff899" fill-opacity="1.000" />
<rect x="10.250" y="35.875" width="1.025" height="1.025" fill="#8d4a0d" fill-opacity="1.000" />
<rect x="11.275" y="35.875" width="1.025" height="1.025" fill="#cb6300" fill-opacity="1.000" />
<rect x="12.300" y="35.875" width="1.025" height="1.025" fill="#f9b501" fill-opacity="1.000" />
<rect x="13.325" y="35.875" width="1.025" height="1.025" fill="#ffc90e" fill-opacity="1.000" />
<rect x="14.350" y="35.875" width="1.025" height="1.025" fill="#ffbe09" fill-opacity="1.000" />
<rect x="15.375" y="35.875" width="1.025" height="1.025" fill="#ffb409" fill-opacity="1.000" />
<rect x="16.400" y="35.875" width="1.025" height="1.025" fill="#ffe242" fill-opacity="1.000" />
<rect x="17.425" y="35.875" width="1.025" height="1.025" fill="#ffb108" fill-opacity="1.000" />
<rect x="18.450" y="35.875" width="1.025" height="1.025" fill="#ffaf08" fill-opacity="1.000" />
<rect x="19.475" y="35.875" width="1.025" height="1.025" fill="#ffe242" fill-opacity="1.000" />
<rect x="20.500" y="35.875" width="1.025" height="1.025" fill="#ffcc06" fill-opacity="1.000" />
<rect x="21.525" y="35.875" width="1.025" height="1.025" fill="#ffd602" fill-opacity="1.000" />
<rect x="22.550" y="35.875" width="1.025" height="1.025" fill="#fdc005" fill-opacity="1.000" />
<rect x="23.575" y="35.875" width="1.025" height="1.025" fill="#ffeab0" fill-opacity="1.000" />
<rect x="24.600" y="35.875" width="1.025" height="1.025" fill="#9d5a0c" fill-opacity="1.000" />
<rect x="25.625" y="35.875" width="1.025" height="1.025" fill="#fff93b" fill-opacity="1.000" />
<rect x="26.650" y="35.875" width="1.025" height="1.025" fill="#ffe005" fill-opacity="1.000" />
<rect x="27.675" y="35.875" width="1.025" height="1.025" fill="#fffaa2" fill-opacity="1.000" />
<rect x="28.700" y="35.875" width="1.025" height="1.025" fill="#fffaa2" fill-opacity="1.000" />
<rect x="4.100" y="36.900" width="1.025" height="1.025" fill="#571000" fill-opacity="1.000" />
<rect x="5.125" y="36.900" width="1.025" height="1.025" fill="#d68700" fill-opacity="1.000" />
<rect x="6.150" y="36.900" width="1.025" height="1.025" fill="#fec800" fill-opacity="1.000" />
<rect x="7.175" y="36.900" width="1.025" height="1.025" fill="#fec800" fill-opacity="1.000" />
<rect x="8.200" y="36.900" width="1.025" height="1.025" fill="#ffdf05" fill-opacity="1.000" />
<rect x="9.225" y="36.900" width="1.025" height="1.025" fill="#fffffc" fill-opacity="1.000" />
<rect x="10.250" y="36.900" width="1.025" height="1.025" fill="#6d2d05" fill-opacity="1.000" />
<rect x="11.275" y="36.900" width="1.025" height="1.025" fill="#b44b02" fill-opacity="1.000" />
<rect x="12.300" y="36.900" width="1.025" height="1.025" fill="#ebab21" fill-opacity="1.000" />
<rect x="13.325" y="36.900" width="1.025" height="1.025" fill="#f7a910" fill-opacity="1.000" />
<rect x="14.350" y="36.900" width="1.025" height="1.025" fill="#f9a307" fill-opacity="1.000" />
<rect x="15.375" y="36.900" width="1.025" height="1.025" fill="#faa004" fill-opacity="1.000" />
<rect x="16.400" y="36.900" width="1.025" height="1.025" fill="#ecbf27" fill-opacity="1.000" />
<rect x="17.425" y="36.900" width="1.025" height="1.025" fill="#fba407" fill-opacity="1.000" />
<rect x="18.450" y="36.900" width="1.025" height="1.025" fill="#fca609" fill-opacity="1.000" />
<rect x="19.475" y="36.900" width="1.025" height="1.025" fill="#ecbf27" fill-opacity="1.000" />
<rect x="20.500" y="36.900" width="1.025" height="1.025" fill="#fdc405" fill-opacity="1.000" />
<rect x="21.525" y="36.900" width="1.025" height="1.025" fill="#fec103" fill-opacity="1.000" />
<rect x="22.550" y="36.900" width="1.025" height="1.025" fill="#faa406" fill-opacity="1.000" />
<rect x="23.575" y="36.900" width="1.025" height="1.025" fill="#fffcea" fill-opacity="1.000" />
<rect x="24.600" y="36.900" width="1.025" height="1.025" fill="#793106" fill-opacity="1.000" />
<rect x="25.625" y="36.900" width="1.025" height="1.025" fill="#fffa55" fill-opacity="1.000" />
<rect x="26.650" y="36.900" width="1.025" height="1.025" fill="#ffe005" fill-opacity="1.000" />
<rect x="27.675" y="36.900" width="1.025" height="1.025" fill="#fffffd" fill-opacity="1.000" />
<rect x="28.700" y="36.900" width="1.025" height="1.025" fill="#fffffd" fill-opacity="1.000" />
</svg>