<svg xmlns="http://www.w3.org/2000/svg" width="37.925" height="37.925" shape-rendering="crispEdges" style="image-rendering: pixelated;">
<rect x="8.200" y="0.000" width="1.025" height="1.025" fill="#ffffb7" fill-opacity="0.376" />
<rect x="9.225" y="0.000" width="1.025" height="1.025" fill="#ffffc0" fill-opacity="0.365" />
<rect x="10.250" y="0.000" width="1.025" height="1.025" fill="#ffffc9" fill-opacity="0.353" />
<rect x="11.275" y="0.000" width="1.025" height="1.025" fill="#ffffcc" fill-opacity="0.569" />
<rect x="12.300" y="0.000" width="1.025" height="1.025" fill="#ffffd1" fill-opacity="0.345" />
<rect x="13.325" y="0.000" width="1.025" height="1.025" fill="#ffffd6" fill-opacity="0.341" />
<rect x="14.350" y="0.000" width="1.025" height="1.025" fill="#ffffd8" fill-opacity="0.337" />
<rect x="15.375" y="0.000" width="1.025" height="1.025" fill="#ffffdb" fill-opacity="0.333" />
<rect x="16.400" y="0.000" width="1.025" height="1.025" fill="#ffffde" fill-opacity="0.333" />
<rect x="17.425" y="0.000" width="1.025" height="1.025" fill="#ffffe1" fill-opacity="0.329" />
<rect x="18.450" y="0.000" width="1.025" height="1.025" fill="#ffffe0" fill-opacity="0.545" />
<rect x="19.475" y="0.000" width="1.025" height="1.025" fill="#ffffe0" fill-opacity="0.545" />
<rect x="20.500" y="0.000" width="1.025" height="1.025" fill="#ffffe2" fill-opacity="0.545" />
<rect x="21.525" y="0.000" width="1.025" height="1.025" fill="#ffffe0" fill-opacity="0.545" />
<rect x="22.550" y="0.000" width="1.025" height="1.025" fill="#ffffde" fill-opacity="0.549" />
<rect x="23.575" y="0.000" width="1.025" height="1.025" fill="#ffffdb" fill-opacity="0.553" />
<rect x="24.600" y="0.000" width="1.025" height="1.025" fill="#ffffdb" fill-opacity="0.553" />
<rect x="25.625" y="0.000" width="1.025" height="1.025" fill="#ffffd6" fill-opacity="0.557" />
<rect x="26.650" y="0.000" width="1.025" height="1.025" fill="#ffffd1" fill-opacity="0.565" />
<rect x="27.675" y="0.000" width="1.025" height="1.025" fill="#ffffce" fill-opacity="0.349" />
<rect x="28.700" y="0.000" width="1.025" height="1.025" fill="#ffffc9" fill-opacity="0.353" />
<rect x="29.725" y="0.000" width="1.025" height="1.025" fill="#ffffc5" fill-opacity="0.361" />
<rect x="30.750" y="0.000" width="1.025" height="1.025" fill="#ffffbb" fill-opacity="0.369" />
<rect x="31.775" y="0.000" width="1.025" height="1.025" fill="#ffffb7" fill-opacity="0.376" />
<rect x="32.800" y="0.000" width="1.025" height="1.025" fill="#ffffa9" fill-opacity="0.396" />
<rect x="34.850" y="0.000" width="1.025" height="1.025" fill="#ffff9a" fill-opacity="0.416" />
<rect x="10.250" y="1.025" width="1.025" height="1.025" fill="#ffffc9" fill-opacity="0.353" />
<rect x="28.700" y="1.025" width="1.025" height="1.025" fill="#ffffc9" fill-opacity="0.353" />
<rect x="29.725" y="1.025" width="1.025" height="1.025" fill="#ffffc5" fill-opacity="0.361" />
<rect x="31.775" y="1.025" width="1.025" height="1.025" fill="#ffffb7" fill-opacity="0.376" />
<rect x="32.800" y="1.025" width="1.025" height="1.025" fill="#ffffa4" fill-opacity="0.624" />
<rect x="34.850" y="1.025" width="1.025" height="1.025" fill="#ffff9a" fill-opacity="0.416" />
<rect x="30.750" y="2.050" width="1.025" height="1.025" fill="#ffffbb" fill-opacity="0.369" />
<rect x="32.800" y="2.050" width="1.025" height="1.025" fill="#ffffa4" fill-opacity="0.624" />
<rect x="33.825" y="2.050" width="1.025" height="1.025" fill="#ffffa2" fill-opacity="0.408" />
<rect x="34.850" y="2.050" width="1.025" height="1.025" fill="#ffff90" fill-opacity="0.651" />
<rect x="30.750" y="3.075" width="1.025" height="1.025" fill="#ffffbb" fill-opacity="0.369" />
<rect x="31.775" y="3.075" width="1.025" height="1.025" fill="#ffffac" fill-opacity="0.612" />
<rect x="32.800" y="3.075" width="1.025" height="1.025" fill="#ffffa1" fill-opacity="0.627" />
<rect x="33.825" y="3.075" width="1.025" height="1.025" fill="#ffffa2" fill-opacity="0.408" />
<rect x="30.750" y="4.100" width="1.025" height="1.025" fill="#ffffb1" fill-opacity="0.604" />
<rect x="31.775" y="4.100" width="1.025" height="1.025" fill="#ffffa9" fill-opacity="0.616" />
<rect x="32.800" y="4.100" width="1.025" height="1.025" fill="#ffffa7" fill-opacity="0.396" />
<rect x="30.750" y="5.125" width="1.025" height="1.025" fill="#ffffb3" fill-opacity="0.380" />
<rect x="31.775" y="5.125" width="1.025" height="1.025" fill="#ffffaf" fill-opacity="0.388" />
<rect x="32.800" y="5.125" width="1.025" height="1.025" fill="#ffffa3" fill-opacity="0.404" />
<rect x="31.775" y="6.150" width="1.025" height="1.025" fill="#ffffa1" fill-opacity="0.627" />
<rect x="32.800" y="6.150" width="1.025" height="1.025" fill="#ffff99" fill-opacity="0.639" />
<rect x="33.825" y="6.150" width="1.025" height="1.025" fill="#ffff9a" fill-opacity="0.416" />
<rect x="34.850" y="6.150" width="1.025" height="1.025" fill="#ffff95" fill-opacity="0.424" />
<rect x="31.775" y="7.175" width="1.025" height="1.025" fill="#ffffa3" fill-opacity="0.404" />
<rect x="32.800" y="7.175" width="1.025" height="1.025" fill="#ffff9c" fill-opacity="0.416" />
<rect x="33.825" y="7.175" width="1.025" height="1.025" fill="#ffff97" fill-opacity="0.424" />
<rect x="34.850" y="7.175" width="1.025" height="1.025" fill="#ffff93" fill-opacity="0.427" />
<rect x="30.750" y="8.200" width="1.025" height="1.025" fill="#ffffa7" fill-opacity="0.396" />
<rect x="32.800" y="8.200" width="1.025" height="1.025" fill="#ffff90" fill-opacity="0.651" />
<rect x="33.825" y="8.200" width="1.025" height="1.025" fill="#ffff93" fill-opacity="0.427" />
<rect x="34.850" y="8.200" width="1.025" height="1.025" fill="#ffff80" fill-opacity="0.678" />
<rect x="31.775" y="9.225" width="1.025" height="1.025" fill="#ffff99" fill-opacity="0.420" />
<rect x="32.800" y="9.225" width="1.025" height="1.025" fill="#ffff89" fill-opacity="0.663" />
<rect x="33.825" y="9.225" width="1.025" height="1.025" fill="#ffff91" fill-opacity="0.435" />
<rect x="34.850" y="9.225" width="1.025" height="1.025" fill="#ffff7c" fill-opacity="0.686" />
<rect x="31.775" y="10.250" width="1.025" height="1.025" fill="#ffff95" fill-opacity="0.424" />
<rect x="32.800" y="10.250" width="1.025" height="1.025" fill="#ffff83" fill-opacity="0.671" />
<rect x="33.825" y="10.250" width="1.025" height="1.025" fill="#ffff8c" fill-opacity="0.443" />
<rect x="34.850" y="10.250" width="1.025" height="1.025" fill="#ffff88" fill-opacity="0.447" />
<rect x="32.800" y="11.275" width="1.025" height="1.025" fill="#ffff7f" fill-opacity="0.678" />
<rect x="33.825" y="11.275" width="1.025" height="1.025" fill="#ffff88" fill-opacity="0.447" />
<rect x="34.850" y="11.275" width="1.025" height="1.025" fill="#ffff7f" fill-opacity="0.463" />
<rect x="31.775" y="12.300" width="1.025" height="1.025" fill="#ffff8a" fill-opacity="0.443" />
<rect x="33.825" y="12.300" width="1.025" height="1.025" fill="#ffff87" fill-opacity="0.451" />
<rect x="31.775" y="13.325" width="1.025" height="1.025" fill="#ffff87" fill-opacity="0.451" />
<rect x="34.850" y="13.325" width="1.025" height="1.025" fill="#ffff79" fill-opacity="0.478" />
<rect x="31.775" y="14.350" width="1.025" height="1.025" fill="#ffff84" fill-opacity="0.455" />
<rect x="34.850" y="14.350" width="1.025" height="1.025" fill="#ffff77" fill-opacity="0.478" />
<rect x="32.800" y="15.375" width="1.025" height="1.025" fill="#ffff79" fill-opacity="0.478" />
<rect x="34.850" y="15.375" width="1.025" height="1.025" fill="#ffff77" fill-opacity="0.478" />
<rect x="31.775" y="17.425" width="1.025" height="1.025" fill="#434343" fill-opacity="1.000" />
<rect x="32.800" y="17.425" width="1.025" height="1.025" fill="#fd0600" fill-opacity="1.000" />
<rect x="33.825" y="17.425" width="1.025" height="1.025" fill="#fa3f00" fill-opacity="1.000" />
<rect x="27.675" y="18.450" width="1.025" height="1.025" fill="#f1c016" fill-opacity="1.000" />
<rect x="28.700" y="18.450" width="1.025" height="1.025" fill="#f3d804" fill-opacity="1.000" />
<rect x="29.725" y="18.450" width="1.025" height="1.025" fill="#fffe16" fill-opacity="1.000" />
<rect x="30.750" y="18.450" width="1.025" height="1.025" fill="#585659" fill-opacity="1.000" />
<rect x="31.775" y="18.450" width="1.025" height="1.025" fill="#c8c8c7" fill-opacity="1.000" />
<rect x="32.800" y="18.450" width="1.025" height="1.025" fill="#ffa00a" fill-opacity="1.000" />
<rect x="33.825" y="18.450" width="1.025" height="1.025" fill="#f71202" fill-opacity="1.000" />
<rect x="34.850" y="18.450" width="1.025" height="1.025" fill="#6d2829" fill-opacity="1.000" />
<rect x="24.600" y="19.475" width="1.025" height="1.025" fill="#ff8f02" fill-opacity="1.000" />
<rect x="25.625" y="19.475" width="1.025" height="1.025" fill="#dd9c0e" fill-opacity="1.000" />
<rect x="26.650" y="19.475" width="1.025" height="1.025" fill="#e3a231" fill-opacity="1.000" />
<rect x="27.675" y="19.475" width="1.025" height="1.025" fill="#fdb977" fill-opacity="1.000" />
<rect x="28.700" y="19.475" width="1.025" height="1.025" fill="#ffff97" fill-opacity="1.000" />
<rect x="29.725" y="19.475" width="1.025" height="1.025" fill="#ffff3a" fill-opacity="1.000" />
<rect x="30.750" y="19.475" width="1.025" height="1.025" fill="#ff851c" fill-opacity="1.000" />
<rect x="31.775" y="19.475" width="1.025" height="1.025" fill="#434343" fill-opacity="1.000" />
<rect x="32.800" y="19.475" width="1.025" height="1.025" fill="#ffd516" fill-opacity="1.000" />
<rect x="33.825" y="19.475" width="1.025" height="1.025" fill="#f90501" fill-opacity="1.000" />
<rect x="34.850" y="19.475" width="1.025" height="1.025" fill="#a91e1d" fill-opacity="1.000" />
<rect x="21.525" y="20.500" width="1.025" height="1.025" fill="#4b4b4b" fill-opacity="0.498" />
<rect x="22.550" y="20.500" width="1.025" height="1.025" fill="#4b3000" fill-opacity="1.000" />
<rect x="23.575" y="20.500" width="1.025" height="1.025" fill="#c3a306" fill-opacity="1.000" />
<rect x="24.600" y="20.500" width="1.025" height="1.025" fill="#d68601" fill-opacity="1.000" />
<rect x="25.625" y="20.500" width="1.025" height="1.025" fill="#f7e510" fill-opacity="1.000" />
<rect x="26.650" y="20.500" width="1.025" height="1.025" fill="#fffd2c" fill-opacity="1.000" />
<rect x="27.675" y="20.500" width="1.025" height="1.025" fill="#edc61f" fill-opacity="1.000" />
<rect x="28.700" y="20.500" width="1.025" height="1.025" fill="#e1783a" fill-opacity="1.000" />
<rect x="29.725" y="20.500" width="1.025" height="1.025" fill="#e18613" fill-opacity="1.000" />
<rect x="30.750" y="20.500" width="1.025" height="1.025" fill="#fdc80e" fill-opacity="1.000" />
<rect x="31.775" y="20.500" width="1.025" height="1.025" fill="#c8c8c7" fill-opacity="1.000" />
<rect x="32.800" y="20.500" width="1.025" height="1.025" fill="#413d44" fill-opacity="1.000" />
<rect x="33.825" y="20.500" width="1.025" height="1.025" fill="#fc9004" fill-opacity="1.000" />
</svg>