<svg xmlns="http://www.w3.org/2000/svg" width="37.925" height="37.925" shape-rendering="crispEdges" style="image-rendering: pixelated;">
<rect x="13.325" y="15.375" width="1.025" height="1.025" fill="#660200" fill-opacity="1.000" />
<rect x="13.325" y="16.400" width="1.025" height="1.025" fill="#6d0200" fill-opacity="1.000" />
<rect x="14.350" y="16.400" width="1.025" height="1.025" fill="#be5700" fill-opacity="1.000" />
<rect x="13.325" y="17.425" width="1.025" height="1.025" fill="#862e00" fill-opacity="1.000" />
<rect x="14.350" y="17.425" width="1.025" height="1.025" fill="#d68000" fill-opacity="1.000" />
<rect x="13.325" y="18.450" width="1.025" height="1.025" fill="#c17102" fill-opacity="1.000" />
<rect x="14.350" y="18.450" width="1.025" height="1.025" fill="#f1b703" fill-opacity="1.000" />
<rect x="15.375" y="18.450" width="1.025" height="1.025" fill="#be5700" fill-opacity="0.675" />
<rect x="24.600" y="18.450" width="1.025" height="1.025" fill="#ffdc01" fill-opacity="1.000" />
<rect x="25.625" y="18.450" width="1.025" height="1.025" fill="#a35800" fill-opacity="0.902" />
<rect x="13.325" y="19.475" width="1.025" height="1.025" fill="#efb315" fill-opacity="1.000" />
<rect x="14.350" y="19.475" width="1.025" height="1.025" fill="#fdcc32" fill-opacity="1.000" />
<rect x="15.375" y="19.475" width="1.025" height="1.025" fill="#fedc5d" fill-opacity="1.000" />
<rect x="16.400" y="19.475" width="1.025" height="1.025" fill="#e0a027" fill-opacity="1.000" />
<rect x="24.600" y="19.475" width="1.025" height="1.025" fill="#f3ae03" fill-opacity="1.000" />
<rect x="25.625" y="19.475" width="1.025" height="1.025" fill="#a92600" fill-opacity="0.953" />
<rect x="13.325" y="20.500" width="1.025" height="1.025" fill="#fbd408" fill-opacity="1.000" />
<rect x="14.350" y="20.500" width="1.025" height="1.025" fill="#fde450" fill-opacity="1.000" />
<rect x="15.375" y="20.500" width="1.025" height="1.025" fill="#ffe359" fill-opacity="1.000" />
<rect x="16.400" y="20.500" width="1.025" height="1.025" fill="#f2bd38" fill-opacity="1.000" />
<rect x="17.425" y="20.500" width="1.025" height="1.025" fill="#c45807" fill-opacity="1.000" />
<rect x="24.600" y="20.500" width="1.025" height="1.025" fill="#ebb92c" fill-opacity="1.000" />
<rect x="25.625" y="20.500" width="1.025" height="1.025" fill="#d96c00" fill-opacity="0.902" />
<rect x="13.325" y="21.525" width="1.025" height="1.025" fill="#d68000" fill-opacity="1.000" />
<rect x="14.350" y="21.525" width="1.025" height="1.025" fill="#fff397" fill-opacity="1.000" />
<rect x="15.375" y="21.525" width="1.025" height="1.025" fill="#fff599" fill-opacity="1.000" />
<rect x="16.400" y="21.525" width="1.025" height="1.025" fill="#e1a43b" fill-opacity="1.000" />
<rect x="17.425" y="21.525" width="1.025" height="1.025" fill="#cf7224" fill-opacity="1.000" />
<rect x="24.600" y="21.525" width="1.025" height="1.025" fill="#eaa817" fill-opacity="1.000" />
<rect x="25.625" y="21.525" width="1.025" height="1.025" fill="#df8000" fill-opacity="0.902" />
<rect x="14.350" y="22.550" width="1.025" height="1.025" fill="#ffeb54" fill-opacity="1.000" />
<rect x="15.375" y="22.550" width="1.025" height="1.025" fill="#ffea52" fill-opacity="1.000" />
<rect x="16.400" y="22.550" width="1.025" height="1.025" fill="#e19e1a" fill-opacity="1.000" />
<rect x="17.425" y="22.550" width="1.025" height="1.025" fill="#e09a1a" fill-opacity="1.000" />
<rect x="23.575" y="22.550" width="1.025" height="1.025" fill="#ffda02" fill-opacity="1.000" />
<rect x="24.600" y="22.550" width="1.025" height="1.025" fill="#e28901" fill-opacity="1.000" />
<rect x="25.625" y="22.550" width="1.025" height="1.025" fill="#de8c00" fill-opacity="0.953" />
<rect x="15.375" y="23.575" width="1.025" height="1.025" fill="#fedd43" fill-opacity="1.000" />
<rect x="16.400" y="23.575" width="1.025" height="1.025" fill="#e1a140" fill-opacity="1.000" />
<rect x="17.425" y="23.575" width="1.025" height="1.025" fill="#d78201" fill-opacity="1.000" />
<rect x="23.575" y="23.575" width="1.025" height="1.025" fill="#e29105" fill-opacity="1.000" />
<rect x="24.600" y="23.575" width="1.025" height="1.025" fill="#db8901" fill-opacity="1.000" />
</svg>