<svg xmlns="http://www.w3.org/2000/svg" width="37.925" height="37.925" shape-rendering="crispEdges" style="image-rendering: pixelated;">
<rect x="8.200" y="26.650" width="1.025" height="1.025" fill="#c40a04" fill-opacity="1.000" />
<rect x="9.225" y="26.650" width="1.025" height="1.025" fill="#ff0000" fill-opacity="1.000" />
<rect x="10.250" y="26.650" width="1.025" height="1.025" fill="#a20f06" fill-opacity="1.000" />
<rect x="11.275" y="26.650" width="1.025" height="1.025" fill="#ff0000" fill-opacity="1.000" />
<rect x="21.525" y="26.650" width="1.025" height="1.025" fill="#c40a04" fill-opacity="1.000" />
<rect x="22.550" y="26.650" width="1.025" height="1.025" fill="#ff0000" fill-opacity="1.000" />
<rect x="23.575" y="26.650" width="1.025" height="1.025" fill="#ff0000" fill-opacity="1.000" />
<rect x="24.600" y="26.650" width="1.025" height="1.025" fill="#c40a04" fill-opacity="1.000" />
<rect x="6.150" y="27.675" width="1.025" height="1.025" fill="#c40a04" fill-opacity="1.000" />
<rect x="7.175" y="27.675" width="1.025" height="1.025" fill="#c40a04" fill-opacity="1.000" />
<rect x="8.200" y="27.675" width="1.025" height="1.025" fill="#ff0000" fill-opacity="1.000" />
<rect x="9.225" y="27.675" width="1.025" height="1.025" fill="#4b0000" fill-opacity="1.000" />
<rect x="10.250" y="27.675" width="1.025" height="1.025" fill="#4b0000" fill-opacity="1.000" />
<rect x="11.275" y="27.675" width="1.025" height="1.025" fill="#c40a04" fill-opacity="1.000" />
<rect x="12.300" y="27.675" width="1.025" height="1.025" fill="#9e1006" fill-opacity="1.000" />
<rect x="19.475" y="27.675" width="1.025" height="1.025" fill="#9d1006" fill-opacity="1.000" />
<rect x="20.500" y="27.675" width="1.025" height="1.025" fill="#c40a04" fill-opacity="1.000" />
<rect x="21.525" y="27.675" width="1.025" height="1.025" fill="#ff0000" fill-opacity="1.000" />
<rect x="22.550" y="27.675" width="1.025" height="1.025" fill="#871a00" fill-opacity="1.000" />
<rect x="23.575" y="27.675" width="1.025" height="1.025" fill="#9b2600" fill-opacity="1.000" />
<rect x="24.600" y="27.675" width="1.025" height="1.025" fill="#ac3500" fill-opacity="1.000" />
<rect x="25.625" y="27.675" width="1.025" height="1.025" fill="#ff0000" fill-opacity="1.000" />
<rect x="5.125" y="28.700" width="1.025" height="1.025" fill="#c40a04" fill-opacity="1.000" />
<rect x="6.150" y="28.700" width="1.025" height="1.025" fill="#ff0000" fill-opacity="1.000" />
<rect x="7.175" y="28.700" width="1.025" height="1.025" fill="#4b0000" fill-opacity="1.000" />
<rect x="8.200" y="28.700" width="1.025" height="1.025" fill="#4b0000" fill-opacity="1.000" />
<rect x="9.225" y="28.700" width="1.025" height="1.025" fill="#eea501" fill-opacity="1.000" />
<rect x="10.250" y="28.700" width="1.025" height="1.025" fill="#eaa100" fill-opacity="1.000" />
<rect x="11.275" y="28.700" width="1.025" height="1.025" fill="#4b0000" fill-opacity="1.000" />
<rect x="12.300" y="28.700" width="1.025" height="1.025" fill="#4b0000" fill-opacity="1.000" />
<rect x="20.500" y="28.700" width="1.025" height="1.025" fill="#ac3500" fill-opacity="1.000" />
<rect x="21.525" y="28.700" width="1.025" height="1.025" fill="#bd4400" fill-opacity="1.000" />
<rect x="22.550" y="28.700" width="1.025" height="1.025" fill="#d39e1a" fill-opacity="1.000" />
<rect x="23.575" y="28.700" width="1.025" height="1.025" fill="#d39b17" fill-opacity="1.000" />
<rect x="24.600" y="28.700" width="1.025" height="1.025" fill="#ffc117" fill-opacity="1.000" />
<rect x="25.625" y="28.700" width="1.025" height="1.025" fill="#f3a600" fill-opacity="0.980" />
<rect x="4.100" y="29.725" width="1.025" height="1.025" fill="#c40a04" fill-opacity="1.000" />
<rect x="5.125" y="29.725" width="1.025" height="1.025" fill="#4b0000" fill-opacity="1.000" />
<rect x="6.150" y="29.725" width="1.025" height="1.025" fill="#4b0000" fill-opacity="1.000" />
<rect x="7.175" y="29.725" width="1.025" height="1.025" fill="#885800" fill-opacity="1.000" />
<rect x="8.200" y="29.725" width="1.025" height="1.025" fill="#ffc722" fill-opacity="1.000" />
<rect x="9.225" y="29.725" width="1.025" height="1.025" fill="#ffbe12" fill-opacity="1.000" />
<rect x="10.250" y="29.725" width="1.025" height="1.025" fill="#ffc019" fill-opacity="1.000" />
<rect x="11.275" y="29.725" width="1.025" height="1.025" fill="#b97800" fill-opacity="1.000" />
<rect x="12.300" y="29.725" width="1.025" height="1.025" fill="#eaa100" fill-opacity="1.000" />
<rect x="13.325" y="29.725" width="1.025" height="1.025" fill="#741100" fill-opacity="1.000" />
<rect x="19.475" y="29.725" width="1.025" height="1.025" fill="#dc7400" fill-opacity="1.000" />
<rect x="20.500" y="29.725" width="1.025" height="1.025" fill="#eaa100" fill-opacity="1.000" />
<rect x="21.525" y="29.725" width="1.025" height="1.025" fill="#f3a600" fill-opacity="1.000" />
<rect x="22.550" y="29.725" width="1.025" height="1.025" fill="#ffdb54" fill-opacity="1.000" />
<rect x="23.575" y="29.725" width="1.025" height="1.025" fill="#b27908" fill-opacity="1.000" />
<rect x="24.600" y="29.725" width="1.025" height="1.025" fill="#ffd030" fill-opacity="0.996" />
<rect x="25.625" y="29.725" width="1.025" height="1.025" fill="#fff66f" fill-opacity="0.918" />
<rect x="3.075" y="30.750" width="1.025" height="1.025" fill="#c40a04" fill-opacity="1.000" />
<rect x="4.100" y="30.750" width="1.025" height="1.025" fill="#4b0000" fill-opacity="1.000" />
<rect x="5.125" y="30.750" width="1.025" height="1.025" fill="#ffc722" fill-opacity="1.000" />
<rect x="6.150" y="30.750" width="1.025" height="1.025" fill="#ffbe12" fill-opacity="1.000" />
<rect x="7.175" y="30.750" width="1.025" height="1.025" fill="#ffd540" fill-opacity="1.000" />
<rect x="8.200" y="30.750" width="1.025" height="1.025" fill="#a76c00" fill-opacity="1.000" />
<rect x="9.225" y="30.750" width="1.025" height="1.025" fill="#ffcb2a" fill-opacity="1.000" />
<rect x="10.250" y="30.750" width="1.025" height="1.025" fill="#ffd540" fill-opacity="1.000" />
<rect x="11.275" y="30.750" width="1.025" height="1.025" fill="#ffd540" fill-opacity="1.000" />
<rect x="12.300" y="30.750" width="1.025" height="1.025" fill="#a43d00" fill-opacity="1.000" />
<rect x="13.325" y="30.750" width="1.025" height="1.025" fill="#ffc81c" fill-opacity="1.000" />
<rect x="14.350" y="30.750" width="1.025" height="1.025" fill="#ce5b00" fill-opacity="1.000" />
<rect x="15.375" y="30.750" width="1.025" height="1.025" fill="#dc7400" fill-opacity="1.000" />
<rect x="16.400" y="30.750" width="1.025" height="1.025" fill="#e98e00" fill-opacity="1.000" />
<rect x="17.425" y="30.750" width="1.025" height="1.025" fill="#f3a600" fill-opacity="1.000" />
<rect x="18.450" y="30.750" width="1.025" height="1.025" fill="#faba00" fill-opacity="1.000" />
<rect x="19.475" y="30.750" width="1.025" height="1.025" fill="#ffd33a" fill-opacity="1.000" />
<rect x="20.500" y="30.750" width="1.025" height="1.025" fill="#ffd134" fill-opacity="1.000" />
<rect x="21.525" y="30.750" width="1.025" height="1.025" fill="#fff66f" fill-opacity="1.000" />
<rect x="22.550" y="30.750" width="1.025" height="1.025" fill="#d3a52b" fill-opacity="1.000" />
<rect x="23.575" y="30.750" width="1.025" height="1.025" fill="#ffde51" fill-opacity="1.000" />
<rect x="24.600" y="30.750" width="1.025" height="1.025" fill="#d39f1d" fill-opacity="0.988" />
<rect x="25.625" y="30.750" width="1.025" height="1.025" fill="#fff66f" fill-opacity="0.796" />
<rect x="3.075" y="31.775" width="1.025" height="1.025" fill="#ff0000" fill-opacity="1.000" />
<rect x="4.100" y="31.775" width="1.025" height="1.025" fill="#630900" fill-opacity="1.000" />
<rect x="5.125" y="31.775" width="1.025" height="1.025" fill="#ffd73d" fill-opacity="1.000" />
<rect x="6.150" y="31.775" width="1.025" height="1.025" fill="#ffcb2a" fill-opacity="1.000" />
<rect x="7.175" y="31.775" width="1.025" height="1.025" fill="#ffd540" fill-opacity="1.000" />
<rect x="8.200" y="31.775" width="1.025" height="1.025" fill="#a76c00" fill-opacity="1.000" />
<rect x="9.225" y="31.775" width="1.025" height="1.025" fill="#ffcb2a" fill-opacity="1.000" />
<rect x="10.250" y="31.775" width="1.025" height="1.025" fill="#ffde4b" fill-opacity="1.000" />
<rect x="11.275" y="31.775" width="1.025" height="1.025" fill="#ffde4b" fill-opacity="1.000" />
<rect x="12.300" y="31.775" width="1.025" height="1.025" fill="#885800" fill-opacity="1.000" />
<rect x="13.325" y="31.775" width="1.025" height="1.025" fill="#ffda45" fill-opacity="1.000" />
<rect x="14.350" y="31.775" width="1.025" height="1.025" fill="#ffd742" fill-opacity="1.000" />
<rect x="15.375" y="31.775" width="1.025" height="1.025" fill="#ffda45" fill-opacity="1.000" />
<rect x="16.400" y="31.775" width="1.025" height="1.025" fill="#ffde4b" fill-opacity="1.000" />
<rect x="17.425" y="31.775" width="1.025" height="1.025" fill="#ffd12f" fill-opacity="1.000" />
<rect x="18.450" y="31.775" width="1.025" height="1.025" fill="#ffd030" fill-opacity="1.000" />
<rect x="19.475" y="31.775" width="1.025" height="1.025" fill="#ffde51" fill-opacity="1.000" />
<rect x="20.500" y="31.775" width="1.025" height="1.025" fill="#ffdb54" fill-opacity="1.000" />
<rect x="21.525" y="31.775" width="1.025" height="1.025" fill="#ffda45" fill-opacity="1.000" />
<rect x="22.550" y="31.775" width="1.025" height="1.025" fill="#ffe845" fill-opacity="1.000" />
<rect x="23.575" y="31.775" width="1.025" height="1.025" fill="#ffd430" fill-opacity="1.000" />
<rect x="24.600" y="31.775" width="1.025" height="1.025" fill="#faba00" fill-opacity="0.976" />
<rect x="2.050" y="32.800" width="1.025" height="1.025" fill="#c40a04" fill-opacity="1.000" />
<rect x="3.075" y="32.800" width="1.025" height="1.025" fill="#ff0000" fill-opacity="1.000" />
<rect x="4.100" y="32.800" width="1.025" height="1.025" fill="#ff0000" fill-opacity="1.000" />
<rect x="5.125" y="32.800" width="1.025" height="1.025" fill="#bd4400" fill-opacity="1.000" />
<rect x="6.150" y="32.800" width="1.025" height="1.025" fill="#ffcb2a" fill-opacity="1.000" />
<rect x="7.175" y="32.800" width="1.025" height="1.025" fill="#ffde4b" fill-opacity="1.000" />
<rect x="8.200" y="32.800" width="1.025" height="1.025" fill="#553700" fill-opacity="1.000" />
<rect x="9.225" y="32.800" width="1.025" height="1.025" fill="#fcba0c" fill-opacity="1.000" />
<rect x="10.250" y="32.800" width="1.025" height="1.025" fill="#ffda45" fill-opacity="1.000" />
<rect x="11.275" y="32.800" width="1.025" height="1.025" fill="#ffda45" fill-opacity="1.000" />
<rect x="12.300" y="32.800" width="1.025" height="1.025" fill="#752f00" fill-opacity="1.000" />
<rect x="13.325" y="32.800" width="1.025" height="1.025" fill="#ffe254" fill-opacity="1.000" />
<rect x="14.350" y="32.800" width="1.025" height="1.025" fill="#ffde51" fill-opacity="1.000" />
<rect x="15.375" y="32.800" width="1.025" height="1.025" fill="#ffdb54" fill-opacity="1.000" />
<rect x="16.400" y="32.800" width="1.025" height="1.025" fill="#ffdb54" fill-opacity="1.000" />
<rect x="17.425" y="32.800" width="1.025" height="1.025" fill="#ffd537" fill-opacity="1.000" />
<rect x="18.450" y="32.800" width="1.025" height="1.025" fill="#ffd335" fill-opacity="1.000" />
<rect x="19.475" y="32.800" width="1.025" height="1.025" fill="#ffda4b" fill-opacity="1.000" />
<rect x="20.500" y="32.800" width="1.025" height="1.025" fill="#ffdf56" fill-opacity="1.000" />
<rect x="21.525" y="32.800" width="1.025" height="1.025" fill="#ffde51" fill-opacity="1.000" />
<rect x="22.550" y="32.800" width="1.025" height="1.025" fill="#ffd33a" fill-opacity="1.000" />
<rect x="23.575" y="32.800" width="1.025" height="1.025" fill="#ffcb2b" fill-opacity="1.000" />
<rect x="24.600" y="32.800" width="1.025" height="1.025" fill="#ce5b00" fill-opacity="0.976" />
<rect x="27.675" y="32.800" width="1.025" height="1.025" fill="#ac3500" fill-opacity="0.004" />
<rect x="2.050" y="33.825" width="1.025" height="1.025" fill="#c40a04" fill-opacity="1.000" />
<rect x="3.075" y="33.825" width="1.025" height="1.025" fill="#ff0000" fill-opacity="1.000" />
<rect x="4.100" y="33.825" width="1.025" height="1.025" fill="#840b04" fill-opacity="1.000" />
<rect x="5.125" y="33.825" width="1.025" height="1.025" fill="#f3a600" fill-opacity="1.000" />
<rect x="6.150" y="33.825" width="1.025" height="1.025" fill="#fdc51f" fill-opacity="1.000" />
<rect x="7.175" y="33.825" width="1.025" height="1.025" fill="#ffda45" fill-opacity="1.000" />
<rect x="8.200" y="33.825" width="1.025" height="1.025" fill="#553700" fill-opacity="1.000" />
<rect x="9.225" y="33.825" width="1.025" height="1.025" fill="#c07700" fill-opacity="1.000" />
<rect x="10.250" y="33.825" width="1.025" height="1.025" fill="#ffca2e" fill-opacity="1.000" />
<rect x="11.275" y="33.825" width="1.025" height="1.025" fill="#ffca2e" fill-opacity="1.000" />
<rect x="12.300" y="33.825" width="1.025" height="1.025" fill="#692b00" fill-opacity="1.000" />
<rect x="13.325" y="33.825" width="1.025" height="1.025" fill="#ffe665" fill-opacity="1.000" />
<rect x="14.350" y="33.825" width="1.025" height="1.025" fill="#ffe25f" fill-opacity="1.000" />
<rect x="15.375" y="33.825" width="1.025" height="1.025" fill="#ffdf56" fill-opacity="1.000" />
<rect x="16.400" y="33.825" width="1.025" height="1.025" fill="#ffdf5e" fill-opacity="1.000" />
<rect x="17.425" y="33.825" width="1.025" height="1.025" fill="#ffd335" fill-opacity="1.000" />
<rect x="18.450" y="33.825" width="1.025" height="1.025" fill="#ffc81e" fill-opacity="1.000" />
<rect x="19.475" y="33.825" width="1.025" height="1.025" fill="#ffda4b" fill-opacity="1.000" />
<rect x="20.500" y="33.825" width="1.025" height="1.025" fill="#ffe157" fill-opacity="1.000" />
<rect x="21.525" y="33.825" width="1.025" height="1.025" fill="#ffdf53" fill-opacity="1.000" />
<rect x="22.550" y="33.825" width="1.025" height="1.025" fill="#ffda4b" fill-opacity="1.000" />
<rect x="23.575" y="33.825" width="1.025" height="1.025" fill="#ffc514" fill-opacity="1.000" />
<rect x="24.600" y="33.825" width="1.025" height="1.025" fill="#871a00" fill-opacity="0.988" />
<rect x="2.050" y="34.850" width="1.025" height="1.025" fill="#c40a04" fill-opacity="1.000" />
<rect x="3.075" y="34.850" width="1.025" height="1.025" fill="#ff0000" fill-opacity="1.000" />
<rect x="4.100" y="34.850" width="1.025" height="1.025" fill="#590301" fill-opacity="1.000" />
<rect x="5.125" y="34.850" width="1.025" height="1.025" fill="#deaa27" fill-opacity="1.000" />
<rect x="6.150" y="34.850" width="1.025" height="1.025" fill="#c07700" fill-opacity="1.000" />
<rect x="7.175" y="34.850" width="1.025" height="1.025" fill="#ffca2e" fill-opacity="1.000" />
<rect x="8.200" y="34.850" width="1.025" height="1.025" fill="#553700" fill-opacity="1.000" />
<rect x="9.225" y="34.850" width="1.025" height="1.025" fill="#792f00" fill-opacity="1.000" />
<rect x="10.250" y="34.850" width="1.025" height="1.025" fill="#e49e00" fill-opacity="1.000" />
<rect x="11.275" y="34.850" width="1.025" height="1.025" fill="#ffd430" fill-opacity="1.000" />
<rect x="12.300" y="34.850" width="1.025" height="1.025" fill="#ffca2e" fill-opacity="1.000" />
<rect x="13.325" y="34.850" width="1.025" height="1.025" fill="#ffcb23" fill-opacity="1.000" />
<rect x="14.350" y="34.850" width="1.025" height="1.025" fill="#ffd83d" fill-opacity="1.000" />
<rect x="15.375" y="34.850" width="1.025" height="1.025" fill="#ffe464" fill-opacity="1.000" />
<rect x="16.400" y="34.850" width="1.025" height="1.025" fill="#ffdf54" fill-opacity="1.000" />
<rect x="17.425" y="34.850" width="1.025" height="1.025" fill="#ffc414" fill-opacity="1.000" />
<rect x="18.450" y="34.850" width="1.025" height="1.025" fill="#ac3500" fill-opacity="1.000" />
<rect x="19.475" y="34.850" width="1.025" height="1.025" fill="#ffce30" fill-opacity="1.000" />
<rect x="20.500" y="34.850" width="1.025" height="1.025" fill="#ffe15c" fill-opacity="1.000" />
<rect x="21.525" y="34.850" width="1.025" height="1.025" fill="#ffe254" fill-opacity="1.000" />
<rect x="22.550" y="34.850" width="1.025" height="1.025" fill="#ffc81c" fill-opacity="1.000" />
<rect x="23.575" y="34.850" width="1.025" height="1.025" fill="#d19200" fill-opacity="1.000" />
<rect x="24.600" y="34.850" width="1.025" height="1.025" fill="#4b0000" fill-opacity="0.996" />
<rect x="1.025" y="35.875" width="1.025" height="1.025" fill="#c40a04" fill-opacity="1.000" />
<rect x="2.050" y="35.875" width="1.025" height="1.025" fill="#ff0000" fill-opacity="1.000" />
<rect x="3.075" y="35.875" width="1.025" height="1.025" fill="#9c1006" fill-opacity="1.000" />
<rect x="4.100" y="35.875" width="1.025" height="1.025" fill="#8f400a" fill-opacity="1.000" />
<rect x="5.125" y="35.875" width="1.025" height="1.025" fill="#f4a905" fill-opacity="1.000" />
<rect x="6.150" y="35.875" width="1.025" height="1.025" fill="#fedd3a" fill-opacity="1.000" />
<rect x="7.175" y="35.875" width="1.025" height="1.025" fill="#ffd430" fill-opacity="1.000" />
<rect x="9.225" y="35.875" width="1.025" height="1.025" fill="#f3a600" fill-opacity="1.000" />
<rect x="10.250" y="35.875" width="1.025" height="1.025" fill="#e98e00" fill-opacity="1.000" />
<rect x="11.275" y="35.875" width="1.025" height="1.025" fill="#792f00" fill-opacity="1.000" />
<rect x="12.300" y="35.875" width="1.025" height="1.025" fill="#e49e00" fill-opacity="1.000" />
<rect x="13.325" y="35.875" width="1.025" height="1.025" fill="#d89100" fill-opacity="1.000" />
<rect x="14.350" y="35.875" width="1.025" height="1.025" fill="#f5b209" fill-opacity="1.000" />
<rect x="15.375" y="35.875" width="1.025" height="1.025" fill="#ffd138" fill-opacity="1.000" />
<rect x="16.400" y="35.875" width="1.025" height="1.025" fill="#ffcb25" fill-opacity="1.000" />
<rect x="17.425" y="35.875" width="1.025" height="1.025" fill="#db8f00" fill-opacity="1.000" />
<rect x="18.450" y="35.875" width="1.025" height="1.025" fill="#630900" fill-opacity="1.000" />
<rect x="19.475" y="35.875" width="1.025" height="1.025" fill="#fdbb0b" fill-opacity="1.000" />
<rect x="20.500" y="35.875" width="1.025" height="1.025" fill="#ffd33a" fill-opacity="1.000" />
<rect x="21.525" y="35.875" width="1.025" height="1.025" fill="#ffd135" fill-opacity="1.000" />
<rect x="22.550" y="35.875" width="1.025" height="1.025" fill="#e29b00" fill-opacity="1.000" />
<rect x="23.575" y="35.875" width="1.025" height="1.025" fill="#ad6800" fill-opacity="1.000" />
<rect x="24.600" y="35.875" width="1.025" height="1.025" fill="#4b0000" fill-opacity="1.000" />
<rect x="1.025" y="36.900" width="1.025" height="1.025" fill="#ff0000" fill-opacity="1.000" />
<rect x="2.050" y="36.900" width="1.025" height="1.025" fill="#9c1006" fill-opacity="1.000" />
<rect x="3.075" y="36.900" width="1.025" height="1.025" fill="#8d1004" fill-opacity="1.000" />
<rect x="4.100" y="36.900" width="1.025" height="1.025" fill="#781001" fill-opacity="1.000" />
<rect x="10.250" y="36.900" width="1.025" height="1.025" fill="#ac3500" fill-opacity="1.000" />
<rect x="11.275" y="36.900" width="1.025" height="1.025" fill="#7d3200" fill-opacity="1.000" />
<rect x="12.300" y="36.900" width="1.025" height="1.025" fill="#ad6100" fill-opacity="1.000" />
<rect x="13.325" y="36.900" width="1.025" height="1.025" fill="#d58900" fill-opacity="1.000" />
<rect x="14.350" y="36.900" width="1.025" height="1.025" fill="#d78900" fill-opacity="1.000" />
<rect x="15.375" y="36.900" width="1.025" height="1.025" fill="#e88c00" fill-opacity="1.000" />
<rect x="16.400" y="36.900" width="1.025" height="1.025" fill="#e8a001" fill-opacity="1.000" />
<rect x="17.425" y="36.900" width="1.025" height="1.025" fill="#ce8500" fill-opacity="1.000" />
<rect x="18.450" y="36.900" width="1.025" height="1.025" fill="#4b0000" fill-opacity="1.000" />
<rect x="19.475" y="36.900" width="1.025" height="1.025" fill="#e69e01" fill-opacity="1.000" />
<rect x="20.500" y="36.900" width="1.025" height="1.025" fill="#f9bd0b" fill-opacity="1.000" />
<rect x="21.525" y="36.900" width="1.025" height="1.025" fill="#f8b409" fill-opacity="1.000" />
<rect x="22.550" y="36.900" width="1.025" height="1.025" fill="#e88c00" fill-opacity="1.000" />
<rect x="23.575" y="36.900" width="1.025" height="1.025" fill="#8f4300" fill-opacity="1.000" />
<rect x="24.600" y="36.900" width="1.025" height="1.025" fill="#4b0000" fill-opacity="1.000" />
<rect x="25.625" y="36.900" width="1.025" height="1.025" fill="#ffc725" fill-opacity="1.000" />
</svg>