<svg xmlns="http://www.w3.org/2000/svg" width="37.925" height="37.925" shape-rendering="crispEdges" style="image-rendering: pixelated;">
<rect x="12.300" y="0.000" width="1.025" height="1.025" fill="#ae0d08" fill-opacity="1.000" />
<rect x="13.325" y="0.000" width="1.025" height="1.025" fill="#9b0805" fill-opacity="1.000" />
<rect x="14.350" y="0.000" width="1.025" height="1.025" fill="#a60d06" fill-opacity="1.000" />
<rect x="15.375" y="0.000" width="1.025" height="1.025" fill="#b21007" fill-opacity="1.000" />
<rect x="16.400" y="0.000" width="1.025" height="1.025" fill="#980600" fill-opacity="1.000" />
<rect x="17.425" y="0.000" width="1.025" height="1.025" fill="#bf140a" fill-opacity="1.000" />
<rect x="18.450" y="0.000" width="1.025" height="1.025" fill="#a20a06" fill-opacity="1.000" />
<rect x="19.475" y="0.000" width="1.025" height="1.025" fill="#af0e04" fill-opacity="1.000" />
<rect x="20.500" y="0.000" width="1.025" height="1.025" fill="#c91a0b" fill-opacity="1.000" />
<rect x="21.525" y="0.000" width="1.025" height="1.025" fill="#c8190d" fill-opacity="1.000" />
<rect x="22.550" y="0.000" width="1.025" height="1.025" fill="#9a0a0f" fill-opacity="1.000" />
<rect x="23.575" y="0.000" width="1.025" height="1.025" fill="#ff0000" fill-opacity="0.922" />
<rect x="10.250" y="1.025" width="1.025" height="1.025" fill="#ff3509" fill-opacity="1.000" />
<rect x="11.275" y="1.025" width="1.025" height="1.025" fill="#ff0000" fill-opacity="1.000" />
<rect x="12.300" y="1.025" width="1.025" height="1.025" fill="#d60000" fill-opacity="1.000" />
<rect x="13.325" y="1.025" width="1.025" height="1.025" fill="#b40000" fill-opacity="1.000" />
<rect x="14.350" y="1.025" width="1.025" height="1.025" fill="#cb0000" fill-opacity="1.000" />
<rect x="15.375" y="1.025" width="1.025" height="1.025" fill="#db0000" fill-opacity="1.000" />
<rect x="16.400" y="1.025" width="1.025" height="1.025" fill="#860000" fill-opacity="1.000" />
<rect x="17.425" y="1.025" width="1.025" height="1.025" fill="#ff0000" fill-opacity="1.000" />
<rect x="18.450" y="1.025" width="1.025" height="1.025" fill="#c20000" fill-opacity="1.000" />
<rect x="19.475" y="1.025" width="1.025" height="1.025" fill="#f40000" fill-opacity="1.000" />
<rect x="20.500" y="1.025" width="1.025" height="1.025" fill="#f10000" fill-opacity="1.000" />
<rect x="21.525" y="1.025" width="1.025" height="1.025" fill="#ff0000" fill-opacity="1.000" />
<rect x="22.550" y="1.025" width="1.025" height="1.025" fill="#ff0000" fill-opacity="1.000" />
<rect x="23.575" y="1.025" width="1.025" height="1.025" fill="#ff0000" fill-opacity="0.996" />
<rect x="9.225" y="2.050" width="1.025" height="1.025" fill="#8e0000" fill-opacity="1.000" />
<rect x="10.250" y="2.050" width="1.025" height="1.025" fill="#ff0000" fill-opacity="1.000" />
<rect x="11.275" y="2.050" width="1.025" height="1.025" fill="#ff0000" fill-opacity="1.000" />
<rect x="12.300" y="2.050" width="1.025" height="1.025" fill="#d60000" fill-opacity="1.000" />
<rect x="13.325" y="2.050" width="1.025" height="1.025" fill="#cd0000" fill-opacity="1.000" />
<rect x="14.350" y="2.050" width="1.025" height="1.025" fill="#ae0000" fill-opacity="1.000" />
<rect x="15.375" y="2.050" width="1.025" height="1.025" fill="#bd0000" fill-opacity="1.000" />
<rect x="16.400" y="2.050" width="1.025" height="1.025" fill="#aa0000" fill-opacity="1.000" />
<rect x="17.425" y="2.050" width="1.025" height="1.025" fill="#ff0000" fill-opacity="1.000" />
<rect x="18.450" y="2.050" width="1.025" height="1.025" fill="#ae0000" fill-opacity="1.000" />
<rect x="19.475" y="2.050" width="1.025" height="1.025" fill="#f40000" fill-opacity="1.000" />
<rect x="20.500" y="2.050" width="1.025" height="1.025" fill="#ff0000" fill-opacity="1.000" />
<rect x="21.525" y="2.050" width="1.025" height="1.025" fill="#e80000" fill-opacity="1.000" />
<rect x="22.550" y="2.050" width="1.025" height="1.025" fill="#ff0000" fill-opacity="1.000" />
<rect x="23.575" y="2.050" width="1.025" height="1.025" fill="#ff0000" fill-opacity="1.000" />
<rect x="9.225" y="3.075" width="1.025" height="1.025" fill="#9e0000" fill-opacity="1.000" />
<rect x="10.250" y="3.075" width="1.025" height="1.025" fill="#dc0000" fill-opacity="1.000" />
<rect x="11.275" y="3.075" width="1.025" height="1.025" fill="#c00000" fill-opacity="1.000" />
<rect x="12.300" y="3.075" width="1.025" height="1.025" fill="#ff0000" fill-opacity="1.000" />
<rect x="13.325" y="3.075" width="1.025" height="1.025" fill="#c00000" fill-opacity="1.000" />
<rect x="14.350" y="3.075" width="1.025" height="1.025" fill="#a80000" fill-opacity="1.000" />
<rect x="15.375" y="3.075" width="1.025" height="1.025" fill="#c40000" fill-opacity="1.000" />
<rect x="16.400" y="3.075" width="1.025" height="1.025" fill="#780000" fill-opacity="1.000" />
<rect x="17.425" y="3.075" width="1.025" height="1.025" fill="#c00000" fill-opacity="1.000" />
<rect x="18.450" y="3.075" width="1.025" height="1.025" fill="#8c0000" fill-opacity="1.000" />
<rect x="19.475" y="3.075" width="1.025" height="1.025" fill="#e60000" fill-opacity="1.000" />
<rect x="20.500" y="3.075" width="1.025" height="1.025" fill="#ff0000" fill-opacity="1.000" />
<rect x="21.525" y="3.075" width="1.025" height="1.025" fill="#b40000" fill-opacity="1.000" />
<rect x="22.550" y="3.075" width="1.025" height="1.025" fill="#ff0000" fill-opacity="1.000" />
<rect x="8.200" y="4.100" width="1.025" height="1.025" fill="#c20000" fill-opacity="1.000" />
<rect x="9.225" y="4.100" width="1.025" height="1.025" fill="#ff0000" fill-opacity="1.000" />
<rect x="10.250" y="4.100" width="1.025" height="1.025" fill="#e01a05" fill-opacity="1.000" />
<rect x="11.275" y="4.100" width="1.025" height="1.025" fill="#960000" fill-opacity="1.000" />
<rect x="12.300" y="4.100" width="1.025" height="1.025" fill="#680000" fill-opacity="1.000" />
<rect x="13.325" y="4.100" width="1.025" height="1.025" fill="#500000" fill-opacity="1.000" />
<rect x="14.350" y="4.100" width="1.025" height="1.025" fill="#3a0001" fill-opacity="1.000" />
<rect x="15.375" y="4.100" width="1.025" height="1.025" fill="#865300" fill-opacity="1.000" />
<rect x="16.400" y="4.100" width="1.025" height="1.025" fill="#e27c01" fill-opacity="1.000" />
<rect x="17.425" y="4.100" width="1.025" height="1.025" fill="#ffb810" fill-opacity="1.000" />
<rect x="18.450" y="4.100" width="1.025" height="1.025" fill="#e0910a" fill-opacity="1.000" />
<rect x="19.475" y="4.100" width="1.025" height="1.025" fill="#ffef32" fill-opacity="1.000" />
<rect x="20.500" y="4.100" width="1.025" height="1.025" fill="#ffe628" fill-opacity="1.000" />
<rect x="21.525" y="4.100" width="1.025" height="1.025" fill="#5b1201" fill-opacity="1.000" />
<rect x="8.200" y="5.125" width="1.025" height="1.025" fill="#ff0000" fill-opacity="1.000" />
<rect x="9.225" y="5.125" width="1.025" height="1.025" fill="#ff0000" fill-opacity="1.000" />
<rect x="10.250" y="5.125" width="1.025" height="1.025" fill="#c40000" fill-opacity="1.000" />
<rect x="11.275" y="5.125" width="1.025" height="1.025" fill="#9e0000" fill-opacity="1.000" />
<rect x="12.300" y="5.125" width="1.025" height="1.025" fill="#560001" fill-opacity="1.000" />
<rect x="13.325" y="5.125" width="1.025" height="1.025" fill="#3a0000" fill-opacity="1.000" />
<rect x="14.350" y="5.125" width="1.025" height="1.025" fill="#b66107" fill-opacity="1.000" />
<rect x="15.375" y="5.125" width="1.025" height="1.025" fill="#5b1200" fill-opacity="1.000" />
<rect x="16.400" y="5.125" width="1.025" height="1.025" fill="#3d0c00" fill-opacity="1.000" />
<rect x="17.425" y="5.125" width="1.025" height="1.025" fill="#3d0e00" fill-opacity="1.000" />
<rect x="18.450" y="5.125" width="1.025" height="1.025" fill="#462b00" fill-opacity="1.000" />
<rect x="19.475" y="5.125" width="1.025" height="1.025" fill="#ffe41f" fill-opacity="1.000" />
<rect x="20.500" y="5.125" width="1.025" height="1.025" fill="#3c0500" fill-opacity="1.000" />
<rect x="8.200" y="6.150" width="1.025" height="1.025" fill="#c00000" fill-opacity="1.000" />
<rect x="9.225" y="6.150" width="1.025" height="1.025" fill="#ff2e09" fill-opacity="1.000" />
<rect x="10.250" y="6.150" width="1.025" height="1.025" fill="#f80000" fill-opacity="1.000" />
<rect x="11.275" y="6.150" width="1.025" height="1.025" fill="#560401" fill-opacity="1.000" />
<rect x="12.300" y="6.150" width="1.025" height="1.025" fill="#330100" fill-opacity="1.000" />
<rect x="13.325" y="6.150" width="1.025" height="1.025" fill="#bc5701" fill-opacity="1.000" />
<rect x="14.350" y="6.150" width="1.025" height="1.025" fill="#3d0c00" fill-opacity="1.000" />
<rect x="15.375" y="6.150" width="1.025" height="1.025" fill="#cc7a06" fill-opacity="1.000" />
<rect x="16.400" y="6.150" width="1.025" height="1.025" fill="#ffe324" fill-opacity="1.000" />
<rect x="17.425" y="6.150" width="1.025" height="1.025" fill="#ffde1e" fill-opacity="1.000" />
<rect x="18.450" y="6.150" width="1.025" height="1.025" fill="#260001" fill-opacity="1.000" />
<rect x="19.475" y="6.150" width="1.025" height="1.025" fill="#561100" fill-opacity="1.000" />
<rect x="20.500" y="6.150" width="1.025" height="1.025" fill="#360900" fill-opacity="1.000" />
<rect x="21.525" y="6.150" width="1.025" height="1.025" fill="#8c5205" fill-opacity="1.000" />
<rect x="22.550" y="6.150" width="1.025" height="1.025" fill="#857713" fill-opacity="1.000" />
<rect x="7.175" y="7.175" width="1.025" height="1.025" fill="#9c0000" fill-opacity="1.000" />
<rect x="8.200" y="7.175" width="1.025" height="1.025" fill="#ff0000" fill-opacity="1.000" />
<rect x="9.225" y="7.175" width="1.025" height="1.025" fill="#f81f06" fill-opacity="1.000" />
<rect x="10.250" y="7.175" width="1.025" height="1.025" fill="#9e0000" fill-opacity="1.000" />
<rect x="11.275" y="7.175" width="1.025" height="1.025" fill="#320001" fill-opacity="1.000" />
<rect x="12.300" y="7.175" width="1.025" height="1.025" fill="#9c5903" fill-opacity="1.000" />
<rect x="13.325" y="7.175" width="1.025" height="1.025" fill="#561001" fill-opacity="1.000" />
<rect x="14.350" y="7.175" width="1.025" height="1.025" fill="#b67006" fill-opacity="1.000" />
<rect x="15.375" y="7.175" width="1.025" height="1.025" fill="#ffce19" fill-opacity="1.000" />
<rect x="16.400" y="7.175" width="1.025" height="1.025" fill="#ffef36" fill-opacity="1.000" />
<rect x="17.425" y="7.175" width="1.025" height="1.025" fill="#fff13d" fill-opacity="1.000" />
<rect x="18.450" y="7.175" width="1.025" height="1.025" fill="#ffdf24" fill-opacity="1.000" />
<rect x="19.475" y="7.175" width="1.025" height="1.025" fill="#8f5304" fill-opacity="1.000" />
<rect x="20.500" y="7.175" width="1.025" height="1.025" fill="#663900" fill-opacity="1.000" />
<rect x="21.525" y="7.175" width="1.025" height="1.025" fill="#ffe427" fill-opacity="1.000" />
<rect x="22.550" y="7.175" width="1.025" height="1.025" fill="#fff34b" fill-opacity="1.000" />
<rect x="23.575" y="7.175" width="1.025" height="1.025" fill="#f7e881" fill-opacity="1.000" />
<rect x="7.175" y="8.200" width="1.025" height="1.025" fill="#a20000" fill-opacity="1.000" />
<rect x="8.200" y="8.200" width="1.025" height="1.025" fill="#ff0000" fill-opacity="1.000" />
<rect x="9.225" y="8.200" width="1.025" height="1.025" fill="#ff0000" fill-opacity="1.000" />
<rect x="10.250" y="8.200" width="1.025" height="1.025" fill="#9e0000" fill-opacity="1.000" />
<rect x="11.275" y="8.200" width="1.025" height="1.025" fill="#500c00" fill-opacity="1.000" />
<rect x="12.300" y="8.200" width="1.025" height="1.025" fill="#681702" fill-opacity="1.000" />
<rect x="13.325" y="8.200" width="1.025" height="1.025" fill="#a0670b" fill-opacity="1.000" />
<rect x="14.350" y="8.200" width="1.025" height="1.025" fill="#ff9810" fill-opacity="1.000" />
<rect x="15.375" y="8.200" width="1.025" height="1.025" fill="#ffe82e" fill-opacity="1.000" />
<rect x="16.400" y="8.200" width="1.025" height="1.025" fill="#fff14b" fill-opacity="1.000" />
<rect x="17.425" y="8.200" width="1.025" height="1.025" fill="#fff66f" fill-opacity="1.000" />
<rect x="18.450" y="8.200" width="1.025" height="1.025" fill="#fff042" fill-opacity="1.000" />
<rect x="19.475" y="8.200" width="1.025" height="1.025" fill="#ffce16" fill-opacity="1.000" />
<rect x="20.500" y="8.200" width="1.025" height="1.025" fill="#ffe422" fill-opacity="1.000" />
<rect x="21.525" y="8.200" width="1.025" height="1.025" fill="#ffe828" fill-opacity="1.000" />
<rect x="22.550" y="8.200" width="1.025" height="1.025" fill="#ffe526" fill-opacity="1.000" />
<rect x="23.575" y="8.200" width="1.025" height="1.025" fill="#fa8a01" fill-opacity="1.000" />
<rect x="24.600" y="8.200" width="1.025" height="1.025" fill="#f7e24c" fill-opacity="1.000" />
<rect x="7.175" y="9.225" width="1.025" height="1.025" fill="#a20000" fill-opacity="1.000" />
<rect x="8.200" y="9.225" width="1.025" height="1.025" fill="#d80000" fill-opacity="1.000" />
<rect x="9.225" y="9.225" width="1.025" height="1.025" fill="#b20000" fill-opacity="1.000" />
<rect x="10.250" y="9.225" width="1.025" height="1.025" fill="#620b03" fill-opacity="1.000" />
<rect x="11.275" y="9.225" width="1.025" height="1.025" fill="#9c5903" fill-opacity="1.000" />
<rect x="12.300" y="9.225" width="1.025" height="1.025" fill="#b45700" fill-opacity="1.000" />
<rect x="13.325" y="9.225" width="1.025" height="1.025" fill="#e47a09" fill-opacity="1.000" />
<rect x="14.350" y="9.225" width="1.025" height="1.025" fill="#e88309" fill-opacity="1.000" />
<rect x="15.375" y="9.225" width="1.025" height="1.025" fill="#ffda1a" fill-opacity="1.000" />
<rect x="16.400" y="9.225" width="1.025" height="1.025" fill="#f89c10" fill-opacity="1.000" />
<rect x="17.425" y="9.225" width="1.025" height="1.025" fill="#ffd604" fill-opacity="1.000" />
<rect x="18.450" y="9.225" width="1.025" height="1.025" fill="#ffe916" fill-opacity="1.000" />
<rect x="19.475" y="9.225" width="1.025" height="1.025" fill="#ffee3b" fill-opacity="1.000" />
<rect x="20.500" y="9.225" width="1.025" height="1.025" fill="#ffe422" fill-opacity="1.000" />
<rect x="21.525" y="9.225" width="1.025" height="1.025" fill="#ffee3b" fill-opacity="1.000" />
<rect x="22.550" y="9.225" width="1.025" height="1.025" fill="#ffe422" fill-opacity="1.000" />
<rect x="23.575" y="9.225" width="1.025" height="1.025" fill="#ffde16" fill-opacity="1.000" />
<rect x="24.600" y="9.225" width="1.025" height="1.025" fill="#837513" fill-opacity="1.000" />
<rect x="25.625" y="9.225" width="1.025" height="1.025" fill="#faf8bb" fill-opacity="1.000" />
<rect x="7.175" y="10.250" width="1.025" height="1.025" fill="#9a0000" fill-opacity="1.000" />
<rect x="8.200" y="10.250" width="1.025" height="1.025" fill="#ff0000" fill-opacity="1.000" />
<rect x="9.225" y="10.250" width="1.025" height="1.025" fill="#e40000" fill-opacity="1.000" />
<rect x="10.250" y="10.250" width="1.025" height="1.025" fill="#460000" fill-opacity="1.000" />
<rect x="11.275" y="10.250" width="1.025" height="1.025" fill="#6e4e03" fill-opacity="1.000" />
<rect x="12.300" y="10.250" width="1.025" height="1.025" fill="#340e01" fill-opacity="1.000" />
<rect x="13.325" y="10.250" width="1.025" height="1.025" fill="#c88a03" fill-opacity="1.000" />
<rect x="14.350" y="10.250" width="1.025" height="1.025" fill="#dc8709" fill-opacity="1.000" />
<rect x="15.375" y="10.250" width="1.025" height="1.025" fill="#ffe423" fill-opacity="1.000" />
<rect x="16.400" y="10.250" width="1.025" height="1.025" fill="#cc8a10" fill-opacity="1.000" />
<rect x="17.425" y="10.250" width="1.025" height="1.025" fill="#7e4e0a" fill-opacity="1.000" />
<rect x="18.450" y="10.250" width="1.025" height="1.025" fill="#80550e" fill-opacity="1.000" />
<rect x="19.475" y="10.250" width="1.025" height="1.025" fill="#cc8a10" fill-opacity="1.000" />
<rect x="20.500" y="10.250" width="1.025" height="1.025" fill="#7e4e0a" fill-opacity="1.000" />
<rect x="21.525" y="10.250" width="1.025" height="1.025" fill="#80550e" fill-opacity="1.000" />
<rect x="22.550" y="10.250" width="1.025" height="1.025" fill="#683e0c" fill-opacity="1.000" />
<rect x="23.575" y="10.250" width="1.025" height="1.025" fill="#8c2203" fill-opacity="1.000" />
<rect x="24.600" y="10.250" width="1.025" height="1.025" fill="#7c3507" fill-opacity="1.000" />
<rect x="25.625" y="10.250" width="1.025" height="1.025" fill="#ccc52e" fill-opacity="1.000" />
<rect x="7.175" y="11.275" width="1.025" height="1.025" fill="#980000" fill-opacity="1.000" />
<rect x="8.200" y="11.275" width="1.025" height="1.025" fill="#c60000" fill-opacity="1.000" />
<rect x="9.225" y="11.275" width="1.025" height="1.025" fill="#ff0000" fill-opacity="1.000" />
<rect x="10.250" y="11.275" width="1.025" height="1.025" fill="#500401" fill-opacity="1.000" />
<rect x="11.275" y="11.275" width="1.025" height="1.025" fill="#9c5903" fill-opacity="1.000" />
<rect x="12.300" y="11.275" width="1.025" height="1.025" fill="#c88a04" fill-opacity="1.000" />
<rect x="13.325" y="11.275" width="1.025" height="1.025" fill="#631400" fill-opacity="1.000" />
<rect x="14.350" y="11.275" width="1.025" height="1.025" fill="#3d0c00" fill-opacity="1.000" />
<rect x="15.375" y="11.275" width="1.025" height="1.025" fill="#140701" fill-opacity="1.000" />
<rect x="16.400" y="11.275" width="1.025" height="1.025" fill="#ffbe21" fill-opacity="1.000" />
<rect x="17.425" y="11.275" width="1.025" height="1.025" fill="#ffda25" fill-opacity="1.000" />
<rect x="18.450" y="11.275" width="1.025" height="1.025" fill="#ffee33" fill-opacity="1.000" />
<rect x="19.475" y="11.275" width="1.025" height="1.025" fill="#ffbe21" fill-opacity="1.000" />
<rect x="20.500" y="11.275" width="1.025" height="1.025" fill="#ffda25" fill-opacity="1.000" />
<rect x="21.525" y="11.275" width="1.025" height="1.025" fill="#ffee33" fill-opacity="1.000" />
<rect x="22.550" y="11.275" width="1.025" height="1.025" fill="#ffee33" fill-opacity="1.000" />
<rect x="23.575" y="11.275" width="1.025" height="1.025" fill="#fff033" fill-opacity="1.000" />
<rect x="24.600" y="11.275" width="1.025" height="1.025" fill="#fff83c" fill-opacity="1.000" />
<rect x="25.625" y="11.275" width="1.025" height="1.025" fill="#695e13" fill-opacity="1.000" />
<rect x="8.200" y="12.300" width="1.025" height="1.025" fill="#940000" fill-opacity="1.000" />
<rect x="9.225" y="12.300" width="1.025" height="1.025" fill="#cc0000" fill-opacity="1.000" />
<rect x="10.250" y="12.300" width="1.025" height="1.025" fill="#610002" fill-opacity="1.000" />
<rect x="11.275" y="12.300" width="1.025" height="1.025" fill="#603900" fill-opacity="1.000" />
<rect x="12.300" y="12.300" width="1.025" height="1.025" fill="#b27301" fill-opacity="1.000" />
<rect x="13.325" y="12.300" width="1.025" height="1.025" fill="#3d0c00" fill-opacity="1.000" />
<rect x="14.350" y="12.300" width="1.025" height="1.025" fill="#ff9004" fill-opacity="1.000" />
<rect x="15.375" y="12.300" width="1.025" height="1.025" fill="#ffe828" fill-opacity="1.000" />
<rect x="16.400" y="12.300" width="1.025" height="1.025" fill="#481102" fill-opacity="1.000" />
<rect x="17.425" y="12.300" width="1.025" height="1.025" fill="#5d1602" fill-opacity="1.000" />
<rect x="18.450" y="12.300" width="1.025" height="1.025" fill="#5d1602" fill-opacity="1.000" />
<rect x="19.475" y="12.300" width="1.025" height="1.025" fill="#481102" fill-opacity="1.000" />
<rect x="20.500" y="12.300" width="1.025" height="1.025" fill="#481102" fill-opacity="1.000" />
<rect x="21.525" y="12.300" width="1.025" height="1.025" fill="#2a0a02" fill-opacity="1.000" />
<rect x="22.550" y="12.300" width="1.025" height="1.025" fill="#2a0a02" fill-opacity="1.000" />
<rect x="23.575" y="12.300" width="1.025" height="1.025" fill="#7c1e02" fill-opacity="1.000" />
<rect x="24.600" y="12.300" width="1.025" height="1.025" fill="#ffde19" fill-opacity="1.000" />
<rect x="25.625" y="12.300" width="1.025" height="1.025" fill="#040400" fill-opacity="1.000" />
<rect x="8.200" y="13.325" width="1.025" height="1.025" fill="#cc0000" fill-opacity="1.000" />
<rect x="9.225" y="13.325" width="1.025" height="1.025" fill="#e00000" fill-opacity="1.000" />
<rect x="11.275" y="13.325" width="1.025" height="1.025" fill="#603900" fill-opacity="1.000" />
<rect x="12.300" y="13.325" width="1.025" height="1.025" fill="#3d0c00" fill-opacity="1.000" />
<rect x="13.325" y="13.325" width="1.025" height="1.025" fill="#622c00" fill-opacity="1.000" />
<rect x="14.350" y="13.325" width="1.025" height="1.025" fill="#c66a00" fill-opacity="1.000" />
<rect x="15.375" y="13.325" width="1.025" height="1.025" fill="#2a0a02" fill-opacity="1.000" />
<rect x="24.600" y="13.325" width="1.025" height="1.025" fill="#380c00" fill-opacity="1.000" />
<rect x="9.225" y="14.350" width="1.025" height="1.025" fill="#e00000" fill-opacity="1.000" />
<rect x="11.275" y="14.350" width="1.025" height="1.025" fill="#683901" fill-opacity="1.000" />
<rect x="12.300" y="14.350" width="1.025" height="1.025" fill="#5b1301" fill-opacity="1.000" />
<rect x="13.325" y="14.350" width="1.025" height="1.025" fill="#723c00" fill-opacity="1.000" />
<rect x="14.350" y="14.350" width="1.025" height="1.025" fill="#ae6100" fill-opacity="1.000" />
<rect x="15.375" y="14.350" width="1.025" height="1.025" fill="#481102" fill-opacity="1.000" />
<rect x="11.275" y="15.375" width="1.025" height="1.025" fill="#a05503" fill-opacity="1.000" />
<rect x="12.300" y="15.375" width="1.025" height="1.025" fill="#631400" fill-opacity="1.000" />
<rect x="13.325" y="15.375" width="1.025" height="1.025" fill="#6e3500" fill-opacity="1.000" />
<rect x="14.350" y="15.375" width="1.025" height="1.025" fill="#ffae0e" fill-opacity="1.000" />
<rect x="15.375" y="15.375" width="1.025" height="1.025" fill="#5d1602" fill-opacity="1.000" />
<rect x="11.275" y="16.400" width="1.025" height="1.025" fill="#ce9110" fill-opacity="1.000" />
<rect x="12.300" y="16.400" width="1.025" height="1.025" fill="#701700" fill-opacity="1.000" />
<rect x="13.325" y="16.400" width="1.025" height="1.025" fill="#965900" fill-opacity="1.000" />
<rect x="14.350" y="16.400" width="1.025" height="1.025" fill="#ffb80e" fill-opacity="1.000" />
<rect x="15.375" y="16.400" width="1.025" height="1.025" fill="#723c00" fill-opacity="1.000" />
<rect x="10.250" y="17.425" width="1.025" height="1.025" fill="#350901" fill-opacity="1.000" />
<rect x="11.275" y="17.425" width="1.025" height="1.025" fill="#ec9e10" fill-opacity="1.000" />
<rect x="12.300" y="17.425" width="1.025" height="1.025" fill="#6d1600" fill-opacity="1.000" />
<rect x="13.325" y="17.425" width="1.025" height="1.025" fill="#864500" fill-opacity="1.000" />
<rect x="14.350" y="17.425" width="1.025" height="1.025" fill="#ffd519" fill-opacity="1.000" />
<rect x="15.375" y="17.425" width="1.025" height="1.025" fill="#6e3500" fill-opacity="1.000" />
<rect x="9.225" y="18.450" width="1.025" height="1.025" fill="#350701" fill-opacity="1.000" />
<rect x="10.250" y="18.450" width="1.025" height="1.025" fill="#804701" fill-opacity="1.000" />
<rect x="11.275" y="18.450" width="1.025" height="1.025" fill="#240700" fill-opacity="1.000" />
<rect x="12.300" y="18.450" width="1.025" height="1.025" fill="#6d1600" fill-opacity="1.000" />
<rect x="13.325" y="18.450" width="1.025" height="1.025" fill="#a86e01" fill-opacity="1.000" />
<rect x="14.350" y="18.450" width="1.025" height="1.025" fill="#ffb80e" fill-opacity="1.000" />
<rect x="15.375" y="18.450" width="1.025" height="1.025" fill="#7e4c00" fill-opacity="1.000" />
<rect x="13.325" y="19.475" width="1.025" height="1.025" fill="#380c01" fill-opacity="1.000" />
<rect x="14.350" y="19.475" width="1.025" height="1.025" fill="#a26e00" fill-opacity="1.000" />
<rect x="15.375" y="19.475" width="1.025" height="1.025" fill="#ffb80e" fill-opacity="1.000" />
<rect x="16.400" y="19.475" width="1.025" height="1.025" fill="#481102" fill-opacity="1.000" />
<rect x="14.350" y="20.500" width="1.025" height="1.025" fill="#b8600a" fill-opacity="1.000" />
<rect x="15.375" y="20.500" width="1.025" height="1.025" fill="#e68710" fill-opacity="1.000" />
<rect x="16.400" y="20.500" width="1.025" height="1.025" fill="#ffed34" fill-opacity="1.000" />
<rect x="17.425" y="20.500" width="1.025" height="1.025" fill="#f0e69a" fill-opacity="1.000" />
<rect x="14.350" y="21.525" width="1.025" height="1.025" fill="#480f01" fill-opacity="1.000" />
<rect x="15.375" y="21.525" width="1.025" height="1.025" fill="#773c0a" fill-opacity="1.000" />
<rect x="16.400" y="21.525" width="1.025" height="1.025" fill="#ce7300" fill-opacity="1.000" />
<rect x="17.425" y="21.525" width="1.025" height="1.025" fill="#985d34" fill-opacity="1.000" />
<rect x="16.400" y="22.550" width="1.025" height="1.025" fill="#653009" fill-opacity="1.000" />
<rect x="17.425" y="22.550" width="1.025" height="1.025" fill="#6c3008" fill-opacity="1.000" />
</svg>