<svg xmlns="http://www.w3.org/2000/svg" width="37.925" height="37.925" shape-rendering="crispEdges" style="image-rendering: pixelated;">
<rect x="31.775" y="1.025" width="1.025" height="1.025" fill="#fcf592" fill-opacity="1.000" />
<rect x="31.775" y="2.050" width="1.025" height="1.025" fill="#eeb509" fill-opacity="1.000" />
<rect x="30.750" y="3.075" width="1.025" height="1.025" fill="#760200" fill-opacity="1.000" />
<rect x="31.775" y="3.075" width="1.025" height="1.025" fill="#fcde0e" fill-opacity="1.000" />
<rect x="32.800" y="3.075" width="1.025" height="1.025" fill="#f3e683" fill-opacity="1.000" />
<rect x="30.750" y="4.100" width="1.025" height="1.025" fill="#b94d03" fill-opacity="1.000" />
<rect x="31.775" y="4.100" width="1.025" height="1.025" fill="#f3c804" fill-opacity="1.000" />
<rect x="32.800" y="4.100" width="1.025" height="1.025" fill="#f8dd22" fill-opacity="1.000" />
<rect x="29.725" y="5.125" width="1.025" height="1.025" fill="#690400" fill-opacity="1.000" />
<rect x="30.750" y="5.125" width="1.025" height="1.025" fill="#f6ca22" fill-opacity="1.000" />
<rect x="31.775" y="5.125" width="1.025" height="1.025" fill="#eeb509" fill-opacity="1.000" />
<rect x="32.800" y="5.125" width="1.025" height="1.025" fill="#feed04" fill-opacity="1.000" />
<rect x="33.825" y="5.125" width="1.025" height="1.025" fill="#f8df22" fill-opacity="1.000" />
<rect x="29.725" y="6.150" width="1.025" height="1.025" fill="#9d1703" fill-opacity="1.000" />
<rect x="30.750" y="6.150" width="1.025" height="1.025" fill="#fee524" fill-opacity="1.000" />
<rect x="31.775" y="6.150" width="1.025" height="1.025" fill="#f5cc05" fill-opacity="1.000" />
<rect x="32.800" y="6.150" width="1.025" height="1.025" fill="#feed04" fill-opacity="1.000" />
<rect x="33.825" y="6.150" width="1.025" height="1.025" fill="#fffb96" fill-opacity="1.000" />
<rect x="29.725" y="7.175" width="1.025" height="1.025" fill="#c6690c" fill-opacity="1.000" />
<rect x="30.750" y="7.175" width="1.025" height="1.025" fill="#fee524" fill-opacity="1.000" />
<rect x="31.775" y="7.175" width="1.025" height="1.025" fill="#f2c401" fill-opacity="1.000" />
<rect x="32.800" y="7.175" width="1.025" height="1.025" fill="#fff669" fill-opacity="1.000" />
<rect x="33.825" y="7.175" width="1.025" height="1.025" fill="#fffb96" fill-opacity="1.000" />
<rect x="29.725" y="8.200" width="1.025" height="1.025" fill="#cf7b09" fill-opacity="1.000" />
<rect x="30.750" y="8.200" width="1.025" height="1.025" fill="#fee829" fill-opacity="1.000" />
<rect x="31.775" y="8.200" width="1.025" height="1.025" fill="#ecb600" fill-opacity="1.000" />
<rect x="32.800" y="8.200" width="1.025" height="1.025" fill="#fffb97" fill-opacity="1.000" />
<rect x="33.825" y="8.200" width="1.025" height="1.025" fill="#fffb96" fill-opacity="1.000" />
<rect x="29.725" y="9.225" width="1.025" height="1.025" fill="#c66c04" fill-opacity="1.000" />
<rect x="30.750" y="9.225" width="1.025" height="1.025" fill="#fcdf08" fill-opacity="1.000" />
<rect x="31.775" y="9.225" width="1.025" height="1.025" fill="#eaad01" fill-opacity="1.000" />
<rect x="32.800" y="9.225" width="1.025" height="1.025" fill="#fef43c" fill-opacity="1.000" />
<rect x="33.825" y="9.225" width="1.025" height="1.025" fill="#fffba0" fill-opacity="1.000" />
<rect x="29.725" y="10.250" width="1.025" height="1.025" fill="#be5803" fill-opacity="1.000" />
<rect x="30.750" y="10.250" width="1.025" height="1.025" fill="#fcdb07" fill-opacity="1.000" />
<rect x="31.775" y="10.250" width="1.025" height="1.025" fill="#de8801" fill-opacity="1.000" />
<rect x="32.800" y="10.250" width="1.025" height="1.025" fill="#fde507" fill-opacity="1.000" />
<rect x="33.825" y="10.250" width="1.025" height="1.025" fill="#fffcad" fill-opacity="1.000" />
<rect x="29.725" y="11.275" width="1.025" height="1.025" fill="#f1bb00" fill-opacity="1.000" />
<rect x="30.750" y="11.275" width="1.025" height="1.025" fill="#fad504" fill-opacity="1.000" />
<rect x="31.775" y="11.275" width="1.025" height="1.025" fill="#cb6900" fill-opacity="1.000" />
<rect x="32.800" y="11.275" width="1.025" height="1.025" fill="#f6cf07" fill-opacity="1.000" />
<rect x="33.825" y="11.275" width="1.025" height="1.025" fill="#fffdba" fill-opacity="1.000" />
<rect x="29.725" y="12.300" width="1.025" height="1.025" fill="#f5c700" fill-opacity="1.000" />
<rect x="30.750" y="12.300" width="1.025" height="1.025" fill="#f9d403" fill-opacity="1.000" />
<rect x="31.775" y="12.300" width="1.025" height="1.025" fill="#b05c00" fill-opacity="1.000" />
<rect x="32.800" y="12.300" width="1.025" height="1.025" fill="#fae405" fill-opacity="1.000" />
<rect x="33.825" y="12.300" width="1.025" height="1.025" fill="#fffdc8" fill-opacity="1.000" />
<rect x="29.725" y="13.325" width="1.025" height="1.025" fill="#f4c500" fill-opacity="1.000" />
<rect x="30.750" y="13.325" width="1.025" height="1.025" fill="#fce006" fill-opacity="1.000" />
<rect x="31.775" y="13.325" width="1.025" height="1.025" fill="#995f01" fill-opacity="1.000" />
<rect x="32.800" y="13.325" width="1.025" height="1.025" fill="#fefc0a" fill-opacity="1.000" />
<rect x="33.825" y="13.325" width="1.025" height="1.025" fill="#fffed3" fill-opacity="1.000" />
<rect x="29.725" y="14.350" width="1.025" height="1.025" fill="#f2c000" fill-opacity="1.000" />
<rect x="30.750" y="14.350" width="1.025" height="1.025" fill="#f7d105" fill-opacity="1.000" />
<rect x="31.775" y="14.350" width="1.025" height="1.025" fill="#965e01" fill-opacity="1.000" />
<rect x="32.800" y="14.350" width="1.025" height="1.025" fill="#fef811" fill-opacity="1.000" />
<rect x="33.825" y="14.350" width="1.025" height="1.025" fill="#fffedb" fill-opacity="1.000" />
<rect x="29.725" y="15.375" width="1.025" height="1.025" fill="#e7b600" fill-opacity="1.000" />
<rect x="30.750" y="15.375" width="1.025" height="1.025" fill="#fde910" fill-opacity="1.000" />
<rect x="31.775" y="15.375" width="1.025" height="1.025" fill="#a85800" fill-opacity="0.969" />
<rect x="32.800" y="15.375" width="1.025" height="1.025" fill="#feed04" fill-opacity="1.000" />
<rect x="33.825" y="15.375" width="1.025" height="1.025" fill="#fffee0" fill-opacity="1.000" />
<rect x="29.725" y="16.400" width="1.025" height="1.025" fill="#d9a700" fill-opacity="1.000" />
<rect x="30.750" y="16.400" width="1.025" height="1.025" fill="#fee707" fill-opacity="1.000" />
<rect x="31.775" y="16.400" width="1.025" height="1.025" fill="#c25900" fill-opacity="0.969" />
<rect x="32.800" y="16.400" width="1.025" height="1.025" fill="#fce000" fill-opacity="1.000" />
<rect x="33.825" y="16.400" width="1.025" height="1.025" fill="#fffee1" fill-opacity="1.000" />
<rect x="29.725" y="17.425" width="1.025" height="1.025" fill="#d4a700" fill-opacity="1.000" />
<rect x="30.750" y="17.425" width="1.025" height="1.025" fill="#fde304" fill-opacity="1.000" />
<rect x="31.775" y="17.425" width="1.025" height="1.025" fill="#cd6200" fill-opacity="0.969" />
<rect x="32.800" y="17.425" width="1.025" height="1.025" fill="#fbd800" fill-opacity="1.000" />
<rect x="33.825" y="17.425" width="1.025" height="1.025" fill="#fffedf" fill-opacity="1.000" />
<rect x="29.725" y="18.450" width="1.025" height="1.025" fill="#d4a700" fill-opacity="1.000" />
<rect x="30.750" y="18.450" width="1.025" height="1.025" fill="#fce006" fill-opacity="1.000" />
<rect x="31.775" y="18.450" width="1.025" height="1.025" fill="#b62b00" fill-opacity="0.945" />
<rect x="32.800" y="18.450" width="1.025" height="1.025" fill="#f9cf00" fill-opacity="1.000" />
<rect x="33.825" y="18.450" width="1.025" height="1.025" fill="#fffed9" fill-opacity="1.000" />
<rect x="29.725" y="19.475" width="1.025" height="1.025" fill="#d5a700" fill-opacity="1.000" />
<rect x="30.750" y="19.475" width="1.025" height="1.025" fill="#f7d105" fill-opacity="1.000" />
<rect x="31.775" y="19.475" width="1.025" height="1.025" fill="#b93f00" fill-opacity="0.945" />
<rect x="32.800" y="19.475" width="1.025" height="1.025" fill="#f8c700" fill-opacity="1.000" />
<rect x="33.825" y="19.475" width="1.025" height="1.025" fill="#fffed3" fill-opacity="1.000" />
<rect x="29.725" y="20.500" width="1.025" height="1.025" fill="#d7a700" fill-opacity="1.000" />
<rect x="30.750" y="20.500" width="1.025" height="1.025" fill="#ecb201" fill-opacity="1.000" />
<rect x="31.775" y="20.500" width="1.025" height="1.025" fill="#b73900" fill-opacity="0.945" />
<rect x="32.800" y="20.500" width="1.025" height="1.025" fill="#feed04" fill-opacity="1.000" />
<rect x="33.825" y="20.500" width="1.025" height="1.025" fill="#ffffcf" fill-opacity="1.000" />
<rect x="29.725" y="21.525" width="1.025" height="1.025" fill="#c08900" fill-opacity="1.000" />
<rect x="30.750" y="21.525" width="1.025" height="1.025" fill="#edb201" fill-opacity="1.000" />
<rect x="31.775" y="21.525" width="1.025" height="1.025" fill="#b83e00" fill-opacity="1.000" />
<rect x="32.800" y="21.525" width="1.025" height="1.025" fill="#fde802" fill-opacity="1.000" />
<rect x="33.825" y="21.525" width="1.025" height="1.025" fill="#ffffce" fill-opacity="1.000" />
<rect x="29.725" y="22.550" width="1.025" height="1.025" fill="#c18900" fill-opacity="1.000" />
<rect x="30.750" y="22.550" width="1.025" height="1.025" fill="#edb300" fill-opacity="1.000" />
<rect x="31.775" y="22.550" width="1.025" height="1.025" fill="#ba4800" fill-opacity="0.945" />
<rect x="32.800" y="22.550" width="1.025" height="1.025" fill="#fcdf00" fill-opacity="1.000" />
<rect x="33.825" y="22.550" width="1.025" height="1.025" fill="#ffffca" fill-opacity="1.000" />
<rect x="29.725" y="23.575" width="1.025" height="1.025" fill="#c28900" fill-opacity="1.000" />
<rect x="30.750" y="23.575" width="1.025" height="1.025" fill="#edb800" fill-opacity="1.000" />
<rect x="31.775" y="23.575" width="1.025" height="1.025" fill="#be5700" fill-opacity="0.945" />
<rect x="32.800" y="23.575" width="1.025" height="1.025" fill="#fbdb00" fill-opacity="1.000" />
<rect x="33.825" y="23.575" width="1.025" height="1.025" fill="#ffffc7" fill-opacity="1.000" />
<rect x="29.725" y="24.600" width="1.025" height="1.025" fill="#a15600" fill-opacity="1.000" />
<rect x="30.750" y="24.600" width="1.025" height="1.025" fill="#e6a300" fill-opacity="1.000" />
<rect x="31.775" y="24.600" width="1.025" height="1.025" fill="#bb4a00" fill-opacity="0.945" />
<rect x="32.800" y="24.600" width="1.025" height="1.025" fill="#fad500" fill-opacity="1.000" />
<rect x="33.825" y="24.600" width="1.025" height="1.025" fill="#ffffbf" fill-opacity="1.000" />
<rect x="29.725" y="25.625" width="1.025" height="1.025" fill="#a15600" fill-opacity="1.000" />
<rect x="30.750" y="25.625" width="1.025" height="1.025" fill="#de8800" fill-opacity="1.000" />
<rect x="31.775" y="25.625" width="1.025" height="1.025" fill="#b42a00" fill-opacity="0.945" />
<rect x="32.800" y="25.625" width="1.025" height="1.025" fill="#f9d000" fill-opacity="1.000" />
<rect x="33.825" y="25.625" width="1.025" height="1.025" fill="#ffffb5" fill-opacity="1.000" />
<rect x="29.725" y="26.650" width="1.025" height="1.025" fill="#a55600" fill-opacity="1.000" />
<rect x="30.750" y="26.650" width="1.025" height="1.025" fill="#efb300" fill-opacity="1.000" />
<rect x="31.775" y="26.650" width="1.025" height="1.025" fill="#b12000" fill-opacity="0.945" />
<rect x="32.800" y="26.650" width="1.025" height="1.025" fill="#f9cc00" fill-opacity="1.000" />
<rect x="33.825" y="26.650" width="1.025" height="1.025" fill="#fffea7" fill-opacity="1.000" />
<rect x="29.725" y="27.675" width="1.025" height="1.025" fill="#a45600" fill-opacity="1.000" />
<rect x="30.750" y="27.675" width="1.025" height="1.025" fill="#ffdf01" fill-opacity="1.000" />
<rect x="31.775" y="27.675" width="1.025" height="1.025" fill="#b42900" fill-opacity="0.945" />
<rect x="32.800" y="27.675" width="1.025" height="1.025" fill="#f6c100" fill-opacity="1.000" />
<rect x="33.825" y="27.675" width="1.025" height="1.025" fill="#fffb93" fill-opacity="1.000" />
<rect x="29.725" y="28.700" width="1.025" height="1.025" fill="#9b5600" fill-opacity="1.000" />
<rect x="30.750" y="28.700" width="1.025" height="1.025" fill="#fcd705" fill-opacity="1.000" />
<rect x="31.775" y="28.700" width="1.025" height="1.025" fill="#b83c00" fill-opacity="0.945" />
<rect x="32.800" y="28.700" width="1.025" height="1.025" fill="#eeaf00" fill-opacity="1.000" />
<rect x="33.825" y="28.700" width="1.025" height="1.025" fill="#fff882" fill-opacity="1.000" />
<rect x="29.725" y="29.725" width="1.025" height="1.025" fill="#9b5600" fill-opacity="1.000" />
<rect x="30.750" y="29.725" width="1.025" height="1.025" fill="#f9cc03" fill-opacity="1.000" />
<rect x="31.775" y="29.725" width="1.025" height="1.025" fill="#b93e00" fill-opacity="0.945" />
<rect x="32.800" y="29.725" width="1.025" height="1.025" fill="#f4b503" fill-opacity="1.000" />
<rect x="33.825" y="29.725" width="1.025" height="1.025" fill="#fff46b" fill-opacity="1.000" />
<rect x="29.725" y="30.750" width="1.025" height="1.025" fill="#a05600" fill-opacity="1.000" />
<rect x="30.750" y="30.750" width="1.025" height="1.025" fill="#f8c80f" fill-opacity="1.000" />
<rect x="31.775" y="30.750" width="1.025" height="1.025" fill="#bb4205" fill-opacity="1.000" />
<rect x="32.800" y="30.750" width="1.025" height="1.025" fill="#ffc60c" fill-opacity="1.000" />
<rect x="33.825" y="30.750" width="1.025" height="1.025" fill="#fef057" fill-opacity="1.000" />
<rect x="29.725" y="31.775" width="1.025" height="1.025" fill="#a15600" fill-opacity="1.000" />
<rect x="30.750" y="31.775" width="1.025" height="1.025" fill="#fcd446" fill-opacity="1.000" />
<rect x="31.775" y="31.775" width="1.025" height="1.025" fill="#ba4504" fill-opacity="1.000" />
<rect x="32.800" y="31.775" width="1.025" height="1.025" fill="#ffc319" fill-opacity="1.000" />
<rect x="33.825" y="31.775" width="1.025" height="1.025" fill="#feed46" fill-opacity="1.000" />
<rect x="29.725" y="32.800" width="1.025" height="1.025" fill="#a25500" fill-opacity="1.000" />
<rect x="30.750" y="32.800" width="1.025" height="1.025" fill="#ffdf62" fill-opacity="1.000" />
<rect x="31.775" y="32.800" width="1.025" height="1.025" fill="#be5201" fill-opacity="1.000" />
<rect x="32.800" y="32.800" width="1.025" height="1.025" fill="#ffbd18" fill-opacity="1.000" />
<rect x="33.825" y="32.800" width="1.025" height="1.025" fill="#fee932" fill-opacity="1.000" />
<rect x="29.725" y="33.825" width="1.025" height="1.025" fill="#a55500" fill-opacity="1.000" />
<rect x="30.750" y="33.825" width="1.025" height="1.025" fill="#ffe257" fill-opacity="1.000" />
<rect x="31.775" y="33.825" width="1.025" height="1.025" fill="#c46100" fill-opacity="1.000" />
<rect x="32.800" y="33.825" width="1.025" height="1.025" fill="#ffbc10" fill-opacity="1.000" />
<rect x="33.825" y="33.825" width="1.025" height="1.025" fill="#fde622" fill-opacity="1.000" />
<rect x="27.675" y="34.850" width="1.025" height="1.025" fill="#862e00" fill-opacity="1.000" />
<rect x="28.700" y="34.850" width="1.025" height="1.025" fill="#af7439" fill-opacity="1.000" />
<rect x="29.725" y="34.850" width="1.025" height="1.025" fill="#f7eb95" fill-opacity="1.000" />
<rect x="30.750" y="34.850" width="1.025" height="1.025" fill="#f6cc5d" fill-opacity="1.000" />
<rect x="31.775" y="34.850" width="1.025" height="1.025" fill="#d57c00" fill-opacity="1.000" />
<rect x="32.800" y="34.850" width="1.025" height="1.025" fill="#e9ab39" fill-opacity="1.000" />
<rect x="33.825" y="34.850" width="1.025" height="1.025" fill="#ffe969" fill-opacity="1.000" />
<rect x="34.850" y="34.850" width="1.025" height="1.025" fill="#ffe82f" fill-opacity="1.000" />
<rect x="35.875" y="34.850" width="1.025" height="1.025" fill="#fde20a" fill-opacity="1.000" />
<rect x="30.750" y="35.875" width="1.025" height="1.025" fill="#640401" fill-opacity="0.969" />
<rect x="31.775" y="35.875" width="1.025" height="1.025" fill="#914001" fill-opacity="0.969" />
<rect x="32.800" y="35.875" width="1.025" height="1.025" fill="#bb7b01" fill-opacity="0.969" />
<rect x="30.750" y="36.900" width="1.025" height="1.025" fill="#630100" fill-opacity="0.949" />
<rect x="31.775" y="36.900" width="1.025" height="1.025" fill="#914211" fill-opacity="0.969" />
<rect x="32.800" y="36.900" width="1.025" height="1.025" fill="#fcd435" fill-opacity="0.949" />
</svg>