<svg xmlns="http://www.w3.org/2000/svg" width="37.925" height="37.925" shape-rendering="crispEdges" style="image-rendering: pixelated;">
<rect x="18.450" y="2.050" width="1.025" height="1.025" fill="#ffc2b9" fill-opacity="1.000" />
<rect x="19.475" y="2.050" width="1.025" height="1.025" fill="#ffe9de" fill-opacity="1.000" />
<rect x="14.350" y="3.075" width="1.025" height="1.025" fill="#c80000" fill-opacity="1.000" />
<rect x="15.375" y="3.075" width="1.025" height="1.025" fill="#c90000" fill-opacity="1.000" />
<rect x="16.400" y="3.075" width="1.025" height="1.025" fill="#cc0001" fill-opacity="1.000" />
<rect x="17.425" y="3.075" width="1.025" height="1.025" fill="#ff0604" fill-opacity="1.000" />
<rect x="18.450" y="3.075" width="1.025" height="1.025" fill="#cc0001" fill-opacity="1.000" />
<rect x="19.475" y="3.075" width="1.025" height="1.025" fill="#cc0001" fill-opacity="1.000" />
<rect x="20.500" y="3.075" width="1.025" height="1.025" fill="#cd0002" fill-opacity="1.000" />
<rect x="21.525" y="3.075" width="1.025" height="1.025" fill="#cd0000" fill-opacity="1.000" />
<rect x="22.550" y="3.075" width="1.025" height="1.025" fill="#cc0000" fill-opacity="1.000" />
<rect x="23.575" y="3.075" width="1.025" height="1.025" fill="#ff0000" fill-opacity="1.000" />
<rect x="13.325" y="4.100" width="1.025" height="1.025" fill="#c60000" fill-opacity="1.000" />
<rect x="14.350" y="4.100" width="1.025" height="1.025" fill="#c90000" fill-opacity="1.000" />
<rect x="15.375" y="4.100" width="1.025" height="1.025" fill="#cd0000" fill-opacity="1.000" />
<rect x="16.400" y="4.100" width="1.025" height="1.025" fill="#ff0000" fill-opacity="1.000" />
<rect x="17.425" y="4.100" width="1.025" height="1.025" fill="#d10000" fill-opacity="1.000" />
<rect x="18.450" y="4.100" width="1.025" height="1.025" fill="#d10000" fill-opacity="1.000" />
<rect x="19.475" y="4.100" width="1.025" height="1.025" fill="#d10000" fill-opacity="1.000" />
<rect x="20.500" y="4.100" width="1.025" height="1.025" fill="#d10000" fill-opacity="1.000" />
<rect x="21.525" y="4.100" width="1.025" height="1.025" fill="#d10000" fill-opacity="1.000" />
<rect x="22.550" y="4.100" width="1.025" height="1.025" fill="#d10000" fill-opacity="1.000" />
<rect x="23.575" y="4.100" width="1.025" height="1.025" fill="#ce0000" fill-opacity="1.000" />
<rect x="24.600" y="4.100" width="1.025" height="1.025" fill="#ef0000" fill-opacity="1.000" />
<rect x="12.300" y="5.125" width="1.025" height="1.025" fill="#c80000" fill-opacity="1.000" />
<rect x="13.325" y="5.125" width="1.025" height="1.025" fill="#c80000" fill-opacity="1.000" />
<rect x="14.350" y="5.125" width="1.025" height="1.025" fill="#c90000" fill-opacity="1.000" />
<rect x="15.375" y="5.125" width="1.025" height="1.025" fill="#ff0000" fill-opacity="1.000" />
<rect x="16.400" y="5.125" width="1.025" height="1.025" fill="#ce0000" fill-opacity="1.000" />
<rect x="17.425" y="5.125" width="1.025" height="1.025" fill="#cd0000" fill-opacity="1.000" />
<rect x="18.450" y="5.125" width="1.025" height="1.025" fill="#cb0000" fill-opacity="1.000" />
<rect x="19.475" y="5.125" width="1.025" height="1.025" fill="#ffffff" fill-opacity="1.000" />
<rect x="20.500" y="5.125" width="1.025" height="1.025" fill="#cd0000" fill-opacity="1.000" />
<rect x="21.525" y="5.125" width="1.025" height="1.025" fill="#ffffff" fill-opacity="1.000" />
<rect x="22.550" y="5.125" width="1.025" height="1.025" fill="#cc0000" fill-opacity="1.000" />
<rect x="23.575" y="5.125" width="1.025" height="1.025" fill="#cc0000" fill-opacity="1.000" />
<rect x="24.600" y="5.125" width="1.025" height="1.025" fill="#cd0000" fill-opacity="1.000" />
<rect x="25.625" y="5.125" width="1.025" height="1.025" fill="#ea0000" fill-opacity="1.000" />
<rect x="12.300" y="6.150" width="1.025" height="1.025" fill="#c90000" fill-opacity="1.000" />
<rect x="13.325" y="6.150" width="1.025" height="1.025" fill="#c90000" fill-opacity="1.000" />
<rect x="14.350" y="6.150" width="1.025" height="1.025" fill="#c90000" fill-opacity="1.000" />
<rect x="15.375" y="6.150" width="1.025" height="1.025" fill="#ff0000" fill-opacity="1.000" />
<rect x="16.400" y="6.150" width="1.025" height="1.025" fill="#ce0000" fill-opacity="1.000" />
<rect x="17.425" y="6.150" width="1.025" height="1.025" fill="#cd0000" fill-opacity="1.000" />
<rect x="18.450" y="6.150" width="1.025" height="1.025" fill="#cb0000" fill-opacity="1.000" />
<rect x="19.475" y="6.150" width="1.025" height="1.025" fill="#ffcccc" fill-opacity="1.000" />
<rect x="20.500" y="6.150" width="1.025" height="1.025" fill="#ffffff" fill-opacity="1.000" />
<rect x="21.525" y="6.150" width="1.025" height="1.025" fill="#ffcccc" fill-opacity="1.000" />
<rect x="22.550" y="6.150" width="1.025" height="1.025" fill="#ffffff" fill-opacity="1.000" />
<rect x="23.575" y="6.150" width="1.025" height="1.025" fill="#ffffff" fill-opacity="1.000" />
<rect x="24.600" y="6.150" width="1.025" height="1.025" fill="#ffffff" fill-opacity="1.000" />
<rect x="25.625" y="6.150" width="1.025" height="1.025" fill="#cd0000" fill-opacity="1.000" />
<rect x="12.300" y="7.175" width="1.025" height="1.025" fill="#c20000" fill-opacity="1.000" />
<rect x="13.325" y="7.175" width="1.025" height="1.025" fill="#c90000" fill-opacity="1.000" />
<rect x="14.350" y="7.175" width="1.025" height="1.025" fill="#c90000" fill-opacity="1.000" />
<rect x="15.375" y="7.175" width="1.025" height="1.025" fill="#ff0000" fill-opacity="1.000" />
<rect x="16.400" y="7.175" width="1.025" height="1.025" fill="#cd0000" fill-opacity="1.000" />
<rect x="17.425" y="7.175" width="1.025" height="1.025" fill="#cd0000" fill-opacity="1.000" />
<rect x="18.450" y="7.175" width="1.025" height="1.025" fill="#ca0000" fill-opacity="1.000" />
<rect x="19.475" y="7.175" width="1.025" height="1.025" fill="#ffa3a3" fill-opacity="1.000" />
<rect x="20.500" y="7.175" width="1.025" height="1.025" fill="#cd0000" fill-opacity="1.000" />
<rect x="21.525" y="7.175" width="1.025" height="1.025" fill="#ffa3a3" fill-opacity="1.000" />
<rect x="22.550" y="7.175" width="1.025" height="1.025" fill="#ca0000" fill-opacity="1.000" />
<rect x="23.575" y="7.175" width="1.025" height="1.025" fill="#ffcccc" fill-opacity="1.000" />
<rect x="24.600" y="7.175" width="1.025" height="1.025" fill="#ca0000" fill-opacity="1.000" />
<rect x="25.625" y="7.175" width="1.025" height="1.025" fill="#cc0000" fill-opacity="1.000" />
<rect x="12.300" y="8.200" width="1.025" height="1.025" fill="#b60000" fill-opacity="1.000" />
<rect x="13.325" y="8.200" width="1.025" height="1.025" fill="#c50000" fill-opacity="1.000" />
<rect x="14.350" y="8.200" width="1.025" height="1.025" fill="#c90000" fill-opacity="1.000" />
<rect x="15.375" y="8.200" width="1.025" height="1.025" fill="#f00000" fill-opacity="1.000" />
<rect x="16.400" y="8.200" width="1.025" height="1.025" fill="#ca0000" fill-opacity="1.000" />
<rect x="17.425" y="8.200" width="1.025" height="1.025" fill="#ca0000" fill-opacity="1.000" />
<rect x="18.450" y="8.200" width="1.025" height="1.025" fill="#ca0000" fill-opacity="1.000" />
<rect x="19.475" y="8.200" width="1.025" height="1.025" fill="#ca0000" fill-opacity="1.000" />
<rect x="20.500" y="8.200" width="1.025" height="1.025" fill="#ca0000" fill-opacity="1.000" />
<rect x="21.525" y="8.200" width="1.025" height="1.025" fill="#ca0000" fill-opacity="1.000" />
<rect x="22.550" y="8.200" width="1.025" height="1.025" fill="#cb0000" fill-opacity="1.000" />
<rect x="23.575" y="8.200" width="1.025" height="1.025" fill="#ffa3a3" fill-opacity="1.000" />
<rect x="24.600" y="8.200" width="1.025" height="1.025" fill="#ca0000" fill-opacity="1.000" />
<rect x="25.625" y="8.200" width="1.025" height="1.025" fill="#c90000" fill-opacity="1.000" />
<rect x="12.300" y="9.225" width="1.025" height="1.025" fill="#a70000" fill-opacity="1.000" />
<rect x="13.325" y="9.225" width="1.025" height="1.025" fill="#b90000" fill-opacity="1.000" />
<rect x="14.350" y="9.225" width="1.025" height="1.025" fill="#c80000" fill-opacity="1.000" />
<rect x="15.375" y="9.225" width="1.025" height="1.025" fill="#f00000" fill-opacity="1.000" />
<rect x="16.400" y="9.225" width="1.025" height="1.025" fill="#ca0000" fill-opacity="1.000" />
<rect x="17.425" y="9.225" width="1.025" height="1.025" fill="#ff0000" fill-opacity="1.000" />
<rect x="18.450" y="9.225" width="1.025" height="1.025" fill="#ff0000" fill-opacity="1.000" />
<rect x="19.475" y="9.225" width="1.025" height="1.025" fill="#ff0000" fill-opacity="1.000" />
<rect x="20.500" y="9.225" width="1.025" height="1.025" fill="#ff0000" fill-opacity="1.000" />
<rect x="21.525" y="9.225" width="1.025" height="1.025" fill="#ff0000" fill-opacity="1.000" />
<rect x="22.550" y="9.225" width="1.025" height="1.025" fill="#ff0000" fill-opacity="1.000" />
<rect x="23.575" y="9.225" width="1.025" height="1.025" fill="#ff0000" fill-opacity="1.000" />
<rect x="24.600" y="9.225" width="1.025" height="1.025" fill="#ff0000" fill-opacity="1.000" />
<rect x="25.625" y="9.225" width="1.025" height="1.025" fill="#ff0000" fill-opacity="1.000" />
<rect x="26.650" y="9.225" width="1.025" height="1.025" fill="#ff0000" fill-opacity="1.000" />
<rect x="12.300" y="10.250" width="1.025" height="1.025" fill="#9b0000" fill-opacity="1.000" />
<rect x="13.325" y="10.250" width="1.025" height="1.025" fill="#b20000" fill-opacity="1.000" />
<rect x="14.350" y="10.250" width="1.025" height="1.025" fill="#c50000" fill-opacity="1.000" />
<rect x="15.375" y="10.250" width="1.025" height="1.025" fill="#ef0000" fill-opacity="1.000" />
<rect x="16.400" y="10.250" width="1.025" height="1.025" fill="#ff0000" fill-opacity="1.000" />
<rect x="17.425" y="10.250" width="1.025" height="1.025" fill="#ff0000" fill-opacity="1.000" />
<rect x="18.450" y="10.250" width="1.025" height="1.025" fill="#ff0000" fill-opacity="1.000" />
<rect x="19.475" y="10.250" width="1.025" height="1.025" fill="#ff0000" fill-opacity="1.000" />
<rect x="20.500" y="10.250" width="1.025" height="1.025" fill="#ff0000" fill-opacity="1.000" />
<rect x="21.525" y="10.250" width="1.025" height="1.025" fill="#ff0000" fill-opacity="1.000" />
<rect x="22.550" y="10.250" width="1.025" height="1.025" fill="#ff0000" fill-opacity="1.000" />
<rect x="23.575" y="10.250" width="1.025" height="1.025" fill="#ff0000" fill-opacity="1.000" />
<rect x="24.600" y="10.250" width="1.025" height="1.025" fill="#ff0000" fill-opacity="1.000" />
<rect x="25.625" y="10.250" width="1.025" height="1.025" fill="#ff0000" fill-opacity="1.000" />
<rect x="26.650" y="10.250" width="1.025" height="1.025" fill="#ff0000" fill-opacity="1.000" />
<rect x="27.675" y="10.250" width="1.025" height="1.025" fill="#ff0000" fill-opacity="1.000" />
<rect x="28.700" y="10.250" width="1.025" height="1.025" fill="#ff0000" fill-opacity="1.000" />
<rect x="16.400" y="11.275" width="1.025" height="1.025" fill="#880000" fill-opacity="1.000" />
<rect x="17.425" y="11.275" width="1.025" height="1.025" fill="#e40000" fill-opacity="1.000" />
<rect x="18.450" y="11.275" width="1.025" height="1.025" fill="#ff0000" fill-opacity="1.000" />
<rect x="25.625" y="11.275" width="1.025" height="1.025" fill="#b30000" fill-opacity="1.000" />
<rect x="26.650" y="11.275" width="1.025" height="1.025" fill="#e40000" fill-opacity="1.000" />
<rect x="27.675" y="11.275" width="1.025" height="1.025" fill="#ff103a" fill-opacity="1.000" />
</svg>