<svg xmlns="http://www.w3.org/2000/svg" width="37.925" height="37.925" shape-rendering="crispEdges" style="image-rendering: pixelated;">
<rect x="17.425" y="3.075" width="1.025" height="1.025" fill="#6c3c06" fill-opacity="1.000" />
<rect x="18.450" y="3.075" width="1.025" height="1.025" fill="#a06d0a" fill-opacity="1.000" />
<rect x="19.475" y="3.075" width="1.025" height="1.025" fill="#9d6406" fill-opacity="1.000" />
<rect x="20.500" y="3.075" width="1.025" height="1.025" fill="#946b2c" fill-opacity="1.000" />
<rect x="21.525" y="3.075" width="1.025" height="1.025" fill="#5a2903" fill-opacity="1.000" />
<rect x="15.375" y="4.100" width="1.025" height="1.025" fill="#582601" fill-opacity="1.000" />
<rect x="16.400" y="4.100" width="1.025" height="1.025" fill="#542703" fill-opacity="1.000" />
<rect x="17.425" y="4.100" width="1.025" height="1.025" fill="#5d2e05" fill-opacity="1.000" />
<rect x="18.450" y="4.100" width="1.025" height="1.025" fill="#532d04" fill-opacity="1.000" />
<rect x="19.475" y="4.100" width="1.025" height="1.025" fill="#fd9c00" fill-opacity="1.000" />
<rect x="20.500" y="4.100" width="1.025" height="1.025" fill="#562601" fill-opacity="1.000" />
<rect x="21.525" y="4.100" width="1.025" height="1.025" fill="#fcb100" fill-opacity="1.000" />
<rect x="22.550" y="4.100" width="1.025" height="1.025" fill="#63360a" fill-opacity="1.000" />
<rect x="23.575" y="4.100" width="1.025" height="1.025" fill="#5b2e04" fill-opacity="1.000" />
<rect x="14.350" y="5.125" width="1.025" height="1.025" fill="#652c00" fill-opacity="1.000" />
<rect x="15.375" y="5.125" width="1.025" height="1.025" fill="#faa500" fill-opacity="1.000" />
<rect x="16.400" y="5.125" width="1.025" height="1.025" fill="#683304" fill-opacity="1.000" />
<rect x="17.425" y="5.125" width="1.025" height="1.025" fill="#673506" fill-opacity="1.000" />
<rect x="18.450" y="5.125" width="1.025" height="1.025" fill="#673405" fill-opacity="1.000" />
<rect x="19.475" y="5.125" width="1.025" height="1.025" fill="#682c01" fill-opacity="1.000" />
<rect x="20.500" y="5.125" width="1.025" height="1.025" fill="#fc9b00" fill-opacity="1.000" />
<rect x="21.525" y="5.125" width="1.025" height="1.025" fill="#683204" fill-opacity="1.000" />
<rect x="22.550" y="5.125" width="1.025" height="1.025" fill="#683504" fill-opacity="1.000" />
<rect x="23.575" y="5.125" width="1.025" height="1.025" fill="#663202" fill-opacity="1.000" />
<rect x="24.600" y="5.125" width="1.025" height="1.025" fill="#603003" fill-opacity="1.000" />
<rect x="12.300" y="6.150" width="1.025" height="1.025" fill="#652f00" fill-opacity="1.000" />
<rect x="13.325" y="6.150" width="1.025" height="1.025" fill="#643000" fill-opacity="1.000" />
<rect x="14.350" y="6.150" width="1.025" height="1.025" fill="#fcad00" fill-opacity="1.000" />
<rect x="15.375" y="6.150" width="1.025" height="1.025" fill="#673401" fill-opacity="1.000" />
<rect x="16.400" y="6.150" width="1.025" height="1.025" fill="#673707" fill-opacity="1.000" />
<rect x="17.425" y="6.150" width="1.025" height="1.025" fill="#673607" fill-opacity="1.000" />
<rect x="18.450" y="6.150" width="1.025" height="1.025" fill="#673206" fill-opacity="1.000" />
<rect x="19.475" y="6.150" width="1.025" height="1.025" fill="#fda200" fill-opacity="1.000" />
<rect x="20.500" y="6.150" width="1.025" height="1.025" fill="#682e01" fill-opacity="1.000" />
<rect x="21.525" y="6.150" width="1.025" height="1.025" fill="#fdaa00" fill-opacity="1.000" />
<rect x="22.550" y="6.150" width="1.025" height="1.025" fill="#683302" fill-opacity="1.000" />
<rect x="23.575" y="6.150" width="1.025" height="1.025" fill="#683503" fill-opacity="1.000" />
<rect x="24.600" y="6.150" width="1.025" height="1.025" fill="#673804" fill-opacity="1.000" />
<rect x="25.625" y="6.150" width="1.025" height="1.025" fill="#fdbf00" fill-opacity="1.000" />
<rect x="11.275" y="7.175" width="1.025" height="1.025" fill="#552a00" fill-opacity="1.000" />
<rect x="12.300" y="7.175" width="1.025" height="1.025" fill="#592d00" fill-opacity="1.000" />
<rect x="13.325" y="7.175" width="1.025" height="1.025" fill="#512800" fill-opacity="1.000" />
<rect x="14.350" y="7.175" width="1.025" height="1.025" fill="#fca300" fill-opacity="1.000" />
<rect x="15.375" y="7.175" width="1.025" height="1.025" fill="#683704" fill-opacity="1.000" />
<rect x="16.400" y="7.175" width="1.025" height="1.025" fill="#68390a" fill-opacity="1.000" />
<rect x="17.425" y="7.175" width="1.025" height="1.025" fill="#fdbf00" fill-opacity="1.000" />
<rect x="18.450" y="7.175" width="1.025" height="1.025" fill="#68380a" fill-opacity="1.000" />
<rect x="19.475" y="7.175" width="1.025" height="1.025" fill="#683407" fill-opacity="1.000" />
<rect x="20.500" y="7.175" width="1.025" height="1.025" fill="#683304" fill-opacity="1.000" />
<rect x="21.525" y="7.175" width="1.025" height="1.025" fill="#683809" fill-opacity="1.000" />
<rect x="22.550" y="7.175" width="1.025" height="1.025" fill="#683809" fill-opacity="1.000" />
<rect x="23.575" y="7.175" width="1.025" height="1.025" fill="#fdbe00" fill-opacity="1.000" />
<rect x="24.600" y="7.175" width="1.025" height="1.025" fill="#683907" fill-opacity="1.000" />
<rect x="25.625" y="7.175" width="1.025" height="1.025" fill="#663501" fill-opacity="1.000" />
<rect x="26.650" y="7.175" width="1.025" height="1.025" fill="#fcb500" fill-opacity="1.000" />
<rect x="11.275" y="8.200" width="1.025" height="1.025" fill="#fdba00" fill-opacity="1.000" />
<rect x="12.300" y="8.200" width="1.025" height="1.025" fill="#683800" fill-opacity="1.000" />
<rect x="13.325" y="8.200" width="1.025" height="1.025" fill="#683500" fill-opacity="1.000" />
<rect x="14.350" y="8.200" width="1.025" height="1.025" fill="#613200" fill-opacity="1.000" />
<rect x="15.375" y="8.200" width="1.025" height="1.025" fill="#683705" fill-opacity="1.000" />
<rect x="16.400" y="8.200" width="1.025" height="1.025" fill="#fdbd00" fill-opacity="1.000" />
<rect x="17.425" y="8.200" width="1.025" height="1.025" fill="#fdbe00" fill-opacity="1.000" />
<rect x="18.450" y="8.200" width="1.025" height="1.025" fill="#fdba00" fill-opacity="1.000" />
<rect x="19.475" y="8.200" width="1.025" height="1.025" fill="#683506" fill-opacity="1.000" />
<rect x="20.500" y="8.200" width="1.025" height="1.025" fill="#683504" fill-opacity="1.000" />
<rect x="21.525" y="8.200" width="1.025" height="1.025" fill="#683808" fill-opacity="1.000" />
<rect x="22.550" y="8.200" width="1.025" height="1.025" fill="#fdbd00" fill-opacity="1.000" />
<rect x="23.575" y="8.200" width="1.025" height="1.025" fill="#683908" fill-opacity="1.000" />
<rect x="24.600" y="8.200" width="1.025" height="1.025" fill="#fdba00" fill-opacity="1.000" />
<rect x="25.625" y="8.200" width="1.025" height="1.025" fill="#613100" fill-opacity="1.000" />
<rect x="26.650" y="8.200" width="1.025" height="1.025" fill="#492601" fill-opacity="1.000" />
<rect x="27.675" y="8.200" width="1.025" height="1.025" fill="#633402" fill-opacity="1.000" />
<rect x="10.250" y="9.225" width="1.025" height="1.025" fill="#5d3000" fill-opacity="1.000" />
<rect x="11.275" y="9.225" width="1.025" height="1.025" fill="#683800" fill-opacity="1.000" />
<rect x="12.300" y="9.225" width="1.025" height="1.025" fill="#653400" fill-opacity="1.000" />
<rect x="13.325" y="9.225" width="1.025" height="1.025" fill="#fdad00" fill-opacity="1.000" />
<rect x="14.350" y="9.225" width="1.025" height="1.025" fill="#562b00" fill-opacity="1.000" />
<rect x="15.375" y="9.225" width="1.025" height="1.025" fill="#633403" fill-opacity="1.000" />
<rect x="16.400" y="9.225" width="1.025" height="1.025" fill="#683705" fill-opacity="1.000" />
<rect x="17.425" y="9.225" width="1.025" height="1.025" fill="#2f1200" fill-opacity="1.000" />
<rect x="18.450" y="9.225" width="1.025" height="1.025" fill="#140601" fill-opacity="1.000" />
<rect x="19.475" y="9.225" width="1.025" height="1.025" fill="#140501" fill-opacity="1.000" />
<rect x="20.500" y="9.225" width="1.025" height="1.025" fill="#120501" fill-opacity="1.000" />
<rect x="21.525" y="9.225" width="1.025" height="1.025" fill="#120601" fill-opacity="1.000" />
<rect x="22.550" y="9.225" width="1.025" height="1.025" fill="#140601" fill-opacity="1.000" />
<rect x="23.575" y="9.225" width="1.025" height="1.025" fill="#2c1200" fill-opacity="1.000" />
<rect x="24.600" y="9.225" width="1.025" height="1.025" fill="#613304" fill-opacity="1.000" />
<rect x="25.625" y="9.225" width="1.025" height="1.025" fill="#673200" fill-opacity="1.000" />
<rect x="26.650" y="9.225" width="1.025" height="1.025" fill="#683300" fill-opacity="1.000" />
<rect x="27.675" y="9.225" width="1.025" height="1.025" fill="#603200" fill-opacity="1.000" />
<rect x="10.250" y="10.250" width="1.025" height="1.025" fill="#552b00" fill-opacity="1.000" />
<rect x="11.275" y="10.250" width="1.025" height="1.025" fill="#592f02" fill-opacity="1.000" />
<rect x="12.300" y="10.250" width="1.025" height="1.025" fill="#562a00" fill-opacity="1.000" />
<rect x="13.325" y="10.250" width="1.025" height="1.025" fill="#522700" fill-opacity="1.000" />
<rect x="14.350" y="10.250" width="1.025" height="1.025" fill="#fd9f00" fill-opacity="1.000" />
<rect x="15.375" y="10.250" width="1.025" height="1.025" fill="#0f0500" fill-opacity="1.000" />
<rect x="16.400" y="10.250" width="1.025" height="1.025" fill="#100501" fill-opacity="1.000" />
<rect x="24.600" y="10.250" width="1.025" height="1.025" fill="#0f0502" fill-opacity="1.000" />
<rect x="25.625" y="10.250" width="1.025" height="1.025" fill="#490f00" fill-opacity="1.000" />
<rect x="26.650" y="10.250" width="1.025" height="1.025" fill="#683300" fill-opacity="1.000" />
<rect x="27.675" y="10.250" width="1.025" height="1.025" fill="#5f2f00" fill-opacity="1.000" />
<rect x="28.700" y="10.250" width="1.025" height="1.025" fill="#fd8700" fill-opacity="1.000" />
<rect x="10.250" y="11.275" width="1.025" height="1.025" fill="#fdb100" fill-opacity="1.000" />
<rect x="11.275" y="11.275" width="1.025" height="1.025" fill="#683804" fill-opacity="1.000" />
<rect x="12.300" y="11.275" width="1.025" height="1.025" fill="#592601" fill-opacity="1.000" />
<rect x="13.325" y="11.275" width="1.025" height="1.025" fill="#1f0400" fill-opacity="1.000" />
<rect x="14.350" y="11.275" width="1.025" height="1.025" fill="#120500" fill-opacity="1.000" />
<rect x="15.375" y="11.275" width="1.025" height="1.025" fill="#0f0500" fill-opacity="1.000" />
<rect x="24.600" y="11.275" width="1.025" height="1.025" fill="#380f00" fill-opacity="1.000" />
<rect x="25.625" y="11.275" width="1.025" height="1.025" fill="#130501" fill-opacity="1.000" />
<rect x="26.650" y="11.275" width="1.025" height="1.025" fill="#1b0400" fill-opacity="1.000" />
<rect x="27.675" y="11.275" width="1.025" height="1.025" fill="#5f3001" fill-opacity="1.000" />
<rect x="28.700" y="11.275" width="1.025" height="1.025" fill="#5f3100" fill-opacity="1.000" />
<rect x="9.225" y="12.300" width="1.025" height="1.025" fill="#fd9f00" fill-opacity="1.000" />
<rect x="10.250" y="12.300" width="1.025" height="1.025" fill="#fdb100" fill-opacity="1.000" />
<rect x="11.275" y="12.300" width="1.025" height="1.025" fill="#fdbf00" fill-opacity="1.000" />
<rect x="12.300" y="12.300" width="1.025" height="1.025" fill="#160300" fill-opacity="1.000" />
<rect x="13.325" y="12.300" width="1.025" height="1.025" fill="#130400" fill-opacity="1.000" />
<rect x="14.350" y="12.300" width="1.025" height="1.025" fill="#140500" fill-opacity="1.000" />
<rect x="25.625" y="12.300" width="1.025" height="1.025" fill="#160602" fill-opacity="1.000" />
<rect x="26.650" y="12.300" width="1.025" height="1.025" fill="#1a0400" fill-opacity="1.000" />
<rect x="27.675" y="12.300" width="1.025" height="1.025" fill="#603302" fill-opacity="1.000" />
<rect x="28.700" y="12.300" width="1.025" height="1.025" fill="#5d2f00" fill-opacity="1.000" />
<rect x="9.225" y="13.325" width="1.025" height="1.025" fill="#5c2a00" fill-opacity="1.000" />
<rect x="10.250" y="13.325" width="1.025" height="1.025" fill="#fdb100" fill-opacity="1.000" />
<rect x="11.275" y="13.325" width="1.025" height="1.025" fill="#1e0603" fill-opacity="1.000" />
<rect x="12.300" y="13.325" width="1.025" height="1.025" fill="#0c0200" fill-opacity="1.000" />
<rect x="13.325" y="13.325" width="1.025" height="1.025" fill="#100300" fill-opacity="1.000" />
<rect x="25.625" y="13.325" width="1.025" height="1.025" fill="#2f1100" fill-opacity="1.000" />
<rect x="26.650" y="13.325" width="1.025" height="1.025" fill="#0f0300" fill-opacity="1.000" />
<rect x="27.675" y="13.325" width="1.025" height="1.025" fill="#1d0601" fill-opacity="1.000" />
<rect x="28.700" y="13.325" width="1.025" height="1.025" fill="#fd8700" fill-opacity="1.000" />
<rect x="9.225" y="14.350" width="1.025" height="1.025" fill="#5c2a00" fill-opacity="1.000" />
<rect x="10.250" y="14.350" width="1.025" height="1.025" fill="#683400" fill-opacity="1.000" />
<rect x="11.275" y="14.350" width="1.025" height="1.025" fill="#1d0604" fill-opacity="1.000" />
<rect x="12.300" y="14.350" width="1.025" height="1.025" fill="#180400" fill-opacity="1.000" />
<rect x="25.625" y="14.350" width="1.025" height="1.025" fill="#140503" fill-opacity="1.000" />
<rect x="26.650" y="14.350" width="1.025" height="1.025" fill="#0b0200" fill-opacity="1.000" />
<rect x="27.675" y="14.350" width="1.025" height="1.025" fill="#1d0602" fill-opacity="1.000" />
<rect x="28.700" y="14.350" width="1.025" height="1.025" fill="#5f3000" fill-opacity="1.000" />
<rect x="8.200" y="15.375" width="1.025" height="1.025" fill="#e77600" fill-opacity="1.000" />
<rect x="9.225" y="15.375" width="1.025" height="1.025" fill="#662e00" fill-opacity="1.000" />
<rect x="10.250" y="15.375" width="1.025" height="1.025" fill="#592d00" fill-opacity="1.000" />
<rect x="11.275" y="15.375" width="1.025" height="1.025" fill="#1a0605" fill-opacity="1.000" />
<rect x="12.300" y="15.375" width="1.025" height="1.025" fill="#070100" fill-opacity="1.000" />
<rect x="25.625" y="15.375" width="1.025" height="1.025" fill="#160604" fill-opacity="1.000" />
<rect x="26.650" y="15.375" width="1.025" height="1.025" fill="#1a0400" fill-opacity="1.000" />
<rect x="27.675" y="15.375" width="1.025" height="1.025" fill="#1e0602" fill-opacity="1.000" />
<rect x="28.700" y="15.375" width="1.025" height="1.025" fill="#683500" fill-opacity="1.000" />
<rect x="29.725" y="15.375" width="1.025" height="1.025" fill="#683c10" fill-opacity="1.000" />
<rect x="8.200" y="16.400" width="1.025" height="1.025" fill="#4d1c00" fill-opacity="1.000" />
<rect x="9.225" y="16.400" width="1.025" height="1.025" fill="#fca500" fill-opacity="1.000" />
<rect x="10.250" y="16.400" width="1.025" height="1.025" fill="#190500" fill-opacity="1.000" />
<rect x="11.275" y="16.400" width="1.025" height="1.025" fill="#100503" fill-opacity="1.000" />
<rect x="25.625" y="16.400" width="1.025" height="1.025" fill="#2f1300" fill-opacity="1.000" />
<rect x="26.650" y="16.400" width="1.025" height="1.025" fill="#0a0100" fill-opacity="1.000" />
<rect x="27.675" y="16.400" width="1.025" height="1.025" fill="#4c1200" fill-opacity="1.000" />
<rect x="28.700" y="16.400" width="1.025" height="1.025" fill="#fdb300" fill-opacity="1.000" />
<rect x="29.725" y="16.400" width="1.025" height="1.025" fill="#683c11" fill-opacity="1.000" />
<rect x="8.200" y="17.425" width="1.025" height="1.025" fill="#e67000" fill-opacity="1.000" />
<rect x="9.225" y="17.425" width="1.025" height="1.025" fill="#662f00" fill-opacity="1.000" />
<rect x="10.250" y="17.425" width="1.025" height="1.025" fill="#1b0600" fill-opacity="1.000" />
<rect x="11.275" y="17.425" width="1.025" height="1.025" fill="#130603" fill-opacity="1.000" />
<rect x="25.625" y="17.425" width="1.025" height="1.025" fill="#160603" fill-opacity="1.000" />
<rect x="26.650" y="17.425" width="1.025" height="1.025" fill="#1a0600" fill-opacity="1.000" />
<rect x="27.675" y="17.425" width="1.025" height="1.025" fill="#150501" fill-opacity="1.000" />
<rect x="28.700" y="17.425" width="1.025" height="1.025" fill="#190500" fill-opacity="1.000" />
<rect x="29.725" y="17.425" width="1.025" height="1.025" fill="#673b0d" fill-opacity="1.000" />
<rect x="8.200" y="18.450" width="1.025" height="1.025" fill="#4d1a00" fill-opacity="1.000" />
<rect x="9.225" y="18.450" width="1.025" height="1.025" fill="#672f00" fill-opacity="1.000" />
<rect x="10.250" y="18.450" width="1.025" height="1.025" fill="#1b0500" fill-opacity="1.000" />
<rect x="11.275" y="18.450" width="1.025" height="1.025" fill="#160602" fill-opacity="1.000" />
<rect x="12.300" y="18.450" width="1.025" height="1.025" fill="#1a0600" fill-opacity="1.000" />
<rect x="25.625" y="18.450" width="1.025" height="1.025" fill="#140603" fill-opacity="1.000" />
<rect x="26.650" y="18.450" width="1.025" height="1.025" fill="#0d0200" fill-opacity="1.000" />
<rect x="27.675" y="18.450" width="1.025" height="1.025" fill="#380d00" fill-opacity="1.000" />
<rect x="28.700" y="18.450" width="1.025" height="1.025" fill="#170500" fill-opacity="1.000" />
<rect x="29.725" y="18.450" width="1.025" height="1.025" fill="#fdbc00" fill-opacity="1.000" />
<rect x="8.200" y="19.475" width="1.025" height="1.025" fill="#4c1a00" fill-opacity="1.000" />
<rect x="9.225" y="19.475" width="1.025" height="1.025" fill="#4b2300" fill-opacity="1.000" />
<rect x="10.250" y="19.475" width="1.025" height="1.025" fill="#431100" fill-opacity="1.000" />
<rect x="11.275" y="19.475" width="1.025" height="1.025" fill="#160601" fill-opacity="1.000" />
<rect x="12.300" y="19.475" width="1.025" height="1.025" fill="#0e0300" fill-opacity="1.000" />
<rect x="13.325" y="19.475" width="1.025" height="1.025" fill="#120400" fill-opacity="1.000" />
<rect x="25.625" y="19.475" width="1.025" height="1.025" fill="#140502" fill-opacity="1.000" />
<rect x="26.650" y="19.475" width="1.025" height="1.025" fill="#0f0300" fill-opacity="1.000" />
<rect x="27.675" y="19.475" width="1.025" height="1.025" fill="#150501" fill-opacity="1.000" />
<rect x="28.700" y="19.475" width="1.025" height="1.025" fill="#431000" fill-opacity="1.000" />
<rect x="29.725" y="19.475" width="1.025" height="1.025" fill="#593207" fill-opacity="1.000" />
<rect x="8.200" y="20.500" width="1.025" height="1.025" fill="#df8a00" fill-opacity="1.000" />
<rect x="9.225" y="20.500" width="1.025" height="1.025" fill="#ffd600" fill-opacity="1.000" />
<rect x="10.250" y="20.500" width="1.025" height="1.025" fill="#491100" fill-opacity="1.000" />
<rect x="11.275" y="20.500" width="1.025" height="1.025" fill="#381200" fill-opacity="1.000" />
<rect x="12.300" y="20.500" width="1.025" height="1.025" fill="#110400" fill-opacity="1.000" />
<rect x="13.325" y="20.500" width="1.025" height="1.025" fill="#140400" fill-opacity="1.000" />
<rect x="24.600" y="20.500" width="1.025" height="1.025" fill="#2f1100" fill-opacity="1.000" />
<rect x="25.625" y="20.500" width="1.025" height="1.025" fill="#150501" fill-opacity="1.000" />
<rect x="26.650" y="20.500" width="1.025" height="1.025" fill="#110400" fill-opacity="1.000" />
<rect x="27.675" y="20.500" width="1.025" height="1.025" fill="#391804" fill-opacity="1.000" />
<rect x="28.700" y="20.500" width="1.025" height="1.025" fill="#0f0300" fill-opacity="1.000" />
<rect x="29.725" y="20.500" width="1.025" height="1.025" fill="#fdb700" fill-opacity="1.000" />
<rect x="8.200" y="21.525" width="1.025" height="1.025" fill="#2f0e00" fill-opacity="1.000" />
<rect x="9.225" y="21.525" width="1.025" height="1.025" fill="#482100" fill-opacity="1.000" />
<rect x="10.250" y="21.525" width="1.025" height="1.025" fill="#643300" fill-opacity="1.000" />
<rect x="11.275" y="21.525" width="1.025" height="1.025" fill="#1b0601" fill-opacity="1.000" />
<rect x="12.300" y="21.525" width="1.025" height="1.025" fill="#350f00" fill-opacity="1.000" />
<rect x="13.325" y="21.525" width="1.025" height="1.025" fill="#140500" fill-opacity="1.000" />
<rect x="24.600" y="21.525" width="1.025" height="1.025" fill="#120502" fill-opacity="1.000" />
<rect x="25.625" y="21.525" width="1.025" height="1.025" fill="#350c00" fill-opacity="1.000" />
<rect x="26.650" y="21.525" width="1.025" height="1.025" fill="#0b0300" fill-opacity="1.000" />
<rect x="27.675" y="21.525" width="1.025" height="1.025" fill="#391700" fill-opacity="1.000" />
<rect x="28.700" y="21.525" width="1.025" height="1.025" fill="#1a0500" fill-opacity="1.000" />
<rect x="29.725" y="21.525" width="1.025" height="1.025" fill="#5f3104" fill-opacity="1.000" />
<rect x="8.200" y="22.550" width="1.025" height="1.025" fill="#2e0b00" fill-opacity="1.000" />
<rect x="9.225" y="22.550" width="1.025" height="1.025" fill="#5f2900" fill-opacity="1.000" />
<rect x="10.250" y="22.550" width="1.025" height="1.025" fill="#683500" fill-opacity="1.000" />
<rect x="11.275" y="22.550" width="1.025" height="1.025" fill="#1e0600" fill-opacity="1.000" />
<rect x="12.300" y="22.550" width="1.025" height="1.025" fill="#170600" fill-opacity="1.000" />
<rect x="13.325" y="22.550" width="1.025" height="1.025" fill="#2f1100" fill-opacity="1.000" />
<rect x="24.600" y="22.550" width="1.025" height="1.025" fill="#2f1200" fill-opacity="1.000" />
<rect x="25.625" y="22.550" width="1.025" height="1.025" fill="#2f1000" fill-opacity="1.000" />
<rect x="26.650" y="22.550" width="1.025" height="1.025" fill="#2f1100" fill-opacity="1.000" />
<rect x="27.675" y="22.550" width="1.025" height="1.025" fill="#110300" fill-opacity="1.000" />
<rect x="28.700" y="22.550" width="1.025" height="1.025" fill="#673301" fill-opacity="1.000" />
<rect x="29.725" y="22.550" width="1.025" height="1.025" fill="#f39d00" fill-opacity="1.000" />
<rect x="9.225" y="23.575" width="1.025" height="1.025" fill="#542000" fill-opacity="1.000" />
<rect x="10.250" y="23.575" width="1.025" height="1.025" fill="#fdb100" fill-opacity="1.000" />
<rect x="11.275" y="23.575" width="1.025" height="1.025" fill="#683800" fill-opacity="1.000" />
<rect x="12.300" y="23.575" width="1.025" height="1.025" fill="#1f0600" fill-opacity="1.000" />
<rect x="13.325" y="23.575" width="1.025" height="1.025" fill="#140600" fill-opacity="1.000" />
<rect x="23.575" y="23.575" width="1.025" height="1.025" fill="#140602" fill-opacity="1.000" />
<rect x="24.600" y="23.575" width="1.025" height="1.025" fill="#130601" fill-opacity="1.000" />
<rect x="25.625" y="23.575" width="1.025" height="1.025" fill="#2f1000" fill-opacity="1.000" />
<rect x="26.650" y="23.575" width="1.025" height="1.025" fill="#1f0600" fill-opacity="1.000" />
<rect x="27.675" y="23.575" width="1.025" height="1.025" fill="#1d0601" fill-opacity="1.000" />
<rect x="28.700" y="23.575" width="1.025" height="1.025" fill="#663302" fill-opacity="1.000" />
<rect x="9.225" y="24.600" width="1.025" height="1.025" fill="#cd5b00" fill-opacity="1.000" />
<rect x="10.250" y="24.600" width="1.025" height="1.025" fill="#5c2900" fill-opacity="1.000" />
<rect x="11.275" y="24.600" width="1.025" height="1.025" fill="#fbaf00" fill-opacity="1.000" />
<rect x="12.300" y="24.600" width="1.025" height="1.025" fill="#683700" fill-opacity="1.000" />
<rect x="13.325" y="24.600" width="1.025" height="1.025" fill="#1e0600" fill-opacity="1.000" />
<rect x="19.475" y="24.600" width="1.025" height="1.025" fill="#170501" fill-opacity="1.000" />
<rect x="20.500" y="24.600" width="1.025" height="1.025" fill="#170501" fill-opacity="1.000" />
<rect x="21.525" y="24.600" width="1.025" height="1.025" fill="#381100" fill-opacity="1.000" />
<rect x="22.550" y="24.600" width="1.025" height="1.025" fill="#140601" fill-opacity="1.000" />
<rect x="23.575" y="24.600" width="1.025" height="1.025" fill="#2c1200" fill-opacity="1.000" />
<rect x="24.600" y="24.600" width="1.025" height="1.025" fill="#1d0602" fill-opacity="1.000" />
<rect x="25.625" y="24.600" width="1.025" height="1.025" fill="#150400" fill-opacity="1.000" />
<rect x="26.650" y="24.600" width="1.025" height="1.025" fill="#623402" fill-opacity="1.000" />
<rect x="27.675" y="24.600" width="1.025" height="1.025" fill="#fdb500" fill-opacity="1.000" />
<rect x="28.700" y="24.600" width="1.025" height="1.025" fill="#351802" fill-opacity="1.000" />
<rect x="10.250" y="25.625" width="1.025" height="1.025" fill="#ce6600" fill-opacity="1.000" />
<rect x="11.275" y="25.625" width="1.025" height="1.025" fill="#5c2700" fill-opacity="1.000" />
<rect x="12.300" y="25.625" width="1.025" height="1.025" fill="#642f00" fill-opacity="1.000" />
<rect x="13.325" y="25.625" width="1.025" height="1.025" fill="#653100" fill-opacity="1.000" />
<rect x="18.450" y="25.625" width="1.025" height="1.025" fill="#120602" fill-opacity="1.000" />
<rect x="19.475" y="25.625" width="1.025" height="1.025" fill="#120501" fill-opacity="1.000" />
<rect x="20.500" y="25.625" width="1.025" height="1.025" fill="#130501" fill-opacity="1.000" />
<rect x="21.525" y="25.625" width="1.025" height="1.025" fill="#140501" fill-opacity="1.000" />
<rect x="22.550" y="25.625" width="1.025" height="1.025" fill="#491100" fill-opacity="1.000" />
<rect x="23.575" y="25.625" width="1.025" height="1.025" fill="#1d0502" fill-opacity="1.000" />
<rect x="24.600" y="25.625" width="1.025" height="1.025" fill="#683805" fill-opacity="1.000" />
<rect x="25.625" y="25.625" width="1.025" height="1.025" fill="#fcbe00" fill-opacity="1.000" />
<rect x="26.650" y="25.625" width="1.025" height="1.025" fill="#5c3003" fill-opacity="1.000" />
<rect x="27.675" y="25.625" width="1.025" height="1.025" fill="#592e02" fill-opacity="1.000" />
<rect x="10.250" y="26.650" width="1.025" height="1.025" fill="#2e0b02" fill-opacity="1.000" />
<rect x="11.275" y="26.650" width="1.025" height="1.025" fill="#4b1900" fill-opacity="1.000" />
<rect x="12.300" y="26.650" width="1.025" height="1.025" fill="#532200" fill-opacity="1.000" />
<rect x="13.325" y="26.650" width="1.025" height="1.025" fill="#f59300" fill-opacity="1.000" />
<rect x="14.350" y="26.650" width="1.025" height="1.025" fill="#683000" fill-opacity="1.000" />
<rect x="18.450" y="26.650" width="1.025" height="1.025" fill="#2c1100" fill-opacity="1.000" />
<rect x="19.475" y="26.650" width="1.025" height="1.025" fill="#100400" fill-opacity="1.000" />
<rect x="20.500" y="26.650" width="1.025" height="1.025" fill="#490d00" fill-opacity="1.000" />
<rect x="21.525" y="26.650" width="1.025" height="1.025" fill="#1e0502" fill-opacity="1.000" />
<rect x="22.550" y="26.650" width="1.025" height="1.025" fill="#683705" fill-opacity="1.000" />
<rect x="23.575" y="26.650" width="1.025" height="1.025" fill="#572c02" fill-opacity="1.000" />
<rect x="24.600" y="26.650" width="1.025" height="1.025" fill="#653403" fill-opacity="1.000" />
<rect x="25.625" y="26.650" width="1.025" height="1.025" fill="#663704" fill-opacity="1.000" />
<rect x="26.650" y="26.650" width="1.025" height="1.025" fill="#3e1c04" fill-opacity="1.000" />
<rect x="11.275" y="27.675" width="1.025" height="1.025" fill="#340c01" fill-opacity="1.000" />
<rect x="12.300" y="27.675" width="1.025" height="1.025" fill="#bb4e00" fill-opacity="1.000" />
<rect x="13.325" y="27.675" width="1.025" height="1.025" fill="#df6b00" fill-opacity="1.000" />
<rect x="14.350" y="27.675" width="1.025" height="1.025" fill="#ea8000" fill-opacity="1.000" />
<rect x="15.375" y="27.675" width="1.025" height="1.025" fill="#502300" fill-opacity="1.000" />
<rect x="18.450" y="27.675" width="1.025" height="1.025" fill="#0e0401" fill-opacity="1.000" />
<rect x="19.475" y="27.675" width="1.025" height="1.025" fill="#470c00" fill-opacity="1.000" />
<rect x="20.500" y="27.675" width="1.025" height="1.025" fill="#582802" fill-opacity="1.000" />
<rect x="21.525" y="27.675" width="1.025" height="1.025" fill="#5d2e05" fill-opacity="1.000" />
<rect x="22.550" y="27.675" width="1.025" height="1.025" fill="#5d3106" fill-opacity="1.000" />
<rect x="23.575" y="27.675" width="1.025" height="1.025" fill="#ea8f00" fill-opacity="1.000" />
<rect x="24.600" y="27.675" width="1.025" height="1.025" fill="#4e2403" fill-opacity="1.000" />
<rect x="25.625" y="27.675" width="1.025" height="1.025" fill="#502702" fill-opacity="1.000" />
<rect x="11.275" y="28.700" width="1.025" height="1.025" fill="#2f0800" fill-opacity="1.000" />
<rect x="12.300" y="28.700" width="1.025" height="1.025" fill="#330900" fill-opacity="1.000" />
<rect x="13.325" y="28.700" width="1.025" height="1.025" fill="#c34400" fill-opacity="1.000" />
<rect x="14.350" y="28.700" width="1.025" height="1.025" fill="#471400" fill-opacity="1.000" />
<rect x="15.375" y="28.700" width="1.025" height="1.025" fill="#602c02" fill-opacity="1.000" />
<rect x="16.400" y="28.700" width="1.025" height="1.025" fill="#9f6608" fill-opacity="1.000" />
<rect x="18.450" y="28.700" width="1.025" height="1.025" fill="#936514" fill-opacity="1.000" />
<rect x="19.475" y="28.700" width="1.025" height="1.025" fill="#5f2901" fill-opacity="1.000" />
<rect x="20.500" y="28.700" width="1.025" height="1.025" fill="#391d04" fill-opacity="1.000" />
<rect x="21.525" y="28.700" width="1.025" height="1.025" fill="#3e1d04" fill-opacity="1.000" />
<rect x="22.550" y="28.700" width="1.025" height="1.025" fill="#e8c560" fill-opacity="1.000" />
<rect x="23.575" y="28.700" width="1.025" height="1.025" fill="#88673b" fill-opacity="1.000" />
<rect x="9.225" y="29.725" width="1.025" height="1.025" fill="#260900" fill-opacity="1.000" />
<rect x="10.250" y="29.725" width="1.025" height="1.025" fill="#320e00" fill-opacity="1.000" />
<rect x="11.275" y="29.725" width="1.025" height="1.025" fill="#401300" fill-opacity="1.000" />
<rect x="12.300" y="29.725" width="1.025" height="1.025" fill="#511e00" fill-opacity="1.000" />
<rect x="13.325" y="29.725" width="1.025" height="1.025" fill="#5a2501" fill-opacity="1.000" />
<rect x="14.350" y="29.725" width="1.025" height="1.025" fill="#5c2803" fill-opacity="1.000" />
<rect x="15.375" y="29.725" width="1.025" height="1.025" fill="#5b2d05" fill-opacity="1.000" />
<rect x="16.400" y="29.725" width="1.025" height="1.025" fill="#53300e" fill-opacity="1.000" />
<rect x="17.425" y="29.725" width="1.025" height="1.025" fill="#fc9d00" fill-opacity="1.000" />
<rect x="18.450" y="29.725" width="1.025" height="1.025" fill="#562501" fill-opacity="1.000" />
<rect x="19.475" y="29.725" width="1.025" height="1.025" fill="#fdc000" fill-opacity="1.000" />
<rect x="20.500" y="29.725" width="1.025" height="1.025" fill="#62350a" fill-opacity="1.000" />
<rect x="21.525" y="29.725" width="1.025" height="1.025" fill="#5a2b03" fill-opacity="1.000" />
<rect x="22.550" y="29.725" width="1.025" height="1.025" fill="#331701" fill-opacity="1.000" />
<rect x="23.575" y="29.725" width="1.025" height="1.025" fill="#391c01" fill-opacity="1.000" />
<rect x="7.175" y="30.750" width="1.025" height="1.025" fill="#230700" fill-opacity="1.000" />
<rect x="8.200" y="30.750" width="1.025" height="1.025" fill="#2a0c00" fill-opacity="1.000" />
<rect x="9.225" y="30.750" width="1.025" height="1.025" fill="#521f00" fill-opacity="1.000" />
<rect x="10.250" y="30.750" width="1.025" height="1.025" fill="#f38500" fill-opacity="1.000" />
<rect x="11.275" y="30.750" width="1.025" height="1.025" fill="#502400" fill-opacity="1.000" />
<rect x="12.300" y="30.750" width="1.025" height="1.025" fill="#532700" fill-opacity="1.000" />
<rect x="13.325" y="30.750" width="1.025" height="1.025" fill="#572a00" fill-opacity="1.000" />
<rect x="14.350" y="30.750" width="1.025" height="1.025" fill="#592e05" fill-opacity="1.000" />
<rect x="15.375" y="30.750" width="1.025" height="1.025" fill="#673506" fill-opacity="1.000" />
<rect x="16.400" y="30.750" width="1.025" height="1.025" fill="#673b11" fill-opacity="1.000" />
<rect x="17.425" y="30.750" width="1.025" height="1.025" fill="#682c01" fill-opacity="1.000" />
<rect x="18.450" y="30.750" width="1.025" height="1.025" fill="#fc9f00" fill-opacity="1.000" />
<rect x="19.475" y="30.750" width="1.025" height="1.025" fill="#683c11" fill-opacity="1.000" />
<rect x="20.500" y="30.750" width="1.025" height="1.025" fill="#673202" fill-opacity="1.000" />
<rect x="21.525" y="30.750" width="1.025" height="1.025" fill="#663201" fill-opacity="1.000" />
<rect x="22.550" y="30.750" width="1.025" height="1.025" fill="#613203" fill-opacity="1.000" />
<rect x="23.575" y="30.750" width="1.025" height="1.025" fill="#5f3505" fill-opacity="1.000" />
<rect x="24.600" y="30.750" width="1.025" height="1.025" fill="#f88f00" fill-opacity="1.000" />
<rect x="25.625" y="30.750" width="1.025" height="1.025" fill="#3c2101" fill-opacity="1.000" />
<rect x="6.150" y="31.775" width="1.025" height="1.025" fill="#1a0500" fill-opacity="1.000" />
<rect x="7.175" y="31.775" width="1.025" height="1.025" fill="#371000" fill-opacity="1.000" />
<rect x="8.200" y="31.775" width="1.025" height="1.025" fill="#602b00" fill-opacity="1.000" />
<rect x="9.225" y="31.775" width="1.025" height="1.025" fill="#653400" fill-opacity="1.000" />
<rect x="10.250" y="31.775" width="1.025" height="1.025" fill="#673500" fill-opacity="1.000" />
<rect x="11.275" y="31.775" width="1.025" height="1.025" fill="#653300" fill-opacity="1.000" />
<rect x="12.300" y="31.775" width="1.025" height="1.025" fill="#fcb300" fill-opacity="1.000" />
<rect x="13.325" y="31.775" width="1.025" height="1.025" fill="#683705" fill-opacity="1.000" />
<rect x="14.350" y="31.775" width="1.025" height="1.025" fill="#68390a" fill-opacity="1.000" />
<rect x="15.375" y="31.775" width="1.025" height="1.025" fill="#673a0a" fill-opacity="1.000" />
<rect x="16.400" y="31.775" width="1.025" height="1.025" fill="#673b0d" fill-opacity="1.000" />
<rect x="17.425" y="31.775" width="1.025" height="1.025" fill="#fdb400" fill-opacity="1.000" />
<rect x="18.450" y="31.775" width="1.025" height="1.025" fill="#683405" fill-opacity="1.000" />
<rect x="19.475" y="31.775" width="1.025" height="1.025" fill="#fdc400" fill-opacity="1.000" />
<rect x="20.500" y="31.775" width="1.025" height="1.025" fill="#68390a" fill-opacity="1.000" />
<rect x="21.525" y="31.775" width="1.025" height="1.025" fill="#683a0a" fill-opacity="1.000" />
<rect x="22.550" y="31.775" width="1.025" height="1.025" fill="#673707" fill-opacity="1.000" />
<rect x="23.575" y="31.775" width="1.025" height="1.025" fill="#fdb200" fill-opacity="1.000" />
<rect x="24.600" y="31.775" width="1.025" height="1.025" fill="#fdb900" fill-opacity="1.000" />
<rect x="25.625" y="31.775" width="1.025" height="1.025" fill="#fdb500" fill-opacity="1.000" />
<rect x="26.650" y="31.775" width="1.025" height="1.025" fill="#371b01" fill-opacity="1.000" />
<rect x="5.125" y="32.800" width="1.025" height="1.025" fill="#220800" fill-opacity="1.000" />
<rect x="6.150" y="32.800" width="1.025" height="1.025" fill="#350c00" fill-opacity="1.000" />
<rect x="7.175" y="32.800" width="1.025" height="1.025" fill="#ee8d00" fill-opacity="1.000" />
<rect x="8.200" y="32.800" width="1.025" height="1.025" fill="#663400" fill-opacity="1.000" />
<rect x="9.225" y="32.800" width="1.025" height="1.025" fill="#fdbb00" fill-opacity="1.000" />
<rect x="10.250" y="32.800" width="1.025" height="1.025" fill="#683700" fill-opacity="1.000" />
<rect x="11.275" y="32.800" width="1.025" height="1.025" fill="#663300" fill-opacity="1.000" />
<rect x="12.300" y="32.800" width="1.025" height="1.025" fill="#683400" fill-opacity="1.000" />
<rect x="13.325" y="32.800" width="1.025" height="1.025" fill="#683603" fill-opacity="1.000" />
<rect x="14.350" y="32.800" width="1.025" height="1.025" fill="#683706" fill-opacity="1.000" />
<rect x="15.375" y="32.800" width="1.025" height="1.025" fill="#fdb900" fill-opacity="1.000" />
<rect x="16.400" y="32.800" width="1.025" height="1.025" fill="#683b0a" fill-opacity="1.000" />
<rect x="17.425" y="32.800" width="1.025" height="1.025" fill="#683404" fill-opacity="1.000" />
<rect x="18.450" y="32.800" width="1.025" height="1.025" fill="#683503" fill-opacity="1.000" />
<rect x="19.475" y="32.800" width="1.025" height="1.025" fill="#683b0a" fill-opacity="1.000" />
<rect x="20.500" y="32.800" width="1.025" height="1.025" fill="#683705" fill-opacity="1.000" />
<rect x="21.525" y="32.800" width="1.025" height="1.025" fill="#fdba00" fill-opacity="1.000" />
<rect x="22.550" y="32.800" width="1.025" height="1.025" fill="#683704" fill-opacity="1.000" />
<rect x="23.575" y="32.800" width="1.025" height="1.025" fill="#663200" fill-opacity="1.000" />
<rect x="24.600" y="32.800" width="1.025" height="1.025" fill="#fdae00" fill-opacity="1.000" />
<rect x="25.625" y="32.800" width="1.025" height="1.025" fill="#683700" fill-opacity="1.000" />
<rect x="26.650" y="32.800" width="1.025" height="1.025" fill="#633101" fill-opacity="1.000" />
<rect x="27.675" y="32.800" width="1.025" height="1.025" fill="#3c1d01" fill-opacity="1.000" />
<rect x="4.100" y="33.825" width="1.025" height="1.025" fill="#170400" fill-opacity="1.000" />
<rect x="5.125" y="33.825" width="1.025" height="1.025" fill="#2f0e00" fill-opacity="1.000" />
<rect x="6.150" y="33.825" width="1.025" height="1.025" fill="#5f2c00" fill-opacity="1.000" />
<rect x="7.175" y="33.825" width="1.025" height="1.025" fill="#5a2900" fill-opacity="1.000" />
<rect x="8.200" y="33.825" width="1.025" height="1.025" fill="#fdb100" fill-opacity="1.000" />
<rect x="9.225" y="33.825" width="1.025" height="1.025" fill="#613303" fill-opacity="1.000" />
<rect x="10.250" y="33.825" width="1.025" height="1.025" fill="#452000" fill-opacity="1.000" />
<rect x="11.275" y="33.825" width="1.025" height="1.025" fill="#5f2b00" fill-opacity="1.000" />
<rect x="12.300" y="33.825" width="1.025" height="1.025" fill="#683200" fill-opacity="1.000" />
<rect x="13.325" y="33.825" width="1.025" height="1.025" fill="#683601" fill-opacity="1.000" />
<rect x="14.350" y="33.825" width="1.025" height="1.025" fill="#fdba00" fill-opacity="1.000" />
<rect x="15.375" y="33.825" width="1.025" height="1.025" fill="#fdb500" fill-opacity="1.000" />
<rect x="16.400" y="33.825" width="1.025" height="1.025" fill="#fdc000" fill-opacity="1.000" />
<rect x="17.425" y="33.825" width="1.025" height="1.025" fill="#683709" fill-opacity="1.000" />
<rect x="18.450" y="33.825" width="1.025" height="1.025" fill="#68370a" fill-opacity="1.000" />
<rect x="19.475" y="33.825" width="1.025" height="1.025" fill="#683a08" fill-opacity="1.000" />
<rect x="20.500" y="33.825" width="1.025" height="1.025" fill="#fdba00" fill-opacity="1.000" />
<rect x="21.525" y="33.825" width="1.025" height="1.025" fill="#683704" fill-opacity="1.000" />
<rect x="22.550" y="33.825" width="1.025" height="1.025" fill="#fdb800" fill-opacity="1.000" />
<rect x="23.575" y="33.825" width="1.025" height="1.025" fill="#612e01" fill-opacity="1.000" />
<rect x="24.600" y="33.825" width="1.025" height="1.025" fill="#492200" fill-opacity="1.000" />
<rect x="25.625" y="33.825" width="1.025" height="1.025" fill="#633100" fill-opacity="1.000" />
<rect x="26.650" y="33.825" width="1.025" height="1.025" fill="#fdb000" fill-opacity="1.000" />
<rect x="27.675" y="33.825" width="1.025" height="1.025" fill="#412104" fill-opacity="1.000" />
<rect x="28.700" y="33.825" width="1.025" height="1.025" fill="#412104" fill-opacity="1.000" />
<rect x="4.100" y="34.850" width="1.025" height="1.025" fill="#180500" fill-opacity="1.000" />
<rect x="5.125" y="34.850" width="1.025" height="1.025" fill="#e56700" fill-opacity="1.000" />
<rect x="6.150" y="34.850" width="1.025" height="1.025" fill="#5f2c00" fill-opacity="1.000" />
<rect x="7.175" y="34.850" width="1.025" height="1.025" fill="#fd9f00" fill-opacity="1.000" />
<rect x="8.200" y="34.850" width="1.025" height="1.025" fill="#663300" fill-opacity="1.000" />
<rect x="9.225" y="34.850" width="1.025" height="1.025" fill="#fdac00" fill-opacity="1.000" />
<rect x="10.250" y="34.850" width="1.025" height="1.025" fill="#270e00" fill-opacity="1.000" />
<rect x="11.275" y="34.850" width="1.025" height="1.025" fill="#491c00" fill-opacity="1.000" />
<rect x="12.300" y="34.850" width="1.025" height="1.025" fill="#672f00" fill-opacity="1.000" />
<rect x="13.325" y="34.850" width="1.025" height="1.025" fill="#633101" fill-opacity="1.000" />
<rect x="14.350" y="34.850" width="1.025" height="1.025" fill="#683301" fill-opacity="1.000" />
<rect x="15.375" y="34.850" width="1.025" height="1.025" fill="#fda800" fill-opacity="1.000" />
<rect x="16.400" y="34.850" width="1.025" height="1.025" fill="#683806" fill-opacity="1.000" />
<rect x="17.425" y="34.850" width="1.025" height="1.025" fill="#683002" fill-opacity="1.000" />
<rect x="18.450" y="34.850" width="1.025" height="1.025" fill="#612c02" fill-opacity="1.000" />
<rect x="19.475" y="34.850" width="1.025" height="1.025" fill="#673706" fill-opacity="1.000" />
<rect x="20.500" y="34.850" width="1.025" height="1.025" fill="#683401" fill-opacity="1.000" />
<rect x="21.525" y="34.850" width="1.025" height="1.025" fill="#fdb700" fill-opacity="1.000" />
<rect x="22.550" y="34.850" width="1.025" height="1.025" fill="#633103" fill-opacity="1.000" />
<rect x="23.575" y="34.850" width="1.025" height="1.025" fill="#542e06" fill-opacity="1.000" />
<rect x="24.600" y="34.850" width="1.025" height="1.025" fill="#140800" fill-opacity="1.000" />
<rect x="25.625" y="34.850" width="1.025" height="1.025" fill="#603302" fill-opacity="1.000" />
<rect x="26.650" y="34.850" width="1.025" height="1.025" fill="#5d2f00" fill-opacity="1.000" />
<rect x="27.675" y="34.850" width="1.025" height="1.025" fill="#fd9600" fill-opacity="1.000" />
<rect x="28.700" y="34.850" width="1.025" height="1.025" fill="#412405" fill-opacity="1.000" />
<rect x="4.100" y="35.875" width="1.025" height="1.025" fill="#180400" fill-opacity="1.000" />
<rect x="5.125" y="35.875" width="1.025" height="1.025" fill="#551c00" fill-opacity="1.000" />
<rect x="6.150" y="35.875" width="1.025" height="1.025" fill="#5c2a00" fill-opacity="1.000" />
<rect x="7.175" y="35.875" width="1.025" height="1.025" fill="#5c2a00" fill-opacity="1.000" />
<rect x="8.200" y="35.875" width="1.025" height="1.025" fill="#673300" fill-opacity="1.000" />
<rect x="9.225" y="35.875" width="1.025" height="1.025" fill="#4b2a07" fill-opacity="1.000" />
<rect x="10.250" y="35.875" width="1.025" height="1.025" fill="#000000" fill-opacity="1.000" />
<rect x="11.275" y="35.875" width="1.025" height="1.025" fill="#e15200" fill-opacity="1.000" />
<rect x="12.300" y="35.875" width="1.025" height="1.025" fill="#572400" fill-opacity="1.000" />
<rect x="13.325" y="35.875" width="1.025" height="1.025" fill="#552701" fill-opacity="1.000" />
<rect x="14.350" y="35.875" width="1.025" height="1.025" fill="#5d2801" fill-opacity="1.000" />
<rect x="15.375" y="35.875" width="1.025" height="1.025" fill="#682a01" fill-opacity="1.000" />
<rect x="16.400" y="35.875" width="1.025" height="1.025" fill="#653304" fill-opacity="1.000" />
<rect x="17.425" y="35.875" width="1.025" height="1.025" fill="#fd9400" fill-opacity="1.000" />
<rect x="18.450" y="35.875" width="1.025" height="1.025" fill="#562200" fill-opacity="1.000" />
<rect x="19.475" y="35.875" width="1.025" height="1.025" fill="#fdae00" fill-opacity="1.000" />
<rect x="20.500" y="35.875" width="1.025" height="1.025" fill="#683000" fill-opacity="1.000" />
<rect x="21.525" y="35.875" width="1.025" height="1.025" fill="#683200" fill-opacity="1.000" />
<rect x="22.550" y="35.875" width="1.025" height="1.025" fill="#572600" fill-opacity="1.000" />
<rect x="23.575" y="35.875" width="1.025" height="1.025" fill="#fda100" fill-opacity="1.000" />
<rect x="24.600" y="35.875" width="1.025" height="1.025" fill="#130600" fill-opacity="1.000" />
<rect x="25.625" y="35.875" width="1.025" height="1.025" fill="#5f3603" fill-opacity="1.000" />
<rect x="26.650" y="35.875" width="1.025" height="1.025" fill="#fd8700" fill-opacity="1.000" />
<rect x="27.675" y="35.875" width="1.025" height="1.025" fill="#482807" fill-opacity="1.000" />
<rect x="28.700" y="35.875" width="1.025" height="1.025" fill="#412407" fill-opacity="1.000" />
<rect x="4.100" y="36.900" width="1.025" height="1.025" fill="#150200" fill-opacity="1.000" />
<rect x="5.125" y="36.900" width="1.025" height="1.025" fill="#e77500" fill-opacity="1.000" />
<rect x="6.150" y="36.900" width="1.025" height="1.025" fill="#5c2a00" fill-opacity="1.000" />
<rect x="7.175" y="36.900" width="1.025" height="1.025" fill="#5c2a00" fill-opacity="1.000" />
<rect x="8.200" y="36.900" width="1.025" height="1.025" fill="#4b2600" fill-opacity="1.000" />
<rect x="9.225" y="36.900" width="1.025" height="1.025" fill="#673b11" fill-opacity="1.000" />
<rect x="10.250" y="36.900" width="1.025" height="1.025" fill="#000000" fill-opacity="1.000" />
<rect x="11.275" y="36.900" width="1.025" height="1.025" fill="#290a00" fill-opacity="1.000" />
<rect x="12.300" y="36.900" width="1.025" height="1.025" fill="#f38000" fill-opacity="1.000" />
<rect x="13.325" y="36.900" width="1.025" height="1.025" fill="#512001" fill-opacity="1.000" />
<rect x="14.350" y="36.900" width="1.025" height="1.025" fill="#531f00" fill-opacity="1.000" />
<rect x="15.375" y="36.900" width="1.025" height="1.025" fill="#572000" fill-opacity="1.000" />
<rect x="16.400" y="36.900" width="1.025" height="1.025" fill="#532702" fill-opacity="1.000" />
<rect x="17.425" y="36.900" width="1.025" height="1.025" fill="#511e00" fill-opacity="1.000" />
<rect x="18.450" y="36.900" width="1.025" height="1.025" fill="#fb8200" fill-opacity="1.000" />
<rect x="19.475" y="36.900" width="1.025" height="1.025" fill="#522702" fill-opacity="1.000" />
<rect x="20.500" y="36.900" width="1.025" height="1.025" fill="#5e2a00" fill-opacity="1.000" />
<rect x="21.525" y="36.900" width="1.025" height="1.025" fill="#5f2a00" fill-opacity="1.000" />
<rect x="22.550" y="36.900" width="1.025" height="1.025" fill="#fa8500" fill-opacity="1.000" />
<rect x="23.575" y="36.900" width="1.025" height="1.025" fill="#402509" fill-opacity="1.000" />
<rect x="24.600" y="36.900" width="1.025" height="1.025" fill="#030100" fill-opacity="1.000" />
<rect x="25.625" y="36.900" width="1.025" height="1.025" fill="#5f3605" fill-opacity="1.000" />
<rect x="26.650" y="36.900" width="1.025" height="1.025" fill="#5f3000" fill-opacity="1.000" />
<rect x="27.675" y="36.900" width="1.025" height="1.025" fill="#41250b" fill-opacity="1.000" />
<rect x="28.700" y="36.900" width="1.025" height="1.025" fill="#41250b" fill-opacity="1.000" />
</svg>