<svg xmlns="http://www.w3.org/2000/svg" width="37.925" height="37.925" shape-rendering="crispEdges" style="image-rendering: pixelated;">
<rect x="12.300" y="27.675" width="1.025" height="1.025" fill="#b30008" fill-opacity="1.000" />
<rect x="19.475" y="27.675" width="1.025" height="1.025" fill="#c20006" fill-opacity="1.000" />
<rect x="11.275" y="28.700" width="1.025" height="1.025" fill="#b60006" fill-opacity="1.000" />
<rect x="12.300" y="28.700" width="1.025" height="1.025" fill="#cf0009" fill-opacity="1.000" />
<rect x="13.325" y="28.700" width="1.025" height="1.025" fill="#bf000c" fill-opacity="1.000" />
<rect x="14.350" y="28.700" width="1.025" height="1.025" fill="#e2231a" fill-opacity="0.753" />
<rect x="15.375" y="28.700" width="1.025" height="1.025" fill="#d1040e" fill-opacity="0.929" />
<rect x="16.400" y="28.700" width="1.025" height="1.025" fill="#e11d14" fill-opacity="0.753" />
<rect x="17.425" y="28.700" width="1.025" height="1.025" fill="#de160c" fill-opacity="0.753" />
<rect x="18.450" y="28.700" width="1.025" height="1.025" fill="#ea100f" fill-opacity="0.835" />
<rect x="19.475" y="28.700" width="1.025" height="1.025" fill="#cf0009" fill-opacity="1.000" />
<rect x="20.500" y="28.700" width="1.025" height="1.025" fill="#ae0005" fill-opacity="1.000" />
<rect x="21.525" y="28.700" width="1.025" height="1.025" fill="#b90008" fill-opacity="1.000" />
<rect x="9.225" y="29.725" width="1.025" height="1.025" fill="#ffcccc" fill-opacity="1.000" />
<rect x="10.250" y="29.725" width="1.025" height="1.025" fill="#b60006" fill-opacity="1.000" />
<rect x="11.275" y="29.725" width="1.025" height="1.025" fill="#ca0006" fill-opacity="1.000" />
<rect x="12.300" y="29.725" width="1.025" height="1.025" fill="#ffcccc" fill-opacity="1.000" />
<rect x="13.325" y="29.725" width="1.025" height="1.025" fill="#cd0005" fill-opacity="1.000" />
<rect x="14.350" y="29.725" width="1.025" height="1.025" fill="#c6000a" fill-opacity="1.000" />
<rect x="15.375" y="29.725" width="1.025" height="1.025" fill="#cc0006" fill-opacity="1.000" />
<rect x="16.400" y="29.725" width="1.025" height="1.025" fill="#c40006" fill-opacity="1.000" />
<rect x="17.425" y="29.725" width="1.025" height="1.025" fill="#ffcccc" fill-opacity="1.000" />
<rect x="18.450" y="29.725" width="1.025" height="1.025" fill="#c6000a" fill-opacity="1.000" />
<rect x="19.475" y="29.725" width="1.025" height="1.025" fill="#ffcccc" fill-opacity="1.000" />
<rect x="20.500" y="29.725" width="1.025" height="1.025" fill="#d10009" fill-opacity="1.000" />
<rect x="21.525" y="29.725" width="1.025" height="1.025" fill="#cd0005" fill-opacity="1.000" />
<rect x="22.550" y="29.725" width="1.025" height="1.025" fill="#ac000b" fill-opacity="1.000" />
<rect x="23.575" y="29.725" width="1.025" height="1.025" fill="#b00005" fill-opacity="1.000" />
<rect x="7.175" y="30.750" width="1.025" height="1.025" fill="#b60006" fill-opacity="1.000" />
<rect x="8.200" y="30.750" width="1.025" height="1.025" fill="#bb0008" fill-opacity="1.000" />
<rect x="9.225" y="30.750" width="1.025" height="1.025" fill="#d20007" fill-opacity="1.000" />
<rect x="10.250" y="30.750" width="1.025" height="1.025" fill="#d30008" fill-opacity="1.000" />
<rect x="11.275" y="30.750" width="1.025" height="1.025" fill="#ffcccc" fill-opacity="1.000" />
<rect x="12.300" y="30.750" width="1.025" height="1.025" fill="#d60007" fill-opacity="1.000" />
<rect x="13.325" y="30.750" width="1.025" height="1.025" fill="#ffffff" fill-opacity="1.000" />
<rect x="14.350" y="30.750" width="1.025" height="1.025" fill="#d60007" fill-opacity="1.000" />
<rect x="15.375" y="30.750" width="1.025" height="1.025" fill="#d50006" fill-opacity="1.000" />
<rect x="16.400" y="30.750" width="1.025" height="1.025" fill="#d50008" fill-opacity="1.000" />
<rect x="17.425" y="30.750" width="1.025" height="1.025" fill="#d60007" fill-opacity="1.000" />
<rect x="18.450" y="30.750" width="1.025" height="1.025" fill="#ffffff" fill-opacity="1.000" />
<rect x="19.475" y="30.750" width="1.025" height="1.025" fill="#d60007" fill-opacity="1.000" />
<rect x="20.500" y="30.750" width="1.025" height="1.025" fill="#d60007" fill-opacity="1.000" />
<rect x="21.525" y="30.750" width="1.025" height="1.025" fill="#d50008" fill-opacity="1.000" />
<rect x="22.550" y="30.750" width="1.025" height="1.025" fill="#d10009" fill-opacity="1.000" />
<rect x="23.575" y="30.750" width="1.025" height="1.025" fill="#ce0006" fill-opacity="1.000" />
<rect x="24.600" y="30.750" width="1.025" height="1.025" fill="#ffcccc" fill-opacity="1.000" />
<rect x="25.625" y="30.750" width="1.025" height="1.025" fill="#b00005" fill-opacity="1.000" />
<rect x="6.150" y="31.775" width="1.025" height="1.025" fill="#b70008" fill-opacity="1.000" />
<rect x="7.175" y="31.775" width="1.025" height="1.025" fill="#c20006" fill-opacity="1.000" />
<rect x="8.200" y="31.775" width="1.025" height="1.025" fill="#d50008" fill-opacity="1.000" />
<rect x="9.225" y="31.775" width="1.025" height="1.025" fill="#d60007" fill-opacity="1.000" />
<rect x="10.250" y="31.775" width="1.025" height="1.025" fill="#d60007" fill-opacity="1.000" />
<rect x="11.275" y="31.775" width="1.025" height="1.025" fill="#d50008" fill-opacity="1.000" />
<rect x="12.300" y="31.775" width="1.025" height="1.025" fill="#ffffff" fill-opacity="1.000" />
<rect x="13.325" y="31.775" width="1.025" height="1.025" fill="#d60007" fill-opacity="1.000" />
<rect x="14.350" y="31.775" width="1.025" height="1.025" fill="#d60007" fill-opacity="1.000" />
<rect x="15.375" y="31.775" width="1.025" height="1.025" fill="#d50006" fill-opacity="1.000" />
<rect x="16.400" y="31.775" width="1.025" height="1.025" fill="#d50008" fill-opacity="1.000" />
<rect x="17.425" y="31.775" width="1.025" height="1.025" fill="#ffffff" fill-opacity="1.000" />
<rect x="18.450" y="31.775" width="1.025" height="1.025" fill="#d60007" fill-opacity="1.000" />
<rect x="19.475" y="31.775" width="1.025" height="1.025" fill="#ffffff" fill-opacity="1.000" />
<rect x="20.500" y="31.775" width="1.025" height="1.025" fill="#d60007" fill-opacity="1.000" />
<rect x="21.525" y="31.775" width="1.025" height="1.025" fill="#d60007" fill-opacity="1.000" />
<rect x="22.550" y="31.775" width="1.025" height="1.025" fill="#d50008" fill-opacity="1.000" />
<rect x="23.575" y="31.775" width="1.025" height="1.025" fill="#ffffff" fill-opacity="1.000" />
<rect x="24.600" y="31.775" width="1.025" height="1.025" fill="#ffffff" fill-opacity="1.000" />
<rect x="25.625" y="31.775" width="1.025" height="1.025" fill="#ffffff" fill-opacity="1.000" />
<rect x="26.650" y="31.775" width="1.025" height="1.025" fill="#ad0008" fill-opacity="1.000" />
<rect x="5.125" y="32.800" width="1.025" height="1.025" fill="#b2000a" fill-opacity="1.000" />
<rect x="6.150" y="32.800" width="1.025" height="1.025" fill="#c20006" fill-opacity="1.000" />
<rect x="7.175" y="32.800" width="1.025" height="1.025" fill="#ffffff" fill-opacity="1.000" />
<rect x="8.200" y="32.800" width="1.025" height="1.025" fill="#d50008" fill-opacity="1.000" />
<rect x="9.225" y="32.800" width="1.025" height="1.025" fill="#ffcccc" fill-opacity="1.000" />
<rect x="10.250" y="32.800" width="1.025" height="1.025" fill="#d60007" fill-opacity="1.000" />
<rect x="11.275" y="32.800" width="1.025" height="1.025" fill="#d50008" fill-opacity="1.000" />
<rect x="12.300" y="32.800" width="1.025" height="1.025" fill="#d60007" fill-opacity="1.000" />
<rect x="13.325" y="32.800" width="1.025" height="1.025" fill="#d60007" fill-opacity="1.000" />
<rect x="14.350" y="32.800" width="1.025" height="1.025" fill="#d60007" fill-opacity="1.000" />
<rect x="15.375" y="32.800" width="1.025" height="1.025" fill="#ffffff" fill-opacity="1.000" />
<rect x="16.400" y="32.800" width="1.025" height="1.025" fill="#d60007" fill-opacity="1.000" />
<rect x="17.425" y="32.800" width="1.025" height="1.025" fill="#d60007" fill-opacity="1.000" />
<rect x="18.450" y="32.800" width="1.025" height="1.025" fill="#d60007" fill-opacity="1.000" />
<rect x="19.475" y="32.800" width="1.025" height="1.025" fill="#d60007" fill-opacity="1.000" />
<rect x="20.500" y="32.800" width="1.025" height="1.025" fill="#d60007" fill-opacity="1.000" />
<rect x="21.525" y="32.800" width="1.025" height="1.025" fill="#ffffff" fill-opacity="1.000" />
<rect x="22.550" y="32.800" width="1.025" height="1.025" fill="#d60007" fill-opacity="1.000" />
<rect x="23.575" y="32.800" width="1.025" height="1.025" fill="#d50008" fill-opacity="1.000" />
<rect x="24.600" y="32.800" width="1.025" height="1.025" fill="#ffffff" fill-opacity="1.000" />
<rect x="25.625" y="32.800" width="1.025" height="1.025" fill="#d60007" fill-opacity="1.000" />
<rect x="26.650" y="32.800" width="1.025" height="1.025" fill="#d10009" fill-opacity="1.000" />
<rect x="27.675" y="32.800" width="1.025" height="1.025" fill="#b00005" fill-opacity="1.000" />
<rect x="5.125" y="33.825" width="1.025" height="1.025" fill="#b60006" fill-opacity="1.000" />
<rect x="6.150" y="33.825" width="1.025" height="1.025" fill="#d00006" fill-opacity="1.000" />
<rect x="7.175" y="33.825" width="1.025" height="1.025" fill="#cb0009" fill-opacity="1.000" />
<rect x="8.200" y="33.825" width="1.025" height="1.025" fill="#ffffff" fill-opacity="1.000" />
<rect x="9.225" y="33.825" width="1.025" height="1.025" fill="#d00006" fill-opacity="1.000" />
<rect x="10.250" y="33.825" width="1.025" height="1.025" fill="#bd0008" fill-opacity="1.000" />
<rect x="11.275" y="33.825" width="1.025" height="1.025" fill="#ce0006" fill-opacity="1.000" />
<rect x="12.300" y="33.825" width="1.025" height="1.025" fill="#d60007" fill-opacity="1.000" />
<rect x="13.325" y="33.825" width="1.025" height="1.025" fill="#d60007" fill-opacity="1.000" />
<rect x="14.350" y="33.825" width="1.025" height="1.025" fill="#ffffff" fill-opacity="1.000" />
<rect x="15.375" y="33.825" width="1.025" height="1.025" fill="#ffcccc" fill-opacity="1.000" />
<rect x="16.400" y="33.825" width="1.025" height="1.025" fill="#ffffff" fill-opacity="1.000" />
<rect x="17.425" y="33.825" width="1.025" height="1.025" fill="#d60007" fill-opacity="1.000" />
<rect x="18.450" y="33.825" width="1.025" height="1.025" fill="#d60007" fill-opacity="1.000" />
<rect x="19.475" y="33.825" width="1.025" height="1.025" fill="#d60007" fill-opacity="1.000" />
<rect x="20.500" y="33.825" width="1.025" height="1.025" fill="#ffffff" fill-opacity="1.000" />
<rect x="21.525" y="33.825" width="1.025" height="1.025" fill="#d60007" fill-opacity="1.000" />
<rect x="22.550" y="33.825" width="1.025" height="1.025" fill="#ffffff" fill-opacity="1.000" />
<rect x="23.575" y="33.825" width="1.025" height="1.025" fill="#d00006" fill-opacity="1.000" />
<rect x="24.600" y="33.825" width="1.025" height="1.025" fill="#bb0008" fill-opacity="1.000" />
<rect x="25.625" y="33.825" width="1.025" height="1.025" fill="#d10009" fill-opacity="1.000" />
<rect x="26.650" y="33.825" width="1.025" height="1.025" fill="#ffffff" fill-opacity="1.000" />
<rect x="27.675" y="33.825" width="1.025" height="1.025" fill="#b30008" fill-opacity="1.000" />
<rect x="5.125" y="34.850" width="1.025" height="1.025" fill="#ffffff" fill-opacity="1.000" />
<rect x="6.150" y="34.850" width="1.025" height="1.025" fill="#ce0006" fill-opacity="1.000" />
<rect x="7.175" y="34.850" width="1.025" height="1.025" fill="#ffffff" fill-opacity="1.000" />
<rect x="8.200" y="34.850" width="1.025" height="1.025" fill="#d50008" fill-opacity="1.000" />
<rect x="9.225" y="34.850" width="1.025" height="1.025" fill="#ffffff" fill-opacity="1.000" />
<rect x="10.250" y="34.850" width="1.025" height="1.025" fill="#a80005" fill-opacity="1.000" />
<rect x="11.275" y="34.850" width="1.025" height="1.025" fill="#bf0008" fill-opacity="1.000" />
<rect x="12.300" y="34.850" width="1.025" height="1.025" fill="#d50008" fill-opacity="1.000" />
<rect x="13.325" y="34.850" width="1.025" height="1.025" fill="#d10009" fill-opacity="1.000" />
<rect x="14.350" y="34.850" width="1.025" height="1.025" fill="#d60007" fill-opacity="1.000" />
<rect x="15.375" y="34.850" width="1.025" height="1.025" fill="#ffffff" fill-opacity="1.000" />
<rect x="16.400" y="34.850" width="1.025" height="1.025" fill="#d60007" fill-opacity="1.000" />
<rect x="17.425" y="34.850" width="1.025" height="1.025" fill="#d60007" fill-opacity="1.000" />
<rect x="18.450" y="34.850" width="1.025" height="1.025" fill="#d00006" fill-opacity="1.000" />
<rect x="19.475" y="34.850" width="1.025" height="1.025" fill="#d50008" fill-opacity="1.000" />
<rect x="20.500" y="34.850" width="1.025" height="1.025" fill="#d60007" fill-opacity="1.000" />
<rect x="21.525" y="34.850" width="1.025" height="1.025" fill="#ffffff" fill-opacity="1.000" />
<rect x="22.550" y="34.850" width="1.025" height="1.025" fill="#d10009" fill-opacity="1.000" />
<rect x="23.575" y="34.850" width="1.025" height="1.025" fill="#c50008" fill-opacity="1.000" />
<rect x="24.600" y="34.850" width="1.025" height="1.025" fill="#8f0000" fill-opacity="1.000" />
<rect x="25.625" y="34.850" width="1.025" height="1.025" fill="#cf0009" fill-opacity="1.000" />
<rect x="26.650" y="34.850" width="1.025" height="1.025" fill="#cc000a" fill-opacity="1.000" />
<rect x="27.675" y="34.850" width="1.025" height="1.025" fill="#ffffff" fill-opacity="1.000" />
<rect x="5.125" y="35.875" width="1.025" height="1.025" fill="#be000a" fill-opacity="1.000" />
<rect x="6.150" y="35.875" width="1.025" height="1.025" fill="#ac0005" fill-opacity="1.000" />
<rect x="7.175" y="35.875" width="1.025" height="1.025" fill="#c10008" fill-opacity="1.000" />
<rect x="8.200" y="35.875" width="1.025" height="1.025" fill="#b10008" fill-opacity="1.000" />
<rect x="9.225" y="35.875" width="1.025" height="1.025" fill="#bc0006" fill-opacity="1.000" />
<rect x="10.250" y="35.875" width="1.025" height="1.025" fill="#a80005" fill-opacity="1.000" />
<rect x="11.275" y="35.875" width="1.025" height="1.025" fill="#ffffff" fill-opacity="1.000" />
<rect x="12.300" y="35.875" width="1.025" height="1.025" fill="#c90009" fill-opacity="1.000" />
<rect x="13.325" y="35.875" width="1.025" height="1.025" fill="#c6000a" fill-opacity="1.000" />
<rect x="14.350" y="35.875" width="1.025" height="1.025" fill="#cc0006" fill-opacity="1.000" />
<rect x="15.375" y="35.875" width="1.025" height="1.025" fill="#d60007" fill-opacity="1.000" />
<rect x="16.400" y="35.875" width="1.025" height="1.025" fill="#d4000a" fill-opacity="1.000" />
<rect x="17.425" y="35.875" width="1.025" height="1.025" fill="#ffffff" fill-opacity="1.000" />
<rect x="18.450" y="35.875" width="1.025" height="1.025" fill="#c60006" fill-opacity="1.000" />
<rect x="19.475" y="35.875" width="1.025" height="1.025" fill="#ffffff" fill-opacity="1.000" />
<rect x="20.500" y="35.875" width="1.025" height="1.025" fill="#d60007" fill-opacity="1.000" />
<rect x="21.525" y="35.875" width="1.025" height="1.025" fill="#d60007" fill-opacity="1.000" />
<rect x="22.550" y="35.875" width="1.025" height="1.025" fill="#c80006" fill-opacity="1.000" />
<rect x="23.575" y="35.875" width="1.025" height="1.025" fill="#ffffff" fill-opacity="1.000" />
<rect x="24.600" y="35.875" width="1.025" height="1.025" fill="#960005" fill-opacity="1.000" />
<rect x="25.625" y="35.875" width="1.025" height="1.025" fill="#b60006" fill-opacity="1.000" />
<rect x="26.650" y="35.875" width="1.025" height="1.025" fill="#ffffff" fill-opacity="1.000" />
<rect x="27.675" y="35.875" width="1.025" height="1.025" fill="#b90008" fill-opacity="1.000" />
<rect x="10.250" y="36.900" width="1.025" height="1.025" fill="#c53f00" fill-opacity="1.000" />
<rect x="11.275" y="36.900" width="1.025" height="1.025" fill="#ad0008" fill-opacity="1.000" />
<rect x="12.300" y="36.900" width="1.025" height="1.025" fill="#ffffff" fill-opacity="1.000" />
<rect x="13.325" y="36.900" width="1.025" height="1.025" fill="#c50008" fill-opacity="1.000" />
<rect x="14.350" y="36.900" width="1.025" height="1.025" fill="#c6000a" fill-opacity="1.000" />
<rect x="15.375" y="36.900" width="1.025" height="1.025" fill="#c90009" fill-opacity="1.000" />
<rect x="16.400" y="36.900" width="1.025" height="1.025" fill="#c90005" fill-opacity="1.000" />
<rect x="17.425" y="36.900" width="1.025" height="1.025" fill="#c20006" fill-opacity="1.000" />
<rect x="18.450" y="36.900" width="1.025" height="1.025" fill="#ffffff" fill-opacity="1.000" />
<rect x="19.475" y="36.900" width="1.025" height="1.025" fill="#c90005" fill-opacity="1.000" />
<rect x="20.500" y="36.900" width="1.025" height="1.025" fill="#ce0006" fill-opacity="1.000" />
<rect x="21.525" y="36.900" width="1.025" height="1.025" fill="#cd0005" fill-opacity="1.000" />
<rect x="22.550" y="36.900" width="1.025" height="1.025" fill="#ffffff" fill-opacity="1.000" />
<rect x="23.575" y="36.900" width="1.025" height="1.025" fill="#b30008" fill-opacity="1.000" />
<rect x="24.600" y="36.900" width="1.025" height="1.025" fill="#800004" fill-opacity="1.000" />
</svg>