<svg xmlns="http://www.w3.org/2000/svg" width="37.925" height="37.925" shape-rendering="crispEdges" style="image-rendering: pixelated;">
<rect x="12.300" y="27.675" width="1.025" height="1.025" fill="#41250a" fill-opacity="1.000" />
<rect x="19.475" y="27.675" width="1.025" height="1.025" fill="#522f0d" fill-opacity="1.000" />
<rect x="11.275" y="28.700" width="1.025" height="1.025" fill="#44270b" fill-opacity="1.000" />
<rect x="12.300" y="28.700" width="1.025" height="1.025" fill="#603710" fill-opacity="1.000" />
<rect x="13.325" y="28.700" width="1.025" height="1.025" fill="#4d2c0d" fill-opacity="1.000" />
<rect x="14.350" y="28.700" width="1.025" height="1.025" fill="#8a6337" fill-opacity="0.753" />
<rect x="15.375" y="28.700" width="1.025" height="1.025" fill="#633d1a" fill-opacity="0.929" />
<rect x="16.400" y="28.700" width="1.025" height="1.025" fill="#855f34" fill-opacity="0.753" />
<rect x="17.425" y="28.700" width="1.025" height="1.025" fill="#7d5930" fill-opacity="0.753" />
<rect x="18.450" y="28.700" width="1.025" height="1.025" fill="#7f5932" fill-opacity="0.835" />
<rect x="19.475" y="28.700" width="1.025" height="1.025" fill="#61370f" fill-opacity="1.000" />
<rect x="20.500" y="28.700" width="1.025" height="1.025" fill="#3a220a" fill-opacity="1.000" />
<rect x="21.525" y="28.700" width="1.025" height="1.025" fill="#47290c" fill-opacity="1.000" />
<rect x="9.225" y="29.725" width="1.025" height="1.025" fill="#4b2b0c" fill-opacity="1.000" />
<rect x="10.250" y="29.725" width="1.025" height="1.025" fill="#45280b" fill-opacity="1.000" />
<rect x="11.275" y="29.725" width="1.025" height="1.025" fill="#5b340f" fill-opacity="1.000" />
<rect x="12.300" y="29.725" width="1.025" height="1.025" fill="#fbae00" fill-opacity="1.000" />
<rect x="13.325" y="29.725" width="1.025" height="1.025" fill="#5f370f" fill-opacity="1.000" />
<rect x="14.350" y="29.725" width="1.025" height="1.025" fill="#55310e" fill-opacity="1.000" />
<rect x="15.375" y="29.725" width="1.025" height="1.025" fill="#5d360f" fill-opacity="1.000" />
<rect x="16.400" y="29.725" width="1.025" height="1.025" fill="#53300e" fill-opacity="1.000" />
<rect x="17.425" y="29.725" width="1.025" height="1.025" fill="#fbb200" fill-opacity="1.000" />
<rect x="18.450" y="29.725" width="1.025" height="1.025" fill="#56310e" fill-opacity="1.000" />
<rect x="19.475" y="29.725" width="1.025" height="1.025" fill="#fbb100" fill-opacity="1.000" />
<rect x="20.500" y="29.725" width="1.025" height="1.025" fill="#633910" fill-opacity="1.000" />
<rect x="21.525" y="29.725" width="1.025" height="1.025" fill="#5f370f" fill-opacity="1.000" />
<rect x="22.550" y="29.725" width="1.025" height="1.025" fill="#382009" fill-opacity="1.000" />
<rect x="23.575" y="29.725" width="1.025" height="1.025" fill="#3c230a" fill-opacity="1.000" />
<rect x="7.175" y="30.750" width="1.025" height="1.025" fill="#44270b" fill-opacity="1.000" />
<rect x="8.200" y="30.750" width="1.025" height="1.025" fill="#492a0c" fill-opacity="1.000" />
<rect x="9.225" y="30.750" width="1.025" height="1.025" fill="#643a10" fill-opacity="1.000" />
<rect x="10.250" y="30.750" width="1.025" height="1.025" fill="#653a10" fill-opacity="1.000" />
<rect x="11.275" y="30.750" width="1.025" height="1.025" fill="#fbb100" fill-opacity="1.000" />
<rect x="12.300" y="30.750" width="1.025" height="1.025" fill="#683c11" fill-opacity="1.000" />
<rect x="13.325" y="30.750" width="1.025" height="1.025" fill="#fbb700" fill-opacity="1.000" />
<rect x="14.350" y="30.750" width="1.025" height="1.025" fill="#683c11" fill-opacity="1.000" />
<rect x="15.375" y="30.750" width="1.025" height="1.025" fill="#673c11" fill-opacity="1.000" />
<rect x="16.400" y="30.750" width="1.025" height="1.025" fill="#673b11" fill-opacity="1.000" />
<rect x="17.425" y="30.750" width="1.025" height="1.025" fill="#683c11" fill-opacity="1.000" />
<rect x="18.450" y="30.750" width="1.025" height="1.025" fill="#fbb600" fill-opacity="1.000" />
<rect x="19.475" y="30.750" width="1.025" height="1.025" fill="#683c11" fill-opacity="1.000" />
<rect x="20.500" y="30.750" width="1.025" height="1.025" fill="#683c11" fill-opacity="1.000" />
<rect x="21.525" y="30.750" width="1.025" height="1.025" fill="#673b11" fill-opacity="1.000" />
<rect x="22.550" y="30.750" width="1.025" height="1.025" fill="#633910" fill-opacity="1.000" />
<rect x="23.575" y="30.750" width="1.025" height="1.025" fill="#5f3710" fill-opacity="1.000" />
<rect x="24.600" y="30.750" width="1.025" height="1.025" fill="#fb8a00" fill-opacity="1.000" />
<rect x="25.625" y="30.750" width="1.025" height="1.025" fill="#3c230a" fill-opacity="1.000" />
<rect x="6.150" y="31.775" width="1.025" height="1.025" fill="#46280b" fill-opacity="1.000" />
<rect x="7.175" y="31.775" width="1.025" height="1.025" fill="#512f0d" fill-opacity="1.000" />
<rect x="8.200" y="31.775" width="1.025" height="1.025" fill="#673b11" fill-opacity="1.000" />
<rect x="9.225" y="31.775" width="1.025" height="1.025" fill="#683c11" fill-opacity="1.000" />
<rect x="10.250" y="31.775" width="1.025" height="1.025" fill="#683c11" fill-opacity="1.000" />
<rect x="11.275" y="31.775" width="1.025" height="1.025" fill="#663b11" fill-opacity="1.000" />
<rect x="12.300" y="31.775" width="1.025" height="1.025" fill="#fbb700" fill-opacity="1.000" />
<rect x="13.325" y="31.775" width="1.025" height="1.025" fill="#683c11" fill-opacity="1.000" />
<rect x="14.350" y="31.775" width="1.025" height="1.025" fill="#683c11" fill-opacity="1.000" />
<rect x="15.375" y="31.775" width="1.025" height="1.025" fill="#673c11" fill-opacity="1.000" />
<rect x="16.400" y="31.775" width="1.025" height="1.025" fill="#673b11" fill-opacity="1.000" />
<rect x="17.425" y="31.775" width="1.025" height="1.025" fill="#fbb700" fill-opacity="1.000" />
<rect x="18.450" y="31.775" width="1.025" height="1.025" fill="#683c11" fill-opacity="1.000" />
<rect x="19.475" y="31.775" width="1.025" height="1.025" fill="#fbb700" fill-opacity="1.000" />
<rect x="20.500" y="31.775" width="1.025" height="1.025" fill="#683c11" fill-opacity="1.000" />
<rect x="21.525" y="31.775" width="1.025" height="1.025" fill="#683c11" fill-opacity="1.000" />
<rect x="22.550" y="31.775" width="1.025" height="1.025" fill="#673b11" fill-opacity="1.000" />
<rect x="23.575" y="31.775" width="1.025" height="1.025" fill="#fbb400" fill-opacity="1.000" />
<rect x="24.600" y="31.775" width="1.025" height="1.025" fill="#fbb700" fill-opacity="1.000" />
<rect x="25.625" y="31.775" width="1.025" height="1.025" fill="#fbb200" fill-opacity="1.000" />
<rect x="26.650" y="31.775" width="1.025" height="1.025" fill="#3a2109" fill-opacity="1.000" />
<rect x="5.125" y="32.800" width="1.025" height="1.025" fill="#3f240a" fill-opacity="1.000" />
<rect x="6.150" y="32.800" width="1.025" height="1.025" fill="#613810" fill-opacity="1.000" />
<rect x="7.175" y="32.800" width="1.025" height="1.025" fill="#fbaf00" fill-opacity="1.000" />
<rect x="8.200" y="32.800" width="1.025" height="1.025" fill="#663b11" fill-opacity="1.000" />
<rect x="9.225" y="32.800" width="1.025" height="1.025" fill="#fbb700" fill-opacity="1.000" />
<rect x="10.250" y="32.800" width="1.025" height="1.025" fill="#683c11" fill-opacity="1.000" />
<rect x="11.275" y="32.800" width="1.025" height="1.025" fill="#663b11" fill-opacity="1.000" />
<rect x="12.300" y="32.800" width="1.025" height="1.025" fill="#683c11" fill-opacity="1.000" />
<rect x="13.325" y="32.800" width="1.025" height="1.025" fill="#683c11" fill-opacity="1.000" />
<rect x="14.350" y="32.800" width="1.025" height="1.025" fill="#683c11" fill-opacity="1.000" />
<rect x="15.375" y="32.800" width="1.025" height="1.025" fill="#fbb700" fill-opacity="1.000" />
<rect x="16.400" y="32.800" width="1.025" height="1.025" fill="#683c11" fill-opacity="1.000" />
<rect x="17.425" y="32.800" width="1.025" height="1.025" fill="#683c11" fill-opacity="1.000" />
<rect x="18.450" y="32.800" width="1.025" height="1.025" fill="#683c11" fill-opacity="1.000" />
<rect x="19.475" y="32.800" width="1.025" height="1.025" fill="#683c11" fill-opacity="1.000" />
<rect x="20.500" y="32.800" width="1.025" height="1.025" fill="#683c11" fill-opacity="1.000" />
<rect x="21.525" y="32.800" width="1.025" height="1.025" fill="#fbb700" fill-opacity="1.000" />
<rect x="22.550" y="32.800" width="1.025" height="1.025" fill="#683c11" fill-opacity="1.000" />
<rect x="23.575" y="32.800" width="1.025" height="1.025" fill="#663b11" fill-opacity="1.000" />
<rect x="24.600" y="32.800" width="1.025" height="1.025" fill="#fbb400" fill-opacity="1.000" />
<rect x="25.625" y="32.800" width="1.025" height="1.025" fill="#683c11" fill-opacity="1.000" />
<rect x="26.650" y="32.800" width="1.025" height="1.025" fill="#633910" fill-opacity="1.000" />
<rect x="27.675" y="32.800" width="1.025" height="1.025" fill="#3c230a" fill-opacity="1.000" />
<rect x="5.125" y="33.825" width="1.025" height="1.025" fill="#44270b" fill-opacity="1.000" />
<rect x="6.150" y="33.825" width="1.025" height="1.025" fill="#613810" fill-opacity="1.000" />
<rect x="7.175" y="33.825" width="1.025" height="1.025" fill="#5c350f" fill-opacity="1.000" />
<rect x="8.200" y="33.825" width="1.025" height="1.025" fill="#fbb700" fill-opacity="1.000" />
<rect x="9.225" y="33.825" width="1.025" height="1.025" fill="#613810" fill-opacity="1.000" />
<rect x="10.250" y="33.825" width="1.025" height="1.025" fill="#4c2c0c" fill-opacity="1.000" />
<rect x="11.275" y="33.825" width="1.025" height="1.025" fill="#5f3710" fill-opacity="1.000" />
<rect x="12.300" y="33.825" width="1.025" height="1.025" fill="#683c11" fill-opacity="1.000" />
<rect x="13.325" y="33.825" width="1.025" height="1.025" fill="#683c11" fill-opacity="1.000" />
<rect x="14.350" y="33.825" width="1.025" height="1.025" fill="#fbb700" fill-opacity="1.000" />
<rect x="15.375" y="33.825" width="1.025" height="1.025" fill="#fbb700" fill-opacity="1.000" />
<rect x="16.400" y="33.825" width="1.025" height="1.025" fill="#fbb700" fill-opacity="1.000" />
<rect x="17.425" y="33.825" width="1.025" height="1.025" fill="#683c11" fill-opacity="1.000" />
<rect x="18.450" y="33.825" width="1.025" height="1.025" fill="#683c11" fill-opacity="1.000" />
<rect x="19.475" y="33.825" width="1.025" height="1.025" fill="#683c11" fill-opacity="1.000" />
<rect x="20.500" y="33.825" width="1.025" height="1.025" fill="#fbb700" fill-opacity="1.000" />
<rect x="21.525" y="33.825" width="1.025" height="1.025" fill="#683c11" fill-opacity="1.000" />
<rect x="22.550" y="33.825" width="1.025" height="1.025" fill="#fbb700" fill-opacity="1.000" />
<rect x="23.575" y="33.825" width="1.025" height="1.025" fill="#613810" fill-opacity="1.000" />
<rect x="24.600" y="33.825" width="1.025" height="1.025" fill="#492a0c" fill-opacity="1.000" />
<rect x="25.625" y="33.825" width="1.025" height="1.025" fill="#633910" fill-opacity="1.000" />
<rect x="26.650" y="33.825" width="1.025" height="1.025" fill="#fbb200" fill-opacity="1.000" />
<rect x="27.675" y="33.825" width="1.025" height="1.025" fill="#41250b" fill-opacity="1.000" />
<rect x="5.125" y="34.850" width="1.025" height="1.025" fill="#fb9800" fill-opacity="1.000" />
<rect x="6.150" y="34.850" width="1.025" height="1.025" fill="#5f3710" fill-opacity="1.000" />
<rect x="7.175" y="34.850" width="1.025" height="1.025" fill="#fbac00" fill-opacity="1.000" />
<rect x="8.200" y="34.850" width="1.025" height="1.025" fill="#663b11" fill-opacity="1.000" />
<rect x="9.225" y="34.850" width="1.025" height="1.025" fill="#fba000" fill-opacity="1.000" />
<rect x="10.250" y="34.850" width="1.025" height="1.025" fill="#341e08" fill-opacity="1.000" />
<rect x="11.275" y="34.850" width="1.025" height="1.025" fill="#4d2d0d" fill-opacity="1.000" />
<rect x="12.300" y="34.850" width="1.025" height="1.025" fill="#673b11" fill-opacity="1.000" />
<rect x="13.325" y="34.850" width="1.025" height="1.025" fill="#633910" fill-opacity="1.000" />
<rect x="14.350" y="34.850" width="1.025" height="1.025" fill="#683c11" fill-opacity="1.000" />
<rect x="15.375" y="34.850" width="1.025" height="1.025" fill="#fbb700" fill-opacity="1.000" />
<rect x="16.400" y="34.850" width="1.025" height="1.025" fill="#683c11" fill-opacity="1.000" />
<rect x="17.425" y="34.850" width="1.025" height="1.025" fill="#683c11" fill-opacity="1.000" />
<rect x="18.450" y="34.850" width="1.025" height="1.025" fill="#613810" fill-opacity="1.000" />
<rect x="19.475" y="34.850" width="1.025" height="1.025" fill="#673b11" fill-opacity="1.000" />
<rect x="20.500" y="34.850" width="1.025" height="1.025" fill="#683c11" fill-opacity="1.000" />
<rect x="21.525" y="34.850" width="1.025" height="1.025" fill="#fbb700" fill-opacity="1.000" />
<rect x="22.550" y="34.850" width="1.025" height="1.025" fill="#633910" fill-opacity="1.000" />
<rect x="23.575" y="34.850" width="1.025" height="1.025" fill="#54300e" fill-opacity="1.000" />
<rect x="24.600" y="34.850" width="1.025" height="1.025" fill="#180e04" fill-opacity="1.000" />
<rect x="25.625" y="34.850" width="1.025" height="1.025" fill="#603710" fill-opacity="1.000" />
<rect x="26.650" y="34.850" width="1.025" height="1.025" fill="#5d350f" fill-opacity="1.000" />
<rect x="27.675" y="34.850" width="1.025" height="1.025" fill="#fb8400" fill-opacity="1.000" />
<rect x="5.125" y="35.875" width="1.025" height="1.025" fill="#4e2c0c" fill-opacity="1.000" />
<rect x="6.150" y="35.875" width="1.025" height="1.025" fill="#392109" fill-opacity="1.000" />
<rect x="7.175" y="35.875" width="1.025" height="1.025" fill="#502e0d" fill-opacity="1.000" />
<rect x="8.200" y="35.875" width="1.025" height="1.025" fill="#3e240a" fill-opacity="1.000" />
<rect x="9.225" y="35.875" width="1.025" height="1.025" fill="#4b2b0c" fill-opacity="1.000" />
<rect x="10.250" y="35.875" width="1.025" height="1.025" fill="#000000" fill-opacity="1.000" />
<rect x="11.275" y="35.875" width="1.025" height="1.025" fill="#fb8a00" fill-opacity="1.000" />
<rect x="12.300" y="35.875" width="1.025" height="1.025" fill="#59330e" fill-opacity="1.000" />
<rect x="13.325" y="35.875" width="1.025" height="1.025" fill="#55310e" fill-opacity="1.000" />
<rect x="14.350" y="35.875" width="1.025" height="1.025" fill="#5d360f" fill-opacity="1.000" />
<rect x="15.375" y="35.875" width="1.025" height="1.025" fill="#683c11" fill-opacity="1.000" />
<rect x="16.400" y="35.875" width="1.025" height="1.025" fill="#653a11" fill-opacity="1.000" />
<rect x="17.425" y="35.875" width="1.025" height="1.025" fill="#fbb400" fill-opacity="1.000" />
<rect x="18.450" y="35.875" width="1.025" height="1.025" fill="#56320e" fill-opacity="1.000" />
<rect x="19.475" y="35.875" width="1.025" height="1.025" fill="#fbaf00" fill-opacity="1.000" />
<rect x="20.500" y="35.875" width="1.025" height="1.025" fill="#683c11" fill-opacity="1.000" />
<rect x="21.525" y="35.875" width="1.025" height="1.025" fill="#683c11" fill-opacity="1.000" />
<rect x="22.550" y="35.875" width="1.025" height="1.025" fill="#58330e" fill-opacity="1.000" />
<rect x="23.575" y="35.875" width="1.025" height="1.025" fill="#fb9900" fill-opacity="1.000" />
<rect x="24.600" y="35.875" width="1.025" height="1.025" fill="#1f1205" fill-opacity="1.000" />
<rect x="25.625" y="35.875" width="1.025" height="1.025" fill="#45280b" fill-opacity="1.000" />
<rect x="26.650" y="35.875" width="1.025" height="1.025" fill="#fb7d00" fill-opacity="1.000" />
<rect x="27.675" y="35.875" width="1.025" height="1.025" fill="#48290b" fill-opacity="1.000" />
<rect x="10.250" y="36.900" width="1.025" height="1.025" fill="#625400" fill-opacity="1.000" />
<rect x="11.275" y="36.900" width="1.025" height="1.025" fill="#3a2109" fill-opacity="1.000" />
<rect x="12.300" y="36.900" width="1.025" height="1.025" fill="#fb9900" fill-opacity="1.000" />
<rect x="13.325" y="36.900" width="1.025" height="1.025" fill="#54300e" fill-opacity="1.000" />
<rect x="14.350" y="36.900" width="1.025" height="1.025" fill="#55310e" fill-opacity="1.000" />
<rect x="15.375" y="36.900" width="1.025" height="1.025" fill="#59330e" fill-opacity="1.000" />
<rect x="16.400" y="36.900" width="1.025" height="1.025" fill="#5a340f" fill-opacity="1.000" />
<rect x="17.425" y="36.900" width="1.025" height="1.025" fill="#522f0d" fill-opacity="1.000" />
<rect x="18.450" y="36.900" width="1.025" height="1.025" fill="#fba200" fill-opacity="1.000" />
<rect x="19.475" y="36.900" width="1.025" height="1.025" fill="#59340f" fill-opacity="1.000" />
<rect x="20.500" y="36.900" width="1.025" height="1.025" fill="#5f3710" fill-opacity="1.000" />
<rect x="21.525" y="36.900" width="1.025" height="1.025" fill="#5f370f" fill-opacity="1.000" />
<rect x="22.550" y="36.900" width="1.025" height="1.025" fill="#fba800" fill-opacity="1.000" />
<rect x="23.575" y="36.900" width="1.025" height="1.025" fill="#40250a" fill-opacity="1.000" />
<rect x="24.600" y="36.900" width="1.025" height="1.025" fill="#060401" fill-opacity="1.000" />
</svg>