<svg xmlns="http://www.w3.org/2000/svg" width="37.925" height="37.925" shape-rendering="crispEdges" style="image-rendering: pixelated;">
<rect x="16.400" y="12.300" width="1.025" height="1.025" fill="#ffff00" fill-opacity="1.000" />
<rect x="17.425" y="12.300" width="1.025" height="1.025" fill="#ffed00" fill-opacity="1.000" />
<rect x="18.450" y="12.300" width="1.025" height="1.025" fill="#fff67d" fill-opacity="1.000" />
<rect x="15.375" y="13.325" width="1.025" height="1.025" fill="#ffff00" fill-opacity="1.000" />
<rect x="16.400" y="13.325" width="1.025" height="1.025" fill="#08ff00" fill-opacity="1.000" />
<rect x="17.425" y="13.325" width="1.025" height="1.025" fill="#08ff00" fill-opacity="0.498" />
<rect x="18.450" y="13.325" width="1.025" height="1.025" fill="#08ff00" fill-opacity="0.498" />
<rect x="19.475" y="13.325" width="1.025" height="1.025" fill="#ffed00" fill-opacity="1.000" />
<rect x="15.375" y="14.350" width="1.025" height="1.025" fill="#ffff7d" fill-opacity="1.000" />
<rect x="16.400" y="14.350" width="1.025" height="1.025" fill="#08ff00" fill-opacity="1.000" />
<rect x="17.425" y="14.350" width="1.025" height="1.025" fill="#08ff00" fill-opacity="0.498" />
<rect x="18.450" y="14.350" width="1.025" height="1.025" fill="#08ff00" fill-opacity="0.498" />
<rect x="19.475" y="14.350" width="1.025" height="1.025" fill="#ffed00" fill-opacity="1.000" />
<rect x="15.375" y="15.375" width="1.025" height="1.025" fill="#ffffca" fill-opacity="1.000" />
<rect x="16.400" y="15.375" width="1.025" height="1.025" fill="#08ff00" fill-opacity="1.000" />
<rect x="17.425" y="15.375" width="1.025" height="1.025" fill="#08ff00" fill-opacity="0.498" />
<rect x="18.450" y="15.375" width="1.025" height="1.025" fill="#08ff00" fill-opacity="1.000" />
<rect x="19.475" y="15.375" width="1.025" height="1.025" fill="#ffed00" fill-opacity="1.000" />
<rect x="16.400" y="16.400" width="1.025" height="1.025" fill="#ffff00" fill-opacity="1.000" />
<rect x="17.425" y="16.400" width="1.025" height="1.025" fill="#ffff00" fill-opacity="1.000" />
<rect x="18.450" y="16.400" width="1.025" height="1.025" fill="#ffed00" fill-opacity="1.000" />
<rect x="15.375" y="17.425" width="1.025" height="1.025" fill="#ffed00" fill-opacity="1.000" />
<rect x="15.375" y="18.450" width="1.025" height="1.025" fill="#ffff00" fill-opacity="1.000" />
<rect x="15.375" y="19.475" width="1.025" height="1.025" fill="#ffed00" fill-opacity="1.000" />
<rect x="14.350" y="20.500" width="1.025" height="1.025" fill="#ffff00" fill-opacity="1.000" />
<rect x="12.300" y="21.525" width="1.025" height="1.025" fill="#ffff00" fill-opacity="1.000" />
<rect x="13.325" y="21.525" width="1.025" height="1.025" fill="#ffed00" fill-opacity="1.000" />
</svg>