<svg xmlns="http://www.w3.org/2000/svg" width="37.925" height="37.925" shape-rendering="crispEdges" style="image-rendering: pixelated;">
<rect x="22.550" y="17.425" width="1.025" height="1.025" fill="#00ff00" fill-opacity="0.894" />
<rect x="23.575" y="17.425" width="1.025" height="1.025" fill="#00ff00" fill-opacity="0.710" />
<rect x="24.600" y="17.425" width="1.025" height="1.025" fill="#00ff00" fill-opacity="0.463" />
<rect x="25.625" y="17.425" width="1.025" height="1.025" fill="#00ff00" fill-opacity="0.353" />
<rect x="21.525" y="18.450" width="1.025" height="1.025" fill="#00ff00" fill-opacity="0.949" />
<rect x="22.550" y="18.450" width="1.025" height="1.025" fill="#00ff00" fill-opacity="0.820" />
<rect x="23.575" y="18.450" width="1.025" height="1.025" fill="#00ff00" fill-opacity="0.561" />
<rect x="24.600" y="18.450" width="1.025" height="1.025" fill="#00ff00" fill-opacity="0.231" />
<rect x="25.625" y="18.450" width="1.025" height="1.025" fill="#00ff00" fill-opacity="0.082" />
<rect x="26.650" y="18.450" width="1.025" height="1.025" fill="#00ff00" fill-opacity="0.302" />
<rect x="21.525" y="19.475" width="1.025" height="1.025" fill="#00ff00" fill-opacity="0.929" />
<rect x="22.550" y="19.475" width="1.025" height="1.025" fill="#00ff00" fill-opacity="0.796" />
<rect x="23.575" y="19.475" width="1.025" height="1.025" fill="#00ff00" fill-opacity="0.553" />
<rect x="24.600" y="19.475" width="1.025" height="1.025" fill="#00ff00" fill-opacity="0.278" />
<rect x="25.625" y="19.475" width="1.025" height="1.025" fill="#00ff00" fill-opacity="0.157" />
<rect x="26.650" y="19.475" width="1.025" height="1.025" fill="#00ff00" fill-opacity="0.365" />
<rect x="21.525" y="20.500" width="1.025" height="1.025" fill="#00ff00" fill-opacity="0.945" />
<rect x="22.550" y="20.500" width="1.025" height="1.025" fill="#00ff00" fill-opacity="0.831" />
<rect x="23.575" y="20.500" width="1.025" height="1.025" fill="#00ff00" fill-opacity="0.675" />
<rect x="24.600" y="20.500" width="1.025" height="1.025" fill="#00ff00" fill-opacity="0.514" />
<rect x="25.625" y="20.500" width="1.025" height="1.025" fill="#00ff00" fill-opacity="0.475" />
<rect x="26.650" y="20.500" width="1.025" height="1.025" fill="#00ff00" fill-opacity="0.612" />
<rect x="21.525" y="21.525" width="1.025" height="1.025" fill="#00ff00" fill-opacity="0.965" />
<rect x="22.550" y="21.525" width="1.025" height="1.025" fill="#00ff00" fill-opacity="0.910" />
<rect x="23.575" y="21.525" width="1.025" height="1.025" fill="#00ff00" fill-opacity="0.835" />
<rect x="24.600" y="21.525" width="1.025" height="1.025" fill="#00ff00" fill-opacity="0.773" />
<rect x="25.625" y="21.525" width="1.025" height="1.025" fill="#00ff00" fill-opacity="0.773" />
<rect x="26.650" y="21.525" width="1.025" height="1.025" fill="#00ff00" fill-opacity="0.843" />
<rect x="22.550" y="22.550" width="1.025" height="1.025" fill="#00ff00" fill-opacity="0.969" />
<rect x="23.575" y="22.550" width="1.025" height="1.025" fill="#00ff00" fill-opacity="0.941" />
<rect x="24.600" y="22.550" width="1.025" height="1.025" fill="#00ff00" fill-opacity="0.925" />
<rect x="25.625" y="22.550" width="1.025" height="1.025" fill="#00ff00" fill-opacity="0.933" />
</svg>