<svg xmlns="http://www.w3.org/2000/svg" width="37.925" height="37.925" shape-rendering="crispEdges" style="image-rendering: pixelated;"><rect x="21.525" y="0.000" width="1.025" height="1.025" fill="#c6c6c6" fill-opacity="0.502" /><rect x="22.550" y="0.000" width="1.025" height="1.025" fill="#c6c6c6" fill-opacity="0.502" /><rect x="32.800" y="0.000" width="1.025" height="1.025" fill="#c6c6c6" fill-opacity="0.502" /><rect x="33.825" y="0.000" width="1.025" height="1.025" fill="#c6c6c6" fill-opacity="0.502" /><rect x="23.575" y="1.025" width="1.025" height="1.025" fill="#c6c6c6" fill-opacity="0.502" /><rect x="24.600" y="1.025" width="1.025" height="1.025" fill="#c6c6c6" fill-opacity="0.502" /><rect x="25.625" y="1.025" width="1.025" height="1.025" fill="#c6c6c6" fill-opacity="0.502" /><rect x="26.650" y="1.025" width="1.025" height="1.025" fill="#c6c6c6" fill-opacity="0.753" /><rect x="27.675" y="1.025" width="1.025" height="1.025" fill="#c6c6c6" fill-opacity="0.502" /><rect x="28.700" y="1.025" width="1.025" height="1.025" fill="#c6c6c6" fill-opacity="0.753" /><rect x="29.725" y="1.025" width="1.025" height="1.025" fill="#c6c6c6" fill-opacity="0.502" /><rect x="30.750" y="1.025" width="1.025" height="1.025" fill="#c6c6c6" fill-opacity="0.878" /><rect x="31.775" y="1.025" width="1.025" height="1.025" fill="#c6c6c6" fill-opacity="0.753" /><rect x="29.725" y="5.125" width="1.025" height="1.025" fill="#c6c6c6" fill-opacity="0.502" /><rect x="30.750" y="5.125" width="1.025" height="1.025" fill="#c6c6c6" fill-opacity="0.502" /><rect x="31.775" y="5.125" width="1.025" height="1.025" fill="#c6c6c6" fill-opacity="0.502" /><rect x="32.800" y="5.125" width="1.025" height="1.025" fill="#c6c6c6" fill-opacity="0.502" /><rect x="33.825" y="5.125" width="1.025" height="1.025" fill="#c6c6c6" fill-opacity="0.502" /><rect x="34.850" y="5.125" width="1.025" height="1.025" fill="#c6c6c6" fill-opacity="0.502" /><rect x="27.675" y="6.150" width="1.025" height="1.025" fill="#c6c6c6" fill-opacity="0.502" /><rect x="28.700" y="6.150" width="1.025" height="1.025" fill="#c6c6c6" fill-opacity="0.502" /><rect x="35.875" y="6.150" width="1.025" height="1.025" fill="#c6c6c6" fill-opacity="0.502" /><rect x="36.900" y="6.150" width="1.025" height="1.025" fill="#c6c6c6" fill-opacity="0.502" /><rect x="29.725" y="7.175" width="1.025" height="1.025" fill="#c6c6c6" fill-opacity="0.502" /><rect x="30.750" y="7.175" width="1.025" height="1.025" fill="#c6c6c6" fill-opacity="0.502" /><rect x="31.775" y="7.175" width="1.025" height="1.025" fill="#c6c6c6" fill-opacity="0.753" /><rect x="32.800" y="7.175" width="1.025" height="1.025" fill="#c6c6c6" fill-opacity="0.878" /><rect x="33.825" y="7.175" width="1.025" height="1.025" fill="#c6c6c6" fill-opacity="0.878" /><rect x="34.850" y="7.175" width="1.025" height="1.025" fill="#c6c6c6" fill-opacity="0.753" /><rect x="32.800" y="9.225" width="1.025" height="1.025" fill="#c6c6c6" fill-opacity="0.502" /><rect x="29.725" y="12.300" width="1.025" height="1.025" fill="#c6c6c6" fill-opacity="0.878" /><rect x="30.750" y="12.300" width="1.025" height="1.025" fill="#c6c6c6" fill-opacity="0.878" /><rect x="31.775" y="12.300" width="1.025" height="1.025" fill="#c6c6c6" fill-opacity="0.984" /><rect x="32.800" y="12.300" width="1.025" height="1.025" fill="#c6c6c6" fill-opacity="0.878" /><rect x="33.825" y="12.300" width="1.025" height="1.025" fill="#c6c6c6" fill-opacity="0.878" /><rect x="28.700" y="13.325" width="1.025" height="1.025" fill="#c6c6c6" fill-opacity="0.878" /><rect x="34.850" y="13.325" width="1.025" height="1.025" fill="#c6c6c6" fill-opacity="0.878" /><rect x="29.725" y="14.350" width="1.025" height="1.025" fill="#c6c6c6" fill-opacity="0.878" /><rect x="30.750" y="14.350" width="1.025" height="1.025" fill="#c6c6c6" fill-opacity="0.941" /><rect x="31.775" y="14.350" width="1.025" height="1.025" fill="#c6c6c6" fill-opacity="0.992" /><rect x="32.800" y="14.350" width="1.025" height="1.025" fill="#c6c6c6" fill-opacity="0.969" /><rect x="33.825" y="14.350" width="1.025" height="1.025" fill="#c6c6c6" fill-opacity="0.941" /><rect x="30.750" y="16.400" width="1.025" height="1.025" fill="#c6c6c6" fill-opacity="0.502" /><rect x="29.725" y="17.425" width="1.025" height="1.025" fill="#c6c6c6" fill-opacity="0.878" /><rect x="30.750" y="17.425" width="1.025" height="1.025" fill="#c6c6c6" fill-opacity="0.878" /><rect x="31.775" y="17.425" width="1.025" height="1.025" fill="#c6c6c6" fill-opacity="0.878" /><rect x="28.700" y="18.450" width="1.025" height="1.025" fill="#c6c6c6" fill-opacity="0.878" /><rect x="32.800" y="18.450" width="1.025" height="1.025" fill="#c6c6c6" fill-opacity="0.878" /><rect x="29.725" y="19.475" width="1.025" height="1.025" fill="#c6c6c6" fill-opacity="0.878" /><rect x="30.750" y="19.475" width="1.025" height="1.025" fill="#c6c6c6" fill-opacity="0.878" /><rect x="31.775" y="19.475" width="1.025" height="1.025" fill="#c6c6c6" fill-opacity="0.878" /><rect x="22.550" y="20.500" width="1.025" height="1.025" fill="#333333" /><rect x="23.575" y="20.500" width="1.025" height="1.025" fill="#333333" /><rect x="24.600" y="20.500" width="1.025" height="1.025" fill="#2c2c2c" /><rect x="24.600" y="21.525" width="1.025" height="1.025" fill="#1e1e1e" /><rect x="25.625" y="21.525" width="1.025" height="1.025" fill="#343434" /><rect x="29.725" y="21.525" width="1.025" height="1.025" fill="#322013" /><rect x="30.750" y="21.525" width="1.025" height="1.025" fill="#321c0e" /><rect x="31.775" y="21.525" width="1.025" height="1.025" fill="#2c1b0c" /><rect x="32.800" y="21.525" width="1.025" height="1.025" fill="#1e140b" /><rect x="24.600" y="22.550" width="1.025" height="1.025" fill="#1e1e1e" /><rect x="25.625" y="22.550" width="1.025" height="1.025" fill="#343434" /><rect x="29.725" y="22.550" width="1.025" height="1.025" fill="#402815" /><rect x="30.750" y="22.550" width="1.025" height="1.025" fill="#50301a" /><rect x="31.775" y="22.550" width="1.025" height="1.025" fill="#4f3018" /><rect x="32.800" y="22.550" width="1.025" height="1.025" fill="#381f12" /><rect x="24.600" y="23.575" width="1.025" height="1.025" fill="#301a0d" /><rect x="25.625" y="23.575" width="1.025" height="1.025" fill="#51311a" /><rect x="29.725" y="23.575" width="1.025" height="1.025" fill="#664026" /><rect x="30.750" y="23.575" width="1.025" height="1.025" fill="#50301a" /><rect x="31.775" y="23.575" width="1.025" height="1.025" fill="#503119" /><rect x="32.800" y="23.575" width="1.025" height="1.025" fill="#381f12" /><rect x="25.625" y="24.600" width="1.025" height="1.025" fill="#301a0c" /><rect x="26.650" y="24.600" width="1.025" height="1.025" fill="#54331a" /><rect x="27.675" y="24.600" width="1.025" height="1.025" fill="#50301a" /><rect x="28.700" y="24.600" width="1.025" height="1.025" fill="#674127" /><rect x="29.725" y="24.600" width="1.025" height="1.025" fill="#51311a" /><rect x="30.750" y="24.600" width="1.025" height="1.025" fill="#51311a" /><rect x="31.775" y="24.600" width="1.025" height="1.025" fill="#503119" /><rect x="32.800" y="24.600" width="1.025" height="1.025" fill="#382012" /><rect x="26.650" y="25.625" width="1.025" height="1.025" fill="#2b1406" /><rect x="27.675" y="25.625" width="1.025" height="1.025" fill="#311a0d" /><rect x="28.700" y="25.625" width="1.025" height="1.025" fill="#50301a" /><rect x="29.725" y="25.625" width="1.025" height="1.025" fill="#50301a" /><rect x="30.750" y="25.625" width="1.025" height="1.025" fill="#50301a" /><rect x="31.775" y="25.625" width="1.025" height="1.025" fill="#4f3019" /><rect x="32.800" y="25.625" width="1.025" height="1.025" fill="#392013" /><rect x="28.700" y="26.650" width="1.025" height="1.025" fill="#301a0c" /><rect x="29.725" y="26.650" width="1.025" height="1.025" fill="#301a0d" /><rect x="30.750" y="26.650" width="1.025" height="1.025" fill="#301a0d" /><rect x="31.775" y="26.650" width="1.025" height="1.025" fill="#311505" /></svg>