<svg xmlns="http://www.w3.org/2000/svg" width="37.925" height="37.925" shape-rendering="crispEdges" style="image-rendering: pixelated;"><rect x="11.275" y="26.650" width="1.025" height="1.025" fill="#0a1b58" /><rect x="12.300" y="26.650" width="1.025" height="1.025" fill="#0a1b58" /><rect x="13.325" y="26.650" width="1.025" height="1.025" fill="#091242" /><rect x="19.475" y="26.650" width="1.025" height="1.025" fill="#0a1b58" /><rect x="20.500" y="26.650" width="1.025" height="1.025" fill="#0a1b58" /><rect x="10.250" y="27.675" width="1.025" height="1.025" fill="#04185c" /><rect x="11.275" y="27.675" width="1.025" height="1.025" fill="#163684" /><rect x="12.300" y="27.675" width="1.025" height="1.025" fill="#163684" /><rect x="13.325" y="27.675" width="1.025" height="1.025" fill="#05092f" /><rect x="18.450" y="27.675" width="1.025" height="1.025" fill="#05092f" /><rect x="19.475" y="27.675" width="1.025" height="1.025" fill="#143c88" /><rect x="20.500" y="27.675" width="1.025" height="1.025" fill="#092979" /><rect x="21.525" y="27.675" width="1.025" height="1.025" fill="#0a1b58" /><rect x="22.550" y="27.675" width="1.025" height="1.025" fill="#0a1b58" /><rect x="23.575" y="27.675" width="1.025" height="1.025" fill="#0a133b" /><rect x="9.225" y="28.700" width="1.025" height="1.025" fill="#d5bf0b" /><rect x="10.250" y="28.700" width="1.025" height="1.025" fill="#051b62" /><rect x="11.275" y="28.700" width="1.025" height="1.025" fill="#092979" /><rect x="12.300" y="28.700" width="1.025" height="1.025" fill="#143c88" /><rect x="13.325" y="28.700" width="1.025" height="1.025" fill="#143c88" /><rect x="14.350" y="28.700" width="1.025" height="1.025" fill="#050d36" /><rect x="17.425" y="28.700" width="1.025" height="1.025" fill="#050d36" /><rect x="18.450" y="28.700" width="1.025" height="1.025" fill="#143c88" /><rect x="19.475" y="28.700" width="1.025" height="1.025" fill="#143c88" /><rect x="20.500" y="28.700" width="1.025" height="1.025" fill="#092979" /><rect x="21.525" y="28.700" width="1.025" height="1.025" fill="#beb723" /><rect x="22.550" y="28.700" width="1.025" height="1.025" fill="#092979" /><rect x="23.575" y="28.700" width="1.025" height="1.025" fill="#092979" /><rect x="24.600" y="28.700" width="1.025" height="1.025" fill="#0a1b58" /><rect x="7.175" y="29.725" width="1.025" height="1.025" fill="#0a2e77" /><rect x="8.200" y="29.725" width="1.025" height="1.025" fill="#dccd0b" /><rect x="9.225" y="29.725" width="1.025" height="1.025" fill="#08368a" /><rect x="10.250" y="29.725" width="1.025" height="1.025" fill="#0f4aa0" /><rect x="11.275" y="29.725" width="1.025" height="1.025" fill="#0c3385" /><rect x="12.300" y="29.725" width="1.025" height="1.025" fill="#0a2877" /><rect x="13.325" y="29.725" width="1.025" height="1.025" fill="#113684" /><rect x="14.350" y="29.725" width="1.025" height="1.025" fill="#113684" /><rect x="15.375" y="29.725" width="1.025" height="1.025" fill="#050c32" /><rect x="17.425" y="29.725" width="1.025" height="1.025" fill="#050c32" /><rect x="18.450" y="29.725" width="1.025" height="1.025" fill="#113684" /><rect x="19.475" y="29.725" width="1.025" height="1.025" fill="#113684" /><rect x="20.500" y="29.725" width="1.025" height="1.025" fill="#0a2877" /><rect x="21.525" y="29.725" width="1.025" height="1.025" fill="#9aa441" /><rect x="22.550" y="29.725" width="1.025" height="1.025" fill="#afb030" /><rect x="23.575" y="29.725" width="1.025" height="1.025" fill="#082670" /><rect x="24.600" y="29.725" width="1.025" height="1.025" fill="#092979" /><rect x="25.625" y="29.725" width="1.025" height="1.025" fill="#0a1b59" /><rect x="26.650" y="29.725" width="1.025" height="1.025" fill="#0a1b59" /><rect x="6.150" y="30.750" width="1.025" height="1.025" fill="#070d37" /><rect x="7.175" y="30.750" width="1.025" height="1.025" fill="#08246c" /><rect x="8.200" y="30.750" width="1.025" height="1.025" fill="#1256a9" /><rect x="9.225" y="30.750" width="1.025" height="1.025" fill="#0b459a" /><rect x="10.250" y="30.750" width="1.025" height="1.025" fill="#0e499f" /><rect x="11.275" y="30.750" width="1.025" height="1.025" fill="#083890" /><rect x="12.300" y="30.750" width="1.025" height="1.025" fill="#0b3284" /><rect x="13.325" y="30.750" width="1.025" height="1.025" fill="#061c64" /><rect x="14.350" y="30.750" width="1.025" height="1.025" fill="#061c64" /><rect x="15.375" y="30.750" width="1.025" height="1.025" fill="#c0ad0c" /><rect x="16.400" y="30.750" width="1.025" height="1.025" fill="#070c34" /><rect x="17.425" y="30.750" width="1.025" height="1.025" fill="#072570" /><rect x="18.450" y="30.750" width="1.025" height="1.025" fill="#061c64" /><rect x="19.475" y="30.750" width="1.025" height="1.025" fill="#061c64" /><rect x="20.500" y="30.750" width="1.025" height="1.025" fill="#0b3284" /><rect x="21.525" y="30.750" width="1.025" height="1.025" fill="#9ca846" /><rect x="22.550" y="30.750" width="1.025" height="1.025" fill="#073587" /><rect x="23.575" y="30.750" width="1.025" height="1.025" fill="#0c2f7c" /><rect x="24.600" y="30.750" width="1.025" height="1.025" fill="#082670" /><rect x="25.625" y="30.750" width="1.025" height="1.025" fill="#082670" /><rect x="26.650" y="30.750" width="1.025" height="1.025" fill="#073587" /><rect x="27.675" y="30.750" width="1.025" height="1.025" fill="#0a1b59" /><rect x="5.125" y="31.775" width="1.025" height="1.025" fill="#071038" /><rect x="6.150" y="31.775" width="1.025" height="1.025" fill="#0a2874" /><rect x="7.175" y="31.775" width="1.025" height="1.025" fill="#0f4ea4" /><rect x="8.200" y="31.775" width="1.025" height="1.025" fill="#0a4094" /><rect x="9.225" y="31.775" width="1.025" height="1.025" fill="#0c2d7a" /><rect x="10.250" y="31.775" width="1.025" height="1.025" fill="#093f92" /><rect x="11.275" y="31.775" width="1.025" height="1.025" fill="#decf0b" /><rect x="12.300" y="31.775" width="1.025" height="1.025" fill="#0c479b" /><rect x="13.325" y="31.775" width="1.025" height="1.025" fill="#1658ac" /><rect x="14.350" y="31.775" width="1.025" height="1.025" fill="#051b5e" /><rect x="15.375" y="31.775" width="1.025" height="1.025" fill="#051c64" /><rect x="16.400" y="31.775" width="1.025" height="1.025" fill="#070c34" /><rect x="17.425" y="31.775" width="1.025" height="1.025" fill="#051c64" /><rect x="18.450" y="31.775" width="1.025" height="1.025" fill="#051b5e" /><rect x="19.475" y="31.775" width="1.025" height="1.025" fill="#0c479b" /><rect x="20.500" y="31.775" width="1.025" height="1.025" fill="#093e91" /><rect x="21.525" y="31.775" width="1.025" height="1.025" fill="#093e91" /><rect x="22.550" y="31.775" width="1.025" height="1.025" fill="#0f51a4" /><rect x="23.575" y="31.775" width="1.025" height="1.025" fill="#07236c" /><rect x="24.600" y="31.775" width="1.025" height="1.025" fill="#0c2f7c" /><rect x="25.625" y="31.775" width="1.025" height="1.025" fill="#0c2f7c" /><rect x="26.650" y="31.775" width="1.025" height="1.025" fill="#ddcf0b" /><rect x="27.675" y="31.775" width="1.025" height="1.025" fill="#0a1b59" /><rect x="5.125" y="32.800" width="1.025" height="1.025" fill="#070d3a" /><rect x="6.150" y="32.800" width="1.025" height="1.025" fill="#0a2973" /><rect x="7.175" y="32.800" width="1.025" height="1.025" fill="#1253a9" /><rect x="8.200" y="32.800" width="1.025" height="1.025" fill="#0f4da3" /><rect x="9.225" y="32.800" width="1.025" height="1.025" fill="#0a2775" /><rect x="10.250" y="32.800" width="1.025" height="1.025" fill="#c4b00d" /><rect x="11.275" y="32.800" width="1.025" height="1.025" fill="#dccd0b" /><rect x="12.300" y="32.800" width="1.025" height="1.025" fill="#e1d20f" /><rect x="13.325" y="32.800" width="1.025" height="1.025" fill="#0f4c9d" /><rect x="14.350" y="32.800" width="1.025" height="1.025" fill="#1658ac" /><rect x="15.375" y="32.800" width="1.025" height="1.025" fill="#051c64" /><rect x="16.400" y="32.800" width="1.025" height="1.025" fill="#9d9012" /><rect x="17.425" y="32.800" width="1.025" height="1.025" fill="#b6a40c" /><rect x="18.450" y="32.800" width="1.025" height="1.025" fill="#1658ac" /><rect x="19.475" y="32.800" width="1.025" height="1.025" fill="#517a7b" /><rect x="20.500" y="32.800" width="1.025" height="1.025" fill="#073587" /><rect x="21.525" y="32.800" width="1.025" height="1.025" fill="#073587" /><rect x="22.550" y="32.800" width="1.025" height="1.025" fill="#0c479b" /><rect x="23.575" y="32.800" width="1.025" height="1.025" fill="#093e91" /><rect x="24.600" y="32.800" width="1.025" height="1.025" fill="#07236c" /><rect x="25.625" y="32.800" width="1.025" height="1.025" fill="#bfac0d" /><rect x="26.650" y="32.800" width="1.025" height="1.025" fill="#dccd0b" /><rect x="27.675" y="32.800" width="1.025" height="1.025" fill="#bfac0d" /><rect x="4.100" y="33.825" width="1.025" height="1.025" fill="#070c34" /><rect x="5.125" y="33.825" width="1.025" height="1.025" fill="#0a2977" /><rect x="6.150" y="33.825" width="1.025" height="1.025" fill="#1253a9" /><rect x="7.175" y="33.825" width="1.025" height="1.025" fill="#0f50a4" /><rect x="8.200" y="33.825" width="1.025" height="1.025" fill="#1251a8" /><rect x="9.225" y="33.825" width="1.025" height="1.025" fill="#0d2f79" /><rect x="10.250" y="33.825" width="1.025" height="1.025" fill="#070e37" /><rect x="11.275" y="33.825" width="1.025" height="1.025" fill="#e2d410" /><rect x="12.300" y="33.825" width="1.025" height="1.025" fill="#1253a9" /><rect x="13.325" y="33.825" width="1.025" height="1.025" fill="#0f4c9d" /><rect x="14.350" y="33.825" width="1.025" height="1.025" fill="#093e91" /><rect x="15.375" y="33.825" width="1.025" height="1.025" fill="#dccd0b" /><rect x="16.400" y="33.825" width="1.025" height="1.025" fill="#ceb80c" /><rect x="17.425" y="33.825" width="1.025" height="1.025" fill="#0a2978" /><rect x="18.450" y="33.825" width="1.025" height="1.025" fill="#09113b" /><rect x="19.475" y="33.825" width="1.025" height="1.025" fill="#0f4c9d" /><rect x="20.500" y="33.825" width="1.025" height="1.025" fill="#0f51a4" /><rect x="21.525" y="33.825" width="1.025" height="1.025" fill="#073587" /><rect x="22.550" y="33.825" width="1.025" height="1.025" fill="#0c479b" /><rect x="23.575" y="33.825" width="1.025" height="1.025" fill="#1253a9" /><rect x="24.600" y="33.825" width="1.025" height="1.025" fill="#0b2163" /><rect x="25.625" y="33.825" width="1.025" height="1.025" fill="#07236c" /><rect x="26.650" y="33.825" width="1.025" height="1.025" fill="#dccd0b" /><rect x="27.675" y="33.825" width="1.025" height="1.025" fill="#082670" /><rect x="28.700" y="33.825" width="1.025" height="1.025" fill="#0a1b58" /><rect x="4.100" y="34.850" width="1.025" height="1.025" fill="#0a1545" /><rect x="5.125" y="34.850" width="1.025" height="1.025" fill="#092872" /><rect x="6.150" y="34.850" width="1.025" height="1.025" fill="#918529" /><rect x="7.175" y="34.850" width="1.025" height="1.025" fill="#0d47a0" /><rect x="8.200" y="34.850" width="1.025" height="1.025" fill="#092873" /><rect x="9.225" y="34.850" width="1.025" height="1.025" fill="#0f3382" /><rect x="10.250" y="34.850" width="1.025" height="1.025" fill="#09113a" /><rect x="11.275" y="34.850" width="1.025" height="1.025" fill="#1253ae" /><rect x="12.300" y="34.850" width="1.025" height="1.025" fill="#093e91" /><rect x="13.325" y="34.850" width="1.025" height="1.025" fill="#083e90" /><rect x="14.350" y="34.850" width="1.025" height="1.025" fill="#d3bd0a" /><rect x="15.375" y="34.850" width="1.025" height="1.025" fill="#dac50a" /><rect x="16.400" y="34.850" width="1.025" height="1.025" fill="#1153a9" /><rect x="17.425" y="34.850" width="1.025" height="1.025" fill="#0a3383" /><rect x="18.450" y="34.850" width="1.025" height="1.025" fill="#071038" /><rect x="19.475" y="34.850" width="1.025" height="1.025" fill="#083e90" /><rect x="20.500" y="34.850" width="1.025" height="1.025" fill="#0c479b" /><rect x="21.525" y="34.850" width="1.025" height="1.025" fill="#0f51a4" /><rect x="22.550" y="34.850" width="1.025" height="1.025" fill="#1253a9" /><rect x="23.575" y="34.850" width="1.025" height="1.025" fill="#093e91" /><rect x="24.600" y="34.850" width="1.025" height="1.025" fill="#093e91" /><rect x="25.625" y="34.850" width="1.025" height="1.025" fill="#0e337f" /><rect x="26.650" y="34.850" width="1.025" height="1.025" fill="#1253a9" /><rect x="27.675" y="34.850" width="1.025" height="1.025" fill="#0c2f7c" /><rect x="28.700" y="34.850" width="1.025" height="1.025" fill="#0a133b" /><rect x="3.075" y="35.875" width="1.025" height="1.025" fill="#07103d" /><rect x="4.100" y="35.875" width="1.025" height="1.025" fill="#0c2f7d" /><rect x="5.125" y="35.875" width="1.025" height="1.025" fill="#8c8026" /><rect x="6.150" y="35.875" width="1.025" height="1.025" fill="#cec017" /><rect x="7.175" y="35.875" width="1.025" height="1.025" fill="#c7b91a" /><rect x="8.200" y="35.875" width="1.025" height="1.025" fill="#1251a8" /><rect x="9.225" y="35.875" width="1.025" height="1.025" fill="#0d2f79" /><rect x="10.250" y="35.875" width="1.025" height="1.025" fill="#050b31" /><rect x="11.275" y="35.875" width="1.025" height="1.025" fill="#104a9e" /><rect x="12.300" y="35.875" width="1.025" height="1.025" fill="#073587" /><rect x="13.325" y="35.875" width="1.025" height="1.025" fill="#1559b1" /><rect x="14.350" y="35.875" width="1.025" height="1.025" fill="#dfd20c" /><rect x="15.375" y="35.875" width="1.025" height="1.025" fill="#dfd20c" /><rect x="16.400" y="35.875" width="1.025" height="1.025" fill="#1257a9" /><rect x="17.425" y="35.875" width="1.025" height="1.025" fill="#071f67" /><rect x="18.450" y="35.875" width="1.025" height="1.025" fill="#0b2873" /><rect x="19.475" y="35.875" width="1.025" height="1.025" fill="#0a123d" /><rect x="20.500" y="35.875" width="1.025" height="1.025" fill="#073587" /><rect x="21.525" y="35.875" width="1.025" height="1.025" fill="#0c479b" /><rect x="22.550" y="35.875" width="1.025" height="1.025" fill="#093e91" /><rect x="23.575" y="35.875" width="1.025" height="1.025" fill="#093e91" /><rect x="24.600" y="35.875" width="1.025" height="1.025" fill="#0e266a" /><rect x="25.625" y="35.875" width="1.025" height="1.025" fill="#092873" /><rect x="26.650" y="35.875" width="1.025" height="1.025" fill="#093e91" /><rect x="27.675" y="35.875" width="1.025" height="1.025" fill="#07236c" /><rect x="28.700" y="35.875" width="1.025" height="1.025" fill="#0a1b58" /><rect x="29.725" y="35.875" width="1.025" height="1.025" fill="#0a133b" /><rect x="3.075" y="36.900" width="1.025" height="1.025" fill="#070e38" /><rect x="4.100" y="36.900" width="1.025" height="1.025" fill="#072373" /><rect x="5.125" y="36.900" width="1.025" height="1.025" fill="#0e4aa1" /><rect x="6.150" y="36.900" width="1.025" height="1.025" fill="#bbae1d" /><rect x="7.175" y="36.900" width="1.025" height="1.025" fill="#0d47a0" /><rect x="8.200" y="36.900" width="1.025" height="1.025" fill="#092873" /><rect x="9.225" y="36.900" width="1.025" height="1.025" fill="#0f3382" /><rect x="10.250" y="36.900" width="1.025" height="1.025" fill="#050a2e" /><rect x="11.275" y="36.900" width="1.025" height="1.025" fill="#123987" /><rect x="12.300" y="36.900" width="1.025" height="1.025" fill="#0f51a4" /><rect x="13.325" y="36.900" width="1.025" height="1.025" fill="#0f4ca0" /><rect x="14.350" y="36.900" width="1.025" height="1.025" fill="#dcce0b" /><rect x="15.375" y="36.900" width="1.025" height="1.025" fill="#dcce0b" /><rect x="16.400" y="36.900" width="1.025" height="1.025" fill="#ded00b" /><rect x="17.425" y="36.900" width="1.025" height="1.025" fill="#1157ac" /><rect x="18.450" y="36.900" width="1.025" height="1.025" fill="#0d2f7c" /><rect x="19.475" y="36.900" width="1.025" height="1.025" fill="#a09312" /><rect x="20.500" y="36.900" width="1.025" height="1.025" fill="#ddcf0b" /><rect x="21.525" y="36.900" width="1.025" height="1.025" fill="#1253a9" /><rect x="22.550" y="36.900" width="1.025" height="1.025" fill="#073587" /><rect x="23.575" y="36.900" width="1.025" height="1.025" fill="#0f4ca0" /><rect x="24.600" y="36.900" width="1.025" height="1.025" fill="#0f51a4" /><rect x="25.625" y="36.900" width="1.025" height="1.025" fill="#ac9e19" /><rect x="26.650" y="36.900" width="1.025" height="1.025" fill="#073587" /><rect x="27.675" y="36.900" width="1.025" height="1.025" fill="#07236c" /><rect x="28.700" y="36.900" width="1.025" height="1.025" fill="#07236c" /><rect x="29.725" y="36.900" width="1.025" height="1.025" fill="#0a133b" /></svg>