<svg xmlns="http://www.w3.org/2000/svg" width="37.925" height="37.925" shape-rendering="crispEdges" style="image-rendering: pixelated;"><rect x="8.200" y="0.000" width="1.025" height="1.025" fill="#182363" /><rect x="9.225" y="0.000" width="1.025" height="1.025" fill="#2a77d2" /><rect x="10.250" y="0.000" width="1.025" height="1.025" fill="#1762ba" /><rect x="11.275" y="0.000" width="1.025" height="1.025" fill="#1762ba" /><rect x="12.300" y="0.000" width="1.025" height="1.025" fill="#1964bf" /><rect x="13.325" y="0.000" width="1.025" height="1.025" fill="#1357b1" /><rect x="14.350" y="0.000" width="1.025" height="1.025" fill="#2a77d0" /><rect x="15.375" y="0.000" width="1.025" height="1.025" fill="#1b6bc6" /><rect x="16.400" y="0.000" width="1.025" height="1.025" fill="#e3d412" /><rect x="17.425" y="0.000" width="1.025" height="1.025" fill="#172465" /><rect x="7.175" y="1.025" width="1.025" height="1.025" fill="#263373" /><rect x="8.200" y="1.025" width="1.025" height="1.025" fill="#2863bb" /><rect x="9.225" y="1.025" width="1.025" height="1.025" fill="#2674d1" /><rect x="10.250" y="1.025" width="1.025" height="1.025" fill="#246cc9" /><rect x="11.275" y="1.025" width="1.025" height="1.025" fill="#246cc9" /><rect x="12.300" y="1.025" width="1.025" height="1.025" fill="#fff249" /><rect x="13.325" y="1.025" width="1.025" height="1.025" fill="#2a77d0" /><rect x="14.350" y="1.025" width="1.025" height="1.025" fill="#3b83e0" /><rect x="15.375" y="1.025" width="1.025" height="1.025" fill="#2167c5" /><rect x="16.400" y="1.025" width="1.025" height="1.025" fill="#2167c5" /><rect x="17.425" y="1.025" width="1.025" height="1.025" fill="#2c79d3" /><rect x="18.450" y="1.025" width="1.025" height="1.025" fill="#20296c" /><rect x="6.150" y="2.050" width="1.025" height="1.025" fill="#1b2b69" /><rect x="7.175" y="2.050" width="1.025" height="1.025" fill="#14419b" /><rect x="8.200" y="2.050" width="1.025" height="1.025" fill="#154097" /><rect x="9.225" y="2.050" width="1.025" height="1.025" fill="#1c2968" /><rect x="10.250" y="2.050" width="1.025" height="1.025" fill="#1c2d71" /><rect x="11.275" y="2.050" width="1.025" height="1.025" fill="#c8bc17" /><rect x="12.300" y="2.050" width="1.025" height="1.025" fill="#fff249" /><rect x="13.325" y="2.050" width="1.025" height="1.025" fill="#fff249" /><rect x="14.350" y="2.050" width="1.025" height="1.025" fill="#2971cf" /><rect x="15.375" y="2.050" width="1.025" height="1.025" fill="#1f67c4" /><rect x="16.400" y="2.050" width="1.025" height="1.025" fill="#1f67c4" /><rect x="17.425" y="2.050" width="1.025" height="1.025" fill="#fffabd" /><rect x="18.450" y="2.050" width="1.025" height="1.025" fill="#fff249" /><rect x="19.475" y="2.050" width="1.025" height="1.025" fill="#192361" /><rect x="20.500" y="2.050" width="1.025" height="1.025" fill="#192361" /><rect x="5.125" y="3.075" width="1.025" height="1.025" fill="#263373" /><rect x="6.150" y="3.075" width="1.025" height="1.025" fill="#0f4095" /><rect x="7.175" y="3.075" width="1.025" height="1.025" fill="#17449b" /><rect x="8.200" y="3.075" width="1.025" height="1.025" fill="#1b2865" /><rect x="11.275" y="3.075" width="1.025" height="1.025" fill="#18286a" /><rect x="12.300" y="3.075" width="1.025" height="1.025" fill="#fff249" /><rect x="13.325" y="3.075" width="1.025" height="1.025" fill="#102269" /><rect x="14.350" y="3.075" width="1.025" height="1.025" fill="#1a6ac1" /><rect x="15.375" y="3.075" width="1.025" height="1.025" fill="#1e66c3" /><rect x="16.400" y="3.075" width="1.025" height="1.025" fill="#e3d412" /><rect x="17.425" y="3.075" width="1.025" height="1.025" fill="#fff249" /><rect x="18.450" y="3.075" width="1.025" height="1.025" fill="#337edd" /><rect x="19.475" y="3.075" width="1.025" height="1.025" fill="#2f7cd2" /><rect x="20.500" y="3.075" width="1.025" height="1.025" fill="#2f7cd2" /><rect x="21.525" y="3.075" width="1.025" height="1.025" fill="#212d6f" /><rect x="4.100" y="4.100" width="1.025" height="1.025" fill="#13225e" /><rect x="5.125" y="4.100" width="1.025" height="1.025" fill="#2151a5" /><rect x="6.150" y="4.100" width="1.025" height="1.025" fill="#2151a5" /><rect x="7.175" y="4.100" width="1.025" height="1.025" fill="#2f3374" /><rect x="13.325" y="4.100" width="1.025" height="1.025" fill="#101b52" /><rect x="14.350" y="4.100" width="1.025" height="1.025" fill="#1947a1" /><rect x="15.375" y="4.100" width="1.025" height="1.025" fill="#c8bc17" /><rect x="16.400" y="4.100" width="1.025" height="1.025" fill="#fff249" /><rect x="17.425" y="4.100" width="1.025" height="1.025" fill="#2976d0" /><rect x="18.450" y="4.100" width="1.025" height="1.025" fill="#1964c1" /><rect x="19.475" y="4.100" width="1.025" height="1.025" fill="#1d6bc8" /><rect x="20.500" y="4.100" width="1.025" height="1.025" fill="#1d6bc8" /><rect x="21.525" y="4.100" width="1.025" height="1.025" fill="#145bb5" /><rect x="22.550" y="4.100" width="1.025" height="1.025" fill="#243170" /><rect x="5.125" y="5.125" width="1.025" height="1.025" fill="#13225e" /><rect x="6.150" y="5.125" width="1.025" height="1.025" fill="#13225e" /><rect x="13.325" y="5.125" width="1.025" height="1.025" fill="#14255f" /><rect x="14.350" y="5.125" width="1.025" height="1.025" fill="#1a47a0" /><rect x="15.375" y="5.125" width="1.025" height="1.025" fill="#e3d412" /><rect x="16.400" y="5.125" width="1.025" height="1.025" fill="#fff249" /><rect x="17.425" y="5.125" width="1.025" height="1.025" fill="#165ebb" /><rect x="18.450" y="5.125" width="1.025" height="1.025" fill="#3484df" /><rect x="19.475" y="5.125" width="1.025" height="1.025" fill="#1762bb" /><rect x="20.500" y="5.125" width="1.025" height="1.025" fill="#1762bb" /><rect x="21.525" y="5.125" width="1.025" height="1.025" fill="#1a64bf" /><rect x="22.550" y="5.125" width="1.025" height="1.025" fill="#2b85e6" /><rect x="23.575" y="5.125" width="1.025" height="1.025" fill="#283175" /><rect x="13.325" y="6.150" width="1.025" height="1.025" fill="#1d2d6c" /><rect x="14.350" y="6.150" width="1.025" height="1.025" fill="#163b95" /><rect x="15.375" y="6.150" width="1.025" height="1.025" fill="#e3d412" /><rect x="16.400" y="6.150" width="1.025" height="1.025" fill="#fff249" /><rect x="17.425" y="6.150" width="1.025" height="1.025" fill="#fff249" /><rect x="18.450" y="6.150" width="1.025" height="1.025" fill="#2979d1" /><rect x="19.475" y="6.150" width="1.025" height="1.025" fill="#4398ef" /><rect x="20.500" y="6.150" width="1.025" height="1.025" fill="#fff249" /><rect x="21.525" y="6.150" width="1.025" height="1.025" fill="#fff249" /><rect x="22.550" y="6.150" width="1.025" height="1.025" fill="#206dc8" /><rect x="23.575" y="6.150" width="1.025" height="1.025" fill="#0d1547" /><rect x="12.300" y="7.175" width="1.025" height="1.025" fill="#101b52" /><rect x="13.325" y="7.175" width="1.025" height="1.025" fill="#18296a" /><rect x="14.350" y="7.175" width="1.025" height="1.025" fill="#174197" /><rect x="15.375" y="7.175" width="1.025" height="1.025" fill="#1b469f" /><rect x="16.400" y="7.175" width="1.025" height="1.025" fill="#e3d412" /><rect x="17.425" y="7.175" width="1.025" height="1.025" fill="#fff249" /><rect x="18.450" y="7.175" width="1.025" height="1.025" fill="#fff249" /><rect x="19.475" y="7.175" width="1.025" height="1.025" fill="#fdec0b" /><rect x="20.500" y="7.175" width="1.025" height="1.025" fill="#fff249" /><rect x="21.525" y="7.175" width="1.025" height="1.025" fill="#479ff3" /><rect x="22.550" y="7.175" width="1.025" height="1.025" fill="#3287d9" /><rect x="23.575" y="7.175" width="1.025" height="1.025" fill="#fff249" /><rect x="24.600" y="7.175" width="1.025" height="1.025" fill="#0d1547" /><rect x="11.275" y="8.200" width="1.025" height="1.025" fill="#13225e" /><rect x="12.300" y="8.200" width="1.025" height="1.025" fill="#0d1547" /><rect x="13.325" y="8.200" width="1.025" height="1.025" fill="#e3d412" /><rect x="14.350" y="8.200" width="1.025" height="1.025" fill="#0e3a91" /><rect x="15.375" y="8.200" width="1.025" height="1.025" fill="#1b6bc3" /><rect x="16.400" y="8.200" width="1.025" height="1.025" fill="#1b6bc3" /><rect x="17.425" y="8.200" width="1.025" height="1.025" fill="#2471cc" /><rect x="18.450" y="8.200" width="1.025" height="1.025" fill="#c8bc17" /><rect x="19.475" y="8.200" width="1.025" height="1.025" fill="#fff249" /><rect x="20.500" y="8.200" width="1.025" height="1.025" fill="#297cd4" /><rect x="21.525" y="8.200" width="1.025" height="1.025" fill="#1b67c4" /><rect x="22.550" y="8.200" width="1.025" height="1.025" fill="#1d67c2" /><rect x="23.575" y="8.200" width="1.025" height="1.025" fill="#3987e4" /><rect x="24.600" y="8.200" width="1.025" height="1.025" fill="#1d2a6d" /><rect x="25.625" y="8.200" width="1.025" height="1.025" fill="#1d2a6d" /><rect x="10.250" y="9.225" width="1.025" height="1.025" fill="#13225e" /><rect x="11.275" y="9.225" width="1.025" height="1.025" fill="#1e2669" /><rect x="12.300" y="9.225" width="1.025" height="1.025" fill="#9e951e" /><rect x="13.325" y="9.225" width="1.025" height="1.025" fill="#fff249" /><rect x="14.350" y="9.225" width="1.025" height="1.025" fill="#fff249" /><rect x="15.375" y="9.225" width="1.025" height="1.025" fill="#1a4498" /><rect x="16.400" y="9.225" width="1.025" height="1.025" fill="#1a4498" /><rect x="17.425" y="9.225" width="1.025" height="1.025" fill="#164197" /><rect x="18.450" y="9.225" width="1.025" height="1.025" fill="#2474d4" /><rect x="19.475" y="9.225" width="1.025" height="1.025" fill="#338ae4" /><rect x="20.500" y="9.225" width="1.025" height="1.025" fill="#338ae4" /><rect x="21.525" y="9.225" width="1.025" height="1.025" fill="#2878d7" /><rect x="22.550" y="9.225" width="1.025" height="1.025" fill="#1f74d0" /><rect x="23.575" y="9.225" width="1.025" height="1.025" fill="#3280dc" /><rect x="24.600" y="9.225" width="1.025" height="1.025" fill="#3189e0" /><rect x="25.625" y="9.225" width="1.025" height="1.025" fill="#3189e0" /><rect x="26.650" y="9.225" width="1.025" height="1.025" fill="#201b56" /><rect x="27.675" y="9.225" width="1.025" height="1.025" fill="#19286b" /><rect x="28.700" y="9.225" width="1.025" height="1.025" fill="#182867" /><rect x="29.725" y="9.225" width="1.025" height="1.025" fill="#182867" /><rect x="9.225" y="10.250" width="1.025" height="1.025" fill="#1b2b65" /><rect x="10.250" y="10.250" width="1.025" height="1.025" fill="#1b2b65" /><rect x="11.275" y="10.250" width="1.025" height="1.025" fill="#1b2b65" /><rect x="12.300" y="10.250" width="1.025" height="1.025" fill="#1e3270" /><rect x="13.325" y="10.250" width="1.025" height="1.025" fill="#fff249" /><rect x="14.350" y="10.250" width="1.025" height="1.025" fill="#1e499e" /><rect x="15.375" y="10.250" width="1.025" height="1.025" fill="#053086" /><rect x="16.400" y="10.250" width="1.025" height="1.025" fill="#053086" /><rect x="17.425" y="10.250" width="1.025" height="1.025" fill="#2e55aa" /><rect x="18.450" y="10.250" width="1.025" height="1.025" fill="#1d489e" /><rect x="19.475" y="10.250" width="1.025" height="1.025" fill="#1e4fa4" /><rect x="20.500" y="10.250" width="1.025" height="1.025" fill="#1e4fa4" /><rect x="21.525" y="10.250" width="1.025" height="1.025" fill="#0e3d97" /><rect x="22.550" y="10.250" width="1.025" height="1.025" fill="#053087" /><rect x="23.575" y="10.250" width="1.025" height="1.025" fill="#234da4" /><rect x="24.600" y="10.250" width="1.025" height="1.025" fill="#113f99" /><rect x="25.625" y="10.250" width="1.025" height="1.025" fill="#113f99" /><rect x="26.650" y="10.250" width="1.025" height="1.025" fill="#1d49a1" /><rect x="27.675" y="10.250" width="1.025" height="1.025" fill="#1d4ca2" /><rect x="28.700" y="10.250" width="1.025" height="1.025" fill="#1b50a6" /><rect x="29.725" y="10.250" width="1.025" height="1.025" fill="#1b50a6" /><rect x="30.750" y="10.250" width="1.025" height="1.025" fill="#1e4ca3" /><rect x="31.775" y="10.250" width="1.025" height="1.025" fill="#1e4ca3" /><rect x="32.800" y="10.250" width="1.025" height="1.025" fill="#1b296a" /><rect x="7.175" y="11.275" width="1.025" height="1.025" fill="#1e2f6e" /><rect x="8.200" y="11.275" width="1.025" height="1.025" fill="#1e2f6e" /><rect x="9.225" y="11.275" width="1.025" height="1.025" fill="#0d3f98" /><rect x="10.250" y="11.275" width="1.025" height="1.025" fill="#0d3f98" /><rect x="11.275" y="11.275" width="1.025" height="1.025" fill="#0d3f98" /><rect x="12.300" y="11.275" width="1.025" height="1.025" fill="#2953a9" /><rect x="13.325" y="11.275" width="1.025" height="1.025" fill="#2451a6" /><rect x="14.350" y="11.275" width="1.025" height="1.025" fill="#1c479b" /><rect x="15.375" y="11.275" width="1.025" height="1.025" fill="#1b2a6e" /><rect x="16.400" y="11.275" width="1.025" height="1.025" fill="#1b2a6e" /><rect x="25.625" y="11.275" width="1.025" height="1.025" fill="#173177" /><rect x="26.650" y="11.275" width="1.025" height="1.025" fill="#1b2e6d" /><rect x="27.675" y="11.275" width="1.025" height="1.025" fill="#1b2e6d" /><rect x="28.700" y="11.275" width="1.025" height="1.025" fill="#142566" /><rect x="29.725" y="11.275" width="1.025" height="1.025" fill="#142566" /><rect x="30.750" y="11.275" width="1.025" height="1.025" fill="#17256d" /><rect x="31.775" y="11.275" width="1.025" height="1.025" fill="#17256d" /><rect x="5.125" y="12.300" width="1.025" height="1.025" fill="#23306e" /><rect x="6.150" y="12.300" width="1.025" height="1.025" fill="#1d50a5" /><rect x="7.175" y="12.300" width="1.025" height="1.025" fill="#1c4ca0" /><rect x="8.200" y="12.300" width="1.025" height="1.025" fill="#1c4ca0" /><rect x="9.225" y="12.300" width="1.025" height="1.025" fill="#1c479d" /><rect x="10.250" y="12.300" width="1.025" height="1.025" fill="#1c479d" /><rect x="11.275" y="12.300" width="1.025" height="1.025" fill="#1c479d" /><rect x="12.300" y="12.300" width="1.025" height="1.025" fill="#102b6d" /><rect x="13.325" y="12.300" width="1.025" height="1.025" fill="#3d4179" /><rect x="14.350" y="12.300" width="1.025" height="1.025" fill="#293266" /><rect x="6.150" y="13.325" width="1.025" height="1.025" fill="#1e276a" /><rect x="7.175" y="13.325" width="1.025" height="1.025" fill="#1f2769" /><rect x="8.200" y="13.325" width="1.025" height="1.025" fill="#1f2769" /><rect x="9.225" y="13.325" width="1.025" height="1.025" fill="#1a2965" /><rect x="10.250" y="13.325" width="1.025" height="1.025" fill="#1a2965" /><rect x="11.275" y="13.325" width="1.025" height="1.025" fill="#1a2965" /></svg>