<svg xmlns="http://www.w3.org/2000/svg" width="37.925" height="37.925" shape-rendering="crispEdges" style="image-rendering: pixelated;"><rect x="15.375" y="19.475" width="1.025" height="1.025" fill="#ef767a" /><rect x="16.400" y="19.475" width="1.025" height="1.025" fill="#ef767a" /><rect x="17.425" y="19.475" width="1.025" height="1.025" fill="#ef767a" /><rect x="18.450" y="19.475" width="1.025" height="1.025" fill="#ef767a" /><rect x="19.475" y="19.475" width="1.025" height="1.025" fill="#ef767a" /><rect x="20.500" y="19.475" width="1.025" height="1.025" fill="#ef767a" /><rect x="21.525" y="19.475" width="1.025" height="1.025" fill="#ef767a" /><rect x="22.550" y="19.475" width="1.025" height="1.025" fill="#ef767a" /><rect x="23.575" y="19.475" width="1.025" height="1.025" fill="#ef767a" /><rect x="24.600" y="19.475" width="1.025" height="1.025" fill="#ef767a" /><rect x="25.625" y="19.475" width="1.025" height="1.025" fill="#ef767a" /><rect x="26.650" y="19.475" width="1.025" height="1.025" fill="#ef767a" /><rect x="27.675" y="19.475" width="1.025" height="1.025" fill="#ef767a" /><rect x="16.400" y="20.500" width="1.025" height="1.025" fill="#bf5b5e" /><rect x="17.425" y="20.500" width="1.025" height="1.025" fill="#bf5b5e" /><rect x="18.450" y="20.500" width="1.025" height="1.025" fill="#bf5b5e" /><rect x="19.475" y="20.500" width="1.025" height="1.025" fill="#cccccc" /><rect x="20.500" y="20.500" width="1.025" height="1.025" fill="#cccccc" /><rect x="21.525" y="20.500" width="1.025" height="1.025" fill="#cccccc" /><rect x="22.550" y="20.500" width="1.025" height="1.025" fill="#cccccc" /><rect x="23.575" y="20.500" width="1.025" height="1.025" fill="#bf5b5e" /><rect x="24.600" y="20.500" width="1.025" height="1.025" fill="#cccccc" /><rect x="25.625" y="20.500" width="1.025" height="1.025" fill="#cccccc" /><rect x="26.650" y="20.500" width="1.025" height="1.025" fill="#cccccc" /><rect x="27.675" y="20.500" width="1.025" height="1.025" fill="#bf5b5e" /><rect x="19.475" y="21.525" width="1.025" height="1.025" fill="#ffffff" /><rect x="20.500" y="21.525" width="1.025" height="1.025" fill="#ffffff" /><rect x="21.525" y="21.525" width="1.025" height="1.025" fill="#ffffff" /><rect x="22.550" y="21.525" width="1.025" height="1.025" fill="#ffffff" /><rect x="24.600" y="21.525" width="1.025" height="1.025" fill="#ffffff" /><rect x="25.625" y="21.525" width="1.025" height="1.025" fill="#ffffff" /><rect x="26.650" y="21.525" width="1.025" height="1.025" fill="#ffffff" /><rect x="19.475" y="22.550" width="1.025" height="1.025" fill="#ffffff" /><rect x="20.500" y="22.550" width="1.025" height="1.025" fill="#ffffff" /><rect x="21.525" y="22.550" width="1.025" height="1.025" fill="#ffffff" /><rect x="22.550" y="22.550" width="1.025" height="1.025" fill="#ffffff" /><rect x="24.600" y="22.550" width="1.025" height="1.025" fill="#ffffff" /><rect x="25.625" y="22.550" width="1.025" height="1.025" fill="#ffffff" /><rect x="26.650" y="22.550" width="1.025" height="1.025" fill="#ffffff" /><rect x="24.600" y="23.575" width="1.025" height="1.025" fill="#ffffff" /><rect x="25.625" y="23.575" width="1.025" height="1.025" fill="#ffffff" /><rect x="26.650" y="23.575" width="1.025" height="1.025" fill="#ffffff" /></svg>