<svg xmlns="http://www.w3.org/2000/svg" width="37.925" height="37.925" shape-rendering="crispEdges" style="image-rendering: pixelated;"><rect x="16.400" y="18.450" width="1.025" height="1.025" fill="#1b1b1b" /><rect x="17.425" y="18.450" width="1.025" height="1.025" fill="#1b1b1b" /><rect x="18.450" y="18.450" width="1.025" height="1.025" fill="#292929" /><rect x="19.475" y="18.450" width="1.025" height="1.025" fill="#292929" /><rect x="20.500" y="18.450" width="1.025" height="1.025" fill="#292929" /><rect x="21.525" y="18.450" width="1.025" height="1.025" fill="#292929" /><rect x="22.550" y="18.450" width="1.025" height="1.025" fill="#292929" /><rect x="23.575" y="18.450" width="1.025" height="1.025" fill="#292929" /><rect x="24.600" y="18.450" width="1.025" height="1.025" fill="#292929" /><rect x="25.625" y="18.450" width="1.025" height="1.025" fill="#292929" /><rect x="16.400" y="19.475" width="1.025" height="1.025" fill="#1b1b1b" /><rect x="17.425" y="19.475" width="1.025" height="1.025" fill="#1b1b1b" /><rect x="18.450" y="19.475" width="1.025" height="1.025" fill="#292929" /><rect x="19.475" y="19.475" width="1.025" height="1.025" fill="#292929" /><rect x="20.500" y="19.475" width="1.025" height="1.025" fill="#292929" /><rect x="21.525" y="19.475" width="1.025" height="1.025" fill="#292929" /><rect x="22.550" y="19.475" width="1.025" height="1.025" fill="#292929" /><rect x="23.575" y="19.475" width="1.025" height="1.025" fill="#292929" /><rect x="24.600" y="19.475" width="1.025" height="1.025" fill="#292929" /><rect x="25.625" y="19.475" width="1.025" height="1.025" fill="#292929" /><rect x="16.400" y="20.500" width="1.025" height="1.025" fill="#1b1b1b" /><rect x="17.425" y="20.500" width="1.025" height="1.025" fill="#1b1b1b" /><rect x="18.450" y="20.500" width="1.025" height="1.025" fill="#292929" /><rect x="19.475" y="20.500" width="1.025" height="1.025" fill="#292929" /><rect x="20.500" y="20.500" width="1.025" height="1.025" fill="#292929" /><rect x="21.525" y="20.500" width="1.025" height="1.025" fill="#292929" /><rect x="22.550" y="20.500" width="1.025" height="1.025" fill="#292929" /><rect x="23.575" y="20.500" width="1.025" height="1.025" fill="#292929" /><rect x="24.600" y="20.500" width="1.025" height="1.025" fill="#292929" /><rect x="25.625" y="20.500" width="1.025" height="1.025" fill="#292929" /><rect x="16.400" y="21.525" width="1.025" height="1.025" fill="#1b1b1b" /><rect x="17.425" y="21.525" width="1.025" height="1.025" fill="#1b1b1b" /><rect x="18.450" y="21.525" width="1.025" height="1.025" fill="#292929" /><rect x="19.475" y="21.525" width="1.025" height="1.025" fill="#292929" /><rect x="20.500" y="21.525" width="1.025" height="1.025" fill="#ef767a" /><rect x="21.525" y="21.525" width="1.025" height="1.025" fill="#ef767a" /><rect x="22.550" y="21.525" width="1.025" height="1.025" fill="#ef767a" /><rect x="23.575" y="21.525" width="1.025" height="1.025" fill="#1b1b1b" /><rect x="24.600" y="21.525" width="1.025" height="1.025" fill="#292929" /><rect x="25.625" y="21.525" width="1.025" height="1.025" fill="#292929" /><rect x="16.400" y="22.550" width="1.025" height="1.025" fill="#1b1b1b" /><rect x="17.425" y="22.550" width="1.025" height="1.025" fill="#1b1b1b" /><rect x="18.450" y="22.550" width="1.025" height="1.025" fill="#292929" /><rect x="19.475" y="22.550" width="1.025" height="1.025" fill="#292929" /><rect x="20.500" y="22.550" width="1.025" height="1.025" fill="#000000" fill-opacity="0.200" /><rect x="21.525" y="22.550" width="1.025" height="1.025" fill="#000000" fill-opacity="0.200" /><rect x="22.550" y="22.550" width="1.025" height="1.025" fill="#1b1b1b" /><rect x="23.575" y="22.550" width="1.025" height="1.025" fill="#1b1b1b" /><rect x="24.600" y="22.550" width="1.025" height="1.025" fill="#292929" /><rect x="25.625" y="22.550" width="1.025" height="1.025" fill="#292929" /><rect x="16.400" y="23.575" width="1.025" height="1.025" fill="#1b1b1b" /><rect x="17.425" y="23.575" width="1.025" height="1.025" fill="#1b1b1b" /><rect x="18.450" y="23.575" width="1.025" height="1.025" fill="#292929" /><rect x="19.475" y="23.575" width="1.025" height="1.025" fill="#292929" /><rect x="22.550" y="23.575" width="1.025" height="1.025" fill="#1b1b1b" /><rect x="23.575" y="23.575" width="1.025" height="1.025" fill="#1b1b1b" /><rect x="24.600" y="23.575" width="1.025" height="1.025" fill="#292929" /><rect x="25.625" y="23.575" width="1.025" height="1.025" fill="#292929" /><rect x="16.400" y="24.600" width="1.025" height="1.025" fill="#1b1b1b" /><rect x="17.425" y="24.600" width="1.025" height="1.025" fill="#1b1b1b" /><rect x="18.450" y="24.600" width="1.025" height="1.025" fill="#292929" /><rect x="19.475" y="24.600" width="1.025" height="1.025" fill="#292929" /><rect x="22.550" y="24.600" width="1.025" height="1.025" fill="#1b1b1b" /><rect x="23.575" y="24.600" width="1.025" height="1.025" fill="#1b1b1b" /><rect x="24.600" y="24.600" width="1.025" height="1.025" fill="#292929" /><rect x="25.625" y="24.600" width="1.025" height="1.025" fill="#292929" /><rect x="16.400" y="25.625" width="1.025" height="1.025" fill="#1b1b1b" /><rect x="17.425" y="25.625" width="1.025" height="1.025" fill="#1b1b1b" /><rect x="18.450" y="25.625" width="1.025" height="1.025" fill="#292929" /><rect x="19.475" y="25.625" width="1.025" height="1.025" fill="#292929" /><rect x="22.550" y="25.625" width="1.025" height="1.025" fill="#1b1b1b" /><rect x="23.575" y="25.625" width="1.025" height="1.025" fill="#1b1b1b" /><rect x="24.600" y="25.625" width="1.025" height="1.025" fill="#292929" /><rect x="25.625" y="25.625" width="1.025" height="1.025" fill="#292929" /><rect x="16.400" y="26.650" width="1.025" height="1.025" fill="#1b1b1b" /><rect x="17.425" y="26.650" width="1.025" height="1.025" fill="#1b1b1b" /><rect x="18.450" y="26.650" width="1.025" height="1.025" fill="#292929" /><rect x="19.475" y="26.650" width="1.025" height="1.025" fill="#292929" /><rect x="22.550" y="26.650" width="1.025" height="1.025" fill="#1b1b1b" /><rect x="23.575" y="26.650" width="1.025" height="1.025" fill="#1b1b1b" /><rect x="24.600" y="26.650" width="1.025" height="1.025" fill="#292929" /><rect x="25.625" y="26.650" width="1.025" height="1.025" fill="#292929" /><rect x="16.400" y="27.675" width="1.025" height="1.025" fill="#1b1b1b" /><rect x="17.425" y="27.675" width="1.025" height="1.025" fill="#1b1b1b" /><rect x="18.450" y="27.675" width="1.025" height="1.025" fill="#292929" /><rect x="19.475" y="27.675" width="1.025" height="1.025" fill="#292929" /><rect x="22.550" y="27.675" width="1.025" height="1.025" fill="#1b1b1b" /><rect x="23.575" y="27.675" width="1.025" height="1.025" fill="#1b1b1b" /><rect x="24.600" y="27.675" width="1.025" height="1.025" fill="#292929" /><rect x="25.625" y="27.675" width="1.025" height="1.025" fill="#292929" /><rect x="16.400" y="28.700" width="1.025" height="1.025" fill="#1b1b1b" /><rect x="17.425" y="28.700" width="1.025" height="1.025" fill="#1b1b1b" /><rect x="18.450" y="28.700" width="1.025" height="1.025" fill="#292929" /><rect x="19.475" y="28.700" width="1.025" height="1.025" fill="#292929" /><rect x="22.550" y="28.700" width="1.025" height="1.025" fill="#1b1b1b" /><rect x="23.575" y="28.700" width="1.025" height="1.025" fill="#1b1b1b" /><rect x="24.600" y="28.700" width="1.025" height="1.025" fill="#292929" /><rect x="25.625" y="28.700" width="1.025" height="1.025" fill="#292929" /></svg>