<svg xmlns="http://www.w3.org/2000/svg" width="37.925" height="37.925" shape-rendering="crispEdges" style="image-rendering: pixelated;"><rect x="12.300" y="9.225" width="1.025" height="1.025" fill="#c4e35d" fill-opacity="0.498" /><rect x="14.350" y="9.225" width="1.025" height="1.025" fill="#c4e35d" fill-opacity="0.498" /><rect x="20.500" y="9.225" width="1.025" height="1.025" fill="#c4e35d" /><rect x="23.575" y="9.225" width="1.025" height="1.025" fill="#c4e35d" fill-opacity="0.498" /><rect x="4.100" y="10.250" width="1.025" height="1.025" fill="#ffffff" /><rect x="13.325" y="10.250" width="1.025" height="1.025" fill="#b0d451" /><rect x="15.375" y="10.250" width="1.025" height="1.025" fill="#c4e35d" /><rect x="18.450" y="10.250" width="1.025" height="1.025" fill="#c4e35d" /><rect x="21.525" y="10.250" width="1.025" height="1.025" fill="#c4e35d" /><rect x="22.550" y="10.250" width="1.025" height="1.025" fill="#c4e35d" /><rect x="25.625" y="10.250" width="1.025" height="1.025" fill="#c3ff00" /><rect x="26.650" y="10.250" width="1.025" height="1.025" fill="#28aace" /><rect x="7.175" y="11.275" width="1.025" height="1.025" fill="#bbee14" /><rect x="14.350" y="11.275" width="1.025" height="1.025" fill="#b5de3e" /><rect x="15.375" y="11.275" width="1.025" height="1.025" fill="#ffffff" /><rect x="16.400" y="11.275" width="1.025" height="1.025" fill="#d5f46e" /><rect x="17.425" y="11.275" width="1.025" height="1.025" fill="#c3ff00" /><rect x="18.450" y="11.275" width="1.025" height="1.025" fill="#d5f46e" /><rect x="19.475" y="11.275" width="1.025" height="1.025" fill="#c3ff00" /><rect x="20.500" y="11.275" width="1.025" height="1.025" fill="#dfedb0" /><rect x="21.525" y="11.275" width="1.025" height="1.025" fill="#ffffff" /><rect x="22.550" y="11.275" width="1.025" height="1.025" fill="#c3ff00" /><rect x="23.575" y="11.275" width="1.025" height="1.025" fill="#d3fa56" /><rect x="24.600" y="11.275" width="1.025" height="1.025" fill="#c3ff00" fill-opacity="0.698" /><rect x="25.625" y="11.275" width="1.025" height="1.025" fill="#64cb7f" /><rect x="26.650" y="11.275" width="1.025" height="1.025" fill="#ffffff" /><rect x="4.100" y="12.300" width="1.025" height="1.025" fill="#c3ff00" fill-opacity="0.486" /><rect x="5.125" y="12.300" width="1.025" height="1.025" fill="#c3ff00" /><rect x="6.150" y="12.300" width="1.025" height="1.025" fill="#c3ff00" /><rect x="9.225" y="12.300" width="1.025" height="1.025" fill="#c3ff00" /><rect x="11.275" y="12.300" width="1.025" height="1.025" fill="#28aace" fill-opacity="0.059" /><rect x="12.300" y="12.300" width="1.025" height="1.025" fill="#c3ff00" /><rect x="13.325" y="12.300" width="1.025" height="1.025" fill="#b0d156" /><rect x="15.375" y="12.300" width="1.025" height="1.025" fill="#d9f18d" /><rect x="16.400" y="12.300" width="1.025" height="1.025" fill="#ecffac" /><rect x="17.425" y="12.300" width="1.025" height="1.025" fill="#d9ff5c" /><rect x="18.450" y="12.300" width="1.025" height="1.025" fill="#cfff33" /><rect x="19.475" y="12.300" width="1.025" height="1.025" fill="#d5f46e" /><rect x="20.500" y="12.300" width="1.025" height="1.025" fill="#dfedb0" /><rect x="21.525" y="12.300" width="1.025" height="1.025" fill="#c3ff00" /><rect x="22.550" y="12.300" width="1.025" height="1.025" fill="#d9ff5c" /><rect x="23.575" y="12.300" width="1.025" height="1.025" fill="#e7ff97" /><rect x="24.600" y="12.300" width="1.025" height="1.025" fill="#cfff33" /><rect x="25.625" y="12.300" width="1.025" height="1.025" fill="#64cb7f" fill-opacity="0.486" /><rect x="26.650" y="12.300" width="1.025" height="1.025" fill="#c3ff00" /><rect x="27.675" y="12.300" width="1.025" height="1.025" fill="#64cb7f" /><rect x="33.825" y="12.300" width="1.025" height="1.025" fill="#47bba6" /><rect x="3.075" y="13.325" width="1.025" height="1.025" fill="#c3ff00" /><rect x="4.100" y="13.325" width="1.025" height="1.025" fill="#c3ff00" /><rect x="6.150" y="13.325" width="1.025" height="1.025" fill="#c3ff00" fill-opacity="0.698" /><rect x="7.175" y="13.325" width="1.025" height="1.025" fill="#c3ff00" /><rect x="8.200" y="13.325" width="1.025" height="1.025" fill="#ffffff" /><rect x="9.225" y="13.325" width="1.025" height="1.025" fill="#c3ff00" /><rect x="11.275" y="13.325" width="1.025" height="1.025" fill="#c3ff00" /><rect x="12.300" y="13.325" width="1.025" height="1.025" fill="#c3ff00" /><rect x="13.325" y="13.325" width="1.025" height="1.025" fill="#c3ff00" /><rect x="14.350" y="13.325" width="1.025" height="1.025" fill="#c3ff00" /><rect x="15.375" y="13.325" width="1.025" height="1.025" fill="#c3ff00" /><rect x="16.400" y="13.325" width="1.025" height="1.025" fill="#d9ff5c" /><rect x="17.425" y="13.325" width="1.025" height="1.025" fill="#ffffff" /><rect x="18.450" y="13.325" width="1.025" height="1.025" fill="#ffffff" /><rect x="19.475" y="13.325" width="1.025" height="1.025" fill="#d9ff5c" /><rect x="20.500" y="13.325" width="1.025" height="1.025" fill="#c3ff00" /><rect x="21.525" y="13.325" width="1.025" height="1.025" fill="#d5f470" /><rect x="22.550" y="13.325" width="1.025" height="1.025" fill="#ffffff" /><rect x="23.575" y="13.325" width="1.025" height="1.025" fill="#ffffff" /><rect x="24.600" y="13.325" width="1.025" height="1.025" fill="#e1ff7d" /><rect x="25.625" y="13.325" width="1.025" height="1.025" fill="#c3ff00" /><rect x="26.650" y="13.325" width="1.025" height="1.025" fill="#c3ff00" /><rect x="27.675" y="13.325" width="1.025" height="1.025" fill="#c3ff00" /><rect x="28.700" y="13.325" width="1.025" height="1.025" fill="#c3ff00" /><rect x="30.750" y="13.325" width="1.025" height="1.025" fill="#ffffff" /><rect x="33.825" y="13.325" width="1.025" height="1.025" fill="#c3ff00" /><rect x="34.850" y="13.325" width="1.025" height="1.025" fill="#c3ff00" /><rect x="9.225" y="14.350" width="1.025" height="1.025" fill="#c3ff00" /><rect x="10.250" y="14.350" width="1.025" height="1.025" fill="#c3ff00" /><rect x="11.275" y="14.350" width="1.025" height="1.025" fill="#c3ff00" fill-opacity="0.341" /><rect x="13.325" y="14.350" width="1.025" height="1.025" fill="#b0d156" /><rect x="14.350" y="14.350" width="1.025" height="1.025" fill="#b0d156" /><rect x="15.375" y="14.350" width="1.025" height="1.025" fill="#ffffff" /><rect x="16.400" y="14.350" width="1.025" height="1.025" fill="#d9ff5c" /><rect x="17.425" y="14.350" width="1.025" height="1.025" fill="#ffffff" /><rect x="18.450" y="14.350" width="1.025" height="1.025" fill="#ffffff" /><rect x="19.475" y="14.350" width="1.025" height="1.025" fill="#e7ff97" /><rect x="20.500" y="14.350" width="1.025" height="1.025" fill="#d5f46e" /><rect x="21.525" y="14.350" width="1.025" height="1.025" fill="#c3ff00" /><rect x="22.550" y="14.350" width="1.025" height="1.025" fill="#ffffff" /><rect x="23.575" y="14.350" width="1.025" height="1.025" fill="#ffffff" /><rect x="24.600" y="14.350" width="1.025" height="1.025" fill="#ecffac" /><rect x="25.625" y="14.350" width="1.025" height="1.025" fill="#64cb7f" /><rect x="26.650" y="14.350" width="1.025" height="1.025" fill="#28aace" /><rect x="28.700" y="14.350" width="1.025" height="1.025" fill="#c3ff00" fill-opacity="0.698" /><rect x="29.725" y="14.350" width="1.025" height="1.025" fill="#c3ff00" /><rect x="30.750" y="14.350" width="1.025" height="1.025" fill="#c3ff00" /><rect x="31.775" y="14.350" width="1.025" height="1.025" fill="#c3ff00" /><rect x="32.800" y="14.350" width="1.025" height="1.025" fill="#c3ff00" /><rect x="33.825" y="14.350" width="1.025" height="1.025" fill="#c3ff00" fill-opacity="0.486" /><rect x="6.150" y="15.375" width="1.025" height="1.025" fill="#bbee14" /><rect x="14.350" y="15.375" width="1.025" height="1.025" fill="#c3ff00" /><rect x="15.375" y="15.375" width="1.025" height="1.025" fill="#d5f46e" /><rect x="16.400" y="15.375" width="1.025" height="1.025" fill="#dfedb0" /><rect x="17.425" y="15.375" width="1.025" height="1.025" fill="#cfff33" /><rect x="18.450" y="15.375" width="1.025" height="1.025" fill="#d9ff5c" /><rect x="19.475" y="15.375" width="1.025" height="1.025" fill="#cfff33" /><rect x="20.500" y="15.375" width="1.025" height="1.025" fill="#c3ff00" /><rect x="21.525" y="15.375" width="1.025" height="1.025" fill="#edfbba" /><rect x="22.550" y="15.375" width="1.025" height="1.025" fill="#e1ff7d" /><rect x="23.575" y="15.375" width="1.025" height="1.025" fill="#cfff33" /><rect x="24.600" y="15.375" width="1.025" height="1.025" fill="#d9ff5c" /><rect x="25.625" y="15.375" width="1.025" height="1.025" fill="#c3ff00" /><rect x="26.650" y="15.375" width="1.025" height="1.025" fill="#c3ff00" /><rect x="29.725" y="15.375" width="1.025" height="1.025" fill="#47bba6" fill-opacity="0.698" /><rect x="31.775" y="15.375" width="1.025" height="1.025" fill="#c3ff00" /><rect x="11.275" y="16.400" width="1.025" height="1.025" fill="#c3ff00" /><rect x="12.300" y="16.400" width="1.025" height="1.025" fill="#c3ff00" /><rect x="13.325" y="16.400" width="1.025" height="1.025" fill="#c3ff00" /><rect x="14.350" y="16.400" width="1.025" height="1.025" fill="#c3ff00" fill-opacity="0.698" /><rect x="15.375" y="16.400" width="1.025" height="1.025" fill="#d9f18d" fill-opacity="0.698" /><rect x="16.400" y="16.400" width="1.025" height="1.025" fill="#c3ff00" /><rect x="17.425" y="16.400" width="1.025" height="1.025" fill="#d5f46e" /><rect x="18.450" y="16.400" width="1.025" height="1.025" fill="#c3ff00" /><rect x="19.475" y="16.400" width="1.025" height="1.025" fill="#d5f46e" /><rect x="20.500" y="16.400" width="1.025" height="1.025" fill="#dfedb0" /><rect x="21.525" y="16.400" width="1.025" height="1.025" fill="#c3ff00" /><rect x="23.575" y="16.400" width="1.025" height="1.025" fill="#c3ff00" /><rect x="24.600" y="16.400" width="1.025" height="1.025" fill="#64cb7f" /><rect x="25.625" y="16.400" width="1.025" height="1.025" fill="#ffffff" /><rect x="27.675" y="16.400" width="1.025" height="1.025" fill="#c3ff00" /><rect x="33.825" y="16.400" width="1.025" height="1.025" fill="#ffffff" /><rect x="18.450" y="17.425" width="1.025" height="1.025" fill="#d5f46e" /><rect x="20.500" y="17.425" width="1.025" height="1.025" fill="#d1f65a" /><rect x="21.525" y="17.425" width="1.025" height="1.025" fill="#d5f46e" /><rect x="22.550" y="17.425" width="1.025" height="1.025" fill="#dfedb0" /><rect x="23.575" y="17.425" width="1.025" height="1.025" fill="#d5f46e" /><rect x="25.625" y="17.425" width="1.025" height="1.025" fill="#28aace" /><rect x="29.725" y="17.425" width="1.025" height="1.025" fill="#a5ee29" /><rect x="16.400" y="18.450" width="1.025" height="1.025" fill="#d5f470" /><rect x="22.550" y="18.450" width="1.025" height="1.025" fill="#dfedb0" /><rect x="24.600" y="18.450" width="1.025" height="1.025" fill="#64cb7f" fill-opacity="0.698" /><rect x="26.650" y="18.450" width="1.025" height="1.025" fill="#28aace" fill-opacity="0.698" /><rect x="24.600" y="19.475" width="1.025" height="1.025" fill="#404336" fill-opacity="0.020" /></svg>