<svg xmlns="http://www.w3.org/2000/svg" width="37.925" height="37.925" shape-rendering="crispEdges" style="image-rendering: pixelated;"><rect x="13.325" y="17.425" width="1.025" height="1.025" fill="#a67700" /><rect x="14.350" y="17.425" width="1.025" height="1.025" fill="#a67700" /><rect x="15.375" y="17.425" width="1.025" height="1.025" fill="#a67700" /><rect x="16.400" y="17.425" width="1.025" height="1.025" fill="#a67700" /><rect x="17.425" y="17.425" width="1.025" height="1.025" fill="#a67700" /><rect x="18.450" y="17.425" width="1.025" height="1.025" fill="#a67700" /><rect x="19.475" y="17.425" width="1.025" height="1.025" fill="#ffee9b" /><rect x="23.575" y="17.425" width="1.025" height="1.025" fill="#a67700" /><rect x="24.600" y="17.425" width="1.025" height="1.025" fill="#a67700" /><rect x="25.625" y="17.425" width="1.025" height="1.025" fill="#a67700" /><rect x="26.650" y="17.425" width="1.025" height="1.025" fill="#a67700" /><rect x="27.675" y="17.425" width="1.025" height="1.025" fill="#a67700" /><rect x="28.700" y="17.425" width="1.025" height="1.025" fill="#ffee9b" /><rect x="13.325" y="18.450" width="1.025" height="1.025" fill="#a67700" /><rect x="14.350" y="18.450" width="1.025" height="1.025" fill="#686868" /><rect x="15.375" y="18.450" width="1.025" height="1.025" fill="#686868" /><rect x="16.400" y="18.450" width="1.025" height="1.025" fill="#686868" /><rect x="17.425" y="18.450" width="1.025" height="1.025" fill="#686868" /><rect x="18.450" y="18.450" width="1.025" height="1.025" fill="#a67700" /><rect x="19.475" y="18.450" width="1.025" height="1.025" fill="#ffdf42" /><rect x="20.500" y="18.450" width="1.025" height="1.025" fill="#ffffff" /><rect x="21.525" y="18.450" width="1.025" height="1.025" fill="#ffffff" /><rect x="22.550" y="18.450" width="1.025" height="1.025" fill="#ffffff" /><rect x="23.575" y="18.450" width="1.025" height="1.025" fill="#ffffff" /><rect x="24.600" y="18.450" width="1.025" height="1.025" fill="#ffffff" /><rect x="25.625" y="18.450" width="1.025" height="1.025" fill="#ffffff" /><rect x="26.650" y="18.450" width="1.025" height="1.025" fill="#ffffff" /><rect x="27.675" y="18.450" width="1.025" height="1.025" fill="#ffffff" /><rect x="28.700" y="18.450" width="1.025" height="1.025" fill="#ffffff" /><rect x="29.725" y="18.450" width="1.025" height="1.025" fill="#ffffff" /><rect x="30.750" y="18.450" width="1.025" height="1.025" fill="#ffffff" /><rect x="31.775" y="18.450" width="1.025" height="1.025" fill="#ffffff" /><rect x="32.800" y="18.450" width="1.025" height="1.025" fill="#ffffff" /><rect x="33.825" y="18.450" width="1.025" height="1.025" fill="#ffffff" /><rect x="34.850" y="18.450" width="1.025" height="1.025" fill="#ffffff" /><rect x="35.875" y="18.450" width="1.025" height="1.025" fill="#ffffff" /><rect x="36.900" y="18.450" width="1.025" height="1.025" fill="#ffffff" /><rect x="13.325" y="19.475" width="1.025" height="1.025" fill="#a67700" /><rect x="14.350" y="19.475" width="1.025" height="1.025" fill="#686868" /><rect x="15.375" y="19.475" width="1.025" height="1.025" fill="#686868" /><rect x="16.400" y="19.475" width="1.025" height="1.025" fill="#a67700" /><rect x="17.425" y="19.475" width="1.025" height="1.025" fill="#a67700" /><rect x="18.450" y="19.475" width="1.025" height="1.025" fill="#a67700" /><rect x="19.475" y="19.475" width="1.025" height="1.025" fill="#ffd400" /><rect x="20.500" y="19.475" width="1.025" height="1.025" fill="#ffffff" /><rect x="21.525" y="19.475" width="1.025" height="1.025" fill="#ffffff" /><rect x="22.550" y="19.475" width="1.025" height="1.025" fill="#ffffff" /><rect x="23.575" y="19.475" width="1.025" height="1.025" fill="#ffffff" /><rect x="24.600" y="19.475" width="1.025" height="1.025" fill="#ffffff" /><rect x="25.625" y="19.475" width="1.025" height="1.025" fill="#ffffff" /><rect x="26.650" y="19.475" width="1.025" height="1.025" fill="#d3bb80" /><rect x="27.675" y="19.475" width="1.025" height="1.025" fill="#d3bb80" /><rect x="28.700" y="19.475" width="1.025" height="1.025" fill="#ffffff" /><rect x="29.725" y="19.475" width="1.025" height="1.025" fill="#ffffff" fill-opacity="0.400" /><rect x="30.750" y="19.475" width="1.025" height="1.025" fill="#ffffff" /><rect x="31.775" y="19.475" width="1.025" height="1.025" fill="#ffffff" /><rect x="32.800" y="19.475" width="1.025" height="1.025" fill="#ffffff" fill-opacity="0.400" /><rect x="33.825" y="19.475" width="1.025" height="1.025" fill="#ffffff" /><rect x="34.850" y="19.475" width="1.025" height="1.025" fill="#ffffff" /><rect x="35.875" y="19.475" width="1.025" height="1.025" fill="#ffffff" fill-opacity="0.400" /><rect x="36.900" y="19.475" width="1.025" height="1.025" fill="#ffffff" fill-opacity="0.400" /><rect x="13.325" y="20.500" width="1.025" height="1.025" fill="#a67700" /><rect x="14.350" y="20.500" width="1.025" height="1.025" fill="#686868" /><rect x="15.375" y="20.500" width="1.025" height="1.025" fill="#686868" /><rect x="16.400" y="20.500" width="1.025" height="1.025" fill="#a67700" /><rect x="17.425" y="20.500" width="1.025" height="1.025" fill="#ffdf42" /><rect x="18.450" y="20.500" width="1.025" height="1.025" fill="#ffffff" /><rect x="19.475" y="20.500" width="1.025" height="1.025" fill="#ffffff" /><rect x="20.500" y="20.500" width="1.025" height="1.025" fill="#ffffff" /><rect x="21.525" y="20.500" width="1.025" height="1.025" fill="#ffffff" /><rect x="22.550" y="20.500" width="1.025" height="1.025" fill="#ffffff" /><rect x="23.575" y="20.500" width="1.025" height="1.025" fill="#ffffff" /><rect x="24.600" y="20.500" width="1.025" height="1.025" fill="#ffffff" /><rect x="25.625" y="20.500" width="1.025" height="1.025" fill="#d3bb80" /><rect x="26.650" y="20.500" width="1.025" height="1.025" fill="#ffea80" /><rect x="27.675" y="20.500" width="1.025" height="1.025" fill="#ffffff" fill-opacity="0.400" /><rect x="28.700" y="20.500" width="1.025" height="1.025" fill="#ffffff" fill-opacity="0.400" /><rect x="29.725" y="20.500" width="1.025" height="1.025" fill="#ffffff" fill-opacity="0.400" /><rect x="30.750" y="20.500" width="1.025" height="1.025" fill="#ffffff" fill-opacity="0.400" /><rect x="31.775" y="20.500" width="1.025" height="1.025" fill="#ffffff" fill-opacity="0.400" /><rect x="32.800" y="20.500" width="1.025" height="1.025" fill="#ffffff" fill-opacity="0.400" /><rect x="33.825" y="20.500" width="1.025" height="1.025" fill="#ffffff" fill-opacity="0.400" /><rect x="34.850" y="20.500" width="1.025" height="1.025" fill="#ffffff" fill-opacity="0.400" /><rect x="35.875" y="20.500" width="1.025" height="1.025" fill="#ffffff" fill-opacity="0.400" /><rect x="36.900" y="20.500" width="1.025" height="1.025" fill="#ffffff" fill-opacity="0.400" /><rect x="13.325" y="21.525" width="1.025" height="1.025" fill="#a67700" /><rect x="14.350" y="21.525" width="1.025" height="1.025" fill="#a67700" /><rect x="15.375" y="21.525" width="1.025" height="1.025" fill="#686868" /><rect x="16.400" y="21.525" width="1.025" height="1.025" fill="#a67700" /><rect x="17.425" y="21.525" width="1.025" height="1.025" fill="#ffdf42" /><rect x="18.450" y="21.525" width="1.025" height="1.025" fill="#ffffff" /><rect x="19.475" y="21.525" width="1.025" height="1.025" fill="#ffffff" /><rect x="20.500" y="21.525" width="1.025" height="1.025" fill="#ffffff" /><rect x="21.525" y="21.525" width="1.025" height="1.025" fill="#ffffff" /><rect x="22.550" y="21.525" width="1.025" height="1.025" fill="#ffffff" /><rect x="23.575" y="21.525" width="1.025" height="1.025" fill="#ffffff" /><rect x="24.600" y="21.525" width="1.025" height="1.025" fill="#ffffff" /><rect x="25.625" y="21.525" width="1.025" height="1.025" fill="#ffffff" /><rect x="26.650" y="21.525" width="1.025" height="1.025" fill="#ffffff" /><rect x="27.675" y="21.525" width="1.025" height="1.025" fill="#ffffff" /><rect x="28.700" y="21.525" width="1.025" height="1.025" fill="#ffffff" /><rect x="29.725" y="21.525" width="1.025" height="1.025" fill="#ffffff" /><rect x="30.750" y="21.525" width="1.025" height="1.025" fill="#ffffff" fill-opacity="0.400" /><rect x="31.775" y="21.525" width="1.025" height="1.025" fill="#ffffff" /><rect x="32.800" y="21.525" width="1.025" height="1.025" fill="#ffffff" fill-opacity="0.400" /><rect x="33.825" y="21.525" width="1.025" height="1.025" fill="#ffffff" /><rect x="34.850" y="21.525" width="1.025" height="1.025" fill="#ffffff" /><rect x="35.875" y="21.525" width="1.025" height="1.025" fill="#ffffff" fill-opacity="0.400" /><rect x="36.900" y="21.525" width="1.025" height="1.025" fill="#ffffff" /><rect x="13.325" y="22.550" width="1.025" height="1.025" fill="#a67700" /><rect x="14.350" y="22.550" width="1.025" height="1.025" fill="#686868" /><rect x="15.375" y="22.550" width="1.025" height="1.025" fill="#686868" /><rect x="16.400" y="22.550" width="1.025" height="1.025" fill="#a67700" /><rect x="17.425" y="22.550" width="1.025" height="1.025" fill="#ffd400" /><rect x="18.450" y="22.550" width="1.025" height="1.025" fill="#ffffff" /><rect x="19.475" y="22.550" width="1.025" height="1.025" fill="#ffffff" /><rect x="20.500" y="22.550" width="1.025" height="1.025" fill="#ffffff" /><rect x="21.525" y="22.550" width="1.025" height="1.025" fill="#ffffff" /><rect x="22.550" y="22.550" width="1.025" height="1.025" fill="#ffffff" /><rect x="23.575" y="22.550" width="1.025" height="1.025" fill="#ffffff" /><rect x="24.600" y="22.550" width="1.025" height="1.025" fill="#ffffff" /><rect x="25.625" y="22.550" width="1.025" height="1.025" fill="#d3bb80" /><rect x="26.650" y="22.550" width="1.025" height="1.025" fill="#ffea80" /><rect x="27.675" y="22.550" width="1.025" height="1.025" fill="#ffffff" fill-opacity="0.400" /><rect x="28.700" y="22.550" width="1.025" height="1.025" fill="#ffffff" fill-opacity="0.400" /><rect x="29.725" y="22.550" width="1.025" height="1.025" fill="#ffffff" fill-opacity="0.400" /><rect x="30.750" y="22.550" width="1.025" height="1.025" fill="#ffffff" fill-opacity="0.400" /><rect x="31.775" y="22.550" width="1.025" height="1.025" fill="#ffffff" fill-opacity="0.400" /><rect x="32.800" y="22.550" width="1.025" height="1.025" fill="#ffffff" fill-opacity="0.400" /><rect x="33.825" y="22.550" width="1.025" height="1.025" fill="#ffffff" fill-opacity="0.400" /><rect x="34.850" y="22.550" width="1.025" height="1.025" fill="#ffffff" fill-opacity="0.400" /><rect x="35.875" y="22.550" width="1.025" height="1.025" fill="#ffffff" fill-opacity="0.400" /><rect x="36.900" y="22.550" width="1.025" height="1.025" fill="#ffffff" fill-opacity="0.400" /><rect x="13.325" y="23.575" width="1.025" height="1.025" fill="#a67700" /><rect x="14.350" y="23.575" width="1.025" height="1.025" fill="#686868" /><rect x="15.375" y="23.575" width="1.025" height="1.025" fill="#a67700" /><rect x="16.400" y="23.575" width="1.025" height="1.025" fill="#a67700" /><rect x="17.425" y="23.575" width="1.025" height="1.025" fill="#a67700" /><rect x="18.450" y="23.575" width="1.025" height="1.025" fill="#a67700" /><rect x="19.475" y="23.575" width="1.025" height="1.025" fill="#ffee9b" /><rect x="20.500" y="23.575" width="1.025" height="1.025" fill="#ffffff" /><rect x="21.525" y="23.575" width="1.025" height="1.025" fill="#ffffff" /><rect x="22.550" y="23.575" width="1.025" height="1.025" fill="#ffffff" /><rect x="23.575" y="23.575" width="1.025" height="1.025" fill="#ffffff" /><rect x="24.600" y="23.575" width="1.025" height="1.025" fill="#ffffff" /><rect x="25.625" y="23.575" width="1.025" height="1.025" fill="#ffffff" /><rect x="26.650" y="23.575" width="1.025" height="1.025" fill="#ffffff" /><rect x="27.675" y="23.575" width="1.025" height="1.025" fill="#d3bb80" /><rect x="28.700" y="23.575" width="1.025" height="1.025" fill="#ffffff" /><rect x="29.725" y="23.575" width="1.025" height="1.025" fill="#ffffff" fill-opacity="0.400" /><rect x="30.750" y="23.575" width="1.025" height="1.025" fill="#ffffff" fill-opacity="0.400" /><rect x="31.775" y="23.575" width="1.025" height="1.025" fill="#ffffff" /><rect x="32.800" y="23.575" width="1.025" height="1.025" fill="#ffffff" /><rect x="33.825" y="23.575" width="1.025" height="1.025" fill="#ffffff" /><rect x="34.850" y="23.575" width="1.025" height="1.025" fill="#ffffff" /><rect x="35.875" y="23.575" width="1.025" height="1.025" fill="#ffffff" /><rect x="36.900" y="23.575" width="1.025" height="1.025" fill="#ffffff" /><rect x="13.325" y="24.600" width="1.025" height="1.025" fill="#a67700" /><rect x="14.350" y="24.600" width="1.025" height="1.025" fill="#686868" /><rect x="15.375" y="24.600" width="1.025" height="1.025" fill="#686868" /><rect x="16.400" y="24.600" width="1.025" height="1.025" fill="#686868" /><rect x="17.425" y="24.600" width="1.025" height="1.025" fill="#686868" /><rect x="18.450" y="24.600" width="1.025" height="1.025" fill="#a67700" /><rect x="19.475" y="24.600" width="1.025" height="1.025" fill="#ffdf42" /><rect x="20.500" y="24.600" width="1.025" height="1.025" fill="#ffffff" /><rect x="21.525" y="24.600" width="1.025" height="1.025" fill="#ffffff" /><rect x="22.550" y="24.600" width="1.025" height="1.025" fill="#ffffff" /><rect x="23.575" y="24.600" width="1.025" height="1.025" fill="#ffffff" /><rect x="24.600" y="24.600" width="1.025" height="1.025" fill="#ffffff" /><rect x="25.625" y="24.600" width="1.025" height="1.025" fill="#d3bb80" /><rect x="26.650" y="24.600" width="1.025" height="1.025" fill="#d3bb80" /><rect x="27.675" y="24.600" width="1.025" height="1.025" fill="#d3bb80" /><rect x="28.700" y="24.600" width="1.025" height="1.025" fill="#ffefa1" /><rect x="29.725" y="24.600" width="1.025" height="1.025" fill="#ffffff" fill-opacity="0.400" /><rect x="30.750" y="24.600" width="1.025" height="1.025" fill="#ffffff" fill-opacity="0.400" /><rect x="31.775" y="24.600" width="1.025" height="1.025" fill="#ffffff" fill-opacity="0.400" /><rect x="32.800" y="24.600" width="1.025" height="1.025" fill="#ffffff" fill-opacity="0.400" /><rect x="33.825" y="24.600" width="1.025" height="1.025" fill="#ffffff" fill-opacity="0.400" /><rect x="34.850" y="24.600" width="1.025" height="1.025" fill="#ffffff" fill-opacity="0.400" /><rect x="35.875" y="24.600" width="1.025" height="1.025" fill="#ffffff" fill-opacity="0.400" /><rect x="36.900" y="24.600" width="1.025" height="1.025" fill="#ffffff" fill-opacity="0.400" /><rect x="13.325" y="25.625" width="1.025" height="1.025" fill="#a67700" /><rect x="14.350" y="25.625" width="1.025" height="1.025" fill="#686868" /><rect x="15.375" y="25.625" width="1.025" height="1.025" fill="#686868" /><rect x="16.400" y="25.625" width="1.025" height="1.025" fill="#686868" /><rect x="17.425" y="25.625" width="1.025" height="1.025" fill="#a67700" /><rect x="18.450" y="25.625" width="1.025" height="1.025" fill="#a67700" /><rect x="19.475" y="25.625" width="1.025" height="1.025" fill="#ffd400" /><rect x="20.500" y="25.625" width="1.025" height="1.025" fill="#ffffff" /><rect x="21.525" y="25.625" width="1.025" height="1.025" fill="#ffffff" /><rect x="22.550" y="25.625" width="1.025" height="1.025" fill="#ffffff" /><rect x="23.575" y="25.625" width="1.025" height="1.025" fill="#ffffff" /><rect x="24.600" y="25.625" width="1.025" height="1.025" fill="#ffffff" /><rect x="25.625" y="25.625" width="1.025" height="1.025" fill="#ffffff" /><rect x="26.650" y="25.625" width="1.025" height="1.025" fill="#d3bb80" /><rect x="27.675" y="25.625" width="1.025" height="1.025" fill="#d3bb80" /><rect x="28.700" y="25.625" width="1.025" height="1.025" fill="#ffffff" /><rect x="29.725" y="25.625" width="1.025" height="1.025" fill="#ffffff" /><rect x="30.750" y="25.625" width="1.025" height="1.025" fill="#ffffff" /><rect x="31.775" y="25.625" width="1.025" height="1.025" fill="#ffffff" /><rect x="32.800" y="25.625" width="1.025" height="1.025" fill="#ffffff" fill-opacity="0.400" /><rect x="33.825" y="25.625" width="1.025" height="1.025" fill="#ffffff" /><rect x="34.850" y="25.625" width="1.025" height="1.025" fill="#ffffff" /><rect x="35.875" y="25.625" width="1.025" height="1.025" fill="#ffffff" fill-opacity="0.400" /><rect x="36.900" y="25.625" width="1.025" height="1.025" fill="#ffffff" fill-opacity="0.400" /><rect x="13.325" y="26.650" width="1.025" height="1.025" fill="#a67700" /><rect x="14.350" y="26.650" width="1.025" height="1.025" fill="#686868" /><rect x="15.375" y="26.650" width="1.025" height="1.025" fill="#a67700" /><rect x="16.400" y="26.650" width="1.025" height="1.025" fill="#686868" /><rect x="17.425" y="26.650" width="1.025" height="1.025" fill="#686868" /><rect x="18.450" y="26.650" width="1.025" height="1.025" fill="#a67700" /><rect x="19.475" y="26.650" width="1.025" height="1.025" fill="#ffd400" /><rect x="20.500" y="26.650" width="1.025" height="1.025" fill="#ffffff" /><rect x="21.525" y="26.650" width="1.025" height="1.025" fill="#ffffff" /><rect x="22.550" y="26.650" width="1.025" height="1.025" fill="#ffffff" /><rect x="23.575" y="26.650" width="1.025" height="1.025" fill="#ffffff" /><rect x="24.600" y="26.650" width="1.025" height="1.025" fill="#ffffff" /><rect x="25.625" y="26.650" width="1.025" height="1.025" fill="#ffffff" /><rect x="26.650" y="26.650" width="1.025" height="1.025" fill="#ffffff" /><rect x="27.675" y="26.650" width="1.025" height="1.025" fill="#ffffff" /><rect x="28.700" y="26.650" width="1.025" height="1.025" fill="#ffffff" /><rect x="29.725" y="26.650" width="1.025" height="1.025" fill="#ffffff" /><rect x="30.750" y="26.650" width="1.025" height="1.025" fill="#ffffff" /><rect x="31.775" y="26.650" width="1.025" height="1.025" fill="#ffffff" /><rect x="32.800" y="26.650" width="1.025" height="1.025" fill="#ffffff" /><rect x="33.825" y="26.650" width="1.025" height="1.025" fill="#ffffff" /><rect x="34.850" y="26.650" width="1.025" height="1.025" fill="#ffffff" /><rect x="35.875" y="26.650" width="1.025" height="1.025" fill="#ffffff" /><rect x="36.900" y="26.650" width="1.025" height="1.025" fill="#ffffff" /><rect x="13.325" y="27.675" width="1.025" height="1.025" fill="#a67700" /><rect x="14.350" y="27.675" width="1.025" height="1.025" fill="#a67700" /><rect x="15.375" y="27.675" width="1.025" height="1.025" fill="#a67700" /><rect x="16.400" y="27.675" width="1.025" height="1.025" fill="#a67700" /><rect x="17.425" y="27.675" width="1.025" height="1.025" fill="#a67700" /><rect x="18.450" y="27.675" width="1.025" height="1.025" fill="#a67700" /><rect x="19.475" y="27.675" width="1.025" height="1.025" fill="#ffd400" /><rect x="20.500" y="27.675" width="1.025" height="1.025" fill="#ffd400" /><rect x="21.525" y="27.675" width="1.025" height="1.025" fill="#ffd400" /><rect x="22.550" y="27.675" width="1.025" height="1.025" fill="#ffd400" /><rect x="23.575" y="27.675" width="1.025" height="1.025" fill="#ffd400" /><rect x="24.600" y="27.675" width="1.025" height="1.025" fill="#ffd400" /><rect x="25.625" y="27.675" width="1.025" height="1.025" fill="#ffd400" /><rect x="26.650" y="27.675" width="1.025" height="1.025" fill="#ffd400" /><rect x="27.675" y="27.675" width="1.025" height="1.025" fill="#ffd400" /><rect x="28.700" y="27.675" width="1.025" height="1.025" fill="#ffd400" /><rect x="17.425" y="28.700" width="1.025" height="1.025" fill="#a67700" /><rect x="18.450" y="28.700" width="1.025" height="1.025" fill="#a67700" /><rect x="19.475" y="28.700" width="1.025" height="1.025" fill="#ffd400" /><rect x="20.500" y="28.700" width="1.025" height="1.025" fill="#ffd400" /><rect x="21.525" y="28.700" width="1.025" height="1.025" fill="#ffd400" /><rect x="22.550" y="28.700" width="1.025" height="1.025" fill="#ffd400" /><rect x="23.575" y="28.700" width="1.025" height="1.025" fill="#ffd400" /><rect x="24.600" y="28.700" width="1.025" height="1.025" fill="#ffd400" /><rect x="25.625" y="28.700" width="1.025" height="1.025" fill="#ffd400" /><rect x="26.650" y="28.700" width="1.025" height="1.025" fill="#ffd400" /><rect x="27.675" y="28.700" width="1.025" height="1.025" fill="#ffd400" /><rect x="28.700" y="28.700" width="1.025" height="1.025" fill="#ffd400" /></svg>