<svg xmlns="http://www.w3.org/2000/svg" width="37.925" height="37.925" shape-rendering="crispEdges" style="image-rendering: pixelated;"><rect x="19.475" y="19.475" width="1.025" height="1.025" fill="#ef767a" /><rect x="20.500" y="19.475" width="1.025" height="1.025" fill="#ef767a" /><rect x="21.525" y="19.475" width="1.025" height="1.025" fill="#ef767a" /><rect x="22.550" y="19.475" width="1.025" height="1.025" fill="#ef767a" /><rect x="23.575" y="19.475" width="1.025" height="1.025" fill="#ef767a" /><rect x="19.475" y="20.500" width="1.025" height="1.025" fill="#ef767a" /><rect x="20.500" y="20.500" width="1.025" height="1.025" fill="#cfcfcf" /><rect x="21.525" y="20.500" width="1.025" height="1.025" fill="#cfcfcf" /><rect x="22.550" y="20.500" width="1.025" height="1.025" fill="#cfcfcf" /><rect x="23.575" y="20.500" width="1.025" height="1.025" fill="#ef767a" /><rect x="19.475" y="21.525" width="1.025" height="1.025" fill="#ef767a" /><rect x="20.500" y="21.525" width="1.025" height="1.025" fill="#ffffff" /><rect x="21.525" y="21.525" width="1.025" height="1.025" fill="#ffffff" /><rect x="22.550" y="21.525" width="1.025" height="1.025" fill="#ffffff" /><rect x="23.575" y="21.525" width="1.025" height="1.025" fill="#ef767a" /><rect x="19.475" y="22.550" width="1.025" height="1.025" fill="#ef767a" /><rect x="20.500" y="22.550" width="1.025" height="1.025" fill="#2f1919" /><rect x="21.525" y="22.550" width="1.025" height="1.025" fill="#331b1b" /><rect x="22.550" y="22.550" width="1.025" height="1.025" fill="#391e1e" /><rect x="23.575" y="22.550" width="1.025" height="1.025" fill="#ef767a" /><rect x="28.700" y="22.550" width="1.025" height="1.025" fill="#cb3030" /><rect x="29.725" y="22.550" width="1.025" height="1.025" fill="#f54747" /><rect x="30.750" y="22.550" width="1.025" height="1.025" fill="#f54747" /><rect x="19.475" y="23.575" width="1.025" height="1.025" fill="#ef767a" /><rect x="20.500" y="23.575" width="1.025" height="1.025" fill="#cb3030" /><rect x="21.525" y="23.575" width="1.025" height="1.025" fill="#cb3030" /><rect x="22.550" y="23.575" width="1.025" height="1.025" fill="#cb3030" /><rect x="23.575" y="23.575" width="1.025" height="1.025" fill="#cb3030" /><rect x="24.600" y="23.575" width="1.025" height="1.025" fill="#f54747" /><rect x="25.625" y="23.575" width="1.025" height="1.025" fill="#f54747" /><rect x="19.475" y="24.600" width="1.025" height="1.025" fill="#ef767a" /><rect x="20.500" y="24.600" width="1.025" height="1.025" fill="#2f1919" /><rect x="21.525" y="24.600" width="1.025" height="1.025" fill="#331b1b" /><rect x="22.550" y="24.600" width="1.025" height="1.025" fill="#391e1e" /><rect x="23.575" y="24.600" width="1.025" height="1.025" fill="#cb3030" /><rect x="24.600" y="24.600" width="1.025" height="1.025" fill="#f54747" /><rect x="25.625" y="24.600" width="1.025" height="1.025" fill="#f54747" /><rect x="19.475" y="25.625" width="1.025" height="1.025" fill="#ef767a" /><rect x="20.500" y="25.625" width="1.025" height="1.025" fill="#2f1919" /><rect x="21.525" y="25.625" width="1.025" height="1.025" fill="#331b1b" /><rect x="22.550" y="25.625" width="1.025" height="1.025" fill="#391e1e" /><rect x="23.575" y="25.625" width="1.025" height="1.025" fill="#cb3030" /><rect x="24.600" y="25.625" width="1.025" height="1.025" fill="#f54747" /><rect x="25.625" y="25.625" width="1.025" height="1.025" fill="#f54747" /><rect x="28.700" y="25.625" width="1.025" height="1.025" fill="#cb3030" /><rect x="29.725" y="25.625" width="1.025" height="1.025" fill="#f54747" /><rect x="30.750" y="25.625" width="1.025" height="1.025" fill="#f54747" /><rect x="19.475" y="26.650" width="1.025" height="1.025" fill="#ef767a" /><rect x="20.500" y="26.650" width="1.025" height="1.025" fill="#2f1919" /><rect x="21.525" y="26.650" width="1.025" height="1.025" fill="#331b1b" /><rect x="22.550" y="26.650" width="1.025" height="1.025" fill="#391e1e" /><rect x="23.575" y="26.650" width="1.025" height="1.025" fill="#cb3030" /><rect x="24.600" y="26.650" width="1.025" height="1.025" fill="#f54747" /><rect x="25.625" y="26.650" width="1.025" height="1.025" fill="#f54747" /><rect x="19.475" y="27.675" width="1.025" height="1.025" fill="#ef767a" /><rect x="20.500" y="27.675" width="1.025" height="1.025" fill="#2f1919" /><rect x="21.525" y="27.675" width="1.025" height="1.025" fill="#331b1b" /><rect x="22.550" y="27.675" width="1.025" height="1.025" fill="#391e1e" /><rect x="23.575" y="27.675" width="1.025" height="1.025" fill="#cb3030" /><rect x="24.600" y="27.675" width="1.025" height="1.025" fill="#f54747" /><rect x="25.625" y="27.675" width="1.025" height="1.025" fill="#f54747" /><rect x="28.700" y="27.675" width="1.025" height="1.025" fill="#cb3030" /><rect x="29.725" y="27.675" width="1.025" height="1.025" fill="#f54747" /><rect x="30.750" y="27.675" width="1.025" height="1.025" fill="#f54747" /><rect x="19.475" y="28.700" width="1.025" height="1.025" fill="#ef767a" /><rect x="20.500" y="28.700" width="1.025" height="1.025" fill="#2f1919" /><rect x="21.525" y="28.700" width="1.025" height="1.025" fill="#331b1b" /><rect x="22.550" y="28.700" width="1.025" height="1.025" fill="#391e1e" /><rect x="23.575" y="28.700" width="1.025" height="1.025" fill="#cb3030" /><rect x="24.600" y="28.700" width="1.025" height="1.025" fill="#f54747" /><rect x="25.625" y="28.700" width="1.025" height="1.025" fill="#f54747" /><rect x="19.475" y="29.725" width="1.025" height="1.025" fill="#ef767a" /><rect x="20.500" y="29.725" width="1.025" height="1.025" fill="#2f1919" /><rect x="21.525" y="29.725" width="1.025" height="1.025" fill="#331b1b" /><rect x="22.550" y="29.725" width="1.025" height="1.025" fill="#391e1e" /><rect x="23.575" y="29.725" width="1.025" height="1.025" fill="#cb3030" /><rect x="24.600" y="29.725" width="1.025" height="1.025" fill="#f54747" /><rect x="25.625" y="29.725" width="1.025" height="1.025" fill="#f54747" /><rect x="28.700" y="29.725" width="1.025" height="1.025" fill="#cb3030" /><rect x="29.725" y="29.725" width="1.025" height="1.025" fill="#f54747" /><rect x="30.750" y="29.725" width="1.025" height="1.025" fill="#f54747" /><rect x="19.475" y="30.750" width="1.025" height="1.025" fill="#ef767a" /><rect x="20.500" y="30.750" width="1.025" height="1.025" fill="#2f1919" /><rect x="21.525" y="30.750" width="1.025" height="1.025" fill="#331b1b" /><rect x="22.550" y="30.750" width="1.025" height="1.025" fill="#391e1e" /><rect x="23.575" y="30.750" width="1.025" height="1.025" fill="#cb3030" /><rect x="24.600" y="30.750" width="1.025" height="1.025" fill="#f54747" /><rect x="25.625" y="30.750" width="1.025" height="1.025" fill="#f54747" /><rect x="19.475" y="31.775" width="1.025" height="1.025" fill="#ef767a" /><rect x="20.500" y="31.775" width="1.025" height="1.025" fill="#2f1919" /><rect x="21.525" y="31.775" width="1.025" height="1.025" fill="#331b1b" /><rect x="22.550" y="31.775" width="1.025" height="1.025" fill="#391e1e" /><rect x="23.575" y="31.775" width="1.025" height="1.025" fill="#cb3030" /><rect x="24.600" y="31.775" width="1.025" height="1.025" fill="#f54747" /><rect x="25.625" y="31.775" width="1.025" height="1.025" fill="#f54747" /><rect x="28.700" y="31.775" width="1.025" height="1.025" fill="#cb3030" /><rect x="29.725" y="31.775" width="1.025" height="1.025" fill="#f54747" /><rect x="30.750" y="31.775" width="1.025" height="1.025" fill="#f54747" /><rect x="19.475" y="32.800" width="1.025" height="1.025" fill="#ef767a" /><rect x="20.500" y="32.800" width="1.025" height="1.025" fill="#2f1919" /><rect x="21.525" y="32.800" width="1.025" height="1.025" fill="#331b1b" /><rect x="22.550" y="32.800" width="1.025" height="1.025" fill="#391e1e" /><rect x="23.575" y="32.800" width="1.025" height="1.025" fill="#cb3030" /><rect x="24.600" y="32.800" width="1.025" height="1.025" fill="#f54747" /><rect x="25.625" y="32.800" width="1.025" height="1.025" fill="#f54747" /><rect x="28.700" y="32.800" width="1.025" height="1.025" fill="#cb3030" /><rect x="29.725" y="32.800" width="1.025" height="1.025" fill="#f54747" /><rect x="30.750" y="32.800" width="1.025" height="1.025" fill="#f54747" /><rect x="19.475" y="33.825" width="1.025" height="1.025" fill="#ef767a" /><rect x="20.500" y="33.825" width="1.025" height="1.025" fill="#ef767a" /><rect x="21.525" y="33.825" width="1.025" height="1.025" fill="#ef767a" /><rect x="22.550" y="33.825" width="1.025" height="1.025" fill="#ef767a" /><rect x="23.575" y="33.825" width="1.025" height="1.025" fill="#cb3030" /><rect x="24.600" y="33.825" width="1.025" height="1.025" fill="#cb3030" /><rect x="25.625" y="33.825" width="1.025" height="1.025" fill="#cb3030" /><rect x="26.650" y="33.825" width="1.025" height="1.025" fill="#cb3030" /><rect x="27.675" y="33.825" width="1.025" height="1.025" fill="#cb3030" /><rect x="28.700" y="33.825" width="1.025" height="1.025" fill="#cb3030" /><rect x="29.725" y="33.825" width="1.025" height="1.025" fill="#f54747" /><rect x="30.750" y="33.825" width="1.025" height="1.025" fill="#f54747" /></svg>