<svg xmlns="http://www.w3.org/2000/svg" width="37.925" height="37.925" shape-rendering="crispEdges" style="image-rendering: pixelated;"><rect x="13.325" y="16.400" width="1.025" height="1.025" fill="#f48c8c" /><rect x="14.350" y="16.400" width="1.025" height="1.025" fill="#f48c8c" /><rect x="15.375" y="16.400" width="1.025" height="1.025" fill="#f48c8c" /><rect x="16.400" y="16.400" width="1.025" height="1.025" fill="#f48c8c" /><rect x="17.425" y="16.400" width="1.025" height="1.025" fill="#f48c8c" /><rect x="18.450" y="16.400" width="1.025" height="1.025" fill="#f48c8c" /><rect x="13.325" y="17.425" width="1.025" height="1.025" fill="#f48c8c" /><rect x="14.350" y="17.425" width="1.025" height="1.025" fill="#d5d5d5" /><rect x="15.375" y="17.425" width="1.025" height="1.025" fill="#d6d6d6" /><rect x="16.400" y="17.425" width="1.025" height="1.025" fill="#d5d5d5" /><rect x="17.425" y="17.425" width="1.025" height="1.025" fill="#321918" /><rect x="18.450" y="17.425" width="1.025" height="1.025" fill="#f48c8c" /><rect x="13.325" y="18.450" width="1.025" height="1.025" fill="#f48c8d" /><rect x="14.350" y="18.450" width="1.025" height="1.025" fill="#ffffff" /><rect x="15.375" y="18.450" width="1.025" height="1.025" fill="#ffffff" /><rect x="16.400" y="18.450" width="1.025" height="1.025" fill="#ffffff" /><rect x="17.425" y="18.450" width="1.025" height="1.025" fill="#4e2b2a" /><rect x="18.450" y="18.450" width="1.025" height="1.025" fill="#f48c8c" /><rect x="13.325" y="19.475" width="1.025" height="1.025" fill="#f58d8d" /><rect x="14.350" y="19.475" width="1.025" height="1.025" fill="#ffffff" /><rect x="15.375" y="19.475" width="1.025" height="1.025" fill="#ffffff" /><rect x="16.400" y="19.475" width="1.025" height="1.025" fill="#ffffff" /><rect x="17.425" y="19.475" width="1.025" height="1.025" fill="#4e2b2a" /><rect x="18.450" y="19.475" width="1.025" height="1.025" fill="#f48c8c" /><rect x="19.475" y="19.475" width="1.025" height="1.025" fill="#f48c8d" /><rect x="20.500" y="19.475" width="1.025" height="1.025" fill="#f48c8c" /><rect x="21.525" y="19.475" width="1.025" height="1.025" fill="#f48c8c" /><rect x="22.550" y="19.475" width="1.025" height="1.025" fill="#f48c8c" /><rect x="23.575" y="19.475" width="1.025" height="1.025" fill="#f48c8c" /><rect x="24.600" y="19.475" width="1.025" height="1.025" fill="#f48c8c" /><rect x="25.625" y="19.475" width="1.025" height="1.025" fill="#f48c8c" /><rect x="26.650" y="19.475" width="1.025" height="1.025" fill="#f48c8c" /><rect x="27.675" y="19.475" width="1.025" height="1.025" fill="#f58d8d" /><rect x="13.325" y="20.500" width="1.025" height="1.025" fill="#f48c8c" /><rect x="14.350" y="20.500" width="1.025" height="1.025" fill="#ffffff" /><rect x="15.375" y="20.500" width="1.025" height="1.025" fill="#ffffff" /><rect x="16.400" y="20.500" width="1.025" height="1.025" fill="#ffffff" /><rect x="17.425" y="20.500" width="1.025" height="1.025" fill="#4e2b2a" /><rect x="18.450" y="20.500" width="1.025" height="1.025" fill="#d6d6d6" /><rect x="19.475" y="20.500" width="1.025" height="1.025" fill="#d6d6d6" /><rect x="20.500" y="20.500" width="1.025" height="1.025" fill="#d5d5d5" /><rect x="21.525" y="20.500" width="1.025" height="1.025" fill="#321919" /><rect x="22.550" y="20.500" width="1.025" height="1.025" fill="#d6d6d6" /><rect x="23.575" y="20.500" width="1.025" height="1.025" fill="#d5d5d5" /><rect x="24.600" y="20.500" width="1.025" height="1.025" fill="#d5d5d5" /><rect x="25.625" y="20.500" width="1.025" height="1.025" fill="#321918" /><rect x="26.650" y="20.500" width="1.025" height="1.025" fill="#d5d5d5" /><rect x="27.675" y="20.500" width="1.025" height="1.025" fill="#f48c8c" /><rect x="13.325" y="21.525" width="1.025" height="1.025" fill="#f48c8d" /><rect x="14.350" y="21.525" width="1.025" height="1.025" fill="#ffffff" /><rect x="15.375" y="21.525" width="1.025" height="1.025" fill="#ffffff" /><rect x="16.400" y="21.525" width="1.025" height="1.025" fill="#ffffff" /><rect x="17.425" y="21.525" width="1.025" height="1.025" fill="#4e2b2a" /><rect x="18.450" y="21.525" width="1.025" height="1.025" fill="#ffffff" /><rect x="19.475" y="21.525" width="1.025" height="1.025" fill="#ffffff" /><rect x="20.500" y="21.525" width="1.025" height="1.025" fill="#ffffff" /><rect x="21.525" y="21.525" width="1.025" height="1.025" fill="#4f2c2b" /><rect x="22.550" y="21.525" width="1.025" height="1.025" fill="#ffffff" /><rect x="23.575" y="21.525" width="1.025" height="1.025" fill="#ffffff" /><rect x="24.600" y="21.525" width="1.025" height="1.025" fill="#ffffff" /><rect x="25.625" y="21.525" width="1.025" height="1.025" fill="#4e2b2a" /><rect x="26.650" y="21.525" width="1.025" height="1.025" fill="#ffffff" /><rect x="27.675" y="21.525" width="1.025" height="1.025" fill="#f48c8c" /><rect x="13.325" y="22.550" width="1.025" height="1.025" fill="#f48c8c" /><rect x="14.350" y="22.550" width="1.025" height="1.025" fill="#ffffff" /><rect x="15.375" y="22.550" width="1.025" height="1.025" fill="#ffffff" /><rect x="16.400" y="22.550" width="1.025" height="1.025" fill="#4e2b2a" /><rect x="17.425" y="22.550" width="1.025" height="1.025" fill="#4f2c2a" /><rect x="18.450" y="22.550" width="1.025" height="1.025" fill="#ffffff" /><rect x="19.475" y="22.550" width="1.025" height="1.025" fill="#ffffff" /><rect x="20.500" y="22.550" width="1.025" height="1.025" fill="#ffffff" /><rect x="21.525" y="22.550" width="1.025" height="1.025" fill="#000000" /><rect x="22.550" y="22.550" width="1.025" height="1.025" fill="#ffffff" /><rect x="23.575" y="22.550" width="1.025" height="1.025" fill="#ffffff" /><rect x="24.600" y="22.550" width="1.025" height="1.025" fill="#4e2b2a" /><rect x="25.625" y="22.550" width="1.025" height="1.025" fill="#4f2c2b" /><rect x="26.650" y="22.550" width="1.025" height="1.025" fill="#ffffff" /><rect x="27.675" y="22.550" width="1.025" height="1.025" fill="#c3e8ff" /><rect x="13.325" y="23.575" width="1.025" height="1.025" fill="#f48c8d" /><rect x="14.350" y="23.575" width="1.025" height="1.025" fill="#4f2c2b" /><rect x="15.375" y="23.575" width="1.025" height="1.025" fill="#4e2b2a" /><rect x="16.400" y="23.575" width="1.025" height="1.025" fill="#4f2c2b" /><rect x="17.425" y="23.575" width="1.025" height="1.025" fill="#4f2c2b" /><rect x="18.450" y="23.575" width="1.025" height="1.025" fill="#4f2c2b" /><rect x="19.475" y="23.575" width="1.025" height="1.025" fill="#000000" /><rect x="20.500" y="23.575" width="1.025" height="1.025" fill="#000000" /><rect x="21.525" y="23.575" width="1.025" height="1.025" fill="#000000" /><rect x="22.550" y="23.575" width="1.025" height="1.025" fill="#000000" /><rect x="23.575" y="23.575" width="1.025" height="1.025" fill="#dff2fe" /><rect x="24.600" y="23.575" width="1.025" height="1.025" fill="#b4e3ff" /><rect x="25.625" y="23.575" width="1.025" height="1.025" fill="#a5ddff" /><rect x="26.650" y="23.575" width="1.025" height="1.025" fill="#4f2c2b" /><rect x="27.675" y="23.575" width="1.025" height="1.025" fill="#f48c8c" /><rect x="13.325" y="24.600" width="1.025" height="1.025" fill="#f48c8c" /><rect x="14.350" y="24.600" width="1.025" height="1.025" fill="#f58d8d" /><rect x="15.375" y="24.600" width="1.025" height="1.025" fill="#f58d8d" /><rect x="16.400" y="24.600" width="1.025" height="1.025" fill="#f48c8d" /><rect x="17.425" y="24.600" width="1.025" height="1.025" fill="#f48c8c" /><rect x="18.450" y="24.600" width="1.025" height="1.025" fill="#f48c8c" /><rect x="19.475" y="24.600" width="1.025" height="1.025" fill="#f48c8c" /><rect x="20.500" y="24.600" width="1.025" height="1.025" fill="#dff2fe" /><rect x="21.525" y="24.600" width="1.025" height="1.025" fill="#f48c8d" /><rect x="22.550" y="24.600" width="1.025" height="1.025" fill="#e1f3ff" /><rect x="23.575" y="24.600" width="1.025" height="1.025" fill="#f48c8d" /><rect x="24.600" y="24.600" width="1.025" height="1.025" fill="#b4e2ff" /><rect x="25.625" y="24.600" width="1.025" height="1.025" fill="#e1f3ff" /><rect x="26.650" y="24.600" width="1.025" height="1.025" fill="#a5deff" /><rect x="27.675" y="24.600" width="1.025" height="1.025" fill="#f48c8c" /><rect x="22.550" y="25.625" width="1.025" height="1.025" fill="#b3e2ff" /><rect x="25.625" y="25.625" width="1.025" height="1.025" fill="#a5ddff" /><rect x="26.650" y="25.625" width="1.025" height="1.025" fill="#c2e8ff" /><rect x="22.550" y="26.650" width="1.025" height="1.025" fill="#eef8ff" /><rect x="26.650" y="27.675" width="1.025" height="1.025" fill="#eef8ff" /></svg>