<svg xmlns="http://www.w3.org/2000/svg" width="37.925" height="37.925" shape-rendering="crispEdges" style="image-rendering: pixelated;"><rect x="18.450" y="2.050" width="1.025" height="1.025" fill="#35158b" /><rect x="19.475" y="2.050" width="1.025" height="1.025" fill="#6600ff" /><rect x="20.500" y="2.050" width="1.025" height="1.025" fill="#14983d" /><rect x="21.525" y="2.050" width="1.025" height="1.025" fill="#1ef369" /><rect x="22.550" y="2.050" width="1.025" height="1.025" fill="#a35f00" /><rect x="23.575" y="2.050" width="1.025" height="1.025" fill="#f09414" /><rect x="24.600" y="2.050" width="1.025" height="1.025" fill="#14983d" /><rect x="25.625" y="2.050" width="1.025" height="1.025" fill="#13f258" /><rect x="26.650" y="2.050" width="1.025" height="1.025" fill="#0047ac" /><rect x="27.675" y="2.050" width="1.025" height="1.025" fill="#602bd7" /><rect x="28.700" y="2.050" width="1.025" height="1.025" fill="#10adc1" /><rect x="29.725" y="2.050" width="1.025" height="1.025" fill="#7bffff" /><rect x="30.750" y="2.050" width="1.025" height="1.025" fill="#c3ffff" /><rect x="17.425" y="3.075" width="1.025" height="1.025" fill="#bb0614" /><rect x="18.450" y="3.075" width="1.025" height="1.025" fill="#35158b" /><rect x="19.475" y="3.075" width="1.025" height="1.025" fill="#7501e8" /><rect x="20.500" y="3.075" width="1.025" height="1.025" fill="#14983d" /><rect x="21.525" y="3.075" width="1.025" height="1.025" fill="#49deaa" /><rect x="22.550" y="3.075" width="1.025" height="1.025" fill="#a35f00" /><rect x="23.575" y="3.075" width="1.025" height="1.025" fill="#f37711" /><rect x="24.600" y="3.075" width="1.025" height="1.025" fill="#14983d" /><rect x="25.625" y="3.075" width="1.025" height="1.025" fill="#3ff78a" /><rect x="26.650" y="3.075" width="1.025" height="1.025" fill="#0047ac" /><rect x="27.675" y="3.075" width="1.025" height="1.025" fill="#8925a1" /><rect x="28.700" y="3.075" width="1.025" height="1.025" fill="#4629ff" /><rect x="29.725" y="3.075" width="1.025" height="1.025" fill="#0e72ff" /><rect x="16.400" y="4.100" width="1.025" height="1.025" fill="#084c32" /><rect x="17.425" y="4.100" width="1.025" height="1.025" fill="#720d3c" /><rect x="18.450" y="4.100" width="1.025" height="1.025" fill="#35158b" /><rect x="19.475" y="4.100" width="1.025" height="1.025" fill="#8202d3" /><rect x="20.500" y="4.100" width="1.025" height="1.025" fill="#14983d" /><rect x="21.525" y="4.100" width="1.025" height="1.025" fill="#45d4bc" /><rect x="22.550" y="4.100" width="1.025" height="1.025" fill="#a35f00" /><rect x="23.575" y="4.100" width="1.025" height="1.025" fill="#f6560e" /><rect x="24.600" y="4.100" width="1.025" height="1.025" fill="#14983d" /><rect x="25.625" y="4.100" width="1.025" height="1.025" fill="#6ffbc2" /><rect x="26.650" y="4.100" width="1.025" height="1.025" fill="#54fba2" /><rect x="27.675" y="4.100" width="1.025" height="1.025" fill="#38f682" /><rect x="28.700" y="4.100" width="1.025" height="1.025" fill="#13f258" /><rect x="15.375" y="5.125" width="1.025" height="1.025" fill="#1e6a9e" /><rect x="16.400" y="5.125" width="1.025" height="1.025" fill="#1a6852" /><rect x="17.425" y="5.125" width="1.025" height="1.025" fill="#600e2c" /><rect x="18.450" y="5.125" width="1.025" height="1.025" fill="#35158b" /><rect x="19.475" y="5.125" width="1.025" height="1.025" fill="#8e03c0" /><rect x="20.500" y="5.125" width="1.025" height="1.025" fill="#14983d" /><rect x="21.525" y="5.125" width="1.025" height="1.025" fill="#56d0d6" /><rect x="22.550" y="5.125" width="1.025" height="1.025" fill="#a35f00" /><rect x="23.575" y="5.125" width="1.025" height="1.025" fill="#e63a10" /><rect x="24.600" y="5.125" width="1.025" height="1.025" fill="#f6560e" /><rect x="25.625" y="5.125" width="1.025" height="1.025" fill="#f46b10" /><rect x="26.650" y="5.125" width="1.025" height="1.025" fill="#f28512" /><rect x="27.675" y="5.125" width="1.025" height="1.025" fill="#f09414" /><rect x="15.375" y="6.150" width="1.025" height="1.025" fill="#145993" /><rect x="16.400" y="6.150" width="1.025" height="1.025" fill="#125b43" /><rect x="17.425" y="6.150" width="1.025" height="1.025" fill="#4b101a" /><rect x="18.450" y="6.150" width="1.025" height="1.025" fill="#35158b" /><rect x="19.475" y="6.150" width="1.025" height="1.025" fill="#a305a0" /><rect x="20.500" y="6.150" width="1.025" height="1.025" fill="#14983d" /><rect x="21.525" y="6.150" width="1.025" height="1.025" fill="#66e0da" /><rect x="22.550" y="6.150" width="1.025" height="1.025" fill="#52cbd7" /><rect x="23.575" y="6.150" width="1.025" height="1.025" fill="#3ac5bf" /><rect x="24.600" y="6.150" width="1.025" height="1.025" fill="#2fd79d" /><rect x="25.625" y="6.150" width="1.025" height="1.025" fill="#1ef369" /><rect x="26.650" y="6.150" width="1.025" height="1.025" fill="#1ef369" /><rect x="18.450" y="7.175" width="1.025" height="1.025" fill="#35158b" /><rect x="19.475" y="7.175" width="1.025" height="1.025" fill="#bb067b" /><rect x="20.500" y="7.175" width="1.025" height="1.025" fill="#a305a0" /><rect x="21.525" y="7.175" width="1.025" height="1.025" fill="#9904af" /><rect x="22.550" y="7.175" width="1.025" height="1.025" fill="#8202d3" /><rect x="23.575" y="7.175" width="1.025" height="1.025" fill="#7501e8" /><rect x="24.600" y="7.175" width="1.025" height="1.025" fill="#6600ff" /><rect x="25.625" y="7.175" width="1.025" height="1.025" fill="#6600ff" /></svg>