<svg xmlns="http://www.w3.org/2000/svg" width="37.925" height="37.925" shape-rendering="crispEdges" style="image-rendering: pixelated;"><rect x="13.325" y="2.050" width="1.025" height="1.025" fill="#171717" /><rect x="14.350" y="2.050" width="1.025" height="1.025" fill="#171717" /><rect x="15.375" y="2.050" width="1.025" height="1.025" fill="#262626" /><rect x="16.400" y="2.050" width="1.025" height="1.025" fill="#171717" /><rect x="17.425" y="2.050" width="1.025" height="1.025" fill="#262626" /><rect x="18.450" y="2.050" width="1.025" height="1.025" fill="#262626" /><rect x="19.475" y="2.050" width="1.025" height="1.025" fill="#262626" /><rect x="20.500" y="2.050" width="1.025" height="1.025" fill="#262626" /><rect x="21.525" y="2.050" width="1.025" height="1.025" fill="#262626" /><rect x="22.550" y="2.050" width="1.025" height="1.025" fill="#262626" /><rect x="23.575" y="2.050" width="1.025" height="1.025" fill="#262626" /><rect x="12.300" y="3.075" width="1.025" height="1.025" fill="#171717" /><rect x="13.325" y="3.075" width="1.025" height="1.025" fill="#171717" /><rect x="14.350" y="3.075" width="1.025" height="1.025" fill="#171717" /><rect x="15.375" y="3.075" width="1.025" height="1.025" fill="#262626" /><rect x="16.400" y="3.075" width="1.025" height="1.025" fill="#262626" /><rect x="17.425" y="3.075" width="1.025" height="1.025" fill="#262626" /><rect x="18.450" y="3.075" width="1.025" height="1.025" fill="#262626" /><rect x="19.475" y="3.075" width="1.025" height="1.025" fill="#ffff00" /><rect x="20.500" y="3.075" width="1.025" height="1.025" fill="#262626" /><rect x="21.525" y="3.075" width="1.025" height="1.025" fill="#ffff00" /><rect x="22.550" y="3.075" width="1.025" height="1.025" fill="#262626" /><rect x="23.575" y="3.075" width="1.025" height="1.025" fill="#262626" /><rect x="24.600" y="3.075" width="1.025" height="1.025" fill="#262626" /><rect x="12.300" y="4.100" width="1.025" height="1.025" fill="#171717" /><rect x="13.325" y="4.100" width="1.025" height="1.025" fill="#171717" /><rect x="14.350" y="4.100" width="1.025" height="1.025" fill="#171717" /><rect x="15.375" y="4.100" width="1.025" height="1.025" fill="#262626" /><rect x="16.400" y="4.100" width="1.025" height="1.025" fill="#262626" /><rect x="17.425" y="4.100" width="1.025" height="1.025" fill="#262626" /><rect x="18.450" y="4.100" width="1.025" height="1.025" fill="#ffff00" /><rect x="19.475" y="4.100" width="1.025" height="1.025" fill="#262626" /><rect x="20.500" y="4.100" width="1.025" height="1.025" fill="#ffff00" /><rect x="21.525" y="4.100" width="1.025" height="1.025" fill="#262626" /><rect x="22.550" y="4.100" width="1.025" height="1.025" fill="#ffff00" /><rect x="23.575" y="4.100" width="1.025" height="1.025" fill="#262626" /><rect x="24.600" y="4.100" width="1.025" height="1.025" fill="#262626" /><rect x="12.300" y="5.125" width="1.025" height="1.025" fill="#171717" /><rect x="13.325" y="5.125" width="1.025" height="1.025" fill="#171717" /><rect x="14.350" y="5.125" width="1.025" height="1.025" fill="#171717" /><rect x="15.375" y="5.125" width="1.025" height="1.025" fill="#262626" /><rect x="16.400" y="5.125" width="1.025" height="1.025" fill="#262626" /><rect x="17.425" y="5.125" width="1.025" height="1.025" fill="#262626" /><rect x="18.450" y="5.125" width="1.025" height="1.025" fill="#ffff00" /><rect x="19.475" y="5.125" width="1.025" height="1.025" fill="#262626" /><rect x="20.500" y="5.125" width="1.025" height="1.025" fill="#ffff00" /><rect x="21.525" y="5.125" width="1.025" height="1.025" fill="#262626" /><rect x="22.550" y="5.125" width="1.025" height="1.025" fill="#ffff00" /><rect x="23.575" y="5.125" width="1.025" height="1.025" fill="#262626" /><rect x="24.600" y="5.125" width="1.025" height="1.025" fill="#262626" /><rect x="12.300" y="6.150" width="1.025" height="1.025" fill="#171717" /><rect x="13.325" y="6.150" width="1.025" height="1.025" fill="#171717" /><rect x="14.350" y="6.150" width="1.025" height="1.025" fill="#171717" /><rect x="15.375" y="6.150" width="1.025" height="1.025" fill="#262626" /><rect x="16.400" y="6.150" width="1.025" height="1.025" fill="#262626" /><rect x="17.425" y="6.150" width="1.025" height="1.025" fill="#262626" /><rect x="18.450" y="6.150" width="1.025" height="1.025" fill="#ffff00" /><rect x="19.475" y="6.150" width="1.025" height="1.025" fill="#262626" /><rect x="20.500" y="6.150" width="1.025" height="1.025" fill="#ffff00" /><rect x="21.525" y="6.150" width="1.025" height="1.025" fill="#262626" /><rect x="22.550" y="6.150" width="1.025" height="1.025" fill="#ffff00" /><rect x="23.575" y="6.150" width="1.025" height="1.025" fill="#262626" /><rect x="24.600" y="6.150" width="1.025" height="1.025" fill="#262626" /><rect x="12.300" y="7.175" width="1.025" height="1.025" fill="#171717" /><rect x="13.325" y="7.175" width="1.025" height="1.025" fill="#171717" /><rect x="14.350" y="7.175" width="1.025" height="1.025" fill="#171717" /><rect x="15.375" y="7.175" width="1.025" height="1.025" fill="#171717" /><rect x="16.400" y="7.175" width="1.025" height="1.025" fill="#171717" /><rect x="17.425" y="7.175" width="1.025" height="1.025" fill="#171717" /><rect x="18.450" y="7.175" width="1.025" height="1.025" fill="#171717" /><rect x="19.475" y="7.175" width="1.025" height="1.025" fill="#171717" /><rect x="20.500" y="7.175" width="1.025" height="1.025" fill="#171717" /><rect x="21.525" y="7.175" width="1.025" height="1.025" fill="#262626" /><rect x="22.550" y="7.175" width="1.025" height="1.025" fill="#262626" /><rect x="23.575" y="7.175" width="1.025" height="1.025" fill="#262626" /><rect x="24.600" y="7.175" width="1.025" height="1.025" fill="#262626" /><rect x="25.625" y="7.175" width="1.025" height="1.025" fill="#262626" /><rect x="26.650" y="7.175" width="1.025" height="1.025" fill="#262626" /><rect x="27.675" y="7.175" width="1.025" height="1.025" fill="#262626" /><rect x="28.700" y="7.175" width="1.025" height="1.025" fill="#262626" /><rect x="29.725" y="7.175" width="1.025" height="1.025" fill="#262626" /><rect x="30.750" y="7.175" width="1.025" height="1.025" fill="#262626" /><rect x="12.300" y="8.200" width="1.025" height="1.025" fill="#171717" /><rect x="13.325" y="8.200" width="1.025" height="1.025" fill="#171717" /><rect x="14.350" y="8.200" width="1.025" height="1.025" fill="#171717" /><rect x="15.375" y="8.200" width="1.025" height="1.025" fill="#171717" /><rect x="16.400" y="8.200" width="1.025" height="1.025" fill="#171717" /><rect x="17.425" y="8.200" width="1.025" height="1.025" fill="#171717" /><rect x="18.450" y="8.200" width="1.025" height="1.025" fill="#171717" /><rect x="19.475" y="8.200" width="1.025" height="1.025" fill="#171717" /><rect x="20.500" y="8.200" width="1.025" height="1.025" fill="#171717" /><rect x="21.525" y="8.200" width="1.025" height="1.025" fill="#262626" /><rect x="22.550" y="8.200" width="1.025" height="1.025" fill="#262626" /><rect x="23.575" y="8.200" width="1.025" height="1.025" fill="#262626" /><rect x="24.600" y="8.200" width="1.025" height="1.025" fill="#262626" /><rect x="25.625" y="8.200" width="1.025" height="1.025" fill="#262626" /><rect x="26.650" y="8.200" width="1.025" height="1.025" fill="#262626" /><rect x="27.675" y="8.200" width="1.025" height="1.025" fill="#262626" /><rect x="28.700" y="8.200" width="1.025" height="1.025" fill="#262626" /><rect x="29.725" y="8.200" width="1.025" height="1.025" fill="#262626" /><rect x="30.750" y="8.200" width="1.025" height="1.025" fill="#262626" /></svg>