<svg xmlns="http://www.w3.org/2000/svg" width="37.925" height="37.925" shape-rendering="crispEdges" style="image-rendering: pixelated;"><rect x="19.475" y="18.450" width="1.025" height="1.025" fill="#ef767a" /><rect x="20.500" y="18.450" width="1.025" height="1.025" fill="#ef767a" /><rect x="21.525" y="18.450" width="1.025" height="1.025" fill="#ef767a" /><rect x="22.550" y="18.450" width="1.025" height="1.025" fill="#ef767a" /><rect x="19.475" y="19.475" width="1.025" height="1.025" fill="#ef767a" /><rect x="20.500" y="19.475" width="1.025" height="1.025" fill="#1e1e1e" /><rect x="21.525" y="19.475" width="1.025" height="1.025" fill="#fff5f5" /><rect x="22.550" y="19.475" width="1.025" height="1.025" fill="#ef767a" /><rect x="19.475" y="20.500" width="1.025" height="1.025" fill="#ef767a" /><rect x="20.500" y="20.500" width="1.025" height="1.025" fill="#1e1e1e" /><rect x="21.525" y="20.500" width="1.025" height="1.025" fill="#1e1e1e" /><rect x="22.550" y="20.500" width="1.025" height="1.025" fill="#ef767a" /><rect x="19.475" y="21.525" width="1.025" height="1.025" fill="#ef767a" /><rect x="20.500" y="21.525" width="1.025" height="1.025" fill="#1e1e1e" /><rect x="21.525" y="21.525" width="1.025" height="1.025" fill="#1e1e1e" /><rect x="22.550" y="21.525" width="1.025" height="1.025" fill="#ef767a" /><rect x="19.475" y="22.550" width="1.025" height="1.025" fill="#ef767a" /><rect x="20.500" y="22.550" width="1.025" height="1.025" fill="#ef767a" /><rect x="21.525" y="22.550" width="1.025" height="1.025" fill="#ef767a" /><rect x="22.550" y="22.550" width="1.025" height="1.025" fill="#ef767a" /></svg>