<svg xmlns="http://www.w3.org/2000/svg" width="37.925" height="37.925" shape-rendering="crispEdges" style="image-rendering: pixelated;"><rect x="18.450" y="2.050" width="1.025" height="1.025" fill="#1e7437" /><rect x="19.475" y="2.050" width="1.025" height="1.025" fill="#1e7437" /><rect x="20.500" y="2.050" width="1.025" height="1.025" fill="#45c831" /><rect x="21.525" y="2.050" width="1.025" height="1.025" fill="#45c831" /><rect x="17.425" y="3.075" width="1.025" height="1.025" fill="#1e7437" /><rect x="18.450" y="3.075" width="1.025" height="1.025" fill="#1e7437" /><rect x="19.475" y="3.075" width="1.025" height="1.025" fill="#1e7437" /><rect x="20.500" y="3.075" width="1.025" height="1.025" fill="#45c831" /><rect x="21.525" y="3.075" width="1.025" height="1.025" fill="#45c831" /><rect x="16.400" y="4.100" width="1.025" height="1.025" fill="#1e7437" /><rect x="17.425" y="4.100" width="1.025" height="1.025" fill="#1e7437" /><rect x="18.450" y="4.100" width="1.025" height="1.025" fill="#1e7437" /><rect x="19.475" y="4.100" width="1.025" height="1.025" fill="#1e7437" /><rect x="20.500" y="4.100" width="1.025" height="1.025" fill="#45c831" /><rect x="21.525" y="4.100" width="1.025" height="1.025" fill="#45c831" /><rect x="15.375" y="5.125" width="1.025" height="1.025" fill="#1e7437" /><rect x="16.400" y="5.125" width="1.025" height="1.025" fill="#1e7437" /><rect x="17.425" y="5.125" width="1.025" height="1.025" fill="#1e7437" /><rect x="18.450" y="5.125" width="1.025" height="1.025" fill="#1e7437" /><rect x="19.475" y="5.125" width="1.025" height="1.025" fill="#1e7437" /><rect x="20.500" y="5.125" width="1.025" height="1.025" fill="#45c831" /><rect x="21.525" y="5.125" width="1.025" height="1.025" fill="#45c831" /><rect x="15.375" y="6.150" width="1.025" height="1.025" fill="#1e7437" /><rect x="16.400" y="6.150" width="1.025" height="1.025" fill="#1e7437" /><rect x="17.425" y="6.150" width="1.025" height="1.025" fill="#1e7437" /><rect x="18.450" y="6.150" width="1.025" height="1.025" fill="#1e7437" /><rect x="19.475" y="6.150" width="1.025" height="1.025" fill="#1e7437" /><rect x="20.500" y="6.150" width="1.025" height="1.025" fill="#45c831" /><rect x="21.525" y="6.150" width="1.025" height="1.025" fill="#45c831" /><rect x="22.550" y="6.150" width="1.025" height="1.025" fill="#45c831" /><rect x="21.525" y="7.175" width="1.025" height="1.025" fill="#1e7437" /><rect x="22.550" y="7.175" width="1.025" height="1.025" fill="#45c831" /></svg>