<svg xmlns="http://www.w3.org/2000/svg" width="37.925" height="37.925" shape-rendering="crispEdges" style="image-rendering: pixelated;"><rect x="11.275" y="15.375" width="1.025" height="1.025" fill="#ef767a" /><rect x="12.300" y="15.375" width="1.025" height="1.025" fill="#ef767a" /><rect x="13.325" y="15.375" width="1.025" height="1.025" fill="#ef767a" /><rect x="14.350" y="15.375" width="1.025" height="1.025" fill="#ef767a" /><rect x="15.375" y="15.375" width="1.025" height="1.025" fill="#ef767a" /><rect x="16.400" y="15.375" width="1.025" height="1.025" fill="#ef767a" /><rect x="26.650" y="15.375" width="1.025" height="1.025" fill="#ef767a" /><rect x="27.675" y="15.375" width="1.025" height="1.025" fill="#ef767a" /><rect x="28.700" y="15.375" width="1.025" height="1.025" fill="#ef767a" /><rect x="29.725" y="15.375" width="1.025" height="1.025" fill="#ef767a" /><rect x="30.750" y="15.375" width="1.025" height="1.025" fill="#ef767a" /><rect x="31.775" y="15.375" width="1.025" height="1.025" fill="#ef767a" /><rect x="11.275" y="16.400" width="1.025" height="1.025" fill="#ef767a" /><rect x="12.300" y="16.400" width="1.025" height="1.025" fill="#cccccc" /><rect x="13.325" y="16.400" width="1.025" height="1.025" fill="#cccccc" /><rect x="14.350" y="16.400" width="1.025" height="1.025" fill="#cccccc" /><rect x="15.375" y="16.400" width="1.025" height="1.025" fill="#251313" /><rect x="16.400" y="16.400" width="1.025" height="1.025" fill="#ef767a" /><rect x="26.650" y="16.400" width="1.025" height="1.025" fill="#ef767a" /><rect x="27.675" y="16.400" width="1.025" height="1.025" fill="#251313" /><rect x="28.700" y="16.400" width="1.025" height="1.025" fill="#cccccc" /><rect x="29.725" y="16.400" width="1.025" height="1.025" fill="#cccccc" /><rect x="30.750" y="16.400" width="1.025" height="1.025" fill="#cccccc" /><rect x="31.775" y="16.400" width="1.025" height="1.025" fill="#ef767a" /><rect x="11.275" y="17.425" width="1.025" height="1.025" fill="#ef767a" /><rect x="12.300" y="17.425" width="1.025" height="1.025" fill="#ffffff" /><rect x="13.325" y="17.425" width="1.025" height="1.025" fill="#ffffff" /><rect x="14.350" y="17.425" width="1.025" height="1.025" fill="#ffffff" /><rect x="15.375" y="17.425" width="1.025" height="1.025" fill="#3d2020" /><rect x="16.400" y="17.425" width="1.025" height="1.025" fill="#ef767a" /><rect x="26.650" y="17.425" width="1.025" height="1.025" fill="#d76a6e" /><rect x="27.675" y="17.425" width="1.025" height="1.025" fill="#3d2020" /><rect x="28.700" y="17.425" width="1.025" height="1.025" fill="#ffffff" /><rect x="29.725" y="17.425" width="1.025" height="1.025" fill="#ffffff" /><rect x="30.750" y="17.425" width="1.025" height="1.025" fill="#ffffff" /><rect x="31.775" y="17.425" width="1.025" height="1.025" fill="#ef767a" /><rect x="11.275" y="18.450" width="1.025" height="1.025" fill="#ef767a" /><rect x="12.300" y="18.450" width="1.025" height="1.025" fill="#ffffff" /><rect x="13.325" y="18.450" width="1.025" height="1.025" fill="#ffffff" /><rect x="14.350" y="18.450" width="1.025" height="1.025" fill="#ffffff" /><rect x="15.375" y="18.450" width="1.025" height="1.025" fill="#3d2020" /><rect x="16.400" y="18.450" width="1.025" height="1.025" fill="#ef767a" /><rect x="17.425" y="18.450" width="1.025" height="1.025" fill="#ef767a" /><rect x="18.450" y="18.450" width="1.025" height="1.025" fill="#ef767a" /><rect x="19.475" y="18.450" width="1.025" height="1.025" fill="#ef767a" /><rect x="20.500" y="18.450" width="1.025" height="1.025" fill="#ef767a" /><rect x="21.525" y="18.450" width="1.025" height="1.025" fill="#ef767a" /><rect x="22.550" y="18.450" width="1.025" height="1.025" fill="#ef767a" /><rect x="23.575" y="18.450" width="1.025" height="1.025" fill="#ef767a" /><rect x="24.600" y="18.450" width="1.025" height="1.025" fill="#ef767a" /><rect x="25.625" y="18.450" width="1.025" height="1.025" fill="#ef767a" /><rect x="26.650" y="18.450" width="1.025" height="1.025" fill="#ef767a" /><rect x="27.675" y="18.450" width="1.025" height="1.025" fill="#3d2020" /><rect x="28.700" y="18.450" width="1.025" height="1.025" fill="#ffffff" /><rect x="29.725" y="18.450" width="1.025" height="1.025" fill="#ffffff" /><rect x="30.750" y="18.450" width="1.025" height="1.025" fill="#ffffff" /><rect x="31.775" y="18.450" width="1.025" height="1.025" fill="#ef767a" /><rect x="11.275" y="19.475" width="1.025" height="1.025" fill="#ef767a" /><rect x="12.300" y="19.475" width="1.025" height="1.025" fill="#ffffff" /><rect x="13.325" y="19.475" width="1.025" height="1.025" fill="#ffffff" /><rect x="14.350" y="19.475" width="1.025" height="1.025" fill="#ffffff" /><rect x="15.375" y="19.475" width="1.025" height="1.025" fill="#3d2020" /><rect x="16.400" y="19.475" width="1.025" height="1.025" fill="#cccccc" /><rect x="17.425" y="19.475" width="1.025" height="1.025" fill="#cccccc" /><rect x="18.450" y="19.475" width="1.025" height="1.025" fill="#cccccc" /><rect x="19.475" y="19.475" width="1.025" height="1.025" fill="#251313" /><rect x="20.500" y="19.475" width="1.025" height="1.025" fill="#cccccc" /><rect x="21.525" y="19.475" width="1.025" height="1.025" fill="#cccccc" /><rect x="22.550" y="19.475" width="1.025" height="1.025" fill="#cccccc" /><rect x="23.575" y="19.475" width="1.025" height="1.025" fill="#251313" /><rect x="24.600" y="19.475" width="1.025" height="1.025" fill="#cccccc" /><rect x="25.625" y="19.475" width="1.025" height="1.025" fill="#cccccc" /><rect x="26.650" y="19.475" width="1.025" height="1.025" fill="#cccccc" /><rect x="27.675" y="19.475" width="1.025" height="1.025" fill="#3d2020" /><rect x="28.700" y="19.475" width="1.025" height="1.025" fill="#ffffff" /><rect x="29.725" y="19.475" width="1.025" height="1.025" fill="#ffffff" /><rect x="30.750" y="19.475" width="1.025" height="1.025" fill="#ffffff" /><rect x="31.775" y="19.475" width="1.025" height="1.025" fill="#ef767a" /><rect x="11.275" y="20.500" width="1.025" height="1.025" fill="#ef767a" /><rect x="12.300" y="20.500" width="1.025" height="1.025" fill="#ffffff" /><rect x="13.325" y="20.500" width="1.025" height="1.025" fill="#ffffff" /><rect x="14.350" y="20.500" width="1.025" height="1.025" fill="#ffffff" /><rect x="15.375" y="20.500" width="1.025" height="1.025" fill="#3d2020" /><rect x="16.400" y="20.500" width="1.025" height="1.025" fill="#ffffff" /><rect x="17.425" y="20.500" width="1.025" height="1.025" fill="#ffffff" /><rect x="18.450" y="20.500" width="1.025" height="1.025" fill="#ffffff" /><rect x="19.475" y="20.500" width="1.025" height="1.025" fill="#3d2020" /><rect x="20.500" y="20.500" width="1.025" height="1.025" fill="#ffffff" /><rect x="21.525" y="20.500" width="1.025" height="1.025" fill="#ffffff" /><rect x="22.550" y="20.500" width="1.025" height="1.025" fill="#ffffff" /><rect x="23.575" y="20.500" width="1.025" height="1.025" fill="#3d2020" /><rect x="24.600" y="20.500" width="1.025" height="1.025" fill="#ffffff" /><rect x="25.625" y="20.500" width="1.025" height="1.025" fill="#ffffff" /><rect x="26.650" y="20.500" width="1.025" height="1.025" fill="#ffffff" /><rect x="27.675" y="20.500" width="1.025" height="1.025" fill="#3d2020" /><rect x="28.700" y="20.500" width="1.025" height="1.025" fill="#ffffff" /><rect x="29.725" y="20.500" width="1.025" height="1.025" fill="#ffffff" /><rect x="30.750" y="20.500" width="1.025" height="1.025" fill="#ffffff" /><rect x="31.775" y="20.500" width="1.025" height="1.025" fill="#ef767a" /><rect x="11.275" y="21.525" width="1.025" height="1.025" fill="#ef767a" /><rect x="12.300" y="21.525" width="1.025" height="1.025" fill="#ffffff" /><rect x="13.325" y="21.525" width="1.025" height="1.025" fill="#ffffff" /><rect x="14.350" y="21.525" width="1.025" height="1.025" fill="#3d2020" /><rect x="15.375" y="21.525" width="1.025" height="1.025" fill="#3d2020" /><rect x="16.400" y="21.525" width="1.025" height="1.025" fill="#ffffff" /><rect x="17.425" y="21.525" width="1.025" height="1.025" fill="#ffffff" /><rect x="18.450" y="21.525" width="1.025" height="1.025" fill="#ffffff" /><rect x="19.475" y="21.525" width="1.025" height="1.025" fill="#000000" /><rect x="20.500" y="21.525" width="1.025" height="1.025" fill="#ffffff" /><rect x="21.525" y="21.525" width="1.025" height="1.025" fill="#ffffff" /><rect x="22.550" y="21.525" width="1.025" height="1.025" fill="#3d2020" /><rect x="23.575" y="21.525" width="1.025" height="1.025" fill="#3d2020" /><rect x="24.600" y="21.525" width="1.025" height="1.025" fill="#ffffff" /><rect x="25.625" y="21.525" width="1.025" height="1.025" fill="#ffffff" /><rect x="26.650" y="21.525" width="1.025" height="1.025" fill="#ffffff" /><rect x="27.675" y="21.525" width="1.025" height="1.025" fill="#3d2020" /><rect x="28.700" y="21.525" width="1.025" height="1.025" fill="#ffffff" /><rect x="29.725" y="21.525" width="1.025" height="1.025" fill="#ffffff" /><rect x="30.750" y="21.525" width="1.025" height="1.025" fill="#ffffff" /><rect x="31.775" y="21.525" width="1.025" height="1.025" fill="#ef767a" /><rect x="11.275" y="22.550" width="1.025" height="1.025" fill="#ef767a" /><rect x="12.300" y="22.550" width="1.025" height="1.025" fill="#3d2020" /><rect x="13.325" y="22.550" width="1.025" height="1.025" fill="#3d2020" /><rect x="14.350" y="22.550" width="1.025" height="1.025" fill="#3d2020" /><rect x="15.375" y="22.550" width="1.025" height="1.025" fill="#3d2020" /><rect x="16.400" y="22.550" width="1.025" height="1.025" fill="#3d2020" /><rect x="17.425" y="22.550" width="1.025" height="1.025" fill="#000000" /><rect x="18.450" y="22.550" width="1.025" height="1.025" fill="#000000" /><rect x="19.475" y="22.550" width="1.025" height="1.025" fill="#000000" /><rect x="20.500" y="22.550" width="1.025" height="1.025" fill="#3d2020" /><rect x="21.525" y="22.550" width="1.025" height="1.025" fill="#3d2020" /><rect x="22.550" y="22.550" width="1.025" height="1.025" fill="#3d2020" /><rect x="23.575" y="22.550" width="1.025" height="1.025" fill="#3d2020" /><rect x="24.600" y="22.550" width="1.025" height="1.025" fill="#3d2020" /><rect x="25.625" y="22.550" width="1.025" height="1.025" fill="#3d2020" /><rect x="26.650" y="22.550" width="1.025" height="1.025" fill="#3d2020" /><rect x="27.675" y="22.550" width="1.025" height="1.025" fill="#3d2020" /><rect x="28.700" y="22.550" width="1.025" height="1.025" fill="#3d2020" /><rect x="29.725" y="22.550" width="1.025" height="1.025" fill="#3d2020" /><rect x="30.750" y="22.550" width="1.025" height="1.025" fill="#3d2020" /><rect x="31.775" y="22.550" width="1.025" height="1.025" fill="#ef767a" /><rect x="11.275" y="23.575" width="1.025" height="1.025" fill="#ef767a" /><rect x="12.300" y="23.575" width="1.025" height="1.025" fill="#ffffff" /><rect x="13.325" y="23.575" width="1.025" height="1.025" fill="#ffffff" /><rect x="14.350" y="23.575" width="1.025" height="1.025" fill="#ffffff" /><rect x="15.375" y="23.575" width="1.025" height="1.025" fill="#3d2020" /><rect x="16.400" y="23.575" width="1.025" height="1.025" fill="#ffffff" /><rect x="17.425" y="23.575" width="1.025" height="1.025" fill="#ffffff" /><rect x="18.450" y="23.575" width="1.025" height="1.025" fill="#ffffff" /><rect x="19.475" y="23.575" width="1.025" height="1.025" fill="#3d2020" /><rect x="20.500" y="23.575" width="1.025" height="1.025" fill="#ffffff" /><rect x="21.525" y="23.575" width="1.025" height="1.025" fill="#ffffff" /><rect x="22.550" y="23.575" width="1.025" height="1.025" fill="#ffffff" /><rect x="23.575" y="23.575" width="1.025" height="1.025" fill="#3d2020" /><rect x="24.600" y="23.575" width="1.025" height="1.025" fill="#ffffff" /><rect x="25.625" y="23.575" width="1.025" height="1.025" fill="#ffffff" /><rect x="26.650" y="23.575" width="1.025" height="1.025" fill="#3d2020" /><rect x="27.675" y="23.575" width="1.025" height="1.025" fill="#3d2020" /><rect x="28.700" y="23.575" width="1.025" height="1.025" fill="#ffffff" /><rect x="29.725" y="23.575" width="1.025" height="1.025" fill="#ffffff" /><rect x="30.750" y="23.575" width="1.025" height="1.025" fill="#ffffff" /><rect x="31.775" y="23.575" width="1.025" height="1.025" fill="#ef767a" /><rect x="11.275" y="24.600" width="1.025" height="1.025" fill="#ef767a" /><rect x="12.300" y="24.600" width="1.025" height="1.025" fill="#ffffff" /><rect x="13.325" y="24.600" width="1.025" height="1.025" fill="#ffffff" /><rect x="14.350" y="24.600" width="1.025" height="1.025" fill="#ffffff" /><rect x="15.375" y="24.600" width="1.025" height="1.025" fill="#3d2020" /><rect x="16.400" y="24.600" width="1.025" height="1.025" fill="#ffffff" /><rect x="17.425" y="24.600" width="1.025" height="1.025" fill="#ffffff" /><rect x="18.450" y="24.600" width="1.025" height="1.025" fill="#ffffff" /><rect x="19.475" y="24.600" width="1.025" height="1.025" fill="#3d2020" /><rect x="20.500" y="24.600" width="1.025" height="1.025" fill="#ffffff" /><rect x="21.525" y="24.600" width="1.025" height="1.025" fill="#ffffff" /><rect x="22.550" y="24.600" width="1.025" height="1.025" fill="#ffffff" /><rect x="23.575" y="24.600" width="1.025" height="1.025" fill="#3d2020" /><rect x="24.600" y="24.600" width="1.025" height="1.025" fill="#ffffff" /><rect x="25.625" y="24.600" width="1.025" height="1.025" fill="#ffffff" /><rect x="26.650" y="24.600" width="1.025" height="1.025" fill="#ffffff" /><rect x="27.675" y="24.600" width="1.025" height="1.025" fill="#3d2020" /><rect x="28.700" y="24.600" width="1.025" height="1.025" fill="#ffffff" /><rect x="29.725" y="24.600" width="1.025" height="1.025" fill="#ffffff" /><rect x="30.750" y="24.600" width="1.025" height="1.025" fill="#ffffff" /><rect x="31.775" y="24.600" width="1.025" height="1.025" fill="#ef767a" /><rect x="11.275" y="25.625" width="1.025" height="1.025" fill="#ef767a" /><rect x="12.300" y="25.625" width="1.025" height="1.025" fill="#cccccc" /><rect x="13.325" y="25.625" width="1.025" height="1.025" fill="#cccccc" /><rect x="14.350" y="25.625" width="1.025" height="1.025" fill="#cccccc" /><rect x="15.375" y="25.625" width="1.025" height="1.025" fill="#251313" /><rect x="16.400" y="25.625" width="1.025" height="1.025" fill="#cccccc" /><rect x="17.425" y="25.625" width="1.025" height="1.025" fill="#cccccc" /><rect x="18.450" y="25.625" width="1.025" height="1.025" fill="#cccccc" /><rect x="19.475" y="25.625" width="1.025" height="1.025" fill="#251313" /><rect x="20.500" y="25.625" width="1.025" height="1.025" fill="#cccccc" /><rect x="21.525" y="25.625" width="1.025" height="1.025" fill="#cccccc" /><rect x="22.550" y="25.625" width="1.025" height="1.025" fill="#cccccc" /><rect x="23.575" y="25.625" width="1.025" height="1.025" fill="#251313" /><rect x="24.600" y="25.625" width="1.025" height="1.025" fill="#cccccc" /><rect x="25.625" y="25.625" width="1.025" height="1.025" fill="#cccccc" /><rect x="26.650" y="25.625" width="1.025" height="1.025" fill="#cccccc" /><rect x="27.675" y="25.625" width="1.025" height="1.025" fill="#251313" /><rect x="28.700" y="25.625" width="1.025" height="1.025" fill="#cccccc" /><rect x="29.725" y="25.625" width="1.025" height="1.025" fill="#cccccc" /><rect x="30.750" y="25.625" width="1.025" height="1.025" fill="#cccccc" /><rect x="31.775" y="25.625" width="1.025" height="1.025" fill="#ef767a" /><rect x="11.275" y="26.650" width="1.025" height="1.025" fill="#ef767a" /><rect x="12.300" y="26.650" width="1.025" height="1.025" fill="#ef767a" /><rect x="13.325" y="26.650" width="1.025" height="1.025" fill="#ef767a" /><rect x="14.350" y="26.650" width="1.025" height="1.025" fill="#ef767a" /><rect x="15.375" y="26.650" width="1.025" height="1.025" fill="#ef767a" /><rect x="16.400" y="26.650" width="1.025" height="1.025" fill="#ef767a" /><rect x="17.425" y="26.650" width="1.025" height="1.025" fill="#ef767a" /><rect x="18.450" y="26.650" width="1.025" height="1.025" fill="#ef767a" /><rect x="19.475" y="26.650" width="1.025" height="1.025" fill="#ef767a" /><rect x="20.500" y="26.650" width="1.025" height="1.025" fill="#ef767a" /><rect x="21.525" y="26.650" width="1.025" height="1.025" fill="#ef767a" /><rect x="22.550" y="26.650" width="1.025" height="1.025" fill="#ef767a" /><rect x="23.575" y="26.650" width="1.025" height="1.025" fill="#ef767a" /><rect x="24.600" y="26.650" width="1.025" height="1.025" fill="#ef767a" /><rect x="25.625" y="26.650" width="1.025" height="1.025" fill="#ef767a" /><rect x="26.650" y="26.650" width="1.025" height="1.025" fill="#ef767a" /><rect x="27.675" y="26.650" width="1.025" height="1.025" fill="#ef767a" /><rect x="28.700" y="26.650" width="1.025" height="1.025" fill="#ef767a" /><rect x="29.725" y="26.650" width="1.025" height="1.025" fill="#ef767a" /><rect x="30.750" y="26.650" width="1.025" height="1.025" fill="#ef767a" /><rect x="31.775" y="26.650" width="1.025" height="1.025" fill="#ef767a" /></svg>