<svg xmlns="http://www.w3.org/2000/svg" width="37.925" height="37.925" shape-rendering="crispEdges" style="image-rendering: pixelated;"><rect x="10.250" y="4.100" width="1.025" height="1.025" fill="#7b8454" /><rect x="11.275" y="4.100" width="1.025" height="1.025" fill="#7b8454" /><rect x="12.300" y="4.100" width="1.025" height="1.025" fill="#7b8454" /><rect x="13.325" y="4.100" width="1.025" height="1.025" fill="#7b8454" /><rect x="14.350" y="4.100" width="1.025" height="1.025" fill="#7b8454" /><rect x="15.375" y="4.100" width="1.025" height="1.025" fill="#7b8454" /><rect x="16.400" y="4.100" width="1.025" height="1.025" fill="#7b8454" /><rect x="17.425" y="4.100" width="1.025" height="1.025" fill="#7b8454" /><rect x="18.450" y="4.100" width="1.025" height="1.025" fill="#7b8454" /><rect x="19.475" y="4.100" width="1.025" height="1.025" fill="#fffaa2" /><rect x="20.500" y="4.100" width="1.025" height="1.025" fill="#fffaa2" /><rect x="21.525" y="4.100" width="1.025" height="1.025" fill="#fffaa2" /><rect x="22.550" y="4.100" width="1.025" height="1.025" fill="#fffaa2" /><rect x="23.575" y="4.100" width="1.025" height="1.025" fill="#fffaa2" /><rect x="24.600" y="4.100" width="1.025" height="1.025" fill="#fffaa2" /><rect x="25.625" y="4.100" width="1.025" height="1.025" fill="#fffaa2" /><rect x="26.650" y="4.100" width="1.025" height="1.025" fill="#fffaa2" /><rect x="27.675" y="4.100" width="1.025" height="1.025" fill="#fffaa2" /><rect x="28.700" y="4.100" width="1.025" height="1.025" fill="#fffaa2" /><rect x="10.250" y="5.125" width="1.025" height="1.025" fill="#7b8454" /><rect x="11.275" y="5.125" width="1.025" height="1.025" fill="#7b8454" /><rect x="12.300" y="5.125" width="1.025" height="1.025" fill="#7b8454" /><rect x="13.325" y="5.125" width="1.025" height="1.025" fill="#7b8454" /><rect x="14.350" y="5.125" width="1.025" height="1.025" fill="#7b8454" /><rect x="15.375" y="5.125" width="1.025" height="1.025" fill="#7b8454" /><rect x="16.400" y="5.125" width="1.025" height="1.025" fill="#7b8454" /><rect x="17.425" y="5.125" width="1.025" height="1.025" fill="#7b8454" /><rect x="18.450" y="5.125" width="1.025" height="1.025" fill="#7b8454" /><rect x="19.475" y="5.125" width="1.025" height="1.025" fill="#fffaa2" /><rect x="20.500" y="5.125" width="1.025" height="1.025" fill="#fffaa2" /><rect x="21.525" y="5.125" width="1.025" height="1.025" fill="#fffaa2" /><rect x="22.550" y="5.125" width="1.025" height="1.025" fill="#fffaa2" /><rect x="23.575" y="5.125" width="1.025" height="1.025" fill="#fffaa2" /><rect x="24.600" y="5.125" width="1.025" height="1.025" fill="#ffffff" /><rect x="25.625" y="5.125" width="1.025" height="1.025" fill="#ffffff" /><rect x="26.650" y="5.125" width="1.025" height="1.025" fill="#ffffff" /><rect x="27.675" y="5.125" width="1.025" height="1.025" fill="#fffaa2" /><rect x="28.700" y="5.125" width="1.025" height="1.025" fill="#fffaa2" /><rect x="10.250" y="6.150" width="1.025" height="1.025" fill="#7b8454" /><rect x="11.275" y="6.150" width="1.025" height="1.025" fill="#7b8454" /><rect x="12.300" y="6.150" width="1.025" height="1.025" fill="#7b8454" /><rect x="13.325" y="6.150" width="1.025" height="1.025" fill="#7b8454" /><rect x="14.350" y="6.150" width="1.025" height="1.025" fill="#7b8454" /><rect x="15.375" y="6.150" width="1.025" height="1.025" fill="#7b8454" /><rect x="16.400" y="6.150" width="1.025" height="1.025" fill="#7b8454" /><rect x="17.425" y="6.150" width="1.025" height="1.025" fill="#7b8454" /><rect x="18.450" y="6.150" width="1.025" height="1.025" fill="#7b8454" /><rect x="19.475" y="6.150" width="1.025" height="1.025" fill="#fffaa2" /><rect x="20.500" y="6.150" width="1.025" height="1.025" fill="#fffaa2" /><rect x="21.525" y="6.150" width="1.025" height="1.025" fill="#fffaa2" /><rect x="22.550" y="6.150" width="1.025" height="1.025" fill="#fffaa2" /><rect x="23.575" y="6.150" width="1.025" height="1.025" fill="#fffaa2" /><rect x="24.600" y="6.150" width="1.025" height="1.025" fill="#fffaa2" /><rect x="25.625" y="6.150" width="1.025" height="1.025" fill="#fffaa2" /><rect x="26.650" y="6.150" width="1.025" height="1.025" fill="#ffffff" /><rect x="27.675" y="6.150" width="1.025" height="1.025" fill="#ffffff" /><rect x="28.700" y="6.150" width="1.025" height="1.025" fill="#fffaa2" /><rect x="10.250" y="7.175" width="1.025" height="1.025" fill="#7b8454" /><rect x="11.275" y="7.175" width="1.025" height="1.025" fill="#7b8454" /><rect x="12.300" y="7.175" width="1.025" height="1.025" fill="#7b8454" /><rect x="13.325" y="7.175" width="1.025" height="1.025" fill="#7b8454" /><rect x="14.350" y="7.175" width="1.025" height="1.025" fill="#7b8454" /><rect x="15.375" y="7.175" width="1.025" height="1.025" fill="#7b8454" /><rect x="16.400" y="7.175" width="1.025" height="1.025" fill="#7b8454" /><rect x="17.425" y="7.175" width="1.025" height="1.025" fill="#7b8454" /><rect x="18.450" y="7.175" width="1.025" height="1.025" fill="#7b8454" /><rect x="19.475" y="7.175" width="1.025" height="1.025" fill="#fffaa2" /><rect x="20.500" y="7.175" width="1.025" height="1.025" fill="#fffaa2" /><rect x="21.525" y="7.175" width="1.025" height="1.025" fill="#fffaa2" /><rect x="22.550" y="7.175" width="1.025" height="1.025" fill="#fffaa2" /><rect x="23.575" y="7.175" width="1.025" height="1.025" fill="#fffaa2" /><rect x="24.600" y="7.175" width="1.025" height="1.025" fill="#fffaa2" /><rect x="25.625" y="7.175" width="1.025" height="1.025" fill="#fffaa2" /><rect x="26.650" y="7.175" width="1.025" height="1.025" fill="#fffaa2" /><rect x="27.675" y="7.175" width="1.025" height="1.025" fill="#fffaa2" /><rect x="28.700" y="7.175" width="1.025" height="1.025" fill="#fffaa2" /><rect x="10.250" y="8.200" width="1.025" height="1.025" fill="#7b8454" /><rect x="11.275" y="8.200" width="1.025" height="1.025" fill="#7b8454" /><rect x="12.300" y="8.200" width="1.025" height="1.025" fill="#7b8454" /><rect x="13.325" y="8.200" width="1.025" height="1.025" fill="#7b8454" /><rect x="14.350" y="8.200" width="1.025" height="1.025" fill="#7b8454" /><rect x="15.375" y="8.200" width="1.025" height="1.025" fill="#7b8454" /><rect x="16.400" y="8.200" width="1.025" height="1.025" fill="#7b8454" /><rect x="17.425" y="8.200" width="1.025" height="1.025" fill="#7b8454" /><rect x="18.450" y="8.200" width="1.025" height="1.025" fill="#7b8454" /><rect x="19.475" y="8.200" width="1.025" height="1.025" fill="#fffaa2" /><rect x="20.500" y="8.200" width="1.025" height="1.025" fill="#fffaa2" /><rect x="21.525" y="8.200" width="1.025" height="1.025" fill="#fffaa2" /><rect x="22.550" y="8.200" width="1.025" height="1.025" fill="#fffaa2" /><rect x="23.575" y="8.200" width="1.025" height="1.025" fill="#fffaa2" /><rect x="24.600" y="8.200" width="1.025" height="1.025" fill="#fffaa2" /><rect x="25.625" y="8.200" width="1.025" height="1.025" fill="#fffaa2" /><rect x="26.650" y="8.200" width="1.025" height="1.025" fill="#fffaa2" /><rect x="27.675" y="8.200" width="1.025" height="1.025" fill="#fffaa2" /><rect x="28.700" y="8.200" width="1.025" height="1.025" fill="#fffaa2" /><rect x="10.250" y="9.225" width="1.025" height="1.025" fill="#7b8454" /><rect x="11.275" y="9.225" width="1.025" height="1.025" fill="#7b8454" /><rect x="12.300" y="9.225" width="1.025" height="1.025" fill="#7b8454" /><rect x="13.325" y="9.225" width="1.025" height="1.025" fill="#7b8454" /><rect x="14.350" y="9.225" width="1.025" height="1.025" fill="#e5e191" /><rect x="10.250" y="10.250" width="1.025" height="1.025" fill="#7b8454" /><rect x="11.275" y="10.250" width="1.025" height="1.025" fill="#7b8454" /><rect x="12.300" y="10.250" width="1.025" height="1.025" fill="#7b8454" /><rect x="13.325" y="10.250" width="1.025" height="1.025" fill="#7b8454" /><rect x="14.350" y="10.250" width="1.025" height="1.025" fill="#fffaa2" /><rect x="10.250" y="11.275" width="1.025" height="1.025" fill="#7b8454" /><rect x="11.275" y="11.275" width="1.025" height="1.025" fill="#7b8454" /><rect x="12.300" y="11.275" width="1.025" height="1.025" fill="#7b8454" /><rect x="13.325" y="11.275" width="1.025" height="1.025" fill="#fffaa2" /><rect x="10.250" y="12.300" width="1.025" height="1.025" fill="#7b8454" /><rect x="11.275" y="12.300" width="1.025" height="1.025" fill="#7b8454" /><rect x="12.300" y="12.300" width="1.025" height="1.025" fill="#7b8454" /><rect x="13.325" y="12.300" width="1.025" height="1.025" fill="#fffaa2" /><rect x="10.250" y="13.325" width="1.025" height="1.025" fill="#7b8454" /><rect x="11.275" y="13.325" width="1.025" height="1.025" fill="#7b8454" /><rect x="12.300" y="13.325" width="1.025" height="1.025" fill="#7b8454" /><rect x="13.325" y="13.325" width="1.025" height="1.025" fill="#fffaa2" /><rect x="10.250" y="14.350" width="1.025" height="1.025" fill="#7b8454" /><rect x="11.275" y="14.350" width="1.025" height="1.025" fill="#7b8454" /><rect x="12.300" y="14.350" width="1.025" height="1.025" fill="#7b8454" /><rect x="13.325" y="14.350" width="1.025" height="1.025" fill="#fffaa2" /><rect x="10.250" y="15.375" width="1.025" height="1.025" fill="#7b8454" /><rect x="11.275" y="15.375" width="1.025" height="1.025" fill="#7b8454" /><rect x="12.300" y="15.375" width="1.025" height="1.025" fill="#7b8454" /><rect x="13.325" y="15.375" width="1.025" height="1.025" fill="#fffaa2" /><rect x="10.250" y="16.400" width="1.025" height="1.025" fill="#7b8454" /><rect x="11.275" y="16.400" width="1.025" height="1.025" fill="#7b8454" /><rect x="12.300" y="16.400" width="1.025" height="1.025" fill="#7b8454" /><rect x="13.325" y="16.400" width="1.025" height="1.025" fill="#fffaa2" /><rect x="10.250" y="17.425" width="1.025" height="1.025" fill="#7b8454" /><rect x="11.275" y="17.425" width="1.025" height="1.025" fill="#7b8454" /><rect x="12.300" y="17.425" width="1.025" height="1.025" fill="#7b8454" /><rect x="13.325" y="17.425" width="1.025" height="1.025" fill="#fffaa2" /><rect x="10.250" y="18.450" width="1.025" height="1.025" fill="#7b8454" /><rect x="11.275" y="18.450" width="1.025" height="1.025" fill="#7b8454" /><rect x="12.300" y="18.450" width="1.025" height="1.025" fill="#7b8454" /><rect x="13.325" y="18.450" width="1.025" height="1.025" fill="#fffaa2" /><rect x="4.100" y="19.475" width="1.025" height="1.025" fill="#7b8454" /><rect x="5.125" y="19.475" width="1.025" height="1.025" fill="#7b8454" /><rect x="6.150" y="19.475" width="1.025" height="1.025" fill="#fffaa2" /><rect x="7.175" y="19.475" width="1.025" height="1.025" fill="#fffaa2" /><rect x="8.200" y="19.475" width="1.025" height="1.025" fill="#fffaa2" /><rect x="9.225" y="19.475" width="1.025" height="1.025" fill="#fffaa2" /><rect x="10.250" y="19.475" width="1.025" height="1.025" fill="#7b8454" /><rect x="11.275" y="19.475" width="1.025" height="1.025" fill="#7b8454" /><rect x="12.300" y="19.475" width="1.025" height="1.025" fill="#7b8454" /><rect x="13.325" y="19.475" width="1.025" height="1.025" fill="#fffaa2" /><rect x="5.125" y="20.500" width="1.025" height="1.025" fill="#7b8454" /><rect x="6.150" y="20.500" width="1.025" height="1.025" fill="#fffaa2" /><rect x="7.175" y="20.500" width="1.025" height="1.025" fill="#fffaa2" /><rect x="8.200" y="20.500" width="1.025" height="1.025" fill="#fffaa2" /><rect x="9.225" y="20.500" width="1.025" height="1.025" fill="#fffaa2" /><rect x="10.250" y="20.500" width="1.025" height="1.025" fill="#7b8454" /><rect x="11.275" y="20.500" width="1.025" height="1.025" fill="#7b8454" /><rect x="12.300" y="20.500" width="1.025" height="1.025" fill="#7b8454" /><rect x="13.325" y="20.500" width="1.025" height="1.025" fill="#fffaa2" /><rect x="5.125" y="21.525" width="1.025" height="1.025" fill="#7b8454" /><rect x="6.150" y="21.525" width="1.025" height="1.025" fill="#fffaa2" /><rect x="7.175" y="21.525" width="1.025" height="1.025" fill="#fffaa2" /><rect x="8.200" y="21.525" width="1.025" height="1.025" fill="#fffaa2" /><rect x="9.225" y="21.525" width="1.025" height="1.025" fill="#fffaa2" /><rect x="10.250" y="21.525" width="1.025" height="1.025" fill="#7b8454" /><rect x="11.275" y="21.525" width="1.025" height="1.025" fill="#7b8454" /><rect x="12.300" y="21.525" width="1.025" height="1.025" fill="#7b8454" /><rect x="13.325" y="21.525" width="1.025" height="1.025" fill="#fffaa2" /><rect x="5.125" y="22.550" width="1.025" height="1.025" fill="#7b8454" /><rect x="6.150" y="22.550" width="1.025" height="1.025" fill="#7b8454" /><rect x="7.175" y="22.550" width="1.025" height="1.025" fill="#7b8454" /><rect x="8.200" y="22.550" width="1.025" height="1.025" fill="#7b8454" /><rect x="9.225" y="22.550" width="1.025" height="1.025" fill="#7b8454" /><rect x="10.250" y="22.550" width="1.025" height="1.025" fill="#7b8454" /><rect x="11.275" y="22.550" width="1.025" height="1.025" fill="#7b8454" /><rect x="12.300" y="22.550" width="1.025" height="1.025" fill="#7b8454" /><rect x="13.325" y="22.550" width="1.025" height="1.025" fill="#fffaa2" /></svg>