<svg xmlns="http://www.w3.org/2000/svg" width="37.925" height="37.925" shape-rendering="crispEdges" style="image-rendering: pixelated;"><rect x="15.375" y="12.300" width="1.025" height="1.025" fill="#0d67a7" /><rect x="16.400" y="12.300" width="1.025" height="1.025" fill="#0d67a7" /><rect x="17.425" y="12.300" width="1.025" height="1.025" fill="#0d67a7" /><rect x="18.450" y="12.300" width="1.025" height="1.025" fill="#39acff" /><rect x="19.475" y="12.300" width="1.025" height="1.025" fill="#39acff" /><rect x="20.500" y="12.300" width="1.025" height="1.025" fill="#39acff" /><rect x="21.525" y="12.300" width="1.025" height="1.025" fill="#39acff" /><rect x="22.550" y="12.300" width="1.025" height="1.025" fill="#39acff" /><rect x="23.575" y="12.300" width="1.025" height="1.025" fill="#39acff" /><rect x="24.600" y="12.300" width="1.025" height="1.025" fill="#39acff" /><rect x="25.625" y="12.300" width="1.025" height="1.025" fill="#39acff" /><rect x="26.650" y="12.300" width="1.025" height="1.025" fill="#39acff" /><rect x="15.375" y="13.325" width="1.025" height="1.025" fill="#0d67a7" /><rect x="16.400" y="13.325" width="1.025" height="1.025" fill="#39acff" /><rect x="17.425" y="13.325" width="1.025" height="1.025" fill="#1c1c1c" /><rect x="18.450" y="13.325" width="1.025" height="1.025" fill="#363636" /><rect x="19.475" y="13.325" width="1.025" height="1.025" fill="#363636" /><rect x="20.500" y="13.325" width="1.025" height="1.025" fill="#363636" /><rect x="21.525" y="13.325" width="1.025" height="1.025" fill="#0d67a7" /><rect x="22.550" y="13.325" width="1.025" height="1.025" fill="#39acff" /><rect x="23.575" y="13.325" width="1.025" height="1.025" fill="#363636" /><rect x="24.600" y="13.325" width="1.025" height="1.025" fill="#363636" /><rect x="25.625" y="13.325" width="1.025" height="1.025" fill="#363636" /><rect x="15.375" y="14.350" width="1.025" height="1.025" fill="#0d67a7" /><rect x="16.400" y="14.350" width="1.025" height="1.025" fill="#39acff" /><rect x="17.425" y="14.350" width="1.025" height="1.025" fill="#1c1c1c" /><rect x="18.450" y="14.350" width="1.025" height="1.025" fill="#363636" /><rect x="19.475" y="14.350" width="1.025" height="1.025" fill="#363636" /><rect x="20.500" y="14.350" width="1.025" height="1.025" fill="#363636" /><rect x="21.525" y="14.350" width="1.025" height="1.025" fill="#0d67a7" /><rect x="22.550" y="14.350" width="1.025" height="1.025" fill="#39acff" /><rect x="23.575" y="14.350" width="1.025" height="1.025" fill="#363636" /><rect x="24.600" y="14.350" width="1.025" height="1.025" fill="#363636" /><rect x="25.625" y="14.350" width="1.025" height="1.025" fill="#363636" /><rect x="15.375" y="15.375" width="1.025" height="1.025" fill="#0d67a7" /><rect x="16.400" y="15.375" width="1.025" height="1.025" fill="#0d67a7" /><rect x="17.425" y="15.375" width="1.025" height="1.025" fill="#0d67a7" /><rect x="18.450" y="15.375" width="1.025" height="1.025" fill="#39acff" /><rect x="19.475" y="15.375" width="1.025" height="1.025" fill="#39acff" /><rect x="20.500" y="15.375" width="1.025" height="1.025" fill="#39acff" /><rect x="21.525" y="15.375" width="1.025" height="1.025" fill="#39acff" /><rect x="22.550" y="15.375" width="1.025" height="1.025" fill="#39acff" /><rect x="23.575" y="15.375" width="1.025" height="1.025" fill="#39acff" /><rect x="24.600" y="15.375" width="1.025" height="1.025" fill="#39acff" /><rect x="25.625" y="15.375" width="1.025" height="1.025" fill="#39acff" /><rect x="26.650" y="15.375" width="1.025" height="1.025" fill="#39acff" /></svg>