<svg xmlns="http://www.w3.org/2000/svg" width="37.925" height="37.925" shape-rendering="crispEdges" style="image-rendering: pixelated;"><rect x="16.400" y="12.300" width="1.025" height="1.025" fill="#ffffff" /><rect x="17.425" y="12.300" width="1.025" height="1.025" fill="#ffffff" /><rect x="18.450" y="12.300" width="1.025" height="1.025" fill="#ffffff" /><rect x="19.475" y="12.300" width="1.025" height="1.025" fill="#ffffff" /><rect x="22.550" y="12.300" width="1.025" height="1.025" fill="#ffffff" /><rect x="23.575" y="12.300" width="1.025" height="1.025" fill="#ffffff" /><rect x="24.600" y="12.300" width="1.025" height="1.025" fill="#ffffff" /><rect x="16.400" y="13.325" width="1.025" height="1.025" fill="#ffffff" /><rect x="17.425" y="13.325" width="1.025" height="1.025" fill="#ffffff" /><rect x="18.450" y="13.325" width="1.025" height="1.025" fill="#000000" /><rect x="19.475" y="13.325" width="1.025" height="1.025" fill="#000000" /><rect x="22.550" y="13.325" width="1.025" height="1.025" fill="#ffffff" /><rect x="23.575" y="13.325" width="1.025" height="1.025" fill="#000000" /><rect x="24.600" y="13.325" width="1.025" height="1.025" fill="#000000" /><rect x="16.400" y="14.350" width="1.025" height="1.025" fill="#ffffff" /><rect x="17.425" y="14.350" width="1.025" height="1.025" fill="#ffffff" /><rect x="18.450" y="14.350" width="1.025" height="1.025" fill="#000000" /><rect x="19.475" y="14.350" width="1.025" height="1.025" fill="#000000" /><rect x="22.550" y="14.350" width="1.025" height="1.025" fill="#ffffff" /><rect x="23.575" y="14.350" width="1.025" height="1.025" fill="#000000" /><rect x="24.600" y="14.350" width="1.025" height="1.025" fill="#000000" /><rect x="16.400" y="15.375" width="1.025" height="1.025" fill="#ffffff" /><rect x="17.425" y="15.375" width="1.025" height="1.025" fill="#ffffff" /><rect x="18.450" y="15.375" width="1.025" height="1.025" fill="#ffffff" /><rect x="19.475" y="15.375" width="1.025" height="1.025" fill="#ffffff" /><rect x="22.550" y="15.375" width="1.025" height="1.025" fill="#ffffff" /><rect x="23.575" y="15.375" width="1.025" height="1.025" fill="#ffffff" /><rect x="24.600" y="15.375" width="1.025" height="1.025" fill="#ffffff" /></svg>