<svg xmlns="http://www.w3.org/2000/svg" width="37.925" height="37.925" shape-rendering="crispEdges" style="image-rendering: pixelated;"><rect x="16.400" y="9.225" width="1.025" height="1.025" fill="#9b6f01" /><rect x="17.425" y="9.225" width="1.025" height="1.025" fill="#a67700" /><rect x="18.450" y="9.225" width="1.025" height="1.025" fill="#ffd400" /><rect x="19.475" y="9.225" width="1.025" height="1.025" fill="#ffdf42" /><rect x="20.500" y="9.225" width="1.025" height="1.025" fill="#ffed94" /><rect x="22.550" y="9.225" width="1.025" height="1.025" fill="#a67700" /><rect x="23.575" y="9.225" width="1.025" height="1.025" fill="#a67700" /><rect x="24.600" y="9.225" width="1.025" height="1.025" fill="#ffdf42" /><rect x="25.625" y="9.225" width="1.025" height="1.025" fill="#ffdf42" /><rect x="26.650" y="9.225" width="1.025" height="1.025" fill="#ffed94" /><rect x="7.175" y="10.250" width="1.025" height="1.025" fill="#a67700" /><rect x="8.200" y="10.250" width="1.025" height="1.025" fill="#a67700" /><rect x="9.225" y="10.250" width="1.025" height="1.025" fill="#a67700" /><rect x="10.250" y="10.250" width="1.025" height="1.025" fill="#a67700" /><rect x="11.275" y="10.250" width="1.025" height="1.025" fill="#ffe771" /><rect x="12.300" y="10.250" width="1.025" height="1.025" fill="#a67700" /><rect x="13.325" y="10.250" width="1.025" height="1.025" fill="#a17300" /><rect x="14.350" y="10.250" width="1.025" height="1.025" fill="#ffe771" /><rect x="15.375" y="10.250" width="1.025" height="1.025" fill="#ffdf42" /><rect x="16.400" y="10.250" width="1.025" height="1.025" fill="#ffd400" /><rect x="17.425" y="10.250" width="1.025" height="1.025" fill="#af8000" /><rect x="18.450" y="10.250" width="1.025" height="1.025" fill="#ffdf42" /><rect x="19.475" y="10.250" width="1.025" height="1.025" fill="#ffd400" /><rect x="20.500" y="10.250" width="1.025" height="1.025" fill="#ffdf42" /><rect x="21.525" y="10.250" width="1.025" height="1.025" fill="#ffd400" /><rect x="22.550" y="10.250" width="1.025" height="1.025" fill="#ffd400" /><rect x="23.575" y="10.250" width="1.025" height="1.025" fill="#ffdf42" /><rect x="24.600" y="10.250" width="1.025" height="1.025" fill="#ffe771" /><rect x="25.625" y="10.250" width="1.025" height="1.025" fill="#ffdf42" /><rect x="26.650" y="10.250" width="1.025" height="1.025" fill="#ffd400" /><rect x="9.225" y="11.275" width="1.025" height="1.025" fill="#a67700" /><rect x="10.250" y="11.275" width="1.025" height="1.025" fill="#a67700" /><rect x="11.275" y="11.275" width="1.025" height="1.025" fill="#ffdf42" /><rect x="12.300" y="11.275" width="1.025" height="1.025" fill="#a67700" /><rect x="13.325" y="11.275" width="1.025" height="1.025" fill="#a67700" /><rect x="14.350" y="11.275" width="1.025" height="1.025" fill="#ffdf42" /><rect x="15.375" y="11.275" width="1.025" height="1.025" fill="#ffd400" /><rect x="16.400" y="11.275" width="1.025" height="1.025" fill="#ffd400" /><rect x="17.425" y="11.275" width="1.025" height="1.025" fill="#a67700" /><rect x="18.450" y="11.275" width="1.025" height="1.025" fill="#a67700" /><rect x="19.475" y="11.275" width="1.025" height="1.025" fill="#a67700" /><rect x="20.500" y="11.275" width="1.025" height="1.025" fill="#a67700" /><rect x="21.525" y="11.275" width="1.025" height="1.025" fill="#a67700" /><rect x="22.550" y="11.275" width="1.025" height="1.025" fill="#ffe771" /><rect x="23.575" y="11.275" width="1.025" height="1.025" fill="#ffdf42" /><rect x="24.600" y="11.275" width="1.025" height="1.025" fill="#ffd400" /><rect x="25.625" y="11.275" width="1.025" height="1.025" fill="#ffdf42" /><rect x="26.650" y="11.275" width="1.025" height="1.025" fill="#ffe771" /><rect x="27.675" y="11.275" width="1.025" height="1.025" fill="#ffdf42" /><rect x="28.700" y="11.275" width="1.025" height="1.025" fill="#ffd400" /><rect x="16.400" y="12.300" width="1.025" height="1.025" fill="#9b6f01" /><rect x="17.425" y="12.300" width="1.025" height="1.025" fill="#9b6f01" /><rect x="18.450" y="12.300" width="1.025" height="1.025" fill="#a67700" /><rect x="19.475" y="12.300" width="1.025" height="1.025" fill="#ffd400" /><rect x="20.500" y="12.300" width="1.025" height="1.025" fill="#850002" /><rect x="21.525" y="12.300" width="1.025" height="1.025" fill="#850002" /><rect x="22.550" y="12.300" width="1.025" height="1.025" fill="#f00004" /><rect x="23.575" y="12.300" width="1.025" height="1.025" fill="#f00004" /><rect x="24.600" y="12.300" width="1.025" height="1.025" fill="#850002" /><rect x="25.625" y="12.300" width="1.025" height="1.025" fill="#ffe771" /><rect x="26.650" y="12.300" width="1.025" height="1.025" fill="#f00004" /><rect x="27.675" y="12.300" width="1.025" height="1.025" fill="#f00004" /><rect x="8.200" y="13.325" width="1.025" height="1.025" fill="#a67700" /><rect x="9.225" y="13.325" width="1.025" height="1.025" fill="#a67700" /><rect x="10.250" y="13.325" width="1.025" height="1.025" fill="#a67700" /><rect x="11.275" y="13.325" width="1.025" height="1.025" fill="#a67700" /><rect x="12.300" y="13.325" width="1.025" height="1.025" fill="#ffe771" /><rect x="13.325" y="13.325" width="1.025" height="1.025" fill="#a67700" /><rect x="14.350" y="13.325" width="1.025" height="1.025" fill="#a17300" /><rect x="15.375" y="13.325" width="1.025" height="1.025" fill="#ffe771" /><rect x="16.400" y="13.325" width="1.025" height="1.025" fill="#ffdf42" /><rect x="17.425" y="13.325" width="1.025" height="1.025" fill="#ffd400" /><rect x="18.450" y="13.325" width="1.025" height="1.025" fill="#a67700" /><rect x="19.475" y="13.325" width="1.025" height="1.025" fill="#a67700" /><rect x="20.500" y="13.325" width="1.025" height="1.025" fill="#a17300" /><rect x="21.525" y="13.325" width="1.025" height="1.025" fill="#9b6f01" /><rect x="22.550" y="13.325" width="1.025" height="1.025" fill="#ffd400" /><rect x="23.575" y="13.325" width="1.025" height="1.025" fill="#ffdf42" /><rect x="24.600" y="13.325" width="1.025" height="1.025" fill="#ffe771" /><rect x="25.625" y="13.325" width="1.025" height="1.025" fill="#ffdf42" /><rect x="26.650" y="13.325" width="1.025" height="1.025" fill="#ffd400" /><rect x="27.675" y="13.325" width="1.025" height="1.025" fill="#ffd400" /><rect x="28.700" y="13.325" width="1.025" height="1.025" fill="#ffe771" /><rect x="16.400" y="14.350" width="1.025" height="1.025" fill="#9b6f01" /><rect x="17.425" y="14.350" width="1.025" height="1.025" fill="#9b6f01" /><rect x="18.450" y="14.350" width="1.025" height="1.025" fill="#a67700" /><rect x="19.475" y="14.350" width="1.025" height="1.025" fill="#a17300" /><rect x="20.500" y="14.350" width="1.025" height="1.025" fill="#9b6f01" /><rect x="21.525" y="14.350" width="1.025" height="1.025" fill="#a17300" /><rect x="22.550" y="14.350" width="1.025" height="1.025" fill="#ffdf42" /><rect x="23.575" y="14.350" width="1.025" height="1.025" fill="#ffe771" /><rect x="24.600" y="14.350" width="1.025" height="1.025" fill="#ffdf42" /><rect x="25.625" y="14.350" width="1.025" height="1.025" fill="#ffd400" /><rect x="26.650" y="14.350" width="1.025" height="1.025" fill="#ffd400" /><rect x="27.675" y="14.350" width="1.025" height="1.025" fill="#9b6f01" /><rect x="28.700" y="14.350" width="1.025" height="1.025" fill="#a17300" /><rect x="29.725" y="14.350" width="1.025" height="1.025" fill="#ffdf42" /><rect x="30.750" y="14.350" width="1.025" height="1.025" fill="#ffed94" /><rect x="31.775" y="14.350" width="1.025" height="1.025" fill="#9b6f01" /><rect x="32.800" y="14.350" width="1.025" height="1.025" fill="#a67700" /><rect x="33.825" y="14.350" width="1.025" height="1.025" fill="#ffdf42" /><rect x="34.850" y="14.350" width="1.025" height="1.025" fill="#ffed94" /><rect x="9.225" y="15.375" width="1.025" height="1.025" fill="#a67700" /><rect x="10.250" y="15.375" width="1.025" height="1.025" fill="#a67700" /><rect x="11.275" y="15.375" width="1.025" height="1.025" fill="#a67700" /><rect x="12.300" y="15.375" width="1.025" height="1.025" fill="#ffe771" /><rect x="13.325" y="15.375" width="1.025" height="1.025" fill="#a67700" /><rect x="14.350" y="15.375" width="1.025" height="1.025" fill="#9b6f01" /><rect x="15.375" y="15.375" width="1.025" height="1.025" fill="#ffe771" /><rect x="16.400" y="15.375" width="1.025" height="1.025" fill="#ffdf42" /><rect x="17.425" y="15.375" width="1.025" height="1.025" fill="#ffd400" /><rect x="18.450" y="15.375" width="1.025" height="1.025" fill="#a17300" /><rect x="19.475" y="15.375" width="1.025" height="1.025" fill="#9b6f01" /><rect x="20.500" y="15.375" width="1.025" height="1.025" fill="#a17300" /><rect x="21.525" y="15.375" width="1.025" height="1.025" fill="#a67700" /><rect x="22.550" y="15.375" width="1.025" height="1.025" fill="#a67700" /><rect x="23.575" y="15.375" width="1.025" height="1.025" fill="#a67700" /><rect x="24.600" y="15.375" width="1.025" height="1.025" fill="#a67700" /><rect x="25.625" y="15.375" width="1.025" height="1.025" fill="#a17300" /><rect x="26.650" y="15.375" width="1.025" height="1.025" fill="#9b6f01" /><rect x="27.675" y="15.375" width="1.025" height="1.025" fill="#a17300" /><rect x="28.700" y="15.375" width="1.025" height="1.025" fill="#a67700" /><rect x="29.725" y="15.375" width="1.025" height="1.025" fill="#ffd400" /><rect x="30.750" y="15.375" width="1.025" height="1.025" fill="#ffd400" /><rect x="31.775" y="15.375" width="1.025" height="1.025" fill="#ffd400" /><rect x="32.800" y="15.375" width="1.025" height="1.025" fill="#ffd400" /><rect x="33.825" y="15.375" width="1.025" height="1.025" fill="#ffdf42" /><rect x="34.850" y="15.375" width="1.025" height="1.025" fill="#ffdf42" /><rect x="16.400" y="16.400" width="1.025" height="1.025" fill="#9b6f01" /><rect x="17.425" y="16.400" width="1.025" height="1.025" fill="#9b6f01" /><rect x="18.450" y="16.400" width="1.025" height="1.025" fill="#9b6f01" /><rect x="19.475" y="16.400" width="1.025" height="1.025" fill="#a17300" /><rect x="20.500" y="16.400" width="1.025" height="1.025" fill="#a67700" /><rect x="21.525" y="16.400" width="1.025" height="1.025" fill="#a67700" /><rect x="22.550" y="16.400" width="1.025" height="1.025" fill="#a67700" /><rect x="23.575" y="16.400" width="1.025" height="1.025" fill="#a67700" /><rect x="24.600" y="16.400" width="1.025" height="1.025" fill="#a17300" /><rect x="25.625" y="16.400" width="1.025" height="1.025" fill="#9b6f01" /><rect x="26.650" y="16.400" width="1.025" height="1.025" fill="#a17300" /><rect x="27.675" y="16.400" width="1.025" height="1.025" fill="#a67700" /><rect x="28.700" y="16.400" width="1.025" height="1.025" fill="#a67700" /><rect x="29.725" y="16.400" width="1.025" height="1.025" fill="#ffd400" /><rect x="30.750" y="16.400" width="1.025" height="1.025" fill="#a67700" /><rect x="31.775" y="16.400" width="1.025" height="1.025" fill="#ffdf42" /><rect x="32.800" y="16.400" width="1.025" height="1.025" fill="#ffd400" /><rect x="33.825" y="16.400" width="1.025" height="1.025" fill="#a67700" /><rect x="34.850" y="16.400" width="1.025" height="1.025" fill="#ffdf42" /><rect x="16.400" y="17.425" width="1.025" height="1.025" fill="#a17300" /><rect x="17.425" y="17.425" width="1.025" height="1.025" fill="#a17300" /><rect x="18.450" y="17.425" width="1.025" height="1.025" fill="#ffe771" /><rect x="19.475" y="17.425" width="1.025" height="1.025" fill="#ffdf42" /><rect x="20.500" y="17.425" width="1.025" height="1.025" fill="#a67700" /><rect x="21.525" y="17.425" width="1.025" height="1.025" fill="#a17300" /><rect x="22.550" y="17.425" width="1.025" height="1.025" fill="#ffe771" /><rect x="23.575" y="17.425" width="1.025" height="1.025" fill="#ffdf42" /><rect x="24.600" y="17.425" width="1.025" height="1.025" fill="#9b6f01" /><rect x="25.625" y="17.425" width="1.025" height="1.025" fill="#a17300" /><rect x="26.650" y="17.425" width="1.025" height="1.025" fill="#a67700" /><rect x="27.675" y="17.425" width="1.025" height="1.025" fill="#a17300" /><rect x="28.700" y="17.425" width="1.025" height="1.025" fill="#a17300" /><rect x="29.725" y="17.425" width="1.025" height="1.025" fill="#ffd400" /><rect x="30.750" y="17.425" width="1.025" height="1.025" fill="#ffd400" /><rect x="31.775" y="17.425" width="1.025" height="1.025" fill="#ffd400" /><rect x="32.800" y="17.425" width="1.025" height="1.025" fill="#ffd400" /><rect x="33.825" y="17.425" width="1.025" height="1.025" fill="#ffd400" /><rect x="34.850" y="17.425" width="1.025" height="1.025" fill="#ffdf42" /><rect x="16.400" y="18.450" width="1.025" height="1.025" fill="#9b6f01" /><rect x="17.425" y="18.450" width="1.025" height="1.025" fill="#a67700" /><rect x="18.450" y="18.450" width="1.025" height="1.025" fill="#ffdf42" /><rect x="19.475" y="18.450" width="1.025" height="1.025" fill="#a67700" /><rect x="20.500" y="18.450" width="1.025" height="1.025" fill="#a67700" /><rect x="21.525" y="18.450" width="1.025" height="1.025" fill="#a67700" /><rect x="22.550" y="18.450" width="1.025" height="1.025" fill="#ffdf42" /><rect x="23.575" y="18.450" width="1.025" height="1.025" fill="#9b6f01" /><rect x="24.600" y="18.450" width="1.025" height="1.025" fill="#a17300" /><rect x="25.625" y="18.450" width="1.025" height="1.025" fill="#a67700" /><rect x="26.650" y="18.450" width="1.025" height="1.025" fill="#a17300" /><rect x="27.675" y="18.450" width="1.025" height="1.025" fill="#a17300" /><rect x="28.700" y="18.450" width="1.025" height="1.025" fill="#cfa600" /><rect x="29.725" y="18.450" width="1.025" height="1.025" fill="#cfa600" /><rect x="30.750" y="18.450" width="1.025" height="1.025" fill="#cfa600" /><rect x="31.775" y="18.450" width="1.025" height="1.025" fill="#cfa600" /><rect x="32.800" y="18.450" width="1.025" height="1.025" fill="#cfa600" /><rect x="33.825" y="18.450" width="1.025" height="1.025" fill="#cfa600" /><rect x="11.275" y="19.475" width="1.025" height="1.025" fill="#a67700" /><rect x="12.300" y="19.475" width="1.025" height="1.025" fill="#9b6f01" /><rect x="13.325" y="19.475" width="1.025" height="1.025" fill="#ffe771" /><rect x="17.425" y="19.475" width="1.025" height="1.025" fill="#a67700" /><rect x="18.450" y="19.475" width="1.025" height="1.025" fill="#ffd400" /><rect x="21.525" y="19.475" width="1.025" height="1.025" fill="#a67700" /><rect x="22.550" y="19.475" width="1.025" height="1.025" fill="#ffd400" /><rect x="27.675" y="19.475" width="1.025" height="1.025" fill="#9b6f01" /><rect x="28.700" y="19.475" width="1.025" height="1.025" fill="#ffd400" /><rect x="32.800" y="19.475" width="1.025" height="1.025" fill="#9b6f01" /><rect x="33.825" y="19.475" width="1.025" height="1.025" fill="#ffd400" /><rect x="12.300" y="20.500" width="1.025" height="1.025" fill="#9b6f01" /><rect x="13.325" y="20.500" width="1.025" height="1.025" fill="#a67700" /><rect x="14.350" y="20.500" width="1.025" height="1.025" fill="#a67700" /><rect x="15.375" y="20.500" width="1.025" height="1.025" fill="#a67700" /><rect x="16.400" y="20.500" width="1.025" height="1.025" fill="#a67700" /><rect x="17.425" y="20.500" width="1.025" height="1.025" fill="#a17300" /><rect x="18.450" y="20.500" width="1.025" height="1.025" fill="#ffd400" /><rect x="21.525" y="20.500" width="1.025" height="1.025" fill="#a17300" /><rect x="22.550" y="20.500" width="1.025" height="1.025" fill="#ffd400" /><rect x="27.675" y="20.500" width="1.025" height="1.025" fill="#a17300" /><rect x="28.700" y="20.500" width="1.025" height="1.025" fill="#ffdf42" /><rect x="32.800" y="20.500" width="1.025" height="1.025" fill="#a17300" /><rect x="33.825" y="20.500" width="1.025" height="1.025" fill="#ffdf42" /><rect x="7.175" y="21.525" width="1.025" height="1.025" fill="#a67700" /><rect x="8.200" y="21.525" width="1.025" height="1.025" fill="#a67700" /><rect x="9.225" y="21.525" width="1.025" height="1.025" fill="#ffdf42" /><rect x="21.525" y="21.525" width="1.025" height="1.025" fill="#a67700" /><rect x="22.550" y="21.525" width="1.025" height="1.025" fill="#ffd400" /><rect x="27.675" y="21.525" width="1.025" height="1.025" fill="#a67700" /><rect x="28.700" y="21.525" width="1.025" height="1.025" fill="#ffe771" /><rect x="32.800" y="21.525" width="1.025" height="1.025" fill="#a67700" /><rect x="33.825" y="21.525" width="1.025" height="1.025" fill="#ffe771" /><rect x="8.200" y="22.550" width="1.025" height="1.025" fill="#a67700" /><rect x="9.225" y="22.550" width="1.025" height="1.025" fill="#9b6f01" /><rect x="10.250" y="22.550" width="1.025" height="1.025" fill="#a17300" /><rect x="11.275" y="22.550" width="1.025" height="1.025" fill="#a67700" /><rect x="12.300" y="22.550" width="1.025" height="1.025" fill="#a67700" /><rect x="13.325" y="22.550" width="1.025" height="1.025" fill="#ffe771" /><rect x="18.450" y="22.550" width="1.025" height="1.025" fill="#a67700" /><rect x="19.475" y="22.550" width="1.025" height="1.025" fill="#9b6f01" /><rect x="20.500" y="22.550" width="1.025" height="1.025" fill="#a67700" /><rect x="21.525" y="22.550" width="1.025" height="1.025" fill="#a67700" /><rect x="22.550" y="22.550" width="1.025" height="1.025" fill="#ffd400" /><rect x="12.300" y="23.575" width="1.025" height="1.025" fill="#a67700" /><rect x="13.325" y="23.575" width="1.025" height="1.025" fill="#a67700" /><rect x="14.350" y="23.575" width="1.025" height="1.025" fill="#a67700" /><rect x="15.375" y="23.575" width="1.025" height="1.025" fill="#a67700" /><rect x="16.400" y="23.575" width="1.025" height="1.025" fill="#a17300" /><rect x="17.425" y="23.575" width="1.025" height="1.025" fill="#a67700" /><rect x="18.450" y="23.575" width="1.025" height="1.025" fill="#a17300" /><rect x="19.475" y="23.575" width="1.025" height="1.025" fill="#ffdf42" /></svg>