<svg xmlns="http://www.w3.org/2000/svg" width="37.925" height="37.925" shape-rendering="crispEdges" style="image-rendering: pixelated;"><rect x="12.300" y="27.675" width="1.025" height="1.025" fill="#000000" /><rect x="11.275" y="28.700" width="1.025" height="1.025" fill="#000000" /><rect x="12.300" y="28.700" width="1.025" height="1.025" fill="#272727" /><rect x="13.325" y="28.700" width="1.025" height="1.025" fill="#161616" /><rect x="20.500" y="28.700" width="1.025" height="1.025" fill="#000000" /><rect x="21.525" y="28.700" width="1.025" height="1.025" fill="#000000" /><rect x="9.225" y="29.725" width="1.025" height="1.025" fill="#000000" /><rect x="10.250" y="29.725" width="1.025" height="1.025" fill="#000000" /><rect x="11.275" y="29.725" width="1.025" height="1.025" fill="#1a1a1a" /><rect x="12.300" y="29.725" width="1.025" height="1.025" fill="#232323" /><rect x="13.325" y="29.725" width="1.025" height="1.025" fill="#242424" /><rect x="20.500" y="29.725" width="1.025" height="1.025" fill="#252525" /><rect x="21.525" y="29.725" width="1.025" height="1.025" fill="#212121" /><rect x="22.550" y="29.725" width="1.025" height="1.025" fill="#000000" /><rect x="23.575" y="29.725" width="1.025" height="1.025" fill="#000000" /><rect x="7.175" y="30.750" width="1.025" height="1.025" fill="#000000" /><rect x="8.200" y="30.750" width="1.025" height="1.025" fill="#000000" /><rect x="9.225" y="30.750" width="1.025" height="1.025" fill="#1f1f1f" /><rect x="10.250" y="30.750" width="1.025" height="1.025" fill="#212121" /><rect x="11.275" y="30.750" width="1.025" height="1.025" fill="#1f1f1f" /><rect x="12.300" y="30.750" width="1.025" height="1.025" fill="#272727" /><rect x="13.325" y="30.750" width="1.025" height="1.025" fill="#272727" /><rect x="14.350" y="30.750" width="1.025" height="1.025" fill="#282828" /><rect x="20.500" y="30.750" width="1.025" height="1.025" fill="#282828" /><rect x="21.525" y="30.750" width="1.025" height="1.025" fill="#272727" /><rect x="22.550" y="30.750" width="1.025" height="1.025" fill="#232323" /><rect x="23.575" y="30.750" width="1.025" height="1.025" fill="#1f1f1f" /><rect x="24.600" y="30.750" width="1.025" height="1.025" fill="#000000" /><rect x="25.625" y="30.750" width="1.025" height="1.025" fill="#000000" /><rect x="6.150" y="31.775" width="1.025" height="1.025" fill="#000000" /><rect x="7.175" y="31.775" width="1.025" height="1.025" fill="#000000" /><rect x="8.200" y="31.775" width="1.025" height="1.025" fill="#1d1d1d" /><rect x="9.225" y="31.775" width="1.025" height="1.025" fill="#232323" /><rect x="10.250" y="31.775" width="1.025" height="1.025" fill="#232323" /><rect x="11.275" y="31.775" width="1.025" height="1.025" fill="#212121" /><rect x="12.300" y="31.775" width="1.025" height="1.025" fill="#242424" /><rect x="13.325" y="31.775" width="1.025" height="1.025" fill="#252525" /><rect x="14.350" y="31.775" width="1.025" height="1.025" fill="#272727" /><rect x="15.375" y="31.775" width="1.025" height="1.025" fill="#252525" /><rect x="19.475" y="31.775" width="1.025" height="1.025" fill="#272727" /><rect x="20.500" y="31.775" width="1.025" height="1.025" fill="#282828" /><rect x="21.525" y="31.775" width="1.025" height="1.025" fill="#3a3a3a" /><rect x="22.550" y="31.775" width="1.025" height="1.025" fill="#252525" /><rect x="23.575" y="31.775" width="1.025" height="1.025" fill="#232323" /><rect x="24.600" y="31.775" width="1.025" height="1.025" fill="#242424" /><rect x="25.625" y="31.775" width="1.025" height="1.025" fill="#1f1f1f" /><rect x="26.650" y="31.775" width="1.025" height="1.025" fill="#000000" /><rect x="5.125" y="32.800" width="1.025" height="1.025" fill="#000000" /><rect x="6.150" y="32.800" width="1.025" height="1.025" fill="#131313" /><rect x="7.175" y="32.800" width="1.025" height="1.025" fill="#121212" /><rect x="8.200" y="32.800" width="1.025" height="1.025" fill="#1a1a1a" /><rect x="9.225" y="32.800" width="1.025" height="1.025" fill="#212121" /><rect x="10.250" y="32.800" width="1.025" height="1.025" fill="#212121" /><rect x="11.275" y="32.800" width="1.025" height="1.025" fill="#1d1d1d" /><rect x="12.300" y="32.800" width="1.025" height="1.025" fill="#232323" /><rect x="13.325" y="32.800" width="1.025" height="1.025" fill="#242424" /><rect x="14.350" y="32.800" width="1.025" height="1.025" fill="#f4f4f4" /><rect x="15.375" y="32.800" width="1.025" height="1.025" fill="#5b5b5b" /><rect x="16.400" y="32.800" width="1.025" height="1.025" fill="#242424" /><rect x="18.450" y="32.800" width="1.025" height="1.025" fill="#252525" /><rect x="19.475" y="32.800" width="1.025" height="1.025" fill="#252525" /><rect x="20.500" y="32.800" width="1.025" height="1.025" fill="#767676" /><rect x="21.525" y="32.800" width="1.025" height="1.025" fill="#fbfbfb" /><rect x="22.550" y="32.800" width="1.025" height="1.025" fill="#343434" /><rect x="23.575" y="32.800" width="1.025" height="1.025" fill="#232323" /><rect x="24.600" y="32.800" width="1.025" height="1.025" fill="#1f1f1f" /><rect x="25.625" y="32.800" width="1.025" height="1.025" fill="#232323" /><rect x="26.650" y="32.800" width="1.025" height="1.025" fill="#1a1a1a" /><rect x="27.675" y="32.800" width="1.025" height="1.025" fill="#000000" /><rect x="5.125" y="33.825" width="1.025" height="1.025" fill="#000000" /><rect x="6.150" y="33.825" width="1.025" height="1.025" fill="#121212" /><rect x="7.175" y="33.825" width="1.025" height="1.025" fill="#0c0c0c" /><rect x="8.200" y="33.825" width="1.025" height="1.025" fill="#1a1a1a" /><rect x="9.225" y="33.825" width="1.025" height="1.025" fill="#131313" /><rect x="10.250" y="33.825" width="1.025" height="1.025" fill="#000000" /><rect x="11.275" y="33.825" width="1.025" height="1.025" fill="#161616" /><rect x="12.300" y="33.825" width="1.025" height="1.025" fill="#1f1f1f" /><rect x="13.325" y="33.825" width="1.025" height="1.025" fill="#232323" /><rect x="14.350" y="33.825" width="1.025" height="1.025" fill="#c0c0c0" /><rect x="15.375" y="33.825" width="1.025" height="1.025" fill="#fdfdfd" /><rect x="16.400" y="33.825" width="1.025" height="1.025" fill="#232323" /><rect x="17.425" y="33.825" width="1.025" height="1.025" fill="#242424" /><rect x="18.450" y="33.825" width="1.025" height="1.025" fill="#212121" /><rect x="19.475" y="33.825" width="1.025" height="1.025" fill="#737373" /><rect x="20.500" y="33.825" width="1.025" height="1.025" fill="#fcfcfc" /><rect x="21.525" y="33.825" width="1.025" height="1.025" fill="#5f5f5f" /><rect x="22.550" y="33.825" width="1.025" height="1.025" fill="#232323" /><rect x="23.575" y="33.825" width="1.025" height="1.025" fill="#1a1a1a" /><rect x="24.600" y="33.825" width="1.025" height="1.025" fill="#000000" /><rect x="25.625" y="33.825" width="1.025" height="1.025" fill="#1a1a1a" /><rect x="26.650" y="33.825" width="1.025" height="1.025" fill="#191919" /><rect x="27.675" y="33.825" width="1.025" height="1.025" fill="#000000" /><rect x="5.125" y="34.850" width="1.025" height="1.025" fill="#000000" /><rect x="6.150" y="34.850" width="1.025" height="1.025" fill="#0c0c0c" /><rect x="7.175" y="34.850" width="1.025" height="1.025" fill="#0b0b0b" /><rect x="8.200" y="34.850" width="1.025" height="1.025" fill="#161616" /><rect x="9.225" y="34.850" width="1.025" height="1.025" fill="#000000" /><rect x="10.250" y="34.850" width="1.025" height="1.025" fill="#000000" /><rect x="11.275" y="34.850" width="1.025" height="1.025" fill="#000000" /><rect x="12.300" y="34.850" width="1.025" height="1.025" fill="#1a1a1a" /><rect x="13.325" y="34.850" width="1.025" height="1.025" fill="#191919" /><rect x="14.350" y="34.850" width="1.025" height="1.025" fill="#383838" /><rect x="15.375" y="34.850" width="1.025" height="1.025" fill="#d8d8d8" /><rect x="16.400" y="34.850" width="1.025" height="1.025" fill="#e7e7e7" /><rect x="17.425" y="34.850" width="1.025" height="1.025" fill="#ffffff" /><rect x="18.450" y="34.850" width="1.025" height="1.025" fill="#fcfcfc" /><rect x="19.475" y="34.850" width="1.025" height="1.025" fill="#fbfbfb" /><rect x="20.500" y="34.850" width="1.025" height="1.025" fill="#bdbdbd" /><rect x="21.525" y="34.850" width="1.025" height="1.025" fill="#2c2c2c" /><rect x="22.550" y="34.850" width="1.025" height="1.025" fill="#1a1a1a" /><rect x="23.575" y="34.850" width="1.025" height="1.025" fill="#050505" /><rect x="24.600" y="34.850" width="1.025" height="1.025" fill="#000000" /><rect x="25.625" y="34.850" width="1.025" height="1.025" fill="#131313" /><rect x="26.650" y="34.850" width="1.025" height="1.025" fill="#0e0e0e" /><rect x="27.675" y="34.850" width="1.025" height="1.025" fill="#000000" /><rect x="5.125" y="35.875" width="1.025" height="1.025" fill="#000000" /><rect x="6.150" y="35.875" width="1.025" height="1.025" fill="#040404" /><rect x="7.175" y="35.875" width="1.025" height="1.025" fill="#040404" /><rect x="8.200" y="35.875" width="1.025" height="1.025" fill="#040404" /><rect x="9.225" y="35.875" width="1.025" height="1.025" fill="#070707" /><rect x="10.250" y="35.875" width="1.025" height="1.025" fill="#000000" /><rect x="11.275" y="35.875" width="1.025" height="1.025" fill="#000000" /><rect x="12.300" y="35.875" width="1.025" height="1.025" fill="#0c0c0c" /><rect x="13.325" y="35.875" width="1.025" height="1.025" fill="#373737" /><rect x="14.350" y="35.875" width="1.025" height="1.025" fill="#ffffff" /><rect x="15.375" y="35.875" width="1.025" height="1.025" fill="#f0f0f0" /><rect x="16.400" y="35.875" width="1.025" height="1.025" fill="#f7f7f7" /><rect x="17.425" y="35.875" width="1.025" height="1.025" fill="#b3b3b3" /><rect x="18.450" y="35.875" width="1.025" height="1.025" fill="#cbcbcb" /><rect x="19.475" y="35.875" width="1.025" height="1.025" fill="#797979" /><rect x="20.500" y="35.875" width="1.025" height="1.025" fill="#e2e2e2" /><rect x="21.525" y="35.875" width="1.025" height="1.025" fill="#f6f6f6" /><rect x="22.550" y="35.875" width="1.025" height="1.025" fill="#262626" /><rect x="23.575" y="35.875" width="1.025" height="1.025" fill="#000000" /><rect x="24.600" y="35.875" width="1.025" height="1.025" fill="#000000" /><rect x="25.625" y="35.875" width="1.025" height="1.025" fill="#070707" /><rect x="26.650" y="35.875" width="1.025" height="1.025" fill="#070707" /><rect x="27.675" y="35.875" width="1.025" height="1.025" fill="#000000" /><rect x="10.250" y="36.900" width="1.025" height="1.025" fill="#000000" /><rect x="11.275" y="36.900" width="1.025" height="1.025" fill="#000000" /><rect x="12.300" y="36.900" width="1.025" height="1.025" fill="#0a0a0a" /><rect x="13.325" y="36.900" width="1.025" height="1.025" fill="#fdfdfd" /><rect x="14.350" y="36.900" width="1.025" height="1.025" fill="#c7c7c7" /><rect x="15.375" y="36.900" width="1.025" height="1.025" fill="#161616" /><rect x="16.400" y="36.900" width="1.025" height="1.025" fill="#939393" /><rect x="17.425" y="36.900" width="1.025" height="1.025" fill="#ffffff" /><rect x="18.450" y="36.900" width="1.025" height="1.025" fill="#3e3e3e" /><rect x="19.475" y="36.900" width="1.025" height="1.025" fill="#f7f7f7" /><rect x="20.500" y="36.900" width="1.025" height="1.025" fill="#2d2d2d" /><rect x="21.525" y="36.900" width="1.025" height="1.025" fill="#e7e7e7" /><rect x="22.550" y="36.900" width="1.025" height="1.025" fill="#f8f8f8" /><rect x="23.575" y="36.900" width="1.025" height="1.025" fill="#020202" /><rect x="24.600" y="36.900" width="1.025" height="1.025" fill="#000000" /></svg>