<svg xmlns="http://www.w3.org/2000/svg" width="37.925" height="37.925" shape-rendering="crispEdges" style="image-rendering: pixelated;"><rect x="30.750" y="22.550" width="1.025" height="1.025" fill="#fff7af" /><rect x="31.775" y="22.550" width="1.025" height="1.025" fill="#ffffff" /><rect x="32.800" y="22.550" width="1.025" height="1.025" fill="#ffffff" /><rect x="29.725" y="23.575" width="1.025" height="1.025" fill="#fbfbfb" /><rect x="30.750" y="23.575" width="1.025" height="1.025" fill="#eeeeee" /><rect x="31.775" y="23.575" width="1.025" height="1.025" fill="#eaeaea" /><rect x="32.800" y="23.575" width="1.025" height="1.025" fill="#ffffff" /><rect x="33.825" y="23.575" width="1.025" height="1.025" fill="#ffffff" /><rect x="34.850" y="23.575" width="1.025" height="1.025" fill="#ffffff" /><rect x="29.725" y="24.600" width="1.025" height="1.025" fill="#ffffff" /><rect x="30.750" y="24.600" width="1.025" height="1.025" fill="#fff7af" /><rect x="31.775" y="24.600" width="1.025" height="1.025" fill="#ffffff" /><rect x="32.800" y="24.600" width="1.025" height="1.025" fill="#eaeaea" /><rect x="33.825" y="24.600" width="1.025" height="1.025" fill="#fffacc" /><rect x="29.725" y="25.625" width="1.025" height="1.025" fill="#fffde5" /><rect x="30.750" y="25.625" width="1.025" height="1.025" fill="#ffffff" /><rect x="31.775" y="25.625" width="1.025" height="1.025" fill="#5b3919" /><rect x="32.800" y="25.625" width="1.025" height="1.025" fill="#683c11" /><rect x="33.825" y="25.625" width="1.025" height="1.025" fill="#683c11" /><rect x="34.850" y="25.625" width="1.025" height="1.025" fill="#7e5021" /><rect x="29.725" y="26.650" width="1.025" height="1.025" fill="#ffffff" /><rect x="30.750" y="26.650" width="1.025" height="1.025" fill="#ffffff" /><rect x="31.775" y="26.650" width="1.025" height="1.025" fill="#e5e5e5" /><rect x="32.800" y="26.650" width="1.025" height="1.025" fill="#683c11" /><rect x="33.825" y="26.650" width="1.025" height="1.025" fill="#7f5122" /><rect x="29.725" y="27.675" width="1.025" height="1.025" fill="#fff7af" /><rect x="30.750" y="27.675" width="1.025" height="1.025" fill="#fffcde" /><rect x="32.800" y="27.675" width="1.025" height="1.025" fill="#683c11" /><rect x="33.825" y="27.675" width="1.025" height="1.025" fill="#7f5122" /><rect x="30.750" y="28.700" width="1.025" height="1.025" fill="#ffffff" fill-opacity="0.200" /><rect x="32.800" y="28.700" width="1.025" height="1.025" fill="#683c11" /><rect x="33.825" y="28.700" width="1.025" height="1.025" fill="#7f5122" /><rect x="31.775" y="29.725" width="1.025" height="1.025" fill="#683c11" /><rect x="32.800" y="29.725" width="1.025" height="1.025" fill="#683c11" /><rect x="33.825" y="29.725" width="1.025" height="1.025" fill="#7f5122" /><rect x="34.850" y="29.725" width="1.025" height="1.025" fill="#b99261" /><rect x="30.750" y="30.750" width="1.025" height="1.025" fill="#683c11" /><rect x="31.775" y="30.750" width="1.025" height="1.025" fill="#683c11" /><rect x="32.800" y="30.750" width="1.025" height="1.025" fill="#52371f" /><rect x="33.825" y="30.750" width="1.025" height="1.025" fill="#683c11" /><rect x="34.850" y="30.750" width="1.025" height="1.025" fill="#7f5122" /><rect x="35.875" y="30.750" width="1.025" height="1.025" fill="#b18959" /><rect x="30.750" y="31.775" width="1.025" height="1.025" fill="#bdbdbd" /><rect x="31.775" y="31.775" width="1.025" height="1.025" fill="#ececec" /><rect x="32.800" y="31.775" width="1.025" height="1.025" fill="#f4f4f4" /><rect x="33.825" y="31.775" width="1.025" height="1.025" fill="#ffffff" /><rect x="34.850" y="31.775" width="1.025" height="1.025" fill="#ffffff" /><rect x="35.875" y="31.775" width="1.025" height="1.025" fill="#966b3b" /><rect x="30.750" y="32.800" width="1.025" height="1.025" fill="#c2c2c2" /><rect x="31.775" y="32.800" width="1.025" height="1.025" fill="#ff0000" /><rect x="32.800" y="32.800" width="1.025" height="1.025" fill="#f4f4f4" /><rect x="33.825" y="32.800" width="1.025" height="1.025" fill="#ff0000" /><rect x="34.850" y="32.800" width="1.025" height="1.025" fill="#ffffff" /><rect x="35.875" y="32.800" width="1.025" height="1.025" fill="#7f5122" /><rect x="30.750" y="33.825" width="1.025" height="1.025" fill="#e6e6e6" /><rect x="31.775" y="33.825" width="1.025" height="1.025" fill="#fc4040" /><rect x="32.800" y="33.825" width="1.025" height="1.025" fill="#ff0000" /><rect x="33.825" y="33.825" width="1.025" height="1.025" fill="#ff6868" /><rect x="34.850" y="33.825" width="1.025" height="1.025" fill="#ffffff" /><rect x="35.875" y="33.825" width="1.025" height="1.025" fill="#7f5122" /><rect x="30.750" y="34.850" width="1.025" height="1.025" fill="#cacaca" /><rect x="31.775" y="34.850" width="1.025" height="1.025" fill="#f4f4f4" /><rect x="32.800" y="34.850" width="1.025" height="1.025" fill="#ff8282" /><rect x="33.825" y="34.850" width="1.025" height="1.025" fill="#ffffff" /><rect x="34.850" y="34.850" width="1.025" height="1.025" fill="#ffffff" /><rect x="35.875" y="34.850" width="1.025" height="1.025" fill="#683c11" /><rect x="30.750" y="35.875" width="1.025" height="1.025" fill="#ececec" /><rect x="31.775" y="35.875" width="1.025" height="1.025" fill="#d0d0d0" /><rect x="32.800" y="35.875" width="1.025" height="1.025" fill="#ffffff" /><rect x="33.825" y="35.875" width="1.025" height="1.025" fill="#d9d9d9" /><rect x="34.850" y="35.875" width="1.025" height="1.025" fill="#ffffff" /><rect x="35.875" y="35.875" width="1.025" height="1.025" fill="#683c11" /><rect x="30.750" y="36.900" width="1.025" height="1.025" fill="#000000" /><rect x="31.775" y="36.900" width="1.025" height="1.025" fill="#171717" /><rect x="32.800" y="36.900" width="1.025" height="1.025" fill="#171717" /><rect x="33.825" y="36.900" width="1.025" height="1.025" fill="#414141" /><rect x="34.850" y="36.900" width="1.025" height="1.025" fill="#414141" /><rect x="35.875" y="36.900" width="1.025" height="1.025" fill="#683c11" /></svg>