<svg xmlns="http://www.w3.org/2000/svg" width="37.925" height="37.925" shape-rendering="crispEdges" style="image-rendering: pixelated;"><rect x="14.350" y="6.150" width="1.025" height="1.025" fill="#000000" /><rect x="15.375" y="6.150" width="1.025" height="1.025" fill="#000000" /><rect x="16.400" y="6.150" width="1.025" height="1.025" fill="#000000" /><rect x="17.425" y="6.150" width="1.025" height="1.025" fill="#000000" /><rect x="18.450" y="6.150" width="1.025" height="1.025" fill="#000000" /><rect x="19.475" y="6.150" width="1.025" height="1.025" fill="#000000" /><rect x="20.500" y="6.150" width="1.025" height="1.025" fill="#000000" /><rect x="21.525" y="6.150" width="1.025" height="1.025" fill="#000000" /><rect x="22.550" y="6.150" width="1.025" height="1.025" fill="#000000" /><rect x="13.325" y="7.175" width="1.025" height="1.025" fill="#000000" /><rect x="14.350" y="7.175" width="1.025" height="1.025" fill="#000000" /><rect x="15.375" y="7.175" width="1.025" height="1.025" fill="#000000" /><rect x="16.400" y="7.175" width="1.025" height="1.025" fill="#0b0b0b" /><rect x="17.425" y="7.175" width="1.025" height="1.025" fill="#000000" /><rect x="18.450" y="7.175" width="1.025" height="1.025" fill="#0b0b0b" /><rect x="19.475" y="7.175" width="1.025" height="1.025" fill="#000000" /><rect x="20.500" y="7.175" width="1.025" height="1.025" fill="#0b0b0b" /><rect x="21.525" y="7.175" width="1.025" height="1.025" fill="#000000" /><rect x="22.550" y="7.175" width="1.025" height="1.025" fill="#050505" /><rect x="23.575" y="7.175" width="1.025" height="1.025" fill="#000000" /><rect x="12.300" y="8.200" width="1.025" height="1.025" fill="#000000" /><rect x="13.325" y="8.200" width="1.025" height="1.025" fill="#000000" /><rect x="14.350" y="8.200" width="1.025" height="1.025" fill="#000000" /><rect x="15.375" y="8.200" width="1.025" height="1.025" fill="#2b2b2b" /><rect x="16.400" y="8.200" width="1.025" height="1.025" fill="#000000" /><rect x="17.425" y="8.200" width="1.025" height="1.025" fill="#2b2b2b" /><rect x="18.450" y="8.200" width="1.025" height="1.025" fill="#000000" /><rect x="19.475" y="8.200" width="1.025" height="1.025" fill="#2b2b2b" /><rect x="20.500" y="8.200" width="1.025" height="1.025" fill="#000000" /><rect x="21.525" y="8.200" width="1.025" height="1.025" fill="#2b2b2b" /><rect x="22.550" y="8.200" width="1.025" height="1.025" fill="#000000" /><rect x="23.575" y="8.200" width="1.025" height="1.025" fill="#242424" /><rect x="24.600" y="8.200" width="1.025" height="1.025" fill="#000000" /><rect x="12.300" y="9.225" width="1.025" height="1.025" fill="#000000" /><rect x="13.325" y="9.225" width="1.025" height="1.025" fill="#000000" /><rect x="14.350" y="9.225" width="1.025" height="1.025" fill="#2b2b2b" /><rect x="15.375" y="9.225" width="1.025" height="1.025" fill="#000000" /><rect x="16.400" y="9.225" width="1.025" height="1.025" fill="#2b2b2b" /><rect x="17.425" y="9.225" width="1.025" height="1.025" fill="#2b2b2b" /><rect x="18.450" y="9.225" width="1.025" height="1.025" fill="#000000" /><rect x="19.475" y="9.225" width="1.025" height="1.025" fill="#2b2b2b" /><rect x="20.500" y="9.225" width="1.025" height="1.025" fill="#000000" /><rect x="21.525" y="9.225" width="1.025" height="1.025" fill="#2b2b2b" /><rect x="22.550" y="9.225" width="1.025" height="1.025" fill="#2b2b2b" /><rect x="23.575" y="9.225" width="1.025" height="1.025" fill="#3b3b3b" /><rect x="24.600" y="9.225" width="1.025" height="1.025" fill="#5d5d5d" /><rect x="12.300" y="10.250" width="1.025" height="1.025" fill="#000000" /><rect x="13.325" y="10.250" width="1.025" height="1.025" fill="#000000" /><rect x="14.350" y="10.250" width="1.025" height="1.025" fill="#2b2b2b" /><rect x="15.375" y="10.250" width="1.025" height="1.025" fill="#000000" /><rect x="16.400" y="10.250" width="1.025" height="1.025" fill="#2b2b2b" /><rect x="17.425" y="10.250" width="1.025" height="1.025" fill="#2b2b2b" /><rect x="18.450" y="10.250" width="1.025" height="1.025" fill="#000000" /><rect x="19.475" y="10.250" width="1.025" height="1.025" fill="#2b2b2b" /><rect x="20.500" y="10.250" width="1.025" height="1.025" fill="#000000" /><rect x="21.525" y="10.250" width="1.025" height="1.025" fill="#2b2b2b" /><rect x="22.550" y="10.250" width="1.025" height="1.025" fill="#2b2b2b" /><rect x="23.575" y="10.250" width="1.025" height="1.025" fill="#4f4f4f" /><rect x="24.600" y="10.250" width="1.025" height="1.025" fill="#6a6a6a" /><rect x="12.300" y="11.275" width="1.025" height="1.025" fill="#000000" /><rect x="13.325" y="11.275" width="1.025" height="1.025" fill="#000000" /><rect x="14.350" y="11.275" width="1.025" height="1.025" fill="#414141" /><rect x="15.375" y="11.275" width="1.025" height="1.025" fill="#4f4f4f" /><rect x="16.400" y="11.275" width="1.025" height="1.025" fill="#6c6c6c" /><rect x="17.425" y="11.275" width="1.025" height="1.025" fill="#6a6a6a" /><rect x="18.450" y="11.275" width="1.025" height="1.025" fill="#474747" /><rect x="19.475" y="11.275" width="1.025" height="1.025" fill="#414141" /><rect x="20.500" y="11.275" width="1.025" height="1.025" fill="#1c1c1c" /><rect x="21.525" y="11.275" width="1.025" height="1.025" fill="#5d5d5d" /><rect x="22.550" y="11.275" width="1.025" height="1.025" fill="#656565" /><rect x="23.575" y="11.275" width="1.025" height="1.025" fill="#707070" /><rect x="24.600" y="11.275" width="1.025" height="1.025" fill="#767676" /><rect x="12.300" y="12.300" width="1.025" height="1.025" fill="#000000" /><rect x="13.325" y="12.300" width="1.025" height="1.025" fill="#000000" /><rect x="14.350" y="12.300" width="1.025" height="1.025" fill="#5d5d5d" /><rect x="15.375" y="12.300" width="1.025" height="1.025" fill="#808080" /><rect x="16.400" y="12.300" width="1.025" height="1.025" fill="#ff8fbc" /><rect x="17.425" y="12.300" width="1.025" height="1.025" fill="#ff72a8" /><rect x="18.450" y="12.300" width="1.025" height="1.025" fill="#ff3580" /><rect x="19.475" y="12.300" width="1.025" height="1.025" fill="#565656" /><rect x="20.500" y="12.300" width="1.025" height="1.025" fill="#656565" /><rect x="21.525" y="12.300" width="1.025" height="1.025" fill="#8c8c8c" /><rect x="22.550" y="12.300" width="1.025" height="1.025" fill="#ff7db0" /><rect x="23.575" y="12.300" width="1.025" height="1.025" fill="#ff6ca6" /><rect x="24.600" y="12.300" width="1.025" height="1.025" fill="#8a8a8a" /><rect x="11.275" y="13.325" width="1.025" height="1.025" fill="#000000" /><rect x="12.300" y="13.325" width="1.025" height="1.025" fill="#000000" /><rect x="13.325" y="13.325" width="1.025" height="1.025" fill="#000000" /><rect x="14.350" y="13.325" width="1.025" height="1.025" fill="#656565" /><rect x="15.375" y="13.325" width="1.025" height="1.025" fill="#ff72a8" /><rect x="19.475" y="13.325" width="1.025" height="1.025" fill="#fc004f" /><rect x="20.500" y="13.325" width="1.025" height="1.025" fill="#7e7e7e" /><rect x="21.525" y="13.325" width="1.025" height="1.025" fill="#ff94bf" /><rect x="24.600" y="13.325" width="1.025" height="1.025" fill="#ff67a2" /><rect x="11.275" y="14.350" width="1.025" height="1.025" fill="#000000" /><rect x="12.300" y="14.350" width="1.025" height="1.025" fill="#0b0b0b" /><rect x="13.325" y="14.350" width="1.025" height="1.025" fill="#000000" /><rect x="14.350" y="14.350" width="1.025" height="1.025" fill="#5d5d5d" /><rect x="15.375" y="14.350" width="1.025" height="1.025" fill="#ff2f7c" /><rect x="20.500" y="14.350" width="1.025" height="1.025" fill="#ff0050" /><rect x="24.600" y="14.350" width="1.025" height="1.025" fill="#ff1063" /><rect x="11.275" y="15.375" width="1.025" height="1.025" fill="#000000" /><rect x="12.300" y="15.375" width="1.025" height="1.025" fill="#151515" /><rect x="13.325" y="15.375" width="1.025" height="1.025" fill="#000000" /><rect x="14.350" y="15.375" width="1.025" height="1.025" fill="#414141" /><rect x="15.375" y="15.375" width="1.025" height="1.025" fill="#fa004e" /><rect x="19.475" y="15.375" width="1.025" height="1.025" fill="#c8003f" /><rect x="20.500" y="15.375" width="1.025" height="1.025" fill="#000000" /><rect x="21.525" y="15.375" width="1.025" height="1.025" fill="#e40047" /><rect x="24.600" y="15.375" width="1.025" height="1.025" fill="#f1004b" /><rect x="11.275" y="16.400" width="1.025" height="1.025" fill="#000000" /><rect x="12.300" y="16.400" width="1.025" height="1.025" fill="#151515" /><rect x="13.325" y="16.400" width="1.025" height="1.025" fill="#050505" /><rect x="14.350" y="16.400" width="1.025" height="1.025" fill="#2b2b2b" /><rect x="15.375" y="16.400" width="1.025" height="1.025" fill="#000000" /><rect x="16.400" y="16.400" width="1.025" height="1.025" fill="#d70044" /><rect x="17.425" y="16.400" width="1.025" height="1.025" fill="#c8003f" /><rect x="18.450" y="16.400" width="1.025" height="1.025" fill="#c8003f" /><rect x="19.475" y="16.400" width="1.025" height="1.025" fill="#000000" /><rect x="20.500" y="16.400" width="1.025" height="1.025" fill="#000000" /><rect x="21.525" y="16.400" width="1.025" height="1.025" fill="#0b0b0b" /><rect x="22.550" y="16.400" width="1.025" height="1.025" fill="#d10042" /><rect x="23.575" y="16.400" width="1.025" height="1.025" fill="#d10042" /><rect x="24.600" y="16.400" width="1.025" height="1.025" fill="#242424" /><rect x="11.275" y="17.425" width="1.025" height="1.025" fill="#000000" /><rect x="12.300" y="17.425" width="1.025" height="1.025" fill="#1c1c1c" /><rect x="13.325" y="17.425" width="1.025" height="1.025" fill="#151515" /><rect x="14.350" y="17.425" width="1.025" height="1.025" fill="#2b2b2b" /><rect x="15.375" y="17.425" width="1.025" height="1.025" fill="#000000" /><rect x="16.400" y="17.425" width="1.025" height="1.025" fill="#242424" /><rect x="17.425" y="17.425" width="1.025" height="1.025" fill="#242424" /><rect x="18.450" y="17.425" width="1.025" height="1.025" fill="#000000" /><rect x="19.475" y="17.425" width="1.025" height="1.025" fill="#595959" /><rect x="20.500" y="17.425" width="1.025" height="1.025" fill="#5f5f5f" /><rect x="21.525" y="17.425" width="1.025" height="1.025" fill="#656565" /><rect x="22.550" y="17.425" width="1.025" height="1.025" fill="#313131" /><rect x="23.575" y="17.425" width="1.025" height="1.025" fill="#151515" /><rect x="24.600" y="17.425" width="1.025" height="1.025" fill="#5f5f5f" /><rect x="12.300" y="18.450" width="1.025" height="1.025" fill="#1c1c1c" /><rect x="13.325" y="18.450" width="1.025" height="1.025" fill="#000000" /><rect x="14.350" y="18.450" width="1.025" height="1.025" fill="#2b2b2b" /><rect x="15.375" y="18.450" width="1.025" height="1.025" fill="#000000" /><rect x="16.400" y="18.450" width="1.025" height="1.025" fill="#5d5d5d" /><rect x="17.425" y="18.450" width="1.025" height="1.025" fill="#878787" /><rect x="18.450" y="18.450" width="1.025" height="1.025" fill="#ff8fbc" /><rect x="19.475" y="18.450" width="1.025" height="1.025" fill="#ff7fb1" /><rect x="20.500" y="18.450" width="1.025" height="1.025" fill="#ff71a8" /><rect x="21.525" y="18.450" width="1.025" height="1.025" fill="#ff5d9b" /><rect x="22.550" y="18.450" width="1.025" height="1.025" fill="#ff2473" /><rect x="23.575" y="18.450" width="1.025" height="1.025" fill="#656565" /><rect x="24.600" y="18.450" width="1.025" height="1.025" fill="#747474" /><rect x="13.325" y="19.475" width="1.025" height="1.025" fill="#0b0b0b" /><rect x="14.350" y="19.475" width="1.025" height="1.025" fill="#000000" /><rect x="15.375" y="19.475" width="1.025" height="1.025" fill="#2b2b2b" /><rect x="16.400" y="19.475" width="1.025" height="1.025" fill="#595959" /><rect x="17.425" y="19.475" width="1.025" height="1.025" fill="#ff72a8" /><rect x="23.575" y="19.475" width="1.025" height="1.025" fill="#ff0253" /><rect x="24.600" y="19.475" width="1.025" height="1.025" fill="#747474" /><rect x="13.325" y="20.500" width="1.025" height="1.025" fill="#000000" /><rect x="14.350" y="20.500" width="1.025" height="1.025" fill="#000000" /><rect x="15.375" y="20.500" width="1.025" height="1.025" fill="#2b2b2b" /><rect x="16.400" y="20.500" width="1.025" height="1.025" fill="#4b4b4b" /><rect x="17.425" y="20.500" width="1.025" height="1.025" fill="#ff2f7c" /><rect x="23.575" y="20.500" width="1.025" height="1.025" fill="#e00047" /><rect x="24.600" y="20.500" width="1.025" height="1.025" fill="#6a6a6a" /><rect x="13.325" y="21.525" width="1.025" height="1.025" fill="#000000" /><rect x="14.350" y="21.525" width="1.025" height="1.025" fill="#000000" /><rect x="15.375" y="21.525" width="1.025" height="1.025" fill="#2b2b2b" /><rect x="16.400" y="21.525" width="1.025" height="1.025" fill="#151515" /><rect x="17.425" y="21.525" width="1.025" height="1.025" fill="#fa004e" /><rect x="23.575" y="21.525" width="1.025" height="1.025" fill="#db0045" /><rect x="24.600" y="21.525" width="1.025" height="1.025" fill="#6c6c6c" /><rect x="13.325" y="22.550" width="1.025" height="1.025" fill="#000000" /><rect x="14.350" y="22.550" width="1.025" height="1.025" fill="#000000" /><rect x="15.375" y="22.550" width="1.025" height="1.025" fill="#2b2b2b" /><rect x="16.400" y="22.550" width="1.025" height="1.025" fill="#000000" /><rect x="17.425" y="22.550" width="1.025" height="1.025" fill="#1c1c1c" /><rect x="18.450" y="22.550" width="1.025" height="1.025" fill="#d70044" /><rect x="19.475" y="22.550" width="1.025" height="1.025" fill="#c8003f" /><rect x="20.500" y="22.550" width="1.025" height="1.025" fill="#c8003f" /><rect x="21.525" y="22.550" width="1.025" height="1.025" fill="#c8003f" /><rect x="22.550" y="22.550" width="1.025" height="1.025" fill="#cd0040" /><rect x="23.575" y="22.550" width="1.025" height="1.025" fill="#4b4b4b" /><rect x="24.600" y="22.550" width="1.025" height="1.025" fill="#888888" /><rect x="13.325" y="23.575" width="1.025" height="1.025" fill="#000000" /><rect x="14.350" y="23.575" width="1.025" height="1.025" fill="#000000" /><rect x="15.375" y="23.575" width="1.025" height="1.025" fill="#2b2b2b" /><rect x="16.400" y="23.575" width="1.025" height="1.025" fill="#000000" /><rect x="17.425" y="23.575" width="1.025" height="1.025" fill="#242424" /><rect x="18.450" y="23.575" width="1.025" height="1.025" fill="#000000" /><rect x="19.475" y="23.575" width="1.025" height="1.025" fill="#242424" /><rect x="20.500" y="23.575" width="1.025" height="1.025" fill="#000000" /><rect x="21.525" y="23.575" width="1.025" height="1.025" fill="#535353" /><rect x="22.550" y="23.575" width="1.025" height="1.025" fill="#7e7e7e" /><rect x="23.575" y="23.575" width="1.025" height="1.025" fill="#969696" /><rect x="13.325" y="24.600" width="1.025" height="1.025" fill="#000000" /><rect x="14.350" y="24.600" width="1.025" height="1.025" fill="#000000" /><rect x="15.375" y="24.600" width="1.025" height="1.025" fill="#2b2b2b" /><rect x="16.400" y="24.600" width="1.025" height="1.025" fill="#000000" /><rect x="17.425" y="24.600" width="1.025" height="1.025" fill="#2b2b2b" /><rect x="18.450" y="24.600" width="1.025" height="1.025" fill="#4b4b4b" /><rect x="19.475" y="24.600" width="1.025" height="1.025" fill="#878787" /><rect x="20.500" y="24.600" width="1.025" height="1.025" fill="#919191" /><rect x="21.525" y="24.600" width="1.025" height="1.025" fill="#949494" /><rect x="22.550" y="24.600" width="1.025" height="1.025" fill="#969696" /><rect x="13.325" y="25.625" width="1.025" height="1.025" fill="#000000" /><rect x="14.350" y="25.625" width="1.025" height="1.025" fill="#000000" /><rect x="15.375" y="25.625" width="1.025" height="1.025" fill="#2b2b2b" /><rect x="16.400" y="25.625" width="1.025" height="1.025" fill="#000000" /><rect x="17.425" y="25.625" width="1.025" height="1.025" fill="#2b2b2b" /><rect x="18.450" y="25.625" width="1.025" height="1.025" fill="#4f4f4f" /><rect x="19.475" y="25.625" width="1.025" height="1.025" fill="#838383" /><rect x="12.300" y="26.650" width="1.025" height="1.025" fill="#000000" /><rect x="13.325" y="26.650" width="1.025" height="1.025" fill="#000000" /><rect x="14.350" y="26.650" width="1.025" height="1.025" fill="#2b2b2b" /><rect x="15.375" y="26.650" width="1.025" height="1.025" fill="#414141" /><rect x="16.400" y="26.650" width="1.025" height="1.025" fill="#1c1c1c" /><rect x="17.425" y="26.650" width="1.025" height="1.025" fill="#5d5d5d" /><rect x="18.450" y="26.650" width="1.025" height="1.025" fill="#6a6a6a" /><rect x="19.475" y="26.650" width="1.025" height="1.025" fill="#787878" /><rect x="12.300" y="27.675" width="1.025" height="1.025" fill="#242424" /><rect x="13.325" y="27.675" width="1.025" height="1.025" fill="#565656" /><rect x="14.350" y="27.675" width="1.025" height="1.025" fill="#6c6c6c" /><rect x="15.375" y="27.675" width="1.025" height="1.025" fill="#595959" /><rect x="16.400" y="27.675" width="1.025" height="1.025" fill="#787878" /><rect x="17.425" y="27.675" width="1.025" height="1.025" fill="#888888" /><rect x="18.450" y="27.675" width="1.025" height="1.025" fill="#969696" /><rect x="19.475" y="27.675" width="1.025" height="1.025" fill="#969696" /><rect x="20.500" y="27.675" width="1.025" height="1.025" fill="#838383" /><rect x="15.375" y="28.700" width="1.025" height="1.025" fill="#707070" /><rect x="16.400" y="28.700" width="1.025" height="1.025" fill="#888888" /><rect x="17.425" y="28.700" width="1.025" height="1.025" fill="#949494" /></svg>