<svg xmlns="http://www.w3.org/2000/svg" width="37.925" height="37.925" shape-rendering="crispEdges" style="image-rendering: pixelated;"><rect x="14.350" y="6.150" width="1.025" height="1.025" fill="#ec0082" /><rect x="15.375" y="6.150" width="1.025" height="1.025" fill="#ff00ea" /><rect x="16.400" y="6.150" width="1.025" height="1.025" fill="#ec0082" /><rect x="17.425" y="6.150" width="1.025" height="1.025" fill="#ff00ea" /><rect x="18.450" y="6.150" width="1.025" height="1.025" fill="#ec0082" /><rect x="19.475" y="6.150" width="1.025" height="1.025" fill="#ff00ea" /><rect x="20.500" y="6.150" width="1.025" height="1.025" fill="#ec0082" /><rect x="21.525" y="6.150" width="1.025" height="1.025" fill="#ff00ea" /><rect x="22.550" y="6.150" width="1.025" height="1.025" fill="#ed0084" /><rect x="13.325" y="7.175" width="1.025" height="1.025" fill="#ec0082" /><rect x="14.350" y="7.175" width="1.025" height="1.025" fill="#ff00ea" /><rect x="15.375" y="7.175" width="1.025" height="1.025" fill="#f8008d" /><rect x="16.400" y="7.175" width="1.025" height="1.025" fill="#ff00ec" /><rect x="17.425" y="7.175" width="1.025" height="1.025" fill="#ff008e" /><rect x="18.450" y="7.175" width="1.025" height="1.025" fill="#ff00ec" /><rect x="19.475" y="7.175" width="1.025" height="1.025" fill="#ff008e" /><rect x="20.500" y="7.175" width="1.025" height="1.025" fill="#ff00ec" /><rect x="21.525" y="7.175" width="1.025" height="1.025" fill="#ff008e" /><rect x="22.550" y="7.175" width="1.025" height="1.025" fill="#ff00eb" /><rect x="23.575" y="7.175" width="1.025" height="1.025" fill="#ff008e" /><rect x="12.300" y="8.200" width="1.025" height="1.025" fill="#ec0082" /><rect x="13.325" y="8.200" width="1.025" height="1.025" fill="#ff00ea" /><rect x="14.350" y="8.200" width="1.025" height="1.025" fill="#ff0090" /><rect x="15.375" y="8.200" width="1.025" height="1.025" fill="#ff00ed" /><rect x="16.400" y="8.200" width="1.025" height="1.025" fill="#ff0096" /><rect x="17.425" y="8.200" width="1.025" height="1.025" fill="#ff00ed" /><rect x="18.450" y="8.200" width="1.025" height="1.025" fill="#ff0096" /><rect x="19.475" y="8.200" width="1.025" height="1.025" fill="#ff00ed" /><rect x="20.500" y="8.200" width="1.025" height="1.025" fill="#ff0096" /><rect x="21.525" y="8.200" width="1.025" height="1.025" fill="#ff00ed" /><rect x="22.550" y="8.200" width="1.025" height="1.025" fill="#ff0095" /><rect x="23.575" y="8.200" width="1.025" height="1.025" fill="#ff00ec" /><rect x="24.600" y="8.200" width="1.025" height="1.025" fill="#ff0095" /><rect x="12.300" y="9.225" width="1.025" height="1.025" fill="#ff00ea" /><rect x="13.325" y="9.225" width="1.025" height="1.025" fill="#ff008e" /><rect x="14.350" y="9.225" width="1.025" height="1.025" fill="#ff00ed" /><rect x="15.375" y="9.225" width="1.025" height="1.025" fill="#ff0096" /><rect x="16.400" y="9.225" width="1.025" height="1.025" fill="#ff00ed" /><rect x="17.425" y="9.225" width="1.025" height="1.025" fill="#ff00ed" /><rect x="18.450" y="9.225" width="1.025" height="1.025" fill="#ff0096" /><rect x="19.475" y="9.225" width="1.025" height="1.025" fill="#ff00ed" /><rect x="20.500" y="9.225" width="1.025" height="1.025" fill="#ff0096" /><rect x="21.525" y="9.225" width="1.025" height="1.025" fill="#ff00ed" /><rect x="22.550" y="9.225" width="1.025" height="1.025" fill="#ff00ed" /><rect x="23.575" y="9.225" width="1.025" height="1.025" fill="#ff08a2" /><rect x="24.600" y="9.225" width="1.025" height="1.025" fill="#ff2ef1" /><rect x="12.300" y="10.250" width="1.025" height="1.025" fill="#ff00ea" /><rect x="13.325" y="10.250" width="1.025" height="1.025" fill="#ff0091" /><rect x="14.350" y="10.250" width="1.025" height="1.025" fill="#ff00ed" /><rect x="15.375" y="10.250" width="1.025" height="1.025" fill="#ff0096" /><rect x="16.400" y="10.250" width="1.025" height="1.025" fill="#ff00ed" /><rect x="17.425" y="10.250" width="1.025" height="1.025" fill="#ff00ed" /><rect x="18.450" y="10.250" width="1.025" height="1.025" fill="#ff0096" /><rect x="19.475" y="10.250" width="1.025" height="1.025" fill="#ff00ed" /><rect x="20.500" y="10.250" width="1.025" height="1.025" fill="#ff0096" /><rect x="21.525" y="10.250" width="1.025" height="1.025" fill="#ff00ed" /><rect x="22.550" y="10.250" width="1.025" height="1.025" fill="#ff00ed" /><rect x="23.575" y="10.250" width="1.025" height="1.025" fill="#ff1dad" /><rect x="24.600" y="10.250" width="1.025" height="1.025" fill="#ff45f2" /><rect x="12.300" y="11.275" width="1.025" height="1.025" fill="#ff00ea" /><rect x="13.325" y="11.275" width="1.025" height="1.025" fill="#ff0091" /><rect x="14.350" y="11.275" width="1.025" height="1.025" fill="#ff0dee" /><rect x="15.375" y="11.275" width="1.025" height="1.025" fill="#ff18a9" /><rect x="16.400" y="11.275" width="1.025" height="1.025" fill="#ff4bf2" /><rect x="17.425" y="11.275" width="1.025" height="1.025" fill="#ff47f2" /><rect x="18.450" y="11.275" width="1.025" height="1.025" fill="#ff12a8" /><rect x="19.475" y="11.275" width="1.025" height="1.025" fill="#ff0dee" /><rect x="20.500" y="11.275" width="1.025" height="1.025" fill="#ff009c" /><rect x="21.525" y="11.275" width="1.025" height="1.025" fill="#ff2ef1" /><rect x="22.550" y="11.275" width="1.025" height="1.025" fill="#ff3ff2" /><rect x="23.575" y="11.275" width="1.025" height="1.025" fill="#ff50bd" /><rect x="24.600" y="11.275" width="1.025" height="1.025" fill="#ff5df3" /><rect x="12.300" y="12.300" width="1.025" height="1.025" fill="#ff00ea" /><rect x="13.325" y="12.300" width="1.025" height="1.025" fill="#ff0091" /><rect x="14.350" y="12.300" width="1.025" height="1.025" fill="#ff2df1" /><rect x="15.375" y="12.300" width="1.025" height="1.025" fill="#ff71cc" /><rect x="16.400" y="12.300" width="1.025" height="1.025" fill="#f9ffa3" /><rect x="17.425" y="12.300" width="1.025" height="1.025" fill="#f7ff89" /><rect x="18.450" y="12.300" width="1.025" height="1.025" fill="#f2ff4c" /><rect x="19.475" y="12.300" width="1.025" height="1.025" fill="#ff25f0" /><rect x="20.500" y="12.300" width="1.025" height="1.025" fill="#ff3fb8" /><rect x="21.525" y="12.300" width="1.025" height="1.025" fill="#ff91f8" /><rect x="22.550" y="12.300" width="1.025" height="1.025" fill="#f8ff94" /><rect x="23.575" y="12.300" width="1.025" height="1.025" fill="#f7ff84" /><rect x="24.600" y="12.300" width="1.025" height="1.025" fill="#ff89f7" /><rect x="11.275" y="13.325" width="1.025" height="1.025" fill="#ec0082" /><rect x="12.300" y="13.325" width="1.025" height="1.025" fill="#ff00ea" /><rect x="13.325" y="13.325" width="1.025" height="1.025" fill="#ff0094" /><rect x="14.350" y="13.325" width="1.025" height="1.025" fill="#ff3ef2" /><rect x="15.375" y="13.325" width="1.025" height="1.025" fill="#f7ff89" /><rect x="19.475" y="13.325" width="1.025" height="1.025" fill="#edff00" /><rect x="20.500" y="13.325" width="1.025" height="1.025" fill="#ff6cf4" /><rect x="21.525" y="13.325" width="1.025" height="1.025" fill="#f9ffa8" /><rect x="24.600" y="13.325" width="1.025" height="1.025" fill="#f5ff80" /><rect x="11.275" y="14.350" width="1.025" height="1.025" fill="#ec0082" /><rect x="12.300" y="14.350" width="1.025" height="1.025" fill="#ff00ec" /><rect x="13.325" y="14.350" width="1.025" height="1.025" fill="#ff0095" /><rect x="14.350" y="14.350" width="1.025" height="1.025" fill="#ff2df1" /><rect x="15.375" y="14.350" width="1.025" height="1.025" fill="#f2ff46" /><rect x="20.500" y="14.350" width="1.025" height="1.025" fill="#edff00" /><rect x="24.600" y="14.350" width="1.025" height="1.025" fill="#f0ff1e" /><rect x="11.275" y="15.375" width="1.025" height="1.025" fill="#ed0084" /><rect x="12.300" y="15.375" width="1.025" height="1.025" fill="#ff00ec" /><rect x="13.325" y="15.375" width="1.025" height="1.025" fill="#ff0096" /><rect x="14.350" y="15.375" width="1.025" height="1.025" fill="#ff0cee" /><rect x="15.375" y="15.375" width="1.025" height="1.025" fill="#edff00" /><rect x="19.475" y="15.375" width="1.025" height="1.025" fill="#eaff00" /><rect x="20.500" y="15.375" width="1.025" height="1.025" fill="#f50087" /><rect x="21.525" y="15.375" width="1.025" height="1.025" fill="#ecff00" /><rect x="24.600" y="15.375" width="1.025" height="1.025" fill="#ecff00" /><rect x="11.275" y="16.400" width="1.025" height="1.025" fill="#f10085" /><rect x="12.300" y="16.400" width="1.025" height="1.025" fill="#ff00ec" /><rect x="13.325" y="16.400" width="1.025" height="1.025" fill="#ff0097" /><rect x="14.350" y="16.400" width="1.025" height="1.025" fill="#ff00ed" /><rect x="15.375" y="16.400" width="1.025" height="1.025" fill="#ff0091" /><rect x="16.400" y="16.400" width="1.025" height="1.025" fill="#ebff00" /><rect x="17.425" y="16.400" width="1.025" height="1.025" fill="#eaff00" /><rect x="18.450" y="16.400" width="1.025" height="1.025" fill="#eaff00" /><rect x="19.475" y="16.400" width="1.025" height="1.025" fill="#ff00ea" /><rect x="20.500" y="16.400" width="1.025" height="1.025" fill="#ff008e" /><rect x="21.525" y="16.400" width="1.025" height="1.025" fill="#ff00ec" /><rect x="22.550" y="16.400" width="1.025" height="1.025" fill="#ebff00" /><rect x="23.575" y="16.400" width="1.025" height="1.025" fill="#ebff00" /><rect x="24.600" y="16.400" width="1.025" height="1.025" fill="#ff00ed" /><rect x="11.275" y="17.425" width="1.025" height="1.025" fill="#fe008d" /><rect x="12.300" y="17.425" width="1.025" height="1.025" fill="#ff00ec" /><rect x="13.325" y="17.425" width="1.025" height="1.025" fill="#ff009b" /><rect x="14.350" y="17.425" width="1.025" height="1.025" fill="#ff00ed" /><rect x="15.375" y="17.425" width="1.025" height="1.025" fill="#ff0095" /><rect x="16.400" y="17.425" width="1.025" height="1.025" fill="#ff00ec" /><rect x="17.425" y="17.425" width="1.025" height="1.025" fill="#ff00ec" /><rect x="18.450" y="17.425" width="1.025" height="1.025" fill="#ff0096" /><rect x="19.475" y="17.425" width="1.025" height="1.025" fill="#ff29f0" /><rect x="20.500" y="17.425" width="1.025" height="1.025" fill="#ff33b4" /><rect x="21.525" y="17.425" width="1.025" height="1.025" fill="#ff3ff2" /><rect x="22.550" y="17.425" width="1.025" height="1.025" fill="#ff02ed" /><rect x="23.575" y="17.425" width="1.025" height="1.025" fill="#ff009b" /><rect x="24.600" y="17.425" width="1.025" height="1.025" fill="#ff34f1" /><rect x="12.300" y="18.450" width="1.025" height="1.025" fill="#ff00ec" /><rect x="13.325" y="18.450" width="1.025" height="1.025" fill="#ff0095" /><rect x="14.350" y="18.450" width="1.025" height="1.025" fill="#ff00ed" /><rect x="15.375" y="18.450" width="1.025" height="1.025" fill="#ff0096" /><rect x="16.400" y="18.450" width="1.025" height="1.025" fill="#ff2df1" /><rect x="17.425" y="18.450" width="1.025" height="1.025" fill="#ff80f5" /><rect x="18.450" y="18.450" width="1.025" height="1.025" fill="#f9ffa3" /><rect x="19.475" y="18.450" width="1.025" height="1.025" fill="#f8ff95" /><rect x="20.500" y="18.450" width="1.025" height="1.025" fill="#f7ff89" /><rect x="21.525" y="18.450" width="1.025" height="1.025" fill="#f5ff75" /><rect x="22.550" y="18.450" width="1.025" height="1.025" fill="#f1ff38" /><rect x="23.575" y="18.450" width="1.025" height="1.025" fill="#ff3fb8" /><rect x="24.600" y="18.450" width="1.025" height="1.025" fill="#ff58f3" /><rect x="13.325" y="19.475" width="1.025" height="1.025" fill="#ff00ec" /><rect x="14.350" y="19.475" width="1.025" height="1.025" fill="#ff0095" /><rect x="15.375" y="19.475" width="1.025" height="1.025" fill="#ff00ed" /><rect x="16.400" y="19.475" width="1.025" height="1.025" fill="#ff29b0" /><rect x="17.425" y="19.475" width="1.025" height="1.025" fill="#f7ff89" /><rect x="23.575" y="19.475" width="1.025" height="1.025" fill="#edff05" /><rect x="24.600" y="19.475" width="1.025" height="1.025" fill="#ff59f3" /><rect x="13.325" y="20.500" width="1.025" height="1.025" fill="#ff00eb" /><rect x="14.350" y="20.500" width="1.025" height="1.025" fill="#ff0093" /><rect x="15.375" y="20.500" width="1.025" height="1.025" fill="#ff00ed" /><rect x="16.400" y="20.500" width="1.025" height="1.025" fill="#ff17a8" /><rect x="17.425" y="20.500" width="1.025" height="1.025" fill="#f2ff46" /><rect x="23.575" y="20.500" width="1.025" height="1.025" fill="#ebff00" /><rect x="24.600" y="20.500" width="1.025" height="1.025" fill="#ff46f2" /><rect x="13.325" y="21.525" width="1.025" height="1.025" fill="#ff00ea" /><rect x="14.350" y="21.525" width="1.025" height="1.025" fill="#ff0091" /><rect x="15.375" y="21.525" width="1.025" height="1.025" fill="#ff00ed" /><rect x="16.400" y="21.525" width="1.025" height="1.025" fill="#ff009c" /><rect x="17.425" y="21.525" width="1.025" height="1.025" fill="#edff00" /><rect x="23.575" y="21.525" width="1.025" height="1.025" fill="#ebff00" /><rect x="24.600" y="21.525" width="1.025" height="1.025" fill="#ff4df3" /><rect x="13.325" y="22.550" width="1.025" height="1.025" fill="#ff00ea" /><rect x="14.350" y="22.550" width="1.025" height="1.025" fill="#ff0091" /><rect x="15.375" y="22.550" width="1.025" height="1.025" fill="#ff00ed" /><rect x="16.400" y="22.550" width="1.025" height="1.025" fill="#ff0095" /><rect x="17.425" y="22.550" width="1.025" height="1.025" fill="#ff00ec" /><rect x="18.450" y="22.550" width="1.025" height="1.025" fill="#ebff00" /><rect x="19.475" y="22.550" width="1.025" height="1.025" fill="#eaff00" /><rect x="20.500" y="22.550" width="1.025" height="1.025" fill="#eaff00" /><rect x="21.525" y="22.550" width="1.025" height="1.025" fill="#eaff00" /><rect x="22.550" y="22.550" width="1.025" height="1.025" fill="#ebff00" /><rect x="23.575" y="22.550" width="1.025" height="1.025" fill="#ff18a9" /><rect x="24.600" y="22.550" width="1.025" height="1.025" fill="#ff87f7" /><rect x="13.325" y="23.575" width="1.025" height="1.025" fill="#ff00ea" /><rect x="14.350" y="23.575" width="1.025" height="1.025" fill="#ff0091" /><rect x="15.375" y="23.575" width="1.025" height="1.025" fill="#ff00ed" /><rect x="16.400" y="23.575" width="1.025" height="1.025" fill="#ff0095" /><rect x="17.425" y="23.575" width="1.025" height="1.025" fill="#ff00ed" /><rect x="18.450" y="23.575" width="1.025" height="1.025" fill="#ff0094" /><rect x="19.475" y="23.575" width="1.025" height="1.025" fill="#ff00ec" /><rect x="20.500" y="23.575" width="1.025" height="1.025" fill="#ff0095" /><rect x="21.525" y="23.575" width="1.025" height="1.025" fill="#ff20f0" /><rect x="22.550" y="23.575" width="1.025" height="1.025" fill="#ff6ecb" /><rect x="23.575" y="23.575" width="1.025" height="1.025" fill="#ffa8f9" /><rect x="13.325" y="24.600" width="1.025" height="1.025" fill="#ff00ea" /><rect x="14.350" y="24.600" width="1.025" height="1.025" fill="#ff0091" /><rect x="15.375" y="24.600" width="1.025" height="1.025" fill="#ff00ed" /><rect x="16.400" y="24.600" width="1.025" height="1.025" fill="#ff0096" /><rect x="17.425" y="24.600" width="1.025" height="1.025" fill="#ff00ed" /><rect x="18.450" y="24.600" width="1.025" height="1.025" fill="#ff17a8" /><rect x="19.475" y="24.600" width="1.025" height="1.025" fill="#ff80f5" /><rect x="20.500" y="24.600" width="1.025" height="1.025" fill="#ff9ad9" /><rect x="21.525" y="24.600" width="1.025" height="1.025" fill="#ffa2f9" /><rect x="22.550" y="24.600" width="1.025" height="1.025" fill="#ffa7e1" /><rect x="13.325" y="25.625" width="1.025" height="1.025" fill="#ff00ea" /><rect x="14.350" y="25.625" width="1.025" height="1.025" fill="#ff0091" /><rect x="15.375" y="25.625" width="1.025" height="1.025" fill="#ff00ed" /><rect x="16.400" y="25.625" width="1.025" height="1.025" fill="#ff0096" /><rect x="17.425" y="25.625" width="1.025" height="1.025" fill="#ff00ed" /><rect x="18.450" y="25.625" width="1.025" height="1.025" fill="#ff1baa" /><rect x="19.475" y="25.625" width="1.025" height="1.025" fill="#ff7cf5" /><rect x="12.300" y="26.650" width="1.025" height="1.025" fill="#ff00ea" /><rect x="13.325" y="26.650" width="1.025" height="1.025" fill="#fd008d" /><rect x="14.350" y="26.650" width="1.025" height="1.025" fill="#ff00ed" /><rect x="15.375" y="26.650" width="1.025" height="1.025" fill="#ff0dee" /><rect x="16.400" y="26.650" width="1.025" height="1.025" fill="#ff009c" /><rect x="17.425" y="26.650" width="1.025" height="1.025" fill="#ff2ef1" /><rect x="18.450" y="26.650" width="1.025" height="1.025" fill="#ff47bb" /><rect x="19.475" y="26.650" width="1.025" height="1.025" fill="#ff66f4" /><rect x="12.300" y="27.675" width="1.025" height="1.025" fill="#ff00ec" /><rect x="13.325" y="27.675" width="1.025" height="1.025" fill="#ff26ae" /><rect x="14.350" y="27.675" width="1.025" height="1.025" fill="#ff4cf2" /><rect x="15.375" y="27.675" width="1.025" height="1.025" fill="#ff29b0" /><rect x="16.400" y="27.675" width="1.025" height="1.025" fill="#ff64f4" /><rect x="17.425" y="27.675" width="1.025" height="1.025" fill="#ff89d3" /><rect x="18.450" y="27.675" width="1.025" height="1.025" fill="#ffa7f9" /><rect x="19.475" y="27.675" width="1.025" height="1.025" fill="#ffa8f9" /><rect x="20.500" y="27.675" width="1.025" height="1.025" fill="#ff7ccf" /><rect x="15.375" y="28.700" width="1.025" height="1.025" fill="#ff51f3" /><rect x="16.400" y="28.700" width="1.025" height="1.025" fill="#ff89f7" /><rect x="17.425" y="28.700" width="1.025" height="1.025" fill="#ffa2de" /></svg>