<svg xmlns="http://www.w3.org/2000/svg" width="37.925" height="37.925" shape-rendering="crispEdges" style="image-rendering: pixelated;"><rect x="32.800" y="27.675" width="1.025" height="1.025" fill="#000000" fill-opacity="0.302" /><rect x="33.825" y="27.675" width="1.025" height="1.025" fill="#e4e4e4" fill-opacity="0.675" /><rect x="34.850" y="27.675" width="1.025" height="1.025" fill="#e4e4e4" fill-opacity="0.675" /><rect x="30.750" y="28.700" width="1.025" height="1.025" fill="#d8d8d8" /><rect x="31.775" y="28.700" width="1.025" height="1.025" fill="#b6b6b6" /><rect x="32.800" y="28.700" width="1.025" height="1.025" fill="#b6b6b6" /><rect x="33.825" y="28.700" width="1.025" height="1.025" fill="#c6c6c6" /><rect x="29.725" y="29.725" width="1.025" height="1.025" fill="#c3c3c3" /><rect x="30.750" y="29.725" width="1.025" height="1.025" fill="#cecece" /><rect x="31.775" y="29.725" width="1.025" height="1.025" fill="#dbdbdb" /><rect x="32.800" y="29.725" width="1.025" height="1.025" fill="#cecece" /><rect x="33.825" y="29.725" width="1.025" height="1.025" fill="#ebebeb" /><rect x="34.850" y="29.725" width="1.025" height="1.025" fill="#f5f5f5" /><rect x="29.725" y="30.750" width="1.025" height="1.025" fill="#35b165" /><rect x="30.750" y="30.750" width="1.025" height="1.025" fill="#42c168" /><rect x="31.775" y="30.750" width="1.025" height="1.025" fill="#68ea75" /><rect x="32.800" y="30.750" width="1.025" height="1.025" fill="#7dff7d" /><rect x="33.825" y="30.750" width="1.025" height="1.025" fill="#68ff68" /><rect x="34.850" y="30.750" width="1.025" height="1.025" fill="#b8ffb8" /><rect x="29.725" y="31.775" width="1.025" height="1.025" fill="#35b165" /><rect x="30.750" y="31.775" width="1.025" height="1.025" fill="#dbdbdb" /><rect x="31.775" y="31.775" width="1.025" height="1.025" fill="#dbdbdb" /><rect x="32.800" y="31.775" width="1.025" height="1.025" fill="#f7f7f7" /><rect x="33.825" y="31.775" width="1.025" height="1.025" fill="#68ff68" /><rect x="34.850" y="31.775" width="1.025" height="1.025" fill="#b8ffb8" /><rect x="29.725" y="32.800" width="1.025" height="1.025" fill="#dbdbdb" /><rect x="30.750" y="32.800" width="1.025" height="1.025" fill="#35b860" /><rect x="31.775" y="32.800" width="1.025" height="1.025" fill="#68d97f" /><rect x="32.800" y="32.800" width="1.025" height="1.025" fill="#68d97f" /><rect x="33.825" y="32.800" width="1.025" height="1.025" fill="#f7f7f7" /><rect x="34.850" y="32.800" width="1.025" height="1.025" fill="#b8ffb8" /><rect x="29.725" y="33.825" width="1.025" height="1.025" fill="#cecece" /><rect x="30.750" y="33.825" width="1.025" height="1.025" fill="#35b860" /><rect x="31.775" y="33.825" width="1.025" height="1.025" fill="#ff0000" /><rect x="32.800" y="33.825" width="1.025" height="1.025" fill="#68f170" /><rect x="33.825" y="33.825" width="1.025" height="1.025" fill="#cecece" /><rect x="34.850" y="33.825" width="1.025" height="1.025" fill="#b8ffb8" /><rect x="29.725" y="34.850" width="1.025" height="1.025" fill="#acacac" /><rect x="30.750" y="34.850" width="1.025" height="1.025" fill="#2ab15a" /><rect x="31.775" y="34.850" width="1.025" height="1.025" fill="#68d97f" /><rect x="32.800" y="34.850" width="1.025" height="1.025" fill="#57ee62" /><rect x="33.825" y="34.850" width="1.025" height="1.025" fill="#909090" /><rect x="34.850" y="34.850" width="1.025" height="1.025" fill="#b8ffb8" /><rect x="29.725" y="35.875" width="1.025" height="1.025" fill="#787878" /><rect x="30.750" y="35.875" width="1.025" height="1.025" fill="#000000" /><rect x="31.775" y="35.875" width="1.025" height="1.025" fill="#000000" /><rect x="32.800" y="35.875" width="1.025" height="1.025" fill="#000000" /><rect x="33.825" y="35.875" width="1.025" height="1.025" fill="#909090" /><rect x="34.850" y="35.875" width="1.025" height="1.025" fill="#b8ffb8" /><rect x="29.725" y="36.900" width="1.025" height="1.025" fill="#545454" /><rect x="30.750" y="36.900" width="1.025" height="1.025" fill="#2ab15a" /><rect x="31.775" y="36.900" width="1.025" height="1.025" fill="#68d97f" /><rect x="32.800" y="36.900" width="1.025" height="1.025" fill="#57ee62" /><rect x="33.825" y="36.900" width="1.025" height="1.025" fill="#656565" /><rect x="34.850" y="36.900" width="1.025" height="1.025" fill="#b8ffb8" /></svg>