<svg xmlns="http://www.w3.org/2000/svg" width="37.925" height="37.925" shape-rendering="crispEdges" style="image-rendering: pixelated;"><rect x="12.300" y="0.000" width="1.025" height="1.025" fill="#82fb00" /><rect x="16.400" y="0.000" width="1.025" height="1.025" fill="#46c700" /><rect x="17.425" y="0.000" width="1.025" height="1.025" fill="#4ad900" /><rect x="20.500" y="0.000" width="1.025" height="1.025" fill="#38ad00" /><rect x="21.525" y="0.000" width="1.025" height="1.025" fill="#82fb00" /><rect x="24.600" y="0.000" width="1.025" height="1.025" fill="#46c700" /><rect x="25.625" y="0.000" width="1.025" height="1.025" fill="#84f200" /><rect x="12.300" y="1.025" width="1.025" height="1.025" fill="#46c700" /><rect x="13.325" y="1.025" width="1.025" height="1.025" fill="#82fb00" /><rect x="16.400" y="1.025" width="1.025" height="1.025" fill="#4ad900" /><rect x="17.425" y="1.025" width="1.025" height="1.025" fill="#4ad900" /><rect x="19.475" y="1.025" width="1.025" height="1.025" fill="#46c700" /><rect x="20.500" y="1.025" width="1.025" height="1.025" fill="#84f200" /><rect x="23.575" y="1.025" width="1.025" height="1.025" fill="#46c700" /><rect x="24.600" y="1.025" width="1.025" height="1.025" fill="#84f200" /><rect x="8.200" y="2.050" width="1.025" height="1.025" fill="#84f200" /><rect x="9.225" y="2.050" width="1.025" height="1.025" fill="#37ad00" /><rect x="12.300" y="2.050" width="1.025" height="1.025" fill="#46c700" /><rect x="13.325" y="2.050" width="1.025" height="1.025" fill="#8df600" /><rect x="16.400" y="2.050" width="1.025" height="1.025" fill="#84f200" /><rect x="17.425" y="2.050" width="1.025" height="1.025" fill="#82fb00" /><rect x="19.475" y="2.050" width="1.025" height="1.025" fill="#84f200" /><rect x="20.500" y="2.050" width="1.025" height="1.025" fill="#82fb00" /><rect x="22.550" y="2.050" width="1.025" height="1.025" fill="#46c700" /><rect x="23.575" y="2.050" width="1.025" height="1.025" fill="#82fb00" /><rect x="24.600" y="2.050" width="1.025" height="1.025" fill="#46c700" /><rect x="28.700" y="2.050" width="1.025" height="1.025" fill="#84f200" /><rect x="9.225" y="3.075" width="1.025" height="1.025" fill="#84f200" /><rect x="10.250" y="3.075" width="1.025" height="1.025" fill="#46c700" /><rect x="12.300" y="3.075" width="1.025" height="1.025" fill="#82fb00" /><rect x="13.325" y="3.075" width="1.025" height="1.025" fill="#46c700" /><rect x="16.400" y="3.075" width="1.025" height="1.025" fill="#4ad900" /><rect x="17.425" y="3.075" width="1.025" height="1.025" fill="#82fb00" /><rect x="19.475" y="3.075" width="1.025" height="1.025" fill="#96ff07" /><rect x="20.500" y="3.075" width="1.025" height="1.025" fill="#7ffb00" /><rect x="21.525" y="3.075" width="1.025" height="1.025" fill="#46c700" /><rect x="22.550" y="3.075" width="1.025" height="1.025" fill="#82fb00" /><rect x="23.575" y="3.075" width="1.025" height="1.025" fill="#53db00" /><rect x="26.650" y="3.075" width="1.025" height="1.025" fill="#46c700" /><rect x="27.675" y="3.075" width="1.025" height="1.025" fill="#84f200" /><rect x="9.225" y="4.100" width="1.025" height="1.025" fill="#84f200" /><rect x="10.250" y="4.100" width="1.025" height="1.025" fill="#84f200" /><rect x="13.325" y="4.100" width="1.025" height="1.025" fill="#82fb00" /><rect x="14.350" y="4.100" width="1.025" height="1.025" fill="#37ad00" /><rect x="16.400" y="4.100" width="1.025" height="1.025" fill="#4ad900" /><rect x="17.425" y="4.100" width="1.025" height="1.025" fill="#82fb00" /><rect x="18.450" y="4.100" width="1.025" height="1.025" fill="#46c700" /><rect x="19.475" y="4.100" width="1.025" height="1.025" fill="#84fd00" /><rect x="20.500" y="4.100" width="1.025" height="1.025" fill="#46c700" /><rect x="21.525" y="4.100" width="1.025" height="1.025" fill="#6bef00" /><rect x="22.550" y="4.100" width="1.025" height="1.025" fill="#82fb00" /><rect x="24.600" y="4.100" width="1.025" height="1.025" fill="#46c700" /><rect x="25.625" y="4.100" width="1.025" height="1.025" fill="#84f200" /><rect x="26.650" y="4.100" width="1.025" height="1.025" fill="#84f200" /><rect x="6.150" y="5.125" width="1.025" height="1.025" fill="#84f200" /><rect x="10.250" y="5.125" width="1.025" height="1.025" fill="#84f200" /><rect x="11.275" y="5.125" width="1.025" height="1.025" fill="#37ad00" /><rect x="13.325" y="5.125" width="1.025" height="1.025" fill="#66e600" /><rect x="14.350" y="5.125" width="1.025" height="1.025" fill="#78f300" /><rect x="15.375" y="5.125" width="1.025" height="1.025" fill="#46c700" /><rect x="16.400" y="5.125" width="1.025" height="1.025" fill="#88fe00" /><rect x="17.425" y="5.125" width="1.025" height="1.025" fill="#72f200" /><rect x="18.450" y="5.125" width="1.025" height="1.025" fill="#46c700" /><rect x="19.475" y="5.125" width="1.025" height="1.025" fill="#85fd00" /><rect x="20.500" y="5.125" width="1.025" height="1.025" fill="#46c700" /><rect x="21.525" y="5.125" width="1.025" height="1.025" fill="#81fb00" /><rect x="22.550" y="5.125" width="1.025" height="1.025" fill="#46c700" /><rect x="23.575" y="5.125" width="1.025" height="1.025" fill="#46c700" /><rect x="24.600" y="5.125" width="1.025" height="1.025" fill="#65e600" /><rect x="25.625" y="5.125" width="1.025" height="1.025" fill="#84f200" /><rect x="28.700" y="5.125" width="1.025" height="1.025" fill="#84f200" /><rect x="29.725" y="5.125" width="1.025" height="1.025" fill="#46c700" /><rect x="6.150" y="6.150" width="1.025" height="1.025" fill="#46c700" /><rect x="7.175" y="6.150" width="1.025" height="1.025" fill="#84f200" /><rect x="10.250" y="6.150" width="1.025" height="1.025" fill="#82fb00" /><rect x="11.275" y="6.150" width="1.025" height="1.025" fill="#37ad00" /><rect x="12.300" y="6.150" width="1.025" height="1.025" fill="#46c700" /><rect x="13.325" y="6.150" width="1.025" height="1.025" fill="#77f000" /><rect x="14.350" y="6.150" width="1.025" height="1.025" fill="#7cf300" /><rect x="15.375" y="6.150" width="1.025" height="1.025" fill="#46c700" /><rect x="16.400" y="6.150" width="1.025" height="1.025" fill="#7ef700" /><rect x="17.425" y="6.150" width="1.025" height="1.025" fill="#46c700" /><rect x="18.450" y="6.150" width="1.025" height="1.025" fill="#85fe00" /><rect x="19.475" y="6.150" width="1.025" height="1.025" fill="#86fe00" /><rect x="20.500" y="6.150" width="1.025" height="1.025" fill="#85fd00" /><rect x="21.525" y="6.150" width="1.025" height="1.025" fill="#46c700" /><rect x="22.550" y="6.150" width="1.025" height="1.025" fill="#46c700" /><rect x="23.575" y="6.150" width="1.025" height="1.025" fill="#86ff00" /><rect x="24.600" y="6.150" width="1.025" height="1.025" fill="#81f200" fill-opacity="0.988" /><rect x="26.650" y="6.150" width="1.025" height="1.025" fill="#65e600" /><rect x="27.675" y="6.150" width="1.025" height="1.025" fill="#84f200" /><rect x="28.700" y="6.150" width="1.025" height="1.025" fill="#46c700" /><rect x="7.175" y="7.175" width="1.025" height="1.025" fill="#82fb00" /><rect x="8.200" y="7.175" width="1.025" height="1.025" fill="#46c700" /><rect x="10.250" y="7.175" width="1.025" height="1.025" fill="#82fb00" /><rect x="11.275" y="7.175" width="1.025" height="1.025" fill="#80ee00" /><rect x="12.300" y="7.175" width="1.025" height="1.025" fill="#66e300" /><rect x="13.325" y="7.175" width="1.025" height="1.025" fill="#21110b" /><rect x="14.350" y="7.175" width="1.025" height="1.025" fill="#23120a" /><rect x="15.375" y="7.175" width="1.025" height="1.025" fill="#150904" /><rect x="16.400" y="7.175" width="1.025" height="1.025" fill="#0e0501" /><rect x="17.425" y="7.175" width="1.025" height="1.025" fill="#3c1e11" /><rect x="18.450" y="7.175" width="1.025" height="1.025" fill="#361a12" /><rect x="19.475" y="7.175" width="1.025" height="1.025" fill="#201007" /><rect x="20.500" y="7.175" width="1.025" height="1.025" fill="#362315" /><rect x="21.525" y="7.175" width="1.025" height="1.025" fill="#8aff00" /><rect x="22.550" y="7.175" width="1.025" height="1.025" fill="#87fe00" /><rect x="23.575" y="7.175" width="1.025" height="1.025" fill="#76f403" /><rect x="24.600" y="7.175" width="1.025" height="1.025" fill="#46c700" /><rect x="25.625" y="7.175" width="1.025" height="1.025" fill="#65e600" /><rect x="26.650" y="7.175" width="1.025" height="1.025" fill="#84f200" /><rect x="27.675" y="7.175" width="1.025" height="1.025" fill="#a3eb0e" fill-opacity="0.380" /><rect x="8.200" y="8.200" width="1.025" height="1.025" fill="#82fb00" /><rect x="9.225" y="8.200" width="1.025" height="1.025" fill="#46c700" /><rect x="11.275" y="8.200" width="1.025" height="1.025" fill="#90f800" /><rect x="12.300" y="8.200" width="1.025" height="1.025" fill="#160e08" /><rect x="13.325" y="8.200" width="1.025" height="1.025" fill="#000000" /><rect x="14.350" y="8.200" width="1.025" height="1.025" fill="#502815" fill-opacity="0.988" /><rect x="15.375" y="8.200" width="1.025" height="1.025" fill="#090401" fill-opacity="0.698" /><rect x="16.400" y="8.200" width="1.025" height="1.025" fill="#4b2915" /><rect x="17.425" y="8.200" width="1.025" height="1.025" fill="#311b11" /><rect x="18.450" y="8.200" width="1.025" height="1.025" fill="#311b0e" fill-opacity="0.800" /><rect x="19.475" y="8.200" width="1.025" height="1.025" fill="#2a190d" /><rect x="20.500" y="8.200" width="1.025" height="1.025" fill="#120b05" fill-opacity="0.800" /><rect x="21.525" y="8.200" width="1.025" height="1.025" fill="#211009" /><rect x="22.550" y="8.200" width="1.025" height="1.025" fill="#46c700" /><rect x="23.575" y="8.200" width="1.025" height="1.025" fill="#45c401" /><rect x="24.600" y="8.200" width="1.025" height="1.025" fill="#7ded00" /><rect x="25.625" y="8.200" width="1.025" height="1.025" fill="#39ad02" /><rect x="26.650" y="8.200" width="1.025" height="1.025" fill="#79e207" fill-opacity="0.824" /><rect x="27.675" y="8.200" width="1.025" height="1.025" fill="#7daf0f" fill-opacity="0.059" /><rect x="8.200" y="9.225" width="1.025" height="1.025" fill="#84f200" /><rect x="9.225" y="9.225" width="1.025" height="1.025" fill="#84f200" /><rect x="10.250" y="9.225" width="1.025" height="1.025" fill="#70e500" /><rect x="11.275" y="9.225" width="1.025" height="1.025" fill="#46c700" /><rect x="12.300" y="9.225" width="1.025" height="1.025" fill="#4d2815" fill-opacity="0.898" /><rect x="13.325" y="9.225" width="1.025" height="1.025" fill="#502815" fill-opacity="0.988" /><rect x="14.350" y="9.225" width="1.025" height="1.025" fill="#64351b" fill-opacity="0.659" /><rect x="15.375" y="9.225" width="1.025" height="1.025" fill="#4a2a17" fill-opacity="0.898" /><rect x="16.400" y="9.225" width="1.025" height="1.025" fill="#ab6536" fill-opacity="0.369" /><rect x="22.550" y="9.225" width="1.025" height="1.025" fill="#89e711" fill-opacity="0.404" /><rect x="23.575" y="9.225" width="1.025" height="1.025" fill="#62e005" fill-opacity="0.914" /><rect x="24.600" y="9.225" width="1.025" height="1.025" fill="#46c800" /><rect x="25.625" y="9.225" width="1.025" height="1.025" fill="#80af0f" fill-opacity="0.129" /><rect x="9.225" y="10.250" width="1.025" height="1.025" fill="#82fb00" /><rect x="10.250" y="10.250" width="1.025" height="1.025" fill="#8af900" /><rect x="11.275" y="10.250" width="1.025" height="1.025" fill="#86f800" /><rect x="12.300" y="10.250" width="1.025" height="1.025" fill="#592e19" fill-opacity="0.808" /><rect x="13.325" y="10.250" width="1.025" height="1.025" fill="#64351b" fill-opacity="0.659" /><rect x="14.350" y="10.250" width="1.025" height="1.025" fill="#884a24" fill-opacity="0.647" /><rect x="15.375" y="10.250" width="1.025" height="1.025" fill="#8f4d29" fill-opacity="0.808" /><rect x="5.125" y="11.275" width="1.025" height="1.025" fill="#84f200" /><rect x="6.150" y="11.275" width="1.025" height="1.025" fill="#46c700" /><rect x="7.175" y="11.275" width="1.025" height="1.025" fill="#46c700" /><rect x="10.250" y="11.275" width="1.025" height="1.025" fill="#82fb00" /><rect x="11.275" y="11.275" width="1.025" height="1.025" fill="#82fb00" /><rect x="12.300" y="11.275" width="1.025" height="1.025" fill="#5d2f18" fill-opacity="0.808" /><rect x="13.325" y="11.275" width="1.025" height="1.025" fill="#884a24" fill-opacity="0.647" /><rect x="14.350" y="11.275" width="1.025" height="1.025" fill="#83431f" fill-opacity="0.416" /><rect x="6.150" y="12.300" width="1.025" height="1.025" fill="#84f200" /><rect x="7.175" y="12.300" width="1.025" height="1.025" fill="#84f200" /><rect x="8.200" y="12.300" width="1.025" height="1.025" fill="#46c700" /><rect x="9.225" y="12.300" width="1.025" height="1.025" fill="#46c700" /><rect x="10.250" y="12.300" width="1.025" height="1.025" fill="#46c700" /><rect x="11.275" y="12.300" width="1.025" height="1.025" fill="#46c700" /><rect x="12.300" y="12.300" width="1.025" height="1.025" fill="#693519" fill-opacity="0.725" /><rect x="13.325" y="12.300" width="1.025" height="1.025" fill="#975228" fill-opacity="0.463" /><rect x="14.350" y="12.300" width="1.025" height="1.025" fill="#894b20" fill-opacity="0.725" /><rect x="8.200" y="13.325" width="1.025" height="1.025" fill="#84f200" /><rect x="9.225" y="13.325" width="1.025" height="1.025" fill="#55d200" /><rect x="10.250" y="13.325" width="1.025" height="1.025" fill="#84f200" /><rect x="11.275" y="13.325" width="1.025" height="1.025" fill="#5add00" /><rect x="13.325" y="13.325" width="1.025" height="1.025" fill="#965327" fill-opacity="0.725" /><rect x="14.350" y="13.325" width="1.025" height="1.025" fill="#8b4820" fill-opacity="0.580" /><rect x="14.350" y="14.350" width="1.025" height="1.025" fill="#6a2205" fill-opacity="0.467" /><rect x="5.125" y="15.375" width="1.025" height="1.025" fill="#46c700" /><rect x="6.150" y="15.375" width="1.025" height="1.025" fill="#46c700" /><rect x="7.175" y="15.375" width="1.025" height="1.025" fill="#46c700" /><rect x="8.200" y="15.375" width="1.025" height="1.025" fill="#46c700" /><rect x="9.225" y="15.375" width="1.025" height="1.025" fill="#60df00" /><rect x="10.250" y="15.375" width="1.025" height="1.025" fill="#51da00" /><rect x="7.175" y="16.400" width="1.025" height="1.025" fill="#84f200" /><rect x="8.200" y="16.400" width="1.025" height="1.025" fill="#84f200" /><rect x="9.225" y="16.400" width="1.025" height="1.025" fill="#67e700" /><rect x="10.250" y="16.400" width="1.025" height="1.025" fill="#37ad00" /><rect x="11.275" y="17.425" width="1.025" height="1.025" fill="#51da00" /><rect x="10.250" y="18.450" width="1.025" height="1.025" fill="#4ad800" /><rect x="11.275" y="18.450" width="1.025" height="1.025" fill="#46c700" /><rect x="12.300" y="18.450" width="1.025" height="1.025" fill="#37cd04" /><rect x="9.225" y="19.475" width="1.025" height="1.025" fill="#37ad00" /><rect x="10.250" y="19.475" width="1.025" height="1.025" fill="#46c700" /><rect x="11.275" y="19.475" width="1.025" height="1.025" fill="#4bd900" /><rect x="8.200" y="20.500" width="1.025" height="1.025" fill="#46c700" /><rect x="9.225" y="20.500" width="1.025" height="1.025" fill="#46c700" /></svg>