<svg xmlns="http://www.w3.org/2000/svg" width="37.925" height="37.925" shape-rendering="crispEdges" style="image-rendering: pixelated;"><rect x="12.300" y="0.000" width="1.025" height="1.025" fill="#fffb4a" /><rect x="16.400" y="0.000" width="1.025" height="1.025" fill="#c4d239" /><rect x="17.425" y="0.000" width="1.025" height="1.025" fill="#d7ed23" /><rect x="20.500" y="0.000" width="1.025" height="1.025" fill="#a7b155" /><rect x="21.525" y="0.000" width="1.025" height="1.025" fill="#fffb4a" /><rect x="24.600" y="0.000" width="1.025" height="1.025" fill="#c4d239" /><rect x="25.625" y="0.000" width="1.025" height="1.025" fill="#fff837" /><rect x="12.300" y="1.025" width="1.025" height="1.025" fill="#c4d239" /><rect x="13.325" y="1.025" width="1.025" height="1.025" fill="#fffb4a" /><rect x="16.400" y="1.025" width="1.025" height="1.025" fill="#d7ed23" /><rect x="17.425" y="1.025" width="1.025" height="1.025" fill="#d7ed23" /><rect x="19.475" y="1.025" width="1.025" height="1.025" fill="#c4d239" /><rect x="20.500" y="1.025" width="1.025" height="1.025" fill="#fff837" /><rect x="23.575" y="1.025" width="1.025" height="1.025" fill="#c4d239" /><rect x="24.600" y="1.025" width="1.025" height="1.025" fill="#fff837" /><rect x="8.200" y="2.050" width="1.025" height="1.025" fill="#fff837" /><rect x="9.225" y="2.050" width="1.025" height="1.025" fill="#a6b254" /><rect x="12.300" y="2.050" width="1.025" height="1.025" fill="#c4d239" /><rect x="13.325" y="2.050" width="1.025" height="1.025" fill="#fff641" /><rect x="16.400" y="2.050" width="1.025" height="1.025" fill="#fff837" /><rect x="17.425" y="2.050" width="1.025" height="1.025" fill="#fffb4a" /><rect x="19.475" y="2.050" width="1.025" height="1.025" fill="#fff837" /><rect x="20.500" y="2.050" width="1.025" height="1.025" fill="#fffb4a" /><rect x="22.550" y="2.050" width="1.025" height="1.025" fill="#c4d239" /><rect x="23.575" y="2.050" width="1.025" height="1.025" fill="#fffb4a" /><rect x="24.600" y="2.050" width="1.025" height="1.025" fill="#c4d239" /><rect x="28.700" y="2.050" width="1.025" height="1.025" fill="#ffef37" /><rect x="9.225" y="3.075" width="1.025" height="1.025" fill="#fff837" /><rect x="10.250" y="3.075" width="1.025" height="1.025" fill="#c4d239" /><rect x="12.300" y="3.075" width="1.025" height="1.025" fill="#fffb4a" /><rect x="13.325" y="3.075" width="1.025" height="1.025" fill="#c4d239" /><rect x="15.375" y="3.075" width="1.025" height="1.025" fill="#888c00" /><rect x="16.400" y="3.075" width="1.025" height="1.025" fill="#d7ed23" /><rect x="17.425" y="3.075" width="1.025" height="1.025" fill="#fffb4a" /><rect x="18.450" y="3.075" width="1.025" height="1.025" fill="#8a8c00" /><rect x="19.475" y="3.075" width="1.025" height="1.025" fill="#fff959" /><rect x="20.500" y="3.075" width="1.025" height="1.025" fill="#fffd4b" /><rect x="21.525" y="3.075" width="1.025" height="1.025" fill="#c4d239" /><rect x="22.550" y="3.075" width="1.025" height="1.025" fill="#fffb4a" /><rect x="23.575" y="3.075" width="1.025" height="1.025" fill="#e0f31f" /><rect x="26.650" y="3.075" width="1.025" height="1.025" fill="#c4d239" /><rect x="27.675" y="3.075" width="1.025" height="1.025" fill="#fff837" /><rect x="9.225" y="4.100" width="1.025" height="1.025" fill="#fff837" /><rect x="10.250" y="4.100" width="1.025" height="1.025" fill="#fff837" /><rect x="13.325" y="4.100" width="1.025" height="1.025" fill="#fffb4a" /><rect x="14.350" y="4.100" width="1.025" height="1.025" fill="#a6b254" /><rect x="15.375" y="4.100" width="1.025" height="1.025" fill="#929409" /><rect x="16.400" y="4.100" width="1.025" height="1.025" fill="#d7ed23" /><rect x="17.425" y="4.100" width="1.025" height="1.025" fill="#fffb4a" /><rect x="18.450" y="4.100" width="1.025" height="1.025" fill="#c4d239" /><rect x="19.475" y="4.100" width="1.025" height="1.025" fill="#fffc4e" /><rect x="20.500" y="4.100" width="1.025" height="1.025" fill="#c4d239" /><rect x="21.525" y="4.100" width="1.025" height="1.025" fill="#f9ff31" /><rect x="22.550" y="4.100" width="1.025" height="1.025" fill="#fffb4a" /><rect x="24.600" y="4.100" width="1.025" height="1.025" fill="#c4d239" /><rect x="25.625" y="4.100" width="1.025" height="1.025" fill="#fff837" /><rect x="26.650" y="4.100" width="1.025" height="1.025" fill="#fff837" /><rect x="6.150" y="5.125" width="1.025" height="1.025" fill="#fff837" /><rect x="10.250" y="5.125" width="1.025" height="1.025" fill="#fff837" /><rect x="11.275" y="5.125" width="1.025" height="1.025" fill="#a6b254" /><rect x="12.300" y="5.125" width="1.025" height="1.025" fill="#818c00" /><rect x="13.325" y="5.125" width="1.025" height="1.025" fill="#fcff1c" /><rect x="14.350" y="5.125" width="1.025" height="1.025" fill="#fffd38" /><rect x="15.375" y="5.125" width="1.025" height="1.025" fill="#c4d239" /><rect x="16.400" y="5.125" width="1.025" height="1.025" fill="#fffb53" /><rect x="17.425" y="5.125" width="1.025" height="1.025" fill="#fdff36" /><rect x="18.450" y="5.125" width="1.025" height="1.025" fill="#c4d239" /><rect x="19.475" y="5.125" width="1.025" height="1.025" fill="#fffc4e" /><rect x="20.500" y="5.125" width="1.025" height="1.025" fill="#c4d239" /><rect x="21.525" y="5.125" width="1.025" height="1.025" fill="#fffd4a" /><rect x="22.550" y="5.125" width="1.025" height="1.025" fill="#c4d239" /><rect x="23.575" y="5.125" width="1.025" height="1.025" fill="#c4d239" /><rect x="24.600" y="5.125" width="1.025" height="1.025" fill="#fbff1b" /><rect x="25.625" y="5.125" width="1.025" height="1.025" fill="#fff837" /><rect x="28.700" y="5.125" width="1.025" height="1.025" fill="#fff837" /><rect x="29.725" y="5.125" width="1.025" height="1.025" fill="#c4d239" /><rect x="6.150" y="6.150" width="1.025" height="1.025" fill="#c4d239" /><rect x="7.175" y="6.150" width="1.025" height="1.025" fill="#fff837" /><rect x="10.250" y="6.150" width="1.025" height="1.025" fill="#fffb4a" /><rect x="11.275" y="6.150" width="1.025" height="1.025" fill="#a6b254" /><rect x="12.300" y="6.150" width="1.025" height="1.025" fill="#c4d239" /><rect x="13.325" y="6.150" width="1.025" height="1.025" fill="#fffb34" /><rect x="14.350" y="6.150" width="1.025" height="1.025" fill="#fffb38" /><rect x="15.375" y="6.150" width="1.025" height="1.025" fill="#c4d239" /><rect x="16.400" y="6.150" width="1.025" height="1.025" fill="#fffb41" /><rect x="17.425" y="6.150" width="1.025" height="1.025" fill="#a09e19" /><rect x="18.450" y="6.150" width="1.025" height="1.025" fill="#fffc51" /><rect x="19.475" y="6.150" width="1.025" height="1.025" fill="#fffc50" /><rect x="20.500" y="6.150" width="1.025" height="1.025" fill="#fffc4f" /><rect x="21.525" y="6.150" width="1.025" height="1.025" fill="#c4d239" /><rect x="22.550" y="6.150" width="1.025" height="1.025" fill="#c4d239" /><rect x="23.575" y="6.150" width="1.025" height="1.025" fill="#fffd54" /><rect x="24.600" y="6.150" width="1.025" height="1.025" fill="#f9f536" /><rect x="25.625" y="6.150" width="1.025" height="1.025" fill="#828d02" /><rect x="26.650" y="6.150" width="1.025" height="1.025" fill="#fbff1b" /><rect x="27.675" y="6.150" width="1.025" height="1.025" fill="#fff837" /><rect x="28.700" y="6.150" width="1.025" height="1.025" fill="#c4d239" /><rect x="7.175" y="7.175" width="1.025" height="1.025" fill="#fffb4a" /><rect x="8.200" y="7.175" width="1.025" height="1.025" fill="#c4d239" /><rect x="10.250" y="7.175" width="1.025" height="1.025" fill="#fffb4a" /><rect x="11.275" y="7.175" width="1.025" height="1.025" fill="#fff62e" /><rect x="12.300" y="7.175" width="1.025" height="1.025" fill="#fefb15" /><rect x="13.325" y="7.175" width="1.025" height="1.025" fill="#21110b" /><rect x="14.350" y="7.175" width="1.025" height="1.025" fill="#23120a" /><rect x="15.375" y="7.175" width="1.025" height="1.025" fill="#150904" /><rect x="16.400" y="7.175" width="1.025" height="1.025" fill="#0e0501" /><rect x="17.425" y="7.175" width="1.025" height="1.025" fill="#3c1e11" /><rect x="18.450" y="7.175" width="1.025" height="1.025" fill="#361a12" /><rect x="19.475" y="7.175" width="1.025" height="1.025" fill="#201007" /><rect x="20.500" y="7.175" width="1.025" height="1.025" fill="#362315" /><rect x="21.525" y="7.175" width="1.025" height="1.025" fill="#fff653" /><rect x="22.550" y="7.175" width="1.025" height="1.025" fill="#fffb50" /><rect x="23.575" y="7.175" width="1.025" height="1.025" fill="#e7f03a" /><rect x="24.600" y="7.175" width="1.025" height="1.025" fill="#c4d239" /><rect x="25.625" y="7.175" width="1.025" height="1.025" fill="#fbff1b" /><rect x="26.650" y="7.175" width="1.025" height="1.025" fill="#fff837" /><rect x="27.675" y="7.175" width="1.025" height="1.025" fill="#faf31d" fill-opacity="0.231" /><rect x="8.200" y="8.200" width="1.025" height="1.025" fill="#fffb4a" /><rect x="9.225" y="8.200" width="1.025" height="1.025" fill="#c4d239" /><rect x="11.275" y="8.200" width="1.025" height="1.025" fill="#ffeb45" /><rect x="12.300" y="8.200" width="1.025" height="1.025" fill="#160e08" /><rect x="13.325" y="8.200" width="1.025" height="1.025" fill="#000000" /><rect x="14.350" y="8.200" width="1.025" height="1.025" fill="#502815" fill-opacity="0.988" /><rect x="15.375" y="8.200" width="1.025" height="1.025" fill="#090401" fill-opacity="0.698" /><rect x="16.400" y="8.200" width="1.025" height="1.025" fill="#4b2915" /><rect x="17.425" y="8.200" width="1.025" height="1.025" fill="#311b11" /><rect x="18.450" y="8.200" width="1.025" height="1.025" fill="#311b0e" fill-opacity="0.800" /><rect x="19.475" y="8.200" width="1.025" height="1.025" fill="#2a190d" /><rect x="20.500" y="8.200" width="1.025" height="1.025" fill="#120b05" fill-opacity="0.800" /><rect x="21.525" y="8.200" width="1.025" height="1.025" fill="#211009" /><rect x="22.550" y="8.200" width="1.025" height="1.025" fill="#959c39" /><rect x="23.575" y="8.200" width="1.025" height="1.025" fill="#c3d138" fill-opacity="0.996" /><rect x="24.600" y="8.200" width="1.025" height="1.025" fill="#fff62c" fill-opacity="0.988" /><rect x="25.625" y="8.200" width="1.025" height="1.025" fill="#a6b155" /><rect x="26.650" y="8.200" width="1.025" height="1.025" fill="#f1fd15" fill-opacity="0.600" /><rect x="27.675" y="8.200" width="1.025" height="1.025" fill="#c5ca1c" fill-opacity="0.031" /><rect x="8.200" y="9.225" width="1.025" height="1.025" fill="#fff837" /><rect x="9.225" y="9.225" width="1.025" height="1.025" fill="#fff837" /><rect x="10.250" y="9.225" width="1.025" height="1.025" fill="#fff81a" /><rect x="11.275" y="9.225" width="1.025" height="1.025" fill="#1c0c03" /><rect x="12.300" y="9.225" width="1.025" height="1.025" fill="#4d2815" fill-opacity="0.898" /><rect x="13.325" y="9.225" width="1.025" height="1.025" fill="#502815" fill-opacity="0.988" /><rect x="14.350" y="9.225" width="1.025" height="1.025" fill="#64351b" fill-opacity="0.659" /><rect x="15.375" y="9.225" width="1.025" height="1.025" fill="#4a2a17" fill-opacity="0.898" /><rect x="16.400" y="9.225" width="1.025" height="1.025" fill="#ab6536" fill-opacity="0.369" /><rect x="22.550" y="9.225" width="1.025" height="1.025" fill="#ffef37" fill-opacity="0.176" /><rect x="23.575" y="9.225" width="1.025" height="1.025" fill="#efff20" fill-opacity="0.608" /><rect x="24.600" y="9.225" width="1.025" height="1.025" fill="#c4d239" fill-opacity="0.996" /><rect x="25.625" y="9.225" width="1.025" height="1.025" fill="#c9cd1b" fill-opacity="0.075" /><rect x="9.225" y="10.250" width="1.025" height="1.025" fill="#fffb4a" /><rect x="10.250" y="10.250" width="1.025" height="1.025" fill="#fff946" /><rect x="11.275" y="10.250" width="1.025" height="1.025" fill="#fff344" /><rect x="12.300" y="10.250" width="1.025" height="1.025" fill="#592e19" fill-opacity="0.808" /><rect x="13.325" y="10.250" width="1.025" height="1.025" fill="#64351b" fill-opacity="0.659" /><rect x="14.350" y="10.250" width="1.025" height="1.025" fill="#884a24" fill-opacity="0.647" /><rect x="15.375" y="10.250" width="1.025" height="1.025" fill="#8f4d29" fill-opacity="0.808" /><rect x="5.125" y="11.275" width="1.025" height="1.025" fill="#fff837" /><rect x="6.150" y="11.275" width="1.025" height="1.025" fill="#c4d239" /><rect x="7.175" y="11.275" width="1.025" height="1.025" fill="#c4d239" /><rect x="10.250" y="11.275" width="1.025" height="1.025" fill="#fffb4a" /><rect x="11.275" y="11.275" width="1.025" height="1.025" fill="#fff74a" /><rect x="12.300" y="11.275" width="1.025" height="1.025" fill="#5d2f18" fill-opacity="0.808" /><rect x="13.325" y="11.275" width="1.025" height="1.025" fill="#884a24" fill-opacity="0.647" /><rect x="14.350" y="11.275" width="1.025" height="1.025" fill="#83431f" fill-opacity="0.416" /><rect x="6.150" y="12.300" width="1.025" height="1.025" fill="#fff837" /><rect x="7.175" y="12.300" width="1.025" height="1.025" fill="#fff837" /><rect x="8.200" y="12.300" width="1.025" height="1.025" fill="#c4d239" /><rect x="9.225" y="12.300" width="1.025" height="1.025" fill="#c4d239" /><rect x="10.250" y="12.300" width="1.025" height="1.025" fill="#c4d239" /><rect x="11.275" y="12.300" width="1.025" height="1.025" fill="#959c39" /><rect x="12.300" y="12.300" width="1.025" height="1.025" fill="#693519" fill-opacity="0.725" /><rect x="13.325" y="12.300" width="1.025" height="1.025" fill="#975228" fill-opacity="0.463" /><rect x="14.350" y="12.300" width="1.025" height="1.025" fill="#894b20" fill-opacity="0.725" /><rect x="8.200" y="13.325" width="1.025" height="1.025" fill="#fff837" /><rect x="9.225" y="13.325" width="1.025" height="1.025" fill="#d8e22b" /><rect x="10.250" y="13.325" width="1.025" height="1.025" fill="#fff837" /><rect x="11.275" y="13.325" width="1.025" height="1.025" fill="#e7f61d" /><rect x="13.325" y="13.325" width="1.025" height="1.025" fill="#965327" fill-opacity="0.725" /><rect x="14.350" y="13.325" width="1.025" height="1.025" fill="#8b4820" fill-opacity="0.580" /><rect x="14.350" y="14.350" width="1.025" height="1.025" fill="#6a2205" fill-opacity="0.467" /><rect x="5.125" y="15.375" width="1.025" height="1.025" fill="#c4d239" /><rect x="6.150" y="15.375" width="1.025" height="1.025" fill="#c4d239" /><rect x="7.175" y="15.375" width="1.025" height="1.025" fill="#c4d239" /><rect x="8.200" y="15.375" width="1.025" height="1.025" fill="#c4d239" /><rect x="9.225" y="15.375" width="1.025" height="1.025" fill="#f1f91a" /><rect x="10.250" y="15.375" width="1.025" height="1.025" fill="#ddf021" /><rect x="7.175" y="16.400" width="1.025" height="1.025" fill="#fff837" /><rect x="8.200" y="16.400" width="1.025" height="1.025" fill="#fff837" /><rect x="9.225" y="16.400" width="1.025" height="1.025" fill="#fcff20" /><rect x="10.250" y="16.400" width="1.025" height="1.025" fill="#a6b254" /><rect x="11.275" y="17.425" width="1.025" height="1.025" fill="#ddf021" /><rect x="10.250" y="18.450" width="1.025" height="1.025" fill="#d7ed23" /><rect x="11.275" y="18.450" width="1.025" height="1.025" fill="#c4d239" /><rect x="12.300" y="18.450" width="1.025" height="1.025" fill="#bddc32" /><rect x="9.225" y="19.475" width="1.025" height="1.025" fill="#a6b254" /><rect x="10.250" y="19.475" width="1.025" height="1.025" fill="#c4d239" /><rect x="11.275" y="19.475" width="1.025" height="1.025" fill="#d9f021" /><rect x="8.200" y="20.500" width="1.025" height="1.025" fill="#c4d239" /><rect x="9.225" y="20.500" width="1.025" height="1.025" fill="#c4d239" /></svg>