<svg xmlns="http://www.w3.org/2000/svg" width="37.925" height="37.925" shape-rendering="crispEdges" style="image-rendering: pixelated;"><rect x="12.300" y="27.675" width="1.025" height="1.025" fill="#a4a4a4" /><rect x="19.475" y="27.675" width="1.025" height="1.025" fill="#858585" /><rect x="20.500" y="27.675" width="1.025" height="1.025" fill="#858585" /><rect x="11.275" y="28.700" width="1.025" height="1.025" fill="#9e6c9a" /><rect x="12.300" y="28.700" width="1.025" height="1.025" fill="#e6e6e6" /><rect x="13.325" y="28.700" width="1.025" height="1.025" fill="#f5f5f5" /><rect x="14.350" y="28.700" width="1.025" height="1.025" fill="#d2d2d2" /><rect x="15.375" y="28.700" width="1.025" height="1.025" fill="#a4a4a4" /><rect x="16.400" y="28.700" width="1.025" height="1.025" fill="#858585" /><rect x="18.450" y="28.700" width="1.025" height="1.025" fill="#797979" /><rect x="19.475" y="28.700" width="1.025" height="1.025" fill="#fafafa" /><rect x="20.500" y="28.700" width="1.025" height="1.025" fill="#e9e9e9" /><rect x="21.525" y="28.700" width="1.025" height="1.025" fill="#93638f" /><rect x="9.225" y="29.725" width="1.025" height="1.025" fill="#919191" /><rect x="10.250" y="29.725" width="1.025" height="1.025" fill="#797979" /><rect x="11.275" y="29.725" width="1.025" height="1.025" fill="#da0b18" /><rect x="12.300" y="29.725" width="1.025" height="1.025" fill="#fe0035" /><rect x="13.325" y="29.725" width="1.025" height="1.025" fill="#f5f5f5" /><rect x="14.350" y="29.725" width="1.025" height="1.025" fill="#858585" /><rect x="15.375" y="29.725" width="1.025" height="1.025" fill="#858585" /><rect x="16.400" y="29.725" width="1.025" height="1.025" fill="#f5f5f5" /><rect x="17.425" y="29.725" width="1.025" height="1.025" fill="#acacac" /><rect x="18.450" y="29.725" width="1.025" height="1.025" fill="#fafafa" /><rect x="19.475" y="29.725" width="1.025" height="1.025" fill="#a7a7a7" /><rect x="20.500" y="29.725" width="1.025" height="1.025" fill="#dedede" /><rect x="21.525" y="29.725" width="1.025" height="1.025" fill="#fe0035" /><rect x="22.550" y="29.725" width="1.025" height="1.025" fill="#797979" /><rect x="23.575" y="29.725" width="1.025" height="1.025" fill="#858585" /><rect x="7.175" y="30.750" width="1.025" height="1.025" fill="#9b9b9b" /><rect x="8.200" y="30.750" width="1.025" height="1.025" fill="#8b8b8b" /><rect x="9.225" y="30.750" width="1.025" height="1.025" fill="#ebebeb" /><rect x="10.250" y="30.750" width="1.025" height="1.025" fill="#eeeeee" /><rect x="11.275" y="30.750" width="1.025" height="1.025" fill="#ae0913" /><rect x="12.300" y="30.750" width="1.025" height="1.025" fill="#da0b18" /><rect x="13.325" y="30.750" width="1.025" height="1.025" fill="#fe0035" /><rect x="14.350" y="30.750" width="1.025" height="1.025" fill="#fafafa" /><rect x="15.375" y="30.750" width="1.025" height="1.025" fill="#f5f5f5" /><rect x="16.400" y="30.750" width="1.025" height="1.025" fill="#f5f5f5" /><rect x="17.425" y="30.750" width="1.025" height="1.025" fill="#acacac" /><rect x="18.450" y="30.750" width="1.025" height="1.025" fill="#858585" /><rect x="19.475" y="30.750" width="1.025" height="1.025" fill="#f5f5f5" /><rect x="20.500" y="30.750" width="1.025" height="1.025" fill="#fe0035" /><rect x="21.525" y="30.750" width="1.025" height="1.025" fill="#da0b18" /><rect x="22.550" y="30.750" width="1.025" height="1.025" fill="#ec0627" /><rect x="23.575" y="30.750" width="1.025" height="1.025" fill="#dedede" /><rect x="24.600" y="30.750" width="1.025" height="1.025" fill="#808080" /><rect x="25.625" y="30.750" width="1.025" height="1.025" fill="#858585" /><rect x="6.150" y="31.775" width="1.025" height="1.025" fill="#9f9f9f" /><rect x="7.175" y="31.775" width="1.025" height="1.025" fill="#bbbbbb" /><rect x="8.200" y="31.775" width="1.025" height="1.025" fill="#f3f3f3" /><rect x="9.225" y="31.775" width="1.025" height="1.025" fill="#fcfcfc" /><rect x="10.250" y="31.775" width="1.025" height="1.025" fill="#f5f5f5" /><rect x="11.275" y="31.775" width="1.025" height="1.025" fill="#f8f8f8" /><rect x="12.300" y="31.775" width="1.025" height="1.025" fill="#ae0913" /><rect x="13.325" y="31.775" width="1.025" height="1.025" fill="#e1091e" /><rect x="14.350" y="31.775" width="1.025" height="1.025" fill="#f5f5f5" /><rect x="15.375" y="31.775" width="1.025" height="1.025" fill="#f8f8f8" /><rect x="16.400" y="31.775" width="1.025" height="1.025" fill="#f5f5f5" /><rect x="17.425" y="31.775" width="1.025" height="1.025" fill="#acacac" /><rect x="18.450" y="31.775" width="1.025" height="1.025" fill="#fafafa" /><rect x="19.475" y="31.775" width="1.025" height="1.025" fill="#fafafa" /><rect x="20.500" y="31.775" width="1.025" height="1.025" fill="#fafafa" /><rect x="21.525" y="31.775" width="1.025" height="1.025" fill="#ae0913" /><rect x="22.550" y="31.775" width="1.025" height="1.025" fill="#da0b18" /><rect x="23.575" y="31.775" width="1.025" height="1.025" fill="#eeeeee" /><rect x="24.600" y="31.775" width="1.025" height="1.025" fill="#fafafa" /><rect x="25.625" y="31.775" width="1.025" height="1.025" fill="#ebebeb" /><rect x="26.650" y="31.775" width="1.025" height="1.025" fill="#808080" /><rect x="5.125" y="32.800" width="1.025" height="1.025" fill="#8b8b8b" /><rect x="6.150" y="32.800" width="1.025" height="1.025" fill="#e6e6e6" /><rect x="7.175" y="32.800" width="1.025" height="1.025" fill="#dedede" /><rect x="8.200" y="32.800" width="1.025" height="1.025" fill="#f3f3f3" /><rect x="9.225" y="32.800" width="1.025" height="1.025" fill="#fcfcfc" /><rect x="10.250" y="32.800" width="1.025" height="1.025" fill="#f8f8f8" /><rect x="11.275" y="32.800" width="1.025" height="1.025" fill="#f1f1f1" /><rect x="12.300" y="32.800" width="1.025" height="1.025" fill="#ae0913" /><rect x="13.325" y="32.800" width="1.025" height="1.025" fill="#da0b18" /><rect x="14.350" y="32.800" width="1.025" height="1.025" fill="#e1091e" /><rect x="15.375" y="32.800" width="1.025" height="1.025" fill="#fafafa" /><rect x="16.400" y="32.800" width="1.025" height="1.025" fill="#f5f5f5" /><rect x="17.425" y="32.800" width="1.025" height="1.025" fill="#acacac" /><rect x="18.450" y="32.800" width="1.025" height="1.025" fill="#f5f5f5" /><rect x="19.475" y="32.800" width="1.025" height="1.025" fill="#fafafa" /><rect x="20.500" y="32.800" width="1.025" height="1.025" fill="#fafafa" /><rect x="21.525" y="32.800" width="1.025" height="1.025" fill="#ae0913" /><rect x="22.550" y="32.800" width="1.025" height="1.025" fill="#da0b18" /><rect x="23.575" y="32.800" width="1.025" height="1.025" fill="#f3042c" /><rect x="24.600" y="32.800" width="1.025" height="1.025" fill="#eeeeee" /><rect x="25.625" y="32.800" width="1.025" height="1.025" fill="#fcfcfc" /><rect x="26.650" y="32.800" width="1.025" height="1.025" fill="#e9e9e9" /><rect x="27.675" y="32.800" width="1.025" height="1.025" fill="#858585" /><rect x="5.125" y="33.825" width="1.025" height="1.025" fill="#9b9b9b" /><rect x="6.150" y="33.825" width="1.025" height="1.025" fill="#e6e6e6" /><rect x="7.175" y="33.825" width="1.025" height="1.025" fill="#d8d8d8" /><rect x="8.200" y="33.825" width="1.025" height="1.025" fill="#f5f5f5" /><rect x="9.225" y="33.825" width="1.025" height="1.025" fill="#e3e3e3" /><rect x="10.250" y="33.825" width="1.025" height="1.025" fill="#afafaf" /><rect x="11.275" y="33.825" width="1.025" height="1.025" fill="#e0e0e0" /><rect x="12.300" y="33.825" width="1.025" height="1.025" fill="#f8f8f8" /><rect x="13.325" y="33.825" width="1.025" height="1.025" fill="#ae0913" /><rect x="14.350" y="33.825" width="1.025" height="1.025" fill="#e1091e" /><rect x="15.375" y="33.825" width="1.025" height="1.025" fill="#fafafa" /><rect x="16.400" y="33.825" width="1.025" height="1.025" fill="#fafafa" /><rect x="17.425" y="33.825" width="1.025" height="1.025" fill="#f5f5f5" /><rect x="18.450" y="33.825" width="1.025" height="1.025" fill="#f5f5f5" /><rect x="19.475" y="33.825" width="1.025" height="1.025" fill="#f8f8f8" /><rect x="20.500" y="33.825" width="1.025" height="1.025" fill="#c0efff" /><rect x="21.525" y="33.825" width="1.025" height="1.025" fill="#fafafa" /><rect x="22.550" y="33.825" width="1.025" height="1.025" fill="#ae0913" /><rect x="23.575" y="33.825" width="1.025" height="1.025" fill="#da0b18" /><rect x="24.600" y="33.825" width="1.025" height="1.025" fill="#a7a7a7" /><rect x="25.625" y="33.825" width="1.025" height="1.025" fill="#fcfcfc" /><rect x="26.650" y="33.825" width="1.025" height="1.025" fill="#e9e9e9" /><rect x="27.675" y="33.825" width="1.025" height="1.025" fill="#797979" /><rect x="5.125" y="34.850" width="1.025" height="1.025" fill="#9b9b9b" /><rect x="6.150" y="34.850" width="1.025" height="1.025" fill="#e6e6e6" /><rect x="7.175" y="34.850" width="1.025" height="1.025" fill="#d8d8d8" /><rect x="8.200" y="34.850" width="1.025" height="1.025" fill="#f5f5f5" /><rect x="9.225" y="34.850" width="1.025" height="1.025" fill="#e3e3e3" /><rect x="10.250" y="34.850" width="1.025" height="1.025" fill="#737373" /><rect x="11.275" y="34.850" width="1.025" height="1.025" fill="#b4b4b4" /><rect x="12.300" y="34.850" width="1.025" height="1.025" fill="#f3f3f3" /><rect x="13.325" y="34.850" width="1.025" height="1.025" fill="#e5e5e5" /><rect x="14.350" y="34.850" width="1.025" height="1.025" fill="#b3b3b3" /><rect x="15.375" y="34.850" width="1.025" height="1.025" fill="#fcfcfc" /><rect x="16.400" y="34.850" width="1.025" height="1.025" fill="#fafafa" /><rect x="17.425" y="34.850" width="1.025" height="1.025" fill="#f1f1f1" /><rect x="18.450" y="34.850" width="1.025" height="1.025" fill="#ebebeb" /><rect x="19.475" y="34.850" width="1.025" height="1.025" fill="#f5f5f5" /><rect x="20.500" y="34.850" width="1.025" height="1.025" fill="#00bffe" /><rect x="21.525" y="34.850" width="1.025" height="1.025" fill="#fafafa" /><rect x="22.550" y="34.850" width="1.025" height="1.025" fill="#e5e5e5" /><rect x="23.575" y="34.850" width="1.025" height="1.025" fill="#b3b3b3" /><rect x="24.600" y="34.850" width="1.025" height="1.025" fill="#000000" /><rect x="25.625" y="34.850" width="1.025" height="1.025" fill="#fcfcfc" /><rect x="26.650" y="34.850" width="1.025" height="1.025" fill="#e9e9e9" /><rect x="27.675" y="34.850" width="1.025" height="1.025" fill="#797979" /><rect x="5.125" y="35.875" width="1.025" height="1.025" fill="#926ea0" /><rect x="6.150" y="35.875" width="1.025" height="1.025" fill="#ac7aa8" /><rect x="7.175" y="35.875" width="1.025" height="1.025" fill="#fe0035" /><rect x="8.200" y="35.875" width="1.025" height="1.025" fill="#fe0035" /><rect x="9.225" y="35.875" width="1.025" height="1.025" fill="#fe0035" /><rect x="10.250" y="35.875" width="1.025" height="1.025" fill="#000000" /><rect x="11.275" y="35.875" width="1.025" height="1.025" fill="#797979" /><rect x="12.300" y="35.875" width="1.025" height="1.025" fill="#cfcfcf" /><rect x="13.325" y="35.875" width="1.025" height="1.025" fill="#ae0913" /><rect x="14.350" y="35.875" width="1.025" height="1.025" fill="#e1091e" /><rect x="15.375" y="35.875" width="1.025" height="1.025" fill="#f5f5f5" /><rect x="16.400" y="35.875" width="1.025" height="1.025" fill="#f1f1f1" /><rect x="17.425" y="35.875" width="1.025" height="1.025" fill="#e9e9e9" /><rect x="18.450" y="35.875" width="1.025" height="1.025" fill="#dedede" /><rect x="19.475" y="35.875" width="1.025" height="1.025" fill="#e0e0e0" /><rect x="20.500" y="35.875" width="1.025" height="1.025" fill="#f5f5f5" /><rect x="21.525" y="35.875" width="1.025" height="1.025" fill="#00bffe" /><rect x="22.550" y="35.875" width="1.025" height="1.025" fill="#ae0913" /><rect x="23.575" y="35.875" width="1.025" height="1.025" fill="#da0b18" /><rect x="24.600" y="35.875" width="1.025" height="1.025" fill="#1d1d1d" /><rect x="25.625" y="35.875" width="1.025" height="1.025" fill="#b282ae" /><rect x="26.650" y="35.875" width="1.025" height="1.025" fill="#fe0035" /><rect x="27.675" y="35.875" width="1.025" height="1.025" fill="#fe0035" /><rect x="10.250" y="36.900" width="1.025" height="1.025" fill="#000000" /><rect x="11.275" y="36.900" width="1.025" height="1.025" fill="#808080" /><rect x="12.300" y="36.900" width="1.025" height="1.025" fill="#a7a7a7" /><rect x="13.325" y="36.900" width="1.025" height="1.025" fill="#ae0913" /><rect x="14.350" y="36.900" width="1.025" height="1.025" fill="#e1091e" /><rect x="15.375" y="36.900" width="1.025" height="1.025" fill="#cfcfcf" /><rect x="16.400" y="36.900" width="1.025" height="1.025" fill="#d2d2d2" /><rect x="17.425" y="36.900" width="1.025" height="1.025" fill="#e0e0e0" /><rect x="18.450" y="36.900" width="1.025" height="1.025" fill="#e0e0e0" /><rect x="19.475" y="36.900" width="1.025" height="1.025" fill="#e0e0e0" /><rect x="20.500" y="36.900" width="1.025" height="1.025" fill="#dedede" /><rect x="21.525" y="36.900" width="1.025" height="1.025" fill="#dedede" /><rect x="22.550" y="36.900" width="1.025" height="1.025" fill="#ae0913" /><rect x="23.575" y="36.900" width="1.025" height="1.025" fill="#da0b18" /><rect x="24.600" y="36.900" width="1.025" height="1.025" fill="#000000" /></svg>