<svg xmlns="http://www.w3.org/2000/svg" width="37.925" height="37.925" shape-rendering="crispEdges" style="image-rendering: pixelated;"><rect x="12.300" y="3.075" width="1.025" height="1.025" fill="#030000" /><rect x="13.325" y="3.075" width="1.025" height="1.025" fill="#130902" /><rect x="14.350" y="3.075" width="1.025" height="1.025" fill="#200f06" /><rect x="15.375" y="3.075" width="1.025" height="1.025" fill="#201106" /><rect x="16.400" y="3.075" width="1.025" height="1.025" fill="#2c170a" /><rect x="17.425" y="3.075" width="1.025" height="1.025" fill="#2c160b" /><rect x="18.450" y="3.075" width="1.025" height="1.025" fill="#050100" /><rect x="19.475" y="3.075" width="1.025" height="1.025" fill="#020001" /><rect x="10.250" y="4.100" width="1.025" height="1.025" fill="#020001" /><rect x="11.275" y="4.100" width="1.025" height="1.025" fill="#1c0300" /><rect x="12.300" y="4.100" width="1.025" height="1.025" fill="#30170b" /><rect x="13.325" y="4.100" width="1.025" height="1.025" fill="#361b0c" /><rect x="14.350" y="4.100" width="1.025" height="1.025" fill="#41220f" /><rect x="15.375" y="4.100" width="1.025" height="1.025" fill="#3d2010" /><rect x="16.400" y="4.100" width="1.025" height="1.025" fill="#351d0d" /><rect x="17.425" y="4.100" width="1.025" height="1.025" fill="#311a0c" /><rect x="18.450" y="4.100" width="1.025" height="1.025" fill="#2a1609" /><rect x="19.475" y="4.100" width="1.025" height="1.025" fill="#190b04" /><rect x="20.500" y="4.100" width="1.025" height="1.025" fill="#190c05" /><rect x="21.525" y="4.100" width="1.025" height="1.025" fill="#201007" /><rect x="22.550" y="4.100" width="1.025" height="1.025" fill="#020000" /><rect x="23.575" y="4.100" width="1.025" height="1.025" fill="#080000" /><rect x="10.250" y="5.125" width="1.025" height="1.025" fill="#1a1013" /><rect x="11.275" y="5.125" width="1.025" height="1.025" fill="#231108" /><rect x="12.300" y="5.125" width="1.025" height="1.025" fill="#261208" /><rect x="13.325" y="5.125" width="1.025" height="1.025" fill="#33190a" /><rect x="14.350" y="5.125" width="1.025" height="1.025" fill="#3e2110" /><rect x="15.375" y="5.125" width="1.025" height="1.025" fill="#291408" /><rect x="16.400" y="5.125" width="1.025" height="1.025" fill="#331a0d" /><rect x="17.425" y="5.125" width="1.025" height="1.025" fill="#281409" /><rect x="18.450" y="5.125" width="1.025" height="1.025" fill="#341c0d" /><rect x="19.475" y="5.125" width="1.025" height="1.025" fill="#3c1d0e" /><rect x="20.500" y="5.125" width="1.025" height="1.025" fill="#351a0c" /><rect x="21.525" y="5.125" width="1.025" height="1.025" fill="#391d0c" /><rect x="22.550" y="5.125" width="1.025" height="1.025" fill="#371c0c" /><rect x="23.575" y="5.125" width="1.025" height="1.025" fill="#301909" /><rect x="24.600" y="5.125" width="1.025" height="1.025" fill="#050200" /><rect x="9.225" y="6.150" width="1.025" height="1.025" fill="#000000" /><rect x="10.250" y="6.150" width="1.025" height="1.025" fill="#000000" /><rect x="11.275" y="6.150" width="1.025" height="1.025" fill="#331c0c" /><rect x="12.300" y="6.150" width="1.025" height="1.025" fill="#341c0c" /><rect x="13.325" y="6.150" width="1.025" height="1.025" fill="#361e0e" /><rect x="14.350" y="6.150" width="1.025" height="1.025" fill="#381d0e" /><rect x="15.375" y="6.150" width="1.025" height="1.025" fill="#371d0d" /><rect x="16.400" y="6.150" width="1.025" height="1.025" fill="#3b1e0f" /><rect x="17.425" y="6.150" width="1.025" height="1.025" fill="#2c170b" /><rect x="18.450" y="6.150" width="1.025" height="1.025" fill="#351c0d" /><rect x="19.475" y="6.150" width="1.025" height="1.025" fill="#3e1f0f" /><rect x="20.500" y="6.150" width="1.025" height="1.025" fill="#3c1f0e" /><rect x="21.525" y="6.150" width="1.025" height="1.025" fill="#341a0b" /><rect x="22.550" y="6.150" width="1.025" height="1.025" fill="#3a1e0e" /><rect x="23.575" y="6.150" width="1.025" height="1.025" fill="#40220f" /><rect x="24.600" y="6.150" width="1.025" height="1.025" fill="#331a0a" /><rect x="25.625" y="6.150" width="1.025" height="1.025" fill="#150603" /><rect x="9.225" y="7.175" width="1.025" height="1.025" fill="#231208" /><rect x="10.250" y="7.175" width="1.025" height="1.025" fill="#2b160a" /><rect x="11.275" y="7.175" width="1.025" height="1.025" fill="#2c160a" /><rect x="12.300" y="7.175" width="1.025" height="1.025" fill="#2f1a0b" /><rect x="13.325" y="7.175" width="1.025" height="1.025" fill="#341d0e" /><rect x="14.350" y="7.175" width="1.025" height="1.025" fill="#351d0d" /><rect x="15.375" y="7.175" width="1.025" height="1.025" fill="#402210" /><rect x="16.400" y="7.175" width="1.025" height="1.025" fill="#361b0d" /><rect x="17.425" y="7.175" width="1.025" height="1.025" fill="#321b0c" /><rect x="18.450" y="7.175" width="1.025" height="1.025" fill="#321a0c" /><rect x="19.475" y="7.175" width="1.025" height="1.025" fill="#2e180a" /><rect x="20.500" y="7.175" width="1.025" height="1.025" fill="#331a0c" /><rect x="21.525" y="7.175" width="1.025" height="1.025" fill="#341c0e" /><rect x="22.550" y="7.175" width="1.025" height="1.025" fill="#301a0c" /><rect x="23.575" y="7.175" width="1.025" height="1.025" fill="#381e0d" /><rect x="24.600" y="7.175" width="1.025" height="1.025" fill="#371c0c" /><rect x="25.625" y="7.175" width="1.025" height="1.025" fill="#341b0d" /><rect x="26.650" y="7.175" width="1.025" height="1.025" fill="#010100" /><rect x="8.200" y="8.200" width="1.025" height="1.025" fill="#010000" /><rect x="9.225" y="8.200" width="1.025" height="1.025" fill="#381d0e" /><rect x="10.250" y="8.200" width="1.025" height="1.025" fill="#301b0d" /><rect x="11.275" y="8.200" width="1.025" height="1.025" fill="#2c160a" /><rect x="12.300" y="8.200" width="1.025" height="1.025" fill="#2b160a" /><rect x="13.325" y="8.200" width="1.025" height="1.025" fill="#2e180a" /><rect x="14.350" y="8.200" width="1.025" height="1.025" fill="#2d180a" /><rect x="15.375" y="8.200" width="1.025" height="1.025" fill="#3a1f10" /><rect x="16.400" y="8.200" width="1.025" height="1.025" fill="#3d200f" /><rect x="17.425" y="8.200" width="1.025" height="1.025" fill="#361c0e" /><rect x="18.450" y="8.200" width="1.025" height="1.025" fill="#261408" /><rect x="19.475" y="8.200" width="1.025" height="1.025" fill="#351b0e" /><rect x="20.500" y="8.200" width="1.025" height="1.025" fill="#2b150b" /><rect x="21.525" y="8.200" width="1.025" height="1.025" fill="#2b1408" /><rect x="22.550" y="8.200" width="1.025" height="1.025" fill="#33190c" /><rect x="23.575" y="8.200" width="1.025" height="1.025" fill="#361c0e" /><rect x="24.600" y="8.200" width="1.025" height="1.025" fill="#3d2110" /><rect x="25.625" y="8.200" width="1.025" height="1.025" fill="#2f180c" /><rect x="26.650" y="8.200" width="1.025" height="1.025" fill="#2a1509" /><rect x="8.200" y="9.225" width="1.025" height="1.025" fill="#000001" /><rect x="9.225" y="9.225" width="1.025" height="1.025" fill="#2d170b" /><rect x="10.250" y="9.225" width="1.025" height="1.025" fill="#331b0c" /><rect x="11.275" y="9.225" width="1.025" height="1.025" fill="#351c0d" /><rect x="12.300" y="9.225" width="1.025" height="1.025" fill="#1f1007" /><rect x="13.325" y="9.225" width="1.025" height="1.025" fill="#351d0c" /><rect x="14.350" y="9.225" width="1.025" height="1.025" fill="#3b200f" /><rect x="15.375" y="9.225" width="1.025" height="1.025" fill="#2e1709" /><rect x="16.400" y="9.225" width="1.025" height="1.025" fill="#271408" /><rect x="17.425" y="9.225" width="1.025" height="1.025" fill="#281409" /><rect x="18.450" y="9.225" width="1.025" height="1.025" fill="#1a0b04" /><rect x="19.475" y="9.225" width="1.025" height="1.025" fill="#281509" /><rect x="20.500" y="9.225" width="1.025" height="1.025" fill="#3a1f0f" /><rect x="21.525" y="9.225" width="1.025" height="1.025" fill="#422411" /><rect x="22.550" y="9.225" width="1.025" height="1.025" fill="#3a1f0e" /><rect x="23.575" y="9.225" width="1.025" height="1.025" fill="#231309" /><rect x="24.600" y="9.225" width="1.025" height="1.025" fill="#31180c" /><rect x="25.625" y="9.225" width="1.025" height="1.025" fill="#2b1609" /><rect x="26.650" y="9.225" width="1.025" height="1.025" fill="#1a0c04" /><rect x="8.200" y="10.250" width="1.025" height="1.025" fill="#000000" /><rect x="9.225" y="10.250" width="1.025" height="1.025" fill="#2a1509" /><rect x="10.250" y="10.250" width="1.025" height="1.025" fill="#30190c" /><rect x="11.275" y="10.250" width="1.025" height="1.025" fill="#221007" /><rect x="12.300" y="10.250" width="1.025" height="1.025" fill="#231005" /><rect x="13.325" y="10.250" width="1.025" height="1.025" fill="#331a0b" /><rect x="14.350" y="10.250" width="1.025" height="1.025" fill="#3d2011" /><rect x="15.375" y="10.250" width="1.025" height="1.025" fill="#26140a" /><rect x="16.400" y="10.250" width="1.025" height="1.025" fill="#2a1409" /><rect x="17.425" y="10.250" width="1.025" height="1.025" fill="#30170a" /><rect x="19.475" y="10.250" width="1.025" height="1.025" fill="#171209" /><rect x="20.500" y="10.250" width="1.025" height="1.025" fill="#150904" /><rect x="21.525" y="10.250" width="1.025" height="1.025" fill="#120603" /><rect x="22.550" y="10.250" width="1.025" height="1.025" fill="#120603" /><rect x="23.575" y="10.250" width="1.025" height="1.025" fill="#2d180c" /><rect x="24.600" y="10.250" width="1.025" height="1.025" fill="#331a0c" /><rect x="25.625" y="10.250" width="1.025" height="1.025" fill="#3a1e0c" /><rect x="26.650" y="10.250" width="1.025" height="1.025" fill="#0b0203" /><rect x="8.200" y="11.275" width="1.025" height="1.025" fill="#000000" /><rect x="9.225" y="11.275" width="1.025" height="1.025" fill="#2a1308" /><rect x="10.250" y="11.275" width="1.025" height="1.025" fill="#2b1609" /><rect x="11.275" y="11.275" width="1.025" height="1.025" fill="#180b04" /><rect x="12.300" y="11.275" width="1.025" height="1.025" fill="#261308" /><rect x="13.325" y="11.275" width="1.025" height="1.025" fill="#31190b" /><rect x="14.350" y="11.275" width="1.025" height="1.025" fill="#2b1509" /><rect x="15.375" y="11.275" width="1.025" height="1.025" fill="#241309" /><rect x="16.400" y="11.275" width="1.025" height="1.025" fill="#0a0200" /><rect x="19.475" y="11.275" width="1.025" height="1.025" fill="#060501" /><rect x="20.500" y="11.275" width="1.025" height="1.025" fill="#0d0501" /><rect x="21.525" y="11.275" width="1.025" height="1.025" fill="#000000" /><rect x="22.550" y="11.275" width="1.025" height="1.025" fill="#030000" /><rect x="23.575" y="11.275" width="1.025" height="1.025" fill="#251208" /><rect x="24.600" y="11.275" width="1.025" height="1.025" fill="#241208" /><rect x="25.625" y="11.275" width="1.025" height="1.025" fill="#3c200e" /><rect x="26.650" y="11.275" width="1.025" height="1.025" fill="#040000" /><rect x="8.200" y="12.300" width="1.025" height="1.025" fill="#020100" /><rect x="9.225" y="12.300" width="1.025" height="1.025" fill="#27150a" /><rect x="10.250" y="12.300" width="1.025" height="1.025" fill="#371c0d" /><rect x="11.275" y="12.300" width="1.025" height="1.025" fill="#2f170b" /><rect x="12.300" y="12.300" width="1.025" height="1.025" fill="#30190a" /><rect x="13.325" y="12.300" width="1.025" height="1.025" fill="#251308" /><rect x="14.350" y="12.300" width="1.025" height="1.025" fill="#4f2c17" /><rect x="15.375" y="12.300" width="1.025" height="1.025" fill="#070101" /><rect x="20.500" y="12.300" width="1.025" height="1.025" fill="#000101" /><rect x="23.575" y="12.300" width="1.025" height="1.025" fill="#090301" /><rect x="24.600" y="12.300" width="1.025" height="1.025" fill="#0e0400" /><rect x="25.625" y="12.300" width="1.025" height="1.025" fill="#150904" /><rect x="26.650" y="12.300" width="1.025" height="1.025" fill="#130802" /><rect x="8.200" y="13.325" width="1.025" height="1.025" fill="#000000" /><rect x="9.225" y="13.325" width="1.025" height="1.025" fill="#2a160a" /><rect x="10.250" y="13.325" width="1.025" height="1.025" fill="#341a0c" /><rect x="11.275" y="13.325" width="1.025" height="1.025" fill="#1f0f06" /><rect x="12.300" y="13.325" width="1.025" height="1.025" fill="#2c170a" /><rect x="13.325" y="13.325" width="1.025" height="1.025" fill="#201008" /><rect x="14.350" y="13.325" width="1.025" height="1.025" fill="#3e2211" /><rect x="23.575" y="13.325" width="1.025" height="1.025" fill="#000000" /><rect x="24.600" y="13.325" width="1.025" height="1.025" fill="#010000" /><rect x="25.625" y="13.325" width="1.025" height="1.025" fill="#0e0601" /><rect x="26.650" y="13.325" width="1.025" height="1.025" fill="#0d0401" /><rect x="8.200" y="14.350" width="1.025" height="1.025" fill="#010000" /><rect x="9.225" y="14.350" width="1.025" height="1.025" fill="#271208" /><rect x="10.250" y="14.350" width="1.025" height="1.025" fill="#2c170b" /><rect x="11.275" y="14.350" width="1.025" height="1.025" fill="#1d0e06" /><rect x="12.300" y="14.350" width="1.025" height="1.025" fill="#261308" /><rect x="13.325" y="14.350" width="1.025" height="1.025" fill="#1d0d06" /><rect x="25.625" y="14.350" width="1.025" height="1.025" fill="#000000" /><rect x="8.200" y="15.375" width="1.025" height="1.025" fill="#000000" /><rect x="9.225" y="15.375" width="1.025" height="1.025" fill="#271309" /><rect x="10.250" y="15.375" width="1.025" height="1.025" fill="#2c180a" /><rect x="11.275" y="15.375" width="1.025" height="1.025" fill="#1b0b05" /><rect x="12.300" y="15.375" width="1.025" height="1.025" fill="#32190c" /><rect x="13.325" y="15.375" width="1.025" height="1.025" fill="#1a0a04" /><rect x="25.625" y="15.375" width="1.025" height="1.025" fill="#000000" /><rect x="8.200" y="16.400" width="1.025" height="1.025" fill="#000000" /><rect x="9.225" y="16.400" width="1.025" height="1.025" fill="#110902" /><rect x="10.250" y="16.400" width="1.025" height="1.025" fill="#210f07" /><rect x="11.275" y="16.400" width="1.025" height="1.025" fill="#1b0c05" /><rect x="12.300" y="16.400" width="1.025" height="1.025" fill="#2d160a" /><rect x="13.325" y="16.400" width="1.025" height="1.025" fill="#030000" /><rect x="25.625" y="16.400" width="1.025" height="1.025" fill="#000000" /><rect x="7.175" y="17.425" width="1.025" height="1.025" fill="#010000" /><rect x="8.200" y="17.425" width="1.025" height="1.025" fill="#0c0400" /><rect x="9.225" y="17.425" width="1.025" height="1.025" fill="#1a0b05" /><rect x="10.250" y="17.425" width="1.025" height="1.025" fill="#1f1007" /><rect x="11.275" y="17.425" width="1.025" height="1.025" fill="#341b0c" /><rect x="12.300" y="17.425" width="1.025" height="1.025" fill="#2c1709" /><rect x="25.625" y="17.425" width="1.025" height="1.025" fill="#020000" /><rect x="7.175" y="18.450" width="1.025" height="1.025" fill="#010000" /><rect x="8.200" y="18.450" width="1.025" height="1.025" fill="#1e0f06" /><rect x="9.225" y="18.450" width="1.025" height="1.025" fill="#1e0e06" /><rect x="10.250" y="18.450" width="1.025" height="1.025" fill="#1d0d07" /><rect x="11.275" y="18.450" width="1.025" height="1.025" fill="#351a0b" /><rect x="12.300" y="18.450" width="1.025" height="1.025" fill="#130803" /><rect x="25.625" y="18.450" width="1.025" height="1.025" fill="#000200" /><rect x="7.175" y="19.475" width="1.025" height="1.025" fill="#050000" /><rect x="8.200" y="19.475" width="1.025" height="1.025" fill="#210d04" /><rect x="9.225" y="19.475" width="1.025" height="1.025" fill="#231007" /><rect x="10.250" y="19.475" width="1.025" height="1.025" fill="#2b1609" /><rect x="11.275" y="19.475" width="1.025" height="1.025" fill="#261308" /><rect x="12.300" y="19.475" width="1.025" height="1.025" fill="#1b0e05" /><rect x="25.625" y="19.475" width="1.025" height="1.025" fill="#000000" /><rect x="8.200" y="20.500" width="1.025" height="1.025" fill="#1f0b05" /><rect x="9.225" y="20.500" width="1.025" height="1.025" fill="#1d0c05" /><rect x="10.250" y="20.500" width="1.025" height="1.025" fill="#281408" /><rect x="11.275" y="20.500" width="1.025" height="1.025" fill="#231107" /><rect x="12.300" y="20.500" width="1.025" height="1.025" fill="#1e0d03" /><rect x="25.625" y="20.500" width="1.025" height="1.025" fill="#020000" /><rect x="26.650" y="20.500" width="1.025" height="1.025" fill="#000000" /><rect x="8.200" y="21.525" width="1.025" height="1.025" fill="#270d06" /><rect x="9.225" y="21.525" width="1.025" height="1.025" fill="#110703" /><rect x="10.250" y="21.525" width="1.025" height="1.025" fill="#251209" /><rect x="11.275" y="21.525" width="1.025" height="1.025" fill="#271307" /><rect x="12.300" y="21.525" width="1.025" height="1.025" fill="#1b0e04" /><rect x="25.625" y="21.525" width="1.025" height="1.025" fill="#060100" /><rect x="26.650" y="21.525" width="1.025" height="1.025" fill="#000000" /><rect x="7.175" y="22.550" width="1.025" height="1.025" fill="#000002" /><rect x="8.200" y="22.550" width="1.025" height="1.025" fill="#1d0804" /><rect x="9.225" y="22.550" width="1.025" height="1.025" fill="#110702" /><rect x="10.250" y="22.550" width="1.025" height="1.025" fill="#231206" /><rect x="11.275" y="22.550" width="1.025" height="1.025" fill="#251206" /><rect x="12.300" y="22.550" width="1.025" height="1.025" fill="#1f0f05" /><rect x="25.625" y="22.550" width="1.025" height="1.025" fill="#070100" /><rect x="26.650" y="22.550" width="1.025" height="1.025" fill="#000000" /><rect x="7.175" y="23.575" width="1.025" height="1.025" fill="#010000" /><rect x="8.200" y="23.575" width="1.025" height="1.025" fill="#0d0000" /><rect x="9.225" y="23.575" width="1.025" height="1.025" fill="#120701" /><rect x="10.250" y="23.575" width="1.025" height="1.025" fill="#211007" /><rect x="11.275" y="23.575" width="1.025" height="1.025" fill="#1d0c04" /><rect x="12.300" y="23.575" width="1.025" height="1.025" fill="#1e0e05" /><rect x="24.600" y="23.575" width="1.025" height="1.025" fill="#000000" /><rect x="25.625" y="23.575" width="1.025" height="1.025" fill="#030000" /><rect x="26.650" y="23.575" width="1.025" height="1.025" fill="#020000" /><rect x="9.225" y="24.600" width="1.025" height="1.025" fill="#0d0400" /><rect x="10.250" y="24.600" width="1.025" height="1.025" fill="#1f1005" /><rect x="11.275" y="24.600" width="1.025" height="1.025" fill="#0e0701" /><rect x="12.300" y="24.600" width="1.025" height="1.025" fill="#190a05" /><rect x="23.575" y="24.600" width="1.025" height="1.025" fill="#090200" /><rect x="24.600" y="24.600" width="1.025" height="1.025" fill="#010000" /><rect x="26.650" y="24.600" width="1.025" height="1.025" fill="#010000" /><rect x="9.225" y="25.625" width="1.025" height="1.025" fill="#050000" /><rect x="10.250" y="25.625" width="1.025" height="1.025" fill="#090200" /><rect x="11.275" y="25.625" width="1.025" height="1.025" fill="#080201" /><rect x="12.300" y="25.625" width="1.025" height="1.025" fill="#1b0d04" /><rect x="13.325" y="25.625" width="1.025" height="1.025" fill="#331f10" /><rect x="19.475" y="25.625" width="1.025" height="1.025" fill="#040000" /><rect x="20.500" y="25.625" width="1.025" height="1.025" fill="#080000" /><rect x="21.525" y="25.625" width="1.025" height="1.025" fill="#020000" /><rect x="22.550" y="25.625" width="1.025" height="1.025" fill="#1d0e04" /><rect x="23.575" y="25.625" width="1.025" height="1.025" fill="#030100" /><rect x="9.225" y="26.650" width="1.025" height="1.025" fill="#000000" /><rect x="12.300" y="26.650" width="1.025" height="1.025" fill="#0c0402" /><rect x="13.325" y="26.650" width="1.025" height="1.025" fill="#110a05" /><rect x="19.475" y="26.650" width="1.025" height="1.025" fill="#040306" /><rect x="22.550" y="26.650" width="1.025" height="1.025" fill="#0e0000" /></svg>