<svg xmlns="http://www.w3.org/2000/svg" width="37.925" height="37.925" shape-rendering="crispEdges" style="image-rendering: pixelated;"><rect x="11.275" y="0.000" width="1.025" height="1.025" fill="#1b750c" fill-opacity="0.698" /><rect x="12.300" y="0.000" width="1.025" height="1.025" fill="#29a214" /><rect x="13.325" y="0.000" width="1.025" height="1.025" fill="#28a210" fill-opacity="0.239" /><rect x="14.350" y="0.000" width="1.025" height="1.025" fill="#198b28" fill-opacity="0.118" /><rect x="21.525" y="0.000" width="1.025" height="1.025" fill="#32cd11" /><rect x="22.550" y="0.000" width="1.025" height="1.025" fill="#279e41" /><rect x="12.300" y="1.025" width="1.025" height="1.025" fill="#2c9d19" /><rect x="13.325" y="1.025" width="1.025" height="1.025" fill="#38de16" /><rect x="14.350" y="1.025" width="1.025" height="1.025" fill="#176809" /><rect x="15.375" y="1.025" width="1.025" height="1.025" fill="#17a959" /><rect x="20.500" y="1.025" width="1.025" height="1.025" fill="#25aa0e" /><rect x="21.525" y="1.025" width="1.025" height="1.025" fill="#34d415" /><rect x="22.550" y="1.025" width="1.025" height="1.025" fill="#1c6f0b" /><rect x="28.700" y="1.025" width="1.025" height="1.025" fill="#197209" /><rect x="29.725" y="1.025" width="1.025" height="1.025" fill="#176809" /><rect x="12.300" y="2.050" width="1.025" height="1.025" fill="#176809" /><rect x="13.325" y="2.050" width="1.025" height="1.025" fill="#28be0e" /><rect x="14.350" y="2.050" width="1.025" height="1.025" fill="#2fcf12" /><rect x="15.375" y="2.050" width="1.025" height="1.025" fill="#2dca10" /><rect x="16.400" y="2.050" width="1.025" height="1.025" fill="#186909" /><rect x="17.425" y="2.050" width="1.025" height="1.025" fill="#22760f" /><rect x="19.475" y="2.050" width="1.025" height="1.025" fill="#1d890d" /><rect x="20.500" y="2.050" width="1.025" height="1.025" fill="#229d0d" /><rect x="21.525" y="2.050" width="1.025" height="1.025" fill="#2fcf11" /><rect x="22.550" y="2.050" width="1.025" height="1.025" fill="#21840d" /><rect x="26.650" y="2.050" width="1.025" height="1.025" fill="#188521" /><rect x="27.675" y="2.050" width="1.025" height="1.025" fill="#33ba21" /><rect x="28.700" y="2.050" width="1.025" height="1.025" fill="#26b210" /><rect x="12.300" y="3.075" width="1.025" height="1.025" fill="#176809" /><rect x="13.325" y="3.075" width="1.025" height="1.025" fill="#1ea10a" /><rect x="14.350" y="3.075" width="1.025" height="1.025" fill="#2ccf11" /><rect x="15.375" y="3.075" width="1.025" height="1.025" fill="#2ccc0f" /><rect x="16.400" y="3.075" width="1.025" height="1.025" fill="#32d115" /><rect x="17.425" y="3.075" width="1.025" height="1.025" fill="#25a40b" /><rect x="18.450" y="3.075" width="1.025" height="1.025" fill="#176809" /><rect x="19.475" y="3.075" width="1.025" height="1.025" fill="#21950c" /><rect x="20.500" y="3.075" width="1.025" height="1.025" fill="#29ba10" /><rect x="21.525" y="3.075" width="1.025" height="1.025" fill="#2dce11" /><rect x="22.550" y="3.075" width="1.025" height="1.025" fill="#2ab90f" /><rect x="23.575" y="3.075" width="1.025" height="1.025" fill="#1b7810" /><rect x="25.625" y="3.075" width="1.025" height="1.025" fill="#19e788" /><rect x="26.650" y="3.075" width="1.025" height="1.025" fill="#37cd15" /><rect x="27.675" y="3.075" width="1.025" height="1.025" fill="#2dc812" /><rect x="28.700" y="3.075" width="1.025" height="1.025" fill="#176809" /><rect x="13.325" y="4.100" width="1.025" height="1.025" fill="#176809" /><rect x="14.350" y="4.100" width="1.025" height="1.025" fill="#28b70e" /><rect x="15.375" y="4.100" width="1.025" height="1.025" fill="#2ccb0f" /><rect x="16.400" y="4.100" width="1.025" height="1.025" fill="#2bca0f" /><rect x="17.425" y="4.100" width="1.025" height="1.025" fill="#2dcc10" /><rect x="18.450" y="4.100" width="1.025" height="1.025" fill="#30cf13" /><rect x="19.475" y="4.100" width="1.025" height="1.025" fill="#176809" /><rect x="20.500" y="4.100" width="1.025" height="1.025" fill="#29b40f" /><rect x="21.525" y="4.100" width="1.025" height="1.025" fill="#2dce11" /><rect x="22.550" y="4.100" width="1.025" height="1.025" fill="#2dcc10" /><rect x="23.575" y="4.100" width="1.025" height="1.025" fill="#187d09" /><rect x="24.600" y="4.100" width="1.025" height="1.025" fill="#1b7b0b" /><rect x="25.625" y="4.100" width="1.025" height="1.025" fill="#33d111" /><rect x="26.650" y="4.100" width="1.025" height="1.025" fill="#2dc810" /><rect x="27.675" y="4.100" width="1.025" height="1.025" fill="#2cc710" /><rect x="28.700" y="4.100" width="1.025" height="1.025" fill="#176809" /><rect x="13.325" y="5.125" width="1.025" height="1.025" fill="#176809" /><rect x="14.350" y="5.125" width="1.025" height="1.025" fill="#25a80e" /><rect x="15.375" y="5.125" width="1.025" height="1.025" fill="#2bc80f" /><rect x="16.400" y="5.125" width="1.025" height="1.025" fill="#2aca0f" /><rect x="17.425" y="5.125" width="1.025" height="1.025" fill="#2ac90f" /><rect x="18.450" y="5.125" width="1.025" height="1.025" fill="#2dce11" /><rect x="19.475" y="5.125" width="1.025" height="1.025" fill="#27af0e" /><rect x="20.500" y="5.125" width="1.025" height="1.025" fill="#26b50d" /><rect x="21.525" y="5.125" width="1.025" height="1.025" fill="#2dcd10" /><rect x="22.550" y="5.125" width="1.025" height="1.025" fill="#2dcf11" /><rect x="23.575" y="5.125" width="1.025" height="1.025" fill="#31d314" /><rect x="24.600" y="5.125" width="1.025" height="1.025" fill="#26ba10" /><rect x="25.625" y="5.125" width="1.025" height="1.025" fill="#2ccc11" /><rect x="26.650" y="5.125" width="1.025" height="1.025" fill="#26b70c" /><rect x="27.675" y="5.125" width="1.025" height="1.025" fill="#176809" /><rect x="7.175" y="6.150" width="1.025" height="1.025" fill="#2d902d" /><rect x="8.200" y="6.150" width="1.025" height="1.025" fill="#176809" /><rect x="9.225" y="6.150" width="1.025" height="1.025" fill="#1e810f" /><rect x="10.250" y="6.150" width="1.025" height="1.025" fill="#20880f" fill-opacity="0.118" /><rect x="13.325" y="6.150" width="1.025" height="1.025" fill="#176809" /><rect x="14.350" y="6.150" width="1.025" height="1.025" fill="#25aa0e" /><rect x="15.375" y="6.150" width="1.025" height="1.025" fill="#26b40e" /><rect x="16.400" y="6.150" width="1.025" height="1.025" fill="#2ccd10" /><rect x="17.425" y="6.150" width="1.025" height="1.025" fill="#2dce11" /><rect x="18.450" y="6.150" width="1.025" height="1.025" fill="#2dce11" /><rect x="19.475" y="6.150" width="1.025" height="1.025" fill="#2ccd11" /><rect x="20.500" y="6.150" width="1.025" height="1.025" fill="#26b30e" /><rect x="21.525" y="6.150" width="1.025" height="1.025" fill="#2ccd10" /><rect x="22.550" y="6.150" width="1.025" height="1.025" fill="#2dcd11" /><rect x="23.575" y="6.150" width="1.025" height="1.025" fill="#2ecf11" /><rect x="24.600" y="6.150" width="1.025" height="1.025" fill="#2dce11" /><rect x="25.625" y="6.150" width="1.025" height="1.025" fill="#2cce12" /><rect x="26.650" y="6.150" width="1.025" height="1.025" fill="#2cca10" /><rect x="27.675" y="6.150" width="1.025" height="1.025" fill="#176809" /><rect x="8.200" y="7.175" width="1.025" height="1.025" fill="#1a6b0c" /><rect x="9.225" y="7.175" width="1.025" height="1.025" fill="#2dcd11" /><rect x="10.250" y="7.175" width="1.025" height="1.025" fill="#2bcf10" /><rect x="11.275" y="7.175" width="1.025" height="1.025" fill="#176809" /><rect x="12.300" y="7.175" width="1.025" height="1.025" fill="#176809" /><rect x="13.325" y="7.175" width="1.025" height="1.025" fill="#31cf15" /><rect x="14.350" y="7.175" width="1.025" height="1.025" fill="#2ed111" /><rect x="15.375" y="7.175" width="1.025" height="1.025" fill="#2dcd11" fill-opacity="0.486" /><rect x="16.400" y="7.175" width="1.025" height="1.025" fill="#2ac30e" fill-opacity="0.341" /><rect x="17.425" y="7.175" width="1.025" height="1.025" fill="#27be0e" fill-opacity="0.698" /><rect x="18.450" y="7.175" width="1.025" height="1.025" fill="#2ac40d" fill-opacity="0.239" /><rect x="19.475" y="7.175" width="1.025" height="1.025" fill="#2ac410" fill-opacity="0.486" /><rect x="20.500" y="7.175" width="1.025" height="1.025" fill="#29c70f" /><rect x="21.525" y="7.175" width="1.025" height="1.025" fill="#2bca0f" /><rect x="22.550" y="7.175" width="1.025" height="1.025" fill="#2dcf11" /><rect x="23.575" y="7.175" width="1.025" height="1.025" fill="#2cce10" /><rect x="24.600" y="7.175" width="1.025" height="1.025" fill="#2cce11" /><rect x="25.625" y="7.175" width="1.025" height="1.025" fill="#2ccf11" /><rect x="26.650" y="7.175" width="1.025" height="1.025" fill="#29bd10" /><rect x="27.675" y="7.175" width="1.025" height="1.025" fill="#176809" /><rect x="8.200" y="8.200" width="1.025" height="1.025" fill="#25bb4f" /><rect x="9.225" y="8.200" width="1.025" height="1.025" fill="#25aa10" /><rect x="10.250" y="8.200" width="1.025" height="1.025" fill="#2ac80e" /><rect x="11.275" y="8.200" width="1.025" height="1.025" fill="#2ccb10" /><rect x="12.300" y="8.200" width="1.025" height="1.025" fill="#2ccb0f" /><rect x="13.325" y="8.200" width="1.025" height="1.025" fill="#29c30d" /><rect x="20.500" y="8.200" width="1.025" height="1.025" fill="#5fd53b" fill-opacity="0.341" /><rect x="21.525" y="8.200" width="1.025" height="1.025" fill="#2cc711" /><rect x="22.550" y="8.200" width="1.025" height="1.025" fill="#2bcd0f" /><rect x="23.575" y="8.200" width="1.025" height="1.025" fill="#29ca0e" /><rect x="24.600" y="8.200" width="1.025" height="1.025" fill="#2dc80e" /><rect x="25.625" y="8.200" width="1.025" height="1.025" fill="#21b30a" /><rect x="26.650" y="8.200" width="1.025" height="1.025" fill="#2ac311" /><rect x="9.225" y="9.225" width="1.025" height="1.025" fill="#1e9b0c" /><rect x="10.250" y="9.225" width="1.025" height="1.025" fill="#25aa0f" /><rect x="11.275" y="9.225" width="1.025" height="1.025" fill="#2dcd10" /><rect x="12.300" y="9.225" width="1.025" height="1.025" fill="#29c20d" /><rect x="22.550" y="9.225" width="1.025" height="1.025" fill="#6bcb3c" fill-opacity="0.341" /><rect x="23.575" y="9.225" width="1.025" height="1.025" fill="#49ca27" /><rect x="24.600" y="9.225" width="1.025" height="1.025" fill="#71be3a" /><rect x="9.225" y="10.250" width="1.025" height="1.025" fill="#199721" /><rect x="10.250" y="10.250" width="1.025" height="1.025" fill="#1e8c0b" /><rect x="11.275" y="10.250" width="1.025" height="1.025" fill="#29b90f" /><rect x="12.300" y="10.250" width="1.025" height="1.025" fill="#29c30e" /><rect x="8.200" y="11.275" width="1.025" height="1.025" fill="#176b0e" /><rect x="9.225" y="11.275" width="1.025" height="1.025" fill="#196c09" /><rect x="10.250" y="11.275" width="1.025" height="1.025" fill="#2dc910" /><rect x="11.275" y="11.275" width="1.025" height="1.025" fill="#2dcc10" /><rect x="12.300" y="11.275" width="1.025" height="1.025" fill="#28c20e" /><rect x="5.125" y="12.300" width="1.025" height="1.025" fill="#176809" /><rect x="6.150" y="12.300" width="1.025" height="1.025" fill="#176809" /><rect x="7.175" y="12.300" width="1.025" height="1.025" fill="#1f920e" /><rect x="8.200" y="12.300" width="1.025" height="1.025" fill="#36d819" /><rect x="9.225" y="12.300" width="1.025" height="1.025" fill="#2ec70f" /><rect x="10.250" y="12.300" width="1.025" height="1.025" fill="#2dc80f" /><rect x="11.275" y="12.300" width="1.025" height="1.025" fill="#2dcf11" /><rect x="12.300" y="12.300" width="1.025" height="1.025" fill="#20950b" /><rect x="6.150" y="13.325" width="1.025" height="1.025" fill="#1c7015" /><rect x="7.175" y="13.325" width="1.025" height="1.025" fill="#176809" /><rect x="8.200" y="13.325" width="1.025" height="1.025" fill="#2aa90f" /><rect x="9.225" y="13.325" width="1.025" height="1.025" fill="#29b60c" /><rect x="10.250" y="13.325" width="1.025" height="1.025" fill="#27b00d" /><rect x="11.275" y="13.325" width="1.025" height="1.025" fill="#2f8812" /><rect x="8.200" y="14.350" width="1.025" height="1.025" fill="#176809" /><rect x="9.225" y="14.350" width="1.025" height="1.025" fill="#23910e" /><rect x="10.250" y="14.350" width="1.025" height="1.025" fill="#25b510" /><rect x="10.250" y="15.375" width="1.025" height="1.025" fill="#55ab43" /><rect x="9.225" y="16.400" width="1.025" height="1.025" fill="#176809" /><rect x="10.250" y="16.400" width="1.025" height="1.025" fill="#2dc309" /><rect x="9.225" y="17.425" width="1.025" height="1.025" fill="#22ac0c" /><rect x="10.250" y="17.425" width="1.025" height="1.025" fill="#2dc309" /><rect x="11.275" y="17.425" width="1.025" height="1.025" fill="#196809" /><rect x="7.175" y="18.450" width="1.025" height="1.025" fill="#177819" /><rect x="8.200" y="18.450" width="1.025" height="1.025" fill="#197814" /><rect x="9.225" y="18.450" width="1.025" height="1.025" fill="#176809" /><rect x="10.250" y="18.450" width="1.025" height="1.025" fill="#359330" /><rect x="11.275" y="18.450" width="1.025" height="1.025" fill="#196809" /><rect x="12.300" y="18.450" width="1.025" height="1.025" fill="#359330" /><rect x="11.275" y="19.475" width="1.025" height="1.025" fill="#29b50d" /><rect x="12.300" y="19.475" width="1.025" height="1.025" fill="#176809" /><rect x="10.250" y="20.500" width="1.025" height="1.025" fill="#176809" /><rect x="11.275" y="20.500" width="1.025" height="1.025" fill="#176c09" /><rect x="10.250" y="21.525" width="1.025" height="1.025" fill="#176809" /><rect x="10.250" y="22.550" width="1.025" height="1.025" fill="#17a146" /></svg>