<svg xmlns="http://www.w3.org/2000/svg" width="37.925" height="37.925" shape-rendering="crispEdges" style="image-rendering: pixelated;"><rect x="12.300" y="27.675" width="1.025" height="1.025" fill="#32546b" /><rect x="19.475" y="27.675" width="1.025" height="1.025" fill="#223a49" /><rect x="20.500" y="27.675" width="1.025" height="1.025" fill="#223a49" /><rect x="8.200" y="28.700" width="1.025" height="1.025" fill="#ffffff" /><rect x="11.275" y="28.700" width="1.025" height="1.025" fill="#305065" /><rect x="12.300" y="28.700" width="1.025" height="1.025" fill="#65a9d8" /><rect x="13.325" y="28.700" width="1.025" height="1.025" fill="#7bcbff" /><rect x="14.350" y="28.700" width="1.025" height="1.025" fill="#568eb4" /><rect x="18.450" y="28.700" width="1.025" height="1.025" fill="#1f3340" /><rect x="19.475" y="28.700" width="1.025" height="1.025" fill="#84cdff" /><rect x="20.500" y="28.700" width="1.025" height="1.025" fill="#84cdff" /><rect x="21.525" y="28.700" width="1.025" height="1.025" fill="#223a49" /><rect x="9.225" y="29.725" width="1.025" height="1.025" fill="#284556" /><rect x="10.250" y="29.725" width="1.025" height="1.025" fill="#1e3441" /><rect x="11.275" y="29.725" width="1.025" height="1.025" fill="#699ec0" /><rect x="12.300" y="29.725" width="1.025" height="1.025" fill="#ffffff" /><rect x="13.325" y="29.725" width="1.025" height="1.025" fill="#84cdff" /><rect x="14.350" y="29.725" width="1.025" height="1.025" fill="#223a49" /><rect x="15.375" y="29.725" width="1.025" height="1.025" fill="#223a49" /><rect x="18.450" y="29.725" width="1.025" height="1.025" fill="#84cdff" /><rect x="19.475" y="29.725" width="1.025" height="1.025" fill="#35586f" /><rect x="20.500" y="29.725" width="1.025" height="1.025" fill="#84cdff" /><rect x="21.525" y="29.725" width="1.025" height="1.025" fill="#7c92a2" /><rect x="22.550" y="29.725" width="1.025" height="1.025" fill="#1e323f" /><rect x="23.575" y="29.725" width="1.025" height="1.025" fill="#223a49" /><rect x="24.600" y="29.725" width="1.025" height="1.025" fill="#ffffff" /><rect x="7.175" y="30.750" width="1.025" height="1.025" fill="#ffffff" /><rect x="8.200" y="30.750" width="1.025" height="1.025" fill="#ffffff" /><rect x="9.225" y="30.750" width="1.025" height="1.025" fill="#6fb8e9" /><rect x="10.250" y="30.750" width="1.025" height="1.025" fill="#6fb9eb" /><rect x="11.275" y="30.750" width="1.025" height="1.025" fill="#67acdb" /><rect x="12.300" y="30.750" width="1.025" height="1.025" fill="#ffffff" /><rect x="13.325" y="30.750" width="1.025" height="1.025" fill="#4d606d" /><rect x="14.350" y="30.750" width="1.025" height="1.025" fill="#84cdff" /><rect x="15.375" y="30.750" width="1.025" height="1.025" fill="#609fc8" /><rect x="16.400" y="30.750" width="1.025" height="1.025" fill="#000000" fill-opacity="0.200" /><rect x="18.450" y="30.750" width="1.025" height="1.025" fill="#223a49" /><rect x="19.475" y="30.750" width="1.025" height="1.025" fill="#76c4fb" /><rect x="20.500" y="30.750" width="1.025" height="1.025" fill="#35586f" /><rect x="21.525" y="30.750" width="1.025" height="1.025" fill="#d4edfb" /><rect x="22.550" y="30.750" width="1.025" height="1.025" fill="#6ab1e1" /><rect x="23.575" y="30.750" width="1.025" height="1.025" fill="#61a3cf" /><rect x="24.600" y="30.750" width="1.025" height="1.025" fill="#cfe3f1" /><rect x="9.225" y="31.775" width="1.025" height="1.025" fill="#223a49" /><rect x="10.250" y="31.775" width="1.025" height="1.025" fill="#7bcbff" /><rect x="11.275" y="31.775" width="1.025" height="1.025" fill="#80ccff" /><rect x="12.300" y="31.775" width="1.025" height="1.025" fill="#80ccff" /><rect x="13.325" y="31.775" width="1.025" height="1.025" fill="#7bcbff" /><rect x="14.350" y="31.775" width="1.025" height="1.025" fill="#7bcbff" /><rect x="15.375" y="31.775" width="1.025" height="1.025" fill="#5081a2" /><rect x="16.400" y="31.775" width="1.025" height="1.025" fill="#000000" fill-opacity="0.200" /><rect x="18.450" y="31.775" width="1.025" height="1.025" fill="#ffed00" /><rect x="19.475" y="31.775" width="1.025" height="1.025" fill="#91d2ff" /><rect x="20.500" y="31.775" width="1.025" height="1.025" fill="#84cdff" /><rect x="21.525" y="31.775" width="1.025" height="1.025" fill="#84cdff" /><rect x="22.550" y="31.775" width="1.025" height="1.025" fill="#74c3f8" /><rect x="23.575" y="31.775" width="1.025" height="1.025" fill="#9acef1" /><rect x="9.225" y="32.800" width="1.025" height="1.025" fill="#ffffff" /><rect x="10.250" y="32.800" width="1.025" height="1.025" fill="#a6dbff" /><rect x="11.275" y="32.800" width="1.025" height="1.025" fill="#71bff2" /><rect x="12.300" y="32.800" width="1.025" height="1.025" fill="#a6dbff" /><rect x="13.325" y="32.800" width="1.025" height="1.025" fill="#a9dcff" /><rect x="14.350" y="32.800" width="1.025" height="1.025" fill="#84cdff" /><rect x="15.375" y="32.800" width="1.025" height="1.025" fill="#66a1c8" /><rect x="16.400" y="32.800" width="1.025" height="1.025" fill="#000000" fill-opacity="0.200" /><rect x="18.450" y="32.800" width="1.025" height="1.025" fill="#77c7fe" /><rect x="19.475" y="32.800" width="1.025" height="1.025" fill="#84cdff" /><rect x="20.500" y="32.800" width="1.025" height="1.025" fill="#84cdff" /><rect x="21.525" y="32.800" width="1.025" height="1.025" fill="#84cdff" /><rect x="22.550" y="32.800" width="1.025" height="1.025" fill="#77c7fe" /><rect x="23.575" y="32.800" width="1.025" height="1.025" fill="#ffffff" /><rect x="24.600" y="32.800" width="1.025" height="1.025" fill="#000000" fill-opacity="0.200" /><rect x="8.200" y="33.825" width="1.025" height="1.025" fill="#ffffff" /><rect x="10.250" y="33.825" width="1.025" height="1.025" fill="#cfe3f1" /><rect x="11.275" y="33.825" width="1.025" height="1.025" fill="#62a4d0" /><rect x="12.300" y="33.825" width="1.025" height="1.025" fill="#35586f" /><rect x="13.325" y="33.825" width="1.025" height="1.025" fill="#35586f" /><rect x="14.350" y="33.825" width="1.025" height="1.025" fill="#223a49" /><rect x="15.375" y="33.825" width="1.025" height="1.025" fill="#2f4f64" /><rect x="16.400" y="33.825" width="1.025" height="1.025" fill="#000000" fill-opacity="0.200" /><rect x="18.450" y="33.825" width="1.025" height="1.025" fill="#76c6fd" /><rect x="19.475" y="33.825" width="1.025" height="1.025" fill="#35586f" /><rect x="20.500" y="33.825" width="1.025" height="1.025" fill="#223a49" /><rect x="21.525" y="33.825" width="1.025" height="1.025" fill="#35586f" /><rect x="22.550" y="33.825" width="1.025" height="1.025" fill="#223a49" /><rect x="23.575" y="33.825" width="1.025" height="1.025" fill="#b4d5ec" /><rect x="24.600" y="33.825" width="1.025" height="1.025" fill="#ffffff" fill-opacity="0.302" /><rect x="10.250" y="34.850" width="1.025" height="1.025" fill="#ffffff" /><rect x="11.275" y="34.850" width="1.025" height="1.025" fill="#3d6781" /><rect x="12.300" y="34.850" width="1.025" height="1.025" fill="#74c3f8" /><rect x="13.325" y="34.850" width="1.025" height="1.025" fill="#ffed00" /><rect x="14.350" y="34.850" width="1.025" height="1.025" fill="#76c4fb" /><rect x="15.375" y="34.850" width="1.025" height="1.025" fill="#6da4c8" /><rect x="16.400" y="34.850" width="1.025" height="1.025" fill="#000000" fill-opacity="0.200" /><rect x="18.450" y="34.850" width="1.025" height="1.025" fill="#ffed00" /><rect x="19.475" y="34.850" width="1.025" height="1.025" fill="#223a49" /><rect x="20.500" y="34.850" width="1.025" height="1.025" fill="#77c7fe" /><rect x="21.525" y="34.850" width="1.025" height="1.025" fill="#ffed00" /><rect x="22.550" y="34.850" width="1.025" height="1.025" fill="#84cdff" /><rect x="23.575" y="34.850" width="1.025" height="1.025" fill="#48789a" /><rect x="24.600" y="34.850" width="1.025" height="1.025" fill="#ffffff" /><rect x="9.225" y="35.875" width="1.025" height="1.025" fill="#ffffff" /><rect x="10.250" y="35.875" width="1.025" height="1.025" fill="#223a49" /><rect x="11.275" y="35.875" width="1.025" height="1.025" fill="#62717a" /><rect x="12.300" y="35.875" width="1.025" height="1.025" fill="#538ab0" /><rect x="13.325" y="35.875" width="1.025" height="1.025" fill="#3d6781" /><rect x="14.350" y="35.875" width="1.025" height="1.025" fill="#3d6781" /><rect x="15.375" y="35.875" width="1.025" height="1.025" fill="#4b7ea1" /><rect x="16.400" y="35.875" width="1.025" height="1.025" fill="#000000" fill-opacity="0.200" /><rect x="18.450" y="35.875" width="1.025" height="1.025" fill="#5f9fca" /><rect x="19.475" y="35.875" width="1.025" height="1.025" fill="#5188ae" /><rect x="20.500" y="35.875" width="1.025" height="1.025" fill="#ffffff" /><rect x="21.525" y="35.875" width="1.025" height="1.025" fill="#223a49" /><rect x="22.550" y="35.875" width="1.025" height="1.025" fill="#5188ae" /><rect x="23.575" y="35.875" width="1.025" height="1.025" fill="#223a49" /><rect x="25.625" y="35.875" width="1.025" height="1.025" fill="#000000" fill-opacity="0.200" /><rect x="10.250" y="36.900" width="1.025" height="1.025" fill="#ffffff" /><rect x="11.275" y="36.900" width="1.025" height="1.025" fill="#203544" /><rect x="12.300" y="36.900" width="1.025" height="1.025" fill="#35586f" /><rect x="13.325" y="36.900" width="1.025" height="1.025" fill="#49799b" /><rect x="14.350" y="36.900" width="1.025" height="1.025" fill="#497c9e" /><rect x="15.375" y="36.900" width="1.025" height="1.025" fill="#538ab0" /><rect x="16.400" y="36.900" width="1.025" height="1.025" fill="#000000" fill-opacity="0.200" /><rect x="18.450" y="36.900" width="1.025" height="1.025" fill="#ffed00" /><rect x="19.475" y="36.900" width="1.025" height="1.025" fill="#5188ae" /><rect x="20.500" y="36.900" width="1.025" height="1.025" fill="#ffffff" /><rect x="21.525" y="36.900" width="1.025" height="1.025" fill="#77c7fe" /><rect x="22.550" y="36.900" width="1.025" height="1.025" fill="#538ab0" /><rect x="23.575" y="36.900" width="1.025" height="1.025" fill="#274253" /><rect x="24.600" y="36.900" width="1.025" height="1.025" fill="#ffffff" /><rect x="25.625" y="36.900" width="1.025" height="1.025" fill="#000000" fill-opacity="0.200" /></svg>