<svg xmlns="http://www.w3.org/2000/svg" width="37.925" height="37.925" shape-rendering="crispEdges" style="image-rendering: pixelated;"><rect x="12.300" y="27.675" width="1.025" height="1.025" fill="#465c00" /><rect x="19.475" y="27.675" width="1.025" height="1.025" fill="#2f3e00" /><rect x="20.500" y="27.675" width="1.025" height="1.025" fill="#2f3e00" /><rect x="11.275" y="28.700" width="1.025" height="1.025" fill="#415600" /><rect x="12.300" y="28.700" width="1.025" height="1.025" fill="#8dba00" /><rect x="13.325" y="28.700" width="1.025" height="1.025" fill="#536e00" /><rect x="14.350" y="28.700" width="1.025" height="1.025" fill="#3b4e00" /><rect x="15.375" y="28.700" width="1.025" height="1.025" fill="#465c00" /><rect x="16.400" y="28.700" width="1.025" height="1.025" fill="#2f3e00" /><rect x="18.450" y="28.700" width="1.025" height="1.025" fill="#141a00" /><rect x="19.475" y="28.700" width="1.025" height="1.025" fill="#ade400" /><rect x="20.500" y="28.700" width="1.025" height="1.025" fill="#ade400" /><rect x="21.525" y="28.700" width="1.025" height="1.025" fill="#171e00" /><rect x="9.225" y="29.725" width="1.025" height="1.025" fill="#1b2400" /><rect x="10.250" y="29.725" width="1.025" height="1.025" fill="#141a00" /><rect x="11.275" y="29.725" width="1.025" height="1.025" fill="#79a000" /><rect x="12.300" y="29.725" width="1.025" height="1.025" fill="#2f3e00" /><rect x="13.325" y="29.725" width="1.025" height="1.025" fill="#567200" /><rect x="14.350" y="29.725" width="1.025" height="1.025" fill="#171e00" /><rect x="15.375" y="29.725" width="1.025" height="1.025" fill="#2f3e00" /><rect x="16.400" y="29.725" width="1.025" height="1.025" fill="#a8de00" /><rect x="17.425" y="29.725" width="1.025" height="1.025" fill="#263200" /><rect x="18.450" y="29.725" width="1.025" height="1.025" fill="#567200" /><rect x="19.475" y="29.725" width="1.025" height="1.025" fill="#496000" /><rect x="20.500" y="29.725" width="1.025" height="1.025" fill="#ade400" /><rect x="21.525" y="29.725" width="1.025" height="1.025" fill="#243000" /><rect x="22.550" y="29.725" width="1.025" height="1.025" fill="#141a00" /><rect x="23.575" y="29.725" width="1.025" height="1.025" fill="#2f3e00" /><rect x="7.175" y="30.750" width="1.025" height="1.025" fill="#1e2800" /><rect x="8.200" y="30.750" width="1.025" height="1.025" fill="#1a2200" /><rect x="9.225" y="30.750" width="1.025" height="1.025" fill="#000000" /><rect x="10.250" y="30.750" width="1.025" height="1.025" fill="#000000" /><rect x="11.275" y="30.750" width="1.025" height="1.025" fill="#475e00" /><rect x="12.300" y="30.750" width="1.025" height="1.025" fill="#475e00" /><rect x="13.325" y="30.750" width="1.025" height="1.025" fill="#000000" /><rect x="14.350" y="30.750" width="1.025" height="1.025" fill="#000000" /><rect x="15.375" y="30.750" width="1.025" height="1.025" fill="#536e00" /><rect x="16.400" y="30.750" width="1.025" height="1.025" fill="#536e00" /><rect x="17.425" y="30.750" width="1.025" height="1.025" fill="#ade400" /><rect x="18.450" y="30.750" width="1.025" height="1.025" fill="#d0ff3f" /><rect x="19.475" y="30.750" width="1.025" height="1.025" fill="#526c00" /><rect x="20.500" y="30.750" width="1.025" height="1.025" fill="#243000" /><rect x="21.525" y="30.750" width="1.025" height="1.025" fill="#000000" /><rect x="22.550" y="30.750" width="1.025" height="1.025" fill="#000000" /><rect x="23.575" y="30.750" width="1.025" height="1.025" fill="#435800" /><rect x="24.600" y="30.750" width="1.025" height="1.025" fill="#151c00" /><rect x="25.625" y="30.750" width="1.025" height="1.025" fill="#000000" /><rect x="6.150" y="31.775" width="1.025" height="1.025" fill="#000000" /><rect x="7.175" y="31.775" width="1.025" height="1.025" fill="#2d3c00" /><rect x="8.200" y="31.775" width="1.025" height="1.025" fill="#506a00" /><rect x="9.225" y="31.775" width="1.025" height="1.025" fill="#000000" /><rect x="10.250" y="31.775" width="1.025" height="1.025" fill="#000000" /><rect x="11.275" y="31.775" width="1.025" height="1.025" fill="#557000" /><rect x="12.300" y="31.775" width="1.025" height="1.025" fill="#557000" /><rect x="13.325" y="31.775" width="1.025" height="1.025" fill="#000000" /><rect x="14.350" y="31.775" width="1.025" height="1.025" fill="#000000" /><rect x="15.375" y="31.775" width="1.025" height="1.025" fill="#557000" /><rect x="16.400" y="31.775" width="1.025" height="1.025" fill="#ade400" /><rect x="17.425" y="31.775" width="1.025" height="1.025" fill="#526c00" /><rect x="18.450" y="31.775" width="1.025" height="1.025" fill="#a8de00" /><rect x="19.475" y="31.775" width="1.025" height="1.025" fill="#e8ff9f" /><rect x="20.500" y="31.775" width="1.025" height="1.025" fill="#567200" /><rect x="21.525" y="31.775" width="1.025" height="1.025" fill="#000000" /><rect x="22.550" y="31.775" width="1.025" height="1.025" fill="#000000" /><rect x="23.575" y="31.775" width="1.025" height="1.025" fill="#4c6400" /><rect x="24.600" y="31.775" width="1.025" height="1.025" fill="#567200" /><rect x="25.625" y="31.775" width="1.025" height="1.025" fill="#000000" /><rect x="26.650" y="31.775" width="1.025" height="1.025" fill="#000000" /><rect x="5.125" y="32.800" width="1.025" height="1.025" fill="#1a2200" /><rect x="6.150" y="32.800" width="1.025" height="1.025" fill="#465c00" /><rect x="7.175" y="32.800" width="1.025" height="1.025" fill="#87b200" /><rect x="8.200" y="32.800" width="1.025" height="1.025" fill="#9fd200" /><rect x="9.225" y="32.800" width="1.025" height="1.025" fill="#567200" /><rect x="10.250" y="32.800" width="1.025" height="1.025" fill="#557000" /><rect x="11.275" y="32.800" width="1.025" height="1.025" fill="#9dd000" /><rect x="12.300" y="32.800" width="1.025" height="1.025" fill="#aae000" /><rect x="13.325" y="32.800" width="1.025" height="1.025" fill="#567200" /><rect x="14.350" y="32.800" width="1.025" height="1.025" fill="#567200" /><rect x="15.375" y="32.800" width="1.025" height="1.025" fill="#ade400" /><rect x="16.400" y="32.800" width="1.025" height="1.025" fill="#242424" /><rect x="17.425" y="32.800" width="1.025" height="1.025" fill="#dcff6f" /><rect x="18.450" y="32.800" width="1.025" height="1.025" fill="#252525" /><rect x="19.475" y="32.800" width="1.025" height="1.025" fill="#dcff6f" /><rect x="20.500" y="32.800" width="1.025" height="1.025" fill="#ade400" /><rect x="21.525" y="32.800" width="1.025" height="1.025" fill="#567200" /><rect x="22.550" y="32.800" width="1.025" height="1.025" fill="#536e00" /><rect x="23.575" y="32.800" width="1.025" height="1.025" fill="#a0d400" /><rect x="24.600" y="32.800" width="1.025" height="1.025" fill="#9acc00" /><rect x="25.625" y="32.800" width="1.025" height="1.025" fill="#567200" /><rect x="26.650" y="32.800" width="1.025" height="1.025" fill="#496000" /><rect x="27.675" y="32.800" width="1.025" height="1.025" fill="#2f3e00" /><rect x="5.125" y="33.825" width="1.025" height="1.025" fill="#1e2800" /><rect x="6.150" y="33.825" width="1.025" height="1.025" fill="#475e00" /><rect x="7.175" y="33.825" width="1.025" height="1.025" fill="#7ea600" /><rect x="8.200" y="33.825" width="1.025" height="1.025" fill="#a3d800" /><rect x="9.225" y="33.825" width="1.025" height="1.025" fill="#465c00" /><rect x="10.250" y="33.825" width="1.025" height="1.025" fill="#273400" /><rect x="11.275" y="33.825" width="1.025" height="1.025" fill="#88b400" /><rect x="12.300" y="33.825" width="1.025" height="1.025" fill="#aae000" /><rect x="13.325" y="33.825" width="1.025" height="1.025" fill="#587400" /><rect x="14.350" y="33.825" width="1.025" height="1.025" fill="#567200" /><rect x="15.375" y="33.825" width="1.025" height="1.025" fill="#ade400" /><rect x="16.400" y="33.825" width="1.025" height="1.025" fill="#232323" /><rect x="17.425" y="33.825" width="1.025" height="1.025" fill="#242424" /><rect x="18.450" y="33.825" width="1.025" height="1.025" fill="#212121" /><rect x="19.475" y="33.825" width="1.025" height="1.025" fill="#737373" /><rect x="20.500" y="33.825" width="1.025" height="1.025" fill="#dcff6f" /><rect x="21.525" y="33.825" width="1.025" height="1.025" fill="#567200" /><rect x="22.550" y="33.825" width="1.025" height="1.025" fill="#567200" /><rect x="23.575" y="33.825" width="1.025" height="1.025" fill="#8dba00" /><rect x="24.600" y="33.825" width="1.025" height="1.025" fill="#496000" /><rect x="25.625" y="33.825" width="1.025" height="1.025" fill="#567200" /><rect x="26.650" y="33.825" width="1.025" height="1.025" fill="#496000" /><rect x="27.675" y="33.825" width="1.025" height="1.025" fill="#293600" /><rect x="5.125" y="34.850" width="1.025" height="1.025" fill="#000000" /><rect x="6.150" y="34.850" width="1.025" height="1.025" fill="#000000" /><rect x="7.175" y="34.850" width="1.025" height="1.025" fill="#3e5200" /><rect x="8.200" y="34.850" width="1.025" height="1.025" fill="#526c00" /><rect x="9.225" y="34.850" width="1.025" height="1.025" fill="#000000" /><rect x="10.250" y="34.850" width="1.025" height="1.025" fill="#000000" /><rect x="11.275" y="34.850" width="1.025" height="1.025" fill="#293600" /><rect x="12.300" y="34.850" width="1.025" height="1.025" fill="#506a00" /><rect x="13.325" y="34.850" width="1.025" height="1.025" fill="#000000" /><rect x="14.350" y="34.850" width="1.025" height="1.025" fill="#000000" /><rect x="15.375" y="34.850" width="1.025" height="1.025" fill="#d8d8d8" /><rect x="16.400" y="34.850" width="1.025" height="1.025" fill="#e7e7e7" /><rect x="17.425" y="34.850" width="1.025" height="1.025" fill="#ffffff" /><rect x="18.450" y="34.850" width="1.025" height="1.025" fill="#fcfcfc" /><rect x="19.475" y="34.850" width="1.025" height="1.025" fill="#fbfbfb" /><rect x="20.500" y="34.850" width="1.025" height="1.025" fill="#e8ff9f" /><rect x="21.525" y="34.850" width="1.025" height="1.025" fill="#000000" /><rect x="22.550" y="34.850" width="1.025" height="1.025" fill="#000000" /><rect x="23.575" y="34.850" width="1.025" height="1.025" fill="#304000" /><rect x="24.600" y="34.850" width="1.025" height="1.025" fill="#000000" /><rect x="25.625" y="34.850" width="1.025" height="1.025" fill="#000000" /><rect x="26.650" y="34.850" width="1.025" height="1.025" fill="#000000" /><rect x="27.675" y="34.850" width="1.025" height="1.025" fill="#232e00" /><rect x="5.125" y="35.875" width="1.025" height="1.025" fill="#000000" /><rect x="6.150" y="35.875" width="1.025" height="1.025" fill="#000000" /><rect x="7.175" y="35.875" width="1.025" height="1.025" fill="#3e5200" /><rect x="8.200" y="35.875" width="1.025" height="1.025" fill="#526c00" /><rect x="9.225" y="35.875" width="1.025" height="1.025" fill="#000000" /><rect x="10.250" y="35.875" width="1.025" height="1.025" fill="#000000" /><rect x="11.275" y="35.875" width="1.025" height="1.025" fill="#141a00" /><rect x="12.300" y="35.875" width="1.025" height="1.025" fill="#3a4c00" /><rect x="13.325" y="35.875" width="1.025" height="1.025" fill="#000000" /><rect x="14.350" y="35.875" width="1.025" height="1.025" fill="#000000" /><rect x="15.375" y="35.875" width="1.025" height="1.025" fill="#f0f0f0" /><rect x="16.400" y="35.875" width="1.025" height="1.025" fill="#f7f7f7" /><rect x="17.425" y="35.875" width="1.025" height="1.025" fill="#b3b3b3" /><rect x="18.450" y="35.875" width="1.025" height="1.025" fill="#cbcbcb" /><rect x="19.475" y="35.875" width="1.025" height="1.025" fill="#797979" /><rect x="20.500" y="35.875" width="1.025" height="1.025" fill="#e8ff9f" /><rect x="21.525" y="35.875" width="1.025" height="1.025" fill="#000000" /><rect x="22.550" y="35.875" width="1.025" height="1.025" fill="#000000" /><rect x="23.575" y="35.875" width="1.025" height="1.025" fill="#243000" /><rect x="24.600" y="35.875" width="1.025" height="1.025" fill="#060800" /><rect x="25.625" y="35.875" width="1.025" height="1.025" fill="#000000" /><rect x="26.650" y="35.875" width="1.025" height="1.025" fill="#000000" /><rect x="27.675" y="35.875" width="1.025" height="1.025" fill="#1a2200" /><rect x="5.125" y="36.900" width="1.025" height="1.025" fill="#212c00" /><rect x="6.150" y="36.900" width="1.025" height="1.025" fill="#435800" /><rect x="7.175" y="36.900" width="1.025" height="1.025" fill="#7ea600" /><rect x="8.200" y="36.900" width="1.025" height="1.025" fill="#a0d400" /><rect x="9.225" y="36.900" width="1.025" height="1.025" fill="#2d3c00" /><rect x="10.250" y="36.900" width="1.025" height="1.025" fill="#000000" /><rect x="11.275" y="36.900" width="1.025" height="1.025" fill="#2d3c00" /><rect x="12.300" y="36.900" width="1.025" height="1.025" fill="#496000" /><rect x="13.325" y="36.900" width="1.025" height="1.025" fill="#324200" /><rect x="14.350" y="36.900" width="1.025" height="1.025" fill="#c7c7c7" /><rect x="15.375" y="36.900" width="1.025" height="1.025" fill="#161616" /><rect x="16.400" y="36.900" width="1.025" height="1.025" fill="#939393" /><rect x="17.425" y="36.900" width="1.025" height="1.025" fill="#ffffff" /><rect x="18.450" y="36.900" width="1.025" height="1.025" fill="#3e3e3e" /><rect x="19.475" y="36.900" width="1.025" height="1.025" fill="#f7f7f7" /><rect x="20.500" y="36.900" width="1.025" height="1.025" fill="#2d2d2d" /><rect x="21.525" y="36.900" width="1.025" height="1.025" fill="#deff77" /><rect x="22.550" y="36.900" width="1.025" height="1.025" fill="#3a4c00" /><rect x="23.575" y="36.900" width="1.025" height="1.025" fill="#364800" /><rect x="24.600" y="36.900" width="1.025" height="1.025" fill="#000000" /><rect x="25.625" y="36.900" width="1.025" height="1.025" fill="#445a00" /><rect x="26.650" y="36.900" width="1.025" height="1.025" fill="#3e5200" /><rect x="27.675" y="36.900" width="1.025" height="1.025" fill="#000000" /></svg>