<svg xmlns="http://www.w3.org/2000/svg" width="37.925" height="37.925" shape-rendering="crispEdges" style="image-rendering: pixelated;"><rect x="15.375" y="1.025" width="1.025" height="1.025" fill="#000000" /><rect x="16.400" y="1.025" width="1.025" height="1.025" fill="#040000" /><rect x="15.375" y="2.050" width="1.025" height="1.025" fill="#050000" /><rect x="16.400" y="2.050" width="1.025" height="1.025" fill="#090203" /><rect x="17.425" y="2.050" width="1.025" height="1.025" fill="#180703" /><rect x="21.525" y="2.050" width="1.025" height="1.025" fill="#000000" /><rect x="22.550" y="2.050" width="1.025" height="1.025" fill="#090301" /><rect x="11.275" y="3.075" width="1.025" height="1.025" fill="#000000" /><rect x="12.300" y="3.075" width="1.025" height="1.025" fill="#010000" /><rect x="16.400" y="3.075" width="1.025" height="1.025" fill="#0d0301" /><rect x="17.425" y="3.075" width="1.025" height="1.025" fill="#241207" /><rect x="18.450" y="3.075" width="1.025" height="1.025" fill="#231106" /><rect x="21.525" y="3.075" width="1.025" height="1.025" fill="#010000" /><rect x="22.550" y="3.075" width="1.025" height="1.025" fill="#2b160b" /><rect x="23.575" y="3.075" width="1.025" height="1.025" fill="#311d10" /><rect x="24.600" y="3.075" width="1.025" height="1.025" fill="#080000" /><rect x="13.325" y="4.100" width="1.025" height="1.025" fill="#190b03" /><rect x="14.350" y="4.100" width="1.025" height="1.025" fill="#120802" /><rect x="15.375" y="4.100" width="1.025" height="1.025" fill="#0e0300" /><rect x="16.400" y="4.100" width="1.025" height="1.025" fill="#422311" /><rect x="17.425" y="4.100" width="1.025" height="1.025" fill="#2b1608" /><rect x="18.450" y="4.100" width="1.025" height="1.025" fill="#35180c" /><rect x="19.475" y="4.100" width="1.025" height="1.025" fill="#170901" /><rect x="20.500" y="4.100" width="1.025" height="1.025" fill="#0d0401" /><rect x="21.525" y="4.100" width="1.025" height="1.025" fill="#1e0d07" /><rect x="22.550" y="4.100" width="1.025" height="1.025" fill="#382010" /><rect x="23.575" y="4.100" width="1.025" height="1.025" fill="#482c19" /><rect x="24.600" y="4.100" width="1.025" height="1.025" fill="#000000" /><rect x="12.300" y="5.125" width="1.025" height="1.025" fill="#000000" /><rect x="13.325" y="5.125" width="1.025" height="1.025" fill="#221008" /><rect x="14.350" y="5.125" width="1.025" height="1.025" fill="#241207" /><rect x="15.375" y="5.125" width="1.025" height="1.025" fill="#1f0e06" /><rect x="16.400" y="5.125" width="1.025" height="1.025" fill="#3e200d" /><rect x="17.425" y="5.125" width="1.025" height="1.025" fill="#432210" /><rect x="18.450" y="5.125" width="1.025" height="1.025" fill="#2e180a" /><rect x="19.475" y="5.125" width="1.025" height="1.025" fill="#34190c" /><rect x="20.500" y="5.125" width="1.025" height="1.025" fill="#261109" /><rect x="21.525" y="5.125" width="1.025" height="1.025" fill="#251407" /><rect x="22.550" y="5.125" width="1.025" height="1.025" fill="#3d2415" /><rect x="23.575" y="5.125" width="1.025" height="1.025" fill="#352112" /><rect x="24.600" y="5.125" width="1.025" height="1.025" fill="#000000" /><rect x="11.275" y="6.150" width="1.025" height="1.025" fill="#010000" /><rect x="12.300" y="6.150" width="1.025" height="1.025" fill="#1e1108" /><rect x="13.325" y="6.150" width="1.025" height="1.025" fill="#3c1f0d" /><rect x="14.350" y="6.150" width="1.025" height="1.025" fill="#1f0f05" /><rect x="15.375" y="6.150" width="1.025" height="1.025" fill="#1b0c06" /><rect x="16.400" y="6.150" width="1.025" height="1.025" fill="#2c160a" /><rect x="17.425" y="6.150" width="1.025" height="1.025" fill="#220f06" /><rect x="18.450" y="6.150" width="1.025" height="1.025" fill="#261308" /><rect x="19.475" y="6.150" width="1.025" height="1.025" fill="#231207" /><rect x="20.500" y="6.150" width="1.025" height="1.025" fill="#211108" /><rect x="21.525" y="6.150" width="1.025" height="1.025" fill="#2b1709" /><rect x="22.550" y="6.150" width="1.025" height="1.025" fill="#362011" /><rect x="23.575" y="6.150" width="1.025" height="1.025" fill="#412919" /><rect x="24.600" y="6.150" width="1.025" height="1.025" fill="#000000" /><rect x="11.275" y="7.175" width="1.025" height="1.025" fill="#291203" /><rect x="12.300" y="7.175" width="1.025" height="1.025" fill="#3a1f0e" /><rect x="13.325" y="7.175" width="1.025" height="1.025" fill="#482915" /><rect x="14.350" y="7.175" width="1.025" height="1.025" fill="#3f2513" /><rect x="15.375" y="7.175" width="1.025" height="1.025" fill="#351c0c" /><rect x="16.400" y="7.175" width="1.025" height="1.025" fill="#241308" /><rect x="17.425" y="7.175" width="1.025" height="1.025" fill="#1c0e08" /><rect x="18.450" y="7.175" width="1.025" height="1.025" fill="#291509" /><rect x="19.475" y="7.175" width="1.025" height="1.025" fill="#331b0b" /><rect x="20.500" y="7.175" width="1.025" height="1.025" fill="#341b0b" /><rect x="21.525" y="7.175" width="1.025" height="1.025" fill="#271409" /><rect x="22.550" y="7.175" width="1.025" height="1.025" fill="#2f1a0d" /><rect x="23.575" y="7.175" width="1.025" height="1.025" fill="#4d301c" /><rect x="24.600" y="7.175" width="1.025" height="1.025" fill="#231208" /><rect x="25.625" y="7.175" width="1.025" height="1.025" fill="#000000" /><rect x="10.250" y="8.200" width="1.025" height="1.025" fill="#110803" /><rect x="11.275" y="8.200" width="1.025" height="1.025" fill="#231006" /><rect x="12.300" y="8.200" width="1.025" height="1.025" fill="#211009" /><rect x="13.325" y="8.200" width="1.025" height="1.025" fill="#4a301d" /><rect x="14.350" y="8.200" width="1.025" height="1.025" fill="#312112" /><rect x="15.375" y="8.200" width="1.025" height="1.025" fill="#614127" /><rect x="19.475" y="8.200" width="1.025" height="1.025" fill="#000000" /><rect x="20.500" y="8.200" width="1.025" height="1.025" fill="#050300" /><rect x="21.525" y="8.200" width="1.025" height="1.025" fill="#261309" /><rect x="22.550" y="8.200" width="1.025" height="1.025" fill="#241209" /><rect x="23.575" y="8.200" width="1.025" height="1.025" fill="#1b0f06" /><rect x="24.600" y="8.200" width="1.025" height="1.025" fill="#0b0301" /><rect x="25.625" y="8.200" width="1.025" height="1.025" fill="#050100" /><rect x="26.650" y="8.200" width="1.025" height="1.025" fill="#040000" /><rect x="9.225" y="9.225" width="1.025" height="1.025" fill="#000000" /><rect x="10.250" y="9.225" width="1.025" height="1.025" fill="#190b04" /><rect x="11.275" y="9.225" width="1.025" height="1.025" fill="#30190b" /><rect x="12.300" y="9.225" width="1.025" height="1.025" fill="#341e11" /><rect x="13.325" y="9.225" width="1.025" height="1.025" fill="#5b3c26" /><rect x="14.350" y="9.225" width="1.025" height="1.025" fill="#5b3e25" /><rect x="15.375" y="9.225" width="1.025" height="1.025" fill="#533924" /><rect x="21.525" y="9.225" width="1.025" height="1.025" fill="#010000" /><rect x="22.550" y="9.225" width="1.025" height="1.025" fill="#000000" /><rect x="25.625" y="9.225" width="1.025" height="1.025" fill="#000001" /><rect x="10.250" y="10.250" width="1.025" height="1.025" fill="#030001" /><rect x="11.275" y="10.250" width="1.025" height="1.025" fill="#1d0e04" /><rect x="12.300" y="10.250" width="1.025" height="1.025" fill="#341e0f" /><rect x="13.325" y="10.250" width="1.025" height="1.025" fill="#614026" /><rect x="14.350" y="10.250" width="1.025" height="1.025" fill="#442f1c" /><rect x="15.375" y="10.250" width="1.025" height="1.025" fill="#44301d" /><rect x="10.250" y="11.275" width="1.025" height="1.025" fill="#000000" /><rect x="11.275" y="11.275" width="1.025" height="1.025" fill="#251207" /><rect x="12.300" y="11.275" width="1.025" height="1.025" fill="#2c180c" /><rect x="13.325" y="11.275" width="1.025" height="1.025" fill="#3a2315" /><rect x="14.350" y="11.275" width="1.025" height="1.025" fill="#46301d" /><rect x="15.375" y="11.275" width="1.025" height="1.025" fill="#160a07" /><rect x="10.250" y="12.300" width="1.025" height="1.025" fill="#020100" /><rect x="11.275" y="12.300" width="1.025" height="1.025" fill="#28150a" /><rect x="12.300" y="12.300" width="1.025" height="1.025" fill="#2f1b0f" /><rect x="13.325" y="12.300" width="1.025" height="1.025" fill="#372315" /><rect x="14.350" y="12.300" width="1.025" height="1.025" fill="#3f2a1a" /><rect x="10.250" y="13.325" width="1.025" height="1.025" fill="#040101" /><rect x="11.275" y="13.325" width="1.025" height="1.025" fill="#110902" /><rect x="12.300" y="13.325" width="1.025" height="1.025" fill="#160b04" /><rect x="13.325" y="13.325" width="1.025" height="1.025" fill="#312114" /><rect x="14.350" y="13.325" width="1.025" height="1.025" fill="#312316" /><rect x="10.250" y="14.350" width="1.025" height="1.025" fill="#050200" /><rect x="11.275" y="14.350" width="1.025" height="1.025" fill="#090200" /><rect x="12.300" y="14.350" width="1.025" height="1.025" fill="#030100" /><rect x="13.325" y="14.350" width="1.025" height="1.025" fill="#2b1d10" /><rect x="14.350" y="14.350" width="1.025" height="1.025" fill="#2a1e12" /><rect x="10.250" y="15.375" width="1.025" height="1.025" fill="#0a0202" /><rect x="14.350" y="15.375" width="1.025" height="1.025" fill="#281a10" /><rect x="10.250" y="16.400" width="1.025" height="1.025" fill="#070300" /><rect x="10.250" y="17.425" width="1.025" height="1.025" fill="#010000" /><rect x="11.275" y="17.425" width="1.025" height="1.025" fill="#17110a" /><rect x="11.275" y="18.450" width="1.025" height="1.025" fill="#150c03" /><rect x="12.300" y="18.450" width="1.025" height="1.025" fill="#030000" /><rect x="13.325" y="18.450" width="1.025" height="1.025" fill="#030000" /><rect x="10.250" y="19.475" width="1.025" height="1.025" fill="#050000" /><rect x="11.275" y="19.475" width="1.025" height="1.025" fill="#31180b" /><rect x="12.300" y="19.475" width="1.025" height="1.025" fill="#110701" /><rect x="13.325" y="19.475" width="1.025" height="1.025" fill="#170a03" /><rect x="11.275" y="20.500" width="1.025" height="1.025" fill="#230f06" /><rect x="12.300" y="20.500" width="1.025" height="1.025" fill="#261307" /><rect x="13.325" y="20.500" width="1.025" height="1.025" fill="#020000" /><rect x="9.225" y="21.525" width="1.025" height="1.025" fill="#030000" /><rect x="10.250" y="21.525" width="1.025" height="1.025" fill="#1e0e06" /><rect x="11.275" y="21.525" width="1.025" height="1.025" fill="#120704" /><rect x="12.300" y="21.525" width="1.025" height="1.025" fill="#281308" /><rect x="13.325" y="21.525" width="1.025" height="1.025" fill="#000000" /><rect x="10.250" y="22.550" width="1.025" height="1.025" fill="#220f07" /><rect x="11.275" y="22.550" width="1.025" height="1.025" fill="#110701" /><rect x="12.300" y="22.550" width="1.025" height="1.025" fill="#1a0c04" /><rect x="13.325" y="22.550" width="1.025" height="1.025" fill="#000000" /><rect x="10.250" y="23.575" width="1.025" height="1.025" fill="#200809" /><rect x="11.275" y="23.575" width="1.025" height="1.025" fill="#1d0100" /><rect x="12.300" y="23.575" width="1.025" height="1.025" fill="#170a03" /><rect x="13.325" y="23.575" width="1.025" height="1.025" fill="#000100" /><rect x="11.275" y="24.600" width="1.025" height="1.025" fill="#040302" /><rect x="12.300" y="24.600" width="1.025" height="1.025" fill="#231006" /><rect x="13.325" y="24.600" width="1.025" height="1.025" fill="#010000" /><rect x="12.300" y="25.625" width="1.025" height="1.025" fill="#0f0000" /><rect x="13.325" y="25.625" width="1.025" height="1.025" fill="#010000" /><rect x="13.325" y="26.650" width="1.025" height="1.025" fill="#030000" /></svg>