<svg xmlns="http://www.w3.org/2000/svg" width="37.925" height="37.925" shape-rendering="crispEdges" style="image-rendering: pixelated;"><rect x="18.450" y="0.000" width="1.025" height="1.025" fill="#1a8a05" /><rect x="12.300" y="1.025" width="1.025" height="1.025" fill="#1a9506" /><rect x="13.325" y="1.025" width="1.025" height="1.025" fill="#0a9206" /><rect x="14.350" y="1.025" width="1.025" height="1.025" fill="#0ab04d" /><rect x="18.450" y="1.025" width="1.025" height="1.025" fill="#1d8d02" /><rect x="19.475" y="1.025" width="1.025" height="1.025" fill="#1d8d02" /><rect x="22.550" y="1.025" width="1.025" height="1.025" fill="#1d8a05" /><rect x="13.325" y="2.050" width="1.025" height="1.025" fill="#0ae533" /><rect x="14.350" y="2.050" width="1.025" height="1.025" fill="#21f300" /><rect x="15.375" y="2.050" width="1.025" height="1.025" fill="#1cf000" /><rect x="16.400" y="2.050" width="1.025" height="1.025" fill="#0a8f2b" /><rect x="18.450" y="2.050" width="1.025" height="1.025" fill="#1cc40b" /><rect x="19.475" y="2.050" width="1.025" height="1.025" fill="#1fba00" /><rect x="20.500" y="2.050" width="1.025" height="1.025" fill="#1a9104" /><rect x="22.550" y="2.050" width="1.025" height="1.025" fill="#1ac809" /><rect x="25.625" y="2.050" width="1.025" height="1.025" fill="#1a9307" /><rect x="14.350" y="3.075" width="1.025" height="1.025" fill="#1a8a05" /><rect x="15.375" y="3.075" width="1.025" height="1.025" fill="#1fe800" /><rect x="16.400" y="3.075" width="1.025" height="1.025" fill="#0a981a" /><rect x="17.425" y="3.075" width="1.025" height="1.025" fill="#1d8d02" /><rect x="18.450" y="3.075" width="1.025" height="1.025" fill="#1cf300" /><rect x="19.475" y="3.075" width="1.025" height="1.025" fill="#18ef00" /><rect x="20.500" y="3.075" width="1.025" height="1.025" fill="#20ba00" /><rect x="21.525" y="3.075" width="1.025" height="1.025" fill="#1a9301" /><rect x="22.550" y="3.075" width="1.025" height="1.025" fill="#20f10f" /><rect x="23.575" y="3.075" width="1.025" height="1.025" fill="#19b30f" /><rect x="24.600" y="3.075" width="1.025" height="1.025" fill="#0eb600" /><rect x="25.625" y="3.075" width="1.025" height="1.025" fill="#1ba700" /><rect x="12.300" y="4.100" width="1.025" height="1.025" fill="#17ab00" /><rect x="13.325" y="4.100" width="1.025" height="1.025" fill="#1d8d02" /><rect x="14.350" y="4.100" width="1.025" height="1.025" fill="#1feb00" /><rect x="15.375" y="4.100" width="1.025" height="1.025" fill="#1ee300" /><rect x="16.400" y="4.100" width="1.025" height="1.025" fill="#19d000" /><rect x="17.425" y="4.100" width="1.025" height="1.025" fill="#18e800" /><rect x="18.450" y="4.100" width="1.025" height="1.025" fill="#1ce500" /><rect x="19.475" y="4.100" width="1.025" height="1.025" fill="#1bea00" /><rect x="20.500" y="4.100" width="1.025" height="1.025" fill="#17f700" /><rect x="21.525" y="4.100" width="1.025" height="1.025" fill="#14eb00" /><rect x="22.550" y="4.100" width="1.025" height="1.025" fill="#16f500" /><rect x="23.575" y="4.100" width="1.025" height="1.025" fill="#21f90f" /><rect x="24.600" y="4.100" width="1.025" height="1.025" fill="#116507" /><rect x="9.225" y="5.125" width="1.025" height="1.025" fill="#1c9300" /><rect x="10.250" y="5.125" width="1.025" height="1.025" fill="#26f70e" /><rect x="11.275" y="5.125" width="1.025" height="1.025" fill="#27e700" /><rect x="12.300" y="5.125" width="1.025" height="1.025" fill="#1cd500" /><rect x="13.325" y="5.125" width="1.025" height="1.025" fill="#20e900" /><rect x="14.350" y="5.125" width="1.025" height="1.025" fill="#1fd900" /><rect x="15.375" y="5.125" width="1.025" height="1.025" fill="#1fda00" /><rect x="16.400" y="5.125" width="1.025" height="1.025" fill="#1de700" /><rect x="17.425" y="5.125" width="1.025" height="1.025" fill="#1de200" /><rect x="18.450" y="5.125" width="1.025" height="1.025" fill="#1bdf00" /><rect x="19.475" y="5.125" width="1.025" height="1.025" fill="#1bd500" /><rect x="20.500" y="5.125" width="1.025" height="1.025" fill="#1aed00" /><rect x="21.525" y="5.125" width="1.025" height="1.025" fill="#19eb00" /><rect x="22.550" y="5.125" width="1.025" height="1.025" fill="#1def00" /><rect x="23.575" y="5.125" width="1.025" height="1.025" fill="#16ed00" /><rect x="24.600" y="5.125" width="1.025" height="1.025" fill="#1b9500" /><rect x="10.250" y="6.150" width="1.025" height="1.025" fill="#1d8d02" /><rect x="11.275" y="6.150" width="1.025" height="1.025" fill="#1fd900" /><rect x="12.300" y="6.150" width="1.025" height="1.025" fill="#26e500" /><rect x="13.325" y="6.150" width="1.025" height="1.025" fill="#25e300" /><rect x="14.350" y="6.150" width="1.025" height="1.025" fill="#1bc700" /><rect x="15.375" y="6.150" width="1.025" height="1.025" fill="#24de00" /><rect x="16.400" y="6.150" width="1.025" height="1.025" fill="#1cd800" /><rect x="17.425" y="6.150" width="1.025" height="1.025" fill="#1fec00" /><rect x="18.450" y="6.150" width="1.025" height="1.025" fill="#3fff17" /><rect x="19.475" y="6.150" width="1.025" height="1.025" fill="#2dfe00" /><rect x="20.500" y="6.150" width="1.025" height="1.025" fill="#1aca00" /><rect x="21.525" y="6.150" width="1.025" height="1.025" fill="#17ce00" /><rect x="22.550" y="6.150" width="1.025" height="1.025" fill="#1af000" /><rect x="23.575" y="6.150" width="1.025" height="1.025" fill="#1dee00" /><rect x="24.600" y="6.150" width="1.025" height="1.025" fill="#22d000" /><rect x="25.625" y="6.150" width="1.025" height="1.025" fill="#0af14d" /><rect x="11.275" y="7.175" width="1.025" height="1.025" fill="#1a9000" /><rect x="12.300" y="7.175" width="1.025" height="1.025" fill="#22cf00" /><rect x="13.325" y="7.175" width="1.025" height="1.025" fill="#1bc000" /><rect x="14.350" y="7.175" width="1.025" height="1.025" fill="#1fd900" /><rect x="15.375" y="7.175" width="1.025" height="1.025" fill="#23e500" /><rect x="16.400" y="7.175" width="1.025" height="1.025" fill="#b6ff35" /><rect x="17.425" y="7.175" width="1.025" height="1.025" fill="#1fec00" fill-opacity="0.698" /><rect x="18.450" y="7.175" width="1.025" height="1.025" fill="#3fff17" fill-opacity="0.239" /><rect x="19.475" y="7.175" width="1.025" height="1.025" fill="#2dfe00" fill-opacity="0.698" /><rect x="20.500" y="7.175" width="1.025" height="1.025" fill="#1aca00" fill-opacity="0.169" /><rect x="21.525" y="7.175" width="1.025" height="1.025" fill="#17ce00" fill-opacity="0.698" /><rect x="22.550" y="7.175" width="1.025" height="1.025" fill="#2a7200" /><rect x="23.575" y="7.175" width="1.025" height="1.025" fill="#18e800" /><rect x="24.600" y="7.175" width="1.025" height="1.025" fill="#19e200" /><rect x="25.625" y="7.175" width="1.025" height="1.025" fill="#14c600" /><rect x="26.650" y="7.175" width="1.025" height="1.025" fill="#218a00" /><rect x="10.250" y="8.200" width="1.025" height="1.025" fill="#1a9000" /><rect x="11.275" y="8.200" width="1.025" height="1.025" fill="#26ea00" /><rect x="12.300" y="8.200" width="1.025" height="1.025" fill="#1dde00" /><rect x="13.325" y="8.200" width="1.025" height="1.025" fill="#20d500" /><rect x="14.350" y="8.200" width="1.025" height="1.025" fill="#20e500" /><rect x="15.375" y="8.200" width="1.025" height="1.025" fill="#1cb200" /><rect x="23.575" y="8.200" width="1.025" height="1.025" fill="#17b100" /><rect x="24.600" y="8.200" width="1.025" height="1.025" fill="#1cce00" /><rect x="25.625" y="8.200" width="1.025" height="1.025" fill="#19e600" /><rect x="26.650" y="8.200" width="1.025" height="1.025" fill="#18e100" /><rect x="27.675" y="8.200" width="1.025" height="1.025" fill="#0ac404" /><rect x="8.200" y="9.225" width="1.025" height="1.025" fill="#1a9b16" /><rect x="10.250" y="9.225" width="1.025" height="1.025" fill="#178f00" /><rect x="11.275" y="9.225" width="1.025" height="1.025" fill="#1bc800" /><rect x="12.300" y="9.225" width="1.025" height="1.025" fill="#1bcd00" /><rect x="13.325" y="9.225" width="1.025" height="1.025" fill="#74003f" /><rect x="14.350" y="9.225" width="1.025" height="1.025" fill="#766000" /><rect x="15.375" y="9.225" width="1.025" height="1.025" fill="#3a8900" /><rect x="23.575" y="9.225" width="1.025" height="1.025" fill="#0e9600" /><rect x="24.600" y="9.225" width="1.025" height="1.025" fill="#18d500" /><rect x="25.625" y="9.225" width="1.025" height="1.025" fill="#18e300" /><rect x="26.650" y="9.225" width="1.025" height="1.025" fill="#15eb00" /><rect x="27.675" y="9.225" width="1.025" height="1.025" fill="#24f717" /><rect x="8.200" y="10.250" width="1.025" height="1.025" fill="#1a9000" /><rect x="9.225" y="10.250" width="1.025" height="1.025" fill="#2dff1c" /><rect x="10.250" y="10.250" width="1.025" height="1.025" fill="#10ae00" /><rect x="11.275" y="10.250" width="1.025" height="1.025" fill="#bc007e" /><rect x="12.300" y="10.250" width="1.025" height="1.025" fill="#00b106" /><rect x="13.325" y="10.250" width="1.025" height="1.025" fill="#bb008b" /><rect x="14.350" y="10.250" width="1.025" height="1.025" fill="#9a006e" /><rect x="15.375" y="10.250" width="1.025" height="1.025" fill="#0ee800" /><rect x="24.600" y="10.250" width="1.025" height="1.025" fill="#035e00" /><rect x="25.625" y="10.250" width="1.025" height="1.025" fill="#12a800" /><rect x="26.650" y="10.250" width="1.025" height="1.025" fill="#10e300" /><rect x="27.675" y="10.250" width="1.025" height="1.025" fill="#0fb300" /><rect x="8.200" y="11.275" width="1.025" height="1.025" fill="#208e00" /><rect x="9.225" y="11.275" width="1.025" height="1.025" fill="#22fa00" /><rect x="10.250" y="11.275" width="1.025" height="1.025" fill="#7c0068" /><rect x="11.275" y="11.275" width="1.025" height="1.025" fill="#a2007c" /><rect x="12.300" y="11.275" width="1.025" height="1.025" fill="#ac0080" /><rect x="13.325" y="11.275" width="1.025" height="1.025" fill="#c60095" /><rect x="14.350" y="11.275" width="1.025" height="1.025" fill="#ae007b" fill-opacity="0.486" /><rect x="15.375" y="11.275" width="1.025" height="1.025" fill="#ffe5a9" /><rect x="26.650" y="11.275" width="1.025" height="1.025" fill="#09b100" /><rect x="27.675" y="11.275" width="1.025" height="1.025" fill="#1d8d02" /><rect x="8.200" y="12.300" width="1.025" height="1.025" fill="#10ab00" /><rect x="9.225" y="12.300" width="1.025" height="1.025" fill="#21cf00" /><rect x="10.250" y="12.300" width="1.025" height="1.025" fill="#a60081" /><rect x="11.275" y="12.300" width="1.025" height="1.025" fill="#c00094" /><rect x="12.300" y="12.300" width="1.025" height="1.025" fill="#c4008d" /><rect x="13.325" y="12.300" width="1.025" height="1.025" fill="#cb008e" /><rect x="14.350" y="12.300" width="1.025" height="1.025" fill="#c30083" /><rect x="7.175" y="13.325" width="1.025" height="1.025" fill="#1d8d02" /><rect x="8.200" y="13.325" width="1.025" height="1.025" fill="#249900" /><rect x="9.225" y="13.325" width="1.025" height="1.025" fill="#32ff0c" /><rect x="10.250" y="13.325" width="1.025" height="1.025" fill="#850465" /><rect x="11.275" y="13.325" width="1.025" height="1.025" fill="#a2007c" /><rect x="14.350" y="13.325" width="1.025" height="1.025" fill="#b80076" fill-opacity="0.698" /><rect x="7.175" y="14.350" width="1.025" height="1.025" fill="#1aa300" /><rect x="8.200" y="14.350" width="1.025" height="1.025" fill="#1a9005" /><rect x="9.225" y="14.350" width="1.025" height="1.025" fill="#a0006b" /><rect x="10.250" y="14.350" width="1.025" height="1.025" fill="#0c0c0c" /><rect x="7.175" y="15.375" width="1.025" height="1.025" fill="#0a6f00" /><rect x="9.225" y="15.375" width="1.025" height="1.025" fill="#811277" /><rect x="10.250" y="15.375" width="1.025" height="1.025" fill="#3d002a" /><rect x="9.225" y="16.400" width="1.025" height="1.025" fill="#c400b0" /><rect x="10.250" y="16.400" width="1.025" height="1.025" fill="#d500b0" /><rect x="9.225" y="17.425" width="1.025" height="1.025" fill="#a2007e" /><rect x="10.250" y="17.425" width="1.025" height="1.025" fill="#d900a8" /><rect x="11.275" y="17.425" width="1.025" height="1.025" fill="#a8007b" /><rect x="9.225" y="18.450" width="1.025" height="1.025" fill="#a80088" /><rect x="10.250" y="18.450" width="1.025" height="1.025" fill="#b2008c" /><rect x="11.275" y="18.450" width="1.025" height="1.025" fill="#bd0098" /><rect x="12.300" y="18.450" width="1.025" height="1.025" fill="#ae007a" /><rect x="8.200" y="19.475" width="1.025" height="1.025" fill="#a70280" /><rect x="9.225" y="19.475" width="1.025" height="1.025" fill="#d200b1" /><rect x="10.250" y="19.475" width="1.025" height="1.025" fill="#930073" /><rect x="11.275" y="19.475" width="1.025" height="1.025" fill="#cd00a3" /><rect x="12.300" y="19.475" width="1.025" height="1.025" fill="#d8009b" /><rect x="8.200" y="20.500" width="1.025" height="1.025" fill="#a70280" /><rect x="11.275" y="20.500" width="1.025" height="1.025" fill="#b00082" /><rect x="12.300" y="20.500" width="1.025" height="1.025" fill="#c0008e" /><rect x="12.300" y="21.525" width="1.025" height="1.025" fill="#a7007c" /><rect x="12.300" y="22.550" width="1.025" height="1.025" fill="#bd0095" /><rect x="11.275" y="23.575" width="1.025" height="1.025" fill="#970073" /><rect x="12.300" y="23.575" width="1.025" height="1.025" fill="#bd0091" /><rect x="11.275" y="24.600" width="1.025" height="1.025" fill="#aa007d" /><rect x="12.300" y="24.600" width="1.025" height="1.025" fill="#c300a5" /><rect x="12.300" y="25.625" width="1.025" height="1.025" fill="#5e074a" /></svg>