<svg xmlns="http://www.w3.org/2000/svg" width="37.925" height="37.925" shape-rendering="crispEdges" style="image-rendering: pixelated;"><rect x="12.300" y="27.675" width="1.025" height="1.025" fill="#000000" fill-opacity="0.573" /><rect x="11.275" y="28.700" width="1.025" height="1.025" fill="#c2c2c2" /><rect x="12.300" y="28.700" width="1.025" height="1.025" fill="#b2b2b2" /><rect x="13.325" y="28.700" width="1.025" height="1.025" fill="#161616" fill-opacity="0.016" /><rect x="19.475" y="28.700" width="1.025" height="1.025" fill="#b4b4b4" /><rect x="20.500" y="28.700" width="1.025" height="1.025" fill="#b4b4b4" /><rect x="21.525" y="28.700" width="1.025" height="1.025" fill="#ababab" /><rect x="9.225" y="29.725" width="1.025" height="1.025" fill="#000000" /><rect x="10.250" y="29.725" width="1.025" height="1.025" fill="#ababab" /><rect x="11.275" y="29.725" width="1.025" height="1.025" fill="#e2e2e2" /><rect x="12.300" y="29.725" width="1.025" height="1.025" fill="#e2e2e2" /><rect x="13.325" y="29.725" width="1.025" height="1.025" fill="#b2b2b2" /><rect x="20.500" y="29.725" width="1.025" height="1.025" fill="#b2b2b2" /><rect x="21.525" y="29.725" width="1.025" height="1.025" fill="#f4f4f4" /><rect x="22.550" y="29.725" width="1.025" height="1.025" fill="#ababab" /><rect x="23.575" y="29.725" width="1.025" height="1.025" fill="#000000" /><rect x="7.175" y="30.750" width="1.025" height="1.025" fill="#000000" /><rect x="8.200" y="30.750" width="1.025" height="1.025" fill="#000000" /><rect x="9.225" y="30.750" width="1.025" height="1.025" fill="#1f1f1f" /><rect x="10.250" y="30.750" width="1.025" height="1.025" fill="#212121" /><rect x="11.275" y="30.750" width="1.025" height="1.025" fill="#ababab" /><rect x="12.300" y="30.750" width="1.025" height="1.025" fill="#efefef" /><rect x="13.325" y="30.750" width="1.025" height="1.025" fill="#efefef" /><rect x="14.350" y="30.750" width="1.025" height="1.025" fill="#b2b2b2" /><rect x="20.500" y="30.750" width="1.025" height="1.025" fill="#b2b2b2" /><rect x="21.525" y="30.750" width="1.025" height="1.025" fill="#f4f4f4" /><rect x="22.550" y="30.750" width="1.025" height="1.025" fill="#ababab" /><rect x="23.575" y="30.750" width="1.025" height="1.025" fill="#1f1f1f" /><rect x="24.600" y="30.750" width="1.025" height="1.025" fill="#000000" fill-opacity="0.835" /><rect x="25.625" y="30.750" width="1.025" height="1.025" fill="#000000" fill-opacity="0.478" /><rect x="6.150" y="31.775" width="1.025" height="1.025" fill="#000000" /><rect x="7.175" y="31.775" width="1.025" height="1.025" fill="#000000" /><rect x="8.200" y="31.775" width="1.025" height="1.025" fill="#1d1d1d" /><rect x="9.225" y="31.775" width="1.025" height="1.025" fill="#232323" /><rect x="10.250" y="31.775" width="1.025" height="1.025" fill="#232323" /><rect x="11.275" y="31.775" width="1.025" height="1.025" fill="#ababab" /><rect x="12.300" y="31.775" width="1.025" height="1.025" fill="#f6f6f6" /><rect x="13.325" y="31.775" width="1.025" height="1.025" fill="#f7f7f7" /><rect x="14.350" y="31.775" width="1.025" height="1.025" fill="#b2b2b2" /><rect x="15.375" y="31.775" width="1.025" height="1.025" fill="#252525" fill-opacity="0.008" /><rect x="19.475" y="31.775" width="1.025" height="1.025" fill="#272727" fill-opacity="0.137" /><rect x="20.500" y="31.775" width="1.025" height="1.025" fill="#b2b2b2" /><rect x="21.525" y="31.775" width="1.025" height="1.025" fill="#f7f7f7" /><rect x="22.550" y="31.775" width="1.025" height="1.025" fill="#ababab" /><rect x="23.575" y="31.775" width="1.025" height="1.025" fill="#232323" /><rect x="24.600" y="31.775" width="1.025" height="1.025" fill="#242424" fill-opacity="0.761" /><rect x="25.625" y="31.775" width="1.025" height="1.025" fill="#1f1f1f" fill-opacity="0.141" /><rect x="26.650" y="31.775" width="1.025" height="1.025" fill="#000000" fill-opacity="0.145" /><rect x="5.125" y="32.800" width="1.025" height="1.025" fill="#000000" /><rect x="6.150" y="32.800" width="1.025" height="1.025" fill="#131313" fill-opacity="0.647" /><rect x="7.175" y="32.800" width="1.025" height="1.025" fill="#121212" fill-opacity="0.600" /><rect x="8.200" y="32.800" width="1.025" height="1.025" fill="#1a1a1a" /><rect x="9.225" y="32.800" width="1.025" height="1.025" fill="#212121" /><rect x="10.250" y="32.800" width="1.025" height="1.025" fill="#212121" /><rect x="11.275" y="32.800" width="1.025" height="1.025" fill="#ababab" /><rect x="12.300" y="32.800" width="1.025" height="1.025" fill="#f7f7f7" /><rect x="13.325" y="32.800" width="1.025" height="1.025" fill="#f7f7f7" /><rect x="14.350" y="32.800" width="1.025" height="1.025" fill="#f7f7f7" /><rect x="15.375" y="32.800" width="1.025" height="1.025" fill="#b2b2b2" /><rect x="16.400" y="32.800" width="1.025" height="1.025" fill="#242424" fill-opacity="0.004" /><rect x="18.450" y="32.800" width="1.025" height="1.025" fill="#252525" fill-opacity="0.243" /><rect x="19.475" y="32.800" width="1.025" height="1.025" fill="#b2b2b2" /><rect x="20.500" y="32.800" width="1.025" height="1.025" fill="#f7f7f7" /><rect x="21.525" y="32.800" width="1.025" height="1.025" fill="#f7f7f7" /><rect x="22.550" y="32.800" width="1.025" height="1.025" fill="#f5f5f5" /><rect x="23.575" y="32.800" width="1.025" height="1.025" fill="#ababab" /><rect x="24.600" y="32.800" width="1.025" height="1.025" fill="#1f1f1f" /><rect x="25.625" y="32.800" width="1.025" height="1.025" fill="#232323" /><rect x="26.650" y="32.800" width="1.025" height="1.025" fill="#1a1a1a" /><rect x="27.675" y="32.800" width="1.025" height="1.025" fill="#000000" /><rect x="5.125" y="33.825" width="1.025" height="1.025" fill="#000000" fill-opacity="0.808" /><rect x="6.150" y="33.825" width="1.025" height="1.025" fill="#121212" fill-opacity="0.718" /><rect x="7.175" y="33.825" width="1.025" height="1.025" fill="#0c0c0c" fill-opacity="0.816" /><rect x="8.200" y="33.825" width="1.025" height="1.025" fill="#1a1a1a" fill-opacity="0.933" /><rect x="9.225" y="33.825" width="1.025" height="1.025" fill="#131313" fill-opacity="0.933" /><rect x="10.250" y="33.825" width="1.025" height="1.025" fill="#000000" /><rect x="11.275" y="33.825" width="1.025" height="1.025" fill="#ababab" /><rect x="12.300" y="33.825" width="1.025" height="1.025" fill="#f7f7f7" /><rect x="13.325" y="33.825" width="1.025" height="1.025" fill="#f8f8f8" /><rect x="14.350" y="33.825" width="1.025" height="1.025" fill="#f8f8f8" /><rect x="15.375" y="33.825" width="1.025" height="1.025" fill="#f7f7f7" /><rect x="16.400" y="33.825" width="1.025" height="1.025" fill="#b2b2b2" /><rect x="17.425" y="33.825" width="1.025" height="1.025" fill="#b1b1b1" /><rect x="18.450" y="33.825" width="1.025" height="1.025" fill="#aaaaaa" /><rect x="19.475" y="33.825" width="1.025" height="1.025" fill="#ececec" /><rect x="20.500" y="33.825" width="1.025" height="1.025" fill="#e4e4e4" /><rect x="21.525" y="33.825" width="1.025" height="1.025" fill="#e5e5e5" /><rect x="22.550" y="33.825" width="1.025" height="1.025" fill="#e8e8e8" /><rect x="23.575" y="33.825" width="1.025" height="1.025" fill="#ababab" /><rect x="24.600" y="33.825" width="1.025" height="1.025" fill="#000000" /><rect x="5.125" y="34.850" width="1.025" height="1.025" fill="#000000" fill-opacity="0.063" /><rect x="6.150" y="34.850" width="1.025" height="1.025" fill="#0c0c0c" fill-opacity="0.067" /><rect x="7.175" y="34.850" width="1.025" height="1.025" fill="#0b0b0b" fill-opacity="0.102" /><rect x="8.200" y="34.850" width="1.025" height="1.025" fill="#161616" fill-opacity="0.102" /><rect x="9.225" y="34.850" width="1.025" height="1.025" fill="#000000" fill-opacity="0.106" /><rect x="10.250" y="34.850" width="1.025" height="1.025" fill="#000000" /><rect x="11.275" y="34.850" width="1.025" height="1.025" fill="#d0d0d0" /><rect x="12.300" y="34.850" width="1.025" height="1.025" fill="#f4f4f4" /><rect x="13.325" y="34.850" width="1.025" height="1.025" fill="#ececec" /><rect x="14.350" y="34.850" width="1.025" height="1.025" fill="#eaeaea" /><rect x="15.375" y="34.850" width="1.025" height="1.025" fill="#ececec" /><rect x="16.400" y="34.850" width="1.025" height="1.025" fill="#ebebeb" /><rect x="17.425" y="34.850" width="1.025" height="1.025" fill="#e9e9e9" /><rect x="18.450" y="34.850" width="1.025" height="1.025" fill="#e7e7e7" /><rect x="19.475" y="34.850" width="1.025" height="1.025" fill="#e9e9e9" /><rect x="20.500" y="34.850" width="1.025" height="1.025" fill="#eaeaea" /><rect x="21.525" y="34.850" width="1.025" height="1.025" fill="#e9e9e9" /><rect x="22.550" y="34.850" width="1.025" height="1.025" fill="#e8e8e8" /><rect x="23.575" y="34.850" width="1.025" height="1.025" fill="#dadada" /><rect x="24.600" y="34.850" width="1.025" height="1.025" fill="#4a4a4a" /><rect x="25.625" y="34.850" width="1.025" height="1.025" fill="#131313" /><rect x="26.650" y="34.850" width="1.025" height="1.025" fill="#0e0e0e" /><rect x="27.675" y="34.850" width="1.025" height="1.025" fill="#000000" /><rect x="5.125" y="35.875" width="1.025" height="1.025" fill="#000000" /><rect x="6.150" y="35.875" width="1.025" height="1.025" fill="#040404" /><rect x="7.175" y="35.875" width="1.025" height="1.025" fill="#040404" /><rect x="8.200" y="35.875" width="1.025" height="1.025" fill="#040404" /><rect x="9.225" y="35.875" width="1.025" height="1.025" fill="#070707" /><rect x="10.250" y="35.875" width="1.025" height="1.025" fill="#555555" /><rect x="11.275" y="35.875" width="1.025" height="1.025" fill="#a0a0a0" /><rect x="12.300" y="35.875" width="1.025" height="1.025" fill="#e1e1e1" /><rect x="13.325" y="35.875" width="1.025" height="1.025" fill="#e0e0e0" /><rect x="14.350" y="35.875" width="1.025" height="1.025" fill="#e6e6e6" /><rect x="15.375" y="35.875" width="1.025" height="1.025" fill="#ededed" /><rect x="16.400" y="35.875" width="1.025" height="1.025" fill="#f2f2f2" /><rect x="17.425" y="35.875" width="1.025" height="1.025" fill="#e6e6e6" /><rect x="18.450" y="35.875" width="1.025" height="1.025" fill="#f2f2f2" /><rect x="19.475" y="35.875" width="1.025" height="1.025" fill="#c4c4c4" /><rect x="20.500" y="35.875" width="1.025" height="1.025" fill="#eaeaea" /><rect x="21.525" y="35.875" width="1.025" height="1.025" fill="#f5f5f5" /><rect x="22.550" y="35.875" width="1.025" height="1.025" fill="#f4f4f4" /><rect x="23.575" y="35.875" width="1.025" height="1.025" fill="#e0e0e0" /><rect x="24.600" y="35.875" width="1.025" height="1.025" fill="#c8c8c8" /><rect x="25.625" y="35.875" width="1.025" height="1.025" fill="#555555" /><rect x="26.650" y="35.875" width="1.025" height="1.025" fill="#070707" /><rect x="27.675" y="35.875" width="1.025" height="1.025" fill="#000000" /><rect x="10.250" y="36.900" width="1.025" height="1.025" fill="#555555" /><rect x="11.275" y="36.900" width="1.025" height="1.025" fill="#a5a5a5" /><rect x="12.300" y="36.900" width="1.025" height="1.025" fill="#c8c8c8" /><rect x="13.325" y="36.900" width="1.025" height="1.025" fill="#dadada" /><rect x="14.350" y="36.900" width="1.025" height="1.025" fill="#dbdbdb" /><rect x="15.375" y="36.900" width="1.025" height="1.025" fill="#e1e1e1" /><rect x="16.400" y="36.900" width="1.025" height="1.025" fill="#e1e1e1" /><rect x="17.425" y="36.900" width="1.025" height="1.025" fill="#e2e2e2" /><rect x="18.450" y="36.900" width="1.025" height="1.025" fill="#e2e2e2" /><rect x="19.475" y="36.900" width="1.025" height="1.025" fill="#dcdcdc" /><rect x="20.500" y="36.900" width="1.025" height="1.025" fill="#c1c1c1" /><rect x="21.525" y="36.900" width="1.025" height="1.025" fill="#e2e2e2" /><rect x="22.550" y="36.900" width="1.025" height="1.025" fill="#eaeaea" /><rect x="23.575" y="36.900" width="1.025" height="1.025" fill="#e9e9e9" /><rect x="24.600" y="36.900" width="1.025" height="1.025" fill="#e1e1e1" /><rect x="25.625" y="36.900" width="1.025" height="1.025" fill="#b5b5b5" /><rect x="26.650" y="36.900" width="1.025" height="1.025" fill="#555555" /></svg>