<svg xmlns="http://www.w3.org/2000/svg" width="37.925" height="37.925" shape-rendering="crispEdges" style="image-rendering: pixelated;"><rect x="16.400" y="1.025" width="1.025" height="1.025" fill="#b0116c" fill-opacity="0.867" /><rect x="18.450" y="1.025" width="1.025" height="1.025" fill="#b0116c" /><rect x="22.550" y="1.025" width="1.025" height="1.025" fill="#ae116c" /><rect x="11.275" y="2.050" width="1.025" height="1.025" fill="#b70f6c" /><rect x="12.300" y="2.050" width="1.025" height="1.025" fill="#c2126b" /><rect x="13.325" y="2.050" width="1.025" height="1.025" fill="#b3106b" /><rect x="17.425" y="2.050" width="1.025" height="1.025" fill="#c0116c" /><rect x="18.450" y="2.050" width="1.025" height="1.025" fill="#f10c8a" /><rect x="19.475" y="2.050" width="1.025" height="1.025" fill="#ae116b" /><rect x="22.550" y="2.050" width="1.025" height="1.025" fill="#bd0e6c" /><rect x="12.300" y="3.075" width="1.025" height="1.025" fill="#ae116b" /><rect x="13.325" y="3.075" width="1.025" height="1.025" fill="#ff159b" /><rect x="14.350" y="3.075" width="1.025" height="1.025" fill="#d50f7c" /><rect x="15.375" y="3.075" width="1.025" height="1.025" fill="#ae116b" /><rect x="17.425" y="3.075" width="1.025" height="1.025" fill="#ae116b" /><rect x="18.450" y="3.075" width="1.025" height="1.025" fill="#ff29a1" /><rect x="19.475" y="3.075" width="1.025" height="1.025" fill="#ff23a0" /><rect x="20.500" y="3.075" width="1.025" height="1.025" fill="#ae116b" /><rect x="22.550" y="3.075" width="1.025" height="1.025" fill="#ef1a98" /><rect x="23.575" y="3.075" width="1.025" height="1.025" fill="#c71c7e" /><rect x="13.325" y="4.100" width="1.025" height="1.025" fill="#b1116c" /><rect x="14.350" y="4.100" width="1.025" height="1.025" fill="#ff26a9" /><rect x="15.375" y="4.100" width="1.025" height="1.025" fill="#e50988" /><rect x="16.400" y="4.100" width="1.025" height="1.025" fill="#ef2799" /><rect x="17.425" y="4.100" width="1.025" height="1.025" fill="#d81f88" /><rect x="18.450" y="4.100" width="1.025" height="1.025" fill="#ef1c95" /><rect x="19.475" y="4.100" width="1.025" height="1.025" fill="#ff1c9a" /><rect x="20.500" y="4.100" width="1.025" height="1.025" fill="#e30a7f" /><rect x="21.525" y="4.100" width="1.025" height="1.025" fill="#d81f89" /><rect x="22.550" y="4.100" width="1.025" height="1.025" fill="#ff209e" /><rect x="23.575" y="4.100" width="1.025" height="1.025" fill="#ff31a6" /><rect x="24.600" y="4.100" width="1.025" height="1.025" fill="#3b1220" /><rect x="13.325" y="5.125" width="1.025" height="1.025" fill="#fa1295" /><rect x="14.350" y="5.125" width="1.025" height="1.025" fill="#d4117d" /><rect x="15.375" y="5.125" width="1.025" height="1.025" fill="#ff1c9a" /><rect x="16.400" y="5.125" width="1.025" height="1.025" fill="#ff29a3" /><rect x="17.425" y="5.125" width="1.025" height="1.025" fill="#ff2aa2" /><rect x="18.450" y="5.125" width="1.025" height="1.025" fill="#e21b8d" /><rect x="19.475" y="5.125" width="1.025" height="1.025" fill="#ff1797" /><rect x="20.500" y="5.125" width="1.025" height="1.025" fill="#ff1e9c" /><rect x="21.525" y="5.125" width="1.025" height="1.025" fill="#d0177e" /><rect x="22.550" y="5.125" width="1.025" height="1.025" fill="#ff219b" /><rect x="23.575" y="5.125" width="1.025" height="1.025" fill="#ff1496" /><rect x="24.600" y="5.125" width="1.025" height="1.025" fill="#961753" /><rect x="8.200" y="6.150" width="1.025" height="1.025" fill="#ae136b" /><rect x="9.225" y="6.150" width="1.025" height="1.025" fill="#be1170" /><rect x="10.250" y="6.150" width="1.025" height="1.025" fill="#ce077c" /><rect x="11.275" y="6.150" width="1.025" height="1.025" fill="#ef2099" /><rect x="12.300" y="6.150" width="1.025" height="1.025" fill="#ff25a0" /><rect x="13.325" y="6.150" width="1.025" height="1.025" fill="#ff23a3" /><rect x="14.350" y="6.150" width="1.025" height="1.025" fill="#e0138a" /><rect x="15.375" y="6.150" width="1.025" height="1.025" fill="#ff189a" /><rect x="16.400" y="6.150" width="1.025" height="1.025" fill="#ff27a1" /><rect x="17.425" y="6.150" width="1.025" height="1.025" fill="#ff23a0" /><rect x="18.450" y="6.150" width="1.025" height="1.025" fill="#ff24a1" /><rect x="19.475" y="6.150" width="1.025" height="1.025" fill="#ff1b99" /><rect x="20.500" y="6.150" width="1.025" height="1.025" fill="#ff21a0" /><rect x="21.525" y="6.150" width="1.025" height="1.025" fill="#ff229f" /><rect x="22.550" y="6.150" width="1.025" height="1.025" fill="#ff25a3" /><rect x="23.575" y="6.150" width="1.025" height="1.025" fill="#ff209d" /><rect x="24.600" y="6.150" width="1.025" height="1.025" fill="#ff33aa" /><rect x="25.625" y="6.150" width="1.025" height="1.025" fill="#d31f80" /><rect x="9.225" y="7.175" width="1.025" height="1.025" fill="#b4116b" /><rect x="10.250" y="7.175" width="1.025" height="1.025" fill="#ff269f" /><rect x="11.275" y="7.175" width="1.025" height="1.025" fill="#ff30a6" /><rect x="12.300" y="7.175" width="1.025" height="1.025" fill="#ff179b" /><rect x="13.325" y="7.175" width="1.025" height="1.025" fill="#d21777" /><rect x="14.350" y="7.175" width="1.025" height="1.025" fill="#d41f70" /><rect x="15.375" y="7.175" width="1.025" height="1.025" fill="#d0176f" /><rect x="16.400" y="7.175" width="1.025" height="1.025" fill="#c4126c" /><rect x="17.425" y="7.175" width="1.025" height="1.025" fill="#a80a55" /><rect x="18.450" y="7.175" width="1.025" height="1.025" fill="#ae0c5e" /><rect x="19.475" y="7.175" width="1.025" height="1.025" fill="#d7137e" /><rect x="20.500" y="7.175" width="1.025" height="1.025" fill="#e3107e" /><rect x="21.525" y="7.175" width="1.025" height="1.025" fill="#ff22a0" /><rect x="22.550" y="7.175" width="1.025" height="1.025" fill="#ff1b99" /><rect x="23.575" y="7.175" width="1.025" height="1.025" fill="#ff2ea6" /><rect x="24.600" y="7.175" width="1.025" height="1.025" fill="#cc157a" /><rect x="25.625" y="7.175" width="1.025" height="1.025" fill="#b3116c" /><rect x="10.250" y="8.200" width="1.025" height="1.025" fill="#ae116b" /><rect x="11.275" y="8.200" width="1.025" height="1.025" fill="#be1673" /><rect x="12.300" y="8.200" width="1.025" height="1.025" fill="#ef8a9d" /><rect x="13.325" y="8.200" width="1.025" height="1.025" fill="#ff21a0" fill-opacity="0.361" /><rect x="14.350" y="8.200" width="1.025" height="1.025" fill="#ff21a0" fill-opacity="0.361" /><rect x="15.375" y="8.200" width="1.025" height="1.025" fill="#ff21a0" fill-opacity="0.490" /><rect x="16.400" y="8.200" width="1.025" height="1.025" fill="#ff21a0" fill-opacity="0.200" /><rect x="20.500" y="8.200" width="1.025" height="1.025" fill="#ff677b" /><rect x="21.525" y="8.200" width="1.025" height="1.025" fill="#ff3ea4" /><rect x="22.550" y="8.200" width="1.025" height="1.025" fill="#ff25a3" /><rect x="23.575" y="8.200" width="1.025" height="1.025" fill="#ec168e" /><rect x="24.600" y="8.200" width="1.025" height="1.025" fill="#d01c75" /><rect x="25.625" y="8.200" width="1.025" height="1.025" fill="#b7106b" /><rect x="11.275" y="9.225" width="1.025" height="1.025" fill="#ad1569" /><rect x="12.300" y="9.225" width="1.025" height="1.025" fill="#e25a87" /><rect x="13.325" y="9.225" width="1.025" height="1.025" fill="#ff21a0" fill-opacity="0.361" /><rect x="14.350" y="9.225" width="1.025" height="1.025" fill="#ff21a0" fill-opacity="0.490" /><rect x="21.525" y="9.225" width="1.025" height="1.025" fill="#f1468c" /><rect x="22.550" y="9.225" width="1.025" height="1.025" fill="#ff1b99" /><rect x="23.575" y="9.225" width="1.025" height="1.025" fill="#bb2567" /><rect x="12.300" y="10.250" width="1.025" height="1.025" fill="#ff21a0" fill-opacity="0.200" /><rect x="13.325" y="10.250" width="1.025" height="1.025" fill="#ff21a0" fill-opacity="0.361" /><rect x="22.550" y="10.250" width="1.025" height="1.025" fill="#fb169e" /><rect x="12.300" y="11.275" width="1.025" height="1.025" fill="#ff21a0" fill-opacity="0.361" /><rect x="13.325" y="11.275" width="1.025" height="1.025" fill="#ff21a0" fill-opacity="0.490" /><rect x="22.550" y="11.275" width="1.025" height="1.025" fill="#9b174f" /><rect x="11.275" y="18.450" width="1.025" height="1.025" fill="#b3237d" /><rect x="12.300" y="18.450" width="1.025" height="1.025" fill="#ad1469" /><rect x="13.325" y="18.450" width="1.025" height="1.025" fill="#191919" /><rect x="10.250" y="19.475" width="1.025" height="1.025" fill="#ae116b" /><rect x="11.275" y="19.475" width="1.025" height="1.025" fill="#f122b0" /><rect x="12.300" y="19.475" width="1.025" height="1.025" fill="#ff22a1" /><rect x="13.325" y="19.475" width="1.025" height="1.025" fill="#1b1819" /><rect x="11.275" y="20.500" width="1.025" height="1.025" fill="#d02184" /><rect x="12.300" y="20.500" width="1.025" height="1.025" fill="#ab2c89" /><rect x="13.325" y="20.500" width="1.025" height="1.025" fill="#191919" /></svg>