<svg xmlns="http://www.w3.org/2000/svg" width="37.925" height="37.925" shape-rendering="crispEdges" style="image-rendering: pixelated;"><rect x="16.400" y="0.000" width="1.025" height="1.025" fill="#010000" fill-opacity="0.835" /><rect x="12.300" y="1.025" width="1.025" height="1.025" fill="#010000" fill-opacity="0.835" /><rect x="16.400" y="1.025" width="1.025" height="1.025" fill="#000000" /><rect x="17.425" y="1.025" width="1.025" height="1.025" fill="#0d0000" /><rect x="21.525" y="1.025" width="1.025" height="1.025" fill="#010000" fill-opacity="0.957" /><rect x="12.300" y="2.050" width="1.025" height="1.025" fill="#000000" /><rect x="13.325" y="2.050" width="1.025" height="1.025" fill="#251b16" /><rect x="14.350" y="2.050" width="1.025" height="1.025" fill="#100a00" /><rect x="17.425" y="2.050" width="1.025" height="1.025" fill="#000000" /><rect x="18.450" y="2.050" width="1.025" height="1.025" fill="#150c07" /><rect x="22.550" y="2.050" width="1.025" height="1.025" fill="#000100" /><rect x="13.325" y="3.075" width="1.025" height="1.025" fill="#000000" /><rect x="14.350" y="3.075" width="1.025" height="1.025" fill="#271912" /><rect x="17.425" y="3.075" width="1.025" height="1.025" fill="#010000" /><rect x="18.450" y="3.075" width="1.025" height="1.025" fill="#482931" /><rect x="19.475" y="3.075" width="1.025" height="1.025" fill="#020000" /><rect x="21.525" y="3.075" width="1.025" height="1.025" fill="#000000" /><rect x="22.550" y="3.075" width="1.025" height="1.025" fill="#412224" /><rect x="23.575" y="3.075" width="1.025" height="1.025" fill="#0f0000" /><rect x="13.325" y="4.100" width="1.025" height="1.025" fill="#020000" /><rect x="14.350" y="4.100" width="1.025" height="1.025" fill="#36201b" /><rect x="15.375" y="4.100" width="1.025" height="1.025" fill="#090000" /><rect x="17.425" y="4.100" width="1.025" height="1.025" fill="#050001" /><rect x="18.450" y="4.100" width="1.025" height="1.025" fill="#4d2f2d" /><rect x="19.475" y="4.100" width="1.025" height="1.025" fill="#110000" /><rect x="21.525" y="4.100" width="1.025" height="1.025" fill="#000000" /><rect x="22.550" y="4.100" width="1.025" height="1.025" fill="#582d32" /><rect x="23.575" y="4.100" width="1.025" height="1.025" fill="#421a1c" /><rect x="24.600" y="4.100" width="1.025" height="1.025" fill="#061c1c" /><rect x="8.200" y="5.125" width="1.025" height="1.025" fill="#060000" /><rect x="9.225" y="5.125" width="1.025" height="1.025" fill="#000000" /><rect x="13.325" y="5.125" width="1.025" height="1.025" fill="#070301" /><rect x="14.350" y="5.125" width="1.025" height="1.025" fill="#402a25" /><rect x="15.375" y="5.125" width="1.025" height="1.025" fill="#2f1f1a" /><rect x="16.400" y="5.125" width="1.025" height="1.025" fill="#000000" /><rect x="17.425" y="5.125" width="1.025" height="1.025" fill="#331f1d" /><rect x="18.450" y="5.125" width="1.025" height="1.025" fill="#3d2625" /><rect x="19.475" y="5.125" width="1.025" height="1.025" fill="#563234" /><rect x="20.500" y="5.125" width="1.025" height="1.025" fill="#000000" /><rect x="21.525" y="5.125" width="1.025" height="1.025" fill="#1c1010" /><rect x="22.550" y="5.125" width="1.025" height="1.025" fill="#432626" /><rect x="23.575" y="5.125" width="1.025" height="1.025" fill="#51302e" /><rect x="24.600" y="5.125" width="1.025" height="1.025" fill="#2e1f1c" /><rect x="25.625" y="5.125" width="1.025" height="1.025" fill="#011210" /><rect x="9.225" y="6.150" width="1.025" height="1.025" fill="#010000" /><rect x="10.250" y="6.150" width="1.025" height="1.025" fill="#371a19" /><rect x="13.325" y="6.150" width="1.025" height="1.025" fill="#190f0e" /><rect x="14.350" y="6.150" width="1.025" height="1.025" fill="#4a2e2b" /><rect x="15.375" y="6.150" width="1.025" height="1.025" fill="#472d29" /><rect x="16.400" y="6.150" width="1.025" height="1.025" fill="#442f28" /><rect x="17.425" y="6.150" width="1.025" height="1.025" fill="#442b28" /><rect x="18.450" y="6.150" width="1.025" height="1.025" fill="#29191a" /><rect x="19.475" y="6.150" width="1.025" height="1.025" fill="#523234" /><rect x="20.500" y="6.150" width="1.025" height="1.025" fill="#3b2423" /><rect x="21.525" y="6.150" width="1.025" height="1.025" fill="#402826" /><rect x="22.550" y="6.150" width="1.025" height="1.025" fill="#211413" /><rect x="23.575" y="6.150" width="1.025" height="1.025" fill="#452926" /><rect x="24.600" y="6.150" width="1.025" height="1.025" fill="#553332" /><rect x="25.625" y="6.150" width="1.025" height="1.025" fill="#08251d" /><rect x="10.250" y="7.175" width="1.025" height="1.025" fill="#000000" /><rect x="11.275" y="7.175" width="1.025" height="1.025" fill="#4d2a2c" /><rect x="12.300" y="7.175" width="1.025" height="1.025" fill="#1d1210" /><rect x="13.325" y="7.175" width="1.025" height="1.025" fill="#3f2825" /><rect x="14.350" y="7.175" width="1.025" height="1.025" fill="#3f2623" /><rect x="15.375" y="7.175" width="1.025" height="1.025" fill="#3b2420" /><rect x="16.400" y="7.175" width="1.025" height="1.025" fill="#37201c" /><rect x="17.425" y="7.175" width="1.025" height="1.025" fill="#442a27" /><rect x="18.450" y="7.175" width="1.025" height="1.025" fill="#271a19" /><rect x="19.475" y="7.175" width="1.025" height="1.025" fill="#452a2a" /><rect x="20.500" y="7.175" width="1.025" height="1.025" fill="#3f2524" /><rect x="21.525" y="7.175" width="1.025" height="1.025" fill="#211212" /><rect x="22.550" y="7.175" width="1.025" height="1.025" fill="#4c2c2b" /><rect x="23.575" y="7.175" width="1.025" height="1.025" fill="#3e2420" /><rect x="24.600" y="7.175" width="1.025" height="1.025" fill="#492d29" /><rect x="25.625" y="7.175" width="1.025" height="1.025" fill="#0c1514" /><rect x="10.250" y="8.200" width="1.025" height="1.025" fill="#210100" /><rect x="11.275" y="8.200" width="1.025" height="1.025" fill="#371e1c" /><rect x="12.300" y="8.200" width="1.025" height="1.025" fill="#442725" /><rect x="13.325" y="8.200" width="1.025" height="1.025" fill="#432a26" /><rect x="14.350" y="8.200" width="1.025" height="1.025" fill="#402925" /><rect x="15.375" y="8.200" width="1.025" height="1.025" fill="#3c2521" /><rect x="16.400" y="8.200" width="1.025" height="1.025" fill="#3c2622" /><rect x="17.425" y="8.200" width="1.025" height="1.025" fill="#3e2522" /><rect x="18.450" y="8.200" width="1.025" height="1.025" fill="#3b2423" /><rect x="19.475" y="8.200" width="1.025" height="1.025" fill="#392422" /><rect x="20.500" y="8.200" width="1.025" height="1.025" fill="#3d2625" /><rect x="21.525" y="8.200" width="1.025" height="1.025" fill="#3b2320" /><rect x="22.550" y="8.200" width="1.025" height="1.025" fill="#4e312e" /><rect x="23.575" y="8.200" width="1.025" height="1.025" fill="#38211e" /><rect x="24.600" y="8.200" width="1.025" height="1.025" fill="#3e2921" /><rect x="25.625" y="8.200" width="1.025" height="1.025" fill="#032325" /><rect x="11.275" y="9.225" width="1.025" height="1.025" fill="#160904" /><rect x="12.300" y="9.225" width="1.025" height="1.025" fill="#34211b" /><rect x="13.325" y="9.225" width="1.025" height="1.025" fill="#3c2321" /><rect x="14.350" y="9.225" width="1.025" height="1.025" fill="#cab08f" fill-opacity="0.486" /><rect x="15.375" y="9.225" width="1.025" height="1.025" fill="#efd9a2" fill-opacity="0.059" /><rect x="16.400" y="9.225" width="1.025" height="1.025" fill="#987e53" fill-opacity="0.341" /><rect x="17.425" y="9.225" width="1.025" height="1.025" fill="#623d33" fill-opacity="0.486" /><rect x="18.450" y="9.225" width="1.025" height="1.025" fill="#4e3031" /><rect x="19.475" y="9.225" width="1.025" height="1.025" fill="#1e0a0c" /><rect x="20.500" y="9.225" width="1.025" height="1.025" fill="#24100d" /><rect x="21.525" y="9.225" width="1.025" height="1.025" fill="#361e1f" /><rect x="22.550" y="9.225" width="1.025" height="1.025" fill="#402821" /><rect x="23.575" y="9.225" width="1.025" height="1.025" fill="#452a26" /><rect x="24.600" y="9.225" width="1.025" height="1.025" fill="#4a2c27" /><rect x="25.625" y="9.225" width="1.025" height="1.025" fill="#042c2f" /><rect x="7.175" y="10.250" width="1.025" height="1.025" fill="#030501" /><rect x="8.200" y="10.250" width="1.025" height="1.025" fill="#000000" /><rect x="9.225" y="10.250" width="1.025" height="1.025" fill="#653f41" /><rect x="10.250" y="10.250" width="1.025" height="1.025" fill="#603c3b" /><rect x="11.275" y="10.250" width="1.025" height="1.025" fill="#311e17" /><rect x="12.300" y="10.250" width="1.025" height="1.025" fill="#2c1914" /><rect x="13.325" y="10.250" width="1.025" height="1.025" fill="#1e1106" /><rect x="14.350" y="10.250" width="1.025" height="1.025" fill="#5a3a2c" /><rect x="22.550" y="10.250" width="1.025" height="1.025" fill="#1e0b0f" /><rect x="23.575" y="10.250" width="1.025" height="1.025" fill="#3f2621" /><rect x="24.600" y="10.250" width="1.025" height="1.025" fill="#33221a" /><rect x="9.225" y="11.275" width="1.025" height="1.025" fill="#090703" /><rect x="10.250" y="11.275" width="1.025" height="1.025" fill="#482c25" /><rect x="11.275" y="11.275" width="1.025" height="1.025" fill="#794d34" /><rect x="12.300" y="11.275" width="1.025" height="1.025" fill="#a16f49" fill-opacity="0.698" /><rect x="10.250" y="12.300" width="1.025" height="1.025" fill="#000000" /><rect x="11.275" y="12.300" width="1.025" height="1.025" fill="#442b28" /><rect x="8.200" y="13.325" width="1.025" height="1.025" fill="#000000" /><rect x="9.225" y="13.325" width="1.025" height="1.025" fill="#3c2928" /><rect x="10.250" y="13.325" width="1.025" height="1.025" fill="#532f31" /><rect x="11.275" y="13.325" width="1.025" height="1.025" fill="#442a27" /><rect x="7.175" y="14.350" width="1.025" height="1.025" fill="#001925" /><rect x="8.200" y="14.350" width="1.025" height="1.025" fill="#3c2928" /><rect x="9.225" y="14.350" width="1.025" height="1.025" fill="#532f31" /><rect x="10.250" y="14.350" width="1.025" height="1.025" fill="#000000" /><rect x="10.250" y="15.375" width="1.025" height="1.025" fill="#3c2928" /><rect x="11.275" y="15.375" width="1.025" height="1.025" fill="#532f31" /><rect x="9.225" y="16.400" width="1.025" height="1.025" fill="#040000" /><rect x="10.250" y="16.400" width="1.025" height="1.025" fill="#000000" /><rect x="11.275" y="16.400" width="1.025" height="1.025" fill="#000100" /></svg>