<svg xmlns="http://www.w3.org/2000/svg" width="37.925" height="37.925" shape-rendering="crispEdges" style="image-rendering: pixelated;"><rect x="16.400" y="0.000" width="1.025" height="1.025" fill="#6c1070" fill-opacity="0.988" /><rect x="21.525" y="0.000" width="1.025" height="1.025" fill="#6c1070" fill-opacity="0.914" /><rect x="11.275" y="1.025" width="1.025" height="1.025" fill="#670f6e" /><rect x="12.300" y="1.025" width="1.025" height="1.025" fill="#670f6e" /><rect x="16.400" y="1.025" width="1.025" height="1.025" fill="#670f6e" /><rect x="17.425" y="1.025" width="1.025" height="1.025" fill="#7e1087" /><rect x="18.450" y="1.025" width="1.025" height="1.025" fill="#670f6e" /><rect x="19.475" y="1.025" width="1.025" height="1.025" fill="#670f6e" /><rect x="22.550" y="1.025" width="1.025" height="1.025" fill="#6c1070" /><rect x="23.575" y="1.025" width="1.025" height="1.025" fill="#671370" /><rect x="12.300" y="2.050" width="1.025" height="1.025" fill="#670f6e" /><rect x="13.325" y="2.050" width="1.025" height="1.025" fill="#8c2298" /><rect x="14.350" y="2.050" width="1.025" height="1.025" fill="#712170" /><rect x="17.425" y="2.050" width="1.025" height="1.025" fill="#670f6e" /><rect x="18.450" y="2.050" width="1.025" height="1.025" fill="#881892" /><rect x="19.475" y="2.050" width="1.025" height="1.025" fill="#9a1ba4" /><rect x="20.500" y="2.050" width="1.025" height="1.025" fill="#741178" /><rect x="22.550" y="2.050" width="1.025" height="1.025" fill="#6d1375" /><rect x="23.575" y="2.050" width="1.025" height="1.025" fill="#9a16a6" /><rect x="24.600" y="2.050" width="1.025" height="1.025" fill="#7a0d78" /><rect x="13.325" y="3.075" width="1.025" height="1.025" fill="#74137f" /><rect x="14.350" y="3.075" width="1.025" height="1.025" fill="#a11aaf" /><rect x="15.375" y="3.075" width="1.025" height="1.025" fill="#6f0e73" /><rect x="18.450" y="3.075" width="1.025" height="1.025" fill="#6a0f71" /><rect x="19.475" y="3.075" width="1.025" height="1.025" fill="#8c1596" /><rect x="20.500" y="3.075" width="1.025" height="1.025" fill="#871186" /><rect x="21.525" y="3.075" width="1.025" height="1.025" fill="#670f6e" /><rect x="22.550" y="3.075" width="1.025" height="1.025" fill="#9815a1" /><rect x="23.575" y="3.075" width="1.025" height="1.025" fill="#a518b0" /><rect x="24.600" y="3.075" width="1.025" height="1.025" fill="#670f6e" /><rect x="13.325" y="4.100" width="1.025" height="1.025" fill="#791488" /><rect x="14.350" y="4.100" width="1.025" height="1.025" fill="#ae19b9" /><rect x="15.375" y="4.100" width="1.025" height="1.025" fill="#a614af" /><rect x="16.400" y="4.100" width="1.025" height="1.025" fill="#670f6e" /><rect x="17.425" y="4.100" width="1.025" height="1.025" fill="#a320b0" /><rect x="18.450" y="4.100" width="1.025" height="1.025" fill="#a91cb5" /><rect x="19.475" y="4.100" width="1.025" height="1.025" fill="#8a1493" /><rect x="20.500" y="4.100" width="1.025" height="1.025" fill="#96139e" /><rect x="21.525" y="4.100" width="1.025" height="1.025" fill="#9c16a4" /><rect x="22.550" y="4.100" width="1.025" height="1.025" fill="#9a14a5" /><rect x="23.575" y="4.100" width="1.025" height="1.025" fill="#a816b3" /><rect x="24.600" y="4.100" width="1.025" height="1.025" fill="#a816b3" /><rect x="25.625" y="4.100" width="1.025" height="1.025" fill="#690f6f" /><rect x="26.650" y="4.100" width="1.025" height="1.025" fill="#690f6f" /><rect x="27.675" y="4.100" width="1.025" height="1.025" fill="#690f6f" /><rect x="7.175" y="5.125" width="1.025" height="1.025" fill="#650f6e" /><rect x="8.200" y="5.125" width="1.025" height="1.025" fill="#68116e" /><rect x="9.225" y="5.125" width="1.025" height="1.025" fill="#711178" /><rect x="10.250" y="5.125" width="1.025" height="1.025" fill="#761581" /><rect x="11.275" y="5.125" width="1.025" height="1.025" fill="#7b1182" /><rect x="12.300" y="5.125" width="1.025" height="1.025" fill="#811387" /><rect x="13.325" y="5.125" width="1.025" height="1.025" fill="#781180" /><rect x="14.350" y="5.125" width="1.025" height="1.025" fill="#9e16a7" /><rect x="15.375" y="5.125" width="1.025" height="1.025" fill="#a013a9" /><rect x="16.400" y="5.125" width="1.025" height="1.025" fill="#ac18b6" /><rect x="17.425" y="5.125" width="1.025" height="1.025" fill="#a919b6" /><rect x="18.450" y="5.125" width="1.025" height="1.025" fill="#aa18b6" /><rect x="19.475" y="5.125" width="1.025" height="1.025" fill="#92169c" /><rect x="20.500" y="5.125" width="1.025" height="1.025" fill="#a117ac" /><rect x="21.525" y="5.125" width="1.025" height="1.025" fill="#ae1cbf" /><rect x="22.550" y="5.125" width="1.025" height="1.025" fill="#9b15a6" /><rect x="23.575" y="5.125" width="1.025" height="1.025" fill="#a914b2" /><rect x="24.600" y="5.125" width="1.025" height="1.025" fill="#a914b2" /><rect x="25.625" y="5.125" width="1.025" height="1.025" fill="#a717b4" /><rect x="26.650" y="5.125" width="1.025" height="1.025" fill="#a717b4" /><rect x="27.675" y="5.125" width="1.025" height="1.025" fill="#690f6f" /><rect x="8.200" y="6.150" width="1.025" height="1.025" fill="#6e0e72" /><rect x="9.225" y="6.150" width="1.025" height="1.025" fill="#801187" /><rect x="10.250" y="6.150" width="1.025" height="1.025" fill="#9616a1" /><rect x="11.275" y="6.150" width="1.025" height="1.025" fill="#a414b1" /><rect x="12.300" y="6.150" width="1.025" height="1.025" fill="#9914a5" /><rect x="13.325" y="6.150" width="1.025" height="1.025" fill="#9b15a8" /><rect x="14.350" y="6.150" width="1.025" height="1.025" fill="#a916b6" /><rect x="15.375" y="6.150" width="1.025" height="1.025" fill="#9f12aa" /><rect x="16.400" y="6.150" width="1.025" height="1.025" fill="#ae19b9" /><rect x="17.425" y="6.150" width="1.025" height="1.025" fill="#ae16b8" /><rect x="18.450" y="6.150" width="1.025" height="1.025" fill="#a816b4" /><rect x="19.475" y="6.150" width="1.025" height="1.025" fill="#9f15aa" /><rect x="20.500" y="6.150" width="1.025" height="1.025" fill="#a715b5" /><rect x="21.525" y="6.150" width="1.025" height="1.025" fill="#a818b6" /><rect x="22.550" y="6.150" width="1.025" height="1.025" fill="#a815b2" /><rect x="23.575" y="6.150" width="1.025" height="1.025" fill="#9910a3" /><rect x="24.600" y="6.150" width="1.025" height="1.025" fill="#9910a3" /><rect x="25.625" y="6.150" width="1.025" height="1.025" fill="#a817b0" /><rect x="26.650" y="6.150" width="1.025" height="1.025" fill="#690f6f" /><rect x="10.250" y="7.175" width="1.025" height="1.025" fill="#7f0f88" /><rect x="11.275" y="7.175" width="1.025" height="1.025" fill="#a818b8" /><rect x="12.300" y="7.175" width="1.025" height="1.025" fill="#a115ae" /><rect x="13.325" y="7.175" width="1.025" height="1.025" fill="#990fa0" /><rect x="14.350" y="7.175" width="1.025" height="1.025" fill="#9a10a1" /><rect x="15.375" y="7.175" width="1.025" height="1.025" fill="#9b10a3" /><rect x="16.400" y="7.175" width="1.025" height="1.025" fill="#a514ad" /><rect x="17.425" y="7.175" width="1.025" height="1.025" fill="#9b11a2" /><rect x="18.450" y="7.175" width="1.025" height="1.025" fill="#9d11a6" /><rect x="19.475" y="7.175" width="1.025" height="1.025" fill="#9810a1" /><rect x="20.500" y="7.175" width="1.025" height="1.025" fill="#a115aa" /><rect x="21.525" y="7.175" width="1.025" height="1.025" fill="#a114ad" /><rect x="22.550" y="7.175" width="1.025" height="1.025" fill="#a713b1" /><rect x="23.575" y="7.175" width="1.025" height="1.025" fill="#a715b3" /><rect x="24.600" y="7.175" width="1.025" height="1.025" fill="#a715b3" /><rect x="25.625" y="7.175" width="1.025" height="1.025" fill="#750d77" /><rect x="11.275" y="8.200" width="1.025" height="1.025" fill="#a219af" /><rect x="12.300" y="8.200" width="1.025" height="1.025" fill="#a215ae" fill-opacity="0.824" /><rect x="13.325" y="8.200" width="1.025" height="1.025" fill="#9f12aa" fill-opacity="0.824" /><rect x="14.350" y="8.200" width="1.025" height="1.025" fill="#970fa0" /><rect x="15.375" y="8.200" width="1.025" height="1.025" fill="#ac17b4" fill-opacity="0.475" /><rect x="16.400" y="8.200" width="1.025" height="1.025" fill="#9f10a5" fill-opacity="0.635" /><rect x="19.475" y="8.200" width="1.025" height="1.025" fill="#a8259d" fill-opacity="0.090" /><rect x="20.500" y="8.200" width="1.025" height="1.025" fill="#a8299f" fill-opacity="0.180" /><rect x="21.525" y="8.200" width="1.025" height="1.025" fill="#9912a2" fill-opacity="0.824" /><rect x="22.550" y="8.200" width="1.025" height="1.025" fill="#9e13a6" /><rect x="23.575" y="8.200" width="1.025" height="1.025" fill="#901197" /><rect x="24.600" y="8.200" width="1.025" height="1.025" fill="#670f6e" /><rect x="8.200" y="9.225" width="1.025" height="1.025" fill="#821081" /><rect x="9.225" y="9.225" width="1.025" height="1.025" fill="#8e0c90" /><rect x="10.250" y="9.225" width="1.025" height="1.025" fill="#a519b2" /><rect x="11.275" y="9.225" width="1.025" height="1.025" fill="#a41ab2" /><rect x="12.300" y="9.225" width="1.025" height="1.025" fill="#9f18ad" fill-opacity="0.824" /><rect x="13.325" y="9.225" width="1.025" height="1.025" fill="#a117ac" fill-opacity="0.824" /><rect x="14.350" y="9.225" width="1.025" height="1.025" fill="#9c13a6" fill-opacity="0.824" /><rect x="15.375" y="9.225" width="1.025" height="1.025" fill="#950e9c" fill-opacity="0.349" /><rect x="16.400" y="9.225" width="1.025" height="1.025" fill="#a01098" fill-opacity="0.349" /><rect x="9.225" y="10.250" width="1.025" height="1.025" fill="#681574" /><rect x="10.250" y="10.250" width="1.025" height="1.025" fill="#9717a3" /><rect x="11.275" y="10.250" width="1.025" height="1.025" fill="#aa17b7" /><rect x="12.300" y="10.250" width="1.025" height="1.025" fill="#a816b6" fill-opacity="0.824" /><rect x="13.325" y="10.250" width="1.025" height="1.025" fill="#a113b0" fill-opacity="0.635" /><rect x="14.350" y="10.250" width="1.025" height="1.025" fill="#9e11aa" fill-opacity="0.635" /><rect x="15.375" y="10.250" width="1.025" height="1.025" fill="#a60ca9" fill-opacity="0.255" /><rect x="16.400" y="10.250" width="1.025" height="1.025" fill="#be4089" fill-opacity="0.349" /><rect x="10.250" y="11.275" width="1.025" height="1.025" fill="#851692" /><rect x="11.275" y="11.275" width="1.025" height="1.025" fill="#90159d" /><rect x="12.300" y="11.275" width="1.025" height="1.025" fill="#a016af" fill-opacity="0.824" /><rect x="13.325" y="11.275" width="1.025" height="1.025" fill="#a010ad" fill-opacity="0.255" /><rect x="14.350" y="11.275" width="1.025" height="1.025" fill="#a70faf" fill-opacity="0.255" /><rect x="9.225" y="12.300" width="1.025" height="1.025" fill="#891692" /><rect x="10.250" y="12.300" width="1.025" height="1.025" fill="#a218b0" /><rect x="11.275" y="12.300" width="1.025" height="1.025" fill="#9e1ab3" /><rect x="12.300" y="12.300" width="1.025" height="1.025" fill="#5a0c5f" fill-opacity="0.824" /><rect x="13.325" y="12.300" width="1.025" height="1.025" fill="#a810b0" fill-opacity="0.255" /><rect x="8.200" y="13.325" width="1.025" height="1.025" fill="#670f6e" /><rect x="9.225" y="13.325" width="1.025" height="1.025" fill="#991ba9" /><rect x="10.250" y="13.325" width="1.025" height="1.025" fill="#9d19ac" /><rect x="11.275" y="13.325" width="1.025" height="1.025" fill="#a219af" /><rect x="9.225" y="14.350" width="1.025" height="1.025" fill="#6c0f71" /><rect x="10.250" y="14.350" width="1.025" height="1.025" fill="#a219af" /><rect x="8.200" y="15.375" width="1.025" height="1.025" fill="#670f6e" /><rect x="9.225" y="15.375" width="1.025" height="1.025" fill="#670f6e" /><rect x="10.250" y="16.400" width="1.025" height="1.025" fill="#6c0e72" /><rect x="9.225" y="17.425" width="1.025" height="1.025" fill="#57226a" /><rect x="10.250" y="17.425" width="1.025" height="1.025" fill="#9317a0" /><rect x="11.275" y="17.425" width="1.025" height="1.025" fill="#9f1aa8" /><rect x="10.250" y="18.450" width="1.025" height="1.025" fill="#8c179d" /><rect x="11.275" y="18.450" width="1.025" height="1.025" fill="#9019a2" /><rect x="12.300" y="18.450" width="1.025" height="1.025" fill="#9319a4" /><rect x="9.225" y="19.475" width="1.025" height="1.025" fill="#690f6f" /><rect x="10.250" y="19.475" width="1.025" height="1.025" fill="#781480" /><rect x="11.275" y="19.475" width="1.025" height="1.025" fill="#592173" /><rect x="12.300" y="19.475" width="1.025" height="1.025" fill="#8e179d" /><rect x="12.300" y="20.500" width="1.025" height="1.025" fill="#6a0e72" /><rect x="11.275" y="21.525" width="1.025" height="1.025" fill="#670f6e" /><rect x="12.300" y="21.525" width="1.025" height="1.025" fill="#6d0e73" /><rect x="12.300" y="22.550" width="1.025" height="1.025" fill="#4d246a" /></svg>