<svg xmlns="http://www.w3.org/2000/svg" width="37.925" height="37.925" shape-rendering="crispEdges" style="image-rendering: pixelated;"><rect x="10.250" y="26.650" width="1.025" height="1.025" fill="#000000" /><rect x="11.275" y="26.650" width="1.025" height="1.025" fill="#ffffff" /><rect x="12.300" y="26.650" width="1.025" height="1.025" fill="#000000" /><rect x="19.475" y="26.650" width="1.025" height="1.025" fill="#000000" /><rect x="20.500" y="26.650" width="1.025" height="1.025" fill="#000000" /><rect x="21.525" y="26.650" width="1.025" height="1.025" fill="#b8b8b8" /><rect x="9.225" y="27.675" width="1.025" height="1.025" fill="#000000" /><rect x="10.250" y="27.675" width="1.025" height="1.025" fill="#141414" /><rect x="11.275" y="27.675" width="1.025" height="1.025" fill="#141414" /><rect x="12.300" y="27.675" width="1.025" height="1.025" fill="#1a1a1a" /><rect x="19.475" y="27.675" width="1.025" height="1.025" fill="#7c7c7c" /><rect x="20.500" y="27.675" width="1.025" height="1.025" fill="#000000" /><rect x="21.525" y="27.675" width="1.025" height="1.025" fill="#000000" /><rect x="22.550" y="27.675" width="1.025" height="1.025" fill="#000000" /><rect x="23.575" y="27.675" width="1.025" height="1.025" fill="#b8b8b8" /><rect x="8.200" y="28.700" width="1.025" height="1.025" fill="#b8b8b8" /><rect x="9.225" y="28.700" width="1.025" height="1.025" fill="#000000" /><rect x="10.250" y="28.700" width="1.025" height="1.025" fill="#cdcdcd" /><rect x="11.275" y="28.700" width="1.025" height="1.025" fill="#1a1a1a" /><rect x="12.300" y="28.700" width="1.025" height="1.025" fill="#1a1a1a" /><rect x="13.325" y="28.700" width="1.025" height="1.025" fill="#000000" /><rect x="14.350" y="28.700" width="1.025" height="1.025" fill="#000000" /><rect x="19.475" y="28.700" width="1.025" height="1.025" fill="#000000" /><rect x="20.500" y="28.700" width="1.025" height="1.025" fill="#1a1a1a" /><rect x="21.525" y="28.700" width="1.025" height="1.025" fill="#090909" /><rect x="22.550" y="28.700" width="1.025" height="1.025" fill="#111111" /><rect x="23.575" y="28.700" width="1.025" height="1.025" fill="#000000" /><rect x="7.175" y="29.725" width="1.025" height="1.025" fill="#000000" /><rect x="8.200" y="29.725" width="1.025" height="1.025" fill="#000000" /><rect x="9.225" y="29.725" width="1.025" height="1.025" fill="#121212" /><rect x="10.250" y="29.725" width="1.025" height="1.025" fill="#0d0d0d" /><rect x="11.275" y="29.725" width="1.025" height="1.025" fill="#1a1a1a" /><rect x="12.300" y="29.725" width="1.025" height="1.025" fill="#e7e7e7" /><rect x="13.325" y="29.725" width="1.025" height="1.025" fill="#1a1a1a" /><rect x="14.350" y="29.725" width="1.025" height="1.025" fill="#1a1a1a" /><rect x="15.375" y="29.725" width="1.025" height="1.025" fill="#000000" /><rect x="19.475" y="29.725" width="1.025" height="1.025" fill="#000000" /><rect x="20.500" y="29.725" width="1.025" height="1.025" fill="#7c7c7c" /><rect x="21.525" y="29.725" width="1.025" height="1.025" fill="#0c0c0c" /><rect x="22.550" y="29.725" width="1.025" height="1.025" fill="#111111" /><rect x="23.575" y="29.725" width="1.025" height="1.025" fill="#000000" /><rect x="24.600" y="29.725" width="1.025" height="1.025" fill="#000000" /><rect x="25.625" y="29.725" width="1.025" height="1.025" fill="#e7e7e7" /><rect x="6.150" y="30.750" width="1.025" height="1.025" fill="#e7e7e7" /><rect x="7.175" y="30.750" width="1.025" height="1.025" fill="#000000" /><rect x="8.200" y="30.750" width="1.025" height="1.025" fill="#999999" /><rect x="9.225" y="30.750" width="1.025" height="1.025" fill="#000000" /><rect x="10.250" y="30.750" width="1.025" height="1.025" fill="#000000" /><rect x="11.275" y="30.750" width="1.025" height="1.025" fill="#000000" /><rect x="12.300" y="30.750" width="1.025" height="1.025" fill="#000000" /><rect x="13.325" y="30.750" width="1.025" height="1.025" fill="#1a1a1a" /><rect x="14.350" y="30.750" width="1.025" height="1.025" fill="#1a1a1a" /><rect x="15.375" y="30.750" width="1.025" height="1.025" fill="#1a1a1a" /><rect x="16.400" y="30.750" width="1.025" height="1.025" fill="#151515" /><rect x="18.450" y="30.750" width="1.025" height="1.025" fill="#000000" /><rect x="19.475" y="30.750" width="1.025" height="1.025" fill="#000000" /><rect x="20.500" y="30.750" width="1.025" height="1.025" fill="#1a1a1a" /><rect x="21.525" y="30.750" width="1.025" height="1.025" fill="#000000" /><rect x="22.550" y="30.750" width="1.025" height="1.025" fill="#1a1a1a" /><rect x="23.575" y="30.750" width="1.025" height="1.025" fill="#121212" /><rect x="24.600" y="30.750" width="1.025" height="1.025" fill="#1a1a1a" /><rect x="25.625" y="30.750" width="1.025" height="1.025" fill="#000000" /><rect x="6.150" y="31.775" width="1.025" height="1.025" fill="#000000" /><rect x="7.175" y="31.775" width="1.025" height="1.025" fill="#121212" /><rect x="8.200" y="31.775" width="1.025" height="1.025" fill="#1a1a1a" /><rect x="9.225" y="31.775" width="1.025" height="1.025" fill="#1a1a1a" /><rect x="10.250" y="31.775" width="1.025" height="1.025" fill="#1a1a1a" /><rect x="11.275" y="31.775" width="1.025" height="1.025" fill="#1a1a1a" /><rect x="12.300" y="31.775" width="1.025" height="1.025" fill="#000000" /><rect x="13.325" y="31.775" width="1.025" height="1.025" fill="#0d0d0d" /><rect x="14.350" y="31.775" width="1.025" height="1.025" fill="#999999" /><rect x="15.375" y="31.775" width="1.025" height="1.025" fill="#1a1a1a" /><rect x="16.400" y="31.775" width="1.025" height="1.025" fill="#1a1a1a" /><rect x="17.425" y="31.775" width="1.025" height="1.025" fill="#000000" /><rect x="18.450" y="31.775" width="1.025" height="1.025" fill="#1a1a1a" /><rect x="19.475" y="31.775" width="1.025" height="1.025" fill="#000000" /><rect x="20.500" y="31.775" width="1.025" height="1.025" fill="#7c7c7c" /><rect x="21.525" y="31.775" width="1.025" height="1.025" fill="#0d0d0d" /><rect x="22.550" y="31.775" width="1.025" height="1.025" fill="#0d0d0d" /><rect x="23.575" y="31.775" width="1.025" height="1.025" fill="#1a1a1a" /><rect x="24.600" y="31.775" width="1.025" height="1.025" fill="#1a1a1a" /><rect x="25.625" y="31.775" width="1.025" height="1.025" fill="#000000" /><rect x="26.650" y="31.775" width="1.025" height="1.025" fill="#000000" /><rect x="6.150" y="32.800" width="1.025" height="1.025" fill="#0a0a0a" /><rect x="7.175" y="32.800" width="1.025" height="1.025" fill="#999999" /><rect x="8.200" y="32.800" width="1.025" height="1.025" fill="#1a1a1a" /><rect x="9.225" y="32.800" width="1.025" height="1.025" fill="#999999" /><rect x="10.250" y="32.800" width="1.025" height="1.025" fill="#1a1a1a" /><rect x="11.275" y="32.800" width="1.025" height="1.025" fill="#1a1a1a" /><rect x="12.300" y="32.800" width="1.025" height="1.025" fill="#1a1a1a" /><rect x="13.325" y="32.800" width="1.025" height="1.025" fill="#000000" /><rect x="14.350" y="32.800" width="1.025" height="1.025" fill="#1a1a1a" /><rect x="15.375" y="32.800" width="1.025" height="1.025" fill="#1a1a1a" /><rect x="16.400" y="32.800" width="1.025" height="1.025" fill="#1a1a1a" /><rect x="17.425" y="32.800" width="1.025" height="1.025" fill="#1a1a1a" /><rect x="18.450" y="32.800" width="1.025" height="1.025" fill="#000000" /><rect x="19.475" y="32.800" width="1.025" height="1.025" fill="#585858" /><rect x="20.500" y="32.800" width="1.025" height="1.025" fill="#cdcdcc" /><rect x="21.525" y="32.800" width="1.025" height="1.025" fill="#000000" /><rect x="22.550" y="32.800" width="1.025" height="1.025" fill="#090909" /><rect x="23.575" y="32.800" width="1.025" height="1.025" fill="#1a1a1a" /><rect x="24.600" y="32.800" width="1.025" height="1.025" fill="#cdcdcd" /><rect x="25.625" y="32.800" width="1.025" height="1.025" fill="#000000" /><rect x="26.650" y="32.800" width="1.025" height="1.025" fill="#000000" /><rect x="5.125" y="33.825" width="1.025" height="1.025" fill="#000000" /><rect x="6.150" y="33.825" width="1.025" height="1.025" fill="#101010" /><rect x="7.175" y="33.825" width="1.025" height="1.025" fill="#121212" /><rect x="8.200" y="33.825" width="1.025" height="1.025" fill="#1a1a1a" /><rect x="9.225" y="33.825" width="1.025" height="1.025" fill="#1a1a1a" /><rect x="10.250" y="33.825" width="1.025" height="1.025" fill="#1a1a1a" /><rect x="11.275" y="33.825" width="1.025" height="1.025" fill="#1a1a1a" /><rect x="12.300" y="33.825" width="1.025" height="1.025" fill="#000000" /><rect x="13.325" y="33.825" width="1.025" height="1.025" fill="#000000" /><rect x="14.350" y="33.825" width="1.025" height="1.025" fill="#000000" /><rect x="15.375" y="33.825" width="1.025" height="1.025" fill="#1a1a1a" /><rect x="16.400" y="33.825" width="1.025" height="1.025" fill="#1a1a1a" /><rect x="17.425" y="33.825" width="1.025" height="1.025" fill="#1a1a1a" /><rect x="18.450" y="33.825" width="1.025" height="1.025" fill="#000000" /><rect x="19.475" y="33.825" width="1.025" height="1.025" fill="#3a3a3a" /><rect x="20.500" y="33.825" width="1.025" height="1.025" fill="#686868" /><rect x="21.525" y="33.825" width="1.025" height="1.025" fill="#000000" /><rect x="22.550" y="33.825" width="1.025" height="1.025" fill="#121212" /><rect x="23.575" y="33.825" width="1.025" height="1.025" fill="#1a1a1a" /><rect x="24.600" y="33.825" width="1.025" height="1.025" fill="#000000" /><rect x="25.625" y="33.825" width="1.025" height="1.025" fill="#000000" /><rect x="26.650" y="33.825" width="1.025" height="1.025" fill="#000000" /><rect x="5.125" y="34.850" width="1.025" height="1.025" fill="#000000" /><rect x="6.150" y="34.850" width="1.025" height="1.025" fill="#ffed00" /><rect x="7.175" y="34.850" width="1.025" height="1.025" fill="#ffed00" /><rect x="8.200" y="34.850" width="1.025" height="1.025" fill="#1a1a1a" /><rect x="9.225" y="34.850" width="1.025" height="1.025" fill="#1a1a1a" /><rect x="10.250" y="34.850" width="1.025" height="1.025" fill="#161616" /><rect x="11.275" y="34.850" width="1.025" height="1.025" fill="#030303" /><rect x="12.300" y="34.850" width="1.025" height="1.025" fill="#080808" /><rect x="13.325" y="34.850" width="1.025" height="1.025" fill="#0d0d0d" /><rect x="14.350" y="34.850" width="1.025" height="1.025" fill="#121212" /><rect x="15.375" y="34.850" width="1.025" height="1.025" fill="#000000" /><rect x="16.400" y="34.850" width="1.025" height="1.025" fill="#000000" /><rect x="17.425" y="34.850" width="1.025" height="1.025" fill="#1a1a1a" /><rect x="18.450" y="34.850" width="1.025" height="1.025" fill="#000000" /><rect x="19.475" y="34.850" width="1.025" height="1.025" fill="#000000" /><rect x="20.500" y="34.850" width="1.025" height="1.025" fill="#000000" /><rect x="21.525" y="34.850" width="1.025" height="1.025" fill="#000000" /><rect x="22.550" y="34.850" width="1.025" height="1.025" fill="#121212" /><rect x="23.575" y="34.850" width="1.025" height="1.025" fill="#000000" /><rect x="24.600" y="34.850" width="1.025" height="1.025" fill="#000000" /><rect x="25.625" y="34.850" width="1.025" height="1.025" fill="#000000" /><rect x="26.650" y="34.850" width="1.025" height="1.025" fill="#000000" /><rect x="5.125" y="35.875" width="1.025" height="1.025" fill="#ff00ff" /><rect x="6.150" y="35.875" width="1.025" height="1.025" fill="#ff00ff" /><rect x="7.175" y="35.875" width="1.025" height="1.025" fill="#ff985c" /><rect x="8.200" y="35.875" width="1.025" height="1.025" fill="#ffed00" /><rect x="9.225" y="35.875" width="1.025" height="1.025" fill="#1a1a1a" /><rect x="10.250" y="35.875" width="1.025" height="1.025" fill="#101010" /><rect x="11.275" y="35.875" width="1.025" height="1.025" fill="#030303" /><rect x="12.300" y="35.875" width="1.025" height="1.025" fill="#0b0b0b" /><rect x="13.325" y="35.875" width="1.025" height="1.025" fill="#121212" /><rect x="14.350" y="35.875" width="1.025" height="1.025" fill="#1a1a1a" /><rect x="15.375" y="35.875" width="1.025" height="1.025" fill="#1a1a1a" /><rect x="16.400" y="35.875" width="1.025" height="1.025" fill="#1a1a1a" /><rect x="17.425" y="35.875" width="1.025" height="1.025" fill="#1a1a1a" /><rect x="18.450" y="35.875" width="1.025" height="1.025" fill="#000000" /><rect x="19.475" y="35.875" width="1.025" height="1.025" fill="#acaba9" /><rect x="20.500" y="35.875" width="1.025" height="1.025" fill="#7c7c7c" /><rect x="21.525" y="35.875" width="1.025" height="1.025" fill="#000000" /><rect x="22.550" y="35.875" width="1.025" height="1.025" fill="#121212" /><rect x="23.575" y="35.875" width="1.025" height="1.025" fill="#1a1a1a" /><rect x="24.600" y="35.875" width="1.025" height="1.025" fill="#000000" /><rect x="25.625" y="35.875" width="1.025" height="1.025" fill="#1a1a1a" /><rect x="26.650" y="35.875" width="1.025" height="1.025" fill="#000000" /><rect x="5.125" y="36.900" width="1.025" height="1.025" fill="#ffed00" /><rect x="6.150" y="36.900" width="1.025" height="1.025" fill="#ff985c" /><rect x="7.175" y="36.900" width="1.025" height="1.025" fill="#ff00ff" /><rect x="8.200" y="36.900" width="1.025" height="1.025" fill="#ff5f99" /><rect x="9.225" y="36.900" width="1.025" height="1.025" fill="#1a1a1a" /><rect x="10.250" y="36.900" width="1.025" height="1.025" fill="#101010" /><rect x="11.275" y="36.900" width="1.025" height="1.025" fill="#030303" /><rect x="12.300" y="36.900" width="1.025" height="1.025" fill="#101010" /><rect x="13.325" y="36.900" width="1.025" height="1.025" fill="#090909" /><rect x="14.350" y="36.900" width="1.025" height="1.025" fill="#1a1a1a" /><rect x="15.375" y="36.900" width="1.025" height="1.025" fill="#1a1a1a" /><rect x="16.400" y="36.900" width="1.025" height="1.025" fill="#1a1a1a" /><rect x="17.425" y="36.900" width="1.025" height="1.025" fill="#1a1a1a" /><rect x="18.450" y="36.900" width="1.025" height="1.025" fill="#000000" /><rect x="19.475" y="36.900" width="1.025" height="1.025" fill="#000000" /><rect x="20.500" y="36.900" width="1.025" height="1.025" fill="#838383" /><rect x="21.525" y="36.900" width="1.025" height="1.025" fill="#000000" /><rect x="22.550" y="36.900" width="1.025" height="1.025" fill="#0d0d0d" /><rect x="23.575" y="36.900" width="1.025" height="1.025" fill="#1a1a1a" /><rect x="24.600" y="36.900" width="1.025" height="1.025" fill="#000000" /><rect x="25.625" y="36.900" width="1.025" height="1.025" fill="#000000" /><rect x="26.650" y="36.900" width="1.025" height="1.025" fill="#000000" /><rect x="27.675" y="36.900" width="1.025" height="1.025" fill="#000000" /></svg>