<svg xmlns="http://www.w3.org/2000/svg" width="37.925" height="37.925" shape-rendering="crispEdges" style="image-rendering: pixelated;"><rect x="11.275" y="28.700" width="1.025" height="1.025" fill="#151515" /><rect x="12.300" y="28.700" width="1.025" height="1.025" fill="#111111" /><rect x="19.475" y="28.700" width="1.025" height="1.025" fill="#111111" /><rect x="20.500" y="28.700" width="1.025" height="1.025" fill="#111111" /><rect x="21.525" y="28.700" width="1.025" height="1.025" fill="#0f0f0f" /><rect x="10.250" y="29.725" width="1.025" height="1.025" fill="#0f0f0f" /><rect x="11.275" y="29.725" width="1.025" height="1.025" fill="#262626" /><rect x="12.300" y="29.725" width="1.025" height="1.025" fill="#262626" /><rect x="13.325" y="29.725" width="1.025" height="1.025" fill="#111111" /><rect x="20.500" y="29.725" width="1.025" height="1.025" fill="#111111" /><rect x="21.525" y="29.725" width="1.025" height="1.025" fill="#343434" /><rect x="22.550" y="29.725" width="1.025" height="1.025" fill="#0f0f0f" /><rect x="10.250" y="30.750" width="1.025" height="1.025" fill="#0f0f0f" /><rect x="11.275" y="30.750" width="1.025" height="1.025" fill="#303030" /><rect x="12.300" y="30.750" width="1.025" height="1.025" fill="#303030" /><rect x="13.325" y="30.750" width="1.025" height="1.025" fill="#303030" /><rect x="14.350" y="30.750" width="1.025" height="1.025" fill="#111111" /><rect x="20.500" y="30.750" width="1.025" height="1.025" fill="#111111" /><rect x="21.525" y="30.750" width="1.025" height="1.025" fill="#343434" /><rect x="22.550" y="30.750" width="1.025" height="1.025" fill="#0f0f0f" /><rect x="11.275" y="31.775" width="1.025" height="1.025" fill="#0f0f0f" /><rect x="12.300" y="31.775" width="1.025" height="1.025" fill="#363636" /><rect x="13.325" y="31.775" width="1.025" height="1.025" fill="#373737" /><rect x="14.350" y="31.775" width="1.025" height="1.025" fill="#111111" /><rect x="20.500" y="31.775" width="1.025" height="1.025" fill="#111111" /><rect x="21.525" y="31.775" width="1.025" height="1.025" fill="#373737" /><rect x="22.550" y="31.775" width="1.025" height="1.025" fill="#373737" /><rect x="23.575" y="31.775" width="1.025" height="1.025" fill="#0f0f0f" /><rect x="11.275" y="32.800" width="1.025" height="1.025" fill="#0f0f0f" /><rect x="12.300" y="32.800" width="1.025" height="1.025" fill="#373737" /><rect x="13.325" y="32.800" width="1.025" height="1.025" fill="#383838" /><rect x="14.350" y="32.800" width="1.025" height="1.025" fill="#383838" /><rect x="15.375" y="32.800" width="1.025" height="1.025" fill="#111111" /><rect x="19.475" y="32.800" width="1.025" height="1.025" fill="#111111" /><rect x="20.500" y="32.800" width="1.025" height="1.025" fill="#383838" /><rect x="21.525" y="32.800" width="1.025" height="1.025" fill="#383838" /><rect x="22.550" y="32.800" width="1.025" height="1.025" fill="#363636" /><rect x="23.575" y="32.800" width="1.025" height="1.025" fill="#0f0f0f" /><rect x="11.275" y="33.825" width="1.025" height="1.025" fill="#0f0f0f" /><rect x="12.300" y="33.825" width="1.025" height="1.025" fill="#373737" /><rect x="13.325" y="33.825" width="1.025" height="1.025" fill="#383838" /><rect x="14.350" y="33.825" width="1.025" height="1.025" fill="#ffffff" /><rect x="15.375" y="33.825" width="1.025" height="1.025" fill="#383838" /><rect x="16.400" y="33.825" width="1.025" height="1.025" fill="#111111" /><rect x="17.425" y="33.825" width="1.025" height="1.025" fill="#111111" /><rect x="18.450" y="33.825" width="1.025" height="1.025" fill="#111111" /><rect x="19.475" y="33.825" width="1.025" height="1.025" fill="#373737" /><rect x="20.500" y="33.825" width="1.025" height="1.025" fill="#383838" /><rect x="21.525" y="33.825" width="1.025" height="1.025" fill="#383838" /><rect x="22.550" y="33.825" width="1.025" height="1.025" fill="#bfbfbf" /><rect x="23.575" y="33.825" width="1.025" height="1.025" fill="#0f0f0f" /><rect x="11.275" y="34.850" width="1.025" height="1.025" fill="#1b1b1b" /><rect x="12.300" y="34.850" width="1.025" height="1.025" fill="#bfbfbf" /><rect x="13.325" y="34.850" width="1.025" height="1.025" fill="#383838" /><rect x="14.350" y="34.850" width="1.025" height="1.025" fill="#bfbfbf" /><rect x="15.375" y="34.850" width="1.025" height="1.025" fill="#ffffff" /><rect x="16.400" y="34.850" width="1.025" height="1.025" fill="#383838" /><rect x="17.425" y="34.850" width="1.025" height="1.025" fill="#383838" /><rect x="18.450" y="34.850" width="1.025" height="1.025" fill="#2e2e2e" /><rect x="19.475" y="34.850" width="1.025" height="1.025" fill="#343434" /><rect x="20.500" y="34.850" width="1.025" height="1.025" fill="#383838" /><rect x="21.525" y="34.850" width="1.025" height="1.025" fill="#ffffff" /><rect x="22.550" y="34.850" width="1.025" height="1.025" fill="#303030" /><rect x="23.575" y="34.850" width="1.025" height="1.025" fill="#202020" /><rect x="10.250" y="35.875" width="1.025" height="1.025" fill="#000000" /><rect x="11.275" y="35.875" width="1.025" height="1.025" fill="#0e0e0e" /><rect x="12.300" y="35.875" width="1.025" height="1.025" fill="#383838" /><rect x="13.325" y="35.875" width="1.025" height="1.025" fill="#ffffff" /><rect x="14.350" y="35.875" width="1.025" height="1.025" fill="#383838" /><rect x="15.375" y="35.875" width="1.025" height="1.025" fill="#bfbfbf" /><rect x="16.400" y="35.875" width="1.025" height="1.025" fill="#333333" /><rect x="17.425" y="35.875" width="1.025" height="1.025" fill="#333333" /><rect x="18.450" y="35.875" width="1.025" height="1.025" fill="#232323" /><rect x="19.475" y="35.875" width="1.025" height="1.025" fill="#2c2c2c" /><rect x="20.500" y="35.875" width="1.025" height="1.025" fill="#363636" /><rect x="21.525" y="35.875" width="1.025" height="1.025" fill="#bfbfbf" /><rect x="22.550" y="35.875" width="1.025" height="1.025" fill="#252525" /><rect x="23.575" y="35.875" width="1.025" height="1.025" fill="#181818" /><rect x="24.600" y="35.875" width="1.025" height="1.025" fill="#040404" /><rect x="10.250" y="36.900" width="1.025" height="1.025" fill="#000000" /><rect x="11.275" y="36.900" width="1.025" height="1.025" fill="#0f0f0f" /><rect x="12.300" y="36.900" width="1.025" height="1.025" fill="#181818" /><rect x="13.325" y="36.900" width="1.025" height="1.025" fill="#bfbfbf" /><rect x="14.350" y="36.900" width="1.025" height="1.025" fill="#383838" /><rect x="15.375" y="36.900" width="1.025" height="1.025" fill="#252525" /><rect x="16.400" y="36.900" width="1.025" height="1.025" fill="#262626" /><rect x="17.425" y="36.900" width="1.025" height="1.025" fill="#1f1f1f" /><rect x="18.450" y="36.900" width="1.025" height="1.025" fill="#1f1f1f" /><rect x="19.475" y="36.900" width="1.025" height="1.025" fill="#262626" /><rect x="20.500" y="36.900" width="1.025" height="1.025" fill="#2c2c2c" /><rect x="21.525" y="36.900" width="1.025" height="1.025" fill="#2b2b2b" /><rect x="22.550" y="36.900" width="1.025" height="1.025" fill="#252525" /><rect x="23.575" y="36.900" width="1.025" height="1.025" fill="#121212" /><rect x="24.600" y="36.900" width="1.025" height="1.025" fill="#000000" /></svg>