<svg xmlns="http://www.w3.org/2000/svg" 
    width="37.925" height="37.925" 
    style="image-rendering: pixelated; shape-rendering: crispEdges;">
    <rect x="14.350" y="2.050" width="1.025" height="1.025" fill="rgba(23,23,23,1.000)" shape-rendering="crispEdges" /><rect x="15.375" y="2.050" width="1.025" height="1.025" fill="rgba(28,28,28,1.000)" shape-rendering="crispEdges" /><rect x="16.400" y="2.050" width="1.025" height="1.025" fill="rgba(33,33,33,1.000)" shape-rendering="crispEdges" /><rect x="17.425" y="2.050" width="1.025" height="1.025" fill="rgba(249,249,249,1.000)" shape-rendering="crispEdges" /><rect x="18.450" y="2.050" width="1.025" height="1.025" fill="rgba(255,255,255,1.000)" shape-rendering="crispEdges" /><rect x="19.475" y="2.050" width="1.025" height="1.025" fill="rgba(255,255,255,1.000)" shape-rendering="crispEdges" /><rect x="20.500" y="2.050" width="1.025" height="1.025" fill="rgba(255,255,255,1.000)" shape-rendering="crispEdges" /><rect x="21.525" y="2.050" width="1.025" height="1.025" fill="rgba(255,255,255,1.000)" shape-rendering="crispEdges" /><rect x="22.550" y="2.050" width="1.025" height="1.025" fill="rgba(255,255,255,1.000)" shape-rendering="crispEdges" /><rect x="23.575" y="2.050" width="1.025" height="1.025" fill="rgba(255,255,255,1.000)" shape-rendering="crispEdges" /><rect x="13.325" y="3.075" width="1.025" height="1.025" fill="rgba(20,20,20,1.000)" shape-rendering="crispEdges" /><rect x="15.375" y="3.075" width="1.025" height="1.025" fill="rgba(32,32,32,1.000)" shape-rendering="crispEdges" /><rect x="17.425" y="3.075" width="1.025" height="1.025" fill="rgba(251,251,251,1.000)" shape-rendering="crispEdges" /><rect x="18.450" y="3.075" width="1.025" height="1.025" fill="rgba(0,255,255,1.000)" shape-rendering="crispEdges" /><rect x="19.475" y="3.075" width="1.025" height="1.025" fill="rgba(0,0,0,1.000)" shape-rendering="crispEdges" /><rect x="20.500" y="3.075" width="1.025" height="1.025" fill="rgba(255,0,0,1.000)" shape-rendering="crispEdges" /><rect x="21.525" y="3.075" width="1.025" height="1.025" fill="rgba(0,255,255,1.000)" shape-rendering="crispEdges" /><rect x="22.550" y="3.075" width="1.025" height="1.025" fill="rgba(0,0,0,1.000)" shape-rendering="crispEdges" /><rect x="23.575" y="3.075" width="1.025" height="1.025" fill="rgba(255,0,0,1.000)" shape-rendering="crispEdges" /><rect x="24.600" y="3.075" width="1.025" height="1.025" fill="rgba(239,239,239,1.000)" shape-rendering="crispEdges" /><rect x="12.300" y="4.100" width="1.025" height="1.025" fill="rgba(20,20,20,1.000)" shape-rendering="crispEdges" /><rect x="14.350" y="4.100" width="1.025" height="1.025" fill="rgba(33,33,33,1.000)" shape-rendering="crispEdges" /><rect x="15.375" y="4.100" width="1.025" height="1.025" fill="rgba(28,28,28,1.000)" shape-rendering="crispEdges" /><rect x="16.400" y="4.100" width="1.025" height="1.025" fill="rgba(235,235,235,1.000)" shape-rendering="crispEdges" /><rect x="17.425" y="4.100" width="1.025" height="1.025" fill="rgba(0,255,255,1.000)" shape-rendering="crispEdges" /><rect x="18.450" y="4.100" width="1.025" height="1.025" fill="rgba(255,0,0,1.000)" shape-rendering="crispEdges" /><rect x="19.475" y="4.100" width="1.025" height="1.025" fill="rgba(255,255,255,1.000)" shape-rendering="crispEdges" /><rect x="20.500" y="4.100" width="1.025" height="1.025" fill="rgba(0,255,255,1.000)" shape-rendering="crispEdges" /><rect x="21.525" y="4.100" width="1.025" height="1.025" fill="rgba(255,0,0,1.000)" shape-rendering="crispEdges" /><rect x="22.550" y="4.100" width="1.025" height="1.025" fill="rgba(255,255,255,1.000)" shape-rendering="crispEdges" /><rect x="23.575" y="4.100" width="1.025" height="1.025" fill="rgba(255,255,255,1.000)" shape-rendering="crispEdges" /><rect x="24.600" y="4.100" width="1.025" height="1.025" fill="rgba(249,249,249,1.000)" shape-rendering="crispEdges" /><rect x="25.625" y="4.100" width="1.025" height="1.025" fill="rgba(255,255,255,1.000)" shape-rendering="crispEdges" /><rect x="12.300" y="5.125" width="1.025" height="1.025" fill="rgba(20,20,20,1.000)" shape-rendering="crispEdges" /><rect x="13.325" y="5.125" width="1.025" height="1.025" fill="rgba(27,27,27,1.000)" shape-rendering="crispEdges" /><rect x="15.375" y="5.125" width="1.025" height="1.025" fill="rgba(41,41,41,1.000)" shape-rendering="crispEdges" /><rect x="16.400" y="5.125" width="1.025" height="1.025" fill="rgba(249,249,249,1.000)" shape-rendering="crispEdges" /><rect x="17.425" y="5.125" width="1.025" height="1.025" fill="rgba(0,255,255,1.000)" shape-rendering="crispEdges" /><rect x="18.450" y="5.125" width="1.025" height="1.025" fill="rgba(255,0,0,1.000)" shape-rendering="crispEdges" /><rect x="19.475" y="5.125" width="1.025" height="1.025" fill="rgba(255,255,255,1.000)" shape-rendering="crispEdges" /><rect x="20.500" y="5.125" width="1.025" height="1.025" fill="rgba(0,255,255,1.000)" shape-rendering="crispEdges" /><rect x="21.525" y="5.125" width="1.025" height="1.025" fill="rgba(255,0,0,1.000)" shape-rendering="crispEdges" /><rect x="22.550" y="5.125" width="1.025" height="1.025" fill="rgba(0,255,255,1.000)" shape-rendering="crispEdges" /><rect x="23.575" y="5.125" width="1.025" height="1.025" fill="rgba(0,0,0,1.000)" shape-rendering="crispEdges" /><rect x="24.600" y="5.125" width="1.025" height="1.025" fill="rgba(239,0,0,1.000)" shape-rendering="crispEdges" /><rect x="25.625" y="5.125" width="1.025" height="1.025" fill="rgba(255,255,255,1.000)" shape-rendering="crispEdges" /><rect x="12.300" y="6.150" width="1.025" height="1.025" fill="rgba(20,20,20,1.000)" shape-rendering="crispEdges" /><rect x="14.350" y="6.150" width="1.025" height="1.025" fill="rgba(33,33,33,1.000)" shape-rendering="crispEdges" /><rect x="16.400" y="6.150" width="1.025" height="1.025" fill="rgba(235,235,235,1.000)" shape-rendering="crispEdges" /><rect x="17.425" y="6.150" width="1.025" height="1.025" fill="rgba(0,255,255,1.000)" shape-rendering="crispEdges" /><rect x="18.450" y="6.150" width="1.025" height="1.025" fill="rgba(255,0,0,1.000)" shape-rendering="crispEdges" /><rect x="19.475" y="6.150" width="1.025" height="1.025" fill="rgba(255,255,255,1.000)" shape-rendering="crispEdges" /><rect x="20.500" y="6.150" width="1.025" height="1.025" fill="rgba(0,255,255,1.000)" shape-rendering="crispEdges" /><rect x="21.525" y="6.150" width="1.025" height="1.025" fill="rgba(255,0,0,1.000)" shape-rendering="crispEdges" /><rect x="22.550" y="6.150" width="1.025" height="1.025" fill="rgba(255,255,255,1.000)" shape-rendering="crispEdges" /><rect x="23.575" y="6.150" width="1.025" height="1.025" fill="rgba(0,255,255,1.000)" shape-rendering="crispEdges" /><rect x="24.600" y="6.150" width="1.025" height="1.025" fill="rgba(249,0,0,1.000)" shape-rendering="crispEdges" /><rect x="25.625" y="6.150" width="1.025" height="1.025" fill="rgba(255,255,255,1.000)" shape-rendering="crispEdges" /><rect x="12.300" y="7.175" width="1.025" height="1.025" fill="rgba(20,20,20,1.000)" shape-rendering="crispEdges" /><rect x="13.325" y="7.175" width="1.025" height="1.025" fill="rgba(27,27,27,1.000)" shape-rendering="crispEdges" /><rect x="15.375" y="7.175" width="1.025" height="1.025" fill="rgba(41,41,41,1.000)" shape-rendering="crispEdges" /><rect x="16.400" y="7.175" width="1.025" height="1.025" fill="rgba(249,249,249,1.000)" shape-rendering="crispEdges" /><rect x="17.425" y="7.175" width="1.025" height="1.025" fill="rgba(255,255,255,1.000)" shape-rendering="crispEdges" /><rect x="18.450" y="7.175" width="1.025" height="1.025" fill="rgba(0,255,255,1.000)" shape-rendering="crispEdges" /><rect x="19.475" y="7.175" width="1.025" height="1.025" fill="rgba(0,0,0,1.000)" shape-rendering="crispEdges" /><rect x="20.500" y="7.175" width="1.025" height="1.025" fill="rgba(255,0,0,1.000)" shape-rendering="crispEdges" /><rect x="21.525" y="7.175" width="1.025" height="1.025" fill="rgba(0,255,255,1.000)" shape-rendering="crispEdges" /><rect x="22.550" y="7.175" width="1.025" height="1.025" fill="rgba(0,0,0,1.000)" shape-rendering="crispEdges" /><rect x="23.575" y="7.175" width="1.025" height="1.025" fill="rgba(255,0,0,1.000)" shape-rendering="crispEdges" /><rect x="24.600" y="7.175" width="1.025" height="1.025" fill="rgba(255,255,255,1.000)" shape-rendering="crispEdges" /><rect x="25.625" y="7.175" width="1.025" height="1.025" fill="rgba(255,255,255,1.000)" shape-rendering="crispEdges" /><rect x="12.300" y="8.200" width="1.025" height="1.025" fill="rgba(20,20,20,1.000)" shape-rendering="crispEdges" /><rect x="14.350" y="8.200" width="1.025" height="1.025" fill="rgba(33,33,33,1.000)" shape-rendering="crispEdges" /><rect x="16.400" y="8.200" width="1.025" height="1.025" fill="rgba(237,237,237,1.000)" shape-rendering="crispEdges" /><rect x="17.425" y="8.200" width="1.025" height="1.025" fill="rgba(250,250,250,1.000)" shape-rendering="crispEdges" /><rect x="18.450" y="8.200" width="1.025" height="1.025" fill="rgba(49,49,49,1.000)" shape-rendering="crispEdges" /><rect x="19.475" y="8.200" width="1.025" height="1.025" fill="rgba(49,49,49,1.000)" shape-rendering="crispEdges" /><rect x="20.500" y="8.200" width="1.025" height="1.025" fill="rgba(49,49,49,1.000)" shape-rendering="crispEdges" /><rect x="21.525" y="8.200" width="1.025" height="1.025" fill="rgba(49,49,49,1.000)" shape-rendering="crispEdges" /><rect x="22.550" y="8.200" width="1.025" height="1.025" fill="rgba(49,49,49,1.000)" shape-rendering="crispEdges" /><rect x="23.575" y="8.200" width="1.025" height="1.025" fill="rgba(49,49,49,1.000)" shape-rendering="crispEdges" /><rect x="24.600" y="8.200" width="1.025" height="1.025" fill="rgba(49,49,49,1.000)" shape-rendering="crispEdges" /><rect x="25.625" y="8.200" width="1.025" height="1.025" fill="rgba(49,49,49,1.000)" shape-rendering="crispEdges" /><rect x="12.300" y="9.225" width="1.025" height="1.025" fill="rgba(21,21,21,1.000)" shape-rendering="crispEdges" /><rect x="13.325" y="9.225" width="1.025" height="1.025" fill="rgba(27,27,27,1.000)" shape-rendering="crispEdges" /><rect x="15.375" y="9.225" width="1.025" height="1.025" fill="rgba(40,40,40,1.000)" shape-rendering="crispEdges" /><rect x="16.400" y="9.225" width="1.025" height="1.025" fill="rgba(71,71,71,1.000)" shape-rendering="crispEdges" /><rect x="17.425" y="9.225" width="1.025" height="1.025" fill="rgba(71,71,71,1.000)" shape-rendering="crispEdges" /><rect x="18.450" y="9.225" width="1.025" height="1.025" fill="rgba(70,70,70,1.000)" shape-rendering="crispEdges" /><rect x="19.475" y="9.225" width="1.025" height="1.025" fill="rgba(59,59,59,1.000)" shape-rendering="crispEdges" /><rect x="20.500" y="9.225" width="1.025" height="1.025" fill="rgba(59,59,59,1.000)" shape-rendering="crispEdges" /><rect x="21.525" y="9.225" width="1.025" height="1.025" fill="rgba(59,59,59,1.000)" shape-rendering="crispEdges" /><rect x="22.550" y="9.225" width="1.025" height="1.025" fill="rgba(59,59,59,1.000)" shape-rendering="crispEdges" /><rect x="23.575" y="9.225" width="1.025" height="1.025" fill="rgba(59,59,59,1.000)" shape-rendering="crispEdges" /><rect x="24.600" y="9.225" width="1.025" height="1.025" fill="rgba(59,59,59,1.000)" shape-rendering="crispEdges" /><rect x="25.625" y="9.225" width="1.025" height="1.025" fill="rgba(59,59,59,1.000)" shape-rendering="crispEdges" /><rect x="26.650" y="9.225" width="1.025" height="1.025" fill="rgba(59,59,59,1.000)" shape-rendering="crispEdges" /><rect x="27.675" y="9.225" width="1.025" height="1.025" fill="rgba(59,59,59,1.000)" shape-rendering="crispEdges" /><rect x="28.700" y="9.225" width="1.025" height="1.025" fill="rgba(59,59,59,1.000)" shape-rendering="crispEdges" /><rect x="12.300" y="10.250" width="1.025" height="1.025" fill="rgba(21,21,21,1.000)" shape-rendering="crispEdges" /><rect x="13.325" y="10.250" width="1.025" height="1.025" fill="rgba(21,21,21,1.000)" shape-rendering="crispEdges" /><rect x="14.350" y="10.250" width="1.025" height="1.025" fill="rgba(21,21,21,1.000)" shape-rendering="crispEdges" /><rect x="15.375" y="10.250" width="1.025" height="1.025" fill="rgba(49,49,49,1.000)" shape-rendering="crispEdges" />
</svg>