<svg xmlns="http://www.w3.org/2000/svg" width="37.925" height="37.925" shape-rendering="crispEdges" style="image-rendering: pixelated;">
<rect x="5.125" y="29.725" width="1.025" height="1.025" fill="#0e0000" />
<rect x="6.150" y="29.725" width="1.025" height="1.025" fill="#0e0000" />
<rect x="7.175" y="29.725" width="1.025" height="1.025" fill="#0e0000" />
<rect x="8.200" y="29.725" width="1.025" height="1.025" fill="#0e0000" />
<rect x="9.225" y="29.725" width="1.025" height="1.025" fill="#0e0000" />
<rect x="10.250" y="29.725" width="1.025" height="1.025" fill="#0e0000" />
<rect x="11.275" y="29.725" width="1.025" height="1.025" fill="#320000" />
<rect x="12.300" y="29.725" width="1.025" height="1.025" fill="#400000" />
<rect x="13.325" y="29.725" width="1.025" height="1.025" fill="#320000" />
<rect x="14.350" y="29.725" width="1.025" height="1.025" fill="#320000" />
<rect x="20.500" y="29.725" width="1.025" height="1.025" fill="#320000" />
<rect x="21.525" y="29.725" width="1.025" height="1.025" fill="#400000" />
<rect x="22.550" y="29.725" width="1.025" height="1.025" fill="#0e0000" />
<rect x="23.575" y="29.725" width="1.025" height="1.025" fill="#0e0000" />
<rect x="24.600" y="29.725" width="1.025" height="1.025" fill="#0e0000" />
<rect x="25.625" y="29.725" width="1.025" height="1.025" fill="#0e0000" />
<rect x="26.650" y="29.725" width="1.025" height="1.025" fill="#0e0000" />
<rect x="27.675" y="29.725" width="1.025" height="1.025" fill="#0e0000" />
<rect x="4.100" y="30.750" width="1.025" height="1.025" fill="#0e0000" />
<rect x="5.125" y="30.750" width="1.025" height="1.025" fill="#320000" />
<rect x="6.150" y="30.750" width="1.025" height="1.025" fill="#fbd002" />
<rect x="7.175" y="30.750" width="1.025" height="1.025" fill="#520000" />
<rect x="8.200" y="30.750" width="1.025" height="1.025" fill="#fbd002" />
<rect x="9.225" y="30.750" width="1.025" height="1.025" fill="#0e0000" />
<rect x="10.250" y="30.750" width="1.025" height="1.025" fill="#000000" />
<rect x="11.275" y="30.750" width="1.025" height="1.025" fill="#320000" />
<rect x="12.300" y="30.750" width="1.025" height="1.025" fill="#400000" />
<rect x="13.325" y="30.750" width="1.025" height="1.025" fill="#320000" />
<rect x="14.350" y="30.750" width="1.025" height="1.025" fill="#320000" />
<rect x="15.375" y="30.750" width="1.025" height="1.025" fill="#320000" />
<rect x="16.400" y="30.750" width="1.025" height="1.025" fill="#320000" />
<rect x="17.425" y="30.750" width="1.025" height="1.025" fill="#320000" />
<rect x="18.450" y="30.750" width="1.025" height="1.025" fill="#320000" />
<rect x="19.475" y="30.750" width="1.025" height="1.025" fill="#320000" />
<rect x="20.500" y="30.750" width="1.025" height="1.025" fill="#320000" />
<rect x="21.525" y="30.750" width="1.025" height="1.025" fill="#400000" />
<rect x="22.550" y="30.750" width="1.025" height="1.025" fill="#000000" />
<rect x="23.575" y="30.750" width="1.025" height="1.025" fill="#0e0000" />
<rect x="24.600" y="30.750" width="1.025" height="1.025" fill="#4e0000" />
<rect x="25.625" y="30.750" width="1.025" height="1.025" fill="#520000" />
<rect x="26.650" y="30.750" width="1.025" height="1.025" fill="#fbd002" />
<rect x="27.675" y="30.750" width="1.025" height="1.025" fill="#320000" />
<rect x="28.700" y="30.750" width="1.025" height="1.025" fill="#0e0000" />
<rect x="4.100" y="31.775" width="1.025" height="1.025" fill="#220000" />
<rect x="5.125" y="31.775" width="1.025" height="1.025" fill="#320000" />
<rect x="6.150" y="31.775" width="1.025" height="1.025" fill="#400000" />
<rect x="7.175" y="31.775" width="1.025" height="1.025" fill="#520000" />
<rect x="8.200" y="31.775" width="1.025" height="1.025" fill="#4e0000" />
<rect x="9.225" y="31.775" width="1.025" height="1.025" fill="#0e0000" />
<rect x="10.250" y="31.775" width="1.025" height="1.025" fill="#000000" />
<rect x="11.275" y="31.775" width="1.025" height="1.025" fill="#320000" />
<rect x="12.300" y="31.775" width="1.025" height="1.025" fill="#320000" />
<rect x="13.325" y="31.775" width="1.025" height="1.025" fill="#320000" />
<rect x="14.350" y="31.775" width="1.025" height="1.025" fill="#400000" />
<rect x="15.375" y="31.775" width="1.025" height="1.025" fill="#400000" />
<rect x="16.400" y="31.775" width="1.025" height="1.025" fill="#400000" />
<rect x="17.425" y="31.775" width="1.025" height="1.025" fill="#400000" />
<rect x="18.450" y="31.775" width="1.025" height="1.025" fill="#400000" />
<rect x="19.475" y="31.775" width="1.025" height="1.025" fill="#400000" />
<rect x="20.500" y="31.775" width="1.025" height="1.025" fill="#320000" />
<rect x="21.525" y="31.775" width="1.025" height="1.025" fill="#400000" />
<rect x="22.550" y="31.775" width="1.025" height="1.025" fill="#000000" />
<rect x="23.575" y="31.775" width="1.025" height="1.025" fill="#0e0000" />
<rect x="24.600" y="31.775" width="1.025" height="1.025" fill="#4e0000" />
<rect x="25.625" y="31.775" width="1.025" height="1.025" fill="#520000" />
<rect x="26.650" y="31.775" width="1.025" height="1.025" fill="#400000" />
<rect x="27.675" y="31.775" width="1.025" height="1.025" fill="#320000" />
<rect x="28.700" y="31.775" width="1.025" height="1.025" fill="#220000" />
<rect x="3.075" y="32.800" width="1.025" height="1.025" fill="#0e0000" />
<rect x="4.100" y="32.800" width="1.025" height="1.025" fill="#0e0000" />
<rect x="5.125" y="32.800" width="1.025" height="1.025" fill="#0e0000" />
<rect x="6.150" y="32.800" width="1.025" height="1.025" fill="#0e0000" />
<rect x="7.175" y="32.800" width="1.025" height="1.025" fill="#0e0000" />
<rect x="8.200" y="32.800" width="1.025" height="1.025" fill="#0e0000" />
<rect x="9.225" y="32.800" width="1.025" height="1.025" fill="#0e0000" />
<rect x="10.250" y="32.800" width="1.025" height="1.025" fill="#320000" />
<rect x="11.275" y="32.800" width="1.025" height="1.025" fill="#520000" />
<rect x="12.300" y="32.800" width="1.025" height="1.025" fill="#400000" />
<rect x="13.325" y="32.800" width="1.025" height="1.025" fill="#320000" />
<rect x="14.350" y="32.800" width="1.025" height="1.025" fill="#400000" />
<rect x="15.375" y="32.800" width="1.025" height="1.025" fill="#400000" />
<rect x="16.400" y="32.800" width="1.025" height="1.025" fill="#400000" />
<rect x="17.425" y="32.800" width="1.025" height="1.025" fill="#400000" />
<rect x="18.450" y="32.800" width="1.025" height="1.025" fill="#400000" />
<rect x="19.475" y="32.800" width="1.025" height="1.025" fill="#400000" />
<rect x="20.500" y="32.800" width="1.025" height="1.025" fill="#320000" />
<rect x="21.525" y="32.800" width="1.025" height="1.025" fill="#400000" />
<rect x="22.550" y="32.800" width="1.025" height="1.025" fill="#320000" />
<rect x="23.575" y="32.800" width="1.025" height="1.025" fill="#0e0000" />
<rect x="24.600" y="32.800" width="1.025" height="1.025" fill="#0e0000" />
<rect x="25.625" y="32.800" width="1.025" height="1.025" fill="#0e0000" />
<rect x="26.650" y="32.800" width="1.025" height="1.025" fill="#0e0000" />
<rect x="27.675" y="32.800" width="1.025" height="1.025" fill="#0e0000" />
<rect x="28.700" y="32.800" width="1.025" height="1.025" fill="#0e0000" />
<rect x="29.725" y="32.800" width="1.025" height="1.025" fill="#0e0000" />
<rect x="3.075" y="33.825" width="1.025" height="1.025" fill="#0e0000" />
<rect x="4.100" y="33.825" width="1.025" height="1.025" fill="#fbd002" />
<rect x="5.125" y="33.825" width="1.025" height="1.025" fill="#400000" />
<rect x="6.150" y="33.825" width="1.025" height="1.025" fill="#520000" />
<rect x="7.175" y="33.825" width="1.025" height="1.025" fill="#fbd002" />
<rect x="8.200" y="33.825" width="1.025" height="1.025" fill="#220000" />
<rect x="9.225" y="33.825" width="1.025" height="1.025" fill="#0e0000" />
<rect x="11.275" y="33.825" width="1.025" height="1.025" fill="#520000" />
<rect x="12.300" y="33.825" width="1.025" height="1.025" fill="#400000" />
<rect x="13.325" y="33.825" width="1.025" height="1.025" fill="#320000" />
<rect x="14.350" y="33.825" width="1.025" height="1.025" fill="#400000" />
<rect x="15.375" y="33.825" width="1.025" height="1.025" fill="#400000" />
<rect x="16.400" y="33.825" width="1.025" height="1.025" fill="#400000" />
<rect x="17.425" y="33.825" width="1.025" height="1.025" fill="#520000" />
<rect x="18.450" y="33.825" width="1.025" height="1.025" fill="#400000" />
<rect x="19.475" y="33.825" width="1.025" height="1.025" fill="#400000" />
<rect x="20.500" y="33.825" width="1.025" height="1.025" fill="#320000" />
<rect x="21.525" y="33.825" width="1.025" height="1.025" fill="#400000" />
<rect x="22.550" y="33.825" width="1.025" height="1.025" fill="#320000" />
<rect x="23.575" y="33.825" width="1.025" height="1.025" fill="#0e0000" />
<rect x="24.600" y="33.825" width="1.025" height="1.025" fill="#220000" />
<rect x="25.625" y="33.825" width="1.025" height="1.025" fill="#4e0000" />
<rect x="26.650" y="33.825" width="1.025" height="1.025" fill="#520000" />
<rect x="27.675" y="33.825" width="1.025" height="1.025" fill="#400000" />
<rect x="28.700" y="33.825" width="1.025" height="1.025" fill="#fbd002" />
<rect x="29.725" y="33.825" width="1.025" height="1.025" fill="#0e0000" />
<rect x="3.075" y="34.850" width="1.025" height="1.025" fill="#220000" />
<rect x="4.100" y="34.850" width="1.025" height="1.025" fill="#320000" />
<rect x="5.125" y="34.850" width="1.025" height="1.025" fill="#400000" />
<rect x="6.150" y="34.850" width="1.025" height="1.025" fill="#520000" />
<rect x="7.175" y="34.850" width="1.025" height="1.025" fill="#4e0000" />
<rect x="8.200" y="34.850" width="1.025" height="1.025" fill="#220000" />
<rect x="9.225" y="34.850" width="1.025" height="1.025" fill="#0e0000" />
<rect x="11.275" y="34.850" width="1.025" height="1.025" fill="#520000" />
<rect x="12.300" y="34.850" width="1.025" height="1.025" fill="#400000" />
<rect x="13.325" y="34.850" width="1.025" height="1.025" fill="#320000" />
<rect x="14.350" y="34.850" width="1.025" height="1.025" fill="#400000" />
<rect x="15.375" y="34.850" width="1.025" height="1.025" fill="#400000" />
<rect x="16.400" y="34.850" width="1.025" height="1.025" fill="#400000" />
<rect x="17.425" y="34.850" width="1.025" height="1.025" fill="#520000" />
<rect x="18.450" y="34.850" width="1.025" height="1.025" fill="#400000" />
<rect x="19.475" y="34.850" width="1.025" height="1.025" fill="#400000" />
<rect x="20.500" y="34.850" width="1.025" height="1.025" fill="#320000" />
<rect x="21.525" y="34.850" width="1.025" height="1.025" fill="#400000" />
<rect x="22.550" y="34.850" width="1.025" height="1.025" fill="#320000" />
<rect x="23.575" y="34.850" width="1.025" height="1.025" fill="#0e0000" />
<rect x="24.600" y="34.850" width="1.025" height="1.025" fill="#220000" />
<rect x="25.625" y="34.850" width="1.025" height="1.025" fill="#4e0000" />
<rect x="26.650" y="34.850" width="1.025" height="1.025" fill="#520000" />
<rect x="27.675" y="34.850" width="1.025" height="1.025" fill="#400000" />
<rect x="28.700" y="34.850" width="1.025" height="1.025" fill="#320000" />
<rect x="29.725" y="34.850" width="1.025" height="1.025" fill="#220000" />
<rect x="2.050" y="35.875" width="1.025" height="1.025" fill="#0e0000" />
<rect x="3.075" y="35.875" width="1.025" height="1.025" fill="#0e0000" />
<rect x="4.100" y="35.875" width="1.025" height="1.025" fill="#0e0000" />
<rect x="5.125" y="35.875" width="1.025" height="1.025" fill="#0e0000" />
<rect x="6.150" y="35.875" width="1.025" height="1.025" fill="#0e0000" />
<rect x="7.175" y="35.875" width="1.025" height="1.025" fill="#0e0000" />
<rect x="8.200" y="35.875" width="1.025" height="1.025" fill="#0e0000" />
<rect x="11.275" y="35.875" width="1.025" height="1.025" fill="#520000" />
<rect x="12.300" y="35.875" width="1.025" height="1.025" fill="#400000" />
<rect x="13.325" y="35.875" width="1.025" height="1.025" fill="#320000" />
<rect x="14.350" y="35.875" width="1.025" height="1.025" fill="#400000" />
<rect x="15.375" y="35.875" width="1.025" height="1.025" fill="#400000" />
<rect x="16.400" y="35.875" width="1.025" height="1.025" fill="#400000" />
<rect x="17.425" y="35.875" width="1.025" height="1.025" fill="#400000" />
<rect x="18.450" y="35.875" width="1.025" height="1.025" fill="#520000" />
<rect x="19.475" y="35.875" width="1.025" height="1.025" fill="#400000" />
<rect x="20.500" y="35.875" width="1.025" height="1.025" fill="#320000" />
<rect x="21.525" y="35.875" width="1.025" height="1.025" fill="#400000" />
<rect x="22.550" y="35.875" width="1.025" height="1.025" fill="#320000" />
<rect x="23.575" y="35.875" width="1.025" height="1.025" fill="#0e0000" />
<rect x="24.600" y="35.875" width="1.025" height="1.025" fill="#0e0000" />
<rect x="25.625" y="35.875" width="1.025" height="1.025" fill="#0e0000" />
<rect x="26.650" y="35.875" width="1.025" height="1.025" fill="#0e0000" />
<rect x="27.675" y="35.875" width="1.025" height="1.025" fill="#0e0000" />
<rect x="28.700" y="35.875" width="1.025" height="1.025" fill="#0e0000" />
<rect x="29.725" y="35.875" width="1.025" height="1.025" fill="#0e0000" />
<rect x="30.750" y="35.875" width="1.025" height="1.025" fill="#0e0000" />
<rect x="2.050" y="36.900" width="1.025" height="1.025" fill="#0e0000" />
<rect x="3.075" y="36.900" width="1.025" height="1.025" fill="#fbd002" />
<rect x="4.100" y="36.900" width="1.025" height="1.025" fill="#400000" />
<rect x="5.125" y="36.900" width="1.025" height="1.025" fill="#4e0000" />
<rect x="6.150" y="36.900" width="1.025" height="1.025" fill="#fbd002" />
<rect x="7.175" y="36.900" width="1.025" height="1.025" fill="#220000" />
<rect x="8.200" y="36.900" width="1.025" height="1.025" fill="#0e0000" />
<rect x="11.275" y="36.900" width="1.025" height="1.025" fill="#520000" />
<rect x="12.300" y="36.900" width="1.025" height="1.025" fill="#400000" />
<rect x="13.325" y="36.900" width="1.025" height="1.025" fill="#320000" />
<rect x="14.350" y="36.900" width="1.025" height="1.025" fill="#400000" />
<rect x="15.375" y="36.900" width="1.025" height="1.025" fill="#400000" />
<rect x="16.400" y="36.900" width="1.025" height="1.025" fill="#400000" />
<rect x="17.425" y="36.900" width="1.025" height="1.025" fill="#400000" />
<rect x="18.450" y="36.900" width="1.025" height="1.025" fill="#520000" />
<rect x="19.475" y="36.900" width="1.025" height="1.025" fill="#400000" />
<rect x="20.500" y="36.900" width="1.025" height="1.025" fill="#320000" />
<rect x="21.525" y="36.900" width="1.025" height="1.025" fill="#400000" />
<rect x="22.550" y="36.900" width="1.025" height="1.025" fill="#320000" />
<rect x="23.575" y="36.900" width="1.025" height="1.025" fill="#0e0000" />
<rect x="24.600" y="36.900" width="1.025" height="1.025" fill="#0e0000" />
<rect x="25.625" y="36.900" width="1.025" height="1.025" fill="#220000" />
<rect x="26.650" y="36.900" width="1.025" height="1.025" fill="#4e0000" />
<rect x="27.675" y="36.900" width="1.025" height="1.025" fill="#520000" />
<rect x="28.700" y="36.900" width="1.025" height="1.025" fill="#400000" />
<rect x="29.725" y="36.900" width="1.025" height="1.025" fill="#fbd002" />
<rect x="30.750" y="36.900" width="1.025" height="1.025" fill="#0e0000" />
</svg>