<svg xmlns="http://www.w3.org/2000/svg" width="37.925" height="37.925" shape-rendering="crispEdges" style="image-rendering: pixelated;">
<rect x="11.275" y="29.725" width="1.025" height="1.025" fill="#5b5b5b" />
<rect x="12.300" y="29.725" width="1.025" height="1.025" fill="#7a7a7a" />
<rect x="13.325" y="29.725" width="1.025" height="1.025" fill="#7a7a7a" />
<rect x="14.350" y="29.725" width="1.025" height="1.025" fill="#797979" />
<rect x="15.375" y="29.725" width="1.025" height="1.025" fill="#797979" />
<rect x="16.400" y="29.725" width="1.025" height="1.025" fill="#8e8e8e" />
<rect x="17.425" y="29.725" width="1.025" height="1.025" fill="#8e8e8e" />
<rect x="18.450" y="29.725" width="1.025" height="1.025" fill="#727272" />
<rect x="19.475" y="29.725" width="1.025" height="1.025" fill="#727272" />
<rect x="20.500" y="29.725" width="1.025" height="1.025" fill="#5b5b5b" />
<rect x="21.525" y="29.725" width="1.025" height="1.025" fill="#5b5b5b" />
<rect x="22.550" y="29.725" width="1.025" height="1.025" fill="#5b5b5b" />
<rect x="11.275" y="30.750" width="1.025" height="1.025" fill="#626262" />
<rect x="12.300" y="30.750" width="1.025" height="1.025" fill="#797979" />
<rect x="13.325" y="30.750" width="1.025" height="1.025" fill="#e4e4e4" />
<rect x="14.350" y="30.750" width="1.025" height="1.025" fill="#f4e413" />
<rect x="15.375" y="30.750" width="1.025" height="1.025" fill="#dadada" />
<rect x="16.400" y="30.750" width="1.025" height="1.025" fill="#cccccc" />
<rect x="17.425" y="30.750" width="1.025" height="1.025" fill="#dadada" />
<rect x="18.450" y="30.750" width="1.025" height="1.025" fill="#f4e413" />
<rect x="19.475" y="30.750" width="1.025" height="1.025" fill="#dadada" />
<rect x="20.500" y="30.750" width="1.025" height="1.025" fill="#cccccc" />
<rect x="21.525" y="30.750" width="1.025" height="1.025" fill="#dadada" />
<rect x="22.550" y="30.750" width="1.025" height="1.025" fill="#f4e413" />
<rect x="23.575" y="30.750" width="1.025" height="1.025" fill="#797979" />
<rect x="11.275" y="31.775" width="1.025" height="1.025" fill="#6a6a6a" />
<rect x="12.300" y="31.775" width="1.025" height="1.025" fill="#797979" />
<rect x="13.325" y="31.775" width="1.025" height="1.025" fill="#e4e4e4" />
<rect x="14.350" y="31.775" width="1.025" height="1.025" fill="#e6e6e6" />
<rect x="15.375" y="31.775" width="1.025" height="1.025" fill="#dadada" />
<rect x="16.400" y="31.775" width="1.025" height="1.025" fill="#cccccc" />
<rect x="17.425" y="31.775" width="1.025" height="1.025" fill="#dadada" />
<rect x="18.450" y="31.775" width="1.025" height="1.025" fill="#dadada" />
<rect x="19.475" y="31.775" width="1.025" height="1.025" fill="#dadada" />
<rect x="20.500" y="31.775" width="1.025" height="1.025" fill="#cccccc" />
<rect x="21.525" y="31.775" width="1.025" height="1.025" fill="#dadada" />
<rect x="22.550" y="31.775" width="1.025" height="1.025" fill="#cccccc" />
<rect x="23.575" y="31.775" width="1.025" height="1.025" fill="#797979" />
<rect x="12.300" y="32.800" width="1.025" height="1.025" fill="#5b5b5b" />
<rect x="13.325" y="32.800" width="1.025" height="1.025" fill="#7a7a7a" />
<rect x="14.350" y="32.800" width="1.025" height="1.025" fill="#7a7a7a" />
<rect x="15.375" y="32.800" width="1.025" height="1.025" fill="#797979" />
<rect x="16.400" y="32.800" width="1.025" height="1.025" fill="#797979" />
<rect x="17.425" y="32.800" width="1.025" height="1.025" fill="#8e8e8e" />
<rect x="18.450" y="32.800" width="1.025" height="1.025" fill="#8e8e8e" />
<rect x="19.475" y="32.800" width="1.025" height="1.025" fill="#727272" />
<rect x="20.500" y="32.800" width="1.025" height="1.025" fill="#727272" />
<rect x="21.525" y="32.800" width="1.025" height="1.025" fill="#5b5b5b" />
<rect x="22.550" y="32.800" width="1.025" height="1.025" fill="#5b5b5b" />
<rect x="23.575" y="32.800" width="1.025" height="1.025" fill="#5b5b5b" />
<rect x="24.600" y="32.800" width="1.025" height="1.025" fill="#5b5b5b" />
<rect x="12.300" y="33.825" width="1.025" height="1.025" fill="#626262" />
<rect x="13.325" y="33.825" width="1.025" height="1.025" fill="#797979" />
<rect x="14.350" y="33.825" width="1.025" height="1.025" fill="#e4e4e4" />
<rect x="15.375" y="33.825" width="1.025" height="1.025" fill="#f4e413" />
<rect x="16.400" y="33.825" width="1.025" height="1.025" fill="#dadada" />
<rect x="17.425" y="33.825" width="1.025" height="1.025" fill="#e6e6e6" />
<rect x="18.450" y="33.825" width="1.025" height="1.025" fill="#e6e6e6" />
<rect x="19.475" y="33.825" width="1.025" height="1.025" fill="#f4e413" />
<rect x="20.500" y="33.825" width="1.025" height="1.025" fill="#dadada" />
<rect x="21.525" y="33.825" width="1.025" height="1.025" fill="#e6e6e6" />
<rect x="22.550" y="33.825" width="1.025" height="1.025" fill="#dadada" />
<rect x="23.575" y="33.825" width="1.025" height="1.025" fill="#f4e413" />
<rect x="24.600" y="33.825" width="1.025" height="1.025" fill="#626262" />
<rect x="12.300" y="34.850" width="1.025" height="1.025" fill="#6a6a6a" />
<rect x="13.325" y="34.850" width="1.025" height="1.025" fill="#797979" />
<rect x="14.350" y="34.850" width="1.025" height="1.025" fill="#e4e4e4" />
<rect x="15.375" y="34.850" width="1.025" height="1.025" fill="#e6e6e6" />
<rect x="16.400" y="34.850" width="1.025" height="1.025" fill="#dadada" />
<rect x="17.425" y="34.850" width="1.025" height="1.025" fill="#e6e6e6" />
<rect x="18.450" y="34.850" width="1.025" height="1.025" fill="#e6e6e6" />
<rect x="19.475" y="34.850" width="1.025" height="1.025" fill="#e6e6e6" />
<rect x="20.500" y="34.850" width="1.025" height="1.025" fill="#dadada" />
<rect x="21.525" y="34.850" width="1.025" height="1.025" fill="#e6e6e6" />
<rect x="22.550" y="34.850" width="1.025" height="1.025" fill="#dadada" />
<rect x="23.575" y="34.850" width="1.025" height="1.025" fill="#cccccc" />
<rect x="24.600" y="34.850" width="1.025" height="1.025" fill="#797979" />
<rect x="13.325" y="35.875" width="1.025" height="1.025" fill="#5b5b5b" />
<rect x="14.350" y="35.875" width="1.025" height="1.025" fill="#7a7a7a" />
<rect x="15.375" y="35.875" width="1.025" height="1.025" fill="#7a7a7a" />
<rect x="16.400" y="35.875" width="1.025" height="1.025" fill="#797979" />
<rect x="17.425" y="35.875" width="1.025" height="1.025" fill="#797979" />
<rect x="18.450" y="35.875" width="1.025" height="1.025" fill="#8e8e8e" />
<rect x="19.475" y="35.875" width="1.025" height="1.025" fill="#8e8e8e" />
<rect x="20.500" y="35.875" width="1.025" height="1.025" fill="#727272" />
<rect x="21.525" y="35.875" width="1.025" height="1.025" fill="#727272" />
<rect x="22.550" y="35.875" width="1.025" height="1.025" fill="#5b5b5b" />
<rect x="23.575" y="35.875" width="1.025" height="1.025" fill="#5b5b5b" />
<rect x="24.600" y="35.875" width="1.025" height="1.025" fill="#5b5b5b" />
<rect x="25.625" y="35.875" width="1.025" height="1.025" fill="#5b5b5b" />
<rect x="13.325" y="36.900" width="1.025" height="1.025" fill="#6a6a6a" />
<rect x="14.350" y="36.900" width="1.025" height="1.025" fill="#797979" />
<rect x="15.375" y="36.900" width="1.025" height="1.025" fill="#e4e4e4" />
<rect x="16.400" y="36.900" width="1.025" height="1.025" fill="#e6e6e6" />
<rect x="17.425" y="36.900" width="1.025" height="1.025" fill="#f4e413" />
<rect x="18.450" y="36.900" width="1.025" height="1.025" fill="#e4e4e4" />
<rect x="19.475" y="36.900" width="1.025" height="1.025" fill="#e4e4e4" />
<rect x="20.500" y="36.900" width="1.025" height="1.025" fill="#e6e6e6" />
<rect x="21.525" y="36.900" width="1.025" height="1.025" fill="#f4e413" />
<rect x="22.550" y="36.900" width="1.025" height="1.025" fill="#e6e6e6" />
<rect x="23.575" y="36.900" width="1.025" height="1.025" fill="#dadada" />
<rect x="24.600" y="36.900" width="1.025" height="1.025" fill="#f4e413" />
<rect x="25.625" y="36.900" width="1.025" height="1.025" fill="#6a6a6a" />
</svg>