<svg xmlns="http://www.w3.org/2000/svg" width="37.925" height="37.925" shape-rendering="crispEdges" style="image-rendering: pixelated;">
<rect x="13.325" y="14.350" width="1.025" height="1.025" fill="#530b21" />
<rect x="13.325" y="15.375" width="1.025" height="1.025" fill="#530b21" />
<rect x="14.350" y="15.375" width="1.025" height="1.025" fill="#301120" />
<rect x="13.325" y="16.400" width="1.025" height="1.025" fill="#530b21" />
<rect x="14.350" y="16.400" width="1.025" height="1.025" fill="#301120" />
<rect x="19.475" y="16.400" width="1.025" height="1.025" fill="#12050f" />
<rect x="20.500" y="16.400" width="1.025" height="1.025" fill="#540a23" />
<rect x="21.525" y="16.400" width="1.025" height="1.025" fill="#7e0f1f" />
<rect x="22.550" y="16.400" width="1.025" height="1.025" fill="#12050f" />
<rect x="13.325" y="17.425" width="1.025" height="1.025" fill="#530b21" />
<rect x="14.350" y="17.425" width="1.025" height="1.025" fill="#530b21" />
<rect x="15.375" y="17.425" width="1.025" height="1.025" fill="#7f0e20" />
<rect x="16.400" y="17.425" width="1.025" height="1.025" fill="#11050f" />
<rect x="17.425" y="17.425" width="1.025" height="1.025" fill="#11050f" />
<rect x="18.450" y="17.425" width="1.025" height="1.025" fill="#10060f" />
<rect x="19.475" y="17.425" width="1.025" height="1.025" fill="#810421" />
<rect x="20.500" y="17.425" width="1.025" height="1.025" fill="#ff242b" />
<rect x="21.525" y="17.425" width="1.025" height="1.025" fill="#ff242b" />
<rect x="22.550" y="17.425" width="1.025" height="1.025" fill="#ff242b" />
<rect x="23.575" y="17.425" width="1.025" height="1.025" fill="#12050f" />
<rect x="24.600" y="17.425" width="1.025" height="1.025" fill="#12050f" />
<rect x="13.325" y="18.450" width="1.025" height="1.025" fill="#311120" />
<rect x="14.350" y="18.450" width="1.025" height="1.025" fill="#530b21" />
<rect x="15.375" y="18.450" width="1.025" height="1.025" fill="#510c1f" />
<rect x="16.400" y="18.450" width="1.025" height="1.025" fill="#7f101e" />
<rect x="17.425" y="18.450" width="1.025" height="1.025" fill="#a9121f" />
<rect x="18.450" y="18.450" width="1.025" height="1.025" fill="#a8131e" />
<rect x="19.475" y="18.450" width="1.025" height="1.025" fill="#7f0522" />
<rect x="20.500" y="18.450" width="1.025" height="1.025" fill="#7f0522" />
<rect x="21.525" y="18.450" width="1.025" height="1.025" fill="#ff242b" />
<rect x="22.550" y="18.450" width="1.025" height="1.025" fill="#ff242b" />
<rect x="23.575" y="18.450" width="1.025" height="1.025" fill="#d3171b" />
<rect x="24.600" y="18.450" width="1.025" height="1.025" fill="#d3171b" />
<rect x="14.350" y="19.475" width="1.025" height="1.025" fill="#301120" />
<rect x="15.375" y="19.475" width="1.025" height="1.025" fill="#530b21" />
<rect x="16.400" y="19.475" width="1.025" height="1.025" fill="#11050f" />
<rect x="17.425" y="19.475" width="1.025" height="1.025" fill="#11050f" />
<rect x="18.450" y="19.475" width="1.025" height="1.025" fill="#cb7178" />
<rect x="19.475" y="19.475" width="1.025" height="1.025" fill="#e1dfdf" fill-opacity="0.898" />
<rect x="20.500" y="19.475" width="1.025" height="1.025" fill="#c9c6c6" fill-opacity="0.827" />
<rect x="21.525" y="19.475" width="1.025" height="1.025" fill="#f4f4f4" fill-opacity="0.910" />
<rect x="22.550" y="19.475" width="1.025" height="1.025" fill="#f4f4f4" fill-opacity="0.910" />
<rect x="23.575" y="19.475" width="1.025" height="1.025" fill="#ffd0d1" />
<rect x="24.600" y="19.475" width="1.025" height="1.025" fill="#7e0f1f" />
<rect x="15.375" y="20.500" width="1.025" height="1.025" fill="#530b21" />
<rect x="16.400" y="20.500" width="1.025" height="1.025" fill="#530b21" />
<rect x="17.425" y="20.500" width="1.025" height="1.025" fill="#11050f" />
<rect x="18.450" y="20.500" width="1.025" height="1.025" fill="#b4b0b0" fill-opacity="0.580" />
<rect x="21.525" y="20.500" width="1.025" height="1.025" fill="#11050f" />
<rect x="23.575" y="20.500" width="1.025" height="1.025" fill="#ffffff" fill-opacity="0.871" />
<rect x="24.600" y="20.500" width="1.025" height="1.025" fill="#530b21" />
<rect x="15.375" y="21.525" width="1.025" height="1.025" fill="#301120" />
<rect x="16.400" y="21.525" width="1.025" height="1.025" fill="#530b21" />
<rect x="17.425" y="21.525" width="1.025" height="1.025" fill="#7e0f1f" />
<rect x="18.450" y="21.525" width="1.025" height="1.025" fill="#0e0000" fill-opacity="0.302" />
<rect x="24.600" y="21.525" width="1.025" height="1.025" fill="#530b21" />
<rect x="16.400" y="22.550" width="1.025" height="1.025" fill="#530b21" />
<rect x="17.425" y="22.550" width="1.025" height="1.025" fill="#7e0f1f" />
<rect x="18.450" y="22.550" width="1.025" height="1.025" fill="#a8131e" />
<rect x="19.475" y="22.550" width="1.025" height="1.025" fill="#7e0f1f" />
<rect x="20.500" y="22.550" width="1.025" height="1.025" fill="#7e0f1f" />
<rect x="21.525" y="22.550" width="1.025" height="1.025" fill="#7e0f1f" />
<rect x="22.550" y="22.550" width="1.025" height="1.025" fill="#7e0f1f" />
<rect x="23.575" y="22.550" width="1.025" height="1.025" fill="#d4171b" />
<rect x="24.600" y="22.550" width="1.025" height="1.025" fill="#a8131e" />
<rect x="17.425" y="23.575" width="1.025" height="1.025" fill="#530b21" />
<rect x="18.450" y="23.575" width="1.025" height="1.025" fill="#a8131e" />
<rect x="19.475" y="23.575" width="1.025" height="1.025" fill="#d3171b" />
<rect x="20.500" y="23.575" width="1.025" height="1.025" fill="#ff242b" />
<rect x="21.525" y="23.575" width="1.025" height="1.025" fill="#ff242b" />
<rect x="22.550" y="23.575" width="1.025" height="1.025" fill="#ff242d" />
<rect x="23.575" y="23.575" width="1.025" height="1.025" fill="#d4171b" />
</svg>