<svg xmlns="http://www.w3.org/2000/svg" width="37.925" height="37.925" shape-rendering="crispEdges" style="image-rendering: pixelated;">
<rect x="13.325" y="14.350" width="1.025" height="1.025" fill="#a2a2a2" />
<rect x="13.325" y="15.375" width="1.025" height="1.025" fill="#a2a2a2" />
<rect x="14.350" y="15.375" width="1.025" height="1.025" fill="#8a8a8a" />
<rect x="13.325" y="16.400" width="1.025" height="1.025" fill="#a2a2a2" />
<rect x="14.350" y="16.400" width="1.025" height="1.025" fill="#8a8a8a" />
<rect x="19.475" y="16.400" width="1.025" height="1.025" fill="#535353" />
<rect x="20.500" y="16.400" width="1.025" height="1.025" fill="#a2a2a2" />
<rect x="21.525" y="16.400" width="1.025" height="1.025" fill="#bebebe" />
<rect x="22.550" y="16.400" width="1.025" height="1.025" fill="#535353" />
<rect x="13.325" y="17.425" width="1.025" height="1.025" fill="#a2a2a2" />
<rect x="14.350" y="17.425" width="1.025" height="1.025" fill="#a2a2a2" />
<rect x="15.375" y="17.425" width="1.025" height="1.025" fill="#bebebe" />
<rect x="16.400" y="17.425" width="1.025" height="1.025" fill="#535353" />
<rect x="17.425" y="17.425" width="1.025" height="1.025" fill="#535353" />
<rect x="18.450" y="17.425" width="1.025" height="1.025" fill="#535353" />
<rect x="19.475" y="17.425" width="1.025" height="1.025" fill="#bababa" />
<rect x="20.500" y="17.425" width="1.025" height="1.025" fill="#ffffff" />
<rect x="21.525" y="17.425" width="1.025" height="1.025" fill="#ffffff" />
<rect x="22.550" y="17.425" width="1.025" height="1.025" fill="#ffffff" />
<rect x="23.575" y="17.425" width="1.025" height="1.025" fill="#535353" />
<rect x="24.600" y="17.425" width="1.025" height="1.025" fill="#535353" />
<rect x="13.325" y="18.450" width="1.025" height="1.025" fill="#8c8c8c" />
<rect x="14.350" y="18.450" width="1.025" height="1.025" fill="#a2a2a2" />
<rect x="15.375" y="18.450" width="1.025" height="1.025" fill="#a1a1a1" />
<rect x="16.400" y="18.450" width="1.025" height="1.025" fill="#bfbfbf" />
<rect x="17.425" y="18.450" width="1.025" height="1.025" fill="#d5d5d5" />
<rect x="18.450" y="18.450" width="1.025" height="1.025" fill="#d5d5d5" />
<rect x="19.475" y="18.450" width="1.025" height="1.025" fill="#bababa" />
<rect x="20.500" y="18.450" width="1.025" height="1.025" fill="#bababa" />
<rect x="21.525" y="18.450" width="1.025" height="1.025" fill="#ffffff" />
<rect x="22.550" y="18.450" width="1.025" height="1.025" fill="#ffffff" />
<rect x="23.575" y="18.450" width="1.025" height="1.025" fill="#eaeaea" />
<rect x="24.600" y="18.450" width="1.025" height="1.025" fill="#eaeaea" />
<rect x="14.350" y="19.475" width="1.025" height="1.025" fill="#8a8a8a" />
<rect x="15.375" y="19.475" width="1.025" height="1.025" fill="#a2a2a2" />
<rect x="16.400" y="19.475" width="1.025" height="1.025" fill="#535353" />
<rect x="17.425" y="19.475" width="1.025" height="1.025" fill="#535353" />
<rect x="18.450" y="19.475" width="1.025" height="1.025" fill="#ffffff" />
<rect x="19.475" y="19.475" width="1.025" height="1.025" fill="#ffffff" fill-opacity="0.898" />
<rect x="20.500" y="19.475" width="1.025" height="1.025" fill="#ffffff" fill-opacity="0.827" />
<rect x="21.525" y="19.475" width="1.025" height="1.025" fill="#ffffff" fill-opacity="0.910" />
<rect x="22.550" y="19.475" width="1.025" height="1.025" fill="#ffffff" fill-opacity="0.910" />
<rect x="23.575" y="19.475" width="1.025" height="1.025" fill="#ffffff" />
<rect x="24.600" y="19.475" width="1.025" height="1.025" fill="#bebebe" />
<rect x="15.375" y="20.500" width="1.025" height="1.025" fill="#a2a2a2" />
<rect x="16.400" y="20.500" width="1.025" height="1.025" fill="#a2a2a2" />
<rect x="17.425" y="20.500" width="1.025" height="1.025" fill="#535353" />
<rect x="18.450" y="20.500" width="1.025" height="1.025" fill="#ffffff" fill-opacity="0.580" />
<rect x="21.525" y="20.500" width="1.025" height="1.025" fill="#535353" />
<rect x="23.575" y="20.500" width="1.025" height="1.025" fill="#ffffff" fill-opacity="0.871" />
<rect x="24.600" y="20.500" width="1.025" height="1.025" fill="#a2a2a2" />
<rect x="15.375" y="21.525" width="1.025" height="1.025" fill="#8a8a8a" />
<rect x="16.400" y="21.525" width="1.025" height="1.025" fill="#a2a2a2" />
<rect x="17.425" y="21.525" width="1.025" height="1.025" fill="#bebebe" />
<rect x="18.450" y="21.525" width="1.025" height="1.025" fill="#3a3a3a" fill-opacity="0.302" />
<rect x="24.600" y="21.525" width="1.025" height="1.025" fill="#a2a2a2" />
<rect x="16.400" y="22.550" width="1.025" height="1.025" fill="#a2a2a2" />
<rect x="17.425" y="22.550" width="1.025" height="1.025" fill="#bebebe" />
<rect x="18.450" y="22.550" width="1.025" height="1.025" fill="#d5d5d5" />
<rect x="19.475" y="22.550" width="1.025" height="1.025" fill="#bebebe" />
<rect x="20.500" y="22.550" width="1.025" height="1.025" fill="#bebebe" />
<rect x="21.525" y="22.550" width="1.025" height="1.025" fill="#bebebe" />
<rect x="22.550" y="22.550" width="1.025" height="1.025" fill="#bebebe" />
<rect x="23.575" y="22.550" width="1.025" height="1.025" fill="#eaeaea" />
<rect x="24.600" y="22.550" width="1.025" height="1.025" fill="#d5d5d5" />
<rect x="17.425" y="23.575" width="1.025" height="1.025" fill="#a2a2a2" />
<rect x="18.450" y="23.575" width="1.025" height="1.025" fill="#d5d5d5" />
<rect x="19.475" y="23.575" width="1.025" height="1.025" fill="#eaeaea" />
<rect x="20.500" y="23.575" width="1.025" height="1.025" fill="#ffffff" />
<rect x="21.525" y="23.575" width="1.025" height="1.025" fill="#ffffff" />
<rect x="22.550" y="23.575" width="1.025" height="1.025" fill="#ffffff" />
<rect x="23.575" y="23.575" width="1.025" height="1.025" fill="#eaeaea" />
</svg>