<svg xmlns="http://www.w3.org/2000/svg" width="37.925" height="37.925" shape-rendering="crispEdges" style="image-rendering: pixelated;">
<rect x="13.325" y="4.100" width="1.025" height="1.025" fill="#d3d3d3" fill-opacity="0.659" />
<rect x="28.700" y="4.100" width="1.025" height="1.025" fill="#8c8c8c" />
<rect x="13.325" y="5.125" width="1.025" height="1.025" fill="#8c8c8c" />
<rect x="28.700" y="5.125" width="1.025" height="1.025" fill="#8c8c8c" />
<rect x="13.325" y="6.150" width="1.025" height="1.025" fill="#8c8c8c" />
<rect x="14.350" y="6.150" width="1.025" height="1.025" fill="#d3d3d3" />
<rect x="15.375" y="6.150" width="1.025" height="1.025" fill="#b3b3b3" />
<rect x="27.675" y="6.150" width="1.025" height="1.025" fill="#8c8c8c" />
<rect x="28.700" y="6.150" width="1.025" height="1.025" fill="#d3d3d3" />
<rect x="14.350" y="7.175" width="1.025" height="1.025" fill="#8c8c8c" />
<rect x="15.375" y="7.175" width="1.025" height="1.025" fill="#b3b3b3" />
<rect x="16.400" y="7.175" width="1.025" height="1.025" fill="#181818" />
<rect x="17.425" y="7.175" width="1.025" height="1.025" fill="#0c1a0e" />
<rect x="18.450" y="7.175" width="1.025" height="1.025" fill="#080a08" />
<rect x="19.475" y="7.175" width="1.025" height="1.025" fill="#070807" />
<rect x="20.500" y="7.175" width="1.025" height="1.025" fill="#0b0c0b" />
<rect x="21.525" y="7.175" width="1.025" height="1.025" fill="#177624" />
<rect x="22.550" y="7.175" width="1.025" height="1.025" fill="#030303" />
<rect x="23.575" y="7.175" width="1.025" height="1.025" fill="#040805" />
<rect x="24.600" y="7.175" width="1.025" height="1.025" fill="#000000" fill-opacity="0.302" />
<rect x="26.650" y="7.175" width="1.025" height="1.025" fill="#8c8c8c" />
<rect x="27.675" y="7.175" width="1.025" height="1.025" fill="#d3d3d3" />
<rect x="28.700" y="7.175" width="1.025" height="1.025" fill="#d3d3d3" />
<rect x="14.350" y="8.200" width="1.025" height="1.025" fill="#131313" />
<rect x="15.375" y="8.200" width="1.025" height="1.025" fill="#8c8c8c" />
<rect x="16.400" y="8.200" width="1.025" height="1.025" fill="#b3b3b3" />
<rect x="17.425" y="8.200" width="1.025" height="1.025" fill="#b3b3b3" />
<rect x="18.450" y="8.200" width="1.025" height="1.025" fill="#030403" />
<rect x="19.475" y="8.200" width="1.025" height="1.025" fill="#020703" />
<rect x="20.500" y="8.200" width="1.025" height="1.025" fill="#08190a" />
<rect x="21.525" y="8.200" width="1.025" height="1.025" fill="#187b25" />
<rect x="22.550" y="8.200" width="1.025" height="1.025" fill="#0e0e0e" />
<rect x="23.575" y="8.200" width="1.025" height="1.025" fill="#030403" />
<rect x="24.600" y="8.200" width="1.025" height="1.025" fill="#000200" />
<rect x="25.625" y="8.200" width="1.025" height="1.025" fill="#8c8c8c" />
<rect x="26.650" y="8.200" width="1.025" height="1.025" fill="#b3b3b3" />
<rect x="27.675" y="8.200" width="1.025" height="1.025" fill="#d3d3d3" />
<rect x="15.375" y="9.225" width="1.025" height="1.025" fill="#8c8c8c" />
<rect x="16.400" y="9.225" width="1.025" height="1.025" fill="#8c8c8c" />
<rect x="17.425" y="9.225" width="1.025" height="1.025" fill="#8c8c8c" />
<rect x="18.450" y="9.225" width="1.025" height="1.025" fill="#040805" />
<rect x="19.475" y="9.225" width="1.025" height="1.025" fill="#0b1a0d" />
<rect x="20.500" y="9.225" width="1.025" height="1.025" fill="#187d25" />
<rect x="21.525" y="9.225" width="1.025" height="1.025" fill="#187b25" />
<rect x="22.550" y="9.225" width="1.025" height="1.025" fill="#010301" />
<rect x="23.575" y="9.225" width="1.025" height="1.025" fill="#030303" />
<rect x="24.600" y="9.225" width="1.025" height="1.025" fill="#000100" />
<rect x="25.625" y="9.225" width="1.025" height="1.025" fill="#8c8c8c" />
<rect x="26.650" y="9.225" width="1.025" height="1.025" fill="#b3b3b3" />
<rect x="15.375" y="10.250" width="1.025" height="1.025" fill="#191c19" />
<rect x="16.400" y="10.250" width="1.025" height="1.025" fill="#0e0f0e" />
<rect x="17.425" y="10.250" width="1.025" height="1.025" fill="#040c05" />
<rect x="18.450" y="10.250" width="1.025" height="1.025" fill="#051407" />
<rect x="19.475" y="10.250" width="1.025" height="1.025" fill="#0e4916" />
<rect x="20.500" y="10.250" width="1.025" height="1.025" fill="#187b25" />
<rect x="21.525" y="10.250" width="1.025" height="1.025" fill="#187b25" />
<rect x="22.550" y="10.250" width="1.025" height="1.025" fill="#187624" />
<rect x="23.575" y="10.250" width="1.025" height="1.025" fill="#030f05" />
<rect x="24.600" y="10.250" width="1.025" height="1.025" fill="#000000" />
<rect x="25.625" y="10.250" width="1.025" height="1.025" fill="#0b0c0b" />
<rect x="26.650" y="10.250" width="1.025" height="1.025" fill="#000000" fill-opacity="0.302" />
<rect x="15.375" y="11.275" width="1.025" height="1.025" fill="#0f1310" />
<rect x="16.400" y="11.275" width="1.025" height="1.025" fill="#152717" />
<rect x="17.425" y="11.275" width="1.025" height="1.025" fill="#193a1d" />
<rect x="18.450" y="11.275" width="1.025" height="1.025" fill="#080808" />
<rect x="19.475" y="11.275" width="1.025" height="1.025" fill="#080808" />
<rect x="20.500" y="11.275" width="1.025" height="1.025" fill="#080808" />
<rect x="21.525" y="11.275" width="1.025" height="1.025" fill="#187b25" />
<rect x="22.550" y="11.275" width="1.025" height="1.025" fill="#187b25" />
<rect x="23.575" y="11.275" width="1.025" height="1.025" fill="#080808" />
<rect x="24.600" y="11.275" width="1.025" height="1.025" fill="#080808" />
<rect x="25.625" y="11.275" width="1.025" height="1.025" fill="#1a1a1a" />
<rect x="26.650" y="11.275" width="1.025" height="1.025" fill="#050505" fill-opacity="0.302" />
<rect x="15.375" y="12.300" width="1.025" height="1.025" fill="#041606" />
<rect x="16.400" y="12.300" width="1.025" height="1.025" fill="#0d2f12" />
<rect x="17.425" y="12.300" width="1.025" height="1.025" fill="#080808" />
<rect x="18.450" y="12.300" width="1.025" height="1.025" fill="#198027" />
<rect x="19.475" y="12.300" width="1.025" height="1.025" fill="#198027" />
<rect x="20.500" y="12.300" width="1.025" height="1.025" fill="#187b25" />
<rect x="21.525" y="12.300" width="1.025" height="1.025" fill="#177624" />
<rect x="22.550" y="12.300" width="1.025" height="1.025" fill="#187a25" />
<rect x="23.575" y="12.300" width="1.025" height="1.025" fill="#198027" />
<rect x="24.600" y="12.300" width="1.025" height="1.025" fill="#198027" />
<rect x="25.625" y="12.300" width="1.025" height="1.025" fill="#080808" />
<rect x="14.350" y="13.325" width="1.025" height="1.025" fill="#000000" />
<rect x="15.375" y="13.325" width="1.025" height="1.025" fill="#177624" />
<rect x="16.400" y="13.325" width="1.025" height="1.025" fill="#177624" />
<rect x="17.425" y="13.325" width="1.025" height="1.025" fill="#198027" />
<rect x="18.450" y="13.325" width="1.025" height="1.025" fill="#e30613" />
<rect x="19.475" y="13.325" width="1.025" height="1.025" fill="#e30613" />
<rect x="20.500" y="13.325" width="1.025" height="1.025" fill="#187b25" />
<rect x="21.525" y="13.325" width="1.025" height="1.025" fill="#156a20" />
<rect x="22.550" y="13.325" width="1.025" height="1.025" fill="#157021" />
<rect x="23.575" y="13.325" width="1.025" height="1.025" fill="#e30613" />
<rect x="24.600" y="13.325" width="1.025" height="1.025" fill="#e30613" />
<rect x="25.625" y="13.325" width="1.025" height="1.025" fill="#187b25" />
<rect x="14.350" y="14.350" width="1.025" height="1.025" fill="#000000" />
<rect x="15.375" y="14.350" width="1.025" height="1.025" fill="#12551b" />
<rect x="16.400" y="14.350" width="1.025" height="1.025" fill="#177624" />
<rect x="17.425" y="14.350" width="1.025" height="1.025" fill="#e30613" />
<rect x="18.450" y="14.350" width="1.025" height="1.025" fill="#0d0d0d" />
<rect x="19.475" y="14.350" width="1.025" height="1.025" fill="#ffffff" />
<rect x="20.500" y="14.350" width="1.025" height="1.025" fill="#e30613" />
<rect x="21.525" y="14.350" width="1.025" height="1.025" fill="#177523" />
<rect x="22.550" y="14.350" width="1.025" height="1.025" fill="#e30613" />
<rect x="23.575" y="14.350" width="1.025" height="1.025" fill="#0d0d0d" />
<rect x="24.600" y="14.350" width="1.025" height="1.025" fill="#ffffff" />
<rect x="25.625" y="14.350" width="1.025" height="1.025" fill="#e30613" />
<rect x="12.300" y="15.375" width="1.025" height="1.025" fill="#e30613" />
<rect x="13.325" y="15.375" width="1.025" height="1.025" fill="#e30613" />
<rect x="14.350" y="15.375" width="1.025" height="1.025" fill="#000000" />
<rect x="15.375" y="15.375" width="1.025" height="1.025" fill="#12551b" />
<rect x="16.400" y="15.375" width="1.025" height="1.025" fill="#177523" />
<rect x="17.425" y="15.375" width="1.025" height="1.025" fill="#177523" />
<rect x="18.450" y="15.375" width="1.025" height="1.025" fill="#198f56" />
<rect x="19.475" y="15.375" width="1.025" height="1.025" fill="#198f56" />
<rect x="20.500" y="15.375" width="1.025" height="1.025" fill="#187b25" />
<rect x="21.525" y="15.375" width="1.025" height="1.025" fill="#187b25" />
<rect x="22.550" y="15.375" width="1.025" height="1.025" fill="#156820" />
<rect x="23.575" y="15.375" width="1.025" height="1.025" fill="#198f56" />
<rect x="24.600" y="15.375" width="1.025" height="1.025" fill="#198f56" />
<rect x="25.625" y="15.375" width="1.025" height="1.025" fill="#187a25" />
<rect x="11.275" y="16.400" width="1.025" height="1.025" fill="#e30613" />
<rect x="14.350" y="16.400" width="1.025" height="1.025" fill="#000000" />
<rect x="15.375" y="16.400" width="1.025" height="1.025" fill="#12551b" />
<rect x="16.400" y="16.400" width="1.025" height="1.025" fill="#167222" />
<rect x="17.425" y="16.400" width="1.025" height="1.025" fill="#167222" />
<rect x="18.450" y="16.400" width="1.025" height="1.025" fill="#187b25" />
<rect x="19.475" y="16.400" width="1.025" height="1.025" fill="#187b25" />
<rect x="20.500" y="16.400" width="1.025" height="1.025" fill="#187b25" />
<rect x="21.525" y="16.400" width="1.025" height="1.025" fill="#187b25" />
<rect x="22.550" y="16.400" width="1.025" height="1.025" fill="#0d3713" />
<rect x="23.575" y="16.400" width="1.025" height="1.025" fill="#187b25" />
<rect x="24.600" y="16.400" width="1.025" height="1.025" fill="#187a25" />
<rect x="25.625" y="16.400" width="1.025" height="1.025" fill="#187a25" />
<rect x="10.250" y="17.425" width="1.025" height="1.025" fill="#e30613" />
<rect x="14.350" y="17.425" width="1.025" height="1.025" fill="#000000" />
<rect x="15.375" y="17.425" width="1.025" height="1.025" fill="#12551b" />
<rect x="16.400" y="17.425" width="1.025" height="1.025" fill="#156d21" />
<rect x="17.425" y="17.425" width="1.025" height="1.025" fill="#187b25" />
<rect x="18.450" y="17.425" width="1.025" height="1.025" fill="#187b25" />
<rect x="19.475" y="17.425" width="1.025" height="1.025" fill="#187b25" />
<rect x="20.500" y="17.425" width="1.025" height="1.025" fill="#187b25" />
<rect x="21.525" y="17.425" width="1.025" height="1.025" fill="#187b25" />
<rect x="22.550" y="17.425" width="1.025" height="1.025" fill="#0c3311" />
<rect x="23.575" y="17.425" width="1.025" height="1.025" fill="#11541a" />
<rect x="24.600" y="17.425" width="1.025" height="1.025" fill="#187a25" />
<rect x="25.625" y="17.425" width="1.025" height="1.025" fill="#187b25" />
<rect x="10.250" y="18.450" width="1.025" height="1.025" fill="#e30613" />
<rect x="14.350" y="18.450" width="1.025" height="1.025" fill="#000000" />
<rect x="15.375" y="18.450" width="1.025" height="1.025" fill="#12551b" />
<rect x="16.400" y="18.450" width="1.025" height="1.025" fill="#156f21" />
<rect x="17.425" y="18.450" width="1.025" height="1.025" fill="#157021" />
<rect x="18.450" y="18.450" width="1.025" height="1.025" fill="#79a67f" />
<rect x="19.475" y="18.450" width="1.025" height="1.025" fill="#187b25" />
<rect x="20.500" y="18.450" width="1.025" height="1.025" fill="#187b25" />
<rect x="21.525" y="18.450" width="1.025" height="1.025" fill="#e30613" />
<rect x="22.550" y="18.450" width="1.025" height="1.025" fill="#e30613" />
<rect x="23.575" y="18.450" width="1.025" height="1.025" fill="#e30613" />
<rect x="24.600" y="18.450" width="1.025" height="1.025" fill="#187b25" />
<rect x="25.625" y="18.450" width="1.025" height="1.025" fill="#79a67f" />
<rect x="14.350" y="19.475" width="1.025" height="1.025" fill="#000000" />
<rect x="15.375" y="19.475" width="1.025" height="1.025" fill="#135c1d" />
<rect x="16.400" y="19.475" width="1.025" height="1.025" fill="#156d21" />
<rect x="17.425" y="19.475" width="1.025" height="1.025" fill="#157021" />
<rect x="18.450" y="19.475" width="1.025" height="1.025" fill="#0d0d0d" />
<rect x="19.475" y="19.475" width="1.025" height="1.025" fill="#d9d9d9" />
<rect x="20.500" y="19.475" width="1.025" height="1.025" fill="#9fc7bc" />
<rect x="21.525" y="19.475" width="1.025" height="1.025" fill="#738e87" />
<rect x="22.550" y="19.475" width="1.025" height="1.025" fill="#9fc7bc" />
<rect x="23.575" y="19.475" width="1.025" height="1.025" fill="#738e87" />
<rect x="24.600" y="19.475" width="1.025" height="1.025" fill="#9fc7bc" />
<rect x="25.625" y="19.475" width="1.025" height="1.025" fill="#d9d9d9" />
<rect x="14.350" y="20.500" width="1.025" height="1.025" fill="#000000" />
<rect x="15.375" y="20.500" width="1.025" height="1.025" fill="#135c1d" />
<rect x="16.400" y="20.500" width="1.025" height="1.025" fill="#156a20" />
<rect x="17.425" y="20.500" width="1.025" height="1.025" fill="#157021" />
<rect x="18.450" y="20.500" width="1.025" height="1.025" fill="#0d0d0d" />
<rect x="19.475" y="20.500" width="1.025" height="1.025" fill="#d9d9d9" />
<rect x="20.500" y="20.500" width="1.025" height="1.025" fill="#0d0d0d" />
<rect x="21.525" y="20.500" width="1.025" height="1.025" fill="#0d0d0d" />
<rect x="22.550" y="20.500" width="1.025" height="1.025" fill="#0d0d0d" />
<rect x="23.575" y="20.500" width="1.025" height="1.025" fill="#0d0d0d" />
<rect x="24.600" y="20.500" width="1.025" height="1.025" fill="#0d0d0d" />
<rect x="25.625" y="20.500" width="1.025" height="1.025" fill="#d9d9d9" />
<rect x="14.350" y="21.525" width="1.025" height="1.025" fill="#000000" />
<rect x="15.375" y="21.525" width="1.025" height="1.025" fill="#135c1d" />
<rect x="16.400" y="21.525" width="1.025" height="1.025" fill="#14641f" />
<rect x="17.425" y="21.525" width="1.025" height="1.025" fill="#156d21" />
<rect x="18.450" y="21.525" width="1.025" height="1.025" fill="#157021" />
<rect x="19.475" y="21.525" width="1.025" height="1.025" fill="#79a67f" />
<rect x="20.500" y="21.525" width="1.025" height="1.025" fill="#0d0d0d" />
<rect x="21.525" y="21.525" width="1.025" height="1.025" fill="#d9d9d9" />
<rect x="22.550" y="21.525" width="1.025" height="1.025" fill="#0d0d0d" />
<rect x="23.575" y="21.525" width="1.025" height="1.025" fill="#d9d9d9" />
<rect x="24.600" y="21.525" width="1.025" height="1.025" fill="#0d0d0d" />
<rect x="25.625" y="21.525" width="1.025" height="1.025" fill="#157021" />
<rect x="15.375" y="22.550" width="1.025" height="1.025" fill="#000000" />
<rect x="16.400" y="22.550" width="1.025" height="1.025" fill="#198027" />
<rect x="17.425" y="22.550" width="1.025" height="1.025" fill="#14661f" />
<rect x="18.450" y="22.550" width="1.025" height="1.025" fill="#156d21" />
<rect x="19.475" y="22.550" width="1.025" height="1.025" fill="#156d21" />
<rect x="20.500" y="22.550" width="1.025" height="1.025" fill="#e30613" />
<rect x="21.525" y="22.550" width="1.025" height="1.025" fill="#e30613" />
<rect x="22.550" y="22.550" width="1.025" height="1.025" fill="#e30613" />
<rect x="23.575" y="22.550" width="1.025" height="1.025" fill="#e30613" />
<rect x="24.600" y="22.550" width="1.025" height="1.025" fill="#e30613" />
<rect x="17.425" y="23.575" width="1.025" height="1.025" fill="#198027" />
<rect x="18.450" y="23.575" width="1.025" height="1.025" fill="#14661f" />
<rect x="19.475" y="23.575" width="1.025" height="1.025" fill="#156c21" />
<rect x="20.500" y="23.575" width="1.025" height="1.025" fill="#156c21" />
<rect x="21.525" y="23.575" width="1.025" height="1.025" fill="#177624" />
<rect x="22.550" y="23.575" width="1.025" height="1.025" fill="#177624" />
<rect x="23.575" y="23.575" width="1.025" height="1.025" fill="#156f21" />
<rect x="18.450" y="24.600" width="1.025" height="1.025" fill="#198027" />
<rect x="19.475" y="24.600" width="1.025" height="1.025" fill="#14661f" />
<rect x="20.500" y="24.600" width="1.025" height="1.025" fill="#156c21" />
<rect x="21.525" y="24.600" width="1.025" height="1.025" fill="#156c21" />
<rect x="22.550" y="24.600" width="1.025" height="1.025" fill="#177624" />
</svg>