<svg xmlns="http://www.w3.org/2000/svg" width="37.925" height="37.925" shape-rendering="crispEdges" style="image-rendering: pixelated;">
<rect x="13.325" y="0.000" width="1.025" height="1.025" fill="#db9f02" />
<rect x="27.675" y="0.000" width="1.025" height="1.025" fill="#cc7d03" />
<rect x="13.325" y="1.025" width="1.025" height="1.025" fill="#db9f02" />
<rect x="27.675" y="1.025" width="1.025" height="1.025" fill="#cc7d03" />
<rect x="12.300" y="2.050" width="1.025" height="1.025" fill="#cc7d03" />
<rect x="13.325" y="2.050" width="1.025" height="1.025" fill="#db9f02" />
<rect x="27.675" y="2.050" width="1.025" height="1.025" fill="#cc7d03" />
<rect x="28.700" y="2.050" width="1.025" height="1.025" fill="#db9f02" />
<rect x="12.300" y="3.075" width="1.025" height="1.025" fill="#cc7d03" />
<rect x="13.325" y="3.075" width="1.025" height="1.025" fill="#db9f02" />
<rect x="27.675" y="3.075" width="1.025" height="1.025" fill="#cc7d03" />
<rect x="28.700" y="3.075" width="1.025" height="1.025" fill="#e6b701" />
<rect x="12.300" y="4.100" width="1.025" height="1.025" fill="#cc7d03" />
<rect x="13.325" y="4.100" width="1.025" height="1.025" fill="#db9f02" />
<rect x="27.675" y="4.100" width="1.025" height="1.025" fill="#cc7d03" />
<rect x="28.700" y="4.100" width="1.025" height="1.025" fill="#db9f02" />
<rect x="12.300" y="5.125" width="1.025" height="1.025" fill="#cc7d03" />
<rect x="13.325" y="5.125" width="1.025" height="1.025" fill="#db9f02" />
<rect x="27.675" y="5.125" width="1.025" height="1.025" fill="#cc7d03" />
<rect x="28.700" y="5.125" width="1.025" height="1.025" fill="#e6b701" />
<rect x="12.300" y="6.150" width="1.025" height="1.025" fill="#cc7d03" />
<rect x="13.325" y="6.150" width="1.025" height="1.025" fill="#e6b701" />
<rect x="14.350" y="6.150" width="1.025" height="1.025" fill="#db9f02" />
<rect x="26.650" y="6.150" width="1.025" height="1.025" fill="#cc7d03" />
<rect x="27.675" y="6.150" width="1.025" height="1.025" fill="#e6b701" />
<rect x="13.325" y="7.175" width="1.025" height="1.025" fill="#cc7d03" />
<rect x="14.350" y="7.175" width="1.025" height="1.025" fill="#db9f02" />
<rect x="15.375" y="7.175" width="1.025" height="1.025" fill="#db9f02" />
<rect x="16.400" y="7.175" width="1.025" height="1.025" fill="#ac0808" />
<rect x="17.425" y="7.175" width="1.025" height="1.025" fill="#500707" />
<rect x="18.450" y="7.175" width="1.025" height="1.025" fill="#500707" />
<rect x="19.475" y="7.175" width="1.025" height="1.025" fill="#710707" />
<rect x="20.500" y="7.175" width="1.025" height="1.025" fill="#9f0808" />
<rect x="21.525" y="7.175" width="1.025" height="1.025" fill="#710707" />
<rect x="22.550" y="7.175" width="1.025" height="1.025" fill="#4f0707" />
<rect x="23.575" y="7.175" width="1.025" height="1.025" fill="#060606" fill-opacity="0.302" />
<rect x="25.625" y="7.175" width="1.025" height="1.025" fill="#cc7d03" />
<rect x="26.650" y="7.175" width="1.025" height="1.025" fill="#e6b701" />
<rect x="27.675" y="7.175" width="1.025" height="1.025" fill="#e6b701" />
<rect x="13.325" y="8.200" width="1.025" height="1.025" fill="#cc7d03" />
<rect x="14.350" y="8.200" width="1.025" height="1.025" fill="#cc7d03" />
<rect x="15.375" y="8.200" width="1.025" height="1.025" fill="#db9f02" />
<rect x="16.400" y="8.200" width="1.025" height="1.025" fill="#db9f02" />
<rect x="17.425" y="8.200" width="1.025" height="1.025" fill="#774c05" />
<rect x="18.450" y="8.200" width="1.025" height="1.025" fill="#530707" />
<rect x="19.475" y="8.200" width="1.025" height="1.025" fill="#a50808" />
<rect x="20.500" y="8.200" width="1.025" height="1.025" fill="#ffffff" />
<rect x="21.525" y="8.200" width="1.025" height="1.025" fill="#a50808" />
<rect x="22.550" y="8.200" width="1.025" height="1.025" fill="#520707" />
<rect x="23.575" y="8.200" width="1.025" height="1.025" fill="#4f0707" />
<rect x="24.600" y="8.200" width="1.025" height="1.025" fill="#cc7d03" />
<rect x="25.625" y="8.200" width="1.025" height="1.025" fill="#db9f02" />
<rect x="26.650" y="8.200" width="1.025" height="1.025" fill="#e6b701" />
<rect x="14.350" y="9.225" width="1.025" height="1.025" fill="#cc7d03" />
<rect x="15.375" y="9.225" width="1.025" height="1.025" fill="#cc7d03" />
<rect x="16.400" y="9.225" width="1.025" height="1.025" fill="#cc7d03" />
<rect x="17.425" y="9.225" width="1.025" height="1.025" fill="#794c05" />
<rect x="18.450" y="9.225" width="1.025" height="1.025" fill="#760707" />
<rect x="19.475" y="9.225" width="1.025" height="1.025" fill="#a80808" />
<rect x="20.500" y="9.225" width="1.025" height="1.025" fill="#a60808" />
<rect x="21.525" y="9.225" width="1.025" height="1.025" fill="#a50808" />
<rect x="22.550" y="9.225" width="1.025" height="1.025" fill="#570707" />
<rect x="23.575" y="9.225" width="1.025" height="1.025" fill="#500707" />
<rect x="24.600" y="9.225" width="1.025" height="1.025" fill="#cc7d03" />
<rect x="25.625" y="9.225" width="1.025" height="1.025" fill="#db9f02" />
<rect x="14.350" y="10.250" width="1.025" height="1.025" fill="#ac0808" />
<rect x="15.375" y="10.250" width="1.025" height="1.025" fill="#510707" />
<rect x="16.400" y="10.250" width="1.025" height="1.025" fill="#570707" />
<rect x="17.425" y="10.250" width="1.025" height="1.025" fill="#7a0707" />
<rect x="18.450" y="10.250" width="1.025" height="1.025" fill="#ac0808" />
<rect x="19.475" y="10.250" width="1.025" height="1.025" fill="#a60808" />
<rect x="20.500" y="10.250" width="1.025" height="1.025" fill="#ffffff" />
<rect x="21.525" y="10.250" width="1.025" height="1.025" fill="#ffffff" />
<rect x="22.550" y="10.250" width="1.025" height="1.025" fill="#ac0808" />
<rect x="23.575" y="10.250" width="1.025" height="1.025" fill="#7a0707" />
<rect x="24.600" y="10.250" width="1.025" height="1.025" fill="#500707" />
<rect x="14.350" y="11.275" width="1.025" height="1.025" fill="#ac0808" />
<rect x="15.375" y="11.275" width="1.025" height="1.025" fill="#9f0808" />
<rect x="16.400" y="11.275" width="1.025" height="1.025" fill="#ac0808" />
<rect x="17.425" y="11.275" width="1.025" height="1.025" fill="#090909" />
<rect x="18.450" y="11.275" width="1.025" height="1.025" fill="#090909" />
<rect x="19.475" y="11.275" width="1.025" height="1.025" fill="#090909" />
<rect x="20.500" y="11.275" width="1.025" height="1.025" fill="#ffffff" />
<rect x="21.525" y="11.275" width="1.025" height="1.025" fill="#ffffff" />
<rect x="22.550" y="11.275" width="1.025" height="1.025" fill="#090909" />
<rect x="23.575" y="11.275" width="1.025" height="1.025" fill="#090909" />
<rect x="24.600" y="11.275" width="1.025" height="1.025" fill="#ac0808" />
<rect x="14.350" y="12.300" width="1.025" height="1.025" fill="#ac0808" />
<rect x="15.375" y="12.300" width="1.025" height="1.025" fill="#9f0808" />
<rect x="16.400" y="12.300" width="1.025" height="1.025" fill="#090909" />
<rect x="17.425" y="12.300" width="1.025" height="1.025" fill="#ac0808" />
<rect x="18.450" y="12.300" width="1.025" height="1.025" fill="#ac0808" />
<rect x="19.475" y="12.300" width="1.025" height="1.025" fill="#a60808" />
<rect x="20.500" y="12.300" width="1.025" height="1.025" fill="#9f0808" />
<rect x="21.525" y="12.300" width="1.025" height="1.025" fill="#a30808" />
<rect x="22.550" y="12.300" width="1.025" height="1.025" fill="#ac0808" />
<rect x="23.575" y="12.300" width="1.025" height="1.025" fill="#ac0808" />
<rect x="24.600" y="12.300" width="1.025" height="1.025" fill="#090909" />
<rect x="14.350" y="13.325" width="1.025" height="1.025" fill="#9f0808" />
<rect x="15.375" y="13.325" width="1.025" height="1.025" fill="#9f0808" />
<rect x="16.400" y="13.325" width="1.025" height="1.025" fill="#ac0808" />
<rect x="17.425" y="13.325" width="1.025" height="1.025" fill="#ac0808" />
<rect x="18.450" y="13.325" width="1.025" height="1.025" fill="#cc7d03" />
<rect x="19.475" y="13.325" width="1.025" height="1.025" fill="#cc7d03" />
<rect x="20.500" y="13.325" width="1.025" height="1.025" fill="#8e0707" />
<rect x="21.525" y="13.325" width="1.025" height="1.025" fill="#970707" />
<rect x="22.550" y="13.325" width="1.025" height="1.025" fill="#ac0808" />
<rect x="23.575" y="13.325" width="1.025" height="1.025" fill="#cc7d03" />
<rect x="24.600" y="13.325" width="1.025" height="1.025" fill="#cc7d03" />
<rect x="14.350" y="14.350" width="1.025" height="1.025" fill="#720808" />
<rect x="15.375" y="14.350" width="1.025" height="1.025" fill="#9f0808" />
<rect x="16.400" y="14.350" width="1.025" height="1.025" fill="#ac0808" />
<rect x="17.425" y="14.350" width="1.025" height="1.025" fill="#cc7d03" />
<rect x="18.450" y="14.350" width="1.025" height="1.025" fill="#ffffff" />
<rect x="19.475" y="14.350" width="1.025" height="1.025" fill="#000000" />
<rect x="20.500" y="14.350" width="1.025" height="1.025" fill="#cc7d03" />
<rect x="21.525" y="14.350" width="1.025" height="1.025" fill="#9f0808" />
<rect x="22.550" y="14.350" width="1.025" height="1.025" fill="#cc7d03" />
<rect x="23.575" y="14.350" width="1.025" height="1.025" fill="#ffffff" />
<rect x="24.600" y="14.350" width="1.025" height="1.025" fill="#000000" />
<rect x="14.350" y="15.375" width="1.025" height="1.025" fill="#720808" />
<rect x="15.375" y="15.375" width="1.025" height="1.025" fill="#9d0808" />
<rect x="16.400" y="15.375" width="1.025" height="1.025" fill="#9d0808" />
<rect x="17.425" y="15.375" width="1.025" height="1.025" fill="#a50808" />
<rect x="18.450" y="15.375" width="1.025" height="1.025" fill="#c14d06" />
<rect x="19.475" y="15.375" width="1.025" height="1.025" fill="#c14d06" />
<rect x="20.500" y="15.375" width="1.025" height="1.025" fill="#a60808" />
<rect x="21.525" y="15.375" width="1.025" height="1.025" fill="#8c0808" />
<rect x="22.550" y="15.375" width="1.025" height="1.025" fill="#a50808" />
<rect x="23.575" y="15.375" width="1.025" height="1.025" fill="#c14d06" />
<rect x="24.600" y="15.375" width="1.025" height="1.025" fill="#c14d06" />
<rect x="14.350" y="16.400" width="1.025" height="1.025" fill="#720808" />
<rect x="15.375" y="16.400" width="1.025" height="1.025" fill="#990707" />
<rect x="16.400" y="16.400" width="1.025" height="1.025" fill="#990707" />
<rect x="17.425" y="16.400" width="1.025" height="1.025" fill="#a60808" />
<rect x="18.450" y="16.400" width="1.025" height="1.025" fill="#a60808" />
<rect x="19.475" y="16.400" width="1.025" height="1.025" fill="#a60808" />
<rect x="20.500" y="16.400" width="1.025" height="1.025" fill="#a60808" />
<rect x="21.525" y="16.400" width="1.025" height="1.025" fill="#4a0707" />
<rect x="22.550" y="16.400" width="1.025" height="1.025" fill="#a60808" />
<rect x="23.575" y="16.400" width="1.025" height="1.025" fill="#a30808" />
<rect x="24.600" y="16.400" width="1.025" height="1.025" fill="#a30808" />
<rect x="14.350" y="17.425" width="1.025" height="1.025" fill="#720808" />
<rect x="15.375" y="17.425" width="1.025" height="1.025" fill="#930707" />
<rect x="16.400" y="17.425" width="1.025" height="1.025" fill="#9b0808" />
<rect x="17.425" y="17.425" width="1.025" height="1.025" fill="#a30808" />
<rect x="18.450" y="17.425" width="1.025" height="1.025" fill="#a30808" />
<rect x="19.475" y="17.425" width="1.025" height="1.025" fill="#a60808" />
<rect x="20.500" y="17.425" width="1.025" height="1.025" fill="#a60808" />
<rect x="21.525" y="17.425" width="1.025" height="1.025" fill="#440707" />
<rect x="22.550" y="17.425" width="1.025" height="1.025" fill="#710707" />
<rect x="23.575" y="17.425" width="1.025" height="1.025" fill="#a30808" />
<rect x="24.600" y="17.425" width="1.025" height="1.025" fill="#a50808" />
<rect x="14.350" y="18.450" width="1.025" height="1.025" fill="#720808" />
<rect x="15.375" y="18.450" width="1.025" height="1.025" fill="#950707" />
<rect x="16.400" y="18.450" width="1.025" height="1.025" fill="#970707" />
<rect x="17.425" y="18.450" width="1.025" height="1.025" fill="#cc7d03" />
<rect x="18.450" y="18.450" width="1.025" height="1.025" fill="#ffed00" />
<rect x="19.475" y="18.450" width="1.025" height="1.025" fill="#ffed00" />
<rect x="20.500" y="18.450" width="1.025" height="1.025" fill="#d47e04" />
<rect x="21.525" y="18.450" width="1.025" height="1.025" fill="#c14d06" />
<rect x="22.550" y="18.450" width="1.025" height="1.025" fill="#bf4d06" />
<rect x="23.575" y="18.450" width="1.025" height="1.025" fill="#ffed00" />
<rect x="24.600" y="18.450" width="1.025" height="1.025" fill="#ffed00" />
<rect x="14.350" y="19.475" width="1.025" height="1.025" fill="#7b0808" />
<rect x="15.375" y="19.475" width="1.025" height="1.025" fill="#930707" />
<rect x="16.400" y="19.475" width="1.025" height="1.025" fill="#970707" />
<rect x="17.425" y="19.475" width="1.025" height="1.025" fill="#0f0f0f" />
<rect x="18.450" y="19.475" width="1.025" height="1.025" fill="#ffed00" />
<rect x="19.475" y="19.475" width="1.025" height="1.025" fill="#4a310c" />
<rect x="20.500" y="19.475" width="1.025" height="1.025" fill="#39270c" />
<rect x="21.525" y="19.475" width="1.025" height="1.025" fill="#4a310c" />
<rect x="22.550" y="19.475" width="1.025" height="1.025" fill="#39270c" />
<rect x="23.575" y="19.475" width="1.025" height="1.025" fill="#4a310c" />
<rect x="24.600" y="19.475" width="1.025" height="1.025" fill="#ffed00" />
<rect x="14.350" y="20.500" width="1.025" height="1.025" fill="#7b0808" />
<rect x="15.375" y="20.500" width="1.025" height="1.025" fill="#8e0707" />
<rect x="16.400" y="20.500" width="1.025" height="1.025" fill="#970707" />
<rect x="17.425" y="20.500" width="1.025" height="1.025" fill="#0f0f0f" />
<rect x="18.450" y="20.500" width="1.025" height="1.025" fill="#ffed00" />
<rect x="19.475" y="20.500" width="1.025" height="1.025" fill="#0f0f0f" />
<rect x="20.500" y="20.500" width="1.025" height="1.025" fill="#0f0f0f" />
<rect x="21.525" y="20.500" width="1.025" height="1.025" fill="#0f0f0f" />
<rect x="22.550" y="20.500" width="1.025" height="1.025" fill="#0f0f0f" />
<rect x="23.575" y="20.500" width="1.025" height="1.025" fill="#0f0f0f" />
<rect x="24.600" y="20.500" width="1.025" height="1.025" fill="#ffed00" />
<rect x="14.350" y="21.525" width="1.025" height="1.025" fill="#7b0808" />
<rect x="15.375" y="21.525" width="1.025" height="1.025" fill="#860707" />
<rect x="16.400" y="21.525" width="1.025" height="1.025" fill="#930707" />
<rect x="17.425" y="21.525" width="1.025" height="1.025" fill="#970707" />
<rect x="18.450" y="21.525" width="1.025" height="1.025" fill="#cc7d03" />
<rect x="19.475" y="21.525" width="1.025" height="1.025" fill="#0f0f0f" />
<rect x="20.500" y="21.525" width="1.025" height="1.025" fill="#ffed00" />
<rect x="21.525" y="21.525" width="1.025" height="1.025" fill="#0f0f0f" />
<rect x="22.550" y="21.525" width="1.025" height="1.025" fill="#ffed00" />
<rect x="23.575" y="21.525" width="1.025" height="1.025" fill="#0f0f0f" />
<rect x="24.600" y="21.525" width="1.025" height="1.025" fill="#970707" />
<rect x="15.375" y="22.550" width="1.025" height="1.025" fill="#ac0808" />
<rect x="16.400" y="22.550" width="1.025" height="1.025" fill="#880707" />
<rect x="17.425" y="22.550" width="1.025" height="1.025" fill="#930707" />
<rect x="18.450" y="22.550" width="1.025" height="1.025" fill="#930707" />
<rect x="19.475" y="22.550" width="1.025" height="1.025" fill="#b44c05" />
<rect x="20.500" y="22.550" width="1.025" height="1.025" fill="#b24c05" />
<rect x="21.525" y="22.550" width="1.025" height="1.025" fill="#b24c05" />
<rect x="22.550" y="22.550" width="1.025" height="1.025" fill="#b64c05" />
<rect x="23.575" y="22.550" width="1.025" height="1.025" fill="#b64c05" />
<rect x="16.400" y="23.575" width="1.025" height="1.025" fill="#ac0808" />
<rect x="17.425" y="23.575" width="1.025" height="1.025" fill="#880707" />
<rect x="18.450" y="23.575" width="1.025" height="1.025" fill="#910707" />
<rect x="19.475" y="23.575" width="1.025" height="1.025" fill="#910707" />
<rect x="20.500" y="23.575" width="1.025" height="1.025" fill="#9f0808" />
<rect x="21.525" y="23.575" width="1.025" height="1.025" fill="#9f0808" />
<rect x="22.550" y="23.575" width="1.025" height="1.025" fill="#950707" />
</svg>