<svg xmlns="http://www.w3.org/2000/svg" width="37.925" height="37.925" shape-rendering="crispEdges" style="image-rendering: pixelated;">
<rect x="15.375" y="6.150" width="1.025" height="1.025" fill="#000000" />
<rect x="16.400" y="6.150" width="1.025" height="1.025" fill="#000000" />
<rect x="17.425" y="6.150" width="1.025" height="1.025" fill="#000000" />
<rect x="25.625" y="6.150" width="1.025" height="1.025" fill="#000000" />
<rect x="26.650" y="6.150" width="1.025" height="1.025" fill="#000000" />
<rect x="27.675" y="6.150" width="1.025" height="1.025" fill="#000000" />
<rect x="14.350" y="7.175" width="1.025" height="1.025" fill="#000000" />
<rect x="15.375" y="7.175" width="1.025" height="1.025" fill="#e5e5e5" />
<rect x="16.400" y="7.175" width="1.025" height="1.025" fill="#e7e7e7" />
<rect x="17.425" y="7.175" width="1.025" height="1.025" fill="#000000" />
<rect x="18.450" y="7.175" width="1.025" height="1.025" fill="#000000" />
<rect x="19.475" y="7.175" width="1.025" height="1.025" fill="#000000" />
<rect x="24.600" y="7.175" width="1.025" height="1.025" fill="#000000" />
<rect x="25.625" y="7.175" width="1.025" height="1.025" fill="#000000" />
<rect x="26.650" y="7.175" width="1.025" height="1.025" fill="#cacaca" />
<rect x="27.675" y="7.175" width="1.025" height="1.025" fill="#000000" />
<rect x="14.350" y="8.200" width="1.025" height="1.025" fill="#000000" />
<rect x="15.375" y="8.200" width="1.025" height="1.025" fill="#ababab" />
<rect x="16.400" y="8.200" width="1.025" height="1.025" fill="#000000" />
<rect x="17.425" y="8.200" width="1.025" height="1.025" fill="#ffffff" />
<rect x="18.450" y="8.200" width="1.025" height="1.025" fill="#ffffff" />
<rect x="19.475" y="8.200" width="1.025" height="1.025" fill="#dbdbdb" />
<rect x="20.500" y="8.200" width="1.025" height="1.025" fill="#e5e5e5" />
<rect x="21.525" y="8.200" width="1.025" height="1.025" fill="#e5e5e5" />
<rect x="22.550" y="8.200" width="1.025" height="1.025" fill="#e5e5e5" />
<rect x="23.575" y="8.200" width="1.025" height="1.025" fill="#e9e9e9" />
<rect x="24.600" y="8.200" width="1.025" height="1.025" fill="#dedede" />
<rect x="25.625" y="8.200" width="1.025" height="1.025" fill="#000000" />
<rect x="26.650" y="8.200" width="1.025" height="1.025" fill="#ffffff" />
<rect x="27.675" y="8.200" width="1.025" height="1.025" fill="#ffffff" />
<rect x="28.700" y="8.200" width="1.025" height="1.025" fill="#000000" />
<rect x="14.350" y="9.225" width="1.025" height="1.025" fill="#000000" />
<rect x="15.375" y="9.225" width="1.025" height="1.025" fill="#ababab" />
<rect x="16.400" y="9.225" width="1.025" height="1.025" fill="#000000" />
<rect x="17.425" y="9.225" width="1.025" height="1.025" fill="#ffffff" />
<rect x="18.450" y="9.225" width="1.025" height="1.025" fill="#ffffff" />
<rect x="19.475" y="9.225" width="1.025" height="1.025" fill="#dedede" />
<rect x="20.500" y="9.225" width="1.025" height="1.025" fill="#e9e9e9" />
<rect x="21.525" y="9.225" width="1.025" height="1.025" fill="#e9e9e9" />
<rect x="22.550" y="9.225" width="1.025" height="1.025" fill="#e9e9e9" />
<rect x="23.575" y="9.225" width="1.025" height="1.025" fill="#e0e0e0" />
<rect x="24.600" y="9.225" width="1.025" height="1.025" fill="#e0e0e0" />
<rect x="25.625" y="9.225" width="1.025" height="1.025" fill="#e2e2e2" />
<rect x="26.650" y="9.225" width="1.025" height="1.025" fill="#ffffff" />
<rect x="27.675" y="9.225" width="1.025" height="1.025" fill="#ffffff" />
<rect x="28.700" y="9.225" width="1.025" height="1.025" fill="#000000" />
<rect x="14.350" y="10.250" width="1.025" height="1.025" fill="#000000" />
<rect x="15.375" y="10.250" width="1.025" height="1.025" fill="#ffffff" />
<rect x="16.400" y="10.250" width="1.025" height="1.025" fill="#ababab" />
<rect x="17.425" y="10.250" width="1.025" height="1.025" fill="#000000" />
<rect x="18.450" y="10.250" width="1.025" height="1.025" fill="#ffffff" />
<rect x="19.475" y="10.250" width="1.025" height="1.025" fill="#e7e7e7" />
<rect x="20.500" y="10.250" width="1.025" height="1.025" fill="#e9e9e9" />
<rect x="21.525" y="10.250" width="1.025" height="1.025" fill="#dfdfdf" />
<rect x="22.550" y="10.250" width="1.025" height="1.025" fill="#dfdfdf" />
<rect x="23.575" y="10.250" width="1.025" height="1.025" fill="#dcdcdc" />
<rect x="24.600" y="10.250" width="1.025" height="1.025" fill="#e0e0e0" />
<rect x="25.625" y="10.250" width="1.025" height="1.025" fill="#000000" />
<rect x="26.650" y="10.250" width="1.025" height="1.025" fill="#ffffff" />
<rect x="27.675" y="10.250" width="1.025" height="1.025" fill="#000000" />
<rect x="15.375" y="11.275" width="1.025" height="1.025" fill="#000000" />
<rect x="16.400" y="11.275" width="1.025" height="1.025" fill="#ffffff" />
<rect x="17.425" y="11.275" width="1.025" height="1.025" fill="#dcdcdc" />
<rect x="18.450" y="11.275" width="1.025" height="1.025" fill="#dedede" />
<rect x="19.475" y="11.275" width="1.025" height="1.025" fill="#ffffff" />
<rect x="20.500" y="11.275" width="1.025" height="1.025" fill="#dcdcdc" />
<rect x="21.525" y="11.275" width="1.025" height="1.025" fill="#e9e9e9" />
<rect x="22.550" y="11.275" width="1.025" height="1.025" fill="#e9e9e9" />
<rect x="23.575" y="11.275" width="1.025" height="1.025" fill="#dcdcdc" />
<rect x="24.600" y="11.275" width="1.025" height="1.025" fill="#e0e0e0" />
<rect x="25.625" y="11.275" width="1.025" height="1.025" fill="#e0e0e0" />
<rect x="26.650" y="11.275" width="1.025" height="1.025" fill="#dcdcdc" />
<rect x="27.675" y="11.275" width="1.025" height="1.025" fill="#000000" />
<rect x="14.350" y="12.300" width="1.025" height="1.025" fill="#000000" />
<rect x="15.375" y="12.300" width="1.025" height="1.025" fill="#dcdcdc" />
<rect x="16.400" y="12.300" width="1.025" height="1.025" fill="#dcdcdc" />
<rect x="17.425" y="12.300" width="1.025" height="1.025" fill="#f4f4f4" />
<rect x="18.450" y="12.300" width="1.025" height="1.025" fill="#f4f4f4" />
<rect x="19.475" y="12.300" width="1.025" height="1.025" fill="#f4f4f4" />
<rect x="20.500" y="12.300" width="1.025" height="1.025" fill="#f4f4f4" />
<rect x="21.525" y="12.300" width="1.025" height="1.025" fill="#f4f4f4" />
<rect x="22.550" y="12.300" width="1.025" height="1.025" fill="#e7e7e7" />
<rect x="23.575" y="12.300" width="1.025" height="1.025" fill="#e7e7e7" />
<rect x="24.600" y="12.300" width="1.025" height="1.025" fill="#e0e0e0" />
<rect x="25.625" y="12.300" width="1.025" height="1.025" fill="#e0e0e0" />
<rect x="26.650" y="12.300" width="1.025" height="1.025" fill="#e0e0e0" />
<rect x="27.675" y="12.300" width="1.025" height="1.025" fill="#dcdcdc" />
<rect x="13.325" y="13.325" width="1.025" height="1.025" fill="#000000" />
<rect x="14.350" y="13.325" width="1.025" height="1.025" fill="#eeeeee" />
<rect x="15.375" y="13.325" width="1.025" height="1.025" fill="#eeeeee" />
<rect x="16.400" y="13.325" width="1.025" height="1.025" fill="#ffffff" />
<rect x="17.425" y="13.325" width="1.025" height="1.025" fill="#ffffff" />
<rect x="18.450" y="13.325" width="1.025" height="1.025" fill="#ffffff" />
<rect x="19.475" y="13.325" width="1.025" height="1.025" fill="#ffffff" />
<rect x="20.500" y="13.325" width="1.025" height="1.025" fill="#ffffff" />
<rect x="21.525" y="13.325" width="1.025" height="1.025" fill="#dadada" />
<rect x="22.550" y="13.325" width="1.025" height="1.025" fill="#eeeeee" />
<rect x="23.575" y="13.325" width="1.025" height="1.025" fill="#dcdcdc" />
<rect x="24.600" y="13.325" width="1.025" height="1.025" fill="#dcdcdc" />
<rect x="25.625" y="13.325" width="1.025" height="1.025" fill="#ffffff" />
<rect x="26.650" y="13.325" width="1.025" height="1.025" fill="#ffffff" />
<rect x="27.675" y="13.325" width="1.025" height="1.025" fill="#ffffff" />
<rect x="28.700" y="13.325" width="1.025" height="1.025" fill="#dcdcdc" />
<rect x="13.325" y="14.350" width="1.025" height="1.025" fill="#000000" />
<rect x="14.350" y="14.350" width="1.025" height="1.025" fill="#d5d5d5" />
<rect x="15.375" y="14.350" width="1.025" height="1.025" fill="#ffffff" />
<rect x="16.400" y="14.350" width="1.025" height="1.025" fill="#000000" />
<rect x="17.425" y="14.350" width="1.025" height="1.025" fill="#000000" />
<rect x="18.450" y="14.350" width="1.025" height="1.025" fill="#000000" />
<rect x="19.475" y="14.350" width="1.025" height="1.025" fill="#000000" />
<rect x="20.500" y="14.350" width="1.025" height="1.025" fill="#ffffff" />
<rect x="21.525" y="14.350" width="1.025" height="1.025" fill="#f3f3f3" />
<rect x="22.550" y="14.350" width="1.025" height="1.025" fill="#eeeeee" />
<rect x="23.575" y="14.350" width="1.025" height="1.025" fill="#ffffff" />
<rect x="24.600" y="14.350" width="1.025" height="1.025" fill="#000000" />
<rect x="25.625" y="14.350" width="1.025" height="1.025" fill="#000000" />
<rect x="26.650" y="14.350" width="1.025" height="1.025" fill="#000000" />
<rect x="27.675" y="14.350" width="1.025" height="1.025" fill="#000000" />
<rect x="28.700" y="14.350" width="1.025" height="1.025" fill="#ffffff" />
<rect x="11.275" y="15.375" width="1.025" height="1.025" fill="#ff0000" />
<rect x="12.300" y="15.375" width="1.025" height="1.025" fill="#ff0000" />
<rect x="13.325" y="15.375" width="1.025" height="1.025" fill="#000000" />
<rect x="14.350" y="15.375" width="1.025" height="1.025" fill="#ffffff" />
<rect x="15.375" y="15.375" width="1.025" height="1.025" fill="#000000" />
<rect x="16.400" y="15.375" width="1.025" height="1.025" fill="#000000" />
<rect x="17.425" y="15.375" width="1.025" height="1.025" fill="#373737" />
<rect x="18.450" y="15.375" width="1.025" height="1.025" fill="#ff0000" />
<rect x="19.475" y="15.375" width="1.025" height="1.025" fill="#ff0000" />
<rect x="20.500" y="15.375" width="1.025" height="1.025" fill="#000000" />
<rect x="21.525" y="15.375" width="1.025" height="1.025" fill="#e7e7e7" />
<rect x="22.550" y="15.375" width="1.025" height="1.025" fill="#dcdcdc" />
<rect x="23.575" y="15.375" width="1.025" height="1.025" fill="#000000" />
<rect x="24.600" y="15.375" width="1.025" height="1.025" fill="#373737" />
<rect x="25.625" y="15.375" width="1.025" height="1.025" fill="#ff0000" />
<rect x="26.650" y="15.375" width="1.025" height="1.025" fill="#ff0000" />
<rect x="27.675" y="15.375" width="1.025" height="1.025" fill="#000000" />
<rect x="28.700" y="15.375" width="1.025" height="1.025" fill="#000000" />
<rect x="10.250" y="16.400" width="1.025" height="1.025" fill="#ff0000" />
<rect x="13.325" y="16.400" width="1.025" height="1.025" fill="#000000" />
<rect x="14.350" y="16.400" width="1.025" height="1.025" fill="#ffffff" />
<rect x="15.375" y="16.400" width="1.025" height="1.025" fill="#000000" />
<rect x="16.400" y="16.400" width="1.025" height="1.025" fill="#000000" />
<rect x="17.425" y="16.400" width="1.025" height="1.025" fill="#373737" />
<rect x="18.450" y="16.400" width="1.025" height="1.025" fill="#000000" />
<rect x="19.475" y="16.400" width="1.025" height="1.025" fill="#ffffff" />
<rect x="20.500" y="16.400" width="1.025" height="1.025" fill="#000000" />
<rect x="21.525" y="16.400" width="1.025" height="1.025" fill="#eeeeee" />
<rect x="22.550" y="16.400" width="1.025" height="1.025" fill="#dcdcdc" />
<rect x="23.575" y="16.400" width="1.025" height="1.025" fill="#000000" />
<rect x="24.600" y="16.400" width="1.025" height="1.025" fill="#373737" />
<rect x="25.625" y="16.400" width="1.025" height="1.025" fill="#000000" />
<rect x="26.650" y="16.400" width="1.025" height="1.025" fill="#ffffff" />
<rect x="27.675" y="16.400" width="1.025" height="1.025" fill="#000000" />
<rect x="28.700" y="16.400" width="1.025" height="1.025" fill="#000000" />
<rect x="10.250" y="17.425" width="1.025" height="1.025" fill="#ff0000" />
<rect x="13.325" y="17.425" width="1.025" height="1.025" fill="#000000" />
<rect x="14.350" y="17.425" width="1.025" height="1.025" fill="#ffffff" />
<rect x="15.375" y="17.425" width="1.025" height="1.025" fill="#ffffff" />
<rect x="16.400" y="17.425" width="1.025" height="1.025" fill="#000000" />
<rect x="17.425" y="17.425" width="1.025" height="1.025" fill="#000000" />
<rect x="18.450" y="17.425" width="1.025" height="1.025" fill="#000000" />
<rect x="19.475" y="17.425" width="1.025" height="1.025" fill="#000000" />
<rect x="20.500" y="17.425" width="1.025" height="1.025" fill="#ffffff" />
<rect x="21.525" y="17.425" width="1.025" height="1.025" fill="#dadada" />
<rect x="22.550" y="17.425" width="1.025" height="1.025" fill="#dcdcdc" />
<rect x="23.575" y="17.425" width="1.025" height="1.025" fill="#dcdcdc" />
<rect x="24.600" y="17.425" width="1.025" height="1.025" fill="#000000" />
<rect x="25.625" y="17.425" width="1.025" height="1.025" fill="#000000" />
<rect x="26.650" y="17.425" width="1.025" height="1.025" fill="#000000" />
<rect x="27.675" y="17.425" width="1.025" height="1.025" fill="#000000" />
<rect x="28.700" y="17.425" width="1.025" height="1.025" fill="#ffffff" />
<rect x="10.250" y="18.450" width="1.025" height="1.025" fill="#ff0000" />
<rect x="14.350" y="18.450" width="1.025" height="1.025" fill="#f8f8f8" />
<rect x="15.375" y="18.450" width="1.025" height="1.025" fill="#ffffff" />
<rect x="16.400" y="18.450" width="1.025" height="1.025" fill="#ffffff" />
<rect x="17.425" y="18.450" width="1.025" height="1.025" fill="#ffffff" />
<rect x="18.450" y="18.450" width="1.025" height="1.025" fill="#f7f7f7" />
<rect x="19.475" y="18.450" width="1.025" height="1.025" fill="#f3f3f3" />
<rect x="20.500" y="18.450" width="1.025" height="1.025" fill="#dcdcdc" />
<rect x="21.525" y="18.450" width="1.025" height="1.025" fill="#dcdcdc" />
<rect x="22.550" y="18.450" width="1.025" height="1.025" fill="#dcdcdc" />
<rect x="23.575" y="18.450" width="1.025" height="1.025" fill="#cacaca" />
<rect x="24.600" y="18.450" width="1.025" height="1.025" fill="#dcdcdc" />
<rect x="25.625" y="18.450" width="1.025" height="1.025" fill="#dcdcdc" />
<rect x="26.650" y="18.450" width="1.025" height="1.025" fill="#dcdcdc" />
<rect x="27.675" y="18.450" width="1.025" height="1.025" fill="#dcdcdc" />
<rect x="28.700" y="18.450" width="1.025" height="1.025" fill="#ffffff" />
<rect x="9.225" y="19.475" width="1.025" height="1.025" fill="#ff0000" />
<rect x="13.325" y="19.475" width="1.025" height="1.025" fill="#000000" />
<rect x="14.350" y="19.475" width="1.025" height="1.025" fill="#ffffff" />
<rect x="15.375" y="19.475" width="1.025" height="1.025" fill="#ffffff" />
<rect x="16.400" y="19.475" width="1.025" height="1.025" fill="#ffffff" />
<rect x="17.425" y="19.475" width="1.025" height="1.025" fill="#ffffff" />
<rect x="18.450" y="19.475" width="1.025" height="1.025" fill="#eeeeee" />
<rect x="19.475" y="19.475" width="1.025" height="1.025" fill="#e7e7e7" />
<rect x="20.500" y="19.475" width="1.025" height="1.025" fill="#dcdcdc" />
<rect x="21.525" y="19.475" width="1.025" height="1.025" fill="#a7a7a7" />
<rect x="22.550" y="19.475" width="1.025" height="1.025" fill="#000000" />
<rect x="23.575" y="19.475" width="1.025" height="1.025" fill="#000000" />
<rect x="24.600" y="19.475" width="1.025" height="1.025" fill="#000000" />
<rect x="25.625" y="19.475" width="1.025" height="1.025" fill="#000000" />
<rect x="26.650" y="19.475" width="1.025" height="1.025" fill="#dcdcdc" />
<rect x="27.675" y="19.475" width="1.025" height="1.025" fill="#dcdcdc" />
<rect x="14.350" y="20.500" width="1.025" height="1.025" fill="#000000" />
<rect x="15.375" y="20.500" width="1.025" height="1.025" fill="#ffffff" />
<rect x="16.400" y="20.500" width="1.025" height="1.025" fill="#e0e0e0" />
<rect x="17.425" y="20.500" width="1.025" height="1.025" fill="#ffffff" />
<rect x="18.450" y="20.500" width="1.025" height="1.025" fill="#d7d7d7" />
<rect x="19.475" y="20.500" width="1.025" height="1.025" fill="#d5d5d5" />
<rect x="20.500" y="20.500" width="1.025" height="1.025" fill="#b6b6b6" />
<rect x="21.525" y="20.500" width="1.025" height="1.025" fill="#ffffff" />
<rect x="22.550" y="20.500" width="1.025" height="1.025" fill="#ffffff" />
<rect x="23.575" y="20.500" width="1.025" height="1.025" fill="#000000" />
<rect x="24.600" y="20.500" width="1.025" height="1.025" fill="#000000" />
<rect x="25.625" y="20.500" width="1.025" height="1.025" fill="#000000" />
<rect x="26.650" y="20.500" width="1.025" height="1.025" fill="#cdcdcd" />
<rect x="27.675" y="20.500" width="1.025" height="1.025" fill="#ffffff" />
<rect x="14.350" y="21.525" width="1.025" height="1.025" fill="#000000" />
<rect x="15.375" y="21.525" width="1.025" height="1.025" fill="#ffffff" />
<rect x="16.400" y="21.525" width="1.025" height="1.025" fill="#ffffff" />
<rect x="17.425" y="21.525" width="1.025" height="1.025" fill="#ffffff" />
<rect x="18.450" y="21.525" width="1.025" height="1.025" fill="#ababab" />
<rect x="19.475" y="21.525" width="1.025" height="1.025" fill="#ababab" />
<rect x="20.500" y="21.525" width="1.025" height="1.025" fill="#ffffff" />
<rect x="21.525" y="21.525" width="1.025" height="1.025" fill="#ffffff" />
<rect x="22.550" y="21.525" width="1.025" height="1.025" fill="#ffffff" />
<rect x="23.575" y="21.525" width="1.025" height="1.025" fill="#ffffff" />
<rect x="24.600" y="21.525" width="1.025" height="1.025" fill="#000000" />
<rect x="25.625" y="21.525" width="1.025" height="1.025" fill="#ffffff" />
<rect x="26.650" y="21.525" width="1.025" height="1.025" fill="#adadad" />
<rect x="27.675" y="21.525" width="1.025" height="1.025" fill="#ffffff" />
<rect x="15.375" y="22.550" width="1.025" height="1.025" fill="#000000" />
<rect x="16.400" y="22.550" width="1.025" height="1.025" fill="#ffffff" />
<rect x="17.425" y="22.550" width="1.025" height="1.025" fill="#ffffff" />
<rect x="18.450" y="22.550" width="1.025" height="1.025" fill="#ffffff" />
<rect x="19.475" y="22.550" width="1.025" height="1.025" fill="#ffffff" />
<rect x="20.500" y="22.550" width="1.025" height="1.025" fill="#ffffff" />
<rect x="21.525" y="22.550" width="1.025" height="1.025" fill="#000000" />
<rect x="22.550" y="22.550" width="1.025" height="1.025" fill="#000000" />
<rect x="23.575" y="22.550" width="1.025" height="1.025" fill="#000000" />
<rect x="24.600" y="22.550" width="1.025" height="1.025" fill="#000000" />
<rect x="25.625" y="22.550" width="1.025" height="1.025" fill="#000000" />
<rect x="26.650" y="22.550" width="1.025" height="1.025" fill="#ffffff" />
<rect x="16.400" y="23.575" width="1.025" height="1.025" fill="#000000" />
<rect x="17.425" y="23.575" width="1.025" height="1.025" fill="#000000" />
<rect x="18.450" y="23.575" width="1.025" height="1.025" fill="#ababab" />
<rect x="19.475" y="23.575" width="1.025" height="1.025" fill="#ababab" />
<rect x="20.500" y="23.575" width="1.025" height="1.025" fill="#ababab" />
<rect x="21.525" y="23.575" width="1.025" height="1.025" fill="#ffffd5" />
<rect x="22.550" y="23.575" width="1.025" height="1.025" fill="#ffffff" />
<rect x="23.575" y="23.575" width="1.025" height="1.025" fill="#ffffff" />
<rect x="24.600" y="23.575" width="1.025" height="1.025" fill="#ffffff" />
<rect x="25.625" y="23.575" width="1.025" height="1.025" fill="#ffffff" />
<rect x="18.450" y="24.600" width="1.025" height="1.025" fill="#000000" />
<rect x="19.475" y="24.600" width="1.025" height="1.025" fill="#000000" />
<rect x="20.500" y="24.600" width="1.025" height="1.025" fill="#ababab" />
<rect x="21.525" y="24.600" width="1.025" height="1.025" fill="#ffffff" />
<rect x="22.550" y="24.600" width="1.025" height="1.025" fill="#000000" />
<rect x="23.575" y="24.600" width="1.025" height="1.025" fill="#000000" />
<rect x="24.600" y="24.600" width="1.025" height="1.025" fill="#000000" />
<rect x="25.625" y="24.600" width="1.025" height="1.025" fill="#ffffff" />
</svg>