<svg xmlns="http://www.w3.org/2000/svg" width="37.925" height="37.925" shape-rendering="crispEdges" style="image-rendering: pixelated;">
<rect x="16.400" y="7.175" width="1.025" height="1.025" fill="#000000" />
<rect x="17.425" y="7.175" width="1.025" height="1.025" fill="#000000" />
<rect x="18.450" y="7.175" width="1.025" height="1.025" fill="#230202" />
<rect x="19.475" y="7.175" width="1.025" height="1.025" fill="#250202" />
<rect x="20.500" y="7.175" width="1.025" height="1.025" fill="#250202" />
<rect x="21.525" y="7.175" width="1.025" height="1.025" fill="#250202" />
<rect x="22.550" y="7.175" width="1.025" height="1.025" fill="#250202" />
<rect x="23.575" y="7.175" width="1.025" height="1.025" fill="#f51111" />
<rect x="15.375" y="8.200" width="1.025" height="1.025" fill="#000000" />
<rect x="16.400" y="8.200" width="1.025" height="1.025" fill="#f40a0a" />
<rect x="17.425" y="8.200" width="1.025" height="1.025" fill="#1b0202" />
<rect x="18.450" y="8.200" width="1.025" height="1.025" fill="#130101" />
<rect x="19.475" y="8.200" width="1.025" height="1.025" fill="#150101" />
<rect x="20.500" y="8.200" width="1.025" height="1.025" fill="#f50f0f" />
<rect x="21.525" y="8.200" width="1.025" height="1.025" fill="#130101" />
<rect x="22.550" y="8.200" width="1.025" height="1.025" fill="#f50d0d" />
<rect x="23.575" y="8.200" width="1.025" height="1.025" fill="#170101" />
<rect x="24.600" y="8.200" width="1.025" height="1.025" fill="#f51313" />
<rect x="14.350" y="9.225" width="1.025" height="1.025" fill="#000000" />
<rect x="15.375" y="9.225" width="1.025" height="1.025" fill="#f40a0a" />
<rect x="16.400" y="9.225" width="1.025" height="1.025" fill="#210202" />
<rect x="17.425" y="9.225" width="1.025" height="1.025" fill="#130101" />
<rect x="18.450" y="9.225" width="1.025" height="1.025" fill="#000000" />
<rect x="19.475" y="9.225" width="1.025" height="1.025" fill="#f40a0a" />
<rect x="20.500" y="9.225" width="1.025" height="1.025" fill="#f40a0a" />
<rect x="21.525" y="9.225" width="1.025" height="1.025" fill="#0f0101" />
<rect x="22.550" y="9.225" width="1.025" height="1.025" fill="#f50d0d" />
<rect x="23.575" y="9.225" width="1.025" height="1.025" fill="#000000" />
<rect x="24.600" y="9.225" width="1.025" height="1.025" fill="#f40a0a" />
<rect x="14.350" y="10.250" width="1.025" height="1.025" fill="#000000" />
<rect x="15.375" y="10.250" width="1.025" height="1.025" fill="#f40a0a" />
<rect x="16.400" y="10.250" width="1.025" height="1.025" fill="#230202" />
<rect x="17.425" y="10.250" width="1.025" height="1.025" fill="#000000" />
<rect x="18.450" y="10.250" width="1.025" height="1.025" fill="#f40a0a" />
<rect x="19.475" y="10.250" width="1.025" height="1.025" fill="#000000" />
<rect x="20.500" y="10.250" width="1.025" height="1.025" fill="#f40a0a" />
<rect x="21.525" y="10.250" width="1.025" height="1.025" fill="#f40a0a" />
<rect x="22.550" y="10.250" width="1.025" height="1.025" fill="#000000" />
<rect x="23.575" y="10.250" width="1.025" height="1.025" fill="#f40a0a" />
<rect x="24.600" y="10.250" width="1.025" height="1.025" fill="#f40a0a" />
<rect x="25.625" y="10.250" width="1.025" height="1.025" fill="#250202" />
<rect x="14.350" y="11.275" width="1.025" height="1.025" fill="#000000" />
<rect x="15.375" y="11.275" width="1.025" height="1.025" fill="#f40a0a" />
<rect x="16.400" y="11.275" width="1.025" height="1.025" fill="#250202" />
<rect x="17.425" y="11.275" width="1.025" height="1.025" fill="#f40a0a" />
<rect x="18.450" y="11.275" width="1.025" height="1.025" fill="#000000" />
<rect x="19.475" y="11.275" width="1.025" height="1.025" fill="#0f0101" />
<rect x="20.500" y="11.275" width="1.025" height="1.025" fill="#000000" />
<rect x="21.525" y="11.275" width="1.025" height="1.025" fill="#f40a0a" />
<rect x="22.550" y="11.275" width="1.025" height="1.025" fill="#f40a0a" />
<rect x="23.575" y="11.275" width="1.025" height="1.025" fill="#f40a0a" />
<rect x="24.600" y="11.275" width="1.025" height="1.025" fill="#000000" />
<rect x="25.625" y="11.275" width="1.025" height="1.025" fill="#000000" />
<rect x="14.350" y="12.300" width="1.025" height="1.025" fill="#000000" />
<rect x="15.375" y="12.300" width="1.025" height="1.025" fill="#f40a0a" />
<rect x="16.400" y="12.300" width="1.025" height="1.025" fill="#250202" />
<rect x="17.425" y="12.300" width="1.025" height="1.025" fill="#000000" />
<rect x="18.450" y="12.300" width="1.025" height="1.025" fill="#ffffff" />
<rect x="19.475" y="12.300" width="1.025" height="1.025" fill="#ffffff" />
<rect x="20.500" y="12.300" width="1.025" height="1.025" fill="#ffffff" />
<rect x="21.525" y="12.300" width="1.025" height="1.025" fill="#250202" />
<rect x="22.550" y="12.300" width="1.025" height="1.025" fill="#f50b0b" />
<rect x="23.575" y="12.300" width="1.025" height="1.025" fill="#000000" />
<rect x="24.600" y="12.300" width="1.025" height="1.025" fill="#ffffff" />
<rect x="25.625" y="12.300" width="1.025" height="1.025" fill="#ffffff" />
<rect x="14.350" y="13.325" width="1.025" height="1.025" fill="#000000" />
<rect x="15.375" y="13.325" width="1.025" height="1.025" fill="#f40a0a" />
<rect x="16.400" y="13.325" width="1.025" height="1.025" fill="#230202" />
<rect x="17.425" y="13.325" width="1.025" height="1.025" fill="#ffffff" />
<rect x="18.450" y="13.325" width="1.025" height="1.025" fill="#000000" />
<rect x="19.475" y="13.325" width="1.025" height="1.025" fill="#000000" />
<rect x="20.500" y="13.325" width="1.025" height="1.025" fill="#0f0101" />
<rect x="21.525" y="13.325" width="1.025" height="1.025" fill="#ffffff" />
<rect x="22.550" y="13.325" width="1.025" height="1.025" fill="#3a0303" />
<rect x="23.575" y="13.325" width="1.025" height="1.025" fill="#ffffff" />
<rect x="24.600" y="13.325" width="1.025" height="1.025" fill="#0f0101" />
<rect x="25.625" y="13.325" width="1.025" height="1.025" fill="#0f0101" />
<rect x="13.325" y="14.350" width="1.025" height="1.025" fill="#000000" />
<rect x="14.350" y="14.350" width="1.025" height="1.025" fill="#f40a0a" />
<rect x="15.375" y="14.350" width="1.025" height="1.025" fill="#f40a0a" />
<rect x="16.400" y="14.350" width="1.025" height="1.025" fill="#250202" />
<rect x="17.425" y="14.350" width="1.025" height="1.025" fill="#ffffff" />
<rect x="18.450" y="14.350" width="1.025" height="1.025" fill="#000000" />
<rect x="19.475" y="14.350" width="1.025" height="1.025" fill="#ffffff" />
<rect x="20.500" y="14.350" width="1.025" height="1.025" fill="#000000" />
<rect x="21.525" y="14.350" width="1.025" height="1.025" fill="#2c0202" />
<rect x="22.550" y="14.350" width="1.025" height="1.025" fill="#280202" />
<rect x="23.575" y="14.350" width="1.025" height="1.025" fill="#000000" />
<rect x="24.600" y="14.350" width="1.025" height="1.025" fill="#ffffff" />
<rect x="25.625" y="14.350" width="1.025" height="1.025" fill="#000000" />
<rect x="13.325" y="15.375" width="1.025" height="1.025" fill="#000000" />
<rect x="14.350" y="15.375" width="1.025" height="1.025" fill="#f40a0a" />
<rect x="15.375" y="15.375" width="1.025" height="1.025" fill="#000000" />
<rect x="16.400" y="15.375" width="1.025" height="1.025" fill="#280202" />
<rect x="17.425" y="15.375" width="1.025" height="1.025" fill="#280202" />
<rect x="18.450" y="15.375" width="1.025" height="1.025" fill="#150101" />
<rect x="19.475" y="15.375" width="1.025" height="1.025" fill="#0f0101" />
<rect x="20.500" y="15.375" width="1.025" height="1.025" fill="#0f0101" />
<rect x="21.525" y="15.375" width="1.025" height="1.025" fill="#0f0101" />
<rect x="22.550" y="15.375" width="1.025" height="1.025" fill="#f73232" />
<rect x="23.575" y="15.375" width="1.025" height="1.025" fill="#f50d0d" />
<rect x="24.600" y="15.375" width="1.025" height="1.025" fill="#0f0101" />
<rect x="25.625" y="15.375" width="1.025" height="1.025" fill="#2c0202" />
<rect x="29.725" y="15.375" width="1.025" height="1.025" fill="#f73232" />
<rect x="30.750" y="15.375" width="1.025" height="1.025" fill="#f73232" />
<rect x="14.350" y="16.400" width="1.025" height="1.025" fill="#000000" />
<rect x="15.375" y="16.400" width="1.025" height="1.025" fill="#f50d0d" />
<rect x="16.400" y="16.400" width="1.025" height="1.025" fill="#f51717" />
<rect x="17.425" y="16.400" width="1.025" height="1.025" fill="#f51717" />
<rect x="18.450" y="16.400" width="1.025" height="1.025" fill="#0f0101" />
<rect x="19.475" y="16.400" width="1.025" height="1.025" fill="#0f0101" />
<rect x="20.500" y="16.400" width="1.025" height="1.025" fill="#0f0101" />
<rect x="21.525" y="16.400" width="1.025" height="1.025" fill="#0f0101" />
<rect x="22.550" y="16.400" width="1.025" height="1.025" fill="#f73232" />
<rect x="23.575" y="16.400" width="1.025" height="1.025" fill="#f00a0a" />
<rect x="24.600" y="16.400" width="1.025" height="1.025" fill="#f73232" />
<rect x="25.625" y="16.400" width="1.025" height="1.025" fill="#f73232" />
<rect x="26.650" y="16.400" width="1.025" height="1.025" fill="#f73232" />
<rect x="27.675" y="16.400" width="1.025" height="1.025" fill="#f73232" />
<rect x="28.700" y="16.400" width="1.025" height="1.025" fill="#f73232" />
<rect x="29.725" y="16.400" width="1.025" height="1.025" fill="#f73232" />
<rect x="30.750" y="16.400" width="1.025" height="1.025" fill="#f61b1b" />
<rect x="31.775" y="16.400" width="1.025" height="1.025" fill="#f73232" />
<rect x="14.350" y="17.425" width="1.025" height="1.025" fill="#000000" />
<rect x="15.375" y="17.425" width="1.025" height="1.025" fill="#f50d0d" />
<rect x="16.400" y="17.425" width="1.025" height="1.025" fill="#f61d1d" />
<rect x="17.425" y="17.425" width="1.025" height="1.025" fill="#f51313" />
<rect x="18.450" y="17.425" width="1.025" height="1.025" fill="#f50f0f" />
<rect x="19.475" y="17.425" width="1.025" height="1.025" fill="#1b0202" />
<rect x="20.500" y="17.425" width="1.025" height="1.025" fill="#0f0101" />
<rect x="21.525" y="17.425" width="1.025" height="1.025" fill="#f00a0a" />
<rect x="22.550" y="17.425" width="1.025" height="1.025" fill="#f00a0a" />
<rect x="23.575" y="17.425" width="1.025" height="1.025" fill="#f73232" />
<rect x="24.600" y="17.425" width="1.025" height="1.025" fill="#f73232" />
<rect x="25.625" y="17.425" width="1.025" height="1.025" fill="#f61b1b" />
<rect x="26.650" y="17.425" width="1.025" height="1.025" fill="#f73232" />
<rect x="27.675" y="17.425" width="1.025" height="1.025" fill="#f61b1b" />
<rect x="28.700" y="17.425" width="1.025" height="1.025" fill="#f73232" />
<rect x="29.725" y="17.425" width="1.025" height="1.025" fill="#f61b1b" />
<rect x="30.750" y="17.425" width="1.025" height="1.025" fill="#f73232" />
<rect x="14.350" y="18.450" width="1.025" height="1.025" fill="#000000" />
<rect x="15.375" y="18.450" width="1.025" height="1.025" fill="#f40a0a" />
<rect x="16.400" y="18.450" width="1.025" height="1.025" fill="#f61b1b" />
<rect x="17.425" y="18.450" width="1.025" height="1.025" fill="#f51717" />
<rect x="18.450" y="18.450" width="1.025" height="1.025" fill="#f51717" />
<rect x="19.475" y="18.450" width="1.025" height="1.025" fill="#260202" />
<rect x="20.500" y="18.450" width="1.025" height="1.025" fill="#ffffff" />
<rect x="21.525" y="18.450" width="1.025" height="1.025" fill="#fdcccc" />
<rect x="22.550" y="18.450" width="1.025" height="1.025" fill="#fb9898" />
<rect x="23.575" y="18.450" width="1.025" height="1.025" fill="#fb9898" />
<rect x="24.600" y="18.450" width="1.025" height="1.025" fill="#f73232" />
<rect x="25.625" y="18.450" width="1.025" height="1.025" fill="#f61b1b" />
<rect x="26.650" y="18.450" width="1.025" height="1.025" fill="#f73232" />
<rect x="27.675" y="18.450" width="1.025" height="1.025" fill="#f61b1b" />
<rect x="28.700" y="18.450" width="1.025" height="1.025" fill="#f73232" />
<rect x="29.725" y="18.450" width="1.025" height="1.025" fill="#f61b1b" />
<rect x="14.350" y="19.475" width="1.025" height="1.025" fill="#000000" />
<rect x="15.375" y="19.475" width="1.025" height="1.025" fill="#f40a0a" />
<rect x="16.400" y="19.475" width="1.025" height="1.025" fill="#450303" />
<rect x="17.425" y="19.475" width="1.025" height="1.025" fill="#3c0303" />
<rect x="18.450" y="19.475" width="1.025" height="1.025" fill="#3a0303" />
<rect x="19.475" y="19.475" width="1.025" height="1.025" fill="#ffffff" />
<rect x="20.500" y="19.475" width="1.025" height="1.025" fill="#450303" />
<rect x="21.525" y="19.475" width="1.025" height="1.025" fill="#ffffff" />
<rect x="22.550" y="19.475" width="1.025" height="1.025" fill="#210202" />
<rect x="23.575" y="19.475" width="1.025" height="1.025" fill="#ffffff" />
<rect x="24.600" y="19.475" width="1.025" height="1.025" fill="#470303" />
<rect x="25.625" y="19.475" width="1.025" height="1.025" fill="#ffffff" />
<rect x="14.350" y="20.500" width="1.025" height="1.025" fill="#000000" />
<rect x="15.375" y="20.500" width="1.025" height="1.025" fill="#f40a0a" />
<rect x="16.400" y="20.500" width="1.025" height="1.025" fill="#550404" />
<rect x="17.425" y="20.500" width="1.025" height="1.025" fill="#3a0303" />
<rect x="18.450" y="20.500" width="1.025" height="1.025" fill="#f51515" />
<rect x="19.475" y="20.500" width="1.025" height="1.025" fill="#ffffff" />
<rect x="20.500" y="20.500" width="1.025" height="1.025" fill="#ffffff" />
<rect x="21.525" y="20.500" width="1.025" height="1.025" fill="#ffffff" />
<rect x="22.550" y="20.500" width="1.025" height="1.025" fill="#ffffff" />
<rect x="23.575" y="20.500" width="1.025" height="1.025" fill="#ffffff" />
<rect x="24.600" y="20.500" width="1.025" height="1.025" fill="#ffffff" />
<rect x="25.625" y="20.500" width="1.025" height="1.025" fill="#ffffff" />
<rect x="14.350" y="21.525" width="1.025" height="1.025" fill="#000000" />
<rect x="15.375" y="21.525" width="1.025" height="1.025" fill="#f40a0a" />
<rect x="16.400" y="21.525" width="1.025" height="1.025" fill="#6c0505" />
<rect x="17.425" y="21.525" width="1.025" height="1.025" fill="#f61919" />
<rect x="18.450" y="21.525" width="1.025" height="1.025" fill="#3a0303" />
<rect x="19.475" y="21.525" width="1.025" height="1.025" fill="#470303" />
<rect x="20.500" y="21.525" width="1.025" height="1.025" fill="#ffffff" />
<rect x="21.525" y="21.525" width="1.025" height="1.025" fill="#f61919" />
<rect x="22.550" y="21.525" width="1.025" height="1.025" fill="#470303" />
<rect x="23.575" y="21.525" width="1.025" height="1.025" fill="#f50b0b" />
<rect x="24.600" y="21.525" width="1.025" height="1.025" fill="#ffffff" />
<rect x="25.625" y="21.525" width="1.025" height="1.025" fill="#6e0505" />
<rect x="15.375" y="22.550" width="1.025" height="1.025" fill="#000000" />
<rect x="16.400" y="22.550" width="1.025" height="1.025" fill="#f40a0a" />
<rect x="17.425" y="22.550" width="1.025" height="1.025" fill="#680505" />
<rect x="18.450" y="22.550" width="1.025" height="1.025" fill="#470303" />
<rect x="19.475" y="22.550" width="1.025" height="1.025" fill="#470303" />
<rect x="20.500" y="22.550" width="1.025" height="1.025" fill="#470303" />
<rect x="21.525" y="22.550" width="1.025" height="1.025" fill="#f61b1b" />
<rect x="22.550" y="22.550" width="1.025" height="1.025" fill="#490303" />
<rect x="23.575" y="22.550" width="1.025" height="1.025" fill="#f51313" />
<rect x="24.600" y="22.550" width="1.025" height="1.025" fill="#3c0303" />
<rect x="16.400" y="23.575" width="1.025" height="1.025" fill="#000000" />
<rect x="17.425" y="23.575" width="1.025" height="1.025" fill="#f40a0a" />
<rect x="18.450" y="23.575" width="1.025" height="1.025" fill="#680505" />
<rect x="19.475" y="23.575" width="1.025" height="1.025" fill="#490303" />
<rect x="20.500" y="23.575" width="1.025" height="1.025" fill="#f61b1b" />
<rect x="21.525" y="23.575" width="1.025" height="1.025" fill="#260202" />
<rect x="22.550" y="23.575" width="1.025" height="1.025" fill="#260202" />
<rect x="23.575" y="23.575" width="1.025" height="1.025" fill="#3f0303" />
<rect x="17.425" y="24.600" width="1.025" height="1.025" fill="#000000" />
<rect x="18.450" y="24.600" width="1.025" height="1.025" fill="#f40a0a" />
<rect x="19.475" y="24.600" width="1.025" height="1.025" fill="#680505" />
<rect x="20.500" y="24.600" width="1.025" height="1.025" fill="#490303" />
<rect x="21.525" y="24.600" width="1.025" height="1.025" fill="#260202" />
</svg>