<svg xmlns="http://www.w3.org/2000/svg" width="37.925" height="37.925" shape-rendering="crispEdges" style="image-rendering: pixelated;">
<rect x="15.375" y="18.450" width="1.025" height="1.025" fill="#e3af17" />
<rect x="16.400" y="18.450" width="1.025" height="1.025" fill="#e3af17" />
<rect x="17.425" y="18.450" width="1.025" height="1.025" fill="#e3af17" />
<rect x="18.450" y="18.450" width="1.025" height="1.025" fill="#e3af17" />
<rect x="19.475" y="18.450" width="1.025" height="1.025" fill="#d0a21c" />
<rect x="20.500" y="18.450" width="1.025" height="1.025" fill="#d0a21c" />
<rect x="21.525" y="18.450" width="1.025" height="1.025" fill="#c39a20" />
<rect x="22.550" y="18.450" width="1.025" height="1.025" fill="#c39a20" />
<rect x="23.575" y="18.450" width="1.025" height="1.025" fill="#ba9322" />
<rect x="24.600" y="18.450" width="1.025" height="1.025" fill="#c39a20" />
<rect x="15.375" y="19.475" width="1.025" height="1.025" fill="#a58528" />
<rect x="17.425" y="19.475" width="1.025" height="1.025" fill="#a58528" />
<rect x="19.475" y="19.475" width="1.025" height="1.025" fill="#a58528" />
<rect x="21.525" y="19.475" width="1.025" height="1.025" fill="#a58528" />
<rect x="23.575" y="19.475" width="1.025" height="1.025" fill="#a58528" />
<rect x="15.375" y="20.500" width="1.025" height="1.025" fill="#b48f24" />
<rect x="17.425" y="20.500" width="1.025" height="1.025" fill="#b48f24" />
<rect x="19.475" y="20.500" width="1.025" height="1.025" fill="#b48f24" />
<rect x="21.525" y="20.500" width="1.025" height="1.025" fill="#b48f24" />
<rect x="23.575" y="20.500" width="1.025" height="1.025" fill="#b48f24" />
<rect x="15.375" y="21.525" width="1.025" height="1.025" fill="#b48f24" />
<rect x="17.425" y="21.525" width="1.025" height="1.025" fill="#b48f24" />
<rect x="19.475" y="21.525" width="1.025" height="1.025" fill="#b48f24" />
<rect x="21.525" y="21.525" width="1.025" height="1.025" fill="#b48f24" />
<rect x="23.575" y="21.525" width="1.025" height="1.025" fill="#b48f24" />
<rect x="16.400" y="22.550" width="1.025" height="1.025" fill="#cca01d" />
<rect x="17.425" y="22.550" width="1.025" height="1.025" fill="#b48f24" />
<rect x="19.475" y="22.550" width="1.025" height="1.025" fill="#b48f24" />
<rect x="21.525" y="22.550" width="1.025" height="1.025" fill="#b48f24" />
<rect x="23.575" y="22.550" width="1.025" height="1.025" fill="#cca01d" />
<rect x="24.600" y="22.550" width="1.025" height="1.025" fill="#b48f24" />
<rect x="17.425" y="23.575" width="1.025" height="1.025" fill="#cca01d" />
<rect x="19.475" y="23.575" width="1.025" height="1.025" fill="#b48f24" />
<rect x="21.525" y="23.575" width="1.025" height="1.025" fill="#cca01d" />
<rect x="23.575" y="23.575" width="1.025" height="1.025" fill="#cca01d" />
<rect x="18.450" y="24.600" width="1.025" height="1.025" fill="#a58528" fill-opacity="0.831" />
<rect x="19.475" y="24.600" width="1.025" height="1.025" fill="#cca01d" />
<rect x="20.500" y="24.600" width="1.025" height="1.025" fill="#a58528" fill-opacity="0.659" />
<rect x="21.525" y="24.600" width="1.025" height="1.025" fill="#cca01d" />
<rect x="22.550" y="24.600" width="1.025" height="1.025" fill="#a58528" fill-opacity="0.514" />
</svg>