<svg xmlns="http://www.w3.org/2000/svg" width="37.925" height="37.925" shape-rendering="crispEdges" style="image-rendering: pixelated;">
<rect x="13.325" y="14.350" width="1.025" height="1.025" fill="#53310b" />
<rect x="13.325" y="15.375" width="1.025" height="1.025" fill="#53310b" />
<rect x="14.350" y="15.375" width="1.025" height="1.025" fill="#301c11" />
<rect x="13.325" y="16.400" width="1.025" height="1.025" fill="#53310b" />
<rect x="14.350" y="16.400" width="1.025" height="1.025" fill="#301c11" />
<rect x="19.475" y="16.400" width="1.025" height="1.025" fill="#120605" />
<rect x="20.500" y="16.400" width="1.025" height="1.025" fill="#542f0a" />
<rect x="21.525" y="16.400" width="1.025" height="1.025" fill="#7e5b0f" />
<rect x="22.550" y="16.400" width="1.025" height="1.025" fill="#120605" />
<rect x="13.325" y="17.425" width="1.025" height="1.025" fill="#53310b" />
<rect x="14.350" y="17.425" width="1.025" height="1.025" fill="#53310b" />
<rect x="15.375" y="17.425" width="1.025" height="1.025" fill="#7f5a0e" />
<rect x="16.400" y="17.425" width="1.025" height="1.025" fill="#110505" />
<rect x="17.425" y="17.425" width="1.025" height="1.025" fill="#110505" />
<rect x="18.450" y="17.425" width="1.025" height="1.025" fill="#100607" />
<rect x="19.475" y="17.425" width="1.025" height="1.025" fill="#814f04" />
<rect x="20.500" y="17.425" width="1.025" height="1.025" fill="#ffd324" />
<rect x="21.525" y="17.425" width="1.025" height="1.025" fill="#ffd324" />
<rect x="22.550" y="17.425" width="1.025" height="1.025" fill="#ffd324" />
<rect x="23.575" y="17.425" width="1.025" height="1.025" fill="#120605" />
<rect x="24.600" y="17.425" width="1.025" height="1.025" fill="#120605" />
<rect x="13.325" y="18.450" width="1.025" height="1.025" fill="#311d11" />
<rect x="14.350" y="18.450" width="1.025" height="1.025" fill="#53310b" />
<rect x="15.375" y="18.450" width="1.025" height="1.025" fill="#51330c" />
<rect x="16.400" y="18.450" width="1.025" height="1.025" fill="#7f5e10" />
<rect x="17.425" y="18.450" width="1.025" height="1.025" fill="#a98312" />
<rect x="18.450" y="18.450" width="1.025" height="1.025" fill="#a88413" />
<rect x="19.475" y="18.450" width="1.025" height="1.025" fill="#7f4d05" />
<rect x="20.500" y="18.450" width="1.025" height="1.025" fill="#7f4d05" />
<rect x="21.525" y="18.450" width="1.025" height="1.025" fill="#ffd324" />
<rect x="22.550" y="18.450" width="1.025" height="1.025" fill="#ffd324" />
<rect x="23.575" y="18.450" width="1.025" height="1.025" fill="#d3b017" />
<rect x="24.600" y="18.450" width="1.025" height="1.025" fill="#d3b017" />
<rect x="14.350" y="19.475" width="1.025" height="1.025" fill="#301c11" />
<rect x="15.375" y="19.475" width="1.025" height="1.025" fill="#53310b" />
<rect x="16.400" y="19.475" width="1.025" height="1.025" fill="#110505" />
<rect x="17.425" y="19.475" width="1.025" height="1.025" fill="#110505" />
<rect x="18.450" y="19.475" width="1.025" height="1.025" fill="#cbb571" />
<rect x="19.475" y="19.475" width="1.025" height="1.025" fill="#e1e1df" fill-opacity="0.898" />
<rect x="20.500" y="19.475" width="1.025" height="1.025" fill="#c9c8c6" fill-opacity="0.827" />
<rect x="21.525" y="19.475" width="1.025" height="1.025" fill="#f4f4f4" fill-opacity="0.910" />
<rect x="22.550" y="19.475" width="1.025" height="1.025" fill="#f4f4f4" fill-opacity="0.910" />
<rect x="23.575" y="19.475" width="1.025" height="1.025" fill="#fff6d0" />
<rect x="24.600" y="19.475" width="1.025" height="1.025" fill="#7e5b0f" />
<rect x="15.375" y="20.500" width="1.025" height="1.025" fill="#53310b" />
<rect x="16.400" y="20.500" width="1.025" height="1.025" fill="#53310b" />
<rect x="17.425" y="20.500" width="1.025" height="1.025" fill="#110505" />
<rect x="18.450" y="20.500" width="1.025" height="1.025" fill="#b4b3b0" fill-opacity="0.580" />
<rect x="21.525" y="20.500" width="1.025" height="1.025" fill="#110505" />
<rect x="23.575" y="20.500" width="1.025" height="1.025" fill="#ffffff" fill-opacity="0.871" />
<rect x="24.600" y="20.500" width="1.025" height="1.025" fill="#53310b" />
<rect x="15.375" y="21.525" width="1.025" height="1.025" fill="#301c11" />
<rect x="16.400" y="21.525" width="1.025" height="1.025" fill="#53310b" />
<rect x="17.425" y="21.525" width="1.025" height="1.025" fill="#7e5b0f" />
<rect x="18.450" y="21.525" width="1.025" height="1.025" fill="#0e0c00" fill-opacity="0.302" />
<rect x="24.600" y="21.525" width="1.025" height="1.025" fill="#53310b" />
<rect x="16.400" y="22.550" width="1.025" height="1.025" fill="#53310b" />
<rect x="17.425" y="22.550" width="1.025" height="1.025" fill="#7e5b0f" />
<rect x="18.450" y="22.550" width="1.025" height="1.025" fill="#a88413" />
<rect x="19.475" y="22.550" width="1.025" height="1.025" fill="#7e5b0f" />
<rect x="20.500" y="22.550" width="1.025" height="1.025" fill="#7e5b0f" />
<rect x="21.525" y="22.550" width="1.025" height="1.025" fill="#7e5b0f" />
<rect x="22.550" y="22.550" width="1.025" height="1.025" fill="#7e5b0f" />
<rect x="23.575" y="22.550" width="1.025" height="1.025" fill="#d4b117" />
<rect x="24.600" y="22.550" width="1.025" height="1.025" fill="#a88413" />
<rect x="17.425" y="23.575" width="1.025" height="1.025" fill="#53310b" />
<rect x="18.450" y="23.575" width="1.025" height="1.025" fill="#a88413" />
<rect x="19.475" y="23.575" width="1.025" height="1.025" fill="#d3b017" />
<rect x="20.500" y="23.575" width="1.025" height="1.025" fill="#ffd324" />
<rect x="21.525" y="23.575" width="1.025" height="1.025" fill="#ffd324" />
<rect x="22.550" y="23.575" width="1.025" height="1.025" fill="#ffd224" />
<rect x="23.575" y="23.575" width="1.025" height="1.025" fill="#d4b117" />
</svg>