<svg xmlns="http://www.w3.org/2000/svg" width="37.925" height="37.925" shape-rendering="crispEdges" style="image-rendering: pixelated;">
<rect x="13.325" y="14.350" width="1.025" height="1.025" fill="#141414" />
<rect x="13.325" y="15.375" width="1.025" height="1.025" fill="#141414" />
<rect x="14.350" y="15.375" width="1.025" height="1.025" fill="#0d0d0d" />
<rect x="13.325" y="16.400" width="1.025" height="1.025" fill="#141414" />
<rect x="14.350" y="16.400" width="1.025" height="1.025" fill="#0d0d0d" />
<rect x="19.475" y="16.400" width="1.025" height="1.025" fill="#050505" />
<rect x="20.500" y="16.400" width="1.025" height="1.025" fill="#141414" />
<rect x="21.525" y="16.400" width="1.025" height="1.025" fill="#1d1d1d" />
<rect x="22.550" y="16.400" width="1.025" height="1.025" fill="#050505" />
<rect x="13.325" y="17.425" width="1.025" height="1.025" fill="#141414" />
<rect x="14.350" y="17.425" width="1.025" height="1.025" fill="#141414" />
<rect x="15.375" y="17.425" width="1.025" height="1.025" fill="#1e1e1e" />
<rect x="16.400" y="17.425" width="1.025" height="1.025" fill="#040404" />
<rect x="17.425" y="17.425" width="1.025" height="1.025" fill="#040404" />
<rect x="18.450" y="17.425" width="1.025" height="1.025" fill="#050505" />
<rect x="19.475" y="17.425" width="1.025" height="1.025" fill="#1c1c1c" />
<rect x="20.500" y="17.425" width="1.025" height="1.025" fill="#3d3d3d" />
<rect x="21.525" y="17.425" width="1.025" height="1.025" fill="#3d3d3d" />
<rect x="22.550" y="17.425" width="1.025" height="1.025" fill="#3d3d3d" />
<rect x="23.575" y="17.425" width="1.025" height="1.025" fill="#050505" />
<rect x="24.600" y="17.425" width="1.025" height="1.025" fill="#050505" />
<rect x="13.325" y="18.450" width="1.025" height="1.025" fill="#0e0e0e" />
<rect x="14.350" y="18.450" width="1.025" height="1.025" fill="#141414" />
<rect x="15.375" y="18.450" width="1.025" height="1.025" fill="#131313" />
<rect x="16.400" y="18.450" width="1.025" height="1.025" fill="#1e1e1e" />
<rect x="17.425" y="18.450" width="1.025" height="1.025" fill="#282828" />
<rect x="18.450" y="18.450" width="1.025" height="1.025" fill="#272727" />
<rect x="19.475" y="18.450" width="1.025" height="1.025" fill="#1c1c1c" />
<rect x="20.500" y="18.450" width="1.025" height="1.025" fill="#1c1c1c" />
<rect x="21.525" y="18.450" width="1.025" height="1.025" fill="#3d3d3d" />
<rect x="22.550" y="18.450" width="1.025" height="1.025" fill="#3d3d3d" />
<rect x="23.575" y="18.450" width="1.025" height="1.025" fill="#313131" />
<rect x="24.600" y="18.450" width="1.025" height="1.025" fill="#313131" />
<rect x="14.350" y="19.475" width="1.025" height="1.025" fill="#0d0d0d" />
<rect x="15.375" y="19.475" width="1.025" height="1.025" fill="#141414" />
<rect x="16.400" y="19.475" width="1.025" height="1.025" fill="#040404" />
<rect x="17.425" y="19.475" width="1.025" height="1.025" fill="#040404" />
<rect x="18.450" y="19.475" width="1.025" height="1.025" fill="#434343" />
<rect x="19.475" y="19.475" width="1.025" height="1.025" fill="#5e5e5e" fill-opacity="0.898" />
<rect x="20.500" y="19.475" width="1.025" height="1.025" fill="#545454" fill-opacity="0.827" />
<rect x="21.525" y="19.475" width="1.025" height="1.025" fill="#676767" fill-opacity="0.910" />
<rect x="22.550" y="19.475" width="1.025" height="1.025" fill="#676767" fill-opacity="0.910" />
<rect x="23.575" y="19.475" width="1.025" height="1.025" fill="#626262" />
<rect x="24.600" y="19.475" width="1.025" height="1.025" fill="#1d1d1d" />
<rect x="15.375" y="20.500" width="1.025" height="1.025" fill="#141414" />
<rect x="16.400" y="20.500" width="1.025" height="1.025" fill="#141414" />
<rect x="17.425" y="20.500" width="1.025" height="1.025" fill="#040404" />
<rect x="18.450" y="20.500" width="1.025" height="1.025" fill="#4b4b4b" fill-opacity="0.580" />
<rect x="21.525" y="20.500" width="1.025" height="1.025" fill="#040404" />
<rect x="23.575" y="20.500" width="1.025" height="1.025" fill="#6c6c6c" fill-opacity="0.871" />
<rect x="24.600" y="20.500" width="1.025" height="1.025" fill="#141414" />
<rect x="15.375" y="21.525" width="1.025" height="1.025" fill="#0d0d0d" />
<rect x="16.400" y="21.525" width="1.025" height="1.025" fill="#141414" />
<rect x="17.425" y="21.525" width="1.025" height="1.025" fill="#1d1d1d" />
<rect x="18.450" y="21.525" width="1.025" height="1.025" fill="#030303" fill-opacity="0.302" />
<rect x="24.600" y="21.525" width="1.025" height="1.025" fill="#141414" />
<rect x="16.400" y="22.550" width="1.025" height="1.025" fill="#141414" />
<rect x="17.425" y="22.550" width="1.025" height="1.025" fill="#1d1d1d" />
<rect x="18.450" y="22.550" width="1.025" height="1.025" fill="#272727" />
<rect x="19.475" y="22.550" width="1.025" height="1.025" fill="#1d1d1d" />
<rect x="20.500" y="22.550" width="1.025" height="1.025" fill="#1d1d1d" />
<rect x="21.525" y="22.550" width="1.025" height="1.025" fill="#1d1d1d" />
<rect x="22.550" y="22.550" width="1.025" height="1.025" fill="#1d1d1d" />
<rect x="23.575" y="22.550" width="1.025" height="1.025" fill="#323232" />
<rect x="24.600" y="22.550" width="1.025" height="1.025" fill="#272727" />
<rect x="17.425" y="23.575" width="1.025" height="1.025" fill="#141414" />
<rect x="18.450" y="23.575" width="1.025" height="1.025" fill="#272727" />
<rect x="19.475" y="23.575" width="1.025" height="1.025" fill="#313131" />
<rect x="20.500" y="23.575" width="1.025" height="1.025" fill="#3d3d3d" />
<rect x="21.525" y="23.575" width="1.025" height="1.025" fill="#3d3d3d" />
<rect x="22.550" y="23.575" width="1.025" height="1.025" fill="#3d3d3d" />
<rect x="23.575" y="23.575" width="1.025" height="1.025" fill="#323232" />
</svg>