<svg xmlns="http://www.w3.org/2000/svg" width="37.925" height="37.925" shape-rendering="crispEdges" style="image-rendering: pixelated;">
<rect x="13.325" y="4.100" width="1.025" height="1.025" fill="#ffffff" fill-opacity="0.659" />
<rect x="28.700" y="4.100" width="1.025" height="1.025" fill="#cfcfcf" />
<rect x="13.325" y="5.125" width="1.025" height="1.025" fill="#cfcfcf" />
<rect x="28.700" y="5.125" width="1.025" height="1.025" fill="#cfcfcf" />
<rect x="13.325" y="6.150" width="1.025" height="1.025" fill="#cfcfcf" />
<rect x="14.350" y="6.150" width="1.025" height="1.025" fill="#ffffff" />
<rect x="15.375" y="6.150" width="1.025" height="1.025" fill="#f5f5f5" />
<rect x="27.675" y="6.150" width="1.025" height="1.025" fill="#cfcfcf" />
<rect x="28.700" y="6.150" width="1.025" height="1.025" fill="#ffffff" />
<rect x="14.350" y="7.175" width="1.025" height="1.025" fill="#cfcfcf" />
<rect x="15.375" y="7.175" width="1.025" height="1.025" fill="#f5f5f5" />
<rect x="16.400" y="7.175" width="1.025" height="1.025" fill="#3f3f3f" />
<rect x="17.425" y="7.175" width="1.025" height="1.025" fill="#550041" />
<rect x="18.450" y="7.175" width="1.025" height="1.025" fill="#280f25" />
<rect x="19.475" y="7.175" width="1.025" height="1.025" fill="#1c0f1a" />
<rect x="20.500" y="7.175" width="1.025" height="1.025" fill="#271b25" />
<rect x="21.525" y="7.175" width="1.025" height="1.025" fill="#d1009c" />
<rect x="22.550" y="7.175" width="1.025" height="1.025" fill="#0a0a0a" />
<rect x="23.575" y="7.175" width="1.025" height="1.025" fill="#250017" />
<rect x="24.600" y="7.175" width="1.025" height="1.025" fill="#000000" fill-opacity="0.302" />
<rect x="26.650" y="7.175" width="1.025" height="1.025" fill="#cfcfcf" />
<rect x="27.675" y="7.175" width="1.025" height="1.025" fill="#ffffff" />
<rect x="28.700" y="7.175" width="1.025" height="1.025" fill="#ffffff" />
<rect x="14.350" y="8.200" width="1.025" height="1.025" fill="#363636" />
<rect x="15.375" y="8.200" width="1.025" height="1.025" fill="#cfcfcf" />
<rect x="16.400" y="8.200" width="1.025" height="1.025" fill="#f5f5f5" />
<rect x="17.425" y="8.200" width="1.025" height="1.025" fill="#f5f5f5" />
<rect x="18.450" y="8.200" width="1.025" height="1.025" fill="#10020d" />
<rect x="19.475" y="8.200" width="1.025" height="1.025" fill="#1c0014" />
<rect x="20.500" y="8.200" width="1.025" height="1.025" fill="#4e003c" />
<rect x="21.525" y="8.200" width="1.025" height="1.025" fill="#d700a1" />
<rect x="22.550" y="8.200" width="1.025" height="1.025" fill="#2b2b2b" />
<rect x="23.575" y="8.200" width="1.025" height="1.025" fill="#10020d" />
<rect x="24.600" y="8.200" width="1.025" height="1.025" fill="#070006" />
<rect x="25.625" y="8.200" width="1.025" height="1.025" fill="#cfcfcf" />
<rect x="26.650" y="8.200" width="1.025" height="1.025" fill="#f5f5f5" />
<rect x="27.675" y="8.200" width="1.025" height="1.025" fill="#ffffff" />
<rect x="15.375" y="9.225" width="1.025" height="1.025" fill="#cfcfcf" />
<rect x="16.400" y="9.225" width="1.025" height="1.025" fill="#cfcfcf" />
<rect x="17.425" y="9.225" width="1.025" height="1.025" fill="#cfcfcf" />
<rect x="18.450" y="9.225" width="1.025" height="1.025" fill="#250017" />
<rect x="19.475" y="9.225" width="1.025" height="1.025" fill="#540041" />
<rect x="20.500" y="9.225" width="1.025" height="1.025" fill="#d800a3" />
<rect x="21.525" y="9.225" width="1.025" height="1.025" fill="#d700a1" />
<rect x="22.550" y="9.225" width="1.025" height="1.025" fill="#0d000b" />
<rect x="23.575" y="9.225" width="1.025" height="1.025" fill="#0a0a0a" />
<rect x="24.600" y="9.225" width="1.025" height="1.025" fill="#040004" />
<rect x="25.625" y="9.225" width="1.025" height="1.025" fill="#cfcfcf" />
<rect x="26.650" y="9.225" width="1.025" height="1.025" fill="#f5f5f5" />
<rect x="15.375" y="10.250" width="1.025" height="1.025" fill="#4e374a" />
<rect x="16.400" y="10.250" width="1.025" height="1.025" fill="#30232d" />
<rect x="17.425" y="10.250" width="1.025" height="1.025" fill="#300023" />
<rect x="18.450" y="10.250" width="1.025" height="1.025" fill="#410032" />
<rect x="19.475" y="10.250" width="1.025" height="1.025" fill="#960071" />
<rect x="20.500" y="10.250" width="1.025" height="1.025" fill="#d700a1" />
<rect x="21.525" y="10.250" width="1.025" height="1.025" fill="#d700a1" />
<rect x="22.550" y="10.250" width="1.025" height="1.025" fill="#d2009f" />
<rect x="23.575" y="10.250" width="1.025" height="1.025" fill="#330026" />
<rect x="24.600" y="10.250" width="1.025" height="1.025" fill="#000000" />
<rect x="25.625" y="10.250" width="1.025" height="1.025" fill="#271b25" />
<rect x="26.650" y="10.250" width="1.025" height="1.025" fill="#000000" fill-opacity="0.302" />
<rect x="15.375" y="11.275" width="1.025" height="1.025" fill="#421a33" />
<rect x="16.400" y="11.275" width="1.025" height="1.025" fill="#750059" />
<rect x="17.425" y="11.275" width="1.025" height="1.025" fill="#910070" />
<rect x="18.450" y="11.275" width="1.025" height="1.025" fill="#1a1a1a" />
<rect x="19.475" y="11.275" width="1.025" height="1.025" fill="#1a1a1a" />
<rect x="20.500" y="11.275" width="1.025" height="1.025" fill="#1a1a1a" />
<rect x="21.525" y="11.275" width="1.025" height="1.025" fill="#d700a1" />
<rect x="22.550" y="11.275" width="1.025" height="1.025" fill="#d700a1" />
<rect x="23.575" y="11.275" width="1.025" height="1.025" fill="#1a1a1a" />
<rect x="24.600" y="11.275" width="1.025" height="1.025" fill="#1a1a1a" />
<rect x="25.625" y="11.275" width="1.025" height="1.025" fill="#434343" />
<rect x="26.650" y="11.275" width="1.025" height="1.025" fill="#101010" fill-opacity="0.302" />
<rect x="15.375" y="12.300" width="1.025" height="1.025" fill="#430033" />
<rect x="16.400" y="12.300" width="1.025" height="1.025" fill="#750057" />
<rect x="17.425" y="12.300" width="1.025" height="1.025" fill="#1a1a1a" />
<rect x="18.450" y="12.300" width="1.025" height="1.025" fill="#dd00a6" />
<rect x="19.475" y="12.300" width="1.025" height="1.025" fill="#dd00a6" />
<rect x="20.500" y="12.300" width="1.025" height="1.025" fill="#d700a1" />
<rect x="21.525" y="12.300" width="1.025" height="1.025" fill="#d1009c" />
<rect x="22.550" y="12.300" width="1.025" height="1.025" fill="#d600a0" />
<rect x="23.575" y="12.300" width="1.025" height="1.025" fill="#dd00a6" />
<rect x="24.600" y="12.300" width="1.025" height="1.025" fill="#dd00a6" />
<rect x="25.625" y="12.300" width="1.025" height="1.025" fill="#1a1a1a" />
<rect x="14.350" y="13.325" width="1.025" height="1.025" fill="#000000" />
<rect x="15.375" y="13.325" width="1.025" height="1.025" fill="#d1009c" />
<rect x="16.400" y="13.325" width="1.025" height="1.025" fill="#d1009c" />
<rect x="17.425" y="13.325" width="1.025" height="1.025" fill="#dd00a6" />
<rect x="18.450" y="13.325" width="1.025" height="1.025" fill="#00ffff" />
<rect x="19.475" y="13.325" width="1.025" height="1.025" fill="#00ffff" />
<rect x="20.500" y="13.325" width="1.025" height="1.025" fill="#d700a1" />
<rect x="21.525" y="13.325" width="1.025" height="1.025" fill="#c20092" />
<rect x="22.550" y="13.325" width="1.025" height="1.025" fill="#c80097" />
<rect x="23.575" y="13.325" width="1.025" height="1.025" fill="#00ffff" />
<rect x="24.600" y="13.325" width="1.025" height="1.025" fill="#00ffff" />
<rect x="25.625" y="13.325" width="1.025" height="1.025" fill="#d700a1" />
<rect x="14.350" y="14.350" width="1.025" height="1.025" fill="#000000" />
<rect x="15.375" y="14.350" width="1.025" height="1.025" fill="#a8007f" />
<rect x="16.400" y="14.350" width="1.025" height="1.025" fill="#d1009c" />
<rect x="17.425" y="14.350" width="1.025" height="1.025" fill="#00ffff" />
<rect x="18.450" y="14.350" width="1.025" height="1.025" fill="#0d0d0d" />
<rect x="19.475" y="14.350" width="1.025" height="1.025" fill="#ffffff" />
<rect x="20.500" y="14.350" width="1.025" height="1.025" fill="#00ffff" />
<rect x="21.525" y="14.350" width="1.025" height="1.025" fill="#cf009c" />
<rect x="22.550" y="14.350" width="1.025" height="1.025" fill="#00ffff" />
<rect x="23.575" y="14.350" width="1.025" height="1.025" fill="#0d0d0d" />
<rect x="24.600" y="14.350" width="1.025" height="1.025" fill="#ffffff" />
<rect x="25.625" y="14.350" width="1.025" height="1.025" fill="#00ffff" />
<rect x="12.300" y="15.375" width="1.025" height="1.025" fill="#00ffff" />
<rect x="13.325" y="15.375" width="1.025" height="1.025" fill="#00ffff" />
<rect x="14.350" y="15.375" width="1.025" height="1.025" fill="#000000" />
<rect x="15.375" y="15.375" width="1.025" height="1.025" fill="#a8007f" />
<rect x="16.400" y="15.375" width="1.025" height="1.025" fill="#cf009c" />
<rect x="17.425" y="15.375" width="1.025" height="1.025" fill="#cf009c" />
<rect x="18.450" y="15.375" width="1.025" height="1.025" fill="#00ffff" />
<rect x="19.475" y="15.375" width="1.025" height="1.025" fill="#00ffff" />
<rect x="20.500" y="15.375" width="1.025" height="1.025" fill="#d700a1" />
<rect x="21.525" y="15.375" width="1.025" height="1.025" fill="#d700a1" />
<rect x="22.550" y="15.375" width="1.025" height="1.025" fill="#c10091" />
<rect x="23.575" y="15.375" width="1.025" height="1.025" fill="#00ffff" />
<rect x="24.600" y="15.375" width="1.025" height="1.025" fill="#00ffff" />
<rect x="25.625" y="15.375" width="1.025" height="1.025" fill="#d600a0" />
<rect x="11.275" y="16.400" width="1.025" height="1.025" fill="#00ffff" />
<rect x="14.350" y="16.400" width="1.025" height="1.025" fill="#000000" />
<rect x="15.375" y="16.400" width="1.025" height="1.025" fill="#a8007f" />
<rect x="16.400" y="16.400" width="1.025" height="1.025" fill="#cc009b" />
<rect x="17.425" y="16.400" width="1.025" height="1.025" fill="#cc009b" />
<rect x="18.450" y="16.400" width="1.025" height="1.025" fill="#d700a1" />
<rect x="19.475" y="16.400" width="1.025" height="1.025" fill="#d700a1" />
<rect x="20.500" y="16.400" width="1.025" height="1.025" fill="#d700a1" />
<rect x="21.525" y="16.400" width="1.025" height="1.025" fill="#d700a1" />
<rect x="22.550" y="16.400" width="1.025" height="1.025" fill="#7f005f" />
<rect x="23.575" y="16.400" width="1.025" height="1.025" fill="#d700a1" />
<rect x="24.600" y="16.400" width="1.025" height="1.025" fill="#d600a0" />
<rect x="25.625" y="16.400" width="1.025" height="1.025" fill="#d600a0" />
<rect x="10.250" y="17.425" width="1.025" height="1.025" fill="#00ffff" />
<rect x="15.375" y="17.425" width="1.025" height="1.025" fill="#a8007f" />
<rect x="16.400" y="17.425" width="1.025" height="1.025" fill="#c60094" />
<rect x="17.425" y="17.425" width="1.025" height="1.025" fill="#d700a1" />
<rect x="18.450" y="17.425" width="1.025" height="1.025" fill="#d700a1" />
<rect x="19.475" y="17.425" width="1.025" height="1.025" fill="#d700a1" />
<rect x="20.500" y="17.425" width="1.025" height="1.025" fill="#d700a1" />
<rect x="21.525" y="17.425" width="1.025" height="1.025" fill="#d700a1" />
<rect x="22.550" y="17.425" width="1.025" height="1.025" fill="#79005c" />
<rect x="23.575" y="17.425" width="1.025" height="1.025" fill="#a6007e" />
<rect x="24.600" y="17.425" width="1.025" height="1.025" fill="#d600a0" />
<rect x="25.625" y="17.425" width="1.025" height="1.025" fill="#d700a1" />
<rect x="10.250" y="18.450" width="1.025" height="1.025" fill="#00ffff" />
<rect x="14.350" y="18.450" width="1.025" height="1.025" fill="#000000" />
<rect x="15.375" y="18.450" width="1.025" height="1.025" fill="#a8007f" />
<rect x="16.400" y="18.450" width="1.025" height="1.025" fill="#c70097" />
<rect x="17.425" y="18.450" width="1.025" height="1.025" fill="#c80097" />
<rect x="18.450" y="18.450" width="1.025" height="1.025" fill="#ff65f5" />
<rect x="19.475" y="18.450" width="1.025" height="1.025" fill="#d700a1" />
<rect x="20.500" y="18.450" width="1.025" height="1.025" fill="#d700a1" />
<rect x="21.525" y="18.450" width="1.025" height="1.025" fill="#d700a1" />
<rect x="22.550" y="18.450" width="1.025" height="1.025" fill="#d700a1" />
<rect x="23.575" y="18.450" width="1.025" height="1.025" fill="#d700a1" />
<rect x="24.600" y="18.450" width="1.025" height="1.025" fill="#d700a1" />
<rect x="25.625" y="18.450" width="1.025" height="1.025" fill="#ff65f5" />
<rect x="14.350" y="19.475" width="1.025" height="1.025" fill="#000000" />
<rect x="15.375" y="19.475" width="1.025" height="1.025" fill="#b10085" />
<rect x="16.400" y="19.475" width="1.025" height="1.025" fill="#c60094" />
<rect x="17.425" y="19.475" width="1.025" height="1.025" fill="#c80097" />
<rect x="18.450" y="19.475" width="1.025" height="1.025" fill="#272727" />
<rect x="19.475" y="19.475" width="1.025" height="1.025" fill="#ffffff" />
<rect x="20.500" y="19.475" width="1.025" height="1.025" fill="#ffa8be" />
<rect x="21.525" y="19.475" width="1.025" height="1.025" fill="#fb8494" />
<rect x="22.550" y="19.475" width="1.025" height="1.025" fill="#ffa8be" />
<rect x="23.575" y="19.475" width="1.025" height="1.025" fill="#fb8494" />
<rect x="24.600" y="19.475" width="1.025" height="1.025" fill="#ffa8be" />
<rect x="25.625" y="19.475" width="1.025" height="1.025" fill="#ffffff" />
<rect x="14.350" y="20.500" width="1.025" height="1.025" fill="#000000" />
<rect x="15.375" y="20.500" width="1.025" height="1.025" fill="#b10085" />
<rect x="16.400" y="20.500" width="1.025" height="1.025" fill="#c20092" />
<rect x="17.425" y="20.500" width="1.025" height="1.025" fill="#c80097" />
<rect x="18.450" y="20.500" width="1.025" height="1.025" fill="#272727" />
<rect x="19.475" y="20.500" width="1.025" height="1.025" fill="#ffffff" />
<rect x="20.500" y="20.500" width="1.025" height="1.025" fill="#272727" />
<rect x="21.525" y="20.500" width="1.025" height="1.025" fill="#272727" />
<rect x="22.550" y="20.500" width="1.025" height="1.025" fill="#272727" />
<rect x="23.575" y="20.500" width="1.025" height="1.025" fill="#272727" />
<rect x="24.600" y="20.500" width="1.025" height="1.025" fill="#272727" />
<rect x="25.625" y="20.500" width="1.025" height="1.025" fill="#ffffff" />
<rect x="14.350" y="21.525" width="1.025" height="1.025" fill="#000000" />
<rect x="15.375" y="21.525" width="1.025" height="1.025" fill="#b10085" />
<rect x="16.400" y="21.525" width="1.025" height="1.025" fill="#bb008c" />
<rect x="17.425" y="21.525" width="1.025" height="1.025" fill="#c60094" />
<rect x="18.450" y="21.525" width="1.025" height="1.025" fill="#c80097" />
<rect x="19.475" y="21.525" width="1.025" height="1.025" fill="#ff65f5" />
<rect x="20.500" y="21.525" width="1.025" height="1.025" fill="#272727" />
<rect x="21.525" y="21.525" width="1.025" height="1.025" fill="#ffffff" />
<rect x="22.550" y="21.525" width="1.025" height="1.025" fill="#272727" />
<rect x="23.575" y="21.525" width="1.025" height="1.025" fill="#ffffff" />
<rect x="24.600" y="21.525" width="1.025" height="1.025" fill="#272727" />
<rect x="25.625" y="21.525" width="1.025" height="1.025" fill="#c80097" />
<rect x="15.375" y="22.550" width="1.025" height="1.025" fill="#000000" />
<rect x="16.400" y="22.550" width="1.025" height="1.025" fill="#dd00a6" />
<rect x="17.425" y="22.550" width="1.025" height="1.025" fill="#bd008e" />
<rect x="18.450" y="22.550" width="1.025" height="1.025" fill="#c60094" />
<rect x="19.475" y="22.550" width="1.025" height="1.025" fill="#c60094" />
<rect x="20.500" y="22.550" width="1.025" height="1.025" fill="#e00063" />
<rect x="21.525" y="22.550" width="1.025" height="1.025" fill="#de0060" />
<rect x="22.550" y="22.550" width="1.025" height="1.025" fill="#de0060" />
<rect x="23.575" y="22.550" width="1.025" height="1.025" fill="#e20064" />
<rect x="24.600" y="22.550" width="1.025" height="1.025" fill="#e20064" />
<rect x="17.425" y="23.575" width="1.025" height="1.025" fill="#dd00a6" />
<rect x="18.450" y="23.575" width="1.025" height="1.025" fill="#bd008e" />
<rect x="19.475" y="23.575" width="1.025" height="1.025" fill="#c40094" />
<rect x="20.500" y="23.575" width="1.025" height="1.025" fill="#c40094" />
<rect x="21.525" y="23.575" width="1.025" height="1.025" fill="#d1009c" />
<rect x="22.550" y="23.575" width="1.025" height="1.025" fill="#d1009c" />
<rect x="23.575" y="23.575" width="1.025" height="1.025" fill="#c70097" />
<rect x="18.450" y="24.600" width="1.025" height="1.025" fill="#dd00a6" />
<rect x="19.475" y="24.600" width="1.025" height="1.025" fill="#bd008e" />
<rect x="20.500" y="24.600" width="1.025" height="1.025" fill="#c40094" />
<rect x="21.525" y="24.600" width="1.025" height="1.025" fill="#c40094" />
<rect x="22.550" y="24.600" width="1.025" height="1.025" fill="#d1009c" />
</svg>