<svg xmlns="http://www.w3.org/2000/svg" width="37.925" height="37.925" shape-rendering="crispEdges" style="image-rendering: pixelated;">
<rect x="16.400" y="7.175" width="1.025" height="1.025" fill="#000000" />
<rect x="17.425" y="7.175" width="1.025" height="1.025" fill="#ffed00" />
<rect x="18.450" y="7.175" width="1.025" height="1.025" fill="#fcf1dd" />
<rect x="19.475" y="7.175" width="1.025" height="1.025" fill="#fbf0dd" />
<rect x="20.500" y="7.175" width="1.025" height="1.025" fill="#fbf0dc" />
<rect x="21.525" y="7.175" width="1.025" height="1.025" fill="#fbf0dc" />
<rect x="22.550" y="7.175" width="1.025" height="1.025" fill="#fbf0dc" />
<rect x="23.575" y="7.175" width="1.025" height="1.025" fill="#f8d900" />
<rect x="15.375" y="8.200" width="1.025" height="1.025" fill="#000000" />
<rect x="16.400" y="8.200" width="1.025" height="1.025" fill="#ffed00" />
<rect x="17.425" y="8.200" width="1.025" height="1.025" fill="#fdf5e4" />
<rect x="18.450" y="8.200" width="1.025" height="1.025" fill="#fef9ec" />
<rect x="19.475" y="8.200" width="1.025" height="1.025" fill="#fdf9ea" />
<rect x="20.500" y="8.200" width="1.025" height="1.025" fill="#f50e05" />
<rect x="21.525" y="8.200" width="1.025" height="1.025" fill="#fef9ec" />
<rect x="22.550" y="8.200" width="1.025" height="1.025" fill="#f60e05" />
<rect x="23.575" y="8.200" width="1.025" height="1.025" fill="#fef7e7" />
<rect x="24.600" y="8.200" width="1.025" height="1.025" fill="#f20d04" />
<rect x="14.350" y="9.225" width="1.025" height="1.025" fill="#000000" />
<rect x="15.375" y="9.225" width="1.025" height="1.025" fill="#ffed00" />
<rect x="16.400" y="9.225" width="1.025" height="1.025" fill="#fdefde" />
<rect x="17.425" y="9.225" width="1.025" height="1.025" fill="#fff8eb" />
<rect x="18.450" y="9.225" width="1.025" height="1.025" fill="#ffffff" />
<rect x="19.475" y="9.225" width="1.025" height="1.025" fill="#ffed00" />
<rect x="20.500" y="9.225" width="1.025" height="1.025" fill="#ffed00" />
<rect x="21.525" y="9.225" width="1.025" height="1.025" fill="#fff8ee" />
<rect x="22.550" y="9.225" width="1.025" height="1.025" fill="#f70e05" />
<rect x="23.575" y="9.225" width="1.025" height="1.025" fill="#ffffff" />
<rect x="24.600" y="9.225" width="1.025" height="1.025" fill="#ffed00" />
<rect x="14.350" y="10.250" width="1.025" height="1.025" fill="#000000" />
<rect x="15.375" y="10.250" width="1.025" height="1.025" fill="#ffed00" />
<rect x="16.400" y="10.250" width="1.025" height="1.025" fill="#fdeedd" />
<rect x="17.425" y="10.250" width="1.025" height="1.025" fill="#ffffff" />
<rect x="18.450" y="10.250" width="1.025" height="1.025" fill="#ffed00" />
<rect x="19.475" y="10.250" width="1.025" height="1.025" fill="#ffffff" />
<rect x="20.500" y="10.250" width="1.025" height="1.025" fill="#ffed00" />
<rect x="21.525" y="10.250" width="1.025" height="1.025" fill="#ffed00" />
<rect x="22.550" y="10.250" width="1.025" height="1.025" fill="#ffffff" />
<rect x="23.575" y="10.250" width="1.025" height="1.025" fill="#ffed00" />
<rect x="24.600" y="10.250" width="1.025" height="1.025" fill="#ffed00" />
<rect x="25.625" y="10.250" width="1.025" height="1.025" fill="#fceddb" />
<rect x="14.350" y="11.275" width="1.025" height="1.025" fill="#000000" />
<rect x="15.375" y="11.275" width="1.025" height="1.025" fill="#ffed00" />
<rect x="16.400" y="11.275" width="1.025" height="1.025" fill="#fdebda" />
<rect x="17.425" y="11.275" width="1.025" height="1.025" fill="#ffed00" />
<rect x="18.450" y="11.275" width="1.025" height="1.025" fill="#ffffff" />
<rect x="19.475" y="11.275" width="1.025" height="1.025" fill="#fffaef" />
<rect x="20.500" y="11.275" width="1.025" height="1.025" fill="#ffffff" />
<rect x="21.525" y="11.275" width="1.025" height="1.025" fill="#ffed00" />
<rect x="22.550" y="11.275" width="1.025" height="1.025" fill="#ffed00" />
<rect x="23.575" y="11.275" width="1.025" height="1.025" fill="#ffed00" />
<rect x="24.600" y="11.275" width="1.025" height="1.025" fill="#ffffff" />
<rect x="25.625" y="11.275" width="1.025" height="1.025" fill="#ffffff" />
<rect x="14.350" y="12.300" width="1.025" height="1.025" fill="#000000" />
<rect x="15.375" y="12.300" width="1.025" height="1.025" fill="#ffed00" />
<rect x="16.400" y="12.300" width="1.025" height="1.025" fill="#fdecda" />
<rect x="17.425" y="12.300" width="1.025" height="1.025" fill="#ffffff" />
<rect x="18.450" y="12.300" width="1.025" height="1.025" fill="#000000" />
<rect x="19.475" y="12.300" width="1.025" height="1.025" fill="#000000" />
<rect x="20.500" y="12.300" width="1.025" height="1.025" fill="#000000" />
<rect x="21.525" y="12.300" width="1.025" height="1.025" fill="#fbebdc" />
<rect x="22.550" y="12.300" width="1.025" height="1.025" fill="#fee200" />
<rect x="23.575" y="12.300" width="1.025" height="1.025" fill="#ffffff" />
<rect x="24.600" y="12.300" width="1.025" height="1.025" fill="#000000" />
<rect x="25.625" y="12.300" width="1.025" height="1.025" fill="#000000" />
<rect x="14.350" y="13.325" width="1.025" height="1.025" fill="#000000" />
<rect x="15.375" y="13.325" width="1.025" height="1.025" fill="#ffed00" />
<rect x="16.400" y="13.325" width="1.025" height="1.025" fill="#fdeddc" />
<rect x="17.425" y="13.325" width="1.025" height="1.025" fill="#000000" />
<rect x="18.450" y="13.325" width="1.025" height="1.025" fill="#ffffff" />
<rect x="19.475" y="13.325" width="1.025" height="1.025" fill="#ffffff" />
<rect x="20.500" y="13.325" width="1.025" height="1.025" fill="#fffaef" />
<rect x="21.525" y="13.325" width="1.025" height="1.025" fill="#000000" />
<rect x="22.550" y="13.325" width="1.025" height="1.025" fill="#f4e0cd" />
<rect x="23.575" y="13.325" width="1.025" height="1.025" fill="#000000" />
<rect x="24.600" y="13.325" width="1.025" height="1.025" fill="#fffaef" />
<rect x="25.625" y="13.325" width="1.025" height="1.025" fill="#fffaef" />
<rect x="13.325" y="14.350" width="1.025" height="1.025" fill="#000000" />
<rect x="14.350" y="14.350" width="1.025" height="1.025" fill="#ffed00" />
<rect x="15.375" y="14.350" width="1.025" height="1.025" fill="#ffed00" />
<rect x="16.400" y="14.350" width="1.025" height="1.025" fill="#fdecda" />
<rect x="17.425" y="14.350" width="1.025" height="1.025" fill="#000000" />
<rect x="18.450" y="14.350" width="1.025" height="1.025" fill="#ffffff" />
<rect x="19.475" y="14.350" width="1.025" height="1.025" fill="#000000" />
<rect x="20.500" y="14.350" width="1.025" height="1.025" fill="#ffffff" />
<rect x="21.525" y="14.350" width="1.025" height="1.025" fill="#f7e8d8" />
<rect x="22.550" y="14.350" width="1.025" height="1.025" fill="#faebda" />
<rect x="23.575" y="14.350" width="1.025" height="1.025" fill="#ffffff" />
<rect x="24.600" y="14.350" width="1.025" height="1.025" fill="#000000" />
<rect x="25.625" y="14.350" width="1.025" height="1.025" fill="#ffffff" />
<rect x="13.325" y="15.375" width="1.025" height="1.025" fill="#000000" />
<rect x="14.350" y="15.375" width="1.025" height="1.025" fill="#ffed00" />
<rect x="15.375" y="15.375" width="1.025" height="1.025" fill="#ffffff" />
<rect x="16.400" y="15.375" width="1.025" height="1.025" fill="#fbead8" />
<rect x="17.425" y="15.375" width="1.025" height="1.025" fill="#fbead8" />
<rect x="18.450" y="15.375" width="1.025" height="1.025" fill="#fff6e9" />
<rect x="19.475" y="15.375" width="1.025" height="1.025" fill="#fffbef" />
<rect x="20.500" y="15.375" width="1.025" height="1.025" fill="#fffbef" />
<rect x="21.525" y="15.375" width="1.025" height="1.025" fill="#fffbef" />
<rect x="22.550" y="15.375" width="1.025" height="1.025" fill="#d40c01" />
<rect x="23.575" y="15.375" width="1.025" height="1.025" fill="#f70e05" />
<rect x="24.600" y="15.375" width="1.025" height="1.025" fill="#fffbef" />
<rect x="25.625" y="15.375" width="1.025" height="1.025" fill="#f7e8d8" />
<rect x="29.725" y="15.375" width="1.025" height="1.025" fill="#d40c01" />
<rect x="30.750" y="15.375" width="1.025" height="1.025" fill="#d40c01" />
<rect x="14.350" y="16.400" width="1.025" height="1.025" fill="#000000" />
<rect x="15.375" y="16.400" width="1.025" height="1.025" fill="#f70e05" />
<rect x="16.400" y="16.400" width="1.025" height="1.025" fill="#ee0c04" />
<rect x="17.425" y="16.400" width="1.025" height="1.025" fill="#ee0c04" />
<rect x="18.450" y="16.400" width="1.025" height="1.025" fill="#fffbef" />
<rect x="19.475" y="16.400" width="1.025" height="1.025" fill="#fffbef" />
<rect x="20.500" y="16.400" width="1.025" height="1.025" fill="#fffbef" />
<rect x="21.525" y="16.400" width="1.025" height="1.025" fill="#fffbef" />
<rect x="22.550" y="16.400" width="1.025" height="1.025" fill="#d40c01" />
<rect x="23.575" y="16.400" width="1.025" height="1.025" fill="#f7160d" />
<rect x="24.600" y="16.400" width="1.025" height="1.025" fill="#d40c01" />
<rect x="25.625" y="16.400" width="1.025" height="1.025" fill="#d40c01" />
<rect x="26.650" y="16.400" width="1.025" height="1.025" fill="#d40c01" />
<rect x="27.675" y="16.400" width="1.025" height="1.025" fill="#d40c01" />
<rect x="28.700" y="16.400" width="1.025" height="1.025" fill="#d40c01" />
<rect x="29.725" y="16.400" width="1.025" height="1.025" fill="#d40c01" />
<rect x="30.750" y="16.400" width="1.025" height="1.025" fill="#e71106" />
<rect x="31.775" y="16.400" width="1.025" height="1.025" fill="#6b0000" />
<rect x="14.350" y="17.425" width="1.025" height="1.025" fill="#000000" />
<rect x="15.375" y="17.425" width="1.025" height="1.025" fill="#f70e05" />
<rect x="16.400" y="17.425" width="1.025" height="1.025" fill="#e80c04" />
<rect x="17.425" y="17.425" width="1.025" height="1.025" fill="#f10d04" />
<rect x="18.450" y="17.425" width="1.025" height="1.025" fill="#f50d04" />
<rect x="19.475" y="17.425" width="1.025" height="1.025" fill="#fdf4e4" />
<rect x="20.500" y="17.425" width="1.025" height="1.025" fill="#fffbef" />
<rect x="21.525" y="17.425" width="1.025" height="1.025" fill="#f7160d" />
<rect x="22.550" y="17.425" width="1.025" height="1.025" fill="#f7160d" />
<rect x="23.575" y="17.425" width="1.025" height="1.025" fill="#d40c01" />
<rect x="24.600" y="17.425" width="1.025" height="1.025" fill="#d40c01" />
<rect x="25.625" y="17.425" width="1.025" height="1.025" fill="#e71106" />
<rect x="26.650" y="17.425" width="1.025" height="1.025" fill="#d40c01" />
<rect x="27.675" y="17.425" width="1.025" height="1.025" fill="#e71106" />
<rect x="28.700" y="17.425" width="1.025" height="1.025" fill="#d40c01" />
<rect x="29.725" y="17.425" width="1.025" height="1.025" fill="#e71106" />
<rect x="30.750" y="17.425" width="1.025" height="1.025" fill="#d40c01" />
<rect x="14.350" y="18.450" width="1.025" height="1.025" fill="#000000" />
<rect x="15.375" y="18.450" width="1.025" height="1.025" fill="#ffed00" />
<rect x="16.400" y="18.450" width="1.025" height="1.025" fill="#e90c04" />
<rect x="17.425" y="18.450" width="1.025" height="1.025" fill="#ed0c04" />
<rect x="18.450" y="18.450" width="1.025" height="1.025" fill="#ed0c04" />
<rect x="19.475" y="18.450" width="1.025" height="1.025" fill="#fcebd9" />
<rect x="20.500" y="18.450" width="1.025" height="1.025" fill="#000000" />
<rect x="21.525" y="18.450" width="1.025" height="1.025" fill="#350000" />
<rect x="22.550" y="18.450" width="1.025" height="1.025" fill="#6b0000" />
<rect x="23.575" y="18.450" width="1.025" height="1.025" fill="#6b0000" />
<rect x="24.600" y="18.450" width="1.025" height="1.025" fill="#d40c01" />
<rect x="25.625" y="18.450" width="1.025" height="1.025" fill="#e71106" />
<rect x="26.650" y="18.450" width="1.025" height="1.025" fill="#d40c01" />
<rect x="27.675" y="18.450" width="1.025" height="1.025" fill="#e71106" />
<rect x="28.700" y="18.450" width="1.025" height="1.025" fill="#d40c01" />
<rect x="29.725" y="18.450" width="1.025" height="1.025" fill="#e71106" />
<rect x="14.350" y="19.475" width="1.025" height="1.025" fill="#000000" />
<rect x="15.375" y="19.475" width="1.025" height="1.025" fill="#ffed00" />
<rect x="16.400" y="19.475" width="1.025" height="1.025" fill="#f0d8c6" />
<rect x="17.425" y="19.475" width="1.025" height="1.025" fill="#f4decc" />
<rect x="18.450" y="19.475" width="1.025" height="1.025" fill="#f5decd" />
<rect x="19.475" y="19.475" width="1.025" height="1.025" fill="#000000" />
<rect x="20.500" y="19.475" width="1.025" height="1.025" fill="#f5dbc0" />
<rect x="21.525" y="19.475" width="1.025" height="1.025" fill="#000000" />
<rect x="22.550" y="19.475" width="1.025" height="1.025" fill="#fff5dd" />
<rect x="23.575" y="19.475" width="1.025" height="1.025" fill="#000000" />
<rect x="24.600" y="19.475" width="1.025" height="1.025" fill="#f5dcbf" />
<rect x="25.625" y="19.475" width="1.025" height="1.025" fill="#000000" />
<rect x="14.350" y="20.500" width="1.025" height="1.025" fill="#000000" />
<rect x="15.375" y="20.500" width="1.025" height="1.025" fill="#ffed00" />
<rect x="16.400" y="20.500" width="1.025" height="1.025" fill="#ead0bc" />
<rect x="17.425" y="20.500" width="1.025" height="1.025" fill="#f5e0cc" />
<rect x="18.450" y="20.500" width="1.025" height="1.025" fill="#f4ce00" />
<rect x="19.475" y="20.500" width="1.025" height="1.025" fill="#000000" />
<rect x="20.500" y="20.500" width="1.025" height="1.025" fill="#000000" />
<rect x="21.525" y="20.500" width="1.025" height="1.025" fill="#000000" />
<rect x="22.550" y="20.500" width="1.025" height="1.025" fill="#000000" />
<rect x="23.575" y="20.500" width="1.025" height="1.025" fill="#000000" />
<rect x="24.600" y="20.500" width="1.025" height="1.025" fill="#000000" />
<rect x="25.625" y="20.500" width="1.025" height="1.025" fill="#000000" />
<rect x="14.350" y="21.525" width="1.025" height="1.025" fill="#000000" />
<rect x="15.375" y="21.525" width="1.025" height="1.025" fill="#ffed00" />
<rect x="16.400" y="21.525" width="1.025" height="1.025" fill="#dfc2af" />
<rect x="17.425" y="21.525" width="1.025" height="1.025" fill="#efc800" />
<rect x="18.450" y="21.525" width="1.025" height="1.025" fill="#f5e0cc" />
<rect x="19.475" y="21.525" width="1.025" height="1.025" fill="#f5dcbf" />
<rect x="20.500" y="21.525" width="1.025" height="1.025" fill="#000000" />
<rect x="21.525" y="21.525" width="1.025" height="1.025" fill="#efc800" />
<rect x="22.550" y="21.525" width="1.025" height="1.025" fill="#efd7c4" />
<rect x="23.575" y="21.525" width="1.025" height="1.025" fill="#fee600" />
<rect x="24.600" y="21.525" width="1.025" height="1.025" fill="#000000" />
<rect x="25.625" y="21.525" width="1.025" height="1.025" fill="#e9c1a3" />
<rect x="15.375" y="22.550" width="1.025" height="1.025" fill="#000000" />
<rect x="16.400" y="22.550" width="1.025" height="1.025" fill="#ffed00" />
<rect x="17.425" y="22.550" width="1.025" height="1.025" fill="#e0c4b1" />
<rect x="18.450" y="22.550" width="1.025" height="1.025" fill="#efd7c4" />
<rect x="19.475" y="22.550" width="1.025" height="1.025" fill="#efd7c4" />
<rect x="20.500" y="22.550" width="1.025" height="1.025" fill="#efd7c4" />
<rect x="21.525" y="22.550" width="1.025" height="1.025" fill="#edc900" />
<rect x="22.550" y="22.550" width="1.025" height="1.025" fill="#edd8c4" />
<rect x="23.575" y="22.550" width="1.025" height="1.025" fill="#f5ce00" />
<rect x="24.600" y="22.550" width="1.025" height="1.025" fill="#f4decc" />
<rect x="17.425" y="23.575" width="1.025" height="1.025" fill="#ffed00" />
<rect x="18.450" y="23.575" width="1.025" height="1.025" fill="#e1c6b1" />
<rect x="19.475" y="23.575" width="1.025" height="1.025" fill="#edd8c4" />
<rect x="20.500" y="23.575" width="1.025" height="1.025" fill="#edc900" />
<rect x="21.525" y="23.575" width="1.025" height="1.025" fill="#faefdc" />
<rect x="22.550" y="23.575" width="1.025" height="1.025" fill="#faefdc" />
<rect x="23.575" y="23.575" width="1.025" height="1.025" fill="#f0e1cc" />
<rect x="18.450" y="24.600" width="1.025" height="1.025" fill="#ffed00" />
<rect x="19.475" y="24.600" width="1.025" height="1.025" fill="#e1c6b1" />
<rect x="20.500" y="24.600" width="1.025" height="1.025" fill="#edd8c4" />
<rect x="21.525" y="24.600" width="1.025" height="1.025" fill="#faefdc" />
</svg>