<svg xmlns="http://www.w3.org/2000/svg" width="37.925" height="37.925" shape-rendering="crispEdges" style="image-rendering: pixelated;">
<rect x="15.375" y="1.025" width="1.025" height="1.025" fill="#cfcfcf" />
<rect x="16.400" y="1.025" width="1.025" height="1.025" fill="#f7f7f7" />
<rect x="17.425" y="1.025" width="1.025" height="1.025" fill="#f7f7f7" />
<rect x="18.450" y="1.025" width="1.025" height="1.025" fill="#b8b8b8" />
<rect x="19.475" y="1.025" width="1.025" height="1.025" fill="#e6e6e6" />
<rect x="20.500" y="1.025" width="1.025" height="1.025" fill="#b8b8b8" />
<rect x="14.350" y="2.050" width="1.025" height="1.025" fill="#cfcfcf" />
<rect x="15.375" y="2.050" width="1.025" height="1.025" fill="#e6e6e6" />
<rect x="16.400" y="2.050" width="1.025" height="1.025" fill="#f7f7f7" />
<rect x="17.425" y="2.050" width="1.025" height="1.025" fill="#f7f7f7" />
<rect x="18.450" y="2.050" width="1.025" height="1.025" fill="#cfcfcf" />
<rect x="19.475" y="2.050" width="1.025" height="1.025" fill="#cfcfcf" />
<rect x="20.500" y="2.050" width="1.025" height="1.025" fill="#cfcfcf" />
<rect x="21.525" y="2.050" width="1.025" height="1.025" fill="#e6e6e6" />
<rect x="11.275" y="3.075" width="1.025" height="1.025" fill="#b80000" />
<rect x="12.300" y="3.075" width="1.025" height="1.025" fill="#b80000" />
<rect x="14.350" y="3.075" width="1.025" height="1.025" fill="#e6e6e6" />
<rect x="15.375" y="3.075" width="1.025" height="1.025" fill="#cfcfcf" />
<rect x="16.400" y="3.075" width="1.025" height="1.025" fill="#f7f7f7" />
<rect x="17.425" y="3.075" width="1.025" height="1.025" fill="#cfcfcf" />
<rect x="18.450" y="3.075" width="1.025" height="1.025" fill="#cfcfcf" />
<rect x="19.475" y="3.075" width="1.025" height="1.025" fill="#cfcfcf" />
<rect x="20.500" y="3.075" width="1.025" height="1.025" fill="#e6e6e6" />
<rect x="21.525" y="3.075" width="1.025" height="1.025" fill="#cfcfcf" />
<rect x="25.625" y="3.075" width="1.025" height="1.025" fill="#b80000" />
<rect x="26.650" y="3.075" width="1.025" height="1.025" fill="#b80000" />
<rect x="13.325" y="4.100" width="1.025" height="1.025" fill="#b80000" />
<rect x="14.350" y="4.100" width="1.025" height="1.025" fill="#b80000" />
<rect x="15.375" y="4.100" width="1.025" height="1.025" fill="#b80000" />
<rect x="16.400" y="4.100" width="1.025" height="1.025" fill="#cfcfcf" />
<rect x="17.425" y="4.100" width="1.025" height="1.025" fill="#cfcfcf" />
<rect x="18.450" y="4.100" width="1.025" height="1.025" fill="#e6e6e6" />
<rect x="19.475" y="4.100" width="1.025" height="1.025" fill="#cfcfcf" />
<rect x="20.500" y="4.100" width="1.025" height="1.025" fill="#cfcfcf" />
<rect x="21.525" y="4.100" width="1.025" height="1.025" fill="#b80000" />
<rect x="22.550" y="4.100" width="1.025" height="1.025" fill="#b80000" />
<rect x="23.575" y="4.100" width="1.025" height="1.025" fill="#b80000" />
<rect x="24.600" y="4.100" width="1.025" height="1.025" fill="#b80000" />
<rect x="15.375" y="5.125" width="1.025" height="1.025" fill="#e6e6e6" />
<rect x="16.400" y="5.125" width="1.025" height="1.025" fill="#cfcfcf" />
<rect x="17.425" y="5.125" width="1.025" height="1.025" fill="#e6e6e6" />
<rect x="18.450" y="5.125" width="1.025" height="1.025" fill="#cfcfcf" />
<rect x="19.475" y="5.125" width="1.025" height="1.025" fill="#cfcfcf" />
<rect x="20.500" y="5.125" width="1.025" height="1.025" fill="#e6e6e6" />
<rect x="15.375" y="6.150" width="1.025" height="1.025" fill="#b80000" />
<rect x="16.400" y="6.150" width="1.025" height="1.025" fill="#1e1e1e" />
<rect x="17.425" y="6.150" width="1.025" height="1.025" fill="#7d7d7d" />
<rect x="18.450" y="6.150" width="1.025" height="1.025" fill="#424242" />
<rect x="19.475" y="6.150" width="1.025" height="1.025" fill="#606060" />
<rect x="20.500" y="6.150" width="1.025" height="1.025" fill="#b80000" />
<rect x="21.525" y="6.150" width="1.025" height="1.025" fill="#b80000" />
<rect x="22.550" y="6.150" width="1.025" height="1.025" fill="#b80000" />
<rect x="23.575" y="6.150" width="1.025" height="1.025" fill="#b80000" />
<rect x="11.275" y="7.175" width="1.025" height="1.025" fill="#b80000" />
<rect x="12.300" y="7.175" width="1.025" height="1.025" fill="#b80000" />
<rect x="13.325" y="7.175" width="1.025" height="1.025" fill="#b80000" />
<rect x="14.350" y="7.175" width="1.025" height="1.025" fill="#b80000" />
<rect x="15.375" y="7.175" width="1.025" height="1.025" fill="#e6e6e6" />
<rect x="16.400" y="7.175" width="1.025" height="1.025" fill="#f3f3f3" />
<rect x="17.425" y="7.175" width="1.025" height="1.025" fill="#cfcfcf" />
<rect x="18.450" y="7.175" width="1.025" height="1.025" fill="#f7f7f7" />
<rect x="19.475" y="7.175" width="1.025" height="1.025" fill="#f7f7f7" />
<rect x="20.500" y="7.175" width="1.025" height="1.025" fill="#cfcfcf" />
<rect x="21.525" y="7.175" width="1.025" height="1.025" fill="#cfcfcf" />
<rect x="22.550" y="7.175" width="1.025" height="1.025" fill="#cfcfcf" />
<rect x="23.575" y="7.175" width="1.025" height="1.025" fill="#e6e6e6" />
<rect x="24.600" y="7.175" width="1.025" height="1.025" fill="#b80000" />
<rect x="25.625" y="7.175" width="1.025" height="1.025" fill="#b80000" />
<rect x="9.225" y="8.200" width="1.025" height="1.025" fill="#b80000" />
<rect x="10.250" y="8.200" width="1.025" height="1.025" fill="#b80000" />
<rect x="11.275" y="8.200" width="1.025" height="1.025" fill="#cfcfcf" />
<rect x="12.300" y="8.200" width="1.025" height="1.025" fill="#e6e6e6" />
<rect x="13.325" y="8.200" width="1.025" height="1.025" fill="#cfcfcf" />
<rect x="14.350" y="8.200" width="1.025" height="1.025" fill="#e6e6e6" />
<rect x="15.375" y="8.200" width="1.025" height="1.025" fill="#cfcfcf" />
<rect x="16.400" y="8.200" width="1.025" height="1.025" fill="#ffffff" />
<rect x="17.425" y="8.200" width="1.025" height="1.025" fill="#ffffff" />
<rect x="18.450" y="8.200" width="1.025" height="1.025" fill="#f7f7f7" />
<rect x="19.475" y="8.200" width="1.025" height="1.025" fill="#cfcfcf" />
<rect x="20.500" y="8.200" width="1.025" height="1.025" fill="#e6e6e6" />
<rect x="21.525" y="8.200" width="1.025" height="1.025" fill="#b8b8b8" />
<rect x="22.550" y="8.200" width="1.025" height="1.025" fill="#cfcfcf" />
<rect x="23.575" y="8.200" width="1.025" height="1.025" fill="#e6e6e6" />
<rect x="24.600" y="8.200" width="1.025" height="1.025" fill="#cfcfcf" />
<rect x="25.625" y="8.200" width="1.025" height="1.025" fill="#e6e6e6" />
<rect x="10.250" y="9.225" width="1.025" height="1.025" fill="#cfcfcf" />
<rect x="11.275" y="9.225" width="1.025" height="1.025" fill="#e6e6e6" />
<rect x="12.300" y="9.225" width="1.025" height="1.025" fill="#cfcfcf" />
<rect x="13.325" y="9.225" width="1.025" height="1.025" fill="#cfcfcf" />
<rect x="14.350" y="9.225" width="1.025" height="1.025" fill="#cfcfcf" />
<rect x="15.375" y="9.225" width="1.025" height="1.025" fill="#b8b8b8" />
<rect x="16.400" y="9.225" width="1.025" height="1.025" fill="#ffffff" />
<rect x="17.425" y="9.225" width="1.025" height="1.025" fill="#b8b8b8" />
<rect x="23.575" y="9.225" width="1.025" height="1.025" fill="#cfcfcf" />
<rect x="24.600" y="9.225" width="1.025" height="1.025" fill="#e6e6e6" />
<rect x="25.625" y="9.225" width="1.025" height="1.025" fill="#cfcfcf" />
<rect x="26.650" y="9.225" width="1.025" height="1.025" fill="#e6e6e6" />
<rect x="10.250" y="10.250" width="1.025" height="1.025" fill="#cfcfcf" />
<rect x="11.275" y="10.250" width="1.025" height="1.025" fill="#cfcfcf" />
<rect x="12.300" y="10.250" width="1.025" height="1.025" fill="#e6e6e6" />
<rect x="13.325" y="10.250" width="1.025" height="1.025" fill="#b8b8b8" />
<rect x="14.350" y="10.250" width="1.025" height="1.025" fill="#cfcfcf" />
<rect x="15.375" y="10.250" width="1.025" height="1.025" fill="#b8b8b8" />
<rect x="16.400" y="10.250" width="1.025" height="1.025" fill="#ffffff" />
<rect x="24.600" y="10.250" width="1.025" height="1.025" fill="#e6e6e6" />
<rect x="25.625" y="10.250" width="1.025" height="1.025" fill="#e6e6e6" />
<rect x="26.650" y="10.250" width="1.025" height="1.025" fill="#cfcfcf" />
<rect x="10.250" y="11.275" width="1.025" height="1.025" fill="#f7f7f7" />
<rect x="11.275" y="11.275" width="1.025" height="1.025" fill="#f7f7f7" />
<rect x="12.300" y="11.275" width="1.025" height="1.025" fill="#b8b8b8" />
<rect x="13.325" y="11.275" width="1.025" height="1.025" fill="#e6e6e6" />
<rect x="14.350" y="11.275" width="1.025" height="1.025" fill="#b8b8b8" />
<rect x="15.375" y="11.275" width="1.025" height="1.025" fill="#b8b8b8" />
<rect x="16.400" y="11.275" width="1.025" height="1.025" fill="#ffffff" />
<rect x="24.600" y="11.275" width="1.025" height="1.025" fill="#cfcfcf" />
<rect x="25.625" y="11.275" width="1.025" height="1.025" fill="#b8b8b8" />
<rect x="26.650" y="11.275" width="1.025" height="1.025" fill="#e6e6e6" />
<rect x="10.250" y="12.300" width="1.025" height="1.025" fill="#f7f7f7" />
<rect x="11.275" y="12.300" width="1.025" height="1.025" fill="#f7f7f7" />
<rect x="12.300" y="12.300" width="1.025" height="1.025" fill="#cfcfcf" />
<rect x="13.325" y="12.300" width="1.025" height="1.025" fill="#b8b8b8" />
<rect x="15.375" y="12.300" width="1.025" height="1.025" fill="#b8b8b8" />
<rect x="16.400" y="12.300" width="1.025" height="1.025" fill="#ffffff" />
<rect x="25.625" y="12.300" width="1.025" height="1.025" fill="#e6e6e6" />
<rect x="26.650" y="12.300" width="1.025" height="1.025" fill="#cfcfcf" />
<rect x="10.250" y="13.325" width="1.025" height="1.025" fill="#f7f7f7" />
<rect x="11.275" y="13.325" width="1.025" height="1.025" fill="#cfcfcf" />
<rect x="13.325" y="13.325" width="1.025" height="1.025" fill="#ffffff" />
<rect x="15.375" y="13.325" width="1.025" height="1.025" fill="#ffffff" />
<rect x="25.625" y="13.325" width="1.025" height="1.025" fill="#b8b8b8" />
<rect x="26.650" y="13.325" width="1.025" height="1.025" fill="#e6e6e6" />
<rect x="13.325" y="14.350" width="1.025" height="1.025" fill="#ffffff" />
<rect x="15.375" y="14.350" width="1.025" height="1.025" fill="#ffffff" />
<rect x="25.625" y="14.350" width="1.025" height="1.025" fill="#e6e6e6" />
<rect x="13.325" y="15.375" width="1.025" height="1.025" fill="#ffffff" />
<rect x="15.375" y="15.375" width="1.025" height="1.025" fill="#b8b8b8" />
<rect x="13.325" y="16.400" width="1.025" height="1.025" fill="#ffffff" />
<rect x="15.375" y="17.425" width="1.025" height="1.025" fill="#b8b8b8" />
</svg>