<svg xmlns="http://www.w3.org/2000/svg" width="37.925" height="37.925" shape-rendering="crispEdges" style="image-rendering: pixelated;">
<rect x="12.300" y="8.200" width="1.025" height="1.025" fill="#400000" />
<rect x="13.325" y="8.200" width="1.025" height="1.025" fill="#720000" />
<rect x="14.350" y="8.200" width="1.025" height="1.025" fill="#a00000" />
<rect x="15.375" y="8.200" width="1.025" height="1.025" fill="#7c0000" />
<rect x="16.400" y="8.200" width="1.025" height="1.025" fill="#960000" />
<rect x="17.425" y="8.200" width="1.025" height="1.025" fill="#bf8282" />
<rect x="18.450" y="8.200" width="1.025" height="1.025" fill="#980000" />
<rect x="19.475" y="8.200" width="1.025" height="1.025" fill="#a00000" />
<rect x="20.500" y="8.200" width="1.025" height="1.025" fill="#d08282" />
<rect x="21.525" y="8.200" width="1.025" height="1.025" fill="#a00000" />
<rect x="22.550" y="8.200" width="1.025" height="1.025" fill="#a00000" />
<rect x="23.575" y="8.200" width="1.025" height="1.025" fill="#800000" />
<rect x="24.600" y="8.200" width="1.025" height="1.025" fill="#700000" />
<rect x="11.275" y="9.225" width="1.025" height="1.025" fill="#400000" />
<rect x="12.300" y="9.225" width="1.025" height="1.025" fill="#5c0000" />
<rect x="13.325" y="9.225" width="1.025" height="1.025" fill="#bd6868" />
<rect x="14.350" y="9.225" width="1.025" height="1.025" fill="#920000" />
<rect x="15.375" y="9.225" width="1.025" height="1.025" fill="#960000" />
<rect x="16.400" y="9.225" width="1.025" height="1.025" fill="#eccccc" />
<rect x="17.425" y="9.225" width="1.025" height="1.025" fill="#a00000" />
<rect x="18.450" y="9.225" width="1.025" height="1.025" fill="#a00000" />
<rect x="19.475" y="9.225" width="1.025" height="1.025" fill="#dda3a3" />
<rect x="20.500" y="9.225" width="1.025" height="1.025" fill="#a00000" />
<rect x="21.525" y="9.225" width="1.025" height="1.025" fill="#a00000" />
<rect x="22.550" y="9.225" width="1.025" height="1.025" fill="#eccccc" />
<rect x="23.575" y="9.225" width="1.025" height="1.025" fill="#a00000" />
<rect x="24.600" y="9.225" width="1.025" height="1.025" fill="#a00000" />
<rect x="25.625" y="9.225" width="1.025" height="1.025" fill="#a75353" />
<rect x="11.275" y="10.250" width="1.025" height="1.025" fill="#5c0000" />
<rect x="12.300" y="10.250" width="1.025" height="1.025" fill="#bd6868" />
<rect x="13.325" y="10.250" width="1.025" height="1.025" fill="#920000" />
<rect x="14.350" y="10.250" width="1.025" height="1.025" fill="#960000" />
<rect x="15.375" y="10.250" width="1.025" height="1.025" fill="#eccccc" />
<rect x="16.400" y="10.250" width="1.025" height="1.025" fill="#a00000" />
<rect x="17.425" y="10.250" width="1.025" height="1.025" fill="#a00000" />
<rect x="18.450" y="10.250" width="1.025" height="1.025" fill="#ffffff" />
<rect x="19.475" y="10.250" width="1.025" height="1.025" fill="#a00000" />
<rect x="20.500" y="10.250" width="1.025" height="1.025" fill="#990000" />
<rect x="21.525" y="10.250" width="1.025" height="1.025" fill="#e9cccc" />
<rect x="22.550" y="10.250" width="1.025" height="1.025" fill="#8e0000" />
<rect x="23.575" y="10.250" width="1.025" height="1.025" fill="#870000" />
<rect x="24.600" y="10.250" width="1.025" height="1.025" fill="#a75353" />
<rect x="25.625" y="10.250" width="1.025" height="1.025" fill="#6a0000" />
<rect x="11.275" y="11.275" width="1.025" height="1.025" fill="#260000" />
<rect x="12.300" y="11.275" width="1.025" height="1.025" fill="#6f0000" />
<rect x="13.325" y="11.275" width="1.025" height="1.025" fill="#790000" />
<rect x="14.350" y="11.275" width="1.025" height="1.025" fill="#cea3a3" />
<rect x="15.375" y="11.275" width="1.025" height="1.025" fill="#920000" />
<rect x="16.400" y="11.275" width="1.025" height="1.025" fill="#990000" />
<rect x="17.425" y="11.275" width="1.025" height="1.025" fill="#ebcccc" />
<rect x="18.450" y="11.275" width="1.025" height="1.025" fill="#a00000" />
<rect x="19.475" y="11.275" width="1.025" height="1.025" fill="#a00000" />
<rect x="20.500" y="11.275" width="1.025" height="1.025" fill="#eccccc" />
<rect x="21.525" y="11.275" width="1.025" height="1.025" fill="#a00000" />
<rect x="22.550" y="11.275" width="1.025" height="1.025" fill="#a00000" />
<rect x="23.575" y="11.275" width="1.025" height="1.025" fill="#eccccc" />
<rect x="24.600" y="11.275" width="1.025" height="1.025" fill="#a00000" />
<rect x="25.625" y="11.275" width="1.025" height="1.025" fill="#700000" />
<rect x="9.225" y="12.300" width="1.025" height="1.025" fill="#260000" />
<rect x="10.250" y="12.300" width="1.025" height="1.025" fill="#6c0000" />
<rect x="11.275" y="12.300" width="1.025" height="1.025" fill="#4e0000" />
<rect x="12.300" y="12.300" width="1.025" height="1.025" fill="#7c0000" />
<rect x="13.325" y="12.300" width="1.025" height="1.025" fill="#8e4242" />
<rect x="14.350" y="12.300" width="1.025" height="1.025" fill="#980000" />
<rect x="15.375" y="12.300" width="1.025" height="1.025" fill="#a00000" />
<rect x="16.400" y="12.300" width="1.025" height="1.025" fill="#a00000" />
<rect x="17.425" y="12.300" width="1.025" height="1.025" fill="#a00000" />
<rect x="18.450" y="12.300" width="1.025" height="1.025" fill="#a00000" />
<rect x="19.475" y="12.300" width="1.025" height="1.025" fill="#ffffff" />
<rect x="20.500" y="12.300" width="1.025" height="1.025" fill="#a00000" />
<rect x="21.525" y="12.300" width="1.025" height="1.025" fill="#a00000" />
<rect x="22.550" y="12.300" width="1.025" height="1.025" fill="#a00000" />
<rect x="23.575" y="12.300" width="1.025" height="1.025" fill="#a00000" />
<rect x="24.600" y="12.300" width="1.025" height="1.025" fill="#a00000" />
<rect x="7.175" y="13.325" width="1.025" height="1.025" fill="#260000" />
<rect x="8.200" y="13.325" width="1.025" height="1.025" fill="#260000" />
<rect x="9.225" y="13.325" width="1.025" height="1.025" fill="#6c0000" />
<rect x="10.250" y="13.325" width="1.025" height="1.025" fill="#6a0000" />
<rect x="11.275" y="13.325" width="1.025" height="1.025" fill="#7e0000" />
<rect x="8.200" y="14.350" width="1.025" height="1.025" fill="#6a0000" />
<rect x="9.225" y="14.350" width="1.025" height="1.025" fill="#6c0000" />
<rect x="7.175" y="15.375" width="1.025" height="1.025" fill="#260000" />
</svg>