<svg xmlns="http://www.w3.org/2000/svg" width="37.925" height="37.925" shape-rendering="crispEdges" style="image-rendering: pixelated;">
<rect x="15.375" y="4.100" width="1.025" height="1.025" fill="#8e8e8e" />
<rect x="16.400" y="4.100" width="1.025" height="1.025" fill="#8e8e8e" />
<rect x="17.425" y="4.100" width="1.025" height="1.025" fill="#8e8e8e" />
<rect x="18.450" y="4.100" width="1.025" height="1.025" fill="#8e8e8e" />
<rect x="19.475" y="4.100" width="1.025" height="1.025" fill="#8e8e8e" />
<rect x="20.500" y="4.100" width="1.025" height="1.025" fill="#8e8e8e" />
<rect x="21.525" y="4.100" width="1.025" height="1.025" fill="#8e8e8e" />
<rect x="22.550" y="4.100" width="1.025" height="1.025" fill="#8e8e8e" />
<rect x="13.325" y="5.125" width="1.025" height="1.025" fill="#8e8e8e" />
<rect x="14.350" y="5.125" width="1.025" height="1.025" fill="#aaaaaa" />
<rect x="15.375" y="5.125" width="1.025" height="1.025" fill="#b4b4b4" />
<rect x="16.400" y="5.125" width="1.025" height="1.025" fill="#c4c4c4" />
<rect x="17.425" y="5.125" width="1.025" height="1.025" fill="#cfcfcf" />
<rect x="18.450" y="5.125" width="1.025" height="1.025" fill="#d4d4d4" />
<rect x="19.475" y="5.125" width="1.025" height="1.025" fill="#ebe268" />
<rect x="20.500" y="5.125" width="1.025" height="1.025" fill="#d8d8d8" />
<rect x="21.525" y="5.125" width="1.025" height="1.025" fill="#d8d8d8" />
<rect x="22.550" y="5.125" width="1.025" height="1.025" fill="#d5d5d5" />
<rect x="23.575" y="5.125" width="1.025" height="1.025" fill="#aaaaaa" />
<rect x="12.300" y="6.150" width="1.025" height="1.025" fill="#8e8e8e" />
<rect x="13.325" y="6.150" width="1.025" height="1.025" fill="#aaaaaa" />
<rect x="14.350" y="6.150" width="1.025" height="1.025" fill="#aaaaaa" />
<rect x="15.375" y="6.150" width="1.025" height="1.025" fill="#c9c9c9" />
<rect x="16.400" y="6.150" width="1.025" height="1.025" fill="#d0d0d0" />
<rect x="17.425" y="6.150" width="1.025" height="1.025" fill="#d1d1d1" />
<rect x="18.450" y="6.150" width="1.025" height="1.025" fill="#e0e0e0" />
<rect x="19.475" y="6.150" width="1.025" height="1.025" fill="#eeeeee" />
<rect x="20.500" y="6.150" width="1.025" height="1.025" fill="#f3eea6" />
<rect x="21.525" y="6.150" width="1.025" height="1.025" fill="#f0f0f0" />
<rect x="22.550" y="6.150" width="1.025" height="1.025" fill="#f0f0f0" />
<rect x="23.575" y="6.150" width="1.025" height="1.025" fill="#e3e3e3" />
<rect x="24.600" y="6.150" width="1.025" height="1.025" fill="#aaaaaa" />
<rect x="11.275" y="7.175" width="1.025" height="1.025" fill="#8e8e8e" />
<rect x="12.300" y="7.175" width="1.025" height="1.025" fill="#aaaaaa" />
<rect x="13.325" y="7.175" width="1.025" height="1.025" fill="#aaaaaa" />
<rect x="14.350" y="7.175" width="1.025" height="1.025" fill="#cccccc" />
<rect x="15.375" y="7.175" width="1.025" height="1.025" fill="#d3d3d3" />
<rect x="16.400" y="7.175" width="1.025" height="1.025" fill="#d2d2d2" />
<rect x="17.425" y="7.175" width="1.025" height="1.025" fill="#d2d2d2" />
<rect x="18.450" y="7.175" width="1.025" height="1.025" fill="#e1e1e1" />
<rect x="19.475" y="7.175" width="1.025" height="1.025" fill="#efefef" />
<rect x="20.500" y="7.175" width="1.025" height="1.025" fill="#f7ee74" />
<rect x="21.525" y="7.175" width="1.025" height="1.025" fill="#f0f0f0" />
<rect x="22.550" y="7.175" width="1.025" height="1.025" fill="#f1f1f1" />
<rect x="23.575" y="7.175" width="1.025" height="1.025" fill="#f0f0f0" />
<rect x="24.600" y="7.175" width="1.025" height="1.025" fill="#d9d9d9" />
<rect x="25.625" y="7.175" width="1.025" height="1.025" fill="#aaaaaa" />
<rect x="11.275" y="8.200" width="1.025" height="1.025" fill="#8e8e8e" />
<rect x="12.300" y="8.200" width="1.025" height="1.025" fill="#aaaaaa" />
<rect x="13.325" y="8.200" width="1.025" height="1.025" fill="#c1c1c1" />
<rect x="14.350" y="8.200" width="1.025" height="1.025" fill="#cccccc" />
<rect x="15.375" y="8.200" width="1.025" height="1.025" fill="#d3d3d3" />
<rect x="16.400" y="8.200" width="1.025" height="1.025" fill="#d2d2d2" />
<rect x="17.425" y="8.200" width="1.025" height="1.025" fill="#d2d2d2" />
<rect x="18.450" y="8.200" width="1.025" height="1.025" fill="#e1e1e1" />
<rect x="19.475" y="8.200" width="1.025" height="1.025" fill="#efefef" />
<rect x="20.500" y="8.200" width="1.025" height="1.025" fill="#f7ee74" />
<rect x="21.525" y="8.200" width="1.025" height="1.025" fill="#f0f0f0" />
<rect x="22.550" y="8.200" width="1.025" height="1.025" fill="#f1f1f1" />
<rect x="23.575" y="8.200" width="1.025" height="1.025" fill="#f0f0f0" />
<rect x="24.600" y="8.200" width="1.025" height="1.025" fill="#d9d9d9" />
<rect x="25.625" y="8.200" width="1.025" height="1.025" fill="#aaaaaa" />
<rect x="11.275" y="9.225" width="1.025" height="1.025" fill="#8e8e8e" />
<rect x="12.300" y="9.225" width="1.025" height="1.025" fill="#aaaaaa" />
<rect x="13.325" y="9.225" width="1.025" height="1.025" fill="#c1c1c1" />
<rect x="14.350" y="9.225" width="1.025" height="1.025" fill="#cecece" />
<rect x="15.375" y="9.225" width="1.025" height="1.025" fill="#cfcfcf" />
<rect x="16.400" y="9.225" width="1.025" height="1.025" fill="#d6d6d6" />
<rect x="17.425" y="9.225" width="1.025" height="1.025" fill="#d8d8d8" />
<rect x="18.450" y="9.225" width="1.025" height="1.025" fill="#d8d8d8" />
<rect x="19.475" y="9.225" width="1.025" height="1.025" fill="#ebe69e" />
<rect x="20.500" y="9.225" width="1.025" height="1.025" fill="#f8ea36" />
<rect x="21.525" y="9.225" width="1.025" height="1.025" fill="#ece79f" />
<rect x="22.550" y="9.225" width="1.025" height="1.025" fill="#e4e4e4" />
<rect x="23.575" y="9.225" width="1.025" height="1.025" fill="#e3e3e3" />
<rect x="24.600" y="9.225" width="1.025" height="1.025" fill="#d5d5d5" />
<rect x="25.625" y="9.225" width="1.025" height="1.025" fill="#aaaaaa" />
<rect x="10.250" y="10.250" width="1.025" height="1.025" fill="#8e8e8e" />
<rect x="11.275" y="10.250" width="1.025" height="1.025" fill="#aaaaaa" />
<rect x="12.300" y="10.250" width="1.025" height="1.025" fill="#aaaaaa" />
<rect x="13.325" y="10.250" width="1.025" height="1.025" fill="#c6c6c6" />
<rect x="14.350" y="10.250" width="1.025" height="1.025" fill="#cecece" />
<rect x="15.375" y="10.250" width="1.025" height="1.025" fill="#d2d2d2" />
<rect x="16.400" y="10.250" width="1.025" height="1.025" fill="#aaaaaa" />
<rect x="17.425" y="10.250" width="1.025" height="1.025" fill="#aaaaaa" />
<rect x="18.450" y="10.250" width="1.025" height="1.025" fill="#aaaaaa" />
<rect x="19.475" y="10.250" width="1.025" height="1.025" fill="#888888" />
<rect x="20.500" y="10.250" width="1.025" height="1.025" fill="#888888" />
<rect x="21.525" y="10.250" width="1.025" height="1.025" fill="#888888" />
<rect x="22.550" y="10.250" width="1.025" height="1.025" fill="#888888" />
<rect x="23.575" y="10.250" width="1.025" height="1.025" fill="#6d6d6d" />
<rect x="24.600" y="10.250" width="1.025" height="1.025" fill="#6d6d6d" />
<rect x="25.625" y="10.250" width="1.025" height="1.025" fill="#6d6d6d" />
<rect x="26.650" y="10.250" width="1.025" height="1.025" fill="#575757" />
<rect x="10.250" y="11.275" width="1.025" height="1.025" fill="#8e8e8e" />
<rect x="11.275" y="11.275" width="1.025" height="1.025" fill="#aaaaaa" />
<rect x="12.300" y="11.275" width="1.025" height="1.025" fill="#aaaaaa" />
<rect x="13.325" y="11.275" width="1.025" height="1.025" fill="#bcbcbc" />
<rect x="14.350" y="11.275" width="1.025" height="1.025" fill="#aaaaaa" />
<rect x="15.375" y="11.275" width="1.025" height="1.025" fill="#aaaaaa" />
<rect x="16.400" y="11.275" width="1.025" height="1.025" fill="#d7d7d7" />
<rect x="17.425" y="11.275" width="1.025" height="1.025" fill="#d7d7d7" />
<rect x="18.450" y="11.275" width="1.025" height="1.025" fill="#d6d6d6" />
<rect x="19.475" y="11.275" width="1.025" height="1.025" fill="#d9d9d9" />
<rect x="20.500" y="11.275" width="1.025" height="1.025" fill="#d8d8d8" />
<rect x="21.525" y="11.275" width="1.025" height="1.025" fill="#dadada" />
<rect x="22.550" y="11.275" width="1.025" height="1.025" fill="#d9d9d9" />
<rect x="23.575" y="11.275" width="1.025" height="1.025" fill="#e1e1e1" />
<rect x="24.600" y="11.275" width="1.025" height="1.025" fill="#e0e0e0" />
<rect x="25.625" y="11.275" width="1.025" height="1.025" fill="#e0e0e0" />
<rect x="26.650" y="11.275" width="1.025" height="1.025" fill="#d6d6d6" />
<rect x="27.675" y="11.275" width="1.025" height="1.025" fill="#6d6d6d" />
<rect x="10.250" y="12.300" width="1.025" height="1.025" fill="#8e8e8e" />
<rect x="11.275" y="12.300" width="1.025" height="1.025" fill="#c1c1c1" />
<rect x="12.300" y="12.300" width="1.025" height="1.025" fill="#c8c8c8" />
<rect x="13.325" y="12.300" width="1.025" height="1.025" fill="#c8c8c8" />
<rect x="14.350" y="12.300" width="1.025" height="1.025" fill="#cfcfcf" />
<rect x="15.375" y="12.300" width="1.025" height="1.025" fill="#d2d2d2" />
<rect x="16.400" y="12.300" width="1.025" height="1.025" fill="#aaaaaa" />
<rect x="17.425" y="12.300" width="1.025" height="1.025" fill="#aaaaaa" />
<rect x="18.450" y="12.300" width="1.025" height="1.025" fill="#aaaaaa" />
<rect x="19.475" y="12.300" width="1.025" height="1.025" fill="#aaaaaa" />
<rect x="20.500" y="12.300" width="1.025" height="1.025" fill="#aaaaaa" />
<rect x="21.525" y="12.300" width="1.025" height="1.025" fill="#aaaaaa" />
<rect x="22.550" y="12.300" width="1.025" height="1.025" fill="#888888" />
<rect x="23.575" y="12.300" width="1.025" height="1.025" fill="#888888" />
<rect x="24.600" y="12.300" width="1.025" height="1.025" fill="#6d6d6d" />
<rect x="25.625" y="12.300" width="1.025" height="1.025" fill="#6d6d6d" />
<rect x="26.650" y="12.300" width="1.025" height="1.025" fill="#6d6d6d" />
<rect x="9.225" y="13.325" width="1.025" height="1.025" fill="#8e8e8e" />
<rect x="10.250" y="13.325" width="1.025" height="1.025" fill="#8e8e8e" />
<rect x="11.275" y="13.325" width="1.025" height="1.025" fill="#727272" />
<rect x="12.300" y="13.325" width="1.025" height="1.025" fill="#727272" />
<rect x="13.325" y="13.325" width="1.025" height="1.025" fill="#5b5b5b" />
<rect x="14.350" y="13.325" width="1.025" height="1.025" fill="#5b5b5b" />
<rect x="15.375" y="13.325" width="1.025" height="1.025" fill="#5b5b5b" />
<rect x="16.400" y="13.325" width="1.025" height="1.025" fill="#000000" fill-opacity="0.761" />
<rect x="25.625" y="13.325" width="1.025" height="1.025" fill="#141414" />
<rect x="26.650" y="13.325" width="1.025" height="1.025" fill="#575757" />
<rect x="9.225" y="14.350" width="1.025" height="1.025" fill="#e4d622" />
<rect x="10.250" y="14.350" width="1.025" height="1.025" fill="#c1c1c1" />
<rect x="11.275" y="14.350" width="1.025" height="1.025" fill="#c8c8c8" />
<rect x="12.300" y="14.350" width="1.025" height="1.025" fill="#efe347" />
<rect x="13.325" y="14.350" width="1.025" height="1.025" fill="#cecece" />
<rect x="14.350" y="14.350" width="1.025" height="1.025" fill="#aaaaaa" />
<rect x="15.375" y="14.350" width="1.025" height="1.025" fill="#000000" fill-opacity="0.761" />
<rect x="25.625" y="14.350" width="1.025" height="1.025" fill="#282828" />
<rect x="26.650" y="14.350" width="1.025" height="1.025" fill="#d6cc53" />
<rect x="9.225" y="15.375" width="1.025" height="1.025" fill="#aaaaaa" />
<rect x="10.250" y="15.375" width="1.025" height="1.025" fill="#c1c1c1" />
<rect x="11.275" y="15.375" width="1.025" height="1.025" fill="#c8c8c8" />
<rect x="12.300" y="15.375" width="1.025" height="1.025" fill="#cfcfcf" />
<rect x="13.325" y="15.375" width="1.025" height="1.025" fill="#cecece" />
<rect x="14.350" y="15.375" width="1.025" height="1.025" fill="#aaaaaa" />
<rect x="15.375" y="15.375" width="1.025" height="1.025" fill="#000000" fill-opacity="0.659" />
<rect x="25.625" y="15.375" width="1.025" height="1.025" fill="#282828" />
<rect x="26.650" y="15.375" width="1.025" height="1.025" fill="#aaaaaa" />
<rect x="8.200" y="16.400" width="1.025" height="1.025" fill="#8e8e8e" />
<rect x="9.225" y="16.400" width="1.025" height="1.025" fill="#8e8e8e" />
<rect x="10.250" y="16.400" width="1.025" height="1.025" fill="#727272" />
<rect x="11.275" y="16.400" width="1.025" height="1.025" fill="#727272" />
<rect x="12.300" y="16.400" width="1.025" height="1.025" fill="#5b5b5b" />
<rect x="13.325" y="16.400" width="1.025" height="1.025" fill="#5b5b5b" />
<rect x="14.350" y="16.400" width="1.025" height="1.025" fill="#aaaaaa" />
<rect x="25.625" y="16.400" width="1.025" height="1.025" fill="#3a3a3a" />
<rect x="26.650" y="16.400" width="1.025" height="1.025" fill="#575757" />
<rect x="8.200" y="17.425" width="1.025" height="1.025" fill="#d8cd30" />
<rect x="9.225" y="17.425" width="1.025" height="1.025" fill="#c1c1c1" />
<rect x="10.250" y="17.425" width="1.025" height="1.025" fill="#c8c8c8" />
<rect x="11.275" y="17.425" width="1.025" height="1.025" fill="#efe347" />
<rect x="12.300" y="17.425" width="1.025" height="1.025" fill="#cecece" />
<rect x="13.325" y="17.425" width="1.025" height="1.025" fill="#aaaaaa" />
<rect x="14.350" y="17.425" width="1.025" height="1.025" fill="#282828" />
<rect x="25.625" y="17.425" width="1.025" height="1.025" fill="#535353" />
<rect x="26.650" y="17.425" width="1.025" height="1.025" fill="#aaaaaa" />
<rect x="27.675" y="17.425" width="1.025" height="1.025" fill="#ffed00" fill-opacity="0.882" />
<rect x="8.200" y="18.450" width="1.025" height="1.025" fill="#aaaaaa" />
<rect x="9.225" y="18.450" width="1.025" height="1.025" fill="#c1c1c1" />
<rect x="10.250" y="18.450" width="1.025" height="1.025" fill="#c8c8c8" />
<rect x="11.275" y="18.450" width="1.025" height="1.025" fill="#cfcfcf" />
<rect x="12.300" y="18.450" width="1.025" height="1.025" fill="#cecece" />
<rect x="13.325" y="18.450" width="1.025" height="1.025" fill="#aaaaaa" />
<rect x="14.350" y="18.450" width="1.025" height="1.025" fill="#535353" />
<rect x="25.625" y="18.450" width="1.025" height="1.025" fill="#535353" />
<rect x="26.650" y="18.450" width="1.025" height="1.025" fill="#aaaaaa" />
<rect x="7.175" y="19.475" width="1.025" height="1.025" fill="#8e8e8e" />
<rect x="8.200" y="19.475" width="1.025" height="1.025" fill="#8e8e8e" />
<rect x="9.225" y="19.475" width="1.025" height="1.025" fill="#727272" />
<rect x="10.250" y="19.475" width="1.025" height="1.025" fill="#727272" />
<rect x="11.275" y="19.475" width="1.025" height="1.025" fill="#5b5b5b" />
<rect x="12.300" y="19.475" width="1.025" height="1.025" fill="#494949" />
<rect x="13.325" y="19.475" width="1.025" height="1.025" fill="#aaaaaa" />
<rect x="14.350" y="19.475" width="1.025" height="1.025" fill="#000000" fill-opacity="0.514" />
<rect x="25.625" y="19.475" width="1.025" height="1.025" fill="#777777" />
<rect x="26.650" y="19.475" width="1.025" height="1.025" fill="#575757" />
<rect x="27.675" y="19.475" width="1.025" height="1.025" fill="#6d6d6d" />
<rect x="7.175" y="20.500" width="1.025" height="1.025" fill="#d8cd30" />
<rect x="8.200" y="20.500" width="1.025" height="1.025" fill="#c1c1c1" />
<rect x="9.225" y="20.500" width="1.025" height="1.025" fill="#c8c8c8" />
<rect x="10.250" y="20.500" width="1.025" height="1.025" fill="#efe347" />
<rect x="11.275" y="20.500" width="1.025" height="1.025" fill="#cecece" />
<rect x="12.300" y="20.500" width="1.025" height="1.025" fill="#aaaaaa" />
<rect x="13.325" y="20.500" width="1.025" height="1.025" fill="#535353" />
<rect x="25.625" y="20.500" width="1.025" height="1.025" fill="#777777" />
<rect x="26.650" y="20.500" width="1.025" height="1.025" fill="#aaaaaa" />
<rect x="27.675" y="20.500" width="1.025" height="1.025" fill="#ebdd29" />
<rect x="7.175" y="21.525" width="1.025" height="1.025" fill="#8e8e8e" />
<rect x="8.200" y="21.525" width="1.025" height="1.025" fill="#c1c1c1" />
<rect x="9.225" y="21.525" width="1.025" height="1.025" fill="#c8c8c8" />
<rect x="10.250" y="21.525" width="1.025" height="1.025" fill="#cfcfcf" />
<rect x="11.275" y="21.525" width="1.025" height="1.025" fill="#cecece" />
<rect x="12.300" y="21.525" width="1.025" height="1.025" fill="#aaaaaa" />
<rect x="13.325" y="21.525" width="1.025" height="1.025" fill="#777777" />
<rect x="25.625" y="21.525" width="1.025" height="1.025" fill="#777777" />
<rect x="26.650" y="21.525" width="1.025" height="1.025" fill="#aaaaaa" />
<rect x="27.675" y="21.525" width="1.025" height="1.025" fill="#aaaaaa" />
<rect x="6.150" y="22.550" width="1.025" height="1.025" fill="#8e8e8e" />
<rect x="7.175" y="22.550" width="1.025" height="1.025" fill="#8e8e8e" />
<rect x="8.200" y="22.550" width="1.025" height="1.025" fill="#727272" />
<rect x="9.225" y="22.550" width="1.025" height="1.025" fill="#727272" />
<rect x="10.250" y="22.550" width="1.025" height="1.025" fill="#5b5b5b" />
<rect x="11.275" y="22.550" width="1.025" height="1.025" fill="#5b5b5b" />
<rect x="12.300" y="22.550" width="1.025" height="1.025" fill="#494949" />
<rect x="25.625" y="22.550" width="1.025" height="1.025" fill="#a6a6a6" />
<rect x="26.650" y="22.550" width="1.025" height="1.025" fill="#6d6d6d" />
<rect x="27.675" y="22.550" width="1.025" height="1.025" fill="#6d6d6d" />
<rect x="28.700" y="22.550" width="1.025" height="1.025" fill="#888888" />
<rect x="6.150" y="23.575" width="1.025" height="1.025" fill="#d6cc53" />
<rect x="7.175" y="23.575" width="1.025" height="1.025" fill="#c1c1c1" />
<rect x="8.200" y="23.575" width="1.025" height="1.025" fill="#c1c1c1" />
<rect x="9.225" y="23.575" width="1.025" height="1.025" fill="#efe347" />
<rect x="10.250" y="23.575" width="1.025" height="1.025" fill="#cecece" />
<rect x="11.275" y="23.575" width="1.025" height="1.025" fill="#aaaaaa" />
<rect x="12.300" y="23.575" width="1.025" height="1.025" fill="#282828" />
<rect x="24.600" y="23.575" width="1.025" height="1.025" fill="#656565" />
<rect x="25.625" y="23.575" width="1.025" height="1.025" fill="#cfcfcf" />
<rect x="26.650" y="23.575" width="1.025" height="1.025" fill="#aaaaaa" />
<rect x="27.675" y="23.575" width="1.025" height="1.025" fill="#aaaaaa" />
<rect x="28.700" y="23.575" width="1.025" height="1.025" fill="#e2d63a" />
<rect x="6.150" y="24.600" width="1.025" height="1.025" fill="#aaaaaa" />
<rect x="7.175" y="24.600" width="1.025" height="1.025" fill="#aaaaaa" />
<rect x="8.200" y="24.600" width="1.025" height="1.025" fill="#c9c9c9" />
<rect x="9.225" y="24.600" width="1.025" height="1.025" fill="#cccccc" />
<rect x="10.250" y="24.600" width="1.025" height="1.025" fill="#aaaaaa" />
<rect x="11.275" y="24.600" width="1.025" height="1.025" fill="#535353" />
<rect x="12.300" y="24.600" width="1.025" height="1.025" fill="#535353" />
<rect x="23.575" y="24.600" width="1.025" height="1.025" fill="#777777" />
<rect x="24.600" y="24.600" width="1.025" height="1.025" fill="#aaaaaa" />
<rect x="25.625" y="24.600" width="1.025" height="1.025" fill="#cccccc" />
<rect x="26.650" y="24.600" width="1.025" height="1.025" fill="#c9c9c9" />
<rect x="27.675" y="24.600" width="1.025" height="1.025" fill="#aaaaaa" />
<rect x="28.700" y="24.600" width="1.025" height="1.025" fill="#aaaaaa" />
</svg>