<svg xmlns="http://www.w3.org/2000/svg" width="37.925" height="37.925" shape-rendering="crispEdges" style="image-rendering: pixelated;">
<rect x="15.375" y="4.100" width="1.025" height="1.025" fill="#1c1c1c" />
<rect x="16.400" y="4.100" width="1.025" height="1.025" fill="#131313" />
<rect x="17.425" y="4.100" width="1.025" height="1.025" fill="#131313" />
<rect x="18.450" y="4.100" width="1.025" height="1.025" fill="#090909" />
<rect x="19.475" y="4.100" width="1.025" height="1.025" fill="#131313" />
<rect x="20.500" y="4.100" width="1.025" height="1.025" fill="#131313" />
<rect x="13.325" y="5.125" width="1.025" height="1.025" fill="#030303" />
<rect x="14.350" y="5.125" width="1.025" height="1.025" fill="#030303" />
<rect x="15.375" y="5.125" width="1.025" height="1.025" fill="#090909" />
<rect x="16.400" y="5.125" width="1.025" height="1.025" fill="#131313" />
<rect x="17.425" y="5.125" width="1.025" height="1.025" fill="#090909" />
<rect x="18.450" y="5.125" width="1.025" height="1.025" fill="#131313" />
<rect x="19.475" y="5.125" width="1.025" height="1.025" fill="#131313" />
<rect x="20.500" y="5.125" width="1.025" height="1.025" fill="#090909" />
<rect x="21.525" y="5.125" width="1.025" height="1.025" fill="#1c1c1c" />
<rect x="6.150" y="6.150" width="1.025" height="1.025" fill="#1f1f1f" fill-opacity="0.051" />
<rect x="12.300" y="6.150" width="1.025" height="1.025" fill="#030303" />
<rect x="13.325" y="6.150" width="1.025" height="1.025" fill="#030303" />
<rect x="14.350" y="6.150" width="1.025" height="1.025" fill="#1c1c1c" />
<rect x="21.525" y="6.150" width="1.025" height="1.025" fill="#090909" />
<rect x="22.550" y="6.150" width="1.025" height="1.025" fill="#1c1c1c" />
<rect x="11.275" y="7.175" width="1.025" height="1.025" fill="#030303" />
<rect x="12.300" y="7.175" width="1.025" height="1.025" fill="#1c1c1c" />
<rect x="23.575" y="7.175" width="1.025" height="1.025" fill="#090909" />
<rect x="24.600" y="7.175" width="1.025" height="1.025" fill="#131313" />
<rect x="11.275" y="8.200" width="1.025" height="1.025" fill="#131313" />
<rect x="12.300" y="8.200" width="1.025" height="1.025" fill="#090909" />
<rect x="23.575" y="8.200" width="1.025" height="1.025" fill="#090909" />
<rect x="24.600" y="8.200" width="1.025" height="1.025" fill="#131313" />
<rect x="25.625" y="8.200" width="1.025" height="1.025" fill="#090909" />
<rect x="10.250" y="9.225" width="1.025" height="1.025" fill="#131313" />
<rect x="11.275" y="9.225" width="1.025" height="1.025" fill="#090909" />
<rect x="12.300" y="9.225" width="1.025" height="1.025" fill="#131313" />
<rect x="13.325" y="9.225" width="1.025" height="1.025" fill="#131313" />
<rect x="24.600" y="9.225" width="1.025" height="1.025" fill="#090909" />
<rect x="25.625" y="9.225" width="1.025" height="1.025" fill="#131313" />
<rect x="10.250" y="10.250" width="1.025" height="1.025" fill="#131313" />
<rect x="11.275" y="10.250" width="1.025" height="1.025" fill="#131313" />
<rect x="12.300" y="10.250" width="1.025" height="1.025" fill="#090909" />
<rect x="13.325" y="10.250" width="1.025" height="1.025" fill="#1c1c1c" />
<rect x="14.350" y="10.250" width="1.025" height="1.025" fill="#131313" />
<rect x="24.600" y="10.250" width="1.025" height="1.025" fill="#090909" />
<rect x="25.625" y="10.250" width="1.025" height="1.025" fill="#090909" />
<rect x="26.650" y="10.250" width="1.025" height="1.025" fill="#131313" />
<rect x="10.250" y="11.275" width="1.025" height="1.025" fill="#030303" />
<rect x="11.275" y="11.275" width="1.025" height="1.025" fill="#030303" />
<rect x="12.300" y="11.275" width="1.025" height="1.025" fill="#1c1c1c" />
<rect x="13.325" y="11.275" width="1.025" height="1.025" fill="#090909" />
<rect x="14.350" y="11.275" width="1.025" height="1.025" fill="#090909" />
<rect x="24.600" y="11.275" width="1.025" height="1.025" fill="#131313" />
<rect x="25.625" y="11.275" width="1.025" height="1.025" fill="#1c1c1c" />
<rect x="26.650" y="11.275" width="1.025" height="1.025" fill="#090909" />
<rect x="10.250" y="12.300" width="1.025" height="1.025" fill="#030303" />
<rect x="11.275" y="12.300" width="1.025" height="1.025" fill="#030303" />
<rect x="12.300" y="12.300" width="1.025" height="1.025" fill="#131313" />
<rect x="13.325" y="12.300" width="1.025" height="1.025" fill="#1c1c1c" />
<rect x="14.350" y="12.300" width="1.025" height="1.025" fill="#090909" />
<rect x="25.625" y="12.300" width="1.025" height="1.025" fill="#090909" />
<rect x="26.650" y="12.300" width="1.025" height="1.025" fill="#131313" />
<rect x="11.275" y="13.325" width="1.025" height="1.025" fill="#131313" />
<rect x="25.625" y="13.325" width="1.025" height="1.025" fill="#1c1c1c" />
<rect x="25.625" y="14.350" width="1.025" height="1.025" fill="#090909" />
<rect x="12.300" y="16.400" width="1.025" height="1.025" fill="#141414" />
<rect x="11.275" y="17.425" width="1.025" height="1.025" fill="#030303" />
<rect x="12.300" y="17.425" width="1.025" height="1.025" fill="#141414" />
<rect x="10.250" y="18.450" width="1.025" height="1.025" fill="#1a1a1a" fill-opacity="0.976" />
<rect x="11.275" y="18.450" width="1.025" height="1.025" fill="#020202" />
<rect x="12.300" y="18.450" width="1.025" height="1.025" fill="#101010" />
<rect x="10.250" y="19.475" width="1.025" height="1.025" fill="#151515" />
<rect x="11.275" y="19.475" width="1.025" height="1.025" fill="#000000" />
<rect x="12.300" y="19.475" width="1.025" height="1.025" fill="#131313" />
<rect x="9.225" y="20.500" width="1.025" height="1.025" fill="#0a0a0a" />
<rect x="10.250" y="20.500" width="1.025" height="1.025" fill="#090909" />
<rect x="11.275" y="20.500" width="1.025" height="1.025" fill="#030303" />
<rect x="8.200" y="21.525" width="1.025" height="1.025" fill="#101010" />
<rect x="9.225" y="21.525" width="1.025" height="1.025" fill="#151515" />
<rect x="10.250" y="21.525" width="1.025" height="1.025" fill="#0c0c0c" />
<rect x="11.275" y="21.525" width="1.025" height="1.025" fill="#121212" />
<rect x="8.200" y="22.550" width="1.025" height="1.025" fill="#070707" />
<rect x="9.225" y="22.550" width="1.025" height="1.025" fill="#0f0f0f" />
<rect x="10.250" y="22.550" width="1.025" height="1.025" fill="#131313" />
<rect x="7.175" y="23.575" width="1.025" height="1.025" fill="#0a0a0a" />
<rect x="8.200" y="23.575" width="1.025" height="1.025" fill="#141414" />
<rect x="9.225" y="23.575" width="1.025" height="1.025" fill="#090909" />
<rect x="6.150" y="24.600" width="1.025" height="1.025" fill="#050505" />
<rect x="7.175" y="24.600" width="1.025" height="1.025" fill="#171717" />
<rect x="8.200" y="24.600" width="1.025" height="1.025" fill="#0c0c0c" />
<rect x="9.225" y="24.600" width="1.025" height="1.025" fill="#060606" />
<rect x="6.150" y="25.625" width="1.025" height="1.025" fill="#0b0b0b" />
<rect x="7.175" y="25.625" width="1.025" height="1.025" fill="#131313" />
<rect x="8.200" y="25.625" width="1.025" height="1.025" fill="#050505" />
<rect x="4.100" y="26.650" width="1.025" height="1.025" fill="#131313" fill-opacity="0.027" />
<rect x="6.150" y="26.650" width="1.025" height="1.025" fill="#0c0c0c" fill-opacity="0.698" />
<rect x="7.175" y="26.650" width="1.025" height="1.025" fill="#060606" />
</svg>