<svg xmlns="http://www.w3.org/2000/svg" width="37.925" height="37.925" shape-rendering="crispEdges" style="image-rendering: pixelated;">
<rect x="12.300" y="8.200" width="1.025" height="1.025" fill="#000000" />
<rect x="13.325" y="8.200" width="1.025" height="1.025" fill="#0d0d0d" />
<rect x="14.350" y="8.200" width="1.025" height="1.025" fill="#232323" />
<rect x="15.375" y="8.200" width="1.025" height="1.025" fill="#111111" />
<rect x="16.400" y="8.200" width="1.025" height="1.025" fill="#1f1f1f" />
<rect x="17.425" y="8.200" width="1.025" height="1.025" fill="#111111" />
<rect x="18.450" y="8.200" width="1.025" height="1.025" fill="#1b1b1b" />
<rect x="19.475" y="8.200" width="1.025" height="1.025" fill="#161616" />
<rect x="20.500" y="8.200" width="1.025" height="1.025" fill="#1f1f1f" />
<rect x="21.525" y="8.200" width="1.025" height="1.025" fill="#161616" />
<rect x="22.550" y="8.200" width="1.025" height="1.025" fill="#1b1b1b" />
<rect x="23.575" y="8.200" width="1.025" height="1.025" fill="#151515" />
<rect x="24.600" y="8.200" width="1.025" height="1.025" fill="#0c0c0c" />
<rect x="11.275" y="9.225" width="1.025" height="1.025" fill="#030303" />
<rect x="12.300" y="9.225" width="1.025" height="1.025" fill="#3c3c3c" />
<rect x="13.325" y="9.225" width="1.025" height="1.025" fill="#161616" />
<rect x="14.350" y="9.225" width="1.025" height="1.025" fill="#1c1c1c" />
<rect x="15.375" y="9.225" width="1.025" height="1.025" fill="#a4a4a4" />
<rect x="16.400" y="9.225" width="1.025" height="1.025" fill="#232323" />
<rect x="17.425" y="9.225" width="1.025" height="1.025" fill="#232323" />
<rect x="18.450" y="9.225" width="1.025" height="1.025" fill="#ffffff" />
<rect x="19.475" y="9.225" width="1.025" height="1.025" fill="#292929" />
<rect x="20.500" y="9.225" width="1.025" height="1.025" fill="#292929" />
<rect x="21.525" y="9.225" width="1.025" height="1.025" fill="#a9a9a9" />
<rect x="22.550" y="9.225" width="1.025" height="1.025" fill="#232323" />
<rect x="23.575" y="9.225" width="1.025" height="1.025" fill="#1f1f1f" />
<rect x="24.600" y="9.225" width="1.025" height="1.025" fill="#707070" />
<rect x="25.625" y="9.225" width="1.025" height="1.025" fill="#111111" />
<rect x="11.275" y="10.250" width="1.025" height="1.025" fill="#030303" />
<rect x="12.300" y="10.250" width="1.025" height="1.025" fill="#141414" />
<rect x="13.325" y="10.250" width="1.025" height="1.025" fill="#1c1c1c" />
<rect x="14.350" y="10.250" width="1.025" height="1.025" fill="#232323" />
<rect x="15.375" y="10.250" width="1.025" height="1.025" fill="#292929" />
<rect x="16.400" y="10.250" width="1.025" height="1.025" fill="#292929" />
<rect x="17.425" y="10.250" width="1.025" height="1.025" fill="#292929" />
<rect x="18.450" y="10.250" width="1.025" height="1.025" fill="#292929" />
<rect x="19.475" y="10.250" width="1.025" height="1.025" fill="#232323" />
<rect x="20.500" y="10.250" width="1.025" height="1.025" fill="#1f1f1f" />
<rect x="21.525" y="10.250" width="1.025" height="1.025" fill="#1c1c1c" />
<rect x="22.550" y="10.250" width="1.025" height="1.025" fill="#1a1a1a" />
<rect x="23.575" y="10.250" width="1.025" height="1.025" fill="#161616" />
<rect x="24.600" y="10.250" width="1.025" height="1.025" fill="#111111" />
<rect x="25.625" y="10.250" width="1.025" height="1.025" fill="#0b0b0b" />
<rect x="11.275" y="11.275" width="1.025" height="1.025" fill="#000000" />
<rect x="12.300" y="11.275" width="1.025" height="1.025" fill="#0b0b0b" />
<rect x="13.325" y="11.275" width="1.025" height="1.025" fill="#9f9f9f" />
<rect x="14.350" y="11.275" width="1.025" height="1.025" fill="#101010" />
<rect x="15.375" y="11.275" width="1.025" height="1.025" fill="#202020" />
<rect x="16.400" y="11.275" width="1.025" height="1.025" fill="#ffffff" />
<rect x="17.425" y="11.275" width="1.025" height="1.025" fill="#242424" />
<rect x="18.450" y="11.275" width="1.025" height="1.025" fill="#292929" />
<rect x="19.475" y="11.275" width="1.025" height="1.025" fill="#ffffff" />
<rect x="20.500" y="11.275" width="1.025" height="1.025" fill="#232323" />
<rect x="21.525" y="11.275" width="1.025" height="1.025" fill="#1f1f1f" />
<rect x="22.550" y="11.275" width="1.025" height="1.025" fill="#d1d1d1" />
<rect x="23.575" y="11.275" width="1.025" height="1.025" fill="#181818" />
<rect x="24.600" y="11.275" width="1.025" height="1.025" fill="#141414" />
<rect x="25.625" y="11.275" width="1.025" height="1.025" fill="#404040" />
<rect x="9.225" y="12.300" width="1.025" height="1.025" fill="#000000" />
<rect x="10.250" y="12.300" width="1.025" height="1.025" fill="#0a0a0a" />
<rect x="11.275" y="12.300" width="1.025" height="1.025" fill="#000000" />
<rect x="12.300" y="12.300" width="1.025" height="1.025" fill="#121212" />
<rect x="13.325" y="12.300" width="1.025" height="1.025" fill="#070707" />
<rect x="14.350" y="12.300" width="1.025" height="1.025" fill="#161616" />
<rect x="15.375" y="12.300" width="1.025" height="1.025" fill="#292929" />
<rect x="16.400" y="12.300" width="1.025" height="1.025" fill="#292929" />
<rect x="17.425" y="12.300" width="1.025" height="1.025" fill="#292929" />
<rect x="18.450" y="12.300" width="1.025" height="1.025" fill="#232323" />
<rect x="19.475" y="12.300" width="1.025" height="1.025" fill="#1f1f1f" />
<rect x="20.500" y="12.300" width="1.025" height="1.025" fill="#1f1f1f" />
<rect x="21.525" y="12.300" width="1.025" height="1.025" fill="#1b1b1b" />
<rect x="22.550" y="12.300" width="1.025" height="1.025" fill="#1b1b1b" />
<rect x="23.575" y="12.300" width="1.025" height="1.025" fill="#131313" />
<rect x="24.600" y="12.300" width="1.025" height="1.025" fill="#131313" />
<rect x="7.175" y="13.325" width="1.025" height="1.025" fill="#000000" />
<rect x="8.200" y="13.325" width="1.025" height="1.025" fill="#000000" />
<rect x="9.225" y="13.325" width="1.025" height="1.025" fill="#0a0a0a" />
<rect x="10.250" y="13.325" width="1.025" height="1.025" fill="#0a0a0a" />
<rect x="11.275" y="13.325" width="1.025" height="1.025" fill="#141414" />
<rect x="8.200" y="14.350" width="1.025" height="1.025" fill="#0a0a0a" />
<rect x="9.225" y="14.350" width="1.025" height="1.025" fill="#0a0a0a" />
<rect x="7.175" y="15.375" width="1.025" height="1.025" fill="#000000" />
</svg>