<svg xmlns="http://www.w3.org/2000/svg" width="37.925" height="37.925" shape-rendering="crispEdges" style="image-rendering: pixelated;">
<rect x="13.325" y="6.150" width="1.025" height="1.025" fill="#000000" />
<rect x="14.350" y="6.150" width="1.025" height="1.025" fill="#000000" />
<rect x="15.375" y="6.150" width="1.025" height="1.025" fill="#000000" />
<rect x="16.400" y="6.150" width="1.025" height="1.025" fill="#000000" />
<rect x="17.425" y="6.150" width="1.025" height="1.025" fill="#000000" />
<rect x="18.450" y="6.150" width="1.025" height="1.025" fill="#000000" />
<rect x="19.475" y="6.150" width="1.025" height="1.025" fill="#000000" />
<rect x="20.500" y="6.150" width="1.025" height="1.025" fill="#000000" />
<rect x="21.525" y="6.150" width="1.025" height="1.025" fill="#000000" />
<rect x="22.550" y="6.150" width="1.025" height="1.025" fill="#e30613" />
<rect x="12.300" y="7.175" width="1.025" height="1.025" fill="#000000" />
<rect x="13.325" y="7.175" width="1.025" height="1.025" fill="#d5ad90" />
<rect x="14.350" y="7.175" width="1.025" height="1.025" fill="#f6dec2" />
<rect x="15.375" y="7.175" width="1.025" height="1.025" fill="#f9e5c9" />
<rect x="16.400" y="7.175" width="1.025" height="1.025" fill="#fae9cd" />
<rect x="17.425" y="7.175" width="1.025" height="1.025" fill="#fae7cb" />
<rect x="18.450" y="7.175" width="1.025" height="1.025" fill="#f9e7cb" />
<rect x="19.475" y="7.175" width="1.025" height="1.025" fill="#f9e7cb" />
<rect x="20.500" y="7.175" width="1.025" height="1.025" fill="#fae8cb" />
<rect x="21.525" y="7.175" width="1.025" height="1.025" fill="#ce8058" />
<rect x="22.550" y="7.175" width="1.025" height="1.025" fill="#e30613" />
<rect x="23.575" y="7.175" width="1.025" height="1.025" fill="#e30613" />
<rect x="11.275" y="8.200" width="1.025" height="1.025" fill="#000000" />
<rect x="12.300" y="8.200" width="1.025" height="1.025" fill="#c0946d" />
<rect x="13.325" y="8.200" width="1.025" height="1.025" fill="#f5d7bd" />
<rect x="14.350" y="8.200" width="1.025" height="1.025" fill="#fde9d0" />
<rect x="15.375" y="8.200" width="1.025" height="1.025" fill="#fdefd6" />
<rect x="16.400" y="8.200" width="1.025" height="1.025" fill="#fef6e2" />
<rect x="17.425" y="8.200" width="1.025" height="1.025" fill="#fdf5e0" />
<rect x="18.450" y="8.200" width="1.025" height="1.025" fill="#fdf5df" />
<rect x="19.475" y="8.200" width="1.025" height="1.025" fill="#fef6e1" />
<rect x="20.500" y="8.200" width="1.025" height="1.025" fill="#fef5e0" />
<rect x="21.525" y="8.200" width="1.025" height="1.025" fill="#e40e18" />
<rect x="22.550" y="8.200" width="1.025" height="1.025" fill="#ea7867" fill-opacity="0.722" />
<rect x="11.275" y="9.225" width="1.025" height="1.025" fill="#000000" />
<rect x="12.300" y="9.225" width="1.025" height="1.025" fill="#cea787" />
<rect x="13.325" y="9.225" width="1.025" height="1.025" fill="#f8dbc1" />
<rect x="14.350" y="9.225" width="1.025" height="1.025" fill="#fde7cd" />
<rect x="15.375" y="9.225" width="1.025" height="1.025" fill="#fff4e0" />
<rect x="16.400" y="9.225" width="1.025" height="1.025" fill="#fff5e2" />
<rect x="17.425" y="9.225" width="1.025" height="1.025" fill="#fff8e7" />
<rect x="18.450" y="9.225" width="1.025" height="1.025" fill="#fff9e9" />
<rect x="19.475" y="9.225" width="1.025" height="1.025" fill="#ffcfa8" />
<rect x="20.500" y="9.225" width="1.025" height="1.025" fill="#e30613" />
<rect x="21.525" y="9.225" width="1.025" height="1.025" fill="#ea4144" fill-opacity="0.953" />
<rect x="11.275" y="10.250" width="1.025" height="1.025" fill="#000000" />
<rect x="12.300" y="10.250" width="1.025" height="1.025" fill="#cea787" />
<rect x="13.325" y="10.250" width="1.025" height="1.025" fill="#f6d9bf" />
<rect x="14.350" y="10.250" width="1.025" height="1.025" fill="#fde5cd" />
<rect x="15.375" y="10.250" width="1.025" height="1.025" fill="#fff3e0" />
<rect x="16.400" y="10.250" width="1.025" height="1.025" fill="#fff5e2" />
<rect x="17.425" y="10.250" width="1.025" height="1.025" fill="#fff5e2" />
<rect x="18.450" y="10.250" width="1.025" height="1.025" fill="#ffd6a6" />
<rect x="19.475" y="10.250" width="1.025" height="1.025" fill="#e40e19" />
<rect x="20.500" y="10.250" width="1.025" height="1.025" fill="#f06c64" fill-opacity="0.847" />
<rect x="11.275" y="11.275" width="1.025" height="1.025" fill="#000000" />
<rect x="12.300" y="11.275" width="1.025" height="1.025" fill="#cba584" />
<rect x="13.325" y="11.275" width="1.025" height="1.025" fill="#f5d7be" />
<rect x="14.350" y="11.275" width="1.025" height="1.025" fill="#fce1c8" />
<rect x="15.375" y="11.275" width="1.025" height="1.025" fill="#ffeed8" />
<rect x="16.400" y="11.275" width="1.025" height="1.025" fill="#fff8e6" />
<rect x="17.425" y="11.275" width="1.025" height="1.025" fill="#fff8e7" />
<rect x="18.450" y="11.275" width="1.025" height="1.025" fill="#e30613" />
<rect x="19.475" y="11.275" width="1.025" height="1.025" fill="#f07169" fill-opacity="0.847" />
<rect x="11.275" y="12.300" width="1.025" height="1.025" fill="#000000" />
<rect x="12.300" y="12.300" width="1.025" height="1.025" fill="#c69c7c" />
<rect x="13.325" y="12.300" width="1.025" height="1.025" fill="#f5d7bd" />
<rect x="14.350" y="12.300" width="1.025" height="1.025" fill="#fce1c8" />
<rect x="15.375" y="12.300" width="1.025" height="1.025" fill="#fde5ca" />
<rect x="16.400" y="12.300" width="1.025" height="1.025" fill="#f9e0c7" />
<rect x="17.425" y="12.300" width="1.025" height="1.025" fill="#e30613" />
<rect x="18.450" y="12.300" width="1.025" height="1.025" fill="#ea5c56" fill-opacity="0.847" />
<rect x="11.275" y="13.325" width="1.025" height="1.025" fill="#000000" />
<rect x="12.300" y="13.325" width="1.025" height="1.025" fill="#000000" />
<rect x="13.325" y="13.325" width="1.025" height="1.025" fill="#f3d6bd" />
<rect x="14.350" y="13.325" width="1.025" height="1.025" fill="#fde4ca" />
<rect x="15.375" y="13.325" width="1.025" height="1.025" fill="#f1d4ba" />
<rect x="16.400" y="13.325" width="1.025" height="1.025" fill="#c29c7a" fill-opacity="0.961" />
<rect x="17.425" y="13.325" width="1.025" height="1.025" fill="#d02327" fill-opacity="0.953" />
<rect x="10.250" y="14.350" width="1.025" height="1.025" fill="#000000" />
<rect x="11.275" y="14.350" width="1.025" height="1.025" fill="#d8b598" />
<rect x="12.300" y="14.350" width="1.025" height="1.025" fill="#e7c6ac" />
<rect x="13.325" y="14.350" width="1.025" height="1.025" fill="#f3d6bb" />
<rect x="14.350" y="14.350" width="1.025" height="1.025" fill="#fde2c8" />
<rect x="15.375" y="14.350" width="1.025" height="1.025" fill="#d99165" />
<rect x="16.400" y="14.350" width="1.025" height="1.025" fill="#b60610" fill-opacity="0.973" />
<rect x="10.250" y="15.375" width="1.025" height="1.025" fill="#000000" />
<rect x="11.275" y="15.375" width="1.025" height="1.025" fill="#e8c6ad" />
<rect x="12.300" y="15.375" width="1.025" height="1.025" fill="#e1bda4" />
<rect x="13.325" y="15.375" width="1.025" height="1.025" fill="#f0ceb6" />
<rect x="14.350" y="15.375" width="1.025" height="1.025" fill="#e68762" />
<rect x="15.375" y="15.375" width="1.025" height="1.025" fill="#e93338" fill-opacity="0.973" />
<rect x="16.400" y="15.375" width="1.025" height="1.025" fill="#e30613" />
<rect x="10.250" y="16.400" width="1.025" height="1.025" fill="#000000" />
<rect x="11.275" y="16.400" width="1.025" height="1.025" fill="#d9b496" />
<rect x="12.300" y="16.400" width="1.025" height="1.025" fill="#e0baa2" />
<rect x="13.325" y="16.400" width="1.025" height="1.025" fill="#a74e3f" />
<rect x="14.350" y="16.400" width="1.025" height="1.025" fill="#e2282e" fill-opacity="0.973" />
<rect x="16.400" y="16.400" width="1.025" height="1.025" fill="#e30613" />
<rect x="11.275" y="17.425" width="1.025" height="1.025" fill="#000000" />
<rect x="12.300" y="17.425" width="1.025" height="1.025" fill="#000000" />
<rect x="13.325" y="17.425" width="1.025" height="1.025" fill="#db2c30" fill-opacity="0.953" />
<rect x="12.300" y="18.450" width="1.025" height="1.025" fill="#a7040e" fill-opacity="0.949" />
<rect x="16.400" y="18.450" width="1.025" height="1.025" fill="#e30613" />
<rect x="12.300" y="19.475" width="1.025" height="1.025" fill="#e30613" />
<rect x="12.300" y="20.500" width="1.025" height="1.025" fill="#e30613" />
<rect x="12.300" y="22.550" width="1.025" height="1.025" fill="#e30613" />
<rect x="10.250" y="23.575" width="1.025" height="1.025" fill="#e30613" />
</svg>