<svg xmlns="http://www.w3.org/2000/svg" width="37.925" height="37.925" shape-rendering="crispEdges" style="image-rendering: pixelated;">
<rect x="15.375" y="2.050" width="1.025" height="1.025" fill="#131313" />
<rect x="16.400" y="2.050" width="1.025" height="1.025" fill="#030303" />
<rect x="17.425" y="2.050" width="1.025" height="1.025" fill="#030303" />
<rect x="14.350" y="3.075" width="1.025" height="1.025" fill="#131313" />
<rect x="15.375" y="3.075" width="1.025" height="1.025" fill="#090909" />
<rect x="16.400" y="3.075" width="1.025" height="1.025" fill="#030303" />
<rect x="17.425" y="3.075" width="1.025" height="1.025" fill="#030303" />
<rect x="18.450" y="3.075" width="1.025" height="1.025" fill="#131313" />
<rect x="14.350" y="4.100" width="1.025" height="1.025" fill="#090909" />
<rect x="15.375" y="4.100" width="1.025" height="1.025" fill="#131313" />
<rect x="16.400" y="4.100" width="1.025" height="1.025" fill="#030303" />
<rect x="17.425" y="4.100" width="1.025" height="1.025" fill="#131313" />
<rect x="18.450" y="4.100" width="1.025" height="1.025" fill="#131313" />
<rect x="19.475" y="4.100" width="1.025" height="1.025" fill="#131313" />
<rect x="20.500" y="4.100" width="1.025" height="1.025" fill="#090909" />
<rect x="21.525" y="4.100" width="1.025" height="1.025" fill="#131313" />
<rect x="14.350" y="5.125" width="1.025" height="1.025" fill="#131313" />
<rect x="15.375" y="5.125" width="1.025" height="1.025" fill="#1c1c1c" />
<rect x="16.400" y="5.125" width="1.025" height="1.025" fill="#131313" />
<rect x="17.425" y="5.125" width="1.025" height="1.025" fill="#131313" />
<rect x="18.450" y="5.125" width="1.025" height="1.025" fill="#090909" />
<rect x="19.475" y="5.125" width="1.025" height="1.025" fill="#131313" />
<rect x="20.500" y="5.125" width="1.025" height="1.025" fill="#131313" />
<rect x="21.525" y="5.125" width="1.025" height="1.025" fill="#131313" />
<rect x="22.550" y="5.125" width="1.025" height="1.025" fill="#030303" />
<rect x="13.325" y="6.150" width="1.025" height="1.025" fill="#030303" />
<rect x="14.350" y="6.150" width="1.025" height="1.025" fill="#030303" />
<rect x="15.375" y="6.150" width="1.025" height="1.025" fill="#090909" />
<rect x="16.400" y="6.150" width="1.025" height="1.025" fill="#131313" />
<rect x="17.425" y="6.150" width="1.025" height="1.025" fill="#090909" />
<rect x="18.450" y="6.150" width="1.025" height="1.025" fill="#131313" />
<rect x="19.475" y="6.150" width="1.025" height="1.025" fill="#131313" />
<rect x="20.500" y="6.150" width="1.025" height="1.025" fill="#090909" />
<rect x="21.525" y="6.150" width="1.025" height="1.025" fill="#1c1c1c" />
<rect x="22.550" y="6.150" width="1.025" height="1.025" fill="#131313" />
<rect x="23.575" y="6.150" width="1.025" height="1.025" fill="#090909" />
<rect x="13.325" y="7.175" width="1.025" height="1.025" fill="#030303" />
<rect x="14.350" y="7.175" width="1.025" height="1.025" fill="#1c1c1c" />
<rect x="15.375" y="7.175" width="1.025" height="1.025" fill="#1c1c1c" />
<rect x="16.400" y="7.175" width="1.025" height="1.025" fill="#1c1c1c" />
<rect x="17.425" y="7.175" width="1.025" height="1.025" fill="#090909" />
<rect x="18.450" y="7.175" width="1.025" height="1.025" fill="#030303" />
<rect x="19.475" y="7.175" width="1.025" height="1.025" fill="#030303" />
<rect x="20.500" y="7.175" width="1.025" height="1.025" fill="#1c1c1c" />
<rect x="21.525" y="7.175" width="1.025" height="1.025" fill="#090909" />
<rect x="22.550" y="7.175" width="1.025" height="1.025" fill="#1c1c1c" />
<rect x="23.575" y="7.175" width="1.025" height="1.025" fill="#131313" />
<rect x="24.600" y="7.175" width="1.025" height="1.025" fill="#090909" />
<rect x="12.300" y="8.200" width="1.025" height="1.025" fill="#1c1c1c" fill-opacity="0.600" />
<rect x="13.325" y="8.200" width="1.025" height="1.025" fill="#090909" />
<rect x="14.350" y="8.200" width="1.025" height="1.025" fill="#090909" />
<rect x="15.375" y="8.200" width="1.025" height="1.025" fill="#090909" />
<rect x="23.575" y="8.200" width="1.025" height="1.025" fill="#090909" />
<rect x="24.600" y="8.200" width="1.025" height="1.025" fill="#131313" />
<rect x="12.300" y="9.225" width="1.025" height="1.025" fill="#090909" fill-opacity="0.361" />
<rect x="13.325" y="9.225" width="1.025" height="1.025" fill="#131313" fill-opacity="0.361" />
<rect x="14.350" y="9.225" width="1.025" height="1.025" fill="#090909" fill-opacity="0.361" />
<rect x="24.600" y="9.225" width="1.025" height="1.025" fill="#131313" />
<rect x="12.300" y="10.250" width="1.025" height="1.025" fill="#131313" fill-opacity="0.361" />
<rect x="13.325" y="10.250" width="1.025" height="1.025" fill="#131313" fill-opacity="0.361" />
</svg>