<svg xmlns="http://www.w3.org/2000/svg" width="37.925" height="37.925" shape-rendering="crispEdges" style="image-rendering: pixelated;">
<rect x="12.300" y="1.025" width="1.025" height="1.025" fill="#615222" fill-opacity="0.071" />
<rect x="13.325" y="1.025" width="1.025" height="1.025" fill="#5b4e20" fill-opacity="0.388" />
<rect x="14.350" y="1.025" width="1.025" height="1.025" fill="#87752f" />
<rect x="15.375" y="1.025" width="1.025" height="1.025" fill="#615322" fill-opacity="0.808" />
<rect x="16.400" y="1.025" width="1.025" height="1.025" fill="#5d4f21" fill-opacity="0.855" />
<rect x="17.425" y="1.025" width="1.025" height="1.025" fill="#87752f" />
<rect x="18.450" y="1.025" width="1.025" height="1.025" fill="#9f9538" fill-opacity="0.929" />
<rect x="19.475" y="1.025" width="1.025" height="1.025" fill="#8d7a32" fill-opacity="0.941" />
<rect x="20.500" y="1.025" width="1.025" height="1.025" fill="#826f2d" fill-opacity="0.643" />
<rect x="21.525" y="1.025" width="1.025" height="1.025" fill="#87752f" />
<rect x="22.550" y="1.025" width="1.025" height="1.025" fill="#a38d3a" fill-opacity="0.561" />
<rect x="23.575" y="1.025" width="1.025" height="1.025" fill="#675724" fill-opacity="0.557" />
<rect x="24.600" y="1.025" width="1.025" height="1.025" fill="#81712d" fill-opacity="0.467" />
<rect x="11.275" y="2.050" width="1.025" height="1.025" fill="#5a4b1f" fill-opacity="0.722" />
<rect x="12.300" y="2.050" width="1.025" height="1.025" fill="#87752f" />
<rect x="13.325" y="2.050" width="1.025" height="1.025" fill="#433817" fill-opacity="0.996" />
<rect x="14.350" y="2.050" width="1.025" height="1.025" fill="#635423" />
<rect x="15.375" y="2.050" width="1.025" height="1.025" fill="#635423" />
<rect x="16.400" y="2.050" width="1.025" height="1.025" fill="#685925" fill-opacity="0.992" />
<rect x="17.425" y="2.050" width="1.025" height="1.025" fill="#726027" />
<rect x="18.450" y="2.050" width="1.025" height="1.025" fill="#85742f" />
<rect x="19.475" y="2.050" width="1.025" height="1.025" fill="#8a7730" />
<rect x="20.500" y="2.050" width="1.025" height="1.025" fill="#78662a" />
<rect x="21.525" y="2.050" width="1.025" height="1.025" fill="#6d5d27" fill-opacity="0.867" />
<rect x="22.550" y="2.050" width="1.025" height="1.025" fill="#b9a541" fill-opacity="0.996" />
<rect x="23.575" y="2.050" width="1.025" height="1.025" fill="#87752f" />
<rect x="24.600" y="2.050" width="1.025" height="1.025" fill="#b79f41" />
<rect x="25.625" y="2.050" width="1.025" height="1.025" fill="#75642a" fill-opacity="0.973" />
<rect x="26.650" y="2.050" width="1.025" height="1.025" fill="#5c4e20" fill-opacity="0.780" />
<rect x="8.200" y="3.075" width="1.025" height="1.025" fill="#635323" fill-opacity="0.102" />
<rect x="9.225" y="3.075" width="1.025" height="1.025" fill="#675825" fill-opacity="0.643" />
<rect x="10.250" y="3.075" width="1.025" height="1.025" fill="#453918" fill-opacity="0.969" />
<rect x="11.275" y="3.075" width="1.025" height="1.025" fill="#4c401b" />
<rect x="12.300" y="3.075" width="1.025" height="1.025" fill="#5d4f20" />
<rect x="13.325" y="3.075" width="1.025" height="1.025" fill="#413517" />
<rect x="14.350" y="3.075" width="1.025" height="1.025" fill="#83702f" />
<rect x="15.375" y="3.075" width="1.025" height="1.025" fill="#736228" />
<rect x="16.400" y="3.075" width="1.025" height="1.025" fill="#8b7831" />
<rect x="17.425" y="3.075" width="1.025" height="1.025" fill="#998536" />
<rect x="18.450" y="3.075" width="1.025" height="1.025" fill="#aa933c" />
<rect x="19.475" y="3.075" width="1.025" height="1.025" fill="#a9933c" />
<rect x="20.500" y="3.075" width="1.025" height="1.025" fill="#a48e3a" />
<rect x="21.525" y="3.075" width="1.025" height="1.025" fill="#84722e" />
<rect x="22.550" y="3.075" width="1.025" height="1.025" fill="#b8a041" />
<rect x="23.575" y="3.075" width="1.025" height="1.025" fill="#84722f" />
<rect x="24.600" y="3.075" width="1.025" height="1.025" fill="#877530" />
<rect x="25.625" y="3.075" width="1.025" height="1.025" fill="#81702e" />
<rect x="26.650" y="3.075" width="1.025" height="1.025" fill="#5b4b20" />
<rect x="27.675" y="3.075" width="1.025" height="1.025" fill="#8c7931" fill-opacity="0.929" />
<rect x="28.700" y="3.075" width="1.025" height="1.025" fill="#5d4d20" fill-opacity="0.486" />
<rect x="8.200" y="4.100" width="1.025" height="1.025" fill="#796e2a" fill-opacity="0.914" />
<rect x="9.225" y="4.100" width="1.025" height="1.025" fill="#8b8031" />
<rect x="10.250" y="4.100" width="1.025" height="1.025" fill="#675a24" />
<rect x="11.275" y="4.100" width="1.025" height="1.025" fill="#6b5c26" />
<rect x="12.300" y="4.100" width="1.025" height="1.025" fill="#584a1f" />
<rect x="13.325" y="4.100" width="1.025" height="1.025" fill="#83702f" />
<rect x="14.350" y="4.100" width="1.025" height="1.025" fill="#736329" />
<rect x="15.375" y="4.100" width="1.025" height="1.025" fill="#605022" />
<rect x="16.400" y="4.100" width="1.025" height="1.025" fill="#7c6b2c" />
<rect x="17.425" y="4.100" width="1.025" height="1.025" fill="#907c33" />
<rect x="18.450" y="4.100" width="1.025" height="1.025" fill="#a18b39" />
<rect x="19.475" y="4.100" width="1.025" height="1.025" fill="#79682b" />
<rect x="20.500" y="4.100" width="1.025" height="1.025" fill="#baa641" />
<rect x="21.525" y="4.100" width="1.025" height="1.025" fill="#8e7b32" />
<rect x="22.550" y="4.100" width="1.025" height="1.025" fill="#8f7b32" />
<rect x="23.575" y="4.100" width="1.025" height="1.025" fill="#8b7931" />
<rect x="24.600" y="4.100" width="1.025" height="1.025" fill="#756329" />
<rect x="25.625" y="4.100" width="1.025" height="1.025" fill="#a18b39" />
<rect x="26.650" y="4.100" width="1.025" height="1.025" fill="#75642a" />
<rect x="27.675" y="4.100" width="1.025" height="1.025" fill="#5c4e20" fill-opacity="0.984" />
<rect x="28.700" y="4.100" width="1.025" height="1.025" fill="#463918" fill-opacity="0.976" />
<rect x="29.725" y="4.100" width="1.025" height="1.025" fill="#85732f" fill-opacity="0.427" />
<rect x="7.175" y="5.125" width="1.025" height="1.025" fill="#7d732c" fill-opacity="0.667" />
<rect x="8.200" y="5.125" width="1.025" height="1.025" fill="#5b4d20" />
<rect x="9.225" y="5.125" width="1.025" height="1.025" fill="#4f401b" />
<rect x="10.250" y="5.125" width="1.025" height="1.025" fill="#8d8132" />
<rect x="11.275" y="5.125" width="1.025" height="1.025" fill="#948535" />
<rect x="12.300" y="5.125" width="1.025" height="1.025" fill="#84722f" />
<rect x="13.325" y="5.125" width="1.025" height="1.025" fill="#736329" />
<rect x="14.350" y="5.125" width="1.025" height="1.025" fill="#4d401b" />
<rect x="15.375" y="5.125" width="1.025" height="1.025" fill="#77662a" />
<rect x="16.400" y="5.125" width="1.025" height="1.025" fill="#6b5a25" />
<rect x="17.425" y="5.125" width="1.025" height="1.025" fill="#7a692b" />
<rect x="18.450" y="5.125" width="1.025" height="1.025" fill="#a18b39" />
<rect x="19.475" y="5.125" width="1.025" height="1.025" fill="#8e7b32" />
<rect x="20.500" y="5.125" width="1.025" height="1.025" fill="#b9a141" />
<rect x="21.525" y="5.125" width="1.025" height="1.025" fill="#79682b" />
<rect x="22.550" y="5.125" width="1.025" height="1.025" fill="#7f6d2d" />
<rect x="23.575" y="5.125" width="1.025" height="1.025" fill="#9a8536" />
<rect x="24.600" y="5.125" width="1.025" height="1.025" fill="#84722f" />
<rect x="25.625" y="5.125" width="1.025" height="1.025" fill="#8b7a31" />
<rect x="26.650" y="5.125" width="1.025" height="1.025" fill="#806e2e" />
<rect x="27.675" y="5.125" width="1.025" height="1.025" fill="#56471e" />
<rect x="28.700" y="5.125" width="1.025" height="1.025" fill="#8c7931" fill-opacity="0.996" />
<rect x="29.725" y="5.125" width="1.025" height="1.025" fill="#84722e" fill-opacity="0.980" />
<rect x="30.750" y="5.125" width="1.025" height="1.025" fill="#716028" fill-opacity="0.925" />
<rect x="4.100" y="6.150" width="1.025" height="1.025" fill="#58491f" fill-opacity="0.043" />
<rect x="6.150" y="6.150" width="1.025" height="1.025" fill="#4f411b" fill-opacity="0.933" />
<rect x="7.175" y="6.150" width="1.025" height="1.025" fill="#4b3e1a" />
<rect x="8.200" y="6.150" width="1.025" height="1.025" fill="#433717" />
<rect x="9.225" y="6.150" width="1.025" height="1.025" fill="#6e5d27" />
<rect x="10.250" y="6.150" width="1.025" height="1.025" fill="#79682b" />
<rect x="11.275" y="6.150" width="1.025" height="1.025" fill="#83762f" />
<rect x="12.300" y="6.150" width="1.025" height="1.025" fill="#918234" />
<rect x="13.325" y="6.150" width="1.025" height="1.025" fill="#8e7c32" />
<rect x="14.350" y="6.150" width="1.025" height="1.025" fill="#6e5e27" />
<rect x="15.375" y="6.150" width="1.025" height="1.025" fill="#453918" />
<rect x="16.400" y="6.150" width="1.025" height="1.025" fill="#78672b" />
<rect x="17.425" y="6.150" width="1.025" height="1.025" fill="#8e7b32" />
<rect x="18.450" y="6.150" width="1.025" height="1.025" fill="#8e7b32" />
<rect x="19.475" y="6.150" width="1.025" height="1.025" fill="#8e7b32" />
<rect x="20.500" y="6.150" width="1.025" height="1.025" fill="#8e7b32" />
<rect x="21.525" y="6.150" width="1.025" height="1.025" fill="#8e7b32" />
<rect x="22.550" y="6.150" width="1.025" height="1.025" fill="#665624" />
<rect x="23.575" y="6.150" width="1.025" height="1.025" fill="#8f7b32" />
<rect x="24.600" y="6.150" width="1.025" height="1.025" fill="#816f2e" />
<rect x="25.625" y="6.150" width="1.025" height="1.025" fill="#665524" />
<rect x="26.650" y="6.150" width="1.025" height="1.025" fill="#766529" />
<rect x="27.675" y="6.150" width="1.025" height="1.025" fill="#736228" />
<rect x="28.700" y="6.150" width="1.025" height="1.025" fill="#5b4c20" />
<rect x="29.725" y="6.150" width="1.025" height="1.025" fill="#7a682b" />
<rect x="30.750" y="6.150" width="1.025" height="1.025" fill="#84722f" fill-opacity="0.992" />
<rect x="31.775" y="6.150" width="1.025" height="1.025" fill="#8b7a31" fill-opacity="0.871" />
<rect x="4.100" y="7.175" width="1.025" height="1.025" fill="#685925" fill-opacity="0.114" />
<rect x="5.125" y="7.175" width="1.025" height="1.025" fill="#938833" fill-opacity="0.757" />
<rect x="6.150" y="7.175" width="1.025" height="1.025" fill="#8f8432" fill-opacity="0.996" />
<rect x="7.175" y="7.175" width="1.025" height="1.025" fill="#3d3215" />
<rect x="8.200" y="7.175" width="1.025" height="1.025" fill="#736329" />
<rect x="9.225" y="7.175" width="1.025" height="1.025" fill="#80742d" />
<rect x="10.250" y="7.175" width="1.025" height="1.025" fill="#80702d" />
<rect x="11.275" y="7.175" width="1.025" height="1.025" fill="#7f6d2d" />
<rect x="12.300" y="7.175" width="1.025" height="1.025" fill="#605022" />
<rect x="13.325" y="7.175" width="1.025" height="1.025" fill="#5e4e21" />
<rect x="14.350" y="7.175" width="1.025" height="1.025" fill="#79682b" />
<rect x="15.375" y="7.175" width="1.025" height="1.025" fill="#3c3115" />
<rect x="16.400" y="7.175" width="1.025" height="1.025" fill="#8e7b32" />
<rect x="17.425" y="7.175" width="1.025" height="1.025" fill="#5e4e21" />
<rect x="18.450" y="7.175" width="1.025" height="1.025" fill="#8e7b32" />
<rect x="19.475" y="7.175" width="1.025" height="1.025" fill="#79682b" />
<rect x="20.500" y="7.175" width="1.025" height="1.025" fill="#a18b39" />
<rect x="21.525" y="7.175" width="1.025" height="1.025" fill="#79682b" />
<rect x="22.550" y="7.175" width="1.025" height="1.025" fill="#8c7a31" />
<rect x="23.575" y="7.175" width="1.025" height="1.025" fill="#6f5e27" />
<rect x="24.600" y="7.175" width="1.025" height="1.025" fill="#635222" />
<rect x="25.625" y="7.175" width="1.025" height="1.025" fill="#7f6e2d" />
<rect x="26.650" y="7.175" width="1.025" height="1.025" fill="#605022" />
<rect x="27.675" y="7.175" width="1.025" height="1.025" fill="#2d240f" />
<rect x="28.700" y="7.175" width="1.025" height="1.025" fill="#5a4b20" />
<rect x="29.725" y="7.175" width="1.025" height="1.025" fill="#766429" />
<rect x="30.750" y="7.175" width="1.025" height="1.025" fill="#6c5b26" />
<rect x="31.775" y="7.175" width="1.025" height="1.025" fill="#605022" fill-opacity="0.949" />
<rect x="32.800" y="7.175" width="1.025" height="1.025" fill="#766529" fill-opacity="0.631" />
<rect x="33.825" y="7.175" width="1.025" height="1.025" fill="#736228" fill-opacity="0.051" />
<rect x="4.100" y="8.200" width="1.025" height="1.025" fill="#58491f" fill-opacity="0.043" />
<rect x="5.125" y="8.200" width="1.025" height="1.025" fill="#433717" />
<rect x="6.150" y="8.200" width="1.025" height="1.025" fill="#383013" />
<rect x="7.175" y="8.200" width="1.025" height="1.025" fill="#bcb242" />
<rect x="8.200" y="8.200" width="1.025" height="1.025" fill="#5e5321" />
<rect x="9.225" y="8.200" width="1.025" height="1.025" fill="#79682b" />
<rect x="10.250" y="8.200" width="1.025" height="1.025" fill="#bab041" />
<rect x="11.275" y="8.200" width="1.025" height="1.025" fill="#bbb142" />
<rect x="12.300" y="8.200" width="1.025" height="1.025" fill="#79682b" />
<rect x="13.325" y="8.200" width="1.025" height="1.025" fill="#3c3115" />
<rect x="14.350" y="8.200" width="1.025" height="1.025" fill="#3c3115" />
<rect x="15.375" y="8.200" width="1.025" height="1.025" fill="#79682b" />
<rect x="16.400" y="8.200" width="1.025" height="1.025" fill="#3c3115" />
<rect x="17.425" y="8.200" width="1.025" height="1.025" fill="#5e4e21" />
<rect x="18.450" y="8.200" width="1.025" height="1.025" fill="#8e7b32" />
<rect x="19.475" y="8.200" width="1.025" height="1.025" fill="#3c3115" />
<rect x="20.500" y="8.200" width="1.025" height="1.025" fill="#a18b39" />
<rect x="21.525" y="8.200" width="1.025" height="1.025" fill="#8e7b32" />
<rect x="22.550" y="8.200" width="1.025" height="1.025" fill="#5e4e21" />
<rect x="23.575" y="8.200" width="1.025" height="1.025" fill="#5e4e21" />
<rect x="24.600" y="8.200" width="1.025" height="1.025" fill="#8e7b32" />
<rect x="25.625" y="8.200" width="1.025" height="1.025" fill="#5e4e21" />
<rect x="26.650" y="8.200" width="1.025" height="1.025" fill="#3d3115" />
<rect x="27.675" y="8.200" width="1.025" height="1.025" fill="#5f4e21" />
<rect x="28.700" y="8.200" width="1.025" height="1.025" fill="#483b19" />
<rect x="29.725" y="8.200" width="1.025" height="1.025" fill="#453918" />
<rect x="30.750" y="8.200" width="1.025" height="1.025" fill="#58491f" />
<rect x="31.775" y="8.200" width="1.025" height="1.025" fill="#aea13d" />
<rect x="32.800" y="8.200" width="1.025" height="1.025" fill="#241b0c" />
<rect x="33.825" y="8.200" width="1.025" height="1.025" fill="#2d240f" fill-opacity="0.035" />
<rect x="4.100" y="9.225" width="1.025" height="1.025" fill="#645523" fill-opacity="0.153" />
<rect x="5.125" y="9.225" width="1.025" height="1.025" fill="#938833" fill-opacity="0.757" />
<rect x="6.150" y="9.225" width="1.025" height="1.025" fill="#8f8432" />
<rect x="7.175" y="9.225" width="1.025" height="1.025" fill="#3d3215" />
<rect x="8.200" y="9.225" width="1.025" height="1.025" fill="#736329" />
<rect x="9.225" y="9.225" width="1.025" height="1.025" fill="#80742d" />
<rect x="10.250" y="9.225" width="1.025" height="1.025" fill="#80702d" />
<rect x="11.275" y="9.225" width="1.025" height="1.025" fill="#7f6d2d" />
<rect x="12.300" y="9.225" width="1.025" height="1.025" fill="#605022" />
<rect x="13.325" y="9.225" width="1.025" height="1.025" fill="#5e4e21" />
<rect x="14.350" y="9.225" width="1.025" height="1.025" fill="#79682b" />
<rect x="15.375" y="9.225" width="1.025" height="1.025" fill="#3c3115" />
<rect x="16.400" y="9.225" width="1.025" height="1.025" fill="#8e7b32" />
<rect x="17.425" y="9.225" width="1.025" height="1.025" fill="#5e4e21" />
<rect x="18.450" y="9.225" width="1.025" height="1.025" fill="#8e7b32" />
<rect x="19.475" y="9.225" width="1.025" height="1.025" fill="#79682b" />
<rect x="20.500" y="9.225" width="1.025" height="1.025" fill="#a18b39" />
<rect x="21.525" y="9.225" width="1.025" height="1.025" fill="#79682b" />
<rect x="22.550" y="9.225" width="1.025" height="1.025" fill="#8c7a31" />
<rect x="23.575" y="9.225" width="1.025" height="1.025" fill="#6f5e27" />
<rect x="24.600" y="9.225" width="1.025" height="1.025" fill="#635222" />
<rect x="25.625" y="9.225" width="1.025" height="1.025" fill="#7f6e2d" />
<rect x="26.650" y="9.225" width="1.025" height="1.025" fill="#605022" />
<rect x="27.675" y="9.225" width="1.025" height="1.025" fill="#2d240f" />
<rect x="28.700" y="9.225" width="1.025" height="1.025" fill="#5a4b20" />
<rect x="29.725" y="9.225" width="1.025" height="1.025" fill="#766429" />
<rect x="30.750" y="9.225" width="1.025" height="1.025" fill="#6c5b26" />
<rect x="31.775" y="9.225" width="1.025" height="1.025" fill="#615122" fill-opacity="0.988" />
<rect x="32.800" y="9.225" width="1.025" height="1.025" fill="#78662a" fill-opacity="0.745" />
<rect x="33.825" y="9.225" width="1.025" height="1.025" fill="#736228" fill-opacity="0.051" />
<rect x="4.100" y="10.250" width="1.025" height="1.025" fill="#685925" fill-opacity="0.114" />
<rect x="5.125" y="10.250" width="1.025" height="1.025" fill="#433717" />
<rect x="6.150" y="10.250" width="1.025" height="1.025" fill="#4d401a" />
<rect x="7.175" y="10.250" width="1.025" height="1.025" fill="#4b3e1a" />
<rect x="8.200" y="10.250" width="1.025" height="1.025" fill="#433717" />
<rect x="9.225" y="10.250" width="1.025" height="1.025" fill="#6e5d27" />
<rect x="10.250" y="10.250" width="1.025" height="1.025" fill="#79682b" />
<rect x="11.275" y="10.250" width="1.025" height="1.025" fill="#83762f" />
<rect x="12.300" y="10.250" width="1.025" height="1.025" fill="#918234" />
<rect x="13.325" y="10.250" width="1.025" height="1.025" fill="#8e7c32" />
<rect x="14.350" y="10.250" width="1.025" height="1.025" fill="#6e5e27" />
<rect x="15.375" y="10.250" width="1.025" height="1.025" fill="#453918" />
<rect x="16.400" y="10.250" width="1.025" height="1.025" fill="#78672b" />
<rect x="17.425" y="10.250" width="1.025" height="1.025" fill="#8e7b32" />
<rect x="18.450" y="10.250" width="1.025" height="1.025" fill="#8e7b32" />
<rect x="19.475" y="10.250" width="1.025" height="1.025" fill="#8e7b32" />
<rect x="20.500" y="10.250" width="1.025" height="1.025" fill="#8e7b32" />
<rect x="21.525" y="10.250" width="1.025" height="1.025" fill="#8e7b32" />
<rect x="22.550" y="10.250" width="1.025" height="1.025" fill="#665624" />
<rect x="23.575" y="10.250" width="1.025" height="1.025" fill="#8f7b32" />
<rect x="24.600" y="10.250" width="1.025" height="1.025" fill="#816f2e" />
<rect x="25.625" y="10.250" width="1.025" height="1.025" fill="#665524" />
<rect x="26.650" y="10.250" width="1.025" height="1.025" fill="#766529" />
<rect x="27.675" y="10.250" width="1.025" height="1.025" fill="#736228" />
<rect x="28.700" y="10.250" width="1.025" height="1.025" fill="#5b4c20" />
<rect x="29.725" y="10.250" width="1.025" height="1.025" fill="#7a682b" />
<rect x="30.750" y="10.250" width="1.025" height="1.025" fill="#84722f" />
<rect x="31.775" y="10.250" width="1.025" height="1.025" fill="#907f33" />
<rect x="32.800" y="10.250" width="1.025" height="1.025" fill="#241b0c" />
<rect x="33.825" y="10.250" width="1.025" height="1.025" fill="#56491e" fill-opacity="0.086" />
<rect x="4.100" y="11.275" width="1.025" height="1.025" fill="#4e401b" />
<rect x="5.125" y="11.275" width="1.025" height="1.025" fill="#80742c" />
<rect x="6.150" y="11.275" width="1.025" height="1.025" fill="#8f8432" />
<rect x="7.175" y="11.275" width="1.025" height="1.025" fill="#3d3215" />
<rect x="8.200" y="11.275" width="1.025" height="1.025" fill="#736329" />
<rect x="9.225" y="11.275" width="1.025" height="1.025" fill="#80742d" />
<rect x="10.250" y="11.275" width="1.025" height="1.025" fill="#80702d" />
<rect x="11.275" y="11.275" width="1.025" height="1.025" fill="#7f6d2d" />
<rect x="12.300" y="11.275" width="1.025" height="1.025" fill="#605022" />
<rect x="13.325" y="11.275" width="1.025" height="1.025" fill="#5e4e21" />
<rect x="14.350" y="11.275" width="1.025" height="1.025" fill="#79682b" />
<rect x="15.375" y="11.275" width="1.025" height="1.025" fill="#3c3115" />
<rect x="16.400" y="11.275" width="1.025" height="1.025" fill="#8e7b32" />
<rect x="17.425" y="11.275" width="1.025" height="1.025" fill="#5e4e21" />
<rect x="18.450" y="11.275" width="1.025" height="1.025" fill="#8e7b32" />
<rect x="19.475" y="11.275" width="1.025" height="1.025" fill="#79682b" />
<rect x="20.500" y="11.275" width="1.025" height="1.025" fill="#a18b39" />
<rect x="21.525" y="11.275" width="1.025" height="1.025" fill="#79682b" />
<rect x="22.550" y="11.275" width="1.025" height="1.025" fill="#8c7a31" />
<rect x="23.575" y="11.275" width="1.025" height="1.025" fill="#6f5e27" />
<rect x="24.600" y="11.275" width="1.025" height="1.025" fill="#635222" />
<rect x="25.625" y="11.275" width="1.025" height="1.025" fill="#7f6e2d" />
<rect x="26.650" y="11.275" width="1.025" height="1.025" fill="#605022" />
<rect x="27.675" y="11.275" width="1.025" height="1.025" fill="#2d240f" />
<rect x="28.700" y="11.275" width="1.025" height="1.025" fill="#5a4b20" />
<rect x="29.725" y="11.275" width="1.025" height="1.025" fill="#766429" />
<rect x="30.750" y="11.275" width="1.025" height="1.025" fill="#6c5b26" />
<rect x="31.775" y="11.275" width="1.025" height="1.025" fill="#645423" />
<rect x="32.800" y="11.275" width="1.025" height="1.025" fill="#241b0c" />
<rect x="33.825" y="11.275" width="1.025" height="1.025" fill="#2d240f" fill-opacity="0.035" />
<rect x="4.100" y="12.300" width="1.025" height="1.025" fill="#6d5d27" />
<rect x="5.125" y="12.300" width="1.025" height="1.025" fill="#645523" />
<rect x="6.150" y="12.300" width="1.025" height="1.025" fill="#463a19" />
<rect x="7.175" y="12.300" width="1.025" height="1.025" fill="#1f170a" />
<rect x="8.200" y="12.300" width="1.025" height="1.025" fill="#bab041" />
<rect x="9.225" y="12.300" width="1.025" height="1.025" fill="#bcb242" />
<rect x="10.250" y="12.300" width="1.025" height="1.025" fill="#79682b" />
<rect x="11.275" y="12.300" width="1.025" height="1.025" fill="#5e4e21" />
<rect x="12.300" y="12.300" width="1.025" height="1.025" fill="#bcb242" />
<rect x="13.325" y="12.300" width="1.025" height="1.025" fill="#bcb242" />
<rect x="14.350" y="12.300" width="1.025" height="1.025" fill="#bcb242" />
<rect x="15.375" y="12.300" width="1.025" height="1.025" fill="#bcb242" />
<rect x="16.400" y="12.300" width="1.025" height="1.025" fill="#bcb242" />
<rect x="17.425" y="12.300" width="1.025" height="1.025" fill="#bcb242" />
<rect x="18.450" y="12.300" width="1.025" height="1.025" fill="#bcb242" />
<rect x="19.475" y="12.300" width="1.025" height="1.025" fill="#bcb242" />
<rect x="20.500" y="12.300" width="1.025" height="1.025" fill="#bcb242" />
<rect x="21.525" y="12.300" width="1.025" height="1.025" fill="#bcb242" />
<rect x="22.550" y="12.300" width="1.025" height="1.025" fill="#bcb242" />
<rect x="23.575" y="12.300" width="1.025" height="1.025" fill="#bcb242" />
<rect x="24.600" y="12.300" width="1.025" height="1.025" fill="#bcb242" />
<rect x="25.625" y="12.300" width="1.025" height="1.025" fill="#bcb242" />
<rect x="26.650" y="12.300" width="1.025" height="1.025" fill="#bcb242" />
<rect x="27.675" y="12.300" width="1.025" height="1.025" fill="#bcb242" />
<rect x="28.700" y="12.300" width="1.025" height="1.025" fill="#bcb242" />
<rect x="29.725" y="12.300" width="1.025" height="1.025" fill="#bcb242" />
<rect x="30.750" y="12.300" width="1.025" height="1.025" fill="#bbb142" />
<rect x="31.775" y="12.300" width="1.025" height="1.025" fill="#706128" />
<rect x="32.800" y="12.300" width="1.025" height="1.025" fill="#5c4c20" />
<rect x="5.125" y="13.325" width="1.025" height="1.025" fill="#3c3115" />
<rect x="6.150" y="13.325" width="1.025" height="1.025" fill="#140d06" />
<rect x="7.175" y="13.325" width="1.025" height="1.025" fill="#79682b" />
<rect x="8.200" y="13.325" width="1.025" height="1.025" fill="#8e7b32" />
<rect x="9.225" y="13.325" width="1.025" height="1.025" fill="#3c3115" />
<rect x="10.250" y="13.325" width="1.025" height="1.025" fill="#5e4e21" />
<rect x="11.275" y="13.325" width="1.025" height="1.025" fill="#8e7b32" />
<rect x="12.300" y="13.325" width="1.025" height="1.025" fill="#3c3115" />
<rect x="13.325" y="13.325" width="1.025" height="1.025" fill="#8e7b32" />
<rect x="14.350" y="13.325" width="1.025" height="1.025" fill="#5e4e21" />
<rect x="15.375" y="13.325" width="1.025" height="1.025" fill="#79682b" />
<rect x="16.400" y="13.325" width="1.025" height="1.025" fill="#3c3115" />
<rect x="17.425" y="13.325" width="1.025" height="1.025" fill="#79682b" />
<rect x="18.450" y="13.325" width="1.025" height="1.025" fill="#a18b39" />
<rect x="19.475" y="13.325" width="1.025" height="1.025" fill="#79682b" />
<rect x="20.500" y="13.325" width="1.025" height="1.025" fill="#79682b" />
<rect x="21.525" y="13.325" width="1.025" height="1.025" fill="#79682b" />
<rect x="22.550" y="13.325" width="1.025" height="1.025" fill="#79682b" />
<rect x="23.575" y="13.325" width="1.025" height="1.025" fill="#3c3115" />
<rect x="24.600" y="13.325" width="1.025" height="1.025" fill="#3c3115" />
<rect x="25.625" y="13.325" width="1.025" height="1.025" fill="#79682b" />
<rect x="26.650" y="13.325" width="1.025" height="1.025" fill="#5e4e21" />
<rect x="27.675" y="13.325" width="1.025" height="1.025" fill="#3c3115" />
<rect x="28.700" y="13.325" width="1.025" height="1.025" fill="#5e4e21" />
<rect x="29.725" y="13.325" width="1.025" height="1.025" fill="#5e4e21" />
<rect x="30.750" y="13.325" width="1.025" height="1.025" fill="#140d06" />
<rect x="31.775" y="13.325" width="1.025" height="1.025" fill="#3c3115" />
<rect x="32.800" y="13.325" width="1.025" height="1.025" fill="#3c3115" />
<rect x="5.125" y="14.350" width="1.025" height="1.025" fill="#3c3115" />
<rect x="6.150" y="14.350" width="1.025" height="1.025" fill="#a18b39" />
<rect x="7.175" y="14.350" width="1.025" height="1.025" fill="#3c3115" />
<rect x="8.200" y="14.350" width="1.025" height="1.025" fill="#79682b" />
<rect x="9.225" y="14.350" width="1.025" height="1.025" fill="#3c3115" />
<rect x="10.250" y="14.350" width="1.025" height="1.025" fill="#79682b" />
<rect x="11.275" y="14.350" width="1.025" height="1.025" fill="#5e4e21" />
<rect x="12.300" y="14.350" width="1.025" height="1.025" fill="#3c3115" />
<rect x="13.325" y="14.350" width="1.025" height="1.025" fill="#5e4e21" />
<rect x="14.350" y="14.350" width="1.025" height="1.025" fill="#5e4e21" />
<rect x="15.375" y="14.350" width="1.025" height="1.025" fill="#5e4e21" />
<rect x="16.400" y="14.350" width="1.025" height="1.025" fill="#3c3115" />
<rect x="17.425" y="14.350" width="1.025" height="1.025" fill="#8e7b32" />
<rect x="18.450" y="14.350" width="1.025" height="1.025" fill="#a18b39" />
<rect x="19.475" y="14.350" width="1.025" height="1.025" fill="#8e7b32" />
<rect x="20.500" y="14.350" width="1.025" height="1.025" fill="#79682b" />
<rect x="21.525" y="14.350" width="1.025" height="1.025" fill="#3c3115" />
<rect x="22.550" y="14.350" width="1.025" height="1.025" fill="#8e7b32" />
<rect x="23.575" y="14.350" width="1.025" height="1.025" fill="#5e4e21" />
<rect x="24.600" y="14.350" width="1.025" height="1.025" fill="#3c3115" />
<rect x="25.625" y="14.350" width="1.025" height="1.025" fill="#3c3115" />
<rect x="26.650" y="14.350" width="1.025" height="1.025" fill="#79682b" />
<rect x="27.675" y="14.350" width="1.025" height="1.025" fill="#5e4e21" />
<rect x="28.700" y="14.350" width="1.025" height="1.025" fill="#3c3115" />
<rect x="29.725" y="14.350" width="1.025" height="1.025" fill="#140d06" />
<rect x="30.750" y="14.350" width="1.025" height="1.025" fill="#3c3115" />
<rect x="31.775" y="14.350" width="1.025" height="1.025" fill="#140d06" />
<rect x="7.175" y="15.375" width="1.025" height="1.025" fill="#3f2516" />
<rect x="11.275" y="15.375" width="1.025" height="1.025" fill="#3c3115" />
<rect x="12.300" y="15.375" width="1.025" height="1.025" fill="#8e7b32" />
<rect x="13.325" y="15.375" width="1.025" height="1.025" fill="#5e4e21" />
<rect x="14.350" y="15.375" width="1.025" height="1.025" fill="#79682b" />
<rect x="15.375" y="15.375" width="1.025" height="1.025" fill="#3c3115" />
<rect x="16.400" y="15.375" width="1.025" height="1.025" fill="#79682b" />
<rect x="17.425" y="15.375" width="1.025" height="1.025" fill="#79682b" />
<rect x="18.450" y="15.375" width="1.025" height="1.025" fill="#a18b39" />
<rect x="19.475" y="15.375" width="1.025" height="1.025" fill="#ae973d" />
<rect x="20.500" y="15.375" width="1.025" height="1.025" fill="#79682b" />
<rect x="21.525" y="15.375" width="1.025" height="1.025" fill="#3c3115" />
<rect x="22.550" y="15.375" width="1.025" height="1.025" fill="#5e4e21" />
<rect x="23.575" y="15.375" width="1.025" height="1.025" fill="#79682b" />
<rect x="24.600" y="15.375" width="1.025" height="1.025" fill="#3c3115" />
<rect x="25.625" y="15.375" width="1.025" height="1.025" fill="#140d06" />
<rect x="26.650" y="15.375" width="1.025" height="1.025" fill="#3c3115" />
<rect x="30.750" y="15.375" width="1.025" height="1.025" fill="#3f2516" />
<rect x="8.200" y="16.400" width="1.025" height="1.025" fill="#3f2516" />
<rect x="12.300" y="16.400" width="1.025" height="1.025" fill="#3d3215" fill-opacity="0.302" />
<rect x="13.325" y="16.400" width="1.025" height="1.025" fill="#3d3215" fill-opacity="0.659" />
<rect x="14.350" y="16.400" width="1.025" height="1.025" fill="#3d3215" fill-opacity="0.659" />
<rect x="15.375" y="16.400" width="1.025" height="1.025" fill="#3d3215" fill-opacity="0.659" />
<rect x="16.400" y="16.400" width="1.025" height="1.025" fill="#3d3215" fill-opacity="0.659" />
<rect x="17.425" y="16.400" width="1.025" height="1.025" fill="#3d3215" fill-opacity="0.659" />
<rect x="18.450" y="16.400" width="1.025" height="1.025" fill="#3d3215" fill-opacity="0.659" />
<rect x="19.475" y="16.400" width="1.025" height="1.025" fill="#3d3215" fill-opacity="0.659" />
<rect x="20.500" y="16.400" width="1.025" height="1.025" fill="#3d3215" fill-opacity="0.659" />
<rect x="21.525" y="16.400" width="1.025" height="1.025" fill="#3d3215" fill-opacity="0.659" />
<rect x="22.550" y="16.400" width="1.025" height="1.025" fill="#3d3215" fill-opacity="0.659" />
<rect x="23.575" y="16.400" width="1.025" height="1.025" fill="#3d3215" fill-opacity="0.514" />
<rect x="29.725" y="16.400" width="1.025" height="1.025" fill="#3f2516" />
<rect x="9.225" y="17.425" width="1.025" height="1.025" fill="#3f2516" />
<rect x="29.725" y="17.425" width="1.025" height="1.025" fill="#3f2516" />
<rect x="10.250" y="18.450" width="1.025" height="1.025" fill="#3f2516" />
<rect x="28.700" y="18.450" width="1.025" height="1.025" fill="#3f2516" />
<rect x="11.275" y="19.475" width="1.025" height="1.025" fill="#3f2516" />
<rect x="27.675" y="19.475" width="1.025" height="1.025" fill="#3f2516" />
<rect x="12.300" y="20.500" width="1.025" height="1.025" fill="#3f2516" />
<rect x="27.675" y="20.500" width="1.025" height="1.025" fill="#3f2516" />
<rect x="13.325" y="21.525" width="1.025" height="1.025" fill="#3f2516" />
<rect x="26.650" y="21.525" width="1.025" height="1.025" fill="#3f2516" />
<rect x="13.325" y="22.550" width="1.025" height="1.025" fill="#3f2516" />
<rect x="14.350" y="22.550" width="1.025" height="1.025" fill="#3f2516" />
<rect x="25.625" y="22.550" width="1.025" height="1.025" fill="#3f2516" />
<rect x="15.375" y="23.575" width="1.025" height="1.025" fill="#3f2516" />
<rect x="24.600" y="23.575" width="1.025" height="1.025" fill="#3f2516" />
<rect x="16.400" y="24.600" width="1.025" height="1.025" fill="#3f2516" />
<rect x="23.575" y="24.600" width="1.025" height="1.025" fill="#3f2516" />
<rect x="17.425" y="25.625" width="1.025" height="1.025" fill="#3f2516" />
<rect x="18.450" y="25.625" width="1.025" height="1.025" fill="#3f2516" />
<rect x="19.475" y="25.625" width="1.025" height="1.025" fill="#3f2516" />
<rect x="20.500" y="25.625" width="1.025" height="1.025" fill="#3f2516" />
<rect x="21.525" y="25.625" width="1.025" height="1.025" fill="#3f2516" />
<rect x="22.550" y="25.625" width="1.025" height="1.025" fill="#3f2516" />
</svg>