<svg xmlns="http://www.w3.org/2000/svg" width="37.925" height="37.925" shape-rendering="crispEdges" style="image-rendering: pixelated;">
<rect x="15.375" y="4.100" width="1.025" height="1.025" fill="#7b6e09" />
<rect x="16.400" y="4.100" width="1.025" height="1.025" fill="#7b6e09" />
<rect x="17.425" y="4.100" width="1.025" height="1.025" fill="#7b6e09" />
<rect x="18.450" y="4.100" width="1.025" height="1.025" fill="#7b6e09" />
<rect x="19.475" y="4.100" width="1.025" height="1.025" fill="#7b6e09" />
<rect x="20.500" y="4.100" width="1.025" height="1.025" fill="#7b6e09" />
<rect x="21.525" y="4.100" width="1.025" height="1.025" fill="#7b6e09" />
<rect x="22.550" y="4.100" width="1.025" height="1.025" fill="#7b6e09" />
<rect x="13.325" y="5.125" width="1.025" height="1.025" fill="#7b6e09" />
<rect x="14.350" y="5.125" width="1.025" height="1.025" fill="#b09c0e" />
<rect x="15.375" y="5.125" width="1.025" height="1.025" fill="#c2b00e" />
<rect x="16.400" y="5.125" width="1.025" height="1.025" fill="#cdc512" />
<rect x="17.425" y="5.125" width="1.025" height="1.025" fill="#d6cc12" />
<rect x="18.450" y="5.125" width="1.025" height="1.025" fill="#dbd014" />
<rect x="19.475" y="5.125" width="1.025" height="1.025" fill="#f1091d" />
<rect x="20.500" y="5.125" width="1.025" height="1.025" fill="#ded415" />
<rect x="21.525" y="5.125" width="1.025" height="1.025" fill="#ded415" />
<rect x="22.550" y="5.125" width="1.025" height="1.025" fill="#dcd214" />
<rect x="23.575" y="5.125" width="1.025" height="1.025" fill="#b09c0e" />
<rect x="12.300" y="6.150" width="1.025" height="1.025" fill="#7b6e09" />
<rect x="13.325" y="6.150" width="1.025" height="1.025" fill="#b09c0e" />
<rect x="14.350" y="6.150" width="1.025" height="1.025" fill="#b09c0e" />
<rect x="15.375" y="6.150" width="1.025" height="1.025" fill="#d2c912" />
<rect x="16.400" y="6.150" width="1.025" height="1.025" fill="#d7ce12" />
<rect x="17.425" y="6.150" width="1.025" height="1.025" fill="#d9cf14" />
<rect x="18.450" y="6.150" width="1.025" height="1.025" fill="#e6da17" />
<rect x="19.475" y="6.150" width="1.025" height="1.025" fill="#efe323" />
<rect x="20.500" y="6.150" width="1.025" height="1.025" fill="#f1091d" />
<rect x="21.525" y="6.150" width="1.025" height="1.025" fill="#f0e426" />
<rect x="22.550" y="6.150" width="1.025" height="1.025" fill="#f0e426" />
<rect x="23.575" y="6.150" width="1.025" height="1.025" fill="#e9dd17" />
<rect x="24.600" y="6.150" width="1.025" height="1.025" fill="#b09c0e" />
<rect x="11.275" y="7.175" width="1.025" height="1.025" fill="#7b6e09" />
<rect x="12.300" y="7.175" width="1.025" height="1.025" fill="#b09c0e" />
<rect x="13.325" y="7.175" width="1.025" height="1.025" fill="#b09c0e" />
<rect x="14.350" y="7.175" width="1.025" height="1.025" fill="#d4cb12" />
<rect x="15.375" y="7.175" width="1.025" height="1.025" fill="#dad014" />
<rect x="16.400" y="7.175" width="1.025" height="1.025" fill="#d9cf14" />
<rect x="17.425" y="7.175" width="1.025" height="1.025" fill="#d9cf14" />
<rect x="18.450" y="7.175" width="1.025" height="1.025" fill="#e6db17" />
<rect x="19.475" y="7.175" width="1.025" height="1.025" fill="#f0e423" />
<rect x="20.500" y="7.175" width="1.025" height="1.025" fill="#f1091d" />
<rect x="21.525" y="7.175" width="1.025" height="1.025" fill="#f0e426" />
<rect x="22.550" y="7.175" width="1.025" height="1.025" fill="#f1e427" />
<rect x="23.575" y="7.175" width="1.025" height="1.025" fill="#f0e426" />
<rect x="24.600" y="7.175" width="1.025" height="1.025" fill="#dfd415" />
<rect x="25.625" y="7.175" width="1.025" height="1.025" fill="#b09c0e" />
<rect x="11.275" y="8.200" width="1.025" height="1.025" fill="#7b6e09" />
<rect x="12.300" y="8.200" width="1.025" height="1.025" fill="#b09c0e" />
<rect x="13.325" y="8.200" width="1.025" height="1.025" fill="#cbc311" />
<rect x="14.350" y="8.200" width="1.025" height="1.025" fill="#d4cb12" />
<rect x="15.375" y="8.200" width="1.025" height="1.025" fill="#dad014" />
<rect x="16.400" y="8.200" width="1.025" height="1.025" fill="#d9cf14" />
<rect x="17.425" y="8.200" width="1.025" height="1.025" fill="#d9cf14" />
<rect x="18.450" y="8.200" width="1.025" height="1.025" fill="#e6db17" />
<rect x="19.475" y="8.200" width="1.025" height="1.025" fill="#f0e423" />
<rect x="20.500" y="8.200" width="1.025" height="1.025" fill="#f1091d" />
<rect x="21.525" y="8.200" width="1.025" height="1.025" fill="#f0e426" />
<rect x="22.550" y="8.200" width="1.025" height="1.025" fill="#f1e427" />
<rect x="23.575" y="8.200" width="1.025" height="1.025" fill="#f0e426" />
<rect x="24.600" y="8.200" width="1.025" height="1.025" fill="#dfd415" />
<rect x="25.625" y="8.200" width="1.025" height="1.025" fill="#b09c0e" />
<rect x="11.275" y="9.225" width="1.025" height="1.025" fill="#7b6e09" />
<rect x="12.300" y="9.225" width="1.025" height="1.025" fill="#b09c0e" />
<rect x="13.325" y="9.225" width="1.025" height="1.025" fill="#cbc311" />
<rect x="14.350" y="9.225" width="1.025" height="1.025" fill="#d6cc12" />
<rect x="15.375" y="9.225" width="1.025" height="1.025" fill="#d6cc12" />
<rect x="16.400" y="9.225" width="1.025" height="1.025" fill="#dcd214" />
<rect x="17.425" y="9.225" width="1.025" height="1.025" fill="#ded415" />
<rect x="18.450" y="9.225" width="1.025" height="1.025" fill="#ded415" />
<rect x="19.475" y="9.225" width="1.025" height="1.025" fill="#ff0000" />
<rect x="20.500" y="9.225" width="1.025" height="1.025" fill="#ff0000" />
<rect x="21.525" y="9.225" width="1.025" height="1.025" fill="#ff0000" />
<rect x="22.550" y="9.225" width="1.025" height="1.025" fill="#e9dd17" />
<rect x="23.575" y="9.225" width="1.025" height="1.025" fill="#e9dd17" />
<rect x="24.600" y="9.225" width="1.025" height="1.025" fill="#dcd214" />
<rect x="25.625" y="9.225" width="1.025" height="1.025" fill="#b09c0e" />
<rect x="10.250" y="10.250" width="1.025" height="1.025" fill="#7b6e09" />
<rect x="11.275" y="10.250" width="1.025" height="1.025" fill="#b09c0e" />
<rect x="12.300" y="10.250" width="1.025" height="1.025" fill="#b09c0e" />
<rect x="13.325" y="10.250" width="1.025" height="1.025" fill="#cfc612" />
<rect x="14.350" y="10.250" width="1.025" height="1.025" fill="#d6cc12" />
<rect x="15.375" y="10.250" width="1.025" height="1.025" fill="#d9cf14" />
<rect x="16.400" y="10.250" width="1.025" height="1.025" fill="#b09c0e" />
<rect x="17.425" y="10.250" width="1.025" height="1.025" fill="#b09c0e" />
<rect x="18.450" y="10.250" width="1.025" height="1.025" fill="#b09c0e" />
<rect x="19.475" y="10.250" width="1.025" height="1.025" fill="#716308" />
<rect x="20.500" y="10.250" width="1.025" height="1.025" fill="#716308" />
<rect x="21.525" y="10.250" width="1.025" height="1.025" fill="#716308" />
<rect x="22.550" y="10.250" width="1.025" height="1.025" fill="#716308" />
<rect x="23.575" y="10.250" width="1.025" height="1.025" fill="#483f05" />
<rect x="24.600" y="10.250" width="1.025" height="1.025" fill="#483f05" />
<rect x="25.625" y="10.250" width="1.025" height="1.025" fill="#483f05" />
<rect x="26.650" y="10.250" width="1.025" height="1.025" fill="#2f2903" />
<rect x="10.250" y="11.275" width="1.025" height="1.025" fill="#7b6e09" />
<rect x="11.275" y="11.275" width="1.025" height="1.025" fill="#b09c0e" />
<rect x="12.300" y="11.275" width="1.025" height="1.025" fill="#b09c0e" />
<rect x="13.325" y="11.275" width="1.025" height="1.025" fill="#c7bf0f" />
<rect x="14.350" y="11.275" width="1.025" height="1.025" fill="#b09c0e" />
<rect x="15.375" y="11.275" width="1.025" height="1.025" fill="#b09c0e" />
<rect x="16.400" y="11.275" width="1.025" height="1.025" fill="#ded314" />
<rect x="17.425" y="11.275" width="1.025" height="1.025" fill="#ded314" />
<rect x="18.450" y="11.275" width="1.025" height="1.025" fill="#dcd214" />
<rect x="19.475" y="11.275" width="1.025" height="1.025" fill="#dfd415" />
<rect x="20.500" y="11.275" width="1.025" height="1.025" fill="#ded415" />
<rect x="21.525" y="11.275" width="1.025" height="1.025" fill="#e0d515" />
<rect x="22.550" y="11.275" width="1.025" height="1.025" fill="#dfd415" />
<rect x="23.575" y="11.275" width="1.025" height="1.025" fill="#e6db17" />
<rect x="24.600" y="11.275" width="1.025" height="1.025" fill="#e6da17" />
<rect x="25.625" y="11.275" width="1.025" height="1.025" fill="#e6da17" />
<rect x="26.650" y="11.275" width="1.025" height="1.025" fill="#dcd214" />
<rect x="27.675" y="11.275" width="1.025" height="1.025" fill="#483f05" />
<rect x="10.250" y="12.300" width="1.025" height="1.025" fill="#7b6e09" />
<rect x="11.275" y="12.300" width="1.025" height="1.025" fill="#cbc311" />
<rect x="12.300" y="12.300" width="1.025" height="1.025" fill="#d1c812" />
<rect x="13.325" y="12.300" width="1.025" height="1.025" fill="#d1c812" />
<rect x="14.350" y="12.300" width="1.025" height="1.025" fill="#d6cc12" />
<rect x="15.375" y="12.300" width="1.025" height="1.025" fill="#d9cf14" />
<rect x="16.400" y="12.300" width="1.025" height="1.025" fill="#b09c0e" />
<rect x="17.425" y="12.300" width="1.025" height="1.025" fill="#b09c0e" />
<rect x="18.450" y="12.300" width="1.025" height="1.025" fill="#b09c0e" />
<rect x="19.475" y="12.300" width="1.025" height="1.025" fill="#b09c0e" />
<rect x="20.500" y="12.300" width="1.025" height="1.025" fill="#b09c0e" />
<rect x="21.525" y="12.300" width="1.025" height="1.025" fill="#b09c0e" />
<rect x="22.550" y="12.300" width="1.025" height="1.025" fill="#716308" />
<rect x="23.575" y="12.300" width="1.025" height="1.025" fill="#716308" />
<rect x="24.600" y="12.300" width="1.025" height="1.025" fill="#483f05" />
<rect x="25.625" y="12.300" width="1.025" height="1.025" fill="#483f05" />
<rect x="26.650" y="12.300" width="1.025" height="1.025" fill="#483f05" />
<rect x="8.200" y="13.325" width="1.025" height="1.025" fill="#574d06" />
<rect x="9.225" y="13.325" width="1.025" height="1.025" fill="#7b6e09" />
<rect x="10.250" y="13.325" width="1.025" height="1.025" fill="#7b6e09" />
<rect x="11.275" y="13.325" width="1.025" height="1.025" fill="#504706" />
<rect x="12.300" y="13.325" width="1.025" height="1.025" fill="#504706" />
<rect x="13.325" y="13.325" width="1.025" height="1.025" fill="#332d03" />
<rect x="14.350" y="13.325" width="1.025" height="1.025" fill="#332d03" />
<rect x="15.375" y="13.325" width="1.025" height="1.025" fill="#332d03" />
<rect x="16.400" y="13.325" width="1.025" height="1.025" fill="#000000" fill-opacity="0.969" />
<rect x="24.600" y="13.325" width="1.025" height="1.025" fill="#867d3b" fill-opacity="0.855" />
<rect x="25.625" y="13.325" width="1.025" height="1.025" fill="#030200" />
<rect x="26.650" y="13.325" width="1.025" height="1.025" fill="#2f2903" />
<rect x="8.200" y="14.350" width="1.025" height="1.025" fill="#574d06" />
<rect x="9.225" y="14.350" width="1.025" height="1.025" fill="#f1091d" />
<rect x="10.250" y="14.350" width="1.025" height="1.025" fill="#cfc612" />
<rect x="11.275" y="14.350" width="1.025" height="1.025" fill="#f1091d" />
<rect x="12.300" y="14.350" width="1.025" height="1.025" fill="#d4cb12" />
<rect x="13.325" y="14.350" width="1.025" height="1.025" fill="#574d06" />
<rect x="14.350" y="14.350" width="1.025" height="1.025" fill="#262303" />
<rect x="25.625" y="14.350" width="1.025" height="1.025" fill="#090900" />
<rect x="26.650" y="14.350" width="1.025" height="1.025" fill="#f1091d" />
<rect x="27.675" y="14.350" width="1.025" height="1.025" fill="#574d06" />
<rect x="8.200" y="15.375" width="1.025" height="1.025" fill="#98870b" />
<rect x="9.225" y="15.375" width="1.025" height="1.025" fill="#c8c00f" />
<rect x="10.250" y="15.375" width="1.025" height="1.025" fill="#cfc612" />
<rect x="11.275" y="15.375" width="1.025" height="1.025" fill="#d6cc12" />
<rect x="12.300" y="15.375" width="1.025" height="1.025" fill="#d4cb12" />
<rect x="13.325" y="15.375" width="1.025" height="1.025" fill="#574d06" />
<rect x="14.350" y="15.375" width="1.025" height="1.025" fill="#080800" />
<rect x="25.625" y="15.375" width="1.025" height="1.025" fill="#090900" />
<rect x="26.650" y="15.375" width="1.025" height="1.025" fill="#b09c0e" />
<rect x="27.675" y="15.375" width="1.025" height="1.025" fill="#574d06" />
<rect x="6.150" y="16.400" width="1.025" height="1.025" fill="#574d06" />
<rect x="7.175" y="16.400" width="1.025" height="1.025" fill="#574d06" />
<rect x="8.200" y="16.400" width="1.025" height="1.025" fill="#7b6e09" />
<rect x="9.225" y="16.400" width="1.025" height="1.025" fill="#7b6e09" />
<rect x="10.250" y="16.400" width="1.025" height="1.025" fill="#504706" />
<rect x="11.275" y="16.400" width="1.025" height="1.025" fill="#504706" />
<rect x="12.300" y="16.400" width="1.025" height="1.025" fill="#332d03" />
<rect x="13.325" y="16.400" width="1.025" height="1.025" fill="#332d03" />
<rect x="14.350" y="16.400" width="1.025" height="1.025" fill="#b09c0e" />
<rect x="25.625" y="16.400" width="1.025" height="1.025" fill="#151202" />
<rect x="26.650" y="16.400" width="1.025" height="1.025" fill="#2f2903" />
<rect x="27.675" y="16.400" width="1.025" height="1.025" fill="#98870b" />
<rect x="28.700" y="16.400" width="1.025" height="1.025" fill="#574d06" />
<rect x="6.150" y="17.425" width="1.025" height="1.025" fill="#574d06" />
<rect x="7.175" y="17.425" width="1.025" height="1.025" fill="#f1091d" />
<rect x="8.200" y="17.425" width="1.025" height="1.025" fill="#cfc612" />
<rect x="9.225" y="17.425" width="1.025" height="1.025" fill="#f1091d" />
<rect x="10.250" y="17.425" width="1.025" height="1.025" fill="#d4cb12" />
<rect x="11.275" y="17.425" width="1.025" height="1.025" fill="#98870b" />
<rect x="12.300" y="17.425" width="1.025" height="1.025" fill="#574d06" />
<rect x="13.325" y="17.425" width="1.025" height="1.025" fill="#171502" />
<rect x="14.350" y="17.425" width="1.025" height="1.025" fill="#000000" />
<rect x="25.625" y="17.425" width="1.025" height="1.025" fill="#2a2603" />
<rect x="26.650" y="17.425" width="1.025" height="1.025" fill="#b09c0e" />
<rect x="27.675" y="17.425" width="1.025" height="1.025" fill="#f1091d" />
<rect x="28.700" y="17.425" width="1.025" height="1.025" fill="#574d06" />
<rect x="6.150" y="18.450" width="1.025" height="1.025" fill="#98870b" />
<rect x="7.175" y="18.450" width="1.025" height="1.025" fill="#c8c00f" />
<rect x="8.200" y="18.450" width="1.025" height="1.025" fill="#cfc612" />
<rect x="9.225" y="18.450" width="1.025" height="1.025" fill="#d6cc12" />
<rect x="10.250" y="18.450" width="1.025" height="1.025" fill="#d4cb12" />
<rect x="11.275" y="18.450" width="1.025" height="1.025" fill="#98870b" />
<rect x="12.300" y="18.450" width="1.025" height="1.025" fill="#574d06" />
<rect x="13.325" y="18.450" width="1.025" height="1.025" fill="#080800" />
<rect x="14.350" y="18.450" width="1.025" height="1.025" fill="#000000" />
<rect x="25.625" y="18.450" width="1.025" height="1.025" fill="#2a2603" />
<rect x="26.650" y="18.450" width="1.025" height="1.025" fill="#b09c0e" />
<rect x="27.675" y="18.450" width="1.025" height="1.025" fill="#d4cb12" />
<rect x="28.700" y="18.450" width="1.025" height="1.025" fill="#574d06" />
<rect x="5.125" y="19.475" width="1.025" height="1.025" fill="#574d06" />
<rect x="6.150" y="19.475" width="1.025" height="1.025" fill="#574d06" />
<rect x="7.175" y="19.475" width="1.025" height="1.025" fill="#7b6e09" />
<rect x="8.200" y="19.475" width="1.025" height="1.025" fill="#7b6e09" />
<rect x="9.225" y="19.475" width="1.025" height="1.025" fill="#504706" />
<rect x="10.250" y="19.475" width="1.025" height="1.025" fill="#504706" />
<rect x="11.275" y="19.475" width="1.025" height="1.025" fill="#fff600" />
<rect x="12.300" y="19.475" width="1.025" height="1.025" fill="#201d03" />
<rect x="13.325" y="19.475" width="1.025" height="1.025" fill="#000000" />
<rect x="24.600" y="19.475" width="1.025" height="1.025" fill="#000000" fill-opacity="0.639" />
<rect x="25.625" y="19.475" width="1.025" height="1.025" fill="#564d06" />
<rect x="26.650" y="19.475" width="1.025" height="1.025" fill="#2f2903" />
<rect x="27.675" y="19.475" width="1.025" height="1.025" fill="#483f05" />
<rect x="28.700" y="19.475" width="1.025" height="1.025" fill="#574d06" />
<rect x="29.725" y="19.475" width="1.025" height="1.025" fill="#574d06" />
<rect x="4.100" y="20.500" width="1.025" height="1.025" fill="#574d06" />
<rect x="5.125" y="20.500" width="1.025" height="1.025" fill="#f1091d" />
<rect x="6.150" y="20.500" width="1.025" height="1.025" fill="#cfc612" />
<rect x="7.175" y="20.500" width="1.025" height="1.025" fill="#cfc612" />
<rect x="8.200" y="20.500" width="1.025" height="1.025" fill="#f1091d" />
<rect x="9.225" y="20.500" width="1.025" height="1.025" fill="#98870b" />
<rect x="10.250" y="20.500" width="1.025" height="1.025" fill="#574d06" />
<rect x="11.275" y="20.500" width="1.025" height="1.025" fill="#d9d200" />
<rect x="12.300" y="20.500" width="1.025" height="1.025" fill="#d9d200" />
<rect x="13.325" y="20.500" width="1.025" height="1.025" fill="#dfca03" />
<rect x="24.600" y="20.500" width="1.025" height="1.025" fill="#000000" fill-opacity="0.639" />
<rect x="25.625" y="20.500" width="1.025" height="1.025" fill="#564d06" />
<rect x="26.650" y="20.500" width="1.025" height="1.025" fill="#fde803" />
<rect x="27.675" y="20.500" width="1.025" height="1.025" fill="#f1091d" />
<rect x="28.700" y="20.500" width="1.025" height="1.025" fill="#d4cb12" />
<rect x="29.725" y="20.500" width="1.025" height="1.025" fill="#574d06" />
<rect x="4.100" y="21.525" width="1.025" height="1.025" fill="#574d06" />
<rect x="5.125" y="21.525" width="1.025" height="1.025" fill="#c8c00f" />
<rect x="6.150" y="21.525" width="1.025" height="1.025" fill="#cfc612" />
<rect x="7.175" y="21.525" width="1.025" height="1.025" fill="#d6cc12" />
<rect x="8.200" y="21.525" width="1.025" height="1.025" fill="#d4cb12" />
<rect x="9.225" y="21.525" width="1.025" height="1.025" fill="#98870b" />
<rect x="10.250" y="21.525" width="1.025" height="1.025" fill="#574d06" />
<rect x="11.275" y="21.525" width="1.025" height="1.025" fill="#080800" />
<rect x="12.300" y="21.525" width="1.025" height="1.025" fill="#fde803" />
<rect x="13.325" y="21.525" width="1.025" height="1.025" fill="#fde803" />
<rect x="14.350" y="21.525" width="1.025" height="1.025" fill="#fcdc06" />
<rect x="24.600" y="21.525" width="1.025" height="1.025" fill="#000000" fill-opacity="0.639" />
<rect x="25.625" y="21.525" width="1.025" height="1.025" fill="#dfca03" />
<rect x="26.650" y="21.525" width="1.025" height="1.025" fill="#b09c0e" />
<rect x="27.675" y="21.525" width="1.025" height="1.025" fill="#b09c0e" />
<rect x="28.700" y="21.525" width="1.025" height="1.025" fill="#98870b" />
<rect x="29.725" y="21.525" width="1.025" height="1.025" fill="#574d06" />
<rect x="4.100" y="22.550" width="1.025" height="1.025" fill="#574d06" />
<rect x="5.125" y="22.550" width="1.025" height="1.025" fill="#574d06" />
<rect x="6.150" y="22.550" width="1.025" height="1.025" fill="#7b6e09" />
<rect x="7.175" y="22.550" width="1.025" height="1.025" fill="#7b6e09" />
<rect x="8.200" y="22.550" width="1.025" height="1.025" fill="#504706" />
<rect x="9.225" y="22.550" width="1.025" height="1.025" fill="#504706" />
<rect x="10.250" y="22.550" width="1.025" height="1.025" fill="#332d03" />
<rect x="11.275" y="22.550" width="1.025" height="1.025" fill="#332d03" />
<rect x="12.300" y="22.550" width="1.025" height="1.025" fill="#201d03" />
<rect x="13.325" y="22.550" width="1.025" height="1.025" fill="#000000" />
<rect x="14.350" y="22.550" width="1.025" height="1.025" fill="#d9d200" />
<rect x="15.375" y="22.550" width="1.025" height="1.025" fill="#dfca03" />
<rect x="24.600" y="22.550" width="1.025" height="1.025" fill="#000000" fill-opacity="0.639" />
<rect x="25.625" y="22.550" width="1.025" height="1.025" fill="#fff600" />
<rect x="26.650" y="22.550" width="1.025" height="1.025" fill="#483f05" />
<rect x="27.675" y="22.550" width="1.025" height="1.025" fill="#483f05" />
<rect x="28.700" y="22.550" width="1.025" height="1.025" fill="#716308" />
<rect x="29.725" y="22.550" width="1.025" height="1.025" fill="#98870b" />
<rect x="30.750" y="22.550" width="1.025" height="1.025" fill="#574d06" />
<rect x="8.200" y="23.575" width="1.025" height="1.025" fill="#98870b" />
<rect x="9.225" y="23.575" width="1.025" height="1.025" fill="#574d06" />
<rect x="10.250" y="23.575" width="1.025" height="1.025" fill="#000000" />
<rect x="11.275" y="23.575" width="1.025" height="1.025" fill="#080800" />
<rect x="12.300" y="23.575" width="1.025" height="1.025" fill="#000000" />
<rect x="14.350" y="23.575" width="1.025" height="1.025" fill="#fde803" />
<rect x="15.375" y="23.575" width="1.025" height="1.025" fill="#fde803" />
<rect x="16.400" y="23.575" width="1.025" height="1.025" fill="#fff600" />
<rect x="17.425" y="23.575" width="1.025" height="1.025" fill="#fde803" />
<rect x="24.600" y="23.575" width="1.025" height="1.025" fill="#e3c406" />
<rect x="25.625" y="23.575" width="1.025" height="1.025" fill="#fcdc06" />
<rect x="9.225" y="24.600" width="1.025" height="1.025" fill="#000000" fill-opacity="0.855" />
<rect x="10.250" y="24.600" width="1.025" height="1.025" fill="#000000" fill-opacity="0.855" />
<rect x="11.275" y="24.600" width="1.025" height="1.025" fill="#000000" fill-opacity="0.969" />
<rect x="12.300" y="24.600" width="1.025" height="1.025" fill="#000000" fill-opacity="0.969" />
<rect x="16.400" y="24.600" width="1.025" height="1.025" fill="#dfca03" />
<rect x="17.425" y="24.600" width="1.025" height="1.025" fill="#fde803" />
<rect x="18.450" y="24.600" width="1.025" height="1.025" fill="#dfca03" />
<rect x="22.550" y="24.600" width="1.025" height="1.025" fill="#fde803" />
<rect x="23.575" y="24.600" width="1.025" height="1.025" fill="#fff600" />
<rect x="24.600" y="24.600" width="1.025" height="1.025" fill="#dfca03" />
<rect x="17.425" y="25.625" width="1.025" height="1.025" fill="#fcdc06" />
<rect x="18.450" y="25.625" width="1.025" height="1.025" fill="#fff600" />
<rect x="19.475" y="25.625" width="1.025" height="1.025" fill="#d9d200" />
<rect x="20.500" y="25.625" width="1.025" height="1.025" fill="#fde803" />
<rect x="21.525" y="25.625" width="1.025" height="1.025" fill="#fde803" />
<rect x="22.550" y="25.625" width="1.025" height="1.025" fill="#d9d200" />
<rect x="23.575" y="25.625" width="1.025" height="1.025" fill="#fff600" />
<rect x="18.450" y="26.650" width="1.025" height="1.025" fill="#dfca03" />
<rect x="19.475" y="26.650" width="1.025" height="1.025" fill="#fcdc06" />
<rect x="20.500" y="26.650" width="1.025" height="1.025" fill="#fde803" />
<rect x="21.525" y="26.650" width="1.025" height="1.025" fill="#d9d200" />
<rect x="22.550" y="26.650" width="1.025" height="1.025" fill="#fff600" />
<rect x="17.425" y="27.675" width="1.025" height="1.025" fill="#fde803" />
<rect x="23.575" y="27.675" width="1.025" height="1.025" fill="#fde803" />
<rect x="17.425" y="28.700" width="1.025" height="1.025" fill="#dfca03" />
<rect x="23.575" y="28.700" width="1.025" height="1.025" fill="#e3c406" />
<rect x="17.425" y="29.725" width="1.025" height="1.025" fill="#fde803" />
<rect x="23.575" y="29.725" width="1.025" height="1.025" fill="#fde803" />
<rect x="16.400" y="30.750" width="1.025" height="1.025" fill="#fff600" />
<rect x="24.600" y="30.750" width="1.025" height="1.025" fill="#fff600" />
</svg>