<svg xmlns="http://www.w3.org/2000/svg" width="37.925" height="37.925" shape-rendering="crispEdges" style="image-rendering: pixelated;">
<rect x="16.400" y="0.000" width="1.025" height="1.025" fill="#ff0000" />
<rect x="27.675" y="0.000" width="1.025" height="1.025" fill="#ff0000" />
<rect x="12.300" y="1.025" width="1.025" height="1.025" fill="#ff0000" />
<rect x="16.400" y="1.025" width="1.025" height="1.025" fill="#ff0000" />
<rect x="23.575" y="1.025" width="1.025" height="1.025" fill="#e30613" />
<rect x="27.675" y="1.025" width="1.025" height="1.025" fill="#ff0000" />
<rect x="4.100" y="2.050" width="1.025" height="1.025" fill="#ff0000" />
<rect x="12.300" y="2.050" width="1.025" height="1.025" fill="#ff0000" />
<rect x="13.325" y="2.050" width="1.025" height="1.025" fill="#ff0000" />
<rect x="16.400" y="2.050" width="1.025" height="1.025" fill="#ff0000" />
<rect x="17.425" y="2.050" width="1.025" height="1.025" fill="#ff0000" />
<rect x="19.475" y="2.050" width="1.025" height="1.025" fill="#e30613" />
<rect x="24.600" y="2.050" width="1.025" height="1.025" fill="#e30613" />
<rect x="26.650" y="2.050" width="1.025" height="1.025" fill="#ff0000" />
<rect x="27.675" y="2.050" width="1.025" height="1.025" fill="#ff0000" />
<rect x="12.300" y="3.075" width="1.025" height="1.025" fill="#ff0000" />
<rect x="13.325" y="3.075" width="1.025" height="1.025" fill="#ff0000" />
<rect x="16.400" y="3.075" width="1.025" height="1.025" fill="#ff0000" />
<rect x="17.425" y="3.075" width="1.025" height="1.025" fill="#ff0000" />
<rect x="19.475" y="3.075" width="1.025" height="1.025" fill="#e30613" />
<rect x="24.600" y="3.075" width="1.025" height="1.025" fill="#e30613" />
<rect x="25.625" y="3.075" width="1.025" height="1.025" fill="#ff0000" />
<rect x="26.650" y="3.075" width="1.025" height="1.025" fill="#ff0000" />
<rect x="13.325" y="4.100" width="1.025" height="1.025" fill="#ff0000" />
<rect x="16.400" y="4.100" width="1.025" height="1.025" fill="#ff0000" />
<rect x="17.425" y="4.100" width="1.025" height="1.025" fill="#ff0000" />
<rect x="19.475" y="4.100" width="1.025" height="1.025" fill="#e30613" />
<rect x="22.550" y="4.100" width="1.025" height="1.025" fill="#e30613" />
<rect x="24.600" y="4.100" width="1.025" height="1.025" fill="#ff0000" />
<rect x="25.625" y="4.100" width="1.025" height="1.025" fill="#e30613" />
<rect x="26.650" y="4.100" width="1.025" height="1.025" fill="#ff0000" />
<rect x="31.775" y="4.100" width="1.025" height="1.025" fill="#ff0000" />
<rect x="7.175" y="5.125" width="1.025" height="1.025" fill="#ff0000" />
<rect x="8.200" y="5.125" width="1.025" height="1.025" fill="#ff0000" />
<rect x="13.325" y="5.125" width="1.025" height="1.025" fill="#ff0000" />
<rect x="16.400" y="5.125" width="1.025" height="1.025" fill="#ff0000" />
<rect x="17.425" y="5.125" width="1.025" height="1.025" fill="#ff0000" />
<rect x="18.450" y="5.125" width="1.025" height="1.025" fill="#e30613" />
<rect x="19.475" y="5.125" width="1.025" height="1.025" fill="#e30613" />
<rect x="20.500" y="5.125" width="1.025" height="1.025" fill="#ff0000" />
<rect x="21.525" y="5.125" width="1.025" height="1.025" fill="#ff0000" />
<rect x="22.550" y="5.125" width="1.025" height="1.025" fill="#e30613" />
<rect x="24.600" y="5.125" width="1.025" height="1.025" fill="#9c1006" />
<rect x="25.625" y="5.125" width="1.025" height="1.025" fill="#9c1006" />
<rect x="26.650" y="5.125" width="1.025" height="1.025" fill="#ff0000" />
<rect x="27.675" y="5.125" width="1.025" height="1.025" fill="#e30613" />
<rect x="30.750" y="5.125" width="1.025" height="1.025" fill="#ff0000" />
<rect x="31.775" y="5.125" width="1.025" height="1.025" fill="#ff0000" />
<rect x="8.200" y="6.150" width="1.025" height="1.025" fill="#ff0000" />
<rect x="9.225" y="6.150" width="1.025" height="1.025" fill="#ff0000" />
<rect x="10.250" y="6.150" width="1.025" height="1.025" fill="#e30613" />
<rect x="13.325" y="6.150" width="1.025" height="1.025" fill="#ff0000" />
<rect x="14.350" y="6.150" width="1.025" height="1.025" fill="#9c1006" />
<rect x="15.375" y="6.150" width="1.025" height="1.025" fill="#9c1006" />
<rect x="16.400" y="6.150" width="1.025" height="1.025" fill="#ff0000" />
<rect x="17.425" y="6.150" width="1.025" height="1.025" fill="#ff0000" />
<rect x="18.450" y="6.150" width="1.025" height="1.025" fill="#e30613" />
<rect x="19.475" y="6.150" width="1.025" height="1.025" fill="#e30613" />
<rect x="20.500" y="6.150" width="1.025" height="1.025" fill="#ff0000" />
<rect x="21.525" y="6.150" width="1.025" height="1.025" fill="#9c1006" />
<rect x="22.550" y="6.150" width="1.025" height="1.025" fill="#e30613" />
<rect x="23.575" y="6.150" width="1.025" height="1.025" fill="#9c1006" />
<rect x="24.600" y="6.150" width="1.025" height="1.025" fill="#9c1006" />
<rect x="25.625" y="6.150" width="1.025" height="1.025" fill="#e30613" />
<rect x="26.650" y="6.150" width="1.025" height="1.025" fill="#ff0000" />
<rect x="27.675" y="6.150" width="1.025" height="1.025" fill="#e30613" />
<rect x="30.750" y="6.150" width="1.025" height="1.025" fill="#ff0000" />
<rect x="8.200" y="7.175" width="1.025" height="1.025" fill="#ff0000" />
<rect x="9.225" y="7.175" width="1.025" height="1.025" fill="#ff0000" />
<rect x="10.250" y="7.175" width="1.025" height="1.025" fill="#ff0000" />
<rect x="11.275" y="7.175" width="1.025" height="1.025" fill="#e30613" />
<rect x="13.325" y="7.175" width="1.025" height="1.025" fill="#f70206" />
<rect x="14.350" y="7.175" width="1.025" height="1.025" fill="#9c1006" />
<rect x="15.375" y="7.175" width="1.025" height="1.025" fill="#ff0000" />
<rect x="16.400" y="7.175" width="1.025" height="1.025" fill="#e30613" />
<rect x="17.425" y="7.175" width="1.025" height="1.025" fill="#ff0000" />
<rect x="18.450" y="7.175" width="1.025" height="1.025" fill="#e30613" />
<rect x="19.475" y="7.175" width="1.025" height="1.025" fill="#e30613" />
<rect x="20.500" y="7.175" width="1.025" height="1.025" fill="#ff0000" />
<rect x="21.525" y="7.175" width="1.025" height="1.025" fill="#9c1006" />
<rect x="22.550" y="7.175" width="1.025" height="1.025" fill="#e30613" />
<rect x="23.575" y="7.175" width="1.025" height="1.025" fill="#9c1006" />
<rect x="24.600" y="7.175" width="1.025" height="1.025" fill="#e30613" />
<rect x="25.625" y="7.175" width="1.025" height="1.025" fill="#ff0000" />
<rect x="26.650" y="7.175" width="1.025" height="1.025" fill="#ff0000" />
<rect x="27.675" y="7.175" width="1.025" height="1.025" fill="#e30613" />
<rect x="29.725" y="7.175" width="1.025" height="1.025" fill="#ff0000" />
<rect x="9.225" y="8.200" width="1.025" height="1.025" fill="#e30613" />
<rect x="10.250" y="8.200" width="1.025" height="1.025" fill="#ff0000" />
<rect x="11.275" y="8.200" width="1.025" height="1.025" fill="#ff0000" />
<rect x="12.300" y="8.200" width="1.025" height="1.025" fill="#e30613" />
<rect x="13.325" y="8.200" width="1.025" height="1.025" fill="#f70206" />
<rect x="14.350" y="8.200" width="1.025" height="1.025" fill="#9c1006" />
<rect x="15.375" y="8.200" width="1.025" height="1.025" fill="#ff0000" />
<rect x="16.400" y="8.200" width="1.025" height="1.025" fill="#ff0000" />
<rect x="17.425" y="8.200" width="1.025" height="1.025" fill="#e30613" />
<rect x="18.450" y="8.200" width="1.025" height="1.025" fill="#e30613" />
<rect x="19.475" y="8.200" width="1.025" height="1.025" fill="#e30613" />
<rect x="20.500" y="8.200" width="1.025" height="1.025" fill="#e30613" />
<rect x="21.525" y="8.200" width="1.025" height="1.025" fill="#9c1006" />
<rect x="22.550" y="8.200" width="1.025" height="1.025" fill="#9c1006" />
<rect x="23.575" y="8.200" width="1.025" height="1.025" fill="#ff0000" />
<rect x="24.600" y="8.200" width="1.025" height="1.025" fill="#e30613" />
<rect x="25.625" y="8.200" width="1.025" height="1.025" fill="#e30613" />
<rect x="26.650" y="8.200" width="1.025" height="1.025" fill="#e30613" />
<rect x="28.700" y="8.200" width="1.025" height="1.025" fill="#ff0000" />
<rect x="29.725" y="8.200" width="1.025" height="1.025" fill="#ff0000" />
<rect x="5.125" y="9.225" width="1.025" height="1.025" fill="#ff0000" />
<rect x="10.250" y="9.225" width="1.025" height="1.025" fill="#e30613" />
<rect x="11.275" y="9.225" width="1.025" height="1.025" fill="#ff0000" />
<rect x="12.300" y="9.225" width="1.025" height="1.025" fill="#e30613" />
<rect x="13.325" y="9.225" width="1.025" height="1.025" fill="#b10d0a" />
<rect x="14.350" y="9.225" width="1.025" height="1.025" fill="#9c1006" />
<rect x="15.375" y="9.225" width="1.025" height="1.025" fill="#ff0000" />
<rect x="16.400" y="9.225" width="1.025" height="1.025" fill="#ff0000" />
<rect x="17.425" y="9.225" width="1.025" height="1.025" fill="#e30613" />
<rect x="18.450" y="9.225" width="1.025" height="1.025" fill="#e30613" />
<rect x="19.475" y="9.225" width="1.025" height="1.025" fill="#ff0000" />
<rect x="20.500" y="9.225" width="1.025" height="1.025" fill="#e30613" />
<rect x="21.525" y="9.225" width="1.025" height="1.025" fill="#9c1006" />
<rect x="22.550" y="9.225" width="1.025" height="1.025" fill="#e30613" />
<rect x="23.575" y="9.225" width="1.025" height="1.025" fill="#ff0000" />
<rect x="24.600" y="9.225" width="1.025" height="1.025" fill="#e30613" />
<rect x="25.625" y="9.225" width="1.025" height="1.025" fill="#e30613" />
<rect x="26.650" y="9.225" width="1.025" height="1.025" fill="#e30613" />
<rect x="27.675" y="9.225" width="1.025" height="1.025" fill="#ff0000" />
<rect x="28.700" y="9.225" width="1.025" height="1.025" fill="#ff0000" />
<rect x="8.200" y="10.250" width="1.025" height="1.025" fill="#ff0000" />
<rect x="9.225" y="10.250" width="1.025" height="1.025" fill="#ff0000" />
<rect x="10.250" y="10.250" width="1.025" height="1.025" fill="#e30613" />
<rect x="11.275" y="10.250" width="1.025" height="1.025" fill="#9c1006" />
<rect x="12.300" y="10.250" width="1.025" height="1.025" fill="#9c1006" />
<rect x="13.325" y="10.250" width="1.025" height="1.025" fill="#d70711" />
<rect x="14.350" y="10.250" width="1.025" height="1.025" fill="#9c1006" />
<rect x="15.375" y="10.250" width="1.025" height="1.025" fill="#e30613" />
<rect x="16.400" y="10.250" width="1.025" height="1.025" fill="#ff0000" />
<rect x="17.425" y="10.250" width="1.025" height="1.025" fill="#e30613" />
<rect x="18.450" y="10.250" width="1.025" height="1.025" fill="#e30613" />
<rect x="19.475" y="10.250" width="1.025" height="1.025" fill="#e30613" />
<rect x="20.500" y="10.250" width="1.025" height="1.025" fill="#e30613" />
<rect x="21.525" y="10.250" width="1.025" height="1.025" fill="#9c1006" />
<rect x="22.550" y="10.250" width="1.025" height="1.025" fill="#ff0000" />
<rect x="23.575" y="10.250" width="1.025" height="1.025" fill="#e30613" />
<rect x="24.600" y="10.250" width="1.025" height="1.025" fill="#e30613" />
<rect x="25.625" y="10.250" width="1.025" height="1.025" fill="#e30613" />
<rect x="26.650" y="10.250" width="1.025" height="1.025" fill="#ff0000" />
<rect x="27.675" y="10.250" width="1.025" height="1.025" fill="#f70206" />
<rect x="30.750" y="10.250" width="1.025" height="1.025" fill="#ff0000" />
<rect x="9.225" y="11.275" width="1.025" height="1.025" fill="#ff0000" />
<rect x="10.250" y="11.275" width="1.025" height="1.025" fill="#ff0000" />
<rect x="11.275" y="11.275" width="1.025" height="1.025" fill="#e30613" />
<rect x="12.300" y="11.275" width="1.025" height="1.025" fill="#9c1006" />
<rect x="13.325" y="11.275" width="1.025" height="1.025" fill="#b10d0a" />
<rect x="14.350" y="11.275" width="1.025" height="1.025" fill="#9c1006" />
<rect x="15.375" y="11.275" width="1.025" height="1.025" fill="#ff0000" />
<rect x="16.400" y="11.275" width="1.025" height="1.025" fill="#e30613" />
<rect x="17.425" y="11.275" width="1.025" height="1.025" fill="#e30613" />
<rect x="18.450" y="11.275" width="1.025" height="1.025" fill="#e30613" />
<rect x="19.475" y="11.275" width="1.025" height="1.025" fill="#e30613" />
<rect x="20.500" y="11.275" width="1.025" height="1.025" fill="#e30613" />
<rect x="21.525" y="11.275" width="1.025" height="1.025" fill="#b10d0a" />
<rect x="22.550" y="11.275" width="1.025" height="1.025" fill="#b10d0a" />
<rect x="23.575" y="11.275" width="1.025" height="1.025" fill="#e30613" />
<rect x="24.600" y="11.275" width="1.025" height="1.025" fill="#e30613" />
<rect x="25.625" y="11.275" width="1.025" height="1.025" fill="#e30613" />
<rect x="26.650" y="11.275" width="1.025" height="1.025" fill="#f70206" />
<rect x="27.675" y="11.275" width="1.025" height="1.025" fill="#f70206" />
<rect x="10.250" y="12.300" width="1.025" height="1.025" fill="#ff0000" />
<rect x="11.275" y="12.300" width="1.025" height="1.025" fill="#ff0000" />
<rect x="12.300" y="12.300" width="1.025" height="1.025" fill="#9c1006" />
<rect x="13.325" y="12.300" width="1.025" height="1.025" fill="#b10d0a" />
<rect x="14.350" y="12.300" width="1.025" height="1.025" fill="#cb090f" />
<rect x="15.375" y="12.300" width="1.025" height="1.025" fill="#ff0000" />
<rect x="16.400" y="12.300" width="1.025" height="1.025" fill="#e30613" />
<rect x="17.425" y="12.300" width="1.025" height="1.025" fill="#e30613" />
<rect x="18.450" y="12.300" width="1.025" height="1.025" fill="#e30613" />
<rect x="19.475" y="12.300" width="1.025" height="1.025" fill="#f70206" />
<rect x="20.500" y="12.300" width="1.025" height="1.025" fill="#e30613" />
<rect x="21.525" y="12.300" width="1.025" height="1.025" fill="#e30613" />
<rect x="22.550" y="12.300" width="1.025" height="1.025" fill="#e20712" />
<rect x="23.575" y="12.300" width="1.025" height="1.025" fill="#9c1006" />
<rect x="24.600" y="12.300" width="1.025" height="1.025" fill="#e30613" />
<rect x="25.625" y="12.300" width="1.025" height="1.025" fill="#ff0000" />
<rect x="26.650" y="12.300" width="1.025" height="1.025" fill="#f1030a" />
<rect x="27.675" y="12.300" width="1.025" height="1.025" fill="#e50611" />
<rect x="10.250" y="13.325" width="1.025" height="1.025" fill="#e30613" />
<rect x="11.275" y="13.325" width="1.025" height="1.025" fill="#ff0000" />
<rect x="12.300" y="13.325" width="1.025" height="1.025" fill="#ff0000" />
<rect x="13.325" y="13.325" width="1.025" height="1.025" fill="#9c1006" />
<rect x="14.350" y="13.325" width="1.025" height="1.025" fill="#b10d0a" />
<rect x="15.375" y="13.325" width="1.025" height="1.025" fill="#ff0000" />
<rect x="16.400" y="13.325" width="1.025" height="1.025" fill="#e30613" />
<rect x="17.425" y="13.325" width="1.025" height="1.025" fill="#e30613" />
<rect x="18.450" y="13.325" width="1.025" height="1.025" fill="#f70206" />
<rect x="19.475" y="13.325" width="1.025" height="1.025" fill="#9c1006" />
<rect x="20.500" y="13.325" width="1.025" height="1.025" fill="#9c1006" />
<rect x="21.525" y="13.325" width="1.025" height="1.025" fill="#e30613" />
<rect x="22.550" y="13.325" width="1.025" height="1.025" fill="#e30613" />
<rect x="23.575" y="13.325" width="1.025" height="1.025" fill="#9c1006" />
<rect x="24.600" y="13.325" width="1.025" height="1.025" fill="#e30613" />
<rect x="25.625" y="13.325" width="1.025" height="1.025" fill="#f70206" />
<rect x="26.650" y="13.325" width="1.025" height="1.025" fill="#f1030a" />
<rect x="10.250" y="14.350" width="1.025" height="1.025" fill="#e30613" />
<rect x="11.275" y="14.350" width="1.025" height="1.025" fill="#f70206" />
<rect x="12.300" y="14.350" width="1.025" height="1.025" fill="#ff0000" />
<rect x="13.325" y="14.350" width="1.025" height="1.025" fill="#9c1006" />
<rect x="14.350" y="14.350" width="1.025" height="1.025" fill="#b10d0a" />
<rect x="15.375" y="14.350" width="1.025" height="1.025" fill="#ff0000" />
<rect x="16.400" y="14.350" width="1.025" height="1.025" fill="#e30613" />
<rect x="17.425" y="14.350" width="1.025" height="1.025" fill="#e30613" />
<rect x="18.450" y="14.350" width="1.025" height="1.025" fill="#ff0000" />
<rect x="19.475" y="14.350" width="1.025" height="1.025" fill="#b10d0a" />
<rect x="20.500" y="14.350" width="1.025" height="1.025" fill="#ff0000" />
<rect x="21.525" y="14.350" width="1.025" height="1.025" fill="#ff0000" />
<rect x="22.550" y="14.350" width="1.025" height="1.025" fill="#e30613" />
<rect x="23.575" y="14.350" width="1.025" height="1.025" fill="#9c1006" />
<rect x="24.600" y="14.350" width="1.025" height="1.025" fill="#ff0000" />
<rect x="25.625" y="14.350" width="1.025" height="1.025" fill="#f1030a" />
<rect x="26.650" y="14.350" width="1.025" height="1.025" fill="#e30613" fill-opacity="0.514" />
<rect x="28.700" y="14.350" width="1.025" height="1.025" fill="#ff0000" />
<rect x="11.275" y="15.375" width="1.025" height="1.025" fill="#bf0b0c" />
<rect x="12.300" y="15.375" width="1.025" height="1.025" fill="#c80906" />
<rect x="13.325" y="15.375" width="1.025" height="1.025" fill="#ff0000" />
<rect x="14.350" y="15.375" width="1.025" height="1.025" fill="#b10d0a" />
<rect x="15.375" y="15.375" width="1.025" height="1.025" fill="#ff0000" />
<rect x="16.400" y="15.375" width="1.025" height="1.025" fill="#ff0000" />
<rect x="17.425" y="15.375" width="1.025" height="1.025" fill="#e30613" />
<rect x="18.450" y="15.375" width="1.025" height="1.025" fill="#9c1006" />
<rect x="19.475" y="15.375" width="1.025" height="1.025" fill="#c00b0d" />
<rect x="20.500" y="15.375" width="1.025" height="1.025" fill="#ff0000" />
<rect x="21.525" y="15.375" width="1.025" height="1.025" fill="#b10d0a" />
<rect x="22.550" y="15.375" width="1.025" height="1.025" fill="#e30613" />
<rect x="23.575" y="15.375" width="1.025" height="1.025" fill="#e30613" />
<rect x="24.600" y="15.375" width="1.025" height="1.025" fill="#f70206" />
<rect x="25.625" y="15.375" width="1.025" height="1.025" fill="#f1030a" />
<rect x="26.650" y="15.375" width="1.025" height="1.025" fill="#e30613" fill-opacity="0.302" />
<rect x="9.225" y="16.400" width="1.025" height="1.025" fill="#ff0000" />
<rect x="10.250" y="16.400" width="1.025" height="1.025" fill="#ff0000" />
<rect x="11.275" y="16.400" width="1.025" height="1.025" fill="#e10502" />
<rect x="12.300" y="16.400" width="1.025" height="1.025" fill="#c80906" />
<rect x="13.325" y="16.400" width="1.025" height="1.025" fill="#e10502" />
<rect x="14.350" y="16.400" width="1.025" height="1.025" fill="#b10d0a" />
<rect x="15.375" y="16.400" width="1.025" height="1.025" fill="#f70206" />
<rect x="16.400" y="16.400" width="1.025" height="1.025" fill="#ff0000" />
<rect x="17.425" y="16.400" width="1.025" height="1.025" fill="#e30613" />
<rect x="18.450" y="16.400" width="1.025" height="1.025" fill="#9c1006" />
<rect x="19.475" y="16.400" width="1.025" height="1.025" fill="#ff0000" />
<rect x="20.500" y="16.400" width="1.025" height="1.025" fill="#ff0000" />
<rect x="21.525" y="16.400" width="1.025" height="1.025" fill="#e30613" />
<rect x="22.550" y="16.400" width="1.025" height="1.025" fill="#ff0000" />
<rect x="23.575" y="16.400" width="1.025" height="1.025" fill="#9c1006" />
<rect x="24.600" y="16.400" width="1.025" height="1.025" fill="#e30613" />
<rect x="25.625" y="16.400" width="1.025" height="1.025" fill="#e30613" />
<rect x="32.800" y="16.400" width="1.025" height="1.025" fill="#ff0000" />
<rect x="33.825" y="16.400" width="1.025" height="1.025" fill="#e30613" />
<rect x="34.850" y="16.400" width="1.025" height="1.025" fill="#ff0000" />
<rect x="35.875" y="16.400" width="1.025" height="1.025" fill="#e30613" />
<rect x="36.900" y="16.400" width="1.025" height="1.025" fill="#ff0000" />
<rect x="12.300" y="17.425" width="1.025" height="1.025" fill="#db0606" />
<rect x="13.325" y="17.425" width="1.025" height="1.025" fill="#cc0803" />
<rect x="14.350" y="17.425" width="1.025" height="1.025" fill="#9c1006" />
<rect x="15.375" y="17.425" width="1.025" height="1.025" fill="#b10d0a" />
<rect x="16.400" y="17.425" width="1.025" height="1.025" fill="#ff0000" />
<rect x="17.425" y="17.425" width="1.025" height="1.025" fill="#e30613" />
<rect x="18.450" y="17.425" width="1.025" height="1.025" fill="#9c1006" />
<rect x="19.475" y="17.425" width="1.025" height="1.025" fill="#ff0000" />
<rect x="20.500" y="17.425" width="1.025" height="1.025" fill="#e30613" />
<rect x="21.525" y="17.425" width="1.025" height="1.025" fill="#e30613" />
<rect x="22.550" y="17.425" width="1.025" height="1.025" fill="#e30613" />
<rect x="23.575" y="17.425" width="1.025" height="1.025" fill="#e30613" />
<rect x="24.600" y="17.425" width="1.025" height="1.025" fill="#e30613" />
<rect x="25.625" y="17.425" width="1.025" height="1.025" fill="#e30613" />
<rect x="28.700" y="17.425" width="1.025" height="1.025" fill="#e30613" />
<rect x="29.725" y="17.425" width="1.025" height="1.025" fill="#e30613" />
<rect x="30.750" y="17.425" width="1.025" height="1.025" fill="#e30613" />
<rect x="31.775" y="17.425" width="1.025" height="1.025" fill="#ff0000" />
<rect x="34.850" y="17.425" width="1.025" height="1.025" fill="#e30613" />
<rect x="35.875" y="17.425" width="1.025" height="1.025" fill="#e30613" />
<rect x="11.275" y="18.450" width="1.025" height="1.025" fill="#ff0000" />
<rect x="12.300" y="18.450" width="1.025" height="1.025" fill="#ff0000" />
<rect x="13.325" y="18.450" width="1.025" height="1.025" fill="#be0b04" />
<rect x="14.350" y="18.450" width="1.025" height="1.025" fill="#ff0000" />
<rect x="15.375" y="18.450" width="1.025" height="1.025" fill="#b10d0a" />
<rect x="16.400" y="18.450" width="1.025" height="1.025" fill="#ff0000" />
<rect x="17.425" y="18.450" width="1.025" height="1.025" fill="#e30613" />
<rect x="18.450" y="18.450" width="1.025" height="1.025" fill="#d20810" />
<rect x="19.475" y="18.450" width="1.025" height="1.025" fill="#ff0000" />
<rect x="20.500" y="18.450" width="1.025" height="1.025" fill="#e30613" />
<rect x="21.525" y="18.450" width="1.025" height="1.025" fill="#e30613" />
<rect x="22.550" y="18.450" width="1.025" height="1.025" fill="#9c1006" />
<rect x="23.575" y="18.450" width="1.025" height="1.025" fill="#ff0000" />
<rect x="24.600" y="18.450" width="1.025" height="1.025" fill="#ff0000" />
<rect x="25.625" y="18.450" width="1.025" height="1.025" fill="#ff0000" />
<rect x="26.650" y="18.450" width="1.025" height="1.025" fill="#e30613" />
<rect x="27.675" y="18.450" width="1.025" height="1.025" fill="#e30613" />
<rect x="29.725" y="18.450" width="1.025" height="1.025" fill="#e30613" />
<rect x="30.750" y="18.450" width="1.025" height="1.025" fill="#e30613" />
<rect x="31.775" y="18.450" width="1.025" height="1.025" fill="#e30613" />
<rect x="34.850" y="18.450" width="1.025" height="1.025" fill="#e30613" />
<rect x="10.250" y="19.475" width="1.025" height="1.025" fill="#ff0000" />
<rect x="12.300" y="19.475" width="1.025" height="1.025" fill="#ff0000" />
<rect x="13.325" y="19.475" width="1.025" height="1.025" fill="#e10502" />
<rect x="14.350" y="19.475" width="1.025" height="1.025" fill="#ff0000" />
<rect x="15.375" y="19.475" width="1.025" height="1.025" fill="#b10d0a" />
<rect x="16.400" y="19.475" width="1.025" height="1.025" fill="#ff0000" />
<rect x="17.425" y="19.475" width="1.025" height="1.025" fill="#b10d0a" />
<rect x="18.450" y="19.475" width="1.025" height="1.025" fill="#ff0000" />
<rect x="19.475" y="19.475" width="1.025" height="1.025" fill="#ff0000" />
<rect x="20.500" y="19.475" width="1.025" height="1.025" fill="#ff0000" />
<rect x="21.525" y="19.475" width="1.025" height="1.025" fill="#ff0000" />
<rect x="22.550" y="19.475" width="1.025" height="1.025" fill="#9c1006" />
<rect x="23.575" y="19.475" width="1.025" height="1.025" fill="#e30613" />
<rect x="24.600" y="19.475" width="1.025" height="1.025" fill="#e30613" />
<rect x="30.750" y="19.475" width="1.025" height="1.025" fill="#e30613" />
<rect x="31.775" y="19.475" width="1.025" height="1.025" fill="#e30613" />
<rect x="9.225" y="20.500" width="1.025" height="1.025" fill="#ff0000" />
<rect x="10.250" y="20.500" width="1.025" height="1.025" fill="#ff0000" />
<rect x="11.275" y="20.500" width="1.025" height="1.025" fill="#ff0000" />
<rect x="12.300" y="20.500" width="1.025" height="1.025" fill="#ff0000" />
<rect x="13.325" y="20.500" width="1.025" height="1.025" fill="#ff0000" />
<rect x="14.350" y="20.500" width="1.025" height="1.025" fill="#ff0000" />
<rect x="15.375" y="20.500" width="1.025" height="1.025" fill="#b10d0a" />
<rect x="16.400" y="20.500" width="1.025" height="1.025" fill="#ff0000" />
<rect x="17.425" y="20.500" width="1.025" height="1.025" fill="#b10d0a" />
<rect x="18.450" y="20.500" width="1.025" height="1.025" fill="#ff0000" />
<rect x="19.475" y="20.500" width="1.025" height="1.025" fill="#ff0000" />
<rect x="20.500" y="20.500" width="1.025" height="1.025" fill="#ff0000" />
<rect x="21.525" y="20.500" width="1.025" height="1.025" fill="#ff0000" />
<rect x="22.550" y="20.500" width="1.025" height="1.025" fill="#9c1006" />
<rect x="23.575" y="20.500" width="1.025" height="1.025" fill="#ff0000" />
<rect x="24.600" y="20.500" width="1.025" height="1.025" fill="#ff0000" />
<rect x="30.750" y="20.500" width="1.025" height="1.025" fill="#e30613" />
<rect x="31.775" y="20.500" width="1.025" height="1.025" fill="#e30613" />
<rect x="8.200" y="21.525" width="1.025" height="1.025" fill="#ff0000" />
<rect x="9.225" y="21.525" width="1.025" height="1.025" fill="#ff0000" />
<rect x="13.325" y="21.525" width="1.025" height="1.025" fill="#ff0000" />
<rect x="14.350" y="21.525" width="1.025" height="1.025" fill="#e30613" />
<rect x="15.375" y="21.525" width="1.025" height="1.025" fill="#b10d0a" />
<rect x="16.400" y="21.525" width="1.025" height="1.025" fill="#f70206" />
<rect x="17.425" y="21.525" width="1.025" height="1.025" fill="#b10d0a" />
<rect x="18.450" y="21.525" width="1.025" height="1.025" fill="#ff0000" />
<rect x="19.475" y="21.525" width="1.025" height="1.025" fill="#ff0000" />
<rect x="20.500" y="21.525" width="1.025" height="1.025" fill="#ff0000" />
<rect x="21.525" y="21.525" width="1.025" height="1.025" fill="#e30613" />
<rect x="22.550" y="21.525" width="1.025" height="1.025" fill="#ff0000" />
<rect x="23.575" y="21.525" width="1.025" height="1.025" fill="#e30613" />
<rect x="24.600" y="21.525" width="1.025" height="1.025" fill="#ff0000" />
<rect x="30.750" y="21.525" width="1.025" height="1.025" fill="#e30613" />
<rect x="31.775" y="21.525" width="1.025" height="1.025" fill="#e30613" />
<rect x="13.325" y="22.550" width="1.025" height="1.025" fill="#ff0000" />
<rect x="14.350" y="22.550" width="1.025" height="1.025" fill="#ff0000" />
<rect x="15.375" y="22.550" width="1.025" height="1.025" fill="#9c1006" />
<rect x="16.400" y="22.550" width="1.025" height="1.025" fill="#e30613" />
<rect x="17.425" y="22.550" width="1.025" height="1.025" fill="#b10d0a" />
<rect x="18.450" y="22.550" width="1.025" height="1.025" fill="#ff0000" />
<rect x="19.475" y="22.550" width="1.025" height="1.025" fill="#e30613" />
<rect x="20.500" y="22.550" width="1.025" height="1.025" fill="#ff0000" />
<rect x="21.525" y="22.550" width="1.025" height="1.025" fill="#e30613" />
<rect x="22.550" y="22.550" width="1.025" height="1.025" fill="#ff0000" />
<rect x="23.575" y="22.550" width="1.025" height="1.025" fill="#e30613" />
<rect x="24.600" y="22.550" width="1.025" height="1.025" fill="#9c1006" />
<rect x="30.750" y="22.550" width="1.025" height="1.025" fill="#e30613" />
<rect x="31.775" y="22.550" width="1.025" height="1.025" fill="#e30613" />
<rect x="12.300" y="23.575" width="1.025" height="1.025" fill="#ff0000" />
<rect x="13.325" y="23.575" width="1.025" height="1.025" fill="#ff0000" />
<rect x="14.350" y="23.575" width="1.025" height="1.025" fill="#fde1c7" />
<rect x="15.375" y="23.575" width="1.025" height="1.025" fill="#ff0000" />
<rect x="16.400" y="23.575" width="1.025" height="1.025" fill="#e30613" />
<rect x="17.425" y="23.575" width="1.025" height="1.025" fill="#9c1006" />
<rect x="18.450" y="23.575" width="1.025" height="1.025" fill="#ff0000" />
<rect x="19.475" y="23.575" width="1.025" height="1.025" fill="#ff0000" />
<rect x="20.500" y="23.575" width="1.025" height="1.025" fill="#ff0000" />
<rect x="21.525" y="23.575" width="1.025" height="1.025" fill="#e30613" />
<rect x="22.550" y="23.575" width="1.025" height="1.025" fill="#ff0000" />
<rect x="23.575" y="23.575" width="1.025" height="1.025" fill="#e30613" />
<rect x="30.750" y="23.575" width="1.025" height="1.025" fill="#e30613" />
<rect x="31.775" y="23.575" width="1.025" height="1.025" fill="#e30613" />
<rect x="10.250" y="24.600" width="1.025" height="1.025" fill="#ff0000" />
<rect x="11.275" y="24.600" width="1.025" height="1.025" fill="#ff0000" />
<rect x="14.350" y="24.600" width="1.025" height="1.025" fill="#000000" />
<rect x="15.375" y="24.600" width="1.025" height="1.025" fill="#fde1c7" />
<rect x="16.400" y="24.600" width="1.025" height="1.025" fill="#fde1c7" />
<rect x="17.425" y="24.600" width="1.025" height="1.025" fill="#ff0000" />
<rect x="18.450" y="24.600" width="1.025" height="1.025" fill="#000000" />
<rect x="19.475" y="24.600" width="1.025" height="1.025" fill="#ff0000" />
<rect x="20.500" y="24.600" width="1.025" height="1.025" fill="#ff0000" />
<rect x="21.525" y="24.600" width="1.025" height="1.025" fill="#e30613" />
<rect x="22.550" y="24.600" width="1.025" height="1.025" fill="#ff0000" />
<rect x="23.575" y="24.600" width="1.025" height="1.025" fill="#9c1006" />
<rect x="31.775" y="24.600" width="1.025" height="1.025" fill="#e30613" />
<rect x="8.200" y="25.625" width="1.025" height="1.025" fill="#ff0000" />
<rect x="9.225" y="25.625" width="1.025" height="1.025" fill="#ff0000" />
<rect x="14.350" y="25.625" width="1.025" height="1.025" fill="#d3ad90" />
<rect x="15.375" y="25.625" width="1.025" height="1.025" fill="#000000" />
<rect x="16.400" y="25.625" width="1.025" height="1.025" fill="#000000" />
<rect x="17.425" y="25.625" width="1.025" height="1.025" fill="#000000" />
<rect x="19.475" y="25.625" width="1.025" height="1.025" fill="#ff0000" />
<rect x="20.500" y="25.625" width="1.025" height="1.025" fill="#ff0000" />
<rect x="22.550" y="25.625" width="1.025" height="1.025" fill="#ff0000" />
<rect x="31.775" y="25.625" width="1.025" height="1.025" fill="#e30613" />
<rect x="7.175" y="26.650" width="1.025" height="1.025" fill="#ff0000" />
<rect x="5.125" y="27.675" width="1.025" height="1.025" fill="#ff0000" />
<rect x="6.150" y="27.675" width="1.025" height="1.025" fill="#e30613" />
<rect x="7.175" y="27.675" width="1.025" height="1.025" fill="#e30613" />
<rect x="4.100" y="28.700" width="1.025" height="1.025" fill="#ff0000" />
<rect x="6.150" y="28.700" width="1.025" height="1.025" fill="#e30613" />
<rect x="7.175" y="28.700" width="1.025" height="1.025" fill="#e30613" />
<rect x="3.075" y="29.725" width="1.025" height="1.025" fill="#ff0000" />
<rect x="7.175" y="29.725" width="1.025" height="1.025" fill="#e30613" />
<rect x="1.025" y="30.750" width="1.025" height="1.025" fill="#ff0000" />
<rect x="2.050" y="30.750" width="1.025" height="1.025" fill="#ff0000" />
<rect x="3.075" y="30.750" width="1.025" height="1.025" fill="#e30613" />
<rect x="1.025" y="31.775" width="1.025" height="1.025" fill="#ff0000" />
<rect x="3.075" y="31.775" width="1.025" height="1.025" fill="#e30613" />
<rect x="3.075" y="32.800" width="1.025" height="1.025" fill="#e30613" />
</svg>