<svg xmlns="http://www.w3.org/2000/svg" width="37.925" height="37.925" shape-rendering="crispEdges" style="image-rendering: pixelated;">
<rect x="13.325" y="1.025" width="1.025" height="1.025" fill="#131313" />
<rect x="14.350" y="1.025" width="1.025" height="1.025" fill="#131313" />
<rect x="15.375" y="1.025" width="1.025" height="1.025" fill="#131313" />
<rect x="16.400" y="1.025" width="1.025" height="1.025" fill="#131313" />
<rect x="10.250" y="2.050" width="1.025" height="1.025" fill="#131313" />
<rect x="11.275" y="2.050" width="1.025" height="1.025" fill="#131313" />
<rect x="12.300" y="2.050" width="1.025" height="1.025" fill="#131313" />
<rect x="13.325" y="2.050" width="1.025" height="1.025" fill="#131313" />
<rect x="14.350" y="2.050" width="1.025" height="1.025" fill="#131313" />
<rect x="15.375" y="2.050" width="1.025" height="1.025" fill="#c90713" />
<rect x="16.400" y="2.050" width="1.025" height="1.025" fill="#73050b" />
<rect x="17.425" y="2.050" width="1.025" height="1.025" fill="#73050b" />
<rect x="8.200" y="3.075" width="1.025" height="1.025" fill="#131313" />
<rect x="9.225" y="3.075" width="1.025" height="1.025" fill="#131313" />
<rect x="10.250" y="3.075" width="1.025" height="1.025" fill="#131313" />
<rect x="11.275" y="3.075" width="1.025" height="1.025" fill="#1c1c1c" />
<rect x="12.300" y="3.075" width="1.025" height="1.025" fill="#1c1c1c" />
<rect x="13.325" y="3.075" width="1.025" height="1.025" fill="#1c1c1c" />
<rect x="14.350" y="3.075" width="1.025" height="1.025" fill="#ca0813" />
<rect x="15.375" y="3.075" width="1.025" height="1.025" fill="#090909" />
<rect x="16.400" y="3.075" width="1.025" height="1.025" fill="#030303" />
<rect x="17.425" y="3.075" width="1.025" height="1.025" fill="#030303" />
<rect x="18.450" y="3.075" width="1.025" height="1.025" fill="#131313" />
<rect x="7.175" y="4.100" width="1.025" height="1.025" fill="#131313" />
<rect x="8.200" y="4.100" width="1.025" height="1.025" fill="#131313" />
<rect x="9.225" y="4.100" width="1.025" height="1.025" fill="#181818" />
<rect x="10.250" y="4.100" width="1.025" height="1.025" fill="#1c1c1c" />
<rect x="11.275" y="4.100" width="1.025" height="1.025" fill="#1c1c1c" />
<rect x="14.350" y="4.100" width="1.025" height="1.025" fill="#090909" />
<rect x="15.375" y="4.100" width="1.025" height="1.025" fill="#131313" />
<rect x="16.400" y="4.100" width="1.025" height="1.025" fill="#030303" />
<rect x="17.425" y="4.100" width="1.025" height="1.025" fill="#131313" />
<rect x="18.450" y="4.100" width="1.025" height="1.025" fill="#131313" />
<rect x="19.475" y="4.100" width="1.025" height="1.025" fill="#131313" />
<rect x="20.500" y="4.100" width="1.025" height="1.025" fill="#090909" />
<rect x="21.525" y="4.100" width="1.025" height="1.025" fill="#131313" />
<rect x="6.150" y="5.125" width="1.025" height="1.025" fill="#131313" />
<rect x="7.175" y="5.125" width="1.025" height="1.025" fill="#131313" />
<rect x="8.200" y="5.125" width="1.025" height="1.025" fill="#181818" />
<rect x="9.225" y="5.125" width="1.025" height="1.025" fill="#1c1c1c" />
<rect x="14.350" y="5.125" width="1.025" height="1.025" fill="#131313" />
<rect x="15.375" y="5.125" width="1.025" height="1.025" fill="#1c1c1c" />
<rect x="16.400" y="5.125" width="1.025" height="1.025" fill="#131313" />
<rect x="17.425" y="5.125" width="1.025" height="1.025" fill="#131313" />
<rect x="18.450" y="5.125" width="1.025" height="1.025" fill="#090909" />
<rect x="19.475" y="5.125" width="1.025" height="1.025" fill="#131313" />
<rect x="20.500" y="5.125" width="1.025" height="1.025" fill="#131313" />
<rect x="21.525" y="5.125" width="1.025" height="1.025" fill="#131313" />
<rect x="22.550" y="5.125" width="1.025" height="1.025" fill="#030303" />
<rect x="5.125" y="6.150" width="1.025" height="1.025" fill="#000000" />
<rect x="6.150" y="6.150" width="1.025" height="1.025" fill="#131313" />
<rect x="7.175" y="6.150" width="1.025" height="1.025" fill="#1c1c1c" />
<rect x="13.325" y="6.150" width="1.025" height="1.025" fill="#030303" />
<rect x="14.350" y="6.150" width="1.025" height="1.025" fill="#030303" />
<rect x="15.375" y="6.150" width="1.025" height="1.025" fill="#090909" />
<rect x="16.400" y="6.150" width="1.025" height="1.025" fill="#131313" />
<rect x="17.425" y="6.150" width="1.025" height="1.025" fill="#090909" />
<rect x="18.450" y="6.150" width="1.025" height="1.025" fill="#131313" />
<rect x="19.475" y="6.150" width="1.025" height="1.025" fill="#131313" />
<rect x="20.500" y="6.150" width="1.025" height="1.025" fill="#090909" />
<rect x="21.525" y="6.150" width="1.025" height="1.025" fill="#1c1c1c" />
<rect x="22.550" y="6.150" width="1.025" height="1.025" fill="#131313" />
<rect x="23.575" y="6.150" width="1.025" height="1.025" fill="#090909" />
<rect x="5.125" y="7.175" width="1.025" height="1.025" fill="#000000" />
<rect x="6.150" y="7.175" width="1.025" height="1.025" fill="#131313" />
<rect x="13.325" y="7.175" width="1.025" height="1.025" fill="#030303" />
<rect x="14.350" y="7.175" width="1.025" height="1.025" fill="#1c1c1c" />
<rect x="15.375" y="7.175" width="1.025" height="1.025" fill="#1c1c1c" />
<rect x="16.400" y="7.175" width="1.025" height="1.025" fill="#1c1c1c" />
<rect x="17.425" y="7.175" width="1.025" height="1.025" fill="#090909" />
<rect x="18.450" y="7.175" width="1.025" height="1.025" fill="#030303" />
<rect x="19.475" y="7.175" width="1.025" height="1.025" fill="#030303" />
<rect x="20.500" y="7.175" width="1.025" height="1.025" fill="#1c1c1c" />
<rect x="21.525" y="7.175" width="1.025" height="1.025" fill="#090909" />
<rect x="22.550" y="7.175" width="1.025" height="1.025" fill="#1c1c1c" />
<rect x="23.575" y="7.175" width="1.025" height="1.025" fill="#131313" />
<rect x="24.600" y="7.175" width="1.025" height="1.025" fill="#090909" />
<rect x="5.125" y="8.200" width="1.025" height="1.025" fill="#131313" />
<rect x="6.150" y="8.200" width="1.025" height="1.025" fill="#131313" />
<rect x="12.300" y="8.200" width="1.025" height="1.025" fill="#1c1c1c" fill-opacity="0.600" />
<rect x="13.325" y="8.200" width="1.025" height="1.025" fill="#090909" />
<rect x="14.350" y="8.200" width="1.025" height="1.025" fill="#090909" />
<rect x="15.375" y="8.200" width="1.025" height="1.025" fill="#090909" />
<rect x="23.575" y="8.200" width="1.025" height="1.025" fill="#090909" />
<rect x="24.600" y="8.200" width="1.025" height="1.025" fill="#131313" />
<rect x="4.100" y="9.225" width="1.025" height="1.025" fill="#000000" />
<rect x="5.125" y="9.225" width="1.025" height="1.025" fill="#000000" />
<rect x="6.150" y="9.225" width="1.025" height="1.025" fill="#131313" />
<rect x="12.300" y="9.225" width="1.025" height="1.025" fill="#090909" fill-opacity="0.361" />
<rect x="13.325" y="9.225" width="1.025" height="1.025" fill="#131313" fill-opacity="0.361" />
<rect x="14.350" y="9.225" width="1.025" height="1.025" fill="#090909" fill-opacity="0.361" />
<rect x="24.600" y="9.225" width="1.025" height="1.025" fill="#131313" />
<rect x="4.100" y="10.250" width="1.025" height="1.025" fill="#000000" />
<rect x="5.125" y="10.250" width="1.025" height="1.025" fill="#000000" />
<rect x="6.150" y="10.250" width="1.025" height="1.025" fill="#131313" />
<rect x="7.175" y="10.250" width="1.025" height="1.025" fill="#1c1c1c" />
<rect x="12.300" y="10.250" width="1.025" height="1.025" fill="#131313" fill-opacity="0.361" />
<rect x="13.325" y="10.250" width="1.025" height="1.025" fill="#131313" fill-opacity="0.361" />
<rect x="27.675" y="10.250" width="1.025" height="1.025" fill="#131313" />
<rect x="28.700" y="10.250" width="1.025" height="1.025" fill="#131313" />
<rect x="29.725" y="10.250" width="1.025" height="1.025" fill="#131313" />
<rect x="5.125" y="11.275" width="1.025" height="1.025" fill="#000000" />
<rect x="6.150" y="11.275" width="1.025" height="1.025" fill="#000000" />
<rect x="7.175" y="11.275" width="1.025" height="1.025" fill="#131313" />
<rect x="8.200" y="11.275" width="1.025" height="1.025" fill="#1c1c1c" />
<rect x="9.225" y="11.275" width="1.025" height="1.025" fill="#1c1c1c" />
<rect x="24.600" y="11.275" width="1.025" height="1.025" fill="#000000" />
<rect x="25.625" y="11.275" width="1.025" height="1.025" fill="#131313" />
<rect x="26.650" y="11.275" width="1.025" height="1.025" fill="#131313" />
<rect x="27.675" y="11.275" width="1.025" height="1.025" fill="#131313" />
<rect x="28.700" y="11.275" width="1.025" height="1.025" fill="#131313" />
<rect x="29.725" y="11.275" width="1.025" height="1.025" fill="#1c1c1c" />
<rect x="30.750" y="11.275" width="1.025" height="1.025" fill="#131313" />
<rect x="31.775" y="11.275" width="1.025" height="1.025" fill="#131313" />
<rect x="6.150" y="12.300" width="1.025" height="1.025" fill="#000000" />
<rect x="7.175" y="12.300" width="1.025" height="1.025" fill="#000000" />
<rect x="8.200" y="12.300" width="1.025" height="1.025" fill="#131313" />
<rect x="9.225" y="12.300" width="1.025" height="1.025" fill="#131313" />
<rect x="10.250" y="12.300" width="1.025" height="1.025" fill="#1c1c1c" />
<rect x="11.275" y="12.300" width="1.025" height="1.025" fill="#000000" />
<rect x="24.600" y="12.300" width="1.025" height="1.025" fill="#000000" />
<rect x="25.625" y="12.300" width="1.025" height="1.025" fill="#000000" />
<rect x="26.650" y="12.300" width="1.025" height="1.025" fill="#1c1c1c" />
<rect x="30.750" y="12.300" width="1.025" height="1.025" fill="#1c1c1c" />
<rect x="31.775" y="12.300" width="1.025" height="1.025" fill="#1c1c1c" />
<rect x="32.800" y="12.300" width="1.025" height="1.025" fill="#131313" />
<rect x="9.225" y="13.325" width="1.025" height="1.025" fill="#131313" />
<rect x="10.250" y="13.325" width="1.025" height="1.025" fill="#131313" />
<rect x="11.275" y="13.325" width="1.025" height="1.025" fill="#000000" />
<rect x="31.775" y="13.325" width="1.025" height="1.025" fill="#1c1c1c" />
<rect x="32.800" y="13.325" width="1.025" height="1.025" fill="#1c1c1c" />
<rect x="33.825" y="13.325" width="1.025" height="1.025" fill="#131313" />
<rect x="32.800" y="14.350" width="1.025" height="1.025" fill="#1c1c1c" />
<rect x="33.825" y="14.350" width="1.025" height="1.025" fill="#1c1c1c" />
<rect x="34.850" y="14.350" width="1.025" height="1.025" fill="#131313" />
<rect x="33.825" y="15.375" width="1.025" height="1.025" fill="#1c1c1c" />
<rect x="34.850" y="15.375" width="1.025" height="1.025" fill="#131313" />
<rect x="35.875" y="15.375" width="1.025" height="1.025" fill="#131313" />
<rect x="34.850" y="16.400" width="1.025" height="1.025" fill="#1c1c1c" />
<rect x="35.875" y="16.400" width="1.025" height="1.025" fill="#131313" />
<rect x="34.850" y="17.425" width="1.025" height="1.025" fill="#1c1c1c" />
<rect x="35.875" y="17.425" width="1.025" height="1.025" fill="#131313" />
<rect x="34.850" y="18.450" width="1.025" height="1.025" fill="#1c1c1c" />
<rect x="35.875" y="18.450" width="1.025" height="1.025" fill="#131313" />
<rect x="34.850" y="19.475" width="1.025" height="1.025" fill="#1c1c1c" />
<rect x="35.875" y="19.475" width="1.025" height="1.025" fill="#131313" />
<rect x="34.850" y="20.500" width="1.025" height="1.025" fill="#1c1c1c" />
<rect x="35.875" y="20.500" width="1.025" height="1.025" fill="#131313" />
<rect x="34.850" y="21.525" width="1.025" height="1.025" fill="#1c1c1c" />
<rect x="35.875" y="21.525" width="1.025" height="1.025" fill="#000000" />
<rect x="33.825" y="22.550" width="1.025" height="1.025" fill="#1c1c1c" />
<rect x="34.850" y="22.550" width="1.025" height="1.025" fill="#131313" />
<rect x="32.800" y="23.575" width="1.025" height="1.025" fill="#1c1c1c" />
<rect x="33.825" y="23.575" width="1.025" height="1.025" fill="#131313" />
<rect x="34.850" y="23.575" width="1.025" height="1.025" fill="#000000" />
<rect x="31.775" y="24.600" width="1.025" height="1.025" fill="#1c1c1c" />
<rect x="32.800" y="24.600" width="1.025" height="1.025" fill="#1c1c1c" />
<rect x="33.825" y="24.600" width="1.025" height="1.025" fill="#000000" />
<rect x="10.250" y="25.625" width="1.025" height="1.025" fill="#1c1c1c" />
<rect x="11.275" y="25.625" width="1.025" height="1.025" fill="#1c1c1c" />
<rect x="12.300" y="25.625" width="1.025" height="1.025" fill="#1c1c1c" />
<rect x="28.700" y="25.625" width="1.025" height="1.025" fill="#1c1c1c" />
<rect x="29.725" y="25.625" width="1.025" height="1.025" fill="#1c1c1c" />
<rect x="30.750" y="25.625" width="1.025" height="1.025" fill="#1c1c1c" />
<rect x="31.775" y="25.625" width="1.025" height="1.025" fill="#131313" />
<rect x="32.800" y="25.625" width="1.025" height="1.025" fill="#000000" />
<rect x="5.125" y="26.650" width="1.025" height="1.025" fill="#1c1c1c" />
<rect x="6.150" y="26.650" width="1.025" height="1.025" fill="#131313" />
<rect x="7.175" y="26.650" width="1.025" height="1.025" fill="#131313" />
<rect x="8.200" y="26.650" width="1.025" height="1.025" fill="#131313" />
<rect x="9.225" y="26.650" width="1.025" height="1.025" fill="#131313" />
<rect x="10.250" y="26.650" width="1.025" height="1.025" fill="#131313" />
<rect x="11.275" y="26.650" width="1.025" height="1.025" fill="#131313" />
<rect x="12.300" y="26.650" width="1.025" height="1.025" fill="#131313" />
<rect x="13.325" y="26.650" width="1.025" height="1.025" fill="#131313" />
<rect x="14.350" y="26.650" width="1.025" height="1.025" fill="#131313" />
<rect x="15.375" y="26.650" width="1.025" height="1.025" fill="#1c1c1c" />
<rect x="23.575" y="26.650" width="1.025" height="1.025" fill="#1c1c1c" />
<rect x="24.600" y="26.650" width="1.025" height="1.025" fill="#1c1c1c" />
<rect x="25.625" y="26.650" width="1.025" height="1.025" fill="#1c1c1c" />
<rect x="26.650" y="26.650" width="1.025" height="1.025" fill="#1c1c1c" />
<rect x="27.675" y="26.650" width="1.025" height="1.025" fill="#1c1c1c" />
<rect x="28.700" y="26.650" width="1.025" height="1.025" fill="#131313" />
<rect x="29.725" y="26.650" width="1.025" height="1.025" fill="#131313" />
<rect x="30.750" y="26.650" width="1.025" height="1.025" fill="#131313" />
<rect x="31.775" y="26.650" width="1.025" height="1.025" fill="#000000" />
<rect x="3.075" y="27.675" width="1.025" height="1.025" fill="#1c1c1c" />
<rect x="4.100" y="27.675" width="1.025" height="1.025" fill="#131313" />
<rect x="5.125" y="27.675" width="1.025" height="1.025" fill="#131313" />
<rect x="6.150" y="27.675" width="1.025" height="1.025" fill="#131313" />
<rect x="7.175" y="27.675" width="1.025" height="1.025" fill="#131313" />
<rect x="8.200" y="27.675" width="1.025" height="1.025" fill="#131313" />
<rect x="13.325" y="27.675" width="1.025" height="1.025" fill="#131313" />
<rect x="14.350" y="27.675" width="1.025" height="1.025" fill="#131313" />
<rect x="15.375" y="27.675" width="1.025" height="1.025" fill="#131313" />
<rect x="16.400" y="27.675" width="1.025" height="1.025" fill="#131313" />
<rect x="17.425" y="27.675" width="1.025" height="1.025" fill="#131313" />
<rect x="18.450" y="27.675" width="1.025" height="1.025" fill="#1c1c1c" />
<rect x="19.475" y="27.675" width="1.025" height="1.025" fill="#1c1c1c" />
<rect x="20.500" y="27.675" width="1.025" height="1.025" fill="#1c1c1c" />
<rect x="21.525" y="27.675" width="1.025" height="1.025" fill="#1c1c1c" />
<rect x="22.550" y="27.675" width="1.025" height="1.025" fill="#1c1c1c" />
<rect x="23.575" y="27.675" width="1.025" height="1.025" fill="#1c1c1c" />
<rect x="24.600" y="27.675" width="1.025" height="1.025" fill="#131313" />
<rect x="25.625" y="27.675" width="1.025" height="1.025" fill="#131313" />
<rect x="26.650" y="27.675" width="1.025" height="1.025" fill="#131313" />
<rect x="27.675" y="27.675" width="1.025" height="1.025" fill="#131313" />
<rect x="28.700" y="27.675" width="1.025" height="1.025" fill="#131313" />
<rect x="2.050" y="28.700" width="1.025" height="1.025" fill="#131313" />
<rect x="3.075" y="28.700" width="1.025" height="1.025" fill="#131313" />
<rect x="16.400" y="28.700" width="1.025" height="1.025" fill="#000000" />
<rect x="17.425" y="28.700" width="1.025" height="1.025" fill="#000000" />
<rect x="18.450" y="28.700" width="1.025" height="1.025" fill="#000000" />
<rect x="19.475" y="28.700" width="1.025" height="1.025" fill="#000000" />
<rect x="20.500" y="28.700" width="1.025" height="1.025" fill="#000000" />
<rect x="21.525" y="28.700" width="1.025" height="1.025" fill="#000000" />
<rect x="22.550" y="28.700" width="1.025" height="1.025" fill="#131313" />
<rect x="23.575" y="28.700" width="1.025" height="1.025" fill="#131313" />
<rect x="24.600" y="28.700" width="1.025" height="1.025" fill="#131313" />
<rect x="2.050" y="29.725" width="1.025" height="1.025" fill="#131313" />
<rect x="3.075" y="30.750" width="1.025" height="1.025" fill="#131313" />
<rect x="4.100" y="30.750" width="1.025" height="1.025" fill="#e30613" fill-opacity="0.941" />
<rect x="3.075" y="31.775" width="1.025" height="1.025" fill="#e30613" fill-opacity="0.941" />
<rect x="4.100" y="31.775" width="1.025" height="1.025" fill="#000000" />
<rect x="4.100" y="32.800" width="1.025" height="1.025" fill="#131313" fill-opacity="0.878" />
<rect x="3.075" y="33.825" width="1.025" height="1.025" fill="#131313" />
</svg>