<svg xmlns="http://www.w3.org/2000/svg" width="37.925" height="37.925" shape-rendering="crispEdges" style="image-rendering: pixelated;">
<rect x="25.625" y="1.025" width="1.025" height="1.025" fill="#480022" />
<rect x="12.300" y="2.050" width="1.025" height="1.025" fill="#910056" />
<rect x="13.325" y="2.050" width="1.025" height="1.025" fill="#480022" />
<rect x="24.600" y="2.050" width="1.025" height="1.025" fill="#c00078" />
<rect x="25.625" y="2.050" width="1.025" height="1.025" fill="#910056" />
<rect x="12.300" y="3.075" width="1.025" height="1.025" fill="#910056" />
<rect x="13.325" y="3.075" width="1.025" height="1.025" fill="#df0091" />
<rect x="14.350" y="3.075" width="1.025" height="1.025" fill="#a80069" />
<rect x="15.375" y="3.075" width="1.025" height="1.025" fill="#910056" />
<rect x="23.575" y="3.075" width="1.025" height="1.025" fill="#c00078" />
<rect x="24.600" y="3.075" width="1.025" height="1.025" fill="#ff00d1" />
<rect x="25.625" y="3.075" width="1.025" height="1.025" fill="#910056" />
<rect x="12.300" y="4.100" width="1.025" height="1.025" fill="#910056" />
<rect x="13.325" y="4.100" width="1.025" height="1.025" fill="#ff00ff" />
<rect x="14.350" y="4.100" width="1.025" height="1.025" fill="#ff00ff" />
<rect x="15.375" y="4.100" width="1.025" height="1.025" fill="#df0091" />
<rect x="16.400" y="4.100" width="1.025" height="1.025" fill="#480022" />
<rect x="17.425" y="4.100" width="1.025" height="1.025" fill="#480022" />
<rect x="18.450" y="4.100" width="1.025" height="1.025" fill="#690039" />
<rect x="19.475" y="4.100" width="1.025" height="1.025" fill="#690039" />
<rect x="20.500" y="4.100" width="1.025" height="1.025" fill="#690039" />
<rect x="21.525" y="4.100" width="1.025" height="1.025" fill="#910056" />
<rect x="22.550" y="4.100" width="1.025" height="1.025" fill="#c00078" />
<rect x="23.575" y="4.100" width="1.025" height="1.025" fill="#ff00d1" />
<rect x="24.600" y="4.100" width="1.025" height="1.025" fill="#ff00d1" />
<rect x="25.625" y="4.100" width="1.025" height="1.025" fill="#f600e3" />
<rect x="12.300" y="5.125" width="1.025" height="1.025" fill="#480022" />
<rect x="13.325" y="5.125" width="1.025" height="1.025" fill="#ff00b5" />
<rect x="14.350" y="5.125" width="1.025" height="1.025" fill="#ff00ff" />
<rect x="15.375" y="5.125" width="1.025" height="1.025" fill="#ff00ff" />
<rect x="16.400" y="5.125" width="1.025" height="1.025" fill="#fc00a8" />
<rect x="17.425" y="5.125" width="1.025" height="1.025" fill="#ff00c0" />
<rect x="18.450" y="5.125" width="1.025" height="1.025" fill="#ff00ce" />
<rect x="19.475" y="5.125" width="1.025" height="1.025" fill="#ff00d3" />
<rect x="20.500" y="5.125" width="1.025" height="1.025" fill="#ff00d7" />
<rect x="21.525" y="5.125" width="1.025" height="1.025" fill="#ff00dc" />
<rect x="22.550" y="5.125" width="1.025" height="1.025" fill="#ff00d1" />
<rect x="23.575" y="5.125" width="1.025" height="1.025" fill="#df0091" />
<rect x="24.600" y="5.125" width="1.025" height="1.025" fill="#ff00d1" />
<rect x="25.625" y="5.125" width="1.025" height="1.025" fill="#ff00ff" />
<rect x="12.300" y="6.150" width="1.025" height="1.025" fill="#a80069" />
<rect x="13.325" y="6.150" width="1.025" height="1.025" fill="#ff00b5" />
<rect x="14.350" y="6.150" width="1.025" height="1.025" fill="#c5ffff" />
<rect x="15.375" y="6.150" width="1.025" height="1.025" fill="#ff00b5" />
<rect x="16.400" y="6.150" width="1.025" height="1.025" fill="#ff00c3" />
<rect x="17.425" y="6.150" width="1.025" height="1.025" fill="#000000" />
<rect x="18.450" y="6.150" width="1.025" height="1.025" fill="#ffffff" />
<rect x="19.475" y="6.150" width="1.025" height="1.025" fill="#ff00ff" />
<rect x="20.500" y="6.150" width="1.025" height="1.025" fill="#ff00ff" />
<rect x="21.525" y="6.150" width="1.025" height="1.025" fill="#ff00ff" />
<rect x="22.550" y="6.150" width="1.025" height="1.025" fill="#000000" />
<rect x="23.575" y="6.150" width="1.025" height="1.025" fill="#ffffff" />
<rect x="24.600" y="6.150" width="1.025" height="1.025" fill="#df0091" />
<rect x="25.625" y="6.150" width="1.025" height="1.025" fill="#c00078" />
<rect x="26.650" y="6.150" width="1.025" height="1.025" fill="#65ffff" />
<rect x="27.675" y="6.150" width="1.025" height="1.025" fill="#c5ffff" />
<rect x="11.275" y="7.175" width="1.025" height="1.025" fill="#910056" />
<rect x="12.300" y="7.175" width="1.025" height="1.025" fill="#a80069" />
<rect x="13.325" y="7.175" width="1.025" height="1.025" fill="#ff00b5" />
<rect x="14.350" y="7.175" width="1.025" height="1.025" fill="#ff00ba" />
<rect x="15.375" y="7.175" width="1.025" height="1.025" fill="#65ffff" />
<rect x="16.400" y="7.175" width="1.025" height="1.025" fill="#00ffff" />
<rect x="17.425" y="7.175" width="1.025" height="1.025" fill="#ffc3ff" />
<rect x="18.450" y="7.175" width="1.025" height="1.025" fill="#ffffff" />
<rect x="19.475" y="7.175" width="1.025" height="1.025" fill="#ff00ff" />
<rect x="20.500" y="7.175" width="1.025" height="1.025" fill="#ff00ff" />
<rect x="21.525" y="7.175" width="1.025" height="1.025" fill="#ff00ff" />
<rect x="22.550" y="7.175" width="1.025" height="1.025" fill="#ffffff" />
<rect x="23.575" y="7.175" width="1.025" height="1.025" fill="#ffffff" />
<rect x="24.600" y="7.175" width="1.025" height="1.025" fill="#00ffff" />
<rect x="25.625" y="7.175" width="1.025" height="1.025" fill="#00ffff" />
<rect x="11.275" y="8.200" width="1.025" height="1.025" fill="#910056" />
<rect x="12.300" y="8.200" width="1.025" height="1.025" fill="#a80069" />
<rect x="13.325" y="8.200" width="1.025" height="1.025" fill="#f600a2" />
<rect x="14.350" y="8.200" width="1.025" height="1.025" fill="#ff00ba" />
<rect x="15.375" y="8.200" width="1.025" height="1.025" fill="#ff00cc" />
<rect x="16.400" y="8.200" width="1.025" height="1.025" fill="#ff00c9" />
<rect x="17.425" y="8.200" width="1.025" height="1.025" fill="#ff00c9" />
<rect x="18.450" y="8.200" width="1.025" height="1.025" fill="#ff00c9" />
<rect x="19.475" y="8.200" width="1.025" height="1.025" fill="#a1ffff" />
<rect x="20.500" y="8.200" width="1.025" height="1.025" fill="#000000" />
<rect x="21.525" y="8.200" width="1.025" height="1.025" fill="#000000" />
<rect x="22.550" y="8.200" width="1.025" height="1.025" fill="#000000" />
<rect x="23.575" y="8.200" width="1.025" height="1.025" fill="#00ffff" />
<rect x="24.600" y="8.200" width="1.025" height="1.025" fill="#ff00dd" />
<rect x="25.625" y="8.200" width="1.025" height="1.025" fill="#df0091" />
<rect x="11.275" y="9.225" width="1.025" height="1.025" fill="#690039" />
<rect x="12.300" y="9.225" width="1.025" height="1.025" fill="#a80069" />
<rect x="13.325" y="9.225" width="1.025" height="1.025" fill="#f600a2" />
<rect x="14.350" y="9.225" width="1.025" height="1.025" fill="#c5ffff" />
<rect x="15.375" y="9.225" width="1.025" height="1.025" fill="#a1ffff" />
<rect x="16.400" y="9.225" width="1.025" height="1.025" fill="#00ffff" />
<rect x="17.425" y="9.225" width="1.025" height="1.025" fill="#00ffff" />
<rect x="18.450" y="9.225" width="1.025" height="1.025" fill="#00ffff" />
<rect x="19.475" y="9.225" width="1.025" height="1.025" fill="#00ffff" />
<rect x="20.500" y="9.225" width="1.025" height="1.025" fill="#ff00f6" />
<rect x="21.525" y="9.225" width="1.025" height="1.025" fill="#000000" />
<rect x="22.550" y="9.225" width="1.025" height="1.025" fill="#ff00fc" />
<rect x="23.575" y="9.225" width="1.025" height="1.025" fill="#ff00f9" />
<rect x="24.600" y="9.225" width="1.025" height="1.025" fill="#00ffff" />
<rect x="25.625" y="9.225" width="1.025" height="1.025" fill="#00ffff" />
<rect x="26.650" y="9.225" width="1.025" height="1.025" fill="#a1ffff" />
<rect x="28.700" y="9.225" width="1.025" height="1.025" fill="#65ffff" />
<rect x="10.250" y="10.250" width="1.025" height="1.025" fill="#910056" />
<rect x="11.275" y="10.250" width="1.025" height="1.025" fill="#7c004a" />
<rect x="12.300" y="10.250" width="1.025" height="1.025" fill="#a80069" />
<rect x="13.325" y="10.250" width="1.025" height="1.025" fill="#ff00ad" />
<rect x="14.350" y="10.250" width="1.025" height="1.025" fill="#ff00bd" />
<rect x="15.375" y="10.250" width="1.025" height="1.025" fill="#ff00c9" />
<rect x="16.400" y="10.250" width="1.025" height="1.025" fill="#a80069" />
<rect x="17.425" y="10.250" width="1.025" height="1.025" fill="#a80069" />
<rect x="18.450" y="10.250" width="1.025" height="1.025" fill="#7c004a" />
<rect x="19.475" y="10.250" width="1.025" height="1.025" fill="#7c004a" />
<rect x="20.500" y="10.250" width="1.025" height="1.025" fill="#7c004a" />
<rect x="21.525" y="10.250" width="1.025" height="1.025" fill="#7c004a" />
<rect x="22.550" y="10.250" width="1.025" height="1.025" fill="#7c004a" />
<rect x="23.575" y="10.250" width="1.025" height="1.025" fill="#7c004a" />
<rect x="24.600" y="10.250" width="1.025" height="1.025" fill="#7c004a" />
<rect x="25.625" y="10.250" width="1.025" height="1.025" fill="#7c004a" />
<rect x="26.650" y="10.250" width="1.025" height="1.025" fill="#59002f" />
<rect x="10.250" y="11.275" width="1.025" height="1.025" fill="#690039" />
<rect x="11.275" y="11.275" width="1.025" height="1.025" fill="#a80069" />
<rect x="12.300" y="11.275" width="1.025" height="1.025" fill="#df0091" />
<rect x="13.325" y="11.275" width="1.025" height="1.025" fill="#f0009e" />
<rect x="14.350" y="11.275" width="1.025" height="1.025" fill="#df0091" />
<rect x="15.375" y="11.275" width="1.025" height="1.025" fill="#7c004a" />
<rect x="16.400" y="11.275" width="1.025" height="1.025" fill="#ff00d6" />
<rect x="17.425" y="11.275" width="1.025" height="1.025" fill="#ff00d6" />
<rect x="18.450" y="11.275" width="1.025" height="1.025" fill="#ff00d3" />
<rect x="19.475" y="11.275" width="1.025" height="1.025" fill="#ff00dd" />
<rect x="20.500" y="11.275" width="1.025" height="1.025" fill="#ff00dc" />
<rect x="21.525" y="11.275" width="1.025" height="1.025" fill="#ff00e0" />
<rect x="22.550" y="11.275" width="1.025" height="1.025" fill="#ff00dd" />
<rect x="23.575" y="11.275" width="1.025" height="1.025" fill="#ff00f3" />
<rect x="24.600" y="11.275" width="1.025" height="1.025" fill="#ff00f0" />
<rect x="25.625" y="11.275" width="1.025" height="1.025" fill="#ff00f0" />
<rect x="26.650" y="11.275" width="1.025" height="1.025" fill="#ff00d3" />
<rect x="27.675" y="11.275" width="1.025" height="1.025" fill="#a80069" />
<rect x="10.250" y="12.300" width="1.025" height="1.025" fill="#2f000e" />
<rect x="11.275" y="12.300" width="1.025" height="1.025" fill="#ba0078" />
<rect x="12.300" y="12.300" width="1.025" height="1.025" fill="#ff00af" />
<rect x="13.325" y="12.300" width="1.025" height="1.025" fill="#ff00af" />
<rect x="14.350" y="12.300" width="1.025" height="1.025" fill="#ff00c0" />
<rect x="15.375" y="12.300" width="1.025" height="1.025" fill="#ff00c9" />
<rect x="16.400" y="12.300" width="1.025" height="1.025" fill="#c00078" />
<rect x="17.425" y="12.300" width="1.025" height="1.025" fill="#c00078" />
<rect x="18.450" y="12.300" width="1.025" height="1.025" fill="#910056" />
<rect x="19.475" y="12.300" width="1.025" height="1.025" fill="#910056" />
<rect x="20.500" y="12.300" width="1.025" height="1.025" fill="#910056" />
<rect x="21.525" y="12.300" width="1.025" height="1.025" fill="#910056" />
<rect x="22.550" y="12.300" width="1.025" height="1.025" fill="#910056" />
<rect x="23.575" y="12.300" width="1.025" height="1.025" fill="#910056" />
<rect x="24.600" y="12.300" width="1.025" height="1.025" fill="#910056" />
<rect x="25.625" y="12.300" width="1.025" height="1.025" fill="#910056" />
<rect x="26.650" y="12.300" width="1.025" height="1.025" fill="#910056" />
<rect x="8.200" y="13.325" width="1.025" height="1.025" fill="#480022" />
<rect x="9.225" y="13.325" width="1.025" height="1.025" fill="#690039" />
<rect x="10.250" y="13.325" width="1.025" height="1.025" fill="#2f000e" />
<rect x="11.275" y="13.325" width="1.025" height="1.025" fill="#2f000e" />
<rect x="12.300" y="13.325" width="1.025" height="1.025" fill="#480022" />
<rect x="13.325" y="13.325" width="1.025" height="1.025" fill="#480022" />
<rect x="14.350" y="13.325" width="1.025" height="1.025" fill="#480022" />
<rect x="15.375" y="13.325" width="1.025" height="1.025" fill="#480022" />
<rect x="25.625" y="13.325" width="1.025" height="1.025" fill="#910056" />
<rect x="26.650" y="13.325" width="1.025" height="1.025" fill="#480022" />
<rect x="8.200" y="14.350" width="1.025" height="1.025" fill="#c00078" />
<rect x="9.225" y="14.350" width="1.025" height="1.025" fill="#00ffff" />
<rect x="10.250" y="14.350" width="1.025" height="1.025" fill="#ff00af" />
<rect x="11.275" y="14.350" width="1.025" height="1.025" fill="#00ffff" />
<rect x="12.300" y="14.350" width="1.025" height="1.025" fill="#ff00bd" />
<rect x="13.325" y="14.350" width="1.025" height="1.025" fill="#690039" />
<rect x="14.350" y="14.350" width="1.025" height="1.025" fill="#690039" />
<rect x="25.625" y="14.350" width="1.025" height="1.025" fill="#8df0ff" />
<rect x="26.650" y="14.350" width="1.025" height="1.025" fill="#df0091" />
<rect x="27.675" y="14.350" width="1.025" height="1.025" fill="#690039" />
<rect x="8.200" y="15.375" width="1.025" height="1.025" fill="#df0091" />
<rect x="9.225" y="15.375" width="1.025" height="1.025" fill="#f600a2" />
<rect x="10.250" y="15.375" width="1.025" height="1.025" fill="#ff00af" />
<rect x="11.275" y="15.375" width="1.025" height="1.025" fill="#ff00c0" />
<rect x="12.300" y="15.375" width="1.025" height="1.025" fill="#ff00bd" />
<rect x="13.325" y="15.375" width="1.025" height="1.025" fill="#690039" />
<rect x="14.350" y="15.375" width="1.025" height="1.025" fill="#480022" />
<rect x="25.625" y="15.375" width="1.025" height="1.025" fill="#a80069" />
<rect x="26.650" y="15.375" width="1.025" height="1.025" fill="#a80069" />
<rect x="27.675" y="15.375" width="1.025" height="1.025" fill="#910056" />
<rect x="6.150" y="16.400" width="1.025" height="1.025" fill="#910056" />
<rect x="7.175" y="16.400" width="1.025" height="1.025" fill="#910056" />
<rect x="8.200" y="16.400" width="1.025" height="1.025" fill="#910056" />
<rect x="9.225" y="16.400" width="1.025" height="1.025" fill="#690039" />
<rect x="10.250" y="16.400" width="1.025" height="1.025" fill="#690039" />
<rect x="11.275" y="16.400" width="1.025" height="1.025" fill="#480022" />
<rect x="12.300" y="16.400" width="1.025" height="1.025" fill="#2f000e" />
<rect x="13.325" y="16.400" width="1.025" height="1.025" fill="#180000" />
<rect x="14.350" y="16.400" width="1.025" height="1.025" fill="#180000" />
<rect x="25.625" y="16.400" width="1.025" height="1.025" fill="#7c004a" />
<rect x="26.650" y="16.400" width="1.025" height="1.025" fill="#aad1fe" />
<rect x="27.675" y="16.400" width="1.025" height="1.025" fill="#df0091" />
<rect x="28.700" y="16.400" width="1.025" height="1.025" fill="#480022" />
<rect x="6.150" y="17.425" width="1.025" height="1.025" fill="#c00078" />
<rect x="7.175" y="17.425" width="1.025" height="1.025" fill="#00ffff" />
<rect x="8.200" y="17.425" width="1.025" height="1.025" fill="#ff00af" />
<rect x="9.225" y="17.425" width="1.025" height="1.025" fill="#00ffff" />
<rect x="10.250" y="17.425" width="1.025" height="1.025" fill="#ff00bd" />
<rect x="11.275" y="17.425" width="1.025" height="1.025" fill="#df0091" />
<rect x="12.300" y="17.425" width="1.025" height="1.025" fill="#690039" />
<rect x="13.325" y="17.425" width="1.025" height="1.025" fill="#690039" />
<rect x="14.350" y="17.425" width="1.025" height="1.025" fill="#480022" />
<rect x="25.625" y="17.425" width="1.025" height="1.025" fill="#a80069" />
<rect x="26.650" y="17.425" width="1.025" height="1.025" fill="#a80069" />
<rect x="27.675" y="17.425" width="1.025" height="1.025" fill="#df0091" />
<rect x="28.700" y="17.425" width="1.025" height="1.025" fill="#690039" />
<rect x="6.150" y="18.450" width="1.025" height="1.025" fill="#df0091" />
<rect x="7.175" y="18.450" width="1.025" height="1.025" fill="#f600a2" />
<rect x="8.200" y="18.450" width="1.025" height="1.025" fill="#ff00af" />
<rect x="9.225" y="18.450" width="1.025" height="1.025" fill="#ff00c0" />
<rect x="10.250" y="18.450" width="1.025" height="1.025" fill="#ff00bd" />
<rect x="11.275" y="18.450" width="1.025" height="1.025" fill="#df0091" />
<rect x="12.300" y="18.450" width="1.025" height="1.025" fill="#690039" />
<rect x="13.325" y="18.450" width="1.025" height="1.025" fill="#480022" />
<rect x="14.350" y="18.450" width="1.025" height="1.025" fill="#480022" />
<rect x="25.625" y="18.450" width="1.025" height="1.025" fill="#7c004a" />
<rect x="26.650" y="18.450" width="1.025" height="1.025" fill="#a80069" />
<rect x="27.675" y="18.450" width="1.025" height="1.025" fill="#8df0ff" />
<rect x="28.700" y="18.450" width="1.025" height="1.025" fill="#910056" />
<rect x="5.125" y="19.475" width="1.025" height="1.025" fill="#c00078" />
<rect x="6.150" y="19.475" width="1.025" height="1.025" fill="#910056" />
<rect x="7.175" y="19.475" width="1.025" height="1.025" fill="#910056" />
<rect x="8.200" y="19.475" width="1.025" height="1.025" fill="#910056" />
<rect x="9.225" y="19.475" width="1.025" height="1.025" fill="#910056" />
<rect x="10.250" y="19.475" width="1.025" height="1.025" fill="#690039" />
<rect x="11.275" y="19.475" width="1.025" height="1.025" fill="#7dffff" />
<rect x="12.300" y="19.475" width="1.025" height="1.025" fill="#690039" />
<rect x="13.325" y="19.475" width="1.025" height="1.025" fill="#480022" />
<rect x="14.350" y="19.475" width="1.025" height="1.025" fill="#000000" fill-opacity="0.200" />
<rect x="25.625" y="19.475" width="1.025" height="1.025" fill="#66b7dc" />
<rect x="26.650" y="19.475" width="1.025" height="1.025" fill="#df0091" />
<rect x="27.675" y="19.475" width="1.025" height="1.025" fill="#df0091" />
<rect x="28.700" y="19.475" width="1.025" height="1.025" fill="#c00078" />
<rect x="29.725" y="19.475" width="1.025" height="1.025" fill="#480022" />
<rect x="4.100" y="20.500" width="1.025" height="1.025" fill="#c00078" />
<rect x="5.125" y="20.500" width="1.025" height="1.025" fill="#00ffff" />
<rect x="6.150" y="20.500" width="1.025" height="1.025" fill="#ff00af" />
<rect x="7.175" y="20.500" width="1.025" height="1.025" fill="#00ffff" />
<rect x="8.200" y="20.500" width="1.025" height="1.025" fill="#ff00bd" />
<rect x="9.225" y="20.500" width="1.025" height="1.025" fill="#df0091" />
<rect x="10.250" y="20.500" width="1.025" height="1.025" fill="#c00078" />
<rect x="11.275" y="20.500" width="1.025" height="1.025" fill="#19cccc" />
<rect x="12.300" y="20.500" width="1.025" height="1.025" fill="#19cccc" />
<rect x="13.325" y="20.500" width="1.025" height="1.025" fill="#0dc9c9" />
<rect x="25.625" y="20.500" width="1.025" height="1.025" fill="#a80069" />
<rect x="26.650" y="20.500" width="1.025" height="1.025" fill="#43ffff" />
<rect x="27.675" y="20.500" width="1.025" height="1.025" fill="#df0091" />
<rect x="28.700" y="20.500" width="1.025" height="1.025" fill="#8df0ff" />
<rect x="29.725" y="20.500" width="1.025" height="1.025" fill="#690039" />
<rect x="4.100" y="21.525" width="1.025" height="1.025" fill="#c00078" />
<rect x="5.125" y="21.525" width="1.025" height="1.025" fill="#f600a2" />
<rect x="6.150" y="21.525" width="1.025" height="1.025" fill="#ff00af" />
<rect x="7.175" y="21.525" width="1.025" height="1.025" fill="#ff00c0" />
<rect x="8.200" y="21.525" width="1.025" height="1.025" fill="#ff00bd" />
<rect x="9.225" y="21.525" width="1.025" height="1.025" fill="#df0091" />
<rect x="10.250" y="21.525" width="1.025" height="1.025" fill="#c00078" />
<rect x="11.275" y="21.525" width="1.025" height="1.025" fill="#690039" />
<rect x="12.300" y="21.525" width="1.025" height="1.025" fill="#43ffff" />
<rect x="13.325" y="21.525" width="1.025" height="1.025" fill="#43ffff" />
<rect x="14.350" y="21.525" width="1.025" height="1.025" fill="#13ffff" />
<rect x="25.625" y="21.525" width="1.025" height="1.025" fill="#0dc9c9" />
<rect x="26.650" y="21.525" width="1.025" height="1.025" fill="#df0091" />
<rect x="27.675" y="21.525" width="1.025" height="1.025" fill="#df0091" />
<rect x="28.700" y="21.525" width="1.025" height="1.025" fill="#df0091" />
<rect x="29.725" y="21.525" width="1.025" height="1.025" fill="#910056" />
<rect x="4.100" y="22.550" width="1.025" height="1.025" fill="#c00078" />
<rect x="5.125" y="22.550" width="1.025" height="1.025" fill="#910056" />
<rect x="6.150" y="22.550" width="1.025" height="1.025" fill="#910056" />
<rect x="7.175" y="22.550" width="1.025" height="1.025" fill="#690039" />
<rect x="8.200" y="22.550" width="1.025" height="1.025" fill="#690039" />
<rect x="9.225" y="22.550" width="1.025" height="1.025" fill="#480022" />
<rect x="10.250" y="22.550" width="1.025" height="1.025" fill="#480022" />
<rect x="11.275" y="22.550" width="1.025" height="1.025" fill="#480022" />
<rect x="12.300" y="22.550" width="1.025" height="1.025" fill="#2f000e" />
<rect x="13.325" y="22.550" width="1.025" height="1.025" fill="#000000" fill-opacity="0.200" />
<rect x="14.350" y="22.550" width="1.025" height="1.025" fill="#19cccc" />
<rect x="15.375" y="22.550" width="1.025" height="1.025" fill="#0dc9c9" />
<rect x="25.625" y="22.550" width="1.025" height="1.025" fill="#7dffff" />
<rect x="26.650" y="22.550" width="1.025" height="1.025" fill="#ff00c0" />
<rect x="27.675" y="22.550" width="1.025" height="1.025" fill="#ff00c0" />
<rect x="28.700" y="22.550" width="1.025" height="1.025" fill="#df0091" />
<rect x="29.725" y="22.550" width="1.025" height="1.025" fill="#df0091" />
<rect x="30.750" y="22.550" width="1.025" height="1.025" fill="#910056" />
<rect x="8.200" y="23.575" width="1.025" height="1.025" fill="#df0091" />
<rect x="9.225" y="23.575" width="1.025" height="1.025" fill="#c00078" />
<rect x="10.250" y="23.575" width="1.025" height="1.025" fill="#690039" />
<rect x="11.275" y="23.575" width="1.025" height="1.025" fill="#690039" />
<rect x="12.300" y="23.575" width="1.025" height="1.025" fill="#480022" />
<rect x="14.350" y="23.575" width="1.025" height="1.025" fill="#43ffff" />
<rect x="15.375" y="23.575" width="1.025" height="1.025" fill="#43ffff" />
<rect x="16.400" y="23.575" width="1.025" height="1.025" fill="#7dffff" />
<rect x="17.425" y="23.575" width="1.025" height="1.025" fill="#43ffff" />
<rect x="23.575" y="23.575" width="1.025" height="1.025" fill="#000000" fill-opacity="0.592" />
<rect x="24.600" y="23.575" width="1.025" height="1.025" fill="#04c7c7" />
<rect x="25.625" y="23.575" width="1.025" height="1.025" fill="#13ffff" />
<rect x="16.400" y="24.600" width="1.025" height="1.025" fill="#0dc9c9" />
<rect x="17.425" y="24.600" width="1.025" height="1.025" fill="#43ffff" />
<rect x="18.450" y="24.600" width="1.025" height="1.025" fill="#0dc9c9" />
<rect x="22.550" y="24.600" width="1.025" height="1.025" fill="#43ffff" />
<rect x="23.575" y="24.600" width="1.025" height="1.025" fill="#7dffff" />
<rect x="24.600" y="24.600" width="1.025" height="1.025" fill="#0dc9c9" />
<rect x="17.425" y="25.625" width="1.025" height="1.025" fill="#13ffff" />
<rect x="18.450" y="25.625" width="1.025" height="1.025" fill="#7dffff" />
<rect x="19.475" y="25.625" width="1.025" height="1.025" fill="#19cccc" />
<rect x="20.500" y="25.625" width="1.025" height="1.025" fill="#43ffff" />
<rect x="21.525" y="25.625" width="1.025" height="1.025" fill="#43ffff" />
<rect x="22.550" y="25.625" width="1.025" height="1.025" fill="#19cccc" />
<rect x="23.575" y="25.625" width="1.025" height="1.025" fill="#7dffff" />
<rect x="18.450" y="26.650" width="1.025" height="1.025" fill="#0dc9c9" />
<rect x="19.475" y="26.650" width="1.025" height="1.025" fill="#13ffff" />
<rect x="20.500" y="26.650" width="1.025" height="1.025" fill="#43ffff" />
<rect x="21.525" y="26.650" width="1.025" height="1.025" fill="#19cccc" />
<rect x="22.550" y="26.650" width="1.025" height="1.025" fill="#7dffff" />
<rect x="17.425" y="27.675" width="1.025" height="1.025" fill="#43ffff" />
<rect x="23.575" y="27.675" width="1.025" height="1.025" fill="#43ffff" />
<rect x="17.425" y="28.700" width="1.025" height="1.025" fill="#0dc9c9" />
<rect x="23.575" y="28.700" width="1.025" height="1.025" fill="#04c7c7" />
<rect x="17.425" y="29.725" width="1.025" height="1.025" fill="#43ffff" />
<rect x="23.575" y="29.725" width="1.025" height="1.025" fill="#43ffff" />
<rect x="16.400" y="30.750" width="1.025" height="1.025" fill="#7dffff" />
<rect x="24.600" y="30.750" width="1.025" height="1.025" fill="#7dffff" />
</svg>