<svg xmlns="http://www.w3.org/2000/svg" width="37.925" height="37.925" shape-rendering="crispEdges" style="image-rendering: pixelated;">
<rect x="16.400" y="0.000" width="1.025" height="1.025" fill="#b1b1b1" />
<rect x="17.425" y="0.000" width="1.025" height="1.025" fill="#c8c8c8" />
<rect x="18.450" y="0.000" width="1.025" height="1.025" fill="#b1b1b1" />
<rect x="19.475" y="0.000" width="1.025" height="1.025" fill="#c8c8c8" />
<rect x="20.500" y="0.000" width="1.025" height="1.025" fill="#b1b1b1" />
<rect x="21.525" y="0.000" width="1.025" height="1.025" fill="#b1b1b1" />
<rect x="15.375" y="1.025" width="1.025" height="1.025" fill="#c8c8c8" />
<rect x="16.400" y="1.025" width="1.025" height="1.025" fill="#e5e5e5" />
<rect x="17.425" y="1.025" width="1.025" height="1.025" fill="#c8c8c8" />
<rect x="18.450" y="1.025" width="1.025" height="1.025" fill="#e5e5e5" />
<rect x="19.475" y="1.025" width="1.025" height="1.025" fill="#c8c8c8" />
<rect x="20.500" y="1.025" width="1.025" height="1.025" fill="#e5e5e5" />
<rect x="21.525" y="1.025" width="1.025" height="1.025" fill="#e5e5e5" />
<rect x="15.375" y="2.050" width="1.025" height="1.025" fill="#b1b1b1" />
<rect x="16.400" y="2.050" width="1.025" height="1.025" fill="#c8c8c8" />
<rect x="17.425" y="2.050" width="1.025" height="1.025" fill="#b1b1b1" />
<rect x="18.450" y="2.050" width="1.025" height="1.025" fill="#c8c8c8" />
<rect x="19.475" y="2.050" width="1.025" height="1.025" fill="#b1b1b1" />
<rect x="15.375" y="3.075" width="1.025" height="1.025" fill="#e5e5e5" />
<rect x="16.400" y="3.075" width="1.025" height="1.025" fill="#c8c8c8" />
<rect x="17.425" y="3.075" width="1.025" height="1.025" fill="#e5e5e5" />
<rect x="18.450" y="3.075" width="1.025" height="1.025" fill="#c8c8c8" />
<rect x="15.375" y="4.100" width="1.025" height="1.025" fill="#f6f6f6" />
<rect x="16.400" y="4.100" width="1.025" height="1.025" fill="#c8c8c8" />
<rect x="17.425" y="4.100" width="1.025" height="1.025" fill="#e5e5e5" />
<rect x="15.375" y="5.125" width="1.025" height="1.025" fill="#141414" />
<rect x="16.400" y="5.125" width="1.025" height="1.025" fill="#b1b1b1" />
<rect x="17.425" y="5.125" width="1.025" height="1.025" fill="#000000" />
<rect x="15.375" y="6.150" width="1.025" height="1.025" fill="#e5e5e5" />
<rect x="16.400" y="6.150" width="1.025" height="1.025" fill="#030303" />
<rect x="17.425" y="6.150" width="1.025" height="1.025" fill="#141414" />
<rect x="13.325" y="7.175" width="1.025" height="1.025" fill="#e5e5e5" />
<rect x="24.600" y="8.200" width="1.025" height="1.025" fill="#c8c8c8" />
<rect x="11.275" y="9.225" width="1.025" height="1.025" fill="#e5e5e5" />
<rect x="12.300" y="9.225" width="1.025" height="1.025" fill="#c8c8c8" />
<rect x="13.325" y="9.225" width="1.025" height="1.025" fill="#c8c8c8" />
<rect x="24.600" y="9.225" width="1.025" height="1.025" fill="#e5e5e5" />
<rect x="25.625" y="9.225" width="1.025" height="1.025" fill="#c8c8c8" />
<rect x="10.250" y="10.250" width="1.025" height="1.025" fill="#c8c8c8" />
<rect x="11.275" y="10.250" width="1.025" height="1.025" fill="#c8c8c8" />
<rect x="12.300" y="10.250" width="1.025" height="1.025" fill="#e5e5e5" />
<rect x="13.325" y="10.250" width="1.025" height="1.025" fill="#b1b1b1" />
<rect x="14.350" y="10.250" width="1.025" height="1.025" fill="#c8c8c8" />
<rect x="24.600" y="10.250" width="1.025" height="1.025" fill="#e5e5e5" />
<rect x="25.625" y="10.250" width="1.025" height="1.025" fill="#e5e5e5" />
<rect x="26.650" y="10.250" width="1.025" height="1.025" fill="#c8c8c8" />
<rect x="10.250" y="11.275" width="1.025" height="1.025" fill="#f6f6f6" />
<rect x="11.275" y="11.275" width="1.025" height="1.025" fill="#f6f6f6" />
<rect x="12.300" y="11.275" width="1.025" height="1.025" fill="#b1b1b1" />
<rect x="13.325" y="11.275" width="1.025" height="1.025" fill="#e5e5e5" />
<rect x="24.600" y="11.275" width="1.025" height="1.025" fill="#c8c8c8" />
<rect x="25.625" y="11.275" width="1.025" height="1.025" fill="#b1b1b1" />
<rect x="26.650" y="11.275" width="1.025" height="1.025" fill="#e5e5e5" />
<rect x="10.250" y="12.300" width="1.025" height="1.025" fill="#f6f6f6" />
<rect x="11.275" y="12.300" width="1.025" height="1.025" fill="#f6f6f6" />
<rect x="12.300" y="12.300" width="1.025" height="1.025" fill="#c8c8c8" />
<rect x="13.325" y="12.300" width="1.025" height="1.025" fill="#b1b1b1" />
<rect x="25.625" y="12.300" width="1.025" height="1.025" fill="#e5e5e5" />
<rect x="26.650" y="12.300" width="1.025" height="1.025" fill="#c8c8c8" />
<rect x="11.275" y="13.325" width="1.025" height="1.025" fill="#c8c8c8" />
<rect x="25.625" y="13.325" width="1.025" height="1.025" fill="#b1b1b1" />
</svg>