<svg xmlns="http://www.w3.org/2000/svg" width="37.925" height="37.925" shape-rendering="crispEdges" style="image-rendering: pixelated;">
<rect x="12.300" y="8.200" width="1.025" height="1.025" fill="#656565" />
<rect x="13.325" y="8.200" width="1.025" height="1.025" fill="#b5b5b5" />
<rect x="14.350" y="8.200" width="1.025" height="1.025" fill="#ffffff" />
<rect x="15.375" y="8.200" width="1.025" height="1.025" fill="#e8e850" />
<rect x="16.400" y="8.200" width="1.025" height="1.025" fill="#efefef" />
<rect x="17.425" y="8.200" width="1.025" height="1.025" fill="#eded40" />
<rect x="18.450" y="8.200" width="1.025" height="1.025" fill="#f2f2f2" />
<rect x="19.475" y="8.200" width="1.025" height="1.025" fill="#ffff1f" />
<rect x="20.500" y="8.200" width="1.025" height="1.025" fill="#ffffff" />
<rect x="21.525" y="8.200" width="1.025" height="1.025" fill="#ffff52" />
<rect x="22.550" y="8.200" width="1.025" height="1.025" fill="#ffffff" />
<rect x="23.575" y="8.200" width="1.025" height="1.025" fill="#e7e761" />
<rect x="24.600" y="8.200" width="1.025" height="1.025" fill="#b1b1b1" />
<rect x="11.275" y="9.225" width="1.025" height="1.025" fill="#656565" />
<rect x="12.300" y="9.225" width="1.025" height="1.025" fill="#c6c650" />
<rect x="13.325" y="9.225" width="1.025" height="1.025" fill="#e6e6e6" />
<rect x="14.350" y="9.225" width="1.025" height="1.025" fill="#e8e8e8" />
<rect x="15.375" y="9.225" width="1.025" height="1.025" fill="#efefef" />
<rect x="16.400" y="9.225" width="1.025" height="1.025" fill="#ffffff" />
<rect x="17.425" y="9.225" width="1.025" height="1.025" fill="#ffffff" />
<rect x="18.450" y="9.225" width="1.025" height="1.025" fill="#ffffff" />
<rect x="19.475" y="9.225" width="1.025" height="1.025" fill="#ffffff" />
<rect x="20.500" y="9.225" width="1.025" height="1.025" fill="#ffffff" />
<rect x="21.525" y="9.225" width="1.025" height="1.025" fill="#ffffff" />
<rect x="22.550" y="9.225" width="1.025" height="1.025" fill="#ffffff" />
<rect x="23.575" y="9.225" width="1.025" height="1.025" fill="#ffffff" />
<rect x="24.600" y="9.225" width="1.025" height="1.025" fill="#ffffff" />
<rect x="25.625" y="9.225" width="1.025" height="1.025" fill="#c7c7c7" />
<rect x="11.275" y="10.250" width="1.025" height="1.025" fill="#949494" />
<rect x="12.300" y="10.250" width="1.025" height="1.025" fill="#e6e6e6" />
<rect x="13.325" y="10.250" width="1.025" height="1.025" fill="#e8e8e8" />
<rect x="14.350" y="10.250" width="1.025" height="1.025" fill="#f6f680" />
<rect x="15.375" y="10.250" width="1.025" height="1.025" fill="#ffffff" />
<rect x="16.400" y="10.250" width="1.025" height="1.025" fill="#ffff52" />
<rect x="17.425" y="10.250" width="1.025" height="1.025" fill="#ffffff" />
<rect x="18.450" y="10.250" width="1.025" height="1.025" fill="#ffff00" />
<rect x="19.475" y="10.250" width="1.025" height="1.025" fill="#ffffff" />
<rect x="20.500" y="10.250" width="1.025" height="1.025" fill="#ffff00" />
<rect x="21.525" y="10.250" width="1.025" height="1.025" fill="#ffffff" />
<rect x="22.550" y="10.250" width="1.025" height="1.025" fill="#ffff79" />
<rect x="23.575" y="10.250" width="1.025" height="1.025" fill="#ffffff" />
<rect x="24.600" y="10.250" width="1.025" height="1.025" fill="#e4e45e" />
<rect x="25.625" y="10.250" width="1.025" height="1.025" fill="#a4a4a4" />
<rect x="11.275" y="11.275" width="1.025" height="1.025" fill="#3e3e3e" />
<rect x="12.300" y="11.275" width="1.025" height="1.025" fill="#f6f65e" />
<rect x="13.325" y="11.275" width="1.025" height="1.025" fill="#e8e8e8" />
<rect x="14.350" y="11.275" width="1.025" height="1.025" fill="#e8e8e8" />
<rect x="15.375" y="11.275" width="1.025" height="1.025" fill="#e8e8e8" />
<rect x="16.400" y="11.275" width="1.025" height="1.025" fill="#ffffff" />
<rect x="17.425" y="11.275" width="1.025" height="1.025" fill="#ffffff" />
<rect x="18.450" y="11.275" width="1.025" height="1.025" fill="#ffffff" />
<rect x="19.475" y="11.275" width="1.025" height="1.025" fill="#ffffff" />
<rect x="20.500" y="11.275" width="1.025" height="1.025" fill="#ffffff" />
<rect x="21.525" y="11.275" width="1.025" height="1.025" fill="#ffffff" />
<rect x="22.550" y="11.275" width="1.025" height="1.025" fill="#ffffff" />
<rect x="23.575" y="11.275" width="1.025" height="1.025" fill="#ffffff" />
<rect x="24.600" y="11.275" width="1.025" height="1.025" fill="#ffffff" />
<rect x="25.625" y="11.275" width="1.025" height="1.025" fill="#b2b2b2" />
<rect x="9.225" y="12.300" width="1.025" height="1.025" fill="#3e3e3e" />
<rect x="10.250" y="12.300" width="1.025" height="1.025" fill="#adadad" />
<rect x="11.275" y="12.300" width="1.025" height="1.025" fill="#7b7b7b" />
<rect x="12.300" y="12.300" width="1.025" height="1.025" fill="#c7c7c7" />
<rect x="13.325" y="12.300" width="1.025" height="1.025" fill="#a3a3a3" />
<rect x="14.350" y="12.300" width="1.025" height="1.025" fill="#f2f2f2" />
<rect x="15.375" y="12.300" width="1.025" height="1.025" fill="#ffff52" />
<rect x="16.400" y="12.300" width="1.025" height="1.025" fill="#ffffff" />
<rect x="17.425" y="12.300" width="1.025" height="1.025" fill="#ffff3a" />
<rect x="18.450" y="12.300" width="1.025" height="1.025" fill="#ffffff" />
<rect x="19.475" y="12.300" width="1.025" height="1.025" fill="#ffff00" />
<rect x="20.500" y="12.300" width="1.025" height="1.025" fill="#ffffff" />
<rect x="21.525" y="12.300" width="1.025" height="1.025" fill="#ffff00" />
<rect x="22.550" y="12.300" width="1.025" height="1.025" fill="#ffffff" />
<rect x="23.575" y="12.300" width="1.025" height="1.025" fill="#ffff67" />
<rect x="24.600" y="12.300" width="1.025" height="1.025" fill="#ffffff" />
<rect x="7.175" y="13.325" width="1.025" height="1.025" fill="#3e3e3e" />
<rect x="8.200" y="13.325" width="1.025" height="1.025" fill="#d3d30e" />
<rect x="9.225" y="13.325" width="1.025" height="1.025" fill="#adadad" />
<rect x="10.250" y="13.325" width="1.025" height="1.025" fill="#f5f515" />
<rect x="11.275" y="13.325" width="1.025" height="1.025" fill="#cacaca" />
<rect x="8.200" y="14.350" width="1.025" height="1.025" fill="#aaaaaa" />
<rect x="9.225" y="14.350" width="1.025" height="1.025" fill="#adadad" />
<rect x="7.175" y="15.375" width="1.025" height="1.025" fill="#3e3e3e" />
</svg>