<svg xmlns="http://www.w3.org/2000/svg" width="37.925" height="37.925" shape-rendering="crispEdges" style="image-rendering: pixelated;">
<rect x="15.375" y="11.275" width="1.025" height="1.025" fill="#d7d7d7" />
<rect x="16.400" y="11.275" width="1.025" height="1.025" fill="#c0c0c0" />
<rect x="17.425" y="11.275" width="1.025" height="1.025" fill="#c0c0c0" />
<rect x="18.450" y="11.275" width="1.025" height="1.025" fill="#d7d7d7" />
<rect x="22.550" y="11.275" width="1.025" height="1.025" fill="#d7d7d7" />
<rect x="23.575" y="11.275" width="1.025" height="1.025" fill="#c0c0c0" />
<rect x="24.600" y="11.275" width="1.025" height="1.025" fill="#adadad" />
<rect x="25.625" y="11.275" width="1.025" height="1.025" fill="#d7d7d7" />
<rect x="16.400" y="12.300" width="1.025" height="1.025" fill="#d7d7d7" />
<rect x="17.425" y="12.300" width="1.025" height="1.025" fill="#d7d7d7" />
<rect x="18.450" y="12.300" width="1.025" height="1.025" fill="#adadad" />
<rect x="19.475" y="12.300" width="1.025" height="1.025" fill="#d7d7d7" />
<rect x="21.525" y="12.300" width="1.025" height="1.025" fill="#d7d7d7" />
<rect x="22.550" y="12.300" width="1.025" height="1.025" fill="#c0c0c0" />
<rect x="23.575" y="12.300" width="1.025" height="1.025" fill="#d7d7d7" />
<rect x="24.600" y="12.300" width="1.025" height="1.025" fill="#d7d7d7" />
</svg>