<svg xmlns="http://www.w3.org/2000/svg" width="37.925" height="37.925" shape-rendering="crispEdges" style="image-rendering: pixelated;">
<rect x="19.475" y="19.475" width="1.025" height="1.025" fill="#dfdfdf" />
<rect x="20.500" y="19.475" width="1.025" height="1.025" fill="#e5e5e5" />
<rect x="21.525" y="19.475" width="1.025" height="1.025" fill="#d1d1d1" />
<rect x="22.550" y="19.475" width="1.025" height="1.025" fill="#d1d1d1" />
<rect x="18.450" y="20.500" width="1.025" height="1.025" fill="#bbbbbb" />
<rect x="23.575" y="20.500" width="1.025" height="1.025" fill="#a8a8a8" />
<rect x="18.450" y="21.525" width="1.025" height="1.025" fill="#e5e5e5" />
<rect x="19.475" y="21.525" width="1.025" height="1.025" fill="#bbbbbb" fill-opacity="0.600" />
<rect x="22.550" y="21.525" width="1.025" height="1.025" fill="#aaaaaa" fill-opacity="0.961" />
<rect x="23.575" y="21.525" width="1.025" height="1.025" fill="#d1d1d1" />
<rect x="18.450" y="22.550" width="1.025" height="1.025" fill="#e5e5e5" />
<rect x="23.575" y="22.550" width="1.025" height="1.025" fill="#c4c4c4" />
<rect x="18.450" y="23.575" width="1.025" height="1.025" fill="#e5e5e5" />
<rect x="23.575" y="23.575" width="1.025" height="1.025" fill="#d1d1d1" />
<rect x="18.450" y="24.600" width="1.025" height="1.025" fill="#e5e5e5" />
<rect x="23.575" y="24.600" width="1.025" height="1.025" fill="#c4c4c4" />
<rect x="18.450" y="25.625" width="1.025" height="1.025" fill="#e5e5e5" />
<rect x="23.575" y="25.625" width="1.025" height="1.025" fill="#c4c4c4" />
<rect x="18.450" y="26.650" width="1.025" height="1.025" fill="#9f9f9f" />
<rect x="23.575" y="26.650" width="1.025" height="1.025" fill="#777777" />
<rect x="18.450" y="27.675" width="1.025" height="1.025" fill="#e5e5e5" />
<rect x="23.575" y="27.675" width="1.025" height="1.025" fill="#c4c4c4" />
<rect x="18.450" y="28.700" width="1.025" height="1.025" fill="#9f9f9f" />
<rect x="23.575" y="28.700" width="1.025" height="1.025" fill="#777777" />
</svg>