<svg xmlns="http://www.w3.org/2000/svg" width="37.925" height="37.925" shape-rendering="crispEdges" style="image-rendering: pixelated;">
<rect x="18.450" y="19.475" width="1.025" height="1.025" fill="#000000" />
<rect x="19.475" y="19.475" width="1.025" height="1.025" fill="#000000" />
<rect x="20.500" y="19.475" width="1.025" height="1.025" fill="#000000" />
<rect x="21.525" y="19.475" width="1.025" height="1.025" fill="#000000" />
<rect x="22.550" y="19.475" width="1.025" height="1.025" fill="#000000" />
<rect x="17.425" y="20.500" width="1.025" height="1.025" fill="#000000" />
<rect x="18.450" y="20.500" width="1.025" height="1.025" fill="#6a6844" />
<rect x="19.475" y="20.500" width="1.025" height="1.025" fill="#c9c381" />
<rect x="20.500" y="20.500" width="1.025" height="1.025" fill="#e5e2b7" />
<rect x="21.525" y="20.500" width="1.025" height="1.025" fill="#fffbcc" />
<rect x="22.550" y="20.500" width="1.025" height="1.025" fill="#979579" />
<rect x="23.575" y="20.500" width="1.025" height="1.025" fill="#000000" />
<rect x="17.425" y="21.525" width="1.025" height="1.025" fill="#000000" />
<rect x="18.450" y="21.525" width="1.025" height="1.025" fill="#340c0e" />
<rect x="19.475" y="21.525" width="1.025" height="1.025" fill="#88040b" />
<rect x="20.500" y="21.525" width="1.025" height="1.025" fill="#e30613" />
<rect x="21.525" y="21.525" width="1.025" height="1.025" fill="#ff0000" />
<rect x="22.550" y="21.525" width="1.025" height="1.025" fill="#000000" />
<rect x="23.575" y="21.525" width="1.025" height="1.025" fill="#000000" />
<rect x="18.450" y="22.550" width="1.025" height="1.025" fill="#000000" />
<rect x="19.475" y="22.550" width="1.025" height="1.025" fill="#000000" />
<rect x="20.500" y="22.550" width="1.025" height="1.025" fill="#000000" />
<rect x="21.525" y="22.550" width="1.025" height="1.025" fill="#000000" />
<rect x="22.550" y="22.550" width="1.025" height="1.025" fill="#000000" />
</svg>