<svg xmlns="http://www.w3.org/2000/svg" width="37.925" height="37.925" shape-rendering="crispEdges" style="image-rendering: pixelated;">
<rect x="11.275" y="28.700" width="1.025" height="1.025" fill="#b2b2b2" />
<rect x="9.225" y="29.725" width="1.025" height="1.025" fill="#afafaf" />
<rect x="10.250" y="29.725" width="1.025" height="1.025" fill="#b6b6b6" />
<rect x="11.275" y="29.725" width="1.025" height="1.025" fill="#e9e9e9" />
<rect x="22.550" y="29.725" width="1.025" height="1.025" fill="#b6b6b6" />
<rect x="23.575" y="29.725" width="1.025" height="1.025" fill="#acacac" />
<rect x="7.175" y="30.750" width="1.025" height="1.025" fill="#b0b0b0" />
<rect x="8.200" y="30.750" width="1.025" height="1.025" fill="#afafaf" />
<rect x="9.225" y="30.750" width="1.025" height="1.025" fill="#fbfbfb" />
<rect x="10.250" y="30.750" width="1.025" height="1.025" fill="#fbfbfb" />
<rect x="11.275" y="30.750" width="1.025" height="1.025" fill="#b8b8b8" />
<rect x="22.550" y="30.750" width="1.025" height="1.025" fill="#b8b8b8" />
<rect x="23.575" y="30.750" width="1.025" height="1.025" fill="#f0f0f0" />
<rect x="24.600" y="30.750" width="1.025" height="1.025" fill="#b6b6b6" />
<rect x="25.625" y="30.750" width="1.025" height="1.025" fill="#acacac" />
<rect x="6.150" y="31.775" width="1.025" height="1.025" fill="#b2b2b2" />
<rect x="7.175" y="31.775" width="1.025" height="1.025" fill="#d5d5d5" />
<rect x="8.200" y="31.775" width="1.025" height="1.025" fill="#ffffff" />
<rect x="9.225" y="31.775" width="1.025" height="1.025" fill="#ffffff" />
<rect x="10.250" y="31.775" width="1.025" height="1.025" fill="#ffffff" />
<rect x="11.275" y="31.775" width="1.025" height="1.025" fill="#b6b6b6" />
<rect x="22.550" y="31.775" width="1.025" height="1.025" fill="#b6b6b6" />
<rect x="23.575" y="31.775" width="1.025" height="1.025" fill="#fbfbfb" />
<rect x="24.600" y="31.775" width="1.025" height="1.025" fill="#ffffff" />
<rect x="25.625" y="31.775" width="1.025" height="1.025" fill="#fafafa" />
<rect x="26.650" y="31.775" width="1.025" height="1.025" fill="#ababab" />
<rect x="5.125" y="32.800" width="1.025" height="1.025" fill="#afafaf" />
<rect x="6.150" y="32.800" width="1.025" height="1.025" fill="#f4f4f4" />
<rect x="7.175" y="32.800" width="1.025" height="1.025" fill="#f0f0f0" />
<rect x="8.200" y="32.800" width="1.025" height="1.025" fill="#ffffff" />
<rect x="9.225" y="32.800" width="1.025" height="1.025" fill="#ffffff" />
<rect x="10.250" y="32.800" width="1.025" height="1.025" fill="#ffffff" />
<rect x="11.275" y="32.800" width="1.025" height="1.025" fill="#b8b8b8" />
<rect x="22.550" y="32.800" width="1.025" height="1.025" fill="#b8b8b8" />
<rect x="23.575" y="32.800" width="1.025" height="1.025" fill="#ffffff" />
<rect x="24.600" y="32.800" width="1.025" height="1.025" fill="#fbfbfb" />
<rect x="25.625" y="32.800" width="1.025" height="1.025" fill="#ffffff" />
<rect x="26.650" y="32.800" width="1.025" height="1.025" fill="#f6f6f6" />
<rect x="27.675" y="32.800" width="1.025" height="1.025" fill="#acacac" />
<rect x="4.100" y="33.825" width="1.025" height="1.025" fill="#afafaf" />
<rect x="5.125" y="33.825" width="1.025" height="1.025" fill="#f4f4f4" />
<rect x="6.150" y="33.825" width="1.025" height="1.025" fill="#f6f6f6" />
<rect x="7.175" y="33.825" width="1.025" height="1.025" fill="#eaeaea" />
<rect x="8.200" y="33.825" width="1.025" height="1.025" fill="#ffffff" />
<rect x="9.225" y="33.825" width="1.025" height="1.025" fill="#ffffff" />
<rect x="10.250" y="33.825" width="1.025" height="1.025" fill="#cdcdcd" />
<rect x="11.275" y="33.825" width="1.025" height="1.025" fill="#b6b6b6" />
<rect x="22.550" y="33.825" width="1.025" height="1.025" fill="#b6b6b6" />
<rect x="23.575" y="33.825" width="1.025" height="1.025" fill="#e6e6e6" />
<rect x="24.600" y="33.825" width="1.025" height="1.025" fill="#cacaca" />
<rect x="25.625" y="33.825" width="1.025" height="1.025" fill="#f8f8f8" />
<rect x="26.650" y="33.825" width="1.025" height="1.025" fill="#ffffff" />
<rect x="27.675" y="33.825" width="1.025" height="1.025" fill="#f6f6f6" />
<rect x="28.700" y="33.825" width="1.025" height="1.025" fill="#acacac" />
<rect x="3.075" y="34.850" width="1.025" height="1.025" fill="#b0b0b0" />
<rect x="4.100" y="34.850" width="1.025" height="1.025" fill="#f6f6f6" />
<rect x="5.125" y="34.850" width="1.025" height="1.025" fill="#f6f6f6" />
<rect x="6.150" y="34.850" width="1.025" height="1.025" fill="#f0f0f0" />
<rect x="7.175" y="34.850" width="1.025" height="1.025" fill="#eaeaea" />
<rect x="8.200" y="34.850" width="1.025" height="1.025" fill="#ffffff" />
<rect x="9.225" y="34.850" width="1.025" height="1.025" fill="#f4f4f4" />
<rect x="10.250" y="34.850" width="1.025" height="1.025" fill="#b2b2b2" />
<rect x="11.275" y="34.850" width="1.025" height="1.025" fill="#d1d1d1" />
<rect x="22.550" y="34.850" width="1.025" height="1.025" fill="#d1d1d1" />
<rect x="23.575" y="34.850" width="1.025" height="1.025" fill="#e6e6e6" />
<rect x="24.600" y="34.850" width="1.025" height="1.025" fill="#9b9b9b" />
<rect x="25.625" y="34.850" width="1.025" height="1.025" fill="#f8f8f8" />
<rect x="26.650" y="34.850" width="1.025" height="1.025" fill="#f6f6f6" />
<rect x="27.675" y="34.850" width="1.025" height="1.025" fill="#ffffff" />
<rect x="28.700" y="34.850" width="1.025" height="1.025" fill="#ffffff" />
<rect x="29.725" y="34.850" width="1.025" height="1.025" fill="#bababa" />
<rect x="3.075" y="35.875" width="1.025" height="1.025" fill="#b2b2b2" />
<rect x="4.100" y="35.875" width="1.025" height="1.025" fill="#f0f0f0" />
<rect x="5.125" y="35.875" width="1.025" height="1.025" fill="#f0f0f0" />
<rect x="6.150" y="35.875" width="1.025" height="1.025" fill="#f0f0f0" />
<rect x="7.175" y="35.875" width="1.025" height="1.025" fill="#eaeaea" />
<rect x="8.200" y="35.875" width="1.025" height="1.025" fill="#ffffff" />
<rect x="9.225" y="35.875" width="1.025" height="1.025" fill="#d5d5d5" />
<rect x="10.250" y="35.875" width="1.025" height="1.025" fill="#767676" />
<rect x="11.275" y="35.875" width="1.025" height="1.025" fill="#f0f0f0" />
<rect x="22.550" y="35.875" width="1.025" height="1.025" fill="#f0f0f0" />
<rect x="23.575" y="35.875" width="1.025" height="1.025" fill="#cacaca" />
<rect x="24.600" y="35.875" width="1.025" height="1.025" fill="#7c7c7c" />
<rect x="25.625" y="35.875" width="1.025" height="1.025" fill="#f3f3f3" />
<rect x="26.650" y="35.875" width="1.025" height="1.025" fill="#eaeaea" />
<rect x="27.675" y="35.875" width="1.025" height="1.025" fill="#f6f6f6" />
<rect x="28.700" y="35.875" width="1.025" height="1.025" fill="#f6f6f6" />
<rect x="29.725" y="35.875" width="1.025" height="1.025" fill="#b2b2b2" />
<rect x="3.075" y="36.900" width="1.025" height="1.025" fill="#a8a8a8" />
<rect x="4.100" y="36.900" width="1.025" height="1.025" fill="#f0f0f0" />
<rect x="5.125" y="36.900" width="1.025" height="1.025" fill="#f0f0f0" />
<rect x="6.150" y="36.900" width="1.025" height="1.025" fill="#f0f0f0" />
<rect x="7.175" y="36.900" width="1.025" height="1.025" fill="#eaeaea" />
<rect x="8.200" y="36.900" width="1.025" height="1.025" fill="#ffffff" />
<rect x="9.225" y="36.900" width="1.025" height="1.025" fill="#c4c4c4" />
<rect x="10.250" y="36.900" width="1.025" height="1.025" fill="#727272" />
<rect x="11.275" y="36.900" width="1.025" height="1.025" fill="#fefefe" />
<rect x="22.550" y="36.900" width="1.025" height="1.025" fill="#fefefe" />
<rect x="23.575" y="36.900" width="1.025" height="1.025" fill="#bdbdbd" />
<rect x="24.600" y="36.900" width="1.025" height="1.025" fill="#5c5c5c" />
<rect x="25.625" y="36.900" width="1.025" height="1.025" fill="#f3f3f3" />
<rect x="26.650" y="36.900" width="1.025" height="1.025" fill="#eaeaea" />
<rect x="27.675" y="36.900" width="1.025" height="1.025" fill="#eaeaea" />
<rect x="28.700" y="36.900" width="1.025" height="1.025" fill="#eaeaea" />
<rect x="29.725" y="36.900" width="1.025" height="1.025" fill="#ababab" />
</svg>