<svg xmlns="http://www.w3.org/2000/svg" width="37.925" height="37.925" shape-rendering="crispEdges" style="image-rendering: pixelated;">
<rect x="11.275" y="28.700" width="1.025" height="1.025" fill="#230001" />
<rect x="9.225" y="29.725" width="1.025" height="1.025" fill="#1d0000" />
<rect x="10.250" y="29.725" width="1.025" height="1.025" fill="#290000" />
<rect x="11.275" y="29.725" width="1.025" height="1.025" fill="#730000" />
<rect x="22.550" y="29.725" width="1.025" height="1.025" fill="#270000" />
<rect x="23.575" y="29.725" width="1.025" height="1.025" fill="#190000" />
<rect x="7.175" y="30.750" width="1.025" height="1.025" fill="#200000" />
<rect x="8.200" y="30.750" width="1.025" height="1.025" fill="#1c0000" />
<rect x="9.225" y="30.750" width="1.025" height="1.025" fill="#910000" />
<rect x="10.250" y="30.750" width="1.025" height="1.025" fill="#920000" />
<rect x="11.275" y="30.750" width="1.025" height="1.025" fill="#2b0001" />
<rect x="22.550" y="30.750" width="1.025" height="1.025" fill="#2b0001" />
<rect x="23.575" y="30.750" width="1.025" height="1.025" fill="#800000" />
<rect x="24.600" y="30.750" width="1.025" height="1.025" fill="#2a0000" />
<rect x="25.625" y="30.750" width="1.025" height="1.025" fill="#190000" />
<rect x="6.150" y="31.775" width="1.025" height="1.025" fill="#230001" />
<rect x="7.175" y="31.775" width="1.025" height="1.025" fill="#580000" />
<rect x="8.200" y="31.775" width="1.025" height="1.025" fill="#990100" />
<rect x="9.225" y="31.775" width="1.025" height="1.025" fill="#a50100" />
<rect x="10.250" y="31.775" width="1.025" height="1.025" fill="#9f0000" />
<rect x="11.275" y="31.775" width="1.025" height="1.025" fill="#290000" />
<rect x="22.550" y="31.775" width="1.025" height="1.025" fill="#290000" />
<rect x="23.575" y="31.775" width="1.025" height="1.025" fill="#920000" />
<rect x="24.600" y="31.775" width="1.025" height="1.025" fill="#a30100" />
<rect x="25.625" y="31.775" width="1.025" height="1.025" fill="#8f0000" />
<rect x="26.650" y="31.775" width="1.025" height="1.025" fill="#180000" />
<rect x="5.125" y="32.800" width="1.025" height="1.025" fill="#1c0000" />
<rect x="6.150" y="32.800" width="1.025" height="1.025" fill="#870000" />
<rect x="7.175" y="32.800" width="1.025" height="1.025" fill="#800000" />
<rect x="8.200" y="32.800" width="1.025" height="1.025" fill="#970000" />
<rect x="9.225" y="32.800" width="1.025" height="1.025" fill="#a50100" />
<rect x="10.250" y="32.800" width="1.025" height="1.025" fill="#a10000" />
<rect x="11.275" y="32.800" width="1.025" height="1.025" fill="#2b0001" />
<rect x="22.550" y="32.800" width="1.025" height="1.025" fill="#2b0001" />
<rect x="23.575" y="32.800" width="1.025" height="1.025" fill="#980100" />
<rect x="24.600" y="32.800" width="1.025" height="1.025" fill="#920000" />
<rect x="25.625" y="32.800" width="1.025" height="1.025" fill="#a50100" />
<rect x="26.650" y="32.800" width="1.025" height="1.025" fill="#8a0000" />
<rect x="27.675" y="32.800" width="1.025" height="1.025" fill="#190000" />
<rect x="4.100" y="33.825" width="1.025" height="1.025" fill="#1c0000" />
<rect x="5.125" y="33.825" width="1.025" height="1.025" fill="#870000" />
<rect x="6.150" y="33.825" width="1.025" height="1.025" fill="#880100" />
<rect x="7.175" y="33.825" width="1.025" height="1.025" fill="#770100" />
<rect x="8.200" y="33.825" width="1.025" height="1.025" fill="#9b0100" />
<rect x="9.225" y="33.825" width="1.025" height="1.025" fill="#a50100" />
<rect x="10.250" y="33.825" width="1.025" height="1.025" fill="#4c0000" />
<rect x="11.275" y="33.825" width="1.025" height="1.025" fill="#290000" />
<rect x="22.550" y="33.825" width="1.025" height="1.025" fill="#290000" />
<rect x="23.575" y="33.825" width="1.025" height="1.025" fill="#710000" />
<rect x="24.600" y="33.825" width="1.025" height="1.025" fill="#450100" />
<rect x="25.625" y="33.825" width="1.025" height="1.025" fill="#8b0100" />
<rect x="26.650" y="33.825" width="1.025" height="1.025" fill="#a50100" />
<rect x="27.675" y="33.825" width="1.025" height="1.025" fill="#8a0000" />
<rect x="28.700" y="33.825" width="1.025" height="1.025" fill="#190000" />
<rect x="3.075" y="34.850" width="1.025" height="1.025" fill="#200000" />
<rect x="4.100" y="34.850" width="1.025" height="1.025" fill="#880100" />
<rect x="5.125" y="34.850" width="1.025" height="1.025" fill="#880100" />
<rect x="6.150" y="34.850" width="1.025" height="1.025" fill="#7f0000" />
<rect x="7.175" y="34.850" width="1.025" height="1.025" fill="#770100" />
<rect x="8.200" y="34.850" width="1.025" height="1.025" fill="#980100" />
<rect x="9.225" y="34.850" width="1.025" height="1.025" fill="#860001" />
<rect x="10.250" y="34.850" width="1.025" height="1.025" fill="#220000" />
<rect x="11.275" y="34.850" width="1.025" height="1.025" fill="#510000" />
<rect x="22.550" y="34.850" width="1.025" height="1.025" fill="#510000" />
<rect x="23.575" y="34.850" width="1.025" height="1.025" fill="#710000" />
<rect x="24.600" y="34.850" width="1.025" height="1.025" fill="#000000" />
<rect x="25.625" y="34.850" width="1.025" height="1.025" fill="#8b0100" />
<rect x="26.650" y="34.850" width="1.025" height="1.025" fill="#8a0000" />
<rect x="27.675" y="34.850" width="1.025" height="1.025" fill="#a50100" />
<rect x="28.700" y="34.850" width="1.025" height="1.025" fill="#a50100" />
<rect x="29.725" y="34.850" width="1.025" height="1.025" fill="#2d0000" />
<rect x="3.075" y="35.875" width="1.025" height="1.025" fill="#240000" />
<rect x="4.100" y="35.875" width="1.025" height="1.025" fill="#7f0000" />
<rect x="5.125" y="35.875" width="1.025" height="1.025" fill="#7f0000" />
<rect x="6.150" y="35.875" width="1.025" height="1.025" fill="#7f0000" />
<rect x="7.175" y="35.875" width="1.025" height="1.025" fill="#770100" />
<rect x="8.200" y="35.875" width="1.025" height="1.025" fill="#980100" />
<rect x="9.225" y="35.875" width="1.025" height="1.025" fill="#570000" />
<rect x="10.250" y="35.875" width="1.025" height="1.025" fill="#000000" />
<rect x="11.275" y="35.875" width="1.025" height="1.025" fill="#810100" />
<rect x="22.550" y="35.875" width="1.025" height="1.025" fill="#810100" />
<rect x="23.575" y="35.875" width="1.025" height="1.025" fill="#450100" />
<rect x="24.600" y="35.875" width="1.025" height="1.025" fill="#0d0000" />
<rect x="25.625" y="35.875" width="1.025" height="1.025" fill="#830100" />
<rect x="26.650" y="35.875" width="1.025" height="1.025" fill="#780000" />
<rect x="27.675" y="35.875" width="1.025" height="1.025" fill="#8a0000" />
<rect x="28.700" y="35.875" width="1.025" height="1.025" fill="#8a0000" />
<rect x="29.725" y="35.875" width="1.025" height="1.025" fill="#210000" />
<rect x="3.075" y="36.900" width="1.025" height="1.025" fill="#150000" />
<rect x="4.100" y="36.900" width="1.025" height="1.025" fill="#7f0000" />
<rect x="5.125" y="36.900" width="1.025" height="1.025" fill="#7f0000" />
<rect x="6.150" y="36.900" width="1.025" height="1.025" fill="#7f0000" />
<rect x="7.175" y="36.900" width="1.025" height="1.025" fill="#770100" />
<rect x="8.200" y="36.900" width="1.025" height="1.025" fill="#980100" />
<rect x="9.225" y="36.900" width="1.025" height="1.025" fill="#3b0000" />
<rect x="10.250" y="36.900" width="1.025" height="1.025" fill="#000000" />
<rect x="11.275" y="36.900" width="1.025" height="1.025" fill="#960001" />
<rect x="22.550" y="36.900" width="1.025" height="1.025" fill="#960001" />
<rect x="23.575" y="36.900" width="1.025" height="1.025" fill="#340000" />
<rect x="24.600" y="36.900" width="1.025" height="1.025" fill="#000000" />
<rect x="25.625" y="36.900" width="1.025" height="1.025" fill="#830100" />
<rect x="26.650" y="36.900" width="1.025" height="1.025" fill="#780000" />
<rect x="27.675" y="36.900" width="1.025" height="1.025" fill="#780000" />
<rect x="28.700" y="36.900" width="1.025" height="1.025" fill="#780000" />
<rect x="29.725" y="36.900" width="1.025" height="1.025" fill="#180000" />
</svg>