<svg xmlns="http://www.w3.org/2000/svg" width="37.925" height="37.925" shape-rendering="crispEdges" style="image-rendering: pixelated;">
<rect x="11.275" y="28.700" width="1.025" height="1.025" fill="#6e5200" />
<rect x="9.225" y="29.725" width="1.025" height="1.025" fill="#685100" />
<rect x="10.250" y="29.725" width="1.025" height="1.025" fill="#735a00" />
<rect x="11.275" y="29.725" width="1.025" height="1.025" fill="#b18a00" />
<rect x="22.550" y="29.725" width="1.025" height="1.025" fill="#715800" />
<rect x="23.575" y="29.725" width="1.025" height="1.025" fill="#634e02" />
<rect x="7.175" y="30.750" width="1.025" height="1.025" fill="#6b5400" />
<rect x="8.200" y="30.750" width="1.025" height="1.025" fill="#685100" />
<rect x="9.225" y="30.750" width="1.025" height="1.025" fill="#ca9e00" />
<rect x="10.250" y="30.750" width="1.025" height="1.025" fill="#cb9f00" />
<rect x="11.275" y="30.750" width="1.025" height="1.025" fill="#745700" />
<rect x="22.550" y="30.750" width="1.025" height="1.025" fill="#745700" />
<rect x="23.575" y="30.750" width="1.025" height="1.025" fill="#bc9300" />
<rect x="24.600" y="30.750" width="1.025" height="1.025" fill="#735a00" />
<rect x="25.625" y="30.750" width="1.025" height="1.025" fill="#634e02" />
<rect x="6.150" y="31.775" width="1.025" height="1.025" fill="#6e5200" />
<rect x="7.175" y="31.775" width="1.025" height="1.025" fill="#9a7800" />
<rect x="8.200" y="31.775" width="1.025" height="1.025" fill="#d1a500" />
<rect x="9.225" y="31.775" width="1.025" height="1.025" fill="#dbad00" />
<rect x="10.250" y="31.775" width="1.025" height="1.025" fill="#d6a700" />
<rect x="11.275" y="31.775" width="1.025" height="1.025" fill="#735a00" />
<rect x="22.550" y="31.775" width="1.025" height="1.025" fill="#735a00" />
<rect x="23.575" y="31.775" width="1.025" height="1.025" fill="#cb9f00" />
<rect x="24.600" y="31.775" width="1.025" height="1.025" fill="#d9ab00" />
<rect x="25.625" y="31.775" width="1.025" height="1.025" fill="#c99d00" />
<rect x="26.650" y="31.775" width="1.025" height="1.025" fill="#604c03" />
<rect x="5.125" y="32.800" width="1.025" height="1.025" fill="#685100" />
<rect x="6.150" y="32.800" width="1.025" height="1.025" fill="#c29800" />
<rect x="7.175" y="32.800" width="1.025" height="1.025" fill="#bc9300" />
<rect x="8.200" y="32.800" width="1.025" height="1.025" fill="#cfa200" />
<rect x="9.225" y="32.800" width="1.025" height="1.025" fill="#dbad00" />
<rect x="10.250" y="32.800" width="1.025" height="1.025" fill="#d8a900" />
<rect x="11.275" y="32.800" width="1.025" height="1.025" fill="#745700" />
<rect x="22.550" y="32.800" width="1.025" height="1.025" fill="#745700" />
<rect x="23.575" y="32.800" width="1.025" height="1.025" fill="#d0a400" />
<rect x="24.600" y="32.800" width="1.025" height="1.025" fill="#cb9f00" />
<rect x="25.625" y="32.800" width="1.025" height="1.025" fill="#dbad00" />
<rect x="26.650" y="32.800" width="1.025" height="1.025" fill="#c49900" />
<rect x="27.675" y="32.800" width="1.025" height="1.025" fill="#634e02" />
<rect x="4.100" y="33.825" width="1.025" height="1.025" fill="#685100" />
<rect x="5.125" y="33.825" width="1.025" height="1.025" fill="#c29800" />
<rect x="6.150" y="33.825" width="1.025" height="1.025" fill="#c39a00" />
<rect x="7.175" y="33.825" width="1.025" height="1.025" fill="#b48f00" />
<rect x="8.200" y="33.825" width="1.025" height="1.025" fill="#d3a600" />
<rect x="9.225" y="33.825" width="1.025" height="1.025" fill="#dbad00" />
<rect x="10.250" y="33.825" width="1.025" height="1.025" fill="#907000" />
<rect x="11.275" y="33.825" width="1.025" height="1.025" fill="#735a00" />
<rect x="22.550" y="33.825" width="1.025" height="1.025" fill="#735a00" />
<rect x="23.575" y="33.825" width="1.025" height="1.025" fill="#af8900" />
<rect x="24.600" y="33.825" width="1.025" height="1.025" fill="#8a6e00" />
<rect x="25.625" y="33.825" width="1.025" height="1.025" fill="#c59b00" />
<rect x="26.650" y="33.825" width="1.025" height="1.025" fill="#dbad00" />
<rect x="27.675" y="33.825" width="1.025" height="1.025" fill="#c49900" />
<rect x="28.700" y="33.825" width="1.025" height="1.025" fill="#634e02" />
<rect x="3.075" y="34.850" width="1.025" height="1.025" fill="#6b5400" />
<rect x="4.100" y="34.850" width="1.025" height="1.025" fill="#c39a00" />
<rect x="5.125" y="34.850" width="1.025" height="1.025" fill="#c39a00" />
<rect x="6.150" y="34.850" width="1.025" height="1.025" fill="#bb9200" />
<rect x="7.175" y="34.850" width="1.025" height="1.025" fill="#b48f00" />
<rect x="8.200" y="34.850" width="1.025" height="1.025" fill="#d0a400" />
<rect x="9.225" y="34.850" width="1.025" height="1.025" fill="#c19500" />
<rect x="10.250" y="34.850" width="1.025" height="1.025" fill="#6d5500" />
<rect x="11.275" y="34.850" width="1.025" height="1.025" fill="#947400" />
<rect x="22.550" y="34.850" width="1.025" height="1.025" fill="#947400" />
<rect x="23.575" y="34.850" width="1.025" height="1.025" fill="#af8900" />
<rect x="24.600" y="34.850" width="1.025" height="1.025" fill="#282828" />
<rect x="25.625" y="34.850" width="1.025" height="1.025" fill="#c59b00" />
<rect x="26.650" y="34.850" width="1.025" height="1.025" fill="#c49900" />
<rect x="27.675" y="34.850" width="1.025" height="1.025" fill="#dbad00" />
<rect x="28.700" y="34.850" width="1.025" height="1.025" fill="#dbad00" />
<rect x="29.725" y="34.850" width="1.025" height="1.025" fill="#765c00" />
<rect x="3.075" y="35.875" width="1.025" height="1.025" fill="#6e5600" />
<rect x="4.100" y="35.875" width="1.025" height="1.025" fill="#bb9200" />
<rect x="5.125" y="35.875" width="1.025" height="1.025" fill="#bb9200" />
<rect x="6.150" y="35.875" width="1.025" height="1.025" fill="#bb9200" />
<rect x="7.175" y="35.875" width="1.025" height="1.025" fill="#b48f00" />
<rect x="8.200" y="35.875" width="1.025" height="1.025" fill="#d0a400" />
<rect x="9.225" y="35.875" width="1.025" height="1.025" fill="#997800" />
<rect x="10.250" y="35.875" width="1.025" height="1.025" fill="#282828" />
<rect x="11.275" y="35.875" width="1.025" height="1.025" fill="#bd9500" />
<rect x="22.550" y="35.875" width="1.025" height="1.025" fill="#bd9500" />
<rect x="23.575" y="35.875" width="1.025" height="1.025" fill="#8a6e00" />
<rect x="24.600" y="35.875" width="1.025" height="1.025" fill="#473c14" />
<rect x="25.625" y="35.875" width="1.025" height="1.025" fill="#be9600" />
<rect x="26.650" y="35.875" width="1.025" height="1.025" fill="#b58d00" />
<rect x="27.675" y="35.875" width="1.025" height="1.025" fill="#c49900" />
<rect x="28.700" y="35.875" width="1.025" height="1.025" fill="#c49900" />
<rect x="29.725" y="35.875" width="1.025" height="1.025" fill="#6c5400" />
<rect x="3.075" y="36.900" width="1.025" height="1.025" fill="#5a4807" />
<rect x="4.100" y="36.900" width="1.025" height="1.025" fill="#bb9200" />
<rect x="5.125" y="36.900" width="1.025" height="1.025" fill="#bb9200" />
<rect x="6.150" y="36.900" width="1.025" height="1.025" fill="#bb9200" />
<rect x="7.175" y="36.900" width="1.025" height="1.025" fill="#b48f00" />
<rect x="8.200" y="36.900" width="1.025" height="1.025" fill="#d0a400" />
<rect x="9.225" y="36.900" width="1.025" height="1.025" fill="#826600" />
<rect x="10.250" y="36.900" width="1.025" height="1.025" fill="#282828" />
<rect x="11.275" y="36.900" width="1.025" height="1.025" fill="#ce9f00" />
<rect x="22.550" y="36.900" width="1.025" height="1.025" fill="#ce9f00" />
<rect x="23.575" y="36.900" width="1.025" height="1.025" fill="#7c6100" />
<rect x="24.600" y="36.900" width="1.025" height="1.025" fill="#282828" />
<rect x="25.625" y="36.900" width="1.025" height="1.025" fill="#be9600" />
<rect x="26.650" y="36.900" width="1.025" height="1.025" fill="#b58d00" />
<rect x="27.675" y="36.900" width="1.025" height="1.025" fill="#b58d00" />
<rect x="28.700" y="36.900" width="1.025" height="1.025" fill="#b58d00" />
<rect x="29.725" y="36.900" width="1.025" height="1.025" fill="#604c03" />
</svg>