<svg xmlns="http://www.w3.org/2000/svg" width="37.925" height="37.925" shape-rendering="crispEdges" style="image-rendering: pixelated;">
<rect x="12.300" y="27.675" width="1.025" height="1.025" fill="#8c8c8c" />
<rect x="19.475" y="27.675" width="1.025" height="1.025" fill="#8c8c8c" />
<rect x="11.275" y="28.700" width="1.025" height="1.025" fill="#c1c1c1" />
<rect x="12.300" y="28.700" width="1.025" height="1.025" fill="#8c8c8c" />
<rect x="13.325" y="28.700" width="1.025" height="1.025" fill="#8c8c8c" />
<rect x="19.475" y="28.700" width="1.025" height="1.025" fill="#8c8c8c" />
<rect x="20.500" y="28.700" width="1.025" height="1.025" fill="#8c8c8c" />
<rect x="21.525" y="28.700" width="1.025" height="1.025" fill="#c3c3c3" />
<rect x="9.225" y="29.725" width="1.025" height="1.025" fill="#b7b7b7" />
<rect x="10.250" y="29.725" width="1.025" height="1.025" fill="#cccccc" />
<rect x="11.275" y="29.725" width="1.025" height="1.025" fill="#b8b8b8" />
<rect x="12.300" y="29.725" width="1.025" height="1.025" fill="#8c8c8c" />
<rect x="13.325" y="29.725" width="1.025" height="1.025" fill="#a2a2a2" />
<rect x="14.350" y="29.725" width="1.025" height="1.025" fill="#a2a2a2" />
<rect x="19.475" y="29.725" width="1.025" height="1.025" fill="#8a8a8a" />
<rect x="20.500" y="29.725" width="1.025" height="1.025" fill="#929292" />
<rect x="21.525" y="29.725" width="1.025" height="1.025" fill="#b5b5b5" />
<rect x="22.550" y="29.725" width="1.025" height="1.025" fill="#cacaca" />
<rect x="23.575" y="29.725" width="1.025" height="1.025" fill="#adadad" />
<rect x="7.175" y="30.750" width="1.025" height="1.025" fill="#bcbcbc" />
<rect x="8.200" y="30.750" width="1.025" height="1.025" fill="#b5b5b5" />
<rect x="9.225" y="30.750" width="1.025" height="1.025" fill="#c6c6c6" />
<rect x="10.250" y="30.750" width="1.025" height="1.025" fill="#c6c6c6" />
<rect x="11.275" y="30.750" width="1.025" height="1.025" fill="#c3c3c3" />
<rect x="12.300" y="30.750" width="1.025" height="1.025" fill="#c3c3c3" />
<rect x="13.325" y="30.750" width="1.025" height="1.025" fill="#8c8c8c" />
<rect x="14.350" y="30.750" width="1.025" height="1.025" fill="#a2a2a2" />
<rect x="15.375" y="30.750" width="1.025" height="1.025" fill="#a2a2a2" />
<rect x="19.475" y="30.750" width="1.025" height="1.025" fill="#8e8e8e" />
<rect x="20.500" y="30.750" width="1.025" height="1.025" fill="#8c8c8c" />
<rect x="21.525" y="30.750" width="1.025" height="1.025" fill="#cacaca" />
<rect x="22.550" y="30.750" width="1.025" height="1.025" fill="#c3c3c3" />
<rect x="23.575" y="30.750" width="1.025" height="1.025" fill="#bebebe" />
<rect x="24.600" y="30.750" width="1.025" height="1.025" fill="#cecece" />
<rect x="25.625" y="30.750" width="1.025" height="1.025" fill="#adadad" />
<rect x="6.150" y="31.775" width="1.025" height="1.025" fill="#c1c1c1" />
<rect x="7.175" y="31.775" width="1.025" height="1.025" fill="#acacac" />
<rect x="8.200" y="31.775" width="1.025" height="1.025" fill="#cacaca" />
<rect x="9.225" y="31.775" width="1.025" height="1.025" fill="#cfcfcf" />
<rect x="10.250" y="31.775" width="1.025" height="1.025" fill="#cecece" />
<rect x="11.275" y="31.775" width="1.025" height="1.025" fill="#c9c9c9" />
<rect x="12.300" y="31.775" width="1.025" height="1.025" fill="#cecece" />
<rect x="13.325" y="31.775" width="1.025" height="1.025" fill="#cecece" />
<rect x="14.350" y="31.775" width="1.025" height="1.025" fill="#8c8c8c" />
<rect x="15.375" y="31.775" width="1.025" height="1.025" fill="#a2a2a2" />
<rect x="18.450" y="31.775" width="1.025" height="1.025" fill="#8c8c8c" />
<rect x="19.475" y="31.775" width="1.025" height="1.025" fill="#8c8c8c" />
<rect x="20.500" y="31.775" width="1.025" height="1.025" fill="#cecece" />
<rect x="21.525" y="31.775" width="1.025" height="1.025" fill="#cecece" />
<rect x="22.550" y="31.775" width="1.025" height="1.025" fill="#cacaca" />
<rect x="23.575" y="31.775" width="1.025" height="1.025" fill="#c6c6c6" />
<rect x="24.600" y="31.775" width="1.025" height="1.025" fill="#cecece" />
<rect x="25.625" y="31.775" width="1.025" height="1.025" fill="#c5c5c5" />
<rect x="26.650" y="31.775" width="1.025" height="1.025" fill="#adadad" />
<rect x="5.125" y="32.800" width="1.025" height="1.025" fill="#b5b5b5" />
<rect x="6.150" y="32.800" width="1.025" height="1.025" fill="#c1c1c1" />
<rect x="7.175" y="32.800" width="1.025" height="1.025" fill="#bebebe" />
<rect x="8.200" y="32.800" width="1.025" height="1.025" fill="#cacaca" />
<rect x="9.225" y="32.800" width="1.025" height="1.025" fill="#cfcfcf" />
<rect x="10.250" y="32.800" width="1.025" height="1.025" fill="#cecece" />
<rect x="11.275" y="32.800" width="1.025" height="1.025" fill="#c9c9c9" />
<rect x="12.300" y="32.800" width="1.025" height="1.025" fill="#cecece" />
<rect x="13.325" y="32.800" width="1.025" height="1.025" fill="#cecece" />
<rect x="14.350" y="32.800" width="1.025" height="1.025" fill="#cecece" />
<rect x="15.375" y="32.800" width="1.025" height="1.025" fill="#909090" />
<rect x="16.400" y="32.800" width="1.025" height="1.025" fill="#a2a2a2" />
<rect x="18.450" y="32.800" width="1.025" height="1.025" fill="#7a7a7a" fill-opacity="0.953" />
<rect x="19.475" y="32.800" width="1.025" height="1.025" fill="#8c8c8c" />
<rect x="20.500" y="32.800" width="1.025" height="1.025" fill="#cecece" />
<rect x="21.525" y="32.800" width="1.025" height="1.025" fill="#cecece" />
<rect x="22.550" y="32.800" width="1.025" height="1.025" fill="#cccccc" />
<rect x="23.575" y="32.800" width="1.025" height="1.025" fill="#cacaca" />
<rect x="24.600" y="32.800" width="1.025" height="1.025" fill="#c6c6c6" />
<rect x="25.625" y="32.800" width="1.025" height="1.025" fill="#cfcfcf" />
<rect x="26.650" y="32.800" width="1.025" height="1.025" fill="#c3c3c3" />
<rect x="27.675" y="32.800" width="1.025" height="1.025" fill="#adadad" />
<rect x="4.100" y="33.825" width="1.025" height="1.025" fill="#b5b5b5" />
<rect x="5.125" y="33.825" width="1.025" height="1.025" fill="#c1c1c1" />
<rect x="6.150" y="33.825" width="1.025" height="1.025" fill="#c3c3c3" />
<rect x="7.175" y="33.825" width="1.025" height="1.025" fill="#bababa" />
<rect x="8.200" y="33.825" width="1.025" height="1.025" fill="#cacaca" />
<rect x="9.225" y="33.825" width="1.025" height="1.025" fill="#cfcfcf" />
<rect x="10.250" y="33.825" width="1.025" height="1.025" fill="#a6a6a6" />
<rect x="11.275" y="33.825" width="1.025" height="1.025" fill="#bebebe" />
<rect x="12.300" y="33.825" width="1.025" height="1.025" fill="#cecece" />
<rect x="13.325" y="33.825" width="1.025" height="1.025" fill="#d1d1d1" />
<rect x="14.350" y="33.825" width="1.025" height="1.025" fill="#cfcfcf" />
<rect x="15.375" y="33.825" width="1.025" height="1.025" fill="#8c8c8c" />
<rect x="16.400" y="33.825" width="1.025" height="1.025" fill="#858585" />
<rect x="17.425" y="33.825" width="1.025" height="1.025" fill="#7a7a7a" fill-opacity="0.949" />
<rect x="18.450" y="33.825" width="1.025" height="1.025" fill="#8e8e8e" fill-opacity="0.953" />
<rect x="19.475" y="33.825" width="1.025" height="1.025" fill="#cecece" />
<rect x="20.500" y="33.825" width="1.025" height="1.025" fill="#d1d1d1" />
<rect x="21.525" y="33.825" width="1.025" height="1.025" fill="#cecece" />
<rect x="22.550" y="33.825" width="1.025" height="1.025" fill="#cccccc" />
<rect x="23.575" y="33.825" width="1.025" height="1.025" fill="#b7b7b7" />
<rect x="24.600" y="33.825" width="1.025" height="1.025" fill="#a0a0a0" />
<rect x="25.625" y="33.825" width="1.025" height="1.025" fill="#c3c3c3" />
<rect x="26.650" y="33.825" width="1.025" height="1.025" fill="#cfcfcf" />
<rect x="27.675" y="33.825" width="1.025" height="1.025" fill="#c3c3c3" />
<rect x="28.700" y="33.825" width="1.025" height="1.025" fill="#adadad" />
<rect x="3.075" y="34.850" width="1.025" height="1.025" fill="#bcbcbc" />
<rect x="4.100" y="34.850" width="1.025" height="1.025" fill="#c3c3c3" />
<rect x="5.125" y="34.850" width="1.025" height="1.025" fill="#c3c3c3" />
<rect x="6.150" y="34.850" width="1.025" height="1.025" fill="#bebebe" />
<rect x="7.175" y="34.850" width="1.025" height="1.025" fill="#bababa" />
<rect x="8.200" y="34.850" width="1.025" height="1.025" fill="#cacaca" />
<rect x="9.225" y="34.850" width="1.025" height="1.025" fill="#c1c1c1" />
<rect x="10.250" y="34.850" width="1.025" height="1.025" fill="#8e8e8e" />
<rect x="11.275" y="34.850" width="1.025" height="1.025" fill="#a6a6a6" />
<rect x="12.300" y="34.850" width="1.025" height="1.025" fill="#cacaca" />
<rect x="13.325" y="34.850" width="1.025" height="1.025" fill="#c5c5c5" />
<rect x="14.350" y="34.850" width="1.025" height="1.025" fill="#cacaca" />
<rect x="15.375" y="34.850" width="1.025" height="1.025" fill="#d1d1d1" />
<rect x="16.400" y="34.850" width="1.025" height="1.025" fill="#adadad" />
<rect x="17.425" y="34.850" width="1.025" height="1.025" fill="#7a7a7a" fill-opacity="0.953" />
<rect x="18.450" y="34.850" width="1.025" height="1.025" fill="#8e8e8e" />
<rect x="19.475" y="34.850" width="1.025" height="1.025" fill="#cecece" />
<rect x="20.500" y="34.850" width="1.025" height="1.025" fill="#d1d1d1" />
<rect x="21.525" y="34.850" width="1.025" height="1.025" fill="#cccccc" />
<rect x="22.550" y="34.850" width="1.025" height="1.025" fill="#cccccc" />
<rect x="23.575" y="34.850" width="1.025" height="1.025" fill="#b7b7b7" />
<rect x="24.600" y="34.850" width="1.025" height="1.025" fill="#7a7a7a" />
<rect x="25.625" y="34.850" width="1.025" height="1.025" fill="#c3c3c3" />
<rect x="26.650" y="34.850" width="1.025" height="1.025" fill="#c3c3c3" />
<rect x="27.675" y="34.850" width="1.025" height="1.025" fill="#cfcfcf" />
<rect x="28.700" y="34.850" width="1.025" height="1.025" fill="#cfcfcf" />
<rect x="29.725" y="34.850" width="1.025" height="1.025" fill="#d4d4d4" />
<rect x="3.075" y="35.875" width="1.025" height="1.025" fill="#c3c3c3" />
<rect x="4.100" y="35.875" width="1.025" height="1.025" fill="#bebebe" />
<rect x="5.125" y="35.875" width="1.025" height="1.025" fill="#bebebe" />
<rect x="6.150" y="35.875" width="1.025" height="1.025" fill="#bebebe" />
<rect x="7.175" y="35.875" width="1.025" height="1.025" fill="#bababa" />
<rect x="8.200" y="35.875" width="1.025" height="1.025" fill="#cacaca" />
<rect x="9.225" y="35.875" width="1.025" height="1.025" fill="#aaaaaa" />
<rect x="10.250" y="35.875" width="1.025" height="1.025" fill="#7a7a7a" />
<rect x="11.275" y="35.875" width="1.025" height="1.025" fill="#929292" />
<rect x="12.300" y="35.875" width="1.025" height="1.025" fill="#b5b5b5" />
<rect x="13.325" y="35.875" width="1.025" height="1.025" fill="#b0b0b0" />
<rect x="14.350" y="35.875" width="1.025" height="1.025" fill="#bcbcbc" />
<rect x="15.375" y="35.875" width="1.025" height="1.025" fill="#c0c0c0" />
<rect x="16.400" y="35.875" width="1.025" height="1.025" fill="#8a8a8a" />
<rect x="17.425" y="35.875" width="1.025" height="1.025" fill="#9c9c9c" />
<rect x="18.450" y="35.875" width="1.025" height="1.025" fill="#cecece" />
<rect x="19.475" y="35.875" width="1.025" height="1.025" fill="#cecece" />
<rect x="20.500" y="35.875" width="1.025" height="1.025" fill="#cccccc" />
<rect x="21.525" y="35.875" width="1.025" height="1.025" fill="#cacaca" />
<rect x="22.550" y="35.875" width="1.025" height="1.025" fill="#b5b5b5" />
<rect x="23.575" y="35.875" width="1.025" height="1.025" fill="#a0a0a0" />
<rect x="24.600" y="35.875" width="1.025" height="1.025" fill="#818181" />
<rect x="25.625" y="35.875" width="1.025" height="1.025" fill="#c0c0c0" />
<rect x="26.650" y="35.875" width="1.025" height="1.025" fill="#bababa" />
<rect x="27.675" y="35.875" width="1.025" height="1.025" fill="#c3c3c3" />
<rect x="28.700" y="35.875" width="1.025" height="1.025" fill="#c3c3c3" />
<rect x="29.725" y="35.875" width="1.025" height="1.025" fill="#bebebe" />
<rect x="3.075" y="36.900" width="1.025" height="1.025" fill="#a6a6a6" />
<rect x="4.100" y="36.900" width="1.025" height="1.025" fill="#bebebe" />
<rect x="5.125" y="36.900" width="1.025" height="1.025" fill="#bebebe" />
<rect x="6.150" y="36.900" width="1.025" height="1.025" fill="#bebebe" />
<rect x="7.175" y="36.900" width="1.025" height="1.025" fill="#bababa" />
<rect x="8.200" y="36.900" width="1.025" height="1.025" fill="#cacaca" />
<rect x="9.225" y="36.900" width="1.025" height="1.025" fill="#9c9c9c" />
<rect x="10.250" y="36.900" width="1.025" height="1.025" fill="#7a7a7a" />
<rect x="11.275" y="36.900" width="1.025" height="1.025" fill="#929292" />
<rect x="12.300" y="36.900" width="1.025" height="1.025" fill="#a0a0a0" />
<rect x="13.325" y="36.900" width="1.025" height="1.025" fill="#adadad" />
<rect x="14.350" y="36.900" width="1.025" height="1.025" fill="#b0b0b0" />
<rect x="15.375" y="36.900" width="1.025" height="1.025" fill="#7d7d7d" />
<rect x="16.400" y="36.900" width="1.025" height="1.025" fill="#9c9c9c" />
<rect x="17.425" y="36.900" width="1.025" height="1.025" fill="#8c8c8c" />
<rect x="18.450" y="36.900" width="1.025" height="1.025" fill="#cecece" />
<rect x="19.475" y="36.900" width="1.025" height="1.025" fill="#b5b5b5" />
<rect x="20.500" y="36.900" width="1.025" height="1.025" fill="#bebebe" />
<rect x="21.525" y="36.900" width="1.025" height="1.025" fill="#bebebe" />
<rect x="22.550" y="36.900" width="1.025" height="1.025" fill="#b5b5b5" />
<rect x="23.575" y="36.900" width="1.025" height="1.025" fill="#969696" />
<rect x="24.600" y="36.900" width="1.025" height="1.025" fill="#7a7a7a" />
<rect x="25.625" y="36.900" width="1.025" height="1.025" fill="#c0c0c0" />
<rect x="26.650" y="36.900" width="1.025" height="1.025" fill="#bababa" />
<rect x="27.675" y="36.900" width="1.025" height="1.025" fill="#bababa" />
<rect x="28.700" y="36.900" width="1.025" height="1.025" fill="#bababa" />
<rect x="29.725" y="36.900" width="1.025" height="1.025" fill="#adadad" />
</svg>