<svg xmlns="http://www.w3.org/2000/svg" width="37.925" height="37.925" shape-rendering="crispEdges" style="image-rendering: pixelated;">
<rect x="12.300" y="27.675" width="1.025" height="1.025" fill="#070f11" />
<rect x="19.475" y="27.675" width="1.025" height="1.025" fill="#070f11" />
<rect x="11.275" y="28.700" width="1.025" height="1.025" fill="#1e414c" />
<rect x="12.300" y="28.700" width="1.025" height="1.025" fill="#070f11" />
<rect x="13.325" y="28.700" width="1.025" height="1.025" fill="#102228" />
<rect x="19.475" y="28.700" width="1.025" height="1.025" fill="#070f11" />
<rect x="20.500" y="28.700" width="1.025" height="1.025" fill="#070f11" />
<rect x="21.525" y="28.700" width="1.025" height="1.025" fill="#1f434f" />
<rect x="9.225" y="29.725" width="1.025" height="1.025" fill="#1a3841" />
<rect x="10.250" y="29.725" width="1.025" height="1.025" fill="#3e626d" />
<rect x="11.275" y="29.725" width="1.025" height="1.025" fill="#1a3842" />
<rect x="12.300" y="29.725" width="1.025" height="1.025" fill="#070f11" />
<rect x="13.325" y="29.725" width="1.025" height="1.025" fill="#102228" />
<rect x="14.350" y="29.725" width="1.025" height="1.025" fill="#102228" />
<rect x="19.475" y="29.725" width="1.025" height="1.025" fill="#060c0e" />
<rect x="20.500" y="29.725" width="1.025" height="1.025" fill="#0a1518" />
<rect x="21.525" y="29.725" width="1.025" height="1.025" fill="#19363f" />
<rect x="22.550" y="29.725" width="1.025" height="1.025" fill="#3d5f6b" />
<rect x="23.575" y="29.725" width="1.025" height="1.025" fill="#162f37" />
<rect x="7.175" y="30.750" width="1.025" height="1.025" fill="#1c3d47" />
<rect x="8.200" y="30.750" width="1.025" height="1.025" fill="#344d55" />
<rect x="9.225" y="30.750" width="1.025" height="1.025" fill="#204652" />
<rect x="10.250" y="30.750" width="1.025" height="1.025" fill="#3c5e69" />
<rect x="11.275" y="30.750" width="1.025" height="1.025" fill="#1f434e" />
<rect x="12.300" y="30.750" width="1.025" height="1.025" fill="#3a5a64" />
<rect x="13.325" y="30.750" width="1.025" height="1.025" fill="#070f11" />
<rect x="14.350" y="30.750" width="1.025" height="1.025" fill="#102228" />
<rect x="15.375" y="30.750" width="1.025" height="1.025" fill="#102228" />
<rect x="18.450" y="30.750" width="1.025" height="1.025" fill="#0e1e23" />
<rect x="19.475" y="30.750" width="1.025" height="1.025" fill="#081114" />
<rect x="20.500" y="30.750" width="1.025" height="1.025" fill="#070f11" />
<rect x="21.525" y="30.750" width="1.025" height="1.025" fill="#3e616c" />
<rect x="22.550" y="30.750" width="1.025" height="1.025" fill="#1f434f" />
<rect x="23.575" y="30.750" width="1.025" height="1.025" fill="#1c3d48" />
<rect x="24.600" y="30.750" width="1.025" height="1.025" fill="#3f6470" />
<rect x="25.625" y="30.750" width="1.025" height="1.025" fill="#162f37" />
<rect x="6.150" y="31.775" width="1.025" height="1.025" fill="#1e414c" />
<rect x="7.175" y="31.775" width="1.025" height="1.025" fill="#31454b" />
<rect x="8.200" y="31.775" width="1.025" height="1.025" fill="#234b58" />
<rect x="9.225" y="31.775" width="1.025" height="1.025" fill="#25505e" />
<rect x="10.250" y="31.775" width="1.025" height="1.025" fill="#3f646f" />
<rect x="11.275" y="31.775" width="1.025" height="1.025" fill="#214855" />
<rect x="12.300" y="31.775" width="1.025" height="1.025" fill="#3f646f" />
<rect x="13.325" y="31.775" width="1.025" height="1.025" fill="#244e5c" />
<rect x="14.350" y="31.775" width="1.025" height="1.025" fill="#070f11" />
<rect x="15.375" y="31.775" width="1.025" height="1.025" fill="#102228" />
<rect x="16.400" y="31.775" width="1.025" height="1.025" fill="#102228" />
<rect x="18.450" y="31.775" width="1.025" height="1.025" fill="#0e1e23" />
<rect x="19.475" y="31.775" width="1.025" height="1.025" fill="#070f11" />
<rect x="20.500" y="31.775" width="1.025" height="1.025" fill="#244e5c" />
<rect x="21.525" y="31.775" width="1.025" height="1.025" fill="#3f6470" />
<rect x="22.550" y="31.775" width="1.025" height="1.025" fill="#234b58" />
<rect x="23.575" y="31.775" width="1.025" height="1.025" fill="#3c5e69" />
<rect x="24.600" y="31.775" width="1.025" height="1.025" fill="#244e5c" />
<rect x="25.625" y="31.775" width="1.025" height="1.025" fill="#3b5c66" />
<rect x="26.650" y="31.775" width="1.025" height="1.025" fill="#152c34" />
<rect x="5.125" y="32.800" width="1.025" height="1.025" fill="#18343d" />
<rect x="6.150" y="32.800" width="1.025" height="1.025" fill="#395862" />
<rect x="7.175" y="32.800" width="1.025" height="1.025" fill="#1c3d48" />
<rect x="8.200" y="32.800" width="1.025" height="1.025" fill="#224956" />
<rect x="9.225" y="32.800" width="1.025" height="1.025" fill="#406572" />
<rect x="10.250" y="32.800" width="1.025" height="1.025" fill="#3f6470" />
<rect x="11.275" y="32.800" width="1.025" height="1.025" fill="#214855" />
<rect x="12.300" y="32.800" width="1.025" height="1.025" fill="#3f6470" />
<rect x="13.325" y="32.800" width="1.025" height="1.025" fill="#244e5c" />
<rect x="14.350" y="32.800" width="1.025" height="1.025" fill="#3f6470" />
<rect x="15.375" y="32.800" width="1.025" height="1.025" fill="#091316" />
<rect x="16.400" y="32.800" width="1.025" height="1.025" fill="#102228" />
<rect x="17.425" y="32.800" width="1.025" height="1.025" fill="#102228" />
<rect x="18.450" y="32.800" width="1.025" height="1.025" fill="#070f11" />
<rect x="19.475" y="32.800" width="1.025" height="1.025" fill="#070f11" />
<rect x="20.500" y="32.800" width="1.025" height="1.025" fill="#244e5c" />
<rect x="21.525" y="32.800" width="1.025" height="1.025" fill="#3f6470" />
<rect x="22.550" y="32.800" width="1.025" height="1.025" fill="#234c59" />
<rect x="23.575" y="32.800" width="1.025" height="1.025" fill="#3d5f6b" />
<rect x="24.600" y="32.800" width="1.025" height="1.025" fill="#214854" />
<rect x="25.625" y="32.800" width="1.025" height="1.025" fill="#25505e" />
<rect x="26.650" y="32.800" width="1.025" height="1.025" fill="#3a5a64" />
<rect x="27.675" y="32.800" width="1.025" height="1.025" fill="#162f37" />
<rect x="4.100" y="33.825" width="1.025" height="1.025" fill="#18343d" />
<rect x="5.125" y="33.825" width="1.025" height="1.025" fill="#395862" />
<rect x="6.150" y="33.825" width="1.025" height="1.025" fill="#1f434e" />
<rect x="7.175" y="33.825" width="1.025" height="1.025" fill="#1b3a44" />
<rect x="8.200" y="33.825" width="1.025" height="1.025" fill="#3e616c" />
<rect x="9.225" y="33.825" width="1.025" height="1.025" fill="#25505e" />
<rect x="10.250" y="33.825" width="1.025" height="1.025" fill="#11252b" />
<rect x="11.275" y="33.825" width="1.025" height="1.025" fill="#1d3e49" />
<rect x="12.300" y="33.825" width="1.025" height="1.025" fill="#3f6470" />
<rect x="13.325" y="33.825" width="1.025" height="1.025" fill="#25515f" />
<rect x="14.350" y="33.825" width="1.025" height="1.025" fill="#406572" />
<rect x="15.375" y="33.825" width="1.025" height="1.025" fill="#070f11" />
<rect x="16.400" y="33.825" width="1.025" height="1.025" fill="#04090a" />
<rect x="17.425" y="33.825" width="1.025" height="1.025" fill="#000000" fill-opacity="0.949" />
<rect x="18.450" y="33.825" width="1.025" height="1.025" fill="#081114" fill-opacity="0.953" />
<rect x="19.475" y="33.825" width="1.025" height="1.025" fill="#3f6470" />
<rect x="20.500" y="33.825" width="1.025" height="1.025" fill="#25515f" />
<rect x="21.525" y="33.825" width="1.025" height="1.025" fill="#3f6470" />
<rect x="22.550" y="33.825" width="1.025" height="1.025" fill="#234c59" />
<rect x="23.575" y="33.825" width="1.025" height="1.025" fill="#365058" />
<rect x="24.600" y="33.825" width="1.025" height="1.025" fill="#102127" />
<rect x="25.625" y="33.825" width="1.025" height="1.025" fill="#3a5a64" />
<rect x="26.650" y="33.825" width="1.025" height="1.025" fill="#25505e" />
<rect x="27.675" y="33.825" width="1.025" height="1.025" fill="#3a5a64" />
<rect x="28.700" y="33.825" width="1.025" height="1.025" fill="#162f37" />
<rect x="3.075" y="34.850" width="1.025" height="1.025" fill="#1c3d47" />
<rect x="4.100" y="34.850" width="1.025" height="1.025" fill="#3a5a64" />
<rect x="5.125" y="34.850" width="1.025" height="1.025" fill="#1f434e" />
<rect x="6.150" y="34.850" width="1.025" height="1.025" fill="#1c3d48" />
<rect x="7.175" y="34.850" width="1.025" height="1.025" fill="#37525b" />
<rect x="8.200" y="34.850" width="1.025" height="1.025" fill="#224956" />
<rect x="9.225" y="34.850" width="1.025" height="1.025" fill="#1e414c" />
<rect x="10.250" y="34.850" width="1.025" height="1.025" fill="#081013" />
<rect x="11.275" y="34.850" width="1.025" height="1.025" fill="#12272e" />
<rect x="12.300" y="34.850" width="1.025" height="1.025" fill="#3e616c" />
<rect x="13.325" y="34.850" width="1.025" height="1.025" fill="#204551" />
<rect x="14.350" y="34.850" width="1.025" height="1.025" fill="#3e616c" />
<rect x="15.375" y="34.850" width="1.025" height="1.025" fill="#25515f" />
<rect x="16.400" y="34.850" width="1.025" height="1.025" fill="#162f37" />
<rect x="17.425" y="34.850" width="1.025" height="1.025" fill="#000000" fill-opacity="0.953" />
<rect x="18.450" y="34.850" width="1.025" height="1.025" fill="#081114" />
<rect x="19.475" y="34.850" width="1.025" height="1.025" fill="#3f6470" />
<rect x="20.500" y="34.850" width="1.025" height="1.025" fill="#25515f" />
<rect x="21.525" y="34.850" width="1.025" height="1.025" fill="#3e626d" />
<rect x="22.550" y="34.850" width="1.025" height="1.025" fill="#234c59" />
<rect x="23.575" y="34.850" width="1.025" height="1.025" fill="#365058" />
<rect x="24.600" y="34.850" width="1.025" height="1.025" fill="#000000" />
<rect x="25.625" y="34.850" width="1.025" height="1.025" fill="#1f434f" />
<rect x="26.650" y="34.850" width="1.025" height="1.025" fill="#3a5a64" />
<rect x="27.675" y="34.850" width="1.025" height="1.025" fill="#25505e" />
<rect x="28.700" y="34.850" width="1.025" height="1.025" fill="#406572" />
<rect x="29.725" y="34.850" width="1.025" height="1.025" fill="#275463" />
<rect x="3.075" y="35.875" width="1.025" height="1.025" fill="#3a5a64" />
<rect x="4.100" y="35.875" width="1.025" height="1.025" fill="#1c3d48" />
<rect x="5.125" y="35.875" width="1.025" height="1.025" fill="#1c3d48" />
<rect x="6.150" y="35.875" width="1.025" height="1.025" fill="#38555e" />
<rect x="7.175" y="35.875" width="1.025" height="1.025" fill="#1b3a44" />
<rect x="8.200" y="35.875" width="1.025" height="1.025" fill="#3d5f6b" />
<rect x="9.225" y="35.875" width="1.025" height="1.025" fill="#142a31" />
<rect x="10.250" y="35.875" width="1.025" height="1.025" fill="#000000" />
<rect x="11.275" y="35.875" width="1.025" height="1.025" fill="#091417" />
<rect x="12.300" y="35.875" width="1.025" height="1.025" fill="#354e55" />
<rect x="13.325" y="35.875" width="1.025" height="1.025" fill="#163038" />
<rect x="14.350" y="35.875" width="1.025" height="1.025" fill="#37535c" />
<rect x="15.375" y="35.875" width="1.025" height="1.025" fill="#1e404b" />
<rect x="16.400" y="35.875" width="1.025" height="1.025" fill="#070e10" />
<rect x="17.425" y="35.875" width="1.025" height="1.025" fill="#0e1e23" />
<rect x="18.450" y="35.875" width="1.025" height="1.025" fill="#244e5c" />
<rect x="19.475" y="35.875" width="1.025" height="1.025" fill="#3f6470" />
<rect x="20.500" y="35.875" width="1.025" height="1.025" fill="#234c59" />
<rect x="21.525" y="35.875" width="1.025" height="1.025" fill="#3e616c" />
<rect x="22.550" y="35.875" width="1.025" height="1.025" fill="#18343d" />
<rect x="23.575" y="35.875" width="1.025" height="1.025" fill="#2d3c41" />
<rect x="24.600" y="35.875" width="1.025" height="1.025" fill="#030607" />
<rect x="25.625" y="35.875" width="1.025" height="1.025" fill="#1e404b" />
<rect x="26.650" y="35.875" width="1.025" height="1.025" fill="#37525b" />
<rect x="27.675" y="35.875" width="1.025" height="1.025" fill="#1f434f" />
<rect x="28.700" y="35.875" width="1.025" height="1.025" fill="#3a5a64" />
<rect x="29.725" y="35.875" width="1.025" height="1.025" fill="#1c3d48" />
<rect x="3.075" y="36.900" width="1.025" height="1.025" fill="#12272e" />
<rect x="4.100" y="36.900" width="1.025" height="1.025" fill="#1c3d48" />
<rect x="5.125" y="36.900" width="1.025" height="1.025" fill="#38555e" />
<rect x="6.150" y="36.900" width="1.025" height="1.025" fill="#1c3d48" />
<rect x="7.175" y="36.900" width="1.025" height="1.025" fill="#1b3a44" />
<rect x="8.200" y="36.900" width="1.025" height="1.025" fill="#3d5f6b" />
<rect x="9.225" y="36.900" width="1.025" height="1.025" fill="#0d1c21" />
<rect x="10.250" y="36.900" width="1.025" height="1.025" fill="#000000" />
<rect x="11.275" y="36.900" width="1.025" height="1.025" fill="#0a1518" />
<rect x="12.300" y="36.900" width="1.025" height="1.025" fill="#2d3c41" />
<rect x="13.325" y="36.900" width="1.025" height="1.025" fill="#162f37" />
<rect x="14.350" y="36.900" width="1.025" height="1.025" fill="#324950" />
<rect x="15.375" y="36.900" width="1.025" height="1.025" fill="#020303" />
<rect x="16.400" y="36.900" width="1.025" height="1.025" fill="#0e1e23" />
<rect x="17.425" y="36.900" width="1.025" height="1.025" fill="#070f11" />
<rect x="18.450" y="36.900" width="1.025" height="1.025" fill="#244e5c" />
<rect x="19.475" y="36.900" width="1.025" height="1.025" fill="#354e55" />
<rect x="20.500" y="36.900" width="1.025" height="1.025" fill="#1c3d48" />
<rect x="21.525" y="36.900" width="1.025" height="1.025" fill="#38555e" />
<rect x="22.550" y="36.900" width="1.025" height="1.025" fill="#19353e" />
<rect x="23.575" y="36.900" width="1.025" height="1.025" fill="#2a3538" />
<rect x="24.600" y="36.900" width="1.025" height="1.025" fill="#000000" />
<rect x="25.625" y="36.900" width="1.025" height="1.025" fill="#1e404b" />
<rect x="26.650" y="36.900" width="1.025" height="1.025" fill="#37525b" />
<rect x="27.675" y="36.900" width="1.025" height="1.025" fill="#1b3a44" />
<rect x="28.700" y="36.900" width="1.025" height="1.025" fill="#37525b" />
<rect x="29.725" y="36.900" width="1.025" height="1.025" fill="#152d35" />
</svg>