<svg xmlns="http://www.w3.org/2000/svg" width="37.925" height="37.925" shape-rendering="crispEdges" style="image-rendering: pixelated;">
<rect x="12.300" y="27.675" width="1.025" height="1.025" fill="#7e2b00" />
<rect x="19.475" y="27.675" width="1.025" height="1.025" fill="#7e2b00" />
<rect x="11.275" y="28.700" width="1.025" height="1.025" fill="#be4200" />
<rect x="12.300" y="28.700" width="1.025" height="1.025" fill="#7e2b00" />
<rect x="13.325" y="28.700" width="1.025" height="1.025" fill="#7e2b00" />
<rect x="19.475" y="28.700" width="1.025" height="1.025" fill="#7e2b00" />
<rect x="20.500" y="28.700" width="1.025" height="1.025" fill="#7e2b00" />
<rect x="21.525" y="28.700" width="1.025" height="1.025" fill="#c24300" />
<rect x="9.225" y="29.725" width="1.025" height="1.025" fill="#b23d00" />
<rect x="10.250" y="29.725" width="1.025" height="1.025" fill="#f05300" />
<rect x="11.275" y="29.725" width="1.025" height="1.025" fill="#b23d00" />
<rect x="12.300" y="29.725" width="1.025" height="1.025" fill="#7e2b00" />
<rect x="13.325" y="29.725" width="1.025" height="1.025" fill="#963400" />
<rect x="14.350" y="29.725" width="1.025" height="1.025" fill="#963400" />
<rect x="19.475" y="29.725" width="1.025" height="1.025" fill="#7a2a00" />
<rect x="20.500" y="29.725" width="1.025" height="1.025" fill="#842e00" />
<rect x="21.525" y="29.725" width="1.025" height="1.025" fill="#b03d00" />
<rect x="22.550" y="29.725" width="1.025" height="1.025" fill="#f05300" />
<rect x="23.575" y="29.725" width="1.025" height="1.025" fill="#a63900" />
<rect x="7.175" y="30.750" width="1.025" height="1.025" fill="#b83f00" />
<rect x="8.200" y="30.750" width="1.025" height="1.025" fill="#d64a00" />
<rect x="9.225" y="30.750" width="1.025" height="1.025" fill="#c44400" />
<rect x="10.250" y="30.750" width="1.025" height="1.025" fill="#ec5100" />
<rect x="11.275" y="30.750" width="1.025" height="1.025" fill="#c04200" />
<rect x="12.300" y="30.750" width="1.025" height="1.025" fill="#e85000" />
<rect x="13.325" y="30.750" width="1.025" height="1.025" fill="#7e2b00" />
<rect x="14.350" y="30.750" width="1.025" height="1.025" fill="#963400" />
<rect x="15.375" y="30.750" width="1.025" height="1.025" fill="#963400" />
<rect x="19.475" y="30.750" width="1.025" height="1.025" fill="#802c00" />
<rect x="20.500" y="30.750" width="1.025" height="1.025" fill="#7e2b00" />
<rect x="21.525" y="30.750" width="1.025" height="1.025" fill="#f05300" />
<rect x="22.550" y="30.750" width="1.025" height="1.025" fill="#c24300" />
<rect x="23.575" y="30.750" width="1.025" height="1.025" fill="#ba4000" />
<rect x="24.600" y="30.750" width="1.025" height="1.025" fill="#f45400" />
<rect x="25.625" y="30.750" width="1.025" height="1.025" fill="#a63900" />
<rect x="6.150" y="31.775" width="1.025" height="1.025" fill="#be4200" />
<rect x="7.175" y="31.775" width="1.025" height="1.025" fill="#cc4600" />
<rect x="8.200" y="31.775" width="1.025" height="1.025" fill="#ca4600" />
<rect x="9.225" y="31.775" width="1.025" height="1.025" fill="#d04800" />
<rect x="10.250" y="31.775" width="1.025" height="1.025" fill="#f45400" />
<rect x="11.275" y="31.775" width="1.025" height="1.025" fill="#c84500" />
<rect x="12.300" y="31.775" width="1.025" height="1.025" fill="#f45400" />
<rect x="13.325" y="31.775" width="1.025" height="1.025" fill="#d04800" />
<rect x="14.350" y="31.775" width="1.025" height="1.025" fill="#7e2b00" />
<rect x="15.375" y="31.775" width="1.025" height="1.025" fill="#963400" />
<rect x="18.450" y="31.775" width="1.025" height="1.025" fill="#7e2b00" />
<rect x="19.475" y="31.775" width="1.025" height="1.025" fill="#7e2b00" />
<rect x="20.500" y="31.775" width="1.025" height="1.025" fill="#d04800" />
<rect x="21.525" y="31.775" width="1.025" height="1.025" fill="#f45400" />
<rect x="22.550" y="31.775" width="1.025" height="1.025" fill="#ca4600" />
<rect x="23.575" y="31.775" width="1.025" height="1.025" fill="#ec5100" />
<rect x="24.600" y="31.775" width="1.025" height="1.025" fill="#d04800" />
<rect x="25.625" y="31.775" width="1.025" height="1.025" fill="#e85000" />
<rect x="26.650" y="31.775" width="1.025" height="1.025" fill="#a43900" />
<rect x="5.125" y="32.800" width="1.025" height="1.025" fill="#ac3b00" />
<rect x="6.150" y="32.800" width="1.025" height="1.025" fill="#e44f00" />
<rect x="7.175" y="32.800" width="1.025" height="1.025" fill="#ba4000" />
<rect x="8.200" y="32.800" width="1.025" height="1.025" fill="#ca4600" />
<rect x="9.225" y="32.800" width="1.025" height="1.025" fill="#f85600" />
<rect x="10.250" y="32.800" width="1.025" height="1.025" fill="#f45400" />
<rect x="11.275" y="32.800" width="1.025" height="1.025" fill="#c84500" />
<rect x="12.300" y="32.800" width="1.025" height="1.025" fill="#f45400" />
<rect x="13.325" y="32.800" width="1.025" height="1.025" fill="#d04800" />
<rect x="14.350" y="32.800" width="1.025" height="1.025" fill="#f45400" />
<rect x="15.375" y="32.800" width="1.025" height="1.025" fill="#822d00" />
<rect x="16.400" y="32.800" width="1.025" height="1.025" fill="#963400" />
<rect x="18.450" y="32.800" width="1.025" height="1.025" fill="#6a2500" fill-opacity="0.953" />
<rect x="19.475" y="32.800" width="1.025" height="1.025" fill="#7e2b00" />
<rect x="20.500" y="32.800" width="1.025" height="1.025" fill="#d04800" />
<rect x="21.525" y="32.800" width="1.025" height="1.025" fill="#f45400" />
<rect x="22.550" y="32.800" width="1.025" height="1.025" fill="#cc4600" />
<rect x="23.575" y="32.800" width="1.025" height="1.025" fill="#f05300" />
<rect x="24.600" y="32.800" width="1.025" height="1.025" fill="#c64400" />
<rect x="25.625" y="32.800" width="1.025" height="1.025" fill="#d04800" />
<rect x="26.650" y="32.800" width="1.025" height="1.025" fill="#e85000" />
<rect x="27.675" y="32.800" width="1.025" height="1.025" fill="#a63900" />
<rect x="4.100" y="33.825" width="1.025" height="1.025" fill="#ac3b00" />
<rect x="5.125" y="33.825" width="1.025" height="1.025" fill="#e44f00" />
<rect x="6.150" y="33.825" width="1.025" height="1.025" fill="#c04200" />
<rect x="7.175" y="33.825" width="1.025" height="1.025" fill="#b43e00" />
<rect x="8.200" y="33.825" width="1.025" height="1.025" fill="#f05300" />
<rect x="9.225" y="33.825" width="1.025" height="1.025" fill="#d04800" />
<rect x="10.250" y="33.825" width="1.025" height="1.025" fill="#9a3500" />
<rect x="11.275" y="33.825" width="1.025" height="1.025" fill="#ba4000" />
<rect x="12.300" y="33.825" width="1.025" height="1.025" fill="#f45400" />
<rect x="13.325" y="33.825" width="1.025" height="1.025" fill="#d24800" />
<rect x="14.350" y="33.825" width="1.025" height="1.025" fill="#f85600" />
<rect x="15.375" y="33.825" width="1.025" height="1.025" fill="#7e2b00" />
<rect x="16.400" y="33.825" width="1.025" height="1.025" fill="#762900" />
<rect x="17.425" y="33.825" width="1.025" height="1.025" fill="#6a2500" fill-opacity="0.949" />
<rect x="18.450" y="33.825" width="1.025" height="1.025" fill="#802c00" fill-opacity="0.953" />
<rect x="19.475" y="33.825" width="1.025" height="1.025" fill="#f45400" />
<rect x="20.500" y="33.825" width="1.025" height="1.025" fill="#d24800" />
<rect x="21.525" y="33.825" width="1.025" height="1.025" fill="#f45400" />
<rect x="22.550" y="33.825" width="1.025" height="1.025" fill="#cc4600" />
<rect x="23.575" y="33.825" width="1.025" height="1.025" fill="#da4b00" />
<rect x="24.600" y="33.825" width="1.025" height="1.025" fill="#943300" />
<rect x="25.625" y="33.825" width="1.025" height="1.025" fill="#e85000" />
<rect x="26.650" y="33.825" width="1.025" height="1.025" fill="#d04800" />
<rect x="27.675" y="33.825" width="1.025" height="1.025" fill="#e85000" />
<rect x="28.700" y="33.825" width="1.025" height="1.025" fill="#a63900" />
<rect x="3.075" y="34.850" width="1.025" height="1.025" fill="#b83f00" />
<rect x="4.100" y="34.850" width="1.025" height="1.025" fill="#e85000" />
<rect x="5.125" y="34.850" width="1.025" height="1.025" fill="#c04200" />
<rect x="6.150" y="34.850" width="1.025" height="1.025" fill="#ba4000" />
<rect x="7.175" y="34.850" width="1.025" height="1.025" fill="#de4d00" />
<rect x="8.200" y="34.850" width="1.025" height="1.025" fill="#ca4600" />
<rect x="9.225" y="34.850" width="1.025" height="1.025" fill="#be4200" />
<rect x="10.250" y="34.850" width="1.025" height="1.025" fill="#7e2b00" />
<rect x="11.275" y="34.850" width="1.025" height="1.025" fill="#9c3600" />
<rect x="12.300" y="34.850" width="1.025" height="1.025" fill="#f05300" />
<rect x="13.325" y="34.850" width="1.025" height="1.025" fill="#c24300" />
<rect x="14.350" y="34.850" width="1.025" height="1.025" fill="#f05300" />
<rect x="15.375" y="34.850" width="1.025" height="1.025" fill="#d24800" />
<rect x="16.400" y="34.850" width="1.025" height="1.025" fill="#a63900" />
<rect x="17.425" y="34.850" width="1.025" height="1.025" fill="#6a2500" fill-opacity="0.953" />
<rect x="18.450" y="34.850" width="1.025" height="1.025" fill="#802c00" />
<rect x="19.475" y="34.850" width="1.025" height="1.025" fill="#f45400" />
<rect x="20.500" y="34.850" width="1.025" height="1.025" fill="#d24800" />
<rect x="21.525" y="34.850" width="1.025" height="1.025" fill="#f05300" />
<rect x="22.550" y="34.850" width="1.025" height="1.025" fill="#cc4600" />
<rect x="23.575" y="34.850" width="1.025" height="1.025" fill="#da4b00" />
<rect x="24.600" y="34.850" width="1.025" height="1.025" fill="#6a2500" />
<rect x="25.625" y="34.850" width="1.025" height="1.025" fill="#c24300" />
<rect x="26.650" y="34.850" width="1.025" height="1.025" fill="#e85000" />
<rect x="27.675" y="34.850" width="1.025" height="1.025" fill="#d04800" />
<rect x="28.700" y="34.850" width="1.025" height="1.025" fill="#f85600" />
<rect x="29.725" y="34.850" width="1.025" height="1.025" fill="#d84b00" />
<rect x="3.075" y="35.875" width="1.025" height="1.025" fill="#e85000" />
<rect x="4.100" y="35.875" width="1.025" height="1.025" fill="#ba4000" />
<rect x="5.125" y="35.875" width="1.025" height="1.025" fill="#ba4000" />
<rect x="6.150" y="35.875" width="1.025" height="1.025" fill="#e04d00" />
<rect x="7.175" y="35.875" width="1.025" height="1.025" fill="#b43e00" />
<rect x="8.200" y="35.875" width="1.025" height="1.025" fill="#f05300" />
<rect x="9.225" y="35.875" width="1.025" height="1.025" fill="#a03700" />
<rect x="10.250" y="35.875" width="1.025" height="1.025" fill="#6a2500" />
<rect x="11.275" y="35.875" width="1.025" height="1.025" fill="#842e00" />
<rect x="12.300" y="35.875" width="1.025" height="1.025" fill="#d84b00" />
<rect x="13.325" y="35.875" width="1.025" height="1.025" fill="#a83a00" />
<rect x="14.350" y="35.875" width="1.025" height="1.025" fill="#de4d00" />
<rect x="15.375" y="35.875" width="1.025" height="1.025" fill="#bc4100" />
<rect x="16.400" y="35.875" width="1.025" height="1.025" fill="#7c2b00" />
<rect x="17.425" y="35.875" width="1.025" height="1.025" fill="#903200" />
<rect x="18.450" y="35.875" width="1.025" height="1.025" fill="#d04800" />
<rect x="19.475" y="35.875" width="1.025" height="1.025" fill="#f45400" />
<rect x="20.500" y="35.875" width="1.025" height="1.025" fill="#cc4600" />
<rect x="21.525" y="35.875" width="1.025" height="1.025" fill="#f05300" />
<rect x="22.550" y="35.875" width="1.025" height="1.025" fill="#ac3b00" />
<rect x="23.575" y="35.875" width="1.025" height="1.025" fill="#c24300" />
<rect x="24.600" y="35.875" width="1.025" height="1.025" fill="#722700" />
<rect x="25.625" y="35.875" width="1.025" height="1.025" fill="#bc4100" />
<rect x="26.650" y="35.875" width="1.025" height="1.025" fill="#de4d00" />
<rect x="27.675" y="35.875" width="1.025" height="1.025" fill="#c24300" />
<rect x="28.700" y="35.875" width="1.025" height="1.025" fill="#e85000" />
<rect x="29.725" y="35.875" width="1.025" height="1.025" fill="#ba4000" />
<rect x="3.075" y="36.900" width="1.025" height="1.025" fill="#9c3600" />
<rect x="4.100" y="36.900" width="1.025" height="1.025" fill="#ba4000" />
<rect x="5.125" y="36.900" width="1.025" height="1.025" fill="#e04d00" />
<rect x="6.150" y="36.900" width="1.025" height="1.025" fill="#ba4000" />
<rect x="7.175" y="36.900" width="1.025" height="1.025" fill="#b43e00" />
<rect x="8.200" y="36.900" width="1.025" height="1.025" fill="#f05300" />
<rect x="9.225" y="36.900" width="1.025" height="1.025" fill="#8e3100" />
<rect x="10.250" y="36.900" width="1.025" height="1.025" fill="#6a2500" />
<rect x="11.275" y="36.900" width="1.025" height="1.025" fill="#842e00" />
<rect x="12.300" y="36.900" width="1.025" height="1.025" fill="#c24300" />
<rect x="13.325" y="36.900" width="1.025" height="1.025" fill="#a63900" />
<rect x="14.350" y="36.900" width="1.025" height="1.025" fill="#d04800" />
<rect x="15.375" y="36.900" width="1.025" height="1.025" fill="#6e2600" />
<rect x="16.400" y="36.900" width="1.025" height="1.025" fill="#903200" />
<rect x="17.425" y="36.900" width="1.025" height="1.025" fill="#7e2b00" />
<rect x="18.450" y="36.900" width="1.025" height="1.025" fill="#d04800" />
<rect x="19.475" y="36.900" width="1.025" height="1.025" fill="#d84b00" />
<rect x="20.500" y="36.900" width="1.025" height="1.025" fill="#ba4000" />
<rect x="21.525" y="36.900" width="1.025" height="1.025" fill="#e04d00" />
<rect x="22.550" y="36.900" width="1.025" height="1.025" fill="#ae3c00" />
<rect x="23.575" y="36.900" width="1.025" height="1.025" fill="#b83f00" />
<rect x="24.600" y="36.900" width="1.025" height="1.025" fill="#6a2500" />
<rect x="25.625" y="36.900" width="1.025" height="1.025" fill="#bc4100" />
<rect x="26.650" y="36.900" width="1.025" height="1.025" fill="#de4d00" />
<rect x="27.675" y="36.900" width="1.025" height="1.025" fill="#b43e00" />
<rect x="28.700" y="36.900" width="1.025" height="1.025" fill="#de4d00" />
<rect x="29.725" y="36.900" width="1.025" height="1.025" fill="#a43900" />
</svg>