<svg xmlns="http://www.w3.org/2000/svg" width="37.925" height="37.925" shape-rendering="crispEdges" style="image-rendering: pixelated;">
<rect x="31.775" y="21.525" width="1.025" height="1.025" fill="#ffffff" />
<rect x="28.700" y="22.550" width="1.025" height="1.025" fill="#000000" fill-opacity="0.341" />
<rect x="31.775" y="22.550" width="1.025" height="1.025" fill="#999999" />
<rect x="28.700" y="23.575" width="1.025" height="1.025" fill="#000000" fill-opacity="0.486" />
<rect x="30.750" y="23.575" width="1.025" height="1.025" fill="#8c8c8c" />
<rect x="31.775" y="23.575" width="1.025" height="1.025" fill="#999999" />
<rect x="32.800" y="23.575" width="1.025" height="1.025" fill="#404040" />
<rect x="28.700" y="24.600" width="1.025" height="1.025" fill="#000000" fill-opacity="0.698" />
<rect x="29.725" y="24.600" width="1.025" height="1.025" fill="#404040" />
<rect x="30.750" y="24.600" width="1.025" height="1.025" fill="#8c8c8c" />
<rect x="31.775" y="24.600" width="1.025" height="1.025" fill="#999999" />
<rect x="32.800" y="24.600" width="1.025" height="1.025" fill="#8c8c8c" />
<rect x="33.825" y="24.600" width="1.025" height="1.025" fill="#8c8c8c" />
<rect x="28.700" y="25.625" width="1.025" height="1.025" fill="#444444" fill-opacity="0.820" />
<rect x="29.725" y="25.625" width="1.025" height="1.025" fill="#999999" />
<rect x="30.750" y="25.625" width="1.025" height="1.025" fill="#999999" />
<rect x="32.800" y="25.625" width="1.025" height="1.025" fill="#999999" />
<rect x="33.825" y="25.625" width="1.025" height="1.025" fill="#999999" />
<rect x="34.850" y="25.625" width="1.025" height="1.025" fill="#999999" />
<rect x="35.875" y="25.625" width="1.025" height="1.025" fill="#ffffff" />
<rect x="28.700" y="26.650" width="1.025" height="1.025" fill="#5a5a5a" />
<rect x="29.725" y="26.650" width="1.025" height="1.025" fill="#8c8c8c" />
<rect x="30.750" y="26.650" width="1.025" height="1.025" fill="#8c8c8c" />
<rect x="31.775" y="26.650" width="1.025" height="1.025" fill="#999999" />
<rect x="32.800" y="26.650" width="1.025" height="1.025" fill="#8c8c8c" />
<rect x="33.825" y="26.650" width="1.025" height="1.025" fill="#404040" />
<rect x="28.700" y="27.675" width="1.025" height="1.025" fill="#000000" fill-opacity="0.698" />
<rect x="30.750" y="27.675" width="1.025" height="1.025" fill="#404040" />
<rect x="31.775" y="27.675" width="1.025" height="1.025" fill="#999999" />
<rect x="32.800" y="27.675" width="1.025" height="1.025" fill="#8c8c8c" />
<rect x="28.700" y="28.700" width="1.025" height="1.025" fill="#000000" fill-opacity="0.486" />
<rect x="31.775" y="28.700" width="1.025" height="1.025" fill="#999999" />
<rect x="28.700" y="29.725" width="1.025" height="1.025" fill="#000000" fill-opacity="0.341" />
<rect x="31.775" y="29.725" width="1.025" height="1.025" fill="#ffffff" />
</svg>