<svg xmlns="http://www.w3.org/2000/svg" width="37.925" height="37.925" shape-rendering="crispEdges" style="image-rendering: pixelated;">
<rect x="24.600" y="8.200" width="1.025" height="1.025" fill="#ffffff" />
<rect x="21.525" y="9.225" width="1.025" height="1.025" fill="#000000" fill-opacity="0.341" />
<rect x="24.600" y="9.225" width="1.025" height="1.025" fill="#999999" />
<rect x="21.525" y="10.250" width="1.025" height="1.025" fill="#600505" fill-opacity="0.690" />
<rect x="23.575" y="10.250" width="1.025" height="1.025" fill="#8c8c8c" />
<rect x="24.600" y="10.250" width="1.025" height="1.025" fill="#999999" />
<rect x="25.625" y="10.250" width="1.025" height="1.025" fill="#404040" />
<rect x="20.500" y="11.275" width="1.025" height="1.025" fill="#a60808" fill-opacity="0.400" />
<rect x="21.525" y="11.275" width="1.025" height="1.025" fill="#510404" fill-opacity="0.820" />
<rect x="22.550" y="11.275" width="1.025" height="1.025" fill="#404040" />
<rect x="23.575" y="11.275" width="1.025" height="1.025" fill="#8c8c8c" />
<rect x="24.600" y="11.275" width="1.025" height="1.025" fill="#999999" />
<rect x="25.625" y="11.275" width="1.025" height="1.025" fill="#8c8c8c" />
<rect x="26.650" y="11.275" width="1.025" height="1.025" fill="#8c8c8c" />
<rect x="19.475" y="12.300" width="1.025" height="1.025" fill="#a60808" fill-opacity="0.400" />
<rect x="20.500" y="12.300" width="1.025" height="1.025" fill="#a60808" fill-opacity="0.784" />
<rect x="21.525" y="12.300" width="1.025" height="1.025" fill="#a20a0a" fill-opacity="0.992" />
<rect x="22.550" y="12.300" width="1.025" height="1.025" fill="#999999" />
<rect x="23.575" y="12.300" width="1.025" height="1.025" fill="#999999" />
<rect x="25.625" y="12.300" width="1.025" height="1.025" fill="#999999" />
<rect x="26.650" y="12.300" width="1.025" height="1.025" fill="#999999" />
<rect x="27.675" y="12.300" width="1.025" height="1.025" fill="#999999" />
<rect x="28.700" y="12.300" width="1.025" height="1.025" fill="#ffffff" />
<rect x="19.475" y="13.325" width="1.025" height="1.025" fill="#a60808" fill-opacity="0.400" />
<rect x="20.500" y="13.325" width="1.025" height="1.025" fill="#a60808" fill-opacity="0.922" />
<rect x="21.525" y="13.325" width="1.025" height="1.025" fill="#951919" />
<rect x="22.550" y="13.325" width="1.025" height="1.025" fill="#8c8c8c" />
<rect x="23.575" y="13.325" width="1.025" height="1.025" fill="#8c8c8c" />
<rect x="24.600" y="13.325" width="1.025" height="1.025" fill="#999999" />
<rect x="25.625" y="13.325" width="1.025" height="1.025" fill="#8c8c8c" />
<rect x="26.650" y="13.325" width="1.025" height="1.025" fill="#404040" />
<rect x="20.500" y="14.350" width="1.025" height="1.025" fill="#a60808" fill-opacity="0.784" />
<rect x="21.525" y="14.350" width="1.025" height="1.025" fill="#510404" fill-opacity="0.820" />
<rect x="23.575" y="14.350" width="1.025" height="1.025" fill="#404040" />
<rect x="24.600" y="14.350" width="1.025" height="1.025" fill="#999999" />
<rect x="25.625" y="14.350" width="1.025" height="1.025" fill="#8c8c8c" />
<rect x="20.500" y="15.375" width="1.025" height="1.025" fill="#a60808" fill-opacity="0.400" />
<rect x="21.525" y="15.375" width="1.025" height="1.025" fill="#600505" fill-opacity="0.690" />
<rect x="24.600" y="15.375" width="1.025" height="1.025" fill="#999999" />
<rect x="20.500" y="16.400" width="1.025" height="1.025" fill="#a60808" fill-opacity="0.400" />
<rect x="21.525" y="16.400" width="1.025" height="1.025" fill="#000000" fill-opacity="0.341" />
<rect x="24.600" y="16.400" width="1.025" height="1.025" fill="#ffffff" />
</svg>