<svg xmlns="http://www.w3.org/2000/svg" width="37.925" height="37.925" shape-rendering="crispEdges" style="image-rendering: pixelated;">
<rect x="0.000" y="5.125" width="1.025" height="1.025" fill="#e30613" />
<rect x="1.025" y="5.125" width="1.025" height="1.025" fill="#ff0000" />
<rect x="2.050" y="5.125" width="1.025" height="1.025" fill="#e30613" />
<rect x="3.075" y="5.125" width="1.025" height="1.025" fill="#ff0000" />
<rect x="0.000" y="6.150" width="1.025" height="1.025" fill="#e30613" />
<rect x="1.025" y="6.150" width="1.025" height="1.025" fill="#e30613" />
<rect x="4.100" y="6.150" width="1.025" height="1.025" fill="#ff0000" />
<rect x="5.125" y="6.150" width="1.025" height="1.025" fill="#e30613" />
<rect x="6.150" y="6.150" width="1.025" height="1.025" fill="#e30613" />
<rect x="7.175" y="6.150" width="1.025" height="1.025" fill="#e30613" />
<rect x="1.025" y="7.175" width="1.025" height="1.025" fill="#e30613" />
<rect x="4.100" y="7.175" width="1.025" height="1.025" fill="#e30613" />
<rect x="5.125" y="7.175" width="1.025" height="1.025" fill="#e30613" />
<rect x="6.150" y="7.175" width="1.025" height="1.025" fill="#e30613" />
<rect x="8.200" y="7.175" width="1.025" height="1.025" fill="#e30613" />
<rect x="9.225" y="7.175" width="1.025" height="1.025" fill="#e30613" />
<rect x="10.250" y="7.175" width="1.025" height="1.025" fill="#ff0000" />
<rect x="11.275" y="7.175" width="1.025" height="1.025" fill="#ff0000" fill-opacity="0.486" />
<rect x="12.300" y="7.175" width="1.025" height="1.025" fill="#ff0000" fill-opacity="0.239" />
<rect x="4.100" y="8.200" width="1.025" height="1.025" fill="#e30613" />
<rect x="5.125" y="8.200" width="1.025" height="1.025" fill="#e30613" />
<rect x="13.325" y="8.200" width="1.025" height="1.025" fill="#ff0000" fill-opacity="0.698" />
<rect x="14.350" y="8.200" width="1.025" height="1.025" fill="#ff0000" fill-opacity="0.698" />
<rect x="4.100" y="9.225" width="1.025" height="1.025" fill="#e30613" />
<rect x="5.125" y="9.225" width="1.025" height="1.025" fill="#e30613" />
<rect x="15.375" y="9.225" width="1.025" height="1.025" fill="#ff0000" fill-opacity="0.698" />
<rect x="16.400" y="9.225" width="1.025" height="1.025" fill="#ff0000" fill-opacity="0.698" />
<rect x="4.100" y="10.250" width="1.025" height="1.025" fill="#e30613" />
<rect x="5.125" y="10.250" width="1.025" height="1.025" fill="#e30613" />
<rect x="17.425" y="10.250" width="1.025" height="1.025" fill="#ff0000" fill-opacity="0.486" />
<rect x="18.450" y="10.250" width="1.025" height="1.025" fill="#ff0000" fill-opacity="0.698" />
<rect x="19.475" y="10.250" width="1.025" height="1.025" fill="#ff0000" fill-opacity="0.698" />
<rect x="1.025" y="11.275" width="1.025" height="1.025" fill="#e30613" />
<rect x="4.100" y="11.275" width="1.025" height="1.025" fill="#e30613" />
<rect x="5.125" y="11.275" width="1.025" height="1.025" fill="#e30613" />
<rect x="20.500" y="11.275" width="1.025" height="1.025" fill="#ff0000" fill-opacity="0.486" />
<rect x="21.525" y="11.275" width="1.025" height="1.025" fill="#ff0000" fill-opacity="0.118" />
<rect x="4.100" y="12.300" width="1.025" height="1.025" fill="#e30613" />
<rect x="5.125" y="12.300" width="1.025" height="1.025" fill="#e30613" />
<rect x="22.550" y="12.300" width="1.025" height="1.025" fill="#ff0000" fill-opacity="0.239" />
<rect x="23.575" y="12.300" width="1.025" height="1.025" fill="#ff0000" />
<rect x="4.100" y="13.325" width="1.025" height="1.025" fill="#e30613" />
<rect x="24.600" y="13.325" width="1.025" height="1.025" fill="#ff0000" />
<rect x="25.625" y="13.325" width="1.025" height="1.025" fill="#ff0000" />
<rect x="4.100" y="14.350" width="1.025" height="1.025" fill="#e30613" />
<rect x="26.650" y="14.350" width="1.025" height="1.025" fill="#ff0000" />
<rect x="27.675" y="14.350" width="1.025" height="1.025" fill="#ff0000" />
<rect x="28.700" y="15.375" width="1.025" height="1.025" fill="#ff0000" />
<rect x="28.700" y="16.400" width="1.025" height="1.025" fill="#e30613" />
<rect x="29.725" y="16.400" width="1.025" height="1.025" fill="#e30613" />
<rect x="30.750" y="16.400" width="1.025" height="1.025" fill="#ff0000" />
<rect x="32.800" y="16.400" width="1.025" height="1.025" fill="#ff0000" />
<rect x="33.825" y="16.400" width="1.025" height="1.025" fill="#e30613" />
<rect x="34.850" y="16.400" width="1.025" height="1.025" fill="#ff0000" />
<rect x="35.875" y="16.400" width="1.025" height="1.025" fill="#e30613" />
<rect x="36.900" y="16.400" width="1.025" height="1.025" fill="#ff0000" />
<rect x="4.100" y="17.425" width="1.025" height="1.025" fill="#e30613" />
<rect x="28.700" y="17.425" width="1.025" height="1.025" fill="#e30613" />
<rect x="29.725" y="17.425" width="1.025" height="1.025" fill="#e30613" />
<rect x="30.750" y="17.425" width="1.025" height="1.025" fill="#e30613" />
<rect x="31.775" y="17.425" width="1.025" height="1.025" fill="#ff0000" />
<rect x="34.850" y="17.425" width="1.025" height="1.025" fill="#e30613" />
<rect x="35.875" y="17.425" width="1.025" height="1.025" fill="#e30613" />
<rect x="23.575" y="18.450" width="1.025" height="1.025" fill="#ff0000" fill-opacity="0.239" />
<rect x="24.600" y="18.450" width="1.025" height="1.025" fill="#ff0000" fill-opacity="0.486" />
<rect x="25.625" y="18.450" width="1.025" height="1.025" fill="#ff0000" />
<rect x="26.650" y="18.450" width="1.025" height="1.025" fill="#e30613" />
<rect x="27.675" y="18.450" width="1.025" height="1.025" fill="#e30613" />
<rect x="28.700" y="18.450" width="1.025" height="1.025" fill="#e30613" />
<rect x="29.725" y="18.450" width="1.025" height="1.025" fill="#e30613" />
<rect x="30.750" y="18.450" width="1.025" height="1.025" fill="#e30613" />
<rect x="31.775" y="18.450" width="1.025" height="1.025" fill="#e30613" />
<rect x="32.800" y="18.450" width="1.025" height="1.025" fill="#ff0000" />
<rect x="34.850" y="18.450" width="1.025" height="1.025" fill="#e30613" />
<rect x="21.525" y="19.475" width="1.025" height="1.025" fill="#ff0000" fill-opacity="0.698" />
<rect x="22.550" y="19.475" width="1.025" height="1.025" fill="#ff0000" fill-opacity="0.698" />
<rect x="30.750" y="19.475" width="1.025" height="1.025" fill="#e30613" />
<rect x="31.775" y="19.475" width="1.025" height="1.025" fill="#e30613" />
<rect x="32.800" y="19.475" width="1.025" height="1.025" fill="#e30613" />
<rect x="33.825" y="19.475" width="1.025" height="1.025" fill="#ff0000" />
<rect x="34.850" y="19.475" width="1.025" height="1.025" fill="#ff0000" />
<rect x="19.475" y="20.500" width="1.025" height="1.025" fill="#ff0000" fill-opacity="0.698" />
<rect x="20.500" y="20.500" width="1.025" height="1.025" fill="#ff0000" fill-opacity="0.698" />
<rect x="30.750" y="20.500" width="1.025" height="1.025" fill="#e30613" />
<rect x="31.775" y="20.500" width="1.025" height="1.025" fill="#e30613" />
<rect x="32.800" y="20.500" width="1.025" height="1.025" fill="#e30613" />
<rect x="34.850" y="20.500" width="1.025" height="1.025" fill="#ff0000" />
<rect x="16.400" y="21.525" width="1.025" height="1.025" fill="#ff0000" fill-opacity="0.698" />
<rect x="17.425" y="21.525" width="1.025" height="1.025" fill="#ff0000" fill-opacity="0.698" />
<rect x="18.450" y="21.525" width="1.025" height="1.025" fill="#ff0000" fill-opacity="0.486" />
<rect x="30.750" y="21.525" width="1.025" height="1.025" fill="#e30613" />
<rect x="31.775" y="21.525" width="1.025" height="1.025" fill="#e30613" />
<rect x="32.800" y="21.525" width="1.025" height="1.025" fill="#e30613" />
<rect x="14.350" y="22.550" width="1.025" height="1.025" fill="#ff0000" fill-opacity="0.118" />
<rect x="15.375" y="22.550" width="1.025" height="1.025" fill="#ff0000" fill-opacity="0.486" />
<rect x="30.750" y="22.550" width="1.025" height="1.025" fill="#e30613" />
<rect x="31.775" y="22.550" width="1.025" height="1.025" fill="#e30613" />
<rect x="34.850" y="22.550" width="1.025" height="1.025" fill="#e30613" />
<rect x="12.300" y="23.575" width="1.025" height="1.025" fill="#ff0000" />
<rect x="13.325" y="23.575" width="1.025" height="1.025" fill="#ff0000" fill-opacity="0.239" />
<rect x="30.750" y="23.575" width="1.025" height="1.025" fill="#e30613" />
<rect x="31.775" y="23.575" width="1.025" height="1.025" fill="#e30613" />
<rect x="10.250" y="24.600" width="1.025" height="1.025" fill="#ff0000" />
<rect x="11.275" y="24.600" width="1.025" height="1.025" fill="#ff0000" />
<rect x="31.775" y="24.600" width="1.025" height="1.025" fill="#e30613" />
<rect x="32.800" y="24.600" width="1.025" height="1.025" fill="#e30613" />
<rect x="8.200" y="25.625" width="1.025" height="1.025" fill="#ff0000" />
<rect x="9.225" y="25.625" width="1.025" height="1.025" fill="#ff0000" />
<rect x="31.775" y="25.625" width="1.025" height="1.025" fill="#e30613" />
<rect x="7.175" y="26.650" width="1.025" height="1.025" fill="#ff0000" />
<rect x="5.125" y="27.675" width="1.025" height="1.025" fill="#ff0000" />
<rect x="6.150" y="27.675" width="1.025" height="1.025" fill="#e30613" />
<rect x="7.175" y="27.675" width="1.025" height="1.025" fill="#e30613" />
<rect x="4.100" y="28.700" width="1.025" height="1.025" fill="#ff0000" />
<rect x="6.150" y="28.700" width="1.025" height="1.025" fill="#e30613" />
<rect x="7.175" y="28.700" width="1.025" height="1.025" fill="#e30613" />
<rect x="31.775" y="28.700" width="1.025" height="1.025" fill="#e30613" />
<rect x="3.075" y="29.725" width="1.025" height="1.025" fill="#ff0000" />
<rect x="7.175" y="29.725" width="1.025" height="1.025" fill="#e30613" />
<rect x="1.025" y="30.750" width="1.025" height="1.025" fill="#ff0000" />
<rect x="2.050" y="30.750" width="1.025" height="1.025" fill="#ff0000" />
<rect x="3.075" y="30.750" width="1.025" height="1.025" fill="#e30613" />
<rect x="1.025" y="31.775" width="1.025" height="1.025" fill="#ff0000" />
<rect x="3.075" y="31.775" width="1.025" height="1.025" fill="#e30613" />
<rect x="3.075" y="32.800" width="1.025" height="1.025" fill="#e30613" />
<rect x="3.075" y="35.875" width="1.025" height="1.025" fill="#e30613" />
</svg>