<svg xmlns="http://www.w3.org/2000/svg" width="37.925" height="37.925" shape-rendering="crispEdges" style="image-rendering: pixelated;">
<rect x="23.575" y="25.625" width="1.025" height="1.025" fill="#a7a2a2" fill-opacity="0.949" />
<rect x="24.600" y="25.625" width="1.025" height="1.025" fill="#b9b4b4" fill-opacity="0.973" />
<rect x="25.625" y="25.625" width="1.025" height="1.025" fill="#acabaa" fill-opacity="0.984" />
<rect x="26.650" y="25.625" width="1.025" height="1.025" fill="#bbb9b9" fill-opacity="0.988" />
<rect x="27.675" y="25.625" width="1.025" height="1.025" fill="#afadad" fill-opacity="0.988" />
<rect x="28.700" y="25.625" width="1.025" height="1.025" fill="#bdbcbc" fill-opacity="0.996" />
<rect x="29.725" y="25.625" width="1.025" height="1.025" fill="#bdbcbc" fill-opacity="0.996" />
<rect x="19.475" y="26.650" width="1.025" height="1.025" fill="#000000" fill-opacity="0.533" />
<rect x="20.500" y="26.650" width="1.025" height="1.025" fill="#000000" fill-opacity="0.545" />
<rect x="21.525" y="26.650" width="1.025" height="1.025" fill="#988f8e" fill-opacity="0.953" />
<rect x="22.550" y="26.650" width="1.025" height="1.025" fill="#a29e9e" fill-opacity="0.976" />
<rect x="23.575" y="26.650" width="1.025" height="1.025" fill="#a29e9e" fill-opacity="0.976" />
<rect x="24.600" y="26.650" width="1.025" height="1.025" fill="#b6b1b1" fill-opacity="0.988" />
<rect x="25.625" y="26.650" width="1.025" height="1.025" fill="#7e0000" fill-opacity="0.992" />
<rect x="26.650" y="26.650" width="1.025" height="1.025" fill="#970000" fill-opacity="0.988" />
<rect x="27.675" y="26.650" width="1.025" height="1.025" fill="#840000" fill-opacity="0.988" />
<rect x="28.700" y="26.650" width="1.025" height="1.025" fill="#bdbcbc" fill-opacity="0.996" />
<rect x="29.725" y="26.650" width="1.025" height="1.025" fill="#bebebe" />
<rect x="30.750" y="26.650" width="1.025" height="1.025" fill="#bfbfbf" />
<rect x="31.775" y="26.650" width="1.025" height="1.025" fill="#b1b1b1" />
<rect x="17.425" y="27.675" width="1.025" height="1.025" fill="#000000" fill-opacity="0.502" />
<rect x="18.450" y="27.675" width="1.025" height="1.025" fill="#000000" fill-opacity="0.533" />
<rect x="19.475" y="27.675" width="1.025" height="1.025" fill="#000000" fill-opacity="0.533" />
<rect x="20.500" y="27.675" width="1.025" height="1.025" fill="#a19393" fill-opacity="0.945" />
<rect x="21.525" y="27.675" width="1.025" height="1.025" fill="#aaaaaa" />
<rect x="22.550" y="27.675" width="1.025" height="1.025" fill="#b7b7b7" />
<rect x="23.575" y="27.675" width="1.025" height="1.025" fill="#b6b3b3" fill-opacity="0.992" />
<rect x="24.600" y="27.675" width="1.025" height="1.025" fill="#930000" />
<rect x="25.625" y="27.675" width="1.025" height="1.025" fill="#810000" />
<rect x="26.650" y="27.675" width="1.025" height="1.025" fill="#980000" />
<rect x="27.675" y="27.675" width="1.025" height="1.025" fill="#860000" />
<rect x="28.700" y="27.675" width="1.025" height="1.025" fill="#9b0000" />
<rect x="29.725" y="27.675" width="1.025" height="1.025" fill="#bfbfbf" />
<rect x="30.750" y="27.675" width="1.025" height="1.025" fill="#c0c0c0" />
<rect x="31.775" y="27.675" width="1.025" height="1.025" fill="#b1b0b0" fill-opacity="0.996" />
<rect x="32.800" y="27.675" width="1.025" height="1.025" fill="#c1c1c1" />
<rect x="16.400" y="28.700" width="1.025" height="1.025" fill="#000000" fill-opacity="0.494" />
<rect x="17.425" y="28.700" width="1.025" height="1.025" fill="#000000" fill-opacity="0.561" />
<rect x="18.450" y="28.700" width="1.025" height="1.025" fill="#000000" fill-opacity="0.561" />
<rect x="19.475" y="28.700" width="1.025" height="1.025" fill="#a4a1a1" fill-opacity="0.984" />
<rect x="20.500" y="28.700" width="1.025" height="1.025" fill="#a19293" fill-opacity="0.949" />
<rect x="21.525" y="28.700" width="1.025" height="1.025" fill="#aeaaaa" fill-opacity="0.984" />
<rect x="22.550" y="28.700" width="1.025" height="1.025" fill="#a9a8a8" />
<rect x="23.575" y="28.700" width="1.025" height="1.025" fill="#b6b5b5" />
<rect x="24.600" y="28.700" width="1.025" height="1.025" fill="#930000" />
<rect x="25.625" y="28.700" width="1.025" height="1.025" fill="#830000" />
<rect x="26.650" y="28.700" width="1.025" height="1.025" fill="#980000" />
<rect x="27.675" y="28.700" width="1.025" height="1.025" fill="#860000" />
<rect x="28.700" y="28.700" width="1.025" height="1.025" fill="#9d0000" />
<rect x="29.725" y="28.700" width="1.025" height="1.025" fill="#c0c0c0" />
<rect x="30.750" y="28.700" width="1.025" height="1.025" fill="#b1b0b0" fill-opacity="0.996" />
<rect x="31.775" y="28.700" width="1.025" height="1.025" fill="#c1c1c1" />
<rect x="32.800" y="28.700" width="1.025" height="1.025" fill="#c1c1c1" />
<rect x="33.825" y="28.700" width="1.025" height="1.025" fill="#b2b2b2" />
<rect x="15.375" y="29.725" width="1.025" height="1.025" fill="#000000" fill-opacity="0.545" />
<rect x="16.400" y="29.725" width="1.025" height="1.025" fill="#000000" fill-opacity="0.494" />
<rect x="17.425" y="29.725" width="1.025" height="1.025" fill="#000000" fill-opacity="0.545" />
<rect x="18.450" y="29.725" width="1.025" height="1.025" fill="#ada8a9" fill-opacity="0.984" />
<rect x="19.475" y="29.725" width="1.025" height="1.025" fill="#9f8f90" fill-opacity="0.945" />
<rect x="20.500" y="29.725" width="1.025" height="1.025" fill="#a4a1a1" fill-opacity="0.984" />
<rect x="21.525" y="29.725" width="1.025" height="1.025" fill="#000000" />
<rect x="22.550" y="29.725" width="1.025" height="1.025" fill="#b4b4b4" />
<rect x="23.575" y="29.725" width="1.025" height="1.025" fill="#ababab" />
<rect x="24.600" y="29.725" width="1.025" height="1.025" fill="#930000" />
<rect x="25.625" y="29.725" width="1.025" height="1.025" fill="#830000" />
<rect x="26.650" y="29.725" width="1.025" height="1.025" fill="#9a0000" />
<rect x="27.675" y="29.725" width="1.025" height="1.025" fill="#860000" />
<rect x="28.700" y="29.725" width="1.025" height="1.025" fill="#9e0000" />
<rect x="29.725" y="29.725" width="1.025" height="1.025" fill="#b1b1b1" />
<rect x="30.750" y="29.725" width="1.025" height="1.025" fill="#c0c0c0" />
<rect x="31.775" y="29.725" width="1.025" height="1.025" fill="#000000" />
<rect x="32.800" y="29.725" width="1.025" height="1.025" fill="#b2b2b2" />
<rect x="33.825" y="29.725" width="1.025" height="1.025" fill="#c2c2c2" />
<rect x="34.850" y="29.725" width="1.025" height="1.025" fill="#b1b1b1" />
<rect x="14.350" y="30.750" width="1.025" height="1.025" fill="#000000" fill-opacity="0.545" />
<rect x="15.375" y="30.750" width="1.025" height="1.025" fill="#000000" fill-opacity="0.490" />
<rect x="16.400" y="30.750" width="1.025" height="1.025" fill="#000000" fill-opacity="0.545" />
<rect x="17.425" y="30.750" width="1.025" height="1.025" fill="#000000" fill-opacity="0.561" />
<rect x="18.450" y="30.750" width="1.025" height="1.025" fill="#9d8c8d" fill-opacity="0.941" />
<rect x="19.475" y="30.750" width="1.025" height="1.025" fill="#ada8a9" fill-opacity="0.984" />
<rect x="20.500" y="30.750" width="1.025" height="1.025" fill="#b2b2b2" />
<rect x="21.525" y="30.750" width="1.025" height="1.025" fill="#aaaaaa" />
<rect x="22.550" y="30.750" width="1.025" height="1.025" fill="#000000" />
<rect x="23.575" y="30.750" width="1.025" height="1.025" fill="#ababab" />
<rect x="24.600" y="30.750" width="1.025" height="1.025" fill="#bababa" />
<rect x="25.625" y="30.750" width="1.025" height="1.025" fill="#830000" />
<rect x="26.650" y="30.750" width="1.025" height="1.025" fill="#9b0000" />
<rect x="27.675" y="30.750" width="1.025" height="1.025" fill="#860000" />
<rect x="28.700" y="30.750" width="1.025" height="1.025" fill="#bfbfbf" />
<rect x="29.725" y="30.750" width="1.025" height="1.025" fill="#b1b1b1" />
<rect x="30.750" y="30.750" width="1.025" height="1.025" fill="#000000" />
<rect x="31.775" y="30.750" width="1.025" height="1.025" fill="#b2b2b2" />
<rect x="32.800" y="30.750" width="1.025" height="1.025" fill="#c1c1c1" />
<rect x="33.825" y="30.750" width="1.025" height="1.025" fill="#c2c2c2" />
<rect x="34.850" y="30.750" width="1.025" height="1.025" fill="#c2c2c2" />
<rect x="35.875" y="30.750" width="1.025" height="1.025" fill="#b1b1b1" />
<rect x="14.350" y="31.775" width="1.025" height="1.025" fill="#000000" fill-opacity="0.482" />
<rect x="15.375" y="31.775" width="1.025" height="1.025" fill="#000000" fill-opacity="0.545" />
<rect x="16.400" y="31.775" width="1.025" height="1.025" fill="#000000" fill-opacity="0.561" />
<rect x="17.425" y="31.775" width="1.025" height="1.025" fill="#a6a6a6" />
<rect x="18.450" y="31.775" width="1.025" height="1.025" fill="#9d9696" fill-opacity="0.973" />
<rect x="19.475" y="31.775" width="1.025" height="1.025" fill="#a7a6a6" />
<rect x="20.500" y="31.775" width="1.025" height="1.025" fill="#000000" />
<rect x="21.525" y="31.775" width="1.025" height="1.025" fill="#b4b4b4" />
<rect x="22.550" y="31.775" width="1.025" height="1.025" fill="#aaaaaa" />
<rect x="23.575" y="31.775" width="1.025" height="1.025" fill="#b7b7b7" />
<rect x="24.600" y="31.775" width="1.025" height="1.025" fill="#a5a5a5" />
<rect x="25.625" y="31.775" width="1.025" height="1.025" fill="#c6c6c6" />
<rect x="26.650" y="31.775" width="1.025" height="1.025" fill="#ababab" />
<rect x="27.675" y="31.775" width="1.025" height="1.025" fill="#cecece" />
<rect x="28.700" y="31.775" width="1.025" height="1.025" fill="#b1b1b1" />
<rect x="29.725" y="31.775" width="1.025" height="1.025" fill="#c0c0c0" />
<rect x="30.750" y="31.775" width="1.025" height="1.025" fill="#b1b1b1" />
<rect x="31.775" y="31.775" width="1.025" height="1.025" fill="#c1c1c1" />
<rect x="32.800" y="31.775" width="1.025" height="1.025" fill="#000000" />
<rect x="33.825" y="31.775" width="1.025" height="1.025" fill="#b2b2b2" />
<rect x="34.850" y="31.775" width="1.025" height="1.025" fill="#b2b2b2" />
<rect x="35.875" y="31.775" width="1.025" height="1.025" fill="#c2c2c2" />
<rect x="36.900" y="31.775" width="1.025" height="1.025" fill="#b3b3b3" />
<rect x="13.325" y="32.800" width="1.025" height="1.025" fill="#000000" fill-opacity="0.561" />
<rect x="14.350" y="32.800" width="1.025" height="1.025" fill="#000000" fill-opacity="0.522" />
<rect x="15.375" y="32.800" width="1.025" height="1.025" fill="#000000" fill-opacity="0.557" />
<rect x="16.400" y="32.800" width="1.025" height="1.025" fill="#a6a6a6" />
<rect x="17.425" y="32.800" width="1.025" height="1.025" fill="#a59596" fill-opacity="0.949" />
<rect x="18.450" y="32.800" width="1.025" height="1.025" fill="#aea8a8" fill-opacity="0.984" />
<rect x="19.475" y="32.800" width="1.025" height="1.025" fill="#b2b1b1" />
<rect x="20.500" y="32.800" width="1.025" height="1.025" fill="#a9a9a9" />
<rect x="21.525" y="32.800" width="1.025" height="1.025" fill="#000000" />
<rect x="22.550" y="32.800" width="1.025" height="1.025" fill="#b6b6b6" />
<rect x="23.575" y="32.800" width="1.025" height="1.025" fill="#a2a2a2" />
<rect x="24.600" y="32.800" width="1.025" height="1.025" fill="#5e3408" />
<rect x="25.625" y="32.800" width="1.025" height="1.025" fill="#b58646" />
<rect x="26.650" y="32.800" width="1.025" height="1.025" fill="#6c3e12" />
<rect x="27.675" y="32.800" width="1.025" height="1.025" fill="#734515" />
<rect x="28.700" y="32.800" width="1.025" height="1.025" fill="#c69d67" />
<rect x="29.725" y="32.800" width="1.025" height="1.025" fill="#b1b1b1" />
<rect x="30.750" y="32.800" width="1.025" height="1.025" fill="#c1c1c1" />
<rect x="31.775" y="32.800" width="1.025" height="1.025" fill="#000000" />
<rect x="32.800" y="32.800" width="1.025" height="1.025" fill="#b2b2b2" />
<rect x="33.825" y="32.800" width="1.025" height="1.025" fill="#c2c2c2" />
<rect x="34.850" y="32.800" width="1.025" height="1.025" fill="#c2c2c2" />
<rect x="35.875" y="32.800" width="1.025" height="1.025" fill="#b3b3b3" />
<rect x="12.300" y="33.825" width="1.025" height="1.025" fill="#000000" fill-opacity="0.561" />
<rect x="13.325" y="33.825" width="1.025" height="1.025" fill="#000000" fill-opacity="0.498" />
<rect x="14.350" y="33.825" width="1.025" height="1.025" fill="#000000" fill-opacity="0.537" />
<rect x="15.375" y="33.825" width="1.025" height="1.025" fill="#000000" fill-opacity="0.557" />
<rect x="16.400" y="33.825" width="1.025" height="1.025" fill="#000000" fill-opacity="0.561" />
<rect x="17.425" y="33.825" width="1.025" height="1.025" fill="#000000" fill-opacity="0.561" />
<rect x="18.450" y="33.825" width="1.025" height="1.025" fill="#ac9fa0" fill-opacity="0.965" />
<rect x="19.475" y="33.825" width="1.025" height="1.025" fill="#a09d9c" fill-opacity="0.980" />
<rect x="20.500" y="33.825" width="1.025" height="1.025" fill="#b5b2b2" fill-opacity="0.992" />
<rect x="21.525" y="33.825" width="1.025" height="1.025" fill="#b6b5b5" fill-opacity="0.996" />
<rect x="22.550" y="33.825" width="1.025" height="1.025" fill="#a3a3a3" />
<rect x="23.575" y="33.825" width="1.025" height="1.025" fill="#ac732f" />
<rect x="24.600" y="33.825" width="1.025" height="1.025" fill="#623608" />
<rect x="25.625" y="33.825" width="1.025" height="1.025" fill="#bb8748" />
<rect x="26.650" y="33.825" width="1.025" height="1.025" fill="#6d420f" />
<rect x="27.675" y="33.825" width="1.025" height="1.025" fill="#c1965f" />
<rect x="28.700" y="33.825" width="1.025" height="1.025" fill="#754718" />
<rect x="29.725" y="33.825" width="1.025" height="1.025" fill="#c89f6d" />
<rect x="30.750" y="33.825" width="1.025" height="1.025" fill="#b1b1b1" />
<rect x="31.775" y="33.825" width="1.025" height="1.025" fill="#c1c1c1" />
<rect x="32.800" y="33.825" width="1.025" height="1.025" fill="#c1c1c1" />
<rect x="33.825" y="33.825" width="1.025" height="1.025" fill="#b4b4b4" />
<rect x="14.350" y="34.850" width="1.025" height="1.025" fill="#000000" fill-opacity="0.514" />
<rect x="15.375" y="34.850" width="1.025" height="1.025" fill="#000000" fill-opacity="0.533" />
<rect x="16.400" y="34.850" width="1.025" height="1.025" fill="#000000" fill-opacity="0.553" />
<rect x="17.425" y="34.850" width="1.025" height="1.025" fill="#000000" fill-opacity="0.557" />
<rect x="18.450" y="34.850" width="1.025" height="1.025" fill="#000000" fill-opacity="0.561" />
<rect x="19.475" y="34.850" width="1.025" height="1.025" fill="#000000" fill-opacity="0.561" />
<rect x="20.500" y="34.850" width="1.025" height="1.025" fill="#9d9594" fill-opacity="0.965" />
<rect x="21.525" y="34.850" width="1.025" height="1.025" fill="#a29c9b" fill-opacity="0.973" />
<rect x="22.550" y="34.850" width="1.025" height="1.025" fill="#a76d2d" fill-opacity="0.984" />
<rect x="23.575" y="34.850" width="1.025" height="1.025" fill="#5f3407" fill-opacity="0.992" />
<rect x="24.600" y="34.850" width="1.025" height="1.025" fill="#b88442" />
<rect x="25.625" y="34.850" width="1.025" height="1.025" fill="#653809" />
<rect x="26.650" y="34.850" width="1.025" height="1.025" fill="#bc9352" />
<rect x="27.675" y="34.850" width="1.025" height="1.025" fill="#704212" />
<rect x="28.700" y="34.850" width="1.025" height="1.025" fill="#c59c68" />
<rect x="29.725" y="34.850" width="1.025" height="1.025" fill="#794a1c" />
<rect x="30.750" y="34.850" width="1.025" height="1.025" fill="#c1c0c0" fill-opacity="0.996" />
<rect x="31.775" y="34.850" width="1.025" height="1.025" fill="#b4b4b4" />
<rect x="16.400" y="35.875" width="1.025" height="1.025" fill="#000000" fill-opacity="0.514" />
<rect x="17.425" y="35.875" width="1.025" height="1.025" fill="#000000" fill-opacity="0.529" />
<rect x="18.450" y="35.875" width="1.025" height="1.025" fill="#000000" fill-opacity="0.537" />
<rect x="19.475" y="35.875" width="1.025" height="1.025" fill="#000000" fill-opacity="0.553" />
<rect x="20.500" y="35.875" width="1.025" height="1.025" fill="#000000" fill-opacity="0.561" />
<rect x="21.525" y="35.875" width="1.025" height="1.025" fill="#000000" fill-opacity="0.561" />
<rect x="22.550" y="35.875" width="1.025" height="1.025" fill="#000000" fill-opacity="0.561" />
<rect x="23.575" y="35.875" width="1.025" height="1.025" fill="#b77f42" fill-opacity="0.992" />
<rect x="24.600" y="35.875" width="1.025" height="1.025" fill="#603607" />
<rect x="25.625" y="35.875" width="1.025" height="1.025" fill="#bc9352" />
<rect x="26.650" y="35.875" width="1.025" height="1.025" fill="#6a3c0f" />
<rect x="27.675" y="35.875" width="1.025" height="1.025" fill="#c29961" />
<rect x="28.700" y="35.875" width="1.025" height="1.025" fill="#754819" fill-opacity="0.996" />
<rect x="19.475" y="36.900" width="1.025" height="1.025" fill="#000000" fill-opacity="0.549" />
<rect x="20.500" y="36.900" width="1.025" height="1.025" fill="#000000" fill-opacity="0.561" />
<rect x="21.525" y="36.900" width="1.025" height="1.025" fill="#000000" fill-opacity="0.561" />
<rect x="22.550" y="36.900" width="1.025" height="1.025" fill="#000000" fill-opacity="0.561" />
<rect x="23.575" y="36.900" width="1.025" height="1.025" fill="#000000" fill-opacity="0.561" />
<rect x="24.600" y="36.900" width="1.025" height="1.025" fill="#be9252" />
<rect x="25.625" y="36.900" width="1.025" height="1.025" fill="#68390d" />
<rect x="26.650" y="36.900" width="1.025" height="1.025" fill="#ba935a" />
<rect x="27.675" y="36.900" width="1.025" height="1.025" fill="#704415" />
</svg>