<svg xmlns="http://www.w3.org/2000/svg" width="37.925" height="37.925" shape-rendering="crispEdges" style="image-rendering: pixelated;">
<rect x="30.750" y="5.125" width="1.025" height="1.025" fill="#999999" />
<rect x="30.750" y="6.150" width="1.025" height="1.025" fill="#999999" />
<rect x="31.775" y="6.150" width="1.025" height="1.025" fill="#e5e5e5" />
<rect x="30.750" y="7.175" width="1.025" height="1.025" fill="#999999" />
<rect x="31.775" y="7.175" width="1.025" height="1.025" fill="#e5e5e5" />
<rect x="30.750" y="8.200" width="1.025" height="1.025" fill="#999999" />
<rect x="31.775" y="8.200" width="1.025" height="1.025" fill="#e5e5e5" />
<rect x="30.750" y="9.225" width="1.025" height="1.025" fill="#999999" />
<rect x="31.775" y="9.225" width="1.025" height="1.025" fill="#e5e5e5" />
<rect x="30.750" y="10.250" width="1.025" height="1.025" fill="#999999" />
<rect x="31.775" y="10.250" width="1.025" height="1.025" fill="#e5e5e5" />
<rect x="30.750" y="11.275" width="1.025" height="1.025" fill="#999999" />
<rect x="31.775" y="11.275" width="1.025" height="1.025" fill="#e5e5e5" />
<rect x="30.750" y="12.300" width="1.025" height="1.025" fill="#999999" />
<rect x="31.775" y="12.300" width="1.025" height="1.025" fill="#e5e5e5" />
<rect x="30.750" y="13.325" width="1.025" height="1.025" fill="#999999" />
<rect x="31.775" y="13.325" width="1.025" height="1.025" fill="#e5e5e5" />
<rect x="31.775" y="14.350" width="1.025" height="1.025" fill="#999999" />
<rect x="32.800" y="14.350" width="1.025" height="1.025" fill="#e5e5e5" />
<rect x="31.775" y="15.375" width="1.025" height="1.025" fill="#999999" />
<rect x="32.800" y="15.375" width="1.025" height="1.025" fill="#e5e5e5" />
<rect x="31.775" y="16.400" width="1.025" height="1.025" fill="#999999" />
<rect x="32.800" y="16.400" width="1.025" height="1.025" fill="#e5e5e5" />
<rect x="31.775" y="17.425" width="1.025" height="1.025" fill="#999999" />
<rect x="32.800" y="17.425" width="1.025" height="1.025" fill="#e5e5e5" />
<rect x="31.775" y="18.450" width="1.025" height="1.025" fill="#999999" />
<rect x="32.800" y="18.450" width="1.025" height="1.025" fill="#e5e5e5" />
<rect x="31.775" y="19.475" width="1.025" height="1.025" fill="#999999" />
<rect x="32.800" y="19.475" width="1.025" height="1.025" fill="#e5e5e5" />
<rect x="31.775" y="20.500" width="1.025" height="1.025" fill="#999999" />
<rect x="32.800" y="20.500" width="1.025" height="1.025" fill="#e5e5e5" />
<rect x="31.775" y="21.525" width="1.025" height="1.025" fill="#999999" />
<rect x="32.800" y="21.525" width="1.025" height="1.025" fill="#e5e5e5" />
<rect x="31.775" y="22.550" width="1.025" height="1.025" fill="#999999" />
<rect x="32.800" y="22.550" width="1.025" height="1.025" fill="#e5e5e5" />
<rect x="31.775" y="23.575" width="1.025" height="1.025" fill="#999999" />
<rect x="32.800" y="23.575" width="1.025" height="1.025" fill="#e5e5e5" />
<rect x="32.800" y="24.600" width="1.025" height="1.025" fill="#999999" />
<rect x="33.825" y="24.600" width="1.025" height="1.025" fill="#e5e5e5" />
<rect x="32.800" y="25.625" width="1.025" height="1.025" fill="#999999" />
<rect x="33.825" y="25.625" width="1.025" height="1.025" fill="#e5e5e5" />
<rect x="32.800" y="26.650" width="1.025" height="1.025" fill="#999999" />
<rect x="33.825" y="26.650" width="1.025" height="1.025" fill="#e5e5e5" />
<rect x="32.800" y="27.675" width="1.025" height="1.025" fill="#999999" />
<rect x="33.825" y="27.675" width="1.025" height="1.025" fill="#e5e5e5" />
<rect x="32.800" y="28.700" width="1.025" height="1.025" fill="#999999" />
<rect x="33.825" y="28.700" width="1.025" height="1.025" fill="#e5e5e5" />
<rect x="32.800" y="29.725" width="1.025" height="1.025" fill="#999999" />
<rect x="33.825" y="29.725" width="1.025" height="1.025" fill="#e5e5e5" />
<rect x="32.800" y="30.750" width="1.025" height="1.025" fill="#999999" />
<rect x="33.825" y="30.750" width="1.025" height="1.025" fill="#e5e5e5" />
<rect x="32.800" y="31.775" width="1.025" height="1.025" fill="#999999" />
<rect x="33.825" y="31.775" width="1.025" height="1.025" fill="#e5e5e5" />
<rect x="32.800" y="32.800" width="1.025" height="1.025" fill="#999999" />
<rect x="33.825" y="32.800" width="1.025" height="1.025" fill="#e5e5e5" />
<rect x="32.800" y="33.825" width="1.025" height="1.025" fill="#999999" />
<rect x="33.825" y="33.825" width="1.025" height="1.025" fill="#e5e5e5" />
<rect x="32.800" y="34.850" width="1.025" height="1.025" fill="#999999" />
<rect x="33.825" y="34.850" width="1.025" height="1.025" fill="#e5e5e5" />
<rect x="30.750" y="35.875" width="1.025" height="1.025" fill="#262626" />
<rect x="31.775" y="35.875" width="1.025" height="1.025" fill="#262626" />
<rect x="32.800" y="35.875" width="1.025" height="1.025" fill="#404040" />
<rect x="33.825" y="35.875" width="1.025" height="1.025" fill="#262626" />
<rect x="34.850" y="35.875" width="1.025" height="1.025" fill="#404040" />
<rect x="35.875" y="35.875" width="1.025" height="1.025" fill="#404040" />
<rect x="32.800" y="36.900" width="1.025" height="1.025" fill="#683c11" />
<rect x="33.825" y="36.900" width="1.025" height="1.025" fill="#7f5122" />
</svg>