<svg xmlns="http://www.w3.org/2000/svg" width="37.925" height="37.925" shape-rendering="crispEdges" style="image-rendering: pixelated;">
<rect x="2.050" y="12.300" width="1.025" height="1.025" fill="#3f3f3f" />
<rect x="31.775" y="12.300" width="1.025" height="1.025" fill="#3f3f3f" />
<rect x="2.050" y="13.325" width="1.025" height="1.025" fill="#3f3f3f" />
<rect x="3.075" y="13.325" width="1.025" height="1.025" fill="#5e5e5e" />
<rect x="30.750" y="13.325" width="1.025" height="1.025" fill="#5e5e5e" />
<rect x="31.775" y="13.325" width="1.025" height="1.025" fill="#3f3f3f" />
<rect x="2.050" y="14.350" width="1.025" height="1.025" fill="#3f3f3f" />
<rect x="3.075" y="14.350" width="1.025" height="1.025" fill="#5e5e5e" />
<rect x="30.750" y="14.350" width="1.025" height="1.025" fill="#5e5e5e" />
<rect x="31.775" y="14.350" width="1.025" height="1.025" fill="#3f3f3f" />
<rect x="2.050" y="15.375" width="1.025" height="1.025" fill="#3f3f3f" />
<rect x="3.075" y="15.375" width="1.025" height="1.025" fill="#5e5e5e" />
<rect x="30.750" y="15.375" width="1.025" height="1.025" fill="#5e5e5e" />
<rect x="31.775" y="15.375" width="1.025" height="1.025" fill="#3f3f3f" />
<rect x="2.050" y="16.400" width="1.025" height="1.025" fill="#3f3f3f" />
<rect x="3.075" y="16.400" width="1.025" height="1.025" fill="#5e5e5e" />
<rect x="30.750" y="16.400" width="1.025" height="1.025" fill="#5e5e5e" />
<rect x="31.775" y="16.400" width="1.025" height="1.025" fill="#3f3f3f" />
<rect x="2.050" y="17.425" width="1.025" height="1.025" fill="#3f3f3f" />
<rect x="3.075" y="17.425" width="1.025" height="1.025" fill="#5e5e5e" />
<rect x="30.750" y="17.425" width="1.025" height="1.025" fill="#5e5e5e" />
<rect x="31.775" y="17.425" width="1.025" height="1.025" fill="#3f3f3f" />
<rect x="2.050" y="18.450" width="1.025" height="1.025" fill="#3f3f3f" />
<rect x="3.075" y="18.450" width="1.025" height="1.025" fill="#5e5e5e" />
<rect x="30.750" y="18.450" width="1.025" height="1.025" fill="#5e5e5e" />
<rect x="31.775" y="18.450" width="1.025" height="1.025" fill="#3f3f3f" />
<rect x="2.050" y="19.475" width="1.025" height="1.025" fill="#3f3f3f" />
<rect x="3.075" y="19.475" width="1.025" height="1.025" fill="#5e5e5e" />
<rect x="30.750" y="19.475" width="1.025" height="1.025" fill="#5e5e5e" />
<rect x="31.775" y="19.475" width="1.025" height="1.025" fill="#3f3f3f" />
<rect x="2.050" y="20.500" width="1.025" height="1.025" fill="#3f3f3f" />
<rect x="3.075" y="20.500" width="1.025" height="1.025" fill="#5e5e5e" />
<rect x="30.750" y="20.500" width="1.025" height="1.025" fill="#5e5e5e" />
<rect x="31.775" y="20.500" width="1.025" height="1.025" fill="#3f3f3f" />
<rect x="2.050" y="21.525" width="1.025" height="1.025" fill="#3f3f3f" />
<rect x="3.075" y="21.525" width="1.025" height="1.025" fill="#5e5e5e" />
<rect x="30.750" y="21.525" width="1.025" height="1.025" fill="#5e5e5e" />
<rect x="31.775" y="21.525" width="1.025" height="1.025" fill="#3f3f3f" />
<rect x="2.050" y="22.550" width="1.025" height="1.025" fill="#3f3f3f" />
<rect x="3.075" y="22.550" width="1.025" height="1.025" fill="#5e5e5e" />
<rect x="30.750" y="22.550" width="1.025" height="1.025" fill="#5e5e5e" />
<rect x="31.775" y="22.550" width="1.025" height="1.025" fill="#3f3f3f" />
<rect x="2.050" y="23.575" width="1.025" height="1.025" fill="#3f3f3f" />
<rect x="3.075" y="23.575" width="1.025" height="1.025" fill="#5e5e5e" />
<rect x="30.750" y="23.575" width="1.025" height="1.025" fill="#5e5e5e" />
<rect x="31.775" y="23.575" width="1.025" height="1.025" fill="#3f3f3f" />
<rect x="2.050" y="24.600" width="1.025" height="1.025" fill="#3f3f3f" />
<rect x="3.075" y="24.600" width="1.025" height="1.025" fill="#5e5e5e" />
<rect x="30.750" y="24.600" width="1.025" height="1.025" fill="#5e5e5e" />
<rect x="31.775" y="24.600" width="1.025" height="1.025" fill="#3f3f3f" />
<rect x="2.050" y="25.625" width="1.025" height="1.025" fill="#3f3f3f" />
<rect x="3.075" y="25.625" width="1.025" height="1.025" fill="#5e5e5e" />
<rect x="30.750" y="25.625" width="1.025" height="1.025" fill="#5e5e5e" />
<rect x="31.775" y="25.625" width="1.025" height="1.025" fill="#3f3f3f" />
<rect x="2.050" y="26.650" width="1.025" height="1.025" fill="#3f3f3f" />
<rect x="3.075" y="26.650" width="1.025" height="1.025" fill="#5e5e5e" />
<rect x="30.750" y="26.650" width="1.025" height="1.025" fill="#5e5e5e" />
<rect x="31.775" y="26.650" width="1.025" height="1.025" fill="#3f3f3f" />
<rect x="2.050" y="27.675" width="1.025" height="1.025" fill="#3f3f3f" />
<rect x="3.075" y="27.675" width="1.025" height="1.025" fill="#5e5e5e" />
<rect x="30.750" y="27.675" width="1.025" height="1.025" fill="#5e5e5e" />
<rect x="31.775" y="27.675" width="1.025" height="1.025" fill="#3f3f3f" />
<rect x="2.050" y="28.700" width="1.025" height="1.025" fill="#3f3f3f" />
<rect x="3.075" y="28.700" width="1.025" height="1.025" fill="#5e5e5e" />
<rect x="30.750" y="28.700" width="1.025" height="1.025" fill="#5e5e5e" />
<rect x="31.775" y="28.700" width="1.025" height="1.025" fill="#3f3f3f" />
<rect x="2.050" y="29.725" width="1.025" height="1.025" fill="#3f3f3f" />
<rect x="3.075" y="29.725" width="1.025" height="1.025" fill="#5e5e5e" />
<rect x="22.550" y="29.725" width="1.025" height="1.025" fill="#1a1a1a" />
<rect x="30.750" y="29.725" width="1.025" height="1.025" fill="#5e5e5e" />
<rect x="31.775" y="29.725" width="1.025" height="1.025" fill="#3f3f3f" />
<rect x="2.050" y="30.750" width="1.025" height="1.025" fill="#3f3f3f" />
<rect x="3.075" y="30.750" width="1.025" height="1.025" fill="#5e5e5e" />
<rect x="21.525" y="30.750" width="1.025" height="1.025" fill="#171717" />
<rect x="22.550" y="30.750" width="1.025" height="1.025" fill="#191919" />
<rect x="30.750" y="30.750" width="1.025" height="1.025" fill="#5e5e5e" />
<rect x="31.775" y="30.750" width="1.025" height="1.025" fill="#3f3f3f" />
<rect x="2.050" y="31.775" width="1.025" height="1.025" fill="#3f3f3f" />
<rect x="3.075" y="31.775" width="1.025" height="1.025" fill="#5e5e5e" />
<rect x="20.500" y="31.775" width="1.025" height="1.025" fill="#171717" />
<rect x="21.525" y="31.775" width="1.025" height="1.025" fill="#191919" />
<rect x="22.550" y="31.775" width="1.025" height="1.025" fill="#121212" />
<rect x="30.750" y="31.775" width="1.025" height="1.025" fill="#5e5e5e" />
<rect x="31.775" y="31.775" width="1.025" height="1.025" fill="#3f3f3f" />
<rect x="2.050" y="32.800" width="1.025" height="1.025" fill="#3f3f3f" />
<rect x="3.075" y="32.800" width="1.025" height="1.025" fill="#5e5e5e" />
<rect x="19.475" y="32.800" width="1.025" height="1.025" fill="#171717" />
<rect x="20.500" y="32.800" width="1.025" height="1.025" fill="#191919" />
<rect x="21.525" y="32.800" width="1.025" height="1.025" fill="#111111" />
<rect x="30.750" y="32.800" width="1.025" height="1.025" fill="#5e5e5e" />
<rect x="31.775" y="32.800" width="1.025" height="1.025" fill="#3f3f3f" />
<rect x="2.050" y="33.825" width="1.025" height="1.025" fill="#3f3f3f" />
<rect x="3.075" y="33.825" width="1.025" height="1.025" fill="#5e5e5e" />
<rect x="18.450" y="33.825" width="1.025" height="1.025" fill="#171717" />
<rect x="19.475" y="33.825" width="1.025" height="1.025" fill="#191919" />
<rect x="20.500" y="33.825" width="1.025" height="1.025" fill="#111111" />
<rect x="30.750" y="33.825" width="1.025" height="1.025" fill="#5e5e5e" />
<rect x="31.775" y="33.825" width="1.025" height="1.025" fill="#3f3f3f" />
<rect x="2.050" y="34.850" width="1.025" height="1.025" fill="#3f3f3f" />
<rect x="3.075" y="34.850" width="1.025" height="1.025" fill="#5e5e5e" />
<rect x="17.425" y="34.850" width="1.025" height="1.025" fill="#171717" />
<rect x="18.450" y="34.850" width="1.025" height="1.025" fill="#191919" />
<rect x="19.475" y="34.850" width="1.025" height="1.025" fill="#111111" />
<rect x="30.750" y="34.850" width="1.025" height="1.025" fill="#5e5e5e" />
<rect x="31.775" y="34.850" width="1.025" height="1.025" fill="#3f3f3f" />
<rect x="0.000" y="35.875" width="1.025" height="1.025" fill="#101010" />
<rect x="1.025" y="35.875" width="1.025" height="1.025" fill="#101010" />
<rect x="2.050" y="35.875" width="1.025" height="1.025" fill="#1a1a1a" />
<rect x="3.075" y="35.875" width="1.025" height="1.025" fill="#101010" />
<rect x="4.100" y="35.875" width="1.025" height="1.025" fill="#1a1a1a" />
<rect x="5.125" y="35.875" width="1.025" height="1.025" fill="#1a1a1a" />
<rect x="16.400" y="35.875" width="1.025" height="1.025" fill="#171717" />
<rect x="17.425" y="35.875" width="1.025" height="1.025" fill="#191919" />
<rect x="18.450" y="35.875" width="1.025" height="1.025" fill="#111111" />
<rect x="28.700" y="35.875" width="1.025" height="1.025" fill="#1a1a1a" />
<rect x="29.725" y="35.875" width="1.025" height="1.025" fill="#1a1a1a" />
<rect x="30.750" y="35.875" width="1.025" height="1.025" fill="#101010" />
<rect x="31.775" y="35.875" width="1.025" height="1.025" fill="#1a1a1a" />
<rect x="32.800" y="35.875" width="1.025" height="1.025" fill="#101010" />
<rect x="33.825" y="35.875" width="1.025" height="1.025" fill="#101010" />
<rect x="2.050" y="36.900" width="1.025" height="1.025" fill="#191919" />
<rect x="3.075" y="36.900" width="1.025" height="1.025" fill="#212121" />
<rect x="15.375" y="36.900" width="1.025" height="1.025" fill="#161616" />
<rect x="16.400" y="36.900" width="1.025" height="1.025" fill="#191919" />
<rect x="17.425" y="36.900" width="1.025" height="1.025" fill="#111111" />
<rect x="30.750" y="36.900" width="1.025" height="1.025" fill="#212121" />
<rect x="31.775" y="36.900" width="1.025" height="1.025" fill="#191919" />
</svg>