<svg xmlns="http://www.w3.org/2000/svg" width="37.925" height="37.925" shape-rendering="crispEdges" style="image-rendering: pixelated;">
<rect x="23.575" y="25.625" width="1.025" height="1.025" fill="#7d0e05" fill-opacity="0.949" />
<rect x="24.600" y="25.625" width="1.025" height="1.025" fill="#bd0510" fill-opacity="0.973" />
<rect x="25.625" y="25.625" width="1.025" height="1.025" fill="#860e06" fill-opacity="0.984" />
<rect x="26.650" y="25.625" width="1.025" height="1.025" fill="#c70612" fill-opacity="0.988" />
<rect x="27.675" y="25.625" width="1.025" height="1.025" fill="#8f0f07" fill-opacity="0.988" />
<rect x="28.700" y="25.625" width="1.025" height="1.025" fill="#d00612" fill-opacity="0.996" />
<rect x="29.725" y="25.625" width="1.025" height="1.025" fill="#d00612" fill-opacity="0.996" />
<rect x="19.475" y="26.650" width="1.025" height="1.025" fill="#000000" fill-opacity="0.533" />
<rect x="20.500" y="26.650" width="1.025" height="1.025" fill="#000000" fill-opacity="0.545" />
<rect x="21.525" y="26.650" width="1.025" height="1.025" fill="#6c0802" fill-opacity="0.953" />
<rect x="22.550" y="26.650" width="1.025" height="1.025" fill="#7a0e05" fill-opacity="0.976" />
<rect x="23.575" y="26.650" width="1.025" height="1.025" fill="#7a0e05" fill-opacity="0.976" />
<rect x="24.600" y="26.650" width="1.025" height="1.025" fill="#ba0510" fill-opacity="0.988" />
<rect x="25.625" y="26.650" width="1.025" height="1.025" fill="#850e06" fill-opacity="0.992" />
<rect x="26.650" y="26.650" width="1.025" height="1.025" fill="#c70612" fill-opacity="0.988" />
<rect x="27.675" y="26.650" width="1.025" height="1.025" fill="#8f0f07" fill-opacity="0.988" />
<rect x="28.700" y="26.650" width="1.025" height="1.025" fill="#d00612" fill-opacity="0.996" />
<rect x="29.725" y="26.650" width="1.025" height="1.025" fill="#d50612" />
<rect x="30.750" y="26.650" width="1.025" height="1.025" fill="#d80612" />
<rect x="31.775" y="26.650" width="1.025" height="1.025" fill="#990f06" />
<rect x="17.425" y="27.675" width="1.025" height="1.025" fill="#000000" fill-opacity="0.502" />
<rect x="18.450" y="27.675" width="1.025" height="1.025" fill="#000000" fill-opacity="0.533" />
<rect x="19.475" y="27.675" width="1.025" height="1.025" fill="#000000" fill-opacity="0.533" />
<rect x="20.500" y="27.675" width="1.025" height="1.025" fill="#93020b" fill-opacity="0.945" />
<rect x="21.525" y="27.675" width="1.025" height="1.025" fill="#7f0603" />
<rect x="22.550" y="27.675" width="1.025" height="1.025" fill="#b40410" />
<rect x="23.575" y="27.675" width="1.025" height="1.025" fill="#b30410" fill-opacity="0.992" />
<rect x="24.600" y="27.675" width="1.025" height="1.025" fill="#bd0511" />
<rect x="25.625" y="27.675" width="1.025" height="1.025" fill="#890d05" />
<rect x="26.650" y="27.675" width="1.025" height="1.025" fill="#ca0511" />
<rect x="27.675" y="27.675" width="1.025" height="1.025" fill="#920f06" />
<rect x="28.700" y="27.675" width="1.025" height="1.025" fill="#d50612" />
<rect x="29.725" y="27.675" width="1.025" height="1.025" fill="#d80612" />
<rect x="30.750" y="27.675" width="1.025" height="1.025" fill="#da0612" />
<rect x="31.775" y="27.675" width="1.025" height="1.025" fill="#990f06" fill-opacity="0.996" />
<rect x="32.800" y="27.675" width="1.025" height="1.025" fill="#df0613" />
<rect x="16.400" y="28.700" width="1.025" height="1.025" fill="#000000" fill-opacity="0.494" />
<rect x="17.425" y="28.700" width="1.025" height="1.025" fill="#000000" fill-opacity="0.561" />
<rect x="18.450" y="28.700" width="1.025" height="1.025" fill="#000000" fill-opacity="0.561" />
<rect x="19.475" y="28.700" width="1.025" height="1.025" fill="#750902" fill-opacity="0.984" />
<rect x="20.500" y="28.700" width="1.025" height="1.025" fill="#93020b" fill-opacity="0.949" />
<rect x="21.525" y="28.700" width="1.025" height="1.025" fill="#a0020b" fill-opacity="0.984" />
<rect x="22.550" y="28.700" width="1.025" height="1.025" fill="#7f0603" />
<rect x="23.575" y="28.700" width="1.025" height="1.025" fill="#b4040e" />
<rect x="24.600" y="28.700" width="1.025" height="1.025" fill="#bf0410" />
<rect x="25.625" y="28.700" width="1.025" height="1.025" fill="#8d0e06" />
<rect x="26.650" y="28.700" width="1.025" height="1.025" fill="#ca0511" />
<rect x="27.675" y="28.700" width="1.025" height="1.025" fill="#940f06" />
<rect x="28.700" y="28.700" width="1.025" height="1.025" fill="#d70613" />
<rect x="29.725" y="28.700" width="1.025" height="1.025" fill="#db0612" />
<rect x="30.750" y="28.700" width="1.025" height="1.025" fill="#990f06" fill-opacity="0.996" />
<rect x="31.775" y="28.700" width="1.025" height="1.025" fill="#df0613" />
<rect x="32.800" y="28.700" width="1.025" height="1.025" fill="#e10613" />
<rect x="33.825" y="28.700" width="1.025" height="1.025" fill="#9b1006" />
<rect x="15.375" y="29.725" width="1.025" height="1.025" fill="#000000" fill-opacity="0.545" />
<rect x="16.400" y="29.725" width="1.025" height="1.025" fill="#000000" fill-opacity="0.494" />
<rect x="17.425" y="29.725" width="1.025" height="1.025" fill="#000000" fill-opacity="0.545" />
<rect x="18.450" y="29.725" width="1.025" height="1.025" fill="#9d010b" fill-opacity="0.984" />
<rect x="19.475" y="29.725" width="1.025" height="1.025" fill="#91020a" fill-opacity="0.945" />
<rect x="20.500" y="29.725" width="1.025" height="1.025" fill="#750902" fill-opacity="0.984" />
<rect x="21.525" y="29.725" width="1.025" height="1.025" fill="#a6010c" />
<rect x="22.550" y="29.725" width="1.025" height="1.025" fill="#ab020c" />
<rect x="23.575" y="29.725" width="1.025" height="1.025" fill="#840c03" />
<rect x="24.600" y="29.725" width="1.025" height="1.025" fill="#c0030f" />
<rect x="25.625" y="29.725" width="1.025" height="1.025" fill="#8c0d05" />
<rect x="26.650" y="29.725" width="1.025" height="1.025" fill="#cf0511" />
<rect x="27.675" y="29.725" width="1.025" height="1.025" fill="#930d06" />
<rect x="28.700" y="29.725" width="1.025" height="1.025" fill="#da0612" />
<rect x="29.725" y="29.725" width="1.025" height="1.025" fill="#991006" />
<rect x="30.750" y="29.725" width="1.025" height="1.025" fill="#de0613" />
<rect x="31.775" y="29.725" width="1.025" height="1.025" fill="#e10613" />
<rect x="32.800" y="29.725" width="1.025" height="1.025" fill="#9b1006" />
<rect x="33.825" y="29.725" width="1.025" height="1.025" fill="#e30613" />
<rect x="34.850" y="29.725" width="1.025" height="1.025" fill="#990f06" />
<rect x="14.350" y="30.750" width="1.025" height="1.025" fill="#000000" fill-opacity="0.545" />
<rect x="15.375" y="30.750" width="1.025" height="1.025" fill="#000000" fill-opacity="0.490" />
<rect x="16.400" y="30.750" width="1.025" height="1.025" fill="#000000" fill-opacity="0.545" />
<rect x="17.425" y="30.750" width="1.025" height="1.025" fill="#000000" fill-opacity="0.561" />
<rect x="18.450" y="30.750" width="1.025" height="1.025" fill="#910109" fill-opacity="0.941" />
<rect x="19.475" y="30.750" width="1.025" height="1.025" fill="#9d010b" fill-opacity="0.984" />
<rect x="20.500" y="30.750" width="1.025" height="1.025" fill="#a3010a" />
<rect x="21.525" y="30.750" width="1.025" height="1.025" fill="#7f0701" />
<rect x="22.550" y="30.750" width="1.025" height="1.025" fill="#b0020b" />
<rect x="23.575" y="30.750" width="1.025" height="1.025" fill="#830902" />
<rect x="24.600" y="30.750" width="1.025" height="1.025" fill="#c1040d" />
<rect x="25.625" y="30.750" width="1.025" height="1.025" fill="#8f0e05" />
<rect x="26.650" y="30.750" width="1.025" height="1.025" fill="#d10611" />
<rect x="27.675" y="30.750" width="1.025" height="1.025" fill="#950f06" />
<rect x="28.700" y="30.750" width="1.025" height="1.025" fill="#d80512" />
<rect x="29.725" y="30.750" width="1.025" height="1.025" fill="#990f05" />
<rect x="30.750" y="30.750" width="1.025" height="1.025" fill="#e00612" />
<rect x="31.775" y="30.750" width="1.025" height="1.025" fill="#9c1006" />
<rect x="32.800" y="30.750" width="1.025" height="1.025" fill="#e20613" />
<rect x="33.825" y="30.750" width="1.025" height="1.025" fill="#e30613" />
<rect x="34.850" y="30.750" width="1.025" height="1.025" fill="#e30613" />
<rect x="35.875" y="30.750" width="1.025" height="1.025" fill="#990f06" />
<rect x="14.350" y="31.775" width="1.025" height="1.025" fill="#000000" fill-opacity="0.482" />
<rect x="15.375" y="31.775" width="1.025" height="1.025" fill="#000000" fill-opacity="0.545" />
<rect x="16.400" y="31.775" width="1.025" height="1.025" fill="#000000" fill-opacity="0.561" />
<rect x="17.425" y="31.775" width="1.025" height="1.025" fill="#6a0602" />
<rect x="18.450" y="31.775" width="1.025" height="1.025" fill="#6d0601" fill-opacity="0.973" />
<rect x="19.475" y="31.775" width="1.025" height="1.025" fill="#770501" />
<rect x="20.500" y="31.775" width="1.025" height="1.025" fill="#a7010a" />
<rect x="21.525" y="31.775" width="1.025" height="1.025" fill="#ad010b" />
<rect x="22.550" y="31.775" width="1.025" height="1.025" fill="#810901" />
<rect x="23.575" y="31.775" width="1.025" height="1.025" fill="#ba0308" />
<rect x="24.600" y="31.775" width="1.025" height="1.025" fill="#633107" />
<rect x="25.625" y="31.775" width="1.025" height="1.025" fill="#b77e48" />
<rect x="26.650" y="31.775" width="1.025" height="1.025" fill="#734013" />
<rect x="27.675" y="31.775" width="1.025" height="1.025" fill="#bf9560" />
<rect x="28.700" y="31.775" width="1.025" height="1.025" fill="#991005" />
<rect x="29.725" y="31.775" width="1.025" height="1.025" fill="#de0512" />
<rect x="30.750" y="31.775" width="1.025" height="1.025" fill="#9a1006" />
<rect x="31.775" y="31.775" width="1.025" height="1.025" fill="#e10613" />
<rect x="32.800" y="31.775" width="1.025" height="1.025" fill="#e20613" />
<rect x="33.825" y="31.775" width="1.025" height="1.025" fill="#9c1006" />
<rect x="34.850" y="31.775" width="1.025" height="1.025" fill="#9c1006" />
<rect x="35.875" y="31.775" width="1.025" height="1.025" fill="#e30613" />
<rect x="36.900" y="31.775" width="1.025" height="1.025" fill="#a60808" />
<rect x="13.325" y="32.800" width="1.025" height="1.025" fill="#000000" fill-opacity="0.561" />
<rect x="14.350" y="32.800" width="1.025" height="1.025" fill="#000000" fill-opacity="0.522" />
<rect x="15.375" y="32.800" width="1.025" height="1.025" fill="#000000" fill-opacity="0.557" />
<rect x="16.400" y="32.800" width="1.025" height="1.025" fill="#6a0602" />
<rect x="17.425" y="32.800" width="1.025" height="1.025" fill="#a2010b" fill-opacity="0.949" />
<rect x="18.450" y="32.800" width="1.025" height="1.025" fill="#a5010a" fill-opacity="0.984" />
<rect x="19.475" y="32.800" width="1.025" height="1.025" fill="#a80109" />
<rect x="20.500" y="32.800" width="1.025" height="1.025" fill="#7a0501" />
<rect x="21.525" y="32.800" width="1.025" height="1.025" fill="#800601" />
<rect x="22.550" y="32.800" width="1.025" height="1.025" fill="#b4020a" />
<rect x="23.575" y="32.800" width="1.025" height="1.025" fill="#582904" />
<rect x="24.600" y="32.800" width="1.025" height="1.025" fill="#5e3408" />
<rect x="25.625" y="32.800" width="1.025" height="1.025" fill="#b58646" />
<rect x="26.650" y="32.800" width="1.025" height="1.025" fill="#6c3e12" />
<rect x="27.675" y="32.800" width="1.025" height="1.025" fill="#734515" />
<rect x="28.700" y="32.800" width="1.025" height="1.025" fill="#c69d67" />
<rect x="29.725" y="32.800" width="1.025" height="1.025" fill="#980f06" />
<rect x="30.750" y="32.800" width="1.025" height="1.025" fill="#e10512" />
<rect x="31.775" y="32.800" width="1.025" height="1.025" fill="#9a1006" />
<rect x="32.800" y="32.800" width="1.025" height="1.025" fill="#9b1006" />
<rect x="33.825" y="32.800" width="1.025" height="1.025" fill="#e30613" />
<rect x="34.850" y="32.800" width="1.025" height="1.025" fill="#e30613" />
<rect x="35.875" y="32.800" width="1.025" height="1.025" fill="#a6020b" />
<rect x="12.300" y="33.825" width="1.025" height="1.025" fill="#000000" fill-opacity="0.561" />
<rect x="13.325" y="33.825" width="1.025" height="1.025" fill="#000000" fill-opacity="0.498" />
<rect x="14.350" y="33.825" width="1.025" height="1.025" fill="#000000" fill-opacity="0.537" />
<rect x="15.375" y="33.825" width="1.025" height="1.025" fill="#000000" fill-opacity="0.557" />
<rect x="16.400" y="33.825" width="1.025" height="1.025" fill="#000000" fill-opacity="0.561" />
<rect x="17.425" y="33.825" width="1.025" height="1.025" fill="#000000" fill-opacity="0.561" />
<rect x="18.450" y="33.825" width="1.025" height="1.025" fill="#ac010a" fill-opacity="0.965" />
<rect x="19.475" y="33.825" width="1.025" height="1.025" fill="#720901" fill-opacity="0.980" />
<rect x="20.500" y="33.825" width="1.025" height="1.025" fill="#b40108" fill-opacity="0.992" />
<rect x="21.525" y="33.825" width="1.025" height="1.025" fill="#b70208" fill-opacity="0.996" />
<rect x="22.550" y="33.825" width="1.025" height="1.025" fill="#5c2904" />
<rect x="23.575" y="33.825" width="1.025" height="1.025" fill="#ac732f" />
<rect x="24.600" y="33.825" width="1.025" height="1.025" fill="#623608" />
<rect x="25.625" y="33.825" width="1.025" height="1.025" fill="#bb8748" />
<rect x="26.650" y="33.825" width="1.025" height="1.025" fill="#6d420f" />
<rect x="27.675" y="33.825" width="1.025" height="1.025" fill="#c1965f" />
<rect x="28.700" y="33.825" width="1.025" height="1.025" fill="#754718" />
<rect x="29.725" y="33.825" width="1.025" height="1.025" fill="#c89f6d" />
<rect x="30.750" y="33.825" width="1.025" height="1.025" fill="#9a0f06" />
<rect x="31.775" y="33.825" width="1.025" height="1.025" fill="#e10613" />
<rect x="32.800" y="33.825" width="1.025" height="1.025" fill="#e20613" />
<rect x="33.825" y="33.825" width="1.025" height="1.025" fill="#ab020c" />
<rect x="14.350" y="34.850" width="1.025" height="1.025" fill="#000000" fill-opacity="0.514" />
<rect x="15.375" y="34.850" width="1.025" height="1.025" fill="#000000" fill-opacity="0.533" />
<rect x="16.400" y="34.850" width="1.025" height="1.025" fill="#000000" fill-opacity="0.553" />
<rect x="17.425" y="34.850" width="1.025" height="1.025" fill="#000000" fill-opacity="0.557" />
<rect x="18.450" y="34.850" width="1.025" height="1.025" fill="#000000" fill-opacity="0.561" />
<rect x="19.475" y="34.850" width="1.025" height="1.025" fill="#000000" fill-opacity="0.561" />
<rect x="20.500" y="34.850" width="1.025" height="1.025" fill="#760a01" fill-opacity="0.965" />
<rect x="21.525" y="34.850" width="1.025" height="1.025" fill="#7a0d01" fill-opacity="0.973" />
<rect x="22.550" y="34.850" width="1.025" height="1.025" fill="#ae712e" fill-opacity="0.984" />
<rect x="23.575" y="34.850" width="1.025" height="1.025" fill="#603507" fill-opacity="0.992" />
<rect x="24.600" y="34.850" width="1.025" height="1.025" fill="#b88442" />
<rect x="25.625" y="34.850" width="1.025" height="1.025" fill="#653809" />
<rect x="26.650" y="34.850" width="1.025" height="1.025" fill="#bc9352" />
<rect x="27.675" y="34.850" width="1.025" height="1.025" fill="#704212" />
<rect x="28.700" y="34.850" width="1.025" height="1.025" fill="#c59c68" />
<rect x="29.725" y="34.850" width="1.025" height="1.025" fill="#794a1c" />
<rect x="30.750" y="34.850" width="1.025" height="1.025" fill="#e00612" fill-opacity="0.996" />
<rect x="31.775" y="34.850" width="1.025" height="1.025" fill="#ab020c" />
<rect x="16.400" y="35.875" width="1.025" height="1.025" fill="#000000" fill-opacity="0.514" />
<rect x="17.425" y="35.875" width="1.025" height="1.025" fill="#000000" fill-opacity="0.529" />
<rect x="18.450" y="35.875" width="1.025" height="1.025" fill="#000000" fill-opacity="0.537" />
<rect x="19.475" y="35.875" width="1.025" height="1.025" fill="#000000" fill-opacity="0.553" />
<rect x="20.500" y="35.875" width="1.025" height="1.025" fill="#000000" fill-opacity="0.561" />
<rect x="21.525" y="35.875" width="1.025" height="1.025" fill="#000000" fill-opacity="0.561" />
<rect x="22.550" y="35.875" width="1.025" height="1.025" fill="#000000" fill-opacity="0.561" />
<rect x="23.575" y="35.875" width="1.025" height="1.025" fill="#bb8243" fill-opacity="0.992" />
<rect x="24.600" y="35.875" width="1.025" height="1.025" fill="#603607" />
<rect x="25.625" y="35.875" width="1.025" height="1.025" fill="#0a0909" />
<rect x="26.650" y="35.875" width="1.025" height="1.025" fill="#6a3c0f" />
<rect x="27.675" y="35.875" width="1.025" height="1.025" fill="#c29961" />
<rect x="28.700" y="35.875" width="1.025" height="1.025" fill="#754819" fill-opacity="0.996" />
<rect x="19.475" y="36.900" width="1.025" height="1.025" fill="#000000" fill-opacity="0.549" />
<rect x="20.500" y="36.900" width="1.025" height="1.025" fill="#000000" fill-opacity="0.561" />
<rect x="21.525" y="36.900" width="1.025" height="1.025" fill="#000000" fill-opacity="0.561" />
<rect x="22.550" y="36.900" width="1.025" height="1.025" fill="#000000" fill-opacity="0.561" />
<rect x="23.575" y="36.900" width="1.025" height="1.025" fill="#000000" fill-opacity="0.561" />
<rect x="24.600" y="36.900" width="1.025" height="1.025" fill="#be9252" />
<rect x="25.625" y="36.900" width="1.025" height="1.025" fill="#68390d" />
<rect x="26.650" y="36.900" width="1.025" height="1.025" fill="#ba935a" />
<rect x="27.675" y="36.900" width="1.025" height="1.025" fill="#704415" />
</svg>