<svg xmlns="http://www.w3.org/2000/svg" width="37.925" height="37.925" shape-rendering="crispEdges" style="image-rendering: pixelated;">
<rect x="31.775" y="6.150" width="1.025" height="1.025" fill="#653a0f" />
<rect x="32.800" y="6.150" width="1.025" height="1.025" fill="#322823" />
<rect x="31.775" y="7.175" width="1.025" height="1.025" fill="#61370e" />
<rect x="32.800" y="7.175" width="1.025" height="1.025" fill="#28201b" />
<rect x="31.775" y="8.200" width="1.025" height="1.025" fill="#5f350d" />
<rect x="32.800" y="8.200" width="1.025" height="1.025" fill="#251c18" />
<rect x="31.775" y="9.225" width="1.025" height="1.025" fill="#5c330c" />
<rect x="32.800" y="9.225" width="1.025" height="1.025" fill="#d9d9d9" />
<rect x="31.775" y="10.250" width="1.025" height="1.025" fill="#cebca5" />
<rect x="32.800" y="10.250" width="1.025" height="1.025" fill="#d9d9d9" />
<rect x="31.775" y="11.275" width="1.025" height="1.025" fill="#d9d9d9" />
<rect x="32.800" y="11.275" width="1.025" height="1.025" fill="#211915" />
<rect x="31.775" y="12.300" width="1.025" height="1.025" fill="#542d08" />
<rect x="32.800" y="12.300" width="1.025" height="1.025" fill="#d9d9d9" />
<rect x="31.775" y="13.325" width="1.025" height="1.025" fill="#cebca5" />
<rect x="32.800" y="13.325" width="1.025" height="1.025" fill="#d9d9d9" />
<rect x="31.775" y="14.350" width="1.025" height="1.025" fill="#d9d9d9" />
<rect x="32.800" y="14.350" width="1.025" height="1.025" fill="#221a16" />
<rect x="31.775" y="15.375" width="1.025" height="1.025" fill="#4e2907" />
<rect x="32.800" y="15.375" width="1.025" height="1.025" fill="#d9d9d9" />
<rect x="31.775" y="16.400" width="1.025" height="1.025" fill="#cebca5" />
<rect x="32.800" y="16.400" width="1.025" height="1.025" fill="#221917" />
<rect x="31.775" y="17.425" width="1.025" height="1.025" fill="#d9d9d9" />
<rect x="32.800" y="17.425" width="1.025" height="1.025" fill="#1f1815" />
<rect x="31.775" y="18.450" width="1.025" height="1.025" fill="#4c2907" />
<rect x="32.800" y="18.450" width="1.025" height="1.025" fill="#201915" />
<rect x="31.775" y="19.475" width="1.025" height="1.025" fill="#4d2907" />
<rect x="32.800" y="19.475" width="1.025" height="1.025" fill="#d9d9d9" />
<rect x="31.775" y="20.500" width="1.025" height="1.025" fill="#cebca5" />
<rect x="32.800" y="20.500" width="1.025" height="1.025" fill="#d9d9d9" />
<rect x="31.775" y="21.525" width="1.025" height="1.025" fill="#d9d9d9" />
<rect x="32.800" y="21.525" width="1.025" height="1.025" fill="#221916" />
<rect x="31.775" y="22.550" width="1.025" height="1.025" fill="#4d2907" />
<rect x="32.800" y="22.550" width="1.025" height="1.025" fill="#241c19" />
<rect x="31.775" y="23.575" width="1.025" height="1.025" fill="#512c07" />
<rect x="32.800" y="23.575" width="1.025" height="1.025" fill="#2a211c" />
<rect x="31.775" y="24.600" width="1.025" height="1.025" fill="#532d08" />
<rect x="32.800" y="24.600" width="1.025" height="1.025" fill="#2e2621" />
<rect x="31.775" y="25.625" width="1.025" height="1.025" fill="#57310a" />
<rect x="32.800" y="25.625" width="1.025" height="1.025" fill="#352b26" />
<rect x="31.775" y="26.650" width="1.025" height="1.025" fill="#5d340c" />
<rect x="32.800" y="26.650" width="1.025" height="1.025" fill="#372d28" />
<rect x="31.775" y="27.675" width="1.025" height="1.025" fill="#5e350c" />
<rect x="32.800" y="27.675" width="1.025" height="1.025" fill="#382e29" />
<rect x="31.775" y="28.700" width="1.025" height="1.025" fill="#5f350c" />
<rect x="32.800" y="28.700" width="1.025" height="1.025" fill="#382e29" />
<rect x="31.775" y="29.725" width="1.025" height="1.025" fill="#5e350c" />
<rect x="32.800" y="29.725" width="1.025" height="1.025" fill="#392e29" />
<rect x="31.775" y="30.750" width="1.025" height="1.025" fill="#5f350c" />
<rect x="32.800" y="30.750" width="1.025" height="1.025" fill="#372c28" />
<rect x="31.775" y="31.775" width="1.025" height="1.025" fill="#60360d" />
<rect x="32.800" y="31.775" width="1.025" height="1.025" fill="#372c27" />
<rect x="31.775" y="32.800" width="1.025" height="1.025" fill="#673b10" />
<rect x="32.800" y="32.800" width="1.025" height="1.025" fill="#372d28" />
<rect x="31.775" y="33.825" width="1.025" height="1.025" fill="#673c11" />
<rect x="32.800" y="33.825" width="1.025" height="1.025" fill="#372d28" />
<rect x="31.775" y="34.850" width="1.025" height="1.025" fill="#653a0f" />
<rect x="32.800" y="34.850" width="1.025" height="1.025" fill="#312722" />
<rect x="31.775" y="35.875" width="1.025" height="1.025" fill="#5f350d" />
<rect x="32.800" y="35.875" width="1.025" height="1.025" fill="#2c221e" />
<rect x="31.775" y="36.900" width="1.025" height="1.025" fill="#5c330b" />
<rect x="32.800" y="36.900" width="1.025" height="1.025" fill="#2e2520" />
</svg>