<svg xmlns="http://www.w3.org/2000/svg" width="37.925" height="37.925" shape-rendering="crispEdges" style="image-rendering: pixelated;">
<rect x="32.800" y="21.525" width="1.025" height="1.025" fill="#8c8c8c" />
<rect x="33.825" y="21.525" width="1.025" height="1.025" fill="#bfbfbf" />
<rect x="34.850" y="21.525" width="1.025" height="1.025" fill="#bfbfbf" />
<rect x="30.750" y="22.550" width="1.025" height="1.025" fill="#8c8c8c" />
<rect x="31.775" y="22.550" width="1.025" height="1.025" fill="#8c8c8c" />
<rect x="32.800" y="22.550" width="1.025" height="1.025" fill="#bfbfbf" />
<rect x="33.825" y="22.550" width="1.025" height="1.025" fill="#d9d9d9" />
<rect x="34.850" y="22.550" width="1.025" height="1.025" fill="#d9d9d9" />
<rect x="35.875" y="22.550" width="1.025" height="1.025" fill="#d9d9d9" />
<rect x="3.075" y="23.575" width="1.025" height="1.025" fill="#d9d9d9" />
<rect x="4.100" y="23.575" width="1.025" height="1.025" fill="#bfbfbf" />
<rect x="5.125" y="23.575" width="1.025" height="1.025" fill="#8c8c8c" />
<rect x="6.150" y="23.575" width="1.025" height="1.025" fill="#8c8c8c" />
<rect x="7.175" y="23.575" width="1.025" height="1.025" fill="#8c8c8c" />
<rect x="8.200" y="23.575" width="1.025" height="1.025" fill="#8c8c8c" />
<rect x="9.225" y="23.575" width="1.025" height="1.025" fill="#8c8c8c" />
<rect x="10.250" y="23.575" width="1.025" height="1.025" fill="#8c8c8c" />
<rect x="11.275" y="23.575" width="1.025" height="1.025" fill="#8c8c8c" />
<rect x="29.725" y="23.575" width="1.025" height="1.025" fill="#8c8c8c" />
<rect x="30.750" y="23.575" width="1.025" height="1.025" fill="#8c8c8c" />
<rect x="31.775" y="23.575" width="1.025" height="1.025" fill="#bfbfbf" />
<rect x="32.800" y="23.575" width="1.025" height="1.025" fill="#d9d9d9" />
<rect x="3.075" y="24.600" width="1.025" height="1.025" fill="#d9d9d9" />
<rect x="4.100" y="24.600" width="1.025" height="1.025" fill="#bfbfbf" />
<rect x="5.125" y="24.600" width="1.025" height="1.025" fill="#8c8c8c" />
<rect x="6.150" y="24.600" width="1.025" height="1.025" fill="#bfbfbf" />
<rect x="7.175" y="24.600" width="1.025" height="1.025" fill="#bfbfbf" />
<rect x="8.200" y="24.600" width="1.025" height="1.025" fill="#bfbfbf" />
<rect x="9.225" y="24.600" width="1.025" height="1.025" fill="#bfbfbf" />
<rect x="10.250" y="24.600" width="1.025" height="1.025" fill="#bfbfbf" />
<rect x="11.275" y="24.600" width="1.025" height="1.025" fill="#bfbfbf" />
<rect x="12.300" y="24.600" width="1.025" height="1.025" fill="#8c8c8c" />
<rect x="28.700" y="24.600" width="1.025" height="1.025" fill="#8c8c8c" />
<rect x="29.725" y="24.600" width="1.025" height="1.025" fill="#8c8c8c" />
<rect x="30.750" y="24.600" width="1.025" height="1.025" fill="#bfbfbf" />
<rect x="31.775" y="24.600" width="1.025" height="1.025" fill="#d9d9d9" />
<rect x="3.075" y="25.625" width="1.025" height="1.025" fill="#d9d9d9" />
<rect x="4.100" y="25.625" width="1.025" height="1.025" fill="#bfbfbf" />
<rect x="5.125" y="25.625" width="1.025" height="1.025" fill="#8c8c8c" />
<rect x="6.150" y="25.625" width="1.025" height="1.025" fill="#d9d9d9" />
<rect x="7.175" y="25.625" width="1.025" height="1.025" fill="#d9d9d9" />
<rect x="8.200" y="25.625" width="1.025" height="1.025" fill="#d9d9d9" />
<rect x="9.225" y="25.625" width="1.025" height="1.025" fill="#d9d9d9" />
<rect x="10.250" y="25.625" width="1.025" height="1.025" fill="#d9d9d9" />
<rect x="11.275" y="25.625" width="1.025" height="1.025" fill="#d9d9d9" />
<rect x="12.300" y="25.625" width="1.025" height="1.025" fill="#bfbfbf" />
<rect x="13.325" y="25.625" width="1.025" height="1.025" fill="#8c8c8c" />
<rect x="27.675" y="25.625" width="1.025" height="1.025" fill="#8c8c8c" />
<rect x="28.700" y="25.625" width="1.025" height="1.025" fill="#8c8c8c" />
<rect x="29.725" y="25.625" width="1.025" height="1.025" fill="#bfbfbf" />
<rect x="30.750" y="25.625" width="1.025" height="1.025" fill="#d9d9d9" />
<rect x="3.075" y="26.650" width="1.025" height="1.025" fill="#7f5122" />
<rect x="4.100" y="26.650" width="1.025" height="1.025" fill="#683c11" />
<rect x="5.125" y="26.650" width="1.025" height="1.025" fill="#3d322d" />
<rect x="12.300" y="26.650" width="1.025" height="1.025" fill="#d9d9d9" />
<rect x="13.325" y="26.650" width="1.025" height="1.025" fill="#8c8c8c" />
<rect x="26.650" y="26.650" width="1.025" height="1.025" fill="#d9d9d9" />
<rect x="27.675" y="26.650" width="1.025" height="1.025" fill="#bfbfbf" />
<rect x="28.700" y="26.650" width="1.025" height="1.025" fill="#d9d9d9" />
<rect x="29.725" y="26.650" width="1.025" height="1.025" fill="#d9d9d9" />
<rect x="3.075" y="27.675" width="1.025" height="1.025" fill="#7f5122" />
<rect x="4.100" y="27.675" width="1.025" height="1.025" fill="#683c11" />
<rect x="5.125" y="27.675" width="1.025" height="1.025" fill="#3d322d" />
<rect x="13.325" y="27.675" width="1.025" height="1.025" fill="#d9d9d9" />
<rect x="26.650" y="27.675" width="1.025" height="1.025" fill="#d9d9d9" />
<rect x="27.675" y="27.675" width="1.025" height="1.025" fill="#d9d9d9" />
<rect x="28.700" y="27.675" width="1.025" height="1.025" fill="#bfbfbf" />
<rect x="29.725" y="27.675" width="1.025" height="1.025" fill="#d9d9d9" />
<rect x="3.075" y="28.700" width="1.025" height="1.025" fill="#7f5122" />
<rect x="4.100" y="28.700" width="1.025" height="1.025" fill="#683c11" />
<rect x="5.125" y="28.700" width="1.025" height="1.025" fill="#3d322d" />
<rect x="27.675" y="28.700" width="1.025" height="1.025" fill="#d9d9d9" />
<rect x="28.700" y="28.700" width="1.025" height="1.025" fill="#bfbfbf" />
<rect x="29.725" y="28.700" width="1.025" height="1.025" fill="#8c8c8c" />
<rect x="3.075" y="29.725" width="1.025" height="1.025" fill="#7f5122" />
<rect x="4.100" y="29.725" width="1.025" height="1.025" fill="#683c11" />
<rect x="5.125" y="29.725" width="1.025" height="1.025" fill="#3d322d" />
<rect x="27.675" y="29.725" width="1.025" height="1.025" fill="#d9d9d9" />
<rect x="28.700" y="29.725" width="1.025" height="1.025" fill="#683c11" />
<rect x="29.725" y="29.725" width="1.025" height="1.025" fill="#683c11" />
<rect x="30.750" y="29.725" width="1.025" height="1.025" fill="#3d322d" />
<rect x="3.075" y="30.750" width="1.025" height="1.025" fill="#7f5122" />
<rect x="4.100" y="30.750" width="1.025" height="1.025" fill="#683c11" />
<rect x="5.125" y="30.750" width="1.025" height="1.025" fill="#3d322d" />
<rect x="28.700" y="30.750" width="1.025" height="1.025" fill="#7f5122" />
<rect x="29.725" y="30.750" width="1.025" height="1.025" fill="#683c11" />
<rect x="30.750" y="30.750" width="1.025" height="1.025" fill="#3d322d" />
<rect x="3.075" y="31.775" width="1.025" height="1.025" fill="#7f5122" />
<rect x="4.100" y="31.775" width="1.025" height="1.025" fill="#683c11" />
<rect x="5.125" y="31.775" width="1.025" height="1.025" fill="#3d322d" />
<rect x="29.725" y="31.775" width="1.025" height="1.025" fill="#683c11" />
<rect x="30.750" y="31.775" width="1.025" height="1.025" fill="#683c11" />
<rect x="31.775" y="31.775" width="1.025" height="1.025" fill="#3d322d" />
<rect x="3.075" y="32.800" width="1.025" height="1.025" fill="#7f5122" />
<rect x="4.100" y="32.800" width="1.025" height="1.025" fill="#683c11" />
<rect x="5.125" y="32.800" width="1.025" height="1.025" fill="#3d322d" />
<rect x="29.725" y="32.800" width="1.025" height="1.025" fill="#7f5122" />
<rect x="30.750" y="32.800" width="1.025" height="1.025" fill="#683c11" />
<rect x="31.775" y="32.800" width="1.025" height="1.025" fill="#3d322d" />
<rect x="3.075" y="33.825" width="1.025" height="1.025" fill="#7f5122" />
<rect x="4.100" y="33.825" width="1.025" height="1.025" fill="#683c11" />
<rect x="5.125" y="33.825" width="1.025" height="1.025" fill="#3d322d" />
<rect x="30.750" y="33.825" width="1.025" height="1.025" fill="#683c11" />
<rect x="31.775" y="33.825" width="1.025" height="1.025" fill="#683c11" />
<rect x="32.800" y="33.825" width="1.025" height="1.025" fill="#3d322d" />
<rect x="3.075" y="34.850" width="1.025" height="1.025" fill="#7f5122" />
<rect x="4.100" y="34.850" width="1.025" height="1.025" fill="#683c11" />
<rect x="5.125" y="34.850" width="1.025" height="1.025" fill="#3d322d" />
<rect x="30.750" y="34.850" width="1.025" height="1.025" fill="#7f5122" />
<rect x="31.775" y="34.850" width="1.025" height="1.025" fill="#683c11" />
<rect x="32.800" y="34.850" width="1.025" height="1.025" fill="#3d322d" />
<rect x="3.075" y="35.875" width="1.025" height="1.025" fill="#7f5122" />
<rect x="4.100" y="35.875" width="1.025" height="1.025" fill="#683c11" />
<rect x="5.125" y="35.875" width="1.025" height="1.025" fill="#3d322d" />
<rect x="31.775" y="35.875" width="1.025" height="1.025" fill="#683c11" />
<rect x="32.800" y="35.875" width="1.025" height="1.025" fill="#683c11" />
<rect x="33.825" y="35.875" width="1.025" height="1.025" fill="#3d322d" />
<rect x="3.075" y="36.900" width="1.025" height="1.025" fill="#7f5122" />
<rect x="4.100" y="36.900" width="1.025" height="1.025" fill="#683c11" />
<rect x="5.125" y="36.900" width="1.025" height="1.025" fill="#3d322d" />
<rect x="31.775" y="36.900" width="1.025" height="1.025" fill="#7f5122" />
<rect x="32.800" y="36.900" width="1.025" height="1.025" fill="#683c11" />
<rect x="33.825" y="36.900" width="1.025" height="1.025" fill="#3d322d" />
</svg>