<svg xmlns="http://www.w3.org/2000/svg" width="37.925" height="37.925" shape-rendering="crispEdges" style="image-rendering: pixelated;">
<rect x="5.125" y="20.500" width="1.025" height="1.025" fill="#1a1a1a" />
<rect x="32.800" y="20.500" width="1.025" height="1.025" fill="#1a1a1a" />
<rect x="5.125" y="21.525" width="1.025" height="1.025" fill="#1a1a1a" />
<rect x="32.800" y="21.525" width="1.025" height="1.025" fill="#1a1a1a" />
<rect x="5.125" y="22.550" width="1.025" height="1.025" fill="#191919" />
<rect x="32.800" y="22.550" width="1.025" height="1.025" fill="#191919" />
<rect x="5.125" y="23.575" width="1.025" height="1.025" fill="#191919" />
<rect x="32.800" y="23.575" width="1.025" height="1.025" fill="#191919" />
<rect x="5.125" y="24.600" width="1.025" height="1.025" fill="#191919" />
<rect x="32.800" y="24.600" width="1.025" height="1.025" fill="#191919" />
<rect x="5.125" y="25.625" width="1.025" height="1.025" fill="#191919" />
<rect x="32.800" y="25.625" width="1.025" height="1.025" fill="#191919" />
<rect x="5.125" y="26.650" width="1.025" height="1.025" fill="#181818" />
<rect x="32.800" y="26.650" width="1.025" height="1.025" fill="#181818" />
<rect x="5.125" y="27.675" width="1.025" height="1.025" fill="#181818" />
<rect x="32.800" y="27.675" width="1.025" height="1.025" fill="#181818" />
<rect x="5.125" y="28.700" width="1.025" height="1.025" fill="#171717" />
<rect x="32.800" y="28.700" width="1.025" height="1.025" fill="#171717" />
<rect x="2.050" y="29.725" width="1.025" height="1.025" fill="#1a1a1a" />
<rect x="5.125" y="29.725" width="1.025" height="1.025" fill="#161616" />
<rect x="8.200" y="29.725" width="1.025" height="1.025" fill="#1a1a1a" />
<rect x="29.725" y="29.725" width="1.025" height="1.025" fill="#1a1a1a" />
<rect x="32.800" y="29.725" width="1.025" height="1.025" fill="#161616" />
<rect x="35.875" y="29.725" width="1.025" height="1.025" fill="#1a1a1a" />
<rect x="2.050" y="30.750" width="1.025" height="1.025" fill="#1a1a1a" />
<rect x="5.125" y="30.750" width="1.025" height="1.025" fill="#161616" />
<rect x="8.200" y="30.750" width="1.025" height="1.025" fill="#1a1a1a" />
<rect x="29.725" y="30.750" width="1.025" height="1.025" fill="#1a1a1a" />
<rect x="32.800" y="30.750" width="1.025" height="1.025" fill="#161616" />
<rect x="35.875" y="30.750" width="1.025" height="1.025" fill="#1a1a1a" />
<rect x="2.050" y="31.775" width="1.025" height="1.025" fill="#191919" />
<rect x="5.125" y="31.775" width="1.025" height="1.025" fill="#161616" />
<rect x="8.200" y="31.775" width="1.025" height="1.025" fill="#191919" />
<rect x="29.725" y="31.775" width="1.025" height="1.025" fill="#191919" />
<rect x="32.800" y="31.775" width="1.025" height="1.025" fill="#161616" />
<rect x="35.875" y="31.775" width="1.025" height="1.025" fill="#191919" />
<rect x="2.050" y="32.800" width="1.025" height="1.025" fill="#191919" />
<rect x="5.125" y="32.800" width="1.025" height="1.025" fill="#161616" />
<rect x="8.200" y="32.800" width="1.025" height="1.025" fill="#171717" />
<rect x="29.725" y="32.800" width="1.025" height="1.025" fill="#191919" />
<rect x="32.800" y="32.800" width="1.025" height="1.025" fill="#161616" />
<rect x="35.875" y="32.800" width="1.025" height="1.025" fill="#171717" />
<rect x="2.050" y="33.825" width="1.025" height="1.025" fill="#151515" />
<rect x="3.075" y="33.825" width="1.025" height="1.025" fill="#171717" />
<rect x="4.100" y="33.825" width="1.025" height="1.025" fill="#191919" />
<rect x="5.125" y="33.825" width="1.025" height="1.025" fill="#151515" />
<rect x="6.150" y="33.825" width="1.025" height="1.025" fill="#191919" />
<rect x="7.175" y="33.825" width="1.025" height="1.025" fill="#171717" />
<rect x="8.200" y="33.825" width="1.025" height="1.025" fill="#161616" />
<rect x="29.725" y="33.825" width="1.025" height="1.025" fill="#151515" />
<rect x="30.750" y="33.825" width="1.025" height="1.025" fill="#171717" />
<rect x="31.775" y="33.825" width="1.025" height="1.025" fill="#191919" />
<rect x="32.800" y="33.825" width="1.025" height="1.025" fill="#151515" />
<rect x="33.825" y="33.825" width="1.025" height="1.025" fill="#191919" />
<rect x="34.850" y="33.825" width="1.025" height="1.025" fill="#171717" />
<rect x="35.875" y="33.825" width="1.025" height="1.025" fill="#161616" />
<rect x="3.075" y="34.850" width="1.025" height="1.025" fill="#171717" />
<rect x="4.100" y="34.850" width="1.025" height="1.025" fill="#191919" />
<rect x="5.125" y="34.850" width="1.025" height="1.025" fill="#191919" />
<rect x="6.150" y="34.850" width="1.025" height="1.025" fill="#191919" />
<rect x="7.175" y="34.850" width="1.025" height="1.025" fill="#171717" />
<rect x="30.750" y="34.850" width="1.025" height="1.025" fill="#171717" />
<rect x="31.775" y="34.850" width="1.025" height="1.025" fill="#191919" />
<rect x="32.800" y="34.850" width="1.025" height="1.025" fill="#191919" />
<rect x="33.825" y="34.850" width="1.025" height="1.025" fill="#191919" />
<rect x="34.850" y="34.850" width="1.025" height="1.025" fill="#171717" />
<rect x="5.125" y="35.875" width="1.025" height="1.025" fill="#090909" />
<rect x="32.800" y="35.875" width="1.025" height="1.025" fill="#090909" />
<rect x="5.125" y="36.900" width="1.025" height="1.025" fill="#070707" />
<rect x="32.800" y="36.900" width="1.025" height="1.025" fill="#070707" />
</svg>