<svg xmlns="http://www.w3.org/2000/svg" width="37.925" height="37.925" viewBox="0 0 37 37" style="shape-rendering:crispEdges;image-rendering:pixelated;">
<rect x="31" y="0" width="1.025" height="1.025" fill="rgba(245,0,0,1.0)"/>
<rect x="32" y="0" width="1.025" height="1.025" fill="rgba(245,0,0,1.0)"/>
<rect x="33" y="0" width="1.025" height="1.025" fill="rgba(245,0,0,1.0)"/>
<rect x="31" y="1" width="1.025" height="1.025" fill="rgba(245,0,0,1.0)"/>
<rect x="32" y="1" width="1.025" height="1.025" fill="rgba(245,0,0,1.0)"/>
<rect x="33" y="1" width="1.025" height="1.025" fill="rgba(245,0,0,1.0)"/>
<rect x="31" y="2" width="1.025" height="1.025" fill="rgba(245,0,0,1.0)"/>
<rect x="32" y="2" width="1.025" height="1.025" fill="rgba(245,0,0,1.0)"/>
<rect x="33" y="2" width="1.025" height="1.025" fill="rgba(245,0,0,1.0)"/>
<rect x="31" y="3" width="1.025" height="1.025" fill="rgba(245,0,0,1.0)"/>
<rect x="32" y="3" width="1.025" height="1.025" fill="rgba(245,0,0,1.0)"/>
<rect x="33" y="3" width="1.025" height="1.025" fill="rgba(245,0,0,1.0)"/>
<rect x="31" y="4" width="1.025" height="1.025" fill="rgba(245,0,0,1.0)"/>
<rect x="32" y="4" width="1.025" height="1.025" fill="rgba(245,0,0,1.0)"/>
<rect x="33" y="4" width="1.025" height="1.025" fill="rgba(245,0,0,1.0)"/>
<rect x="31" y="5" width="1.025" height="1.025" fill="rgba(245,0,0,1.0)"/>
<rect x="32" y="5" width="1.025" height="1.025" fill="rgba(245,0,0,1.0)"/>
<rect x="33" y="5" width="1.025" height="1.025" fill="rgba(245,0,0,1.0)"/>
<rect x="31" y="6" width="1.025" height="1.025" fill="rgba(245,0,0,1.0)"/>
<rect x="32" y="6" width="1.025" height="1.025" fill="rgba(245,0,0,1.0)"/>
<rect x="33" y="6" width="1.025" height="1.025" fill="rgba(245,0,0,1.0)"/>
<rect x="31" y="7" width="1.025" height="1.025" fill="rgba(245,0,0,1.0)"/>
<rect x="32" y="7" width="1.025" height="1.025" fill="rgba(245,0,0,1.0)"/>
<rect x="33" y="7" width="1.025" height="1.025" fill="rgba(245,0,0,1.0)"/>
<rect x="31" y="8" width="1.025" height="1.025" fill="rgba(245,0,0,1.0)"/>
<rect x="32" y="8" width="1.025" height="1.025" fill="rgba(245,0,0,1.0)"/>
<rect x="33" y="8" width="1.025" height="1.025" fill="rgba(245,0,0,1.0)"/>
<rect x="31" y="9" width="1.025" height="1.025" fill="rgba(245,0,0,1.0)"/>
<rect x="32" y="9" width="1.025" height="1.025" fill="rgba(245,0,0,1.0)"/>
<rect x="33" y="9" width="1.025" height="1.025" fill="rgba(245,0,0,1.0)"/>
<rect x="31" y="10" width="1.025" height="1.025" fill="rgba(245,0,0,1.0)"/>
<rect x="32" y="10" width="1.025" height="1.025" fill="rgba(245,0,0,1.0)"/>
<rect x="33" y="10" width="1.025" height="1.025" fill="rgba(245,0,0,1.0)"/>
<rect x="31" y="11" width="1.025" height="1.025" fill="rgba(245,0,0,1.0)"/>
<rect x="32" y="11" width="1.025" height="1.025" fill="rgba(245,0,0,1.0)"/>
<rect x="33" y="11" width="1.025" height="1.025" fill="rgba(245,0,0,1.0)"/>
<rect x="31" y="12" width="1.025" height="1.025" fill="rgba(245,0,0,1.0)"/>
<rect x="32" y="12" width="1.025" height="1.025" fill="rgba(245,0,0,1.0)"/>
<rect x="33" y="12" width="1.025" height="1.025" fill="rgba(245,0,0,1.0)"/>
<rect x="31" y="13" width="1.025" height="1.025" fill="rgba(245,0,0,1.0)"/>
<rect x="32" y="13" width="1.025" height="1.025" fill="rgba(245,0,0,1.0)"/>
<rect x="33" y="13" width="1.025" height="1.025" fill="rgba(245,0,0,1.0)"/>
<rect x="31" y="14" width="1.025" height="1.025" fill="rgba(245,0,0,1.0)"/>
<rect x="32" y="14" width="1.025" height="1.025" fill="rgba(245,0,0,1.0)"/>
<rect x="33" y="14" width="1.025" height="1.025" fill="rgba(245,0,0,1.0)"/>
<rect x="32" y="15" width="1.025" height="1.025" fill="rgba(245,0,0,1.0)"/>
<rect x="32" y="16" width="1.025" height="1.025" fill="rgba(245,0,0,1.0)"/>
<rect x="32" y="17" width="1.025" height="1.025" fill="rgba(245,0,0,1.0)"/>
<rect x="32" y="18" width="1.025" height="1.025" fill="rgba(245,0,0,1.0)"/>
<rect x="32" y="19" width="1.025" height="1.025" fill="rgba(245,0,0,1.0)"/>
</svg>