<svg xmlns="http://www.w3.org/2000/svg" width="37.925" height="37.925" shape-rendering="crispEdges" style="image-rendering: pixelated;">
<rect x="16.400" y="6.150" width="1.025" height="1.025" fill="#000000" />
<rect x="17.425" y="6.150" width="1.025" height="1.025" fill="#000000" />
<rect x="18.450" y="6.150" width="1.025" height="1.025" fill="#000000" />
<rect x="19.475" y="6.150" width="1.025" height="1.025" fill="#000000" />
<rect x="20.500" y="6.150" width="1.025" height="1.025" fill="#000000" />
<rect x="21.525" y="6.150" width="1.025" height="1.025" fill="#000000" />
<rect x="22.550" y="6.150" width="1.025" height="1.025" fill="#000000" />
<rect x="23.575" y="6.150" width="1.025" height="1.025" fill="#000000" />
<rect x="15.375" y="7.175" width="1.025" height="1.025" fill="#000000" fill-opacity="0.302" />
<rect x="16.400" y="7.175" width="1.025" height="1.025" fill="#000000" />
<rect x="17.425" y="7.175" width="1.025" height="1.025" fill="#e59766" />
<rect x="18.450" y="7.175" width="1.025" height="1.025" fill="#e8a36e" />
<rect x="19.475" y="7.175" width="1.025" height="1.025" fill="#e79e6c" />
<rect x="20.500" y="7.175" width="1.025" height="1.025" fill="#e59d6a" />
<rect x="21.525" y="7.175" width="1.025" height="1.025" fill="#e59d6a" />
<rect x="22.550" y="7.175" width="1.025" height="1.025" fill="#e7a06a" />
<rect x="23.575" y="7.175" width="1.025" height="1.025" fill="#ce8058" />
<rect x="24.600" y="7.175" width="1.025" height="1.025" fill="#000000" />
<rect x="14.350" y="8.200" width="1.025" height="1.025" fill="#000000" fill-opacity="0.302" />
<rect x="15.375" y="8.200" width="1.025" height="1.025" fill="#000000" />
<rect x="16.400" y="8.200" width="1.025" height="1.025" fill="#f5a375" />
<rect x="17.425" y="8.200" width="1.025" height="1.025" fill="#f5b983" />
<rect x="18.450" y="8.200" width="1.025" height="1.025" fill="#fbd5a2" />
<rect x="19.475" y="8.200" width="1.025" height="1.025" fill="#f5d39a" />
<rect x="20.500" y="8.200" width="1.025" height="1.025" fill="#f5d399" />
<rect x="21.525" y="8.200" width="1.025" height="1.025" fill="#f9d69f" />
<rect x="22.550" y="8.200" width="1.025" height="1.025" fill="#f9cf9a" />
<rect x="23.575" y="8.200" width="1.025" height="1.025" fill="#f9c78c" />
<rect x="24.600" y="8.200" width="1.025" height="1.025" fill="#df815c" />
<rect x="25.625" y="8.200" width="1.025" height="1.025" fill="#000000" />
<rect x="14.350" y="9.225" width="1.025" height="1.025" fill="#000000" fill-opacity="0.514" />
<rect x="15.375" y="9.225" width="1.025" height="1.025" fill="#000000" />
<rect x="16.400" y="9.225" width="1.025" height="1.025" fill="#f49b6f" />
<rect x="17.425" y="9.225" width="1.025" height="1.025" fill="#ffcc9d" />
<rect x="18.450" y="9.225" width="1.025" height="1.025" fill="#ffd1a1" />
<rect x="19.475" y="9.225" width="1.025" height="1.025" fill="#ffdeaf" />
<rect x="20.500" y="9.225" width="1.025" height="1.025" fill="#ffe3b5" />
<rect x="21.525" y="9.225" width="1.025" height="1.025" fill="#ffcfa8" />
<rect x="22.550" y="9.225" width="1.025" height="1.025" fill="#ffcea2" />
<rect x="23.575" y="9.225" width="1.025" height="1.025" fill="#ffca9b" />
<rect x="24.600" y="9.225" width="1.025" height="1.025" fill="#ec9466" />
<rect x="25.625" y="9.225" width="1.025" height="1.025" fill="#000000" />
<rect x="14.350" y="10.250" width="1.025" height="1.025" fill="#000000" fill-opacity="0.659" />
<rect x="15.375" y="10.250" width="1.025" height="1.025" fill="#000000" />
<rect x="16.400" y="10.250" width="1.025" height="1.025" fill="#f5976e" />
<rect x="17.425" y="10.250" width="1.025" height="1.025" fill="#fdca9a" />
<rect x="18.450" y="10.250" width="1.025" height="1.025" fill="#ffd3a2" />
<rect x="19.475" y="10.250" width="1.025" height="1.025" fill="#ffd3a2" />
<rect x="20.500" y="10.250" width="1.025" height="1.025" fill="#ffd6a6" />
<rect x="21.525" y="10.250" width="1.025" height="1.025" fill="#ffd3a3" />
<rect x="22.550" y="10.250" width="1.025" height="1.025" fill="#ffc094" />
<rect x="23.575" y="10.250" width="1.025" height="1.025" fill="#ffc295" />
<rect x="24.600" y="10.250" width="1.025" height="1.025" fill="#e38c62" />
<rect x="25.625" y="10.250" width="1.025" height="1.025" fill="#000000" />
<rect x="14.350" y="11.275" width="1.025" height="1.025" fill="#000000" fill-opacity="0.659" />
<rect x="15.375" y="11.275" width="1.025" height="1.025" fill="#000000" />
<rect x="16.400" y="11.275" width="1.025" height="1.025" fill="#f28a65" />
<rect x="17.425" y="11.275" width="1.025" height="1.025" fill="#fdb488" />
<rect x="18.450" y="11.275" width="1.025" height="1.025" fill="#ffdeac" />
<rect x="19.475" y="11.275" width="1.025" height="1.025" fill="#ffdfad" />
<rect x="20.500" y="11.275" width="1.025" height="1.025" fill="#ffdfad" />
<rect x="21.525" y="11.275" width="1.025" height="1.025" fill="#ffd6a6" />
<rect x="22.550" y="11.275" width="1.025" height="1.025" fill="#ffc596" />
<rect x="23.575" y="11.275" width="1.025" height="1.025" fill="#ffd19f" />
<rect x="24.600" y="11.275" width="1.025" height="1.025" fill="#ea9467" />
<rect x="25.625" y="11.275" width="1.025" height="1.025" fill="#000000" />
<rect x="14.350" y="12.300" width="1.025" height="1.025" fill="#000000" fill-opacity="0.659" />
<rect x="15.375" y="12.300" width="1.025" height="1.025" fill="#000000" />
<rect x="16.400" y="12.300" width="1.025" height="1.025" fill="#f08b65" />
<rect x="17.425" y="12.300" width="1.025" height="1.025" fill="#f49568" />
<rect x="18.450" y="12.300" width="1.025" height="1.025" fill="#e38863" />
<rect x="19.475" y="12.300" width="1.025" height="1.025" fill="#e88c68" />
<rect x="20.500" y="12.300" width="1.025" height="1.025" fill="#e78868" />
<rect x="21.525" y="12.300" width="1.025" height="1.025" fill="#f7ae7f" />
<rect x="22.550" y="12.300" width="1.025" height="1.025" fill="#f9b88b" />
<rect x="23.575" y="12.300" width="1.025" height="1.025" fill="#f2a97c" />
<rect x="24.600" y="12.300" width="1.025" height="1.025" fill="#ec8c67" />
<rect x="25.625" y="12.300" width="1.025" height="1.025" fill="#000000" />
<rect x="13.325" y="13.325" width="1.025" height="1.025" fill="#000000" />
<rect x="14.350" y="13.325" width="1.025" height="1.025" fill="#000000" />
<rect x="15.375" y="13.325" width="1.025" height="1.025" fill="#000000" />
<rect x="16.400" y="13.325" width="1.025" height="1.025" fill="#f59268" />
<rect x="17.425" y="13.325" width="1.025" height="1.025" fill="#c0674c" />
<rect x="18.450" y="13.325" width="1.025" height="1.025" fill="#43160f" />
<rect x="19.475" y="13.325" width="1.025" height="1.025" fill="#491914" />
<rect x="20.500" y="13.325" width="1.025" height="1.025" fill="#75342b" />
<rect x="21.525" y="13.325" width="1.025" height="1.025" fill="#b35e46" />
<rect x="22.550" y="13.325" width="1.025" height="1.025" fill="#bb6d50" />
<rect x="23.575" y="13.325" width="1.025" height="1.025" fill="#43160f" />
<rect x="24.600" y="13.325" width="1.025" height="1.025" fill="#491914" />
<rect x="25.625" y="13.325" width="1.025" height="1.025" fill="#000000" />
<rect x="14.350" y="14.350" width="1.025" height="1.025" fill="#000000" fill-opacity="0.659" />
<rect x="15.375" y="14.350" width="1.025" height="1.025" fill="#000000" />
<rect x="16.400" y="14.350" width="1.025" height="1.025" fill="#f48c65" />
<rect x="17.425" y="14.350" width="1.025" height="1.025" fill="#d88e61" />
<rect x="18.450" y="14.350" width="1.025" height="1.025" fill="#000000" />
<rect x="19.475" y="14.350" width="1.025" height="1.025" fill="#ffffff" />
<rect x="20.500" y="14.350" width="1.025" height="1.025" fill="#ca7a5e" />
<rect x="21.525" y="14.350" width="1.025" height="1.025" fill="#de8763" />
<rect x="22.550" y="14.350" width="1.025" height="1.025" fill="#cc845f" />
<rect x="23.575" y="14.350" width="1.025" height="1.025" fill="#000000" />
<rect x="24.600" y="14.350" width="1.025" height="1.025" fill="#ffffff" />
<rect x="25.625" y="14.350" width="1.025" height="1.025" fill="#000000" />
<rect x="14.350" y="15.375" width="1.025" height="1.025" fill="#000000" fill-opacity="0.659" />
<rect x="15.375" y="15.375" width="1.025" height="1.025" fill="#000000" />
<rect x="16.400" y="15.375" width="1.025" height="1.025" fill="#e5835e" />
<rect x="17.425" y="15.375" width="1.025" height="1.025" fill="#ffd3a2" />
<rect x="18.450" y="15.375" width="1.025" height="1.025" fill="#fde3b3" />
<rect x="19.475" y="15.375" width="1.025" height="1.025" fill="#f7d59d" />
<rect x="20.500" y="15.375" width="1.025" height="1.025" fill="#ffc095" />
<rect x="21.525" y="15.375" width="1.025" height="1.025" fill="#ec9d74" />
<rect x="22.550" y="15.375" width="1.025" height="1.025" fill="#f4a679" />
<rect x="23.575" y="15.375" width="1.025" height="1.025" fill="#fdd1a2" />
<rect x="24.600" y="15.375" width="1.025" height="1.025" fill="#f0b37f" />
<rect x="25.625" y="15.375" width="1.025" height="1.025" fill="#000000" />
<rect x="14.350" y="16.400" width="1.025" height="1.025" fill="#000000" fill-opacity="0.659" />
<rect x="15.375" y="16.400" width="1.025" height="1.025" fill="#000000" />
<rect x="16.400" y="16.400" width="1.025" height="1.025" fill="#c3664e" />
<rect x="17.425" y="16.400" width="1.025" height="1.025" fill="#f5976f" />
<rect x="18.450" y="16.400" width="1.025" height="1.025" fill="#ffd6a8" />
<rect x="19.475" y="16.400" width="1.025" height="1.025" fill="#ffe1ad" />
<rect x="20.500" y="16.400" width="1.025" height="1.025" fill="#f5b684" />
<rect x="21.525" y="16.400" width="1.025" height="1.025" fill="#000000" />
<rect x="22.550" y="16.400" width="1.025" height="1.025" fill="#f49d75" />
<rect x="23.575" y="16.400" width="1.025" height="1.025" fill="#e18b65" />
<rect x="24.600" y="16.400" width="1.025" height="1.025" fill="#ca7a57" />
<rect x="25.625" y="16.400" width="1.025" height="1.025" fill="#000000" />
<rect x="14.350" y="17.425" width="1.025" height="1.025" fill="#000000" fill-opacity="0.659" />
<rect x="15.375" y="17.425" width="1.025" height="1.025" fill="#000000" />
<rect x="16.400" y="17.425" width="1.025" height="1.025" fill="#a04537" />
<rect x="17.425" y="17.425" width="1.025" height="1.025" fill="#d37255" />
<rect x="18.450" y="17.425" width="1.025" height="1.025" fill="#f79e74" />
<rect x="19.475" y="17.425" width="1.025" height="1.025" fill="#ffd39f" />
<rect x="20.500" y="17.425" width="1.025" height="1.025" fill="#f9cc98" />
<rect x="21.525" y="17.425" width="1.025" height="1.025" fill="#000000" />
<rect x="22.550" y="17.425" width="1.025" height="1.025" fill="#000000" />
<rect x="23.575" y="17.425" width="1.025" height="1.025" fill="#a35641" />
<rect x="24.600" y="17.425" width="1.025" height="1.025" fill="#cc7152" />
<rect x="25.625" y="17.425" width="1.025" height="1.025" fill="#000000" />
<rect x="14.350" y="18.450" width="1.025" height="1.025" fill="#000000" fill-opacity="0.659" />
<rect x="15.375" y="18.450" width="1.025" height="1.025" fill="#000000" />
<rect x="16.400" y="18.450" width="1.025" height="1.025" fill="#a4473a" />
<rect x="17.425" y="18.450" width="1.025" height="1.025" fill="#be5a46" />
<rect x="18.450" y="18.450" width="1.025" height="1.025" fill="#ea8862" />
<rect x="19.475" y="18.450" width="1.025" height="1.025" fill="#ffb98a" />
<rect x="20.500" y="18.450" width="1.025" height="1.025" fill="#ffe1ac" />
<rect x="21.525" y="18.450" width="1.025" height="1.025" fill="#f5b37f" />
<rect x="22.550" y="18.450" width="1.025" height="1.025" fill="#e78f64" />
<rect x="23.575" y="18.450" width="1.025" height="1.025" fill="#fdb886" />
<rect x="24.600" y="18.450" width="1.025" height="1.025" fill="#de7e5a" />
<rect x="25.625" y="18.450" width="1.025" height="1.025" fill="#000000" />
<rect x="14.350" y="19.475" width="1.025" height="1.025" fill="#000000" fill-opacity="0.659" />
<rect x="15.375" y="19.475" width="1.025" height="1.025" fill="#000000" />
<rect x="16.400" y="19.475" width="1.025" height="1.025" fill="#9e4738" />
<rect x="17.425" y="19.475" width="1.025" height="1.025" fill="#b85843" />
<rect x="18.450" y="19.475" width="1.025" height="1.025" fill="#ea7d5b" />
<rect x="19.475" y="19.475" width="1.025" height="1.025" fill="#ea9468" />
<rect x="20.500" y="19.475" width="1.025" height="1.025" fill="#ffb98a" />
<rect x="21.525" y="19.475" width="1.025" height="1.025" fill="#ffd19e" />
<rect x="22.550" y="19.475" width="1.025" height="1.025" fill="#f7bb88" />
<rect x="23.575" y="19.475" width="1.025" height="1.025" fill="#ec9468" />
<rect x="24.600" y="19.475" width="1.025" height="1.025" fill="#c87150" />
<rect x="25.625" y="19.475" width="1.025" height="1.025" fill="#000000" />
<rect x="14.350" y="20.500" width="1.025" height="1.025" fill="#000000" fill-opacity="0.302" />
<rect x="15.375" y="20.500" width="1.025" height="1.025" fill="#000000" />
<rect x="16.400" y="20.500" width="1.025" height="1.025" fill="#83342a" />
<rect x="17.425" y="20.500" width="1.025" height="1.025" fill="#be5c45" />
<rect x="18.450" y="20.500" width="1.025" height="1.025" fill="#d87153" />
<rect x="19.475" y="20.500" width="1.025" height="1.025" fill="#d37656" />
<rect x="20.500" y="20.500" width="1.025" height="1.025" fill="#000000" />
<rect x="21.525" y="20.500" width="1.025" height="1.025" fill="#000000" />
<rect x="22.550" y="20.500" width="1.025" height="1.025" fill="#000000" />
<rect x="23.575" y="20.500" width="1.025" height="1.025" fill="#000000" />
<rect x="24.600" y="20.500" width="1.025" height="1.025" fill="#c0674a" />
<rect x="25.625" y="20.500" width="1.025" height="1.025" fill="#000000" />
<rect x="14.350" y="21.525" width="1.025" height="1.025" fill="#000000" fill-opacity="0.302" />
<rect x="15.375" y="21.525" width="1.025" height="1.025" fill="#000000" />
<rect x="16.400" y="21.525" width="1.025" height="1.025" fill="#5b1f1b" />
<rect x="17.425" y="21.525" width="1.025" height="1.025" fill="#9a4536" />
<rect x="18.450" y="21.525" width="1.025" height="1.025" fill="#d3694f" />
<rect x="19.475" y="21.525" width="1.025" height="1.025" fill="#f59269" />
<rect x="20.500" y="21.525" width="1.025" height="1.025" fill="#fbbd8a" />
<rect x="21.525" y="21.525" width="1.025" height="1.025" fill="#fbc590" />
<rect x="22.550" y="21.525" width="1.025" height="1.025" fill="#fbb686" />
<rect x="23.575" y="21.525" width="1.025" height="1.025" fill="#fba477" />
<rect x="24.600" y="21.525" width="1.025" height="1.025" fill="#be6649" />
<rect x="25.625" y="21.525" width="1.025" height="1.025" fill="#000000" />
<rect x="15.375" y="22.550" width="1.025" height="1.025" fill="#000000" />
<rect x="16.400" y="22.550" width="1.025" height="1.025" fill="#2d0905" />
<rect x="17.425" y="22.550" width="1.025" height="1.025" fill="#5e221d" />
<rect x="18.450" y="22.550" width="1.025" height="1.025" fill="#ac4f3d" />
<rect x="19.475" y="22.550" width="1.025" height="1.025" fill="#f2835f" />
<rect x="20.500" y="22.550" width="1.025" height="1.025" fill="#fbab7e" />
<rect x="21.525" y="22.550" width="1.025" height="1.025" fill="#ffdca3" />
<rect x="22.550" y="22.550" width="1.025" height="1.025" fill="#ffdfaa" />
<rect x="23.575" y="22.550" width="1.025" height="1.025" fill="#ffbe8e" />
<rect x="24.600" y="22.550" width="1.025" height="1.025" fill="#8f4735" />
<rect x="25.625" y="22.550" width="1.025" height="1.025" fill="#000000" />
<rect x="16.400" y="23.575" width="1.025" height="1.025" fill="#000000" />
<rect x="17.425" y="23.575" width="1.025" height="1.025" fill="#3b0f0c" />
<rect x="18.450" y="23.575" width="1.025" height="1.025" fill="#5f241d" />
<rect x="19.475" y="23.575" width="1.025" height="1.025" fill="#914735" />
<rect x="20.500" y="23.575" width="1.025" height="1.025" fill="#a86447" />
<rect x="21.525" y="23.575" width="1.025" height="1.025" fill="#da9a6a" />
<rect x="22.550" y="23.575" width="1.025" height="1.025" fill="#da9a6a" />
<rect x="23.575" y="23.575" width="1.025" height="1.025" fill="#a05f45" />
<rect x="24.600" y="23.575" width="1.025" height="1.025" fill="#000000" />
<rect x="17.425" y="24.600" width="1.025" height="1.025" fill="#000000" />
<rect x="18.450" y="24.600" width="1.025" height="1.025" fill="#000000" />
<rect x="19.475" y="24.600" width="1.025" height="1.025" fill="#000000" />
<rect x="20.500" y="24.600" width="1.025" height="1.025" fill="#000000" />
<rect x="21.525" y="24.600" width="1.025" height="1.025" fill="#000000" />
<rect x="22.550" y="24.600" width="1.025" height="1.025" fill="#000000" />
<rect x="23.575" y="24.600" width="1.025" height="1.025" fill="#000000" />
</svg>