<svg xmlns="http://www.w3.org/2000/svg" width="37.925" height="37.925" shape-rendering="crispEdges" style="image-rendering: pixelated;">
<rect x="24.600" y="24.600" width="1.025" height="1.025" fill="#000000" />
<rect x="25.625" y="24.600" width="1.025" height="1.025" fill="#000000" />
<rect x="26.650" y="24.600" width="1.025" height="1.025" fill="#000000" />
<rect x="31.775" y="24.600" width="1.025" height="1.025" fill="#000000" />
<rect x="32.800" y="24.600" width="1.025" height="1.025" fill="#000000" />
<rect x="24.600" y="25.625" width="1.025" height="1.025" fill="#000000" />
<rect x="25.625" y="25.625" width="1.025" height="1.025" fill="#272624" />
<rect x="26.650" y="25.625" width="1.025" height="1.025" fill="#272526" />
<rect x="27.675" y="25.625" width="1.025" height="1.025" fill="#000000" />
<rect x="28.700" y="25.625" width="1.025" height="1.025" fill="#000000" />
<rect x="29.725" y="25.625" width="1.025" height="1.025" fill="#000000" />
<rect x="30.750" y="25.625" width="1.025" height="1.025" fill="#000000" />
<rect x="31.775" y="25.625" width="1.025" height="1.025" fill="#262722" />
<rect x="32.800" y="25.625" width="1.025" height="1.025" fill="#000000" />
<rect x="24.600" y="26.650" width="1.025" height="1.025" fill="#000000" />
<rect x="25.625" y="26.650" width="1.025" height="1.025" fill="#070706" />
<rect x="26.650" y="26.650" width="1.025" height="1.025" fill="#060606" />
<rect x="27.675" y="26.650" width="1.025" height="1.025" fill="#232323" />
<rect x="28.700" y="26.650" width="1.025" height="1.025" fill="#1f1f1f" />
<rect x="29.725" y="26.650" width="1.025" height="1.025" fill="#070706" />
<rect x="30.750" y="26.650" width="1.025" height="1.025" fill="#232323" />
<rect x="31.775" y="26.650" width="1.025" height="1.025" fill="#070707" />
<rect x="32.800" y="26.650" width="1.025" height="1.025" fill="#000000" />
<rect x="24.600" y="27.675" width="1.025" height="1.025" fill="#000000" />
<rect x="25.625" y="27.675" width="1.025" height="1.025" fill="#070707" />
<rect x="26.650" y="27.675" width="1.025" height="1.025" fill="#272526" />
<rect x="27.675" y="27.675" width="1.025" height="1.025" fill="#222423" />
<rect x="28.700" y="27.675" width="1.025" height="1.025" fill="#1a1c19" />
<rect x="29.725" y="27.675" width="1.025" height="1.025" fill="#070707" />
<rect x="30.750" y="27.675" width="1.025" height="1.025" fill="#252527" />
<rect x="31.775" y="27.675" width="1.025" height="1.025" fill="#242424" />
<rect x="32.800" y="27.675" width="1.025" height="1.025" fill="#000000" />
<rect x="23.575" y="28.700" width="1.025" height="1.025" fill="#000000" />
<rect x="24.600" y="28.700" width="1.025" height="1.025" fill="#000000" />
<rect x="25.625" y="28.700" width="1.025" height="1.025" fill="#262523" />
<rect x="26.650" y="28.700" width="1.025" height="1.025" fill="#272526" />
<rect x="27.675" y="28.700" width="1.025" height="1.025" fill="#00cc00" />
<rect x="28.700" y="28.700" width="1.025" height="1.025" fill="#252324" />
<rect x="29.725" y="28.700" width="1.025" height="1.025" fill="#1f1f1e" />
<rect x="30.750" y="28.700" width="1.025" height="1.025" fill="#00da00" />
<rect x="31.775" y="28.700" width="1.025" height="1.025" fill="#252523" />
<rect x="32.800" y="28.700" width="1.025" height="1.025" fill="#000000" />
<rect x="33.825" y="28.700" width="1.025" height="1.025" fill="#000000" />
<rect x="24.600" y="29.725" width="1.025" height="1.025" fill="#000000" />
<rect x="25.625" y="29.725" width="1.025" height="1.025" fill="#262523" />
<rect x="26.650" y="29.725" width="1.025" height="1.025" fill="#262425" />
<rect x="27.675" y="29.725" width="1.025" height="1.025" fill="#000000" />
<rect x="28.700" y="29.725" width="1.025" height="1.025" fill="#f9f9f9" />
<rect x="29.725" y="29.725" width="1.025" height="1.025" fill="#f9f9f9" />
<rect x="30.750" y="29.725" width="1.025" height="1.025" fill="#000000" />
<rect x="31.775" y="29.725" width="1.025" height="1.025" fill="#222627" />
<rect x="32.800" y="29.725" width="1.025" height="1.025" fill="#000000" />
<rect x="23.575" y="30.750" width="1.025" height="1.025" fill="#000000" />
<rect x="24.600" y="30.750" width="1.025" height="1.025" fill="#000000" />
<rect x="25.625" y="30.750" width="1.025" height="1.025" fill="#060606" />
<rect x="26.650" y="30.750" width="1.025" height="1.025" fill="#282627" />
<rect x="27.675" y="30.750" width="1.025" height="1.025" fill="#f9f9f9" />
<rect x="28.700" y="30.750" width="1.025" height="1.025" fill="#ef6be4" />
<rect x="29.725" y="30.750" width="1.025" height="1.025" fill="#e436d6" />
<rect x="30.750" y="30.750" width="1.025" height="1.025" fill="#f9f9f9" />
<rect x="31.775" y="30.750" width="1.025" height="1.025" fill="#2a282f" />
<rect x="32.800" y="30.750" width="1.025" height="1.025" fill="#000000" />
<rect x="33.825" y="30.750" width="1.025" height="1.025" fill="#000000" />
<rect x="25.625" y="31.775" width="1.025" height="1.025" fill="#000000" />
<rect x="26.650" y="31.775" width="1.025" height="1.025" fill="#070706" />
<rect x="27.675" y="31.775" width="1.025" height="1.025" fill="#f9f9f9" />
<rect x="28.700" y="31.775" width="1.025" height="1.025" fill="#ffffff" />
<rect x="29.725" y="31.775" width="1.025" height="1.025" fill="#ffffff" />
<rect x="30.750" y="31.775" width="1.025" height="1.025" fill="#efffff" />
<rect x="31.775" y="31.775" width="1.025" height="1.025" fill="#08080a" />
<rect x="36.900" y="31.775" width="1.025" height="1.025" fill="#000000" />
<rect x="24.600" y="32.800" width="1.025" height="1.025" fill="#000000" />
<rect x="25.625" y="32.800" width="1.025" height="1.025" fill="#141513" />
<rect x="26.650" y="32.800" width="1.025" height="1.025" fill="#282327" />
<rect x="27.675" y="32.800" width="1.025" height="1.025" fill="#575757" />
<rect x="28.700" y="32.800" width="1.025" height="1.025" fill="#f9f9f9" />
<rect x="29.725" y="32.800" width="1.025" height="1.025" fill="#ffffff" />
<rect x="30.750" y="32.800" width="1.025" height="1.025" fill="#575757" />
<rect x="31.775" y="32.800" width="1.025" height="1.025" fill="#262626" />
<rect x="32.800" y="32.800" width="1.025" height="1.025" fill="#000000" />
<rect x="35.875" y="32.800" width="1.025" height="1.025" fill="#000000" />
<rect x="36.900" y="32.800" width="1.025" height="1.025" fill="#050406" />
<rect x="23.575" y="33.825" width="1.025" height="1.025" fill="#000000" />
<rect x="24.600" y="33.825" width="1.025" height="1.025" fill="#070608" />
<rect x="25.625" y="33.825" width="1.025" height="1.025" fill="#27272a" />
<rect x="26.650" y="33.825" width="1.025" height="1.025" fill="#efefef" />
<rect x="27.675" y="33.825" width="1.025" height="1.025" fill="#ffffff" />
<rect x="28.700" y="33.825" width="1.025" height="1.025" fill="#ffffff" />
<rect x="29.725" y="33.825" width="1.025" height="1.025" fill="#ffffff" />
<rect x="30.750" y="33.825" width="1.025" height="1.025" fill="#f9f9f9" />
<rect x="31.775" y="33.825" width="1.025" height="1.025" fill="#ffffff" />
<rect x="32.800" y="33.825" width="1.025" height="1.025" fill="#09090a" />
<rect x="33.825" y="33.825" width="1.025" height="1.025" fill="#000000" />
<rect x="35.875" y="33.825" width="1.025" height="1.025" fill="#000000" />
<rect x="36.900" y="33.825" width="1.025" height="1.025" fill="#070706" />
<rect x="23.575" y="34.850" width="1.025" height="1.025" fill="#000000" />
<rect x="24.600" y="34.850" width="1.025" height="1.025" fill="#08070b" />
<rect x="25.625" y="34.850" width="1.025" height="1.025" fill="#252527" />
<rect x="26.650" y="34.850" width="1.025" height="1.025" fill="#252523" />
<rect x="27.675" y="34.850" width="1.025" height="1.025" fill="#ffffff" />
<rect x="28.700" y="34.850" width="1.025" height="1.025" fill="#ffffff" />
<rect x="29.725" y="34.850" width="1.025" height="1.025" fill="#ffffff" />
<rect x="30.750" y="34.850" width="1.025" height="1.025" fill="#ffffff" />
<rect x="31.775" y="34.850" width="1.025" height="1.025" fill="#212121" />
<rect x="32.800" y="34.850" width="1.025" height="1.025" fill="#080908" />
<rect x="33.825" y="34.850" width="1.025" height="1.025" fill="#000000" />
<rect x="35.875" y="34.850" width="1.025" height="1.025" fill="#000000" />
<rect x="36.900" y="34.850" width="1.025" height="1.025" fill="#272725" />
<rect x="23.575" y="35.875" width="1.025" height="1.025" fill="#000000" />
<rect x="24.600" y="35.875" width="1.025" height="1.025" fill="#080809" />
<rect x="25.625" y="35.875" width="1.025" height="1.025" fill="#000000" />
<rect x="26.650" y="35.875" width="1.025" height="1.025" fill="#232323" />
<rect x="27.675" y="35.875" width="1.025" height="1.025" fill="#1a1a1a" />
<rect x="28.700" y="35.875" width="1.025" height="1.025" fill="#a2a2a2" />
<rect x="29.725" y="35.875" width="1.025" height="1.025" fill="#000000" />
<rect x="30.750" y="35.875" width="1.025" height="1.025" fill="#212121" />
<rect x="31.775" y="35.875" width="1.025" height="1.025" fill="#262626" />
<rect x="32.800" y="35.875" width="1.025" height="1.025" fill="#040404" />
<rect x="33.825" y="35.875" width="1.025" height="1.025" fill="#000000" />
<rect x="34.850" y="35.875" width="1.025" height="1.025" fill="#000000" />
<rect x="35.875" y="35.875" width="1.025" height="1.025" fill="#262425" />
<rect x="36.900" y="35.875" width="1.025" height="1.025" fill="#070707" />
<rect x="23.575" y="36.900" width="1.025" height="1.025" fill="#000000" />
<rect x="24.600" y="36.900" width="1.025" height="1.025" fill="#000000" />
<rect x="25.625" y="36.900" width="1.025" height="1.025" fill="#000000" />
<rect x="26.650" y="36.900" width="1.025" height="1.025" fill="#171717" />
<rect x="27.675" y="36.900" width="1.025" height="1.025" fill="#a2a2a2" />
<rect x="28.700" y="36.900" width="1.025" height="1.025" fill="#161616" />
<rect x="29.725" y="36.900" width="1.025" height="1.025" fill="#000000" />
<rect x="30.750" y="36.900" width="1.025" height="1.025" fill="#efefef" />
<rect x="31.775" y="36.900" width="1.025" height="1.025" fill="#1a1a1a" />
<rect x="32.800" y="36.900" width="1.025" height="1.025" fill="#0f0f10" />
<rect x="33.825" y="36.900" width="1.025" height="1.025" fill="#000000" />
<rect x="34.850" y="36.900" width="1.025" height="1.025" fill="#070706" />
<rect x="35.875" y="36.900" width="1.025" height="1.025" fill="#232325" />
<rect x="36.900" y="36.900" width="1.025" height="1.025" fill="#060609" />
</svg>