<svg xmlns="http://www.w3.org/2000/svg" width="37.925" height="37.925" shape-rendering="crispEdges" style="image-rendering: pixelated;">
<rect x="30.750" y="20.500" width="1.025" height="1.025" fill="#ef0000" />
<rect x="30.750" y="21.525" width="1.025" height="1.025" fill="#db0000" />
<rect x="31.775" y="21.525" width="1.025" height="1.025" fill="#e30000" />
<rect x="30.750" y="22.550" width="1.025" height="1.025" fill="#e30000" />
<rect x="31.775" y="22.550" width="1.025" height="1.025" fill="#ff0000" />
<rect x="30.750" y="23.575" width="1.025" height="1.025" fill="#ef0000" />
<rect x="31.775" y="23.575" width="1.025" height="1.025" fill="#ff0000" />
<rect x="32.800" y="23.575" width="1.025" height="1.025" fill="#d10000" />
<rect x="30.750" y="24.600" width="1.025" height="1.025" fill="#c50000" />
<rect x="31.775" y="24.600" width="1.025" height="1.025" fill="#ff0000" />
<rect x="32.800" y="24.600" width="1.025" height="1.025" fill="#ff0000" />
<rect x="30.750" y="25.625" width="1.025" height="1.025" fill="#ef0000" />
<rect x="31.775" y="25.625" width="1.025" height="1.025" fill="#ff0000" />
<rect x="32.800" y="25.625" width="1.025" height="1.025" fill="#ff0000" />
<rect x="30.750" y="26.650" width="1.025" height="1.025" fill="#cf7878" />
<rect x="31.775" y="26.650" width="1.025" height="1.025" fill="#ff0000" />
<rect x="32.800" y="26.650" width="1.025" height="1.025" fill="#ff0000" />
<rect x="30.750" y="27.675" width="1.025" height="1.025" fill="#cf7878" />
<rect x="31.775" y="27.675" width="1.025" height="1.025" fill="#ff0000" />
<rect x="32.800" y="27.675" width="1.025" height="1.025" fill="#ff0000" />
<rect x="30.750" y="28.700" width="1.025" height="1.025" fill="#cf7878" />
<rect x="31.775" y="28.700" width="1.025" height="1.025" fill="#d10000" />
<rect x="32.800" y="28.700" width="1.025" height="1.025" fill="#eeeeee" />
<rect x="33.825" y="28.700" width="1.025" height="1.025" fill="#ff0000" />
<rect x="30.750" y="29.725" width="1.025" height="1.025" fill="#ff0000" />
<rect x="31.775" y="29.725" width="1.025" height="1.025" fill="#d10000" />
<rect x="32.800" y="29.725" width="1.025" height="1.025" fill="#eeeeee" />
<rect x="33.825" y="29.725" width="1.025" height="1.025" fill="#d10000" />
<rect x="30.750" y="30.750" width="1.025" height="1.025" fill="#d10000" />
<rect x="31.775" y="30.750" width="1.025" height="1.025" fill="#bfbfbf" />
<rect x="32.800" y="30.750" width="1.025" height="1.025" fill="#eeeeee" />
<rect x="33.825" y="30.750" width="1.025" height="1.025" fill="#950000" />
<rect x="30.750" y="31.775" width="1.025" height="1.025" fill="#ad0000" />
<rect x="31.775" y="31.775" width="1.025" height="1.025" fill="#afafaf" />
<rect x="32.800" y="31.775" width="1.025" height="1.025" fill="#eaeaea" />
<rect x="30.750" y="32.800" width="1.025" height="1.025" fill="#919191" />
<rect x="31.775" y="32.800" width="1.025" height="1.025" fill="#ff0000" />
<rect x="32.800" y="32.800" width="1.025" height="1.025" fill="#e4e4e4" />
<rect x="30.750" y="33.825" width="1.025" height="1.025" fill="#919191" />
<rect x="31.775" y="33.825" width="1.025" height="1.025" fill="#ad0000" />
<rect x="32.800" y="33.825" width="1.025" height="1.025" fill="#e4e4e4" />
<rect x="30.750" y="34.850" width="1.025" height="1.025" fill="#000000" />
<rect x="31.775" y="34.850" width="1.025" height="1.025" fill="#000000" />
<rect x="32.800" y="34.850" width="1.025" height="1.025" fill="#000000" />
<rect x="33.825" y="34.850" width="1.025" height="1.025" fill="#000000" />
<rect x="30.750" y="35.875" width="1.025" height="1.025" fill="#000000" />
<rect x="31.775" y="35.875" width="1.025" height="1.025" fill="#f6cf00" />
<rect x="32.800" y="35.875" width="1.025" height="1.025" fill="#000000" />
<rect x="33.825" y="35.875" width="1.025" height="1.025" fill="#000000" />
<rect x="30.750" y="36.900" width="1.025" height="1.025" fill="#ad0000" />
<rect x="31.775" y="36.900" width="1.025" height="1.025" fill="#000000" />
<rect x="32.800" y="36.900" width="1.025" height="1.025" fill="#000000" />
</svg>