<svg xmlns="http://www.w3.org/2000/svg" width="37.925" height="37.925" shape-rendering="crispEdges" style="image-rendering: pixelated;">
<rect x="26.650" y="1.025" width="1.025" height="1.025" fill="#441a08" />
<rect x="28.700" y="1.025" width="1.025" height="1.025" fill="#441a08" />
<rect x="29.725" y="1.025" width="1.025" height="1.025" fill="#120302" />
<rect x="31.775" y="1.025" width="1.025" height="1.025" fill="#59350a" />
<rect x="33.825" y="1.025" width="1.025" height="1.025" fill="#441a08" />
<rect x="35.875" y="1.025" width="1.025" height="1.025" fill="#59350a" />
<rect x="25.625" y="2.050" width="1.025" height="1.025" fill="#472a08" fill-opacity="0.302" />
<rect x="26.650" y="2.050" width="1.025" height="1.025" fill="#120302" />
<rect x="28.700" y="2.050" width="1.025" height="1.025" fill="#441a08" />
<rect x="29.725" y="2.050" width="1.025" height="1.025" fill="#261004" />
<rect x="31.775" y="2.050" width="1.025" height="1.025" fill="#59350a" />
<rect x="32.800" y="2.050" width="1.025" height="1.025" fill="#120302" />
<rect x="33.825" y="2.050" width="1.025" height="1.025" fill="#441a08" />
<rect x="35.875" y="2.050" width="1.025" height="1.025" fill="#59350a" />
<rect x="36.900" y="2.050" width="1.025" height="1.025" fill="#120302" />
<rect x="25.625" y="3.075" width="1.025" height="1.025" fill="#261004" />
<rect x="26.650" y="3.075" width="1.025" height="1.025" fill="#472a08" />
<rect x="28.700" y="3.075" width="1.025" height="1.025" fill="#371307" />
<rect x="29.725" y="3.075" width="1.025" height="1.025" fill="#261004" />
<rect x="31.775" y="3.075" width="1.025" height="1.025" fill="#472a08" />
<rect x="32.800" y="3.075" width="1.025" height="1.025" fill="#120302" />
<rect x="34.850" y="3.075" width="1.025" height="1.025" fill="#452008" />
<rect x="35.875" y="3.075" width="1.025" height="1.025" fill="#59350a" />
<rect x="36.900" y="3.075" width="1.025" height="1.025" fill="#120302" />
<rect x="25.625" y="4.100" width="1.025" height="1.025" fill="#261004" />
<rect x="26.650" y="4.100" width="1.025" height="1.025" fill="#54320a" />
<rect x="27.675" y="4.100" width="1.025" height="1.025" fill="#261004" fill-opacity="0.400" />
<rect x="28.700" y="4.100" width="1.025" height="1.025" fill="#371307" />
<rect x="29.725" y="4.100" width="1.025" height="1.025" fill="#261004" />
<rect x="30.750" y="4.100" width="1.025" height="1.025" fill="#261004" fill-opacity="0.400" />
<rect x="31.775" y="4.100" width="1.025" height="1.025" fill="#472a08" />
<rect x="32.800" y="4.100" width="1.025" height="1.025" fill="#120302" />
<rect x="34.850" y="4.100" width="1.025" height="1.025" fill="#452008" />
<rect x="35.875" y="4.100" width="1.025" height="1.025" fill="#59350a" />
<rect x="36.900" y="4.100" width="1.025" height="1.025" fill="#261004" />
<rect x="25.625" y="5.125" width="1.025" height="1.025" fill="#261004" />
<rect x="26.650" y="5.125" width="1.025" height="1.025" fill="#54320a" />
<rect x="27.675" y="5.125" width="1.025" height="1.025" fill="#261004" fill-opacity="0.639" />
<rect x="28.700" y="5.125" width="1.025" height="1.025" fill="#371307" />
<rect x="29.725" y="5.125" width="1.025" height="1.025" fill="#261004" />
<rect x="30.750" y="5.125" width="1.025" height="1.025" fill="#261004" fill-opacity="0.400" />
<rect x="31.775" y="5.125" width="1.025" height="1.025" fill="#472a08" />
<rect x="32.800" y="5.125" width="1.025" height="1.025" fill="#120302" />
<rect x="34.850" y="5.125" width="1.025" height="1.025" fill="#452008" />
<rect x="35.875" y="5.125" width="1.025" height="1.025" fill="#59350a" />
<rect x="25.625" y="6.150" width="1.025" height="1.025" fill="#261004" />
<rect x="26.650" y="6.150" width="1.025" height="1.025" fill="#472a08" />
<rect x="27.675" y="6.150" width="1.025" height="1.025" fill="#261004" fill-opacity="0.639" />
<rect x="28.700" y="6.150" width="1.025" height="1.025" fill="#371307" />
<rect x="29.725" y="6.150" width="1.025" height="1.025" fill="#261004" />
<rect x="30.750" y="6.150" width="1.025" height="1.025" fill="#261004" />
<rect x="31.775" y="6.150" width="1.025" height="1.025" fill="#472a08" />
<rect x="32.800" y="6.150" width="1.025" height="1.025" fill="#261004" />
<rect x="33.825" y="6.150" width="1.025" height="1.025" fill="#120302" />
<rect x="34.850" y="6.150" width="1.025" height="1.025" fill="#452008" />
<rect x="35.875" y="6.150" width="1.025" height="1.025" fill="#261004" fill-opacity="0.400" />
<rect x="36.900" y="6.150" width="1.025" height="1.025" fill="#261004" />
<rect x="25.625" y="7.175" width="1.025" height="1.025" fill="#261004" />
<rect x="26.650" y="7.175" width="1.025" height="1.025" fill="#362706" />
<rect x="27.675" y="7.175" width="1.025" height="1.025" fill="#391f07" />
<rect x="28.700" y="7.175" width="1.025" height="1.025" fill="#371307" />
<rect x="29.725" y="7.175" width="1.025" height="1.025" fill="#261004" />
<rect x="30.750" y="7.175" width="1.025" height="1.025" fill="#261004" fill-opacity="0.639" />
<rect x="31.775" y="7.175" width="1.025" height="1.025" fill="#472a08" />
<rect x="32.800" y="7.175" width="1.025" height="1.025" fill="#261004" />
<rect x="33.825" y="7.175" width="1.025" height="1.025" fill="#441a08" />
<rect x="34.850" y="7.175" width="1.025" height="1.025" fill="#452008" />
<rect x="35.875" y="7.175" width="1.025" height="1.025" fill="#261004" fill-opacity="0.400" />
<rect x="36.900" y="7.175" width="1.025" height="1.025" fill="#261004" />
<rect x="25.625" y="8.200" width="1.025" height="1.025" fill="#120302" />
<rect x="26.650" y="8.200" width="1.025" height="1.025" fill="#261004" />
<rect x="27.675" y="8.200" width="1.025" height="1.025" fill="#3d2107" />
<rect x="28.700" y="8.200" width="1.025" height="1.025" fill="#371307" />
<rect x="29.725" y="8.200" width="1.025" height="1.025" fill="#371307" />
<rect x="30.750" y="8.200" width="1.025" height="1.025" fill="#311906" />
<rect x="31.775" y="8.200" width="1.025" height="1.025" fill="#472a08" />
<rect x="32.800" y="8.200" width="1.025" height="1.025" fill="#261004" />
<rect x="33.825" y="8.200" width="1.025" height="1.025" fill="#441a08" />
<rect x="34.850" y="8.200" width="1.025" height="1.025" fill="#59350a" />
<rect x="35.875" y="8.200" width="1.025" height="1.025" fill="#261004" fill-opacity="0.400" />
<rect x="36.900" y="8.200" width="1.025" height="1.025" fill="#261004" />
<rect x="26.650" y="9.225" width="1.025" height="1.025" fill="#261004" />
<rect x="27.675" y="9.225" width="1.025" height="1.025" fill="#261004" fill-opacity="0.639" />
<rect x="28.700" y="9.225" width="1.025" height="1.025" fill="#472a08" />
<rect x="29.725" y="9.225" width="1.025" height="1.025" fill="#371307" />
<rect x="30.750" y="9.225" width="1.025" height="1.025" fill="#261004" fill-opacity="0.784" />
<rect x="31.775" y="9.225" width="1.025" height="1.025" fill="#261004" />
<rect x="32.800" y="9.225" width="1.025" height="1.025" fill="#472a08" />
<rect x="33.825" y="9.225" width="1.025" height="1.025" fill="#441a08" />
<rect x="34.850" y="9.225" width="1.025" height="1.025" fill="#120302" />
<rect x="35.875" y="9.225" width="1.025" height="1.025" fill="#261004" fill-opacity="0.992" />
<rect x="36.900" y="9.225" width="1.025" height="1.025" fill="#472a08" fill-opacity="0.302" />
<rect x="26.650" y="10.250" width="1.025" height="1.025" fill="#120302" />
<rect x="27.675" y="10.250" width="1.025" height="1.025" fill="#261004" />
<rect x="28.700" y="10.250" width="1.025" height="1.025" fill="#54320a" />
<rect x="29.725" y="10.250" width="1.025" height="1.025" fill="#371307" />
<rect x="30.750" y="10.250" width="1.025" height="1.025" fill="#261004" fill-opacity="0.784" />
<rect x="31.775" y="10.250" width="1.025" height="1.025" fill="#261004" />
<rect x="32.800" y="10.250" width="1.025" height="1.025" fill="#472a08" />
<rect x="33.825" y="10.250" width="1.025" height="1.025" fill="#441a08" />
<rect x="34.850" y="10.250" width="1.025" height="1.025" fill="#261004" fill-opacity="0.400" />
<rect x="35.875" y="10.250" width="1.025" height="1.025" fill="#261004" />
<rect x="27.675" y="11.275" width="1.025" height="1.025" fill="#261004" />
<rect x="28.700" y="11.275" width="1.025" height="1.025" fill="#261004" />
<rect x="29.725" y="11.275" width="1.025" height="1.025" fill="#452008" />
<rect x="30.750" y="11.275" width="1.025" height="1.025" fill="#361806" />
<rect x="31.775" y="11.275" width="1.025" height="1.025" fill="#120302" />
<rect x="32.800" y="11.275" width="1.025" height="1.025" fill="#472a08" />
<rect x="33.825" y="11.275" width="1.025" height="1.025" fill="#441a08" />
<rect x="34.850" y="11.275" width="1.025" height="1.025" fill="#261004" fill-opacity="0.400" />
<rect x="35.875" y="11.275" width="1.025" height="1.025" fill="#261004" />
<rect x="28.700" y="12.300" width="1.025" height="1.025" fill="#261004" />
<rect x="29.725" y="12.300" width="1.025" height="1.025" fill="#54320a" />
<rect x="30.750" y="12.300" width="1.025" height="1.025" fill="#54320a" />
<rect x="31.775" y="12.300" width="1.025" height="1.025" fill="#120302" />
<rect x="32.800" y="12.300" width="1.025" height="1.025" fill="#472a08" />
<rect x="33.825" y="12.300" width="1.025" height="1.025" fill="#441a08" />
<rect x="34.850" y="12.300" width="1.025" height="1.025" fill="#261004" />
<rect x="28.700" y="13.325" width="1.025" height="1.025" fill="#120302" />
<rect x="29.725" y="13.325" width="1.025" height="1.025" fill="#261004" />
<rect x="30.750" y="13.325" width="1.025" height="1.025" fill="#54320a" />
<rect x="31.775" y="13.325" width="1.025" height="1.025" fill="#261004" />
<rect x="32.800" y="13.325" width="1.025" height="1.025" fill="#472a08" />
<rect x="33.825" y="13.325" width="1.025" height="1.025" fill="#452008" />
<rect x="34.850" y="13.325" width="1.025" height="1.025" fill="#261004" />
<rect x="29.725" y="14.350" width="1.025" height="1.025" fill="#120302" />
<rect x="30.750" y="14.350" width="1.025" height="1.025" fill="#120302" />
<rect x="31.775" y="14.350" width="1.025" height="1.025" fill="#472a08" />
<rect x="32.800" y="14.350" width="1.025" height="1.025" fill="#3e1e06" />
<rect x="33.825" y="14.350" width="1.025" height="1.025" fill="#261004" />
<rect x="30.750" y="15.375" width="1.025" height="1.025" fill="#391507" />
<rect x="31.775" y="15.375" width="1.025" height="1.025" fill="#3a1a05" />
<rect x="32.800" y="15.375" width="1.025" height="1.025" fill="#60330f" />
<rect x="33.825" y="15.375" width="1.025" height="1.025" fill="#441a08" />
<rect x="34.850" y="15.375" width="1.025" height="1.025" fill="#1a0803" />
<rect x="29.725" y="16.400" width="1.025" height="1.025" fill="#150502" fill-opacity="0.996" />
<rect x="30.750" y="16.400" width="1.025" height="1.025" fill="#391507" />
<rect x="31.775" y="16.400" width="1.025" height="1.025" fill="#59350a" />
<rect x="32.800" y="16.400" width="1.025" height="1.025" fill="#441a08" />
<rect x="33.825" y="16.400" width="1.025" height="1.025" fill="#441a08" />
<rect x="34.850" y="16.400" width="1.025" height="1.025" fill="#120302" fill-opacity="0.902" />
<rect x="29.725" y="17.425" width="1.025" height="1.025" fill="#150502" />
<rect x="30.750" y="17.425" width="1.025" height="1.025" fill="#150502" />
<rect x="31.775" y="17.425" width="1.025" height="1.025" fill="#261004" />
<rect x="32.800" y="17.425" width="1.025" height="1.025" fill="#452008" />
<rect x="33.825" y="17.425" width="1.025" height="1.025" fill="#452008" />
<rect x="29.725" y="18.450" width="1.025" height="1.025" fill="#381507" />
<rect x="30.750" y="18.450" width="1.025" height="1.025" fill="#150502" />
<rect x="31.775" y="18.450" width="1.025" height="1.025" fill="#54320a" />
<rect x="32.800" y="18.450" width="1.025" height="1.025" fill="#441a08" />
<rect x="33.825" y="18.450" width="1.025" height="1.025" fill="#1f1003" />
<rect x="29.725" y="19.475" width="1.025" height="1.025" fill="#150502" />
<rect x="30.750" y="19.475" width="1.025" height="1.025" fill="#130402" />
<rect x="31.775" y="19.475" width="1.025" height="1.025" fill="#441a08" />
<rect x="32.800" y="19.475" width="1.025" height="1.025" fill="#160603" />
<rect x="30.750" y="20.500" width="1.025" height="1.025" fill="#130402" />
<rect x="31.775" y="20.500" width="1.025" height="1.025" fill="#160603" />
<rect x="32.800" y="20.500" width="1.025" height="1.025" fill="#180703" />
<rect x="30.750" y="21.525" width="1.025" height="1.025" fill="#60330f" />
<rect x="31.775" y="21.525" width="1.025" height="1.025" fill="#482106" />
<rect x="32.800" y="21.525" width="1.025" height="1.025" fill="#482106" />
<rect x="30.750" y="22.550" width="1.025" height="1.025" fill="#60330f" />
<rect x="31.775" y="22.550" width="1.025" height="1.025" fill="#60330f" />
<rect x="32.800" y="22.550" width="1.025" height="1.025" fill="#482106" />
<rect x="31.775" y="23.575" width="1.025" height="1.025" fill="#60330f" />
<rect x="32.800" y="23.575" width="1.025" height="1.025" fill="#482106" />
<rect x="31.775" y="24.600" width="1.025" height="1.025" fill="#60330f" />
<rect x="32.800" y="24.600" width="1.025" height="1.025" fill="#60330f" />
<rect x="31.775" y="25.625" width="1.025" height="1.025" fill="#482106" />
<rect x="32.800" y="25.625" width="1.025" height="1.025" fill="#60330f" />
<rect x="31.775" y="26.650" width="1.025" height="1.025" fill="#482106" />
<rect x="32.800" y="26.650" width="1.025" height="1.025" fill="#60330f" />
<rect x="31.775" y="27.675" width="1.025" height="1.025" fill="#482106" />
<rect x="32.800" y="27.675" width="1.025" height="1.025" fill="#60330f" />
<rect x="31.775" y="28.700" width="1.025" height="1.025" fill="#482106" />
<rect x="32.800" y="28.700" width="1.025" height="1.025" fill="#60330f" />
<rect x="31.775" y="29.725" width="1.025" height="1.025" fill="#60330f" />
<rect x="32.800" y="29.725" width="1.025" height="1.025" fill="#60330f" />
<rect x="31.775" y="30.750" width="1.025" height="1.025" fill="#482106" />
<rect x="32.800" y="30.750" width="1.025" height="1.025" fill="#60330f" />
<rect x="31.775" y="31.775" width="1.025" height="1.025" fill="#482106" />
<rect x="32.800" y="31.775" width="1.025" height="1.025" fill="#60330f" />
<rect x="31.775" y="32.800" width="1.025" height="1.025" fill="#482106" />
<rect x="32.800" y="32.800" width="1.025" height="1.025" fill="#60330f" />
<rect x="31.775" y="33.825" width="1.025" height="1.025" fill="#482106" />
<rect x="32.800" y="33.825" width="1.025" height="1.025" fill="#60330f" />
<rect x="31.775" y="34.850" width="1.025" height="1.025" fill="#482106" />
<rect x="32.800" y="34.850" width="1.025" height="1.025" fill="#60330f" />
<rect x="31.775" y="35.875" width="1.025" height="1.025" fill="#482106" />
<rect x="32.800" y="35.875" width="1.025" height="1.025" fill="#60330f" />
<rect x="31.775" y="36.900" width="1.025" height="1.025" fill="#482106" />
<rect x="32.800" y="36.900" width="1.025" height="1.025" fill="#60330f" />
</svg>