<svg xmlns="http://www.w3.org/2000/svg" width="37.925" height="37.925" shape-rendering="crispEdges" style="image-rendering: pixelated;">
<rect x="27.675" y="1.025" width="1.025" height="1.025" fill="#ff0000" fill-opacity="0.239" />
<rect x="30.750" y="1.025" width="1.025" height="1.025" fill="#ff0000" />
<rect x="25.625" y="2.050" width="1.025" height="1.025" fill="#ff0000" fill-opacity="0.698" />
<rect x="31.775" y="2.050" width="1.025" height="1.025" fill="#ff0000" />
<rect x="34.850" y="2.050" width="1.025" height="1.025" fill="#ff0000" />
<rect x="27.675" y="3.075" width="1.025" height="1.025" fill="#ff0000" />
<rect x="35.875" y="3.075" width="1.025" height="1.025" fill="#ff0000" fill-opacity="0.486" />
<rect x="36.900" y="3.075" width="1.025" height="1.025" fill="#ff0000" />
<rect x="22.550" y="4.100" width="1.025" height="1.025" fill="#ff0000" fill-opacity="0.341" />
<rect x="24.600" y="4.100" width="1.025" height="1.025" fill="#ff0000" />
<rect x="26.650" y="4.100" width="1.025" height="1.025" fill="#ff0000" />
<rect x="32.800" y="4.100" width="1.025" height="1.025" fill="#ff0000" />
<rect x="34.850" y="4.100" width="1.025" height="1.025" fill="#ff0000" />
<rect x="30.750" y="5.125" width="1.025" height="1.025" fill="#ff0000" fill-opacity="0.698" />
<rect x="36.900" y="5.125" width="1.025" height="1.025" fill="#ff0000" />
<rect x="32.800" y="6.150" width="1.025" height="1.025" fill="#ff0000" />
<rect x="35.875" y="6.150" width="1.025" height="1.025" fill="#ff0000" />
<rect x="36.900" y="6.150" width="1.025" height="1.025" fill="#ff0000" fill-opacity="0.486" />
<rect x="24.600" y="7.175" width="1.025" height="1.025" fill="#ff0000" />
<rect x="30.750" y="7.175" width="1.025" height="1.025" fill="#ff0000" fill-opacity="0.341" />
<rect x="31.775" y="7.175" width="1.025" height="1.025" fill="#ff0000" />
<rect x="21.525" y="8.200" width="1.025" height="1.025" fill="#cc0000" />
<rect x="25.625" y="8.200" width="1.025" height="1.025" fill="#ff0000" />
<rect x="28.700" y="8.200" width="1.025" height="1.025" fill="#ff0000" />
<rect x="30.750" y="8.200" width="1.025" height="1.025" fill="#ff0000" />
<rect x="33.825" y="8.200" width="1.025" height="1.025" fill="#ff0000" />
<rect x="17.425" y="9.225" width="1.025" height="1.025" fill="#cc0000" />
<rect x="21.525" y="9.225" width="1.025" height="1.025" fill="#cc0000" />
<rect x="27.675" y="10.250" width="1.025" height="1.025" fill="#ff0000" />
<rect x="30.750" y="10.250" width="1.025" height="1.025" fill="#ff0000" />
<rect x="32.800" y="10.250" width="1.025" height="1.025" fill="#ff0000" />
<rect x="33.825" y="10.250" width="1.025" height="1.025" fill="#ff0000" fill-opacity="0.341" />
<rect x="36.900" y="10.250" width="1.025" height="1.025" fill="#ff0000" />
<rect x="24.600" y="11.275" width="1.025" height="1.025" fill="#cc0000" />
<rect x="30.750" y="11.275" width="1.025" height="1.025" fill="#ff0000" />
<rect x="33.825" y="11.275" width="1.025" height="1.025" fill="#ff0000" />
<rect x="36.900" y="11.275" width="1.025" height="1.025" fill="#ff0000" fill-opacity="0.341" />
<rect x="26.650" y="12.300" width="1.025" height="1.025" fill="#ff0000" />
<rect x="28.700" y="12.300" width="1.025" height="1.025" fill="#ff0000" />
<rect x="31.775" y="12.300" width="1.025" height="1.025" fill="#ff0000" />
<rect x="15.375" y="13.325" width="1.025" height="1.025" fill="#cc0000" />
<rect x="16.400" y="13.325" width="1.025" height="1.025" fill="#cc0000" />
<rect x="20.500" y="13.325" width="1.025" height="1.025" fill="#cc0000" />
<rect x="25.625" y="13.325" width="1.025" height="1.025" fill="#ff0000" />
<rect x="26.650" y="13.325" width="1.025" height="1.025" fill="#ff0000" fill-opacity="0.486" />
<rect x="27.675" y="13.325" width="1.025" height="1.025" fill="#ff0000" fill-opacity="0.698" />
<rect x="33.825" y="13.325" width="1.025" height="1.025" fill="#ff0000" />
<rect x="34.850" y="13.325" width="1.025" height="1.025" fill="#ff0000" fill-opacity="0.486" />
<rect x="35.875" y="13.325" width="1.025" height="1.025" fill="#ff0000" fill-opacity="0.169" />
<rect x="27.675" y="14.350" width="1.025" height="1.025" fill="#ff0000" />
<rect x="29.725" y="14.350" width="1.025" height="1.025" fill="#ff0000" />
<rect x="31.775" y="14.350" width="1.025" height="1.025" fill="#ff0000" fill-opacity="0.698" />
<rect x="33.825" y="14.350" width="1.025" height="1.025" fill="#ff0000" fill-opacity="0.118" />
<rect x="34.850" y="14.350" width="1.025" height="1.025" fill="#ff0000" fill-opacity="0.698" />
<rect x="35.875" y="14.350" width="1.025" height="1.025" fill="#ff0000" fill-opacity="0.341" />
<rect x="18.450" y="15.375" width="1.025" height="1.025" fill="#cc0000" fill-opacity="0.698" />
<rect x="19.475" y="15.375" width="1.025" height="1.025" fill="#cc0000" fill-opacity="0.486" />
<rect x="20.500" y="15.375" width="1.025" height="1.025" fill="#cc0000" />
<rect x="23.575" y="15.375" width="1.025" height="1.025" fill="#cc0000" />
<rect x="25.625" y="15.375" width="1.025" height="1.025" fill="#ff0000" />
<rect x="30.750" y="15.375" width="1.025" height="1.025" fill="#ff0000" />
<rect x="32.800" y="15.375" width="1.025" height="1.025" fill="#ff0000" />
<rect x="33.825" y="15.375" width="1.025" height="1.025" fill="#ff0000" />
<rect x="35.875" y="15.375" width="1.025" height="1.025" fill="#ff0000" />
<rect x="17.425" y="16.400" width="1.025" height="1.025" fill="#cc0000" />
<rect x="18.450" y="16.400" width="1.025" height="1.025" fill="#cc0000" />
<rect x="21.525" y="16.400" width="1.025" height="1.025" fill="#cc0000" />
<rect x="23.575" y="16.400" width="1.025" height="1.025" fill="#cc0000" fill-opacity="0.698" />
<rect x="27.675" y="16.400" width="1.025" height="1.025" fill="#ff0000" />
<rect x="29.725" y="16.400" width="1.025" height="1.025" fill="#ff0000" fill-opacity="0.698" />
<rect x="30.750" y="16.400" width="1.025" height="1.025" fill="#ff0000" fill-opacity="0.341" />
<rect x="32.800" y="16.400" width="1.025" height="1.025" fill="#ff0000" />
<rect x="15.375" y="17.425" width="1.025" height="1.025" fill="#cc0000" />
<rect x="24.600" y="17.425" width="1.025" height="1.025" fill="#cc0000" />
<rect x="26.650" y="17.425" width="1.025" height="1.025" fill="#ff0000" fill-opacity="0.698" />
<rect x="27.675" y="17.425" width="1.025" height="1.025" fill="#ff0000" fill-opacity="0.239" />
<rect x="29.725" y="17.425" width="1.025" height="1.025" fill="#ff0000" />
<rect x="32.800" y="17.425" width="1.025" height="1.025" fill="#ff0000" />
<rect x="36.900" y="17.425" width="1.025" height="1.025" fill="#ff0000" fill-opacity="0.486" />
<rect x="18.450" y="18.450" width="1.025" height="1.025" fill="#cc0000" />
<rect x="22.550" y="18.450" width="1.025" height="1.025" fill="#cc0000" fill-opacity="0.698" />
<rect x="25.625" y="18.450" width="1.025" height="1.025" fill="#ff0000" />
<rect x="31.775" y="18.450" width="1.025" height="1.025" fill="#ff0000" />
<rect x="33.825" y="18.450" width="1.025" height="1.025" fill="#ff0000" />
<rect x="36.900" y="18.450" width="1.025" height="1.025" fill="#ff0000" />
<rect x="16.400" y="19.475" width="1.025" height="1.025" fill="#cc0000" />
<rect x="17.425" y="19.475" width="1.025" height="1.025" fill="#cc0000" />
<rect x="22.550" y="19.475" width="1.025" height="1.025" fill="#cc0000" />
<rect x="23.575" y="19.475" width="1.025" height="1.025" fill="#cc0000" fill-opacity="0.698" />
<rect x="27.675" y="19.475" width="1.025" height="1.025" fill="#ff0000" />
<rect x="28.700" y="19.475" width="1.025" height="1.025" fill="#ff0000" />
<rect x="30.750" y="19.475" width="1.025" height="1.025" fill="#ff0000" />
<rect x="32.800" y="19.475" width="1.025" height="1.025" fill="#ff0000" fill-opacity="0.698" />
<rect x="33.825" y="19.475" width="1.025" height="1.025" fill="#ff0000" />
<rect x="17.425" y="20.500" width="1.025" height="1.025" fill="#cc0000" />
<rect x="19.475" y="20.500" width="1.025" height="1.025" fill="#cc0000" />
<rect x="21.525" y="20.500" width="1.025" height="1.025" fill="#cc0000" fill-opacity="0.486" />
<rect x="23.575" y="20.500" width="1.025" height="1.025" fill="#cc0000" fill-opacity="0.486" />
<rect x="24.600" y="20.500" width="1.025" height="1.025" fill="#cc0000" fill-opacity="0.486" />
<rect x="25.625" y="20.500" width="1.025" height="1.025" fill="#ff0000" />
<rect x="26.650" y="20.500" width="1.025" height="1.025" fill="#ff0000" fill-opacity="0.341" />
<rect x="28.700" y="20.500" width="1.025" height="1.025" fill="#ff0000" fill-opacity="0.486" />
<rect x="29.725" y="20.500" width="1.025" height="1.025" fill="#ff0000" />
<rect x="30.750" y="20.500" width="1.025" height="1.025" fill="#ff0000" fill-opacity="0.486" />
<rect x="32.800" y="20.500" width="1.025" height="1.025" fill="#ff0000" fill-opacity="0.698" />
<rect x="33.825" y="20.500" width="1.025" height="1.025" fill="#ff0000" fill-opacity="0.486" />
<rect x="34.850" y="20.500" width="1.025" height="1.025" fill="#ff0000" />
<rect x="20.500" y="21.525" width="1.025" height="1.025" fill="#cc0000" fill-opacity="0.698" />
<rect x="23.575" y="21.525" width="1.025" height="1.025" fill="#cc0000" fill-opacity="0.698" />
<rect x="24.600" y="21.525" width="1.025" height="1.025" fill="#cc0000" fill-opacity="0.698" />
<rect x="26.650" y="21.525" width="1.025" height="1.025" fill="#ff0000" fill-opacity="0.698" />
<rect x="30.750" y="21.525" width="1.025" height="1.025" fill="#ff0000" fill-opacity="0.698" />
<rect x="31.775" y="21.525" width="1.025" height="1.025" fill="#ff0000" />
<rect x="33.825" y="21.525" width="1.025" height="1.025" fill="#ff0000" />
<rect x="35.875" y="21.525" width="1.025" height="1.025" fill="#ff0000" />
<rect x="18.450" y="22.550" width="1.025" height="1.025" fill="#cc0000" />
<rect x="21.525" y="22.550" width="1.025" height="1.025" fill="#cc0000" />
<rect x="24.600" y="22.550" width="1.025" height="1.025" fill="#cc0000" fill-opacity="0.698" />
<rect x="26.650" y="22.550" width="1.025" height="1.025" fill="#ff0000" />
<rect x="27.675" y="22.550" width="1.025" height="1.025" fill="#ff0000" />
<rect x="29.725" y="22.550" width="1.025" height="1.025" fill="#262626" />
<rect x="30.750" y="22.550" width="1.025" height="1.025" fill="#cc0000" />
<rect x="31.775" y="22.550" width="1.025" height="1.025" fill="#262626" />
<rect x="32.800" y="22.550" width="1.025" height="1.025" fill="#ff0000" />
<rect x="33.825" y="22.550" width="1.025" height="1.025" fill="#262626" />
<rect x="34.850" y="22.550" width="1.025" height="1.025" fill="#ff0000" />
<rect x="35.875" y="22.550" width="1.025" height="1.025" fill="#ff0000" />
<rect x="36.900" y="22.550" width="1.025" height="1.025" fill="#ff0000" fill-opacity="0.239" />
<rect x="20.500" y="23.575" width="1.025" height="1.025" fill="#cc0000" />
<rect x="25.625" y="23.575" width="1.025" height="1.025" fill="#ff0000" />
<rect x="26.650" y="23.575" width="1.025" height="1.025" fill="#ff0000" fill-opacity="0.698" />
<rect x="28.700" y="23.575" width="1.025" height="1.025" fill="#262626" />
<rect x="29.725" y="23.575" width="1.025" height="1.025" fill="#260000" />
<rect x="30.750" y="23.575" width="1.025" height="1.025" fill="#800000" />
<rect x="31.775" y="23.575" width="1.025" height="1.025" fill="#808080" />
<rect x="32.800" y="23.575" width="1.025" height="1.025" fill="#ff0000" />
<rect x="33.825" y="23.575" width="1.025" height="1.025" fill="#262626" />
<rect x="34.850" y="23.575" width="1.025" height="1.025" fill="#262626" />
<rect x="35.875" y="23.575" width="1.025" height="1.025" fill="#ff0000" fill-opacity="0.698" />
<rect x="36.900" y="23.575" width="1.025" height="1.025" fill="#ff0000" fill-opacity="0.698" />
<rect x="20.500" y="24.600" width="1.025" height="1.025" fill="#cc0000" fill-opacity="0.486" />
<rect x="24.600" y="24.600" width="1.025" height="1.025" fill="#ff0000" />
<rect x="26.650" y="24.600" width="1.025" height="1.025" fill="#ff0000" />
<rect x="27.675" y="24.600" width="1.025" height="1.025" fill="#ff0000" fill-opacity="0.486" />
<rect x="28.700" y="24.600" width="1.025" height="1.025" fill="#ff0000" />
<rect x="29.725" y="24.600" width="1.025" height="1.025" fill="#800000" />
<rect x="30.750" y="24.600" width="1.025" height="1.025" fill="#800000" />
<rect x="31.775" y="24.600" width="1.025" height="1.025" fill="#414141" />
<rect x="32.800" y="24.600" width="1.025" height="1.025" fill="#808080" />
<rect x="33.825" y="24.600" width="1.025" height="1.025" fill="#808080" />
<rect x="34.850" y="24.600" width="1.025" height="1.025" fill="#cccccc" />
<rect x="35.875" y="24.600" width="1.025" height="1.025" fill="#ff0000" fill-opacity="0.486" />
<rect x="36.900" y="24.600" width="1.025" height="1.025" fill="#ff0000" />
<rect x="18.450" y="25.625" width="1.025" height="1.025" fill="#cc0000" fill-opacity="0.486" />
<rect x="21.525" y="25.625" width="1.025" height="1.025" fill="#ff0000" />
<rect x="24.600" y="25.625" width="1.025" height="1.025" fill="#ff0000" />
<rect x="27.675" y="25.625" width="1.025" height="1.025" fill="#ff0000" />
<rect x="28.700" y="25.625" width="1.025" height="1.025" fill="#262626" />
<rect x="29.725" y="25.625" width="1.025" height="1.025" fill="#800000" />
<rect x="30.750" y="25.625" width="1.025" height="1.025" fill="#414141" />
<rect x="31.775" y="25.625" width="1.025" height="1.025" fill="#ff0000" />
<rect x="32.800" y="25.625" width="1.025" height="1.025" fill="#262626" />
<rect x="33.825" y="25.625" width="1.025" height="1.025" fill="#808080" />
<rect x="34.850" y="25.625" width="1.025" height="1.025" fill="#262626" />
<rect x="36.900" y="25.625" width="1.025" height="1.025" fill="#ff0000" fill-opacity="0.698" />
<rect x="19.475" y="26.650" width="1.025" height="1.025" fill="#ff0000" />
<rect x="23.575" y="26.650" width="1.025" height="1.025" fill="#ff0000" fill-opacity="0.698" />
<rect x="26.650" y="26.650" width="1.025" height="1.025" fill="#ff0000" />
<rect x="27.675" y="26.650" width="1.025" height="1.025" fill="#ff0000" fill-opacity="0.486" />
<rect x="28.700" y="26.650" width="1.025" height="1.025" fill="#cc0000" />
<rect x="29.725" y="26.650" width="1.025" height="1.025" fill="#800000" />
<rect x="30.750" y="26.650" width="1.025" height="1.025" fill="#414141" />
<rect x="31.775" y="26.650" width="1.025" height="1.025" fill="#262626" />
<rect x="32.800" y="26.650" width="1.025" height="1.025" fill="#262626" />
<rect x="33.825" y="26.650" width="1.025" height="1.025" fill="#ff0000" />
<rect x="34.850" y="26.650" width="1.025" height="1.025" fill="#cccccc" />
<rect x="36.900" y="26.650" width="1.025" height="1.025" fill="#ff0000" />
<rect x="23.575" y="27.675" width="1.025" height="1.025" fill="#ff0000" fill-opacity="0.169" />
<rect x="24.600" y="27.675" width="1.025" height="1.025" fill="#ff0000" fill-opacity="0.698" />
<rect x="27.675" y="27.675" width="1.025" height="1.025" fill="#ff0000" />
<rect x="28.700" y="27.675" width="1.025" height="1.025" fill="#262626" />
<rect x="29.725" y="27.675" width="1.025" height="1.025" fill="#800000" />
<rect x="30.750" y="27.675" width="1.025" height="1.025" fill="#414141" />
<rect x="31.775" y="27.675" width="1.025" height="1.025" fill="#262626" />
<rect x="32.800" y="27.675" width="1.025" height="1.025" fill="#262626" />
<rect x="33.825" y="27.675" width="1.025" height="1.025" fill="#808080" />
<rect x="34.850" y="27.675" width="1.025" height="1.025" fill="#262626" />
<rect x="35.875" y="27.675" width="1.025" height="1.025" fill="#ff0000" />
<rect x="26.650" y="28.700" width="1.025" height="1.025" fill="#ff0000" />
<rect x="28.700" y="28.700" width="1.025" height="1.025" fill="#ff0000" />
<rect x="29.725" y="28.700" width="1.025" height="1.025" fill="#800000" />
<rect x="30.750" y="28.700" width="1.025" height="1.025" fill="#414141" />
<rect x="31.775" y="28.700" width="1.025" height="1.025" fill="#262626" />
<rect x="32.800" y="28.700" width="1.025" height="1.025" fill="#262626" />
<rect x="33.825" y="28.700" width="1.025" height="1.025" fill="#ff0000" />
<rect x="34.850" y="28.700" width="1.025" height="1.025" fill="#ff0000" />
<rect x="36.900" y="28.700" width="1.025" height="1.025" fill="#ff0000" />
<rect x="28.700" y="29.725" width="1.025" height="1.025" fill="#262626" />
<rect x="29.725" y="29.725" width="1.025" height="1.025" fill="#800000" />
<rect x="30.750" y="29.725" width="1.025" height="1.025" fill="#414141" />
<rect x="31.775" y="29.725" width="1.025" height="1.025" fill="#262626" />
<rect x="32.800" y="29.725" width="1.025" height="1.025" fill="#262626" />
<rect x="33.825" y="29.725" width="1.025" height="1.025" fill="#808080" />
<rect x="34.850" y="29.725" width="1.025" height="1.025" fill="#262626" />
<rect x="28.700" y="30.750" width="1.025" height="1.025" fill="#ff0000" />
<rect x="29.725" y="30.750" width="1.025" height="1.025" fill="#800000" />
<rect x="30.750" y="30.750" width="1.025" height="1.025" fill="#414141" />
<rect x="31.775" y="30.750" width="1.025" height="1.025" fill="#262626" />
<rect x="32.800" y="30.750" width="1.025" height="1.025" fill="#262626" />
<rect x="33.825" y="30.750" width="1.025" height="1.025" fill="#808080" />
<rect x="34.850" y="30.750" width="1.025" height="1.025" fill="#cccccc" />
<rect x="28.700" y="31.775" width="1.025" height="1.025" fill="#260000" />
<rect x="29.725" y="31.775" width="1.025" height="1.025" fill="#800000" />
<rect x="30.750" y="31.775" width="1.025" height="1.025" fill="#414141" />
<rect x="31.775" y="31.775" width="1.025" height="1.025" fill="#262626" />
<rect x="32.800" y="31.775" width="1.025" height="1.025" fill="#262626" />
<rect x="33.825" y="31.775" width="1.025" height="1.025" fill="#808080" />
<rect x="34.850" y="31.775" width="1.025" height="1.025" fill="#262626" />
<rect x="28.700" y="32.800" width="1.025" height="1.025" fill="#cc0000" />
<rect x="29.725" y="32.800" width="1.025" height="1.025" fill="#808080" />
<rect x="30.750" y="32.800" width="1.025" height="1.025" fill="#414141" />
<rect x="31.775" y="32.800" width="1.025" height="1.025" fill="#262626" />
<rect x="32.800" y="32.800" width="1.025" height="1.025" fill="#262626" />
<rect x="33.825" y="32.800" width="1.025" height="1.025" fill="#808080" />
<rect x="34.850" y="32.800" width="1.025" height="1.025" fill="#cccccc" />
<rect x="28.700" y="33.825" width="1.025" height="1.025" fill="#260000" />
<rect x="29.725" y="33.825" width="1.025" height="1.025" fill="#800000" />
<rect x="30.750" y="33.825" width="1.025" height="1.025" fill="#414141" />
<rect x="31.775" y="33.825" width="1.025" height="1.025" fill="#262626" />
<rect x="32.800" y="33.825" width="1.025" height="1.025" fill="#262626" />
<rect x="33.825" y="33.825" width="1.025" height="1.025" fill="#808080" />
<rect x="34.850" y="33.825" width="1.025" height="1.025" fill="#262626" />
<rect x="28.700" y="34.850" width="1.025" height="1.025" fill="#cccccc" />
<rect x="29.725" y="34.850" width="1.025" height="1.025" fill="#800000" />
<rect x="30.750" y="34.850" width="1.025" height="1.025" fill="#414141" />
<rect x="31.775" y="34.850" width="1.025" height="1.025" fill="#262626" />
<rect x="32.800" y="34.850" width="1.025" height="1.025" fill="#262626" />
<rect x="33.825" y="34.850" width="1.025" height="1.025" fill="#808080" />
<rect x="34.850" y="34.850" width="1.025" height="1.025" fill="#cccccc" />
<rect x="28.700" y="35.875" width="1.025" height="1.025" fill="#262626" />
<rect x="29.725" y="35.875" width="1.025" height="1.025" fill="#800000" />
<rect x="30.750" y="35.875" width="1.025" height="1.025" fill="#414141" />
<rect x="31.775" y="35.875" width="1.025" height="1.025" fill="#262626" />
<rect x="32.800" y="35.875" width="1.025" height="1.025" fill="#262626" />
<rect x="33.825" y="35.875" width="1.025" height="1.025" fill="#808080" />
<rect x="34.850" y="35.875" width="1.025" height="1.025" fill="#262626" />
<rect x="28.700" y="36.900" width="1.025" height="1.025" fill="#cccccc" />
<rect x="29.725" y="36.900" width="1.025" height="1.025" fill="#800000" />
<rect x="30.750" y="36.900" width="1.025" height="1.025" fill="#414141" />
<rect x="31.775" y="36.900" width="1.025" height="1.025" fill="#262626" />
<rect x="32.800" y="36.900" width="1.025" height="1.025" fill="#262626" />
<rect x="33.825" y="36.900" width="1.025" height="1.025" fill="#808080" />
<rect x="34.850" y="36.900" width="1.025" height="1.025" fill="#cccccc" />
</svg>