<svg xmlns="http://www.w3.org/2000/svg" width="37.925" height="37.925" shape-rendering="crispEdges" style="image-rendering: pixelated;">
<rect x="18.450" y="6.150" width="1.025" height="1.025" fill="#000000" />
<rect x="19.475" y="6.150" width="1.025" height="1.025" fill="#000000" />
<rect x="20.500" y="6.150" width="1.025" height="1.025" fill="#000000" />
<rect x="21.525" y="6.150" width="1.025" height="1.025" fill="#000000" />
<rect x="22.550" y="6.150" width="1.025" height="1.025" fill="#000000" />
<rect x="23.575" y="6.150" width="1.025" height="1.025" fill="#000000" />
<rect x="17.425" y="7.175" width="1.025" height="1.025" fill="#ff5109" />
<rect x="18.450" y="7.175" width="1.025" height="1.025" fill="#ff610e" />
<rect x="19.475" y="7.175" width="1.025" height="1.025" fill="#ff580d" />
<rect x="20.500" y="7.175" width="1.025" height="1.025" fill="#ff5a0b" />
<rect x="21.525" y="7.175" width="1.025" height="1.025" fill="#ff5a0b" />
<rect x="22.550" y="7.175" width="1.025" height="1.025" fill="#ff5e0c" />
<rect x="23.575" y="7.175" width="1.025" height="1.025" fill="#e83c00" />
<rect x="24.600" y="7.175" width="1.025" height="1.025" fill="#000000" />
<rect x="16.400" y="8.200" width="1.025" height="1.025" fill="#ff5b1a" />
<rect x="17.425" y="8.200" width="1.025" height="1.025" fill="#ff7a22" />
<rect x="18.450" y="8.200" width="1.025" height="1.025" fill="#ff9f3b" />
<rect x="19.475" y="8.200" width="1.025" height="1.025" fill="#ffa531" />
<rect x="20.500" y="8.200" width="1.025" height="1.025" fill="#ffa530" />
<rect x="21.525" y="8.200" width="1.025" height="1.025" fill="#ffa637" />
<rect x="22.550" y="8.200" width="1.025" height="1.025" fill="#ff9833" />
<rect x="23.575" y="8.200" width="1.025" height="1.025" fill="#ff8f2b" />
<rect x="24.600" y="8.200" width="1.025" height="1.025" fill="#ff3301" />
<rect x="25.625" y="8.200" width="1.025" height="1.025" fill="#000000" />
<rect x="16.400" y="9.225" width="1.025" height="1.025" fill="#ff5215" />
<rect x="17.425" y="9.225" width="1.025" height="1.025" fill="#ff8c39" />
<rect x="18.450" y="9.225" width="1.025" height="1.025" fill="#ff933d" />
<rect x="19.475" y="9.225" width="1.025" height="1.025" fill="#ffa846" />
<rect x="20.500" y="9.225" width="1.025" height="1.025" fill="#ffb14b" />
<rect x="21.525" y="9.225" width="1.025" height="1.025" fill="#ff8b41" />
<rect x="22.550" y="9.225" width="1.025" height="1.025" fill="#ff8b3e" />
<rect x="23.575" y="9.225" width="1.025" height="1.025" fill="#ff8938" />
<rect x="24.600" y="9.225" width="1.025" height="1.025" fill="#ff4c0d" />
<rect x="25.625" y="9.225" width="1.025" height="1.025" fill="#000000" />
<rect x="15.375" y="10.250" width="1.025" height="1.025" fill="#ff4e15" />
<rect x="16.400" y="10.250" width="1.025" height="1.025" fill="#ff4e15" />
<rect x="17.425" y="10.250" width="1.025" height="1.025" fill="#ff8936" />
<rect x="18.450" y="10.250" width="1.025" height="1.025" fill="#ff973e" />
<rect x="19.475" y="10.250" width="1.025" height="1.025" fill="#ff973e" />
<rect x="20.500" y="10.250" width="1.025" height="1.025" fill="#ff9c40" />
<rect x="21.525" y="10.250" width="1.025" height="1.025" fill="#ff973e" />
<rect x="22.550" y="10.250" width="1.025" height="1.025" fill="#ff7b33" />
<rect x="23.575" y="10.250" width="1.025" height="1.025" fill="#ff7b34" />
<rect x="24.600" y="10.250" width="1.025" height="1.025" fill="#ff4205" />
<rect x="25.625" y="10.250" width="1.025" height="1.025" fill="#000000" />
<rect x="15.375" y="11.275" width="1.025" height="1.025" fill="#ff3e0f" />
<rect x="16.400" y="11.275" width="1.025" height="1.025" fill="#ff3e0f" />
<rect x="17.425" y="11.275" width="1.025" height="1.025" fill="#ff6c2a" />
<rect x="18.450" y="11.275" width="1.025" height="1.025" fill="#ffa944" />
<rect x="19.475" y="11.275" width="1.025" height="1.025" fill="#ffac44" />
<rect x="20.500" y="11.275" width="1.025" height="1.025" fill="#ffac44" />
<rect x="21.525" y="11.275" width="1.025" height="1.025" fill="#ff9c40" />
<rect x="22.550" y="11.275" width="1.025" height="1.025" fill="#ff8335" />
<rect x="23.575" y="11.275" width="1.025" height="1.025" fill="#ff953b" />
<rect x="24.600" y="11.275" width="1.025" height="1.025" fill="#ff4a0c" />
<rect x="25.625" y="11.275" width="1.025" height="1.025" fill="#000000" />
<rect x="15.375" y="12.300" width="1.025" height="1.025" fill="#ff3f0e" />
<rect x="16.400" y="12.300" width="1.025" height="1.025" fill="#ff3f0e" />
<rect x="17.425" y="12.300" width="1.025" height="1.025" fill="#ff4d11" />
<rect x="18.450" y="12.300" width="1.025" height="1.025" fill="#ff3a05" />
<rect x="19.475" y="12.300" width="1.025" height="1.025" fill="#ff3f0b" />
<rect x="20.500" y="12.300" width="1.025" height="1.025" fill="#ff370b" />
<rect x="21.525" y="12.300" width="1.025" height="1.025" fill="#ff6721" />
<rect x="22.550" y="12.300" width="1.025" height="1.025" fill="#ff712a" />
<rect x="23.575" y="12.300" width="1.025" height="1.025" fill="#ff611c" />
<rect x="24.600" y="12.300" width="1.025" height="1.025" fill="#ff3f0d" />
<rect x="25.625" y="12.300" width="1.025" height="1.025" fill="#000000" />
<rect x="15.375" y="13.325" width="1.025" height="1.025" fill="#ff4912" />
<rect x="16.400" y="13.325" width="1.025" height="1.025" fill="#ff4912" />
<rect x="17.425" y="13.325" width="1.025" height="1.025" fill="#cd2300" />
<rect x="18.450" y="13.325" width="1.025" height="1.025" fill="#2e0500" />
<rect x="19.475" y="13.325" width="1.025" height="1.025" fill="#360400" />
<rect x="20.500" y="13.325" width="1.025" height="1.025" fill="#680900" />
<rect x="21.525" y="13.325" width="1.025" height="1.025" fill="#b91d00" />
<rect x="22.550" y="13.325" width="1.025" height="1.025" fill="#cc2700" />
<rect x="23.575" y="13.325" width="1.025" height="1.025" fill="#2e0500" />
<rect x="24.600" y="13.325" width="1.025" height="1.025" fill="#360400" />
<rect x="25.625" y="13.325" width="1.025" height="1.025" fill="#000000" />
<rect x="15.375" y="14.350" width="1.025" height="1.025" fill="#ff4110" />
<rect x="16.400" y="14.350" width="1.025" height="1.025" fill="#ff4110" />
<rect x="17.425" y="14.350" width="1.025" height="1.025" fill="#fe4600" />
<rect x="18.450" y="14.350" width="1.025" height="1.025" fill="#000000" />
<rect x="19.475" y="14.350" width="1.025" height="1.025" fill="#ffffff" />
<rect x="20.500" y="14.350" width="1.025" height="1.025" fill="#ea2c00" />
<rect x="21.525" y="14.350" width="1.025" height="1.025" fill="#ff3a03" />
<rect x="22.550" y="14.350" width="1.025" height="1.025" fill="#ef3c00" />
<rect x="23.575" y="14.350" width="1.025" height="1.025" fill="#000000" />
<rect x="24.600" y="14.350" width="1.025" height="1.025" fill="#ffffff" />
<rect x="25.625" y="14.350" width="1.025" height="1.025" fill="#000000" />
<rect x="15.375" y="15.375" width="1.025" height="1.025" fill="#ff3604" />
<rect x="16.400" y="15.375" width="1.025" height="1.025" fill="#ff3604" />
<rect x="17.425" y="15.375" width="1.025" height="1.025" fill="#ff973e" />
<rect x="18.450" y="15.375" width="1.025" height="1.025" fill="#ffb547" />
<rect x="19.475" y="15.375" width="1.025" height="1.025" fill="#ffa534" />
<rect x="20.500" y="15.375" width="1.025" height="1.025" fill="#ff7a34" />
<rect x="21.525" y="15.375" width="1.025" height="1.025" fill="#ff5014" />
<rect x="22.550" y="15.375" width="1.025" height="1.025" fill="#ff5e1b" />
<rect x="23.575" y="15.375" width="1.025" height="1.025" fill="#ff963c" />
<rect x="24.600" y="15.375" width="1.025" height="1.025" fill="#ff711d" />
<rect x="25.625" y="15.375" width="1.025" height="1.025" fill="#000000" />
<rect x="15.375" y="16.400" width="1.025" height="1.025" fill="#d12000" />
<rect x="16.400" y="16.400" width="1.025" height="1.025" fill="#d12000" />
<rect x="17.425" y="16.400" width="1.025" height="1.025" fill="#ff4c16" />
<rect x="18.450" y="16.400" width="1.025" height="1.025" fill="#ff9b41" />
<rect x="19.475" y="16.400" width="1.025" height="1.025" fill="#ffb244" />
<rect x="20.500" y="16.400" width="1.025" height="1.025" fill="#ff7523" />
<rect x="21.525" y="16.400" width="1.025" height="1.025" fill="#000000" />
<rect x="22.550" y="16.400" width="1.025" height="1.025" fill="#ff5019" />
<rect x="23.575" y="16.400" width="1.025" height="1.025" fill="#ff3e06" />
<rect x="24.600" y="16.400" width="1.025" height="1.025" fill="#e43300" />
<rect x="25.625" y="16.400" width="1.025" height="1.025" fill="#000000" />
<rect x="15.375" y="17.425" width="1.025" height="1.025" fill="#990f00" />
<rect x="16.400" y="17.425" width="1.025" height="1.025" fill="#990f00" />
<rect x="17.425" y="17.425" width="1.025" height="1.025" fill="#ea2600" />
<rect x="18.450" y="17.425" width="1.025" height="1.025" fill="#ff531a" />
<rect x="19.475" y="17.425" width="1.025" height="1.025" fill="#ff973b" />
<rect x="20.500" y="17.425" width="1.025" height="1.025" fill="#ff9332" />
<rect x="21.525" y="17.425" width="1.025" height="1.025" fill="#000000" />
<rect x="22.550" y="17.425" width="1.025" height="1.025" fill="#000000" />
<rect x="23.575" y="17.425" width="1.025" height="1.025" fill="#a51a00" />
<rect x="24.600" y="17.425" width="1.025" height="1.025" fill="#e12700" />
<rect x="25.625" y="17.425" width="1.025" height="1.025" fill="#000000" />
<rect x="15.375" y="18.450" width="1.025" height="1.025" fill="#990f00" />
<rect x="16.400" y="18.450" width="1.025" height="1.025" fill="#990f00" />
<rect x="17.425" y="18.450" width="1.025" height="1.025" fill="#c51700" />
<rect x="18.450" y="18.450" width="1.025" height="1.025" fill="#ff3b09" />
<rect x="19.475" y="18.450" width="1.025" height="1.025" fill="#ff722d" />
<rect x="20.500" y="18.450" width="1.025" height="1.025" fill="#ffb244" />
<rect x="21.525" y="18.450" width="1.025" height="1.025" fill="#ff7120" />
<rect x="22.550" y="18.450" width="1.025" height="1.025" fill="#ff4409" />
<rect x="23.575" y="18.450" width="1.025" height="1.025" fill="#ff7229" />
<rect x="24.600" y="18.450" width="1.025" height="1.025" fill="#fc3000" />
<rect x="25.625" y="18.450" width="1.025" height="1.025" fill="#000000" />
<rect x="15.375" y="19.475" width="1.025" height="1.025" fill="#9f0f00" />
<rect x="16.400" y="19.475" width="1.025" height="1.025" fill="#9f0f00" />
<rect x="17.425" y="19.475" width="1.025" height="1.025" fill="#bb1800" />
<rect x="18.450" y="19.475" width="1.025" height="1.025" fill="#ff2e05" />
<rect x="19.475" y="19.475" width="1.025" height="1.025" fill="#ff4a0c" />
<rect x="20.500" y="19.475" width="1.025" height="1.025" fill="#ff722d" />
<rect x="21.525" y="19.475" width="1.025" height="1.025" fill="#ff973a" />
<rect x="22.550" y="19.475" width="1.025" height="1.025" fill="#ff7b26" />
<rect x="23.575" y="19.475" width="1.025" height="1.025" fill="#ff4b0d" />
<rect x="24.600" y="19.475" width="1.025" height="1.025" fill="#d92c00" />
<rect x="25.625" y="19.475" width="1.025" height="1.025" fill="#000000" />
<rect x="16.400" y="20.500" width="1.025" height="1.025" fill="#730900" />
<rect x="17.425" y="20.500" width="1.025" height="1.025" fill="#c31a00" />
<rect x="18.450" y="20.500" width="1.025" height="1.025" fill="#ed2600" />
<rect x="19.475" y="20.500" width="1.025" height="1.025" fill="#ec2b00" />
<rect x="20.500" y="20.500" width="1.025" height="1.025" fill="#000000" />
<rect x="21.525" y="20.500" width="1.025" height="1.025" fill="#000000" />
<rect x="22.550" y="20.500" width="1.025" height="1.025" fill="#000000" />
<rect x="23.575" y="20.500" width="1.025" height="1.025" fill="#000000" />
<rect x="24.600" y="20.500" width="1.025" height="1.025" fill="#cb2500" />
<rect x="25.625" y="20.500" width="1.025" height="1.025" fill="#000000" />
<rect x="16.400" y="21.525" width="1.025" height="1.025" fill="#480400" />
<rect x="17.425" y="21.525" width="1.025" height="1.025" fill="#921000" />
<rect x="18.450" y="21.525" width="1.025" height="1.025" fill="#e41f00" />
<rect x="19.475" y="21.525" width="1.025" height="1.025" fill="#ff4813" />
<rect x="20.500" y="21.525" width="1.025" height="1.025" fill="#ff7a2b" />
<rect x="21.525" y="21.525" width="1.025" height="1.025" fill="#ff862e" />
<rect x="22.550" y="21.525" width="1.025" height="1.025" fill="#ff7228" />
<rect x="23.575" y="21.525" width="1.025" height="1.025" fill="#ff5a1f" />
<rect x="24.600" y="21.525" width="1.025" height="1.025" fill="#c72400" />
<rect x="25.625" y="21.525" width="1.025" height="1.025" fill="#000000" />
<rect x="16.400" y="22.550" width="1.025" height="1.025" fill="#1b0200" />
<rect x="17.425" y="22.550" width="1.025" height="1.025" fill="#4c0500" />
<rect x="18.450" y="22.550" width="1.025" height="1.025" fill="#ab1400" />
<rect x="19.475" y="22.550" width="1.025" height="1.025" fill="#ff350b" />
<rect x="20.500" y="22.550" width="1.025" height="1.025" fill="#ff6323" />
<rect x="21.525" y="22.550" width="1.025" height="1.025" fill="#ffac3e" />
<rect x="22.550" y="22.550" width="1.025" height="1.025" fill="#ffad43" />
<rect x="23.575" y="22.550" width="1.025" height="1.025" fill="#ff792f" />
<rect x="24.600" y="22.550" width="1.025" height="1.025" fill="#871500" />
<rect x="25.625" y="22.550" width="1.025" height="1.025" fill="#000000" />
<rect x="17.425" y="23.575" width="1.025" height="1.025" fill="#280200" />
<rect x="18.450" y="23.575" width="1.025" height="1.025" fill="#4d0500" />
<rect x="19.475" y="23.575" width="1.025" height="1.025" fill="#891500" />
<rect x="20.500" y="23.575" width="1.025" height="1.025" fill="#b02700" />
<rect x="21.525" y="23.575" width="1.025" height="1.025" fill="#ff5705" />
<rect x="22.550" y="23.575" width="1.025" height="1.025" fill="#ff5705" />
<rect x="23.575" y="23.575" width="1.025" height="1.025" fill="#a62400" />
<rect x="24.600" y="23.575" width="1.025" height="1.025" fill="#000000" />
<rect x="18.450" y="24.600" width="1.025" height="1.025" fill="#000000" />
<rect x="19.475" y="24.600" width="1.025" height="1.025" fill="#000000" />
<rect x="20.500" y="24.600" width="1.025" height="1.025" fill="#000000" />
<rect x="21.525" y="24.600" width="1.025" height="1.025" fill="#000000" />
<rect x="22.550" y="24.600" width="1.025" height="1.025" fill="#000000" />
<rect x="23.575" y="24.600" width="1.025" height="1.025" fill="#000000" />
</svg>