<svg xmlns="http://www.w3.org/2000/svg" width="37.925" height="37.925" shape-rendering="crispEdges" style="image-rendering: pixelated;">
<rect x="7.175" y="0.000" width="1.025" height="1.025" fill="#000000" />
<rect x="8.200" y="0.000" width="1.025" height="1.025" fill="#11161c" />
<rect x="9.225" y="0.000" width="1.025" height="1.025" fill="#1f262c" />
<rect x="10.250" y="0.000" width="1.025" height="1.025" fill="#191e26" />
<rect x="11.275" y="0.000" width="1.025" height="1.025" fill="#191e26" />
<rect x="12.300" y="0.000" width="1.025" height="1.025" fill="#242b31" />
<rect x="13.325" y="0.000" width="1.025" height="1.025" fill="#23292f" />
<rect x="14.350" y="0.000" width="1.025" height="1.025" fill="#3a3f47" />
<rect x="15.375" y="0.000" width="1.025" height="1.025" fill="#13181f" />
<rect x="16.400" y="0.000" width="1.025" height="1.025" fill="#13181f" />
<rect x="17.425" y="0.000" width="1.025" height="1.025" fill="#262c32" />
<rect x="18.450" y="0.000" width="1.025" height="1.025" fill="#000000" />
<rect x="6.150" y="1.025" width="1.025" height="1.025" fill="#000000" />
<rect x="7.175" y="1.025" width="1.025" height="1.025" fill="#000000" />
<rect x="8.200" y="1.025" width="1.025" height="1.025" fill="#000000" />
<rect x="9.225" y="1.025" width="1.025" height="1.025" fill="#000000" />
<rect x="10.250" y="1.025" width="1.025" height="1.025" fill="#000000" />
<rect x="11.275" y="1.025" width="1.025" height="1.025" fill="#000000" />
<rect x="12.300" y="1.025" width="1.025" height="1.025" fill="#000000" />
<rect x="13.325" y="1.025" width="1.025" height="1.025" fill="#000000" />
<rect x="14.350" y="1.025" width="1.025" height="1.025" fill="#21262e" />
<rect x="15.375" y="1.025" width="1.025" height="1.025" fill="#11161e" />
<rect x="16.400" y="1.025" width="1.025" height="1.025" fill="#11161e" />
<rect x="17.425" y="1.025" width="1.025" height="1.025" fill="#555b62" />
<rect x="18.450" y="1.025" width="1.025" height="1.025" fill="#2e343a" />
<rect x="19.475" y="1.025" width="1.025" height="1.025" fill="#000000" />
<rect x="20.500" y="1.025" width="1.025" height="1.025" fill="#000000" />
<rect x="5.125" y="2.050" width="1.025" height="1.025" fill="#000000" />
<rect x="6.150" y="2.050" width="1.025" height="1.025" fill="#000000" />
<rect x="7.175" y="2.050" width="1.025" height="1.025" fill="#000000" />
<rect x="8.200" y="2.050" width="1.025" height="1.025" fill="#000000" />
<rect x="11.275" y="2.050" width="1.025" height="1.025" fill="#000000" />
<rect x="12.300" y="2.050" width="1.025" height="1.025" fill="#000000" />
<rect x="13.325" y="2.050" width="1.025" height="1.025" fill="#000000" />
<rect x="14.350" y="2.050" width="1.025" height="1.025" fill="#0b1118" />
<rect x="15.375" y="2.050" width="1.025" height="1.025" fill="#10141c" />
<rect x="16.400" y="2.050" width="1.025" height="1.025" fill="#10141c" />
<rect x="17.425" y="2.050" width="1.025" height="1.025" fill="#00060d" />
<rect x="18.450" y="2.050" width="1.025" height="1.025" fill="#343941" />
<rect x="19.475" y="2.050" width="1.025" height="1.025" fill="#272e34" />
<rect x="20.500" y="2.050" width="1.025" height="1.025" fill="#272e34" />
<rect x="21.525" y="2.050" width="1.025" height="1.025" fill="#000000" />
<rect x="4.100" y="3.075" width="1.025" height="1.025" fill="#000000" />
<rect x="5.125" y="3.075" width="1.025" height="1.025" fill="#000006" />
<rect x="6.150" y="3.075" width="1.025" height="1.025" fill="#000006" />
<rect x="7.175" y="3.075" width="1.025" height="1.025" fill="#000000" />
<rect x="13.325" y="3.075" width="1.025" height="1.025" fill="#000000" />
<rect x="14.350" y="3.075" width="1.025" height="1.025" fill="#000000" />
<rect x="15.375" y="3.075" width="1.025" height="1.025" fill="#2c3239" />
<rect x="16.400" y="3.075" width="1.025" height="1.025" fill="#2c3239" />
<rect x="17.425" y="3.075" width="1.025" height="1.025" fill="#21272e" />
<rect x="18.450" y="3.075" width="1.025" height="1.025" fill="#0b1118" />
<rect x="19.475" y="3.075" width="1.025" height="1.025" fill="#13191f" />
<rect x="20.500" y="3.075" width="1.025" height="1.025" fill="#13191f" />
<rect x="21.525" y="3.075" width="1.025" height="1.025" fill="#000309" />
<rect x="22.550" y="3.075" width="1.025" height="1.025" fill="#000000" />
<rect x="5.125" y="4.100" width="1.025" height="1.025" fill="#000000" />
<rect x="6.150" y="4.100" width="1.025" height="1.025" fill="#000000" />
<rect x="13.325" y="4.100" width="1.025" height="1.025" fill="#000000" />
<rect x="14.350" y="4.100" width="1.025" height="1.025" fill="#000000" />
<rect x="15.375" y="4.100" width="1.025" height="1.025" fill="#0e141b" />
<rect x="16.400" y="4.100" width="1.025" height="1.025" fill="#0e141b" />
<rect x="17.425" y="4.100" width="1.025" height="1.025" fill="#030810" />
<rect x="18.450" y="4.100" width="1.025" height="1.025" fill="#363c42" />
<rect x="19.475" y="4.100" width="1.025" height="1.025" fill="#050b11" />
<rect x="20.500" y="4.100" width="1.025" height="1.025" fill="#050b11" />
<rect x="21.525" y="4.100" width="1.025" height="1.025" fill="#091016" />
<rect x="22.550" y="4.100" width="1.025" height="1.025" fill="#323941" />
<rect x="23.575" y="4.100" width="1.025" height="1.025" fill="#000000" />
<rect x="13.325" y="5.125" width="1.025" height="1.025" fill="#000000" />
<rect x="14.350" y="5.125" width="1.025" height="1.025" fill="#000000" />
<rect x="15.375" y="5.125" width="1.025" height="1.025" fill="#10141c" />
<rect x="16.400" y="5.125" width="1.025" height="1.025" fill="#10141c" />
<rect x="17.425" y="5.125" width="1.025" height="1.025" fill="#181e24" />
<rect x="18.450" y="5.125" width="1.025" height="1.025" fill="#23292f" />
<rect x="19.475" y="5.125" width="1.025" height="1.025" fill="#4d535a" />
<rect x="20.500" y="5.125" width="1.025" height="1.025" fill="#4d535a" />
<rect x="21.525" y="5.125" width="1.025" height="1.025" fill="#242b31" />
<rect x="22.550" y="5.125" width="1.025" height="1.025" fill="#141b21" />
<rect x="23.575" y="5.125" width="1.025" height="1.025" fill="#000000" />
<rect x="12.300" y="6.150" width="1.025" height="1.025" fill="#000000" />
<rect x="13.325" y="6.150" width="1.025" height="1.025" fill="#000000" />
<rect x="14.350" y="6.150" width="1.025" height="1.025" fill="#000000" />
<rect x="15.375" y="6.150" width="1.025" height="1.025" fill="#000000" />
<rect x="16.400" y="6.150" width="1.025" height="1.025" fill="#000000" />
<rect x="17.425" y="6.150" width="1.025" height="1.025" fill="#242b31" />
<rect x="18.450" y="6.150" width="1.025" height="1.025" fill="#42484f" />
<rect x="19.475" y="6.150" width="1.025" height="1.025" fill="#32393f" />
<rect x="20.500" y="6.150" width="1.025" height="1.025" fill="#32393f" />
<rect x="21.525" y="6.150" width="1.025" height="1.025" fill="#535a60" />
<rect x="22.550" y="6.150" width="1.025" height="1.025" fill="#2f363c" />
<rect x="23.575" y="6.150" width="1.025" height="1.025" fill="#000000" />
<rect x="24.600" y="6.150" width="1.025" height="1.025" fill="#000000" />
<rect x="11.275" y="7.175" width="1.025" height="1.025" fill="#000000" />
<rect x="12.300" y="7.175" width="1.025" height="1.025" fill="#000000" />
<rect x="13.325" y="7.175" width="1.025" height="1.025" fill="#000000" />
<rect x="14.350" y="7.175" width="1.025" height="1.025" fill="#000000" />
<rect x="15.375" y="7.175" width="1.025" height="1.025" fill="#0e141b" />
<rect x="16.400" y="7.175" width="1.025" height="1.025" fill="#0e141b" />
<rect x="17.425" y="7.175" width="1.025" height="1.025" fill="#1b2127" />
<rect x="18.450" y="7.175" width="1.025" height="1.025" fill="#31373d" />
<rect x="19.475" y="7.175" width="1.025" height="1.025" fill="#242b31" />
<rect x="20.500" y="7.175" width="1.025" height="1.025" fill="#242b31" />
<rect x="21.525" y="7.175" width="1.025" height="1.025" fill="#0e141b" />
<rect x="22.550" y="7.175" width="1.025" height="1.025" fill="#0e141b" />
<rect x="23.575" y="7.175" width="1.025" height="1.025" fill="#3c4248" />
<rect x="24.600" y="7.175" width="1.025" height="1.025" fill="#000000" />
<rect x="25.625" y="7.175" width="1.025" height="1.025" fill="#000000" />
<rect x="10.250" y="8.200" width="1.025" height="1.025" fill="#000000" />
<rect x="11.275" y="8.200" width="1.025" height="1.025" fill="#000000" />
<rect x="12.300" y="8.200" width="1.025" height="1.025" fill="#000000" />
<rect x="13.325" y="8.200" width="1.025" height="1.025" fill="#000000" />
<rect x="14.350" y="8.200" width="1.025" height="1.025" fill="#000000" />
<rect x="15.375" y="8.200" width="1.025" height="1.025" fill="#000000" />
<rect x="16.400" y="8.200" width="1.025" height="1.025" fill="#000000" />
<rect x="17.425" y="8.200" width="1.025" height="1.025" fill="#000000" />
<rect x="18.450" y="8.200" width="1.025" height="1.025" fill="#1f262e" />
<rect x="19.475" y="8.200" width="1.025" height="1.025" fill="#373d45" />
<rect x="20.500" y="8.200" width="1.025" height="1.025" fill="#373d45" />
<rect x="21.525" y="8.200" width="1.025" height="1.025" fill="#262c32" />
<rect x="22.550" y="8.200" width="1.025" height="1.025" fill="#191f27" />
<rect x="23.575" y="8.200" width="1.025" height="1.025" fill="#32393f" />
<rect x="24.600" y="8.200" width="1.025" height="1.025" fill="#343a41" />
<rect x="25.625" y="8.200" width="1.025" height="1.025" fill="#343a41" />
<rect x="26.650" y="8.200" width="1.025" height="1.025" fill="#000000" />
<rect x="27.675" y="8.200" width="1.025" height="1.025" fill="#000000" />
<rect x="28.700" y="8.200" width="1.025" height="1.025" fill="#000000" />
<rect x="29.725" y="8.200" width="1.025" height="1.025" fill="#000000" />
<rect x="9.225" y="9.225" width="1.025" height="1.025" fill="#000000" />
<rect x="10.250" y="9.225" width="1.025" height="1.025" fill="#000000" />
<rect x="11.275" y="9.225" width="1.025" height="1.025" fill="#000000" />
<rect x="12.300" y="9.225" width="1.025" height="1.025" fill="#000000" />
<rect x="13.325" y="9.225" width="1.025" height="1.025" fill="#000000" />
<rect x="14.350" y="9.225" width="1.025" height="1.025" fill="#000000" />
<rect x="15.375" y="9.225" width="1.025" height="1.025" fill="#000000" />
<rect x="16.400" y="9.225" width="1.025" height="1.025" fill="#000000" />
<rect x="17.425" y="9.225" width="1.025" height="1.025" fill="#0b0e14" />
<rect x="18.450" y="9.225" width="1.025" height="1.025" fill="#000000" />
<rect x="19.475" y="9.225" width="1.025" height="1.025" fill="#000003" />
<rect x="20.500" y="9.225" width="1.025" height="1.025" fill="#000003" />
<rect x="21.525" y="9.225" width="1.025" height="1.025" fill="#000000" />
<rect x="22.550" y="9.225" width="1.025" height="1.025" fill="#000000" />
<rect x="23.575" y="9.225" width="1.025" height="1.025" fill="#000006" />
<rect x="24.600" y="9.225" width="1.025" height="1.025" fill="#000000" />
<rect x="25.625" y="9.225" width="1.025" height="1.025" fill="#000000" />
<rect x="26.650" y="9.225" width="1.025" height="1.025" fill="#000000" />
<rect x="27.675" y="9.225" width="1.025" height="1.025" fill="#000002" />
<rect x="28.700" y="9.225" width="1.025" height="1.025" fill="#000003" />
<rect x="29.725" y="9.225" width="1.025" height="1.025" fill="#000003" />
<rect x="30.750" y="9.225" width="1.025" height="1.025" fill="#000003" />
<rect x="31.775" y="9.225" width="1.025" height="1.025" fill="#000003" />
<rect x="32.800" y="9.225" width="1.025" height="1.025" fill="#000000" />
<rect x="7.175" y="10.250" width="1.025" height="1.025" fill="#000000" />
<rect x="8.200" y="10.250" width="1.025" height="1.025" fill="#000000" />
<rect x="9.225" y="10.250" width="1.025" height="1.025" fill="#000000" />
<rect x="10.250" y="10.250" width="1.025" height="1.025" fill="#000000" />
<rect x="11.275" y="10.250" width="1.025" height="1.025" fill="#000000" />
<rect x="12.300" y="10.250" width="1.025" height="1.025" fill="#060910" />
<rect x="13.325" y="10.250" width="1.025" height="1.025" fill="#000309" />
<rect x="14.350" y="10.250" width="1.025" height="1.025" fill="#000000" />
<rect x="15.375" y="10.250" width="1.025" height="1.025" fill="#000000" />
<rect x="16.400" y="10.250" width="1.025" height="1.025" fill="#000000" />
<rect x="25.625" y="10.250" width="1.025" height="1.025" fill="#000000" />
<rect x="26.650" y="10.250" width="1.025" height="1.025" fill="#000000" />
<rect x="27.675" y="10.250" width="1.025" height="1.025" fill="#000000" />
<rect x="28.700" y="10.250" width="1.025" height="1.025" fill="#000000" />
<rect x="29.725" y="10.250" width="1.025" height="1.025" fill="#000000" />
<rect x="30.750" y="10.250" width="1.025" height="1.025" fill="#000000" />
<rect x="31.775" y="10.250" width="1.025" height="1.025" fill="#000000" />
<rect x="5.125" y="11.275" width="1.025" height="1.025" fill="#000000" />
<rect x="6.150" y="11.275" width="1.025" height="1.025" fill="#000005" />
<rect x="7.175" y="11.275" width="1.025" height="1.025" fill="#000000" />
<rect x="8.200" y="11.275" width="1.025" height="1.025" fill="#000000" />
<rect x="9.225" y="11.275" width="1.025" height="1.025" fill="#000000" />
<rect x="10.250" y="11.275" width="1.025" height="1.025" fill="#000000" />
<rect x="11.275" y="11.275" width="1.025" height="1.025" fill="#000000" />
<rect x="12.300" y="11.275" width="1.025" height="1.025" fill="#000000" />
<rect x="13.325" y="11.275" width="1.025" height="1.025" fill="#000000" />
<rect x="14.350" y="11.275" width="1.025" height="1.025" fill="#000000" />
<rect x="6.150" y="12.300" width="1.025" height="1.025" fill="#000000" />
<rect x="7.175" y="12.300" width="1.025" height="1.025" fill="#000000" />
<rect x="8.200" y="12.300" width="1.025" height="1.025" fill="#000000" />
<rect x="9.225" y="12.300" width="1.025" height="1.025" fill="#000000" />
<rect x="10.250" y="12.300" width="1.025" height="1.025" fill="#000000" />
<rect x="11.275" y="12.300" width="1.025" height="1.025" fill="#000000" />
</svg>