<svg xmlns="http://www.w3.org/2000/svg" width="37.925" height="37.925" shape-rendering="crispEdges" style="image-rendering: pixelated;">
<rect x="15.375" y="6.150" width="1.025" height="1.025" fill="#000000" />
<rect x="16.400" y="6.150" width="1.025" height="1.025" fill="#000000" />
<rect x="17.425" y="6.150" width="1.025" height="1.025" fill="#000000" />
<rect x="18.450" y="6.150" width="1.025" height="1.025" fill="#000000" />
<rect x="19.475" y="6.150" width="1.025" height="1.025" fill="#000000" />
<rect x="20.500" y="6.150" width="1.025" height="1.025" fill="#000000" />
<rect x="21.525" y="6.150" width="1.025" height="1.025" fill="#000000" />
<rect x="22.550" y="6.150" width="1.025" height="1.025" fill="#000000" />
<rect x="14.350" y="7.175" width="1.025" height="1.025" fill="#000000" />
<rect x="15.375" y="7.175" width="1.025" height="1.025" fill="#00bf00" />
<rect x="16.400" y="7.175" width="1.025" height="1.025" fill="#00d10e" />
<rect x="17.425" y="7.175" width="1.025" height="1.025" fill="#00d71b" />
<rect x="18.450" y="7.175" width="1.025" height="1.025" fill="#00d614" />
<rect x="19.475" y="7.175" width="1.025" height="1.025" fill="#00d414" />
<rect x="20.500" y="7.175" width="1.025" height="1.025" fill="#00d414" />
<rect x="21.525" y="7.175" width="1.025" height="1.025" fill="#00d518" />
<rect x="22.550" y="7.175" width="1.025" height="1.025" fill="#00ba04" />
<rect x="23.575" y="7.175" width="1.025" height="1.025" fill="#000000" />
<rect x="14.350" y="8.200" width="1.025" height="1.025" fill="#000000" />
<rect x="15.375" y="8.200" width="1.025" height="1.025" fill="#00e509" />
<rect x="16.400" y="8.200" width="1.025" height="1.025" fill="#00ee24" />
<rect x="17.425" y="8.200" width="1.025" height="1.025" fill="#05ff44" />
<rect x="18.450" y="8.200" width="1.025" height="1.025" fill="#00fc4c" />
<rect x="19.475" y="8.200" width="1.025" height="1.025" fill="#00fc4c" />
<rect x="20.500" y="8.200" width="1.025" height="1.025" fill="#02ff4d" />
<rect x="21.525" y="8.200" width="1.025" height="1.025" fill="#00fe3f" />
<rect x="22.550" y="8.200" width="1.025" height="1.025" fill="#00f538" />
<rect x="23.575" y="8.200" width="1.025" height="1.025" fill="#08c700" />
<rect x="24.600" y="8.200" width="1.025" height="1.025" fill="#000000" />
<rect x="14.350" y="9.225" width="1.025" height="1.025" fill="#000000" />
<rect x="15.375" y="9.225" width="1.025" height="1.025" fill="#00e003" />
<rect x="16.400" y="9.225" width="1.025" height="1.025" fill="#05ff2e" />
<rect x="17.425" y="9.225" width="1.025" height="1.025" fill="#08ff37" />
<rect x="18.450" y="9.225" width="1.025" height="1.025" fill="#0ec638" />
<rect x="19.475" y="9.225" width="1.025" height="1.025" fill="#14ff5a" />
<rect x="20.500" y="9.225" width="1.025" height="1.025" fill="#0cff2d" />
<rect x="21.525" y="9.225" width="1.025" height="1.025" fill="#08ff2f" />
<rect x="22.550" y="9.225" width="1.025" height="1.025" fill="#04ff2b" />
<rect x="23.575" y="9.225" width="1.025" height="1.025" fill="#00d505" />
<rect x="24.600" y="9.225" width="1.025" height="1.025" fill="#000000" />
<rect x="14.350" y="10.250" width="1.025" height="1.025" fill="#000000" />
<rect x="15.375" y="10.250" width="1.025" height="1.025" fill="#03e000" />
<rect x="16.400" y="10.250" width="1.025" height="1.025" fill="#02ff2d" />
<rect x="17.425" y="10.250" width="1.025" height="1.025" fill="#0a8314" />
<rect x="18.450" y="10.250" width="1.025" height="1.025" fill="#08ff3b" />
<rect x="19.475" y="10.250" width="1.025" height="1.025" fill="#0bff40" />
<rect x="20.500" y="10.250" width="1.025" height="1.025" fill="#09ff3a" />
<rect x="21.525" y="10.250" width="1.025" height="1.025" fill="#00fe18" />
<rect x="22.550" y="10.250" width="1.025" height="1.025" fill="#00ff1a" />
<rect x="23.575" y="10.250" width="1.025" height="1.025" fill="#00cd01" />
<rect x="24.600" y="10.250" width="1.025" height="1.025" fill="#000000" />
<rect x="14.350" y="11.275" width="1.025" height="1.025" fill="#000000" />
<rect x="15.375" y="11.275" width="1.025" height="1.025" fill="#0dd900" />
<rect x="16.400" y="11.275" width="1.025" height="1.025" fill="#00f60e" />
<rect x="17.425" y="11.275" width="1.025" height="1.025" fill="#0fff52" />
<rect x="18.450" y="11.275" width="1.025" height="1.025" fill="#0ec63c" />
<rect x="19.475" y="11.275" width="1.025" height="1.025" fill="#0fff56" />
<rect x="20.500" y="11.275" width="1.025" height="1.025" fill="#0bff40" />
<rect x="21.525" y="11.275" width="1.025" height="1.025" fill="#01ff20" />
<rect x="22.550" y="11.275" width="1.025" height="1.025" fill="#06ff3a" />
<rect x="23.575" y="11.275" width="1.025" height="1.025" fill="#00d504" />
<rect x="24.600" y="11.275" width="1.025" height="1.025" fill="#000000" />
<rect x="14.350" y="12.300" width="1.025" height="1.025" fill="#000000" />
<rect x="15.375" y="12.300" width="1.025" height="1.025" fill="#09d800" />
<rect x="16.400" y="12.300" width="1.025" height="1.025" fill="#00dc00" />
<rect x="17.425" y="12.300" width="1.025" height="1.025" fill="#06ce00" />
<rect x="18.450" y="12.300" width="1.025" height="1.025" fill="#09d400" />
<rect x="19.475" y="12.300" width="1.025" height="1.025" fill="#0ed400" />
<rect x="20.500" y="12.300" width="1.025" height="1.025" fill="#00ec12" />
<rect x="21.525" y="12.300" width="1.025" height="1.025" fill="#00f515" />
<rect x="22.550" y="12.300" width="1.025" height="1.025" fill="#00e710" />
<rect x="23.575" y="12.300" width="1.025" height="1.025" fill="#09d600" />
<rect x="24.600" y="12.300" width="1.025" height="1.025" fill="#000000" />
<rect x="14.350" y="13.325" width="1.025" height="1.025" fill="#000000" />
<rect x="15.375" y="13.325" width="1.025" height="1.025" fill="#06dd00" />
<rect x="16.400" y="13.325" width="1.025" height="1.025" fill="#0fa900" />
<rect x="17.425" y="13.325" width="1.025" height="1.025" fill="#083300" />
<rect x="18.450" y="13.325" width="1.025" height="1.025" fill="#0d3b00" />
<rect x="19.475" y="13.325" width="1.025" height="1.025" fill="#136500" />
<rect x="20.500" y="13.325" width="1.025" height="1.025" fill="#109d00" />
<rect x="21.525" y="13.325" width="1.025" height="1.025" fill="#08a900" />
<rect x="22.550" y="13.325" width="1.025" height="1.025" fill="#083300" />
<rect x="23.575" y="13.325" width="1.025" height="1.025" fill="#0d3b00" />
<rect x="24.600" y="13.325" width="1.025" height="1.025" fill="#000000" />
<rect x="14.350" y="14.350" width="1.025" height="1.025" fill="#000000" />
<rect x="15.375" y="14.350" width="1.025" height="1.025" fill="#0bda00" />
<rect x="16.400" y="14.350" width="1.025" height="1.025" fill="#00c50e" />
<rect x="17.425" y="14.350" width="1.025" height="1.025" fill="#000000" />
<rect x="19.475" y="14.350" width="1.025" height="1.025" fill="#0abb00" />
<rect x="20.500" y="14.350" width="1.025" height="1.025" fill="#128f00" />
<rect x="21.525" y="14.350" width="1.025" height="1.025" fill="#00bd03" />
<rect x="22.550" y="14.350" width="1.025" height="1.025" fill="#000000" />
<rect x="24.600" y="14.350" width="1.025" height="1.025" fill="#000000" />
<rect x="14.350" y="15.375" width="1.025" height="1.025" fill="#000000" />
<rect x="15.375" y="15.375" width="1.025" height="1.025" fill="#08cc00" />
<rect x="16.400" y="15.375" width="1.025" height="1.025" fill="#08ff3b" />
<rect x="17.425" y="15.375" width="1.025" height="1.025" fill="#12ff5e" />
<rect x="18.450" y="15.375" width="1.025" height="1.025" fill="#00ff4c" />
<rect x="19.475" y="15.375" width="1.025" height="1.025" fill="#00ff16" />
<rect x="20.500" y="15.375" width="1.025" height="1.025" fill="#00de05" />
<rect x="21.525" y="15.375" width="1.025" height="1.025" fill="#127a02" />
<rect x="22.550" y="15.375" width="1.025" height="1.025" fill="#08cd18" />
<rect x="23.575" y="15.375" width="1.025" height="1.025" fill="#136500" />
<rect x="24.600" y="15.375" width="1.025" height="1.025" fill="#000000" />
<rect x="14.350" y="16.400" width="1.025" height="1.025" fill="#000000" />
<rect x="15.375" y="16.400" width="1.025" height="1.025" fill="#13ac00" />
<rect x="16.400" y="16.400" width="1.025" height="1.025" fill="#05e100" />
<rect x="17.425" y="16.400" width="1.025" height="1.025" fill="#0cff3e" />
<rect x="18.450" y="16.400" width="1.025" height="1.025" fill="#0fff5b" />
<rect x="19.475" y="16.400" width="1.025" height="1.025" fill="#00ee1e" />
<rect x="20.500" y="16.400" width="1.025" height="1.025" fill="#0b4300" />
<rect x="21.525" y="16.400" width="1.025" height="1.025" fill="#01e400" />
<rect x="22.550" y="16.400" width="1.025" height="1.025" fill="#01e400" />
<rect x="23.575" y="16.400" width="1.025" height="1.025" fill="#01e400" />
<rect x="24.600" y="16.400" width="1.025" height="1.025" fill="#136500" />
<rect x="14.350" y="17.425" width="1.025" height="1.025" fill="#000000" />
<rect x="15.375" y="17.425" width="1.025" height="1.025" fill="#188800" />
<rect x="16.400" y="17.425" width="1.025" height="1.025" fill="#11bb00" />
<rect x="17.425" y="17.425" width="1.025" height="1.025" fill="#00e502" />
<rect x="18.450" y="17.425" width="1.025" height="1.025" fill="#06ff3d" />
<rect x="19.475" y="17.425" width="1.025" height="1.025" fill="#00fd38" />
<rect x="20.500" y="17.425" width="1.025" height="1.025" fill="#0e5600" />
<rect x="21.525" y="17.425" width="1.025" height="1.025" fill="#01e400" />
<rect x="22.550" y="17.425" width="1.025" height="1.025" fill="#0a4a01" />
<rect x="23.575" y="17.425" width="1.025" height="1.025" fill="#00eb1c" />
<rect x="24.600" y="17.425" width="1.025" height="1.025" fill="#01e400" />
<rect x="25.625" y="17.425" width="1.025" height="1.025" fill="#147400" />
<rect x="14.350" y="18.450" width="1.025" height="1.025" fill="#000000" />
<rect x="15.375" y="18.450" width="1.025" height="1.025" fill="#1c8d00" />
<rect x="16.400" y="18.450" width="1.025" height="1.025" fill="#18a400" />
<rect x="17.425" y="18.450" width="1.025" height="1.025" fill="#08d200" />
<rect x="18.450" y="18.450" width="1.025" height="1.025" fill="#00f815" />
<rect x="19.475" y="18.450" width="1.025" height="1.025" fill="#0fff5b" />
<rect x="20.500" y="18.450" width="1.025" height="1.025" fill="#00eb1c" />
<rect x="21.525" y="18.450" width="1.025" height="1.025" fill="#0a5f00" />
<rect x="22.550" y="18.450" width="1.025" height="1.025" fill="#08be12" />
<rect x="23.575" y="18.450" width="1.025" height="1.025" fill="#0c5a00" />
<rect x="24.600" y="18.450" width="1.025" height="1.025" fill="#06cc14" />
<rect x="25.625" y="18.450" width="1.025" height="1.025" fill="#01e400" />
<rect x="26.650" y="18.450" width="1.025" height="1.025" fill="#147400" />
<rect x="14.350" y="19.475" width="1.025" height="1.025" fill="#000000" />
<rect x="15.375" y="19.475" width="1.025" height="1.025" fill="#168700" />
<rect x="16.400" y="19.475" width="1.025" height="1.025" fill="#149e00" />
<rect x="17.425" y="19.475" width="1.025" height="1.025" fill="#0fcd00" />
<rect x="18.450" y="19.475" width="1.025" height="1.025" fill="#00d603" />
<rect x="19.475" y="19.475" width="1.025" height="1.025" fill="#00f815" />
<rect x="20.500" y="19.475" width="1.025" height="1.025" fill="#06ff3a" />
<rect x="21.525" y="19.475" width="1.025" height="1.025" fill="#00f222" />
<rect x="22.550" y="19.475" width="1.025" height="1.025" fill="#00e512" />
<rect x="23.575" y="19.475" width="1.025" height="1.025" fill="#04d211" />
<rect x="24.600" y="19.475" width="1.025" height="1.025" fill="#034408" />
<rect x="25.625" y="19.475" width="1.025" height="1.025" fill="#06cc14" />
<rect x="26.650" y="19.475" width="1.025" height="1.025" fill="#0bb200" />
<rect x="14.350" y="20.500" width="1.025" height="1.025" fill="#000000" />
<rect x="15.375" y="20.500" width="1.025" height="1.025" fill="#176e00" />
<rect x="16.400" y="20.500" width="1.025" height="1.025" fill="#16a400" />
<rect x="17.425" y="20.500" width="1.025" height="1.025" fill="#11bc00" />
<rect x="18.450" y="20.500" width="1.025" height="1.025" fill="#09bb00" />
<rect x="19.475" y="20.500" width="1.025" height="1.025" fill="#000000" />
<rect x="20.500" y="20.500" width="1.025" height="1.025" fill="#000000" />
<rect x="21.525" y="20.500" width="1.025" height="1.025" fill="#000000" />
<rect x="22.550" y="20.500" width="1.025" height="1.025" fill="#000000" />
<rect x="23.575" y="20.500" width="1.025" height="1.025" fill="#0ca800" />
<rect x="24.600" y="20.500" width="1.025" height="1.025" fill="#000000" />
<rect x="15.375" y="21.525" width="1.025" height="1.025" fill="#000000" />
<rect x="16.400" y="21.525" width="1.025" height="1.025" fill="#158300" />
<rect x="17.425" y="21.525" width="1.025" height="1.025" fill="#17b700" />
<rect x="18.450" y="21.525" width="1.025" height="1.025" fill="#06dd00" />
<rect x="19.475" y="21.525" width="1.025" height="1.025" fill="#00f521" />
<rect x="20.500" y="21.525" width="1.025" height="1.025" fill="#00f92c" />
<rect x="21.525" y="21.525" width="1.025" height="1.025" fill="#00f317" />
<rect x="22.550" y="21.525" width="1.025" height="1.025" fill="#00e907" />
<rect x="23.575" y="21.525" width="1.025" height="1.025" fill="#0ca600" />
<rect x="24.600" y="21.525" width="1.025" height="1.025" fill="#000000" />
<rect x="15.375" y="22.550" width="1.025" height="1.025" fill="#000000" />
<rect x="16.400" y="22.550" width="1.025" height="1.025" fill="#0b2e00" />
<rect x="17.425" y="22.550" width="1.025" height="1.025" fill="#189400" />
<rect x="18.450" y="22.550" width="1.025" height="1.025" fill="#0fd500" />
<rect x="19.475" y="22.550" width="1.025" height="1.025" fill="#00ee0a" />
<rect x="20.500" y="22.550" width="1.025" height="1.025" fill="#09ff53" />
<rect x="21.525" y="22.550" width="1.025" height="1.025" fill="#0dff59" />
<rect x="22.550" y="22.550" width="1.025" height="1.025" fill="#00fb1a" />
<rect x="23.575" y="22.550" width="1.025" height="1.025" fill="#0d7b00" />
<rect x="24.600" y="22.550" width="1.025" height="1.025" fill="#000000" />
<rect x="16.400" y="23.575" width="1.025" height="1.025" fill="#000000" />
<rect x="17.425" y="23.575" width="1.025" height="1.025" fill="#0a2f00" />
<rect x="18.450" y="23.575" width="1.025" height="1.025" fill="#0e7d00" />
<rect x="19.475" y="23.575" width="1.025" height="1.025" fill="#049700" />
<rect x="20.500" y="23.575" width="1.025" height="1.025" fill="#00cd16" />
<rect x="21.525" y="23.575" width="1.025" height="1.025" fill="#00cd16" />
<rect x="22.550" y="23.575" width="1.025" height="1.025" fill="#059100" />
<rect x="23.575" y="23.575" width="1.025" height="1.025" fill="#000000" />
<rect x="17.425" y="24.600" width="1.025" height="1.025" fill="#000000" fill-opacity="0.400" />
<rect x="18.450" y="24.600" width="1.025" height="1.025" fill="#000000" fill-opacity="0.400" />
<rect x="19.475" y="24.600" width="1.025" height="1.025" fill="#000000" fill-opacity="0.400" />
</svg>