<svg xmlns="http://www.w3.org/2000/svg" width="37.925" height="37.925" shape-rendering="crispEdges" style="image-rendering: pixelated;">
<rect x="13.325" y="14.350" width="1.025" height="1.025" fill="#2a2017" />
<rect x="13.325" y="15.375" width="1.025" height="1.025" fill="#423528" />
<rect x="14.350" y="15.375" width="1.025" height="1.025" fill="#645340" />
<rect x="19.475" y="15.375" width="1.025" height="1.025" fill="#73634b" />
<rect x="20.500" y="15.375" width="1.025" height="1.025" fill="#aea487" />
<rect x="21.525" y="15.375" width="1.025" height="1.025" fill="#715e49" />
<rect x="13.325" y="16.400" width="1.025" height="1.025" fill="#514332" />
<rect x="14.350" y="16.400" width="1.025" height="1.025" fill="#47392b" />
<rect x="15.375" y="16.400" width="1.025" height="1.025" fill="#6a5946" />
<rect x="16.400" y="16.400" width="1.025" height="1.025" fill="#8d7760" />
<rect x="17.425" y="16.400" width="1.025" height="1.025" fill="#7d6952" />
<rect x="18.450" y="16.400" width="1.025" height="1.025" fill="#665640" />
<rect x="19.475" y="16.400" width="1.025" height="1.025" fill="#bbad85" />
<rect x="20.500" y="16.400" width="1.025" height="1.025" fill="#af8f72" />
<rect x="21.525" y="16.400" width="1.025" height="1.025" fill="#988065" />
<rect x="22.550" y="16.400" width="1.025" height="1.025" fill="#695642" />
<rect x="23.575" y="16.400" width="1.025" height="1.025" fill="#554533" />
<rect x="13.325" y="17.425" width="1.025" height="1.025" fill="#5b4d37" />
<rect x="14.350" y="17.425" width="1.025" height="1.025" fill="#63553c" />
<rect x="15.375" y="17.425" width="1.025" height="1.025" fill="#ac9a7f" />
<rect x="16.400" y="17.425" width="1.025" height="1.025" fill="#9a8d66" />
<rect x="17.425" y="17.425" width="1.025" height="1.025" fill="#bbac85" />
<rect x="18.450" y="17.425" width="1.025" height="1.025" fill="#bbac83" />
<rect x="19.475" y="17.425" width="1.025" height="1.025" fill="#877057" />
<rect x="20.500" y="17.425" width="1.025" height="1.025" fill="#a5946d" />
<rect x="21.525" y="17.425" width="1.025" height="1.025" fill="#69523c" />
<rect x="22.550" y="17.425" width="1.025" height="1.025" fill="#8e795f" />
<rect x="23.575" y="17.425" width="1.025" height="1.025" fill="#9a8d66" />
<rect x="24.600" y="17.425" width="1.025" height="1.025" fill="#554533" />
<rect x="14.350" y="18.450" width="1.025" height="1.025" fill="#63553c" />
<rect x="15.375" y="18.450" width="1.025" height="1.025" fill="#9a8d66" />
<rect x="16.400" y="18.450" width="1.025" height="1.025" fill="#ac9e82" />
<rect x="17.425" y="18.450" width="1.025" height="1.025" fill="#ad9d78" />
<rect x="18.450" y="18.450" width="1.025" height="1.025" fill="#bbac83" />
<rect x="19.475" y="18.450" width="1.025" height="1.025" fill="#bbac83" />
<rect x="20.500" y="18.450" width="1.025" height="1.025" fill="#a6996f" />
<rect x="21.525" y="18.450" width="1.025" height="1.025" fill="#c7b497" />
<rect x="22.550" y="18.450" width="1.025" height="1.025" fill="#a4876c" />
<rect x="23.575" y="18.450" width="1.025" height="1.025" fill="#8e795f" />
<rect x="24.600" y="18.450" width="1.025" height="1.025" fill="#564734" />
<rect x="14.350" y="19.475" width="1.025" height="1.025" fill="#5b513f" />
<rect x="15.375" y="19.475" width="1.025" height="1.025" fill="#9c8e67" />
<rect x="16.400" y="19.475" width="1.025" height="1.025" fill="#9a8d66" />
<rect x="17.425" y="19.475" width="1.025" height="1.025" fill="#9d8f6d" />
<rect x="18.450" y="19.475" width="1.025" height="1.025" fill="#e0ddd8" />
<rect x="19.475" y="19.475" width="1.025" height="1.025" fill="#9f8f6c" />
<rect x="20.500" y="19.475" width="1.025" height="1.025" fill="#e0ddd8" />
<rect x="21.525" y="19.475" width="1.025" height="1.025" fill="#af9f73" />
<rect x="22.550" y="19.475" width="1.025" height="1.025" fill="#e0ddd8" />
<rect x="23.575" y="19.475" width="1.025" height="1.025" fill="#8e795f" />
<rect x="24.600" y="19.475" width="1.025" height="1.025" fill="#554533" />
<rect x="15.375" y="20.500" width="1.025" height="1.025" fill="#ad9f84" />
<rect x="16.400" y="20.500" width="1.025" height="1.025" fill="#af9f73" />
<rect x="18.450" y="20.500" width="1.025" height="1.025" fill="#ffffff" />
<rect x="20.500" y="20.500" width="1.025" height="1.025" fill="#ffffff" />
<rect x="22.550" y="20.500" width="1.025" height="1.025" fill="#ffffff" />
<rect x="24.600" y="20.500" width="1.025" height="1.025" fill="#998666" />
<rect x="15.375" y="21.525" width="1.025" height="1.025" fill="#3b2c1d" />
<rect x="16.400" y="21.525" width="1.025" height="1.025" fill="#998875" />
<rect x="17.425" y="21.525" width="1.025" height="1.025" fill="#847756" />
<rect x="18.450" y="21.525" width="1.025" height="1.025" fill="#ffffff" />
<rect x="20.500" y="21.525" width="1.025" height="1.025" fill="#ffffff" />
<rect x="22.550" y="21.525" width="1.025" height="1.025" fill="#ffffff" />
<rect x="23.575" y="21.525" width="1.025" height="1.025" fill="#62513c" />
<rect x="24.600" y="21.525" width="1.025" height="1.025" fill="#4b3c2d" />
<rect x="16.400" y="22.550" width="1.025" height="1.025" fill="#4f442a" />
<rect x="17.425" y="22.550" width="1.025" height="1.025" fill="#61573a" />
<rect x="18.450" y="22.550" width="1.025" height="1.025" fill="#7d6a48" />
<rect x="19.475" y="22.550" width="1.025" height="1.025" fill="#8e7d65" />
<rect x="20.500" y="22.550" width="1.025" height="1.025" fill="#ffffff" />
<rect x="21.525" y="22.550" width="1.025" height="1.025" fill="#7a6a53" />
<rect x="22.550" y="22.550" width="1.025" height="1.025" fill="#635441" />
<rect x="23.575" y="22.550" width="1.025" height="1.025" fill="#8e7b5f" />
<rect x="24.600" y="22.550" width="1.025" height="1.025" fill="#524334" />
<rect x="17.425" y="23.575" width="1.025" height="1.025" fill="#382f22" />
<rect x="18.450" y="23.575" width="1.025" height="1.025" fill="#736651" />
<rect x="19.475" y="23.575" width="1.025" height="1.025" fill="#504331" />
<rect x="20.500" y="23.575" width="1.025" height="1.025" fill="#86745b" />
<rect x="21.525" y="23.575" width="1.025" height="1.025" fill="#504331" />
<rect x="22.550" y="23.575" width="1.025" height="1.025" fill="#8e795f" />
<rect x="23.575" y="23.575" width="1.025" height="1.025" fill="#534231" />
<rect x="18.450" y="24.600" width="1.025" height="1.025" fill="#241b13" />
<rect x="19.475" y="24.600" width="1.025" height="1.025" fill="#504331" />
<rect x="20.500" y="24.600" width="1.025" height="1.025" fill="#786750" />
<rect x="21.525" y="24.600" width="1.025" height="1.025" fill="#907c64" />
<rect x="22.550" y="24.600" width="1.025" height="1.025" fill="#564637" />
</svg>