<svg xmlns="http://www.w3.org/2000/svg" width="37.925" height="37.925" shape-rendering="crispEdges" style="image-rendering: pixelated;">
<rect x="35.875" y="15.375" width="1.025" height="1.025" fill="#00ff00" fill-opacity="0.702" />
<rect x="26.650" y="17.425" width="1.025" height="1.025" fill="#00ff00" fill-opacity="0.702" />
<rect x="29.725" y="17.425" width="1.025" height="1.025" fill="#c5ffc5" fill-opacity="0.910" />
<rect x="26.650" y="22.550" width="1.025" height="1.025" fill="#c5ffc5" fill-opacity="0.910" />
<rect x="25.625" y="23.575" width="1.025" height="1.025" fill="#009d3c" fill-opacity="0.973" />
<rect x="27.675" y="23.575" width="1.025" height="1.025" fill="#00ff00" fill-opacity="0.702" />
<rect x="26.650" y="24.600" width="1.025" height="1.025" fill="#00ae31" fill-opacity="0.910" />
<rect x="31.775" y="24.600" width="1.025" height="1.025" fill="#c5ffc5" fill-opacity="0.910" />
<rect x="30.750" y="25.625" width="1.025" height="1.025" fill="#009d3c" fill-opacity="0.973" />
<rect x="31.775" y="25.625" width="1.025" height="1.025" fill="#00ff00" fill-opacity="0.702" />
<rect x="32.800" y="25.625" width="1.025" height="1.025" fill="#00ff00" fill-opacity="0.702" />
<rect x="22.550" y="26.650" width="1.025" height="1.025" fill="#00ff00" fill-opacity="0.702" />
<rect x="31.775" y="26.650" width="1.025" height="1.025" fill="#00ae31" fill-opacity="0.910" />
<rect x="26.650" y="29.725" width="1.025" height="1.025" fill="#00ae31" fill-opacity="0.910" />
<rect x="27.675" y="29.725" width="1.025" height="1.025" fill="#00ff00" fill-opacity="0.702" />
<rect x="28.700" y="29.725" width="1.025" height="1.025" fill="#fafffa" fill-opacity="0.992" />
<rect x="26.650" y="30.750" width="1.025" height="1.025" fill="#00ae31" fill-opacity="0.910" />
<rect x="27.675" y="30.750" width="1.025" height="1.025" fill="#00ff00" fill-opacity="0.702" />
<rect x="28.700" y="30.750" width="1.025" height="1.025" fill="#00ff00" fill-opacity="0.702" />
<rect x="23.575" y="31.775" width="1.025" height="1.025" fill="#00983f" fill-opacity="0.992" />
<rect x="24.600" y="31.775" width="1.025" height="1.025" fill="#00ff00" fill-opacity="0.702" />
<rect x="25.625" y="31.775" width="1.025" height="1.025" fill="#00ff00" fill-opacity="0.702" />
<rect x="26.650" y="31.775" width="1.025" height="1.025" fill="#00ff00" fill-opacity="0.702" />
<rect x="27.675" y="31.775" width="1.025" height="1.025" fill="#009d3c" fill-opacity="0.973" />
<rect x="28.700" y="31.775" width="1.025" height="1.025" fill="#00ff00" fill-opacity="0.702" />
<rect x="29.725" y="31.775" width="1.025" height="1.025" fill="#00ff00" fill-opacity="0.702" />
<rect x="30.750" y="31.775" width="1.025" height="1.025" fill="#00ff00" fill-opacity="0.702" />
<rect x="31.775" y="31.775" width="1.025" height="1.025" fill="#00ff00" fill-opacity="0.702" />
<rect x="32.800" y="31.775" width="1.025" height="1.025" fill="#c5ffc5" fill-opacity="0.910" />
<rect x="22.550" y="32.800" width="1.025" height="1.025" fill="#555b62" />
<rect x="23.575" y="32.800" width="1.025" height="1.025" fill="#555b62" />
<rect x="24.600" y="32.800" width="1.025" height="1.025" fill="#4d535a" />
<rect x="25.625" y="32.800" width="1.025" height="1.025" fill="#4d535a" />
<rect x="26.650" y="32.800" width="1.025" height="1.025" fill="#4d535a" />
<rect x="27.675" y="32.800" width="1.025" height="1.025" fill="#32393f" />
<rect x="28.700" y="32.800" width="1.025" height="1.025" fill="#32393f" />
<rect x="29.725" y="32.800" width="1.025" height="1.025" fill="#32393f" />
<rect x="30.750" y="32.800" width="1.025" height="1.025" fill="#32393f" />
<rect x="31.775" y="32.800" width="1.025" height="1.025" fill="#000000" />
<rect x="32.800" y="32.800" width="1.025" height="1.025" fill="#000000" />
<rect x="33.825" y="32.800" width="1.025" height="1.025" fill="#000000" />
<rect x="21.525" y="33.825" width="1.025" height="1.025" fill="#555b62" />
<rect x="22.550" y="33.825" width="1.025" height="1.025" fill="#555b62" />
<rect x="23.575" y="33.825" width="1.025" height="1.025" fill="#4d535a" />
<rect x="24.600" y="33.825" width="1.025" height="1.025" fill="#4d535a" />
<rect x="25.625" y="33.825" width="1.025" height="1.025" fill="#4d535a" />
<rect x="26.650" y="33.825" width="1.025" height="1.025" fill="#32393f" />
<rect x="27.675" y="33.825" width="1.025" height="1.025" fill="#32393f" />
<rect x="28.700" y="33.825" width="1.025" height="1.025" fill="#32393f" />
<rect x="29.725" y="33.825" width="1.025" height="1.025" fill="#32393f" />
<rect x="30.750" y="33.825" width="1.025" height="1.025" fill="#000000" />
<rect x="31.775" y="33.825" width="1.025" height="1.025" fill="#000000" />
<rect x="32.800" y="33.825" width="1.025" height="1.025" fill="#000000" />
<rect x="33.825" y="33.825" width="1.025" height="1.025" fill="#000000" />
<rect x="34.850" y="33.825" width="1.025" height="1.025" fill="#000000" />
<rect x="22.550" y="34.850" width="1.025" height="1.025" fill="#3b4044" />
<rect x="23.575" y="34.850" width="1.025" height="1.025" fill="#3b4044" />
<rect x="24.600" y="34.850" width="1.025" height="1.025" fill="#363a3f" />
<rect x="25.625" y="34.850" width="1.025" height="1.025" fill="#363a3f" />
<rect x="26.650" y="34.850" width="1.025" height="1.025" fill="#363a3f" />
<rect x="27.675" y="34.850" width="1.025" height="1.025" fill="#23282c" />
<rect x="28.700" y="34.850" width="1.025" height="1.025" fill="#23282c" />
<rect x="29.725" y="34.850" width="1.025" height="1.025" fill="#23282c" />
<rect x="30.750" y="34.850" width="1.025" height="1.025" fill="#23282c" />
<rect x="31.775" y="34.850" width="1.025" height="1.025" fill="#000000" />
<rect x="32.800" y="34.850" width="1.025" height="1.025" fill="#000000" />
<rect x="33.825" y="34.850" width="1.025" height="1.025" fill="#000000" />
<rect x="21.525" y="35.875" width="1.025" height="1.025" fill="#555b62" />
<rect x="22.550" y="35.875" width="1.025" height="1.025" fill="#3b4044" />
<rect x="23.575" y="35.875" width="1.025" height="1.025" fill="#3b4044" />
<rect x="24.600" y="35.875" width="1.025" height="1.025" fill="#1b2022" />
<rect x="25.625" y="35.875" width="1.025" height="1.025" fill="#1b2022" />
<rect x="26.650" y="35.875" width="1.025" height="1.025" fill="#000000" />
<rect x="27.675" y="35.875" width="1.025" height="1.025" fill="#0e1012" />
<rect x="28.700" y="35.875" width="1.025" height="1.025" fill="#0e1012" />
<rect x="29.725" y="35.875" width="1.025" height="1.025" fill="#0e1012" />
<rect x="30.750" y="35.875" width="1.025" height="1.025" fill="#0e1012" />
<rect x="31.775" y="35.875" width="1.025" height="1.025" fill="#000000" />
<rect x="32.800" y="35.875" width="1.025" height="1.025" fill="#000000" />
<rect x="33.825" y="35.875" width="1.025" height="1.025" fill="#000000" />
<rect x="34.850" y="35.875" width="1.025" height="1.025" fill="#000000" />
<rect x="19.475" y="36.900" width="1.025" height="1.025" fill="#000000" fill-opacity="0.302" />
<rect x="20.500" y="36.900" width="1.025" height="1.025" fill="#555b62" />
<rect x="21.525" y="36.900" width="1.025" height="1.025" fill="#3b4044" />
<rect x="22.550" y="36.900" width="1.025" height="1.025" fill="#3b4044" />
<rect x="23.575" y="36.900" width="1.025" height="1.025" fill="#1b2022" />
<rect x="24.600" y="36.900" width="1.025" height="1.025" fill="#1b2022" />
<rect x="25.625" y="36.900" width="1.025" height="1.025" fill="#1b2022" />
<rect x="26.650" y="36.900" width="1.025" height="1.025" fill="#1b2022" />
<rect x="27.675" y="36.900" width="1.025" height="1.025" fill="#0e1012" />
<rect x="28.700" y="36.900" width="1.025" height="1.025" fill="#0e1012" />
<rect x="29.725" y="36.900" width="1.025" height="1.025" fill="#0e1012" />
<rect x="30.750" y="36.900" width="1.025" height="1.025" fill="#0e1012" />
<rect x="31.775" y="36.900" width="1.025" height="1.025" fill="#000000" />
<rect x="32.800" y="36.900" width="1.025" height="1.025" fill="#000000" />
<rect x="33.825" y="36.900" width="1.025" height="1.025" fill="#0e1012" />
<rect x="34.850" y="36.900" width="1.025" height="1.025" fill="#0e1012" />
<rect x="35.875" y="36.900" width="1.025" height="1.025" fill="#000000" />
</svg>