<svg xmlns="http://www.w3.org/2000/svg" width="37.925" height="37.925" shape-rendering="crispEdges" style="image-rendering: pixelated;">
<rect x="16.400" y="14.350" width="1.025" height="1.025" fill="#ff0000" />
<rect x="17.425" y="14.350" width="1.025" height="1.025" fill="#ff0000" />
<rect x="18.450" y="14.350" width="1.025" height="1.025" fill="#e30613" fill-opacity="0.976" />
<rect x="17.425" y="15.375" width="1.025" height="1.025" fill="#990034" />
<rect x="17.425" y="16.400" width="1.025" height="1.025" fill="#bc0051" />
<rect x="16.400" y="17.425" width="1.025" height="1.025" fill="#8c8c8c" fill-opacity="0.200" />
<rect x="17.425" y="17.425" width="1.025" height="1.025" fill="#e6007e" />
<rect x="17.425" y="18.450" width="1.025" height="1.025" fill="#f689b6" />
<rect x="18.450" y="18.450" width="1.025" height="1.025" fill="#fdf9fc" />
<rect x="16.400" y="19.475" width="1.025" height="1.025" fill="#ffdddd" />
<rect x="17.425" y="19.475" width="1.025" height="1.025" fill="#fffbfb" />
<rect x="18.450" y="19.475" width="1.025" height="1.025" fill="#ffffff" />
<rect x="19.475" y="19.475" width="1.025" height="1.025" fill="#ffffff" />
<rect x="16.400" y="20.500" width="1.025" height="1.025" fill="#fff5f5" />
<rect x="17.425" y="20.500" width="1.025" height="1.025" fill="#42d1f1" />
<rect x="18.450" y="20.500" width="1.025" height="1.025" fill="#22c7ee" />
<rect x="19.475" y="20.500" width="1.025" height="1.025" fill="#f9ffff" />
<rect x="17.425" y="21.525" width="1.025" height="1.025" fill="#1bb9ea" />
<rect x="18.450" y="21.525" width="1.025" height="1.025" fill="#0e0e0e" />
<rect x="17.425" y="22.550" width="1.025" height="1.025" fill="#8c8c8c" fill-opacity="0.675" />
<rect x="18.450" y="22.550" width="1.025" height="1.025" fill="#8c8c8c" fill-opacity="0.592" />
</svg>