<?xml version="1.0" encoding="UTF-8"?>
<svg id="Ebene_1" data-name="Ebene 1" xmlns="http://www.w3.org/2000/svg" viewBox="0 0 60 22.71">
  <defs>
    <style>
      .cls-1 {
        fill: red;
      }

      .cls-2 {
        fill: aqua;
      }
    </style>
  </defs>
  <g>
    <path d="M6,10.5v-4.5h-3v4.5H0V1.5h1.5V0h6v1.5h1.5v9h-3ZM6,4.5V1.5h-3v3h3Z"/>
    <path d="M18,9h-1.5v1.5h-6V0h6v1.5h1.5v1.5h1.5v4.5h-1.5v1.5ZM13.5,9h1.5v-1.5h1.5V3h-1.5v-1.5h-1.5v7.5Z"/>
    <path d="M21,10.5V0h7.5v1.5h1.5v3h-1.5v3h1.5v3h-3v-3h-1.5v-1.5h-1.5v4.5h-3ZM24,4.5h3V1.5h-3v3Z"/>
    <path d="M37.5,0v1.5h-1.5v7.5h1.5v1.5h-6v-1.5h1.5V1.5h-1.5V0h6Z"/>
    <path d="M45,10.5v-4.5h-3v4.5h-3V1.5h1.5V0h6v1.5h1.5v9h-3ZM45,4.5V1.5h-3v3h3Z"/>
    <path d="M54,6v-1.5h-1.5v6h-3V0h3v1.5h1.5v1.5h1.5v1.5h1.5V0h3v10.5h-3v-3h-1.5v-1.5h-1.5Z"/>
  </g>
  <g>
    <path class="cls-2" d="M0,12.25h1.53v10.47H0v-10.47Z"/>
    <path class="cls-1" d="M25.76,12.25h3.93c1,0,1.75.27,2.25.78.51.51.76,1.19.76,2.03,0,.43-.09.84-.3,1.23-.11.19-.26.36-.46.53-.2.18-.45.34-.74.48v.03c.55.15.97.45,1.25.9.26.46.4.97.4,1.51,0,.9-.28,1.62-.82,2.15-.53.55-1.2.83-2,.83h-4.27v-10.47ZM27.3,13.65v3.01h2.22c.56,0,.97-.15,1.24-.45.27-.28.4-.63.4-1.05s-.13-.78-.4-1.08c-.26-.27-.68-.42-1.24-.43h-2.22ZM27.3,18.07v3.15h2.37c.57,0,.99-.17,1.25-.48.26-.31.4-.67.4-1.09s-.13-.8-.4-1.11c-.26-.3-.68-.46-1.25-.47h-2.37Z"/>
    <path class="cls-1" d="M18.57,20.37h-3.84l-.78,2.34h-1.63l3.68-10.47h1.29l3.68,10.47h-1.62l-.79-2.34ZM18.13,18.97l-1.47-4.58h-.03l-1.47,4.58h2.96Z"/>
    <path d="M1.54,21.22h4.94v1.49H1.54v-1.49Z"/>
    <path d="M16.06,20.37h-3.84l-.78,2.34h-1.63l3.68-10.47h1.29l3.68,10.47h-1.62l-.79-2.34ZM15.62,18.97l-1.47-4.58h-.03l-1.47,4.58h2.96Z"/>
    <path d="M22.8,12.25h3.93c1,0,1.75.27,2.25.78.51.51.76,1.19.76,2.03,0,.43-.09.84-.3,1.23-.11.19-.26.36-.46.53-.2.18-.45.34-.74.48v.03c.55.15.97.45,1.25.9.26.46.4.97.4,1.51,0,.9-.28,1.62-.82,2.15-.53.55-1.2.83-2,.83h-4.27v-10.47ZM24.34,13.65v3.01h2.22c.56,0,.97-.15,1.24-.45.27-.28.4-.63.4-1.05s-.13-.78-.4-1.08c-.26-.27-.68-.42-1.24-.43h-2.22ZM24.34,18.07v3.15h2.37c.57,0,.99-.17,1.25-.48.26-.31.4-.67.4-1.09s-.13-.8-.4-1.11c-.26-.3-.68-.46-1.25-.47h-2.37Z"/>
    <path class="cls-1" d="M1.54,12.25h1.53v8.97h-1.53v-8.97Z"/>
    <polygon class="cls-2" points="13.64 18.97 12.66 18.97 14.13 14.39 14.16 14.39 14.68 16.01 15.39 13.98 14.78 12.25 13.5 12.25 9.81 22.71 11.44 22.71 12.22 20.37 13.14 20.37 13.64 18.97"/>
    <polygon class="cls-2" points="16.11 16.02 15.39 18.26 15.62 18.97 17.15 18.97 16.11 16.02"/>
    <polygon class="cls-2" points="16.06 20.37 16.85 22.71 18.47 22.71 17.64 20.37 16.06 20.37"/>
    <path class="cls-2" d="M27.79,14.08c.27.29.4.65.4,1.08s-.13.77-.4,1.05c-.13.15-.3.26-.5.34v.12h1.84c.12-.12.22-.24.3-.37.21-.39.31-.8.3-1.23,0-.54-.11-1-.32-1.4h-2.12v.12c.2.07.37.17.5.3Z"/>
    <path class="cls-2" d="M29.89,19.74c0-.55-.13-1.05-.4-1.51-.04-.06-.1-.1-.15-.16h-2.05v.08c.28.08.5.2.66.38.26.31.4.68.4,1.11s-.13.79-.4,1.09c-.16.19-.39.32-.66.39v.09h2.25c.22-.42.34-.91.35-1.48Z"/>
    <polygon class="cls-2" points="24.34 21.22 24.34 18.07 25.76 18.07 25.76 16.66 24.34 16.66 24.34 13.65 25.76 13.65 25.76 12.25 22.8 12.25 22.8 22.71 25.76 22.71 25.76 21.22 24.34 21.22"/>
    <path class="cls-1" d="M6.48,21.22h1.54v1.49h-1.54v-1.49Z"/>
  </g>
</svg>