<svg xmlns="http://www.w3.org/2000/svg" width="13.325" height="9.225" viewBox="0 0 13.325 9.225" shape-rendering="crispEdges" style="image-rendering:pixelated">
  <!-- Fondo blanco sólido para que el interior del bocadillo nunca sea transparente -->
  <rect x="0" y="0" width="13.325" height="9.225" fill="rgba(255,255,255,1)"/>
  <defs><rect id="p" width="1.025" height="1.025"/></defs>
  <use href="#p" x="1.025" y="0" fill="rgba(255,252,253,1)"/><use href="#p" x="2.05" y="0" fill="rgba(255,252,253,1)"/><use href="#p" x="3.075" y="0" fill="rgba(255,252,253,1)"/><use href="#p" x="4.1" y="0" fill="rgba(255,252,253,1)"/><use href="#p" x="5.125" y="0" fill="rgba(255,252,253,1)"/><use href="#p" x="6.15" y="0" fill="rgba(255,252,253,1)"/><use href="#p" x="7.175" y="0" fill="rgba(255,252,253,1)"/><use href="#p" x="8.2" y="0" fill="rgba(255,252,253,1)"/><use href="#p" x="9.225" y="0" fill="rgba(255,252,253,1)"/><use href="#p" x="10.25" y="0" fill="rgba(255,252,253,1)"/><use href="#p" x="11.275" y="0" fill="rgba(255,252,253,1)"/><use href="#p" x="0" y="1.025" fill="rgba(255,252,253,1)"/><use href="#p" x="2.05" y="1.025" fill="rgba(255,255,255,1)"/><use href="#p" x="4.1" y="1.025" fill="rgba(255,255,255,1)"/><use href="#p" x="7.175" y="1.025" fill="rgba(255,255,255,1)"/><use href="#p" x="8.2" y="1.025" fill="rgba(255,255,255,1)"/><use href="#p" x="10.25" y="1.025" fill="rgba(255,255,255,1)"/><use href="#p" x="12.3" y="1.025" fill="rgba(255,255,255,1)"/><use href="#p" x="0" y="2.05" fill="rgba(255,252,253,1)"/><use href="#p" x="2.05" y="2.05" fill="rgba(255,255,255,1)"/><use href="#p" x="4.1" y="2.05" fill="rgba(255,255,255,1)"/><use href="#p" x="6.15" y="2.05" fill="rgba(255,255,255,1)"/><use href="#p" x="8.2" y="2.05" fill="rgba(255,255,255,1)"/><use href="#p" x="10.25" y="2.05" fill="rgba(255,255,255,1)"/><use href="#p" x="12.3" y="2.05" fill="rgba(255,255,255,1)"/><use href="#p" x="0" y="3.075" fill="rgba(255,252,253,1)"/><use href="#p" x="4.1" y="3.075" fill="rgba(255,255,255,1)"/><use href="#p" x="6.15" y="3.075" fill="rgba(255,255,255,1)"/><use href="#p" x="8.2" y="3.075" fill="rgba(255,255,255,1)"/><use href="#p" x="12.3" y="3.075" fill="rgba(255,255,255,1)"/><use href="#p" x="0" y="4.1" fill="rgba(255,252,253,1)"/><use href="#p" x="2.05" y="4.1" fill="rgba(255,255,255,1)"/><use href="#p" x="4.1" y="4.1" fill="rgba(255,255,255,1)"/><use href="#p" x="6.15" y="4.1" fill="rgba(255,255,255,1)"/><use href="#p" x="8.2" y="4.1" fill="rgba(255,255,255,1)"/><use href="#p" x="9.225" y="4.1" fill="rgba(255,255,255,1)"/><use href="#p" x="11.275" y="4.1" fill="rgba(255,255,255,1)"/><use href="#p" x="12.3" y="4.1" fill="rgba(255,255,255,1)"/><use href="#p" x="0" y="5.125" fill="rgba(255,252,253,1)"/><use href="#p" x="2.05" y="5.125" fill="rgba(255,255,255,1)"/><use href="#p" x="4.1" y="5.125" fill="rgba(255,255,255,1)"/><use href="#p" x="6.15" y="5.125" fill="rgba(255,255,255,1)"/><use href="#p" x="8.2" y="5.125" fill="rgba(255,255,255,1)"/><use href="#p" x="9.225" y="5.125" fill="rgba(255,255,255,1)"/><use href="#p" x="11.275" y="5.125" fill="rgba(255,255,255,1)"/><use href="#p" x="12.3" y="5.125" fill="rgba(255,255,255,1)"/><use href="#p" x="1.025" y="6.15" fill="rgba(255,252,253,1)"/><use href="#p" x="2.05" y="6.15" fill="rgba(255,252,253,1)"/><use href="#p" x="3.075" y="6.15" fill="rgba(255,252,253,1)"/><use href="#p" x="4.1" y="6.15" fill="rgba(255,252,253,1)"/><use href="#p" x="5.125" y="6.15" fill="rgba(255,252,253,1)"/><use href="#p" x="6.15" y="6.15" fill="rgba(255,252,253,1)"/><use href="#p" x="7.175" y="6.15" fill="rgba(255,252,253,1)"/><use href="#p" x="8.2" y="6.15" fill="rgba(255,252,253,1)"/><use href="#p" x="9.225" y="6.15" fill="rgba(255,252,253,1)"/><use href="#p" x="10.25" y="6.15" fill="rgba(255,252,253,1)"/><use href="#p" x="11.275" y="6.15" fill="rgba(255,252,253,1)"/><use href="#p" x="6.15" y="7.175" fill="rgba(255,252,253,1)"/><use href="#p" x="5.125" y="8.2" fill="rgba(255,252,253,1)"/>
</svg>