<?xml version="1.0" encoding="UTF-8"?>
<svg id="Ebene_1" data-name="Ebene 1" xmlns="http://www.w3.org/2000/svg" viewBox="0 0 768 768">
  <defs>
    <style>
      .cls-1 {
        fill: #fff;
      }
    </style>
  </defs>
  <polygon class="cls-1" points="30.33 .49 .83 .49 .83 766.31 30.33 766.31 30.29 68.38 761.63 68.97 761.66 767.99 767.91 767.99 767.92 0 30.33 .49"/>
  <g>
    <path d="M762.95,0v2.9H2.89s0,35.21,0,35.21h760.07v729.89H0V0h762.96ZM28.87,40.99H2.89v25.98h25.98v-25.98ZM58.31,40.99h-26.56v25.98h285.8v-25.98h-23.67v8.66c0,.14-2.89.14-2.89,0v-8.66h-25.98v8.66c0,.14-2.89.14-2.89,0v-8.66h-25.98v8.66c0,.14-2.89.14-2.89,0v-8.66h-26.56v8.66c0,.14-2.89.14-2.89,0v-8.66h-25.98v17.32c0,.14-2.89.14-2.89,0v-17.32h-26.56v8.66c0,.14-2.89.14-2.89,0v-8.66h-25.98v8.66c0,.14-2.89.14-2.89,0v-8.66h-26.56v8.66c0,.14-2.89.14-2.89,0v-8.66h-25.98c.03,1.28-.26,8.66-.26,8.66h-2.63v-8.66ZM346.43,40.99h-25.98v25.98h285.23v-25.98h-23.1v8.66c0,.14-2.89.14-2.89,0v-8.66h-26.56v8.66c0,.14-2.89.14-2.89,0v-8.66h-25.98v8.66c0,.14-2.89.14-2.89,0v-8.66h-25.98v8.66c0,.14-2.89.14-2.89,0v-8.66h-26.56v17.32c0,.14-2.89.14-2.89,0v-17.32h-25.98v8.66c0,.14-2.89.14-2.89,0v-8.66h-26.56v8.66c0,.14-2.89.14-2.89,0v-8.66h-25.98v8.66c0,.14-2.89.14-2.89,0v-8.66h-26.56v8.66c0,.14-2.89.14-2.89,0v-8.66ZM635.12,40.99h-26.56v25.98h151.85v-25.98h-5.77v17.32c0,.17-3.46.17-3.46,0v-17.32h-25.98v8.66c0,.14-2.89.14-2.89,0v-8.66h-26.56v8.66h-2.89v-8.66h-25.98v8.66c0,.14-2.89.14-2.89,0v-8.66h-25.98v8.66c0,.14-2.89.14-2.89,0v-8.66ZM28.87,69.86H2.89v26.56h8.66c.14,0,.14,2.89,0,2.89H2.89v25.98h8.66c.14,0,.14,2.89,0,2.89H2.89v26.56h8.66c.14,0,.14,2.89,0,2.89H2.89v25.98h8.66c.14,0,.14,2.89,0,2.89H2.89v25.69c0,.06-.06.87,0,.87h17.32c.14,0,.14,2.89,0,2.89H2.89v25.98h8.66c.14,0,.14,2.89,0,2.89H2.89v25.98h8.66c.14,0,.14,2.89,0,2.89H2.89v26.56h8.66c.14,0,.14,2.89,0,2.89H2.89v25.98h8.66c.14,0,.14,2.89,0,2.89H2.89v26.56h25.98V69.86ZM760.41,765.69V70.73c0-.06.06-.87,0-.87H31.75c-.06,0,0,.8,0,.87v694.96h728.65ZM28.87,361.44H2.89v23.1h8.66c.14,0,.14,2.89,0,2.89H2.89v25.98h8.66c.14,0,.1,2.79,0,2.89-.41.41-8.66-.81-8.66.86v25.69h8.66c.14,0,.14,2.89,0,2.89H2.89v25.98h8.66c.58,1.17,0,3.13,0,3.13H2.89v26.32h17.32c.14,0,.14,2.89,0,2.89H2.89v25.98h8.66c.14,0,.14,2.89,0,2.89H2.89v26.56h8.66c.14,0,.14,2.89,0,2.89H2.89v25.98h8.66c.14,0,.14,2.89,0,2.89H2.89v26.56h8.66c.14,0,.14,2.89,0,2.89H2.89v25.98h25.98v-285.23ZM28.87,649.55H2.89v23.1h8.66c.14,0,.14,2.89,0,2.89H2.89v26.56h8.66c.14,0,.14,2.89,0,2.89H2.89v25.98h8.66c.14,0,.14,2.89,0,2.89H2.89v31.86h25.98v-116.16Z"/>
    <rect x="46.77" y="5.77" width="716.19" height="2.89"/>
    <path d="M762.95,11.54v2.89H46.77c-.14,0,0-2.89,0-2.89h716.19Z"/>
    <rect x="46.77" y="17.32" width="716.19" height="2.89"/>
    <rect x="46.77" y="23.67" width="716.19" height="2.89"/>
    <rect x="46.77" y="29.44" width="716.19" height="2.89"/>
    <path d="M14.43,8.53c.08.12.14,20.83,0,20.92-.62-.08-2.89,0-2.89,0V8.53s2.13.09,2.89,0Z"/>
    <path d="M14.43,8.53v-2.77h20.21s-.08,2.15,0,2.77c-.07.06-20.21,0-20.21,0Z"/>
    <path d="M34.64,29.45c-.04.67,0,2.89,0,2.89H14.43v-2.89s20.26.08,20.21,0Z"/>
    <path d="M34.64,29.45c-.07.02-.07-20.86,0-20.92-.13-.06,2.88,0,2.88,0v20.92h-2.88Z"/>
    <rect class="cls-1" x="2.89" y="40.99" width="25.98" height="25.98"/>
  </g>
</svg>