<?xml version="1.0" encoding="UTF-8"?>
<svg id="Ebene_2" xmlns="http://www.w3.org/2000/svg" version="1.1" viewBox="0 0 768 1024">
  <!-- Generator: Adobe Illustrator 29.5.1, SVG Export Plug-In . SVG Version: 2.1.0 Build 141)  -->
  <defs>
    <style>
      .st0 {
        fill: #fff;
      }
    </style>
  </defs>
  <polygon class="st0" points="30.44 .58 .93 .58 .93 1023.62 30.44 1023.62 30.39 68.47 761.73 69.06 761.76 1024 768.02 1024 768 0 30.44 .58"/>
  <g>
    <path d="M763.06,0v2.98H2.99s0,35.21,0,35.21h760.07v985.81H0V0h763.06ZM28.97,41.08H2.99v25.98h25.98v-25.98ZM58.42,41.08h-26.56v25.98h285.8v-25.98h-23.67v8.66c0,.14-2.89.14-2.89,0v-8.66h-25.98v8.66c0,.14-2.89.14-2.89,0v-8.66h-25.98v8.66c0,.14-2.89.14-2.89,0v-8.66h-26.56v8.66c0,.14-2.89.14-2.89,0v-8.66h-25.98v17.32c0,.14-2.89.14-2.89,0v-17.32h-26.56v8.66c0,.14-2.89.14-2.89,0v-8.66h-25.98v8.66c0,.14-2.89.14-2.89,0v-8.66h-26.56v8.66c0,.14-2.89.14-2.89,0v-8.66h-25.98c.03,1.28-.26,8.66-.26,8.66h-2.63v-8.66ZM346.53,41.08h-25.98v25.98h285.23v-25.98h-23.1v8.66c0,.14-2.89.14-2.89,0v-8.66h-26.56v8.66c0,.14-2.89.14-2.89,0v-8.66h-25.98v8.66c0,.14-2.89.14-2.89,0v-8.66h-25.98v8.66c0,.14-2.89.14-2.89,0v-8.66h-26.56v17.32c0,.14-2.89.14-2.89,0v-17.32h-25.98v8.66c0,.14-2.89.14-2.89,0v-8.66h-26.56v8.66c0,.14-2.89.14-2.89,0v-8.66h-25.98v8.66c0,.14-2.89.14-2.89,0v-8.66h-26.56v8.66c0,.14-2.89.14-2.89,0v-8.66ZM635.22,41.08h-26.56v25.98h151.85v-25.98h-5.77v17.32c0,.17-3.46.17-3.46,0v-17.32h-25.98v8.66c0,.14-2.89.14-2.89,0v-8.66h-26.56v8.66h-2.89v-8.66h-25.98v8.66c0,.14-2.89.14-2.89,0v-8.66h-25.98v8.66c0,.14-2.89.14-2.89,0v-8.66ZM28.97,69.95H2.99v26.56h8.66v2.89H2.99v25.98h8.66v2.89H2.99v26.56h8.66v2.89H2.99v25.98h8.66v2.89H2.99v25.69c0,.06-.06.87,0,.87h17.32v2.89H2.99v25.98h8.66v2.89H2.99v25.98h8.66v2.89H2.99v26.56h8.66v2.89H2.99v25.98h8.66v2.89H2.99v26.56h25.98V69.95ZM760.51,1021.69V70.81c0-.06.06-.87,0-.87H31.86c-.06,0,0,.8,0,.87v950.88h728.65ZM28.97,361.52H2.99v23.1h8.66v2.89H2.99v25.98h8.66v2.89l-8.66.05v26.51h8.66v2.89H2.99v25.98h8.66v3.13H2.99v26.32h17.32v2.89H2.99v25.98h8.66v2.89H2.99v26.56h8.66v2.89H2.99v25.98h8.66v2.89H2.99v26.56h8.66v2.89H2.99v25.98h25.98v-285.23ZM28.97,649.64H2.99v23.1h8.66v2.89H2.99v25.98h8.66v2.89l-8.66.04v26.51h8.66s.14,2.89,0,2.89H2.99v25.98h8.66v3.13H2.99v26.32h17.32v2.89H2.99v25.98h8.66v2.89H2.99v26.56h8.66v2.89H2.99v25.98h8.66v2.89H2.99v26.56h8.66v2.89H2.99v25.98h25.98v-285.23ZM28.97,937.89H2.99v23.1h8.66v2.89H2.99v25.98h8.66v2.89l-8.66.09v26.46h8.66v2.89h17.32v-84.3Z"/>
    <rect x="46.87" y="5.86" width="716.19" height="2.89"/>
    <path d="M763.06,11.63v2.89H46.87c-.14,0,0-2.89,0-2.89h716.19Z"/>
    <rect x="46.87" y="17.41" width="716.19" height="2.89"/>
    <rect x="46.87" y="23.76" width="716.19" height="2.89"/>
    <rect x="46.87" y="29.53" width="716.19" height="2.89"/>
    <path d="M14.53,8.61c.08.12.14,20.83,0,20.92-.62-.08-2.89,0-2.89,0V8.61s2.13.09,2.89,0Z"/>
    <path d="M14.53,8.61v-2.77h20.21s-.08,2.15,0,2.77c-.07.06-20.21,0-20.21,0Z"/>
    <path d="M34.74,29.53c-.04.67,0,2.89,0,2.89H14.53v-2.89s20.26.08,20.21,0Z"/>
    <path d="M34.74,29.53c-.07.02-.07-20.86,0-20.92-.13-.06,2.88,0,2.88,0v20.92h-2.88Z"/>
    <rect class="st0" x="2.99" y="41.08" width="25.98" height="25.98"/>
  </g>
</svg>