<?xml version="1.0" encoding="UTF-8"?>
<svg id="Ebene_1" data-name="Ebene 1" xmlns="http://www.w3.org/2000/svg" xmlns:xlink="http://www.w3.org/1999/xlink" viewBox="0 0 1330 1386">
  <defs>
    <style>
      .cls-1 {
        fill: none;
      }

      .cls-2 {
        fill: #1d1d1b;
      }

      .cls-3 {
        fill: url(#_10_dpi_50_);
      }

      .cls-4 {
        stroke-width: .96px;
      }

      .cls-4, .cls-5, .cls-6, .cls-7, .cls-8, .cls-9, .cls-10 {
        fill: #fff;
      }

      .cls-4, .cls-5, .cls-6, .cls-7, .cls-8, .cls-10 {
        stroke: #fff;
        stroke-miterlimit: 10;
      }

      .cls-5 {
        stroke-width: .97px;
      }

      .cls-6 {
        stroke-width: .96px;
      }

      .cls-7 {
        stroke-width: .96px;
      }

      .cls-8 {
        stroke-width: .95px;
      }
    </style>
    <pattern id="_10_dpi_50_" data-name="10 dpi 50%" x="0" y="0" width="28.8" height="28.8" patternTransform="translate(368 991)" patternUnits="userSpaceOnUse" viewBox="0 0 28.8 28.8">
      <g>
        <rect class="cls-1" x="0" width="28.8" height="28.8"/>
        <g>
          <path class="cls-2" d="M28.8,32.4c1.99,0,3.6-1.61,3.6-3.6s-1.61-3.6-3.6-3.6-3.6,1.61-3.6,3.6,1.61,3.6,3.6,3.6Z"/>
          <path class="cls-2" d="M14.4,32.4c1.99,0,3.6-1.61,3.6-3.6s-1.61-3.6-3.6-3.6-3.6,1.61-3.6,3.6,1.61,3.6,3.6,3.6Z"/>
          <circle class="cls-2" cx="28.8" cy="14.4" r="3.6"/>
          <path class="cls-2" d="M14.4,18c1.99,0,3.6-1.61,3.6-3.6s-1.61-3.6-3.6-3.6-3.6,1.61-3.6,3.6,1.61,3.6,3.6,3.6Z"/>
          <path class="cls-2" d="M7.2,25.2c1.99,0,3.6-1.61,3.6-3.6s-1.61-3.6-3.6-3.6-3.6,1.61-3.6,3.6,1.61,3.6,3.6,3.6Z"/>
          <path class="cls-2" d="M21.6,25.2c1.99,0,3.6-1.61,3.6-3.6s-1.61-3.6-3.6-3.6-3.6,1.61-3.6,3.6,1.61,3.6,3.6,3.6Z"/>
          <path class="cls-2" d="M7.2,10.8c1.99,0,3.6-1.61,3.6-3.6s-1.61-3.6-3.6-3.6-3.6,1.61-3.6,3.6,1.61,3.6,3.6,3.6Z"/>
          <path class="cls-2" d="M21.6,10.8c1.99,0,3.6-1.61,3.6-3.6s-1.61-3.6-3.6-3.6-3.6,1.61-3.6,3.6,1.61,3.6,3.6,3.6Z"/>
        </g>
        <g>
          <path class="cls-2" d="M0,32.4c1.99,0,3.6-1.61,3.6-3.6s-1.61-3.6-3.6-3.6-3.6,1.61-3.6,3.6,1.61,3.6,3.6,3.6Z"/>
          <circle class="cls-2" cy="14.4" r="3.6"/>
        </g>
        <g>
          <path class="cls-2" d="M28.8,3.6c1.99,0,3.6-1.61,3.6-3.6s-1.61-3.6-3.6-3.6-3.6,1.61-3.6,3.6,1.61,3.6,3.6,3.6Z"/>
          <path class="cls-2" d="M14.4,3.6c1.99,0,3.6-1.61,3.6-3.6s-1.61-3.6-3.6-3.6-3.6,1.61-3.6,3.6,1.61,3.6,3.6,3.6Z"/>
        </g>
        <path class="cls-2" d="M0,3.6c1.99,0,3.6-1.61,3.6-3.6S1.99-3.6,0-3.6-3.6-1.99-3.6,0-1.99,3.6,0,3.6Z"/>
      </g>
    </pattern>
  </defs>
  <polygon class="cls-9" points="52.54 .86 1.44 .86 1.44 1383.07 52.54 1383.07 52.46 118.44 1319.11 119.46 1319.16 1386 1330 1386 1330.01 0 52.54 .86"/>
  <rect class="cls-10" x="533.29" y="357.73" width="35.11" height="35.11"/>
  <rect class="cls-10" x="567.54" y="357.73" width="35.11" height="35.11"/>
  <rect class="cls-10" x="601.8" y="357.73" width="35.11" height="35.11"/>
  <rect class="cls-10" x="636.06" y="357.73" width="35.11" height="35.11"/>
  <rect class="cls-10" x="670.31" y="357.73" width="35.11" height="35.11"/>
  <rect class="cls-10" x="704.57" y="357.73" width="35.11" height="35.11"/>
  <rect class="cls-10" x="738.83" y="357.73" width="35.11" height="35.11"/>
  <rect class="cls-10" x="773.08" y="357.73" width="35.11" height="35.11"/>
  <rect class="cls-10" x="807.34" y="357.73" width="35.11" height="35.11"/>
  <rect class="cls-9" x="499.03" y="391.99" width="35.11" height="35.11"/>
  <rect class="cls-10" x="533.29" y="391.99" width="35.11" height="35.11"/>
  <rect class="cls-10" x="567.54" y="391.99" width="35.11" height="35.11"/>
  <rect class="cls-10" x="601.8" y="391.99" width="35.11" height="35.11"/>
  <rect class="cls-10" x="636.06" y="391.99" width="35.11" height="35.11"/>
  <rect class="cls-10" x="670.31" y="391.99" width="35.11" height="35.11"/>
  <rect class="cls-10" x="704.57" y="391.99" width="35.11" height="35.11"/>
  <rect class="cls-10" x="738.83" y="391.99" width="35.11" height="35.11"/>
  <rect class="cls-10" x="773.08" y="391.99" width="35.11" height="35.11"/>
  <rect class="cls-10" x="807.34" y="391.99" width="35.11" height="35.11"/>
  <rect class="cls-9" x="841.59" y="391.99" width="35.11" height="35.11"/>
  <rect class="cls-9" x="499.03" y="426.24" width="35.11" height="35.11"/>
  <rect class="cls-10" x="533.29" y="426.24" width="35.11" height="35.11"/>
  <rect class="cls-10" x="567.54" y="426.24" width="35.11" height="35.11"/>
  <rect class="cls-10" x="601.8" y="426.24" width="35.11" height="35.11"/>
  <rect class="cls-10" x="636.06" y="426.24" width="35.11" height="35.11"/>
  <rect class="cls-10" x="670.31" y="426.24" width="35.11" height="35.11"/>
  <rect class="cls-10" x="704.57" y="426.24" width="35.11" height="35.11"/>
  <rect class="cls-10" x="738.83" y="426.24" width="35.11" height="35.11"/>
  <rect class="cls-10" x="773.08" y="426.24" width="35.11" height="35.11"/>
  <rect class="cls-10" x="807.34" y="426.24" width="35.11" height="35.11"/>
  <rect class="cls-9" x="841.59" y="426.24" width="35.11" height="35.11"/>
  <rect class="cls-9" x="499.03" y="460.5" width="35.11" height="35.11"/>
  <rect class="cls-9" x="533.29" y="460.5" width="35.11" height="35.11"/>
  <rect class="cls-9" x="567.54" y="460.5" width="35.11" height="35.11"/>
  <rect class="cls-9" x="601.8" y="460.5" width="35.11" height="35.11"/>
  <rect class="cls-9" x="636.06" y="460.5" width="35.11" height="35.11"/>
  <rect class="cls-9" x="670.31" y="460.5" width="35.11" height="35.11"/>
  <rect class="cls-9" x="704.57" y="460.5" width="35.11" height="35.11"/>
  <rect class="cls-9" x="738.83" y="460.5" width="35.11" height="35.11"/>
  <rect class="cls-9" x="773.08" y="460.5" width="35.11" height="35.11"/>
  <rect class="cls-9" x="807.34" y="460.5" width="35.11" height="35.11"/>
  <rect class="cls-9" x="841.59" y="460.5" width="35.11" height="35.11"/>
  <rect class="cls-9" x="499.03" y="494.75" width="35.11" height="35.11"/>
  <rect class="cls-10" x="533.29" y="494.75" width="35.11" height="35.11"/>
  <rect class="cls-10" x="567.54" y="494.75" width="35.11" height="35.11"/>
  <rect class="cls-10" x="601.8" y="494.75" width="35.11" height="35.11"/>
  <rect class="cls-10" x="636.06" y="494.75" width="35.11" height="35.11"/>
  <rect class="cls-10" x="670.31" y="494.75" width="35.11" height="35.11"/>
  <rect class="cls-10" x="704.57" y="494.75" width="35.11" height="35.11"/>
  <rect class="cls-10" x="738.83" y="494.75" width="35.11" height="35.11"/>
  <rect class="cls-10" x="773.08" y="494.75" width="35.11" height="35.11"/>
  <rect class="cls-10" x="807.34" y="494.75" width="35.11" height="35.11"/>
  <rect class="cls-10" x="841.59" y="494.75" width="35.11" height="35.11"/>
  <rect class="cls-9" x="499.03" y="529.01" width="35.11" height="35.11"/>
  <rect class="cls-10" x="533.29" y="529.01" width="35.11" height="35.11"/>
  <rect class="cls-10" x="567.54" y="529.01" width="35.11" height="35.11"/>
  <rect class="cls-10" x="601.8" y="529.01" width="35.11" height="35.11"/>
  <rect class="cls-10" x="636.06" y="529.01" width="35.11" height="35.11"/>
  <rect class="cls-10" x="670.31" y="529.01" width="35.11" height="35.11"/>
  <rect class="cls-10" x="704.57" y="529.01" width="35.11" height="35.11"/>
  <rect class="cls-10" x="738.83" y="529.01" width="35.11" height="35.11"/>
  <rect class="cls-10" x="773.08" y="529.01" width="35.11" height="35.11"/>
  <rect class="cls-10" x="807.34" y="529.01" width="35.11" height="35.11"/>
  <rect class="cls-10" x="841.59" y="529.01" width="35.11" height="35.11"/>
  <rect class="cls-10" x="533.29" y="563.27" width="35.11" height="35.11"/>
  <rect class="cls-10" x="567.54" y="563.27" width="35.11" height="35.11"/>
  <rect class="cls-10" x="601.8" y="563.27" width="35.11" height="35.11"/>
  <rect class="cls-10" x="636.06" y="563.27" width="35.11" height="35.11"/>
  <rect class="cls-10" x="670.31" y="563.27" width="35.11" height="35.11"/>
  <rect class="cls-10" x="704.57" y="563.27" width="35.11" height="35.11"/>
  <rect class="cls-10" x="738.83" y="563.27" width="35.11" height="35.11"/>
  <rect class="cls-10" x="773.08" y="563.27" width="35.11" height="35.11"/>
  <rect class="cls-10" x="807.34" y="563.27" width="35.11" height="35.11"/>
  <rect class="cls-10" x="841.59" y="563.27" width="35.11" height="35.11"/>
  <rect class="cls-10" x="464.78" y="597.52" width="35.11" height="35.11"/>
  <rect class="cls-10" x="499.03" y="597.52" width="35.11" height="35.11"/>
  <rect class="cls-10" x="533.29" y="597.52" width="35.11" height="35.11"/>
  <rect class="cls-10" x="567.54" y="597.52" width="35.11" height="35.11"/>
  <rect class="cls-10" x="601.8" y="597.52" width="35.11" height="35.11"/>
  <rect class="cls-10" x="670.31" y="597.52" width="35.11" height="35.11"/>
  <rect class="cls-10" x="704.57" y="597.52" width="35.11" height="35.11"/>
  <rect class="cls-10" x="738.83" y="597.52" width="35.11" height="35.11"/>
  <rect class="cls-10" x="773.08" y="597.52" width="35.11" height="35.11"/>
  <rect class="cls-10" x="841.59" y="597.52" width="35.11" height="35.11"/>
  <rect class="cls-10" x="464.78" y="631.78" width="35.11" height="35.11"/>
  <rect class="cls-10" x="499.03" y="631.78" width="35.11" height="35.11"/>
  <rect class="cls-10" x="533.29" y="631.78" width="35.11" height="35.11"/>
  <rect class="cls-10" x="567.54" y="631.78" width="35.11" height="35.11"/>
  <rect class="cls-10" x="601.8" y="631.78" width="35.11" height="35.11"/>
  <rect class="cls-10" x="636.06" y="631.78" width="35.11" height="35.11"/>
  <rect class="cls-10" x="670.31" y="631.78" width="35.11" height="35.11"/>
  <rect class="cls-10" x="704.57" y="631.78" width="35.11" height="35.11"/>
  <rect class="cls-10" x="738.83" y="631.78" width="35.11" height="35.11"/>
  <rect class="cls-10" x="773.08" y="631.78" width="35.11" height="35.11"/>
  <rect class="cls-10" x="807.34" y="631.78" width="35.11" height="35.11"/>
  <rect class="cls-10" x="841.59" y="631.78" width="35.11" height="35.11"/>
  <rect class="cls-10" x="464.78" y="666.04" width="35.11" height="35.11"/>
  <rect class="cls-10" x="499.03" y="666.04" width="35.11" height="35.11"/>
  <rect class="cls-10" x="533.29" y="666.04" width="35.11" height="35.11"/>
  <rect class="cls-10" x="567.54" y="666.04" width="35.11" height="35.11"/>
  <rect class="cls-10" x="601.8" y="666.04" width="35.11" height="35.11"/>
  <rect class="cls-10" x="636.06" y="666.04" width="35.11" height="35.11"/>
  <rect class="cls-10" x="670.31" y="666.04" width="35.11" height="35.11"/>
  <rect class="cls-10" x="704.57" y="666.04" width="35.11" height="35.11"/>
  <rect class="cls-10" x="773.08" y="666.04" width="35.11" height="35.11"/>
  <rect class="cls-10" x="807.34" y="666.04" width="35.11" height="35.11"/>
  <rect class="cls-10" x="841.59" y="666.04" width="35.11" height="35.11"/>
  <rect class="cls-10" x="533.29" y="700.29" width="35.11" height="35.11"/>
  <rect class="cls-10" x="567.54" y="700.29" width="35.11" height="35.11"/>
  <rect class="cls-10" x="601.8" y="700.29" width="35.11" height="35.11"/>
  <rect class="cls-10" x="636.06" y="700.29" width="35.11" height="35.11"/>
  <rect class="cls-10" x="670.31" y="700.29" width="35.11" height="35.11"/>
  <rect class="cls-10" x="704.57" y="700.29" width="35.11" height="35.11"/>
  <rect class="cls-10" x="807.34" y="700.29" width="35.11" height="35.11"/>
  <rect class="cls-10" x="841.59" y="700.29" width="35.11" height="35.11"/>
  <rect class="cls-10" x="533.29" y="734.55" width="35.11" height="35.11"/>
  <rect class="cls-10" x="567.54" y="734.55" width="35.11" height="35.11"/>
  <rect class="cls-10" x="601.8" y="734.55" width="35.11" height="35.11"/>
  <rect class="cls-10" x="636.06" y="734.55" width="35.11" height="35.11"/>
  <rect class="cls-10" x="670.31" y="734.55" width="35.11" height="35.11"/>
  <rect class="cls-10" x="704.57" y="734.55" width="35.11" height="35.11"/>
  <rect class="cls-10" x="738.83" y="734.55" width="35.11" height="35.11"/>
  <rect class="cls-10" x="773.08" y="734.55" width="35.11" height="35.11"/>
  <rect class="cls-10" x="807.34" y="734.55" width="35.11" height="35.11"/>
  <rect class="cls-10" x="841.59" y="734.55" width="35.11" height="35.11"/>
  <rect class="cls-10" x="533.29" y="768.8" width="35.11" height="35.11"/>
  <rect class="cls-10" x="567.54" y="768.8" width="35.11" height="35.11"/>
  <rect class="cls-10" x="601.8" y="768.8" width="35.11" height="35.11"/>
  <rect class="cls-10" x="636.06" y="768.8" width="35.11" height="35.11"/>
  <rect class="cls-10" x="670.31" y="768.8" width="35.11" height="35.11"/>
  <rect class="cls-10" x="704.57" y="768.8" width="35.11" height="35.11"/>
  <rect class="cls-10" x="738.83" y="768.8" width="35.11" height="35.11"/>
  <rect class="cls-10" x="773.08" y="768.8" width="35.11" height="35.11"/>
  <rect class="cls-10" x="807.34" y="768.8" width="35.11" height="35.11"/>
  <rect class="cls-10" x="841.59" y="768.8" width="35.11" height="35.11"/>
  <rect class="cls-10" x="533.29" y="803.06" width="35.11" height="35.11"/>
  <rect class="cls-10" x="567.54" y="803.06" width="35.11" height="35.11"/>
  <rect class="cls-10" x="601.8" y="803.06" width="35.11" height="35.11"/>
  <rect class="cls-10" x="636.06" y="803.06" width="35.11" height="35.11"/>
  <rect class="cls-10" x="670.31" y="803.06" width="35.11" height="35.11"/>
  <rect class="cls-10" x="841.59" y="803.06" width="35.11" height="35.11"/>
  <rect class="cls-10" x="533.29" y="837.32" width="35.11" height="35.11"/>
  <rect class="cls-10" x="567.54" y="837.32" width="35.11" height="35.11"/>
  <rect class="cls-10" x="601.8" y="837.32" width="35.11" height="35.11"/>
  <rect class="cls-10" x="636.06" y="837.32" width="35.11" height="35.11"/>
  <rect class="cls-10" x="670.31" y="837.32" width="35.11" height="35.11"/>
  <rect class="cls-10" x="704.57" y="837.32" width="35.11" height="35.11"/>
  <rect class="cls-10" x="738.83" y="837.32" width="35.11" height="35.11"/>
  <rect class="cls-10" x="773.08" y="837.32" width="35.11" height="35.11"/>
  <rect class="cls-10" x="807.34" y="837.32" width="35.11" height="35.11"/>
  <rect class="cls-10" x="841.59" y="837.32" width="35.11" height="35.11"/>
  <rect class="cls-10" x="533.29" y="871.57" width="35.11" height="35.11"/>
  <rect class="cls-10" x="567.54" y="871.57" width="35.11" height="35.11"/>
  <rect class="cls-10" x="601.8" y="871.57" width="35.11" height="35.11"/>
  <rect class="cls-10" x="636.06" y="871.57" width="35.11" height="35.11"/>
  <rect class="cls-10" x="670.31" y="871.57" width="35.11" height="35.11"/>
  <rect class="cls-10" x="704.57" y="871.57" width="35.11" height="35.11"/>
  <rect class="cls-10" x="738.83" y="871.57" width="35.11" height="35.11"/>
  <rect class="cls-10" x="773.08" y="871.57" width="35.11" height="35.11"/>
  <rect class="cls-10" x="807.34" y="871.57" width="35.11" height="35.11"/>
  <rect class="cls-10" x="841.59" y="871.57" width="35.11" height="35.11"/>
  <rect class="cls-10" x="533.29" y="905.83" width="35.11" height="35.11"/>
  <rect class="cls-10" x="601.8" y="905.83" width="35.11" height="35.11"/>
  <rect class="cls-10" x="636.06" y="905.83" width="35.11" height="35.11"/>
  <rect class="cls-10" x="670.31" y="905.83" width="35.11" height="35.11"/>
  <rect class="cls-10" x="704.57" y="905.83" width="35.11" height="35.11"/>
  <rect class="cls-10" x="738.83" y="905.83" width="35.11" height="35.11"/>
  <rect class="cls-10" x="773.08" y="905.83" width="35.11" height="35.11"/>
  <rect class="cls-10" x="807.34" y="905.83" width="35.11" height="35.11"/>
  <rect class="cls-10" x="533.29" y="940.09" width="35.11" height="35.11"/>
  <rect class="cls-10" x="567.54" y="940.09" width="35.11" height="35.11"/>
  <rect class="cls-10" x="533.29" y="974.34" width="35.11" height="35.11"/>
  <rect class="cls-10" x="567.54" y="974.34" width="35.11" height="35.11"/>
  <rect class="cls-10" x="601.8" y="974.34" width="35.11" height="35.11"/>
  <rect class="cls-10" x="636.06" y="974.34" width="35.11" height="35.11"/>
  <rect class="cls-10" x="533.29" y="1008.6" width="35.11" height="35.11"/>
  <rect class="cls-10" x="567.54" y="1008.6" width="35.11" height="35.11"/>
  <rect class="cls-10" x="601.8" y="1008.6" width="35.11" height="35.11"/>
  <rect class="cls-10" x="636.06" y="1008.6" width="35.11" height="35.11"/>
  <rect class="cls-10" x="533.29" y="1042.85" width="35.11" height="35.11"/>
  <rect class="cls-10" x="567.54" y="1042.85" width="35.11" height="35.11"/>
  <rect class="cls-10" x="601.8" y="1042.85" width="35.11" height="35.11"/>
  <rect class="cls-10" x="636.06" y="1042.85" width="35.11" height="35.11"/>
  <rect class="cls-10" x="499.03" y="1077.11" width="35.11" height="35.11"/>
  <rect class="cls-10" x="533.29" y="1077.11" width="35.11" height="35.11"/>
  <rect class="cls-10" x="567.54" y="1077.11" width="35.11" height="35.11"/>
  <rect class="cls-10" x="601.8" y="1077.11" width="35.11" height="35.11"/>
  <rect class="cls-10" x="636.06" y="1077.11" width="35.11" height="35.11"/>
  <rect class="cls-10" x="670.31" y="1077.11" width="35.11" height="35.11"/>
  <rect class="cls-10" x="430.52" y="1111.37" width="35.11" height="35.11"/>
  <rect class="cls-10" x="464.78" y="1111.37" width="35.11" height="35.11"/>
  <rect class="cls-10" x="499.03" y="1111.37" width="35.11" height="35.11"/>
  <rect class="cls-10" x="533.29" y="1111.37" width="35.11" height="35.11"/>
  <rect class="cls-10" x="567.54" y="1111.37" width="35.11" height="35.11"/>
  <rect class="cls-10" x="601.8" y="1111.37" width="35.11" height="35.11"/>
  <rect class="cls-10" x="636.06" y="1111.37" width="35.11" height="35.11"/>
  <rect class="cls-10" x="670.31" y="1111.37" width="35.11" height="35.11"/>
  <rect class="cls-10" x="704.57" y="1111.37" width="35.11" height="35.11"/>
  <rect class="cls-10" x="738.83" y="1111.37" width="35.11" height="35.11"/>
  <rect class="cls-10" x="362.01" y="1145.62" width="35.11" height="35.11"/>
  <rect class="cls-10" x="396.26" y="1145.62" width="35.11" height="35.11"/>
  <rect class="cls-10" x="430.52" y="1145.62" width="35.11" height="35.11"/>
  <rect class="cls-10" x="464.78" y="1145.62" width="35.11" height="35.11"/>
  <rect class="cls-10" x="499.03" y="1145.62" width="35.11" height="35.11"/>
  <rect class="cls-10" x="533.29" y="1145.62" width="35.11" height="35.11"/>
  <rect class="cls-10" x="567.54" y="1145.62" width="35.11" height="35.11"/>
  <rect class="cls-10" x="601.8" y="1145.62" width="35.11" height="35.11"/>
  <rect class="cls-10" x="636.06" y="1145.62" width="35.11" height="35.11"/>
  <rect class="cls-10" x="670.31" y="1145.62" width="35.11" height="35.11"/>
  <rect class="cls-10" x="704.57" y="1145.62" width="35.11" height="35.11"/>
  <rect class="cls-10" x="738.83" y="1145.62" width="35.11" height="35.11"/>
  <rect class="cls-10" x="773.08" y="1145.62" width="35.11" height="35.11"/>
  <rect class="cls-10" x="807.34" y="1145.62" width="35.11" height="35.11"/>
  <rect class="cls-10" x="841.59" y="1145.62" width="35.11" height="35.11"/>
  <rect class="cls-10" x="293.49" y="1179.88" width="35.11" height="35.11"/>
  <rect class="cls-10" x="327.75" y="1179.88" width="35.11" height="35.11"/>
  <rect class="cls-10" x="362.01" y="1179.88" width="35.11" height="35.11"/>
  <rect class="cls-10" x="396.26" y="1179.88" width="35.11" height="35.11"/>
  <rect class="cls-10" x="430.52" y="1179.88" width="35.11" height="35.11"/>
  <rect class="cls-10" x="464.78" y="1179.88" width="35.11" height="35.11"/>
  <rect class="cls-10" x="499.03" y="1179.88" width="35.11" height="35.11"/>
  <rect class="cls-10" x="533.29" y="1179.88" width="35.11" height="35.11"/>
  <rect class="cls-10" x="567.54" y="1179.88" width="35.11" height="35.11"/>
  <rect class="cls-10" x="601.8" y="1179.88" width="35.11" height="35.11"/>
  <rect class="cls-10" x="636.06" y="1179.88" width="35.11" height="35.11"/>
  <rect class="cls-10" x="670.31" y="1179.88" width="35.11" height="35.11"/>
  <rect class="cls-10" x="704.57" y="1179.88" width="35.11" height="35.11"/>
  <rect class="cls-10" x="738.83" y="1179.88" width="35.11" height="35.11"/>
  <rect class="cls-10" x="773.08" y="1179.88" width="35.11" height="35.11"/>
  <rect class="cls-10" x="807.34" y="1179.88" width="35.11" height="35.11"/>
  <rect class="cls-10" x="841.59" y="1179.88" width="35.11" height="35.11"/>
  <rect class="cls-10" x="875.85" y="1179.88" width="35.11" height="35.11"/>
  <rect class="cls-10" x="910.11" y="1179.88" width="35.11" height="35.11"/>
  <rect class="cls-10" x="259.24" y="1214.14" width="35.11" height="35.11"/>
  <rect class="cls-10" x="293.49" y="1214.14" width="35.11" height="35.11"/>
  <rect class="cls-10" x="327.75" y="1214.14" width="35.11" height="35.11"/>
  <rect class="cls-10" x="362.01" y="1214.14" width="35.11" height="35.11"/>
  <rect class="cls-10" x="396.26" y="1214.14" width="35.11" height="35.11"/>
  <rect class="cls-10" x="430.52" y="1214.14" width="35.11" height="35.11"/>
  <rect class="cls-10" x="464.78" y="1214.14" width="35.11" height="35.11"/>
  <rect class="cls-10" x="499.03" y="1214.14" width="35.11" height="35.11"/>
  <rect class="cls-10" x="533.29" y="1214.14" width="35.11" height="35.11"/>
  <rect class="cls-10" x="567.54" y="1214.14" width="35.11" height="35.11"/>
  <rect class="cls-10" x="601.8" y="1214.14" width="35.11" height="35.11"/>
  <rect class="cls-10" x="636.06" y="1214.14" width="35.11" height="35.11"/>
  <rect class="cls-10" x="670.31" y="1214.14" width="35.11" height="35.11"/>
  <rect class="cls-10" x="704.57" y="1214.14" width="35.11" height="35.11"/>
  <rect class="cls-10" x="738.83" y="1214.14" width="35.11" height="35.11"/>
  <rect class="cls-10" x="773.08" y="1214.14" width="35.11" height="35.11"/>
  <rect class="cls-10" x="807.34" y="1214.14" width="35.11" height="35.11"/>
  <rect class="cls-10" x="841.59" y="1214.14" width="35.11" height="35.11"/>
  <rect class="cls-10" x="875.85" y="1214.14" width="35.11" height="35.11"/>
  <rect class="cls-10" x="910.11" y="1214.14" width="35.11" height="35.11"/>
  <rect class="cls-10" x="944.36" y="1214.14" width="35.11" height="35.11"/>
  <rect class="cls-10" x="259.24" y="1248.39" width="35.11" height="35.11"/>
  <rect class="cls-10" x="293.49" y="1248.39" width="35.11" height="35.11"/>
  <rect class="cls-10" x="327.75" y="1248.39" width="35.11" height="35.11"/>
  <rect class="cls-10" x="362.01" y="1248.39" width="35.11" height="35.11"/>
  <rect class="cls-10" x="396.26" y="1248.39" width="35.11" height="35.11"/>
  <rect class="cls-10" x="430.52" y="1248.39" width="35.11" height="35.11"/>
  <rect class="cls-10" x="464.78" y="1248.39" width="35.11" height="35.11"/>
  <rect class="cls-10" x="499.03" y="1248.39" width="35.11" height="35.11"/>
  <rect class="cls-10" x="533.29" y="1248.39" width="35.11" height="35.11"/>
  <rect class="cls-10" x="567.54" y="1248.39" width="35.11" height="35.11"/>
  <rect class="cls-10" x="601.8" y="1248.39" width="35.11" height="35.11"/>
  <rect class="cls-10" x="636.06" y="1248.39" width="35.11" height="35.11"/>
  <rect class="cls-10" x="670.31" y="1248.39" width="35.11" height="35.11"/>
  <rect class="cls-10" x="704.57" y="1248.39" width="35.11" height="35.11"/>
  <rect class="cls-10" x="738.83" y="1248.39" width="35.11" height="35.11"/>
  <rect class="cls-10" x="773.08" y="1248.39" width="35.11" height="35.11"/>
  <rect class="cls-10" x="807.34" y="1248.39" width="35.11" height="35.11"/>
  <rect class="cls-10" x="841.59" y="1248.39" width="35.11" height="35.11"/>
  <rect class="cls-10" x="875.85" y="1248.39" width="35.11" height="35.11"/>
  <rect class="cls-10" x="910.11" y="1248.39" width="35.11" height="35.11"/>
  <rect class="cls-10" x="944.36" y="1248.39" width="35.11" height="35.11"/>
  <rect class="cls-10" x="259.24" y="1282.65" width="35.11" height="35.11"/>
  <rect class="cls-10" x="293.49" y="1282.65" width="35.11" height="35.11"/>
  <rect class="cls-10" x="327.75" y="1282.65" width="35.11" height="35.11"/>
  <rect class="cls-10" x="362.01" y="1282.65" width="35.11" height="35.11"/>
  <rect class="cls-10" x="430.52" y="1282.65" width="35.11" height="35.11"/>
  <rect class="cls-10" x="464.78" y="1282.65" width="35.11" height="35.11"/>
  <rect class="cls-10" x="499.03" y="1282.65" width="35.11" height="35.11"/>
  <rect class="cls-10" x="533.29" y="1282.65" width="35.11" height="35.11"/>
  <rect class="cls-10" x="567.54" y="1282.65" width="35.11" height="35.11"/>
  <rect class="cls-10" x="601.8" y="1282.65" width="35.11" height="35.11"/>
  <rect class="cls-10" x="636.06" y="1282.65" width="35.11" height="35.11"/>
  <rect class="cls-10" x="704.57" y="1282.65" width="35.11" height="35.11"/>
  <rect class="cls-10" x="738.83" y="1282.65" width="35.11" height="35.11"/>
  <rect class="cls-10" x="773.08" y="1282.65" width="35.11" height="35.11"/>
  <rect class="cls-10" x="807.34" y="1282.65" width="35.11" height="35.11"/>
  <rect class="cls-10" x="841.59" y="1282.65" width="35.11" height="35.11"/>
  <rect class="cls-10" x="910.11" y="1282.65" width="35.11" height="35.11"/>
  <rect class="cls-10" x="944.36" y="1282.65" width="35.11" height="35.11"/>
  <rect class="cls-10" x="259.24" y="1316.9" width="35.11" height="35.11"/>
  <rect class="cls-10" x="293.49" y="1316.9" width="35.11" height="35.11"/>
  <rect class="cls-10" x="327.75" y="1316.9" width="35.11" height="35.11"/>
  <rect class="cls-10" x="362.01" y="1316.9" width="35.11" height="35.11"/>
  <rect class="cls-10" x="430.52" y="1316.9" width="35.11" height="35.11"/>
  <rect class="cls-10" x="464.78" y="1316.9" width="35.11" height="35.11"/>
  <rect class="cls-10" x="499.03" y="1316.9" width="35.11" height="35.11"/>
  <rect class="cls-10" x="533.29" y="1316.9" width="35.11" height="35.11"/>
  <rect class="cls-10" x="567.54" y="1316.9" width="35.11" height="35.11"/>
  <rect class="cls-10" x="601.8" y="1316.9" width="35.11" height="35.11"/>
  <rect class="cls-10" x="636.06" y="1316.9" width="35.11" height="35.11"/>
  <rect class="cls-10" x="704.57" y="1316.9" width="35.11" height="35.11"/>
  <rect class="cls-10" x="738.83" y="1316.9" width="35.11" height="35.11"/>
  <rect class="cls-10" x="773.08" y="1316.9" width="35.11" height="35.11"/>
  <rect class="cls-10" x="807.34" y="1316.9" width="35.11" height="35.11"/>
  <rect class="cls-10" x="841.59" y="1316.9" width="35.11" height="35.11"/>
  <rect class="cls-10" x="910.11" y="1316.9" width="35.11" height="35.11"/>
  <rect class="cls-10" x="944.36" y="1316.9" width="35.11" height="35.11"/>
  <rect class="cls-7" x="259.24" y="1351.16" width="35.11" height="32.46"/>
  <rect class="cls-6" x="293.49" y="1351.16" width="35.11" height="32.54"/>
  <rect class="cls-8" x="327.75" y="1351.16" width="35.11" height="31.68"/>
  <rect class="cls-8" x="362.01" y="1351.16" width="35.11" height="31.68"/>
  <rect class="cls-5" x="430.52" y="1351.16" width="35.11" height="32.7"/>
  <rect class="cls-5" x="464.78" y="1351.16" width="35.11" height="32.7"/>
  <rect class="cls-5" x="499.03" y="1351.16" width="35.11" height="32.7"/>
  <rect class="cls-5" x="533.29" y="1351.16" width="35.11" height="32.7"/>
  <rect class="cls-5" x="567.54" y="1351.16" width="35.11" height="32.7"/>
  <rect class="cls-5" x="601.8" y="1351.16" width="35.11" height="32.7"/>
  <rect class="cls-5" x="636.06" y="1351.16" width="35.11" height="32.7"/>
  <rect class="cls-5" x="704.57" y="1351.16" width="35.11" height="32.7"/>
  <rect class="cls-5" x="738.83" y="1351.16" width="35.11" height="32.7"/>
  <rect class="cls-5" x="773.08" y="1351.16" width="35.11" height="32.7"/>
  <rect class="cls-5" x="807.34" y="1351.16" width="35.11" height="32.7"/>
  <rect class="cls-5" x="841.59" y="1351.16" width="35.11" height="32.7"/>
  <rect class="cls-4" x="910.11" y="1351.16" width="35.11" height="32.36"/>
  <rect class="cls-4" x="944.36" y="1351.16" width="35.11" height="32.36"/>
  <g>
    <rect class="cls-9" x="533.29" y="323.47" width="35.11" height="35.11"/>
    <rect class="cls-3" x="533.29" y="323.47" width="35.11" height="35.11"/>
  </g>
  <g>
    <rect class="cls-9" x="567.54" y="323.47" width="35.11" height="35.11"/>
    <rect class="cls-3" x="567.54" y="323.47" width="35.11" height="35.11"/>
  </g>
  <g>
    <rect class="cls-9" x="601.8" y="323.47" width="35.11" height="35.11"/>
    <rect class="cls-3" x="601.8" y="323.47" width="35.11" height="35.11"/>
  </g>
  <g>
    <rect class="cls-9" x="636.06" y="323.47" width="35.11" height="35.11"/>
    <rect class="cls-3" x="636.06" y="323.47" width="35.11" height="35.11"/>
  </g>
  <g>
    <rect class="cls-9" x="670.31" y="323.47" width="35.11" height="35.11"/>
    <rect class="cls-3" x="670.31" y="323.47" width="35.11" height="35.11"/>
  </g>
  <g>
    <rect class="cls-9" x="704.57" y="323.47" width="35.11" height="35.11"/>
    <rect class="cls-3" x="704.57" y="323.47" width="35.11" height="35.11"/>
  </g>
  <g>
    <rect class="cls-9" x="738.83" y="323.47" width="35.11" height="35.11"/>
    <rect class="cls-3" x="738.83" y="323.47" width="35.11" height="35.11"/>
  </g>
  <g>
    <rect class="cls-9" x="773.08" y="323.47" width="35.11" height="35.11"/>
    <rect class="cls-3" x="773.08" y="323.47" width="35.11" height="35.11"/>
  </g>
  <g>
    <rect class="cls-9" x="807.34" y="323.47" width="35.11" height="35.11"/>
    <rect class="cls-3" x="807.34" y="323.47" width="35.11" height="35.11"/>
  </g>
  <g>
    <rect class="cls-9" x="499.03" y="357.73" width="35.11" height="35.11"/>
    <rect class="cls-3" x="499.03" y="357.73" width="35.11" height="35.11"/>
  </g>
  <g>
    <rect class="cls-9" x="841.59" y="357.73" width="35.11" height="35.11"/>
    <rect class="cls-3" x="841.59" y="357.73" width="35.11" height="35.11"/>
  </g>
  <g>
    <rect class="cls-9" x="464.78" y="391.99" width="35.11" height="35.11"/>
    <rect class="cls-3" x="464.78" y="391.99" width="35.11" height="35.11"/>
  </g>
  <g>
    <rect class="cls-9" x="875.85" y="391.99" width="35.11" height="35.11"/>
    <rect class="cls-3" x="875.85" y="391.99" width="35.11" height="35.11"/>
  </g>
  <g>
    <rect class="cls-9" x="464.78" y="426.24" width="35.11" height="35.11"/>
    <rect class="cls-3" x="464.78" y="426.24" width="35.11" height="35.11"/>
  </g>
  <g>
    <rect class="cls-9" x="875.85" y="426.24" width="35.11" height="35.11"/>
    <rect class="cls-3" x="875.85" y="426.24" width="35.11" height="35.11"/>
  </g>
  <g>
    <rect class="cls-9" x="464.78" y="460.5" width="35.11" height="35.11"/>
    <rect class="cls-3" x="464.78" y="460.5" width="35.11" height="35.11"/>
  </g>
  <g>
    <rect class="cls-9" x="875.85" y="460.5" width="35.11" height="35.11"/>
    <rect class="cls-3" x="875.85" y="460.5" width="35.11" height="35.11"/>
  </g>
  <g>
    <rect class="cls-9" x="464.78" y="494.75" width="35.11" height="35.11"/>
    <rect class="cls-3" x="464.78" y="494.75" width="35.11" height="35.11"/>
  </g>
  <g>
    <rect class="cls-9" x="875.85" y="494.75" width="35.11" height="35.11"/>
    <rect class="cls-3" x="875.85" y="494.75" width="35.11" height="35.11"/>
  </g>
  <g>
    <rect class="cls-9" x="464.78" y="529.01" width="35.11" height="35.11"/>
    <rect class="cls-3" x="464.78" y="529.01" width="35.11" height="35.11"/>
  </g>
  <g>
    <rect class="cls-9" x="875.85" y="529.01" width="35.11" height="35.11"/>
    <rect class="cls-3" x="875.85" y="529.01" width="35.11" height="35.11"/>
  </g>
  <g>
    <rect class="cls-9" x="464.78" y="563.27" width="35.11" height="35.11"/>
    <rect class="cls-3" x="464.78" y="563.27" width="35.11" height="35.11"/>
  </g>
  <g>
    <rect class="cls-9" x="499.03" y="563.27" width="35.11" height="35.11"/>
    <rect class="cls-3" x="499.03" y="563.27" width="35.11" height="35.11"/>
  </g>
  <g>
    <rect class="cls-9" x="875.85" y="563.27" width="35.11" height="35.11"/>
    <rect class="cls-3" x="875.85" y="563.27" width="35.11" height="35.11"/>
  </g>
  <g>
    <rect class="cls-9" x="430.52" y="597.52" width="35.11" height="35.11"/>
    <rect class="cls-3" x="430.52" y="597.52" width="35.11" height="35.11"/>
  </g>
  <g>
    <rect class="cls-9" x="636.06" y="597.52" width="35.11" height="35.11"/>
    <rect class="cls-3" x="636.06" y="597.52" width="35.11" height="35.11"/>
  </g>
  <g>
    <rect class="cls-9" x="807.34" y="597.52" width="35.11" height="35.11"/>
    <rect class="cls-3" x="807.34" y="597.52" width="35.11" height="35.11"/>
  </g>
  <g>
    <rect class="cls-9" x="875.85" y="597.52" width="35.11" height="35.11"/>
    <rect class="cls-3" x="875.85" y="597.52" width="35.11" height="35.11"/>
  </g>
  <g>
    <rect class="cls-9" x="430.52" y="631.78" width="35.11" height="35.11"/>
    <rect class="cls-3" x="430.52" y="631.78" width="35.11" height="35.11"/>
  </g>
  <g>
    <rect class="cls-9" x="875.85" y="631.78" width="35.11" height="35.11"/>
    <rect class="cls-3" x="875.85" y="631.78" width="35.11" height="35.11"/>
  </g>
  <g>
    <rect class="cls-9" x="430.52" y="666.04" width="35.11" height="35.11"/>
    <rect class="cls-3" x="430.52" y="666.04" width="35.11" height="35.11"/>
  </g>
  <g>
    <rect class="cls-9" x="738.83" y="666.04" width="35.11" height="35.11"/>
    <rect class="cls-3" x="738.83" y="666.04" width="35.11" height="35.11"/>
  </g>
  <g>
    <rect class="cls-9" x="875.85" y="666.04" width="35.11" height="35.11"/>
    <rect class="cls-3" x="875.85" y="666.04" width="35.11" height="35.11"/>
  </g>
  <g>
    <rect class="cls-9" x="464.78" y="700.29" width="35.11" height="35.11"/>
    <rect class="cls-3" x="464.78" y="700.29" width="35.11" height="35.11"/>
  </g>
  <g>
    <rect class="cls-9" x="499.03" y="700.29" width="35.11" height="35.11"/>
    <rect class="cls-3" x="499.03" y="700.29" width="35.11" height="35.11"/>
  </g>
  <g>
    <rect class="cls-9" x="738.83" y="700.29" width="35.11" height="35.11"/>
    <rect class="cls-3" x="738.83" y="700.29" width="35.11" height="35.11"/>
  </g>
  <g>
    <rect class="cls-9" x="773.08" y="700.29" width="35.11" height="35.11"/>
    <rect class="cls-3" x="773.08" y="700.29" width="35.11" height="35.11"/>
  </g>
  <g>
    <rect class="cls-9" x="875.85" y="700.29" width="35.11" height="35.11"/>
    <rect class="cls-3" x="875.85" y="700.29" width="35.11" height="35.11"/>
  </g>
  <g>
    <rect class="cls-9" x="499.03" y="734.55" width="35.11" height="35.11"/>
    <rect class="cls-3" x="499.03" y="734.55" width="35.11" height="35.11"/>
  </g>
  <g>
    <rect class="cls-9" x="875.85" y="734.55" width="35.11" height="35.11"/>
    <rect class="cls-3" x="875.85" y="734.55" width="35.11" height="35.11"/>
  </g>
  <g>
    <rect class="cls-9" x="499.03" y="768.8" width="35.11" height="35.11"/>
    <rect class="cls-3" x="499.03" y="768.8" width="35.11" height="35.11"/>
  </g>
  <g>
    <rect class="cls-9" x="875.85" y="768.8" width="35.11" height="35.11"/>
    <rect class="cls-3" x="875.85" y="768.8" width="35.11" height="35.11"/>
  </g>
  <g>
    <rect class="cls-9" x="499.03" y="803.06" width="35.11" height="35.11"/>
    <rect class="cls-3" x="499.03" y="803.06" width="35.11" height="35.11"/>
  </g>
  <g>
    <rect class="cls-9" x="704.57" y="803.06" width="35.11" height="35.11"/>
    <rect class="cls-3" x="704.57" y="803.06" width="35.11" height="35.11"/>
  </g>
  <g>
    <rect class="cls-9" x="738.83" y="803.06" width="35.11" height="35.11"/>
    <rect class="cls-3" x="738.83" y="803.06" width="35.11" height="35.11"/>
  </g>
  <g>
    <rect class="cls-9" x="773.08" y="803.06" width="35.11" height="35.11"/>
    <rect class="cls-3" x="773.08" y="803.06" width="35.11" height="35.11"/>
  </g>
  <g>
    <rect class="cls-9" x="807.34" y="803.06" width="35.11" height="35.11"/>
    <rect class="cls-3" x="807.34" y="803.06" width="35.11" height="35.11"/>
  </g>
  <g>
    <rect class="cls-9" x="875.85" y="803.06" width="35.11" height="35.11"/>
    <rect class="cls-3" x="875.85" y="803.06" width="35.11" height="35.11"/>
  </g>
  <g>
    <rect class="cls-9" x="499.03" y="837.32" width="35.11" height="35.11"/>
    <rect class="cls-3" x="499.03" y="837.32" width="35.11" height="35.11"/>
  </g>
  <g>
    <rect class="cls-9" x="875.85" y="837.32" width="35.11" height="35.11"/>
    <rect class="cls-3" x="875.85" y="837.32" width="35.11" height="35.11"/>
  </g>
  <g>
    <rect class="cls-9" x="499.03" y="871.57" width="35.11" height="35.11"/>
    <rect class="cls-3" x="499.03" y="871.57" width="35.11" height="35.11"/>
  </g>
  <g>
    <rect class="cls-9" x="875.85" y="871.57" width="35.11" height="35.11"/>
    <rect class="cls-3" x="875.85" y="871.57" width="35.11" height="35.11"/>
  </g>
  <g>
    <rect class="cls-9" x="499.03" y="905.83" width="35.11" height="35.11"/>
    <rect class="cls-3" x="499.03" y="905.83" width="35.11" height="35.11"/>
  </g>
  <g>
    <rect class="cls-9" x="567.54" y="905.83" width="35.11" height="35.11"/>
    <rect class="cls-3" x="567.54" y="905.83" width="35.11" height="35.11"/>
  </g>
  <g>
    <rect class="cls-9" x="841.59" y="905.83" width="35.11" height="35.11"/>
    <rect class="cls-3" x="841.59" y="905.83" width="35.11" height="35.11"/>
  </g>
  <g>
    <rect class="cls-9" x="499.03" y="940.09" width="35.11" height="35.11"/>
    <rect class="cls-3" x="499.03" y="940.09" width="35.11" height="35.11"/>
  </g>
  <g>
    <rect class="cls-9" x="601.8" y="940.09" width="35.11" height="35.11"/>
    <rect class="cls-3" x="601.8" y="940.09" width="35.11" height="35.11"/>
  </g>
  <g>
    <rect class="cls-9" x="636.06" y="940.09" width="35.11" height="35.11"/>
    <rect class="cls-3" x="636.06" y="940.09" width="35.11" height="35.11"/>
  </g>
  <g>
    <rect class="cls-9" x="670.31" y="940.09" width="35.11" height="35.11"/>
    <rect class="cls-3" x="670.31" y="940.09" width="35.11" height="35.11"/>
  </g>
  <g>
    <rect class="cls-9" x="704.57" y="940.09" width="35.11" height="35.11"/>
    <rect class="cls-3" x="704.57" y="940.09" width="35.11" height="35.11"/>
  </g>
  <g>
    <rect class="cls-9" x="738.83" y="940.09" width="35.11" height="35.11"/>
    <rect class="cls-3" x="738.83" y="940.09" width="35.11" height="35.11"/>
  </g>
  <g>
    <rect class="cls-9" x="773.08" y="940.09" width="35.11" height="35.11"/>
    <rect class="cls-3" x="773.08" y="940.09" width="35.11" height="35.11"/>
  </g>
  <g>
    <rect class="cls-9" x="807.34" y="940.09" width="35.11" height="35.11"/>
    <rect class="cls-3" x="807.34" y="940.09" width="35.11" height="35.11"/>
  </g>
  <g>
    <rect class="cls-9" x="499.03" y="974.34" width="35.11" height="35.11"/>
    <rect class="cls-3" x="499.03" y="974.34" width="35.11" height="35.11"/>
  </g>
  <g>
    <rect class="cls-9" x="670.31" y="974.34" width="35.11" height="35.11"/>
    <rect class="cls-3" x="670.31" y="974.34" width="35.11" height="35.11"/>
  </g>
  <g>
    <rect class="cls-9" x="499.03" y="1008.6" width="35.11" height="35.11"/>
    <rect class="cls-3" x="499.03" y="1008.6" width="35.11" height="35.11"/>
  </g>
  <g>
    <rect class="cls-9" x="670.31" y="1008.6" width="35.11" height="35.11"/>
    <rect class="cls-3" x="670.31" y="1008.6" width="35.11" height="35.11"/>
  </g>
  <g>
    <rect class="cls-9" x="499.03" y="1042.85" width="35.11" height="35.11"/>
    <rect class="cls-3" x="499.03" y="1042.85" width="35.11" height="35.11"/>
  </g>
  <g>
    <rect class="cls-9" x="670.31" y="1042.85" width="35.11" height="35.11"/>
    <rect class="cls-3" x="670.31" y="1042.85" width="35.11" height="35.11"/>
  </g>
  <g>
    <rect class="cls-9" x="430.52" y="1077.11" width="35.11" height="35.11"/>
    <rect class="cls-3" x="430.52" y="1077.11" width="35.11" height="35.11"/>
  </g>
  <g>
    <rect class="cls-9" x="464.78" y="1077.11" width="35.11" height="35.11"/>
    <rect class="cls-3" x="464.78" y="1077.11" width="35.11" height="35.11"/>
  </g>
  <g>
    <rect class="cls-9" x="704.57" y="1077.11" width="35.11" height="35.11"/>
    <rect class="cls-3" x="704.57" y="1077.11" width="35.11" height="35.11"/>
  </g>
  <g>
    <rect class="cls-9" x="738.83" y="1077.11" width="35.11" height="35.11"/>
    <rect class="cls-3" x="738.83" y="1077.11" width="35.11" height="35.11"/>
  </g>
  <g>
    <rect class="cls-9" x="362.01" y="1111.37" width="35.11" height="35.11"/>
    <rect class="cls-3" x="362.01" y="1111.37" width="35.11" height="35.11"/>
  </g>
  <g>
    <rect class="cls-9" x="396.26" y="1111.37" width="35.11" height="35.11"/>
    <rect class="cls-3" x="396.26" y="1111.37" width="35.11" height="35.11"/>
  </g>
  <g>
    <rect class="cls-9" x="773.08" y="1111.37" width="35.11" height="35.11"/>
    <rect class="cls-3" x="773.08" y="1111.37" width="35.11" height="35.11"/>
  </g>
  <g>
    <rect class="cls-9" x="807.34" y="1111.37" width="35.11" height="35.11"/>
    <rect class="cls-3" x="807.34" y="1111.37" width="35.11" height="35.11"/>
  </g>
  <g>
    <rect class="cls-9" x="841.59" y="1111.37" width="35.11" height="35.11"/>
    <rect class="cls-3" x="841.59" y="1111.37" width="35.11" height="35.11"/>
  </g>
  <g>
    <rect class="cls-9" x="293.49" y="1145.62" width="35.11" height="35.11"/>
    <rect class="cls-3" x="293.49" y="1145.62" width="35.11" height="35.11"/>
  </g>
  <g>
    <rect class="cls-9" x="327.75" y="1145.62" width="35.11" height="35.11"/>
    <rect class="cls-3" x="327.75" y="1145.62" width="35.11" height="35.11"/>
  </g>
  <g>
    <rect class="cls-9" x="875.85" y="1145.62" width="35.11" height="35.11"/>
    <rect class="cls-3" x="875.85" y="1145.62" width="35.11" height="35.11"/>
  </g>
  <g>
    <rect class="cls-9" x="910.11" y="1145.62" width="35.11" height="35.11"/>
    <rect class="cls-3" x="910.11" y="1145.62" width="35.11" height="35.11"/>
  </g>
  <g>
    <rect class="cls-9" x="259.24" y="1179.88" width="35.11" height="35.11"/>
    <rect class="cls-3" x="259.24" y="1179.88" width="35.11" height="35.11"/>
  </g>
  <g>
    <rect class="cls-9" x="944.36" y="1179.88" width="35.11" height="35.11"/>
    <rect class="cls-3" x="944.36" y="1179.88" width="35.11" height="35.11"/>
  </g>
  <g>
    <rect class="cls-9" x="224.98" y="1214.14" width="35.11" height="35.11"/>
    <rect class="cls-3" x="224.98" y="1214.14" width="35.11" height="35.11"/>
  </g>
  <g>
    <rect class="cls-9" x="978.62" y="1214.14" width="35.11" height="35.11"/>
    <rect class="cls-3" x="978.62" y="1214.14" width="35.11" height="35.11"/>
  </g>
  <g>
    <rect class="cls-9" x="224.98" y="1248.39" width="35.11" height="35.11"/>
    <rect class="cls-3" x="224.98" y="1248.39" width="35.11" height="35.11"/>
  </g>
  <g>
    <rect class="cls-9" x="978.62" y="1248.39" width="35.11" height="35.11"/>
    <rect class="cls-3" x="978.62" y="1248.39" width="35.11" height="35.11"/>
  </g>
  <g>
    <rect class="cls-9" x="224.98" y="1282.65" width="35.11" height="35.11"/>
    <rect class="cls-3" x="224.98" y="1282.65" width="35.11" height="35.11"/>
  </g>
  <g>
    <rect class="cls-9" x="396.26" y="1282.65" width="35.11" height="35.11"/>
    <rect class="cls-3" x="396.26" y="1282.65" width="35.11" height="35.11"/>
  </g>
  <g>
    <rect class="cls-9" x="670.31" y="1282.65" width="35.11" height="35.11"/>
    <rect class="cls-3" x="670.31" y="1282.65" width="35.11" height="35.11"/>
  </g>
  <g>
    <rect class="cls-9" x="875.85" y="1282.65" width="35.11" height="35.11"/>
    <rect class="cls-3" x="875.85" y="1282.65" width="35.11" height="35.11"/>
  </g>
  <g>
    <rect class="cls-9" x="978.62" y="1282.65" width="35.11" height="35.11"/>
    <rect class="cls-3" x="978.62" y="1282.65" width="35.11" height="35.11"/>
  </g>
  <g>
    <rect class="cls-9" x="224.98" y="1316.9" width="35.11" height="35.11"/>
    <rect class="cls-3" x="224.98" y="1316.9" width="35.11" height="35.11"/>
  </g>
  <g>
    <rect class="cls-9" x="396.26" y="1316.9" width="35.11" height="35.11"/>
    <rect class="cls-3" x="396.26" y="1316.9" width="35.11" height="35.11"/>
  </g>
  <g>
    <rect class="cls-9" x="670.31" y="1316.9" width="35.11" height="35.11"/>
    <rect class="cls-3" x="670.31" y="1316.9" width="35.11" height="35.11"/>
  </g>
  <g>
    <rect class="cls-9" x="875.85" y="1316.9" width="35.11" height="35.11"/>
    <rect class="cls-3" x="875.85" y="1316.9" width="35.11" height="35.11"/>
  </g>
  <g>
    <rect class="cls-9" x="978.62" y="1316.9" width="35.11" height="35.11"/>
    <rect class="cls-3" x="978.62" y="1316.9" width="35.11" height="35.11"/>
  </g>
  <g>
    <rect class="cls-9" x="224.98" y="1351.16" width="35.11" height="35.11"/>
    <rect class="cls-3" x="224.98" y="1351.16" width="35.11" height="35.11"/>
  </g>
  <g>
    <rect class="cls-9" x="396.26" y="1351.16" width="35.11" height="35.11"/>
    <rect class="cls-3" x="396.26" y="1351.16" width="35.11" height="35.11"/>
  </g>
  <g>
    <rect class="cls-9" x="670.31" y="1351.16" width="35.11" height="35.11"/>
    <rect class="cls-3" x="670.31" y="1351.16" width="35.11" height="35.11"/>
  </g>
  <g>
    <rect class="cls-9" x="875.85" y="1351.16" width="35.11" height="35.11"/>
    <rect class="cls-3" x="875.85" y="1351.16" width="35.11" height="35.11"/>
  </g>
  <g>
    <rect class="cls-9" x="978.62" y="1351.16" width="35.11" height="35.11"/>
    <rect class="cls-3" x="978.62" y="1351.16" width="35.11" height="35.11"/>
  </g>
  <g>
    <path d="M1321.41,0v5.02l-1316.41-.02v61h1316.41v1320H0V0h1321.41ZM50,71H5v45h45v-45ZM101,71h-46v45h495v-45h-41v15c0,.25-5,.25-5,0v-15h-45v15c0,.25-5,.25-5,0v-15h-45v15c0,.25-5,.25-5,0v-15h-46v15c0,.25-5,.25-5,0v-15h-45v30c0,.25-5,.25-5,0v-30h-46v15c0,.25-5,.25-5,0v-15h-45v15c0,.25-5,.25-5,0v-15h-46v15c0,.25-5,.25-5,0v-15h-45c.06,2.22-.45,15-.45,15h-4.55v-15ZM600,71h-45v45h494v-45h-40v15c0,.25-5,.25-5,0v-15h-46v15c0,.25-5,.25-5,0v-15h-45v15c0,.25-5,.25-5,0v-15h-45v15c0,.25-5,.25-5,0v-15h-46v30c0,.25-5,.25-5,0v-30h-45v15c0,.25-5,.25-5,0v-15h-46v15c0,.25-5,.25-5,0v-15h-45v15c0,.25-5,.25-5,0v-15h-46v15c0,.25-5,.25-5,0v-15ZM1100,71h-46v45h263v-45h-10v30c0,.3-6,.3-6,0v-30h-45v15c0,.25-5,.25-5,0v-15h-46v15h-5v-15h-45v15c0,.25-5,.25-5,0v-15h-45v15c0,.25-5,.25-5,0v-15ZM50,121H5v46h15c.25,0,.25,5,0,5H5v45h15c.25,0,.25,5,0,5H5v46h15c.25,0,.25,5,0,5H5v45h15c.25,0,.25,5,0,5H5v44.5c0,.11-.11,1.5,0,1.5h30c.25,0,.25,5,0,5H5v45h15c.25,0,.25,5,0,5H5v45h15c.25,0,.25,5,0,5H5v46h15c.25,0,.25,5,0,5H5v45h15c.25,0,.25,5,0,5H5v46h45V121ZM1317,1382V122.5c0-.11.11-1.5,0-1.5H55c-.11,0,0,1.39,0,1.5v1259.5h1262ZM50,626H5v40h15c.25,0,.25,5,0,5H5v45h15c.25,0,.18,4.83,0,5.01-.71.71-15-1.4-15,1.49v44.5h15c.25,0,.25,5,0,5H5v45h15c1.01,2.02,0,5.41,0,5.41H5v45.59h30c.25,0,.25,5,0,5H5v45h15c.25,0,.25,5,0,5H5v46h15c.25,0,.25,5,0,5H5v45h15c.25,0,.25,5,0,5H5v46h15c.25,0,.25,5,0,5H5v45h45v-494ZM50,1125H5v40h15c.25,0,.25,5,0,5H5v46h15c.25,0,.25,5,0,5H5v45h15c.25,0,.25,5,0,5H5v46h15c.25,0,.25,5,0,5H5v45h30c.25,0,.25,5,0,5H5c-.5,0-.5,10,0,10h45v-257Z"/>
    <rect x="81" y="10" width="1240.41" height="5"/>
    <path d="M1321.41,20v5H81c-.25,0,0-5,0-5h1240.41Z"/>
    <rect x="81" y="30" width="1240.41" height="5"/>
    <rect x="81" y="41" width="1240.41" height="5"/>
    <rect x="81" y="51" width="1240.41" height="5"/>
    <path d="M24.99,14.77c.14.2.24,36.07,0,36.23-1.07-.13-5,0-5,0l-.02-36.23s3.71.16,5.02,0Z"/>
    <path d="M24.99,14.77v-4.8l35.01.02s-.13,3.71,0,4.78c-.13.1-35.01,0-35.01,0Z"/>
    <path d="M60,51.01c-.07,1.15,0,5,0,5H24.99v-5s35.08.14,35.01,0Z"/>
    <path d="M60,51.01c-.13.04-.13-36.13,0-36.23-.23-.1,5,0,5,0v36.23h-5Z"/>
    <path class="cls-9" d="M50,1125v257H5c-.5,0-.5-10,0-10h30c.25,0,.25-5,0-5H5v-45h15c.25,0,.25-5,0-5H5v-46h15c.25,0,.25-5,0-5H5v-45h15c.25,0,.25-5,0-5H5v-46h15c.25,0,.25-5,0-5H5v-40h45Z"/>
    <rect class="cls-9" x="5" y="71" width="45" height="45"/>
  </g>
</svg>