<?xml version="1.0" encoding="UTF-8"?><svg id="Ebene_2" xmlns="http://www.w3.org/2000/svg" viewBox="0 0 454.74 99.2"><defs><style>.cls-1{isolation:isolate;}.cls-2{fill:#95c11f;}</style></defs><g id="Ebene_1-2"><rect class="cls-2" x="170.1" y="56.7" width="14.2" height="28.3"/><polygon class="cls-2" points="70.9 14.2 56.7 14.2 56.7 0 42.5 0 42.5 14.2 28.3 14.2 28.3 28.4 56.7 28.4 56.7 42.6 70.9 42.6 70.9 28.4 70.9 28.4 70.9 14.2"/><polygon class="cls-2" points="70.9 70.9 42.5 70.9 42.5 56.7 28.3 56.7 28.3 70.9 28.3 70.9 28.3 85.1 42.5 85.1 42.5 99.2 56.7 99.2 56.7 85.1 70.9 85.1 70.9 70.9"/><rect class="cls-2" x="85" y="14.2" width="42.5" height="14.2"/><rect class="cls-2" x="85" y="42.6" width="42.5" height="14.2"/><polygon class="cls-2" points="170.1 14.2 155.9 14.2 141.7 14.2 141.7 28.4 141.7 42.6 141.7 56.7 141.7 85.1 155.9 85.1 155.9 56.7 170.1 56.7 170.1 42.6 155.9 42.6 155.9 28.4 170.1 28.4 170.1 42.6 184.2 42.6 184.2 28.4 184.2 14.2 170.1 14.2"/><path class="cls-2" d="M226.8,14.2h-28.3v70.9h42.5V14.2h-14.2ZM226.8,56.7v14.2h-14.2V28.4h14.2v28.4-.1Z"/><rect class="cls-2" x="85" y="70.9" width="42.5" height="14.2"/><polygon class="cls-2" points="28.3 14.2 28.3 0 14.2 0 8.6 0 0 0 0 99.2 12.4 99.2 14.2 99.2 28.3 99.2 28.3 85.1 14.2 85.1 14.2 14.2 28.3 14.2"/><rect class="cls-2" x="42.5" y="42.6" width="14.2" height="14.2"/><polygon class="cls-2" points="445.14 0 440.54 0 426.34 0 426.34 14.2 440.54 14.2 440.54 85.1 426.34 85.1 426.34 99.2 440.54 99.2 445.14 99.2 454.74 99.2 454.74 0 445.14 0"/><g class="cls-1"><g class="cls-1"><path class="cls-2" d="M269.89,74.18h33.3v11.08h-47.07V14.17h13.77v60.01Z"/><path class="cls-2" d="M350.17,70.42h-21.34l-4.2,14.84h-14.45l23.29-71.09h12.45l22.85,71.09h-14.45l-4.15-14.84ZM332.2,58.75h14.75l-7.28-26.17-7.47,26.17Z"/><path class="cls-2" d="M375.12,85.26V14.17h23.88c3.87,0,7.4.39,10.57,1.17s5.88,1.97,8.13,3.56c2.25,1.6,3.98,3.61,5.2,6.05s1.83,5.32,1.83,8.64c-.03,3.32-.92,6.3-2.66,8.94-1.74,2.64-4.31,4.64-7.69,6.01,2.05.52,3.82,1.3,5.32,2.34,1.5,1.04,2.74,2.27,3.74,3.69.99,1.42,1.72,2.96,2.2,4.64.47,1.68.71,3.41.71,5.2,0,3.42-.59,6.43-1.76,9.03-1.17,2.6-2.85,4.79-5.03,6.54-2.18,1.76-4.83,3.08-7.96,3.96s-6.64,1.32-10.55,1.32h-25.93ZM388.89,44h10.21c3.81-.03,6.74-.83,8.79-2.39s3.09-3.86,3.12-6.88c0-3.32-1.03-5.7-3.08-7.15-2.05-1.45-5.01-2.19-8.89-2.22h-10.16v18.65ZM388.89,53.92v20.26h12.21c3.74-.03,6.6-.95,8.57-2.76,1.97-1.81,2.95-4.17,2.95-7.1.03-3.25-.85-5.79-2.64-7.62-1.79-1.82-4.56-2.75-8.3-2.78h-12.79Z"/></g></g></g></svg>