<?xml version="1.0" encoding="UTF-8"?>
<!-- Generated from: Golden_Shuriken.png -->
<!-- Dimensions: 37x37 pixels (34 merged rects) -->
<!-- Rect size: 1 -->
<svg xmlns="http://www.w3.org/2000/svg" viewBox="0 0 37 37">
  <style>
    rect { shape-rendering: crispEdges; }
    svg { image-rendering: pixelated; image-rendering: -moz-crisp-edges; image-rendering: crisp-edges; }
  </style>
  <g id="pixels">
    <rect x="31.00" y="1.00" width="1.00" height="1" fill="rgba(180,158,0,1.00)"/>
    <rect x="30.00" y="2.00" width="1.00" height="1" fill="rgba(147,130,0,1.00)"/>
    <rect x="31.00" y="2.00" width="1.00" height="1" fill="rgba(204,181,0,1.00)"/>
    <rect x="32.00" y="2.00" width="1.00" height="1" fill="rgba(253,224,74,1.00)"/>
    <rect x="30.00" y="3.00" width="1.00" height="1" fill="rgba(127,112,0,1.00)"/>
    <rect x="31.00" y="3.00" width="1.00" height="1" fill="rgba(204,181,0,1.00)"/>
    <rect x="32.00" y="3.00" width="1.00" height="1" fill="rgba(253,224,46,1.00)"/>
    <rect x="28.00" y="4.00" width="1.00" height="1" fill="rgba(253,224,74,1.00)"/>
    <rect x="29.00" y="4.00" width="1.00" height="1" fill="rgba(253,224,46,1.00)"/>
    <rect x="30.00" y="4.00" width="1.00" height="1" fill="rgba(253,224,32,1.00)"/>
    <rect x="31.00" y="4.00" width="1.00" height="1" fill="rgba(180,158,0,1.00)"/>
    <rect x="32.00" y="4.00" width="1.00" height="1" fill="rgba(253,224,32,1.00)"/>
    <rect x="33.00" y="4.00" width="1.00" height="1" fill="rgba(101,90,0,1.00)"/>
    <rect x="34.00" y="4.00" width="1.00" height="1" fill="rgba(145,128,0,1.00)"/>
    <rect x="27.00" y="5.00" width="1.00" height="1" fill="rgba(180,158,0,1.00)"/>
    <rect x="28.00" y="5.00" width="2.00" height="1" fill="rgba(204,181,0,1.00)"/>
    <rect x="30.00" y="5.00" width="1.00" height="1" fill="rgba(180,158,0,1.00)"/>
    <rect x="32.00" y="5.00" width="1.00" height="1" fill="rgba(180,158,0,1.00)"/>
    <rect x="33.00" y="5.00" width="2.00" height="1" fill="rgba(204,181,0,1.00)"/>
    <rect x="35.00" y="5.00" width="1.00" height="1" fill="rgba(180,158,0,1.00)"/>
    <rect x="28.00" y="6.00" width="1.00" height="1" fill="rgba(145,128,0,1.00)"/>
    <rect x="29.00" y="6.00" width="1.00" height="1" fill="rgba(101,90,0,1.00)"/>
    <rect x="30.00" y="6.00" width="1.00" height="1" fill="rgba(253,224,32,1.00)"/>
    <rect x="31.00" y="6.00" width="1.00" height="1" fill="rgba(180,158,0,1.00)"/>
    <rect x="32.00" y="6.00" width="1.00" height="1" fill="rgba(253,224,18,1.00)"/>
    <rect x="33.00" y="6.00" width="1.00" height="1" fill="rgba(253,224,46,1.00)"/>
    <rect x="34.00" y="6.00" width="1.00" height="1" fill="rgba(253,224,74,1.00)"/>
    <rect x="30.00" y="7.00" width="1.00" height="1" fill="rgba(253,224,46,1.00)"/>
    <rect x="31.00" y="7.00" width="1.00" height="1" fill="rgba(204,181,0,1.00)"/>
    <rect x="32.00" y="7.00" width="1.00" height="1" fill="rgba(101,90,0,1.00)"/>
    <rect x="30.00" y="8.00" width="1.00" height="1" fill="rgba(253,224,74,1.00)"/>
    <rect x="31.00" y="8.00" width="1.00" height="1" fill="rgba(204,181,0,1.00)"/>
    <rect x="32.00" y="8.00" width="1.00" height="1" fill="rgba(145,128,0,1.00)"/>
    <rect x="31.00" y="9.00" width="1.00" height="1" fill="rgba(180,158,0,1.00)"/>
  </g>
</svg>