<svg shape-rendering="crispEdges" xmlns="http://www.w3.org/2000/svg" version="1.1" width="37" height="37"><style>rect { image-rendering: pixelated; }</style><rect x="14" y="6" width="1.025" height="1.025" fill="rgba(0,0,0,1.000)" /><rect x="15" y="6" width="1.025" height="1.025" fill="rgba(0,0,0,1.000)" /><rect x="16" y="6" width="1.025" height="1.025" fill="rgba(0,0,0,1.000)" /><rect x="17" y="6" width="1.025" height="1.025" fill="rgba(0,0,0,1.000)" /><rect x="18" y="6" width="1.025" height="1.025" fill="rgba(0,0,0,1.000)" /><rect x="19" y="6" width="1.025" height="1.025" fill="rgba(0,0,0,1.000)" /><rect x="20" y="6" width="1.025" height="1.025" fill="rgba(0,0,0,1.000)" /><rect x="21" y="6" width="1.025" height="1.025" fill="rgba(0,0,0,1.000)" /><rect x="22" y="6" width="1.025" height="1.025" fill="rgba(0,0,0,1.000)" /><rect x="13" y="7" width="1.025" height="1.025" fill="rgba(0,0,0,1.000)" /><rect x="14" y="7" width="1.025" height="1.025" fill="rgba(206,0,0,1.000)" /><rect x="15" y="7" width="1.025" height="1.025" fill="rgba(244,61,107,1.000)" /><rect x="16" y="7" width="1.025" height="1.025" fill="rgba(249,102,124,1.000)" /><rect x="17" y="7" width="1.025" height="1.025" fill="rgba(250,126,134,1.000)" /><rect x="18" y="7" width="1.025" height="1.025" fill="rgba(250,114,129,1.000)" /><rect x="19" y="7" width="1.025" height="1.025" fill="rgba(249,114,129,1.000)" /><rect x="20" y="7" width="1.025" height="1.025" fill="rgba(249,114,129,1.000)" /><rect x="21" y="7" width="1.025" height="1.025" fill="rgba(250,119,129,1.000)" /><rect x="22" y="7" width="1.025" height="1.025" fill="rgba(242,61,106,1.000)" /><rect x="23" y="7" width="1.025" height="1.025" fill="rgba(0,0,0,1.000)" /><rect x="12" y="8" width="1.025" height="1.025" fill="rgba(0,0,0,1.000)" /><rect x="13" y="8" width="1.025" height="1.025" fill="rgba(182,0,0,1.000)" /><rect x="14" y="8" width="1.025" height="1.025" fill="rgba(243,19,95,1.000)" /><rect x="15" y="8" width="1.025" height="1.025" fill="rgba(253,126,141,1.000)" /><rect x="16" y="8" width="1.025" height="1.025" fill="rgba(253,160,155,1.000)" /><rect x="17" y="8" width="1.025" height="1.025" fill="rgba(254,202,185,1.000)" /><rect x="18" y="8" width="1.025" height="1.025" fill="rgba(253,197,180,1.000)" /><rect x="19" y="8" width="1.025" height="1.025" fill="rgba(253,197,177,1.000)" /><rect x="20" y="8" width="1.025" height="1.025" fill="rgba(254,202,182,1.000)" /><rect x="21" y="8" width="1.025" height="1.025" fill="rgba(254,197,180,1.000)" /><rect x="22" y="8" width="1.025" height="1.025" fill="rgba(254,177,165,1.000)" /><rect x="23" y="8" width="1.025" height="1.025" fill="rgba(246,61,110,1.000)" /><rect x="24" y="8" width="1.025" height="1.025" fill="rgba(0,0,0,1.000)" /><rect x="12" y="9" width="1.025" height="1.025" fill="rgba(0,0,0,1.000)" /><rect x="13" y="9" width="1.025" height="1.025" fill="rgba(198,0,0,1.000)" /><rect x="14" y="9" width="1.025" height="1.025" fill="rgba(246,44,106,1.000)" /><rect x="15" y="9" width="1.025" height="1.025" fill="rgba(253,114,134,1.000)" /><rect x="16" y="9" width="1.025" height="1.025" fill="rgba(255,189,180,1.000)" /><rect x="17" y="9" width="1.025" height="1.025" fill="rgba(255,197,185,1.000)" /><rect x="18" y="9" width="1.025" height="1.025" fill="rgba(255,214,197,1.000)" /><rect x="19" y="9" width="1.025" height="1.025" fill="rgba(255,219,202,1.000)" /><rect x="20" y="9" width="1.025" height="1.025" fill="rgba(255,197,193,1.000)" /><rect x="21" y="9" width="1.025" height="1.025" fill="rgba(255,189,185,1.000)" /><rect x="22" y="9" width="1.025" height="1.025" fill="rgba(255,185,180,1.000)" /><rect x="23" y="9" width="1.025" height="1.025" fill="rgba(251,95,124,1.000)" /><rect x="24" y="9" width="1.025" height="1.025" fill="rgba(0,0,0,1.000)" /><rect x="12" y="10" width="1.025" height="1.025" fill="rgba(0,0,0,1.000)" /><rect x="13" y="10" width="1.025" height="1.025" fill="rgba(198,0,0,1.000)" /><rect x="14" y="10" width="1.025" height="1.025" fill="rgba(244,32,100,1.000)" /><rect x="15" y="10" width="1.025" height="1.025" fill="rgba(253,102,134,1.000)" /><rect x="16" y="10" width="1.025" height="1.025" fill="rgba(255,185,180,1.000)" /><rect x="17" y="10" width="1.025" height="1.025" fill="rgba(255,197,185,1.000)" /><rect x="18" y="10" width="1.025" height="1.025" fill="rgba(255,197,185,1.000)" /><rect x="19" y="10" width="1.025" height="1.025" fill="rgba(255,202,190,1.000)" /><rect x="20" y="10" width="1.025" height="1.025" fill="rgba(255,197,187,1.000)" /><rect x="21" y="10" width="1.025" height="1.025" fill="rgba(255,172,173,1.000)" /><rect x="22" y="10" width="1.025" height="1.025" fill="rgba(255,172,176,1.000)" /><rect x="23" y="10" width="1.025" height="1.025" fill="rgba(251,95,124,1.000)" /><rect x="24" y="10" width="1.025" height="1.025" fill="rgba(0,0,0,1.000)" /><rect x="12" y="11" width="1.025" height="1.025" fill="rgba(0,0,0,1.000)" /><rect x="13" y="11" width="1.025" height="1.025" fill="rgba(194,0,0,1.000)" /><rect x="14" y="11" width="1.025" height="1.025" fill="rgba(243,19,98,1.000)" /><rect x="15" y="11" width="1.025" height="1.025" fill="rgba(252,78,121,1.000)" /><rect x="16" y="11" width="1.025" height="1.025" fill="rgba(255,155,160,1.000)" /><rect x="17" y="11" width="1.025" height="1.025" fill="rgba(255,214,194,1.000)" /><rect x="18" y="11" width="1.025" height="1.025" fill="rgba(255,214,197,1.000)" /><rect x="19" y="11" width="1.025" height="1.025" fill="rgba(255,214,197,1.000)" /><rect x="20" y="11" width="1.025" height="1.025" fill="rgba(255,202,190,1.000)" /><rect x="21" y="11" width="1.025" height="1.025" fill="rgba(255,177,176,1.000)" /><rect x="22" y="11" width="1.025" height="1.025" fill="rgba(255,197,182,1.000)" /><rect x="23" y="11" width="1.025" height="1.025" fill="rgba(249,85,117,1.000)" /><rect x="24" y="11" width="1.025" height="1.025" fill="rgba(0,0,0,1.000)" /><rect x="12" y="12" width="1.025" height="1.025" fill="rgba(0,0,0,1.000)" /><rect x="13" y="12" width="1.025" height="1.025" fill="rgba(188,0,0,1.000)" /><rect x="14" y="12" width="1.025" height="1.025" fill="rgba(243,19,95,1.000)" /><rect x="15" y="12" width="1.025" height="1.025" fill="rgba(252,78,121,1.000)" /><rect x="16" y="12" width="1.025" height="1.025" fill="rgba(253,102,127,1.000)" /><rect x="17" y="12" width="1.025" height="1.025" fill="rgba(249,73,120,1.000)" /><rect x="18" y="12" width="1.025" height="1.025" fill="rgba(250,85,127,1.000)" /><rect x="19" y="12" width="1.025" height="1.025" fill="rgba(250,73,127,1.000)" /><rect x="20" y="12" width="1.025" height="1.025" fill="rgba(253,143,154,1.000)" /><rect x="21" y="12" width="1.025" height="1.025" fill="rgba(254,160,165,1.000)" /><rect x="22" y="12" width="1.025" height="1.025" fill="rgba(252,136,149,1.000)" /><rect x="23" y="12" width="1.025" height="1.025" fill="rgba(251,95,124,1.000)" /><rect x="24" y="12" width="1.025" height="1.025" fill="rgba(0,0,0,1.000)" /><rect x="12" y="13" width="1.025" height="1.025" fill="rgba(0,0,0,1.000)" /><rect x="13" y="13" width="1.025" height="1.025" fill="rgba(0,0,0,1.000)" /><rect x="14" y="13" width="1.025" height="1.025" fill="rgba(241,12,95,1.000)" /><rect x="15" y="13" width="1.025" height="1.025" fill="rgba(253,95,127,1.000)" /><rect x="16" y="13" width="1.025" height="1.025" fill="rgba(239,2,89,1.000)" /><rect x="17" y="13" width="1.025" height="1.025" fill="rgba(184,0,0,1.000)" /><rect x="18" y="13" width="1.025" height="1.025" fill="rgba(188,0,0,1.000)" /><rect x="19" y="13" width="1.025" height="1.025" fill="rgba(212,0,25,1.000)" /><rect x="20" y="13" width="1.025" height="1.025" fill="rgba(234,0,78,1.000)" /><rect x="21" y="13" width="1.025" height="1.025" fill="rgba(237,19,93,1.000)" /><rect x="22" y="13" width="1.025" height="1.025" fill="rgba(184,0,0,1.000)" /><rect x="23" y="13" width="1.025" height="1.025" fill="rgba(188,0,0,1.000)" /><rect x="24" y="13" width="1.025" height="1.025" fill="rgba(0,0,0,1.000)" /><rect x="11" y="14" width="1.025" height="1.025" fill="rgba(0,0,0,1.000)" /><rect x="12" y="14" width="1.025" height="1.025" fill="rgba(210,0,6,1.000)" /><rect x="13" y="14" width="1.025" height="1.025" fill="rgba(227,0,54,1.000)" /><rect x="14" y="14" width="1.025" height="1.025" fill="rgba(241,12,90,1.000)" /><rect x="15" y="14" width="1.025" height="1.025" fill="rgba(253,85,121,1.000)" /><rect x="16" y="14" width="1.025" height="1.025" fill="rgba(245,85,117,1.000)" /><rect x="17" y="14" width="1.025" height="1.025" fill="rgba(0,0,0,1.000)" /><rect x="18" y="14" width="1.025" height="1.025" fill="rgba(255,255,255,1.000)" /><rect x="19" y="14" width="1.025" height="1.025" fill="rgba(241,49,115,1.000)" /><rect x="20" y="14" width="1.025" height="1.025" fill="rgba(246,73,120,1.000)" /><rect x="21" y="14" width="1.025" height="1.025" fill="rgba(242,66,115,1.000)" /><rect x="22" y="14" width="1.025" height="1.025" fill="rgba(0,0,0,1.000)" /><rect x="23" y="14" width="1.025" height="1.025" fill="rgba(255,255,255,1.000)" /><rect x="24" y="14" width="1.025" height="1.025" fill="rgba(0,0,0,1.000)" /><rect x="11" y="15" width="1.025" height="1.025" fill="rgba(0,0,0,1.000)" /><rect x="12" y="15" width="1.025" height="1.025" fill="rgba(228,0,56,1.000)" /><rect x="13" y="15" width="1.025" height="1.025" fill="rgba(220,0,36,1.000)" /><rect x="14" y="15" width="1.025" height="1.025" fill="rgba(238,0,78,1.000)" /><rect x="15" y="15" width="1.025" height="1.025" fill="rgba(249,66,115,1.000)" /><rect x="16" y="15" width="1.025" height="1.025" fill="rgba(255,197,185,1.000)" /><rect x="17" y="15" width="1.025" height="1.025" fill="rgba(255,219,199,1.000)" /><rect x="18" y="15" width="1.025" height="1.025" fill="rgba(253,202,180,1.000)" /><rect x="19" y="15" width="1.025" height="1.025" fill="rgba(255,172,176,1.000)" /><rect x="20" y="15" width="1.025" height="1.025" fill="rgba(251,114,138,1.000)" /><rect x="21" y="15" width="1.025" height="1.025" fill="rgba(253,131,146,1.000)" /><rect x="22" y="15" width="1.025" height="1.025" fill="rgba(255,197,185,1.000)" /><rect x="23" y="15" width="1.025" height="1.025" fill="rgba(252,148,154,1.000)" /><rect x="24" y="15" width="1.025" height="1.025" fill="rgba(0,0,0,1.000)" /><rect x="11" y="16" width="1.025" height="1.025" fill="rgba(0,0,0,1.000)" /><rect x="12" y="16" width="1.025" height="1.025" fill="rgba(211,0,2,1.000)" /><rect x="13" y="16" width="1.025" height="1.025" fill="rgba(219,0,30,1.000)" /><rect x="14" y="16" width="1.025" height="1.025" fill="rgba(229,0,56,1.000)" /><rect x="15" y="16" width="1.025" height="1.025" fill="rgba(240,2,90,1.000)" /><rect x="16" y="16" width="1.025" height="1.025" fill="rgba(253,102,134,1.000)" /><rect x="17" y="16" width="1.025" height="1.025" fill="rgba(255,202,193,1.000)" /><rect x="18" y="16" width="1.025" height="1.025" fill="rgba(255,219,197,1.000)" /><rect x="19" y="16" width="1.025" height="1.025" fill="rgba(253,155,159,1.000)" /><rect x="20" y="16" width="1.025" height="1.025" fill="rgba(249,78,121,1.000)" /><rect x="21" y="16" width="1.025" height="1.025" fill="rgba(253,114,141,1.000)" /><rect x="22" y="16" width="1.025" height="1.025" fill="rgba(249,78,121,1.000)" /><rect x="23" y="16" width="1.025" height="1.025" fill="rgba(241,49,103,1.000)" /><rect x="24" y="16" width="1.025" height="1.025" fill="rgba(0,0,0,1.000)" /><rect x="12" y="17" width="1.025" height="1.025" fill="rgba(0,0,0,1.000)" /><rect x="13" y="17" width="1.025" height="1.025" fill="rgba(0,0,0,1.000)" /><rect x="14" y="17" width="1.025" height="1.025" fill="rgba(226,0,47,1.000)" /><rect x="15" y="17" width="1.025" height="1.025" fill="rgba(228,0,51,1.000)" /><rect x="16" y="17" width="1.025" height="1.025" fill="rgba(243,32,100,1.000)" /><rect x="17" y="17" width="1.025" height="1.025" fill="rgba(253,114,138,1.000)" /><rect x="18" y="17" width="1.025" height="1.025" fill="rgba(255,197,182,1.000)" /><rect x="19" y="17" width="1.025" height="1.025" fill="rgba(254,189,177,1.000)" /><rect x="20" y="17" width="1.025" height="1.025" fill="rgba(0,0,0,1.000)" /><rect x="21" y="17" width="1.025" height="1.025" fill="rgba(0,0,0,1.000)" /><rect x="22" y="17" width="1.025" height="1.025" fill="rgba(229,0,68,1.000)" /><rect x="23" y="17" width="1.025" height="1.025" fill="rgba(242,24,95,1.000)" /><rect x="24" y="17" width="1.025" height="1.025" fill="rgba(0,0,0,1.000)" /><rect x="13" y="18" width="1.025" height="1.025" fill="rgba(0,0,0,1.000)" /><rect x="14" y="18" width="1.025" height="1.025" fill="rgba(206,0,0,1.000)" /><rect x="15" y="18" width="1.025" height="1.025" fill="rgba(229,0,56,1.000)" /><rect x="16" y="18" width="1.025" height="1.025" fill="rgba(238,0,78,1.000)" /><rect x="17" y="18" width="1.025" height="1.025" fill="rgba(251,73,117,1.000)" /><rect x="18" y="18" width="1.025" height="1.025" fill="rgba(255,160,163,1.000)" /><rect x="19" y="18" width="1.025" height="1.025" fill="rgba(255,219,194,1.000)" /><rect x="20" y="18" width="1.025" height="1.025" fill="rgba(253,148,154,1.000)" /><rect x="21" y="18" width="1.025" height="1.025" fill="rgba(250,90,120,1.000)" /><rect x="22" y="18" width="1.025" height="1.025" fill="rgba(255,160,160,1.000)" /><rect x="23" y="18" width="1.025" height="1.025" fill="rgba(246,53,107,1.000)" /><rect x="24" y="18" width="1.025" height="1.025" fill="rgba(0,0,0,1.000)" /><rect x="13" y="19" width="1.025" height="1.025" fill="rgba(0,0,0,1.000)" /><rect x="14" y="19" width="1.025" height="1.025" fill="rgba(188,0,0,1.000)" /><rect x="15" y="19" width="1.025" height="1.025" fill="rgba(227,0,51,1.000)" /><rect x="16" y="19" width="1.025" height="1.025" fill="rgba(237,0,73,1.000)" /><rect x="17" y="19" width="1.025" height="1.025" fill="rgba(251,53,110,1.000)" /><rect x="18" y="19" width="1.025" height="1.025" fill="rgba(251,95,127,1.000)" /><rect x="19" y="19" width="1.025" height="1.025" fill="rgba(255,160,163,1.000)" /><rect x="20" y="19" width="1.025" height="1.025" fill="rgba(255,197,182,1.000)" /><rect x="21" y="19" width="1.025" height="1.025" fill="rgba(253,160,160,1.000)" /><rect x="22" y="19" width="1.025" height="1.025" fill="rgba(251,95,127,1.000)" /><rect x="23" y="19" width="1.025" height="1.025" fill="rgba(241,24,93,1.000)" /><rect x="24" y="19" width="1.025" height="1.025" fill="rgba(0,0,0,1.000)" /><rect x="13" y="20" width="1.025" height="1.025" fill="rgba(0,0,0,1.000)" /><rect x="14" y="20" width="1.025" height="1.025" fill="rgba(178,0,0,1.000)" /><rect x="15" y="20" width="1.025" height="1.025" fill="rgba(217,0,23,1.000)" /><rect x="16" y="20" width="1.025" height="1.025" fill="rgba(238,0,76,1.000)" /><rect x="17" y="20" width="1.025" height="1.025" fill="rgba(245,24,98,1.000)" /><rect x="18" y="20" width="1.025" height="1.025" fill="rgba(243,36,103,1.000)" /><rect x="19" y="20" width="1.025" height="1.025" fill="rgba(0,0,0,1.000)" /><rect x="20" y="20" width="1.025" height="1.025" fill="rgba(0,0,0,1.000)" /><rect x="21" y="20" width="1.025" height="1.025" fill="rgba(0,0,0,1.000)" /><rect x="22" y="20" width="1.025" height="1.025" fill="rgba(249,78,121,1.000)" /><rect x="23" y="20" width="1.025" height="1.025" fill="rgba(241,24,93,1.000)" /><rect x="24" y="20" width="1.025" height="1.025" fill="rgba(0,0,0,1.000)" /><rect x="13" y="21" width="1.025" height="1.025" fill="rgba(0,0,0,1.000)" /><rect x="14" y="21" width="1.025" height="1.025" fill="rgba(178,0,0,1.000)" /><rect x="15" y="21" width="1.025" height="1.025" fill="rgba(217,0,23,1.000)" /><rect x="16" y="21" width="1.025" height="1.025" fill="rgba(226,0,50,1.000)" /><rect x="17" y="21" width="1.025" height="1.025" fill="rgba(243,7,90,1.000)" /><rect x="18" y="21" width="1.025" height="1.025" fill="rgba(253,95,127,1.000)" /><rect x="19" y="21" width="1.025" height="1.025" fill="rgba(254,168,163,1.000)" /><rect x="20" y="21" width="1.025" height="1.025" fill="rgba(254,177,171,1.000)" /><rect x="21" y="21" width="1.025" height="1.025" fill="rgba(254,155,160,1.000)" /><rect x="22" y="21" width="1.025" height="1.025" fill="rgba(254,126,143,1.000)" /><rect x="23" y="21" width="1.025" height="1.025" fill="rgba(239,2,84,1.000)" /><rect x="24" y="21" width="1.025" height="1.025" fill="rgba(0,0,0,1.000)" /><rect x="13" y="22" width="1.025" height="1.025" fill="rgba(0,0,0,1.000)" /><rect x="14" y="22" width="1.025" height="1.025" fill="rgba(206,0,0,1.000)" /><rect x="15" y="22" width="1.025" height="1.025" fill="rgba(199,0,0,1.000)" /><rect x="16" y="22" width="1.025" height="1.025" fill="rgba(226,0,50,1.000)" /><rect x="17" y="22" width="1.025" height="1.025" fill="rgba(231,0,64,1.000)" /><rect x="18" y="22" width="1.025" height="1.025" fill="rgba(252,66,115,1.000)" /><rect x="19" y="22" width="1.025" height="1.025" fill="rgba(254,136,151,1.000)" /><rect x="20" y="22" width="1.025" height="1.025" fill="rgba(255,209,187,1.000)" /><rect x="21" y="22" width="1.025" height="1.025" fill="rgba(255,214,193,1.000)" /><rect x="22" y="22" width="1.025" height="1.025" fill="rgba(254,126,143,1.000)" /><rect x="23" y="22" width="1.025" height="1.025" fill="rgba(238,2,84,1.000)" /><rect x="24" y="22" width="1.025" height="1.025" fill="rgba(0,0,0,1.000)" /><rect x="13" y="23" width="1.025" height="1.025" fill="rgba(0,0,0,1.000)" /><rect x="14" y="23" width="1.025" height="1.025" fill="rgba(187,0,0,1.000)" /><rect x="15" y="23" width="1.025" height="1.025" fill="rgba(207,0,0,1.000)" /><rect x="16" y="23" width="1.025" height="1.025" fill="rgba(0,0,0,1.000)" /><rect x="17" y="23" width="1.025" height="1.025" fill="rgba(231,0,64,1.000)" /><rect x="18" y="23" width="1.025" height="1.025" fill="rgba(252,66,115,1.000)" /><rect x="19" y="23" width="1.025" height="1.025" fill="rgba(254,136,151,1.000)" /><rect x="20" y="23" width="1.025" height="1.025" fill="rgba(255,209,187,1.000)" /><rect x="21" y="23" width="1.025" height="1.025" fill="rgba(255,214,193,1.000)" /><rect x="22" y="23" width="1.025" height="1.025" fill="rgba(255,168,168,1.000)" /><rect x="23" y="23" width="1.025" height="1.025" fill="rgba(0,0,0,1.000)" /><rect x="13" y="24" width="1.025" height="1.025" fill="rgba(0,0,0,1.000)" /><rect x="14" y="24" width="1.025" height="1.025" fill="rgba(199,0,0,1.000)" /><rect x="15" y="24" width="1.025" height="1.025" fill="rgba(213,0,8,1.000)" /><rect x="16" y="24" width="1.025" height="1.025" fill="rgba(178,0,0,1.000)" /><rect x="17" y="24" width="1.025" height="1.025" fill="rgba(0,0,0,1.000)" /><rect x="18" y="24" width="1.025" height="1.025" fill="rgba(223,0,47,1.000)" /><rect x="19" y="24" width="1.025" height="1.025" fill="rgba(230,0,78,1.000)" /><rect x="20" y="24" width="1.025" height="1.025" fill="rgba(245,107,129,1.000)" /><rect x="21" y="24" width="1.025" height="1.025" fill="rgba(245,107,129,1.000)" /><rect x="22" y="24" width="1.025" height="1.025" fill="rgba(0,0,0,1.000)" /><rect x="13" y="25" width="1.025" height="1.025" fill="rgba(0,0,0,1.000)" /><rect x="14" y="25" width="1.025" height="1.025" fill="rgba(203,0,0,1.000)" /><rect x="15" y="25" width="1.025" height="1.025" fill="rgba(246,32,103,1.000)" /><rect x="16" y="25" width="1.025" height="1.025" fill="rgba(213,0,8,1.000)" /><rect x="17" y="25" width="1.025" height="1.025" fill="rgba(213,0,8,1.000)" /><rect x="18" y="25" width="1.025" height="1.025" fill="rgba(0,0,0,1.000)" /><rect x="19" y="25" width="1.025" height="1.025" fill="rgba(0,0,0,1.000)" /><rect x="20" y="25" width="1.025" height="1.025" fill="rgba(0,0,0,1.000)" /><rect x="21" y="25" width="1.025" height="1.025" fill="rgba(0,0,0,1.000)" /><rect x="13" y="26" width="1.025" height="1.025" fill="rgba(0,0,0,1.000)" /><rect x="14" y="26" width="1.025" height="1.025" fill="rgba(202,0,0,1.000)" /><rect x="15" y="26" width="1.025" height="1.025" fill="rgba(253,78,120,1.000)" /><rect x="16" y="26" width="1.025" height="1.025" fill="rgba(245,32,100,1.000)" /><rect x="17" y="26" width="1.025" height="1.025" fill="rgba(212,0,11,1.000)" /><rect x="18" y="26" width="1.025" height="1.025" fill="rgba(0,0,0,1.000)" /><rect x="13" y="27" width="1.025" height="1.025" fill="rgba(0,0,0,1.000)" /><rect x="14" y="27" width="1.025" height="1.025" fill="rgba(203,0,0,1.000)" /><rect x="15" y="27" width="1.025" height="1.025" fill="rgba(253,78,120,1.000)" /><rect x="16" y="27" width="1.025" height="1.025" fill="rgba(254,119,138,1.000)" /><rect x="17" y="27" width="1.025" height="1.025" fill="rgba(246,53,110,1.000)" /><rect x="18" y="27" width="1.025" height="1.025" fill="rgba(0,0,0,1.000)" /><rect x="11" y="28" width="1.025" height="1.025" fill="rgba(0,0,0,1.000)" /><rect x="12" y="28" width="1.025" height="1.025" fill="rgba(0,0,0,1.000)" /><rect x="13" y="28" width="1.025" height="1.025" fill="rgba(0,0,0,1.000)" /><rect x="14" y="28" width="1.025" height="1.025" fill="rgba(227,0,47,1.000)" /><rect x="15" y="28" width="1.025" height="1.025" fill="rgba(245,53,103,1.000)" /><rect x="16" y="28" width="1.025" height="1.025" fill="rgba(253,114,127,1.000)" /><rect x="17" y="28" width="1.025" height="1.025" fill="rgba(252,78,115,1.000)" /><rect x="18" y="28" width="1.025" height="1.025" fill="rgba(0,0,0,1.000)" /><rect x="19" y="28" width="1.025" height="1.025" fill="rgba(0,0,0,1.000)" /><rect x="20" y="28" width="1.025" height="1.025" fill="rgba(0,0,0,1.000)" /><rect x="21" y="28" width="1.025" height="1.025" fill="rgba(0,0,0,1.000)" /><rect x="9" y="29" width="1.025" height="1.025" fill="rgba(0,0,0,1.000)" /><rect x="10" y="29" width="1.025" height="1.025" fill="rgba(0,0,0,1.000)" /><rect x="11" y="29" width="1.025" height="1.025" fill="rgba(241,7,84,1.000)" /><rect x="12" y="29" width="1.025" height="1.025" fill="rgba(240,2,81,1.000)" /><rect x="13" y="29" width="1.025" height="1.025" fill="rgba(242,12,89,1.000)" /><rect x="14" y="29" width="1.025" height="1.025" fill="rgba(241,7,84,1.000)" /><rect x="15" y="29" width="1.025" height="1.025" fill="rgba(240,2,84,1.000)" /><rect x="16" y="29" width="1.025" height="1.025" fill="rgba(245,44,100,1.000)" /><rect x="17" y="29" width="1.025" height="1.025" fill="rgba(251,78,115,1.000)" /><rect x="18" y="29" width="1.025" height="1.025" fill="rgba(249,66,107,1.000)" /><rect x="19" y="29" width="1.025" height="1.025" fill="rgba(242,19,89,1.000)" /><rect x="20" y="29" width="1.025" height="1.025" fill="rgba(240,2,81,1.000)" /><rect x="21" y="29" width="1.025" height="1.025" fill="rgba(244,36,95,1.000)" /><rect x="22" y="29" width="1.025" height="1.025" fill="rgba(0,0,0,1.000)" /><rect x="23" y="29" width="1.025" height="1.025" fill="rgba(0,0,0,1.000)" /><rect x="8" y="30" width="1.025" height="1.025" fill="rgba(0,0,0,1.000)" /><rect x="9" y="30" width="1.025" height="1.025" fill="rgba(250,73,112,1.000)" /><rect x="10" y="30" width="1.025" height="1.025" fill="rgba(251,73,110,1.000)" /><rect x="11" y="30" width="1.025" height="1.025" fill="rgba(246,49,103,1.000)" /><rect x="12" y="30" width="1.025" height="1.025" fill="rgba(249,61,107,1.000)" /><rect x="13" y="30" width="1.025" height="1.025" fill="rgba(249,73,110,1.000)" /><rect x="14" y="30" width="1.025" height="1.025" fill="rgba(250,78,115,1.000)" /><rect x="15" y="30" width="1.025" height="1.025" fill="rgba(252,90,120,1.000)" /><rect x="16" y="30" width="1.025" height="1.025" fill="rgba(251,85,117,1.000)" /><rect x="17" y="30" width="1.025" height="1.025" fill="rgba(243,32,95,1.000)" /><rect x="18" y="30" width="1.025" height="1.025" fill="rgba(249,61,106,1.000)" /><rect x="19" y="30" width="1.025" height="1.025" fill="rgba(253,102,127,1.000)" /><rect x="20" y="30" width="1.025" height="1.025" fill="rgba(253,95,121,1.000)" /><rect x="21" y="30" width="1.025" height="1.025" fill="rgba(252,85,117,1.000)" /><rect x="22" y="30" width="1.025" height="1.025" fill="rgba(249,61,106,1.000)" /><rect x="23" y="30" width="1.025" height="1.025" fill="rgba(244,36,95,1.000)" /><rect x="24" y="30" width="1.025" height="1.025" fill="rgba(0,0,0,1.000)" /><rect x="7" y="31" width="1.025" height="1.025" fill="rgba(0,0,0,1.000)" /><rect x="8" y="31" width="1.025" height="1.025" fill="rgba(252,85,117,1.000)" /><rect x="9" y="31" width="1.025" height="1.025" fill="rgba(255,143,146,1.000)" /><rect x="10" y="31" width="1.025" height="1.025" fill="rgba(253,114,129,1.000)" /><rect x="11" y="31" width="1.025" height="1.025" fill="rgba(251,85,117,1.000)" /><rect x="12" y="31" width="1.025" height="1.025" fill="rgba(253,114,132,1.000)" /><rect x="13" y="31" width="1.025" height="1.025" fill="rgba(254,119,134,1.000)" /><rect x="14" y="31" width="1.025" height="1.025" fill="rgba(253,114,134,1.000)" /><rect x="15" y="31" width="1.025" height="1.025" fill="rgba(254,119,134,1.000)" /><rect x="16" y="31" width="1.025" height="1.025" fill="rgba(249,119,149,1.000)" /><rect x="17" y="31" width="1.025" height="1.025" fill="rgba(252,95,120,1.000)" /><rect x="18" y="31" width="1.025" height="1.025" fill="rgba(252,95,120,1.000)" /><rect x="19" y="31" width="1.025" height="1.025" fill="rgba(254,131,143,1.000)" /><rect x="20" y="31" width="1.025" height="1.025" fill="rgba(254,131,146,1.000)" /><rect x="21" y="31" width="1.025" height="1.025" fill="rgba(254,119,134,1.000)" /><rect x="22" y="31" width="1.025" height="1.025" fill="rgba(252,95,120,1.000)" /><rect x="23" y="31" width="1.025" height="1.025" fill="rgba(251,73,112,1.000)" /><rect x="24" y="31" width="1.025" height="1.025" fill="rgba(254,114,134,1.000)" /><rect x="25" y="31" width="1.025" height="1.025" fill="rgba(0,0,0,1.000)" /><rect x="6" y="32" width="1.025" height="1.025" fill="rgba(0,0,0,1.000)" /><rect x="7" y="32" width="1.025" height="1.025" fill="rgba(238,0,73,1.000)" /><rect x="8" y="32" width="1.025" height="1.025" fill="rgba(252,90,117,1.000)" /><rect x="9" y="32" width="1.025" height="1.025" fill="rgba(255,131,143,1.000)" /><rect x="10" y="32" width="1.025" height="1.025" fill="rgba(254,114,129,1.000)" /><rect x="11" y="32" width="1.025" height="1.025" fill="rgba(251,85,117,1.000)" /><rect x="12" y="32" width="1.025" height="1.025" fill="rgba(254,126,138,1.000)" /><rect x="13" y="32" width="1.025" height="1.025" fill="rgba(254,136,146,1.000)" /><rect x="14" y="32" width="1.025" height="1.025" fill="rgba(254,131,143,1.000)" /><rect x="15" y="32" width="1.025" height="1.025" fill="rgba(254,131,146,1.000)" /><rect x="16" y="32" width="1.025" height="1.025" fill="rgba(249,126,155,1.000)" /><rect x="17" y="32" width="1.025" height="1.025" fill="rgba(253,102,124,1.000)" /><rect x="18" y="32" width="1.025" height="1.025" fill="rgba(253,102,121,1.000)" /><rect x="19" y="32" width="1.025" height="1.025" fill="rgba(254,126,138,1.000)" /><rect x="20" y="32" width="1.025" height="1.025" fill="rgba(254,136,146,1.000)" /><rect x="21" y="32" width="1.025" height="1.025" fill="rgba(254,131,143,1.000)" /><rect x="22" y="32" width="1.025" height="1.025" fill="rgba(253,102,127,1.000)" /><rect x="23" y="32" width="1.025" height="1.025" fill="rgba(252,85,117,1.000)" /><rect x="24" y="32" width="1.025" height="1.025" fill="rgba(251,73,110,1.000)" /><rect x="25" y="32" width="1.025" height="1.025" fill="rgba(0,0,0,1.000)" /><rect x="6" y="33" width="1.025" height="1.025" fill="rgba(0,0,0,1.000)" /><rect x="7" y="33" width="1.025" height="1.025" fill="rgba(237,0,72,1.000)" /><rect x="8" y="33" width="1.025" height="1.025" fill="rgba(253,90,120,1.000)" /><rect x="9" y="33" width="1.025" height="1.025" fill="rgba(246,61,107,1.000)" /><rect x="10" y="33" width="1.025" height="1.025" fill="rgba(226,0,50,1.000)" /><rect x="11" y="33" width="1.025" height="1.025" fill="rgba(245,44,100,1.000)" /><rect x="12" y="33" width="1.025" height="1.025" fill="rgba(254,119,134,1.000)" /><rect x="13" y="33" width="1.025" height="1.025" fill="rgba(255,155,159,1.000)" /><rect x="14" y="33" width="1.025" height="1.025" fill="rgba(255,148,154,1.000)" /><rect x="15" y="33" width="1.025" height="1.025" fill="rgba(254,136,146,1.000)" /><rect x="16" y="33" width="1.025" height="1.025" fill="rgba(250,131,160,1.000)" /><rect x="17" y="33" width="1.025" height="1.025" fill="rgba(0,0,0,1.000)" /><rect x="18" y="33" width="1.025" height="1.025" fill="rgba(250,73,110,1.000)" /><rect x="19" y="33" width="1.025" height="1.025" fill="rgba(254,126,138,1.000)" /><rect x="20" y="33" width="1.025" height="1.025" fill="rgba(254,136,146,1.000)" /><rect x="21" y="33" width="1.025" height="1.025" fill="rgba(254,136,143,1.000)" /><rect x="22" y="33" width="1.025" height="1.025" fill="rgba(254,126,138,1.000)" /><rect x="23" y="33" width="1.025" height="1.025" fill="rgba(0,0,0,1.000)" /><rect x="24" y="33" width="1.025" height="1.025" fill="rgba(223,0,42,1.000)" /><rect x="25" y="33" width="1.025" height="1.025" fill="rgba(249,49,103,1.000)" /><rect x="26" y="33" width="1.025" height="1.025" fill="rgba(0,0,0,1.000)" /><rect x="6" y="34" width="1.025" height="1.025" fill="rgba(0,0,0,1.000)" /><rect x="7" y="34" width="1.025" height="1.025" fill="rgba(237,0,72,1.000)" /><rect x="8" y="34" width="1.025" height="1.025" fill="rgba(252,73,112,1.000)" /><rect x="9" y="34" width="1.025" height="1.025" fill="rgba(230,0,67,1.000)" /><rect x="10" y="34" width="1.025" height="1.025" fill="rgba(0,0,0,1.000)" /><rect x="11" y="34" width="1.025" height="1.025" fill="rgba(228,0,51,1.000)" /><rect x="12" y="34" width="1.025" height="1.025" fill="rgba(252,85,117,1.000)" /><rect x="13" y="34" width="1.025" height="1.025" fill="rgba(249,78,117,1.000)" /><rect x="14" y="34" width="1.025" height="1.025" fill="rgba(253,114,129,1.000)" /><rect x="15" y="34" width="1.025" height="1.025" fill="rgba(255,148,155,1.000)" /><rect x="16" y="34" width="1.025" height="1.025" fill="rgba(249,131,155,1.000)" /><rect x="17" y="34" width="1.025" height="1.025" fill="rgba(246,61,106,1.000)" /><rect x="18" y="34" width="1.025" height="1.025" fill="rgba(0,0,0,1.000)" /><rect x="19" y="34" width="1.025" height="1.025" fill="rgba(252,90,120,1.000)" /><rect x="20" y="34" width="1.025" height="1.025" fill="rgba(254,136,149,1.000)" /><rect x="21" y="34" width="1.025" height="1.025" fill="rgba(254,136,143,1.000)" /><rect x="22" y="34" width="1.025" height="1.025" fill="rgba(249,73,110,1.000)" /><rect x="23" y="34" width="1.025" height="1.025" fill="rgba(234,0,73,1.000)" /><rect x="24" y="34" width="1.025" height="1.025" fill="rgba(0,0,0,1.000)" /><rect x="25" y="34" width="1.025" height="1.025" fill="rgba(245,36,95,1.000)" /><rect x="26" y="34" width="1.025" height="1.025" fill="rgba(0,0,0,1.000)" /><rect x="6" y="35" width="1.025" height="1.025" fill="rgba(0,0,0,1.000)" /><rect x="7" y="35" width="1.025" height="1.025" fill="rgba(237,0,73,1.000)" /><rect x="8" y="35" width="1.025" height="1.025" fill="rgba(250,61,107,1.000)" /><rect x="9" y="35" width="1.025" height="1.025" fill="rgba(228,0,56,1.000)" /><rect x="10" y="35" width="1.025" height="1.025" fill="rgba(0,0,0,1.000)" /><rect x="11" y="35" width="1.025" height="1.025" fill="rgba(205,0,0,1.000)" /><rect x="12" y="35" width="1.025" height="1.025" fill="rgba(239,0,81,1.000)" /><rect x="13" y="35" width="1.025" height="1.025" fill="rgba(236,0,73,1.000)" /><rect x="14" y="35" width="1.025" height="1.025" fill="rgba(243,32,95,1.000)" /><rect x="15" y="35" width="1.025" height="1.025" fill="rgba(253,102,124,1.000)" /><rect x="16" y="35" width="1.025" height="1.025" fill="rgba(245,85,129,1.000)" /><rect x="17" y="35" width="1.025" height="1.025" fill="rgba(237,0,73,1.000)" /><rect x="18" y="35" width="1.025" height="1.025" fill="rgba(217,0,20,1.000)" /><rect x="19" y="35" width="1.025" height="1.025" fill="rgba(0,0,0,1.000)" /><rect x="20" y="35" width="1.025" height="1.025" fill="rgba(255,143,151,1.000)" /><rect x="21" y="35" width="1.025" height="1.025" fill="rgba(254,136,146,1.000)" /><rect x="22" y="35" width="1.025" height="1.025" fill="rgba(249,73,110,1.000)" /><rect x="23" y="35" width="1.025" height="1.025" fill="rgba(234,0,73,1.000)" /><rect x="24" y="35" width="1.025" height="1.025" fill="rgba(0,0,0,1.000)" /><rect x="25" y="35" width="1.025" height="1.025" fill="rgba(245,36,95,1.000)" /><rect x="26" y="35" width="1.025" height="1.025" fill="rgba(0,0,0,1.000)" /><rect x="6" y="36" width="1.025" height="1.025" fill="rgba(0,0,0,1.000)" /><rect x="7" y="36" width="1.025" height="1.025" fill="rgba(237,0,73,1.000)" /><rect x="8" y="36" width="1.025" height="1.025" fill="rgba(251,85,115,1.000)" /><rect x="9" y="36" width="1.025" height="1.025" fill="rgba(231,0,68,1.000)" /><rect x="10" y="36" width="1.025" height="1.025" fill="rgba(0,0,0,1.000)" /><rect x="11" y="36" width="1.025" height="1.025" fill="rgba(207,0,0,1.000)" /><rect x="12" y="36" width="1.025" height="1.025" fill="rgba(223,0,36,1.000)" /><rect x="13" y="36" width="1.025" height="1.025" fill="rgba(234,0,68,1.000)" /><rect x="14" y="36" width="1.025" height="1.025" fill="rgba(236,0,68,1.000)" /><rect x="15" y="36" width="1.025" height="1.025" fill="rgba(239,0,68,1.000)" /><rect x="16" y="36" width="1.025" height="1.025" fill="rgba(237,19,106,1.000)" /><rect x="17" y="36" width="1.025" height="1.025" fill="rgba(213,0,16,1.000)" /><rect x="18" y="36" width="1.025" height="1.025" fill="rgba(234,0,59,1.000)" /><rect x="19" y="36" width="1.025" height="1.025" fill="rgba(0,0,0,1.000)" /><rect x="20" y="36" width="1.025" height="1.025" fill="rgba(253,102,127,1.000)" /><rect x="21" y="36" width="1.025" height="1.025" fill="rgba(253,95,124,1.000)" /><rect x="22" y="36" width="1.025" height="1.025" fill="rgba(239,0,78,1.000)" /><rect x="23" y="36" width="1.025" height="1.025" fill="rgba(223,0,40,1.000)" /><rect x="24" y="36" width="1.025" height="1.025" fill="rgba(217,0,20,1.000)" /><rect x="25" y="36" width="1.025" height="1.025" fill="rgba(0,0,0,1.000)" /><rect x="26" y="36" width="1.025" height="1.025" fill="rgba(0,0,0,1.000)" /></svg>