<?xml version="1.0" encoding="UTF-8"?>
<!-- Generated from: AZ_Filthy-B-Day_Cupcake.png -->
<!-- Dimensions: 37x37 pixels (64 merged rects) -->
<!-- Rect size: 1 -->
<svg xmlns="http://www.w3.org/2000/svg" viewBox="0 0 37 37">
  <style>
    rect { shape-rendering: crispEdges; }
    svg { image-rendering: pixelated; image-rendering: -moz-crisp-edges; image-rendering: crisp-edges; }
  </style>
  <g id="pixels">
    <rect x="31.00" y="22.00" width="1.00" height="1" fill="rgba(227,6,19,1.00)"/>
    <rect x="32.00" y="22.00" width="1.00" height="1" fill="rgba(255,255,255,1.00)"/>
    <rect x="33.00" y="22.00" width="2.00" height="1" fill="rgba(255,0,0,1.00)"/>
    <rect x="31.00" y="23.00" width="1.00" height="1" fill="rgba(229,229,229,1.00)"/>
    <rect x="32.00" y="23.00" width="3.00" height="1" fill="rgba(255,255,255,1.00)"/>
    <rect x="31.00" y="24.00" width="1.00" height="1" fill="rgba(227,6,19,1.00)"/>
    <rect x="32.00" y="24.00" width="1.00" height="1" fill="rgba(255,255,255,1.00)"/>
    <rect x="33.00" y="24.00" width="2.00" height="1" fill="rgba(255,0,0,1.00)"/>
    <rect x="31.00" y="25.00" width="1.00" height="1" fill="rgba(150,106,57,1.00)"/>
    <rect x="31.00" y="26.00" width="1.00" height="1" fill="rgba(150,106,57,1.00)"/>
    <rect x="29.00" y="27.00" width="1.00" height="1" fill="rgba(0,185,238,1.00)"/>
    <rect x="31.00" y="27.00" width="1.00" height="1" fill="rgba(255,237,0,1.00)"/>
    <rect x="32.00" y="27.00" width="1.00" height="1" fill="rgba(230,0,126,1.00)"/>
    <rect x="30.00" y="28.00" width="1.00" height="1" fill="rgba(236,105,164,1.00)"/>
    <rect x="31.00" y="28.00" width="1.00" height="1" fill="rgba(0,185,238,1.00)"/>
    <rect x="32.00" y="28.00" width="1.00" height="1" fill="rgba(236,105,164,1.00)"/>
    <rect x="33.00" y="28.00" width="1.00" height="1" fill="rgba(0,185,238,1.00)"/>
    <rect x="29.00" y="29.00" width="1.00" height="1" fill="rgba(0,185,238,1.00)"/>
    <rect x="30.00" y="29.00" width="1.00" height="1" fill="rgba(58,170,53,1.00)"/>
    <rect x="31.00" y="29.00" width="1.00" height="1" fill="rgba(236,105,164,1.00)"/>
    <rect x="32.00" y="29.00" width="1.00" height="1" fill="rgba(230,0,126,1.00)"/>
    <rect x="33.00" y="29.00" width="1.00" height="1" fill="rgba(255,237,0,1.00)"/>
    <rect x="34.00" y="29.00" width="1.00" height="1" fill="rgba(236,105,164,1.00)"/>
    <rect x="29.00" y="30.00" width="1.00" height="1" fill="rgba(230,0,126,1.00)"/>
    <rect x="30.00" y="30.00" width="1.00" height="1" fill="rgba(236,105,164,1.00)"/>
    <rect x="31.00" y="30.00" width="1.00" height="1" fill="rgba(0,185,238,1.00)"/>
    <rect x="32.00" y="30.00" width="1.00" height="1" fill="rgba(242,159,197,1.00)"/>
    <rect x="33.00" y="30.00" width="1.00" height="1" fill="rgba(236,105,164,1.00)"/>
    <rect x="34.00" y="30.00" width="1.00" height="1" fill="rgba(0,185,238,1.00)"/>
    <rect x="28.00" y="31.00" width="1.00" height="1" fill="rgba(242,159,197,1.00)"/>
    <rect x="29.00" y="31.00" width="1.00" height="1" fill="rgba(175,134,85,1.00)"/>
    <rect x="30.00" y="31.00" width="1.00" height="1" fill="rgba(255,241,95,1.00)"/>
    <rect x="31.00" y="31.00" width="1.00" height="1" fill="rgba(236,105,164,1.00)"/>
    <rect x="32.00" y="31.00" width="1.00" height="1" fill="rgba(255,237,0,1.00)"/>
    <rect x="33.00" y="31.00" width="1.00" height="1" fill="rgba(230,0,126,1.00)"/>
    <rect x="34.00" y="31.00" width="1.00" height="1" fill="rgba(150,106,57,1.00)"/>
    <rect x="28.00" y="32.00" width="1.00" height="1" fill="rgba(219,187,82,1.00)"/>
    <rect x="29.00" y="32.00" width="1.00" height="1" fill="rgba(150,106,57,1.00)"/>
    <rect x="30.00" y="32.00" width="1.00" height="1" fill="rgba(208,173,105,1.00)"/>
    <rect x="31.00" y="32.00" width="1.00" height="1" fill="rgba(242,159,197,1.00)"/>
    <rect x="32.00" y="32.00" width="1.00" height="1" fill="rgba(175,134,85,1.00)"/>
    <rect x="33.00" y="32.00" width="1.00" height="1" fill="rgba(150,106,57,1.00)"/>
    <rect x="34.00" y="32.00" width="1.00" height="1" fill="rgba(175,134,85,1.00)"/>
    <rect x="35.00" y="32.00" width="1.00" height="1" fill="rgba(150,106,57,1.00)"/>
    <rect x="29.00" y="33.00" width="1.00" height="1" fill="rgba(191,191,191,1.00)"/>
    <rect x="30.00" y="33.00" width="1.00" height="1" fill="rgba(229,229,229,1.00)"/>
    <rect x="31.00" y="33.00" width="1.00" height="1" fill="rgba(242,159,197,1.00)"/>
    <rect x="32.00" y="33.00" width="1.00" height="1" fill="rgba(229,229,229,1.00)"/>
    <rect x="33.00" y="33.00" width="1.00" height="1" fill="rgba(255,255,255,1.00)"/>
    <rect x="34.00" y="33.00" width="1.00" height="1" fill="rgba(229,229,229,1.00)"/>
    <rect x="29.00" y="34.00" width="1.00" height="1" fill="rgba(191,191,191,1.00)"/>
    <rect x="30.00" y="34.00" width="1.00" height="1" fill="rgba(229,229,229,1.00)"/>
    <rect x="31.00" y="34.00" width="1.00" height="1" fill="rgba(255,255,255,1.00)"/>
    <rect x="32.00" y="34.00" width="1.00" height="1" fill="rgba(229,229,229,1.00)"/>
    <rect x="33.00" y="34.00" width="1.00" height="1" fill="rgba(255,255,255,1.00)"/>
    <rect x="34.00" y="34.00" width="1.00" height="1" fill="rgba(229,229,229,1.00)"/>
    <rect x="30.00" y="35.00" width="1.00" height="1" fill="rgba(191,191,191,1.00)"/>
    <rect x="31.00" y="35.00" width="1.00" height="1" fill="rgba(229,229,229,1.00)"/>
    <rect x="32.00" y="35.00" width="1.00" height="1" fill="rgba(255,255,255,1.00)"/>
    <rect x="33.00" y="35.00" width="1.00" height="1" fill="rgba(229,229,229,1.00)"/>
    <rect x="30.00" y="36.00" width="1.00" height="1" fill="rgba(176,176,176,1.00)"/>
    <rect x="31.00" y="36.00" width="1.00" height="1" fill="rgba(183,183,183,1.00)"/>
    <rect x="32.00" y="36.00" width="1.00" height="1" fill="rgba(196,196,196,1.00)"/>
    <rect x="33.00" y="36.00" width="1.00" height="1" fill="rgba(202,202,202,1.00)"/>
  </g>
</svg>