<svg shape-rendering="crispEdges" xmlns="http://www.w3.org/2000/svg" version="1.1" width="37" height="37"><style>rect { image-rendering: pixelated; }</style><rect x="14" y="6" width="1.025" height="1.025" fill="rgba(0,0,0,1.000)" /><rect x="15" y="6" width="1.025" height="1.025" fill="rgba(0,0,0,1.000)" /><rect x="16" y="6" width="1.025" height="1.025" fill="rgba(0,0,0,1.000)" /><rect x="17" y="6" width="1.025" height="1.025" fill="rgba(0,0,0,1.000)" /><rect x="18" y="6" width="1.025" height="1.025" fill="rgba(0,0,0,1.000)" /><rect x="19" y="6" width="1.025" height="1.025" fill="rgba(0,0,0,1.000)" /><rect x="20" y="6" width="1.025" height="1.025" fill="rgba(0,0,0,1.000)" /><rect x="21" y="6" width="1.025" height="1.025" fill="rgba(0,0,0,1.000)" /><rect x="22" y="6" width="1.025" height="1.025" fill="rgba(0,0,0,1.000)" /><rect x="13" y="7" width="1.025" height="1.025" fill="rgba(0,0,0,1.000)" /><rect x="14" y="7" width="1.025" height="1.025" fill="rgba(132,67,44,1.000)" /><rect x="15" y="7" width="1.025" height="1.025" fill="rgba(214,128,89,1.000)" /><rect x="16" y="7" width="1.025" height="1.025" fill="rgba(229,151,102,1.000)" /><rect x="17" y="7" width="1.025" height="1.025" fill="rgba(232,163,110,1.000)" /><rect x="18" y="7" width="1.025" height="1.025" fill="rgba(231,158,108,1.000)" /><rect x="19" y="7" width="1.025" height="1.025" fill="rgba(229,157,106,1.000)" /><rect x="20" y="7" width="1.025" height="1.025" fill="rgba(229,157,106,1.000)" /><rect x="21" y="7" width="1.025" height="1.025" fill="rgba(231,160,106,1.000)" /><rect x="22" y="7" width="1.025" height="1.025" fill="rgba(206,128,88,1.000)" /><rect x="23" y="7" width="1.025" height="1.025" fill="rgba(0,0,0,1.000)" /><rect x="12" y="8" width="1.025" height="1.025" fill="rgba(0,0,0,1.000)" /><rect x="13" y="8" width="1.025" height="1.025" fill="rgba(94,40,20,1.000)" /><rect x="14" y="8" width="1.025" height="1.025" fill="rgba(207,110,82,1.000)" /><rect x="15" y="8" width="1.025" height="1.025" fill="rgba(245,163,117,1.000)" /><rect x="16" y="8" width="1.025" height="1.025" fill="rgba(245,185,131,1.000)" /><rect x="17" y="8" width="1.025" height="1.025" fill="rgba(251,213,162,1.000)" /><rect x="18" y="8" width="1.025" height="1.025" fill="rgba(245,211,154,1.000)" /><rect x="19" y="8" width="1.025" height="1.025" fill="rgba(245,211,153,1.000)" /><rect x="20" y="8" width="1.025" height="1.025" fill="rgba(249,214,159,1.000)" /><rect x="21" y="8" width="1.025" height="1.025" fill="rgba(249,207,154,1.000)" /><rect x="22" y="8" width="1.025" height="1.025" fill="rgba(249,199,140,1.000)" /><rect x="23" y="8" width="1.025" height="1.025" fill="rgba(223,129,92,1.000)" /><rect x="24" y="8" width="1.025" height="1.025" fill="rgba(0,0,0,1.000)" /><rect x="12" y="9" width="1.025" height="1.025" fill="rgba(0,0,0,1.000)" /><rect x="13" y="9" width="1.025" height="1.025" fill="rgba(119,59,36,1.000)" /><rect x="14" y="9" width="1.025" height="1.025" fill="rgba(222,120,88,1.000)" /><rect x="15" y="9" width="1.025" height="1.025" fill="rgba(244,155,111,1.000)" /><rect x="16" y="9" width="1.025" height="1.025" fill="rgba(255,204,157,1.000)" /><rect x="17" y="9" width="1.025" height="1.025" fill="rgba(255,209,161,1.000)" /><rect x="18" y="9" width="1.025" height="1.025" fill="rgba(255,222,175,1.000)" /><rect x="19" y="9" width="1.025" height="1.025" fill="rgba(255,227,181,1.000)" /><rect x="20" y="9" width="1.025" height="1.025" fill="rgba(255,207,168,1.000)" /><rect x="21" y="9" width="1.025" height="1.025" fill="rgba(255,206,162,1.000)" /><rect x="22" y="9" width="1.025" height="1.025" fill="rgba(255,202,155,1.000)" /><rect x="23" y="9" width="1.025" height="1.025" fill="rgba(236,148,102,1.000)" /><rect x="24" y="9" width="1.025" height="1.025" fill="rgba(0,0,0,1.000)" /><rect x="12" y="10" width="1.025" height="1.025" fill="rgba(0,0,0,1.000)" /><rect x="13" y="10" width="1.025" height="1.025" fill="rgba(118,59,36,1.000)" /><rect x="14" y="10" width="1.025" height="1.025" fill="rgba(213,114,84,1.000)" /><rect x="15" y="10" width="1.025" height="1.025" fill="rgba(245,151,110,1.000)" /><rect x="16" y="10" width="1.025" height="1.025" fill="rgba(253,202,154,1.000)" /><rect x="17" y="10" width="1.025" height="1.025" fill="rgba(255,211,162,1.000)" /><rect x="18" y="10" width="1.025" height="1.025" fill="rgba(255,211,162,1.000)" /><rect x="19" y="10" width="1.025" height="1.025" fill="rgba(255,214,166,1.000)" /><rect x="20" y="10" width="1.025" height="1.025" fill="rgba(255,211,163,1.000)" /><rect x="21" y="10" width="1.025" height="1.025" fill="rgba(255,192,148,1.000)" /><rect x="22" y="10" width="1.025" height="1.025" fill="rgba(255,194,149,1.000)" /><rect x="23" y="10" width="1.025" height="1.025" fill="rgba(227,140,98,1.000)" /><rect x="24" y="10" width="1.025" height="1.025" fill="rgba(0,0,0,1.000)" /><rect x="12" y="11" width="1.025" height="1.025" fill="rgba(0,0,0,1.000)" /><rect x="13" y="11" width="1.025" height="1.025" fill="rgba(114,57,34,1.000)" /><rect x="14" y="11" width="1.025" height="1.025" fill="rgba(211,110,83,1.000)" /><rect x="15" y="11" width="1.025" height="1.025" fill="rgba(242,138,101,1.000)" /><rect x="16" y="11" width="1.025" height="1.025" fill="rgba(253,180,136,1.000)" /><rect x="17" y="11" width="1.025" height="1.025" fill="rgba(255,222,172,1.000)" /><rect x="18" y="11" width="1.025" height="1.025" fill="rgba(255,223,173,1.000)" /><rect x="19" y="11" width="1.025" height="1.025" fill="rgba(255,223,173,1.000)" /><rect x="20" y="11" width="1.025" height="1.025" fill="rgba(255,214,166,1.000)" /><rect x="21" y="11" width="1.025" height="1.025" fill="rgba(255,197,150,1.000)" /><rect x="22" y="11" width="1.025" height="1.025" fill="rgba(255,209,159,1.000)" /><rect x="23" y="11" width="1.025" height="1.025" fill="rgba(234,148,103,1.000)" /><rect x="24" y="11" width="1.025" height="1.025" fill="rgba(0,0,0,1.000)" /><rect x="12" y="12" width="1.025" height="1.025" fill="rgba(0,0,0,1.000)" /><rect x="13" y="12" width="1.025" height="1.025" fill="rgba(103,47,28,1.000)" /><rect x="14" y="12" width="1.025" height="1.025" fill="rgba(207,110,82,1.000)" /><rect x="15" y="12" width="1.025" height="1.025" fill="rgba(240,139,101,1.000)" /><rect x="16" y="12" width="1.025" height="1.025" fill="rgba(244,149,104,1.000)" /><rect x="17" y="12" width="1.025" height="1.025" fill="rgba(227,136,99,1.000)" /><rect x="18" y="12" width="1.025" height="1.025" fill="rgba(232,140,104,1.000)" /><rect x="19" y="12" width="1.025" height="1.025" fill="rgba(231,136,104,1.000)" /><rect x="20" y="12" width="1.025" height="1.025" fill="rgba(247,174,127,1.000)" /><rect x="21" y="12" width="1.025" height="1.025" fill="rgba(249,184,139,1.000)" /><rect x="22" y="12" width="1.025" height="1.025" fill="rgba(242,169,124,1.000)" /><rect x="23" y="12" width="1.025" height="1.025" fill="rgba(236,140,103,1.000)" /><rect x="24" y="12" width="1.025" height="1.025" fill="rgba(0,0,0,1.000)" /><rect x="12" y="13" width="1.025" height="1.025" fill="rgba(0,0,0,1.000)" /><rect x="13" y="13" width="1.025" height="1.025" fill="rgba(0,0,0,1.000)" /><rect x="14" y="13" width="1.025" height="1.025" fill="rgba(202,108,81,1.000)" /><rect x="15" y="13" width="1.025" height="1.025" fill="rgba(245,146,104,1.000)" /><rect x="16" y="13" width="1.025" height="1.025" fill="rgba(192,103,76,1.000)" /><rect x="17" y="13" width="1.025" height="1.025" fill="rgba(67,22,15,1.000)" /><rect x="18" y="13" width="1.025" height="1.025" fill="rgba(73,25,20,1.000)" /><rect x="19" y="13" width="1.025" height="1.025" fill="rgba(117,52,43,1.000)" /><rect x="20" y="13" width="1.025" height="1.025" fill="rgba(179,94,70,1.000)" /><rect x="21" y="13" width="1.025" height="1.025" fill="rgba(187,109,80,1.000)" /><rect x="22" y="13" width="1.025" height="1.025" fill="rgba(67,22,15,1.000)" /><rect x="23" y="13" width="1.025" height="1.025" fill="rgba(73,25,20,1.000)" /><rect x="24" y="13" width="1.025" height="1.025" fill="rgba(0,0,0,1.000)" /><rect x="11" y="14" width="1.025" height="1.025" fill="rgba(0,0,0,1.000)" /><rect x="12" y="14" width="1.025" height="1.025" fill="rgba(112,47,35,1.000)" /><rect x="13" y="14" width="1.025" height="1.025" fill="rgba(155,73,57,1.000)" /><rect x="14" y="14" width="1.025" height="1.025" fill="rgba(200,107,79,1.000)" /><rect x="15" y="14" width="1.025" height="1.025" fill="rgba(244,140,101,1.000)" /><rect x="16" y="14" width="1.025" height="1.025" fill="rgba(216,142,97,1.000)" /><rect x="17" y="14" width="1.025" height="1.025" fill="rgba(0,0,0,1.000)" /><rect x="18" y="14" width="1.025" height="1.025" fill="rgba(255,255,255,1.000)" /><rect x="19" y="14" width="1.025" height="1.025" fill="rgba(202,122,94,1.000)" /><rect x="20" y="14" width="1.025" height="1.025" fill="rgba(222,135,99,1.000)" /><rect x="21" y="14" width="1.025" height="1.025" fill="rgba(204,132,95,1.000)" /><rect x="22" y="14" width="1.025" height="1.025" fill="rgba(0,0,0,1.000)" /><rect x="23" y="14" width="1.025" height="1.025" fill="rgba(255,255,255,1.000)" /><rect x="24" y="14" width="1.025" height="1.025" fill="rgba(0,0,0,1.000)" /><rect x="11" y="15" width="1.025" height="1.025" fill="rgba(0,0,0,1.000)" /><rect x="12" y="15" width="1.025" height="1.025" fill="rgba(161,74,57,1.000)" /><rect x="13" y="15" width="1.025" height="1.025" fill="rgba(138,58,47,1.000)" /><rect x="14" y="15" width="1.025" height="1.025" fill="rgba(190,90,70,1.000)" /><rect x="15" y="15" width="1.025" height="1.025" fill="rgba(229,131,94,1.000)" /><rect x="16" y="15" width="1.025" height="1.025" fill="rgba(255,211,162,1.000)" /><rect x="17" y="15" width="1.025" height="1.025" fill="rgba(253,227,179,1.000)" /><rect x="18" y="15" width="1.025" height="1.025" fill="rgba(247,213,157,1.000)" /><rect x="19" y="15" width="1.025" height="1.025" fill="rgba(255,192,149,1.000)" /><rect x="20" y="15" width="1.025" height="1.025" fill="rgba(236,157,116,1.000)" /><rect x="21" y="15" width="1.025" height="1.025" fill="rgba(244,166,121,1.000)" /><rect x="22" y="15" width="1.025" height="1.025" fill="rgba(253,209,162,1.000)" /><rect x="23" y="15" width="1.025" height="1.025" fill="rgba(240,179,127,1.000)" /><rect x="24" y="15" width="1.025" height="1.025" fill="rgba(0,0,0,1.000)" /><rect x="11" y="16" width="1.025" height="1.025" fill="rgba(0,0,0,1.000)" /><rect x="12" y="16" width="1.025" height="1.025" fill="rgba(116,46,34,1.000)" /><rect x="13" y="16" width="1.025" height="1.025" fill="rgba(135,54,45,1.000)" /><rect x="14" y="16" width="1.025" height="1.025" fill="rgba(164,73,58,1.000)" /><rect x="15" y="16" width="1.025" height="1.025" fill="rgba(195,102,78,1.000)" /><rect x="16" y="16" width="1.025" height="1.025" fill="rgba(245,151,111,1.000)" /><rect x="17" y="16" width="1.025" height="1.025" fill="rgba(255,214,168,1.000)" /><rect x="18" y="16" width="1.025" height="1.025" fill="rgba(255,225,173,1.000)" /><rect x="19" y="16" width="1.025" height="1.025" fill="rgba(245,182,132,1.000)" /><rect x="20" y="16" width="1.025" height="1.025" fill="rgba(244,157,117,1.000)" /><rect x="21" y="16" width="1.025" height="1.025" fill="rgba(244,157,117,1.000)" /><rect x="22" y="16" width="1.025" height="1.025" fill="rgba(225,139,101,1.000)" /><rect x="23" y="16" width="1.025" height="1.025" fill="rgba(202,122,87,1.000)" /><rect x="24" y="16" width="1.025" height="1.025" fill="rgba(0,0,0,1.000)" /><rect x="12" y="17" width="1.025" height="1.025" fill="rgba(0,0,0,1.000)" /><rect x="13" y="17" width="1.025" height="1.025" fill="rgba(0,0,0,1.000)" /><rect x="14" y="17" width="1.025" height="1.025" fill="rgba(152,66,53,1.000)" /><rect x="15" y="17" width="1.025" height="1.025" fill="rgba(160,69,55,1.000)" /><rect x="16" y="17" width="1.025" height="1.025" fill="rgba(211,114,85,1.000)" /><rect x="17" y="17" width="1.025" height="1.025" fill="rgba(247,158,116,1.000)" /><rect x="18" y="17" width="1.025" height="1.025" fill="rgba(255,211,159,1.000)" /><rect x="19" y="17" width="1.025" height="1.025" fill="rgba(249,204,152,1.000)" /><rect x="20" y="17" width="1.025" height="1.025" fill="rgba(0,0,0,1.000)" /><rect x="21" y="17" width="1.025" height="1.025" fill="rgba(0,0,0,1.000)" /><rect x="22" y="17" width="1.025" height="1.025" fill="rgba(163,86,65,1.000)" /><rect x="23" y="17" width="1.025" height="1.025" fill="rgba(204,113,82,1.000)" /><rect x="24" y="17" width="1.025" height="1.025" fill="rgba(0,0,0,1.000)" /><rect x="13" y="18" width="1.025" height="1.025" fill="rgba(0,0,0,1.000)" /><rect x="14" y="18" width="1.025" height="1.025" fill="rgba(105,37,32,1.000)" /><rect x="15" y="18" width="1.025" height="1.025" fill="rgba(164,71,58,1.000)" /><rect x="16" y="18" width="1.025" height="1.025" fill="rgba(190,90,70,1.000)" /><rect x="17" y="18" width="1.025" height="1.025" fill="rgba(234,136,98,1.000)" /><rect x="18" y="18" width="1.025" height="1.025" fill="rgba(255,185,138,1.000)" /><rect x="19" y="18" width="1.025" height="1.025" fill="rgba(255,225,172,1.000)" /><rect x="20" y="18" width="1.025" height="1.025" fill="rgba(245,179,127,1.000)" /><rect x="21" y="18" width="1.025" height="1.025" fill="rgba(231,143,100,1.000)" /><rect x="22" y="18" width="1.025" height="1.025" fill="rgba(253,184,134,1.000)" /><rect x="23" y="18" width="1.025" height="1.025" fill="rgba(222,126,90,1.000)" /><rect x="24" y="18" width="1.025" height="1.025" fill="rgba(0,0,0,1.000)" /><rect x="13" y="19" width="1.025" height="1.025" fill="rgba(0,0,0,1.000)" /><rect x="14" y="19" width="1.025" height="1.025" fill="rgba(60,13,11,1.000)" /><rect x="15" y="19" width="1.025" height="1.025" fill="rgba(158,71,56,1.000)" /><rect x="16" y="19" width="1.025" height="1.025" fill="rgba(184,88,67,1.000)" /><rect x="17" y="19" width="1.025" height="1.025" fill="rgba(234,125,91,1.000)" /><rect x="18" y="19" width="1.025" height="1.025" fill="rgba(234,148,104,1.000)" /><rect x="19" y="19" width="1.025" height="1.025" fill="rgba(255,185,138,1.000)" /><rect x="20" y="19" width="1.025" height="1.025" fill="rgba(255,209,158,1.000)" /><rect x="21" y="19" width="1.025" height="1.025" fill="rgba(247,187,136,1.000)" /><rect x="22" y="19" width="1.025" height="1.025" fill="rgba(236,148,104,1.000)" /><rect x="23" y="19" width="1.025" height="1.025" fill="rgba(200,113,80,1.000)" /><rect x="24" y="19" width="1.025" height="1.025" fill="rgba(0,0,0,1.000)" /><rect x="13" y="20" width="1.025" height="1.025" fill="rgba(0,0,0,1.000)" /><rect x="14" y="20" width="1.025" height="1.025" fill="rgba(38,5,5,1.000)" /><rect x="15" y="20" width="1.025" height="1.025" fill="rgba(131,52,42,1.000)" /><rect x="16" y="20" width="1.025" height="1.025" fill="rgba(190,92,69,1.000)" /><rect x="17" y="20" width="1.025" height="1.025" fill="rgba(216,113,83,1.000)" /><rect x="18" y="20" width="1.025" height="1.025" fill="rgba(211,118,86,1.000)" /><rect x="19" y="20" width="1.025" height="1.025" fill="rgba(0,0,0,1.000)" /><rect x="20" y="20" width="1.025" height="1.025" fill="rgba(0,0,0,1.000)" /><rect x="21" y="20" width="1.025" height="1.025" fill="rgba(0,0,0,1.000)" /><rect x="22" y="20" width="1.025" height="1.025" fill="rgba(200,113,80,1.000)" /><rect x="23" y="20" width="1.025" height="1.025" fill="rgba(192,103,74,1.000)" /><rect x="24" y="20" width="1.025" height="1.025" fill="rgba(0,0,0,1.000)" /><rect x="13" y="21" width="1.025" height="1.025" fill="rgba(0,0,0,1.000)" /><rect x="14" y="21" width="1.025" height="1.025" fill="rgba(44,8,4,1.000)" /><rect x="15" y="21" width="1.025" height="1.025" fill="rgba(91,31,27,1.000)" /><rect x="16" y="21" width="1.025" height="1.025" fill="rgba(154,69,54,1.000)" /><rect x="17" y="21" width="1.025" height="1.025" fill="rgba(211,105,79,1.000)" /><rect x="18" y="21" width="1.025" height="1.025" fill="rgba(245,146,105,1.000)" /><rect x="19" y="21" width="1.025" height="1.025" fill="rgba(251,189,138,1.000)" /><rect x="20" y="21" width="1.025" height="1.025" fill="rgba(251,197,144,1.000)" /><rect x="21" y="21" width="1.025" height="1.025" fill="rgba(251,182,134,1.000)" /><rect x="22" y="21" width="1.025" height="1.025" fill="rgba(251,164,119,1.000)" /><rect x="23" y="21" width="1.025" height="1.025" fill="rgba(190,102,73,1.000)" /><rect x="24" y="21" width="1.025" height="1.025" fill="rgba(0,0,0,1.000)" /><rect x="13" y="22" width="1.025" height="1.025" fill="rgba(0,0,0,1.000)" /><rect x="14" y="22" width="1.025" height="1.025" fill="rgba(72,21,15,1.000)" /><rect x="15" y="22" width="1.025" height="1.025" fill="rgba(91,31,27,1.000)" /><rect x="16" y="22" width="1.025" height="1.025" fill="rgba(0,0,0,1.000)" /><rect x="17" y="22" width="1.025" height="1.025" fill="rgba(145,71,53,1.000)" /><rect x="18" y="22" width="1.025" height="1.025" fill="rgba(242,131,95,1.000)" /><rect x="19" y="22" width="1.025" height="1.025" fill="rgba(251,171,126,1.000)" /><rect x="20" y="22" width="1.025" height="1.025" fill="rgba(255,220,163,1.000)" /><rect x="21" y="22" width="1.025" height="1.025" fill="rgba(255,223,170,1.000)" /><rect x="22" y="22" width="1.025" height="1.025" fill="rgba(255,190,142,1.000)" /><rect x="23" y="22" width="1.025" height="1.025" fill="rgba(0,0,0,1.000)" /><rect x="13" y="23" width="1.025" height="1.025" fill="rgba(0,0,0,1.000)" /><rect x="14" y="23" width="1.025" height="1.025" fill="rgba(92,32,24,1.000)" /><rect x="15" y="23" width="1.025" height="1.025" fill="rgba(177,86,66,1.000)" /><rect x="16" y="23" width="1.025" height="1.025" fill="rgba(122,51,40,1.000)" /><rect x="17" y="23" width="1.025" height="1.025" fill="rgba(0,0,0,1.000)" /><rect x="18" y="23" width="1.025" height="1.025" fill="rgba(145,71,53,1.000)" /><rect x="19" y="23" width="1.025" height="1.025" fill="rgba(168,100,71,1.000)" /><rect x="20" y="23" width="1.025" height="1.025" fill="rgba(218,154,106,1.000)" /><rect x="21" y="23" width="1.025" height="1.025" fill="rgba(218,154,106,1.000)" /><rect x="22" y="23" width="1.025" height="1.025" fill="rgba(0,0,0,1.000)" /><rect x="13" y="24" width="1.025" height="1.025" fill="rgba(0,0,0,1.000)" /><rect x="14" y="24" width="1.025" height="1.025" fill="rgba(106,43,31,1.000)" /><rect x="15" y="24" width="1.025" height="1.025" fill="rgba(247,138,100,1.000)" /><rect x="16" y="24" width="1.025" height="1.025" fill="rgba(220,116,85,1.000)" /><rect x="17" y="24" width="1.025" height="1.025" fill="rgba(122,51,40,1.000)" /><rect x="18" y="24" width="1.025" height="1.025" fill="rgba(0,0,0,1.000)" /><rect x="19" y="24" width="1.025" height="1.025" fill="rgba(0,0,0,1.000)" /><rect x="20" y="24" width="1.025" height="1.025" fill="rgba(0,0,0,1.000)" /><rect x="21" y="24" width="1.025" height="1.025" fill="rgba(0,0,0,1.000)" /><rect x="13" y="25" width="1.025" height="1.025" fill="rgba(0,0,0,1.000)" /><rect x="14" y="25" width="1.025" height="1.025" fill="rgba(104,42,30,1.000)" /><rect x="15" y="25" width="1.025" height="1.025" fill="rgba(247,138,100,1.000)" /><rect x="16" y="25" width="1.025" height="1.025" fill="rgba(249,160,116,1.000)" /><rect x="17" y="25" width="1.025" height="1.025" fill="rgba(222,125,91,1.000)" /><rect x="18" y="25" width="1.025" height="1.025" fill="rgba(0,0,0,1.000)" /><rect x="13" y="26" width="1.025" height="1.025" fill="rgba(0,0,0,1.000)" /><rect x="14" y="26" width="1.025" height="1.025" fill="rgba(116,54,37,1.000)" /><rect x="15" y="26" width="1.025" height="1.025" fill="rgba(245,139,100,1.000)" /><rect x="16" y="26" width="1.025" height="1.025" fill="rgba(249,160,116,1.000)" /><rect x="17" y="26" width="1.025" height="1.025" fill="rgba(222,125,91,1.000)" /><rect x="18" y="26" width="1.025" height="1.025" fill="rgba(0,0,0,1.000)" /><rect x="13" y="27" width="1.025" height="1.025" fill="rgba(0,0,0,1.000)" /><rect x="14" y="27" width="1.025" height="1.025" fill="rgba(159,78,57,1.000)" /><rect x="15" y="27" width="1.025" height="1.025" fill="rgba(220,125,86,1.000)" /><rect x="16" y="27" width="1.025" height="1.025" fill="rgba(247,155,105,1.000)" /><rect x="17" y="27" width="1.025" height="1.025" fill="rgba(240,138,94,1.000)" /><rect x="18" y="27" width="1.025" height="1.025" fill="rgba(0,0,0,1.000)" /><rect x="11" y="28" width="1.025" height="1.025" fill="rgba(0,0,0,1.000)" /><rect x="12" y="28" width="1.025" height="1.025" fill="rgba(0,0,0,1.000)" /><rect x="13" y="28" width="1.025" height="1.025" fill="rgba(220,120,85,1.000)" /><rect x="14" y="28" width="1.025" height="1.025" fill="rgba(220,122,85,1.000)" /><rect x="15" y="28" width="1.025" height="1.025" fill="rgba(207,110,78,1.000)" /><rect x="16" y="28" width="1.025" height="1.025" fill="rgba(216,120,84,1.000)" /><rect x="17" y="28" width="1.025" height="1.025" fill="rgba(236,139,94,1.000)" /><rect x="18" y="28" width="1.025" height="1.025" fill="rgba(229,131,90,1.000)" /><rect x="19" y="28" width="1.025" height="1.025" fill="rgba(0,0,0,1.000)" /><rect x="20" y="28" width="1.025" height="1.025" fill="rgba(0,0,0,1.000)" /><rect x="21" y="28" width="1.025" height="1.025" fill="rgba(0,0,0,1.000)" /><rect x="9" y="29" width="1.025" height="1.025" fill="rgba(0,0,0,1.000)" /><rect x="10" y="29" width="1.025" height="1.025" fill="rgba(0,0,0,1.000)" /><rect x="11" y="29" width="1.025" height="1.025" fill="rgba(200,104,74,1.000)" /><rect x="12" y="29" width="1.025" height="1.025" fill="rgba(197,102,72,1.000)" /><rect x="13" y="29" width="1.025" height="1.025" fill="rgba(204,107,76,1.000)" /><rect x="14" y="29" width="1.025" height="1.025" fill="rgba(200,105,74,1.000)" /><rect x="15" y="29" width="1.025" height="1.025" fill="rgba(197,102,73,1.000)" /><rect x="16" y="29" width="1.025" height="1.025" fill="rgba(200,104,74,1.000)" /><rect x="17" y="29" width="1.025" height="1.025" fill="rgba(211,116,81,1.000)" /><rect x="18" y="29" width="1.025" height="1.025" fill="rgba(225,128,88,1.000)" /><rect x="19" y="29" width="1.025" height="1.025" fill="rgba(206,109,77,1.000)" /><rect x="20" y="29" width="1.025" height="1.025" fill="rgba(197,102,72,1.000)" /><rect x="21" y="29" width="1.025" height="1.025" fill="rgba(214,117,81,1.000)" /><rect x="22" y="29" width="1.025" height="1.025" fill="rgba(0,0,0,1.000)" /><rect x="23" y="29" width="1.025" height="1.025" fill="rgba(0,0,0,1.000)" /><rect x="8" y="30" width="1.025" height="1.025" fill="rgba(0,0,0,1.000)" /><rect x="9" y="30" width="1.025" height="1.025" fill="rgba(232,135,93,1.000)" /><rect x="10" y="30" width="1.025" height="1.025" fill="rgba(234,135,92,1.000)" /><rect x="11" y="30" width="1.025" height="1.025" fill="rgba(223,124,86,1.000)" /><rect x="12" y="30" width="1.025" height="1.025" fill="rgba(227,128,90,1.000)" /><rect x="13" y="30" width="1.025" height="1.025" fill="rgba(229,133,91,1.000)" /><rect x="14" y="30" width="1.025" height="1.025" fill="rgba(232,139,94,1.000)" /><rect x="15" y="30" width="1.025" height="1.025" fill="rgba(240,145,99,1.000)" /><rect x="16" y="30" width="1.025" height="1.025" fill="rgba(236,142,97,1.000)" /><rect x="17" y="30" width="1.025" height="1.025" fill="rgba(207,113,79,1.000)" /><rect x="18" y="30" width="1.025" height="1.025" fill="rgba(218,124,85,1.000)" /><rect x="19" y="30" width="1.025" height="1.025" fill="rgba(245,151,104,1.000)" /><rect x="20" y="30" width="1.025" height="1.025" fill="rgba(244,148,101,1.000)" /><rect x="21" y="30" width="1.025" height="1.025" fill="rgba(242,142,98,1.000)" /><rect x="22" y="30" width="1.025" height="1.025" fill="rgba(227,128,88,1.000)" /><rect x="23" y="30" width="1.025" height="1.025" fill="rgba(214,117,81,1.000)" /><rect x="24" y="30" width="1.025" height="1.025" fill="rgba(0,0,0,1.000)" /><rect x="7" y="31" width="1.025" height="1.025" fill="rgba(0,0,0,1.000)" /><rect x="8" y="31" width="1.025" height="1.025" fill="rgba(242,140,97,1.000)" /><rect x="9" y="31" width="1.025" height="1.025" fill="rgba(253,174,122,1.000)" /><rect x="10" y="31" width="1.025" height="1.025" fill="rgba(247,155,106,1.000)" /><rect x="11" y="31" width="1.025" height="1.025" fill="rgba(238,140,97,1.000)" /><rect x="12" y="31" width="1.025" height="1.025" fill="rgba(247,155,109,1.000)" /><rect x="13" y="31" width="1.025" height="1.025" fill="rgba(249,160,111,1.000)" /><rect x="14" y="31" width="1.025" height="1.025" fill="rgba(247,157,110,1.000)" /><rect x="15" y="31" width="1.025" height="1.025" fill="rgba(249,160,111,1.000)" /><rect x="16" y="31" width="1.025" height="1.025" fill="rgba(249,164,116,1.000)" /><rect x="17" y="31" width="1.025" height="1.025" fill="rgba(240,146,100,1.000)" /><rect x="18" y="31" width="1.025" height="1.025" fill="rgba(242,146,100,1.000)" /><rect x="19" y="31" width="1.025" height="1.025" fill="rgba(251,168,119,1.000)" /><rect x="20" y="31" width="1.025" height="1.025" fill="rgba(251,168,121,1.000)" /><rect x="21" y="31" width="1.025" height="1.025" fill="rgba(249,160,111,1.000)" /><rect x="22" y="31" width="1.025" height="1.025" fill="rgba(242,146,100,1.000)" /><rect x="23" y="31" width="1.025" height="1.025" fill="rgba(234,136,93,1.000)" /><rect x="24" y="31" width="1.025" height="1.025" fill="rgba(251,155,110,1.000)" /><rect x="25" y="31" width="1.025" height="1.025" fill="rgba(0,0,0,1.000)" /><rect x="6" y="32" width="1.025" height="1.025" fill="rgba(0,0,0,1.000)" /><rect x="7" y="32" width="1.025" height="1.025" fill="rgba(189,92,68,1.000)" /><rect x="8" y="32" width="1.025" height="1.025" fill="rgba(242,143,98,1.000)" /><rect x="9" y="32" width="1.025" height="1.025" fill="rgba(253,168,119,1.000)" /><rect x="10" y="32" width="1.025" height="1.025" fill="rgba(249,155,108,1.000)" /><rect x="11" y="32" width="1.025" height="1.025" fill="rgba(238,140,97,1.000)" /><rect x="12" y="32" width="1.025" height="1.025" fill="rgba(249,164,116,1.000)" /><rect x="13" y="32" width="1.025" height="1.025" fill="rgba(251,172,121,1.000)" /><rect x="14" y="32" width="1.025" height="1.025" fill="rgba(251,168,119,1.000)" /><rect x="15" y="32" width="1.025" height="1.025" fill="rgba(251,168,121,1.000)" /><rect x="16" y="32" width="1.025" height="1.025" fill="rgba(251,168,121,1.000)" /><rect x="17" y="32" width="1.025" height="1.025" fill="rgba(245,151,102,1.000)" /><rect x="18" y="32" width="1.025" height="1.025" fill="rgba(245,149,101,1.000)" /><rect x="19" y="32" width="1.025" height="1.025" fill="rgba(249,163,116,1.000)" /><rect x="20" y="32" width="1.025" height="1.025" fill="rgba(251,171,122,1.000)" /><rect x="21" y="32" width="1.025" height="1.025" fill="rgba(251,168,119,1.000)" /><rect x="22" y="32" width="1.025" height="1.025" fill="rgba(245,151,104,1.000)" /><rect x="23" y="32" width="1.025" height="1.025" fill="rgba(240,140,97,1.000)" /><rect x="24" y="32" width="1.025" height="1.025" fill="rgba(234,135,92,1.000)" /><rect x="25" y="32" width="1.025" height="1.025" fill="rgba(0,0,0,1.000)" /><rect x="6" y="33" width="1.025" height="1.025" fill="rgba(0,0,0,1.000)" /><rect x="7" y="33" width="1.025" height="1.025" fill="rgba(185,90,66,1.000)" /><rect x="8" y="33" width="1.025" height="1.025" fill="rgba(244,145,99,1.000)" /><rect x="9" y="33" width="1.025" height="1.025" fill="rgba(222,128,89,1.000)" /><rect x="10" y="33" width="1.025" height="1.025" fill="rgba(154,76,54,1.000)" /><rect x="11" y="33" width="1.025" height="1.025" fill="rgba(216,120,84,1.000)" /><rect x="12" y="33" width="1.025" height="1.025" fill="rgba(249,160,111,1.000)" /><rect x="13" y="33" width="1.025" height="1.025" fill="rgba(255,182,132,1.000)" /><rect x="14" y="33" width="1.025" height="1.025" fill="rgba(253,177,128,1.000)" /><rect x="15" y="33" width="1.025" height="1.025" fill="rgba(251,171,122,1.000)" /><rect x="16" y="33" width="1.025" height="1.025" fill="rgba(253,172,127,1.000)" /><rect x="17" y="33" width="1.025" height="1.025" fill="rgba(0,0,0,1.000)" /><rect x="18" y="33" width="1.025" height="1.025" fill="rgba(231,135,92,1.000)" /><rect x="19" y="33" width="1.025" height="1.025" fill="rgba(249,163,116,1.000)" /><rect x="20" y="33" width="1.025" height="1.025" fill="rgba(251,172,124,1.000)" /><rect x="21" y="33" width="1.025" height="1.025" fill="rgba(251,169,120,1.000)" /><rect x="22" y="33" width="1.025" height="1.025" fill="rgba(251,163,114,1.000)" /><rect x="23" y="33" width="1.025" height="1.025" fill="rgba(0,0,0,1.000)" /><rect x="24" y="33" width="1.025" height="1.025" fill="rgba(145,70,50,1.000)" /><rect x="25" y="33" width="1.025" height="1.025" fill="rgba(227,124,86,1.000)" /><rect x="26" y="33" width="1.025" height="1.025" fill="rgba(0,0,0,1.000)" /><rect x="6" y="34" width="1.025" height="1.025" fill="rgba(0,0,0,1.000)" /><rect x="7" y="34" width="1.025" height="1.025" fill="rgba(185,90,66,1.000)" /><rect x="8" y="34" width="1.025" height="1.025" fill="rgba(240,136,93,1.000)" /><rect x="9" y="34" width="1.025" height="1.025" fill="rgba(168,87,63,1.000)" /><rect x="10" y="34" width="1.025" height="1.025" fill="rgba(0,0,0,1.000)" /><rect x="11" y="34" width="1.025" height="1.025" fill="rgba(160,75,56,1.000)" /><rect x="12" y="34" width="1.025" height="1.025" fill="rgba(242,140,98,1.000)" /><rect x="13" y="34" width="1.025" height="1.025" fill="rgba(229,139,97,1.000)" /><rect x="14" y="34" width="1.025" height="1.025" fill="rgba(244,157,108,1.000)" /><rect x="15" y="34" width="1.025" height="1.025" fill="rgba(255,179,131,1.000)" /><rect x="16" y="34" width="1.025" height="1.025" fill="rgba(251,171,121,1.000)" /><rect x="17" y="34" width="1.025" height="1.025" fill="rgba(251,171,121,1.000)" /><rect x="18" y="34" width="1.025" height="1.025" fill="rgba(0,0,0,1.000)" /><rect x="19" y="34" width="1.025" height="1.025" fill="rgba(242,145,100,1.000)" /><rect x="20" y="34" width="1.025" height="1.025" fill="rgba(253,174,126,1.000)" /><rect x="21" y="34" width="1.025" height="1.025" fill="rgba(251,172,121,1.000)" /><rect x="22" y="34" width="1.025" height="1.025" fill="rgba(229,133,91,1.000)" /><rect x="23" y="34" width="1.025" height="1.025" fill="rgba(177,94,67,1.000)" /><rect x="24" y="34" width="1.025" height="1.025" fill="rgba(0,0,0,1.000)" /><rect x="25" y="34" width="1.025" height="1.025" fill="rgba(218,117,82,1.000)" /><rect x="26" y="34" width="1.025" height="1.025" fill="rgba(0,0,0,1.000)" /><rect x="6" y="35" width="1.025" height="1.025" fill="rgba(0,0,0,1.000)" /><rect x="7" y="35" width="1.025" height="1.025" fill="rgba(187,92,67,1.000)" /><rect x="8" y="35" width="1.025" height="1.025" fill="rgba(232,128,89,1.000)" /><rect x="9" y="35" width="1.025" height="1.025" fill="rgba(160,80,57,1.000)" /><rect x="10" y="35" width="1.025" height="1.025" fill="rgba(0,0,0,1.000)" /><rect x="11" y="35" width="1.025" height="1.025" fill="rgba(103,37,28,1.000)" /><rect x="12" y="35" width="1.025" height="1.025" fill="rgba(194,100,72,1.000)" /><rect x="13" y="35" width="1.025" height="1.025" fill="rgba(182,92,67,1.000)" /><rect x="14" y="35" width="1.025" height="1.025" fill="rgba(209,114,81,1.000)" /><rect x="15" y="35" width="1.025" height="1.025" fill="rgba(245,149,103,1.000)" /><rect x="16" y="35" width="1.025" height="1.025" fill="rgba(236,139,94,1.000)" /><rect x="17" y="35" width="1.025" height="1.025" fill="rgba(185,92,68,1.000)" /><rect x="18" y="35" width="1.025" height="1.025" fill="rgba(161,81,58,1.000)" /><rect x="19" y="35" width="1.025" height="1.025" fill="rgba(0,0,0,1.000)" /><rect x="20" y="35" width="1.025" height="1.025" fill="rgba(245,151,104,1.000)" /><rect x="21" y="35" width="1.025" height="1.025" fill="rgba(244,148,102,1.000)" /><rect x="22" y="35" width="1.025" height="1.025" fill="rgba(192,98,71,1.000)" /><rect x="23" y="35" width="1.025" height="1.025" fill="rgba(161,81,58,1.000)" /><rect x="24" y="35" width="1.025" height="1.025" fill="rgba(161,81,58,1.000)" /><rect x="25" y="35" width="1.025" height="1.025" fill="rgba(0,0,0,1.000)" /><rect x="26" y="35" width="1.025" height="1.025" fill="rgba(0,0,0,1.000)" /><rect x="6" y="36" width="1.025" height="1.025" fill="rgba(0,0,0,1.000)" /><rect x="7" y="36" width="1.025" height="1.025" fill="rgba(190,95,71,1.000)" /><rect x="8" y="36" width="1.025" height="1.025" fill="rgba(238,140,95,1.000)" /><rect x="9" y="36" width="1.025" height="1.025" fill="rgba(171,90,65,1.000)" /><rect x="10" y="36" width="1.025" height="1.025" fill="rgba(0,0,0,1.000)" /><rect x="11" y="36" width="1.025" height="1.025" fill="rgba(107,39,31,1.000)" /><rect x="12" y="36" width="1.025" height="1.025" fill="rgba(145,63,48,1.000)" /><rect x="13" y="36" width="1.025" height="1.025" fill="rgba(179,87,64,1.000)" /><rect x="14" y="36" width="1.025" height="1.025" fill="rgba(180,87,65,1.000)" /><rect x="15" y="36" width="1.025" height="1.025" fill="rgba(194,86,64,1.000)" /><rect x="16" y="36" width="1.025" height="1.025" fill="rgba(197,102,73,1.000)" /><rect x="17" y="36" width="1.025" height="1.025" fill="rgba(172,84,61,1.000)" /><rect x="18" y="36" width="1.025" height="1.025" fill="rgba(145,68,49,1.000)" /><rect x="19" y="36" width="1.025" height="1.025" fill="rgba(194,86,64,1.000)" /><rect x="20" y="36" width="1.025" height="1.025" fill="rgba(0,0,0,1.000)" /><rect x="21" y="36" width="1.025" height="1.025" fill="rgba(213,116,82,1.000)" /><rect x="22" y="36" width="1.025" height="1.025" fill="rgba(194,86,64,1.000)" /><rect x="23" y="36" width="1.025" height="1.025" fill="rgba(161,81,58,1.000)" /><rect x="24" y="36" width="1.025" height="1.025" fill="rgba(145,68,49,1.000)" /><rect x="25" y="36" width="1.025" height="1.025" fill="rgba(194,86,64,1.000)" /><rect x="26" y="36" width="1.025" height="1.025" fill="rgba(0,0,0,1.000)" /></svg>