<svg xmlns="http://www.w3.org/2000/svg" width="37.925" height="37.925" style="image-rendering: pixelated; shape-rendering: crispEdges;"><rect x="14.349999999999998" y="6.1499999999999995" width="1.025" height="1.025" fill="rgba(118,2,0,1.000)" /><rect x="15.374999999999998" y="6.1499999999999995" width="1.025" height="1.025" fill="rgba(143,43,0,1.000)" /><rect x="16.4" y="6.1499999999999995" width="1.025" height="1.025" fill="rgba(164,91,0,1.000)" /><rect x="17.424999999999997" y="6.1499999999999995" width="1.025" height="1.025" fill="rgba(172,106,0,1.000)" /><rect x="18.45" y="6.1499999999999995" width="1.025" height="1.025" fill="rgba(197,137,1,1.000)" /><rect x="19.474999999999998" y="6.1499999999999995" width="1.025" height="1.025" fill="rgba(192,130,10,1.000)" /><rect x="20.5" y="6.1499999999999995" width="1.025" height="1.025" fill="rgba(183,116,14,1.000)" /><rect x="21.525" y="6.1499999999999995" width="1.025" height="1.025" fill="rgba(190,125,28,1.000)" /><rect x="22.549999999999997" y="6.1499999999999995" width="1.025" height="1.025" fill="rgba(209,151,40,1.000)" /><rect x="13.325" y="7.174999999999999" width="1.025" height="1.025" fill="rgba(105,4,0,1.000)" /><rect x="14.349999999999998" y="7.174999999999999" width="1.025" height="1.025" fill="rgba(185,77,3,1.000)" /><rect x="15.374999999999998" y="7.174999999999999" width="1.025" height="1.025" fill="rgba(238,181,9,1.000)" /><rect x="16.4" y="7.174999999999999" width="1.025" height="1.025" fill="rgba(248,221,34,1.000)" /><rect x="17.424999999999997" y="7.174999999999999" width="1.025" height="1.025" fill="rgba(248,223,34,1.000)" /><rect x="18.45" y="7.174999999999999" width="1.025" height="1.025" fill="rgba(248,226,42,1.000)" /><rect x="19.474999999999998" y="7.174999999999999" width="1.025" height="1.025" fill="rgba(248,225,49,1.000)" /><rect x="20.5" y="7.174999999999999" width="1.025" height="1.025" fill="rgba(254,243,77,1.000)" /><rect x="21.525" y="7.174999999999999" width="1.025" height="1.025" fill="rgba(255,247,123,1.000)" /><rect x="22.549999999999997" y="7.174999999999999" width="1.025" height="1.025" fill="rgba(255,210,30,1.000)" /><rect x="23.575" y="7.174999999999999" width="1.025" height="1.025" fill="rgba(255,242,83,1.000)" /><rect x="12.299999999999999" y="8.2" width="1.025" height="1.025" fill="rgba(250,243,201,1.000)" /><rect x="13.325" y="8.2" width="1.025" height="1.025" fill="rgba(157,23,3,1.000)" /><rect x="14.349999999999998" y="8.2" width="1.025" height="1.025" fill="rgba(246,202,34,1.000)" /><rect x="15.374999999999998" y="8.2" width="1.025" height="1.025" fill="rgba(252,222,14,1.000)" /><rect x="16.4" y="8.2" width="1.025" height="1.025" fill="rgba(254,237,4,1.000)" /><rect x="17.424999999999997" y="8.2" width="1.025" height="1.025" fill="rgba(255,251,150,1.000)" /><rect x="18.45" y="8.2" width="1.025" height="1.025" fill="rgba(255,251,150,1.000)" /><rect x="19.474999999999998" y="8.2" width="1.025" height="1.025" fill="rgba(255,249,132,1.000)" /><rect x="20.5" y="8.2" width="1.025" height="1.025" fill="rgba(255,246,60,1.000)" /><rect x="21.525" y="8.2" width="1.025" height="1.025" fill="rgba(255,244,36,1.000)" /><rect x="22.549999999999997" y="8.2" width="1.025" height="1.025" fill="rgba(255,253,220,1.000)" /><rect x="23.575" y="8.2" width="1.025" height="1.025" fill="rgba(255,248,138,1.000)" /><rect x="24.599999999999998" y="8.2" width="1.025" height="1.025" fill="rgba(255,255,89,1.000)" /><rect x="12.299999999999999" y="9.225" width="1.025" height="1.025" fill="rgba(176,80,0,1.000)" /><rect x="13.325" y="9.225" width="1.025" height="1.025" fill="rgba(198,105,12,1.000)" /><rect x="14.349999999999998" y="9.225" width="1.025" height="1.025" fill="rgba(254,229,36,1.000)" /><rect x="15.374999999999998" y="9.225" width="1.025" height="1.025" fill="rgba(254,226,6,1.000)" /><rect x="16.4" y="9.225" width="1.025" height="1.025" fill="rgba(255,246,105,1.000)" /><rect x="17.424999999999997" y="9.225" width="1.025" height="1.025" fill="rgba(255,254,214,1.000)" /><rect x="18.45" y="9.225" width="1.025" height="1.025" fill="rgba(255,254,214,1.000)" /><rect x="19.474999999999998" y="9.225" width="1.025" height="1.025" fill="rgba(255,253,151,1.000)" /><rect x="20.5" y="9.225" width="1.025" height="1.025" fill="rgba(255,249,117,1.000)" /><rect x="21.525" y="9.225" width="1.025" height="1.025" fill="rgba(255,239,9,1.000)" /><rect x="22.549999999999997" y="9.225" width="1.025" height="1.025" fill="rgba(255,235,17,1.000)" /><rect x="23.575" y="9.225" width="1.025" height="1.025" fill="rgba(255,255,218,1.000)" /><rect x="24.599999999999998" y="9.225" width="1.025" height="1.025" fill="rgba(255,232,103,1.000)" /><rect x="12.299999999999999" y="10.25" width="1.025" height="1.025" fill="rgba(187,98,0,1.000)" /><rect x="13.325" y="10.25" width="1.025" height="1.025" fill="rgba(207,123,9,1.000)" /><rect x="14.349999999999998" y="10.25" width="1.025" height="1.025" fill="rgba(254,232,41,1.000)" /><rect x="15.374999999999998" y="10.25" width="1.025" height="1.025" fill="rgba(254,229,8,1.000)" /><rect x="16.4" y="10.25" width="1.025" height="1.025" fill="rgba(255,251,151,1.000)" /><rect x="17.424999999999997" y="10.25" width="1.025" height="1.025" fill="rgba(255,254,214,1.000)" /><rect x="18.45" y="10.25" width="1.025" height="1.025" fill="rgba(255,254,214,1.000)" /><rect x="19.474999999999998" y="10.25" width="1.025" height="1.025" fill="rgba(255,254,167,1.000)" /><rect x="20.5" y="10.25" width="1.025" height="1.025" fill="rgba(255,253,158,1.000)" /><rect x="21.525" y="10.25" width="1.025" height="1.025" fill="rgba(255,243,3,1.000)" /><rect x="22.549999999999997" y="10.25" width="1.025" height="1.025" fill="rgba(255,237,5,1.000)" /><rect x="23.575" y="10.25" width="1.025" height="1.025" fill="rgba(255,254,214,1.000)" /><rect x="24.599999999999998" y="10.25" width="1.025" height="1.025" fill="rgba(255,225,46,1.000)" /><rect x="12.299999999999999" y="11.274999999999999" width="1.025" height="1.025" fill="rgba(189,103,0,1.000)" /><rect x="13.325" y="11.274999999999999" width="1.025" height="1.025" fill="rgba(198,108,4,1.000)" /><rect x="14.349999999999998" y="11.274999999999999" width="1.025" height="1.025" fill="rgba(252,223,8,1.000)" /><rect x="15.374999999999998" y="11.274999999999999" width="1.025" height="1.025" fill="rgba(254,237,44,1.000)" /><rect x="16.4" y="11.274999999999999" width="1.025" height="1.025" fill="rgba(254,244,60,1.000)" /><rect x="17.424999999999997" y="11.274999999999999" width="1.025" height="1.025" fill="rgba(255,253,162,1.000)" /><rect x="18.45" y="11.274999999999999" width="1.025" height="1.025" fill="rgba(255,254,166,1.000)" /><rect x="19.474999999999998" y="11.274999999999999" width="1.025" height="1.025" fill="rgba(255,253,83,1.000)" /><rect x="20.5" y="11.274999999999999" width="1.025" height="1.025" fill="rgba(255,251,9,1.000)" /><rect x="21.525" y="11.274999999999999" width="1.025" height="1.025" fill="rgba(255,249,1,1.000)" /><rect x="22.549999999999997" y="11.274999999999999" width="1.025" height="1.025" fill="rgba(255,254,4,1.000)" /><rect x="23.575" y="11.274999999999999" width="1.025" height="1.025" fill="rgba(255,248,170,1.000)" /><rect x="24.599999999999998" y="11.274999999999999" width="1.025" height="1.025" fill="rgba(249,227,30,1.000)" /><rect x="12.299999999999999" y="12.299999999999999" width="1.025" height="1.025" fill="rgba(151,62,0,1.000)" /><rect x="13.325" y="12.299999999999999" width="1.025" height="1.025" fill="rgba(190,88,3,1.000)" /><rect x="14.349999999999998" y="12.299999999999999" width="1.025" height="1.025" fill="rgba(252,219,7,1.000)" /><rect x="15.374999999999998" y="12.299999999999999" width="1.025" height="1.025" fill="rgba(253,233,16,1.000)" /><rect x="16.4" y="12.299999999999999" width="1.025" height="1.025" fill="rgba(253,229,7,1.000)" /><rect x="17.424999999999997" y="12.299999999999999" width="1.025" height="1.025" fill="rgba(253,226,10,1.000)" /><rect x="18.45" y="12.299999999999999" width="1.025" height="1.025" fill="rgba(253,231,5,1.000)" /><rect x="19.474999999999998" y="12.299999999999999" width="1.025" height="1.025" fill="rgba(251,224,6,1.000)" /><rect x="20.5" y="12.299999999999999" width="1.025" height="1.025" fill="rgba(254,242,5,1.000)" /><rect x="21.525" y="12.299999999999999" width="1.025" height="1.025" fill="rgba(254,248,3,1.000)" /><rect x="22.549999999999997" y="12.299999999999999" width="1.025" height="1.025" fill="rgba(255,248,4,1.000)" /><rect x="23.575" y="12.299999999999999" width="1.025" height="1.025" fill="rgba(255,242,102,1.000)" /><rect x="24.599999999999998" y="12.299999999999999" width="1.025" height="1.025" fill="rgba(238,216,14,1.000)" /><rect x="12.299999999999999" y="13.325" width="1.025" height="1.025" fill="rgba(140,53,0,1.000)" /><rect x="13.325" y="13.325" width="1.025" height="1.025" fill="rgba(224,141,1,1.000)" /><rect x="14.349999999999998" y="13.325" width="1.025" height="1.025" fill="rgba(250,213,4,1.000)" /><rect x="15.374999999999998" y="13.325" width="1.025" height="1.025" fill="rgba(254,231,7,1.000)" /><rect x="16.4" y="13.325" width="1.025" height="1.025" fill="rgba(246,207,7,1.000)" /><rect x="17.424999999999997" y="13.325" width="1.025" height="1.025" fill="rgba(156,29,0,1.000)" /><rect x="18.45" y="13.325" width="1.025" height="1.025" fill="rgba(174,31,0,1.000)" /><rect x="19.474999999999998" y="13.325" width="1.025" height="1.025" fill="rgba(252,247,205,1.000)" /><rect x="20.5" y="13.325" width="1.025" height="1.025" fill="rgba(248,211,8,1.000)" /><rect x="21.525" y="13.325" width="1.025" height="1.025" fill="rgba(249,218,5,1.000)" /><rect x="22.549999999999997" y="13.325" width="1.025" height="1.025" fill="rgba(110,13,0,1.000)" /><rect x="23.575" y="13.325" width="1.025" height="1.025" fill="rgba(170,33,0,1.000)" /><rect x="24.599999999999998" y="13.325" width="1.025" height="1.025" fill="rgba(252,248,167,1.000)" /><rect x="11.274999999999999" y="14.349999999999998" width="1.025" height="1.025" fill="rgba(153,58,0,1.000)" /><rect x="12.299999999999999" y="14.349999999999998" width="1.025" height="1.025" fill="rgba(166,24,0,1.000)" /><rect x="13.325" y="14.349999999999998" width="1.025" height="1.025" fill="rgba(225,150,0,1.000)" /><rect x="14.349999999999998" y="14.349999999999998" width="1.025" height="1.025" fill="rgba(249,212,3,1.000)" /><rect x="15.374999999999998" y="14.349999999999998" width="1.025" height="1.025" fill="rgba(253,227,4,1.000)" /><rect x="16.4" y="14.349999999999998" width="1.025" height="1.025" fill="rgba(250,228,5,1.000)" /><rect x="17.424999999999997" y="14.349999999999998" width="1.025" height="1.025" fill="rgba(13,10,2,1.000)" /><rect x="18.45" y="14.349999999999998" width="1.025" height="1.025" fill="rgba(255,255,254,1.000)" /><rect x="19.474999999999998" y="14.349999999999998" width="1.025" height="1.025" fill="rgba(226,168,18,1.000)" /><rect x="20.5" y="14.349999999999998" width="1.025" height="1.025" fill="rgba(252,228,3,1.000)" /><rect x="21.525" y="14.349999999999998" width="1.025" height="1.025" fill="rgba(252,227,4,1.000)" /><rect x="22.549999999999997" y="14.349999999999998" width="1.025" height="1.025" fill="rgba(55,45,10,1.000)" /><rect x="23.575" y="14.349999999999998" width="1.025" height="1.025" fill="rgba(255,255,255,1.000)" /><rect x="24.599999999999998" y="14.349999999999998" width="1.025" height="1.025" fill="rgba(252,231,37,1.000)" /><rect x="11.274999999999999" y="15.374999999999998" width="1.025" height="1.025" fill="rgba(137,25,0,1.000)" /><rect x="12.299999999999999" y="15.374999999999998" width="1.025" height="1.025" fill="rgba(204,105,0,1.000)" /><rect x="13.325" y="15.374999999999998" width="1.025" height="1.025" fill="rgba(224,139,0,1.000)" /><rect x="14.349999999999998" y="15.374999999999998" width="1.025" height="1.025" fill="rgba(248,205,4,1.000)" /><rect x="15.374999999999998" y="15.374999999999998" width="1.025" height="1.025" fill="rgba(252,224,6,1.000)" /><rect x="16.4" y="15.374999999999998" width="1.025" height="1.025" fill="rgba(255,249,13,1.000)" /><rect x="17.424999999999997" y="15.374999999999998" width="1.025" height="1.025" fill="rgba(254,252,10,1.000)" /><rect x="18.45" y="15.374999999999998" width="1.025" height="1.025" fill="rgba(234,201,14,1.000)" /><rect x="19.474999999999998" y="15.374999999999998" width="1.025" height="1.025" fill="rgba(241,207,5,1.000)" /><rect x="20.5" y="15.374999999999998" width="1.025" height="1.025" fill="rgba(252,231,3,1.000)" /><rect x="21.525" y="15.374999999999998" width="1.025" height="1.025" fill="rgba(255,245,13,1.000)" /><rect x="22.549999999999997" y="15.374999999999998" width="1.025" height="1.025" fill="rgba(255,255,69,1.000)" /><rect x="23.575" y="15.374999999999998" width="1.025" height="1.025" fill="rgba(255,252,96,1.000)" /><rect x="24.599999999999998" y="15.374999999999998" width="1.025" height="1.025" fill="rgba(249,231,40,1.000)" /><rect x="11.274999999999999" y="16.4" width="1.025" height="1.025" fill="rgba(119,0,0,1.000)" /><rect x="12.299999999999999" y="16.4" width="1.025" height="1.025" fill="rgba(178,37,0,1.000)" /><rect x="13.325" y="16.4" width="1.025" height="1.025" fill="rgba(215,116,0,1.000)" /><rect x="14.349999999999998" y="16.4" width="1.025" height="1.025" fill="rgba(235,173,0,1.000)" /><rect x="15.374999999999998" y="16.4" width="1.025" height="1.025" fill="rgba(247,209,5,1.000)" /><rect x="16.4" y="16.4" width="1.025" height="1.025" fill="rgba(253,236,13,1.000)" /><rect x="17.424999999999997" y="16.4" width="1.025" height="1.025" fill="rgba(254,248,17,1.000)" /><rect x="18.45" y="16.4" width="1.025" height="1.025" fill="rgba(247,235,20,1.000)" /><rect x="19.474999999999998" y="16.4" width="1.025" height="1.025" fill="rgba(246,225,18,1.000)" /><rect x="20.5" y="16.4" width="1.025" height="1.025" fill="rgba(255,238,8,1.000)" /><rect x="21.525" y="16.4" width="1.025" height="1.025" fill="rgba(255,238,8,1.000)" /><rect x="22.549999999999997" y="16.4" width="1.025" height="1.025" fill="rgba(255,231,28,1.000)" /><rect x="23.575" y="16.4" width="1.025" height="1.025" fill="rgba(255,224,30,1.000)" /><rect x="24.599999999999998" y="16.4" width="1.025" height="1.025" fill="rgba(248,202,15,1.000)" /><rect x="12.299999999999999" y="17.424999999999997" width="1.025" height="1.025" fill="rgba(118,1,0,1.000)" /><rect x="13.325" y="17.424999999999997" width="1.025" height="1.025" fill="rgba(162,71,0,1.000)" /><rect x="14.349999999999998" y="17.424999999999997" width="1.025" height="1.025" fill="rgba(225,157,0,1.000)" /><rect x="15.374999999999998" y="17.424999999999997" width="1.025" height="1.025" fill="rgba(236,178,1,1.000)" /><rect x="16.4" y="17.424999999999997" width="1.025" height="1.025" fill="rgba(249,215,4,1.000)" /><rect x="17.424999999999997" y="17.424999999999997" width="1.025" height="1.025" fill="rgba(254,237,4,1.000)" /><rect x="18.45" y="17.424999999999997" width="1.025" height="1.025" fill="rgba(255,249,5,1.000)" /><rect x="19.474999999999998" y="17.424999999999997" width="1.025" height="1.025" fill="rgba(254,248,6,1.000)" /><rect x="20.5" y="17.424999999999997" width="1.025" height="1.025" fill="rgba(121,6,1,1.000)" /><rect x="21.525" y="17.424999999999997" width="1.025" height="1.025" fill="rgba(175,107,0,1.000)" /><rect x="22.549999999999997" y="17.424999999999997" width="1.025" height="1.025" fill="rgba(253,213,7,1.000)" /><rect x="23.575" y="17.424999999999997" width="1.025" height="1.025" fill="rgba(255,224,54,1.000)" /><rect x="24.599999999999998" y="17.424999999999997" width="1.025" height="1.025" fill="rgba(249,199,17,1.000)" /><rect x="13.325" y="18.45" width="1.025" height="1.025" fill="rgba(99,2,0,1.000)" /><rect x="14.349999999999998" y="18.45" width="1.025" height="1.025" fill="rgba(193,62,0,1.000)" /><rect x="15.374999999999998" y="18.45" width="1.025" height="1.025" fill="rgba(237,179,0,1.000)" /><rect x="16.4" y="18.45" width="1.025" height="1.025" fill="rgba(244,195,0,1.000)" /><rect x="17.424999999999997" y="18.45" width="1.025" height="1.025" fill="rgba(252,224,0,1.000)" /><rect x="18.45" y="18.45" width="1.025" height="1.025" fill="rgba(255,244,1,1.000)" /><rect x="19.474999999999998" y="18.45" width="1.025" height="1.025" fill="rgba(255,250,3,1.000)" /><rect x="20.5" y="18.45" width="1.025" height="1.025" fill="rgba(254,241,37,1.000)" /><rect x="21.525" y="18.45" width="1.025" height="1.025" fill="rgba(255,236,77,1.000)" /><rect x="22.549999999999997" y="18.45" width="1.025" height="1.025" fill="rgba(255,243,17,1.000)" /><rect x="23.575" y="18.45" width="1.025" height="1.025" fill="rgba(255,235,60,1.000)" /><rect x="24.599999999999998" y="18.45" width="1.025" height="1.025" fill="rgba(248,198,24,1.000)" /><rect x="13.325" y="19.474999999999998" width="1.025" height="1.025" fill="rgba(74,1,0,1.000)" /><rect x="14.349999999999998" y="19.474999999999998" width="1.025" height="1.025" fill="rgba(139,4,0,1.000)" /><rect x="15.374999999999998" y="19.474999999999998" width="1.025" height="1.025" fill="rgba(235,179,0,1.000)" /><rect x="16.4" y="19.474999999999998" width="1.025" height="1.025" fill="rgba(243,194,0,1.000)" /><rect x="17.424999999999997" y="19.474999999999998" width="1.025" height="1.025" fill="rgba(251,216,0,1.000)" /><rect x="18.45" y="19.474999999999998" width="1.025" height="1.025" fill="rgba(253,227,0,1.000)" /><rect x="19.474999999999998" y="19.474999999999998" width="1.025" height="1.025" fill="rgba(255,244,0,1.000)" /><rect x="20.5" y="19.474999999999998" width="1.025" height="1.025" fill="rgba(255,250,1,1.000)" /><rect x="21.525" y="19.474999999999998" width="1.025" height="1.025" fill="rgba(255,247,2,1.000)" /><rect x="22.549999999999997" y="19.474999999999998" width="1.025" height="1.025" fill="rgba(255,228,15,1.000)" /><rect x="23.575" y="19.474999999999998" width="1.025" height="1.025" fill="rgba(255,234,59,1.000)" /><rect x="24.599999999999998" y="19.474999999999998" width="1.025" height="1.025" fill="rgba(243,174,39,1.000)" /><rect x="13.325" y="20.5" width="1.025" height="1.025" fill="rgba(75,0,0,1.000)" /><rect x="14.349999999999998" y="20.5" width="1.025" height="1.025" fill="rgba(75,2,0,1.000)" /><rect x="15.374999999999998" y="20.5" width="1.025" height="1.025" fill="rgba(223,137,0,1.000)" /><rect x="16.4" y="20.5" width="1.025" height="1.025" fill="rgba(245,195,0,1.000)" /><rect x="17.424999999999997" y="20.5" width="1.025" height="1.025" fill="rgba(249,207,0,1.000)" /><rect x="18.45" y="20.5" width="1.025" height="1.025" fill="rgba(251,206,0,1.000)" /><rect x="19.474999999999998" y="20.5" width="1.025" height="1.025" fill="rgba(94,5,0,1.000)" /><rect x="20.5" y="20.5" width="1.025" height="1.025" fill="rgba(177,0,0,1.000)" /><rect x="21.525" y="20.5" width="1.025" height="1.025" fill="rgba(196,51,0,1.000)" /><rect x="22.549999999999997" y="20.5" width="1.025" height="1.025" fill="rgba(254,192,7,1.000)" /><rect x="23.575" y="20.5" width="1.025" height="1.025" fill="rgba(253,219,52,1.000)" /><rect x="24.599999999999998" y="20.5" width="1.025" height="1.025" fill="rgba(236,165,36,1.000)" /><rect x="13.325" y="21.525" width="1.025" height="1.025" fill="rgba(80,0,0,1.000)" /><rect x="14.349999999999998" y="21.525" width="1.025" height="1.025" fill="rgba(91,1,0,1.000)" /><rect x="15.374999999999998" y="21.525" width="1.025" height="1.025" fill="rgba(196,70,0,1.000)" /><rect x="16.4" y="21.525" width="1.025" height="1.025" fill="rgba(233,172,0,1.000)" /><rect x="17.424999999999997" y="21.525" width="1.025" height="1.025" fill="rgba(248,199,0,1.000)" /><rect x="18.45" y="21.525" width="1.025" height="1.025" fill="rgba(253,221,0,1.000)" /><rect x="19.474999999999998" y="21.525" width="1.025" height="1.025" fill="rgba(254,240,0,1.000)" /><rect x="20.5" y="21.525" width="1.025" height="1.025" fill="rgba(254,243,0,1.000)" /><rect x="21.525" y="21.525" width="1.025" height="1.025" fill="rgba(255,235,0,1.000)" /><rect x="22.549999999999997" y="21.525" width="1.025" height="1.025" fill="rgba(255,213,0,1.000)" /><rect x="23.575" y="21.525" width="1.025" height="1.025" fill="rgba(255,249,167,1.000)" /><rect x="24.599999999999998" y="21.525" width="1.025" height="1.025" fill="rgba(219,162,44,1.000)" /><rect x="13.325" y="22.549999999999997" width="1.025" height="1.025" fill="rgba(88,1,0,1.000)" /><rect x="14.349999999999998" y="22.549999999999997" width="1.025" height="1.025" fill="rgba(157,3,0,1.000)" /><rect x="15.374999999999998" y="22.549999999999997" width="1.025" height="1.025" fill="rgba(179,106,0,1.000)" /><rect x="16.4" y="22.549999999999997" width="1.025" height="1.025" fill="rgba(122,12,0,1.000)" /><rect x="17.424999999999997" y="22.549999999999997" width="1.025" height="1.025" fill="rgba(238,173,0,1.000)" /><rect x="18.45" y="22.549999999999997" width="1.025" height="1.025" fill="rgba(253,210,0,1.000)" /><rect x="19.474999999999998" y="22.549999999999997" width="1.025" height="1.025" fill="rgba(254,230,0,1.000)" /><rect x="20.5" y="22.549999999999997" width="1.025" height="1.025" fill="rgba(255,250,18,1.000)" /><rect x="21.525" y="22.549999999999997" width="1.025" height="1.025" fill="rgba(255,236,15,1.000)" /><rect x="22.549999999999997" y="22.549999999999997" width="1.025" height="1.025" fill="rgba(255,218,3,1.000)" /><rect x="23.575" y="22.549999999999997" width="1.025" height="1.025" fill="rgba(187,115,22,1.000)" /><rect x="13.325" y="23.575" width="1.025" height="1.025" fill="rgba(90,2,0,1.000)" /><rect x="14.349999999999998" y="23.575" width="1.025" height="1.025" fill="rgba(177,29,0,1.000)" /><rect x="15.374999999999998" y="23.575" width="1.025" height="1.025" fill="rgba(192,134,0,1.000)" /><rect x="16.4" y="23.575" width="1.025" height="1.025" fill="rgba(179,106,0,1.000)" /><rect x="17.424999999999997" y="23.575" width="1.025" height="1.025" fill="rgba(154,25,0,1.000)" /><rect x="18.45" y="23.575" width="1.025" height="1.025" fill="rgba(224,151,0,1.000)" /><rect x="19.474999999999998" y="23.575" width="1.025" height="1.025" fill="rgba(238,180,1,1.000)" /><rect x="20.5" y="23.575" width="1.025" height="1.025" fill="rgba(255,220,14,1.000)" /><rect x="21.525" y="23.575" width="1.025" height="1.025" fill="rgba(255,216,21,1.000)" /><rect x="22.549999999999997" y="23.575" width="1.025" height="1.025" fill="rgba(188,117,0,1.000)" /><rect x="13.325" y="24.599999999999998" width="1.025" height="1.025" fill="rgba(99,2,0,1.000)" /><rect x="14.349999999999998" y="24.599999999999998" width="1.025" height="1.025" fill="rgba(185,63,0,1.000)" /><rect x="15.374999999999998" y="24.599999999999998" width="1.025" height="1.025" fill="rgba(250,205,0,1.000)" /><rect x="16.4" y="24.599999999999998" width="1.025" height="1.025" fill="rgba(224,151,0,1.000)" /><rect x="17.424999999999997" y="24.599999999999998" width="1.025" height="1.025" fill="rgba(126,48,0,1.000)" /><rect x="18.45" y="24.599999999999998" width="1.025" height="1.025" fill="rgba(117,25,0,1.000)" /><rect x="19.474999999999998" y="24.599999999999998" width="1.025" height="1.025" fill="rgba(131,56,3,1.000)" /><rect x="20.5" y="24.599999999999998" width="1.025" height="1.025" fill="rgba(143,76,12,1.000)" /><rect x="21.525" y="24.599999999999998" width="1.025" height="1.025" fill="rgba(125,61,7,1.000)" /><rect x="13.325" y="25.624999999999996" width="1.025" height="1.025" fill="rgba(102,2,0,1.000)" /><rect x="14.349999999999998" y="25.624999999999996" width="1.025" height="1.025" fill="rgba(183,57,0,1.000)" /><rect x="15.374999999999998" y="25.624999999999996" width="1.025" height="1.025" fill="rgba(253,219,0,1.000)" /><rect x="16.4" y="25.624999999999996" width="1.025" height="1.025" fill="rgba(248,185,0,1.000)" /><rect x="17.424999999999997" y="25.624999999999996" width="1.025" height="1.025" fill="rgba(200,97,4,1.000)" /><rect x="18.45" y="25.624999999999996" width="1.025" height="1.025" fill="rgba(113,39,9,1.000)" /><rect x="13.325" y="26.65" width="1.025" height="1.025" fill="rgba(109,2,0,1.000)" /><rect x="14.349999999999998" y="26.65" width="1.025" height="1.025" fill="rgba(190,87,0,1.000)" /><rect x="15.374999999999998" y="26.65" width="1.025" height="1.025" fill="rgba(253,216,0,1.000)" /><rect x="16.4" y="26.65" width="1.025" height="1.025" fill="rgba(253,211,0,1.000)" /><rect x="17.424999999999997" y="26.65" width="1.025" height="1.025" fill="rgba(224,151,0,1.000)" /><rect x="18.45" y="26.65" width="1.025" height="1.025" fill="rgba(199,150,101,1.000)" /><rect x="13.325" y="27.674999999999997" width="1.025" height="1.025" fill="rgba(134,46,0,1.000)" /><rect x="14.349999999999998" y="27.674999999999997" width="1.025" height="1.025" fill="rgba(214,128,0,1.000)" /><rect x="15.374999999999998" y="27.674999999999997" width="1.025" height="1.025" fill="rgba(251,211,7,1.000)" /><rect x="16.4" y="27.674999999999997" width="1.025" height="1.025" fill="rgba(253,198,0,1.000)" /><rect x="17.424999999999997" y="27.674999999999997" width="1.025" height="1.025" fill="rgba(252,191,8,1.000)" /><rect x="18.45" y="27.674999999999997" width="1.025" height="1.025" fill="rgba(227,197,121,1.000)" /><rect x="11.274999999999999" y="28.699999999999996" width="1.025" height="1.025" fill="rgba(120,32,0,1.000)" /><rect x="12.299999999999999" y="28.699999999999996" width="1.025" height="1.025" fill="rgba(119,24,0,1.000)" /><rect x="13.325" y="28.699999999999996" width="1.025" height="1.025" fill="rgba(193,113,2,1.000)" /><rect x="14.349999999999998" y="28.699999999999996" width="1.025" height="1.025" fill="rgba(241,183,3,1.000)" /><rect x="15.374999999999998" y="28.699999999999996" width="1.025" height="1.025" fill="rgba(248,199,11,1.000)" /><rect x="16.4" y="28.699999999999996" width="1.025" height="1.025" fill="rgba(249,192,2,1.000)" /><rect x="17.424999999999997" y="28.699999999999996" width="1.025" height="1.025" fill="rgba(255,197,11,1.000)" /><rect x="18.45" y="28.699999999999996" width="1.025" height="1.025" fill="rgba(255,245,177,1.000)" /><rect x="19.474999999999998" y="28.699999999999996" width="1.025" height="1.025" fill="rgba(229,169,9,1.000)" /><rect x="20.5" y="28.699999999999996" width="1.025" height="1.025" fill="rgba(230,175,13,1.000)" /><rect x="21.525" y="28.699999999999996" width="1.025" height="1.025" fill="rgba(242,204,11,1.000)" /><rect x="9.225" y="29.724999999999998" width="1.025" height="1.025" fill="rgba(130,54,0,1.000)" /><rect x="10.25" y="29.724999999999998" width="1.025" height="1.025" fill="rgba(142,68,0,1.000)" /><rect x="11.274999999999999" y="29.724999999999998" width="1.025" height="1.025" fill="rgba(198,105,0,1.000)" /><rect x="12.299999999999999" y="29.724999999999998" width="1.025" height="1.025" fill="rgba(225,147,3,1.000)" /><rect x="13.325" y="29.724999999999998" width="1.025" height="1.025" fill="rgba(239,179,21,1.000)" /><rect x="14.349999999999998" y="29.724999999999998" width="1.025" height="1.025" fill="rgba(253,204,50,1.000)" /><rect x="15.374999999999998" y="29.724999999999998" width="1.025" height="1.025" fill="rgba(254,220,93,1.000)" /><rect x="16.4" y="29.724999999999998" width="1.025" height="1.025" fill="rgba(255,238,76,1.000)" /><rect x="17.424999999999997" y="29.724999999999998" width="1.025" height="1.025" fill="rgba(255,192,29,1.000)" /><rect x="18.45" y="29.724999999999998" width="1.025" height="1.025" fill="rgba(255,194,14,1.000)" /><rect x="19.474999999999998" y="29.724999999999998" width="1.025" height="1.025" fill="rgba(255,228,126,1.000)" /><rect x="20.5" y="29.724999999999998" width="1.025" height="1.025" fill="rgba(255,242,157,1.000)" /><rect x="21.525" y="29.724999999999998" width="1.025" height="1.025" fill="rgba(248,218,62,1.000)" /><rect x="22.549999999999997" y="29.724999999999998" width="1.025" height="1.025" fill="rgba(234,190,35,1.000)" /><rect x="23.575" y="29.724999999999998" width="1.025" height="1.025" fill="rgba(242,204,11,1.000)" /><rect x="8.2" y="30.749999999999996" width="1.025" height="1.025" fill="rgba(130,44,0,1.000)" /><rect x="9.225" y="30.749999999999996" width="1.025" height="1.025" fill="rgba(210,135,0,1.000)" /><rect x="10.25" y="30.749999999999996" width="1.025" height="1.025" fill="rgba(235,180,0,1.000)" /><rect x="11.274999999999999" y="30.749999999999996" width="1.025" height="1.025" fill="rgba(244,192,0,1.000)" /><rect x="12.299999999999999" y="30.749999999999996" width="1.025" height="1.025" fill="rgba(250,204,1,1.000)" /><rect x="13.325" y="30.749999999999996" width="1.025" height="1.025" fill="rgba(251,212,8,1.000)" /><rect x="14.349999999999998" y="30.749999999999996" width="1.025" height="1.025" fill="rgba(253,228,80,1.000)" /><rect x="15.374999999999998" y="30.749999999999996" width="1.025" height="1.025" fill="rgba(255,227,89,1.000)" /><rect x="16.4" y="30.749999999999996" width="1.025" height="1.025" fill="rgba(255,214,70,1.000)" /><rect x="17.424999999999997" y="30.749999999999996" width="1.025" height="1.025" fill="rgba(255,189,19,1.000)" /><rect x="18.45" y="30.749999999999996" width="1.025" height="1.025" fill="rgba(254,192,7,1.000)" /><rect x="19.474999999999998" y="30.749999999999996" width="1.025" height="1.025" fill="rgba(255,204,19,1.000)" /><rect x="20.5" y="30.749999999999996" width="1.025" height="1.025" fill="rgba(255,213,12,1.000)" /><rect x="21.525" y="30.749999999999996" width="1.025" height="1.025" fill="rgba(255,219,23,1.000)" /><rect x="22.549999999999997" y="30.749999999999996" width="1.025" height="1.025" fill="rgba(255,234,53,1.000)" /><rect x="23.575" y="30.749999999999996" width="1.025" height="1.025" fill="rgba(255,248,77,1.000)" /><rect x="24.599999999999998" y="30.749999999999996" width="1.025" height="1.025" fill="rgba(245,219,55,1.000)" /><rect x="7.174999999999999" y="31.775" width="1.025" height="1.025" fill="rgba(95,32,0,1.000)" /><rect x="8.2" y="31.775" width="1.025" height="1.025" fill="rgba(172,88,0,1.000)" /><rect x="9.225" y="31.775" width="1.025" height="1.025" fill="rgba(248,220,0,1.000)" /><rect x="10.25" y="31.775" width="1.025" height="1.025" fill="rgba(252,224,0,1.000)" /><rect x="11.274999999999999" y="31.775" width="1.025" height="1.025" fill="rgba(252,221,0,1.000)" /><rect x="12.299999999999999" y="31.775" width="1.025" height="1.025" fill="rgba(254,225,0,1.000)" /><rect x="13.325" y="31.775" width="1.025" height="1.025" fill="rgba(255,234,74,1.000)" /><rect x="14.349999999999998" y="31.775" width="1.025" height="1.025" fill="rgba(255,243,151,1.000)" /><rect x="15.374999999999998" y="31.775" width="1.025" height="1.025" fill="rgba(255,245,153,1.000)" /><rect x="16.4" y="31.775" width="1.025" height="1.025" fill="rgba(255,241,152,1.000)" /><rect x="17.424999999999997" y="31.775" width="1.025" height="1.025" fill="rgba(255,226,107,1.000)" /><rect x="18.45" y="31.775" width="1.025" height="1.025" fill="rgba(255,222,74,1.000)" /><rect x="19.474999999999998" y="31.775" width="1.025" height="1.025" fill="rgba(255,241,149,1.000)" /><rect x="20.5" y="31.775" width="1.025" height="1.025" fill="rgba(255,243,149,1.000)" /><rect x="21.525" y="31.775" width="1.025" height="1.025" fill="rgba(255,245,150,1.000)" /><rect x="22.549999999999997" y="31.775" width="1.025" height="1.025" fill="rgba(255,240,106,1.000)" /><rect x="23.575" y="31.775" width="1.025" height="1.025" fill="rgba(255,226,9,1.000)" /><rect x="24.599999999999998" y="31.775" width="1.025" height="1.025" fill="rgba(255,234,36,1.000)" /><rect x="25.624999999999996" y="31.775" width="1.025" height="1.025" fill="rgba(243,211,40,1.000)" /><rect x="6.1499999999999995" y="32.8" width="1.025" height="1.025" fill="rgba(91,29,0,1.000)" /><rect x="7.174999999999999" y="32.8" width="1.025" height="1.025" fill="rgba(139,56,0,1.000)" /><rect x="8.2" y="32.8" width="1.025" height="1.025" fill="rgba(228,170,0,1.000)" /><rect x="9.225" y="32.8" width="1.025" height="1.025" fill="rgba(255,238,1,1.000)" /><rect x="10.25" y="32.8" width="1.025" height="1.025" fill="rgba(255,232,0,1.000)" /><rect x="11.274999999999999" y="32.8" width="1.025" height="1.025" fill="rgba(255,219,0,1.000)" /><rect x="12.299999999999999" y="32.8" width="1.025" height="1.025" fill="rgba(255,222,0,1.000)" /><rect x="13.325" y="32.8" width="1.025" height="1.025" fill="rgba(255,231,52,1.000)" /><rect x="14.349999999999998" y="32.8" width="1.025" height="1.025" fill="rgba(255,235,84,1.000)" /><rect x="15.374999999999998" y="32.8" width="1.025" height="1.025" fill="rgba(255,234,82,1.000)" /><rect x="16.4" y="32.8" width="1.025" height="1.025" fill="rgba(255,227,66,1.000)" /><rect x="17.424999999999997" y="32.8" width="1.025" height="1.025" fill="rgba(255,219,57,1.000)" /><rect x="18.45" y="32.8" width="1.025" height="1.025" fill="rgba(255,224,52,1.000)" /><rect x="19.474999999999998" y="32.8" width="1.025" height="1.025" fill="rgba(255,230,73,1.000)" /><rect x="20.5" y="32.8" width="1.025" height="1.025" fill="rgba(255,232,73,1.000)" /><rect x="21.525" y="32.8" width="1.025" height="1.025" fill="rgba(255,237,53,1.000)" /><rect x="22.549999999999997" y="32.8" width="1.025" height="1.025" fill="rgba(255,232,57,1.000)" /><rect x="23.575" y="32.8" width="1.025" height="1.025" fill="rgba(255,218,2,1.000)" /><rect x="24.599999999999998" y="32.8" width="1.025" height="1.025" fill="rgba(255,220,1,1.000)" /><rect x="25.624999999999996" y="32.8" width="1.025" height="1.025" fill="rgba(255,232,3,1.000)" /><rect x="26.65" y="32.8" width="1.025" height="1.025" fill="rgba(255,210,15,1.000)" /><rect x="6.1499999999999995" y="33.824999999999996" width="1.025" height="1.025" fill="rgba(94,30,0,1.000)" /><rect x="7.174999999999999" y="33.824999999999996" width="1.025" height="1.025" fill="rgba(177,92,0,1.000)" /><rect x="8.2" y="33.824999999999996" width="1.025" height="1.025" fill="rgba(250,199,0,1.000)" /><rect x="9.225" y="33.824999999999996" width="1.025" height="1.025" fill="rgba(255,234,55,1.000)" /><rect x="10.25" y="33.824999999999996" width="1.025" height="1.025" fill="rgba(233,186,6,1.000)" /><rect x="11.274999999999999" y="33.824999999999996" width="1.025" height="1.025" fill="rgba(255,200,0,1.000)" /><rect x="12.299999999999999" y="33.824999999999996" width="1.025" height="1.025" fill="rgba(255,213,0,1.000)" /><rect x="13.325" y="33.824999999999996" width="1.025" height="1.025" fill="rgba(255,228,20,1.000)" /><rect x="14.349999999999998" y="33.824999999999996" width="1.025" height="1.025" fill="rgba(255,236,71,1.000)" /><rect x="15.374999999999998" y="33.824999999999996" width="1.025" height="1.025" fill="rgba(255,229,75,1.000)" /><rect x="16.4" y="33.824999999999996" width="1.025" height="1.025" fill="rgba(255,234,163,1.000)" /><rect x="17.424999999999997" y="33.824999999999996" width="1.025" height="1.025" fill="rgba(207,147,17,1.000)" /><rect x="18.45" y="33.824999999999996" width="1.025" height="1.025" fill="rgba(255,210,19,1.000)" /><rect x="19.474999999999998" y="33.824999999999996" width="1.025" height="1.025" fill="rgba(255,233,55,1.000)" /><rect x="20.5" y="33.824999999999996" width="1.025" height="1.025" fill="rgba(255,236,56,1.000)" /><rect x="21.525" y="33.824999999999996" width="1.025" height="1.025" fill="rgba(255,235,30,1.000)" /><rect x="22.549999999999997" y="33.824999999999996" width="1.025" height="1.025" fill="rgba(255,233,152,1.000)" /><rect x="23.575" y="33.824999999999996" width="1.025" height="1.025" fill="rgba(207,147,17,1.000)" /><rect x="24.599999999999998" y="33.824999999999996" width="1.025" height="1.025" fill="rgba(255,205,4,1.000)" /><rect x="25.624999999999996" y="33.824999999999996" width="1.025" height="1.025" fill="rgba(255,218,2,1.000)" /><rect x="26.65" y="33.824999999999996" width="1.025" height="1.025" fill="rgba(255,229,83,1.000)" /><rect x="6.1499999999999995" y="34.849999999999994" width="1.025" height="1.025" fill="rgba(98,33,0,1.000)" /><rect x="7.174999999999999" y="34.849999999999994" width="1.025" height="1.025" fill="rgba(210,127,0,1.000)" /><rect x="8.2" y="34.849999999999994" width="1.025" height="1.025" fill="rgba(255,203,0,1.000)" /><rect x="9.225" y="34.849999999999994" width="1.025" height="1.025" fill="rgba(255,244,74,1.000)" /><rect x="10.25" y="34.849999999999994" width="1.025" height="1.025" fill="rgba(189,120,13,1.000)" /><rect x="11.274999999999999" y="34.849999999999994" width="1.025" height="1.025" fill="rgba(242,161,0,1.000)" /><rect x="12.299999999999999" y="34.849999999999994" width="1.025" height="1.025" fill="rgba(255,202,2,1.000)" /><rect x="13.325" y="34.849999999999994" width="1.025" height="1.025" fill="rgba(255,217,20,1.000)" /><rect x="14.349999999999998" y="34.849999999999994" width="1.025" height="1.025" fill="rgba(255,215,13,1.000)" /><rect x="15.374999999999998" y="34.849999999999994" width="1.025" height="1.025" fill="rgba(255,206,14,1.000)" /><rect x="16.4" y="34.849999999999994" width="1.025" height="1.025" fill="rgba(255,216,23,1.000)" /><rect x="17.424999999999997" y="34.849999999999994" width="1.025" height="1.025" fill="rgba(253,212,9,1.000)" /><rect x="18.45" y="34.849999999999994" width="1.025" height="1.025" fill="rgba(160,91,7,1.000)" /><rect x="19.474999999999998" y="34.849999999999994" width="1.025" height="1.025" fill="rgba(255,243,7,1.000)" /><rect x="20.5" y="34.849999999999994" width="1.025" height="1.025" fill="rgba(255,243,2,1.000)" /><rect x="21.525" y="34.849999999999994" width="1.025" height="1.025" fill="rgba(255,238,11,1.000)" /><rect x="22.549999999999997" y="34.849999999999994" width="1.025" height="1.025" fill="rgba(255,221,46,1.000)" /><rect x="23.575" y="34.849999999999994" width="1.025" height="1.025" fill="rgba(255,243,115,1.000)" /><rect x="24.599999999999998" y="34.849999999999994" width="1.025" height="1.025" fill="rgba(152,83,8,1.000)" /><rect x="25.624999999999996" y="34.849999999999994" width="1.025" height="1.025" fill="rgba(255,236,37,1.000)" /><rect x="26.65" y="34.849999999999994" width="1.025" height="1.025" fill="rgba(255,246,110,1.000)" /><rect x="6.1499999999999995" y="35.875" width="1.025" height="1.025" fill="rgba(99,26,0,1.000)" /><rect x="7.174999999999999" y="35.875" width="1.025" height="1.025" fill="rgba(210,120,0,1.000)" /><rect x="8.2" y="35.875" width="1.025" height="1.025" fill="rgba(255,203,0,1.000)" /><rect x="9.225" y="35.875" width="1.025" height="1.025" fill="rgba(255,248,153,1.000)" /><rect x="10.25" y="35.875" width="1.025" height="1.025" fill="rgba(141,74,13,1.000)" /><rect x="11.274999999999999" y="35.875" width="1.025" height="1.025" fill="rgba(203,99,0,1.000)" /><rect x="12.299999999999999" y="35.875" width="1.025" height="1.025" fill="rgba(249,181,1,1.000)" /><rect x="13.325" y="35.875" width="1.025" height="1.025" fill="rgba(255,201,14,1.000)" /><rect x="14.349999999999998" y="35.875" width="1.025" height="1.025" fill="rgba(255,209,10,1.000)" /><rect x="15.374999999999998" y="35.875" width="1.025" height="1.025" fill="rgba(255,217,10,1.000)" /><rect x="16.4" y="35.875" width="1.025" height="1.025" fill="rgba(255,215,10,1.000)" /><rect x="17.424999999999997" y="35.875" width="1.025" height="1.025" fill="rgba(253,212,9,1.000)" /><rect x="18.45" y="35.875" width="1.025" height="1.025" fill="rgba(252,194,8,1.000)" /><rect x="19.474999999999998" y="35.875" width="1.025" height="1.025" fill="rgba(127,58,16,1.000)" /><rect x="20.5" y="35.875" width="1.025" height="1.025" fill="rgba(255,234,3,1.000)" /><rect x="21.525" y="35.875" width="1.025" height="1.025" fill="rgba(255,223,0,1.000)" /><rect x="22.549999999999997" y="35.875" width="1.025" height="1.025" fill="rgba(254,210,7,1.000)" /><rect x="23.575" y="35.875" width="1.025" height="1.025" fill="rgba(254,210,7,1.000)" /><rect x="24.599999999999998" y="35.875" width="1.025" height="1.025" fill="rgba(252,194,8,1.000)" /><rect x="25.624999999999996" y="35.875" width="1.025" height="1.025" fill="rgba(125,55,7,1.000)" /><rect x="26.65" y="35.875" width="1.025" height="1.025" fill="rgba(255,250,162,1.000)" /><rect x="6.1499999999999995" y="36.9" width="1.025" height="1.025" fill="rgba(87,16,0,1.000)" /><rect x="7.174999999999999" y="36.9" width="1.025" height="1.025" fill="rgba(214,135,0,1.000)" /><rect x="8.2" y="36.9" width="1.025" height="1.025" fill="rgba(254,200,0,1.000)" /><rect x="9.225" y="36.9" width="1.025" height="1.025" fill="rgba(255,255,252,1.000)" /><rect x="10.25" y="36.9" width="1.025" height="1.025" fill="rgba(109,45,5,1.000)" /><rect x="11.274999999999999" y="36.9" width="1.025" height="1.025" fill="rgba(180,75,2,1.000)" /><rect x="12.299999999999999" y="36.9" width="1.025" height="1.025" fill="rgba(235,171,33,1.000)" /><rect x="13.325" y="36.9" width="1.025" height="1.025" fill="rgba(247,169,16,1.000)" /><rect x="14.349999999999998" y="36.9" width="1.025" height="1.025" fill="rgba(251,193,9,1.000)" /><rect x="15.374999999999998" y="36.9" width="1.025" height="1.025" fill="rgba(253,210,9,1.000)" /><rect x="16.4" y="36.9" width="1.025" height="1.025" fill="rgba(254,212,10,1.000)" /><rect x="17.424999999999997" y="36.9" width="1.025" height="1.025" fill="rgba(253,214,6,1.000)" /><rect x="18.45" y="36.9" width="1.025" height="1.025" fill="rgba(250,164,6,1.000)" /><rect x="19.474999999999998" y="36.9" width="1.025" height="1.025" fill="rgba(210,116,8,1.000)" /><rect x="20.5" y="36.9" width="1.025" height="1.025" fill="rgba(127,58,16,1.000)" /><rect x="21.525" y="36.9" width="1.025" height="1.025" fill="rgba(255,215,5,1.000)" /><rect x="22.549999999999997" y="36.9" width="1.025" height="1.025" fill="rgba(253,214,6,1.000)" /><rect x="23.575" y="36.9" width="1.025" height="1.025" fill="rgba(253,212,9,1.000)" /><rect x="24.599999999999998" y="36.9" width="1.025" height="1.025" fill="rgba(252,194,8,1.000)" /><rect x="25.624999999999996" y="36.9" width="1.025" height="1.025" fill="rgba(250,164,6,1.000)" /><rect x="26.65" y="36.9" width="1.025" height="1.025" fill="rgba(126,56,8,1.000)" /></svg>