<?xml version="1.0" encoding="UTF-8"?>
<!-- Generated from: AZ_Movie_Jake_Blues.png -->
<!-- Dimensions: 37x37 pixels (498 merged rects) -->
<!-- Rect size: 1 -->
<svg xmlns="http://www.w3.org/2000/svg" viewBox="0 0 37 37">
  <style>
    rect { shape-rendering: crispEdges; }
    svg { image-rendering: pixelated; image-rendering: -moz-crisp-edges; image-rendering: crisp-edges; }
  </style>
  <g id="pixels">
    <rect x="0.00" y="0.00" width="37.00" height="1" fill="rgba(255,255,255,1.00)"/>
    <rect x="0.00" y="1.00" width="37.00" height="1" fill="rgba(255,255,255,1.00)"/>
    <rect x="0.00" y="2.00" width="37.00" height="1" fill="rgba(255,255,255,1.00)"/>
    <rect x="0.00" y="3.00" width="37.00" height="1" fill="rgba(255,255,255,1.00)"/>
    <rect x="0.00" y="4.00" width="1.00" height="1" fill="rgba(255,255,255,1.00)"/>
    <rect x="1.00" y="4.00" width="1.00" height="1" fill="rgba(158,158,158,1.00)"/>
    <rect x="2.00" y="4.00" width="1.00" height="1" fill="rgba(255,255,255,1.00)"/>
    <rect x="3.00" y="4.00" width="1.00" height="1" fill="rgba(134,134,134,1.00)"/>
    <rect x="4.00" y="4.00" width="11.00" height="1" fill="rgba(255,255,255,1.00)"/>
    <rect x="15.00" y="4.00" width="1.00" height="1" fill="rgba(0,0,0,1.00)"/>
    <rect x="16.00" y="4.00" width="1.00" height="1" fill="rgba(67,67,67,1.00)"/>
    <rect x="17.00" y="4.00" width="1.00" height="1" fill="rgba(70,70,70,1.00)"/>
    <rect x="18.00" y="4.00" width="2.00" height="1" fill="rgba(255,255,255,1.00)"/>
    <rect x="20.00" y="4.00" width="2.00" height="1" fill="rgba(67,67,67,1.00)"/>
    <rect x="22.00" y="4.00" width="1.00" height="1" fill="rgba(44,44,44,1.00)"/>
    <rect x="23.00" y="4.00" width="1.00" height="1" fill="rgba(38,38,38,1.00)"/>
    <rect x="24.00" y="4.00" width="13.00" height="1" fill="rgba(255,255,255,1.00)"/>
    <rect x="0.00" y="5.00" width="1.00" height="1" fill="rgba(255,255,255,1.00)"/>
    <rect x="1.00" y="5.00" width="1.00" height="1" fill="rgba(103,103,103,1.00)"/>
    <rect x="2.00" y="5.00" width="1.00" height="1" fill="rgba(255,255,255,1.00)"/>
    <rect x="3.00" y="5.00" width="1.00" height="1" fill="rgba(205,205,205,1.00)"/>
    <rect x="4.00" y="5.00" width="1.00" height="1" fill="rgba(255,255,255,1.00)"/>
    <rect x="5.00" y="5.00" width="9.00" height="1" fill="rgba(2,2,2,1.00)"/>
    <rect x="14.00" y="5.00" width="1.00" height="1" fill="rgba(14,14,14,1.00)"/>
    <rect x="15.00" y="5.00" width="1.00" height="1" fill="rgba(46,46,46,1.00)"/>
    <rect x="16.00" y="5.00" width="1.00" height="1" fill="rgba(38,38,38,1.00)"/>
    <rect x="17.00" y="5.00" width="1.00" height="1" fill="rgba(68,68,68,1.00)"/>
    <rect x="18.00" y="5.00" width="3.00" height="1" fill="rgba(38,38,38,1.00)"/>
    <rect x="21.00" y="5.00" width="2.00" height="1" fill="rgba(68,68,68,1.00)"/>
    <rect x="23.00" y="5.00" width="1.00" height="1" fill="rgba(46,46,46,1.00)"/>
    <rect x="24.00" y="5.00" width="1.00" height="1" fill="rgba(38,38,38,1.00)"/>
    <rect x="25.00" y="5.00" width="12.00" height="1" fill="rgba(2,2,2,1.00)"/>
    <rect x="0.00" y="6.00" width="13.00" height="1" fill="rgba(255,255,255,1.00)"/>
    <rect x="13.00" y="6.00" width="1.00" height="1" fill="rgba(0,0,0,1.00)"/>
    <rect x="14.00" y="6.00" width="1.00" height="1" fill="rgba(38,38,38,1.00)"/>
    <rect x="15.00" y="6.00" width="1.00" height="1" fill="rgba(37,37,37,1.00)"/>
    <rect x="16.00" y="6.00" width="2.00" height="1" fill="rgba(56,56,56,1.00)"/>
    <rect x="18.00" y="6.00" width="4.00" height="1" fill="rgba(68,68,68,1.00)"/>
    <rect x="22.00" y="6.00" width="2.00" height="1" fill="rgba(56,56,56,1.00)"/>
    <rect x="24.00" y="6.00" width="1.00" height="1" fill="rgba(46,46,46,1.00)"/>
    <rect x="25.00" y="6.00" width="12.00" height="1" fill="rgba(255,255,255,1.00)"/>
    <rect x="0.00" y="7.00" width="13.00" height="1" fill="rgba(255,255,255,1.00)"/>
    <rect x="13.00" y="7.00" width="1.00" height="1" fill="rgba(14,14,14,1.00)"/>
    <rect x="14.00" y="7.00" width="2.00" height="1" fill="rgba(46,46,46,1.00)"/>
    <rect x="16.00" y="7.00" width="5.00" height="1" fill="rgba(56,56,56,1.00)"/>
    <rect x="21.00" y="7.00" width="1.00" height="1" fill="rgba(68,68,68,1.00)"/>
    <rect x="22.00" y="7.00" width="2.00" height="1" fill="rgba(56,56,56,1.00)"/>
    <rect x="24.00" y="7.00" width="1.00" height="1" fill="rgba(46,46,46,1.00)"/>
    <rect x="25.00" y="7.00" width="12.00" height="1" fill="rgba(255,255,255,1.00)"/>
    <rect x="0.00" y="8.00" width="1.00" height="1" fill="rgba(255,255,255,1.00)"/>
    <rect x="1.00" y="8.00" width="1.00" height="1" fill="rgba(158,158,158,1.00)"/>
    <rect x="2.00" y="8.00" width="1.00" height="1" fill="rgba(255,255,255,1.00)"/>
    <rect x="3.00" y="8.00" width="1.00" height="1" fill="rgba(134,134,134,1.00)"/>
    <rect x="4.00" y="8.00" width="8.00" height="1" fill="rgba(255,255,255,1.00)"/>
    <rect x="12.00" y="8.00" width="1.00" height="1" fill="rgba(33,33,33,1.00)"/>
    <rect x="13.00" y="8.00" width="1.00" height="1" fill="rgba(10,10,10,1.00)"/>
    <rect x="14.00" y="8.00" width="1.00" height="1" fill="rgba(37,37,37,1.00)"/>
    <rect x="15.00" y="8.00" width="1.00" height="1" fill="rgba(44,44,44,1.00)"/>
    <rect x="16.00" y="8.00" width="9.00" height="1" fill="rgba(47,47,47,1.00)"/>
    <rect x="25.00" y="8.00" width="1.00" height="1" fill="rgba(44,44,44,1.00)"/>
    <rect x="26.00" y="8.00" width="11.00" height="1" fill="rgba(255,255,255,1.00)"/>
    <rect x="0.00" y="9.00" width="1.00" height="1" fill="rgba(255,255,255,1.00)"/>
    <rect x="1.00" y="9.00" width="1.00" height="1" fill="rgba(134,134,134,1.00)"/>
    <rect x="2.00" y="9.00" width="1.00" height="1" fill="rgba(255,255,255,1.00)"/>
    <rect x="3.00" y="9.00" width="1.00" height="1" fill="rgba(178,178,178,1.00)"/>
    <rect x="4.00" y="9.00" width="1.00" height="1" fill="rgba(255,255,255,1.00)"/>
    <rect x="5.00" y="9.00" width="7.00" height="1" fill="rgba(2,2,2,1.00)"/>
    <rect x="12.00" y="9.00" width="1.00" height="1" fill="rgba(157,157,157,1.00)"/>
    <rect x="13.00" y="9.00" width="1.00" height="1" fill="rgba(160,160,160,1.00)"/>
    <rect x="14.00" y="9.00" width="1.00" height="1" fill="rgba(191,191,191,1.00)"/>
    <rect x="15.00" y="9.00" width="1.00" height="1" fill="rgba(192,192,192,1.00)"/>
    <rect x="16.00" y="9.00" width="1.00" height="1" fill="rgba(210,210,210,1.00)"/>
    <rect x="17.00" y="9.00" width="1.00" height="1" fill="rgba(220,220,220,1.00)"/>
    <rect x="18.00" y="9.00" width="4.00" height="1" fill="rgba(236,236,236,1.00)"/>
    <rect x="22.00" y="9.00" width="1.00" height="1" fill="rgba(233,233,233,1.00)"/>
    <rect x="23.00" y="9.00" width="1.00" height="1" fill="rgba(208,208,208,1.00)"/>
    <rect x="24.00" y="9.00" width="1.00" height="1" fill="rgba(189,189,189,1.00)"/>
    <rect x="25.00" y="9.00" width="2.00" height="1" fill="rgba(158,158,158,1.00)"/>
    <rect x="27.00" y="9.00" width="10.00" height="1" fill="rgba(2,2,2,1.00)"/>
    <rect x="0.00" y="10.00" width="10.00" height="1" fill="rgba(255,255,255,1.00)"/>
    <rect x="10.00" y="10.00" width="1.00" height="1" fill="rgba(21,22,24,1.00)"/>
    <rect x="11.00" y="10.00" width="2.00" height="1" fill="rgba(13,13,13,1.00)"/>
    <rect x="13.00" y="10.00" width="1.00" height="1" fill="rgba(23,23,23,1.00)"/>
    <rect x="14.00" y="10.00" width="1.00" height="1" fill="rgba(43,43,43,1.00)"/>
    <rect x="15.00" y="10.00" width="1.00" height="1" fill="rgba(54,54,54,1.00)"/>
    <rect x="16.00" y="10.00" width="2.00" height="1" fill="rgba(71,71,71,1.00)"/>
    <rect x="18.00" y="10.00" width="5.00" height="1" fill="rgba(68,68,68,1.00)"/>
    <rect x="23.00" y="10.00" width="4.00" height="1" fill="rgba(53,53,53,1.00)"/>
    <rect x="27.00" y="10.00" width="1.00" height="1" fill="rgba(44,44,44,1.00)"/>
    <rect x="28.00" y="10.00" width="9.00" height="1" fill="rgba(255,255,255,1.00)"/>
    <rect x="0.00" y="11.00" width="9.00" height="1" fill="rgba(255,255,255,1.00)"/>
    <rect x="9.00" y="11.00" width="1.00" height="1" fill="rgba(0,0,0,1.00)"/>
    <rect x="10.00" y="11.00" width="1.00" height="1" fill="rgba(1,1,1,1.00)"/>
    <rect x="11.00" y="11.00" width="2.00" height="1" fill="rgba(0,0,0,1.00)"/>
    <rect x="13.00" y="11.00" width="1.00" height="1" fill="rgba(11,11,11,1.00)"/>
    <rect x="14.00" y="11.00" width="1.00" height="1" fill="rgba(27,27,27,1.00)"/>
    <rect x="15.00" y="11.00" width="1.00" height="1" fill="rgba(24,24,24,1.00)"/>
    <rect x="16.00" y="11.00" width="1.00" height="1" fill="rgba(43,43,43,1.00)"/>
    <rect x="17.00" y="11.00" width="1.00" height="1" fill="rgba(53,53,53,1.00)"/>
    <rect x="18.00" y="11.00" width="6.00" height="1" fill="rgba(68,68,68,1.00)"/>
    <rect x="24.00" y="11.00" width="3.00" height="1" fill="rgba(53,53,53,1.00)"/>
    <rect x="27.00" y="11.00" width="2.00" height="1" fill="rgba(54,54,54,1.00)"/>
    <rect x="29.00" y="11.00" width="8.00" height="1" fill="rgba(255,255,255,1.00)"/>
    <rect x="0.00" y="12.00" width="1.00" height="1" fill="rgba(255,255,255,1.00)"/>
    <rect x="1.00" y="12.00" width="1.00" height="1" fill="rgba(158,158,158,1.00)"/>
    <rect x="2.00" y="12.00" width="1.00" height="1" fill="rgba(255,255,255,1.00)"/>
    <rect x="3.00" y="12.00" width="1.00" height="1" fill="rgba(215,215,215,1.00)"/>
    <rect x="4.00" y="12.00" width="6.00" height="1" fill="rgba(255,255,255,1.00)"/>
    <rect x="10.00" y="12.00" width="4.00" height="1" fill="rgba(0,0,0,1.00)"/>
    <rect x="14.00" y="12.00" width="1.00" height="1" fill="rgba(14,14,14,1.00)"/>
    <rect x="15.00" y="12.00" width="1.00" height="1" fill="rgba(27,27,27,1.00)"/>
    <rect x="16.00" y="12.00" width="1.00" height="1" fill="rgba(23,23,23,1.00)"/>
    <rect x="17.00" y="12.00" width="1.00" height="1" fill="rgba(40,40,40,1.00)"/>
    <rect x="18.00" y="12.00" width="2.00" height="1" fill="rgba(53,53,53,1.00)"/>
    <rect x="20.00" y="12.00" width="5.00" height="1" fill="rgba(68,68,68,1.00)"/>
    <rect x="25.00" y="12.00" width="1.00" height="1" fill="rgba(53,53,53,1.00)"/>
    <rect x="26.00" y="12.00" width="11.00" height="1" fill="rgba(255,255,255,1.00)"/>
    <rect x="0.00" y="13.00" width="1.00" height="1" fill="rgba(255,255,255,1.00)"/>
    <rect x="1.00" y="13.00" width="1.00" height="1" fill="rgba(134,134,134,1.00)"/>
    <rect x="2.00" y="13.00" width="1.00" height="1" fill="rgba(255,255,255,1.00)"/>
    <rect x="3.00" y="13.00" width="1.00" height="1" fill="rgba(158,158,158,1.00)"/>
    <rect x="4.00" y="13.00" width="1.00" height="1" fill="rgba(255,255,255,1.00)"/>
    <rect x="5.00" y="13.00" width="6.00" height="1" fill="rgba(2,2,2,1.00)"/>
    <rect x="11.00" y="13.00" width="2.00" height="1" fill="rgba(4,4,4,1.00)"/>
    <rect x="13.00" y="13.00" width="2.00" height="1" fill="rgba(11,11,11,1.00)"/>
    <rect x="15.00" y="13.00" width="1.00" height="1" fill="rgba(33,33,33,1.00)"/>
    <rect x="16.00" y="13.00" width="1.00" height="1" fill="rgba(254,213,167,1.00)"/>
    <rect x="17.00" y="13.00" width="1.00" height="1" fill="rgba(0,0,0,1.00)"/>
    <rect x="18.00" y="13.00" width="2.00" height="1" fill="rgba(40,40,40,1.00)"/>
    <rect x="20.00" y="13.00" width="1.00" height="1" fill="rgba(53,53,53,1.00)"/>
    <rect x="21.00" y="13.00" width="3.00" height="1" fill="rgba(68,68,68,1.00)"/>
    <rect x="24.00" y="13.00" width="1.00" height="1" fill="rgba(22,22,22,1.00)"/>
    <rect x="25.00" y="13.00" width="1.00" height="1" fill="rgba(25,23,24,1.00)"/>
    <rect x="26.00" y="13.00" width="11.00" height="1" fill="rgba(2,2,2,1.00)"/>
    <rect x="0.00" y="14.00" width="10.00" height="1" fill="rgba(255,255,255,1.00)"/>
    <rect x="10.00" y="14.00" width="2.00" height="1" fill="rgba(29,29,29,1.00)"/>
    <rect x="12.00" y="14.00" width="1.00" height="1" fill="rgba(4,4,4,1.00)"/>
    <rect x="13.00" y="14.00" width="1.00" height="1" fill="rgba(10,10,10,1.00)"/>
    <rect x="14.00" y="14.00" width="1.00" height="1" fill="rgba(229,165,119,1.00)"/>
    <rect x="15.00" y="14.00" width="1.00" height="1" fill="rgba(31,31,33,1.00)"/>
    <rect x="16.00" y="14.00" width="1.00" height="1" fill="rgba(249,193,140,1.00)"/>
    <rect x="17.00" y="14.00" width="1.00" height="1" fill="rgba(240,184,135,1.00)"/>
    <rect x="18.00" y="14.00" width="1.00" height="1" fill="rgba(243,187,140,1.00)"/>
    <rect x="19.00" y="14.00" width="1.00" height="1" fill="rgba(242,184,140,1.00)"/>
    <rect x="20.00" y="14.00" width="1.00" height="1" fill="rgba(251,209,160,1.00)"/>
    <rect x="21.00" y="14.00" width="1.00" height="1" fill="rgba(252,215,170,1.00)"/>
    <rect x="22.00" y="14.00" width="1.00" height="1" fill="rgba(248,206,157,1.00)"/>
    <rect x="23.00" y="14.00" width="2.00" height="1" fill="rgba(245,187,139,1.00)"/>
    <rect x="25.00" y="14.00" width="1.00" height="1" fill="rgba(0,0,0,1.00)"/>
    <rect x="26.00" y="14.00" width="1.00" height="1" fill="rgba(33,35,34,1.00)"/>
    <rect x="27.00" y="14.00" width="10.00" height="1" fill="rgba(255,255,255,1.00)"/>
    <rect x="0.00" y="15.00" width="11.00" height="1" fill="rgba(255,255,255,1.00)"/>
    <rect x="11.00" y="15.00" width="1.00" height="1" fill="rgba(29,29,29,1.00)"/>
    <rect x="12.00" y="15.00" width="1.00" height="1" fill="rgba(4,4,4,1.00)"/>
    <rect x="13.00" y="15.00" width="1.00" height="1" fill="rgba(9,9,9,1.00)"/>
    <rect x="14.00" y="15.00" width="1.00" height="1" fill="rgba(33,31,32,1.00)"/>
    <rect x="15.00" y="15.00" width="1.00" height="1" fill="rgba(9,9,9,1.00)"/>
    <rect x="16.00" y="15.00" width="1.00" height="1" fill="rgba(64,66,65,1.00)"/>
    <rect x="17.00" y="15.00" width="5.00" height="1" fill="rgba(9,9,9,1.00)"/>
    <rect x="22.00" y="15.00" width="1.00" height="1" fill="rgba(62,63,67,1.00)"/>
    <rect x="23.00" y="15.00" width="1.00" height="1" fill="rgba(11,6,10,1.00)"/>
    <rect x="24.00" y="15.00" width="1.00" height="1" fill="rgba(10,10,8,1.00)"/>
    <rect x="25.00" y="15.00" width="1.00" height="1" fill="rgba(59,59,57,1.00)"/>
    <rect x="26.00" y="15.00" width="1.00" height="1" fill="rgba(1,0,2,1.00)"/>
    <rect x="27.00" y="15.00" width="10.00" height="1" fill="rgba(255,255,255,1.00)"/>
    <rect x="0.00" y="16.00" width="1.00" height="1" fill="rgba(255,255,255,1.00)"/>
    <rect x="1.00" y="16.00" width="1.00" height="1" fill="rgba(205,205,205,1.00)"/>
    <rect x="2.00" y="16.00" width="1.00" height="1" fill="rgba(255,255,255,1.00)"/>
    <rect x="3.00" y="16.00" width="1.00" height="1" fill="rgba(134,134,134,1.00)"/>
    <rect x="4.00" y="16.00" width="7.00" height="1" fill="rgba(255,255,255,1.00)"/>
    <rect x="11.00" y="16.00" width="1.00" height="1" fill="rgba(9,14,10,1.00)"/>
    <rect x="12.00" y="16.00" width="1.00" height="1" fill="rgba(4,4,4,1.00)"/>
    <rect x="13.00" y="16.00" width="1.00" height="1" fill="rgba(29,29,29,1.00)"/>
    <rect x="14.00" y="16.00" width="1.00" height="1" fill="rgba(225,162,116,1.00)"/>
    <rect x="15.00" y="16.00" width="2.00" height="1" fill="rgba(9,9,9,1.00)"/>
    <rect x="17.00" y="16.00" width="1.00" height="1" fill="rgba(64,64,64,1.00)"/>
    <rect x="18.00" y="16.00" width="2.00" height="1" fill="rgba(9,9,9,1.00)"/>
    <rect x="20.00" y="16.00" width="1.00" height="1" fill="rgba(237,183,135,1.00)"/>
    <rect x="21.00" y="16.00" width="2.00" height="1" fill="rgba(9,9,11,1.00)"/>
    <rect x="23.00" y="16.00" width="1.00" height="1" fill="rgba(64,64,66,1.00)"/>
    <rect x="24.00" y="16.00" width="1.00" height="1" fill="rgba(11,9,10,1.00)"/>
    <rect x="25.00" y="16.00" width="1.00" height="1" fill="rgba(9,9,9,1.00)"/>
    <rect x="26.00" y="16.00" width="11.00" height="1" fill="rgba(255,255,255,1.00)"/>
    <rect x="0.00" y="17.00" width="1.00" height="1" fill="rgba(255,255,255,1.00)"/>
    <rect x="1.00" y="17.00" width="1.00" height="1" fill="rgba(134,134,134,1.00)"/>
    <rect x="2.00" y="17.00" width="1.00" height="1" fill="rgba(255,255,255,1.00)"/>
    <rect x="3.00" y="17.00" width="1.00" height="1" fill="rgba(103,103,103,1.00)"/>
    <rect x="4.00" y="17.00" width="1.00" height="1" fill="rgba(255,255,255,1.00)"/>
    <rect x="5.00" y="17.00" width="6.00" height="1" fill="rgba(2,2,2,1.00)"/>
    <rect x="11.00" y="17.00" width="1.00" height="1" fill="rgba(0,0,0,1.00)"/>
    <rect x="12.00" y="17.00" width="1.00" height="1" fill="rgba(201,134,94,1.00)"/>
    <rect x="13.00" y="17.00" width="1.00" height="1" fill="rgba(2,2,2,1.00)"/>
    <rect x="14.00" y="17.00" width="1.00" height="1" fill="rgba(219,148,107,1.00)"/>
    <rect x="15.00" y="17.00" width="2.00" height="1" fill="rgba(10,8,11,1.00)"/>
    <rect x="17.00" y="17.00" width="1.00" height="1" fill="rgba(9,9,9,1.00)"/>
    <rect x="18.00" y="17.00" width="1.00" height="1" fill="rgba(61,61,61,1.00)"/>
    <rect x="19.00" y="17.00" width="1.00" height="1" fill="rgba(9,9,9,1.00)"/>
    <rect x="20.00" y="17.00" width="1.00" height="1" fill="rgba(245,198,150,1.00)"/>
    <rect x="21.00" y="17.00" width="2.00" height="1" fill="rgba(9,9,11,1.00)"/>
    <rect x="23.00" y="17.00" width="1.00" height="1" fill="rgba(9,9,9,1.00)"/>
    <rect x="24.00" y="17.00" width="1.00" height="1" fill="rgba(63,61,62,1.00)"/>
    <rect x="25.00" y="17.00" width="1.00" height="1" fill="rgba(10,10,10,1.00)"/>
    <rect x="26.00" y="17.00" width="1.00" height="1" fill="rgba(2,2,2,1.00)"/>
    <rect x="27.00" y="17.00" width="1.00" height="1" fill="rgba(53,53,53,1.00)"/>
    <rect x="28.00" y="17.00" width="1.00" height="1" fill="rgba(2,2,2,1.00)"/>
    <rect x="29.00" y="17.00" width="1.00" height="1" fill="rgba(53,53,53,1.00)"/>
    <rect x="30.00" y="17.00" width="7.00" height="1" fill="rgba(2,2,2,1.00)"/>
    <rect x="0.00" y="18.00" width="11.00" height="1" fill="rgba(255,255,255,1.00)"/>
    <rect x="11.00" y="18.00" width="1.00" height="1" fill="rgba(0,0,0,1.00)"/>
    <rect x="12.00" y="18.00" width="1.00" height="1" fill="rgba(169,105,66,1.00)"/>
    <rect x="13.00" y="18.00" width="1.00" height="1" fill="rgba(2,2,2,1.00)"/>
    <rect x="14.00" y="18.00" width="1.00" height="1" fill="rgba(11,11,11,1.00)"/>
    <rect x="15.00" y="18.00" width="1.00" height="1" fill="rgba(222,158,115,1.00)"/>
    <rect x="16.00" y="18.00" width="1.00" height="1" fill="rgba(8,9,11,1.00)"/>
    <rect x="17.00" y="18.00" width="2.00" height="1" fill="rgba(9,9,9,1.00)"/>
    <rect x="19.00" y="18.00" width="1.00" height="1" fill="rgba(250,214,164,1.00)"/>
    <rect x="20.00" y="18.00" width="1.00" height="1" fill="rgba(0,0,0,1.00)"/>
    <rect x="21.00" y="18.00" width="1.00" height="1" fill="rgba(249,198,151,1.00)"/>
    <rect x="22.00" y="18.00" width="1.00" height="1" fill="rgba(14,7,14,1.00)"/>
    <rect x="23.00" y="18.00" width="1.00" height="1" fill="rgba(10,8,11,1.00)"/>
    <rect x="24.00" y="18.00" width="1.00" height="1" fill="rgba(9,9,11,1.00)"/>
    <rect x="25.00" y="18.00" width="1.00" height="1" fill="rgba(2,2,2,1.00)"/>
    <rect x="26.00" y="18.00" width="11.00" height="1" fill="rgba(255,255,255,1.00)"/>
    <rect x="0.00" y="19.00" width="12.00" height="1" fill="rgba(255,255,255,1.00)"/>
    <rect x="12.00" y="19.00" width="1.00" height="1" fill="rgba(0,0,0,1.00)"/>
    <rect x="13.00" y="19.00" width="1.00" height="1" fill="rgba(2,2,2,1.00)"/>
    <rect x="14.00" y="19.00" width="1.00" height="1" fill="rgba(22,22,22,1.00)"/>
    <rect x="15.00" y="19.00" width="1.00" height="1" fill="rgba(200,129,91,1.00)"/>
    <rect x="16.00" y="19.00" width="1.00" height="1" fill="rgba(231,168,122,1.00)"/>
    <rect x="17.00" y="19.00" width="1.00" height="1" fill="rgba(251,199,150,1.00)"/>
    <rect x="18.00" y="19.00" width="1.00" height="1" fill="rgba(255,231,186,1.00)"/>
    <rect x="19.00" y="19.00" width="1.00" height="1" fill="rgba(252,227,180,1.00)"/>
    <rect x="20.00" y="19.00" width="2.00" height="1" fill="rgba(0,0,0,1.00)"/>
    <rect x="22.00" y="19.00" width="2.00" height="1" fill="rgba(202,145,102,1.00)"/>
    <rect x="24.00" y="19.00" width="1.00" height="1" fill="rgba(227,167,119,1.00)"/>
    <rect x="25.00" y="19.00" width="1.00" height="1" fill="rgba(2,2,2,1.00)"/>
    <rect x="26.00" y="19.00" width="11.00" height="1" fill="rgba(255,255,255,1.00)"/>
    <rect x="0.00" y="20.00" width="1.00" height="1" fill="rgba(255,255,255,1.00)"/>
    <rect x="1.00" y="20.00" width="1.00" height="1" fill="rgba(178,178,178,1.00)"/>
    <rect x="2.00" y="20.00" width="1.00" height="1" fill="rgba(255,255,255,1.00)"/>
    <rect x="3.00" y="20.00" width="1.00" height="1" fill="rgba(134,134,134,1.00)"/>
    <rect x="4.00" y="20.00" width="9.00" height="1" fill="rgba(255,255,255,1.00)"/>
    <rect x="13.00" y="20.00" width="1.00" height="1" fill="rgba(2,2,2,1.00)"/>
    <rect x="14.00" y="20.00" width="1.00" height="1" fill="rgba(11,11,11,1.00)"/>
    <rect x="15.00" y="20.00" width="1.00" height="1" fill="rgba(29,29,29,1.00)"/>
    <rect x="16.00" y="20.00" width="1.00" height="1" fill="rgba(219,148,107,1.00)"/>
    <rect x="17.00" y="20.00" width="1.00" height="1" fill="rgba(244,184,134,1.00)"/>
    <rect x="18.00" y="20.00" width="1.00" height="1" fill="rgba(255,216,169,1.00)"/>
    <rect x="19.00" y="20.00" width="1.00" height="1" fill="rgba(255,239,196,1.00)"/>
    <rect x="20.00" y="20.00" width="1.00" height="1" fill="rgba(250,212,160,1.00)"/>
    <rect x="21.00" y="20.00" width="1.00" height="1" fill="rgba(242,189,136,1.00)"/>
    <rect x="22.00" y="20.00" width="2.00" height="1" fill="rgba(254,215,166,1.00)"/>
    <rect x="24.00" y="20.00" width="1.00" height="1" fill="rgba(237,177,127,1.00)"/>
    <rect x="25.00" y="20.00" width="1.00" height="1" fill="rgba(2,2,2,1.00)"/>
    <rect x="26.00" y="20.00" width="11.00" height="1" fill="rgba(255,255,255,1.00)"/>
    <rect x="0.00" y="21.00" width="1.00" height="1" fill="rgba(255,255,255,1.00)"/>
    <rect x="1.00" y="21.00" width="1.00" height="1" fill="rgba(134,134,134,1.00)"/>
    <rect x="2.00" y="21.00" width="1.00" height="1" fill="rgba(255,255,255,1.00)"/>
    <rect x="3.00" y="21.00" width="1.00" height="1" fill="rgba(134,134,134,1.00)"/>
    <rect x="4.00" y="21.00" width="1.00" height="1" fill="rgba(255,255,255,1.00)"/>
    <rect x="5.00" y="21.00" width="9.00" height="1" fill="rgba(2,2,2,1.00)"/>
    <rect x="14.00" y="21.00" width="1.00" height="1" fill="rgba(11,11,11,1.00)"/>
    <rect x="15.00" y="21.00" width="1.00" height="1" fill="rgba(29,29,29,1.00)"/>
    <rect x="16.00" y="21.00" width="1.00" height="1" fill="rgba(40,40,40,1.00)"/>
    <rect x="17.00" y="21.00" width="1.00" height="1" fill="rgba(244,176,128,1.00)"/>
    <rect x="18.00" y="21.00" width="1.00" height="1" fill="rgba(244,192,140,1.00)"/>
    <rect x="19.00" y="21.00" width="1.00" height="1" fill="rgba(255,216,169,1.00)"/>
    <rect x="20.00" y="21.00" width="1.00" height="1" fill="rgba(255,230,185,1.00)"/>
    <rect x="21.00" y="21.00" width="1.00" height="1" fill="rgba(251,217,167,1.00)"/>
    <rect x="22.00" y="21.00" width="2.00" height="1" fill="rgba(245,192,140,1.00)"/>
    <rect x="24.00" y="21.00" width="1.00" height="1" fill="rgba(225,167,117,1.00)"/>
    <rect x="25.00" y="21.00" width="1.00" height="1" fill="rgba(40,40,40,1.00)"/>
    <rect x="26.00" y="21.00" width="3.00" height="1" fill="rgba(2,2,2,1.00)"/>
    <rect x="29.00" y="21.00" width="1.00" height="1" fill="rgba(129,129,129,1.00)"/>
    <rect x="30.00" y="21.00" width="7.00" height="1" fill="rgba(2,2,2,1.00)"/>
    <rect x="0.00" y="22.00" width="13.00" height="1" fill="rgba(255,255,255,1.00)"/>
    <rect x="13.00" y="22.00" width="1.00" height="1" fill="rgba(2,2,2,1.00)"/>
    <rect x="14.00" y="22.00" width="1.00" height="1" fill="rgba(14,14,14,1.00)"/>
    <rect x="15.00" y="22.00" width="1.00" height="1" fill="rgba(23,23,23,1.00)"/>
    <rect x="16.00" y="22.00" width="1.00" height="1" fill="rgba(40,40,40,1.00)"/>
    <rect x="17.00" y="22.00" width="1.00" height="1" fill="rgba(234,167,120,1.00)"/>
    <rect x="18.00" y="22.00" width="1.00" height="1" fill="rgba(231,171,123,1.00)"/>
    <rect x="19.00" y="22.00" width="2.00" height="1" fill="rgba(0,0,0,1.00)"/>
    <rect x="21.00" y="22.00" width="1.00" height="1" fill="rgba(60,14,29,1.00)"/>
    <rect x="22.00" y="22.00" width="2.00" height="1" fill="rgba(122,29,60,1.00)"/>
    <rect x="24.00" y="22.00" width="1.00" height="1" fill="rgba(147,94,54,1.00)"/>
    <rect x="25.00" y="22.00" width="1.00" height="1" fill="rgba(255,237,220,1.00)"/>
    <rect x="26.00" y="22.00" width="1.00" height="1" fill="rgba(255,239,220,1.00)"/>
    <rect x="27.00" y="22.00" width="1.00" height="1" fill="rgba(255,237,220,1.00)"/>
    <rect x="28.00" y="22.00" width="1.00" height="1" fill="rgba(255,236,220,1.00)"/>
    <rect x="29.00" y="22.00" width="1.00" height="1" fill="rgba(255,19,0,1.00)"/>
    <rect x="30.00" y="22.00" width="7.00" height="1" fill="rgba(255,255,255,1.00)"/>
    <rect x="0.00" y="23.00" width="13.00" height="1" fill="rgba(255,255,255,1.00)"/>
    <rect x="13.00" y="23.00" width="1.00" height="1" fill="rgba(0,0,0,1.00)"/>
    <rect x="14.00" y="23.00" width="1.00" height="1" fill="rgba(14,14,14,1.00)"/>
    <rect x="15.00" y="23.00" width="1.00" height="1" fill="rgba(23,23,23,1.00)"/>
    <rect x="16.00" y="23.00" width="1.00" height="1" fill="rgba(196,129,90,1.00)"/>
    <rect x="17.00" y="23.00" width="1.00" height="1" fill="rgba(231,161,116,1.00)"/>
    <rect x="18.00" y="23.00" width="1.00" height="1" fill="rgba(250,191,141,1.00)"/>
    <rect x="19.00" y="23.00" width="1.00" height="1" fill="rgba(253,218,169,1.00)"/>
    <rect x="20.00" y="23.00" width="1.00" height="1" fill="rgba(253,223,174,1.00)"/>
    <rect x="21.00" y="23.00" width="1.00" height="1" fill="rgba(253,214,166,1.00)"/>
    <rect x="22.00" y="23.00" width="2.00" height="1" fill="rgba(253,203,153,1.00)"/>
    <rect x="24.00" y="23.00" width="1.00" height="1" fill="rgba(219,158,110,1.00)"/>
    <rect x="25.00" y="23.00" width="1.00" height="1" fill="rgba(28,28,28,1.00)"/>
    <rect x="26.00" y="23.00" width="1.00" height="1" fill="rgba(40,40,40,1.00)"/>
    <rect x="27.00" y="23.00" width="10.00" height="1" fill="rgba(255,255,255,1.00)"/>
    <rect x="0.00" y="24.00" width="1.00" height="1" fill="rgba(255,255,255,1.00)"/>
    <rect x="1.00" y="24.00" width="1.00" height="1" fill="rgba(178,178,178,1.00)"/>
    <rect x="2.00" y="24.00" width="1.00" height="1" fill="rgba(255,255,255,1.00)"/>
    <rect x="3.00" y="24.00" width="1.00" height="1" fill="rgba(134,134,134,1.00)"/>
    <rect x="4.00" y="24.00" width="9.00" height="1" fill="rgba(255,255,255,1.00)"/>
    <rect x="13.00" y="24.00" width="1.00" height="1" fill="rgba(0,0,0,1.00)"/>
    <rect x="14.00" y="24.00" width="1.00" height="1" fill="rgba(132,69,38,1.00)"/>
    <rect x="15.00" y="24.00" width="1.00" height="1" fill="rgba(103,44,19,1.00)"/>
    <rect x="16.00" y="24.00" width="1.00" height="1" fill="rgba(152,90,59,1.00)"/>
    <rect x="17.00" y="24.00" width="1.00" height="1" fill="rgba(208,139,98,1.00)"/>
    <rect x="18.00" y="24.00" width="1.00" height="1" fill="rgba(248,180,132,1.00)"/>
    <rect x="19.00" y="24.00" width="1.00" height="1" fill="rgba(253,207,159,1.00)"/>
    <rect x="20.00" y="24.00" width="1.00" height="1" fill="rgba(255,236,189,1.00)"/>
    <rect x="21.00" y="24.00" width="1.00" height="1" fill="rgba(255,238,194,1.00)"/>
    <rect x="22.00" y="24.00" width="2.00" height="1" fill="rgba(255,219,172,1.00)"/>
    <rect x="24.00" y="24.00" width="1.00" height="1" fill="rgba(189,131,89,1.00)"/>
    <rect x="25.00" y="24.00" width="1.00" height="1" fill="rgba(0,0,0,1.00)"/>
    <rect x="26.00" y="24.00" width="11.00" height="1" fill="rgba(255,255,255,1.00)"/>
    <rect x="0.00" y="25.00" width="1.00" height="1" fill="rgba(255,255,255,1.00)"/>
    <rect x="1.00" y="25.00" width="1.00" height="1" fill="rgba(193,193,193,1.00)"/>
    <rect x="2.00" y="25.00" width="1.00" height="1" fill="rgba(255,255,255,1.00)"/>
    <rect x="3.00" y="25.00" width="1.00" height="1" fill="rgba(193,193,193,1.00)"/>
    <rect x="4.00" y="25.00" width="1.00" height="1" fill="rgba(255,255,255,1.00)"/>
    <rect x="5.00" y="25.00" width="8.00" height="1" fill="rgba(2,2,2,1.00)"/>
    <rect x="13.00" y="25.00" width="1.00" height="1" fill="rgba(0,0,0,1.00)"/>
    <rect x="14.00" y="25.00" width="1.00" height="1" fill="rgba(150,86,53,1.00)"/>
    <rect x="15.00" y="25.00" width="1.00" height="1" fill="rgba(0,0,0,1.00)"/>
    <rect x="16.00" y="25.00" width="1.00" height="1" fill="rgba(119,59,32,1.00)"/>
    <rect x="17.00" y="25.00" width="1.00" height="1" fill="rgba(153,92,59,1.00)"/>
    <rect x="18.00" y="25.00" width="1.00" height="1" fill="rgba(190,131,89,1.00)"/>
    <rect x="19.00" y="25.00" width="1.00" height="1" fill="rgba(205,157,108,1.00)"/>
    <rect x="20.00" y="25.00" width="2.00" height="1" fill="rgba(235,196,142,1.00)"/>
    <rect x="22.00" y="25.00" width="2.00" height="1" fill="rgba(200,153,106,1.00)"/>
    <rect x="24.00" y="25.00" width="1.00" height="1" fill="rgba(0,0,0,1.00)"/>
    <rect x="25.00" y="25.00" width="12.00" height="1" fill="rgba(2,2,2,1.00)"/>
    <rect x="0.00" y="26.00" width="13.00" height="1" fill="rgba(255,255,255,1.00)"/>
    <rect x="13.00" y="26.00" width="1.00" height="1" fill="rgba(0,0,0,1.00)"/>
    <rect x="14.00" y="26.00" width="1.00" height="1" fill="rgba(157,94,58,1.00)"/>
    <rect x="15.00" y="26.00" width="1.00" height="1" fill="rgba(238,169,123,1.00)"/>
    <rect x="16.00" y="26.00" width="8.00" height="1" fill="rgba(0,0,0,1.00)"/>
    <rect x="24.00" y="26.00" width="13.00" height="1" fill="rgba(255,255,255,1.00)"/>
    <rect x="0.00" y="27.00" width="13.00" height="1" fill="rgba(255,255,255,1.00)"/>
    <rect x="13.00" y="27.00" width="1.00" height="1" fill="rgba(0,0,0,1.00)"/>
    <rect x="14.00" y="27.00" width="1.00" height="1" fill="rgba(155,92,57,1.00)"/>
    <rect x="15.00" y="27.00" width="1.00" height="1" fill="rgba(251,185,136,1.00)"/>
    <rect x="16.00" y="27.00" width="1.00" height="1" fill="rgba(236,169,122,1.00)"/>
    <rect x="17.00" y="27.00" width="2.00" height="1" fill="rgba(170,104,70,1.00)"/>
    <rect x="19.00" y="27.00" width="1.00" height="1" fill="rgba(0,0,0,1.00)"/>
    <rect x="20.00" y="27.00" width="17.00" height="1" fill="rgba(255,255,255,1.00)"/>
    <rect x="0.00" y="28.00" width="1.00" height="1" fill="rgba(255,255,255,1.00)"/>
    <rect x="1.00" y="28.00" width="1.00" height="1" fill="rgba(103,103,103,1.00)"/>
    <rect x="2.00" y="28.00" width="1.00" height="1" fill="rgba(255,255,255,1.00)"/>
    <rect x="3.00" y="28.00" width="1.00" height="1" fill="rgba(178,178,178,1.00)"/>
    <rect x="4.00" y="28.00" width="7.00" height="1" fill="rgba(255,255,255,1.00)"/>
    <rect x="11.00" y="28.00" width="1.00" height="1" fill="rgba(0,0,0,1.00)"/>
    <rect x="12.00" y="28.00" width="1.00" height="1" fill="rgba(36,36,36,1.00)"/>
    <rect x="13.00" y="28.00" width="1.00" height="1" fill="rgba(147,147,147,1.00)"/>
    <rect x="14.00" y="28.00" width="1.00" height="1" fill="rgba(157,95,59,1.00)"/>
    <rect x="15.00" y="28.00" width="1.00" height="1" fill="rgba(250,186,136,1.00)"/>
    <rect x="16.00" y="28.00" width="1.00" height="1" fill="rgba(252,200,150,1.00)"/>
    <rect x="17.00" y="28.00" width="2.00" height="1" fill="rgba(237,176,128,1.00)"/>
    <rect x="19.00" y="28.00" width="1.00" height="1" fill="rgba(0,0,0,1.00)"/>
    <rect x="20.00" y="28.00" width="1.00" height="1" fill="rgba(119,119,119,1.00)"/>
    <rect x="21.00" y="28.00" width="16.00" height="1" fill="rgba(255,255,255,1.00)"/>
    <rect x="0.00" y="29.00" width="1.00" height="1" fill="rgba(255,255,255,1.00)"/>
    <rect x="1.00" y="29.00" width="1.00" height="1" fill="rgba(178,178,178,1.00)"/>
    <rect x="2.00" y="29.00" width="1.00" height="1" fill="rgba(255,255,255,1.00)"/>
    <rect x="3.00" y="29.00" width="1.00" height="1" fill="rgba(134,134,134,1.00)"/>
    <rect x="4.00" y="29.00" width="1.00" height="1" fill="rgba(255,255,255,1.00)"/>
    <rect x="5.00" y="29.00" width="4.00" height="1" fill="rgba(2,2,2,1.00)"/>
    <rect x="9.00" y="29.00" width="2.00" height="1" fill="rgba(0,0,0,1.00)"/>
    <rect x="11.00" y="29.00" width="1.00" height="1" fill="rgba(36,36,36,1.00)"/>
    <rect x="12.00" y="29.00" width="1.00" height="1" fill="rgba(143,143,143,1.00)"/>
    <rect x="13.00" y="29.00" width="1.00" height="1" fill="rgba(227,227,227,1.00)"/>
    <rect x="14.00" y="29.00" width="1.00" height="1" fill="rgba(246,246,246,1.00)"/>
    <rect x="15.00" y="29.00" width="1.00" height="1" fill="rgba(185,185,185,1.00)"/>
    <rect x="16.00" y="29.00" width="1.00" height="1" fill="rgba(114,114,114,1.00)"/>
    <rect x="17.00" y="29.00" width="2.00" height="1" fill="rgba(72,72,72,1.00)"/>
    <rect x="19.00" y="29.00" width="1.00" height="1" fill="rgba(59,59,59,1.00)"/>
    <rect x="20.00" y="29.00" width="1.00" height="1" fill="rgba(250,250,250,1.00)"/>
    <rect x="21.00" y="29.00" width="1.00" height="1" fill="rgba(72,72,72,1.00)"/>
    <rect x="22.00" y="29.00" width="3.00" height="1" fill="rgba(0,0,0,1.00)"/>
    <rect x="25.00" y="29.00" width="12.00" height="1" fill="rgba(2,2,2,1.00)"/>
    <rect x="0.00" y="30.00" width="6.00" height="1" fill="rgba(255,255,255,1.00)"/>
    <rect x="6.00" y="30.00" width="3.00" height="1" fill="rgba(0,0,0,1.00)"/>
    <rect x="9.00" y="30.00" width="1.00" height="1" fill="rgba(91,91,91,1.00)"/>
    <rect x="10.00" y="30.00" width="1.00" height="1" fill="rgba(0,0,0,1.00)"/>
    <rect x="11.00" y="30.00" width="1.00" height="1" fill="rgba(93,93,93,1.00)"/>
    <rect x="12.00" y="30.00" width="1.00" height="1" fill="rgba(178,178,178,1.00)"/>
    <rect x="13.00" y="30.00" width="1.00" height="1" fill="rgba(189,189,189,1.00)"/>
    <rect x="14.00" y="30.00" width="1.00" height="1" fill="rgba(250,250,250,1.00)"/>
    <rect x="15.00" y="30.00" width="1.00" height="1" fill="rgba(72,72,72,1.00)"/>
    <rect x="16.00" y="30.00" width="2.00" height="1" fill="rgba(0,0,0,1.00)"/>
    <rect x="18.00" y="30.00" width="1.00" height="1" fill="rgba(44,44,44,1.00)"/>
    <rect x="19.00" y="30.00" width="1.00" height="1" fill="rgba(190,190,190,1.00)"/>
    <rect x="20.00" y="30.00" width="1.00" height="1" fill="rgba(250,250,250,1.00)"/>
    <rect x="21.00" y="30.00" width="1.00" height="1" fill="rgba(120,120,120,1.00)"/>
    <rect x="22.00" y="30.00" width="5.00" height="1" fill="rgba(0,0,0,1.00)"/>
    <rect x="27.00" y="30.00" width="10.00" height="1" fill="rgba(255,255,255,1.00)"/>
    <rect x="0.00" y="31.00" width="5.00" height="1" fill="rgba(255,255,255,1.00)"/>
    <rect x="5.00" y="31.00" width="9.00" height="1" fill="rgba(0,0,0,1.00)"/>
    <rect x="14.00" y="31.00" width="1.00" height="1" fill="rgba(72,72,72,1.00)"/>
    <rect x="15.00" y="31.00" width="1.00" height="1" fill="rgba(250,250,250,1.00)"/>
    <rect x="16.00" y="31.00" width="1.00" height="1" fill="rgba(0,0,0,1.00)"/>
    <rect x="17.00" y="31.00" width="1.00" height="1" fill="rgba(45,45,45,1.00)"/>
    <rect x="18.00" y="31.00" width="1.00" height="1" fill="rgba(44,44,44,1.00)"/>
    <rect x="19.00" y="31.00" width="1.00" height="1" fill="rgba(0,0,0,1.00)"/>
    <rect x="20.00" y="31.00" width="1.00" height="1" fill="rgba(120,120,120,1.00)"/>
    <rect x="21.00" y="31.00" width="7.00" height="1" fill="rgba(0,0,0,1.00)"/>
    <rect x="28.00" y="31.00" width="9.00" height="1" fill="rgba(255,255,255,1.00)"/>
    <rect x="0.00" y="32.00" width="1.00" height="1" fill="rgba(255,255,255,1.00)"/>
    <rect x="1.00" y="32.00" width="1.00" height="1" fill="rgba(158,158,158,1.00)"/>
    <rect x="2.00" y="32.00" width="1.00" height="1" fill="rgba(255,255,255,1.00)"/>
    <rect x="3.00" y="32.00" width="1.00" height="1" fill="rgba(103,103,103,1.00)"/>
    <rect x="4.00" y="32.00" width="1.00" height="1" fill="rgba(0,0,0,1.00)"/>
    <rect x="5.00" y="32.00" width="1.00" height="1" fill="rgba(41,41,41,1.00)"/>
    <rect x="6.00" y="32.00" width="8.00" height="1" fill="rgba(0,0,0,1.00)"/>
    <rect x="14.00" y="32.00" width="1.00" height="1" fill="rgba(194,194,194,1.00)"/>
    <rect x="15.00" y="32.00" width="1.00" height="1" fill="rgba(246,246,246,1.00)"/>
    <rect x="16.00" y="32.00" width="1.00" height="1" fill="rgba(248,248,248,1.00)"/>
    <rect x="17.00" y="32.00" width="1.00" height="1" fill="rgba(35,35,35,1.00)"/>
    <rect x="18.00" y="32.00" width="1.00" height="1" fill="rgba(250,250,250,1.00)"/>
    <rect x="19.00" y="32.00" width="10.00" height="1" fill="rgba(0,0,0,1.00)"/>
    <rect x="29.00" y="32.00" width="8.00" height="1" fill="rgba(255,255,255,1.00)"/>
    <rect x="0.00" y="33.00" width="1.00" height="1" fill="rgba(255,255,255,1.00)"/>
    <rect x="1.00" y="33.00" width="1.00" height="1" fill="rgba(134,134,134,1.00)"/>
    <rect x="2.00" y="33.00" width="1.00" height="1" fill="rgba(255,255,255,1.00)"/>
    <rect x="3.00" y="33.00" width="1.00" height="1" fill="rgba(0,0,0,1.00)"/>
    <rect x="4.00" y="33.00" width="1.00" height="1" fill="rgba(118,118,118,1.00)"/>
    <rect x="5.00" y="33.00" width="1.00" height="1" fill="rgba(22,22,22,1.00)"/>
    <rect x="6.00" y="33.00" width="9.00" height="1" fill="rgba(0,0,0,1.00)"/>
    <rect x="15.00" y="33.00" width="1.00" height="1" fill="rgba(197,197,197,1.00)"/>
    <rect x="16.00" y="33.00" width="1.00" height="1" fill="rgba(246,246,246,1.00)"/>
    <rect x="17.00" y="33.00" width="1.00" height="1" fill="rgba(0,0,0,1.00)"/>
    <rect x="18.00" y="33.00" width="1.00" height="1" fill="rgba(39,39,39,1.00)"/>
    <rect x="19.00" y="33.00" width="8.00" height="1" fill="rgba(0,0,0,1.00)"/>
    <rect x="27.00" y="33.00" width="1.00" height="1" fill="rgba(93,93,93,1.00)"/>
    <rect x="28.00" y="33.00" width="1.00" height="1" fill="rgba(0,0,0,1.00)"/>
    <rect x="29.00" y="33.00" width="8.00" height="1" fill="rgba(2,2,2,1.00)"/>
    <rect x="0.00" y="34.00" width="3.00" height="1" fill="rgba(255,255,255,1.00)"/>
    <rect x="3.00" y="34.00" width="1.00" height="1" fill="rgba(0,0,0,1.00)"/>
    <rect x="4.00" y="34.00" width="1.00" height="1" fill="rgba(113,113,113,1.00)"/>
    <rect x="5.00" y="34.00" width="1.00" height="1" fill="rgba(24,24,24,1.00)"/>
    <rect x="6.00" y="34.00" width="9.00" height="1" fill="rgba(0,0,0,1.00)"/>
    <rect x="15.00" y="34.00" width="1.00" height="1" fill="rgba(197,197,197,1.00)"/>
    <rect x="16.00" y="34.00" width="1.00" height="1" fill="rgba(250,250,250,1.00)"/>
    <rect x="17.00" y="34.00" width="1.00" height="1" fill="rgba(0,0,0,1.00)"/>
    <rect x="18.00" y="34.00" width="1.00" height="1" fill="rgba(41,41,41,1.00)"/>
    <rect x="19.00" y="34.00" width="8.00" height="1" fill="rgba(0,0,0,1.00)"/>
    <rect x="27.00" y="34.00" width="1.00" height="1" fill="rgba(91,91,91,1.00)"/>
    <rect x="28.00" y="34.00" width="1.00" height="1" fill="rgba(0,0,0,1.00)"/>
    <rect x="29.00" y="34.00" width="8.00" height="1" fill="rgba(255,255,255,1.00)"/>
    <rect x="0.00" y="35.00" width="3.00" height="1" fill="rgba(255,255,255,1.00)"/>
    <rect x="3.00" y="35.00" width="1.00" height="1" fill="rgba(0,0,0,1.00)"/>
    <rect x="4.00" y="35.00" width="1.00" height="1" fill="rgba(113,113,113,1.00)"/>
    <rect x="5.00" y="35.00" width="1.00" height="1" fill="rgba(24,24,24,1.00)"/>
    <rect x="6.00" y="35.00" width="2.00" height="1" fill="rgba(0,0,0,1.00)"/>
    <rect x="8.00" y="35.00" width="1.00" height="1" fill="rgba(36,36,36,1.00)"/>
    <rect x="9.00" y="35.00" width="1.00" height="1" fill="rgba(0,0,0,1.00)"/>
    <rect x="10.00" y="35.00" width="1.00" height="1" fill="rgba(47,47,47,1.00)"/>
    <rect x="11.00" y="35.00" width="5.00" height="1" fill="rgba(0,0,0,1.00)"/>
    <rect x="16.00" y="35.00" width="1.00" height="1" fill="rgba(197,197,197,1.00)"/>
    <rect x="17.00" y="35.00" width="1.00" height="1" fill="rgba(0,0,0,1.00)"/>
    <rect x="18.00" y="35.00" width="1.00" height="1" fill="rgba(44,44,44,1.00)"/>
    <rect x="19.00" y="35.00" width="5.00" height="1" fill="rgba(0,0,0,1.00)"/>
    <rect x="24.00" y="35.00" width="1.00" height="1" fill="rgba(29,29,29,1.00)"/>
    <rect x="25.00" y="35.00" width="2.00" height="1" fill="rgba(0,0,0,1.00)"/>
    <rect x="27.00" y="35.00" width="1.00" height="1" fill="rgba(90,90,90,1.00)"/>
    <rect x="28.00" y="35.00" width="1.00" height="1" fill="rgba(0,0,0,1.00)"/>
    <rect x="29.00" y="35.00" width="8.00" height="1" fill="rgba(255,255,255,1.00)"/>
    <rect x="0.00" y="36.00" width="3.00" height="1" fill="rgba(255,255,255,1.00)"/>
    <rect x="3.00" y="36.00" width="1.00" height="1" fill="rgba(0,0,0,1.00)"/>
    <rect x="4.00" y="36.00" width="1.00" height="1" fill="rgba(113,113,113,1.00)"/>
    <rect x="5.00" y="36.00" width="1.00" height="1" fill="rgba(24,24,24,1.00)"/>
    <rect x="6.00" y="36.00" width="2.00" height="1" fill="rgba(0,0,0,1.00)"/>
    <rect x="8.00" y="36.00" width="1.00" height="1" fill="rgba(45,45,45,1.00)"/>
    <rect x="9.00" y="36.00" width="1.00" height="1" fill="rgba(0,0,0,1.00)"/>
    <rect x="10.00" y="36.00" width="1.00" height="1" fill="rgba(85,85,85,1.00)"/>
    <rect x="11.00" y="36.00" width="1.00" height="1" fill="rgba(17,17,17,1.00)"/>
    <rect x="12.00" y="36.00" width="1.00" height="1" fill="rgba(24,24,24,1.00)"/>
    <rect x="13.00" y="36.00" width="3.00" height="1" fill="rgba(0,0,0,1.00)"/>
    <rect x="16.00" y="36.00" width="1.00" height="1" fill="rgba(197,197,197,1.00)"/>
    <rect x="17.00" y="36.00" width="1.00" height="1" fill="rgba(0,0,0,1.00)"/>
    <rect x="18.00" y="36.00" width="1.00" height="1" fill="rgba(44,44,44,1.00)"/>
    <rect x="19.00" y="36.00" width="3.00" height="1" fill="rgba(0,0,0,1.00)"/>
    <rect x="22.00" y="36.00" width="2.00" height="1" fill="rgba(19,19,19,1.00)"/>
    <rect x="24.00" y="36.00" width="1.00" height="1" fill="rgba(56,56,56,1.00)"/>
    <rect x="25.00" y="36.00" width="2.00" height="1" fill="rgba(0,0,0,1.00)"/>
    <rect x="27.00" y="36.00" width="1.00" height="1" fill="rgba(90,90,90,1.00)"/>
    <rect x="28.00" y="36.00" width="1.00" height="1" fill="rgba(0,0,0,1.00)"/>
    <rect x="29.00" y="36.00" width="8.00" height="1" fill="rgba(255,255,255,1.00)"/>
  </g>
</svg>