<svg shape-rendering="crispEdges" xmlns="http://www.w3.org/2000/svg" version="1.1" width="37" height="37"><style>rect { image-rendering: pixelated; }</style><rect x="16" y="6" width="1.025" height="1.025" fill="rgba(0,0,0,1.000)" /><rect x="17" y="6" width="1.025" height="1.025" fill="rgba(0,0,0,1.000)" /><rect x="18" y="6" width="1.025" height="1.025" fill="rgba(0,0,0,1.000)" /><rect x="19" y="6" width="1.025" height="1.025" fill="rgba(0,0,0,1.000)" /><rect x="20" y="6" width="1.025" height="1.025" fill="rgba(0,0,0,1.000)" /><rect x="21" y="6" width="1.025" height="1.025" fill="rgba(0,0,0,1.000)" /><rect x="22" y="6" width="1.025" height="1.025" fill="rgba(0,0,0,1.000)" /><rect x="15" y="7" width="1.025" height="1.025" fill="rgba(0,0,0,1.000)" /><rect x="16" y="7" width="1.025" height="1.025" fill="rgba(213,173,144,1.000)" /><rect x="17" y="7" width="1.025" height="1.025" fill="rgba(250,233,205,1.000)" /><rect x="18" y="7" width="1.025" height="1.025" fill="rgba(250,231,203,1.000)" /><rect x="19" y="7" width="1.025" height="1.025" fill="rgba(249,231,203,1.000)" /><rect x="20" y="7" width="1.025" height="1.025" fill="rgba(249,231,203,1.000)" /><rect x="21" y="7" width="1.025" height="1.025" fill="rgba(250,232,203,1.000)" /><rect x="22" y="7" width="1.025" height="1.025" fill="rgba(244,222,193,1.000)" /><rect x="23" y="7" width="1.025" height="1.025" fill="rgba(0,0,0,1.000)" /><rect x="14" y="8" width="1.025" height="1.025" fill="rgba(0,0,0,1.000)" /><rect x="15" y="8" width="1.025" height="1.025" fill="rgba(213,173,144,1.000)" /><rect x="16" y="8" width="1.025" height="1.025" fill="rgba(246,222,194,1.000)" /><rect x="17" y="8" width="1.025" height="1.025" fill="rgba(254,246,226,1.000)" /><rect x="18" y="8" width="1.025" height="1.025" fill="rgba(253,245,224,1.000)" /><rect x="19" y="8" width="1.025" height="1.025" fill="rgba(253,245,223,1.000)" /><rect x="20" y="8" width="1.025" height="1.025" fill="rgba(254,246,225,1.000)" /><rect x="21" y="8" width="1.025" height="1.025" fill="rgba(254,245,224,1.000)" /><rect x="22" y="8" width="1.025" height="1.025" fill="rgba(254,242,218,1.000)" /><rect x="23" y="8" width="1.025" height="1.025" fill="rgba(248,222,195,1.000)" /><rect x="24" y="8" width="1.025" height="1.025" fill="rgba(0,0,0,1.000)" /><rect x="13" y="9" width="1.025" height="1.025" fill="rgba(0,0,0,1.000)" /><rect x="14" y="9" width="1.025" height="1.025" fill="rgba(213,173,144,1.000)" /><rect x="15" y="9" width="1.025" height="1.025" fill="rgba(246,222,194,1.000)" /><rect x="16" y="9" width="1.025" height="1.025" fill="rgba(255,244,224,1.000)" /><rect x="17" y="9" width="1.025" height="1.025" fill="rgba(255,245,226,1.000)" /><rect x="18" y="9" width="1.025" height="1.025" fill="rgba(255,248,231,1.000)" /><rect x="19" y="9" width="1.025" height="1.025" fill="rgba(255,249,233,1.000)" /><rect x="20" y="9" width="1.025" height="1.025" fill="rgba(255,245,229,1.000)" /><rect x="21" y="9" width="1.025" height="1.025" fill="rgba(255,244,226,1.000)" /><rect x="22" y="9" width="1.025" height="1.025" fill="rgba(251,228,201,1.000)" /><rect x="23" y="9" width="1.025" height="1.025" fill="rgba(0,0,0,1.000)" /><rect x="12" y="10" width="1.025" height="1.025" fill="rgba(0,0,0,1.000)" /><rect x="13" y="10" width="1.025" height="1.025" fill="rgba(206,167,135,1.000)" /><rect x="14" y="10" width="1.025" height="1.025" fill="rgba(246,217,191,1.000)" /><rect x="15" y="10" width="1.025" height="1.025" fill="rgba(253,229,205,1.000)" /><rect x="16" y="10" width="1.025" height="1.025" fill="rgba(255,243,224,1.000)" /><rect x="17" y="10" width="1.025" height="1.025" fill="rgba(255,245,226,1.000)" /><rect x="18" y="10" width="1.025" height="1.025" fill="rgba(255,245,226,1.000)" /><rect x="19" y="10" width="1.025" height="1.025" fill="rgba(255,246,228,1.000)" /><rect x="20" y="10" width="1.025" height="1.025" fill="rgba(255,245,227,1.000)" /><rect x="21" y="10" width="1.025" height="1.025" fill="rgba(255,241,221,1.000)" /><rect x="22" y="10" width="1.025" height="1.025" fill="rgba(251,228,201,1.000)" /><rect x="23" y="10" width="1.025" height="1.025" fill="rgba(0,0,0,1.000)" /><rect x="12" y="11" width="1.025" height="1.025" fill="rgba(0,0,0,1.000)" /><rect x="13" y="11" width="1.025" height="1.025" fill="rgba(203,165,132,1.000)" /><rect x="14" y="11" width="1.025" height="1.025" fill="rgba(245,215,190,1.000)" /><rect x="15" y="11" width="1.025" height="1.025" fill="rgba(252,225,200,1.000)" /><rect x="16" y="11" width="1.025" height="1.025" fill="rgba(253,229,202,1.000)" /><rect x="17" y="11" width="1.025" height="1.025" fill="rgba(249,224,199,1.000)" /><rect x="18" y="11" width="1.025" height="1.025" fill="rgba(250,226,202,1.000)" /><rect x="19" y="11" width="1.025" height="1.025" fill="rgba(250,224,202,1.000)" /><rect x="20" y="11" width="1.025" height="1.025" fill="rgba(255,246,228,1.000)" /><rect x="21" y="11" width="1.025" height="1.025" fill="rgba(255,242,222,1.000)" /><rect x="22" y="11" width="1.025" height="1.025" fill="rgba(251,228,201,1.000)" /><rect x="23" y="11" width="1.025" height="1.025" fill="rgba(0,0,0,1.000)" /><rect x="12" y="12" width="1.025" height="1.025" fill="rgba(0,0,0,1.000)" /><rect x="13" y="12" width="1.025" height="1.025" fill="rgba(198,156,124,1.000)" /><rect x="14" y="12" width="1.025" height="1.025" fill="rgba(245,215,189,1.000)" /><rect x="15" y="12" width="1.025" height="1.025" fill="rgba(252,225,200,1.000)" /><rect x="16" y="12" width="1.025" height="1.025" fill="rgba(241,212,186,1.000)" /><rect x="17" y="12" width="1.025" height="1.025" fill="rgba(194,156,122,1.000)" /><rect x="18" y="12" width="1.025" height="1.025" fill="rgba(198,159,131,1.000)" /><rect x="19" y="12" width="1.025" height="1.025" fill="rgba(218,184,160,1.000)" /><rect x="20" y="12" width="1.025" height="1.025" fill="rgba(253,236,213,1.000)" /><rect x="21" y="12" width="1.025" height="1.025" fill="rgba(254,239,218,1.000)" /><rect x="22" y="12" width="1.025" height="1.025" fill="rgba(252,235,211,1.000)" /><rect x="23" y="12" width="1.025" height="1.025" fill="rgba(251,226,201,1.000)" /><rect x="24" y="12" width="1.025" height="1.025" fill="rgba(0,0,0,1.000)" /><rect x="12" y="13" width="1.025" height="1.025" fill="rgba(0,0,0,1.000)" /><rect x="13" y="13" width="1.025" height="1.025" fill="rgba(0,0,0,1.000)" /><rect x="14" y="13" width="1.025" height="1.025" fill="rgba(243,214,189,1.000)" /><rect x="15" y="13" width="1.025" height="1.025" fill="rgba(253,228,202,1.000)" /><rect x="16" y="13" width="1.025" height="1.025" fill="rgba(247,226,198,1.000)" /><rect x="17" y="13" width="1.025" height="1.025" fill="rgba(0,0,0,1.000)" /><rect x="18" y="13" width="1.025" height="1.025" fill="rgba(255,255,255,1.000)" /><rect x="19" y="13" width="1.025" height="1.025" fill="rgba(243,220,197,1.000)" /><rect x="20" y="13" width="1.025" height="1.025" fill="rgba(237,208,182,1.000)" /><rect x="21" y="13" width="1.025" height="1.025" fill="rgba(239,215,188,1.000)" /><rect x="22" y="13" width="1.025" height="1.025" fill="rgba(194,156,122,1.000)" /><rect x="23" y="13" width="1.025" height="1.025" fill="rgba(198,159,131,1.000)" /><rect x="24" y="13" width="1.025" height="1.025" fill="rgba(0,0,0,1.000)" /><rect x="11" y="14" width="1.025" height="1.025" fill="rgba(0,0,0,1.000)" /><rect x="12" y="14" width="1.025" height="1.025" fill="rgba(216,181,152,1.000)" /><rect x="13" y="14" width="1.025" height="1.025" fill="rgba(231,198,172,1.000)" /><rect x="14" y="14" width="1.025" height="1.025" fill="rgba(243,214,187,1.000)" /><rect x="15" y="14" width="1.025" height="1.025" fill="rgba(253,226,200,1.000)" /><rect x="16" y="14" width="1.025" height="1.025" fill="rgba(255,245,226,1.000)" /><rect x="17" y="14" width="1.025" height="1.025" fill="rgba(255,249,232,1.000)" /><rect x="18" y="14" width="1.025" height="1.025" fill="rgba(253,246,224,1.000)" /><rect x="19" y="14" width="1.025" height="1.025" fill="rgba(255,241,222,1.000)" /><rect x="20" y="14" width="1.025" height="1.025" fill="rgba(248,224,199,1.000)" /><rect x="21" y="14" width="1.025" height="1.025" fill="rgba(244,223,197,1.000)" /><rect x="22" y="14" width="1.025" height="1.025" fill="rgba(0,0,0,1.000)" /><rect x="23" y="14" width="1.025" height="1.025" fill="rgba(255,255,255,1.000)" /><rect x="24" y="14" width="1.025" height="1.025" fill="rgba(0,0,0,1.000)" /><rect x="11" y="15" width="1.025" height="1.025" fill="rgba(0,0,0,1.000)" /><rect x="12" y="15" width="1.025" height="1.025" fill="rgba(232,198,173,1.000)" /><rect x="13" y="15" width="1.025" height="1.025" fill="rgba(225,189,164,1.000)" /><rect x="14" y="15" width="1.025" height="1.025" fill="rgba(240,206,182,1.000)" /><rect x="15" y="15" width="1.025" height="1.025" fill="rgba(249,223,197,1.000)" /><rect x="16" y="15" width="1.025" height="1.025" fill="rgba(255,245,226,1.000)" /><rect x="17" y="15" width="1.025" height="1.025" fill="rgba(255,249,232,1.000)" /><rect x="18" y="15" width="1.025" height="1.025" fill="rgba(253,246,224,1.000)" /><rect x="19" y="15" width="1.025" height="1.025" fill="rgba(255,241,222,1.000)" /><rect x="20" y="15" width="1.025" height="1.025" fill="rgba(251,231,207,1.000)" /><rect x="21" y="15" width="1.025" height="1.025" fill="rgba(253,234,210,1.000)" /><rect x="22" y="15" width="1.025" height="1.025" fill="rgba(255,245,226,1.000)" /><rect x="23" y="15" width="1.025" height="1.025" fill="rgba(252,237,213,1.000)" /><rect x="24" y="15" width="1.025" height="1.025" fill="rgba(0,0,0,1.000)" /><rect x="11" y="16" width="1.025" height="1.025" fill="rgba(0,0,0,1.000)" /><rect x="12" y="16" width="1.025" height="1.025" fill="rgba(217,180,150,1.000)" /><rect x="13" y="16" width="1.025" height="1.025" fill="rgba(224,186,162,1.000)" /><rect x="14" y="16" width="1.025" height="1.025" fill="rgba(233,198,173,1.000)" /><rect x="15" y="16" width="1.025" height="1.025" fill="rgba(242,212,187,1.000)" /><rect x="16" y="16" width="1.025" height="1.025" fill="rgba(253,229,205,1.000)" /><rect x="17" y="16" width="1.025" height="1.025" fill="rgba(255,246,229,1.000)" /><rect x="18" y="16" width="1.025" height="1.025" fill="rgba(255,249,231,1.000)" /><rect x="19" y="16" width="1.025" height="1.025" fill="rgba(253,238,215,1.000)" /><rect x="20" y="16" width="1.025" height="1.025" fill="rgba(249,225,200,1.000)" /><rect x="21" y="16" width="1.025" height="1.025" fill="rgba(253,231,208,1.000)" /><rect x="22" y="16" width="1.025" height="1.025" fill="rgba(249,225,200,1.000)" /><rect x="23" y="16" width="1.025" height="1.025" fill="rgba(243,220,192,1.000)" /><rect x="24" y="16" width="1.025" height="1.025" fill="rgba(0,0,0,1.000)" /><rect x="12" y="17" width="1.025" height="1.025" fill="rgba(0,0,0,1.000)" /><rect x="13" y="17" width="1.025" height="1.025" fill="rgba(0,0,0,1.000)" /><rect x="14" y="17" width="1.025" height="1.025" fill="rgba(230,194,169,1.000)" /><rect x="15" y="17" width="1.025" height="1.025" fill="rgba(232,195,171,1.000)" /><rect x="16" y="17" width="1.025" height="1.025" fill="rgba(245,217,191,1.000)" /><rect x="17" y="17" width="1.025" height="1.025" fill="rgba(253,231,207,1.000)" /><rect x="18" y="17" width="1.025" height="1.025" fill="rgba(255,245,225,1.000)" /><rect x="19" y="17" width="1.025" height="1.025" fill="rgba(254,244,223,1.000)" /><rect x="20" y="17" width="1.025" height="1.025" fill="rgba(0,0,0,1.000)" /><rect x="21" y="17" width="1.025" height="1.025" fill="rgba(253,231,208,1.000)" /><rect x="22" y="17" width="1.025" height="1.025" fill="rgba(0,0,0,1.000)" /><rect x="23" y="17" width="1.025" height="1.025" fill="rgba(244,216,189,1.000)" /><rect x="24" y="17" width="1.025" height="1.025" fill="rgba(0,0,0,1.000)" /><rect x="13" y="18" width="1.025" height="1.025" fill="rgba(0,0,0,1.000)" /><rect x="14" y="18" width="1.025" height="1.025" fill="rgba(213,173,149,1.000)" /><rect x="15" y="18" width="1.025" height="1.025" fill="rgba(233,197,173,1.000)" /><rect x="16" y="18" width="1.025" height="1.025" fill="rgba(240,206,182,1.000)" /><rect x="17" y="18" width="1.025" height="1.025" fill="rgba(251,224,198,1.000)" /><rect x="18" y="18" width="1.025" height="1.025" fill="rgba(255,239,217,1.000)" /><rect x="19" y="18" width="1.025" height="1.025" fill="rgba(255,249,230,1.000)" /><rect x="20" y="18" width="1.025" height="1.025" fill="rgba(253,237,213,1.000)" /><rect x="21" y="18" width="1.025" height="1.025" fill="rgba(250,227,199,1.000)" /><rect x="22" y="18" width="1.025" height="1.025" fill="rgba(255,239,216,1.000)" /><rect x="23" y="18" width="1.025" height="1.025" fill="rgba(248,221,194,1.000)" /><rect x="24" y="18" width="1.025" height="1.025" fill="rgba(0,0,0,1.000)" /><rect x="13" y="19" width="1.025" height="1.025" fill="rgba(0,0,0,1.000)" /><rect x="14" y="19" width="1.025" height="1.025" fill="rgba(198,151,124,1.000)" /><rect x="15" y="19" width="1.025" height="1.025" fill="rgba(231,197,171,1.000)" /><rect x="16" y="19" width="1.025" height="1.025" fill="rgba(239,206,180,1.000)" /><rect x="17" y="19" width="1.025" height="1.025" fill="rgba(251,221,195,1.000)" /><rect x="18" y="19" width="1.025" height="1.025" fill="rgba(251,228,202,1.000)" /><rect x="19" y="19" width="1.025" height="1.025" fill="rgba(255,239,217,1.000)" /><rect x="20" y="19" width="1.025" height="1.025" fill="rgba(255,245,225,1.000)" /><rect x="21" y="19" width="1.025" height="1.025" fill="rgba(253,239,216,1.000)" /><rect x="22" y="19" width="1.025" height="1.025" fill="rgba(251,228,202,1.000)" /><rect x="23" y="19" width="1.025" height="1.025" fill="rgba(243,216,188,1.000)" /><rect x="24" y="19" width="1.025" height="1.025" fill="rgba(0,0,0,1.000)" /><rect x="13" y="20" width="1.025" height="1.025" fill="rgba(0,0,0,1.000)" /><rect x="14" y="20" width="1.025" height="1.025" fill="rgba(189,144,113,1.000)" /><rect x="15" y="20" width="1.025" height="1.025" fill="rgba(223,185,159,1.000)" /><rect x="16" y="20" width="1.025" height="1.025" fill="rgba(240,207,181,1.000)" /><rect x="17" y="20" width="1.025" height="1.025" fill="rgba(247,216,190,1.000)" /><rect x="18" y="20" width="1.025" height="1.025" fill="rgba(245,218,192,1.000)" /><rect x="19" y="20" width="1.025" height="1.025" fill="rgba(0,0,0,1.000)" /><rect x="20" y="20" width="1.025" height="1.025" fill="rgba(0,0,0,1.000)" /><rect x="21" y="20" width="1.025" height="1.025" fill="rgba(0,0,0,1.000)" /><rect x="22" y="20" width="1.025" height="1.025" fill="rgba(0,0,0,1.000)" /><rect x="23" y="20" width="1.025" height="1.025" fill="rgba(241,212,184,1.000)" /><rect x="24" y="20" width="1.025" height="1.025" fill="rgba(0,0,0,1.000)" /><rect x="13" y="21" width="1.025" height="1.025" fill="rgba(0,0,0,1.000)" /><rect x="14" y="21" width="1.025" height="1.025" fill="rgba(213,172,133,1.000)" /><rect x="15" y="21" width="1.025" height="1.025" fill="rgba(207,166,141,1.000)" /><rect x="16" y="21" width="1.025" height="1.025" fill="rgba(230,195,170,1.000)" /><rect x="17" y="21" width="1.025" height="1.025" fill="rgba(245,213,187,1.000)" /><rect x="18" y="21" width="1.025" height="1.025" fill="rgba(253,228,202,1.000)" /><rect x="19" y="21" width="1.025" height="1.025" fill="rgba(254,240,217,1.000)" /><rect x="20" y="21" width="1.025" height="1.025" fill="rgba(254,242,220,1.000)" /><rect x="21" y="21" width="1.025" height="1.025" fill="rgba(254,238,216,1.000)" /><rect x="22" y="21" width="1.025" height="1.025" fill="rgba(254,233,209,1.000)" /><rect x="23" y="21" width="1.025" height="1.025" fill="rgba(240,212,184,1.000)" /><rect x="24" y="21" width="1.025" height="1.025" fill="rgba(0,0,0,1.000)" /><rect x="13" y="22" width="1.025" height="1.025" fill="rgba(0,0,0,1.000)" /><rect x="14" y="22" width="1.025" height="1.025" fill="rgba(197,153,121,1.000)" /><rect x="15" y="22" width="1.025" height="1.025" fill="rgba(214,173,140,1.000)" /><rect x="16" y="22" width="1.025" height="1.025" fill="rgba(0,0,0,1.000)" /><rect x="17" y="22" width="1.025" height="1.025" fill="rgba(235,201,176,1.000)" /><rect x="18" y="22" width="1.025" height="1.025" fill="rgba(252,223,197,1.000)" /><rect x="19" y="22" width="1.025" height="1.025" fill="rgba(254,235,212,1.000)" /><rect x="20" y="22" width="1.025" height="1.025" fill="rgba(255,247,227,1.000)" /><rect x="21" y="22" width="1.025" height="1.025" fill="rgba(255,248,229,1.000)" /><rect x="22" y="22" width="1.025" height="1.025" fill="rgba(255,240,219,1.000)" /><rect x="23" y="22" width="1.025" height="1.025" fill="rgba(0,0,0,1.000)" /><rect x="13" y="23" width="1.025" height="1.025" fill="rgba(0,0,0,1.000)" /><rect x="14" y="23" width="1.025" height="1.025" fill="rgba(207,167,138,1.000)" /><rect x="15" y="23" width="1.025" height="1.025" fill="rgba(219,181,153,1.000)" /><rect x="16" y="23" width="1.025" height="1.025" fill="rgba(189,144,113,1.000)" /><rect x="17" y="23" width="1.025" height="1.025" fill="rgba(0,0,0,1.000)" /><rect x="18" y="23" width="1.025" height="1.025" fill="rgba(0,0,0,1.000)" /><rect x="19" y="23" width="1.025" height="1.025" fill="rgba(0,0,0,1.000)" /><rect x="20" y="23" width="1.025" height="1.025" fill="rgba(0,0,0,1.000)" /><rect x="21" y="23" width="1.025" height="1.025" fill="rgba(0,0,0,1.000)" /><rect x="22" y="23" width="1.025" height="1.025" fill="rgba(0,0,0,1.000)" /><rect x="13" y="24" width="1.025" height="1.025" fill="rgba(0,0,0,1.000)" /><rect x="14" y="24" width="1.025" height="1.025" fill="rgba(211,173,143,1.000)" /><rect x="15" y="24" width="1.025" height="1.025" fill="rgba(248,217,192,1.000)" /><rect x="16" y="24" width="1.025" height="1.025" fill="rgba(219,181,153,1.000)" /><rect x="17" y="24" width="1.025" height="1.025" fill="rgba(219,181,153,1.000)" /><rect x="18" y="24" width="1.025" height="1.025" fill="rgba(0,0,0,1.000)" /><rect x="13" y="25" width="1.025" height="1.025" fill="rgba(0,0,0,1.000)" /><rect x="14" y="25" width="1.025" height="1.025" fill="rgba(210,171,142,1.000)" /><rect x="15" y="25" width="1.025" height="1.025" fill="rgba(253,225,199,1.000)" /><rect x="16" y="25" width="1.025" height="1.025" fill="rgba(247,217,191,1.000)" /><rect x="17" y="25" width="1.025" height="1.025" fill="rgba(218,180,154,1.000)" /><rect x="18" y="25" width="1.025" height="1.025" fill="rgba(0,0,0,1.000)" /><rect x="13" y="26" width="1.025" height="1.025" fill="rgba(0,0,0,1.000)" /><rect x="14" y="26" width="1.025" height="1.025" fill="rgba(211,173,144,1.000)" /><rect x="15" y="26" width="1.025" height="1.025" fill="rgba(253,225,199,1.000)" /><rect x="16" y="26" width="1.025" height="1.025" fill="rgba(254,232,207,1.000)" /><rect x="17" y="26" width="1.025" height="1.025" fill="rgba(248,221,195,1.000)" /><rect x="18" y="26" width="1.025" height="1.025" fill="rgba(0,0,0,1.000)" /><rect x="13" y="27" width="1.025" height="1.025" fill="rgba(0,0,0,1.000)" /><rect x="14" y="27" width="1.025" height="1.025" fill="rgba(231,197,169,1.000)" /><rect x="15" y="27" width="1.025" height="1.025" fill="rgba(247,221,192,1.000)" /><rect x="16" y="27" width="1.025" height="1.025" fill="rgba(253,231,202,1.000)" /><rect x="17" y="27" width="1.025" height="1.025" fill="rgba(252,225,197,1.000)" /><rect x="18" y="27" width="1.025" height="1.025" fill="rgba(0,0,0,1.000)" /><rect x="11" y="28" width="1.025" height="1.025" fill="rgba(0,0,0,1.000)" /><rect x="12" y="28" width="1.025" height="1.025" fill="rgba(0,0,0,1.000)" /><rect x="13" y="28" width="1.025" height="1.025" fill="rgba(247,219,191,1.000)" /><rect x="14" y="28" width="1.025" height="1.025" fill="rgba(247,220,191,1.000)" /><rect x="15" y="28" width="1.025" height="1.025" fill="rgba(245,215,187,1.000)" /><rect x="16" y="28" width="1.025" height="1.025" fill="rgba(247,219,191,1.000)" /><rect x="17" y="28" width="1.025" height="1.025" fill="rgba(251,225,197,1.000)" /><rect x="18" y="28" width="1.025" height="1.025" fill="rgba(249,223,194,1.000)" /><rect x="19" y="28" width="1.025" height="1.025" fill="rgba(0,0,0,1.000)" /><rect x="20" y="28" width="1.025" height="1.025" fill="rgba(0,0,0,1.000)" /><rect x="9" y="29" width="1.025" height="1.025" fill="rgba(0,0,0,1.000)" /><rect x="10" y="29" width="1.025" height="1.025" fill="rgba(0,0,0,1.000)" /><rect x="11" y="29" width="1.025" height="1.025" fill="rgba(243,213,184,1.000)" /><rect x="12" y="29" width="1.025" height="1.025" fill="rgba(242,212,183,1.000)" /><rect x="13" y="29" width="1.025" height="1.025" fill="rgba(244,214,186,1.000)" /><rect x="14" y="29" width="1.025" height="1.025" fill="rgba(243,213,184,1.000)" /><rect x="15" y="29" width="1.025" height="1.025" fill="rgba(242,212,184,1.000)" /><rect x="16" y="29" width="1.025" height="1.025" fill="rgba(243,213,184,1.000)" /><rect x="17" y="29" width="1.025" height="1.025" fill="rgba(245,217,189,1.000)" /><rect x="18" y="29" width="1.025" height="1.025" fill="rgba(249,222,193,1.000)" /><rect x="19" y="29" width="1.025" height="1.025" fill="rgba(244,215,186,1.000)" /><rect x="20" y="29" width="1.025" height="1.025" fill="rgba(242,212,183,1.000)" /><rect x="21" y="29" width="1.025" height="1.025" fill="rgba(0,0,0,1.000)" /><rect x="22" y="29" width="1.025" height="1.025" fill="rgba(0,0,0,1.000)" /><rect x="23" y="29" width="1.025" height="1.025" fill="rgba(0,0,0,1.000)" /><rect x="8" y="30" width="1.025" height="1.025" fill="rgba(0,0,0,1.000)" /><rect x="9" y="30" width="1.025" height="1.025" fill="rgba(250,224,196,1.000)" /><rect x="10" y="30" width="1.025" height="1.025" fill="rgba(251,224,195,1.000)" /><rect x="11" y="30" width="1.025" height="1.025" fill="rgba(248,220,192,1.000)" /><rect x="12" y="30" width="1.025" height="1.025" fill="rgba(249,222,194,1.000)" /><rect x="13" y="30" width="1.025" height="1.025" fill="rgba(249,224,195,1.000)" /><rect x="14" y="30" width="1.025" height="1.025" fill="rgba(250,225,197,1.000)" /><rect x="15" y="30" width="1.025" height="1.025" fill="rgba(252,227,199,1.000)" /><rect x="16" y="30" width="1.025" height="1.025" fill="rgba(251,226,198,1.000)" /><rect x="17" y="30" width="1.025" height="1.025" fill="rgba(245,216,187,1.000)" /><rect x="18" y="30" width="1.025" height="1.025" fill="rgba(247,220,191,1.000)" /><rect x="19" y="30" width="1.025" height="1.025" fill="rgba(253,229,202,1.000)" /><rect x="20" y="30" width="1.025" height="1.025" fill="rgba(253,228,200,1.000)" /><rect x="21" y="30" width="1.025" height="1.025" fill="rgba(252,226,198,1.000)" /><rect x="22" y="30" width="1.025" height="1.025" fill="rgba(249,222,193,1.000)" /><rect x="23" y="30" width="1.025" height="1.025" fill="rgba(246,218,189,1.000)" /><rect x="24" y="30" width="1.025" height="1.025" fill="rgba(0,0,0,1.000)" /><rect x="7" y="31" width="1.025" height="1.025" fill="rgba(0,0,0,1.000)" /><rect x="8" y="31" width="1.025" height="1.025" fill="rgba(252,226,198,1.000)" /><rect x="9" y="31" width="1.025" height="1.025" fill="rgba(255,236,210,1.000)" /><rect x="10" y="31" width="1.025" height="1.025" fill="rgba(253,231,203,1.000)" /><rect x="11" y="31" width="1.025" height="1.025" fill="rgba(251,226,198,1.000)" /><rect x="12" y="31" width="1.025" height="1.025" fill="rgba(253,231,204,1.000)" /><rect x="13" y="31" width="1.025" height="1.025" fill="rgba(254,232,205,1.000)" /><rect x="14" y="31" width="1.025" height="1.025" fill="rgba(253,231,205,1.000)" /><rect x="15" y="31" width="1.025" height="1.025" fill="rgba(254,232,205,1.000)" /><rect x="16" y="31" width="1.025" height="1.025" fill="rgba(249,232,211,1.000)" /><rect x="17" y="31" width="1.025" height="1.025" fill="rgba(252,228,199,1.000)" /><rect x="18" y="31" width="1.025" height="1.025" fill="rgba(252,228,199,1.000)" /><rect x="19" y="31" width="1.025" height="1.025" fill="rgba(254,234,209,1.000)" /><rect x="20" y="31" width="1.025" height="1.025" fill="rgba(254,234,210,1.000)" /><rect x="21" y="31" width="1.025" height="1.025" fill="rgba(254,232,205,1.000)" /><rect x="22" y="31" width="1.025" height="1.025" fill="rgba(252,228,199,1.000)" /><rect x="23" y="31" width="1.025" height="1.025" fill="rgba(251,224,196,1.000)" /><rect x="24" y="31" width="1.025" height="1.025" fill="rgba(254,231,205,1.000)" /><rect x="25" y="31" width="1.025" height="1.025" fill="rgba(0,0,0,1.000)" /><rect x="6" y="32" width="1.025" height="1.025" fill="rgba(0,0,0,1.000)" /><rect x="7" y="32" width="1.025" height="1.025" fill="rgba(240,207,180,1.000)" /><rect x="8" y="32" width="1.025" height="1.025" fill="rgba(252,227,198,1.000)" /><rect x="9" y="32" width="1.025" height="1.025" fill="rgba(255,234,209,1.000)" /><rect x="10" y="32" width="1.025" height="1.025" fill="rgba(254,231,203,1.000)" /><rect x="11" y="32" width="1.025" height="1.025" fill="rgba(251,226,198,1.000)" /><rect x="12" y="32" width="1.025" height="1.025" fill="rgba(254,233,207,1.000)" /><rect x="13" y="32" width="1.025" height="1.025" fill="rgba(254,235,210,1.000)" /><rect x="14" y="32" width="1.025" height="1.025" fill="rgba(254,234,209,1.000)" /><rect x="15" y="32" width="1.025" height="1.025" fill="rgba(254,234,210,1.000)" /><rect x="16" y="32" width="1.025" height="1.025" fill="rgba(249,233,214,1.000)" /><rect x="17" y="32" width="1.025" height="1.025" fill="rgba(253,229,201,1.000)" /><rect x="18" y="32" width="1.025" height="1.025" fill="rgba(253,229,200,1.000)" /><rect x="19" y="32" width="1.025" height="1.025" fill="rgba(254,233,207,1.000)" /><rect x="20" y="32" width="1.025" height="1.025" fill="rgba(254,235,210,1.000)" /><rect x="21" y="32" width="1.025" height="1.025" fill="rgba(254,234,209,1.000)" /><rect x="22" y="32" width="1.025" height="1.025" fill="rgba(253,229,202,1.000)" /><rect x="23" y="32" width="1.025" height="1.025" fill="rgba(252,226,198,1.000)" /><rect x="24" y="32" width="1.025" height="1.025" fill="rgba(251,224,195,1.000)" /><rect x="25" y="32" width="1.025" height="1.025" fill="rgba(0,0,0,1.000)" /><rect x="6" y="33" width="1.025" height="1.025" fill="rgba(0,0,0,1.000)" /><rect x="7" y="33" width="1.025" height="1.025" fill="rgba(239,206,179,1.000)" /><rect x="8" y="33" width="1.025" height="1.025" fill="rgba(253,227,199,1.000)" /><rect x="9" y="33" width="1.025" height="1.025" fill="rgba(248,222,194,1.000)" /><rect x="10" y="33" width="1.025" height="1.025" fill="rgba(230,199,170,1.000)" /><rect x="11" y="33" width="1.025" height="1.025" fill="rgba(247,219,191,1.000)" /><rect x="12" y="33" width="1.025" height="1.025" fill="rgba(254,232,205,1.000)" /><rect x="13" y="33" width="1.025" height="1.025" fill="rgba(255,238,215,1.000)" /><rect x="14" y="33" width="1.025" height="1.025" fill="rgba(255,237,213,1.000)" /><rect x="15" y="33" width="1.025" height="1.025" fill="rgba(254,235,210,1.000)" /><rect x="16" y="33" width="1.025" height="1.025" fill="rgba(250,234,216,1.000)" /><rect x="17" y="33" width="1.025" height="1.025" fill="rgba(0,0,0,1.000)" /><rect x="18" y="33" width="1.025" height="1.025" fill="rgba(250,224,195,1.000)" /><rect x="19" y="33" width="1.025" height="1.025" fill="rgba(254,233,207,1.000)" /><rect x="20" y="33" width="1.025" height="1.025" fill="rgba(254,235,211,1.000)" /><rect x="21" y="33" width="1.025" height="1.025" fill="rgba(254,235,209,1.000)" /><rect x="22" y="33" width="1.025" height="1.025" fill="rgba(254,233,207,1.000)" /><rect x="23" y="33" width="1.025" height="1.025" fill="rgba(0,0,0,1.000)" /><rect x="24" y="33" width="1.025" height="1.025" fill="rgba(227,196,167,1.000)" /><rect x="25" y="33" width="1.025" height="1.025" fill="rgba(249,220,192,1.000)" /><rect x="26" y="33" width="1.025" height="1.025" fill="rgba(0,0,0,1.000)" /><rect x="6" y="34" width="1.025" height="1.025" fill="rgba(0,0,0,1.000)" /><rect x="7" y="34" width="1.025" height="1.025" fill="rgba(239,206,179,1.000)" /><rect x="8" y="34" width="1.025" height="1.025" fill="rgba(252,224,196,1.000)" /><rect x="9" y="34" width="1.025" height="1.025" fill="rgba(234,205,177,1.000)" /><rect x="10" y="34" width="1.025" height="1.025" fill="rgba(0,0,0,1.000)" /><rect x="11" y="34" width="1.025" height="1.025" fill="rgba(232,199,171,1.000)" /><rect x="12" y="34" width="1.025" height="1.025" fill="rgba(252,226,198,1.000)" /><rect x="13" y="34" width="1.025" height="1.025" fill="rgba(249,225,198,1.000)" /><rect x="14" y="34" width="1.025" height="1.025" fill="rgba(253,231,203,1.000)" /><rect x="15" y="34" width="1.025" height="1.025" fill="rgba(255,237,214,1.000)" /><rect x="16" y="34" width="1.025" height="1.025" fill="rgba(249,234,214,1.000)" /><rect x="17" y="34" width="1.025" height="1.025" fill="rgba(248,222,193,1.000)" /><rect x="18" y="34" width="1.025" height="1.025" fill="rgba(0,0,0,1.000)" /><rect x="19" y="34" width="1.025" height="1.025" fill="rgba(252,227,199,1.000)" /><rect x="20" y="34" width="1.025" height="1.025" fill="rgba(255,236,212,1.000)" /><rect x="21" y="34" width="1.025" height="1.025" fill="rgba(254,235,210,1.000)" /><rect x="22" y="34" width="1.025" height="1.025" fill="rgba(249,224,195,1.000)" /><rect x="23" y="34" width="1.025" height="1.025" fill="rgba(0,0,0,1.000)" /><rect x="24" y="34" width="1.025" height="1.025" fill="rgba(249,220,192,1.000)" /><rect x="25" y="34" width="1.025" height="1.025" fill="rgba(247,218,189,1.000)" /><rect x="26" y="34" width="1.025" height="1.025" fill="rgba(0,0,0,1.000)" /><rect x="6" y="35" width="1.025" height="1.025" fill="rgba(0,0,0,1.000)" /><rect x="7" y="35" width="1.025" height="1.025" fill="rgba(239,207,180,1.000)" /><rect x="8" y="35" width="1.025" height="1.025" fill="rgba(250,222,194,1.000)" /><rect x="9" y="35" width="1.025" height="1.025" fill="rgba(232,202,173,1.000)" /><rect x="10" y="35" width="1.025" height="1.025" fill="rgba(0,0,0,1.000)" /><rect x="11" y="35" width="1.025" height="1.025" fill="rgba(212,172,143,1.000)" /><rect x="12" y="35" width="1.025" height="1.025" fill="rgba(241,211,183,1.000)" /><rect x="13" y="35" width="1.025" height="1.025" fill="rgba(238,207,180,1.000)" /><rect x="14" y="35" width="1.025" height="1.025" fill="rgba(245,217,189,1.000)" /><rect x="15" y="35" width="1.025" height="1.025" fill="rgba(253,229,201,1.000)" /><rect x="16" y="35" width="1.025" height="1.025" fill="rgba(247,226,203,1.000)" /><rect x="17" y="35" width="1.025" height="1.025" fill="rgba(239,207,180,1.000)" /><rect x="18" y="35" width="1.025" height="1.025" fill="rgba(0,0,0,1.000)" /><rect x="19" y="35" width="1.025" height="1.025" fill="rgba(252,227,199,1.000)" /><rect x="20" y="35" width="1.025" height="1.025" fill="rgba(253,229,202,1.000)" /><rect x="21" y="35" width="1.025" height="1.025" fill="rgba(253,228,201,1.000)" /><rect x="22" y="35" width="1.025" height="1.025" fill="rgba(241,210,182,1.000)" /><rect x="23" y="35" width="1.025" height="1.025" fill="rgba(227,195,166,1.000)" /><rect x="24" y="35" width="1.025" height="1.025" fill="rgba(0,0,0,1.000)" /><rect x="25" y="35" width="1.025" height="1.025" fill="rgba(247,218,189,1.000)" /><rect x="26" y="35" width="1.025" height="1.025" fill="rgba(0,0,0,1.000)" /><rect x="6" y="36" width="1.025" height="1.025" fill="rgba(0,0,0,1.000)" /><rect x="7" y="36" width="1.025" height="1.025" fill="rgba(240,209,182,1.000)" /><rect x="8" y="36" width="1.025" height="1.025" fill="rgba(251,226,197,1.000)" /><rect x="9" y="36" width="1.025" height="1.025" fill="rgba(235,206,178,1.000)" /><rect x="10" y="36" width="1.025" height="1.025" fill="rgba(0,0,0,1.000)" /><rect x="11" y="36" width="1.025" height="1.025" fill="rgba(214,174,147,1.000)" /><rect x="12" y="36" width="1.025" height="1.025" fill="rgba(227,192,164,1.000)" /><rect x="13" y="36" width="1.025" height="1.025" fill="rgba(237,205,178,1.000)" /><rect x="14" y="36" width="1.025" height="1.025" fill="rgba(238,205,178,1.000)" /><rect x="15" y="36" width="1.025" height="1.025" fill="rgba(241,205,178,1.000)" /><rect x="16" y="36" width="1.025" height="1.025" fill="rgba(239,215,193,1.000)" /><rect x="17" y="36" width="1.025" height="1.025" fill="rgba(219,182,156,1.000)" /><rect x="18" y="36" width="1.025" height="1.025" fill="rgba(237,194,174,1.000)" /><rect x="19" y="36" width="1.025" height="1.025" fill="rgba(0,0,0,1.000)" /><rect x="20" y="36" width="1.025" height="1.025" fill="rgba(252,227,199,1.000)" /><rect x="21" y="36" width="1.025" height="1.025" fill="rgba(246,217,189,1.000)" /><rect x="22" y="36" width="1.025" height="1.025" fill="rgba(241,205,178,1.000)" /><rect x="23" y="36" width="1.025" height="1.025" fill="rgba(219,182,156,1.000)" /><rect x="24" y="36" width="1.025" height="1.025" fill="rgba(0,0,0,1.000)" /><rect x="25" y="36" width="1.025" height="1.025" fill="rgba(248,205,187,1.000)" /><rect x="26" y="36" width="1.025" height="1.025" fill="rgba(0,0,0,1.000)" /></svg>